<?xml version="1.0" encoding="utf-8"?>
<!-- Generator: Adobe Illustrator 16.0.0, SVG Export Plug-In . SVG Version: 6.00 Build 0)  -->
<!DOCTYPE svg PUBLIC "-//W3C//DTD SVG 1.1//EN" "http://www.w3.org/Graphics/SVG/1.1/DTD/svg11.dtd">
<svg version="1.1" id="Layer_1" xmlns="http://www.w3.org/2000/svg" xmlns:xlink="http://www.w3.org/1999/xlink" x="0px" y="0px"
	  viewBox="-150 0 800 500" enable-background="new -150 0 800 500" xml:space="preserve">
<g>
	<g>
		<path fill="#000000" d="M464.353,275.177c4.86-5.45,10.311-10.309,16.708-14.929c6.636-4.621,13.153-8.769,20.143-12.679
			c6.755-3.674,13.627-6.991,20.379-9.835c6.752-2.843,12.917-5.45,18.367-7.465c-2.253-0.83-4.386-1.778-6.756-3.081
			c-2.369-1.067-4.623-2.252-6.755-3.081c-2.252-1.067-4.384-2.015-6.398-2.606c-2.015-0.474-3.555-0.831-5.095-0.831
			c0,0.237-0.237,0.237-0.474,0.474c-0.237,0.237-0.237,0.474-0.475,0.474c-0.236,0.237-0.236,0.474-0.474,0.71
			c0,0.237-1.066,0.237-3.673,0c-2.606,0-5.45-0.237-9.242-0.474c-3.554-0.237-6.992-0.237-11.021-0.474
			c-3.675-0.237-6.756-0.237-9.241-0.237c-0.237,0-0.237-0.237-0.475-0.474c0-0.237-0.236-0.474-0.236-0.711
			c0-0.237,0-0.474,0.236-0.83c2.606-6.398,5.688-11.137,8.768-14.455c3.081-3.317,6.636-5.45,10.311-6.398
			c3.673-1.067,7.938-1.067,12.322-0.237c4.382,0.83,9.479,2.252,14.691,3.911c5.214,2.015,10.782,4.148,16.825,6.754
			c6.161,2.37,12.678,4.859,19.786,7.229c6.991,2.37,14.692,4.385,22.749,6.161s16.825,2.844,26.066,3.317
			c-0.474,1.067-1.066,2.607-2.251,4.385c-1.068,2.015-2.017,3.674-3.081,5.451c-1.305,2.252-2.606,4.385-4.148,6.754
			c-13.391,0.237-26.304,0.83-38.626,2.37c-12.442,1.304-23.934,3.317-34.359,6.161c-10.784,2.606-20.38,6.161-28.91,10.071
			c-8.531,4.148-15.997,9.004-21.922,14.455H464.35"/>
		<path fill="#000000" d="M478.334,275.177c0.831,0.474,2.016,0.829,2.844,1.54c0.831,0.474,1.779,0.831,2.369,1.542
			c1.779,1.306,3.317,3.317,4.86,5.45c1.778,2.253,3.317,4.86,4.386,7.703c1.303,3.081,2.014,6.398,2.606,9.835
			c0.474,3.673,0.474,7.701-0.237,11.611c-0.237,1.777-0.711,2.843-1.542,3.554c-0.711,0.711-2.017,0.83-3.555,0.83
			c-3.317,0-6.161-0.711-9.005-2.015c-2.606-1.303-5.213-2.844-7.703-4.857c-2.606-2.017-4.857-4.149-6.99-6.636
			c-2.133-2.487-4.147-4.622-5.924-6.755c-1.066-0.237-2.015,0.237-2.607,1.068c-0.829,1.066-1.777,2.369-2.606,4.146
			c-0.829,1.54-2.014,3.555-3.317,5.45c-1.304,2.251-2.844,4.147-5.095,5.925c-2.017,2.014-4.623,3.554-7.703,4.857
			c-3.081,1.542-6.756,2.253-11.021,2.606v-23.107c6.161,0.474,11.021,0,14.93-1.304c3.675-1.305,6.755-3.08,9.241-5.45
			c2.606-2.37,4.623-5.097,6.398-7.94c1.542-2.844,3.555-5.687,5.45-8.057c2.016-1.068,4.148-1.779,6.755-1.542
			C473.476,273.637,475.964,273.992,478.334,275.177"/>
		<path fill="#000000" d="M360.799,301.479c2.606,0.237,5.213,0,8.057-0.474s5.45-1.066,8.057-2.014c2.606-0.832,5.097-2.017,6.992-3.081
			c2.253-1.068,3.912-2.369,5.214-3.555c0.711-0.711,0.711-1.305-0.237-2.369c-0.831-0.831-2.017-2.017-3.555-2.844
			c-1.305-1.068-2.844-1.779-4.623-2.606c-1.776-0.711-3.08-0.831-3.909-0.831c-0.83,0.236-1.777,0.71-2.844,1.305
			c-0.829,0.711-1.777,1.304-2.606,1.777c-0.83,0.711-1.541,1.066-2.252,1.54c-0.474,0.237-0.711,0-0.711-0.829
			c0-2.844,0.475-6.161,1.066-9.479c0.711-3.081,2.015-6.161,3.91-9.005c1.779-2.606,4.386-5.095,7.467-6.99
			c3.317-1.779,7.229-2.844,12.322-3.318c1.778,0,3.675,0,5.45,0c2.016,0.237,3.911,0.475,5.687,0.711
			c1.775,0.237,3.318,0.711,5.097,0.83c1.541,0.474,2.844,1.066,3.91,1.54c0.474,0.474,1.304,0.831,2.37,1.542
			c0.829,0.711,2.014,1.542,3.317,2.606c1.066,1.068,2.014,2.37,2.844,3.675c0.829,1.304,1.303,2.844,1.303,4.384
			c0.237,1.304-0.236,2.844-0.829,4.621c-0.829,1.542-1.777,3.317-2.606,4.859c-1.066,1.543-2.251,3.081-3.081,4.386
			c-1.066,1.304-1.777,2.252-2.251,2.844c-0.237,0.237,0.237,0.711,1.066,1.541c0.829,0.711,2.015,1.54,3.555,2.369
			c1.303,0.711,2.844,1.54,4.621,2.251c1.542,0.831,3.08,1.068,4.386,1.068v23.223c-2.844-0.236-5.214-0.711-7.704-1.779
			c-2.369-1.066-4.384-2.369-6.397-3.909c-1.777-1.304-3.555-3.081-4.858-4.621c-1.303-1.779-2.606-3.317-3.554-4.623
			c-1.066-1.542-2.015-2.606-2.607-3.317c-0.711-0.831-1.066-1.068-1.54-0.831c-1.779,2.016-4.148,4.148-6.992,6.755
			c-3.081,2.37-6.398,5.097-9.836,7.229c-3.673,2.37-7.465,4.384-11.611,6.161c-4.147,1.541-8.294,2.37-12.44,2.37
			C356.059,317.476,356.059,309.537,360.799,301.479"/>
		<path fill="#000000" d="M360.68,324.703c-2.606,0-5.213-0.711-7.938-2.252c-2.369-1.305-4.859-2.606-6.992-4.386
			c-2.016-1.778-3.912-3.317-5.688-4.859c-1.775-1.54-3.08-2.37-4.148-2.606c-1.777-0.474-3.317,0-4.857,1.305
			c-1.777,1.068-3.317,2.844-4.621,4.86c-1.542,2.251-2.844,4.62-4.148,6.99c-1.306,2.606-2.607,4.857-3.675,6.99
			c-0.83,2.253-2.015,3.675-2.607,5.097c-0.829,1.306-1.54,1.779-1.777,1.542c-0.474-1.068-0.236-2.606,0.475-5.213
			s1.777-5.688,3.08-9.005c1.304-3.555,3.081-6.992,4.858-10.784c2.016-3.675,3.911-7.229,5.924-10.31
			c2.016-3.317,3.912-5.924,6.161-7.938c2.016-2.251,3.912-3.317,5.688-3.317c1.305-0.237,2.844,0.474,4.148,1.304
			c1.306,1.067,2.844,2.253,4.623,3.554c1.54,1.306,3.317,2.607,5.213,3.675c2.015,1.306,4.146,2.017,6.398,2.017v23.341"/>
		<path fill="#000000" d="M256.059,278.021c1.068,0.711,2.37,1.303,3.912,2.014s3.317,1.542,5.097,2.253c1.777,0.711,3.673,1.306,5.45,2.017
			c1.775,0.711,3.555,1.303,5.214,1.777c0.474-0.83,0.474-2.251,0.236-3.91c-0.474-2.017-1.068-3.675-2.016-5.45
			c-0.831-1.542-2.017-3.317-3.317-4.623c-1.302-1.305-2.607-2.016-3.912-2.016c-0.829,0-2.015,0.236-3.081,0.711
			c-1.066,0.236-2.014,0.831-3.08,1.542c-1.064,0.711-2.015,1.542-2.844,2.369C256.889,275.295,256.296,276.717,256.059,278.021
			 M210.206,319.016c-3.081-7.938-3.081-15.521,0-23.223c4.622,0.711,8.768,0.474,12.441-0.475c3.674-0.711,6.992-2.014,9.835-3.673
			c2.843-1.542,5.213-3.317,7.228-5.45c2.015-2.016,3.674-3.675,5.213-5.45c1.54-1.777,2.844-3.08,3.674-3.911
			c1.067-1.068,2.014-1.306,2.844-0.832c0.71,0.475,0.71,0.475,0.474,0.475c-0.237-0.237-0.237-0.237,0,0
			c1.777-3.91,3.673-7.702,5.688-11.02c2.014-2.606,3.909-5.213,6.397-7.464c2.488-2.253,4.858-3.555,7.465-3.675
			c3.555-0.237,6.397,0.831,8.53,3.317c2.253,2.369,3.555,5.687,4.386,9.479c1.068,3.675,1.306,7.703,1.306,12.085
			c-0.237,4.386-0.711,8.531-1.542,12.322c-0.832,3.675-2.253,6.992-3.675,9.479c-1.541,2.607-3.318,3.912-5.095,3.676
			c-2.607,0-5.45-0.711-8.769-1.543c-3.317-1.067-6.635-2.016-9.597-3.317c-2.844-1.068-5.688-2.016-7.94-3.08
			c-2.37-0.831-3.911-1.306-4.385-1.068c-0.83,0-1.541,0.711-2.252,2.016c-0.831,1.068-1.778,2.606-2.844,4.623
			c-1.067,1.777-2.606,3.673-4.148,5.688c-1.541,2.251-3.554,3.909-5.924,5.687c-2.252,1.777-5.096,3.318-8.294,4.384
			C218.382,318.542,214.471,319.016,210.206,319.016"/>
		<path fill="#000000" d="M142.79,323.992c-2.37-7.702-2.37-15.403,0-23.223c7.465,0,13.39-0.711,18.246-2.015c4.622-1.542,8.294-3.317,11.138-5.45
			c2.606-2.253,4.859-4.386,6.161-6.756c1.067-2.253,2.252-4.386,2.844-6.161c0.711-1.542,1.304-2.843,2.252-3.675
			c1.067-0.711,2.015-1.303,2.606-1.303c0.831,0,1.542,0.236,2.015,0.711c0.474,0.711,0.711,1.303,0.474,2.251
			c-1.778,4.148-2.015,7.466-0.831,9.836c0.831,2.369,2.607,4.148,5.213,5.213c2.37,1.068,5.213,1.779,8.294,2.253
			c3.317,0.237,6.398,0.237,9.242,0.237v23.223c-3.555,0.237-6.398-0.236-8.531-1.068c-2.252-0.831-4.148-2.253-5.924-3.675
			c-1.541-1.54-2.843-3.317-3.911-5.095c-0.831-2.014-2.015-3.673-2.607-5.213c-0.83-1.777-1.778-3.081-2.843-4.384
			c-0.831-1.306-2.015-2.017-3.318-2.37c-1.067-0.236-2.015,0.237-2.606,1.54c-0.711,1.066-1.541,2.607-2.252,4.621
			c-0.831,1.779-2.015,3.912-3.555,6.398c-1.304,2.369-3.317,4.623-5.924,6.635c-2.606,2.253-6.161,3.912-10.309,5.214
			C154.401,322.926,149.068,323.755,142.79,323.992"/>
		<path fill="#000000" d="M142.79,323.992c-3.674,0-6.754-0.83-9.479-2.607c-2.606-1.54-4.858-3.673-6.635-6.161
			c-1.778-2.369-3.081-5.095-3.911-7.938c-0.83-3.08-1.304-5.687-1.304-8.057c-0.83-13.627-1.541-26.54-2.015-38.151
			c-0.711-11.849-1.067-23.224-1.778-34.361c-0.71-11.137-1.541-22.394-2.606-33.532c-0.83-11.137-2.37-22.985-4.385-35.782
			c0-0.237-0.237-0.83-0.474-2.015c-0.474-0.831-0.711-2.015-1.067-3.081c-0.237-1.304-0.474-2.37-0.831-3.317
			c-0.237-1.067-0.237-1.778-0.237-2.252c0-0.83,0.237-2.252,0.711-4.148c0.474-2.252,0.83-4.385,1.541-6.635
			c0.474-2.37,1.067-4.622,1.778-6.635c0.474-2.252,0.83-3.554,1.304-4.148c2.015,7.466,3.555,15.403,4.859,23.697
			c1.304,8.531,2.37,17.299,3.317,26.303c0.711,9.005,1.304,18.247,1.778,27.608c0.711,9.479,1.067,18.84,1.541,28.318
			s0.831,18.84,1.541,28.081c0.474,9.241,1.305,18.01,2.37,26.54c0.237,2.37,0.71,4.386,1.541,6.161
			c0.83,1.777,2.015,3.317,3.317,4.623c1.303,1.305,2.607,2.253,4.148,3.08c1.541,0.711,3.317,1.068,5.096,1.068v23.342"/>
		<path fill="#000000" d="M-43.822,396.385c-3.674,0-6.754-1.066-9.005-3.673c-2.252-2.369-3.911-5.687-4.859-9.834
			c-0.83-4.148-1.304-9.005-0.83-14.455c0.237-5.45,1.067-11.374,2.606-17.299c1.54-5.924,3.674-12.085,6.161-18.246
			c2.607-6.161,5.688-11.849,9.479-17.535c0.711-1.068,1.304-1.542,2.015-1.068s0.711,1.068,0.474,2.016
			c-0.474,0.83-1.304,2.844-2.606,5.925c-1.541,3.08-2.844,6.635-4.148,10.781c-1.541,4.147-2.606,8.531-3.674,13.152
			c-1.067,4.622-1.541,8.768-1.304,12.68c0.237,3.911,1.304,7.466,3.081,10.072c2.015,2.606,5.096,4.147,9.479,4.384
			c3.911,0.237,7.703-1.066,11.611-3.673c3.911-2.369,7.939-5.924,12.085-10.31c4.148-4.623,8.294-9.599,12.679-15.403
			c4.385-5.687,9.005-11.611,13.863-17.535c4.859-5.924,9.598-11.849,14.929-17.772c5.213-5.688,10.783-10.784,16.47-15.403
			c5.688-4.618,11.849-8.057,18.247-11.021c6.398-2.844,13.153-4.146,20.379-4.146c6.161,0,11.02,1.777,14.455,5.213
			c3.674,3.555,5.45,8.294,5.45,14.692c0,1.303-0.237,2.844-0.237,4.857c-0.237,1.779-0.474,3.675-0.83,5.213
			c-0.474,1.779-1.067,2.844-1.778,3.675c-0.83,1.068-2.015,1.068-3.081,0.237c-2.252-2.016-3.911-3.675-5.687-5.097
			c-1.778-1.54-3.555-2.606-5.45-3.555c-1.778-0.829-3.674-1.303-5.688-1.777c-2.252-0.474-4.385-0.474-7.229-0.474
			c-6.991,0-13.626,1.304-19.788,3.91c-6.161,2.844-11.848,6.398-17.298,10.784c-5.213,4.622-10.309,9.599-15.166,15.402
			c-4.622,5.688-9.242,11.611-13.626,17.535c-4.385,5.925-8.531,11.849-12.442,17.536c-4.147,5.688-8.293,10.784-12.441,15.166
			c-4.148,4.622-8.294,8.057-12.442,11.021C-34.581,395.082-39.201,396.385-43.822,396.385"/>
		<path fill="#000000" d="M-14.438,316.29c-3.911-6.635-3.911-14.218,0-23.223c2.015,0.237,4.622,0.237,8.057-0.236
			c3.317-0.475,6.991-1.066,10.783-2.015c3.674-0.829,7.702-2.015,11.375-3.317c3.911-1.304,7.465-2.844,10.309-4.384
			c3.081-1.542,5.451-3.081,7.229-4.86c1.778-1.778,2.37-3.554,2.252-5.45c-0.711-3.911-2.37-7.939-4.859-11.611
			c-2.607-3.911-5.45-7.466-8.768-11.02c-3.317-3.555-6.991-6.754-10.783-9.835c-3.674-2.844-7.465-5.45-10.783-7.939
			c-3.555-2.252-6.635-3.911-9.242-5.45c-2.607-1.539-4.622-2.37-5.45-2.844v5.688c0,0.237-1.067,0-3.081-0.474
			c-2.014-0.474-3.911-1.067-6.398-2.015c-2.37-0.83-4.622-1.778-6.635-3.081c-2.015-1.067-2.844-2.37-2.844-3.911v-24.171
			l162.205-100.83l-4.385,16.825l-140.047,88.745c6.992,4.859,13.863,9.598,20.853,14.692c6.992,5.213,13.153,10.783,18.603,16.824
			c5.45,5.924,9.598,12.679,12.679,20.142c3.081,7.464,4.147,15.997,3.554,25.238c-0.474,5.214-2.37,10.073-5.45,14.455
			c-3.317,4.386-7.465,8.294-12.441,11.611c-5.096,3.317-10.783,5.925-17.062,8.058C-1.049,314.395-7.684,315.698-14.438,316.29"/>
		<path fill="#000000" d="M-14.438,316.29c-5.213,0-9.598-0.829-13.152-3.08c-3.555-2.015-6.635-4.621-9.005-7.938s-4.622-6.99-6.161-11.138
			c-1.54-4.146-2.844-8.294-3.911-12.322c-0.474-1.066-0.711-1.54-1.067-1.54c0,0-0.237,0.237-0.711,0.474
			c-0.237,0.475-0.474,0.83-0.831,1.304s-0.711,0.711-0.83,1.066c-0.237,0.236-0.474,0.474-0.711,0.711
			c-1.062,1.066-2.601,2.251-4.854,3.08c-2.252,1.068-4.858,1.779-7.465,2.37c-2.606,0.474-5.45,0.831-8.057,1.305
			c-2.844,0.237-5.45,0.475-7.703,0.237c-2.37,0-4.385-0.237-5.687-0.711c-1.541-0.474-2.252-1.068-2.252-2.016
			c-0.237-0.475-0.237-1.777,0-4.147c0.237-2.251,0.83-4.857,1.541-7.938c0.711-2.844,1.542-5.688,2.607-8.53
			c1.304-2.844,2.843-5.214,4.622-6.756c2.844-2.369,5.924-4.623,9.005-6.635c3.317-1.779,6.161-3.555,8.768-4.859
			s4.859-2.37,6.754-3.555c1.778-1.067,2.844-2.015,3.081-3.081v-2.011c0.711-1.778,1.304-3.674,2.015-6.398
			c0.831-2.37,1.778-4.859,2.37-6.992c0.831-2.252,1.542-3.911,2.252-5.213c0.474-1.304,0.83-2.015,0.83-1.541
			c0.711,4.385,1.067,9.242,1.304,14.218c0.474,5.213,0.711,10.309,1.304,15.522c0.474,5.214,1.304,10.309,2.252,15.167
			c1.067,4.857,2.37,9.241,4.385,13.151s4.385,7.228,7.465,9.598c3.081,2.606,6.991,4.148,11.848,4.622v23.576 M-50.338,252.546
			c-0.237,0.832-0.831,1.779-2.37,3.081c-1.304,1.068-3.081,2.369-4.859,3.675c-1.778,1.305-3.555,2.606-5.213,4.148
			c-1.778,1.304-3.081,2.606-3.911,3.91c-0.711,1.066-0.711,1.777,0.237,2.251c0.711,0.711,1.778,1.068,3.081,1.542
			c1.304,0.237,2.844,0.475,4.622,0.475c1.778,0,3.318,0,4.859,0c1.304-0.237,2.607-0.237,3.674-0.475
			c1.067-0.236,1.542-0.711,1.304-0.831c0,0,0-0.829-0.237-2.606c-0.237-1.775-0.237-3.673-0.474-5.924
			c-0.237-2.25-0.237-4.147-0.474-5.925C-50.338,253.85-50.338,252.783-50.338,252.546"/>
		<g>
			<path fill="#000000" d="M534.021,289.868c0.236,0,0.236-0.474,0.711-1.54c0.474-1.068,0.831-2.253,1.542-3.675
				c0.711-1.305,1.305-2.844,2.016-4.386c0.711-1.54,1.304-3.08,1.777-4.384c0.711-1.304,1.304-2.37,1.54-3.317
				c0.475-0.829,0.711-1.304,0.831-1.304c1.543,0.475,3.555,1.304,5.45,2.251c2.254,1.066,4.149,2.252,6.162,3.318
				c1.778,1.066,3.554,2.251,5.096,3.317c1.541,1.066,2.607,2.014,3.081,2.606c-1.306,3.08-2.606,5.924-3.675,8.531
				c-1.068,2.251-2.017,4.384-3.081,6.635c-0.831,2.014-1.778,3.317-2.253,4.146c-1.066-0.829-2.369-2.014-3.91-3.317
				c-1.54-1.066-3.317-2.251-5.095-3.317c-1.778-1.304-3.554-2.251-5.213-3.317C537.102,291.172,535.562,290.224,534.021,289.868"/>
		</g>
		<path fill="#000000" d="M328.452,279.561c-1.54-1.066-2.844-2.015-3.91-3.081c-1.305-0.829-2.606-1.54-3.911-2.369
			c-1.306-0.827-2.606-1.777-3.912-2.37c-1.54-0.829-3.08-2.014-4.857-3.08c0,0,0.236-0.829,1.066-2.844
			c0.831-1.777,1.778-3.91,2.843-6.161c0.832-2.251,2.017-4.146,2.844-6.161c0.831-1.777,1.306-2.605,1.542-2.605
			c2.844,1.067,5.925,2.605,9.005,4.385c3.081,1.779,5.925,3.675,8.531,5.213c1.305-2.606,2.606-5.097,3.555-7.229
			c1.067-2.014,2.016-3.673,2.606-5.449c0.831-1.778,1.305-2.844,1.542-3.318c1.066,0.474,2.606,1.304,4.857,2.37
			c2.015,1.067,3.91,2.37,5.925,3.555c2.251,1.304,3.91,2.606,5.213,3.674c1.54,1.067,2.251,2.016,2.251,2.369
			c-0.236,1.068-0.711,2.37-1.066,3.912c-0.474,1.54-1.066,3.08-1.776,4.857c-0.711,1.777-1.543,3.555-2.37,5.095
			c-0.831,1.779-1.779,3.081-2.606,4.149c0,0-1.068-0.475-3.081-1.543c-1.779-0.829-3.675-2.251-5.924-3.317
			c-2.253-1.303-4.386-2.369-6.161-3.555c-1.779-1.065-2.844-1.776-2.844-1.776c-0.237,0.236-0.831,1.066-1.779,2.606
			c-0.831,1.54-1.779,3.317-2.844,5.095c-1.064,1.779-2.016,3.317-2.843,4.859C329.282,278.376,328.689,279.323,328.452,279.561"/>
		<path fill="#000000" d="M580.94,182.168c-2.015-0.83-3.555-2.015-4.857-3.081c-1.304-1.065-1.777-2.37-1.777-4.148c0,0,0-0.474,0-1.067
			c0.236-0.474,0.474-1.067,0.711-2.015c0.236-0.831,0.711-1.542,1.303-2.607c0.475-0.83,1.304-1.778,2.251-2.37
			c1.306-1.304,2.607-2.252,3.912-2.606c1.306-0.474,2.253-0.711,3.081-0.237c1.067,0.474,1.778,1.067,2.016,2.252
			c0.237,1.304,0.474,2.37,0.237,3.911c0,1.304-0.237,2.844-0.711,4.148c-0.237,1.304-0.475,2.37-0.711,3.081
			c0.711,0.474,1.54,1.067,2.369,1.778c0.828,0.711,1.304,1.067,1.541,1.541c0,0.474,0,0.711-0.237,1.304
			c-0.237,0.474-0.474,1.067-0.829,1.778c-0.237,0.711-0.475,1.067-0.832,1.778c-0.236,0.711-0.71,1.067-0.831,1.304
			c-0.236-0.237-0.474-0.474-0.829-0.831c-0.474-0.474-0.711-0.711-1.066-0.83c-0.474-0.474-0.831-0.711-1.305-0.831
			c-0.237-0.237-0.711-0.474-0.711-0.711c-0.711,0.831-1.779,2.252-3.318,3.911c-1.305,1.541-3.554,3.555-6.16,5.45
			c-2.37,1.778-4.623,3.317-6.636,4.385c-1.779,1.067-3.555,2.015-5.45,2.844c-1.779,0.83-3.555,1.541-5.45,2.252
			c-2.016,0.711-4.386,1.542-6.992,2.607c-1.777,0.71-2.606,0.83-2.606,0.474c0-0.237,0.711-0.83,2.016-1.778
			c2.606-1.541,5.214-3.317,8.294-5.096c2.844-1.541,5.688-3.317,8.531-5.096c2.843-1.778,5.45-3.554,8.057-5.213
			C576.557,186.314,578.926,184.418,580.94,182.168 M583.547,176.007c0.237-0.474,0.475-1.067,0.475-2.015c0-0.711,0-1.304,0-2.252
			c-0.237-0.711-0.475-1.067-0.83-1.541c-0.236-0.474-0.711-0.711-1.303-0.711c-0.237,0-0.475,0-0.832,0.237
			c-0.474,0-0.831,0.237-1.067,0.474c-0.475,0.237-0.83,0.474-1.066,0.71c-0.237,0.474-0.475,0.711-0.475,0.831
			c0,0.237,0.237,0.711,0.475,1.067c0.474,0.237,0.829,0.711,1.303,1.067c0.475,0.474,1.068,0.711,1.779,1.067
			C582.48,175.65,583.191,175.888,583.547,176.007"/>
		<g>
			<path fill="#000000" d="M401.438,183.116c1.303-0.711,3.08-1.305,5.687-2.252c2.37-0.83,5.095-2.015,8.058-3.081
				c3.08-1.067,6.161-2.252,9.241-3.317c3.317-1.067,6.161-2.252,8.768-3.081c2.844-0.831,5.095-1.778,6.754-2.37
				c2.016-0.711,3.08-1.067,3.555-1.304c0.711-0.237,1.305-0.474,1.305-0.237c0.237,0.237,0.237,0.711,0,1.304
				c-0.474,1.067-0.831,2.016-1.305,2.607c-0.475,0.474-0.711,0.83-0.83,1.067c-0.236,0-0.829,0.474-2.014,0.83
				c-1.068,0.474-2.606,1.067-4.623,1.778c-1.779,0.711-3.675,1.304-6.161,2.252c-2.369,0.831-4.859,1.778-7.229,2.607
				c-2.369,1.067-5.095,2.015-7.464,2.843c-2.37,0.829-4.858,1.778-6.754,2.607c-2.253,0.83-4.148,1.778-5.688,2.37
				c-1.778,0.711-2.843,1.304-3.675,1.778c0.475-1.067,0.711-2.252,0.832-3.081c0.236-0.83,0.474-1.541,0.829-2.252
				C400.964,183.708,401.201,183.233,401.438,183.116"/>
		</g>
		<path fill="#000000" d="M326.201,199.704c0,0.711,0.237,1.067,0.711,1.542c0.474,0.474,1.068,0.71,1.779,0.83
			c0.831,0.474,1.542,0.474,2.369,0.711c0.828,0.237,1.543,0.237,2.017,0.474c0.236-0.474,0.474-0.83,0.711-2.015
			c0.236-1.067,0.474-2.016,0.474-3.081s-0.237-2.252-0.711-3.08c-0.474-0.829-1.305-1.542-2.606-1.542
			c-0.474,0-0.831,0.237-1.542,0.711c-0.475,0.711-0.831,1.304-1.306,2.015c-0.474,0.711-0.829,1.541-1.303,2.252
			C326.438,199.11,326.201,199.467,326.201,199.704 M335.917,203.613c-0.237,0,0,0.237,0.711,0.237
			c0.474,0.237,1.068,0.474,1.779,0.474c0.831,0.237,1.778,0.474,2.606,0.711c0.831,0,1.779,0.237,2.606,0.237s1.542,0,2.253,0
			c0.474,0,0.829-0.237,0.829-0.474c0.237-0.237,0-0.83-0.236-1.541c-0.475-0.711-0.83-1.542-1.54-2.252
			c-0.475-0.711-1.306-1.542-2.017-2.252c-0.711-0.83-1.542-1.541-2.253-2.015c-0.711-0.711-1.066-1.067-1.777-1.304
			c-0.474-0.237-0.711,0-0.711,0.237c0,0.83-0.474,2.252-0.711,3.674S336.51,202.311,335.917,203.613 M329.045,209.774
			c-1.777-0.237-3.081-1.067-3.91-2.015c-0.829-1.067-1.303-2.252-1.54-3.555s-0.237-2.844,0.237-4.148
			c0.236-1.541,0.71-2.843,1.303-4.147c0.711-1.304,1.066-2.37,1.777-3.318c0.711-1.067,1.068-1.778,1.542-2.015
			c0.237,0,0.237-0.237,0.474-0.711c0-0.711,0.237-1.067,0.475-2.015c0.236-0.711,0.474-1.541,0.711-2.37
			c0.236-0.828,0.474-1.541,0.711-2.37c0.236-0.711,0.474-1.304,0.474-1.778c0.237-0.474,0.474-0.83,0.474-0.83
			c0.832-0.237,2.017,0,3.081,0.711c1.305,0.711,2.606,1.541,3.911,2.606c1.304,1.065,2.607,2.37,3.91,3.911
			c1.066,1.541,2.37,3.081,3.317,4.858c1.066,1.542,2.015,3.081,2.607,4.622c0.711,1.541,0.829,2.844,0.829,4.148
			c0,1.778-0.237,3.554-0.829,5.213c-0.711,2.015-1.777,3.318-3.555,4.385c-0.711,0.474-1.54,0.474-2.844,0.474s-2.606,0-3.91-0.237
			c-1.542,0-2.606-0.237-3.911-0.474c-1.068-0.237-1.779-0.474-2.254-0.474c-0.236,0-0.711,0.83-1.54,2.252
			c-0.829,1.304-2.251,3.081-4.146,5.096c-2.017,2.015-4.623,4.148-7.94,6.161c-3.317,2.252-7.229,3.911-11.849,5.45
			c-0.711,0-0.831,0-0.831-0.474c0-0.237,0.237-0.71,1.068-1.304c3.555-2.37,6.635-4.385,9.005-5.924
			c2.369-1.778,4.386-3.081,5.924-4.385c1.779-1.305,3.081-2.37,4.148-3.555C326.912,212.617,327.979,211.315,329.045,209.774"/>
		<path fill="#000000" d="M277.979,189.04c-2.015-0.83-3.555-2.015-4.857-3.081c-1.306-1.065-1.779-2.37-1.779-4.148c0,0,0-0.474,0-1.067
			c0.236-0.474,0.474-1.067,0.711-2.015c0.236-0.831,0.711-1.542,1.305-2.607c0.475-0.83,1.304-1.778,2.251-2.37
			c1.304-1.304,2.607-2.252,3.91-2.606c1.306-0.474,2.253-0.711,3.081-0.237c1.068,0.474,1.779,1.067,2.016,2.252
			c0.237,1.304,0.474,2.37,0.237,3.911c0,1.304-0.237,2.844-0.711,4.148c-0.237,1.304-0.474,2.37-0.711,3.081
			c0.711,0.474,1.542,1.067,2.369,1.778c0.828,0.711,1.306,1.067,1.543,1.541c0,0.474,0,0.711-0.237,1.304
			c-0.237,0.474-0.474,1.067-0.831,1.778c-0.237,0.711-0.475,1.067-0.831,1.778c-0.237,0.711-0.711,1.067-0.83,1.304
			c-0.236-0.237-0.474-0.474-0.829-0.831c-0.474-0.474-0.711-0.711-1.068-0.83c-0.474-0.474-0.831-0.711-1.305-0.831
			c-0.237-0.237-0.711-0.474-0.711-0.711c-0.711,0.831-1.777,2.252-3.317,3.911c-1.304,1.541-3.555,3.555-6.161,5.45
			c-2.37,1.778-4.621,3.317-6.636,4.385c-1.777,1.067-3.555,2.015-5.45,2.844c-1.777,0.83-3.555,1.541-5.45,2.252
			c-2.014,0.711-4.384,1.541-6.99,2.606c-1.778,0.711-2.607,0.831-2.607,0.474c0-0.237,0.711-0.83,2.015-1.778
			c2.607-1.541,5.213-3.317,8.293-5.096c2.844-1.541,5.688-3.317,8.531-5.096c2.844-1.778,5.45-3.554,8.057-5.213
			C273.595,193.186,275.964,191.173,277.979,189.04 M280.585,182.879c0.237-0.474,0.474-1.067,0.474-2.015c0-0.711,0-1.304,0-2.252
			c-0.236-0.711-0.474-1.067-0.829-1.542c-0.236-0.474-0.711-0.71-1.305-0.71c-0.237,0-0.475,0-0.831,0.237
			c-0.475,0-0.83,0.237-1.066,0.474c-0.475,0.237-0.83,0.474-1.066,0.711c-0.237,0.474-0.475,0.711-0.475,0.831
			c0,0.237,0.237,0.711,0.475,1.067c0.474,0.237,0.829,0.711,1.303,1.067c0.475,0.356,1.066,0.711,1.777,1.067
			C279.519,182.405,280.229,182.642,280.585,182.879"/>
		<g>
			<g>
				<g>
					<defs>
						<line id="SVGID_1_" x1="144.329" y1="298.162" x2="190.301" y2="298.162"/>
					</defs>
					<clipPath id="SVGID_2_">
						<use xlink:href="#SVGID_1_"  overflow="visible"/>
					</clipPath>
					<path fill="#000000" clip-path="url(#SVGID_2_)" d="M146.462,219.846c1.304-0.711,3.081-1.304,5.687-2.252c2.37-0.831,5.096-2.015,8.057-3.081
						c3.081-1.067,6.161-2.252,9.242-3.317c3.317-1.067,6.161-2.252,8.768-3.081c2.844-0.831,5.096-1.778,6.754-2.37
						c2.016-0.711,3.081-1.067,3.555-1.305c0.711-0.237,1.304-0.474,1.304-0.237c0.237,0.237,0.237,0.711,0,1.304
						c-0.474,1.067-0.83,2.015-1.304,2.607c-0.474,0.474-0.711,0.83-0.83,1.067c-0.237,0-0.831,0.474-2.015,0.831
						c-1.067,0.474-2.607,1.067-4.622,1.778c-1.778,0.711-3.674,1.304-6.161,2.252c-2.37,0.83-4.858,1.778-7.229,2.606
						c-2.37,1.067-5.096,2.015-7.465,2.844s-4.858,1.778-6.754,2.606c-2.252,0.831-4.148,1.778-5.687,2.37
						c-1.778,0.711-2.844,1.305-3.674,1.778c0.474-1.067,0.711-2.252,0.83-3.081c0.237-0.83,0.474-1.541,0.831-2.252
						C145.988,220.557,146.225,220.083,146.462,219.846"/>
				</g>
			</g>
		</g>
		<g>
			<path fill="#000000" d="M161.984,392.356c0.237,0,0.237-0.474,0.711-1.54c0.474-1.066,0.83-2.251,1.541-3.673
				c0.711-1.306,1.304-2.844,2.015-4.386s1.304-3.081,1.778-4.386c0.711-1.304,1.304-2.37,1.541-3.317
				c0.474-0.83,0.711-1.304,0.831-1.304c1.541,0.474,3.554,1.304,5.45,2.251c2.252,1.068,4.147,2.253,6.161,3.317
				c1.778,1.068,3.554,2.254,5.096,3.318c1.541,1.066,2.606,2.016,3.081,2.606c-1.304,3.08-2.607,5.924-3.674,8.53
				c-1.067,2.253-2.015,4.386-3.081,6.636c-0.83,2.016-1.778,3.317-2.252,4.148c-1.067-0.831-2.37-2.016-3.911-3.317
				c-1.542-1.068-3.318-2.253-5.096-3.317c-1.778-1.306-3.555-2.253-5.213-3.317C165.065,393.778,163.523,392.831,161.984,392.356"
				/>
		</g>
		<path fill="#000000" d="M-99.036,254.916c-1.541-1.066-2.844-2.015-3.911-3.081c-1.304-0.829-2.607-1.54-3.911-2.368
			c-1.304-0.829-2.606-1.778-3.911-2.37c-1.542-0.831-3.081-2.015-4.859-3.081c0,0,0.237-0.831,1.067-2.844
			c0.83-1.778,1.778-3.911,2.843-6.161c0.831-2.252,2.015-4.148,2.844-6.161c0.831-1.778,1.304-2.606,1.542-2.606
			c2.843,1.067,5.924,2.606,9.004,4.385c3.081,1.778,5.924,3.674,8.531,5.213c1.304-2.606,2.607-5.096,3.555-7.228
			c1.067-2.015,2.015-3.674,2.606-5.45c0.831-1.778,1.304-2.844,1.542-3.318c1.067,0.474,2.606,1.304,4.858,2.37
			c2.015,1.067,3.911,2.37,5.924,3.555c2.252,1.304,3.911,2.606,5.213,3.674c1.541,1.067,2.252,2.015,2.252,2.37
			c-0.237,1.067-0.711,2.37-1.067,3.911c-0.474,1.541-1.067,3.081-1.778,4.858c-0.711,1.778-1.542,3.555-2.37,5.096
			c-0.831,1.778-1.778,3.081-2.607,4.148c0,0-1.067-0.474-3.081-1.541c-1.778-0.831-3.674-2.252-5.924-3.318
			c-2.252-1.304-4.385-2.37-6.161-3.554c-1.778-1.067-2.844-1.778-2.844-1.778c-0.237,0.237-0.831,1.067-1.778,2.607
			c-0.83,1.541-1.778,3.317-2.843,5.096c-1.065,1.778-2.016,3.317-2.844,4.858C-98.205,253.85-98.799,254.798-99.036,254.916"/>
		<path fill="#000000" d="M57.719,240.462c1.304-0.711,3.081-1.304,5.688-2.252c2.37-0.831,5.096-2.015,7.939-3.081
			c3.081-1.067,6.161-2.015,9.242-3.318c3.081-1.067,5.924-2.015,8.768-3.081c2.606-0.83,4.858-1.541,6.635-2.252
			c2.015-0.711,3.081-1.067,3.318-1.304c0.83-0.474,1.304-0.474,1.541-0.237c0.237,0,0.237,0.474-0.237,1.304
			c-0.474,1.067-0.831,1.778-1.067,2.37c-0.474,0.711-0.711,0.83-0.831,1.067c-0.237,0.237-0.83,0.474-2.015,0.83
			c-1.304,0.474-2.606,1.067-4.622,1.778c-1.778,0.711-3.674,1.304-6.161,2.252c-2.252,0.831-4.622,1.778-6.991,2.607
			c-2.37,0.828-4.859,2.015-7.466,2.843c-2.37,0.831-4.622,1.778-6.754,2.607c-2.015,0.83-3.911,1.541-5.45,2.252
			c-1.778,0.711-2.843,1.304-3.554,1.778c0.237-1.067,0.474-2.015,0.711-2.844c0.237-0.829,0.71-1.541,0.83-2.252
			C57.245,241.173,57.482,240.699,57.719,240.462"/>
		<path fill="#000000" d="M-85.055,190.462c0,0.474,0.237,1.067,0.711,1.304c0.474,0.474,1.067,0.831,1.778,1.067s1.541,0.474,2.252,0.711
			c0.831,0,1.542,0.237,2.252,0.237c0-0.237,0.237-0.83,0.474-1.778c0.237-1.067,0.474-2.252,0.474-3.08
			c0-1.067-0.237-2.252-0.711-3.081c-0.474-0.828-1.304-1.541-2.37-1.541c-0.474,0-0.831,0.237-1.542,0.711
			c-0.474,0.711-1.067,1.304-1.541,2.015s-0.83,1.541-1.067,2.252C-85.055,189.869-85.055,190.343-85.055,190.462 M-75.576,194.253
			c0,0.237,0.237,0.237,0.711,0.474c0.474,0.237,1.067,0.237,1.778,0.474c0.831,0.237,1.778,0.237,2.607,0.474
			c0.828,0.237,1.778,0.237,2.606,0.237c0.711,0.237,1.541,0.237,2.015,0c0.711,0,0.83,0,1.067-0.237c0-0.474,0-0.831-0.474-1.778
			c-0.237-0.711-0.711-1.304-1.304-2.015c-0.711-0.83-1.304-1.541-2.015-2.37c-0.83-0.711-1.541-1.304-2.252-1.778
			c-0.711-0.711-1.304-1.067-1.778-1.304c-0.474,0-0.711,0-0.711,0.237c0,0.83-0.474,2.252-0.711,3.554
			C-74.271,191.647-74.982,192.949-75.576,194.253 M-82.448,200.415c-1.778-0.237-3.081-0.83-3.674-2.015
			c-0.831-1.067-1.542-2.252-1.542-3.555c-0.235-1.302-0.235-2.606,0.239-4.146c0.237-1.304,0.711-2.606,1.304-3.911
			c0.711-1.304,1.067-2.37,1.778-3.317c0.711-0.831,1.067-1.542,1.541-2.015c0,0,0.237-0.237,0.237-0.711
			c0.237-0.474,0.474-1.067,0.711-1.778c0-0.831,0.237-1.541,0.474-2.37c0.474-0.831,0.474-1.541,0.711-2.37
			c0.237-0.711,0.474-1.304,0.711-1.778c0-0.474,0.237-0.83,0.237-0.83c0.831-0.237,2.015,0,3.081,0.711
			c1.305,0.71,2.607,1.541,3.911,2.606s2.606,2.37,3.674,3.911c1.304,1.542,2.37,3.081,3.555,4.622
			c1.067,1.541,1.778,3.081,2.37,4.622c0.711,1.542,0.83,2.844,0.83,3.911c0,1.778-0.237,3.554-0.83,5.45
			c-0.474,1.778-1.778,3.081-3.318,4.148c-0.71,0.474-1.778,0.711-2.843,0.474c-1.304,0-2.607,0-3.911-0.237
			c-1.541,0-2.606-0.237-3.674-0.474c-1.067-0.237-2.015-0.237-2.37-0.474c0,0-0.474,0.83-1.304,2.252
			c-0.831,1.304-2.37,3.081-4.385,5.096s-4.385,3.907-7.703,6.159c-3.081,2.015-6.991,3.674-11.611,5.213
			c-0.711,0-0.83,0-0.83-0.474c0-0.237,0.237-0.711,1.067-1.304c3.554-2.252,6.635-4.148,8.768-5.924
			c2.37-1.542,4.385-2.844,5.924-4.148c1.778-1.304,3.081-2.37,4.148-3.555C-84.344,203.258-83.276,201.954-82.448,200.415"/>
		<path fill="#000000" d="M221.226,204.561c0.711,0,1.541,0.474,2.606,0.83c1.067,0.711,2.252,1.305,3.317,2.252
			c1.067,0.83,2.015,1.778,2.844,2.606c0.711,0.831,1.304,1.778,1.304,2.607c0,0,0,0.474-0.237,1.067
			c-0.237,0.474-0.474,1.067-0.831,1.778c-0.237,0.711-0.474,1.067-0.711,1.541c-0.474,0.711-0.711,0.831-0.711,0.831
			c-1.067,0.237-2.252,0.711-3.317,0.83c-1.304,0.474-2.37,0.711-3.674,1.067c-1.067,0.474-2.252,0.831-3.317,1.304
			c-1.067,0.711-2.015,1.304-2.607,2.015c0.474,0.831,0.711,2.252,1.067,3.911c0.474,1.541,0.831,3.317,1.304,5.213
			c0.474,2.016,0.831,4.148,1.067,6.398c0.474,2.252,0.711,4.385,0.83,6.398c0.237,2.252,0.474,4.385,0.474,6.399
			c0,2.013-0.237,3.91-0.474,5.45c-0.237,2.015-0.474,3.317-0.711,3.91c-0.237,0.829-0.474,1.066-0.474,0.829
			c-0.237,0-0.237-0.711-0.237-1.54s-0.237-2.015-0.237-3.317c0-3.555-0.237-6.992-0.711-10.309
			c-0.474-3.317-1.067-6.635-1.778-9.479c-0.711-2.844-1.067-5.45-1.778-7.703c-0.474-2.37-0.711-4.147-0.711-5.45
			c0-2.252,0.237-3.911,0.83-5.213c0.711-1.304,1.542-2.37,2.37-3.081c0.83-0.83,2.015-1.304,2.843-1.778
			c1.067-0.237,2.252-0.474,2.844-0.831c-0.237-0.237-0.711-0.711-1.304-1.067c-0.831-0.474-1.304-0.71-2.015-0.71
			c-0.474,0-0.831,0.237-1.304,0.83c-0.711,0.711-1.067,1.304-1.542,1.778c-0.237,0.711-0.711,0.83-0.83,1.067
			c-0.237,0-0.237-0.474-0.237-1.541c0.474-3.555,1.067-5.687,2.252-7.229C218.974,205.154,220.159,204.561,221.226,204.561"/>
		<path fill="#000000" d="M426.201,240.105c0.474-3.911,0.237-7.465-0.237-10.783c-0.474-3.318-1.066-6.161-2.251-9.005
			c-0.829-2.606-2.251-4.859-3.555-6.754c-1.303-2.015-2.369-3.317-3.673-4.385c-0.236-0.237-0.711-0.237-0.831,0
			c-0.237,0-0.474,0.237-0.831,0.237c-0.237,0.237-0.474,0.474-0.829,0.474c-0.475,0.237-0.711,0.237-1.066,0
			c-0.832-0.237-1.543-0.711-2.017-1.304c-0.474-0.711-0.711-1.304-0.831-2.252c-0.237-0.83-0.237-1.778-0.237-2.606
			c0-0.711,0-1.541,0-2.015c0-0.711,0-1.304,0.237-2.015c0-0.711,0-1.304,0.237-2.015c0.236-0.474,0.474-0.831,0.831-1.304
			c0.474-0.474,1.068-0.711,1.779-0.711c1.066,0,2.369,0.711,3.673,1.541c1.303,1.067,2.606,2.37,3.673,4.148
			c1.305,1.542,2.369,3.555,3.555,5.924c1.068,2.37,2.016,4.858,2.844,7.465c0.71,2.606,1.305,5.45,1.778,8.294
			c0.237,2.843,0.237,5.924,0,8.768c0.475-1.304,0.831-3.081,1.068-4.859c0.474-1.541,0.474-3.554,0.711-5.213
			c0-1.778,0.237-3.555,0.237-5.213c0-1.542,0-3.081-0.237-4.385c0-3.674,0-7.229,0.474-10.783c0.237-3.317,0.711-6.398,1.304-9.004
			c0.711-2.37,1.54-4.622,2.606-5.924c1.066-1.542,2.251-2.252,3.673-2.252c0.832,0.237,1.542,0.474,2.253,0.83
			c0.475,0.474,1.068,0.831,1.543,1.541c0.236,0.711,0.711,1.304,0.829,2.015c0,0.831,0.237,1.542,0.237,2.252
			c0,2.252-0.237,3.674-0.711,4.622c-0.237,0.831-0.83,1.542-1.304,1.542c-0.711,0.237-1.306,0.237-2.016,0
			c-0.711-0.237-1.306-0.474-2.017-0.474c-0.711-0.237-1.066,0.474-1.777,1.304c-0.474,1.067-0.829,2.606-1.303,4.385
			c-0.237,1.542-0.711,3.555-0.832,5.45c-0.236,2.252-0.474,4.148-0.474,5.924c-0.237,1.778-0.237,3.555-0.474,4.859
			c0,1.304,0,2.252,0,2.606c-0.237,3.317-0.711,5.924-1.068,8.294c-0.711,2.37-1.066,4.385-1.777,5.924
			c-0.474,1.541-1.066,2.606-1.54,3.554c-0.475,0.831-0.711,1.304-0.831,1.304c-0.475,0.474-0.711,0.474-0.711,0
			C426.201,240.225,426.201,240.105,426.201,240.105"/>
		<path fill="#000000" d="M582.955,294.845c0-1.303,0.236-2.606,0.711-3.91c0.711-1.542,1.303-2.843,2.014-4.386
			c0.831-1.305,1.779-2.606,2.606-3.911c1.068-1.304,2.017-2.37,2.844-3.555c0.831-1.066,1.542-2.015,2.253-2.606
			c0.711-0.711,1.068-1.066,1.306-1.541c0.711-0.711,0.474-1.303-0.237-1.776c-0.711-0.711-1.779-1.306-3.317-1.779
			c-1.306-0.475-2.844-0.711-4.623-0.831c-1.778-0.237-3.554-0.237-5.097,0c0-0.475,0.237-1.066,0.711-2.015
			c0.475-0.711,1.068-1.54,2.017-2.37c0.831-0.829,1.779-1.54,2.844-2.251s2.369-1.068,3.554-1.068c0.832,0,2.017,0,3.081,0.475
			c0.831,0.236,1.779,0.711,2.606,1.068c0.831,0.474,1.542,1.065,2.253,1.776s0.829,1.541,1.066,2.252
			c0.237,1.542,0.237,2.844-0.474,4.148c-0.475,1.542-1.304,2.844-2.251,3.912c-0.832,1.303-2.017,2.606-3.081,3.909
			c-1.068,1.066-2.253,2.37-3.08,3.555c-1.068,1.066-1.779,2.251-2.37,3.317c-0.474,1.066-0.711,2.252-0.474,3.081
			c0.236,0.829,0.829,1.54,2.014,2.014c1.066,0.711,2.37,0.832,3.91,0.832c1.542,0.236,3.317,0,5.213-0.475
			c1.779-0.236,3.676-0.831,5.688-1.542c2.017-0.829,3.912-1.777,5.688-2.844c2.016-1.303,3.555-2.606,5.097-4.146
			c0.237-0.474,0.711-0.711,0.831-0.711c0.474,0,0.474,0.474,0.237,0.829c-3.081,5.688-6.636,10.073-11.021,12.917
			c-4.148,3.08-8.768,4.622-13.864,4.622c-1.303,0-2.369-0.236-3.555-0.711c-1.066-0.474-2.251-0.831-2.843-1.542
			c-0.83-0.711-1.304-1.305-1.777-2.253C583.191,296.622,582.955,295.911,582.955,294.845"/>
	</g>
</g>
<path fill="#000000" d="M273.602,481.306c-0.578-0.576-1.301-1.03-2.174-1.362c-0.873-0.331-1.885-0.497-3.039-0.497
	c-0.663,0-1.463,0.079-2.4,0.238v-6.077h-1.535v17.711c0.706,0.202,1.402,0.354,2.087,0.454s1.301,0.151,1.849,0.151
	c1.153,0,2.166-0.162,3.039-0.486s1.596-0.764,2.174-1.319c0.576-0.555,1.006-1.211,1.287-1.968s0.42-1.561,0.42-2.411
	s-0.139-1.657-0.42-2.422C274.608,482.554,274.178,481.883,273.602,481.306z M272.391,489.167c-0.852,0.829-2.17,1.243-3.958,1.243
	c-0.39,0-0.805-0.032-1.244-0.097c-0.439-0.065-0.84-0.134-1.2-0.206v-8.845c0.447-0.115,0.887-0.194,1.319-0.237
	c0.433-0.044,0.808-0.065,1.125-0.065c0.894,0,1.668,0.112,2.325,0.335c0.656,0.224,1.199,0.545,1.633,0.963
	c0.432,0.418,0.752,0.919,0.961,1.503s0.314,1.243,0.314,1.979C273.667,487.195,273.241,488.338,272.391,489.167z M247.392,479.446
	c-0.62,0-1.297,0.079-2.033,0.238c-0.735,0.158-1.485,0.433-2.249,0.821l-0.065,1.73c0.548-0.303,0.973-0.52,1.276-0.649
	s0.624-0.237,0.962-0.324c0.338-0.086,0.677-0.158,1.016-0.216s0.667-0.087,0.984-0.087c1.139,0,1.982,0.249,2.53,0.746
	s0.822,1.33,0.822,2.498v0.13c-0.332-0.044-0.732-0.087-1.2-0.13c-0.469-0.043-0.876-0.065-1.222-0.065
	c-1.831,0-3.302,0.311-4.412,0.931c-1.11,0.619-1.665,1.644-1.665,3.07c0,0.707,0.155,1.305,0.465,1.795
	c0.31,0.49,0.713,0.88,1.211,1.168s1.067,0.497,1.708,0.627c0.641,0.13,1.308,0.194,2,0.194c0.807,0,1.6-0.072,2.378-0.216
	c0.779-0.145,1.536-0.368,2.271-0.671v-7.028c0-1.585-0.397-2.742-1.189-3.471C250.189,479.811,248.992,479.446,247.392,479.446z
	 M250.636,489.892c-0.375,0.144-0.858,0.267-1.449,0.367c-0.591,0.102-1.183,0.151-1.773,0.151c-0.505,0-0.984-0.035-1.438-0.108
	c-0.454-0.071-0.84-0.197-1.157-0.378c-0.317-0.18-0.57-0.414-0.757-0.703c-0.188-0.288-0.281-0.663-0.281-1.124
	c0-0.52,0.111-0.934,0.335-1.244c0.224-0.31,0.533-0.551,0.93-0.724c0.396-0.174,0.85-0.296,1.362-0.368
	c0.511-0.072,1.041-0.108,1.589-0.108c0.476,0,0.984,0.029,1.524,0.087c0.541,0.058,0.912,0.108,1.114,0.151V489.892z
	 M258.032,479.868c-0.649,0.122-1.276,0.263-1.881,0.422v11.418h1.535v-10.186c0.202-0.072,0.563-0.147,1.082-0.228
	c0.519-0.079,1.002-0.118,1.449-0.118h1.989v-1.492H260C259.336,479.685,258.681,479.746,258.032,479.868z M-77.92,487.667
	l241.145,0.656l0.663-0.433l-0.632-0.564L-77.92,487.667z M164.994,487.825l1.95,1.95l1.95-1.95l-1.95-1.95L164.994,487.825z
	 M169.559,487.825l3.057,3.057l3.057-3.057l-3.057-3.057L169.559,487.825z M212.359,489.286l-3.395-9.602h-1.514l-3.396,9.602
	l-2.984-9.602h-1.73l3.979,12.023h1.428l3.46-9.645l3.46,9.645h1.427l3.979-12.023h-1.73L212.359,489.286z M238.418,489.589
	c-0.317,0-0.591,0.115-0.822,0.346c-0.231,0.23-0.346,0.505-0.346,0.822c0,0.316,0.115,0.591,0.346,0.821
	c0.23,0.23,0.504,0.346,0.822,0.346c0.317,0,0.591-0.115,0.822-0.346c0.23-0.23,0.346-0.505,0.346-0.821
	c0-0.317-0.116-0.592-0.346-0.822C239.009,489.704,238.735,489.589,238.418,489.589z M193.243,489.286l-3.395-9.602h-1.514
	l-3.396,9.602l-2.984-9.602h-1.73l3.979,12.023h1.428l3.46-9.645l3.46,9.645h1.427l3.979-12.023h-1.73L193.243,489.286z
	 M231.476,489.286l-3.395-9.602h-1.514l-3.396,9.602l-2.984-9.602h-1.73l3.979,12.023h1.428l3.46-9.645l3.46,9.645h1.427
	l3.979-12.023h-1.73L231.476,489.286z M382.732,480.474c-0.426-0.396-0.938-0.667-1.535-0.812c-0.598-0.144-1.271-0.216-2.021-0.216
	c-0.664,0-1.393,0.09-2.184,0.271c-0.793,0.181-1.471,0.4-2.033,0.659c-0.346-0.331-0.818-0.569-1.416-0.714
	c-0.6-0.144-1.273-0.216-2.023-0.216c-0.635,0-1.268,0.058-1.902,0.173l-2.465,0.454v11.635h1.535v-10.38
	c0.447-0.102,0.883-0.188,1.309-0.26c0.424-0.072,0.896-0.108,1.416-0.108c0.605,0,1.125,0.058,1.557,0.173
	c0.434,0.116,0.789,0.321,1.07,0.616c0.281,0.296,0.494,0.711,0.639,1.244s0.217,1.24,0.217,2.119v6.596h1.535v-7.201
	c0-0.663-0.055-1.243-0.162-1.741c-0.109-0.497-0.213-0.861-0.314-1.092c0.086-0.043,0.281-0.119,0.584-0.228
	c0.303-0.107,0.602-0.197,0.898-0.27c0.295-0.072,0.586-0.126,0.875-0.162s0.547-0.055,0.779-0.055c0.59,0,1.102,0.058,1.535,0.173
	c0.432,0.116,0.781,0.317,1.049,0.605c0.266,0.289,0.471,0.703,0.615,1.244c0.145,0.54,0.217,1.251,0.217,2.13v6.596h1.535v-7.201
	c0-0.995-0.111-1.816-0.336-2.466C383.482,481.393,383.158,480.87,382.732,480.474z M280.1,474.581
	c-0.785,0.648-1.18,1.729-1.18,3.243v1.86h-2.551v1.492h2.551v10.531h1.537v-10.531h4.973v-1.492h-4.973v-1.471
	c0-0.635,0.045-1.149,0.141-1.546c0.094-0.396,0.24-0.707,0.443-0.931c0.201-0.223,0.475-0.385,0.82-0.486
	c0.346-0.101,0.779-0.151,1.299-0.151h2.422v-1.492h-2.271C281.956,473.607,280.885,473.932,280.1,474.581z M398.273,487.825
	l3.057,3.057l3.057-3.057l-3.057-3.057L398.273,487.825z M343.322,482.322c0.389-0.418,0.854-0.749,1.395-0.994
	s1.135-0.368,1.783-0.368c0.736,0,1.373,0.076,1.914,0.228s1.121,0.414,1.74,0.789l0.715-1.405c-0.707-0.39-1.393-0.674-2.055-0.854
	c-0.664-0.181-1.436-0.271-2.314-0.271c-0.85,0-1.639,0.155-2.367,0.465c-0.729,0.311-1.367,0.746-1.914,1.309
	c-0.549,0.563-0.98,1.222-1.297,1.979c-0.317,0.757-0.476,1.59-0.476,2.498s0.158,1.74,0.476,2.497
	c0.316,0.757,0.748,1.413,1.297,1.969c0.547,0.555,1.186,0.987,1.914,1.297c0.729,0.311,1.518,0.465,2.367,0.465
	c0.879,0,1.65-0.09,2.314-0.27c0.662-0.181,1.348-0.466,2.055-0.854l-0.715-1.406c-0.619,0.375-1.199,0.639-1.74,0.79
	s-1.178,0.227-1.914,0.227c-0.648,0-1.242-0.119-1.783-0.356c-0.541-0.238-1.006-0.565-1.395-0.984
	c-0.391-0.418-0.693-0.915-0.908-1.492c-0.217-0.576-0.324-1.203-0.324-1.881s0.107-1.305,0.324-1.882
	C342.628,483.238,342.931,482.741,343.322,482.322z M404.387,487.825l1.949,1.95l1.951-1.95l-1.951-1.95L404.387,487.825z
	 M410.701,487.326l-0.664,0.433l0.633,0.564l241.176-0.341L410.701,487.326z M362.611,481.295c-0.549-0.569-1.193-1.02-1.936-1.352
	c-0.742-0.331-1.547-0.497-2.412-0.497c-0.863,0-1.668,0.166-2.41,0.497c-0.742,0.332-1.389,0.782-1.936,1.352
	c-0.549,0.57-0.977,1.229-1.287,1.979c-0.311,0.749-0.465,1.557-0.465,2.422s0.154,1.672,0.465,2.422s0.738,1.409,1.287,1.979
	c0.547,0.569,1.193,1.017,1.936,1.341s1.547,0.486,2.41,0.486c0.865,0,1.67-0.162,2.412-0.486s1.387-0.771,1.936-1.341
	c0.547-0.569,0.977-1.229,1.287-1.979c0.309-0.75,0.465-1.557,0.465-2.422s-0.156-1.673-0.465-2.422
	C363.587,482.524,363.158,481.865,362.611,481.295z M362.394,487.523c-0.217,0.569-0.52,1.067-0.908,1.492
	c-0.389,0.426-0.857,0.765-1.406,1.017c-0.547,0.252-1.152,0.378-1.816,0.378c-0.662,0-1.268-0.126-1.816-0.378
	c-0.547-0.252-1.016-0.591-1.404-1.017c-0.391-0.425-0.693-0.923-0.908-1.492c-0.217-0.569-0.324-1.179-0.324-1.827
	c0-0.649,0.107-1.262,0.324-1.839c0.215-0.576,0.518-1.077,0.908-1.503c0.389-0.425,0.857-0.764,1.404-1.016
	c0.549-0.252,1.154-0.379,1.816-0.379c0.664,0,1.27,0.127,1.816,0.379c0.549,0.252,1.018,0.591,1.406,1.016
	c0.389,0.426,0.691,0.927,0.908,1.503c0.217,0.577,0.324,1.189,0.324,1.839C362.718,486.345,362.611,486.954,362.394,487.523z
	 M296.221,481.295c-0.547-0.569-1.191-1.02-1.936-1.352c-0.742-0.331-1.545-0.497-2.41-0.497s-1.67,0.166-2.412,0.497
	c-0.742,0.332-1.387,0.782-1.936,1.352c-0.547,0.57-0.977,1.229-1.285,1.979c-0.311,0.749-0.465,1.557-0.465,2.422
	s0.154,1.672,0.465,2.422c0.309,0.75,0.738,1.409,1.285,1.979c0.549,0.569,1.193,1.017,1.936,1.341s1.547,0.486,2.412,0.486
	s1.668-0.162,2.41-0.486c0.744-0.324,1.389-0.771,1.936-1.341c0.549-0.569,0.977-1.229,1.287-1.979s0.465-1.557,0.465-2.422
	s-0.154-1.673-0.465-2.422C297.198,482.524,296.77,481.865,296.221,481.295z M296.006,487.523c-0.217,0.569-0.52,1.067-0.908,1.492
	c-0.391,0.426-0.859,0.765-1.406,1.017c-0.549,0.252-1.154,0.378-1.816,0.378c-0.664,0-1.27-0.126-1.816-0.378
	c-0.549-0.252-1.018-0.591-1.406-1.017c-0.389-0.425-0.691-0.923-0.908-1.492s-0.324-1.179-0.324-1.827
	c0-0.649,0.107-1.262,0.324-1.839c0.217-0.576,0.52-1.077,0.908-1.503c0.389-0.425,0.857-0.764,1.406-1.016
	c0.547-0.252,1.152-0.379,1.816-0.379c0.662,0,1.268,0.127,1.816,0.379c0.547,0.252,1.016,0.591,1.406,1.016
	c0.389,0.426,0.691,0.927,0.908,1.503c0.215,0.577,0.324,1.189,0.324,1.839C296.331,486.345,296.221,486.954,296.006,487.523z
	 M309.381,480.463c-0.455-0.39-0.996-0.656-1.623-0.801c-0.627-0.144-1.309-0.216-2.043-0.216c-0.707,0-1.465,0.047-2.271,0.141
	s-1.701,0.234-2.682,0.422v11.699h1.535v-10.402c1.184-0.23,2.293-0.346,3.33-0.346c0.592,0,1.111,0.062,1.559,0.184
	c0.445,0.123,0.818,0.332,1.113,0.628c0.295,0.295,0.525,0.713,0.691,1.254s0.25,1.251,0.25,2.13v6.553h1.535v-7.201
	c0-0.995-0.119-1.82-0.357-2.477C310.18,481.375,309.834,480.852,309.381,480.463z M318.516,490.054
	c-0.346-0.108-0.619-0.277-0.82-0.509c-0.203-0.23-0.35-0.547-0.443-0.951c-0.096-0.403-0.141-0.922-0.141-1.557v-5.86h4.973v-1.492
	h-4.973v-4.347h-1.537v4.347h-2.551v1.492h2.551v6.466c0,0.764,0.109,1.405,0.326,1.925c0.215,0.519,0.525,0.937,0.93,1.254
	c0.402,0.317,0.867,0.544,1.395,0.682c0.525,0.137,1.105,0.205,1.74,0.205h2.271v-1.492h-2.422
	C319.295,490.216,318.862,490.162,318.516,490.054z M337.784,489.589c-0.316,0-0.59,0.115-0.82,0.346s-0.346,0.505-0.346,0.822
	c0,0.316,0.115,0.591,0.346,0.821s0.504,0.346,0.82,0.346c0.318,0,0.592-0.115,0.822-0.346s0.346-0.505,0.346-0.821
	c0-0.317-0.115-0.592-0.346-0.822S338.102,489.589,337.784,489.589z M333.178,486.106c-0.346-0.303-0.785-0.565-1.318-0.789
	c-0.533-0.223-1.182-0.422-1.947-0.595l-0.799-0.173c-1.053-0.216-1.781-0.461-2.184-0.735c-0.404-0.273-0.607-0.678-0.607-1.211
	c0-0.504,0.238-0.904,0.715-1.2c0.475-0.295,1.174-0.443,2.098-0.443c0.793,0,1.477,0.076,2.055,0.228
	c0.576,0.151,1.217,0.421,1.924,0.811l0.691-1.405c-1.412-0.765-2.969-1.146-4.67-1.146c-0.635,0-1.223,0.076-1.764,0.228
	c-0.539,0.151-1.008,0.364-1.404,0.638s-0.711,0.605-0.941,0.994c-0.23,0.39-0.346,0.815-0.346,1.276
	c0,0.462,0.072,0.88,0.217,1.254c0.143,0.375,0.381,0.707,0.713,0.995s0.758,0.537,1.275,0.746c0.52,0.209,1.146,0.4,1.883,0.573
	l0.908,0.194c1.008,0.217,1.729,0.49,2.162,0.822c0.432,0.331,0.648,0.771,0.648,1.318c0,0.39-0.086,0.707-0.26,0.952
	c-0.172,0.245-0.414,0.436-0.725,0.573c-0.311,0.137-0.678,0.237-1.102,0.303c-0.426,0.064-0.877,0.097-1.352,0.097
	c-0.592,0-1.223-0.09-1.893-0.271c-0.67-0.18-1.352-0.479-2.045-0.897l-0.734,1.471c0.779,0.433,1.539,0.742,2.281,0.93
	s1.539,0.281,2.391,0.281c0.748,0,1.434-0.072,2.053-0.216c0.621-0.145,1.158-0.36,1.611-0.648c0.455-0.289,0.805-0.649,1.049-1.082
	c0.246-0.433,0.369-0.93,0.369-1.492c0-0.476-0.072-0.915-0.217-1.318C333.77,486.763,333.526,486.41,333.178,486.106z"/>
</svg>

