<?xml version="1.0" encoding="utf-8"?>
<!-- Generator: Adobe Illustrator 16.0.0, SVG Export Plug-In . SVG Version: 6.00 Build 0)  -->
<!DOCTYPE svg PUBLIC "-//W3C//DTD SVG 1.1//EN" "http://www.w3.org/Graphics/SVG/1.1/DTD/svg11.dtd">
<svg version="1.1" id="Layer_1" xmlns="http://www.w3.org/2000/svg" xmlns:xlink="http://www.w3.org/1999/xlink" x="0px" y="0px"
	  viewBox="-150 0 800 500" enable-background="new -150 0 800 500" xml:space="preserve">
<g>
	<g>
		<path fill="#000000" d="M588.837,246.32c-4.326-1.886-11.204-3.883-20.745-6.212c-12.203-2.995-21.633-4.327-28.955-4.327
			c-5.769,0-8.764,0.333-8.764,1.332c0,0.555,0.888,1.442,2.662,2.995c3.218,2.663,6.546,5.436,9.874,8.209
			c4.881,4.104,7.987,6.878,9.318,8.764C565.318,252.422,577.41,248.872,588.837,246.32 M609.36,241.217l-2.995,7.988
			c-0.222,0.887-0.555,1.442-0.776,1.886c-0.222,0.333-0.333,0.555-0.888,0.555c-16.419,4.104-32.948,9.208-49.146,15.531
			c0.222,2.662,0.333,4.438,0.333,5.769c0,2.108-0.333,2.995-0.888,2.995c-0.776,0-2.662-2.219-5.214-6.878
			c-2.995,0.888-9.541,3.994-16.752,7.433v-12.203c2.219-0.887,6.656-2.329,10.429-3.993c-0.333-0.555-3.218-2.773-8.432-7.101
			c-4.659-3.771-7.433-6.545-8.764-8.653c-1.109-1.886-1.664-4.104-1.664-6.323c0-3.55,1.442-6.767,4.438-9.541
			c2.995-2.663,6.767-4.105,11.427-4.105c8.209,0,21.521,2.219,39.493,6.767c0.776,0.222,10.317,2.773,28.622,7.877
			C609.36,239.332,609.805,240.108,609.36,241.217"/>
		<path fill="#000000" d="M534.589,291.694c-2.219-3.328-6.213-5.658-11.76-6.546c-1.442-0.222-2.219,0-2.219,0.333
			c0,0.222,0.333,0.555,0.776,1.109c3.883,4.992,7.988,7.654,12.203,7.654c1.332,0,2.108-0.332,2.108-0.776
			C535.587,293.025,535.254,292.471,534.589,291.694 M493.32,307.226l-1.332-11.871c6.656,0,11.981-3.105,16.53-8.542
			c1.109-1.109,3.217-4.438,6.212-9.763c0.777-1.109,1.442-1.886,2.219-1.886c0.333,0,0.777,0.222,1.109,0.333
			c0-0.222-0.222-0.333-0.222-0.555c0-2.44,4.327-6.102,15.198-10.761l1.109,11.094c6.546,4.659,9.763,10.428,9.763,17.417
			c0,2.773-0.888,5.769-3.217,8.986c-2.44,3.328-4.992,4.992-7.877,4.992c-3.328,0-6.878-1.664-10.872-4.992
			c-4.326-3.772-7.1-8.21-8.431-13.313C508.629,300.901,501.751,307.226,493.32,307.226"/>
		<path fill="#000000" d="M363.412,314.104c-21.078,0-37.719-2.663-50.032-7.655l-1.109-12.203c10.649,5.215,29.287,7.766,54.581,7.544
			c28.954,0.222,58.464-5.99,88.639-18.305c-6.213-5.99-10.982-8.985-14.755-8.985c-0.776,0-2.662,0.555-5.657,2.107
			c-0.777,0.333-1.332,0.555-1.664,0.555c-0.333,0-0.555-0.333-0.555-0.776c0-0.444,0.222-1.109,0.555-1.886l3.55-8.432
			c0.555-1.442,3.217-2.995,7.876-4.326c5.215-1.332,11.205-2.108,18.083-2.108c6.546,0,12.869,0.888,19.304,2.773
			c4.438,1.442,8.209,3.218,10.871,4.882c1.664,1.109,2.663,2.107,2.663,2.773c0,0.332-0.222,0.887-0.333,1.441
			c-1.331,2.663-2.995,5.658-4.992,8.653c-4.438,1.442-9.541,3.55-15.531,5.769c5.99,5.991,11.87,9.208,18.416,9.208l0.222,11.87
			c-5.437,0-10.429-1.331-14.977-3.771c-4.104-2.107-9.319-6.323-16.086-12.314c-18.305,7.434-34.058,13.091-47.148,16.309
			C398.024,311.885,380.829,314.104,363.412,314.104 M478.787,273.944c-3.217-2.108-7.877-3.218-13.867-3.218
			c-1.886,0-3.771,0.222-5.658,0.333c2.441,1.664,4.992,4.104,8.21,7.654L478.787,273.944"/>
		<path fill="#000000" d="M259.907,327.416c-4.438,0-8.209-3.55-11.204-10.429c-2.773-6.212-4.105-12.535-4.105-19.303
			c0-7.987,0.777-14.533,2.219-19.303c0.555-1.664,1.109-2.663,1.332-2.663c0.555,0,0.776,1.109,0.333,3.218
			c-0.555,4.992-0.887,9.318-0.887,13.09c0,16.863,3.883,25.405,11.981,25.405c3.217,0,5.99-2.44,8.652-7.433
			c2.773-5.991,5.658-11.76,8.21-17.75c2.44-4.882,5.436-8.986,8.764-12.314c3.55-3.55,6.878-5.436,9.763-5.436
			c2.773,0,5.99,2.995,9.208,9.207c3.217,5.77,5.657,9.43,8.209,10.539l1.109,12.203c-3.55-1.441-7.321-4.104-9.873-7.654
			c-0.222-0.222-2.108-2.995-5.214-8.209c-1.442-2.773-2.996-4.105-4.438-4.105c-4.66,0-9.319,3.883-14.422,11.538
			c-0.888,1.331-2.663,4.992-4.882,10.649c-2.219,5.77-4.326,10.096-5.99,12.758C265.898,325.419,262.903,327.416,259.907,327.416"
			/>
		<path fill="#000000" d="M220.081,274.942c-0.555-1.664-1.664-3.328-3.217-4.659c-1.331-1.331-2.773-1.886-4.327-1.886
			c-2.219,0-3.883,0.332-4.992,1.331c-0.887,0.555-1.442,1.331-1.442,2.107c3.328,2.44,7.322,4.327,11.981,5.658
			c0.555,0.222,0.888,0.222,1.332,0.222c0.555,0,0.887-0.222,0.887-0.888C220.192,276.163,220.081,275.608,220.081,274.942
			 M227.736,274.942c0,3.883-0.777,7.433-1.886,10.428c-1.331,3.218-2.662,4.66-4.104,4.66c-7.433,0-14.977-2.996-22.409-8.765
			c-2.441,5.991-5.658,10.983-9.763,14.755c-4.438,4.326-9.319,5.99-14.866,5.99v-12.203c3.55,0,8.209-0.555,11.759-1.996
			c4.438-1.887,7.433-4.327,9.208-7.655c0.555-0.888,1.886-3.55,3.883-8.209c0.888-2.219,1.886-3.328,2.773-3.55
			c1.109-2.441,2.995-4.882,5.214-7.101c3.328-3.328,6.324-4.881,9.319-4.881c3.772,0,6.767,2.219,8.653,6.878
			C226.959,266.622,227.736,270.616,227.736,274.942"/>
		<path fill="#000000" d="M175.817,302.011c-7.1,0-11.094-3.993-11.426-12.203c0-0.555-0.222-0.776-0.555-0.776c-0.777,0-1.332,0.333-2.108,1.109
			c-3.883,4.659-6.545,7.655-7.876,8.653c-4.992,4.438-11.316,6.545-16.974,6.545v-12.203c5.769,0,11.87-1.441,16.419-4.659
			c1.886-1.109,5.769-4.992,12.203-11.204c0.776-0.777,1.442-1.109,2.107-1.109c0.888,0,1.332,0.332,1.332,1.109
			c0,0.332-0.222,1.109-0.333,1.886c-0.222,0.776-0.222,1.331-0.222,1.886c0,2.219,0.555,4.326,1.442,5.99
			c1.332,2.108,3.55,2.996,5.991,2.773"/>
		<path fill="#000000" d="M125.451,280.711c0.888,5.769,2.773,9.541,5.658,11.205c1.331,0.888,3.994,1.22,6.989,1.22v12.203
			c-4.327,0-8.098-0.776-10.539-2.662c-3.55-2.44-5.769-7.322-7.1-14.2c-0.777-4.326-1.332-16.974-2.108-37.94
			c-0.777-22.853-1.332-36.831-1.886-42.045c-0.776-8.209-2.44-16.086-4.659-23.519c0-2.108,0.776-4.992,2.44-8.986
			c0.333-0.888,0.555-1.442,0.888-1.442c0.222,0,0.555,0.555,0.888,1.331c2.662,4.992,4.438,13.646,5.769,25.627
			c0.887,7.654,1.442,22.409,2.219,44.818C124.675,267.398,125.119,278.825,125.451,280.711"/>
		<path fill="#000000" d="M33.484,324.198c-3.883,0-7.433-1.886-10.428-5.436c-3.217-3.883-4.659-8.432-4.659-13.867
			c0-7.433,2.995-17.417,9.208-29.398c0.777-1.331,1.109-1.886,1.442-1.886c0.222,0,0.222,0.222,0.222,0.333
			c0,1.331-1.331,5.436-3.883,12.758c-2.663,7.1-4.104,12.868-4.104,16.973c0,3.218,0.887,5.77,2.44,7.655
			c1.442,2.107,3.772,3.217,6.545,3.217c4.438,0,9.541-2.773,15.31-8.209c0.776-0.555,5.99-6.213,15.753-16.862
			c14.422-15.531,27.069-23.187,38.273-23.187c3.328,0,6.212,0.888,8.431,2.773c2.219,2.108,3.328,4.327,3.328,6.878
			c0,3.328-0.333,6.213-1.442,8.653c-0.333,0.888-0.777,1.331-0.888,1.331s-0.555-0.332-0.888-1.331
			c-2.44-4.104-5.99-6.212-10.65-6.212c-8.764,0-18.637,5.657-29.731,16.862c-6.324,6.878-12.536,13.646-18.638,20.412
			C43.469,321.425,38.366,324.198,33.484,324.198"/>
		<path fill="#000000" d="M-4.013,310.554v-12.314c4.66,0,9.208-2.107,13.423-6.323c0.333-0.333,0.555-0.888,0.555-1.331
			c0-0.777-0.776-2.108-2.44-4.105c-3.217-3.883-8.764-9.207-16.862-15.087c-11.427-8.765-18.638-14.422-21.3-16.862
			c-8.431-7.322-15.087-14.533-20.412-22.299c0-0.222-0.777-0.888-1.886-2.219c-0.555-0.776-0.887-1.442-0.887-1.886
			c0-10.983,1.331-17.528,4.104-20.191c6.878-6.212,21.633-14.422,44.264-24.517c22.964-10.317,38.162-15.531,45.595-15.531
			c2.108,0,3.55,0.555,4.438,1.331c0.776,0.888,1.109,2.441,1.109,4.438c0,4.881-2.773,10.872-8.653,17.972
			c-2.219,2.663-4.327,4.992-6.545,7.433c-3.328,3.883-5.769,7.322-6.878,9.763c-0.888,1.664-1.331,2.663-1.442,2.663
			c-0.333,0-0.222-1.109,0.222-3.328c0.333-1.332,1.331-3.55,2.995-6.545c1.442-2.773,2.663-4.66,3.328-5.658
			c6.545-7.322,10.428-12.203,11.759-14.533c0-0.222,0.222-0.333,0.222-0.555c0-1.442-1.886-2.107-5.658-2.219
			c-5.769,0.222-19.414,4.992-41.158,14.977c-21.633,9.874-36.609,18.083-44.486,24.518c-0.555,0.555-0.555,0.887,0.222,1.331
			l10.982,7.1c2.663,1.886,3.772,2.995,3.772,3.55s-0.555,0.777-2.108,0.777c-0.887,0-2.662-0.222-4.881-0.333
			c5.99,6.545,15.864,15.31,29.731,25.959c12.536,9.874,20.191,16.641,22.853,20.413c2.108,3.217,3.217,6.878,3.217,11.427
			c0,6.212-2.108,11.537-6.212,16.308C3.42,308.557-0.352,310.554-4.013,310.554"/>
		<path fill="#000000" d="M-4.013,310.554c-4.104,0-7.1-0.333-8.986-0.777c-3.883-1.109-7.1-3.771-9.763-7.654
			c-1.442-2.773-3.217-5.436-4.881-8.209c-1.442-2.219-2.773-3.328-4.327-3.328c-4.66,0-9.319,3.771-14.422,11.426
			c-0.888,1.442-2.663,4.992-4.881,10.872c-2.219,5.769-4.327,10.096-5.991,12.758c-2.662,3.883-5.658,5.991-8.653,5.991
			c-4.438,0-8.209-3.551-11.205-10.65c-2.773-6.213-4.105-12.536-4.105-19.303c0-7.988,0.777-14.422,2.441-19.304
			c0.333-1.664,0.887-2.44,1.331-2.44c0.333,0,0.555,0.888,0.333,3.217c-0.777,4.992-0.888,9.319-0.888,12.869
			c0,16.974,3.883,25.627,11.759,25.627c3.217,0,5.991-2.663,8.764-7.434c2.663-5.99,5.214-11.98,7.987-17.75
			c2.441-4.881,5.436-9.207,8.986-12.535c3.55-3.551,6.768-5.215,9.763-5.215c2.219,0,4.104,1.332,5.991,4.105
			c1.664,2.44,3.217,4.992,4.659,7.433c2.219,3.217,4.438,5.214,6.767,6.323c2.441,1.109,5.436,1.664,9.208,1.664v12.314"/>
		<path fill="#000000" d="M573.527,288.921c-0.222,0-0.222-0.333,0-0.777l3.772-7.987c0.333-0.333,0.555-0.555,0.888-0.555
			c0.332,0,2.107,0.888,5.214,3.218c2.995,2.107,4.438,3.328,4.438,3.771c0,1.331-1.331,4.326-3.883,8.653
			c-0.333,0.555-0.776,0.776-1.109,0.555C579.852,293.247,576.745,291.028,573.527,288.921"/>
		<path fill="#000000" d="M277.99,257.858l2.995-6.324c0.333-0.332,0.555-0.555,0.888-0.555s2.108,0.888,5.214,2.996
			c2.996,2.219,4.438,3.328,4.438,3.771c0,1.442-1.331,4.326-4.104,8.653c-0.222,0.555-0.555,0.776-0.888,0.555
			c-2.662-2.108-5.769-4.104-9.207-6.323c-1.109,2.662-2.219,4.881-3.218,6.545c-0.333,0.555-0.776,0.776-1.109,0.555
			c-2.995-2.44-6.212-4.659-9.318-6.545c-0.222-0.223-0.222-0.333,0-0.777l3.771-7.987c0.333-0.555,0.555-0.776,0.888-0.776
			s1.886,0.888,4.326,2.662C275.438,255.861,277.103,257.192,277.99,257.858"/>
		<path fill="#000000" d="M150.19,325.197c-0.222,0-0.222-0.333,0-0.776l3.772-7.988c0.333-0.332,0.555-0.555,0.887-0.555
			c0.333,0,2.108,0.888,5.214,3.218c2.995,2.107,4.438,3.328,4.438,3.771c0,1.331-1.332,4.327-3.883,8.653
			c-0.333,0.555-0.777,0.776-1.109,0.555C156.514,329.523,153.297,327.194,150.19,325.197"/>
		<path fill="#000000" d="M-63.919,264.847l2.996-6.323c0.333-0.333,0.555-0.555,0.887-0.555c0.333,0,2.108,0.888,5.214,2.995
			c2.995,2.219,4.438,3.328,4.438,3.772c0,1.442-1.332,4.326-4.105,8.653c-0.222,0.555-0.555,0.776-0.887,0.555
			c-2.663-2.108-5.769-4.105-9.208-6.324c-1.109,2.663-2.219,4.882-3.217,6.546c-0.333,0.555-0.776,0.776-1.109,0.555
			c-2.995-2.44-6.212-4.659-9.318-6.546c-0.222-0.222-0.222-0.332,0-0.776l3.771-7.987c0.333-0.555,0.555-0.776,0.888-0.776
			s1.886,0.888,4.327,2.662C-66.47,262.739-64.806,264.07-63.919,264.847"/>
		<path fill="#000000" d="M561.324,197.286c-3.771-1.886-5.657-3.883-5.657-6.212c0-2.441,1.109-4.881,3.55-7.1c2.44-2.108,4.326-2.773,5.99-2.219
			c1.332,0.333,1.887,1.886,1.887,4.327c0,2.108-0.333,4.438-1.332,7.1c2.108,1.109,3.218,2.107,3.551,2.773
			c0,1.109-0.777,2.773-2.441,5.214c-0.555-0.776-1.664-1.664-3.55-2.773c-2.107,2.995-4.659,5.658-7.987,7.987
			c-3.55,2.663-7.1,4.66-10.096,6.213c-0.776,0.333-4.326,1.664-10.649,4.104c-1.109,0.333-1.664,0.555-2.108,0.555
			c-0.222,0-0.222-0.222-0.222-0.222c0-0.222,0.555-0.777,1.664-1.442c4.659-2.773,9.541-5.658,14.422-8.653
			C554.225,203.721,558.551,200.281,561.324,197.286 M563.654,192.072c0.333-1.109,0.555-2.219,0.333-3.55
			c-0.333-1.109-0.888-1.886-1.886-1.886c-0.333,0-1.109,0.222-1.887,0.555c-0.776,0.555-1.109,0.887-1.109,1.331
			C559.105,189.521,560.659,190.741,563.654,192.072"/>
		<path fill="#000000" d="M332.904,240.108c5.991-2.995,26.736-11.205,62.236-24.628c27.623-10.317,55.69-20.746,84.09-31.396
			c0.555-0.222,0.888-0.333,1.109-0.222c0,0,0,0.333-0.222,0.887c-0.776,1.664-1.331,2.773-1.886,3.328
			c-14.422,5.436-41.713,15.864-82.205,31.174c-39.05,14.977-60.793,23.74-65.23,26.403
			C331.24,243.88,332.017,241.994,332.904,240.108"/>
		<path fill="#000000" d="M295.74,215.813c-0.776-2.662-0.555-4.326,0.555-5.436c0.776-0.777,1.664-1.109,2.773-1.109s2.219,0.333,3.772,0.887
			c4.659,2.773,7.876,5.991,9.54,9.763c0,0.222,0.222,0.555,0.222,0.887c0,1.332-0.555,2.773-1.331,4.438s-1.664,2.663-2.44,2.663
			c-0.222,0-2.44-0.333-6.545-0.776c-2.219,2.995-4.882,5.658-7.877,7.876c-3.771,2.663-7.1,4.659-10.317,6.212
			c-0.555,0.333-4.104,1.664-10.649,4.105c-0.888,0.333-1.664,0.555-2.108,0.555c-0.222,0-0.222-0.222-0.222-0.222
			c0-0.222,0.555-0.776,1.664-1.442c4.659-2.773,9.541-5.658,14.2-8.432c5.436-3.217,9.763-6.212,12.758-8.986
			c-3.772-0.887-5.658-2.663-5.658-4.992C294.298,219.584,294.853,217.699,295.74,215.813 M301.731,222.136
			c0.332-1.109,0.332-2.441,0-3.772c-0.333-1.442-0.888-2.108-1.887-2.108c-0.555,0-1.331,0.333-2.219,1.332
			c-0.887,0.887-1.441,1.664-1.441,2.107C296.185,220.916,297.959,221.803,301.731,222.136 M309.829,222.136
			c-1.109-2.219-2.773-3.883-5.436-4.992c0,2.219-0.222,4.104-0.776,5.436c0.333,0.222,2.219,0.333,5.769,0.887
			c0.222,0,0.333,0,0.555-0.222C310.162,223.356,309.94,222.913,309.829,222.136"/>
		<path fill="#000000" d="M234.281,222.913c-3.772-1.886-5.658-3.883-5.658-6.212c0-2.44,1.109-4.881,3.55-7.1c2.44-2.108,4.327-2.773,5.991-2.219
			c1.331,0.333,1.886,1.886,1.886,4.327c0,2.108-0.333,4.438-1.331,7.1c2.107,1.109,3.217,2.108,3.55,2.773
			c0,1.109-0.776,2.773-2.44,5.214c-0.555-0.776-1.664-1.664-3.55-2.773c-2.108,2.996-4.659,5.658-7.987,7.988
			c-3.55,2.662-7.1,4.659-10.095,6.212c-0.777,0.333-4.327,1.664-10.65,4.104c-1.109,0.333-1.664,0.555-2.107,0.555
			c-0.222,0-0.222-0.222-0.222-0.222c0-0.222,0.555-0.777,1.664-1.442c4.66-2.773,9.541-5.658,14.422-8.653
			C227.181,229.347,231.508,225.908,234.281,222.913 M236.5,217.699c0.333-1.109,0.555-2.219,0.333-3.55
			c-0.333-1.109-0.887-1.886-1.886-1.886c-0.333,0-1.109,0.222-1.886,0.555c-0.776,0.555-1.109,0.888-1.109,1.331
			C232.063,215.036,233.504,216.367,236.5,217.699"/>
		<path fill="#000000" d="M141.537,227.461c15.088-5.658,31.174-11.537,47.814-17.75c0.776-0.222,1.109-0.333,1.109-0.222
			c0.222,0,0.222,0.333,0,0.888c-0.777,1.886-1.332,2.995-1.886,3.217c-13.978,5.214-30.286,11.76-49.145,19.414
			C139.873,231.344,140.428,229.458,141.537,227.461"/>
		<path fill="#000000" d="M57.447,234.561c15.087-5.658,31.173-11.538,47.814-17.75c0.777-0.222,1.109-0.333,1.109-0.222
			c0.222,0,0.222,0.333,0,0.887c-0.776,1.886-1.331,2.996-1.886,3.217c-13.978,5.214-30.286,11.759-49.146,19.414
			C55.783,238.444,56.337,236.558,57.447,234.561"/>
		<path fill="#000000" d="M-84.997,214.703c-0.776-2.662-0.555-4.326,0.555-5.436c0.777-0.777,1.664-1.109,2.773-1.109s2.219,0.333,3.772,0.887
			c4.66,2.773,7.876,5.991,9.541,9.763c0,0.222,0.222,0.555,0.222,0.887c0,1.332-0.555,2.773-1.332,4.438
			c-0.776,1.664-1.664,2.663-2.44,2.663c-0.222,0-2.44-0.333-6.545-0.776c-2.219,2.995-4.881,5.658-7.876,7.876
			c-3.772,2.663-7.1,4.659-10.317,6.212c-0.555,0.333-4.104,1.664-10.65,4.105c-0.887,0.333-1.664,0.555-2.108,0.555
			c-0.222,0-0.222-0.222-0.222-0.222c0-0.222,0.555-0.776,1.664-1.442c4.659-2.773,9.541-5.658,14.2-8.432
			c5.436-3.217,9.762-6.212,12.758-8.986c-3.772-0.887-5.658-2.663-5.658-4.992C-86.439,218.475-85.884,216.589-84.997,214.703
			 M-79.006,221.027c0.333-1.109,0.333-2.441,0-3.772c-0.333-1.442-0.887-2.108-1.886-2.108c-0.555,0-1.332,0.333-2.219,1.332
			c-0.888,0.887-1.442,1.664-1.442,2.107C-84.664,219.807-82.778,220.694-79.006,221.027 M-71.019,221.027
			c-1.109-2.219-2.773-3.883-5.436-4.992c0,2.219-0.222,4.104-0.777,5.436c0.333,0.222,2.219,0.333,5.769,0.887
			c0.222,0,0.333,0,0.555-0.222C-70.575,222.136-70.797,221.803-71.019,221.027"/>
		<path fill="#000000" d="M382.271,230.013c2.44,0,4.438,1.331,6.213,3.883c1.886,2.773,3.217,6.212,3.883,10.428c0,0.555,0,0.776,0,0.887
			c0.222,0,0.222,0,0.222,0c0-0.222,0.222-0.333,0.333-0.887c0.332-2.663,1.331-6.324,2.662-11.538
			c1.442-3.772,3.217-5.436,4.992-5.436c0.888,0,1.886,0.555,2.773,1.886c0.776,1.109,1.331,2.107,1.331,2.662
			s-0.222,1.332-0.555,2.108c-0.333,1.332-0.776,1.886-1.109,1.886s-0.776-0.555-1.442-1.332c-0.555-0.887-1.331-1.331-2.107-1.331
			c-1.664,0-3.217,3.772-4.438,11.426c-0.555,3.217-1.331,5.658-2.107,6.878c-0.555,0.888-0.888,1.442-1.332,1.442
			c-0.443,0-0.555-0.555-0.555-1.331c0-1.331-0.776-3.883-2.219-7.876c-1.441-3.772-2.662-5.658-3.328-5.658
			c-0.332,0-0.555,0-0.776,0.333c-0.222,0.333-0.555,0.555-1.109,0.555c-0.776,0-1.442-0.555-2.662-1.664
			c-1.109-0.887-1.664-1.664-1.664-2.44c0-0.222,0.333-1.109,1.331-2.773C381.605,230.789,382.16,230.013,382.271,230.013"/>
		<path fill="#000000" d="M501.973,217.366c1.332,0,2.996,0.777,5.215,2.441c2.219,1.886,3.328,3.328,3.55,4.438
			c0.222,0.333-0.222,1.331-0.776,2.662c-0.555,1.332-1.109,2.108-1.332,2.108c-2.107,0.777-3.883,1.332-5.99,1.664
			c-2.44,0.888-4.104,1.886-5.214,2.996c2.773,8.209,4.326,16.641,4.326,24.628c0,2.44-0.333,4.881-0.888,7.322
			c-0.222,0.887-0.332,1.331-0.332,1.441c-0.333,0-0.333-1.441-0.333-4.326c0-4.881-0.776-10.428-2.108-16.974
			c-1.441-6.767-2.107-10.428-2.107-11.537c0-3.217,0.888-5.658,2.662-7.322c0.888-0.555,2.663-1.331,5.215-2.107
			c-1.109-1.109-2.108-1.442-2.996-1.442c-0.332,0-1.109,0.555-1.886,1.442c-0.776,1.109-1.331,1.664-1.442,1.664
			c-0.222,0-0.222-0.333-0.222-1.332C497.868,219.917,499.532,217.366,501.973,217.366"/>
		<path fill="#000000" d="M411.115,271.947c4.104,0,8.432-0.776,13.091-2.108c1.331-0.332,1.886-0.555,1.886-0.332c0,0.222-0.333,0.776-1.442,1.441
			c-3.883,3.772-9.208,5.658-15.531,5.658c-2.107,0-3.771-0.555-4.881-1.664c-1.331-0.888-1.886-2.219-1.886-3.883
			c0-4.104,1.664-8.653,5.214-13.313c-2.995-0.888-4.659-2.662-4.659-4.992c0-1.886,1.331-4.327,3.771-7.322
			c2.662-2.773,4.659-4.105,6.213-4.105c0.332,0,0.887,0.222,1.331,0.888c0.333,0.555,0.555,1.331,0.555,2.108
			c0,0.333-0.333,1.109-1.331,2.219c-0.777,1.331-1.332,1.886-1.332,1.442c-0.332-1.331-1.109-1.886-2.107-1.886
			c-0.555,0-1.331,0.333-2.219,1.442c-0.776,0.887-1.109,1.664-1.109,2.44c0.888,1.664,2.662,2.662,4.992,2.662
			c0.888,0,2.219-0.776,3.883-2.44c0.888-0.887,2.107-1.886,2.995-2.773c0.333-0.222,0.555,0,0.555,0.888
			c0,1.886-0.555,3.771-2.107,5.658c-5.214,3.55-9.319,7.654-11.981,12.313c-0.333,0.888-0.555,1.664-0.555,2.44
			C404.57,270.838,406.566,271.947,411.115,271.947"/>
		<path fill="#000000" d="M184.137,234.894c1.332,0,2.996,0.776,5.214,2.44c2.219,1.886,3.328,3.328,3.55,4.438
			c0.222,0.333-0.222,1.332-0.776,2.663s-1.109,2.108-1.332,2.108c-2.108,0.776-3.883,1.331-5.991,1.664
			c-2.44,0.887-4.104,1.886-5.214,2.996c2.773,8.209,4.327,16.641,4.327,24.628c0,2.44-0.333,4.881-0.888,7.321
			c-0.222,0.888-0.333,1.332-0.333,1.442c-0.333,0-0.333-1.442-0.333-4.326c0-4.882-0.776-10.429-2.108-16.974
			c-1.442-6.768-2.108-10.428-2.108-11.537c0-3.218,0.888-5.658,2.663-7.322c0.888-0.555,2.663-1.331,5.214-2.108
			c-1.109-1.109-2.108-1.442-2.996-1.442c-0.333,0-1.109,0.555-1.886,1.442c-0.777,1.109-1.332,1.664-1.442,1.664
			s-0.222-0.333-0.222-1.331C180.033,237.557,181.697,234.894,184.137,234.894"/>
		<path fill="#000000" d="M4.197,206.716c2.44,0,3.328,0.888,2.773,2.995c-0.776,2.219-1.331,3.328-1.664,3.328c-0.222,0-0.333-0.222-0.888-0.776
			c-0.333-0.555-0.887-0.776-1.886-0.776s-2.773,0.887-5.658,2.773c-2.996,1.886-5.214,3.883-6.878,5.769
			c-0.222,0.333-0.333,0.776-0.333,0.888c0,0.887,1.442,1.331,4.659,1.331c2.108,0,4.66-0.333,7.655-0.888
			c2.995-0.776,4.881-0.887,5.658-0.887c4.105,0,6.767,1.109,7.876,3.772c0.333,0.555,0.555,1.331,0.555,2.219
			c0,1.442-0.333,2.995-1.109,4.438c-0.776,1.442-1.331,2.44-1.664,2.44C3.198,236.558-4.234,238-9.337,238
			c-2.663,0-4.881-0.887-6.768-2.44c-1.442-1.109-2.44-2.663-2.773-4.327c1.664,1.109,4.881,1.664,8.986,1.664
			c1.886,0,6.212-0.776,12.869-2.108c5.991-1.109,9.762-1.886,10.983-2.219c-0.555-1.886-3.217-2.773-7.988-2.773
			c-0.887,0-2.995,0.222-6.212,0.777c-2.995,0.555-4.992,0.887-6.323,0.887c-4.66,0-6.878-1.109-6.878-3.217
			c0-0.888,0.333-2.219,1.109-3.772c2.219-4.327,5.214-7.876,8.764-10.65C-0.462,207.825,1.867,206.716,4.197,206.716"/>
		<path fill="#000000" d="M343.555,268.508c0.222-0.222,0.333-0.333,0.333-0.333c0.222-0.222,0.222-0.222,0.222,0c0.222,0.223,0.222,0.333,0,0.555
			c-1.109,5.991-2.773,8.986-5.214,8.986c-2.663,0-3.883-2.219-3.883-6.768c0-5.214,1.441-10.982,4.659-16.862
			c0.776-1.442,1.109-2.219,1.331-2.219c0,0.222-0.222,1.109-0.555,2.44c-2.219,6.213-3.217,10.429-3.217,12.869
			c0,3.328,0.887,4.992,2.773,4.992C341.003,272.28,342.334,270.948,343.555,268.508"/>
		<path fill="#000000" d="M38.698,246.32c0.222-0.222,0.333-0.333,0.333-0.333c0.222-0.222,0.222-0.222,0.222,0c0.222,0.222,0.222,0.333,0,0.555
			c-1.109,5.991-2.773,8.986-5.214,8.986c-2.663,0-3.883-2.219-3.883-6.767c0-5.214,1.442-10.983,4.659-16.863
			c0.777-1.442,1.109-2.219,1.332-2.219c0,0.222-0.222,1.109-0.555,2.441c-2.219,6.212-3.217,10.428-3.217,12.869
			c0,3.328,0.887,4.992,2.773,4.992C36.147,250.092,37.478,248.761,38.698,246.32"/>
		<path fill="#000000" d="M351.875,203.166c0.222-0.222,0.333-0.333,0.333-0.333c0.222-0.222,0.222-0.222,0.222,0c0.222,0.222,0.222,0.333,0,0.555
			c-1.109,5.991-2.773,8.986-5.214,8.986c-2.663,0-3.883-2.219-3.883-6.767c0-5.214,1.441-10.983,4.659-16.862
			c0.776-1.442,1.109-2.219,1.331-2.219c0,0.222-0.222,1.109-0.555,2.44c-2.219,6.212-3.217,10.428-3.217,12.869
			c0,3.328,0.887,4.992,2.773,4.992C349.212,206.827,350.544,205.606,351.875,203.166"/>
		<path fill="#000000" d="M267.896,197.508c0,2.108-0.888,4.438-2.663,7.1c-1.886,2.663-4.104,4.992-6.878,6.878
			c-1.109,0.887-1.664,1.331-1.886,1.331v-0.222c0-0.222,0.333-0.777,1.331-1.664c4.438-4.881,6.878-8.209,6.878-9.874
			c0-1.442-0.776-2.219-2.219-2.219c-0.888,0-1.442,0.222-2.219,0.555c-0.555,0.222-0.776,0.333-0.888,0.555
			c0-0.222-0.222-0.222-0.222-0.222c0-0.222,0-0.555,0.222-1.331c0.777-3.328,2.441-4.992,4.992-4.992
			C266.786,193.403,267.896,194.734,267.896,197.508"/>
		<path fill="#000000" d="M509.406,190.186c0.222-0.222,0.332-0.333,0.332-0.333c0.223-0.222,0.223-0.222,0.223,0c0.222,0.222,0.222,0.333,0,0.555
			c-1.109,5.99-2.773,8.986-5.215,8.986c-2.662,0-3.883-2.219-3.883-6.767c0-5.214,1.442-10.983,4.66-16.863
			c0.776-1.442,1.109-2.219,1.331-2.219c0,0.222-0.222,1.109-0.555,2.441c-2.219,6.212-3.218,10.428-3.218,12.869
			c0,3.328,0.888,4.992,2.773,4.992C506.743,193.958,508.074,192.627,509.406,190.186"/>
		<path fill="#000000" d="M80.854,192.516c0.222-0.222,0.333-0.333,0.333-0.333c0.222-0.222,0.222-0.222,0.222,0c0.222,0.222,0.222,0.333,0,0.555
			c-1.109,5.991-2.773,8.986-5.214,8.986c-2.663,0-3.883-2.219-3.883-6.767c0-5.214,1.442-10.983,4.659-16.863
			c0.777-1.442,1.109-2.219,1.332-2.219c0,0.222-0.222,1.109-0.555,2.441c-2.219,6.212-3.217,10.428-3.217,12.869
			c0,3.328,0.887,4.992,2.773,4.992C78.192,196.177,79.523,194.846,80.854,192.516"/>
	</g>
</g>
<path fill="#000000" d="M273.602,481.306c-0.578-0.576-1.301-1.03-2.174-1.362c-0.873-0.331-1.885-0.497-3.039-0.497
	c-0.663,0-1.463,0.079-2.4,0.238v-6.077h-1.535v17.711c0.706,0.202,1.402,0.354,2.087,0.454s1.301,0.151,1.849,0.151
	c1.153,0,2.166-0.162,3.039-0.486s1.596-0.764,2.174-1.319c0.576-0.555,1.006-1.211,1.287-1.968s0.42-1.561,0.42-2.411
	s-0.139-1.657-0.42-2.422C274.608,482.554,274.178,481.883,273.602,481.306z M272.391,489.167c-0.852,0.829-2.17,1.243-3.958,1.243
	c-0.39,0-0.805-0.032-1.244-0.097c-0.439-0.065-0.84-0.134-1.2-0.206v-8.845c0.447-0.115,0.887-0.194,1.319-0.237
	c0.433-0.044,0.808-0.065,1.125-0.065c0.894,0,1.668,0.112,2.325,0.335c0.656,0.224,1.199,0.545,1.633,0.963
	c0.432,0.418,0.752,0.919,0.961,1.503s0.314,1.243,0.314,1.979C273.667,487.195,273.241,488.338,272.391,489.167z M247.392,479.446
	c-0.62,0-1.297,0.079-2.033,0.238c-0.735,0.158-1.485,0.433-2.249,0.821l-0.065,1.73c0.548-0.303,0.973-0.52,1.276-0.649
	s0.624-0.237,0.962-0.324c0.338-0.086,0.677-0.158,1.016-0.216s0.667-0.087,0.984-0.087c1.139,0,1.982,0.249,2.53,0.746
	s0.822,1.33,0.822,2.498v0.13c-0.332-0.044-0.732-0.087-1.2-0.13c-0.469-0.043-0.876-0.065-1.222-0.065
	c-1.831,0-3.302,0.311-4.412,0.931c-1.11,0.619-1.665,1.644-1.665,3.07c0,0.707,0.155,1.305,0.465,1.795
	c0.31,0.49,0.713,0.88,1.211,1.168s1.067,0.497,1.708,0.627c0.641,0.13,1.308,0.194,2,0.194c0.807,0,1.6-0.072,2.378-0.216
	c0.779-0.145,1.536-0.368,2.271-0.671v-7.028c0-1.585-0.397-2.742-1.189-3.471C250.189,479.811,248.992,479.446,247.392,479.446z
	 M250.636,489.892c-0.375,0.144-0.858,0.267-1.449,0.367c-0.591,0.102-1.183,0.151-1.773,0.151c-0.505,0-0.984-0.035-1.438-0.108
	c-0.454-0.071-0.84-0.197-1.157-0.378c-0.317-0.18-0.57-0.414-0.757-0.703c-0.188-0.288-0.281-0.663-0.281-1.124
	c0-0.52,0.111-0.934,0.335-1.244c0.224-0.31,0.533-0.551,0.93-0.724c0.396-0.174,0.85-0.296,1.362-0.368
	c0.511-0.072,1.041-0.108,1.589-0.108c0.476,0,0.984,0.029,1.524,0.087c0.541,0.058,0.912,0.108,1.114,0.151V489.892z
	 M258.032,479.868c-0.649,0.122-1.276,0.263-1.881,0.422v11.418h1.535v-10.186c0.202-0.072,0.563-0.147,1.082-0.228
	c0.519-0.079,1.002-0.118,1.449-0.118h1.989v-1.492H260C259.336,479.685,258.681,479.746,258.032,479.868z M-77.92,487.667
	l241.145,0.656l0.663-0.433l-0.632-0.564L-77.92,487.667z M164.994,487.825l1.95,1.95l1.95-1.95l-1.95-1.95L164.994,487.825z
	 M169.559,487.825l3.057,3.057l3.057-3.057l-3.057-3.057L169.559,487.825z M212.359,489.286l-3.395-9.602h-1.514l-3.396,9.602
	l-2.984-9.602h-1.73l3.979,12.023h1.428l3.46-9.645l3.46,9.645h1.427l3.979-12.023h-1.73L212.359,489.286z M238.418,489.589
	c-0.317,0-0.591,0.115-0.822,0.346c-0.231,0.23-0.346,0.505-0.346,0.822c0,0.316,0.115,0.591,0.346,0.821
	c0.23,0.23,0.504,0.346,0.822,0.346c0.317,0,0.591-0.115,0.822-0.346c0.23-0.23,0.346-0.505,0.346-0.821
	c0-0.317-0.116-0.592-0.346-0.822C239.009,489.704,238.735,489.589,238.418,489.589z M193.243,489.286l-3.395-9.602h-1.514
	l-3.396,9.602l-2.984-9.602h-1.73l3.979,12.023h1.428l3.46-9.645l3.46,9.645h1.427l3.979-12.023h-1.73L193.243,489.286z
	 M231.476,489.286l-3.395-9.602h-1.514l-3.396,9.602l-2.984-9.602h-1.73l3.979,12.023h1.428l3.46-9.645l3.46,9.645h1.427
	l3.979-12.023h-1.73L231.476,489.286z M382.732,480.474c-0.426-0.396-0.938-0.667-1.535-0.812c-0.598-0.144-1.271-0.216-2.021-0.216
	c-0.664,0-1.393,0.09-2.184,0.271c-0.793,0.181-1.471,0.4-2.033,0.659c-0.346-0.331-0.818-0.569-1.416-0.714
	c-0.6-0.144-1.273-0.216-2.023-0.216c-0.635,0-1.268,0.058-1.902,0.173l-2.465,0.454v11.635h1.535v-10.38
	c0.447-0.102,0.883-0.188,1.309-0.26c0.424-0.072,0.896-0.108,1.416-0.108c0.605,0,1.125,0.058,1.557,0.173
	c0.434,0.116,0.789,0.321,1.07,0.616c0.281,0.296,0.494,0.711,0.639,1.244s0.217,1.24,0.217,2.119v6.596h1.535v-7.201
	c0-0.663-0.055-1.243-0.162-1.741c-0.109-0.497-0.213-0.861-0.314-1.092c0.086-0.043,0.281-0.119,0.584-0.228
	c0.303-0.107,0.602-0.197,0.898-0.27c0.295-0.072,0.586-0.126,0.875-0.162s0.547-0.055,0.779-0.055c0.59,0,1.102,0.058,1.535,0.173
	c0.432,0.116,0.781,0.317,1.049,0.605c0.266,0.289,0.471,0.703,0.615,1.244c0.145,0.54,0.217,1.251,0.217,2.13v6.596h1.535v-7.201
	c0-0.995-0.111-1.816-0.336-2.466C383.482,481.393,383.158,480.87,382.732,480.474z M280.1,474.581
	c-0.785,0.648-1.18,1.729-1.18,3.243v1.86h-2.551v1.492h2.551v10.531h1.537v-10.531h4.973v-1.492h-4.973v-1.471
	c0-0.635,0.045-1.149,0.141-1.546c0.094-0.396,0.24-0.707,0.443-0.931c0.201-0.223,0.475-0.385,0.82-0.486
	c0.346-0.101,0.779-0.151,1.299-0.151h2.422v-1.492h-2.271C281.956,473.607,280.885,473.932,280.1,474.581z M398.273,487.825
	l3.057,3.057l3.057-3.057l-3.057-3.057L398.273,487.825z M343.322,482.322c0.389-0.418,0.854-0.749,1.395-0.994
	s1.135-0.368,1.783-0.368c0.736,0,1.373,0.076,1.914,0.228s1.121,0.414,1.74,0.789l0.715-1.405c-0.707-0.39-1.393-0.674-2.055-0.854
	c-0.664-0.181-1.436-0.271-2.314-0.271c-0.85,0-1.639,0.155-2.367,0.465c-0.729,0.311-1.367,0.746-1.914,1.309
	c-0.549,0.563-0.98,1.222-1.297,1.979c-0.317,0.757-0.476,1.59-0.476,2.498s0.158,1.74,0.476,2.497
	c0.316,0.757,0.748,1.413,1.297,1.969c0.547,0.555,1.186,0.987,1.914,1.297c0.729,0.311,1.518,0.465,2.367,0.465
	c0.879,0,1.65-0.09,2.314-0.27c0.662-0.181,1.348-0.466,2.055-0.854l-0.715-1.406c-0.619,0.375-1.199,0.639-1.74,0.79
	s-1.178,0.227-1.914,0.227c-0.648,0-1.242-0.119-1.783-0.356c-0.541-0.238-1.006-0.565-1.395-0.984
	c-0.391-0.418-0.693-0.915-0.908-1.492c-0.217-0.576-0.324-1.203-0.324-1.881s0.107-1.305,0.324-1.882
	C342.628,483.238,342.931,482.741,343.322,482.322z M404.387,487.825l1.949,1.95l1.951-1.95l-1.951-1.95L404.387,487.825z
	 M410.701,487.326l-0.664,0.433l0.633,0.564l241.176-0.341L410.701,487.326z M362.611,481.295c-0.549-0.569-1.193-1.02-1.936-1.352
	c-0.742-0.331-1.547-0.497-2.412-0.497c-0.863,0-1.668,0.166-2.41,0.497c-0.742,0.332-1.389,0.782-1.936,1.352
	c-0.549,0.57-0.977,1.229-1.287,1.979c-0.311,0.749-0.465,1.557-0.465,2.422s0.154,1.672,0.465,2.422s0.738,1.409,1.287,1.979
	c0.547,0.569,1.193,1.017,1.936,1.341s1.547,0.486,2.41,0.486c0.865,0,1.67-0.162,2.412-0.486s1.387-0.771,1.936-1.341
	c0.547-0.569,0.977-1.229,1.287-1.979c0.309-0.75,0.465-1.557,0.465-2.422s-0.156-1.673-0.465-2.422
	C363.587,482.524,363.158,481.865,362.611,481.295z M362.394,487.523c-0.217,0.569-0.52,1.067-0.908,1.492
	c-0.389,0.426-0.857,0.765-1.406,1.017c-0.547,0.252-1.152,0.378-1.816,0.378c-0.662,0-1.268-0.126-1.816-0.378
	c-0.547-0.252-1.016-0.591-1.404-1.017c-0.391-0.425-0.693-0.923-0.908-1.492c-0.217-0.569-0.324-1.179-0.324-1.827
	c0-0.649,0.107-1.262,0.324-1.839c0.215-0.576,0.518-1.077,0.908-1.503c0.389-0.425,0.857-0.764,1.404-1.016
	c0.549-0.252,1.154-0.379,1.816-0.379c0.664,0,1.27,0.127,1.816,0.379c0.549,0.252,1.018,0.591,1.406,1.016
	c0.389,0.426,0.691,0.927,0.908,1.503c0.217,0.577,0.324,1.189,0.324,1.839C362.718,486.345,362.611,486.954,362.394,487.523z
	 M296.221,481.295c-0.547-0.569-1.191-1.02-1.936-1.352c-0.742-0.331-1.545-0.497-2.41-0.497s-1.67,0.166-2.412,0.497
	c-0.742,0.332-1.387,0.782-1.936,1.352c-0.547,0.57-0.977,1.229-1.285,1.979c-0.311,0.749-0.465,1.557-0.465,2.422
	s0.154,1.672,0.465,2.422c0.309,0.75,0.738,1.409,1.285,1.979c0.549,0.569,1.193,1.017,1.936,1.341s1.547,0.486,2.412,0.486
	s1.668-0.162,2.41-0.486c0.744-0.324,1.389-0.771,1.936-1.341c0.549-0.569,0.977-1.229,1.287-1.979s0.465-1.557,0.465-2.422
	s-0.154-1.673-0.465-2.422C297.198,482.524,296.77,481.865,296.221,481.295z M296.006,487.523c-0.217,0.569-0.52,1.067-0.908,1.492
	c-0.391,0.426-0.859,0.765-1.406,1.017c-0.549,0.252-1.154,0.378-1.816,0.378c-0.664,0-1.27-0.126-1.816-0.378
	c-0.549-0.252-1.018-0.591-1.406-1.017c-0.389-0.425-0.691-0.923-0.908-1.492s-0.324-1.179-0.324-1.827
	c0-0.649,0.107-1.262,0.324-1.839c0.217-0.576,0.52-1.077,0.908-1.503c0.389-0.425,0.857-0.764,1.406-1.016
	c0.547-0.252,1.152-0.379,1.816-0.379c0.662,0,1.268,0.127,1.816,0.379c0.547,0.252,1.016,0.591,1.406,1.016
	c0.389,0.426,0.691,0.927,0.908,1.503c0.215,0.577,0.324,1.189,0.324,1.839C296.331,486.345,296.221,486.954,296.006,487.523z
	 M309.381,480.463c-0.455-0.39-0.996-0.656-1.623-0.801c-0.627-0.144-1.309-0.216-2.043-0.216c-0.707,0-1.465,0.047-2.271,0.141
	s-1.701,0.234-2.682,0.422v11.699h1.535v-10.402c1.184-0.23,2.293-0.346,3.33-0.346c0.592,0,1.111,0.062,1.559,0.184
	c0.445,0.123,0.818,0.332,1.113,0.628c0.295,0.295,0.525,0.713,0.691,1.254s0.25,1.251,0.25,2.13v6.553h1.535v-7.201
	c0-0.995-0.119-1.82-0.357-2.477C310.18,481.375,309.834,480.852,309.381,480.463z M318.516,490.054
	c-0.346-0.108-0.619-0.277-0.82-0.509c-0.203-0.23-0.35-0.547-0.443-0.951c-0.096-0.403-0.141-0.922-0.141-1.557v-5.86h4.973v-1.492
	h-4.973v-4.347h-1.537v4.347h-2.551v1.492h2.551v6.466c0,0.764,0.109,1.405,0.326,1.925c0.215,0.519,0.525,0.937,0.93,1.254
	c0.402,0.317,0.867,0.544,1.395,0.682c0.525,0.137,1.105,0.205,1.74,0.205h2.271v-1.492h-2.422
	C319.295,490.216,318.862,490.162,318.516,490.054z M337.784,489.589c-0.316,0-0.59,0.115-0.82,0.346s-0.346,0.505-0.346,0.822
	c0,0.316,0.115,0.591,0.346,0.821s0.504,0.346,0.82,0.346c0.318,0,0.592-0.115,0.822-0.346s0.346-0.505,0.346-0.821
	c0-0.317-0.115-0.592-0.346-0.822S338.102,489.589,337.784,489.589z M333.178,486.106c-0.346-0.303-0.785-0.565-1.318-0.789
	c-0.533-0.223-1.182-0.422-1.947-0.595l-0.799-0.173c-1.053-0.216-1.781-0.461-2.184-0.735c-0.404-0.273-0.607-0.678-0.607-1.211
	c0-0.504,0.238-0.904,0.715-1.2c0.475-0.295,1.174-0.443,2.098-0.443c0.793,0,1.477,0.076,2.055,0.228
	c0.576,0.151,1.217,0.421,1.924,0.811l0.691-1.405c-1.412-0.765-2.969-1.146-4.67-1.146c-0.635,0-1.223,0.076-1.764,0.228
	c-0.539,0.151-1.008,0.364-1.404,0.638s-0.711,0.605-0.941,0.994c-0.23,0.39-0.346,0.815-0.346,1.276
	c0,0.462,0.072,0.88,0.217,1.254c0.143,0.375,0.381,0.707,0.713,0.995s0.758,0.537,1.275,0.746c0.52,0.209,1.146,0.4,1.883,0.573
	l0.908,0.194c1.008,0.217,1.729,0.49,2.162,0.822c0.432,0.331,0.648,0.771,0.648,1.318c0,0.39-0.086,0.707-0.26,0.952
	c-0.172,0.245-0.414,0.436-0.725,0.573c-0.311,0.137-0.678,0.237-1.102,0.303c-0.426,0.064-0.877,0.097-1.352,0.097
	c-0.592,0-1.223-0.09-1.893-0.271c-0.67-0.18-1.352-0.479-2.045-0.897l-0.734,1.471c0.779,0.433,1.539,0.742,2.281,0.93
	s1.539,0.281,2.391,0.281c0.748,0,1.434-0.072,2.053-0.216c0.621-0.145,1.158-0.36,1.611-0.648c0.455-0.289,0.805-0.649,1.049-1.082
	c0.246-0.433,0.369-0.93,0.369-1.492c0-0.476-0.072-0.915-0.217-1.318C333.77,486.763,333.526,486.41,333.178,486.106z"/>
</svg>

