<?xml version="1.0" encoding="utf-8"?>
<!-- Generator: Adobe Illustrator 23.0.0, SVG Export Plug-In . SVG Version: 6.00 Build 0)  -->
<svg version="1.1" id="Layer_1" xmlns="http://www.w3.org/2000/svg" xmlns:xlink="http://www.w3.org/1999/xlink" x="0px" y="0px"
	 viewBox="0 0 800 500"  xml:space="preserve">

<path fill="#000000" id="XMLID_935_" class="st0" d="M258.58,120.96V67.61h-2.36v53.35l-9.58,9.57l9.58,9.58v58.78h2.36V140.1l9.57-9.58
	L258.58,120.96z M257.4,137.53l-1.18-1.18l-5.82-5.82l5.82-5.82l1.18-1.18l1.18,1.18l5.82,5.82l-5.82,5.82L257.4,137.53z"/>
<path fill="#000000" id="XMLID_932_" class="st0" d="M256.2,428v26.9h2.36V428l9.58-9.57l-9.58-9.58v-58.78h-2.36v58.78l-9.57,9.58L256.2,428z
	 M257.38,411.43l1.18,1.18l5.82,5.82l-5.82,5.82l-1.18,1.18l-1.18-1.18l-5.82-5.82l5.82-5.82L257.38,411.43z"/>
<g id="XMLID_471_">
	<g id="XMLID_487_">
		<g id="XMLID_517_">
			<g id="XMLID_522_">
				<path fill="#000000" id="XMLID_529_" d="M328.14,191.3c1.26,0.14,2.51,0.31,3.75,0.51c1.02,0.17,2.02,0.36,3.02,0.58
					c0.33,0.07,0.66,0.14,0.98,0.22c6.45,1.44,12.56,3.77,18.21,6.87c11.82,6.47,21.57,16.24,28.02,28.06
					c5.09,9.32,8.12,19.9,8.48,31.16c0.36-11.18,3.35-21.7,8.38-30.97c0.03-0.06,0.06-0.13,0.1-0.19
					c6.45-11.83,16.21-21.59,28.02-28.06c8.99-4.92,19.16-7.93,29.97-8.48c-10.81-0.55-20.98-3.56-29.97-8.48
					c-11.81-6.47-21.57-16.24-28.02-28.06c-5.09-9.32-8.12-19.91-8.48-31.16c-0.36,11.25-3.4,21.84-8.48,31.16
					c-6.45,11.83-16.2,21.59-28.02,28.06c-0.02,0.01-0.04,0.02-0.05,0.03c-8.92,4.88-19.01,7.87-29.73,8.45
					c-0.06,0-0.12,0.01-0.18,0.01C325.47,191.06,326.81,191.16,328.14,191.3z M390.59,169.7c5.77,8.29,12.98,15.51,21.27,21.29
					c-8.28,5.78-15.5,12.99-21.27,21.29c-5.77-8.29-12.98-15.51-21.27-21.29C377.6,185.21,384.82,178,390.59,169.7z"/>
				<path fill="#000000" id="XMLID_466_" d="M253.53,262.72c10.81-0.55,20.98-3.56,29.97-8.48c7.07-3.87,13.42-8.93,18.74-14.91
					c3.58-4,6.69-8.41,9.28-13.16c0.79-1.45,1.54-2.93,2.22-4.44c3.75-8.2,5.96-17.23,6.26-26.72c0.36,11.25,3.4,21.84,8.48,31.16
					c6.42,11.78,16.14,21.52,27.89,27.99c0.04,0.03,0.08,0.04,0.13,0.07c8.73,4.78,18.56,7.75,29.02,8.42c0.01,0,0.01,0,0.02,0
					c0.31,0.03,0.62,0.04,0.93,0.06c-1.29,0.06-2.58,0.16-3.85,0.31h-0.01c-7.66,0.81-14.97,2.87-21.69,5.97
					c-1.5,0.67-2.97,1.42-4.42,2.21c-0.04-0.02-0.07-0.03-0.11-0.04c-5.35-2.3-10.41-5.13-15.12-8.44
					c-0.03-0.02-0.06-0.04-0.09-0.06c-8.25-5.77-15.43-12.96-21.18-21.22c-2.77,3.99-5.88,7.72-9.27,11.17
					c-3.68,3.73-7.69,7.12-12,10.12c8.28,5.78,15.5,12.99,21.27,21.29c3-4.31,6.39-8.33,10.11-12.01c4.17,3.16,8.61,6.01,13.26,8.49
					c-5.98,5.34-11.03,11.69-14.89,18.77c-5.09,9.32-8.12,19.91-8.48,31.16c-0.36-11.26-3.39-21.84-8.48-31.16
					c-6.44-11.83-16.2-21.59-28.02-28.06C274.51,266.28,264.34,263.27,253.53,262.72z"/>
				<g id="XMLID_526_">
					<path fill="#000000" id="XMLID_465_" d="M324.3,190.98c10.72-0.58,20.81-3.57,29.73-8.45c14.79,6.37,27.43,16.82,36.5,29.91
						c3.31,4.76,6.15,9.88,8.44,15.28c0.01,0.03,0.03,0.05,0.04,0.08c2.76,6.53,4.74,13.47,5.79,20.7c0.6,4.07,0.92,8.24,0.92,12.47
						c0,0.23,0,0.47-0.01,0.7c-2.48,0.57-5.01,1-7.59,1.28c-2.44-0.28-4.92-0.43-7.44-0.45c-0.09-0.01-0.17-0.01-0.26,0
						c0.02-0.51,0.03-1.02,0.03-1.54c0-4.7-0.47-9.29-1.36-13.74c-1.37-6.89-3.76-13.43-7.01-19.44
						c-9.3-17.25-25.63-30.17-45.11-34.94c-0.36-0.09-0.72-0.18-1.08-0.26c-0.32-0.07-0.65-0.14-0.98-0.22c-1-0.22-2-0.4-3.02-0.58
						c-1.24-0.21-2.49-0.38-3.75-0.51C326.87,191.15,325.59,191.04,324.3,190.98z"/>
				</g>
				<g id="XMLID_523_">
					<path fill="#000000" id="XMLID_524_" d="M382.61,263.03L382.61,263.03c1.28-0.14,2.56-0.24,3.85-0.31c-0.31-0.02-0.62-0.04-0.93-0.06
						c-0.01,0-0.01,0-0.02,0c-0.51,0.03-1.02,0.07-1.52,0.11c-0.66,0.05-1.31,0.13-1.97,0.2
						C382.23,262.99,382.41,263.01,382.61,263.03z"/>
				</g>
			</g>
			<g id="XMLID_520_">
				<path fill="#000000" id="XMLID_463_" d="M373.4,261.48c0.04-3.51,0.3-7,0.76-10.45c0-0.03,0.01-0.06,0.01-0.09c0.8-5.81,2.21-11.48,4.15-16.95
					c5.33-15.01,14.8-28.4,27.42-38.41c9.88,2.37,20.41,2.62,30.9,0.38c-1.22,0.4-2.44,0.84-3.61,1.31
					c-1.19,0.46-2.35,0.95-3.49,1.47c-0.93,0.43-1.86,0.88-2.77,1.35c-0.3,0.15-0.59,0.31-0.89,0.46c-0.32,0.18-0.65,0.36-0.97,0.54
					c-17.56,9.69-29.94,26.43-34.41,45.51c-1.28,5.44-1.91,11.09-1.83,16.8c0.02,1.27,0.06,2.53,0.15,3.79
					c0.26,3.82,0.83,7.66,1.74,11.49c-3.84,0.04-7.64-0.19-11.37-0.66c-1.51-0.18-3.01-0.4-4.49-0.67
					c-0.29-1.61-0.53-3.23-0.72-4.83C373.54,268.82,373.35,265.13,373.4,261.48z"/>
			</g>
			<g id="XMLID_518_">
				<path fill="#000000" id="XMLID_461_" d="M312.11,228.78c4.67-9.03,7.44-19.18,7.77-29.92c0.09,1.28,0.22,2.57,0.4,3.84
					c0.16,1.25,0.36,2.5,0.6,3.73c0.19,1.02,0.4,2.01,0.64,3.01c0.08,0.32,0.16,0.65,0.24,0.97c0.09,0.36,0.18,0.72,0.28,1.07
					c5.2,19.37,18.49,35.4,35.95,44.31c4.83,2.48,10,4.4,15.4,5.7c1.37,0.34,2.78,0.63,4.19,0.87c3.61,0.64,7.31,1,11.09,1.05
					c0.02,1.27,0.06,2.53,0.15,3.79c0.26,3.82,0.83,7.66,1.74,11.49c-3.84,0.04-7.64-0.19-11.37-0.66c-1.51-0.18-3.01-0.4-4.49-0.67
					c-5.64-1-11.12-2.57-16.34-4.64c-0.03-0.01-0.05-0.03-0.08-0.04c-5.45-2.17-10.62-4.89-15.46-8.09
					C329.54,255.82,318.81,243.41,312.11,228.78z"/>
			</g>
		</g>
		<g id="XMLID_501_">
			<g id="XMLID_506_">
				<path fill="#000000" id="XMLID_513_" d="M475.46,314.24c-1.26-0.14-2.51-0.31-3.75-0.51c-1.02-0.17-2.02-0.36-3.02-0.58
					c-0.33-0.07-0.66-0.14-0.98-0.22c-6.45-1.44-12.56-3.77-18.21-6.87c-11.82-6.47-21.57-16.24-28.02-28.06
					c-5.09-9.32-8.12-19.9-8.48-31.16c-0.36,11.18-3.35,21.7-8.38,30.97c-0.03,0.06-0.06,0.13-0.1,0.19
					c-6.45,11.83-16.21,21.59-28.02,28.06c-8.99,4.92-19.16,7.93-29.97,8.48c10.81,0.55,20.98,3.56,29.97,8.48
					c11.81,6.47,21.57,16.24,28.02,28.06c5.09,9.32,8.12,19.91,8.48,31.16c0.36-11.25,3.4-21.84,8.48-31.16
					c6.45-11.83,16.2-21.59,28.02-28.06c0.02-0.01,0.04-0.02,0.05-0.03c8.92-4.88,19.01-7.87,29.73-8.45c0.06,0,0.12-0.01,0.18-0.01
					C478.13,314.48,476.79,314.38,475.46,314.24z M413.01,335.84c-5.77-8.29-12.98-15.51-21.27-21.29
					c8.28-5.78,15.5-12.99,21.27-21.29c5.77,8.29,12.98,15.51,21.27,21.29C425.99,320.33,418.78,327.55,413.01,335.84z"/>
				<path fill="#000000" id="XMLID_457_" d="M550.07,242.82c-10.81,0.55-20.98,3.56-29.97,8.48c-7.07,3.87-13.42,8.93-18.74,14.91
					c-3.58,4-6.69,8.41-9.28,13.16c-0.79,1.45-1.54,2.93-2.22,4.44c-3.75,8.2-5.96,17.23-6.26,26.72
					c-0.36-11.25-3.4-21.84-8.48-31.16c-6.42-11.78-16.14-21.52-27.89-27.99c-0.04-0.03-0.08-0.04-0.13-0.07
					c-8.73-4.78-18.56-7.75-29.02-8.42c-0.01,0-0.01,0-0.02,0c-0.31-0.03-0.62-0.04-0.93-0.06c1.29-0.06,2.58-0.16,3.85-0.31h0.01
					c7.66-0.81,14.97-2.87,21.69-5.97c1.5-0.67,2.97-1.42,4.42-2.21c0.04,0.02,0.07,0.03,0.11,0.04c5.35,2.3,10.41,5.13,15.12,8.44
					c0.03,0.02,0.06,0.04,0.09,0.06c8.25,5.77,15.43,12.96,21.18,21.22c2.77-3.99,5.88-7.72,9.27-11.17
					c3.68-3.73,7.69-7.12,12-10.12c-8.28-5.78-15.5-12.99-21.27-21.29c-3,4.31-6.39,8.33-10.11,12.01
					c-4.17-3.16-8.61-6.01-13.26-8.49c5.98-5.34,11.03-11.69,14.89-18.77c5.09-9.32,8.12-19.91,8.48-31.16
					c0.36,11.26,3.39,21.84,8.48,31.16c6.44,11.83,16.2,21.59,28.02,28.06C529.09,239.26,539.26,242.27,550.07,242.82z"/>
				<g id="XMLID_510_">
					<path fill="#000000" id="XMLID_456_" d="M479.3,314.56c-10.72,0.58-20.81,3.57-29.73,8.45c-14.79-6.37-27.43-16.82-36.5-29.91
						c-3.31-4.76-6.15-9.88-8.44-15.28c-0.01-0.03-0.03-0.05-0.04-0.08c-2.76-6.53-4.74-13.47-5.79-20.7
						c-0.6-4.07-0.92-8.24-0.92-12.47c0-0.23,0-0.47,0.01-0.7c2.48-0.57,5.01-1,7.59-1.28c2.44,0.28,4.92,0.43,7.44,0.45
						c0.09,0.01,0.17,0.01,0.26,0c-0.02,0.51-0.03,1.02-0.03,1.54c0,4.7,0.47,9.29,1.36,13.74c1.37,6.89,3.76,13.43,7.01,19.44
						c9.3,17.25,25.63,30.17,45.11,34.94c0.36,0.09,0.72,0.18,1.08,0.26c0.32,0.07,0.65,0.14,0.98,0.22c1,0.22,2,0.4,3.02,0.58
						c1.24,0.21,2.49,0.38,3.75,0.51C476.73,314.39,478.01,314.5,479.3,314.56z"/>
				</g>
				<g id="XMLID_507_">
					<path fill="#000000" id="XMLID_508_" d="M420.99,242.52L420.99,242.52c-1.28,0.14-2.56,0.24-3.85,0.31c0.31,0.02,0.62,0.04,0.93,0.06
						c0.01,0,0.01,0,0.02,0c0.51-0.03,1.02-0.07,1.52-0.11c0.66-0.05,1.31-0.13,1.97-0.2C421.36,242.55,421.18,242.53,420.99,242.52
						z"/>
				</g>
			</g>
			<g id="XMLID_504_">
				<path fill="#000000" id="XMLID_453_" d="M430.2,244.07c-0.04,3.51-0.3,7-0.76,10.45c0,0.03-0.01,0.06-0.01,0.09
					c-0.8,5.81-2.21,11.48-4.15,16.95c-5.33,15.01-14.8,28.4-27.42,38.41c-9.88-2.37-20.41-2.62-30.9-0.38
					c1.22-0.4,2.44-0.84,3.61-1.31c1.19-0.46,2.35-0.95,3.49-1.47c0.93-0.43,1.86-0.88,2.77-1.35c0.3-0.15,0.59-0.31,0.89-0.46
					c0.32-0.18,0.65-0.36,0.97-0.54c17.56-9.69,29.94-26.43,34.41-45.51c1.28-5.44,1.91-11.09,1.83-16.8
					c-0.02-1.27-0.06-2.53-0.15-3.79c-0.26-3.82-0.83-7.66-1.74-11.49c3.84-0.04,7.64,0.19,11.37,0.66c1.51,0.18,3.01,0.4,4.49,0.67
					c0.29,1.61,0.53,3.23,0.72,4.83C430.05,236.73,430.25,240.41,430.2,244.07z"/>
			</g>
			<g id="XMLID_502_">
				<path fill="#000000" id="XMLID_452_" d="M491.49,276.77c-4.67,9.03-7.44,19.18-7.77,29.92c-0.09-1.28-0.22-2.57-0.4-3.84
					c-0.16-1.25-0.36-2.5-0.6-3.73c-0.19-1.02-0.4-2.01-0.64-3.01c-0.08-0.32-0.16-0.65-0.24-0.97c-0.09-0.36-0.18-0.72-0.28-1.07
					c-5.2-19.37-18.49-35.4-35.95-44.31c-4.83-2.48-10-4.4-15.4-5.7c-1.37-0.34-2.78-0.63-4.19-0.87c-3.61-0.64-7.31-1-11.09-1.05
					c-0.02-1.27-0.06-2.53-0.15-3.79c-0.26-3.82-0.83-7.66-1.74-11.49c3.84-0.04,7.64,0.19,11.37,0.66c1.51,0.18,3.01,0.4,4.49,0.67
					c5.64,1,11.12,2.57,16.34,4.64c0.03,0.01,0.05,0.03,0.08,0.04c5.45,2.17,10.62,4.89,15.46,8.09
					C474.06,249.72,484.78,262.13,491.49,276.77z"/>
			</g>
		</g>
		<rect id="XMLID_451_" x="537.04" y="241.73" width="76.2" height="1.93"/>
		
			<ellipse id="XMLID_449_" transform="matrix(0.6574 -0.7536 0.7536 0.6574 8.8696 504.5384)" cx="559.27" cy="242.52" rx="15.88" ry="15.88"/>
		<rect id="XMLID_448_" x="186.76" y="261.94" width="76.2" height="1.93"/>
		
			<ellipse id="XMLID_447_" transform="matrix(0.7445 -0.6676 0.6676 0.7445 -113.8955 227.8537)" cx="240.73" cy="262.72" rx="15.88" ry="15.88"/>
		
			<ellipse id="XMLID_444_" transform="matrix(0.7445 -0.6676 0.6676 0.7445 -120.3246 211.0552)" cx="215.57" cy="262.72" rx="15.88" ry="15.88"/>
		<path fill="#000000" id="XMLID_493_" d="M429.59,393.63c-1.11-0.46-2.12-0.86-3.02-1.22c-7.74-3.12-7.74-3.12-11-10.79c-0.38-0.9-0.8-1.9-1.28-3
			l-0.31-0.73v-5.09h-1.93v5.25l-0.24,0.59c-0.46,1.11-0.86,2.12-1.22,3.03c-3.12,7.73-3.12,7.73-10.8,10.99
			c-0.89,0.38-1.89,0.8-3,1.28l-2.93,1.27l2.96,1.21c1.11,0.46,2.12,0.86,3.02,1.23c7.74,3.11,7.74,3.11,11,10.79
			c0.36,0.86,0.76,1.81,1.22,2.88V449h1.93v-36.1l0.61-1.49c0.46-1.11,0.86-2.12,1.23-3.03c3.11-7.73,3.11-7.73,10.79-10.99
			c0.9-0.38,1.89-0.8,3-1.28l2.93-1.28L429.59,393.63z M425.56,394.91c-7.96,3.38-8.71,3.81-11.58,10.82
			c-0.21,0.51-0.43,1.06-0.66,1.64c0,0.01,0,0.01,0,0.02c-0.01-0.01-0.01-0.01-0.01-0.02c-0.47-1.1-0.87-2.07-1.26-2.91
			c-2.56-5.74-3.7-6.31-11.21-9.33c-0.01,0-0.01,0-0.02,0c0.01,0,0.01-0.01,0.02-0.01c7.6-3.23,8.62-3.77,11.21-9.93
			c0.31-0.75,0.66-1.59,1.03-2.53c0-0.01,0-0.01,0-0.02c0.01,0.01,0.01,0.01,0.01,0.02c0.32,0.75,0.61,1.44,0.89,2.07
			C416.83,391.27,417.7,391.74,425.56,394.91C425.56,394.91,425.56,394.91,425.56,394.91C425.56,394.91,425.56,394.91,425.56,394.91
			z"/>
		<path fill="#000000" id="XMLID_488_" d="M403.96,108.91c-7.74-3.11-7.74-3.11-11-10.79c-0.15-0.36-0.31-0.73-0.47-1.11
			c0.25-0.63,0.49-1.22,0.72-1.78c3.11-7.73,3.11-7.73,10.79-10.99c0.9-0.38,1.89-0.8,3-1.28l2.93-1.27l-2.96-1.21
			c-1.11-0.46-2.12-0.86-3.02-1.23c-7.74-3.11-7.74-3.11-11-10.79c-0.38-0.9-0.8-1.89-1.28-3l-0.13-0.29V40.47h-1.94v23.97
			l-0.42,1.03c-0.46,1.11-0.86,2.12-1.22,3.02c-3.12,7.74-3.12,7.74-10.8,11c-0.89,0.38-1.89,0.8-3,1.28l-2.93,1.28l2.96,1.21
			c1.11,0.46,2.12,0.86,3.02,1.22c7.74,3.12,7.74,3.12,11,10.79c0.15,0.36,0.31,0.73,0.48,1.12c-0.26,0.63-0.5,1.22-0.72,1.77
			c-3.12,7.74-3.12,7.74-10.8,11c-0.89,0.38-1.89,0.8-3,1.28l-2.93,1.28l2.96,1.21c1.11,0.46,2.12,0.86,3.02,1.22
			c7.74,3.12,7.74,3.12,11,10.79c0.38,0.9,0.8,1.9,1.28,3l0.12,0.27v5.55h1.94v-4.81l0.42-1.03c0.46-1.11,0.86-2.12,1.23-3.03
			c3.11-7.74,3.11-7.74,10.79-10.99c0.9-0.38,1.89-0.8,3-1.28l2.93-1.27l-2.96-1.21C405.86,109.68,404.86,109.28,403.96,108.91z
			 M378.23,81.98c-0.01,0-0.01,0-0.02-0.01C378.22,81.97,378.22,81.97,378.23,81.98c7.78-3.32,8.66-3.8,11.39-10.37
			c0.26-0.64,0.55-1.34,0.85-2.1c0-0.01,0-0.01,0-0.02c0.01,0.01,0.01,0.01,0.01,0.02c0.4,0.93,0.75,1.75,1.08,2.5
			c2.7,6.13,3.71,6.65,11.39,9.74c0,0,0,0.01-0.01,0.01c-7.78,3.3-8.66,3.78-11.39,10.36c-0.18,0.44-0.37,0.9-0.58,1.4l-0.58-1.33
			l-0.29,0.69c-0.17-0.41-0.34-0.79-0.5-1.16C386.92,85.59,385.91,85.07,378.23,81.98z M402.94,111.43
			c-7.78,3.3-8.66,3.78-11.39,10.36c-0.26,0.64-0.55,1.34-0.85,2.1c0,0.01,0,0.01,0,0.02c-0.01-0.01-0.01-0.01-0.01-0.02
			c-0.4-0.93-0.75-1.75-1.08-2.5c-2.7-6.14-3.71-6.65-11.39-9.74c-0.01,0-0.01,0-0.02-0.01c0.01,0,0.01,0,0.02,0
			c7.78-3.31,8.66-3.79,11.39-10.36c0.18-0.44,0.37-0.91,0.58-1.41l0.58,1.34l0.29-0.7c0.17,0.41,0.34,0.8,0.5,1.17
			C394.25,107.8,395.27,108.32,402.94,111.43C402.95,111.42,402.95,111.43,402.94,111.43z"/>
	</g>
	<path fill="#000000" id="XMLID_478_" d="M573.59,241.73c-10.71-4.34-9.37-3.31-14.46-15.09c-4.78,11.64-3.59,10.85-13.56,15.09h-4.71
		c-7.38-1.37-14.37-3.9-20.75-7.39c-11.82-6.47-21.57-16.24-28.02-28.06c-5.09-9.32-8.12-19.9-8.48-31.16
		c-0.36,11.25-3.4,21.84-8.48,31.16c-3.86,7.08-8.91,13.43-14.89,18.77c4.65,2.48,9.09,5.33,13.26,8.49
		c3.72-3.68,7.11-7.69,10.11-12.01c5.77,8.29,12.98,15.51,21.27,21.29c-4.3,3-8.32,6.39-12,10.12c-3.25,3.3-6.23,6.87-8.9,10.66
		c-6.23-8.95-14.12-16.65-23.21-22.65c-4.83-3.2-10.01-5.92-15.46-8.09c-0.03-0.01-0.05-0.03-0.08-0.04
		c-5.22-2.07-10.69-3.64-16.34-4.64c-1.48-0.27-2.98-0.49-4.49-0.67c-3.73-0.47-7.53-0.69-11.37-0.66
		c0.92,3.84,1.48,7.67,1.74,11.49c0.09,1.27,0.13,2.53,0.15,3.79c0.06,4.3-0.28,8.56-1,12.72c-0.5-3.37-0.76-6.8-0.76-10.3
		c0-0.51,0.01-1.02,0.03-1.54c-0.09,0.01-0.17,0.01-0.26,0c-2.52-0.02-5-0.17-7.44-0.45c-0.58,0.06-1.16,0.14-1.73,0.22
		c-1.13-5.19-2.72-10.2-4.75-14.99c-0.01-0.03-0.03-0.05-0.04-0.08c0.03-0.06,0.06-0.13,0.1-0.19c4.46-8.18,10.51-15.37,17.72-21.17
		c2.57-1.93,5.27-3.7,8.12-5.28c0.32-0.18,0.65-0.36,0.97-0.54c0.3-0.15,0.59-0.31,0.89-0.46c0.91-0.47,1.83-0.92,2.77-1.35
		c1.14-0.52,2.3-1.02,3.49-1.47c1.18-0.48,2.39-0.92,3.61-1.31c-1.26,0.27-2.52,0.5-3.77,0.7c7.48-3.25,15.64-5.23,24.19-5.66
		c-10.81-0.55-20.98-3.56-29.97-8.48c-11.81-6.47-21.57-16.24-28.02-28.06c-3.62-6.63-6.2-13.91-7.51-21.62v-3.87l0.42-1.03
		c0.46-1.11,0.86-2.12,1.23-3.03c3.11-7.74,3.11-7.74,10.79-10.99c0.9-0.38,1.89-0.8,3-1.28l2.93-1.27l-2.96-1.21
		c-1.11-0.46-2.12-0.86-3.02-1.23c-7.74-3.11-7.74-3.11-11-10.79c-0.15-0.36-0.31-0.73-0.47-1.11c0.25-0.63,0.49-1.22,0.72-1.78
		c3.11-7.73,3.11-7.73,10.79-10.99c0.9-0.38,1.89-0.8,3-1.28l2.93-1.27l-2.96-1.21c-1.11-0.46-2.12-0.86-3.02-1.23
		c-7.74-3.11-7.74-3.11-11-10.79c-0.38-0.9-0.8-1.89-1.28-3l-0.13-0.29V40.47h-1.94v23.97l-0.42,1.03
		c-0.46,1.11-0.86,2.12-1.22,3.02c-3.12,7.74-3.12,7.74-10.8,11c-0.89,0.38-1.89,0.8-3,1.28l-2.93,1.28l2.96,1.21
		c1.11,0.46,2.12,0.86,3.02,1.22c7.74,3.12,7.74,3.12,11,10.79c0.15,0.36,0.31,0.73,0.48,1.12c-0.26,0.63-0.5,1.22-0.72,1.77
		c-3.12,7.74-3.12,7.74-10.8,11c-0.89,0.38-1.89,0.8-3,1.28l-2.93,1.28l2.96,1.21c1.11,0.46,2.12,0.86,3.02,1.22
		c7.74,3.12,7.74,3.12,11,10.79c0.38,0.9,0.8,1.9,1.28,3l0.12,0.27v4.63c-1.32,7.7-3.89,14.98-7.51,21.61
		c-6.45,11.83-16.2,21.59-28.02,28.06c-0.02,0.01-0.04,0.02-0.05,0.03c-8.92,4.88-19.01,7.87-29.73,8.45
		c-0.06,0-0.12,0.01-0.18,0.01c1.35,0.07,2.69,0.17,4.02,0.31c1.26,0.14,2.51,0.31,3.75,0.51c1.02,0.17,2.02,0.36,3.02,0.58
		c0.33,0.07,0.66,0.14,0.98,0.22c0.36,0.08,0.72,0.17,1.08,0.26c19.01,4.65,35,17.08,44.4,33.71c-1.12,2.42-2.15,4.89-3.04,7.41
		c-1.94,5.46-3.35,11.13-4.15,16.95c0,0.03-0.01,0.06-0.01,0.09c-0.44,3.23-0.69,6.5-0.75,9.78c-5.97-1.46-11.65-3.68-16.92-6.57
		c-0.04-0.03-0.08-0.04-0.13-0.07c-11.75-6.47-21.47-16.21-27.89-27.99c-5.09-9.32-8.12-19.91-8.48-31.16
		c-0.31,9.5-2.52,18.53-6.26,26.72c-0.68,1.51-1.43,2.99-2.22,4.44c-2.59,4.74-5.71,9.16-9.28,13.16
		c-5.32,5.98-11.66,11.03-18.74,14.91c-6.89,3.78-14.48,6.42-22.52,7.7h-6.09c-10.52-4.31-9.21-3.35-14.23-15.1
		c-4.62,11.1-3.74,10.89-12.38,14.5c-8.97-3.66-8.01-3.32-12.78-14.5c-4.86,11.68-3.63,10.83-13.78,15.1h-14.96v1.93h15.56
		c9.54,3.9,8.46,3.33,13.33,14.73c4.62-11.1,3.74-10.89,12.38-14.5c8.97,3.66,8.01,3.32,12.78,14.5
		c4.71-11.33,3.7-10.87,12.91-14.73h9.25v-0.02c7.31,1.38,14.22,3.89,20.54,7.36c11.82,6.47,21.57,16.24,28.02,28.06
		c5.09,9.32,8.12,19.9,8.48,31.16c0.36-11.25,3.4-21.84,8.48-31.16c3.86-7.08,8.91-13.43,14.89-18.77
		c-4.65-2.48-9.09-5.33-13.26-8.49c-3.72,3.68-7.11,7.69-10.11,12.01c-5.77-8.29-12.98-15.51-21.27-21.29c4.3-3,8.32-6.39,12-10.12
		c3.25-3.3,6.23-6.87,8.9-10.66c6.23,8.95,14.12,16.65,23.21,22.65c4.83,3.2,10.01,5.92,15.46,8.09c0.03,0.01,0.05,0.03,0.08,0.04
		c5.22,2.07,10.69,3.64,16.34,4.64c1.48,0.27,2.98,0.49,4.49,0.67c3.73,0.47,7.53,0.69,11.37,0.66c-0.92-3.84-1.48-7.67-1.74-11.49
		c-0.09-1.27-0.13-2.53-0.15-3.79c-0.06-4.3,0.28-8.56,1-12.72c0.5,3.37,0.76,6.8,0.76,10.3c0,0.51-0.01,1.02-0.03,1.54
		c0.09-0.01,0.17-0.01,0.26,0c2.52,0.02,5,0.17,7.44,0.45c0.58-0.06,1.16-0.14,1.73-0.22c1.13,5.19,2.72,10.2,4.75,14.99
		c0.01,0.03,0.03,0.05,0.04,0.08c-0.03,0.06-0.06,0.13-0.1,0.19c-4.46,8.18-10.51,15.37-17.72,21.17c-2.57,1.93-5.27,3.7-8.12,5.28
		c-0.32,0.18-0.65,0.36-0.97,0.54c-0.3,0.15-0.59,0.31-0.89,0.46c-0.91,0.47-1.83,0.92-2.77,1.35c-1.14,0.52-2.3,1.02-3.49,1.47
		c-1.18,0.48-2.39,0.92-3.61,1.31c1.26-0.27,2.52-0.5,3.77-0.7c-7.48,3.25-15.64,5.23-24.19,5.66c10.81,0.55,20.98,3.56,29.97,8.48
		c11.81,6.47,21.57,16.24,28.02,28.06c3.63,6.65,6.21,13.96,7.53,21.69v5.25l-0.24,0.59c-0.46,1.11-0.86,2.12-1.22,3.03
		c-3.12,7.73-3.12,7.73-10.8,10.99c-0.89,0.38-1.89,0.8-3,1.28l-2.93,1.27l2.96,1.21c1.11,0.46,2.12,0.86,3.02,1.23
		c7.74,3.11,7.74,3.11,11,10.79c0.36,0.86,0.76,1.81,1.22,2.88V449h1.93v-36.1l0.61-1.49c0.46-1.11,0.86-2.12,1.23-3.03
		c3.11-7.73,3.11-7.73,10.79-10.99c0.9-0.38,1.89-0.8,3-1.28l2.93-1.28l-2.96-1.21c-1.11-0.46-2.12-0.86-3.02-1.22
		c-7.74-3.12-7.74-3.12-11-10.79c-0.38-0.9-0.8-1.9-1.28-3l-0.31-0.73v-5.09h-0.02c1.31-7.73,3.89-15.04,7.53-21.69
		c6.45-11.83,16.2-21.59,28.02-28.06c0.02-0.01,0.04-0.02,0.05-0.03c8.92-4.88,19.01-7.87,29.73-8.45c0.06,0,0.12-0.01,0.18-0.01
		c-1.35-0.07-2.69-0.17-4.02-0.31c-1.26-0.14-2.51-0.31-3.75-0.51c-1.02-0.17-2.02-0.36-3.02-0.58c-0.33-0.07-0.66-0.14-0.98-0.22
		c-0.36-0.08-0.72-0.17-1.08-0.26c-19.01-4.65-35-17.08-44.4-33.71c1.12-2.42,2.15-4.89,3.04-7.41c1.94-5.46,3.35-11.13,4.15-16.95
		c0-0.03,0.01-0.06,0.01-0.09c0.44-3.23,0.69-6.5,0.75-9.78c5.97,1.46,11.65,3.68,16.92,6.57c0.04,0.03,0.08,0.04,0.13,0.07
		c11.75,6.47,21.47,16.21,27.89,27.99c5.09,9.32,8.12,19.91,8.48,31.16c0.31-9.5,2.52-18.53,6.26-26.72
		c0.68-1.51,1.43-2.99,2.22-4.44c2.59-4.74,5.71-9.16,9.28-13.16c5.32-5.98,11.66-11.03,18.74-14.91
		c6.77-3.71,14.22-6.33,22.11-7.64h3.66c9.73,3.92,8.6,3.29,13.55,14.73c4.64-11.29,3.66-10.89,12.7-14.73h41.13v-1.93H573.59z
		 M378.23,81.98c-0.01,0-0.01,0-0.02-0.01C378.22,81.97,378.22,81.97,378.23,81.98c7.78-3.32,8.66-3.8,11.39-10.37
		c0.26-0.64,0.55-1.34,0.85-2.1c0-0.01,0-0.01,0-0.02c0.01,0.01,0.01,0.01,0.01,0.02c0.4,0.93,0.75,1.75,1.08,2.5
		c2.7,6.13,3.71,6.65,11.39,9.74c0,0,0,0.01-0.01,0.01c-7.78,3.3-8.66,3.78-11.39,10.36c-0.18,0.44-0.37,0.9-0.58,1.4l-0.58-1.33
		l-0.29,0.69c-0.17-0.41-0.34-0.79-0.5-1.16C386.92,85.59,385.91,85.07,378.23,81.98z M378.23,111.65c-0.01,0-0.01,0-0.02-0.01
		C378.22,111.64,378.22,111.64,378.23,111.65c7.78-3.32,8.66-3.8,11.39-10.37c0.18-0.44,0.37-0.91,0.58-1.41l0.58,1.34l0.29-0.7
		c0.17,0.41,0.34,0.8,0.5,1.17c2.7,6.13,3.71,6.65,11.39,9.74c0,0,0,0.01-0.01,0.01c-7.78,3.3-8.66,3.78-11.39,10.36
		c-0.26,0.64-0.55,1.34-0.85,2.1c0,0.01,0,0.01,0,0.02c-0.01-0.01-0.01-0.01-0.01-0.02c-0.03-0.07-0.06-0.14-0.09-0.21
		c-0.01-0.13-0.01-0.27-0.02-0.4c0,0.11-0.01,0.21-0.02,0.32c-0.34-0.81-0.66-1.55-0.96-2.21
		C386.92,115.25,385.91,114.74,378.23,111.65z M390.18,211.72c-5.7-8.06-12.77-15.08-20.86-20.73c8.28-5.78,15.5-12.99,21.27-21.29
		c5.77,8.29,12.98,15.51,21.27,21.29c-2.08,1.45-4.08,2.98-6.02,4.61c-0.03-0.01-0.07-0.01-0.1-0.02
		C399.82,200.27,394.61,205.72,390.18,211.72z M413.98,384.73c2.85,6.53,3.72,7.01,11.58,10.17c0,0,0,0,0.01,0
		c-0.01,0.01-0.01,0.01-0.01,0.01c-7.96,3.38-8.71,3.81-11.58,10.82c-0.21,0.51-0.43,1.06-0.66,1.64c0,0.01,0,0.01,0,0.02
		c-0.01-0.01-0.01-0.01-0.01-0.02c-0.47-1.1-0.87-2.07-1.26-2.91c-2.56-5.74-3.7-6.31-11.21-9.33c-0.01,0-0.01,0-0.02,0
		c0.01,0,0.01-0.01,0.02-0.01c7.6-3.23,8.62-3.77,11.21-9.93c0.31-0.75,0.66-1.59,1.03-2.53c0-0.01,0-0.01,0-0.02
		c0.01,0.01,0.01,0.01,0.01,0.02C413.42,383.42,413.7,384.1,413.98,384.73z M434.28,314.55c-8.28,5.78-15.5,12.99-21.27,21.29
		c-5.77-8.29-12.98-15.51-21.27-21.29c2.08-1.45,4.08-2.98,6.02-4.61c0.03,0.01,0.07,0.01,0.1,0.02
		c5.92-4.69,11.13-10.14,15.56-16.14C419.12,301.88,426.18,308.91,434.28,314.55z"/>
	<g id="XMLID_472_" class="st1">
		<path fill="#000000" id="XMLID_428_" d="M413.92,254.87c0,0-2.21,10.85-9.3,22.95c-1.79-4.59-3.73-10.35-4.39-13.33
			c-0.66-2.98,12.69-21.46,12.69-21.46S413.71,253.57,413.92,254.87z"/>
		<path fill="#000000" id="XMLID_427_" d="M422.23,279c0,0-3.74,8.61-8.81,14.84c4.9,6.27,6.38,7.71,8.15,9.67c1.76,1.96,10.43-11.2,10.43-11.2
			S424.68,283.74,422.23,279z"/>
		<path fill="#000000" id="XMLID_426_" d="M390.18,211.7c0,0,4.93,7.08,8.89,15.84c3.23-5.33,7.11-10.8,10.33-14.31s-7.55-14.37-7.55-14.37
			S394.05,205.99,390.18,211.7z"/>
		<path fill="#000000" id="XMLID_422_" d="M381.37,226.54c0,0,7.37,11.06,8.31,24.13c-0.84,7.02-1.05,10.76-1,12.73
			c0.05,1.96-13.13-19.89-13.13-19.89S379.28,228.89,381.37,226.54z"/>
	</g>
</g>
<path fill="#000000" d="M273.602,481.306c-0.578-0.576-1.301-1.03-2.174-1.362c-0.873-0.331-1.885-0.497-3.039-0.497
	c-0.663,0-1.463,0.079-2.4,0.238v-6.077h-1.535v17.711c0.706,0.202,1.402,0.354,2.087,0.454s1.301,0.151,1.849,0.151
	c1.153,0,2.166-0.162,3.039-0.486s1.596-0.764,2.174-1.319c0.576-0.555,1.006-1.211,1.287-1.968s0.42-1.561,0.42-2.411
	s-0.139-1.657-0.42-2.422C274.608,482.554,274.178,481.883,273.602,481.306z M272.391,489.167c-0.852,0.829-2.17,1.243-3.958,1.243
	c-0.39,0-0.805-0.032-1.244-0.097c-0.439-0.065-0.84-0.134-1.2-0.206v-8.845c0.447-0.115,0.887-0.194,1.319-0.237
	c0.433-0.044,0.808-0.065,1.125-0.065c0.894,0,1.668,0.112,2.325,0.335c0.656,0.224,1.199,0.545,1.633,0.963
	c0.432,0.418,0.752,0.919,0.961,1.503s0.314,1.243,0.314,1.979C273.667,487.195,273.241,488.338,272.391,489.167z M247.392,479.446
	c-0.62,0-1.297,0.079-2.033,0.238c-0.735,0.158-1.485,0.433-2.249,0.821l-0.065,1.73c0.548-0.303,0.973-0.52,1.276-0.649
	s0.624-0.237,0.962-0.324c0.338-0.086,0.677-0.158,1.016-0.216s0.667-0.087,0.984-0.087c1.139,0,1.982,0.249,2.53,0.746
	s0.822,1.33,0.822,2.498v0.13c-0.332-0.044-0.732-0.087-1.2-0.13c-0.469-0.043-0.876-0.065-1.222-0.065
	c-1.831,0-3.302,0.311-4.412,0.931c-1.11,0.619-1.665,1.644-1.665,3.07c0,0.707,0.155,1.305,0.465,1.795
	c0.31,0.49,0.713,0.88,1.211,1.168s1.067,0.497,1.708,0.627c0.641,0.13,1.308,0.194,2,0.194c0.807,0,1.6-0.072,2.378-0.216
	c0.779-0.145,1.536-0.368,2.271-0.671v-7.028c0-1.585-0.397-2.742-1.189-3.471C250.189,479.811,248.992,479.446,247.392,479.446z
	 M250.636,489.892c-0.375,0.144-0.858,0.267-1.449,0.367c-0.591,0.102-1.183,0.151-1.773,0.151c-0.505,0-0.984-0.035-1.438-0.108
	c-0.454-0.071-0.84-0.197-1.157-0.378c-0.317-0.18-0.57-0.414-0.757-0.703c-0.188-0.288-0.281-0.663-0.281-1.124
	c0-0.52,0.111-0.934,0.335-1.244c0.224-0.31,0.533-0.551,0.93-0.724c0.396-0.174,0.85-0.296,1.362-0.368
	c0.511-0.072,1.041-0.108,1.589-0.108c0.476,0,0.984,0.029,1.524,0.087c0.541,0.058,0.912,0.108,1.114,0.151V489.892z
	 M258.032,479.868c-0.649,0.122-1.276,0.263-1.881,0.422v11.418h1.535v-10.186c0.202-0.072,0.563-0.147,1.082-0.228
	c0.519-0.079,1.002-0.118,1.449-0.118h1.989v-1.492H260C259.336,479.685,258.681,479.746,258.032,479.868z M-77.92,487.667
	l241.145,0.656l0.663-0.433l-0.632-0.564L-77.92,487.667z M164.994,487.825l1.95,1.95l1.95-1.95l-1.95-1.95L164.994,487.825z
	 M169.559,487.825l3.057,3.057l3.057-3.057l-3.057-3.057L169.559,487.825z M212.359,489.286l-3.395-9.602h-1.514l-3.396,9.602
	l-2.984-9.602h-1.73l3.979,12.023h1.428l3.46-9.645l3.46,9.645h1.427l3.979-12.023h-1.73L212.359,489.286z M238.418,489.589
	c-0.317,0-0.591,0.115-0.822,0.346c-0.231,0.23-0.346,0.505-0.346,0.822c0,0.316,0.115,0.591,0.346,0.821
	c0.23,0.23,0.504,0.346,0.822,0.346c0.317,0,0.591-0.115,0.822-0.346c0.23-0.23,0.346-0.505,0.346-0.821
	c0-0.317-0.116-0.592-0.346-0.822C239.009,489.704,238.735,489.589,238.418,489.589z M193.243,489.286l-3.395-9.602h-1.514
	l-3.396,9.602l-2.984-9.602h-1.73l3.979,12.023h1.428l3.46-9.645l3.46,9.645h1.427l3.979-12.023h-1.73L193.243,489.286z
	 M231.476,489.286l-3.395-9.602h-1.514l-3.396,9.602l-2.984-9.602h-1.73l3.979,12.023h1.428l3.46-9.645l3.46,9.645h1.427
	l3.979-12.023h-1.73L231.476,489.286z M382.732,480.474c-0.426-0.396-0.938-0.667-1.535-0.812c-0.598-0.144-1.271-0.216-2.021-0.216
	c-0.664,0-1.393,0.09-2.184,0.271c-0.793,0.181-1.471,0.4-2.033,0.659c-0.346-0.331-0.818-0.569-1.416-0.714
	c-0.6-0.144-1.273-0.216-2.023-0.216c-0.635,0-1.268,0.058-1.902,0.173l-2.465,0.454v11.635h1.535v-10.38
	c0.447-0.102,0.883-0.188,1.309-0.26c0.424-0.072,0.896-0.108,1.416-0.108c0.605,0,1.125,0.058,1.557,0.173
	c0.434,0.116,0.789,0.321,1.07,0.616c0.281,0.296,0.494,0.711,0.639,1.244s0.217,1.24,0.217,2.119v6.596h1.535v-7.201
	c0-0.663-0.055-1.243-0.162-1.741c-0.109-0.497-0.213-0.861-0.314-1.092c0.086-0.043,0.281-0.119,0.584-0.228
	c0.303-0.107,0.602-0.197,0.898-0.27c0.295-0.072,0.586-0.126,0.875-0.162s0.547-0.055,0.779-0.055c0.59,0,1.102,0.058,1.535,0.173
	c0.432,0.116,0.781,0.317,1.049,0.605c0.266,0.289,0.471,0.703,0.615,1.244c0.145,0.54,0.217,1.251,0.217,2.13v6.596h1.535v-7.201
	c0-0.995-0.111-1.816-0.336-2.466C383.482,481.393,383.158,480.87,382.732,480.474z M280.1,474.581
	c-0.785,0.648-1.18,1.729-1.18,3.243v1.86h-2.551v1.492h2.551v10.531h1.537v-10.531h4.973v-1.492h-4.973v-1.471
	c0-0.635,0.045-1.149,0.141-1.546c0.094-0.396,0.24-0.707,0.443-0.931c0.201-0.223,0.475-0.385,0.82-0.486
	c0.346-0.101,0.779-0.151,1.299-0.151h2.422v-1.492h-2.271C281.956,473.607,280.885,473.932,280.1,474.581z M398.273,487.825
	l3.057,3.057l3.057-3.057l-3.057-3.057L398.273,487.825z M343.322,482.322c0.389-0.418,0.854-0.749,1.395-0.994
	s1.135-0.368,1.783-0.368c0.736,0,1.373,0.076,1.914,0.228s1.121,0.414,1.74,0.789l0.715-1.405c-0.707-0.39-1.393-0.674-2.055-0.854
	c-0.664-0.181-1.436-0.271-2.314-0.271c-0.85,0-1.639,0.155-2.367,0.465c-0.729,0.311-1.367,0.746-1.914,1.309
	c-0.549,0.563-0.98,1.222-1.297,1.979c-0.317,0.757-0.476,1.59-0.476,2.498s0.158,1.74,0.476,2.497
	c0.316,0.757,0.748,1.413,1.297,1.969c0.547,0.555,1.186,0.987,1.914,1.297c0.729,0.311,1.518,0.465,2.367,0.465
	c0.879,0,1.65-0.09,2.314-0.27c0.662-0.181,1.348-0.466,2.055-0.854l-0.715-1.406c-0.619,0.375-1.199,0.639-1.74,0.79
	s-1.178,0.227-1.914,0.227c-0.648,0-1.242-0.119-1.783-0.356c-0.541-0.238-1.006-0.565-1.395-0.984
	c-0.391-0.418-0.693-0.915-0.908-1.492c-0.217-0.576-0.324-1.203-0.324-1.881s0.107-1.305,0.324-1.882
	C342.628,483.238,342.931,482.741,343.322,482.322z M404.387,487.825l1.949,1.95l1.951-1.95l-1.951-1.95L404.387,487.825z
	 M410.701,487.326l-0.664,0.433l0.633,0.564l241.176-0.341L410.701,487.326z M362.611,481.295c-0.549-0.569-1.193-1.02-1.936-1.352
	c-0.742-0.331-1.547-0.497-2.412-0.497c-0.863,0-1.668,0.166-2.41,0.497c-0.742,0.332-1.389,0.782-1.936,1.352
	c-0.549,0.57-0.977,1.229-1.287,1.979c-0.311,0.749-0.465,1.557-0.465,2.422s0.154,1.672,0.465,2.422s0.738,1.409,1.287,1.979
	c0.547,0.569,1.193,1.017,1.936,1.341s1.547,0.486,2.41,0.486c0.865,0,1.67-0.162,2.412-0.486s1.387-0.771,1.936-1.341
	c0.547-0.569,0.977-1.229,1.287-1.979c0.309-0.75,0.465-1.557,0.465-2.422s-0.156-1.673-0.465-2.422
	C363.587,482.524,363.158,481.865,362.611,481.295z M362.394,487.523c-0.217,0.569-0.52,1.067-0.908,1.492
	c-0.389,0.426-0.857,0.765-1.406,1.017c-0.547,0.252-1.152,0.378-1.816,0.378c-0.662,0-1.268-0.126-1.816-0.378
	c-0.547-0.252-1.016-0.591-1.404-1.017c-0.391-0.425-0.693-0.923-0.908-1.492c-0.217-0.569-0.324-1.179-0.324-1.827
	c0-0.649,0.107-1.262,0.324-1.839c0.215-0.576,0.518-1.077,0.908-1.503c0.389-0.425,0.857-0.764,1.404-1.016
	c0.549-0.252,1.154-0.379,1.816-0.379c0.664,0,1.27,0.127,1.816,0.379c0.549,0.252,1.018,0.591,1.406,1.016
	c0.389,0.426,0.691,0.927,0.908,1.503c0.217,0.577,0.324,1.189,0.324,1.839C362.718,486.345,362.611,486.954,362.394,487.523z
	 M296.221,481.295c-0.547-0.569-1.191-1.02-1.936-1.352c-0.742-0.331-1.545-0.497-2.41-0.497s-1.67,0.166-2.412,0.497
	c-0.742,0.332-1.387,0.782-1.936,1.352c-0.547,0.57-0.977,1.229-1.285,1.979c-0.311,0.749-0.465,1.557-0.465,2.422
	s0.154,1.672,0.465,2.422c0.309,0.75,0.738,1.409,1.285,1.979c0.549,0.569,1.193,1.017,1.936,1.341s1.547,0.486,2.412,0.486
	s1.668-0.162,2.41-0.486c0.744-0.324,1.389-0.771,1.936-1.341c0.549-0.569,0.977-1.229,1.287-1.979s0.465-1.557,0.465-2.422
	s-0.154-1.673-0.465-2.422C297.198,482.524,296.77,481.865,296.221,481.295z M296.006,487.523c-0.217,0.569-0.52,1.067-0.908,1.492
	c-0.391,0.426-0.859,0.765-1.406,1.017c-0.549,0.252-1.154,0.378-1.816,0.378c-0.664,0-1.27-0.126-1.816-0.378
	c-0.549-0.252-1.018-0.591-1.406-1.017c-0.389-0.425-0.691-0.923-0.908-1.492s-0.324-1.179-0.324-1.827
	c0-0.649,0.107-1.262,0.324-1.839c0.217-0.576,0.52-1.077,0.908-1.503c0.389-0.425,0.857-0.764,1.406-1.016
	c0.547-0.252,1.152-0.379,1.816-0.379c0.662,0,1.268,0.127,1.816,0.379c0.547,0.252,1.016,0.591,1.406,1.016
	c0.389,0.426,0.691,0.927,0.908,1.503c0.215,0.577,0.324,1.189,0.324,1.839C296.331,486.345,296.221,486.954,296.006,487.523z
	 M309.381,480.463c-0.455-0.39-0.996-0.656-1.623-0.801c-0.627-0.144-1.309-0.216-2.043-0.216c-0.707,0-1.465,0.047-2.271,0.141
	s-1.701,0.234-2.682,0.422v11.699h1.535v-10.402c1.184-0.23,2.293-0.346,3.33-0.346c0.592,0,1.111,0.062,1.559,0.184
	c0.445,0.123,0.818,0.332,1.113,0.628c0.295,0.295,0.525,0.713,0.691,1.254s0.25,1.251,0.25,2.13v6.553h1.535v-7.201
	c0-0.995-0.119-1.82-0.357-2.477C310.18,481.375,309.834,480.852,309.381,480.463z M318.516,490.054
	c-0.346-0.108-0.619-0.277-0.82-0.509c-0.203-0.23-0.35-0.547-0.443-0.951c-0.096-0.403-0.141-0.922-0.141-1.557v-5.86h4.973v-1.492
	h-4.973v-4.347h-1.537v4.347h-2.551v1.492h2.551v6.466c0,0.764,0.109,1.405,0.326,1.925c0.215,0.519,0.525,0.937,0.93,1.254
	c0.402,0.317,0.867,0.544,1.395,0.682c0.525,0.137,1.105,0.205,1.74,0.205h2.271v-1.492h-2.422
	C319.295,490.216,318.862,490.162,318.516,490.054z M337.784,489.589c-0.316,0-0.59,0.115-0.82,0.346s-0.346,0.505-0.346,0.822
	c0,0.316,0.115,0.591,0.346,0.821s0.504,0.346,0.82,0.346c0.318,0,0.592-0.115,0.822-0.346s0.346-0.505,0.346-0.821
	c0-0.317-0.115-0.592-0.346-0.822S338.102,489.589,337.784,489.589z M333.178,486.106c-0.346-0.303-0.785-0.565-1.318-0.789
	c-0.533-0.223-1.182-0.422-1.947-0.595l-0.799-0.173c-1.053-0.216-1.781-0.461-2.184-0.735c-0.404-0.273-0.607-0.678-0.607-1.211
	c0-0.504,0.238-0.904,0.715-1.2c0.475-0.295,1.174-0.443,2.098-0.443c0.793,0,1.477,0.076,2.055,0.228
	c0.576,0.151,1.217,0.421,1.924,0.811l0.691-1.405c-1.412-0.765-2.969-1.146-4.67-1.146c-0.635,0-1.223,0.076-1.764,0.228
	c-0.539,0.151-1.008,0.364-1.404,0.638s-0.711,0.605-0.941,0.994c-0.23,0.39-0.346,0.815-0.346,1.276
	c0,0.462,0.072,0.88,0.217,1.254c0.143,0.375,0.381,0.707,0.713,0.995s0.758,0.537,1.275,0.746c0.52,0.209,1.146,0.4,1.883,0.573
	l0.908,0.194c1.008,0.217,1.729,0.49,2.162,0.822c0.432,0.331,0.648,0.771,0.648,1.318c0,0.39-0.086,0.707-0.26,0.952
	c-0.172,0.245-0.414,0.436-0.725,0.573c-0.311,0.137-0.678,0.237-1.102,0.303c-0.426,0.064-0.877,0.097-1.352,0.097
	c-0.592,0-1.223-0.09-1.893-0.271c-0.67-0.18-1.352-0.479-2.045-0.897l-0.734,1.471c0.779,0.433,1.539,0.742,2.281,0.93
	s1.539,0.281,2.391,0.281c0.748,0,1.434-0.072,2.053-0.216c0.621-0.145,1.158-0.36,1.611-0.648c0.455-0.289,0.805-0.649,1.049-1.082
	c0.246-0.433,0.369-0.93,0.369-1.492c0-0.476-0.072-0.915-0.217-1.318C333.77,486.763,333.526,486.41,333.178,486.106z"/>
</svg>

