<?xml version="1.0" encoding="utf-8"?>
<!-- Generator: Adobe Illustrator 23.0.0, SVG Export Plug-In . SVG Version: 6.00 Build 0)  -->
<svg version="1.1" id="Layer_1" xmlns="http://www.w3.org/2000/svg" xmlns:xlink="http://www.w3.org/1999/xlink" x="0px" y="0px"
	 viewBox="0 0 800 500"  xml:space="preserve">

<path fill="#000000" id="XMLID_935_" class="st0" d="M258.58,120.96V67.61h-2.36v53.35l-9.58,9.57l9.58,9.58v58.78h2.36V140.1l9.57-9.58
	L258.58,120.96z M257.4,137.53l-1.18-1.18l-5.82-5.82l5.82-5.82l1.18-1.18l1.18,1.18l5.82,5.82l-5.82,5.82L257.4,137.53z"/>
<path fill="#000000" id="XMLID_932_" class="st0" d="M256.2,428v26.9h2.36V428l9.58-9.57l-9.58-9.58v-58.78h-2.36v58.78l-9.57,9.58L256.2,428z
	 M257.38,411.43l1.18,1.18l5.82,5.82l-5.82,5.82l-1.18,1.18l-1.18-1.18l-5.82-5.82l5.82-5.82L257.38,411.43z"/>
<g id="XMLID_423_">
	<g id="XMLID_445_">
		<path fill="#000000" id="XMLID_491_" d="M427.14,153.51l13.32-13.32l-0.92-0.92c-3.96-6.67-9.58-12.29-16.25-16.25l-0.6-0.6l-11.45,11.45
			l-5.14-5.14l11.45-11.45l-15.73-15.73l-2.04-2.38l-2.02,2.36l-15.75,15.75l6.32,6.32l11.45-11.45l5.14,5.14l-11.45,11.45
			l21.62,21.62c2.85,3.5,4.41,7.91,4.41,12.41c0,6.61-3.28,12.71-8.79,16.4l-5.23-5.23c2.36-1.21,4.3-3.16,5.5-5.54
			c0.89-1.77,1.34-3.66,1.34-5.62c0-1.78-0.38-3.52-1.13-5.17c-0.31-0.69-0.67-1.33-1.07-1.91c-0.89-1.29-1.99-2.4-3.22-3.23
			l-7.13-7.13l-7.07,7.08c-1.29,0.89-2.4,1.99-3.28,3.28c-0.39,0.58-0.75,1.22-1.07,1.91c-0.75,1.64-1.13,3.38-1.13,5.17
			c0,1.96,0.45,3.85,1.34,5.62c1.2,2.38,3.14,4.33,5.5,5.54l-0.61,0.61l-4.62,4.62c-5.51-3.68-8.78-9.79-8.78-16.42
			c0-0.46,0.02-0.96,0.07-1.53l0.03-0.32c0.05-0.48,0.11-0.96,0.19-1.44l0.07-0.35c0.08-0.43,0.18-0.87,0.29-1.29l0.09-0.31
			c0.11-0.39,0.23-0.78,0.36-1.16l0.03-0.09c0.04-0.13,0.09-0.26,0.14-0.38c0.14-0.38,0.3-0.75,0.46-1.12
			c0.09-0.19,0.18-0.38,0.27-0.57c0.11-0.22,0.22-0.44,0.34-0.65c0.19-0.35,0.38-0.69,0.58-1.02c0.08-0.14,0.17-0.28,0.26-0.41
			c0.42-0.65,0.89-1.29,1.38-1.88l10.04-10.04l-17.77-17.77l-0.6,0.6c-6.67,3.96-12.29,9.57-16.25,16.25l-0.92,0.92l13.32,13.32
			c-1.01,2.99-1.53,6.1-1.53,9.25l-0.34,0.34l0.35,0.35c0.07,3.21,0.67,6.35,1.77,9.32c0.99,2.68,2.38,5.2,4.13,7.49
			c1.67,2.19,3.64,4.13,5.86,5.76c2.32,1.71,4.88,3.06,7.6,4.02l0.25,0.09l9.26-9.26l9.26,9.26l0.25-0.09
			c2.72-0.95,5.28-2.3,7.6-4.02c2.21-1.63,4.18-3.57,5.86-5.76c1.75-2.29,3.14-4.81,4.13-7.49c1.1-2.97,1.7-6.11,1.77-9.32
			l0.35-0.35l-0.34-0.34C428.67,159.61,428.16,156.5,427.14,153.51z M380.88,140.97c-0.32,0.27-0.62,0.56-0.97,0.89l-0.2,0.19
			c-0.13,0.12-0.26,0.24-0.39,0.37c-0.35,0.35-0.67,0.71-1,1.08l-0.17,0.19c-0.09,0.1-0.18,0.2-0.27,0.3
			c-0.37,0.43-0.72,0.86-1.04,1.29l-5.8-5.8c1.54-1.89,3.25-3.63,5.1-5.17l5.8,5.8c-0.04,0.03-0.08,0.07-0.12,0.1l-0.46,0.37
			C381.19,140.71,381.04,140.84,380.88,140.97z M393.39,185.33L393.39,185.33L393.39,185.33L393.39,185.33L393.39,185.33z
			 M428.54,139.48l-5.8,5.8c-1.48-1.93-3.19-3.67-5.1-5.18l5.79-5.79C425.29,135.85,427.01,137.59,428.54,139.48z M403.17,162.77
			c0,0.8-0.36,1.9-1.02,3.09l-2.37,2.37l-2.03-2.03c-1.26-1.13-1.35-3.41-1.35-3.43c0-1.87,1.52-3.39,3.39-3.39
			C401.65,159.39,403.17,160.91,403.17,162.77z"/>
		<path fill="#000000" id="XMLID_485_" d="M470.4,224.72l16.78,8.56l0.59-1.16c5.12-5.82,8.73-12.9,10.44-20.47l0.38-0.75l-14.43-7.36l3.3-6.47
			l14.43,7.36L512,184.6l1.63-2.68l-2.86-1.19l-19.84-10.12l-4.06,7.96l14.43,7.36l-3.3,6.47l-14.43-7.36l-13.89,27.24
			c-2.45,3.79-6.16,6.64-10.45,8.03c-6.29,2.04-13.1,0.81-18.31-3.3l3.36-6.59c1.88,1.87,4.34,3.12,6.97,3.52
			c1.96,0.3,3.9,0.15,5.76-0.46c1.7-0.55,3.23-1.45,4.57-2.67c0.56-0.51,1.06-1.05,1.49-1.6c0.96-1.24,1.67-2.63,2.08-4.07
			l4.58-8.99l-8.92-4.54c-1.24-0.96-2.63-1.67-4.14-2.11c-0.67-0.2-1.39-0.34-2.14-0.43c-1.79-0.2-3.57-0.03-5.26,0.52
			c-1.86,0.6-3.52,1.62-4.93,3.01c-1.9,1.88-3.15,4.32-3.58,6.95l-0.77-0.39l-5.82-2.97c1.8-6.37,6.6-11.38,12.91-13.42
			c0.44-0.14,0.92-0.28,1.48-0.41l0.31-0.07c0.47-0.11,0.95-0.19,1.42-0.26l0.35-0.05c0.44-0.06,0.88-0.1,1.31-0.13l0.32-0.02
			c0.41-0.02,0.81-0.02,1.22-0.01l0.1,0c0.14,0,0.27,0.01,0.41,0.01c0.4,0.02,0.81,0.05,1.21,0.09c0.21,0.02,0.42,0.05,0.63,0.08
			c0.24,0.03,0.48,0.08,0.72,0.12c0.39,0.07,0.77,0.15,1.15,0.24c0.16,0.04,0.31,0.08,0.47,0.12c0.74,0.2,1.5,0.45,2.21,0.74
			l12.64,6.45l11.42-22.38l-0.75-0.38c-5.82-5.12-12.9-8.73-20.47-10.44l-1.16-0.59l-8.56,16.78c-3.15-0.04-6.27,0.43-9.27,1.4
			l-0.42-0.22l-0.23,0.44c-3.03,1.06-5.83,2.6-8.32,4.56c-2.24,1.77-4.21,3.87-5.85,6.24c-1.57,2.27-2.8,4.74-3.67,7.35
			c-0.91,2.74-1.41,5.59-1.47,8.47l-0.01,0.26l11.67,5.95l-5.95,11.67l0.16,0.21c1.75,2.3,3.82,4.31,6.17,5.99
			c2.24,1.6,4.69,2.88,7.29,3.79c2.72,0.96,5.55,1.5,8.4,1.62c3.17,0.13,6.33-0.27,9.41-1.19l0.44,0.23l0.22-0.42
			C465.07,228.05,467.87,226.6,470.4,224.72z M468.05,176.84c-0.36-0.22-0.72-0.41-1.15-0.64l-0.24-0.13
			c-0.16-0.09-0.31-0.17-0.47-0.26c-0.44-0.22-0.89-0.42-1.33-0.62l-0.23-0.11c-0.12-0.06-0.24-0.11-0.37-0.17
			c-0.52-0.22-1.04-0.42-1.55-0.6l3.72-7.3c2.27,0.88,4.46,1.97,6.49,3.26l-3.73,7.3c-0.04-0.03-0.09-0.06-0.13-0.08l-0.5-0.32
			C468.4,177.06,468.23,176.95,468.05,176.84z M429.71,202.43L429.71,202.43L429.71,202.43L429.71,202.43L429.71,202.43z
			 M484.18,221.72l-7.3-3.72c1.38-2,2.51-4.16,3.35-6.45l7.3,3.72C486.63,217.51,485.51,219.67,484.18,221.72z M454.19,204.78
			c-0.76,0.25-1.92,0.24-3.26-0.01l-2.98-1.52l1.31-2.56c0.68-1.54,2.83-2.34,2.84-2.35c1.78-0.58,3.69,0.4,4.27,2.18
			C456.94,202.29,455.97,204.2,454.19,204.78z"/>
		<path fill="#000000" id="XMLID_479_" d="M416.02,287.84l-2.96,18.6l1.29,0.21c7.12,3.08,14.97,4.32,22.69,3.61l0.84,0.13l2.55-15.99l7.17,1.14
			l-2.55,15.99l21.96,3.49l3.05,0.73l0.25-3.09l3.5-21.99l-8.82-1.4l-2.55,16l-7.17-1.14l2.55-16l-30.2-4.8
			c-4.36-1.16-8.22-3.81-10.86-7.46c-3.88-5.35-4.81-12.22-2.52-18.43l7.3,1.16c-1.2,2.37-1.63,5.09-1.2,7.72
			c0.32,1.96,1.06,3.75,2.21,5.34c1.05,1.44,2.38,2.63,3.95,3.52c0.66,0.37,1.32,0.68,1.98,0.92c1.48,0.53,3.02,0.77,4.51,0.72
			l9.96,1.59l1.57-9.89c0.53-1.48,0.77-3.02,0.73-4.59c-0.02-0.7-0.11-1.43-0.26-2.17c-0.36-1.77-1.08-3.4-2.12-4.84
			c-1.15-1.58-2.63-2.85-4.39-3.76c-2.37-1.22-5.09-1.66-7.71-1.26l0.14-0.85l1.03-6.45c6.62-0.25,12.86,2.76,16.75,8.13
			c0.27,0.37,0.55,0.79,0.84,1.28l0.17,0.27c0.25,0.42,0.48,0.84,0.69,1.27l0.15,0.32c0.19,0.4,0.37,0.8,0.52,1.21l0.12,0.3
			c0.14,0.38,0.27,0.77,0.39,1.15l0.03,0.09c0.04,0.13,0.08,0.26,0.11,0.39c0.11,0.39,0.2,0.78,0.28,1.18
			c0.04,0.21,0.08,0.41,0.12,0.62c0.04,0.24,0.08,0.48,0.11,0.72c0.05,0.39,0.1,0.78,0.13,1.17c0.01,0.16,0.02,0.32,0.03,0.48
			c0.04,0.77,0.03,1.57-0.02,2.33l-2.23,14.02l24.82,3.95l0.13-0.84c3.07-7.12,4.32-14.96,3.61-22.69l0.21-1.29l-18.6-2.96
			c-0.93-3.01-2.34-5.83-4.19-8.39l0.07-0.47l-0.49-0.08c-1.95-2.56-4.27-4.75-6.9-6.5c-2.37-1.59-4.98-2.81-7.74-3.64
			c-2.64-0.79-5.37-1.2-8.12-1.23c-2.88-0.02-5.75,0.38-8.51,1.21l-0.25,0.07l-2.06,12.94l-12.93-2.06l-0.15,0.22
			c-1.65,2.37-2.92,4.97-3.8,7.72c-0.83,2.62-1.29,5.35-1.36,8.1c-0.07,2.88,0.28,5.74,1.05,8.49c0.86,3.05,2.21,5.94,4.04,8.58
			l-0.08,0.49l0.47,0.08C411.21,283.8,413.45,286.02,416.02,287.84z M460.83,270.83c0.09-0.41,0.17-0.82,0.26-1.29l0.05-0.27
			c0.03-0.18,0.07-0.35,0.1-0.53c0.08-0.48,0.13-0.97,0.18-1.46l0.03-0.25c0.02-0.13,0.03-0.27,0.04-0.4
			c0.05-0.56,0.08-1.12,0.09-1.65l8.1,1.29c-0.13,2.43-0.5,4.85-1.09,7.18l-8.1-1.29c0.01-0.05,0.03-0.1,0.04-0.15l0.15-0.57
			C460.73,271.23,460.79,271.03,460.83,270.83z M424.66,242.26L424.66,242.26L424.66,242.26L424.66,242.26L424.66,242.26z
			 M423.13,300.02l1.29-8.09c2.33,0.7,4.73,1.1,7.17,1.2l-1.29,8.09C427.89,301.05,425.48,300.65,423.13,300.02z M429.99,266.27
			c-0.47-0.65-0.82-1.75-0.99-3.1l0.53-3.31l2.84,0.45c1.68,0.17,3.1,1.97,3.11,1.98c1.1,1.51,0.76,3.63-0.75,4.73
			C433.2,268.12,431.08,267.78,429.99,266.27z"/>
		<path fill="#000000" id="XMLID_473_" d="M339.2,255.6l-18.61,2.92l0.2,1.29c-0.73,7.72,0.51,15.57,3.57,22.7l0.13,0.84l16-2.52l1.13,7.18
			l-16,2.52l3.46,21.97l0.25,3.12l3.02-0.72l22-3.46l-1.39-8.82l-16,2.52l-1.13-7.18l16-2.52l-4.75-30.2
			c-0.24-4.51,1.09-8.99,3.74-12.63c3.89-5.34,10.13-8.35,16.75-8.08l1.15,7.31c-2.62-0.41-5.34,0.02-7.71,1.24
			c-1.76,0.91-3.24,2.17-4.4,3.75c-1.05,1.44-1.77,3.07-2.13,4.84c-0.15,0.74-0.24,1.47-0.26,2.17c-0.05,1.57,0.2,3.11,0.7,4.51
			l1.57,9.97l9.89-1.56c1.57,0.05,3.11-0.2,4.59-0.72c0.66-0.23,1.33-0.54,1.98-0.91c1.57-0.89,2.9-2.07,3.95-3.51
			c1.15-1.58,1.9-3.38,2.22-5.33c0.43-2.63,0.01-5.35-1.18-7.72l0.85-0.13l6.45-1.01c2.28,6.22,1.34,13.08-2.56,18.44
			c-0.27,0.37-0.59,0.77-0.96,1.2l-0.21,0.24c-0.32,0.36-0.66,0.71-1,1.05l-0.26,0.24c-0.32,0.3-0.65,0.6-0.99,0.87l-0.25,0.2
			c-0.32,0.25-0.65,0.49-0.98,0.72l-0.08,0.05c-0.11,0.08-0.22,0.15-0.34,0.23c-0.34,0.22-0.68,0.43-1.03,0.63
			c-0.18,0.1-0.37,0.2-0.56,0.3c-0.22,0.12-0.44,0.22-0.66,0.33c-0.35,0.17-0.71,0.33-1.07,0.48c-0.15,0.06-0.3,0.12-0.45,0.18
			c-0.72,0.28-1.48,0.51-2.22,0.7l-14.02,2.2l3.9,24.82l0.84-0.13c7.72,0.73,15.57-0.51,22.7-3.57l1.29-0.2l-2.93-18.61
			c2.58-1.82,4.82-4.03,6.68-6.58l0.47-0.07l-0.08-0.49c1.83-2.64,3.2-5.53,4.06-8.58c0.78-2.75,1.14-5.6,1.07-8.49
			c-0.06-2.76-0.51-5.48-1.34-8.11c-0.87-2.75-2.14-5.35-3.78-7.72l-0.15-0.22l-12.94,2.03l-2.03-12.94l-0.25-0.08
			c-2.76-0.83-5.63-1.25-8.51-1.23c-2.75,0.02-5.48,0.42-8.13,1.21c-2.76,0.82-5.37,2.04-7.75,3.62c-2.64,1.76-4.97,3.94-6.92,6.49
			l-0.49,0.08l0.07,0.47C341.55,249.77,340.14,252.59,339.2,255.6z M369.21,292.97c0.42-0.04,0.83-0.09,1.31-0.15l0.28-0.03
			c0.18-0.02,0.36-0.04,0.53-0.07c0.48-0.08,0.96-0.18,1.45-0.28l0.25-0.05c0.13-0.03,0.26-0.05,0.4-0.08
			c0.55-0.13,1.09-0.27,1.6-0.42l1.27,8.1c-2.36,0.63-4.76,1.02-7.17,1.18l-1.27-8.1c0.05,0,0.1-0.01,0.16-0.01l0.59-0.03
			C368.8,293,369.01,292.99,369.21,292.97z M385.21,249.75L385.21,249.75L385.21,249.75L385.21,249.75L385.21,249.75z M329.8,266.12
			l8.1-1.27c0.06,2.43,0.42,4.84,1.07,7.19l-8.09,1.27C330.29,270.97,329.93,268.55,329.8,266.12z M364.03,262.23
			c0.47-0.65,1.41-1.32,2.64-1.9l3.31-0.52l0.45,2.84c0.35,1.65-0.92,3.56-0.93,3.57c-1.1,1.51-3.22,1.84-4.73,0.74
			C363.26,265.86,362.93,263.73,364.03,262.23z"/>
		<path fill="#000000" id="XMLID_467_" d="M346.15,172.58l-8.53-16.8l-1.17,0.59c-7.57,1.69-14.65,5.29-20.49,10.4l-0.76,0.38l7.33,14.44
			l-6.48,3.29l-7.33-14.44l-19.83,10.07l-2.9,1.2l1.61,2.65l10.08,19.86l7.96-4.04l-7.33-14.44l6.48-3.29l7.33,14.44l27.26-13.84
			c4.21-1.62,8.89-1.74,13.17-0.34c6.28,2.05,11.07,7.06,12.86,13.44l-6.6,3.35c-0.42-2.62-1.67-5.07-3.56-6.95
			c-1.41-1.4-3.06-2.42-4.93-3.02c-1.7-0.55-3.47-0.73-5.26-0.53c-0.75,0.08-1.47,0.23-2.14,0.42c-1.5,0.44-2.9,1.15-4.08,2.06
			l-9,4.57l4.54,8.92c0.44,1.5,1.15,2.9,2.1,4.14c0.42,0.55,0.92,1.09,1.48,1.61c1.33,1.22,2.87,2.12,4.56,2.67
			c1.86,0.61,3.8,0.76,5.76,0.47c2.64-0.4,5.09-1.64,6.98-3.51l0.39,0.77l2.96,5.82c-5.21,4.09-12.03,5.31-18.33,3.25
			c-0.44-0.14-0.91-0.32-1.43-0.54l-0.3-0.12c-0.45-0.19-0.88-0.4-1.31-0.63l-0.31-0.17c-0.39-0.21-0.77-0.44-1.14-0.67l-0.27-0.18
			c-0.34-0.23-0.67-0.46-0.99-0.71l-0.08-0.06c-0.11-0.08-0.22-0.16-0.32-0.25c-0.32-0.25-0.62-0.52-0.92-0.79
			c-0.16-0.14-0.31-0.29-0.46-0.44c-0.18-0.17-0.35-0.35-0.52-0.52c-0.27-0.28-0.53-0.57-0.79-0.87c-0.1-0.12-0.21-0.25-0.31-0.37
			c-0.48-0.6-0.95-1.25-1.35-1.9l-6.43-12.66L301,210.7l0.38,0.76c1.69,7.57,5.29,14.65,10.4,20.49l0.59,1.16l16.8-8.53
			c2.52,1.89,5.32,3.35,8.32,4.33l0.22,0.42l0.45-0.23c3.08,0.93,6.24,1.33,9.41,1.21c2.85-0.11,5.68-0.65,8.4-1.6
			c2.6-0.91,5.06-2.18,7.3-3.78c2.35-1.67,4.43-3.69,6.18-5.98l0.16-0.21l-5.93-11.68l11.68-5.93l-0.01-0.26
			c-0.06-2.89-0.55-5.74-1.46-8.47c-0.87-2.61-2.1-5.09-3.66-7.36c-1.64-2.37-3.6-4.48-5.84-6.25c-2.49-1.97-5.28-3.51-8.31-4.58
			l-0.23-0.44l-0.42,0.21C352.42,173.02,349.3,172.54,346.15,172.58z M319.87,212.66c0.16,0.38,0.34,0.76,0.55,1.2l0.12,0.25
			c0.07,0.16,0.15,0.33,0.23,0.48c0.22,0.44,0.47,0.86,0.71,1.29l0.13,0.22c0.06,0.12,0.13,0.24,0.2,0.35
			c0.29,0.48,0.59,0.95,0.9,1.39l-7.31,3.71c-1.32-2.05-2.44-4.22-3.33-6.46l7.31-3.71c0.02,0.05,0.04,0.1,0.06,0.15l0.21,0.55
			C319.71,212.28,319.79,212.47,319.87,212.66z M365.92,214.54L365.92,214.54L365.92,214.54L365.92,214.54L365.92,214.54z
			 M333.24,166.89l3.71,7.31c-2.29,0.8-4.48,1.89-6.5,3.24l-3.71-7.3C328.79,168.85,330.97,167.76,333.24,166.89z M347.51,198.24
			c0.76,0.25,1.69,0.93,2.62,1.93l1.52,2.99l-2.56,1.3c-1.46,0.85-3.67,0.23-3.68,0.22c-1.77-0.58-2.75-2.5-2.17-4.27
			C343.82,198.63,345.74,197.66,347.51,198.24z"/>
		<circle id="XMLID_396_" cx="399.79" cy="218.87" r="20.22"/>
		<path fill="#000000" id="XMLID_462_" d="M407.53,65.56l-7.03-7.03V55.5l10.2-10.2l-10.2-10.2v-7.93h-1.42v7.93l-10.2,10.2l10.2,10.2v3.02
			l-7.03,7.03l7.03,7.03v4.16L399,76.76c-1.63,0.36-2.82,1.84-2.82,3.52c0,1.68,1.19,3.15,2.82,3.52l0.07,0.02v18.58h1.42V83.82
			l0.07-0.02c1.63-0.36,2.82-1.84,2.82-3.52c0-1.68-1.19-3.15-2.82-3.52l-0.07-0.02v-4.16L407.53,65.56z M391.45,45.31l7.62-7.62
			l0.71-0.71l0.71,0.71l7.62,7.62l-7.62,7.62l-0.71,0.71l-0.71-0.71L391.45,45.31z M399.79,71.47l-0.71-0.71l-5.2-5.2l5.2-5.2
			l0.71-0.71l0.71,0.71l5.2,5.2l-5.2,5.2L399.79,71.47z"/>
		<path fill="#000000" id="XMLID_458_" d="M548.05,179.07l4.53-8.85l2.88-0.93l12.84,6.57l6.57-12.84l7.54-2.44l-0.44-1.36l-7.54,2.44l-12.84-6.57
			l-6.57,12.84l-2.88,0.93l-8.85-4.53l-4.53,8.85l-3.96,1.28l-0.04-0.07c-0.85-1.44-2.62-2.12-4.22-1.6s-2.64,2.1-2.48,3.77
			l0.01,0.08l-17.68,5.72l0.44,1.36l17.68-5.72l0.04,0.06c0.85,1.44,2.62,2.12,4.22,1.6s2.64-2.1,2.48-3.77l-0.01-0.08l3.96-1.28
			L548.05,179.07z M562.37,157.54l9.6,4.91l0.9,0.46l-0.46,0.9l-4.91,9.6l-9.6-4.91l-0.9-0.46l0.46-0.9L562.37,157.54z
			 M540.04,173.52l0.46-0.9l3.35-6.55l6.55,3.35l0.9,0.46l-0.46,0.9l-3.35,6.55l-6.55-3.35L540.04,173.52z"/>
		<path fill="#000000" id="XMLID_454_" d="M483.27,347.7l9.82,1.58l1.77,2.45l-2.3,14.24l14.24,2.3l4.64,6.43l1.15-0.83l-4.64-6.43l2.3-14.24
			l-14.24-2.3l-1.77-2.45l1.58-9.82l-9.82-1.58l-2.44-3.37l0.05-0.06c1.11-1.25,1.21-3.15,0.23-4.5c-0.98-1.36-2.81-1.86-4.35-1.2
			l-0.07,0.03l-10.88-15.06l-1.15,0.83l10.88,15.06l-0.05,0.06c-1.11,1.25-1.21,3.15-0.23,4.5c0.98,1.36,2.81,1.86,4.35,1.2
			l0.07-0.03l2.44,3.37L483.27,347.7z M508.16,354.7l-1.72,10.64l-0.16,0.99l-0.99-0.16l-10.64-1.72l1.72-10.64l0.16-0.99l0.99,0.16
			L508.16,354.7z M486.08,338.37l0.99,0.16l7.27,1.17l-1.17,7.27l-0.16,0.99l-0.99-0.16l-7.27-1.17l1.17-7.27L486.08,338.37z"/>
		<path fill="#000000" id="XMLID_450_" d="M302.89,337.94l1.51,9.83l-1.79,2.44l-14.25,2.19l2.19,14.25l-4.69,6.39l1.15,0.84l4.69-6.39l14.25-2.19
			l-2.19-14.25l1.79-2.44l9.83-1.51l-1.51-9.83l2.46-3.36l0.07,0.03c1.53,0.67,3.36,0.18,4.36-1.17c0.99-1.35,0.91-3.25-0.19-4.51
			l-0.05-0.06l10.99-14.98l-1.15-0.84l-10.99,14.98l-0.07-0.03c-1.53-0.67-3.36-0.18-4.36,1.17c-0.99,1.35-0.91,3.25,0.19,4.51
			l0.05,0.06l-2.46,3.36L302.89,337.94z M303.89,363.77l-10.66,1.64l-1,0.15l-0.15-1l-1.64-10.66l10.66-1.64l1-0.15l0.15,1
			L303.89,363.77z M312.63,337.74l0.15,1l1.12,7.27l-7.27,1.12l-1,0.15l-0.15-1l-1.12-7.27l7.27-1.12L312.63,337.74z"/>
		<path fill="#000000" id="XMLID_446_" d="M256.69,163.31l-8.88,4.46l-2.87-0.95l-6.47-12.89l-12.89,6.47l-7.53-2.49l-0.45,1.35l7.53,2.49
			l6.47,12.89l12.89-6.47l2.87,0.95l4.46,8.88l8.88-4.46l3.95,1.31l-0.01,0.08c-0.17,1.67,0.86,3.26,2.45,3.78
			c1.59,0.53,3.37-0.13,4.23-1.57l0.04-0.06l17.64,5.84l0.45-1.35l-17.64-5.84l0.01-0.08c0.17-1.67-0.86-3.26-2.45-3.78
			s-3.37,0.13-4.23,1.57l-0.04,0.06l-3.95-1.31L256.69,163.31z M232.41,172.2l-4.84-9.63l-0.45-0.9l0.9-0.45l9.63-4.84l4.84,9.63
			l0.45,0.9l-0.9,0.45L232.41,172.2z M259.87,172.52l-0.9,0.45l-6.58,3.3l-3.3-6.58l-0.45-0.9l0.9-0.45l6.58-3.3l3.3,6.58
			L259.87,172.52z"/>
	</g>
	<g id="XMLID_424_">
		<path fill="#000000" id="XMLID_441_" d="M344.69,131.21l-6.78-1.02l-1.24-1.68l1.48-9.83l-9.84-1.48l-3.25-4.4l-0.79,0.58l3.25,4.4l-1.48,9.84
			l9.84,1.48l1.24,1.68l-1.02,6.78l6.78,1.02l1.7,2.31l-0.03,0.04c-0.76,0.87-0.81,2.18-0.12,3.11s1.95,1.26,3.01,0.8l0.05-0.02
			l7.61,10.31l0.79-0.58l-7.61-10.31l0.03-0.04c0.76-0.87,0.81-2.18,0.12-3.11c-0.69-0.93-1.95-1.26-3.01-0.8l-0.05,0.02l-1.7-2.31
			L344.69,131.21z M327.47,126.56l1.11-7.35l0.1-0.69l0.69,0.1l7.35,1.11l-1.11,7.35l-0.1,0.69l-0.69-0.1L327.47,126.56z
			 M342.82,137.67l-0.69-0.1l-5.02-0.76l0.76-5.02l0.1-0.69l0.69,0.1l5.02,0.76l-0.76,5.02L342.82,137.67z"/>
		<path fill="#000000" id="XMLID_437_" d="M470.09,132.91l-1.11-6.77l1.22-1.69l9.81-1.62l-1.62-9.81l3.19-4.44l-0.8-0.57l-3.19,4.44l-9.81,1.62
			l1.62,9.81l-1.22,1.69l-6.77,1.11l1.11,6.77l-1.67,2.33l-0.05-0.02c-1.06-0.45-2.32-0.1-3,0.84c-0.67,0.94-0.6,2.24,0.17,3.11
			l0.03,0.04l-7.47,10.41l0.8,0.57l7.47-10.41l0.05,0.02c1.06,0.45,2.32,0.1,3-0.84c0.67-0.94,0.6-2.24-0.17-3.11l-0.03-0.04
			l1.67-2.33L470.09,132.91z M469.22,115.1l7.34-1.21l0.69-0.11l0.11,0.69l1.21,7.34l-7.34,1.21l-0.69,0.11l-0.11-0.69L469.22,115.1
			z M463.38,133.11l-0.11-0.69l-0.82-5.01l5.01-0.82l0.69-0.11l0.11,0.69l0.82,5.01l-5.01,0.82L463.38,133.11z"/>
		<path fill="#000000" id="XMLID_433_" d="M506.95,259.55l6.09-3.14l1.99,0.63l4.56,8.84l8.84-4.56l5.21,1.67l0.3-0.94l-5.21-1.67l-4.56-8.84
			l-8.84,4.56l-1.99-0.63l-3.14-6.1l-6.09,3.14l-2.73-0.87l0-0.05c0.1-1.15-0.62-2.24-1.72-2.59c-1.1-0.35-2.32,0.12-2.9,1.11
			l-0.03,0.05l-12.21-3.9l-0.3,0.94l12.21,3.9l0,0.05c-0.1,1.15,0.62,2.24,1.72,2.59c1.1,0.35,2.32-0.12,2.9-1.11l0.03-0.04
			l2.73,0.87L506.95,259.55z M523.63,253.24l3.41,6.61l0.32,0.62l-0.62,0.32l-6.61,3.41l-3.41-6.61l-0.32-0.62l0.62-0.32
			L523.63,253.24z M504.69,253.22l0.62-0.32l4.51-2.33l2.33,4.51l0.32,0.62l-0.62,0.32l-4.51,2.33l-2.33-4.51L504.69,253.22z"/>
		<path fill="#000000" id="XMLID_429_" d="M397.27,326.15l4.86,4.83l0.01,2.08l-7.01,7.06l7.06,7.01l0.02,5.47l0.98,0l-0.02-5.47l7.01-7.06
			l-7.06-7.01l-0.01-2.08l4.83-4.86l-4.86-4.83l-0.01-2.87l0.05-0.01c1.13-0.25,1.94-1.28,1.94-2.43c0-1.16-0.83-2.17-1.95-2.42
			l-0.05-0.01l-0.04-12.82l-0.98,0l0.04,12.82l-0.05,0.01c-1.13,0.25-1.94,1.28-1.94,2.43c0,1.16,0.83,2.17,1.95,2.42l0.05,0.01
			l0.01,2.87L397.27,326.15z M408.4,340.08l-5.24,5.28l-0.49,0.49l-0.49-0.49l-5.28-5.24l5.24-5.28l0.49-0.49l0.49,0.49
			L408.4,340.08z M402.59,322.05l0.49,0.49l3.6,3.58l-3.58,3.6l-0.49,0.49l-0.49-0.49l-3.6-3.58l3.58-3.6L402.59,322.05z"/>
		<path fill="#000000" id="XMLID_425_" d="M305.7,245.37l-3.1,6.12l-1.98,0.65l-8.87-4.5l-4.5,8.87l-5.2,1.7l0.31,0.93l5.2-1.7l8.87,4.5l4.5-8.87
			l1.98-0.65l6.12,3.1l3.1-6.12l2.73-0.89l0.03,0.04c0.59,0.99,1.81,1.45,2.91,1.1c1.1-0.36,1.81-1.45,1.7-2.6l-0.01-0.05
			l12.18-3.98l-0.31-0.93l-12.18,3.98l-0.03-0.04c-0.59-0.99-1.81-1.45-2.91-1.1c-1.1,0.36-1.81,1.45-1.7,2.6l0.01,0.05l-2.73,0.89
			L305.7,245.37z M295.87,260.25l-6.63-3.36l-0.62-0.31l0.31-0.62l3.36-6.63l6.63,3.36l0.62,0.31l-0.31,0.62L295.87,260.25z
			 M311.23,249.18l-0.31,0.62l-2.3,4.53l-4.53-2.3l-0.62-0.31l0.31-0.62l2.3-4.53l4.53,2.3L311.23,249.18z"/>
	</g>
</g>
<path fill="#000000" d="M273.602,481.306c-0.578-0.576-1.301-1.03-2.174-1.362c-0.873-0.331-1.885-0.497-3.039-0.497
	c-0.663,0-1.463,0.079-2.4,0.238v-6.077h-1.535v17.711c0.706,0.202,1.402,0.354,2.087,0.454s1.301,0.151,1.849,0.151
	c1.153,0,2.166-0.162,3.039-0.486s1.596-0.764,2.174-1.319c0.576-0.555,1.006-1.211,1.287-1.968s0.42-1.561,0.42-2.411
	s-0.139-1.657-0.42-2.422C274.608,482.554,274.178,481.883,273.602,481.306z M272.391,489.167c-0.852,0.829-2.17,1.243-3.958,1.243
	c-0.39,0-0.805-0.032-1.244-0.097c-0.439-0.065-0.84-0.134-1.2-0.206v-8.845c0.447-0.115,0.887-0.194,1.319-0.237
	c0.433-0.044,0.808-0.065,1.125-0.065c0.894,0,1.668,0.112,2.325,0.335c0.656,0.224,1.199,0.545,1.633,0.963
	c0.432,0.418,0.752,0.919,0.961,1.503s0.314,1.243,0.314,1.979C273.667,487.195,273.241,488.338,272.391,489.167z M247.392,479.446
	c-0.62,0-1.297,0.079-2.033,0.238c-0.735,0.158-1.485,0.433-2.249,0.821l-0.065,1.73c0.548-0.303,0.973-0.52,1.276-0.649
	s0.624-0.237,0.962-0.324c0.338-0.086,0.677-0.158,1.016-0.216s0.667-0.087,0.984-0.087c1.139,0,1.982,0.249,2.53,0.746
	s0.822,1.33,0.822,2.498v0.13c-0.332-0.044-0.732-0.087-1.2-0.13c-0.469-0.043-0.876-0.065-1.222-0.065
	c-1.831,0-3.302,0.311-4.412,0.931c-1.11,0.619-1.665,1.644-1.665,3.07c0,0.707,0.155,1.305,0.465,1.795
	c0.31,0.49,0.713,0.88,1.211,1.168s1.067,0.497,1.708,0.627c0.641,0.13,1.308,0.194,2,0.194c0.807,0,1.6-0.072,2.378-0.216
	c0.779-0.145,1.536-0.368,2.271-0.671v-7.028c0-1.585-0.397-2.742-1.189-3.471C250.189,479.811,248.992,479.446,247.392,479.446z
	 M250.636,489.892c-0.375,0.144-0.858,0.267-1.449,0.367c-0.591,0.102-1.183,0.151-1.773,0.151c-0.505,0-0.984-0.035-1.438-0.108
	c-0.454-0.071-0.84-0.197-1.157-0.378c-0.317-0.18-0.57-0.414-0.757-0.703c-0.188-0.288-0.281-0.663-0.281-1.124
	c0-0.52,0.111-0.934,0.335-1.244c0.224-0.31,0.533-0.551,0.93-0.724c0.396-0.174,0.85-0.296,1.362-0.368
	c0.511-0.072,1.041-0.108,1.589-0.108c0.476,0,0.984,0.029,1.524,0.087c0.541,0.058,0.912,0.108,1.114,0.151V489.892z
	 M258.032,479.868c-0.649,0.122-1.276,0.263-1.881,0.422v11.418h1.535v-10.186c0.202-0.072,0.563-0.147,1.082-0.228
	c0.519-0.079,1.002-0.118,1.449-0.118h1.989v-1.492H260C259.336,479.685,258.681,479.746,258.032,479.868z M-77.92,487.667
	l241.145,0.656l0.663-0.433l-0.632-0.564L-77.92,487.667z M164.994,487.825l1.95,1.95l1.95-1.95l-1.95-1.95L164.994,487.825z
	 M169.559,487.825l3.057,3.057l3.057-3.057l-3.057-3.057L169.559,487.825z M212.359,489.286l-3.395-9.602h-1.514l-3.396,9.602
	l-2.984-9.602h-1.73l3.979,12.023h1.428l3.46-9.645l3.46,9.645h1.427l3.979-12.023h-1.73L212.359,489.286z M238.418,489.589
	c-0.317,0-0.591,0.115-0.822,0.346c-0.231,0.23-0.346,0.505-0.346,0.822c0,0.316,0.115,0.591,0.346,0.821
	c0.23,0.23,0.504,0.346,0.822,0.346c0.317,0,0.591-0.115,0.822-0.346c0.23-0.23,0.346-0.505,0.346-0.821
	c0-0.317-0.116-0.592-0.346-0.822C239.009,489.704,238.735,489.589,238.418,489.589z M193.243,489.286l-3.395-9.602h-1.514
	l-3.396,9.602l-2.984-9.602h-1.73l3.979,12.023h1.428l3.46-9.645l3.46,9.645h1.427l3.979-12.023h-1.73L193.243,489.286z
	 M231.476,489.286l-3.395-9.602h-1.514l-3.396,9.602l-2.984-9.602h-1.73l3.979,12.023h1.428l3.46-9.645l3.46,9.645h1.427
	l3.979-12.023h-1.73L231.476,489.286z M382.732,480.474c-0.426-0.396-0.938-0.667-1.535-0.812c-0.598-0.144-1.271-0.216-2.021-0.216
	c-0.664,0-1.393,0.09-2.184,0.271c-0.793,0.181-1.471,0.4-2.033,0.659c-0.346-0.331-0.818-0.569-1.416-0.714
	c-0.6-0.144-1.273-0.216-2.023-0.216c-0.635,0-1.268,0.058-1.902,0.173l-2.465,0.454v11.635h1.535v-10.38
	c0.447-0.102,0.883-0.188,1.309-0.26c0.424-0.072,0.896-0.108,1.416-0.108c0.605,0,1.125,0.058,1.557,0.173
	c0.434,0.116,0.789,0.321,1.07,0.616c0.281,0.296,0.494,0.711,0.639,1.244s0.217,1.24,0.217,2.119v6.596h1.535v-7.201
	c0-0.663-0.055-1.243-0.162-1.741c-0.109-0.497-0.213-0.861-0.314-1.092c0.086-0.043,0.281-0.119,0.584-0.228
	c0.303-0.107,0.602-0.197,0.898-0.27c0.295-0.072,0.586-0.126,0.875-0.162s0.547-0.055,0.779-0.055c0.59,0,1.102,0.058,1.535,0.173
	c0.432,0.116,0.781,0.317,1.049,0.605c0.266,0.289,0.471,0.703,0.615,1.244c0.145,0.54,0.217,1.251,0.217,2.13v6.596h1.535v-7.201
	c0-0.995-0.111-1.816-0.336-2.466C383.482,481.393,383.158,480.87,382.732,480.474z M280.1,474.581
	c-0.785,0.648-1.18,1.729-1.18,3.243v1.86h-2.551v1.492h2.551v10.531h1.537v-10.531h4.973v-1.492h-4.973v-1.471
	c0-0.635,0.045-1.149,0.141-1.546c0.094-0.396,0.24-0.707,0.443-0.931c0.201-0.223,0.475-0.385,0.82-0.486
	c0.346-0.101,0.779-0.151,1.299-0.151h2.422v-1.492h-2.271C281.956,473.607,280.885,473.932,280.1,474.581z M398.273,487.825
	l3.057,3.057l3.057-3.057l-3.057-3.057L398.273,487.825z M343.322,482.322c0.389-0.418,0.854-0.749,1.395-0.994
	s1.135-0.368,1.783-0.368c0.736,0,1.373,0.076,1.914,0.228s1.121,0.414,1.74,0.789l0.715-1.405c-0.707-0.39-1.393-0.674-2.055-0.854
	c-0.664-0.181-1.436-0.271-2.314-0.271c-0.85,0-1.639,0.155-2.367,0.465c-0.729,0.311-1.367,0.746-1.914,1.309
	c-0.549,0.563-0.98,1.222-1.297,1.979c-0.317,0.757-0.476,1.59-0.476,2.498s0.158,1.74,0.476,2.497
	c0.316,0.757,0.748,1.413,1.297,1.969c0.547,0.555,1.186,0.987,1.914,1.297c0.729,0.311,1.518,0.465,2.367,0.465
	c0.879,0,1.65-0.09,2.314-0.27c0.662-0.181,1.348-0.466,2.055-0.854l-0.715-1.406c-0.619,0.375-1.199,0.639-1.74,0.79
	s-1.178,0.227-1.914,0.227c-0.648,0-1.242-0.119-1.783-0.356c-0.541-0.238-1.006-0.565-1.395-0.984
	c-0.391-0.418-0.693-0.915-0.908-1.492c-0.217-0.576-0.324-1.203-0.324-1.881s0.107-1.305,0.324-1.882
	C342.628,483.238,342.931,482.741,343.322,482.322z M404.387,487.825l1.949,1.95l1.951-1.95l-1.951-1.95L404.387,487.825z
	 M410.701,487.326l-0.664,0.433l0.633,0.564l241.176-0.341L410.701,487.326z M362.611,481.295c-0.549-0.569-1.193-1.02-1.936-1.352
	c-0.742-0.331-1.547-0.497-2.412-0.497c-0.863,0-1.668,0.166-2.41,0.497c-0.742,0.332-1.389,0.782-1.936,1.352
	c-0.549,0.57-0.977,1.229-1.287,1.979c-0.311,0.749-0.465,1.557-0.465,2.422s0.154,1.672,0.465,2.422s0.738,1.409,1.287,1.979
	c0.547,0.569,1.193,1.017,1.936,1.341s1.547,0.486,2.41,0.486c0.865,0,1.67-0.162,2.412-0.486s1.387-0.771,1.936-1.341
	c0.547-0.569,0.977-1.229,1.287-1.979c0.309-0.75,0.465-1.557,0.465-2.422s-0.156-1.673-0.465-2.422
	C363.587,482.524,363.158,481.865,362.611,481.295z M362.394,487.523c-0.217,0.569-0.52,1.067-0.908,1.492
	c-0.389,0.426-0.857,0.765-1.406,1.017c-0.547,0.252-1.152,0.378-1.816,0.378c-0.662,0-1.268-0.126-1.816-0.378
	c-0.547-0.252-1.016-0.591-1.404-1.017c-0.391-0.425-0.693-0.923-0.908-1.492c-0.217-0.569-0.324-1.179-0.324-1.827
	c0-0.649,0.107-1.262,0.324-1.839c0.215-0.576,0.518-1.077,0.908-1.503c0.389-0.425,0.857-0.764,1.404-1.016
	c0.549-0.252,1.154-0.379,1.816-0.379c0.664,0,1.27,0.127,1.816,0.379c0.549,0.252,1.018,0.591,1.406,1.016
	c0.389,0.426,0.691,0.927,0.908,1.503c0.217,0.577,0.324,1.189,0.324,1.839C362.718,486.345,362.611,486.954,362.394,487.523z
	 M296.221,481.295c-0.547-0.569-1.191-1.02-1.936-1.352c-0.742-0.331-1.545-0.497-2.41-0.497s-1.67,0.166-2.412,0.497
	c-0.742,0.332-1.387,0.782-1.936,1.352c-0.547,0.57-0.977,1.229-1.285,1.979c-0.311,0.749-0.465,1.557-0.465,2.422
	s0.154,1.672,0.465,2.422c0.309,0.75,0.738,1.409,1.285,1.979c0.549,0.569,1.193,1.017,1.936,1.341s1.547,0.486,2.412,0.486
	s1.668-0.162,2.41-0.486c0.744-0.324,1.389-0.771,1.936-1.341c0.549-0.569,0.977-1.229,1.287-1.979s0.465-1.557,0.465-2.422
	s-0.154-1.673-0.465-2.422C297.198,482.524,296.77,481.865,296.221,481.295z M296.006,487.523c-0.217,0.569-0.52,1.067-0.908,1.492
	c-0.391,0.426-0.859,0.765-1.406,1.017c-0.549,0.252-1.154,0.378-1.816,0.378c-0.664,0-1.27-0.126-1.816-0.378
	c-0.549-0.252-1.018-0.591-1.406-1.017c-0.389-0.425-0.691-0.923-0.908-1.492s-0.324-1.179-0.324-1.827
	c0-0.649,0.107-1.262,0.324-1.839c0.217-0.576,0.52-1.077,0.908-1.503c0.389-0.425,0.857-0.764,1.406-1.016
	c0.547-0.252,1.152-0.379,1.816-0.379c0.662,0,1.268,0.127,1.816,0.379c0.547,0.252,1.016,0.591,1.406,1.016
	c0.389,0.426,0.691,0.927,0.908,1.503c0.215,0.577,0.324,1.189,0.324,1.839C296.331,486.345,296.221,486.954,296.006,487.523z
	 M309.381,480.463c-0.455-0.39-0.996-0.656-1.623-0.801c-0.627-0.144-1.309-0.216-2.043-0.216c-0.707,0-1.465,0.047-2.271,0.141
	s-1.701,0.234-2.682,0.422v11.699h1.535v-10.402c1.184-0.23,2.293-0.346,3.33-0.346c0.592,0,1.111,0.062,1.559,0.184
	c0.445,0.123,0.818,0.332,1.113,0.628c0.295,0.295,0.525,0.713,0.691,1.254s0.25,1.251,0.25,2.13v6.553h1.535v-7.201
	c0-0.995-0.119-1.82-0.357-2.477C310.18,481.375,309.834,480.852,309.381,480.463z M318.516,490.054
	c-0.346-0.108-0.619-0.277-0.82-0.509c-0.203-0.23-0.35-0.547-0.443-0.951c-0.096-0.403-0.141-0.922-0.141-1.557v-5.86h4.973v-1.492
	h-4.973v-4.347h-1.537v4.347h-2.551v1.492h2.551v6.466c0,0.764,0.109,1.405,0.326,1.925c0.215,0.519,0.525,0.937,0.93,1.254
	c0.402,0.317,0.867,0.544,1.395,0.682c0.525,0.137,1.105,0.205,1.74,0.205h2.271v-1.492h-2.422
	C319.295,490.216,318.862,490.162,318.516,490.054z M337.784,489.589c-0.316,0-0.59,0.115-0.82,0.346s-0.346,0.505-0.346,0.822
	c0,0.316,0.115,0.591,0.346,0.821s0.504,0.346,0.82,0.346c0.318,0,0.592-0.115,0.822-0.346s0.346-0.505,0.346-0.821
	c0-0.317-0.115-0.592-0.346-0.822S338.102,489.589,337.784,489.589z M333.178,486.106c-0.346-0.303-0.785-0.565-1.318-0.789
	c-0.533-0.223-1.182-0.422-1.947-0.595l-0.799-0.173c-1.053-0.216-1.781-0.461-2.184-0.735c-0.404-0.273-0.607-0.678-0.607-1.211
	c0-0.504,0.238-0.904,0.715-1.2c0.475-0.295,1.174-0.443,2.098-0.443c0.793,0,1.477,0.076,2.055,0.228
	c0.576,0.151,1.217,0.421,1.924,0.811l0.691-1.405c-1.412-0.765-2.969-1.146-4.67-1.146c-0.635,0-1.223,0.076-1.764,0.228
	c-0.539,0.151-1.008,0.364-1.404,0.638s-0.711,0.605-0.941,0.994c-0.23,0.39-0.346,0.815-0.346,1.276
	c0,0.462,0.072,0.88,0.217,1.254c0.143,0.375,0.381,0.707,0.713,0.995s0.758,0.537,1.275,0.746c0.52,0.209,1.146,0.4,1.883,0.573
	l0.908,0.194c1.008,0.217,1.729,0.49,2.162,0.822c0.432,0.331,0.648,0.771,0.648,1.318c0,0.39-0.086,0.707-0.26,0.952
	c-0.172,0.245-0.414,0.436-0.725,0.573c-0.311,0.137-0.678,0.237-1.102,0.303c-0.426,0.064-0.877,0.097-1.352,0.097
	c-0.592,0-1.223-0.09-1.893-0.271c-0.67-0.18-1.352-0.479-2.045-0.897l-0.734,1.471c0.779,0.433,1.539,0.742,2.281,0.93
	s1.539,0.281,2.391,0.281c0.748,0,1.434-0.072,2.053-0.216c0.621-0.145,1.158-0.36,1.611-0.648c0.455-0.289,0.805-0.649,1.049-1.082
	c0.246-0.433,0.369-0.93,0.369-1.492c0-0.476-0.072-0.915-0.217-1.318C333.77,486.763,333.526,486.41,333.178,486.106z"/>
</svg>

