<?xml version="1.0" encoding="utf-8"?>
<!-- Generator: Adobe Illustrator 23.0.0, SVG Export Plug-In . SVG Version: 6.00 Build 0)  -->
<svg version="1.1" id="Layer_1" xmlns="http://www.w3.org/2000/svg" xmlns:xlink="http://www.w3.org/1999/xlink" x="0px" y="0px"
	 viewBox="0 0 800 500"  xml:space="preserve">

<path fill="#000000" id="XMLID_935_" class="st0" d="M258.58,120.96V67.61h-2.36v53.35l-9.58,9.57l9.58,9.58v58.78h2.36V140.1l9.57-9.58
	L258.58,120.96z M257.4,137.53l-1.18-1.18l-5.82-5.82l5.82-5.82l1.18-1.18l1.18,1.18l5.82,5.82l-5.82,5.82L257.4,137.53z"/>
<path fill="#000000" id="XMLID_932_" class="st0" d="M256.2,428v26.9h2.36V428l9.58-9.57l-9.58-9.58v-58.78h-2.36v58.78l-9.57,9.58L256.2,428z
	 M257.38,411.43l1.18,1.18l5.82,5.82l-5.82,5.82l-1.18,1.18l-1.18-1.18l-5.82-5.82l5.82-5.82L257.38,411.43z"/>
<g id="XMLID_1393_">
	<g id="XMLID_1658_">
		<path fill="#000000" id="XMLID_1666_" d="M554.88,311.03c0.09,0.84,0.24,1.77,0.44,2.66c0.05,0.24,0.09,0.48,0.16,0.7
			c0.06,0.24,0.13,0.46,0.19,0.68c0.03,0.1,0.06,0.19,0.09,0.29c0.09,0.29,0.21,0.57,0.32,0.82
			C555.52,314.55,555.12,312.84,554.88,311.03z M554.88,311.03c0.09,0.84,0.24,1.77,0.44,2.66c0.05,0.24,0.09,0.48,0.16,0.7
			c0.06,0.24,0.13,0.46,0.19,0.68c0.03,0.1,0.06,0.19,0.09,0.29c0.09,0.29,0.21,0.57,0.32,0.82
			C555.52,314.55,555.12,312.84,554.88,311.03z M554.88,311.03c0.09,0.84,0.24,1.77,0.44,2.66c0.05,0.24,0.09,0.48,0.16,0.7
			c0.06,0.24,0.13,0.46,0.19,0.68c0.03,0.1,0.06,0.19,0.09,0.29c0.09,0.29,0.21,0.57,0.32,0.82
			C555.52,314.55,555.12,312.84,554.88,311.03z M554.88,311.03c0.09,0.84,0.24,1.77,0.44,2.66c0.05,0.24,0.09,0.48,0.16,0.7
			c0.06,0.24,0.13,0.46,0.19,0.68c0.03,0.1,0.06,0.19,0.09,0.29c0.09,0.29,0.21,0.57,0.32,0.82
			C555.52,314.55,555.12,312.84,554.88,311.03z M561.09,250c-24.8-11.15-57.07-14.88-79.28,3.66c-10.06,8.4-16.16,20.71-19.96,33
			c-1.41,4.52-2.79,9.11-3.99,13.77c-24.72-6.04-57.47-0.41-68.56,25.32c-0.24,0.52-0.57,2.03-0.97,3.87
			c-0.86,3.25-1.71,6.48-2.57,9.73c0.21-0.46,0.43-0.9,0.63-1.35c-0.27,0.9-0.54,1.52-0.74,1.57c14.54-3.69,28.66,2.54,42,7.75
			c8.68,3.39,20.83,8.32,25.05-3.3c0.73-2.01,1.31-4.53,1.85-6.97c2.06,16.64,9.28,32.07,20.76,44.73
			c20.69,22.85,53.16,33.62,83.42,28.65c39.02-6.42,64.72-39.1,77.3-74.5c0.55-1.57,1.03-3.45,1.47-5.36l0.06,0.03l8.67-16.49
			l-16.49-8.65l-8.65,16.48l15.46,8.13c-9.43,22.88-24.07,43.49-45.82,56.15c-18.66,10.85-40.97,13.71-61.98,9.47
			c-42.03-8.49-74.8-46.42-70.65-90.1c1.66-17.46,12.31-33.97,27.24-43.1c14.83-9.06,33.22-8.9,49.7-5.62
			c13.25,2.63,26.14,8.84,39.06,15.45c13.04,6.67,26.08,13.74,39.5,17.92c-23.26,5.74-46.83,7.87-69.6-2.96
			c-0.29,1.05-0.57,2.08-0.84,3.12c-1.35,4.04-3.68,10.58-2.93,10.93c3.41,1.58,7.48,3.3,11.82,5.18c-0.32,1.14-0.6,2.27-0.71,3.28
			l-0.03,0.19c0,0.06,0,0.13-0.02,0.19c-0.06,0.19-0.14,0.36-0.21,0.55c-0.02,0.06-0.03,0.11-0.06,0.17
			c-0.6,1.7-1.08,3.37-1.13,5.09c-0.03,0.22-0.05,0.43-0.05,0.6c-0.03,0.74-0.14,1.47-0.24,2.11c-0.76,1.36-1.62,2.68-2.55,3.95
			c-2.2,3.03-5.29,5.18-8.65,6.7c-8.94,4.04-19.61-0.71-26.92-5.91c-0.38-0.27-0.74-0.54-1.09-0.84c-1.62-1.3-3.07-2.82-4.42-4.44
			c-0.6-0.71-1.12-1.39-1.62-2.01c0.79-0.95,1.58-1.92,2.39-2.85c7.92-9.28,16.78-18.05,26.59-25.33c1.08-0.79,1.55-4.2,2-7.45
			c0.59-2.2,1.19-4.4,1.77-6.62c-0.13,0.1-0.24,0.19-0.36,0.29c0.11-0.14,0.24-0.25,0.36-0.29c-11.52,2.6-24,0.89-35.73,1.31
			c-10.11,0.36-24.32,1.35-28.76,12.18c-1.66,4.04-2.27,10.52-3.53,13.59c4.34-10.57,18.81-11.27,28.52-11.71
			c7.02-0.33,14.28,0.19,21.44,0.11c-3.68,3.63-7.18,7.46-10.46,11.47c-2.77,3.34-5.37,6.83-7.8,10.41c-1.16-1.63-2.3-3.23-3.5-4.74
			c-5.53-6.91-12.58-10.95-21.33-12.22c-0.87-0.13-3.53,14.1-3.77,14.07c9.78,1.43,16.37,6.37,22.18,13.42
			c-5.58,10.3-9.62,21.36-11.5,32.99c0.36-2.28,1.66-5.8,2.68-9.17c0.13-0.29,0.3-0.73,0.54-1.35c0.87-2.14,1.95-4.21,3.03-6.24
			c1.52-2.87,3.26-5.59,5.04-8.3c0.97-1.49,1.96-2.93,2.99-4.36c0.02,0.02,0.03,0.03,0.05,0.05c0,0,0.1,0.13,0.29,0.35
			c2.58,3.53,5.24,6.73,8.16,9.44c0.1,0.11,0.19,0.21,0.29,0.29c0.06,0.06,0.11,0.11,0.17,0.14c4.53,4.14,9.78,7.18,16.62,8.75
			c15.42,3.53,23.99-9.73,28.03-23.78c0.14,8.46,2.34,16.49,11.46,19.63c5.12,1.77,10.62,2.33,15.8,3.83
			c7.03,2.03,13.12,5.83,18.38,10.87c-0.17-0.16,0.05-1.24,0.44-2.69c-0.1,0.57-0.17,1.12-0.29,1.71c0.76-2.74,1.51-5.48,2.27-8.22
			c0.6-1.85,1.09-3.37,1.19-3.87c3.12-14.48-3.95-25.07-14.59-33.27l2.47-0.25c8.06-0.89,16.11-2.54,24.13-4.59
			c13.61-3.47,27.08-8.08,40.21-11.93c1.47-0.43,1.82-4.55,2.2-8.22c0.52-1.95,1.03-3.9,1.55-5.85
			C622.76,287,589.9,262.94,561.09,250z M453.97,324.78c-0.09,3.11,0.02,6.18,0.27,9.22c-5.59,6.78-16.97,1.52-24.34-1.35
			c-10.55-4.12-21.56-8.67-32.91-8.22c5.23-4.33,11.49-7.4,18.2-9.36c12.69-3.72,27.01-3.52,39.15-0.51c0.14,0,0.55-1.33,1.09-3.17
			C454.65,315.83,454.1,320.3,453.97,324.78z M567.94,326.73c-6.58-1.66-10.08-5.55-11.82-10.46c-0.02-0.03-0.03-0.06-0.03-0.1
			c-0.57-1.63-0.97-3.34-1.2-5.15c-0.02-0.1-0.03-0.17-0.03-0.27c-0.02-0.1-0.03-0.19-0.03-0.29c-0.19-1.63-0.22-2.87-0.22-2.87
			c9.05,3.98,19.01,8.76,27.03,14.8c5.28,3.96,9.68,8.46,12.45,13.66C586.21,330.96,577.54,329.16,567.94,326.73z M554.88,311.03
			c0.09,0.84,0.24,1.77,0.44,2.66c0.05,0.24,0.09,0.48,0.16,0.7c0.06,0.24,0.13,0.46,0.19,0.68c0.03,0.1,0.06,0.19,0.09,0.29
			c0.09,0.29,0.21,0.57,0.32,0.82C555.52,314.55,555.12,312.84,554.88,311.03z M554.88,311.03c0.09,0.84,0.24,1.77,0.44,2.66
			c0.05,0.24,0.09,0.48,0.16,0.7c0.06,0.24,0.13,0.46,0.19,0.68c0.03,0.1,0.06,0.19,0.09,0.29c0.09,0.29,0.21,0.57,0.32,0.82
			C555.52,314.55,555.12,312.84,554.88,311.03z M554.88,311.03c0.09,0.84,0.24,1.77,0.44,2.66c0.05,0.24,0.09,0.48,0.16,0.7
			c0.06,0.24,0.13,0.46,0.19,0.68c0.03,0.1,0.06,0.19,0.09,0.29c0.09,0.29,0.21,0.57,0.32,0.82
			C555.52,314.55,555.12,312.84,554.88,311.03z M554.88,311.03c0.09,0.84,0.24,1.77,0.44,2.66c0.05,0.24,0.09,0.48,0.16,0.7
			c0.06,0.24,0.13,0.46,0.19,0.68c0.03,0.1,0.06,0.19,0.09,0.29c0.09,0.29,0.21,0.57,0.32,0.82
			C555.52,314.55,555.12,312.84,554.88,311.03z"/>
		<polygon id="XMLID_1546_" points="293.62,370.3 277.93,360.82 268.3,376.75 284.23,386.39 290.98,375.23 306.66,384.71 
			316.3,368.78 300.37,359.14 		"/>
		
			<rect id="XMLID_1545_" x="184.67" y="364.29" transform="matrix(0.5175 -0.8557 0.8557 0.5175 -226.091 346.2569)" width="18.62" height="18.62"/>
		<polygon id="XMLID_1544_" points="432.22,280.2 440.87,263.71 430.3,258.16 437.68,244.1 421.2,235.45 412.54,251.93 
			423.11,257.48 415.73,271.54 		"/>
		<polygon id="XMLID_1543_" points="168.84,274.45 185.32,283.11 193.98,266.63 183.4,261.07 190.78,247.02 174.3,238.36 
			165.64,254.84 176.22,260.4 		"/>
		<path fill="#000000" id="XMLID_1660_" d="M543.16,188.03c-28.38-59.11-94.87-93.46-159.53-79.25c-64.91,14.26-111.91,71.77-113.24,138.14
			c-0.02,0.68,0.06,1.36,0.19,2.06c-15.48,4.23-29.2,13.74-38.8,26.79c-12.04,16.35-18.01,39.23-19.41,59.89
			c-5.89,7.1-17.27,1-24.59-2.38c-9.95-4.59-20.3-9.6-31.23-10.16c0.21-0.14,0.4-0.29,0.6-0.41l0.02-0.02
			c5.43-3.76,11.74-6.26,18.41-7.68c12.74-2.77,26.79-1.66,38.53,2.01c0.13,0.03,4.28-13.91,3.77-14.07
			c-24.26-7.59-57.31-4.15-70.08,20.74c0,0,0,0-0.02,0v0.02c-0.03,0.08-0.08,0.14-0.11,0.22c-0.32,0.62-0.78,2.71-1.28,5.1
			c-0.74,2.84-1.51,5.66-2.25,8.49c0.13-0.25,0.29-0.49,0.41-0.74c-0.19,0.57-0.38,0.95-0.52,0.98
			c14.75-2.82,28.46,4.25,41.46,10.27c8.48,3.91,20.26,9.55,25.18-1.81c0.6-1.38,1.05-3.06,1.43-4.8c-0.02,0.62-0.03,1.25-0.05,1.85
			c-0.51,36.71,31.96,64.31,65.66,71.12c17.65,3.56,36.19,1.11,52.16-7.21c19.36-10.08,32.19-28.71,39.88-48.64
			c1.57-4.07,2.31-10.47,3.52-13.58c-9.63,24.97-27.35,45.88-53.54,53.82c-21.33,6.46-44.85,2.58-64.22-7.86
			c-18.84-10.14-33.75-27.65-38.37-48.75c-1.27-5.77-1.44-11.66-1.17-17.54c0.14-3.36,0.51-6.7,0.95-10.05
			c0.19-1.36,0.43-2.71,0.68-4.06c-0.19,1.46,1.11-3.49,1.46-4.37c4.12-10.52,10.69-19.95,19.03-27.57
			c20.3-18.59,50.64-22.74,75.88-12.74c12.39,4.91,22.2,12.98,29.42,22.94c6.24,8.63,10.52,18.68,12.85,29.37
			c-5.5-2.31-12.66-2.06-17.98-1.93c-13.23,0.33-26.4,2.46-39.58,3.52c-11.23,0.92-23.53,1.73-34.29-2.31
			c-11.31-4.25-13.9-15.61-11.41-26.54c-0.03,0.1,0.62-2.65,0.27-1.87c-4.44,10.28-7.56,20.88-4.04,30.83
			c0.48,1.52,1.16,2.98,2.01,4.34c0.43,0.76,0.9,1.51,1.43,2.25c3.42,4.85,7.37,9.24,9.57,14.81c2.93,7.51-2.49,18.08-4.56,21.25
			c0.41-2.2,0.71-4.4,0.74-6.59c0.13-6.67-4.02-12.58-7.97-17.57c-4.25-5.34-8.94-10.25-12.56-16.07c-1.84-2.95-3.14-6.15-4.02-9.49
			c-0.46-1.76-0.63-3.58-0.74-5.4c-0.05-0.97,1.96-12.17,3.17-15.48c-6.1,14.75-10.41,31.18-1.49,45.54
			c3.8,6.1,8.87,11.34,13.39,16.91c7.32,9.02,6.16,21.07,5.23,22.96c7.4-11.17,17.98-27.92,14.16-43.3
			c8.68,1.65,18.79,0.84,27.14-0.05c2.88-0.3,5.56-0.62,7.89-0.84c10.25-1,20.49-2.34,30.78-2.79c7.1-0.3,15.45-0.49,21.74,3.33
			c1.3,0.78,2.33,1.89,3.18,3.11c-0.06-0.06-0.05-0.25-0.02-0.49c0,0.16,0.02,0.33,0.02,0.49c0.38-1.46,0.78-2.93,1.17-4.39
			c0.43-1.22,0.84-2.3,0.92-2.58c0.59-2.17,1.7-4.82,1.66-7.08c-0.16-22.64-7.91-44.44-25.32-59.48
			c-14.85-12.79-34.98-18.25-54.31-16.46c-2.5,0.24-4.99,0.62-7.45,1.11c1.05-10.14,3.07-20.19,6.34-29.85
			c21.06-62.52,83.86-104.55,149.99-97.66c32.07,3.34,62.79,17.17,85.84,39.91c11.65,11.49,21.61,24.81,28.71,39.58
			c6.2,12.9,9.4,25.78,10.41,39.51c0.87,0.59,1.73,1.17,2.6,1.74C556.37,222.73,550.98,204.32,543.16,188.03z"/>
		<path fill="#000000" id="XMLID_1540_" d="M398.58,82.19c-4.52,1.76-7.72,6.14-7.72,11.28c0,6.69,5.42,12.11,12.11,12.11
			c6.69,0,12.11-5.42,12.11-12.11c0-5.14-3.21-9.52-7.73-11.28c13.06-2.1,23.03-13.41,23.03-27.05c0-9.91-5.26-18.59-13.14-23.4
			c3.06,3.4,4.92,7.9,4.92,12.83c0,10.61-8.59,19.2-19.2,19.2s-19.2-8.59-19.2-19.2c0-4.93,1.86-9.42,4.92-12.83
			c-7.88,4.81-13.13,13.49-13.13,23.4C375.55,68.78,385.52,80.1,398.58,82.19z"/>
	</g>
	<g id="XMLID_1570_">
		<path fill="#000000" id="XMLID_1404_" d="M613.6,290.23c-13.42-4.18-26.46-11.25-39.5-17.92l4.64-8.49c0,0,15.97,9.21,40.92,15.18
			C636.62,283.05,622.11,288.39,613.6,290.23z"/>
		<path fill="#000000" id="XMLID_1402_" d="M612,303.73c-8.02,2.06-16.07,3.71-24.13,4.59l-2.47,0.25c-2.88-2.36-14.09-9.74-5.88-10.12
			c12.29-0.55,21.42-1.12,24.8-1.58c3.36-0.48,6.54,2.33,6.54,2.33L612,303.73z"/>
		<path fill="#000000" id="XMLID_1401_" d="M594.08,336.06c-2.77-5.2-7.18-9.7-12.45-13.66c1.52-1.66,4.4-4.39,7.48-5.2
			c2.19-0.57,5.5,2.36,8.84,9.28C601.29,333.43,598.52,339.2,594.08,336.06z"/>
		<path fill="#000000" id="XMLID_1399_" d="M520.82,296.8c-4.29,3.52-9.08,4.14-12.23,4.04c3.28-4.01,6.78-7.84,10.46-11.47
			C526.16,289.25,527.98,290.94,520.82,296.8z"/>
		<path fill="#000000" id="XMLID_1395_" d="M556.12,316.28c-1.93,1.74-6.16,2.84-6.27,0.3c0-0.17,0.02-0.38,0.05-0.6c0.36-2.14,0.84-4.02,1.13-5.09
			c0.03-0.06,0.05-0.11,0.06-0.17c0.13-0.46,0.21-0.71,0.21-0.71l0.02-0.03l0.03-0.19l0.71-3.28l2.55,1.11c0,0,0.03,1.24,0.22,2.87
			c0,0.1,0.02,0.19,0.03,0.29c0,0.1,0.02,0.17,0.03,0.27c0.09,0.84,0.24,1.77,0.44,2.66c0.05,0.24,0.09,0.48,0.16,0.7
			c0.06,0.24,0.13,0.46,0.19,0.68c0.03,0.1,0.06,0.19,0.09,0.29c0.09,0.29,0.19,0.57,0.32,0.82
			C556.09,316.21,556.1,316.24,556.12,316.28z"/>
		<path fill="#000000" id="XMLID_1390_" d="M497.19,325.4c0,0,3.92-5.42,7.16-9.26c1.58,1.98,3.64,4.71,6.04,6.44c2.4,1.73-2.18,15.14-4.47,12.89
			S497.19,325.4,497.19,325.4z"/>
		<path fill="#000000" id="XMLID_1389_" d="M415.2,315.07c-6.72,1.96-12.98,5.04-18.2,9.36c-4.71,0.1-6.46-2.74-0.63-8.33
			c8.25-7.94,13.5-8.94,13.5-8.94L415.2,315.07z"/>
		<path fill="#000000" id="XMLID_1387_" d="M175.58,315.02c-6.67,1.43-12.98,3.93-18.41,7.68l-0.02,0.02l-0.73,0.27c-4.71,0.1-6.46-2.74-0.63-8.33
			c8.25-7.94,13.5-8.94,13.5-8.94L175.58,315.02z"/>
		<path fill="#000000" id="XMLID_1386_" d="M294.69,333.99c-8.35,0.89-18.46,1.7-27.14,0.05c-2.69-8.56-11.25-15.81-3.49-13.56
			c14.69,4.23,25.68,2.95,25.68,2.95v1.58L294.69,333.99z"/>
		<path fill="#000000" id="XMLID_1384_" d="M356.23,318.19c-2.33-10.69-6.61-20.74-12.85-29.37l1.27-0.71c0,0,7.68,2.03,8.29,2.63
			s3.95,4.74,6.13,14.78C361.95,318.75,359.07,319.21,356.23,318.19z"/>
	</g>
	<g id="XMLID_1396_">
		<path fill="#000000" id="XMLID_1383_" d="M613.6,290.23c-13.42-4.18-26.46-11.25-39.5-17.92l4.64-8.49c0,0,15.97,9.21,40.92,15.18
			C636.62,283.05,622.11,288.39,613.6,290.23z"/>
		<path fill="#000000" id="XMLID_1381_" d="M612,303.73c-8.02,2.06-16.07,3.71-24.13,4.59l-2.47,0.25c-2.88-2.36-14.09-9.74-5.88-10.12
			c12.29-0.55,21.42-1.12,24.8-1.58c3.36-0.48,6.54,2.33,6.54,2.33L612,303.73z"/>
		<path fill="#000000" id="XMLID_1380_" d="M594.08,336.06c-2.77-5.2-7.18-9.7-12.45-13.66c1.52-1.66,4.4-4.39,7.48-5.2
			c2.19-0.57,5.5,2.36,8.84,9.28C601.29,333.43,598.52,339.2,594.08,336.06z"/>
		<path fill="#000000" id="XMLID_1378_" d="M520.82,296.8c-4.29,3.52-9.08,4.14-12.23,4.04c3.28-4.01,6.78-7.84,10.46-11.47
			C526.16,289.25,527.98,290.94,520.82,296.8z"/>
		<path fill="#000000" id="XMLID_1377_" d="M556.12,316.28c-1.93,1.74-6.16,2.84-6.27,0.3c0-0.17,0.02-0.38,0.05-0.6c0.36-2.14,0.84-4.02,1.13-5.09
			c0.03-0.06,0.05-0.11,0.06-0.17c0.13-0.46,0.21-0.71,0.21-0.71l0.02-0.03l0.03-0.19l0.71-3.28l2.55,1.11c0,0,0.03,1.24,0.22,2.87
			c0,0.1,0.02,0.19,0.03,0.29c0,0.1,0.02,0.17,0.03,0.27c0.09,0.84,0.24,1.77,0.44,2.66c0.05,0.24,0.09,0.48,0.16,0.7
			c0.06,0.24,0.13,0.46,0.19,0.68c0.03,0.1,0.06,0.19,0.09,0.29c0.09,0.29,0.19,0.57,0.32,0.82
			C556.09,316.21,556.1,316.24,556.12,316.28z"/>
		<path fill="#000000" id="XMLID_1375_" d="M497.19,325.4c0,0,3.92-5.42,7.16-9.26c1.58,1.98,3.64,4.71,6.04,6.44c2.4,1.73-2.18,15.14-4.47,12.89
			S497.19,325.4,497.19,325.4z"/>
		<path fill="#000000" id="XMLID_1374_" d="M415.2,315.07c-6.72,1.96-12.98,5.04-18.2,9.36c-4.71,0.1-6.46-2.74-0.63-8.33
			c8.25-7.94,13.5-8.94,13.5-8.94L415.2,315.07z"/>
		<path fill="#000000" id="XMLID_1372_" d="M175.58,315.02c-6.67,1.43-12.98,3.93-18.41,7.68l-0.02,0.02l-0.73,0.27c-4.71,0.1-6.46-2.74-0.63-8.33
			c8.25-7.94,13.5-8.94,13.5-8.94L175.58,315.02z"/>
		<path fill="#000000" id="XMLID_1371_" d="M294.69,333.99c-8.35,0.89-18.46,1.7-27.14,0.05c-2.69-8.56-11.25-15.81-3.49-13.56
			c14.69,4.23,25.68,2.95,25.68,2.95v1.58L294.69,333.99z"/>
		<path fill="#000000" id="XMLID_1367_" d="M356.23,318.19c-2.33-10.69-6.61-20.74-12.85-29.37l1.27-0.71c0,0,7.68,2.03,8.29,2.63
			s3.95,4.74,6.13,14.78C361.95,318.75,359.07,319.21,356.23,318.19z"/>
	</g>
</g>
<path fill="#000000" d="M273.602,481.306c-0.578-0.576-1.301-1.03-2.174-1.362c-0.873-0.331-1.885-0.497-3.039-0.497
	c-0.663,0-1.463,0.079-2.4,0.238v-6.077h-1.535v17.711c0.706,0.202,1.402,0.354,2.087,0.454s1.301,0.151,1.849,0.151
	c1.153,0,2.166-0.162,3.039-0.486s1.596-0.764,2.174-1.319c0.576-0.555,1.006-1.211,1.287-1.968s0.42-1.561,0.42-2.411
	s-0.139-1.657-0.42-2.422C274.608,482.554,274.178,481.883,273.602,481.306z M272.391,489.167c-0.852,0.829-2.17,1.243-3.958,1.243
	c-0.39,0-0.805-0.032-1.244-0.097c-0.439-0.065-0.84-0.134-1.2-0.206v-8.845c0.447-0.115,0.887-0.194,1.319-0.237
	c0.433-0.044,0.808-0.065,1.125-0.065c0.894,0,1.668,0.112,2.325,0.335c0.656,0.224,1.199,0.545,1.633,0.963
	c0.432,0.418,0.752,0.919,0.961,1.503s0.314,1.243,0.314,1.979C273.667,487.195,273.241,488.338,272.391,489.167z M247.392,479.446
	c-0.62,0-1.297,0.079-2.033,0.238c-0.735,0.158-1.485,0.433-2.249,0.821l-0.065,1.73c0.548-0.303,0.973-0.52,1.276-0.649
	s0.624-0.237,0.962-0.324c0.338-0.086,0.677-0.158,1.016-0.216s0.667-0.087,0.984-0.087c1.139,0,1.982,0.249,2.53,0.746
	s0.822,1.33,0.822,2.498v0.13c-0.332-0.044-0.732-0.087-1.2-0.13c-0.469-0.043-0.876-0.065-1.222-0.065
	c-1.831,0-3.302,0.311-4.412,0.931c-1.11,0.619-1.665,1.644-1.665,3.07c0,0.707,0.155,1.305,0.465,1.795
	c0.31,0.49,0.713,0.88,1.211,1.168s1.067,0.497,1.708,0.627c0.641,0.13,1.308,0.194,2,0.194c0.807,0,1.6-0.072,2.378-0.216
	c0.779-0.145,1.536-0.368,2.271-0.671v-7.028c0-1.585-0.397-2.742-1.189-3.471C250.189,479.811,248.992,479.446,247.392,479.446z
	 M250.636,489.892c-0.375,0.144-0.858,0.267-1.449,0.367c-0.591,0.102-1.183,0.151-1.773,0.151c-0.505,0-0.984-0.035-1.438-0.108
	c-0.454-0.071-0.84-0.197-1.157-0.378c-0.317-0.18-0.57-0.414-0.757-0.703c-0.188-0.288-0.281-0.663-0.281-1.124
	c0-0.52,0.111-0.934,0.335-1.244c0.224-0.31,0.533-0.551,0.93-0.724c0.396-0.174,0.85-0.296,1.362-0.368
	c0.511-0.072,1.041-0.108,1.589-0.108c0.476,0,0.984,0.029,1.524,0.087c0.541,0.058,0.912,0.108,1.114,0.151V489.892z
	 M258.032,479.868c-0.649,0.122-1.276,0.263-1.881,0.422v11.418h1.535v-10.186c0.202-0.072,0.563-0.147,1.082-0.228
	c0.519-0.079,1.002-0.118,1.449-0.118h1.989v-1.492H260C259.336,479.685,258.681,479.746,258.032,479.868z M-77.92,487.667
	l241.145,0.656l0.663-0.433l-0.632-0.564L-77.92,487.667z M164.994,487.825l1.95,1.95l1.95-1.95l-1.95-1.95L164.994,487.825z
	 M169.559,487.825l3.057,3.057l3.057-3.057l-3.057-3.057L169.559,487.825z M212.359,489.286l-3.395-9.602h-1.514l-3.396,9.602
	l-2.984-9.602h-1.73l3.979,12.023h1.428l3.46-9.645l3.46,9.645h1.427l3.979-12.023h-1.73L212.359,489.286z M238.418,489.589
	c-0.317,0-0.591,0.115-0.822,0.346c-0.231,0.23-0.346,0.505-0.346,0.822c0,0.316,0.115,0.591,0.346,0.821
	c0.23,0.23,0.504,0.346,0.822,0.346c0.317,0,0.591-0.115,0.822-0.346c0.23-0.23,0.346-0.505,0.346-0.821
	c0-0.317-0.116-0.592-0.346-0.822C239.009,489.704,238.735,489.589,238.418,489.589z M193.243,489.286l-3.395-9.602h-1.514
	l-3.396,9.602l-2.984-9.602h-1.73l3.979,12.023h1.428l3.46-9.645l3.46,9.645h1.427l3.979-12.023h-1.73L193.243,489.286z
	 M231.476,489.286l-3.395-9.602h-1.514l-3.396,9.602l-2.984-9.602h-1.73l3.979,12.023h1.428l3.46-9.645l3.46,9.645h1.427
	l3.979-12.023h-1.73L231.476,489.286z M382.732,480.474c-0.426-0.396-0.938-0.667-1.535-0.812c-0.598-0.144-1.271-0.216-2.021-0.216
	c-0.664,0-1.393,0.09-2.184,0.271c-0.793,0.181-1.471,0.4-2.033,0.659c-0.346-0.331-0.818-0.569-1.416-0.714
	c-0.6-0.144-1.273-0.216-2.023-0.216c-0.635,0-1.268,0.058-1.902,0.173l-2.465,0.454v11.635h1.535v-10.38
	c0.447-0.102,0.883-0.188,1.309-0.26c0.424-0.072,0.896-0.108,1.416-0.108c0.605,0,1.125,0.058,1.557,0.173
	c0.434,0.116,0.789,0.321,1.07,0.616c0.281,0.296,0.494,0.711,0.639,1.244s0.217,1.24,0.217,2.119v6.596h1.535v-7.201
	c0-0.663-0.055-1.243-0.162-1.741c-0.109-0.497-0.213-0.861-0.314-1.092c0.086-0.043,0.281-0.119,0.584-0.228
	c0.303-0.107,0.602-0.197,0.898-0.27c0.295-0.072,0.586-0.126,0.875-0.162s0.547-0.055,0.779-0.055c0.59,0,1.102,0.058,1.535,0.173
	c0.432,0.116,0.781,0.317,1.049,0.605c0.266,0.289,0.471,0.703,0.615,1.244c0.145,0.54,0.217,1.251,0.217,2.13v6.596h1.535v-7.201
	c0-0.995-0.111-1.816-0.336-2.466C383.482,481.393,383.158,480.87,382.732,480.474z M280.1,474.581
	c-0.785,0.648-1.18,1.729-1.18,3.243v1.86h-2.551v1.492h2.551v10.531h1.537v-10.531h4.973v-1.492h-4.973v-1.471
	c0-0.635,0.045-1.149,0.141-1.546c0.094-0.396,0.24-0.707,0.443-0.931c0.201-0.223,0.475-0.385,0.82-0.486
	c0.346-0.101,0.779-0.151,1.299-0.151h2.422v-1.492h-2.271C281.956,473.607,280.885,473.932,280.1,474.581z M398.273,487.825
	l3.057,3.057l3.057-3.057l-3.057-3.057L398.273,487.825z M343.322,482.322c0.389-0.418,0.854-0.749,1.395-0.994
	s1.135-0.368,1.783-0.368c0.736,0,1.373,0.076,1.914,0.228s1.121,0.414,1.74,0.789l0.715-1.405c-0.707-0.39-1.393-0.674-2.055-0.854
	c-0.664-0.181-1.436-0.271-2.314-0.271c-0.85,0-1.639,0.155-2.367,0.465c-0.729,0.311-1.367,0.746-1.914,1.309
	c-0.549,0.563-0.98,1.222-1.297,1.979c-0.317,0.757-0.476,1.59-0.476,2.498s0.158,1.74,0.476,2.497
	c0.316,0.757,0.748,1.413,1.297,1.969c0.547,0.555,1.186,0.987,1.914,1.297c0.729,0.311,1.518,0.465,2.367,0.465
	c0.879,0,1.65-0.09,2.314-0.27c0.662-0.181,1.348-0.466,2.055-0.854l-0.715-1.406c-0.619,0.375-1.199,0.639-1.74,0.79
	s-1.178,0.227-1.914,0.227c-0.648,0-1.242-0.119-1.783-0.356c-0.541-0.238-1.006-0.565-1.395-0.984
	c-0.391-0.418-0.693-0.915-0.908-1.492c-0.217-0.576-0.324-1.203-0.324-1.881s0.107-1.305,0.324-1.882
	C342.628,483.238,342.931,482.741,343.322,482.322z M404.387,487.825l1.949,1.95l1.951-1.95l-1.951-1.95L404.387,487.825z
	 M410.701,487.326l-0.664,0.433l0.633,0.564l241.176-0.341L410.701,487.326z M362.611,481.295c-0.549-0.569-1.193-1.02-1.936-1.352
	c-0.742-0.331-1.547-0.497-2.412-0.497c-0.863,0-1.668,0.166-2.41,0.497c-0.742,0.332-1.389,0.782-1.936,1.352
	c-0.549,0.57-0.977,1.229-1.287,1.979c-0.311,0.749-0.465,1.557-0.465,2.422s0.154,1.672,0.465,2.422s0.738,1.409,1.287,1.979
	c0.547,0.569,1.193,1.017,1.936,1.341s1.547,0.486,2.41,0.486c0.865,0,1.67-0.162,2.412-0.486s1.387-0.771,1.936-1.341
	c0.547-0.569,0.977-1.229,1.287-1.979c0.309-0.75,0.465-1.557,0.465-2.422s-0.156-1.673-0.465-2.422
	C363.587,482.524,363.158,481.865,362.611,481.295z M362.394,487.523c-0.217,0.569-0.52,1.067-0.908,1.492
	c-0.389,0.426-0.857,0.765-1.406,1.017c-0.547,0.252-1.152,0.378-1.816,0.378c-0.662,0-1.268-0.126-1.816-0.378
	c-0.547-0.252-1.016-0.591-1.404-1.017c-0.391-0.425-0.693-0.923-0.908-1.492c-0.217-0.569-0.324-1.179-0.324-1.827
	c0-0.649,0.107-1.262,0.324-1.839c0.215-0.576,0.518-1.077,0.908-1.503c0.389-0.425,0.857-0.764,1.404-1.016
	c0.549-0.252,1.154-0.379,1.816-0.379c0.664,0,1.27,0.127,1.816,0.379c0.549,0.252,1.018,0.591,1.406,1.016
	c0.389,0.426,0.691,0.927,0.908,1.503c0.217,0.577,0.324,1.189,0.324,1.839C362.718,486.345,362.611,486.954,362.394,487.523z
	 M296.221,481.295c-0.547-0.569-1.191-1.02-1.936-1.352c-0.742-0.331-1.545-0.497-2.41-0.497s-1.67,0.166-2.412,0.497
	c-0.742,0.332-1.387,0.782-1.936,1.352c-0.547,0.57-0.977,1.229-1.285,1.979c-0.311,0.749-0.465,1.557-0.465,2.422
	s0.154,1.672,0.465,2.422c0.309,0.75,0.738,1.409,1.285,1.979c0.549,0.569,1.193,1.017,1.936,1.341s1.547,0.486,2.412,0.486
	s1.668-0.162,2.41-0.486c0.744-0.324,1.389-0.771,1.936-1.341c0.549-0.569,0.977-1.229,1.287-1.979s0.465-1.557,0.465-2.422
	s-0.154-1.673-0.465-2.422C297.198,482.524,296.77,481.865,296.221,481.295z M296.006,487.523c-0.217,0.569-0.52,1.067-0.908,1.492
	c-0.391,0.426-0.859,0.765-1.406,1.017c-0.549,0.252-1.154,0.378-1.816,0.378c-0.664,0-1.27-0.126-1.816-0.378
	c-0.549-0.252-1.018-0.591-1.406-1.017c-0.389-0.425-0.691-0.923-0.908-1.492s-0.324-1.179-0.324-1.827
	c0-0.649,0.107-1.262,0.324-1.839c0.217-0.576,0.52-1.077,0.908-1.503c0.389-0.425,0.857-0.764,1.406-1.016
	c0.547-0.252,1.152-0.379,1.816-0.379c0.662,0,1.268,0.127,1.816,0.379c0.547,0.252,1.016,0.591,1.406,1.016
	c0.389,0.426,0.691,0.927,0.908,1.503c0.215,0.577,0.324,1.189,0.324,1.839C296.331,486.345,296.221,486.954,296.006,487.523z
	 M309.381,480.463c-0.455-0.39-0.996-0.656-1.623-0.801c-0.627-0.144-1.309-0.216-2.043-0.216c-0.707,0-1.465,0.047-2.271,0.141
	s-1.701,0.234-2.682,0.422v11.699h1.535v-10.402c1.184-0.23,2.293-0.346,3.33-0.346c0.592,0,1.111,0.062,1.559,0.184
	c0.445,0.123,0.818,0.332,1.113,0.628c0.295,0.295,0.525,0.713,0.691,1.254s0.25,1.251,0.25,2.13v6.553h1.535v-7.201
	c0-0.995-0.119-1.82-0.357-2.477C310.18,481.375,309.834,480.852,309.381,480.463z M318.516,490.054
	c-0.346-0.108-0.619-0.277-0.82-0.509c-0.203-0.23-0.35-0.547-0.443-0.951c-0.096-0.403-0.141-0.922-0.141-1.557v-5.86h4.973v-1.492
	h-4.973v-4.347h-1.537v4.347h-2.551v1.492h2.551v6.466c0,0.764,0.109,1.405,0.326,1.925c0.215,0.519,0.525,0.937,0.93,1.254
	c0.402,0.317,0.867,0.544,1.395,0.682c0.525,0.137,1.105,0.205,1.74,0.205h2.271v-1.492h-2.422
	C319.295,490.216,318.862,490.162,318.516,490.054z M337.784,489.589c-0.316,0-0.59,0.115-0.82,0.346s-0.346,0.505-0.346,0.822
	c0,0.316,0.115,0.591,0.346,0.821s0.504,0.346,0.82,0.346c0.318,0,0.592-0.115,0.822-0.346s0.346-0.505,0.346-0.821
	c0-0.317-0.115-0.592-0.346-0.822S338.102,489.589,337.784,489.589z M333.178,486.106c-0.346-0.303-0.785-0.565-1.318-0.789
	c-0.533-0.223-1.182-0.422-1.947-0.595l-0.799-0.173c-1.053-0.216-1.781-0.461-2.184-0.735c-0.404-0.273-0.607-0.678-0.607-1.211
	c0-0.504,0.238-0.904,0.715-1.2c0.475-0.295,1.174-0.443,2.098-0.443c0.793,0,1.477,0.076,2.055,0.228
	c0.576,0.151,1.217,0.421,1.924,0.811l0.691-1.405c-1.412-0.765-2.969-1.146-4.67-1.146c-0.635,0-1.223,0.076-1.764,0.228
	c-0.539,0.151-1.008,0.364-1.404,0.638s-0.711,0.605-0.941,0.994c-0.23,0.39-0.346,0.815-0.346,1.276
	c0,0.462,0.072,0.88,0.217,1.254c0.143,0.375,0.381,0.707,0.713,0.995s0.758,0.537,1.275,0.746c0.52,0.209,1.146,0.4,1.883,0.573
	l0.908,0.194c1.008,0.217,1.729,0.49,2.162,0.822c0.432,0.331,0.648,0.771,0.648,1.318c0,0.39-0.086,0.707-0.26,0.952
	c-0.172,0.245-0.414,0.436-0.725,0.573c-0.311,0.137-0.678,0.237-1.102,0.303c-0.426,0.064-0.877,0.097-1.352,0.097
	c-0.592,0-1.223-0.09-1.893-0.271c-0.67-0.18-1.352-0.479-2.045-0.897l-0.734,1.471c0.779,0.433,1.539,0.742,2.281,0.93
	s1.539,0.281,2.391,0.281c0.748,0,1.434-0.072,2.053-0.216c0.621-0.145,1.158-0.36,1.611-0.648c0.455-0.289,0.805-0.649,1.049-1.082
	c0.246-0.433,0.369-0.93,0.369-1.492c0-0.476-0.072-0.915-0.217-1.318C333.77,486.763,333.526,486.41,333.178,486.106z"/>
</svg>

