<?xml version="1.0" encoding="utf-8"?>
<!-- Generator: Adobe Illustrator 23.0.0, SVG Export Plug-In . SVG Version: 6.00 Build 0)  -->
<svg version="1.1" id="Layer_1" xmlns="http://www.w3.org/2000/svg" xmlns:xlink="http://www.w3.org/1999/xlink" x="0px" y="0px"
	 viewBox="0 0 800 500"  xml:space="preserve">

<path fill="#000000" id="XMLID_935_" class="st0" d="M258.58,120.96V67.61h-2.36v53.35l-9.58,9.57l9.58,9.58v58.78h2.36V140.1l9.57-9.58
	L258.58,120.96z M257.4,137.53l-1.18-1.18l-5.82-5.82l5.82-5.82l1.18-1.18l1.18,1.18l5.82,5.82l-5.82,5.82L257.4,137.53z"/>
<path fill="#000000" id="XMLID_932_" class="st0" d="M256.2,428v26.9h2.36V428l9.58-9.57l-9.58-9.58v-58.78h-2.36v58.78l-9.57,9.58L256.2,428z
	 M257.38,411.43l1.18,1.18l5.82,5.82l-5.82,5.82l-1.18,1.18l-1.18-1.18l-5.82-5.82l5.82-5.82L257.38,411.43z"/>
<g id="XMLID_874_">
	<g id="XMLID_1237_">
		<path fill="#000000" id="XMLID_1239_" d="M542.56,106.03h-0.97h-8.45h-0.97h-8.44h-0.97h-8.45v-9.41h-10.38v9.41V107v9.41h9.41h0.97h8.45h0.97
			h8.44h0.97h8.45v8.44h-8.45h-0.97h-8.44h-0.97h-8.45h-0.97h-9.41v9.41v0.97v8.44h-8.45h-0.97h-8.44v-8.44h9.41v-10.38h-9.41v-8.44
			h9.41V107v-0.97v-8.12h0.68l-0.68-0.68v-0.6h-0.6l-8.81-8.81v-0.28h-0.28l-0.68-0.68v0.68h-8.45v-0.68l-0.68,0.68h-0.28v0.28
			l-8.81,8.81h-0.6v0.6l-0.68,0.68h0.68v8.12V107v9.41h9.41v8.44h-8.44h-0.97h-8.45v-8.44v-0.97V107h0V96.9l0,0v-3.18l2.27-2.27l0,0
			l6.66-6.66l0,0l6.66-6.66l0.68-0.68l5.97-5.97l5.97,5.97l0,0l7.34,7.34l0,0l5.97,5.97l-0.48,0.48h0.97l0.2,0.2l0.2-0.2h14.28
			l-7.14-7.14l0,0l-7.34-7.34l0,0l-6.66-6.66l0,0l-5.97-5.97l0,0l-7.34-7.34l-6.66,6.66l-0.68,0.68l-5.97,5.97l0,0l-7.34,7.34
			l-6.66,6.66l0,0l-3.74,3.74l-1.57,1.57v2.69v5.07l-0.69,0.69h0.69v8.17h0h-8.44h-0.97h-9.41v9.41v0.97v8.44h-0.68l0.68,0.68v0.28
			h0.28l9.13,9.13v0.28h0.28l0.68,0.68v-0.68h8.44h0.97h8.45h0.97h8.45h0.97h8.44v8.44h-8.44h-0.97h-8.45h-0.97h-8.44v0h-9.79
			l3.69,3.69l-3.31,3.31l-3.38,3.38h2.41h0.97h8.44v0h9.41h0.97h8.45h0.97h8.44v8.44v0.97v8.44v0.97v8.44v0.97v8.44v0.97v9.41h10.38
			v-9.41v-0.97v-8.44v-0.97v-8.44v-0.97v-8.44v-0.97v-8.44h8.44h0.97h8.45h0.97h8.44h0.97h8.45h0.97h9.41v-9.41v-0.97v-8.44h8.45
			h0.97h9.41v-9.41v-0.97v-8.44v-0.97v-9.41H542.56z M522.77,143.68h-8.45v-8.44h8.45V143.68z M485.12,97.91v8.12h-8.45v-8.12
			H485.12z M447.46,124.86h-8.44v-8.44h8.44V124.86z"/>
		<rect id="XMLID_868_" x="541.59" y="143.68" width="10.38" height="10.38"/>
	</g>
	<g id="XMLID_1230_">
		<path fill="#000000" id="XMLID_1232_" d="M436.37,88.15L436.37,88.15l7.34-7.34l-6.66-6.66l0,0l-0.23-0.23l-0.46-0.46l0,0l-5.97-5.97l5.97-5.97
			l0,0l7.34-7.34l-6.66-6.66l0,0l-7.34-7.34l-6.66-6.66l-7.34,7.34l0,0l-6.66,6.66l-5.97,5.97l-6.66,6.66l0,0l0,0l-6.66-6.66
			l-7.34,7.34l6.66,6.66l0,0l0.34,0.34l0.34,0.34l0,0l6.66,6.66l6.66-6.66l0,0l0.34-0.34l0.34-0.34l0,0l6.66-6.66l5.97-5.97
			l0.68-0.68l5.97-5.97l5.97,5.97l-6.66,6.66l0,0l-6.66,6.66l-6.66,6.66l0,0l-6.66,6.66l6.66,6.66l0.68,0.68l5.97,5.97l0,0
			l-6.66,6.66l-5.97,5.97l0,0l-5.97-5.97l6.66-6.66l-7.34-7.34l-6.66,6.66l0,0l-5.97-5.97l6.66-6.66l-6.32-6.32l0.11-0.11
			l-6.77-6.77l0.37-0.37h-0.74l-0.2-0.2l-0.2,0.2h-13.14l-0.2-0.2l-0.2,0.2h-0.97l0.48,0.48l-5.97,5.97l-0.48-0.48v0.97l-0.2,0.2
			l0.2,0.2v12.46l-0.43,0.43l0.43,0.43v0.97l0.48-0.48l6.09,6.09l7,7l6.66-6.66l5.97,5.97l-5.97,5.97l-0.68,0.68l-5.97,5.97
			l-5.97-5.97l0,0l-0.34-0.34l-0.34-0.34l0,0l-5.97-5.97l0,0l-7.14-7.14l0,0l-2.25-2.25v-3.21h0v-9.41v-0.97v-8.44v-0.97v-8.44h8.44
			h0.97h8.44h0.97h8.44v0.68l0.68-0.68h0.28v-0.28l10.1-10.1h-10.1h-0.97h-8.44h-0.97h-8.44h-0.97h-8.44h-0.97h-9.41v9.41v0.97v8.44
			v0.97v8.44v0.97v9.41h0v5.29v2.22l1.9,1.9l3.58,3.58v0.97l0.49-0.49l5.77,5.77l0,0l-5.97,5.97l-0.68,0.68l-6.66,6.66l6.66,6.66
			l0.68,0.68l5.97,5.97l-0.48,0.48h0.97l0.2,0.2l0.2-0.2h12.91l0.2,0.2l0.2-0.2h0.97l-0.48-0.48l6.31-6.31l6.31-6.31l0,0l7.34-7.34
			l0,0l5.97-5.97l5.97,5.97l-5.97,5.97l0,0l-6.66,6.66l-0.68,0.68l-5.97,5.97l0,0l-6.92,6.92h5.22v4.69v1.37v3.41l1.7-1.7l0.68-0.68
			l5.97-5.97l0,0l6.66-6.66l0.68-0.68l5.97-5.97l6.66-6.66l0,0l5.97,5.97l6.66,6.66l0,0l6.66,6.66l6.66,6.66l0,0l0.23,0.23
			l0.46,0.46l0,0l6.66,6.66l7.34-7.34l-6.66-6.66l0,0l-0.23-0.23l-0.46-0.46l0,0l-6.66-6.66l-5.97-5.97l-6.66-6.66l0,0l-6.66-6.66
			l0,0l6.66-6.66l6.66-6.66l0,0l6.2-6.2L436.37,88.15z M356.5,126.71l-5.97-5.97l5.97-5.97l0,0l5.97,5.97L356.5,126.71L356.5,126.71
			z M370.04,75.06l0.11-0.11l5.74,5.74l-6.08,6.08l-5.74-5.74L370.04,75.06L370.04,75.06z M417.09,80.81l5.97-5.97l5.97,5.97
			l-5.97,5.97L417.09,80.81z"/>
		
			<rect id="XMLID_863_" x="444.49" y="62.3" transform="matrix(0.7071 -0.7071 0.7071 0.7071 83.9917 337.7526)" width="10.38" height="10.38"/>
	</g>
	<g id="XMLID_1223_">
		<rect id="XMLID_862_" x="318.28" y="73.42" width="10.38" height="10.38"/>
		<path fill="#000000" id="XMLID_1224_" d="M328.67,139.31v-17.86v-0.97V92.25h-18.83V73.42h-9.41h-0.97h-18.83v37.65h-9.41v10.38h19.79V83.8h8.44
			v37.65l18.83,0v17.86h-8.44v-9.41h-10.38v9.41h-8.44v-9.41h-19.79v0.6l-8.81,8.81h-0.28v0.28l-0.68,0.68h0.68v9.13l9.09,9.09v0.6
			h19.79v-9.41h8.44v17.86H281.6v0l-13.28,0l-2.27-2.27l0,0l-14-14l0,0l-5.97-5.97l19.77-19.77v-14.68l-34.45,34.45l6.66,6.66
			l6.66,6.66l0,0l0.45,0.45l0.24,0.24l0,0l13.31,13.31l0,0l5.31,5.31h7.75l0.69,0.69v-0.69h8.17v8.45v0.97v9.41h18.83v0.68
			l0.68-0.68h0.28v-0.28l9.41-9.41V149.7h8.44l0,37.05l3.69-3.69l6.69,6.69l0-40.06h47.07v-10.38H328.67z M318.28,102.63v8.44h-8.44
			v-8.44H318.28z M291.01,186.38v-8.44h8.44v8.44H291.01z M280.63,140.28v8.44h-8.12v-8.44H280.63z"/>
	</g>
	<g id="XMLID_1216_">
		<path fill="#000000" id="XMLID_1218_" d="M322.65,248.93l-6.65-6.65l0,0l-7.34-7.34l0,0l-6.66-6.66l-5.97-5.97l0,0l6.31-6.31l6.31-6.31l0,0
			l0.34-0.34l0.34-0.34l0,0l6.31-6.31l6.31-6.31l0,0l0.34-0.34l0.34-0.34l0,0l6.66-6.66l-7.34-7.34l-6.66,6.66l0,0l-0.34,0.34
			l-0.34,0.34l0,0l-6.66,6.66l-5.97,5.97l-0.68,0.68l-5.97,5.97l-0.68,0.68l-5.97,5.97l0,0l-6.31-6.31l-6.31-6.31l0,0l-0.34-0.34
			l-0.34-0.34l0,0l-6.66-6.66l-5.97-5.97l-7.34-7.34l-6.66,6.66l-0.68,0.68L242.1,195l0,0l-6.31-6.31l-7-7l-6.66,6.66l-0.68,0.68
			l-5.97,5.97l-0.68,0.68l-6.66,6.66l6.66,6.66l0,0l0.34,0.34l0.34,0.34l0,0l6.31,6.31l6.31,6.31l0,0l6.66,6.66l-6.66,6.66
			l7.34,7.34l6.66-6.66l0,0l7.34-7.34l-6.66-6.66l-0.68-0.68l-5.97-5.97l-0.68-0.68l-5.97-5.97l-6.66-6.66l0,0l5.97-5.97l5.97,5.97
			l0.68,0.68l5.97,5.97l0.68,0.68l5.97,5.97l0.68,0.68l6.66,6.66l7.34-7.34l5.97-5.97l0,0l6.31,6.31l6.31,6.31l0,0l-5.97,5.97l0,0
			l-6.66-6.66l-7.34,7.34l6.66,6.66l-5.97,5.97l-6.66-6.66l-7.34,7.34l0,0l-5.74,5.74l-0.48-0.48v0.97l-0.2,0.2l0.2,0.2v12.91
			l-0.2,0.2l0.2,0.2v0.97l0.48-0.48l5.97,5.97l-0.48,0.48h0.97l0.2,0.2l0.2-0.2h12.46l0.43,0.43l0.43-0.43h0.97l-0.48-0.48
			l5.74-5.74l7.34-7.34l-6.66-6.66l5.97-5.97l5.97,5.97l0,0l0.46,0.46l0.23,0.23l0,0l5.97,5.97l-5.97,5.97l0,0l-6.66,6.66l0,0
			l-7.14,7.14l0,0l-2.25,2.25h-3.21v0h-9.41h-0.97h-8.44h-0.97h-8.44v-8.45v-0.97v-8.44v-0.97v-8.45h0.68l-0.68-0.68v-0.28h-0.28
			l-10.1-10.1v10.1v0.97v8.45v0.97v8.44v0.97v8.45v0.97v9.41h9.41h0.97h8.44h0.97h8.44h0.97h9.41v0h5.29h2.22l1.9-1.9l3.58-3.58
			h0.97l-0.49-0.49l5.77-5.77l5.97,5.97l0,0l7.34,7.34l7.34-7.34l0,0l5.97-5.97l0.48,0.48v-0.97l0.2-0.2l-0.2-0.2v-12.91l0.2-0.2
			l-0.2-0.2v-0.97l-0.48,0.48L302,254.9l-5.97-5.97l-6.66-6.66l0,0l-0.46-0.46l-0.23-0.23l0,0l-5.97-5.97l5.97-5.97l0,0l5.97,5.97
			l0.68,0.68l5.97,5.97l6.65,6.65l0,0l6.92,6.92v-5.22h4.69h1.37h3.41L322.65,248.93L322.65,248.93z M295.35,274.87l-5.97-5.97
			l5.97-5.97l5.97,5.97L295.35,274.87z M255.41,196.37L255.41,196.37l5.97,5.97l-5.97,5.97l-5.97-5.97L255.41,196.37z
			 M255.64,261.33L255.64,261.33l-5.97-5.97l5.74-5.74l5.97,5.97L255.64,261.33z"/>
		
			<rect id="XMLID_853_" x="236.91" y="170.53" transform="matrix(0.7071 -0.7071 0.7071 0.7071 -53.343 222.645)" width="10.38" height="10.38"/>
	</g>
	<g id="XMLID_1209_">
		<path fill="#000000" id="XMLID_1211_" d="M372.05,325.94l-0.68-0.68v-0.28h-0.28l-9.13-9.13v-0.28h-0.28l-0.68-0.68v0.68h-8.44h-0.97h-8.44h-0.97
			h-8.44h-0.97h-8.44v-8.44h8.44h0.97h8.44h0.97h8.44v0h9.79l-3.69-3.69l3.31-3.31l3.38-3.38h-2.41h-0.97h-8.44v0h-9.41h-0.97h-8.44
			h-0.97h-8.44v-8.44v-0.97v-8.45v-0.97v-8.44v-0.97v-8.45v-0.97v-9.41h-10.38v9.41v0.97v8.45v0.97v8.44v0.97v8.45v0.97v8.44h-8.44
			h-0.97h-8.45h-0.97h-8.45h-0.97h-8.44h-0.97h-9.41v9.41v0.97v8.44h-8.44h-0.97h-9.41v9.41v0.97v8.44v0.97v9.41h9.41h0.97h8.44
			h0.97h8.44h0.97h8.44v9.41h10.38v-9.41v-0.97v-9.41h-9.41h-0.97h-8.44v0h-9.41h-0.97h-8.44v-8.44h8.44h0.97h8.44h0.97h8.44h0.97
			h9.41v-9.41h0v-9.41h8.44h0.97h8.44v8.44h-9.41v10.38h9.41v8.44h-9.41v9.41v0.97v8.12h-0.68l0.68,0.68v0.6h0.6l8.81,8.81v0.28
			h0.28l0.68,0.68v-0.68h8.44v0.68l0.68-0.68h0.28v-0.28l8.81-8.81h0.61v-0.61l0.68-0.68h-0.68v-8.12v-0.97v-9.41h-9.41v0v-8.44
			h8.44h0.97h8.44v8.44v0.97v8.45h0v10.09l0,0v3.18l-2.27,2.27l0,0l-7.11,7.11l-6.2,6.2l0,0l-6.66,6.66l0,0l-6.66-6.66l-5.97-5.97
			l-6.66-6.66l0.48-0.48l-0.97,0l-0.2-0.2l-0.2,0.2l-14.28,0l7.14,7.14l0,0l0.45,0.45l0.24,0.24l0,0l6.66,6.66l6.66,6.66l0,0
			l5.97,5.97l0,0l7.34,7.34l7.11-7.11l6.2-6.2l0,0l6.66-6.66l7.34-7.34l0,0l5.31-5.31v-2.69v-5.07l0.69-0.69h-0.69v-8.17h0h8.44
			h0.97h9.41v-9.41v-0.97v-8.45H372.05z M352.54,334.38v-8.44h8.44v8.45L352.54,334.38L352.54,334.38z M314.89,352.89v-8.12h8.44
			v8.12H314.89z M285.68,315.56h-8.44v-8.44h8.44V315.56z"/>
		<rect id="XMLID_848_" x="248.03" y="296.73" width="10.38" height="10.38"/>
	</g>
	<g id="XMLID_1202_">
		
			<rect id="XMLID_847_" x="345.13" y="378.11" transform="matrix(0.7071 -0.7071 0.7071 0.7071 -168.427 359.9623)" width="10.38" height="10.38"/>
		<path fill="#000000" id="XMLID_1203_" d="M462.58,357.33v-2.23l-1.9-1.9l-3.58-3.58v-0.97l-0.49,0.49l-5.77-5.77l5.97-5.97l0,0l0.34-0.34
			l0.34-0.34l0,0l6.66-6.66l-7.34-7.34l0,0l-5.97-5.97l0.48-0.48h-0.97l-0.2-0.2l-0.2,0.2h-12.91l-0.2-0.2l-0.2,0.2h-0.97l0.48,0.48
			l-5.97,5.97l-0.68,0.68l-5.97,5.97l-0.68,0.68l-5.97,5.97l-0.68,0.68l-5.97,5.97l-5.97-5.97l0,0l6.66-6.66l5.97-5.97l6.65-6.65
			l0,0l6.92-6.92h-5.22v-4.69v-1.37v-3.41l-1.7,1.7l-0.68,0.68l-5.97,5.97l0,0l-6.66,6.66l-0.68,0.68l-5.97,5.97l-0.68,0.68
			l-5.97,5.97l-6.66-6.66l-6.66-6.66l0,0l-6.2-6.2l-6.43-6.43l0,0l-0.46-0.46l-0.23-0.23l0,0l-6.66-6.66l-7.34,7.34l6.66,6.66l0,0
			l0.46,0.46l0.23,0.23l0,0l6.66,6.66l6.66,6.66l0,0l6.2,6.2l6.43,6.43l0,0l-5.97,5.97l-6.66,6.66l0,0l-6.66,6.66l-0.68,0.68
			l-6.66,6.66l0,0l-6.66,6.66l7.34,7.34l5.97,5.97l-5.97,5.97l-7.34,7.34l7.34,7.34l0,0l5.97,5.97l0.68,0.68l6.66,6.66l6.66-6.66
			l0,0l7.34-7.34l0,0l6.66-6.66l5.97-5.97l6.66,6.66l7.34-7.34l-6.66-6.66l-0.68-0.68l-6.66-6.66l-6.66,6.66l-6.66,6.66l0,0
			l-7.34,7.34l0,0l-5.97,5.97l-5.97-5.97l0,0l5.97-5.97l6.66-6.66l0,0l6.66-6.66l7.34-7.34l-6.66-6.66l0,0l-6.66-6.66l5.97-5.97
			l6.66-6.66l0,0l5.97,5.97l-6.66,6.66l7.34,7.34l6.66-6.66l5.97,5.97l0,0l-6.66,6.66l7.34,7.34l0,0l5.75,5.74l-0.48,0.48h0.97
			l0.43,0.43l0.43-0.43h12.46l0.2,0.2l0.2-0.2h0.97l-0.48-0.48l5.97-5.97l0.48,0.48v-0.97l0.2-0.2l-0.2-0.2v-12.46l0.43-0.43
			l-0.43-0.43v-0.97l-0.48,0.48l-5.74-5.74l-0.68-0.68l-6.66-6.66l-6.66,6.66l0,0l-5.97-5.97l5.97-5.97l0,0l6.66-6.66l5.97,5.97
			l0.68,0.68l5.97,5.97l0,0l7.14,7.14l0,0l2.25,2.25v3.21h0v9.41V373v8.45v0.97v8.44h-8.45h-0.97h-8.44h-0.97h-8.45v-0.68
			l-0.68,0.68h-0.28v0.28l-10.1,10.1h10.1h0.97h8.45h0.97h8.44h0.97h8.45h0.97h9.41v-9.41v-0.97v-8.44v-0.97V373v-0.97v-9.41h0
			V357.33z M376.94,375.96L376.94,375.96l-5.97-5.97l0,0l5.97-5.97l5.97,5.97L376.94,375.96z M435.94,369.76L435.94,369.76
			l-5.97,5.97l-5.74-5.74l0,0l5.97-5.97L435.94,369.76z M437.53,330.05L437.53,330.05l5.97-5.97l5.97,5.97l0,0l-5.97,5.97
			L437.53,330.05z"/>
	</g>
	<g id="XMLID_873_">
		<rect id="XMLID_876_" x="471.33" y="366.99" width="10.38" height="10.38"/>
		<path fill="#000000" id="XMLID_961_" d="M568.6,305.48l-6.66-6.66l0,0l-6.66-6.66l0,0l-6.66-6.66v0l-7.34-7.34l0,0l-5.31-5.31h-2.69h-5.07
			l-0.69-0.69v0.69h-8.17v0v-8.44v-0.97v-9.41h-9.41h-0.97h-8.45v-0.68l-0.68,0.68h-0.28v0.28l-9.13,9.13h-0.28v0.28l-0.68,0.68
			h0.68v8.44v0.97v8.45v0.97v8.45v0.97v8.44h-8.44v-8.44v-0.97v-8.45v-0.97v-8.44h0v-9.79l-3.69,3.69l-3.31-3.31l-3.38-3.38v2.41
			v0.97v8.44h0v9.41v0.97v8.45v0.97v8.44h-8.44h-0.97h-8.45h-0.97h-8.44h-0.97h-8.45h-0.97h-9.41v10.38h9.41h0.97h8.45h0.97h8.44
			h0.97h8.45h0.97h8.44v8.44v0.97v8.45v0.97v8.44v0.97v8.45v0.97v9.41h9.41h0.97h8.44v8.45v0.97v9.41h9.41h0.97h8.44h0.97h9.41
			v-9.41v-0.97v-8.45v-0.97v-8.44v-0.97v-8.45h9.41v-10.38h-9.41h-0.97h-9.41v9.41v0.97v8.45h0v9.41v0.97v8.45h-8.44v-8.45v-0.97
			v-8.44v-0.97v-8.45v-0.97v-9.41h-9.41h-0.97h-8.44v-8.45v-0.97v-8.44h8.44v9.41h10.38v-9.41h8.44v9.41h9.08h1.31h8.12v0.68
			l0.68-0.68h0.27v-0.27l9.15-9.15h0.28v-0.28l0.68-0.68h-0.68v-8.45h0.68l-0.68-0.68v-0.28h-0.28l-8.81-8.81v-0.61h-0.61
			l-0.68-0.68v0.68h-8.12h-0.97h-9.41v9.41h0h-8.44v-8.44v-0.97v-8.45h8.44h0.97h8.45v0h10.09l0,0h3.18l2.27,2.27l0,0l6.66,6.66
			l0.68,0.68l5.97,5.97l0.68,0.68l5.97,5.97l-5.97,5.97l-0.68,0.68l-5.97,5.97l-0.68,0.68l-5.97,5.97l-0.48-0.48v0.97l-0.2,0.2
			l0.2,0.2l0,14.28l7.14-7.14l0,0l7.34-7.34l0,0l5.97-5.97l0,0l7.34-7.34l0,0L568.6,305.48z M519.37,302.07h8.12v8.45h-8.12V302.07z
			 M490.16,348.16h-8.44v-8.45h8.44V348.16z M500.54,264.41h8.45v8.44h0h-8.44V264.41z"/>
	</g>
	<g id="XMLID_875_">
		<path fill="#000000" id="XMLID_877_" d="M591.87,248.45l-6.66-6.66l-0.68-0.68l-6.66-6.66l0,0l-6.43-6.43l-6.2-6.2l0,0l0,0l6.66-6.66l-7.34-7.34
			l-7.34,7.34l0,0l-6.66,6.66l6.66,6.66l0,0l6.66,6.66l0.68,0.68l6.66,6.66l0,0l5.97,5.97l-5.97,5.97l0,0l-5.97-5.97l-0.68-0.68
			l-5.97-5.97l-0.68-0.68l-5.97-5.97l-0.68-0.68l-6.66-6.66l-6.66,6.66l0,0l-6.66,6.66l-5.97-5.97l-0.68-0.68l-5.97-5.97l0,0
			l5.97-5.97l6.66,6.66l7.34-7.34l-6.66-6.66l0,0l5.97-5.97l0,0l6.66,6.66l6.3-6.3l0.13,0.13l6.78-6.78l0.36,0.36v-0.72l0.2-0.2
			l-0.2-0.2v-13.16l0.2-0.2l-0.2-0.2v-0.97l-0.48,0.48l-5.97-5.97l0.48-0.48h-0.97l-0.2-0.2l-0.2,0.2h-12.46l-0.43-0.43l-0.43,0.43
			h-0.97l0.48,0.48l-6.43,6.43l-6.66,6.66l6.66,6.66l0,0l-5.97,5.97l-5.97-5.97l-6.66-6.66l6.66-6.66l0,0l5.97-5.97l0,0l7.14-7.14
			l0-0.01l2.25-2.25h3.21v0h9.41h0.97h8.45h0.97h8.44v8.44v0.97v8.44v0.97v8.44h-0.68l0.68,0.68v0.28h0.28l10.1,10.1v-10.1v-0.97
			v-8.44v-0.97v-8.44v-0.97v-8.44v-0.97v-9.41h-9.41h-0.97h-8.44h-0.97h-8.45h-0.97h-9.41v0h-5.29h-2.23l-1.9,1.9l-3.58,3.58h-0.97
			l0.49,0.49l-5.77,5.77l-5.97-5.97l0,0l-0.23-0.23l-0.46-0.46l0,0l-6.66-6.66l-7.34,7.34l0,0l-5.97,5.97l-0.48-0.48v0.97l-0.2,0.2
			l0.2,0.2v12.91l-0.2,0.2l0.2,0.2v0.97l0.48-0.48l5.97,5.97l6.66,6.66l0,0l0.23,0.23l0.46,0.46l0,0l6.66,6.66l5.97,5.97l0,0
			l-5.97,5.97l-6.66-6.66l-5.97-5.97l-6.65-6.65l0,0l-6.92-6.92v5.22h-4.69h-1.37h-3.41l2.39,2.39l5.97,5.97l0,0l6.66,6.66
			l6.66,6.66l0,0l6.66,6.66l-5.97,5.97l-0.68,0.68l-5.97,5.97l-0.68,0.68l-5.97,5.97l-6.66,6.66l0,0l-0.34,0.34l-0.34,0.34l0,0
			l-6.66,6.66l7.34,7.34l6.66-6.66l0,0l0.34-0.34l0.34-0.34l0,0l6.66-6.66l5.97-5.97l0.68-0.68l5.97-5.97l6.66-6.66l0,0l5.97,5.97
			l0.68,0.68l5.97,5.97l0.68,0.68l5.97,5.97l6.66,6.66l0,0l0.34,0.34l0.34,0.34l0,0l6.66,6.66l7.34-7.34l0,0l5.97-5.97l5.97,5.97
			l0,0l7.34,7.34l6.66-6.66l0,0l0.34-0.34l0.34-0.34l0,0l6.66-6.66L591.87,248.45z M498.68,181.89l5.97-5.97l0,0l5.97,5.97
			l-5.97,5.97L498.68,181.89L498.68,181.89z M550.46,195.56l-5.74,5.74l-6.1-6.1l5.75-5.74l5.97,5.97l0,0L550.46,195.56z
			 M544.59,254.42l-5.97-5.97l5.97-5.97l0,0l5.97,5.97L544.59,254.42L544.59,254.42z"/>
		
			<rect id="XMLID_470_" x="552.71" y="269.89" transform="matrix(0.7071 -0.7071 0.7071 0.7071 -31.1033 475.0653)" width="10.38" height="10.38"/>
	</g>
</g>
<path fill="#000000" d="M273.602,481.306c-0.578-0.576-1.301-1.03-2.174-1.362c-0.873-0.331-1.885-0.497-3.039-0.497
	c-0.663,0-1.463,0.079-2.4,0.238v-6.077h-1.535v17.711c0.706,0.202,1.402,0.354,2.087,0.454s1.301,0.151,1.849,0.151
	c1.153,0,2.166-0.162,3.039-0.486s1.596-0.764,2.174-1.319c0.576-0.555,1.006-1.211,1.287-1.968s0.42-1.561,0.42-2.411
	s-0.139-1.657-0.42-2.422C274.608,482.554,274.178,481.883,273.602,481.306z M272.391,489.167c-0.852,0.829-2.17,1.243-3.958,1.243
	c-0.39,0-0.805-0.032-1.244-0.097c-0.439-0.065-0.84-0.134-1.2-0.206v-8.845c0.447-0.115,0.887-0.194,1.319-0.237
	c0.433-0.044,0.808-0.065,1.125-0.065c0.894,0,1.668,0.112,2.325,0.335c0.656,0.224,1.199,0.545,1.633,0.963
	c0.432,0.418,0.752,0.919,0.961,1.503s0.314,1.243,0.314,1.979C273.667,487.195,273.241,488.338,272.391,489.167z M247.392,479.446
	c-0.62,0-1.297,0.079-2.033,0.238c-0.735,0.158-1.485,0.433-2.249,0.821l-0.065,1.73c0.548-0.303,0.973-0.52,1.276-0.649
	s0.624-0.237,0.962-0.324c0.338-0.086,0.677-0.158,1.016-0.216s0.667-0.087,0.984-0.087c1.139,0,1.982,0.249,2.53,0.746
	s0.822,1.33,0.822,2.498v0.13c-0.332-0.044-0.732-0.087-1.2-0.13c-0.469-0.043-0.876-0.065-1.222-0.065
	c-1.831,0-3.302,0.311-4.412,0.931c-1.11,0.619-1.665,1.644-1.665,3.07c0,0.707,0.155,1.305,0.465,1.795
	c0.31,0.49,0.713,0.88,1.211,1.168s1.067,0.497,1.708,0.627c0.641,0.13,1.308,0.194,2,0.194c0.807,0,1.6-0.072,2.378-0.216
	c0.779-0.145,1.536-0.368,2.271-0.671v-7.028c0-1.585-0.397-2.742-1.189-3.471C250.189,479.811,248.992,479.446,247.392,479.446z
	 M250.636,489.892c-0.375,0.144-0.858,0.267-1.449,0.367c-0.591,0.102-1.183,0.151-1.773,0.151c-0.505,0-0.984-0.035-1.438-0.108
	c-0.454-0.071-0.84-0.197-1.157-0.378c-0.317-0.18-0.57-0.414-0.757-0.703c-0.188-0.288-0.281-0.663-0.281-1.124
	c0-0.52,0.111-0.934,0.335-1.244c0.224-0.31,0.533-0.551,0.93-0.724c0.396-0.174,0.85-0.296,1.362-0.368
	c0.511-0.072,1.041-0.108,1.589-0.108c0.476,0,0.984,0.029,1.524,0.087c0.541,0.058,0.912,0.108,1.114,0.151V489.892z
	 M258.032,479.868c-0.649,0.122-1.276,0.263-1.881,0.422v11.418h1.535v-10.186c0.202-0.072,0.563-0.147,1.082-0.228
	c0.519-0.079,1.002-0.118,1.449-0.118h1.989v-1.492H260C259.336,479.685,258.681,479.746,258.032,479.868z M-77.92,487.667
	l241.145,0.656l0.663-0.433l-0.632-0.564L-77.92,487.667z M164.994,487.825l1.95,1.95l1.95-1.95l-1.95-1.95L164.994,487.825z
	 M169.559,487.825l3.057,3.057l3.057-3.057l-3.057-3.057L169.559,487.825z M212.359,489.286l-3.395-9.602h-1.514l-3.396,9.602
	l-2.984-9.602h-1.73l3.979,12.023h1.428l3.46-9.645l3.46,9.645h1.427l3.979-12.023h-1.73L212.359,489.286z M238.418,489.589
	c-0.317,0-0.591,0.115-0.822,0.346c-0.231,0.23-0.346,0.505-0.346,0.822c0,0.316,0.115,0.591,0.346,0.821
	c0.23,0.23,0.504,0.346,0.822,0.346c0.317,0,0.591-0.115,0.822-0.346c0.23-0.23,0.346-0.505,0.346-0.821
	c0-0.317-0.116-0.592-0.346-0.822C239.009,489.704,238.735,489.589,238.418,489.589z M193.243,489.286l-3.395-9.602h-1.514
	l-3.396,9.602l-2.984-9.602h-1.73l3.979,12.023h1.428l3.46-9.645l3.46,9.645h1.427l3.979-12.023h-1.73L193.243,489.286z
	 M231.476,489.286l-3.395-9.602h-1.514l-3.396,9.602l-2.984-9.602h-1.73l3.979,12.023h1.428l3.46-9.645l3.46,9.645h1.427
	l3.979-12.023h-1.73L231.476,489.286z M382.732,480.474c-0.426-0.396-0.938-0.667-1.535-0.812c-0.598-0.144-1.271-0.216-2.021-0.216
	c-0.664,0-1.393,0.09-2.184,0.271c-0.793,0.181-1.471,0.4-2.033,0.659c-0.346-0.331-0.818-0.569-1.416-0.714
	c-0.6-0.144-1.273-0.216-2.023-0.216c-0.635,0-1.268,0.058-1.902,0.173l-2.465,0.454v11.635h1.535v-10.38
	c0.447-0.102,0.883-0.188,1.309-0.26c0.424-0.072,0.896-0.108,1.416-0.108c0.605,0,1.125,0.058,1.557,0.173
	c0.434,0.116,0.789,0.321,1.07,0.616c0.281,0.296,0.494,0.711,0.639,1.244s0.217,1.24,0.217,2.119v6.596h1.535v-7.201
	c0-0.663-0.055-1.243-0.162-1.741c-0.109-0.497-0.213-0.861-0.314-1.092c0.086-0.043,0.281-0.119,0.584-0.228
	c0.303-0.107,0.602-0.197,0.898-0.27c0.295-0.072,0.586-0.126,0.875-0.162s0.547-0.055,0.779-0.055c0.59,0,1.102,0.058,1.535,0.173
	c0.432,0.116,0.781,0.317,1.049,0.605c0.266,0.289,0.471,0.703,0.615,1.244c0.145,0.54,0.217,1.251,0.217,2.13v6.596h1.535v-7.201
	c0-0.995-0.111-1.816-0.336-2.466C383.482,481.393,383.158,480.87,382.732,480.474z M280.1,474.581
	c-0.785,0.648-1.18,1.729-1.18,3.243v1.86h-2.551v1.492h2.551v10.531h1.537v-10.531h4.973v-1.492h-4.973v-1.471
	c0-0.635,0.045-1.149,0.141-1.546c0.094-0.396,0.24-0.707,0.443-0.931c0.201-0.223,0.475-0.385,0.82-0.486
	c0.346-0.101,0.779-0.151,1.299-0.151h2.422v-1.492h-2.271C281.956,473.607,280.885,473.932,280.1,474.581z M398.273,487.825
	l3.057,3.057l3.057-3.057l-3.057-3.057L398.273,487.825z M343.322,482.322c0.389-0.418,0.854-0.749,1.395-0.994
	s1.135-0.368,1.783-0.368c0.736,0,1.373,0.076,1.914,0.228s1.121,0.414,1.74,0.789l0.715-1.405c-0.707-0.39-1.393-0.674-2.055-0.854
	c-0.664-0.181-1.436-0.271-2.314-0.271c-0.85,0-1.639,0.155-2.367,0.465c-0.729,0.311-1.367,0.746-1.914,1.309
	c-0.549,0.563-0.98,1.222-1.297,1.979c-0.317,0.757-0.476,1.59-0.476,2.498s0.158,1.74,0.476,2.497
	c0.316,0.757,0.748,1.413,1.297,1.969c0.547,0.555,1.186,0.987,1.914,1.297c0.729,0.311,1.518,0.465,2.367,0.465
	c0.879,0,1.65-0.09,2.314-0.27c0.662-0.181,1.348-0.466,2.055-0.854l-0.715-1.406c-0.619,0.375-1.199,0.639-1.74,0.79
	s-1.178,0.227-1.914,0.227c-0.648,0-1.242-0.119-1.783-0.356c-0.541-0.238-1.006-0.565-1.395-0.984
	c-0.391-0.418-0.693-0.915-0.908-1.492c-0.217-0.576-0.324-1.203-0.324-1.881s0.107-1.305,0.324-1.882
	C342.628,483.238,342.931,482.741,343.322,482.322z M404.387,487.825l1.949,1.95l1.951-1.95l-1.951-1.95L404.387,487.825z
	 M410.701,487.326l-0.664,0.433l0.633,0.564l241.176-0.341L410.701,487.326z M362.611,481.295c-0.549-0.569-1.193-1.02-1.936-1.352
	c-0.742-0.331-1.547-0.497-2.412-0.497c-0.863,0-1.668,0.166-2.41,0.497c-0.742,0.332-1.389,0.782-1.936,1.352
	c-0.549,0.57-0.977,1.229-1.287,1.979c-0.311,0.749-0.465,1.557-0.465,2.422s0.154,1.672,0.465,2.422s0.738,1.409,1.287,1.979
	c0.547,0.569,1.193,1.017,1.936,1.341s1.547,0.486,2.41,0.486c0.865,0,1.67-0.162,2.412-0.486s1.387-0.771,1.936-1.341
	c0.547-0.569,0.977-1.229,1.287-1.979c0.309-0.75,0.465-1.557,0.465-2.422s-0.156-1.673-0.465-2.422
	C363.587,482.524,363.158,481.865,362.611,481.295z M362.394,487.523c-0.217,0.569-0.52,1.067-0.908,1.492
	c-0.389,0.426-0.857,0.765-1.406,1.017c-0.547,0.252-1.152,0.378-1.816,0.378c-0.662,0-1.268-0.126-1.816-0.378
	c-0.547-0.252-1.016-0.591-1.404-1.017c-0.391-0.425-0.693-0.923-0.908-1.492c-0.217-0.569-0.324-1.179-0.324-1.827
	c0-0.649,0.107-1.262,0.324-1.839c0.215-0.576,0.518-1.077,0.908-1.503c0.389-0.425,0.857-0.764,1.404-1.016
	c0.549-0.252,1.154-0.379,1.816-0.379c0.664,0,1.27,0.127,1.816,0.379c0.549,0.252,1.018,0.591,1.406,1.016
	c0.389,0.426,0.691,0.927,0.908,1.503c0.217,0.577,0.324,1.189,0.324,1.839C362.718,486.345,362.611,486.954,362.394,487.523z
	 M296.221,481.295c-0.547-0.569-1.191-1.02-1.936-1.352c-0.742-0.331-1.545-0.497-2.41-0.497s-1.67,0.166-2.412,0.497
	c-0.742,0.332-1.387,0.782-1.936,1.352c-0.547,0.57-0.977,1.229-1.285,1.979c-0.311,0.749-0.465,1.557-0.465,2.422
	s0.154,1.672,0.465,2.422c0.309,0.75,0.738,1.409,1.285,1.979c0.549,0.569,1.193,1.017,1.936,1.341s1.547,0.486,2.412,0.486
	s1.668-0.162,2.41-0.486c0.744-0.324,1.389-0.771,1.936-1.341c0.549-0.569,0.977-1.229,1.287-1.979s0.465-1.557,0.465-2.422
	s-0.154-1.673-0.465-2.422C297.198,482.524,296.77,481.865,296.221,481.295z M296.006,487.523c-0.217,0.569-0.52,1.067-0.908,1.492
	c-0.391,0.426-0.859,0.765-1.406,1.017c-0.549,0.252-1.154,0.378-1.816,0.378c-0.664,0-1.27-0.126-1.816-0.378
	c-0.549-0.252-1.018-0.591-1.406-1.017c-0.389-0.425-0.691-0.923-0.908-1.492s-0.324-1.179-0.324-1.827
	c0-0.649,0.107-1.262,0.324-1.839c0.217-0.576,0.52-1.077,0.908-1.503c0.389-0.425,0.857-0.764,1.406-1.016
	c0.547-0.252,1.152-0.379,1.816-0.379c0.662,0,1.268,0.127,1.816,0.379c0.547,0.252,1.016,0.591,1.406,1.016
	c0.389,0.426,0.691,0.927,0.908,1.503c0.215,0.577,0.324,1.189,0.324,1.839C296.331,486.345,296.221,486.954,296.006,487.523z
	 M309.381,480.463c-0.455-0.39-0.996-0.656-1.623-0.801c-0.627-0.144-1.309-0.216-2.043-0.216c-0.707,0-1.465,0.047-2.271,0.141
	s-1.701,0.234-2.682,0.422v11.699h1.535v-10.402c1.184-0.23,2.293-0.346,3.33-0.346c0.592,0,1.111,0.062,1.559,0.184
	c0.445,0.123,0.818,0.332,1.113,0.628c0.295,0.295,0.525,0.713,0.691,1.254s0.25,1.251,0.25,2.13v6.553h1.535v-7.201
	c0-0.995-0.119-1.82-0.357-2.477C310.18,481.375,309.834,480.852,309.381,480.463z M318.516,490.054
	c-0.346-0.108-0.619-0.277-0.82-0.509c-0.203-0.23-0.35-0.547-0.443-0.951c-0.096-0.403-0.141-0.922-0.141-1.557v-5.86h4.973v-1.492
	h-4.973v-4.347h-1.537v4.347h-2.551v1.492h2.551v6.466c0,0.764,0.109,1.405,0.326,1.925c0.215,0.519,0.525,0.937,0.93,1.254
	c0.402,0.317,0.867,0.544,1.395,0.682c0.525,0.137,1.105,0.205,1.74,0.205h2.271v-1.492h-2.422
	C319.295,490.216,318.862,490.162,318.516,490.054z M337.784,489.589c-0.316,0-0.59,0.115-0.82,0.346s-0.346,0.505-0.346,0.822
	c0,0.316,0.115,0.591,0.346,0.821s0.504,0.346,0.82,0.346c0.318,0,0.592-0.115,0.822-0.346s0.346-0.505,0.346-0.821
	c0-0.317-0.115-0.592-0.346-0.822S338.102,489.589,337.784,489.589z M333.178,486.106c-0.346-0.303-0.785-0.565-1.318-0.789
	c-0.533-0.223-1.182-0.422-1.947-0.595l-0.799-0.173c-1.053-0.216-1.781-0.461-2.184-0.735c-0.404-0.273-0.607-0.678-0.607-1.211
	c0-0.504,0.238-0.904,0.715-1.2c0.475-0.295,1.174-0.443,2.098-0.443c0.793,0,1.477,0.076,2.055,0.228
	c0.576,0.151,1.217,0.421,1.924,0.811l0.691-1.405c-1.412-0.765-2.969-1.146-4.67-1.146c-0.635,0-1.223,0.076-1.764,0.228
	c-0.539,0.151-1.008,0.364-1.404,0.638s-0.711,0.605-0.941,0.994c-0.23,0.39-0.346,0.815-0.346,1.276
	c0,0.462,0.072,0.88,0.217,1.254c0.143,0.375,0.381,0.707,0.713,0.995s0.758,0.537,1.275,0.746c0.52,0.209,1.146,0.4,1.883,0.573
	l0.908,0.194c1.008,0.217,1.729,0.49,2.162,0.822c0.432,0.331,0.648,0.771,0.648,1.318c0,0.39-0.086,0.707-0.26,0.952
	c-0.172,0.245-0.414,0.436-0.725,0.573c-0.311,0.137-0.678,0.237-1.102,0.303c-0.426,0.064-0.877,0.097-1.352,0.097
	c-0.592,0-1.223-0.09-1.893-0.271c-0.67-0.18-1.352-0.479-2.045-0.897l-0.734,1.471c0.779,0.433,1.539,0.742,2.281,0.93
	s1.539,0.281,2.391,0.281c0.748,0,1.434-0.072,2.053-0.216c0.621-0.145,1.158-0.36,1.611-0.648c0.455-0.289,0.805-0.649,1.049-1.082
	c0.246-0.433,0.369-0.93,0.369-1.492c0-0.476-0.072-0.915-0.217-1.318C333.77,486.763,333.526,486.41,333.178,486.106z"/>
</svg>

