<?xml version="1.0" encoding="utf-8"?>
<!-- Generator: Adobe Illustrator 23.0.0, SVG Export Plug-In . SVG Version: 6.00 Build 0)  -->
<svg version="1.1" id="Layer_1" xmlns="http://www.w3.org/2000/svg" xmlns:xlink="http://www.w3.org/1999/xlink" x="0px" y="0px"
	 viewBox="0 0 800 500" xml:space="preserve">

<path fill="#000000" id="XMLID_935_" class="st0" d="M258.58,120.96V67.61h-2.36v53.35l-9.58,9.57l9.58,9.58v58.78h2.36V140.1l9.57-9.58
	L258.58,120.96z M257.4,137.53l-1.18-1.18l-5.82-5.82l5.82-5.82l1.18-1.18l1.18,1.18l5.82,5.82l-5.82,5.82L257.4,137.53z"/>
<path fill="#000000" id="XMLID_932_" class="st0" d="M256.2,428v26.9h2.36V428l9.58-9.57l-9.58-9.58v-58.78h-2.36v58.78l-9.57,9.58L256.2,428z
	 M257.38,411.43l1.18,1.18l5.82,5.82l-5.82,5.82l-1.18,1.18l-1.18-1.18l-5.82-5.82l5.82-5.82L257.38,411.43z"/>
<g id="XMLID_1177_">
	<g id="XMLID_1184_">
		<path fill="#000000" id="XMLID_1221_" d="M506.39,372.84c-6.12-5.33-13.87-8.6-21.22-11.83c-5.34-2.34-21.6-6.56-22.4-14.1
			c-0.6-5.59,3.86-12.22,6.02-17.1c2.95-6.7,5.63-13.6,6.46-20.92c1.02-9-1.22-17.91-4.66-26.17
			c-9.59-22.97-24.83-43.35-35.89-65.64c-18.1-36.47-32.85-76.28-34.76-116.79c0.11-1.28-1.09-10.96-1.09-10.96
			s-1.95,9.67-1.89,10.95c-3.98,46.56-22.93,90.54-45.22,131.67c-11.88,21.92-31.67,46.19-31.38,72.37c0.11,9.59,14.99,9.61,14.89,0
			c-0.11-10.43,4.5-20.07,9.23-29.12c7.26-13.87,15.59-27.16,22.93-40.99c13.7-25.8,23.62-46.92,30.16-74.92
			c4.36,21.08,10.82,35.71,19.72,55.67c10.86,24.38,26.63,45.99,38.1,69.99c3.44,7.19,5.73,14.85,5.08,22.87
			c-1.09,13.39-11.35,24.3-12.6,37.73c-0.54,5.83,1.62,10.51,5.21,14.35c-1.03,1.16-1.75,2.69-1.87,4.64
			c-0.07,1.16-0.07,2.29-0.03,3.4c-0.17,9.31-1.31,20.24-9.16,26.02c-10.49,7.71-20.42,2.77-29.28-3.72
			c9.36-3.87,18.02-7.78,20.94-20.31c2.77-11.86-3.31-21.37-12.62-26.31c10.06-16.84,12.31-35.19,6.48-55.18
			c-2.94-10.08-7.74-19.65-12.29-29.07c-3.68-7.61-17.24-31.64-17.24-31.64s-11.18,22.92-14.64,29.98
			c-4.85,9.91-9.78,19.74-13.41,30.18c-6.83,19.62-4.74,38.62,5.08,55.62c-8.84,4.6-14.5,13.33-12.93,24.74
			c1.84,13.38,11.08,17.87,21.06,22.09c-8.51,6.27-16.62,10.26-27.52,4.64c-9.34-4.82-10.63-17.28-10.82-27.07
			c0.03-1.1,0.03-2.22-0.04-3.37c-0.12-2.06-0.92-3.66-2.05-4.84c2.35-2.68,4.14-5.8,4.98-9.43c2.08-8.97-3.21-18.12-6.75-25.98
			c-3.94-8.74-16.77-1.16-12.86,7.51c2.9,6.43,8.11,13.77,1.98,19.56c-8.45,7.98-22.85,10.67-32.99,16.29
			c-15.39,8.52-17.43,21.49-17.92,37.77c-0.15,4.91,4.86,8.38,9.42,7.18c14.84-3.89,33.94-9.98,45.63-21.44
			c2.74,6.63,7.09,12.46,13.9,16.67c18.25,11.29,34.45,1.44,49.19-9.69c0.22-0.17,0.45-0.32,0.67-0.49
			c0.24,0.16,0.48,0.32,0.71,0.49c7.15,5.13,13.32,10.67,21.77,13.64c8.21,2.88,18.01,0.21,25.65-3.03
			c7.97-3.38,12.84-9.88,15.79-17.46c11.7,11.39,30.72,17.44,45.51,21.32c4.57,1.2,9.57-2.27,9.42-7.18
			C516.46,393.32,516.16,381.36,506.39,372.84z M294.3,395.63c0.33-3.81,1.21-7.49,3.64-10.23c7.03-7.92,20.39-11.46,29.72-15.5
			c0.68-0.3,1.37-0.61,2.05-0.94C327.56,384.08,309.36,391.28,294.3,395.63z M386.56,354.98c6.8-0.71,9.4-7.42,5.26-12.71
			c-15.28-19.52-12.38-41-2.79-62.28c2.91-6.45,6.67-13.02,9.91-19.78c3.13,6.75,6.72,13.33,9.64,19.87
			c9.56,21.4,10.83,43.03-4.4,62.19c-4.19,5.27-1.5,12,5.26,12.71c8.93,0.94,12.98,9.99,7.1,17.05c-3.56,4.26-9.34,4.55-14.24,6.23
			c-1.54,0.53-3.02,1.18-4.47,1.92c-0.78-0.4-1.55-0.81-2.37-1.16c-4.84-2.11-10.48-2.22-14.68-5.66
			C372.98,366.95,377,355.98,386.56,354.98z M466.29,368.99c5.91,2.92,12.09,5.17,16.65,7.23c5.63,2.55,12.88,5.49,16.42,10.88
			c1.56,2.38,2.16,5.41,2.4,8.54C486.71,391.31,468.47,384.11,466.29,368.99z"/>
		<g id="XMLID_1206_">
			
				<ellipse id="XMLID_1169_" transform="matrix(0.0453 -0.999 0.999 0.0453 -53.8677 612.5543)" cx="293.55" cy="334.46" rx="21.66" ry="21.66"/>
			
				<ellipse id="XMLID_1168_" transform="matrix(0.0453 -0.999 0.999 0.0453 -10.5902 571.1954)" cx="293.55" cy="291.14" rx="21.66" ry="21.66"/>
			<rect id="XMLID_1167_" x="291.93" y="194.71" width="3.23" height="161.07"/>
			<circle id="XMLID_1166_" cx="293.55" cy="239.78" r="6.6"/>
			<g id="XMLID_1207_">
				<path fill="#000000" id="XMLID_1208_" d="M294.28,198.01l-11.55-4.18l-5.21-11.12l4.18-11.55l11.12-5.21l11.55,4.18l5.21,11.12l-4.18,11.55
					L294.28,198.01z M285.63,190.66l8.46,3.06l8.15-3.82l3.06-8.46l-3.82-8.15l-8.46-3.06l-8.15,3.82l-3.06,8.46L285.63,190.66z"/>
			</g>
		</g>
		<g id="XMLID_1194_">
			
				<ellipse id="XMLID_1162_" transform="matrix(0.0453 -0.999 0.999 0.0453 171.021 804.5534)" cx="506.45" cy="312.8" rx="21.66" ry="21.66"/>
			<rect id="XMLID_1161_" x="504.83" y="194.71" width="3.23" height="161.07"/>
			<circle id="XMLID_1160_" cx="506.45" cy="239.78" r="6.6"/>
			<g id="XMLID_1196_">
				<path fill="#000000" id="XMLID_1197_" d="M507.18,198.01l-11.55-4.18l-5.21-11.12l4.18-11.55l11.12-5.21l11.55,4.18l5.21,11.12l-4.18,11.55
					L507.18,198.01z M498.52,190.66l8.46,3.06l8.15-3.82l3.06-8.46l-3.82-8.15l-8.46-3.06l-8.15,3.82l-3.06,8.46L498.52,190.66z"/>
			</g>
		</g>
		<g id="XMLID_1185_">
			<rect id="XMLID_1156_" x="396.75" y="56.77" width="3.23" height="97.26"/>
			<circle id="XMLID_1155_" cx="398.37" cy="101.84" r="6.6"/>
			<g id="XMLID_1187_">
				<path fill="#000000" id="XMLID_1188_" d="M399.1,60.07l-11.55-4.18l-5.21-11.12l4.18-11.55L397.64,28l11.55,4.18l5.21,11.12l-4.18,11.55
					L399.1,60.07z M390.45,52.71l8.46,3.06l8.15-3.82l3.06-8.46l-3.82-8.15l-8.46-3.06l-8.15,3.82l-3.06,8.46L390.45,52.71z"/>
			</g>
		</g>
	</g>
	<g id="XMLID_1178_">
		<path fill="#000000" id="XMLID_1149_" d="M453.08,359.89c0,0,6.66,6.12,13.21,9.1c0.88,3.61,0.77,5.53,3.54,8.84c2.77,3.31-8.37,7.52-8.37,7.52
			s-12.45,0.29-11.62-4.5s1.05-10.91,1.19-12.87c0.14-1.96,0.27-4.18,0.55-5.45C451.86,361.27,453.08,359.89,453.08,359.89z"/>
		<path fill="#000000" id="XMLID_1148_" d="M342.91,359.89c0,0-6.66,6.12-13.21,9.1c-0.88,3.61-0.77,5.53-3.54,8.84c-2.77,3.31,8.37,7.52,8.37,7.52
			s12.45,0.29,11.62-4.5c-0.83-4.79-1.05-10.91-1.19-12.87c-0.14-1.96-0.27-4.18-0.55-5.45
			C344.12,361.27,342.91,359.89,342.91,359.89z"/>
		<path fill="#000000" id="XMLID_1147_" d="M383.16,390.33c0,0,3.44-0.99,14.83,7.32c-3.34,2.47-12,8.28-12,8.28l-12.3-9.93
			c0,0,2.63-1.14,4.77-2.53S383.16,390.33,383.16,390.33z"/>
		<path fill="#000000" id="XMLID_1143_" d="M412.83,390.33c0,0-3.44-0.99-14.83,7.32c3.34,2.47,12,8.28,12,8.28l12.3-9.93c0,0-2.63-1.14-4.77-2.53
			S412.83,390.33,412.83,390.33z"/>
	</g>
</g>
<path fill="#000000" d="M273.602,481.306c-0.578-0.576-1.301-1.03-2.174-1.362c-0.873-0.331-1.885-0.497-3.039-0.497
	c-0.663,0-1.463,0.079-2.4,0.238v-6.077h-1.535v17.711c0.706,0.202,1.402,0.354,2.087,0.454s1.301,0.151,1.849,0.151
	c1.153,0,2.166-0.162,3.039-0.486s1.596-0.764,2.174-1.319c0.576-0.555,1.006-1.211,1.287-1.968s0.42-1.561,0.42-2.411
	s-0.139-1.657-0.42-2.422C274.608,482.554,274.178,481.883,273.602,481.306z M272.391,489.167c-0.852,0.829-2.17,1.243-3.958,1.243
	c-0.39,0-0.805-0.032-1.244-0.097c-0.439-0.065-0.84-0.134-1.2-0.206v-8.845c0.447-0.115,0.887-0.194,1.319-0.237
	c0.433-0.044,0.808-0.065,1.125-0.065c0.894,0,1.668,0.112,2.325,0.335c0.656,0.224,1.199,0.545,1.633,0.963
	c0.432,0.418,0.752,0.919,0.961,1.503s0.314,1.243,0.314,1.979C273.667,487.195,273.241,488.338,272.391,489.167z M247.392,479.446
	c-0.62,0-1.297,0.079-2.033,0.238c-0.735,0.158-1.485,0.433-2.249,0.821l-0.065,1.73c0.548-0.303,0.973-0.52,1.276-0.649
	s0.624-0.237,0.962-0.324c0.338-0.086,0.677-0.158,1.016-0.216s0.667-0.087,0.984-0.087c1.139,0,1.982,0.249,2.53,0.746
	s0.822,1.33,0.822,2.498v0.13c-0.332-0.044-0.732-0.087-1.2-0.13c-0.469-0.043-0.876-0.065-1.222-0.065
	c-1.831,0-3.302,0.311-4.412,0.931c-1.11,0.619-1.665,1.644-1.665,3.07c0,0.707,0.155,1.305,0.465,1.795
	c0.31,0.49,0.713,0.88,1.211,1.168s1.067,0.497,1.708,0.627c0.641,0.13,1.308,0.194,2,0.194c0.807,0,1.6-0.072,2.378-0.216
	c0.779-0.145,1.536-0.368,2.271-0.671v-7.028c0-1.585-0.397-2.742-1.189-3.471C250.189,479.811,248.992,479.446,247.392,479.446z
	 M250.636,489.892c-0.375,0.144-0.858,0.267-1.449,0.367c-0.591,0.102-1.183,0.151-1.773,0.151c-0.505,0-0.984-0.035-1.438-0.108
	c-0.454-0.071-0.84-0.197-1.157-0.378c-0.317-0.18-0.57-0.414-0.757-0.703c-0.188-0.288-0.281-0.663-0.281-1.124
	c0-0.52,0.111-0.934,0.335-1.244c0.224-0.31,0.533-0.551,0.93-0.724c0.396-0.174,0.85-0.296,1.362-0.368
	c0.511-0.072,1.041-0.108,1.589-0.108c0.476,0,0.984,0.029,1.524,0.087c0.541,0.058,0.912,0.108,1.114,0.151V489.892z
	 M258.032,479.868c-0.649,0.122-1.276,0.263-1.881,0.422v11.418h1.535v-10.186c0.202-0.072,0.563-0.147,1.082-0.228
	c0.519-0.079,1.002-0.118,1.449-0.118h1.989v-1.492H260C259.336,479.685,258.681,479.746,258.032,479.868z M-77.92,487.667
	l241.145,0.656l0.663-0.433l-0.632-0.564L-77.92,487.667z M164.994,487.825l1.95,1.95l1.95-1.95l-1.95-1.95L164.994,487.825z
	 M169.559,487.825l3.057,3.057l3.057-3.057l-3.057-3.057L169.559,487.825z M212.359,489.286l-3.395-9.602h-1.514l-3.396,9.602
	l-2.984-9.602h-1.73l3.979,12.023h1.428l3.46-9.645l3.46,9.645h1.427l3.979-12.023h-1.73L212.359,489.286z M238.418,489.589
	c-0.317,0-0.591,0.115-0.822,0.346c-0.231,0.23-0.346,0.505-0.346,0.822c0,0.316,0.115,0.591,0.346,0.821
	c0.23,0.23,0.504,0.346,0.822,0.346c0.317,0,0.591-0.115,0.822-0.346c0.23-0.23,0.346-0.505,0.346-0.821
	c0-0.317-0.116-0.592-0.346-0.822C239.009,489.704,238.735,489.589,238.418,489.589z M193.243,489.286l-3.395-9.602h-1.514
	l-3.396,9.602l-2.984-9.602h-1.73l3.979,12.023h1.428l3.46-9.645l3.46,9.645h1.427l3.979-12.023h-1.73L193.243,489.286z
	 M231.476,489.286l-3.395-9.602h-1.514l-3.396,9.602l-2.984-9.602h-1.73l3.979,12.023h1.428l3.46-9.645l3.46,9.645h1.427
	l3.979-12.023h-1.73L231.476,489.286z M382.732,480.474c-0.426-0.396-0.938-0.667-1.535-0.812c-0.598-0.144-1.271-0.216-2.021-0.216
	c-0.664,0-1.393,0.09-2.184,0.271c-0.793,0.181-1.471,0.4-2.033,0.659c-0.346-0.331-0.818-0.569-1.416-0.714
	c-0.6-0.144-1.273-0.216-2.023-0.216c-0.635,0-1.268,0.058-1.902,0.173l-2.465,0.454v11.635h1.535v-10.38
	c0.447-0.102,0.883-0.188,1.309-0.26c0.424-0.072,0.896-0.108,1.416-0.108c0.605,0,1.125,0.058,1.557,0.173
	c0.434,0.116,0.789,0.321,1.07,0.616c0.281,0.296,0.494,0.711,0.639,1.244s0.217,1.24,0.217,2.119v6.596h1.535v-7.201
	c0-0.663-0.055-1.243-0.162-1.741c-0.109-0.497-0.213-0.861-0.314-1.092c0.086-0.043,0.281-0.119,0.584-0.228
	c0.303-0.107,0.602-0.197,0.898-0.27c0.295-0.072,0.586-0.126,0.875-0.162s0.547-0.055,0.779-0.055c0.59,0,1.102,0.058,1.535,0.173
	c0.432,0.116,0.781,0.317,1.049,0.605c0.266,0.289,0.471,0.703,0.615,1.244c0.145,0.54,0.217,1.251,0.217,2.13v6.596h1.535v-7.201
	c0-0.995-0.111-1.816-0.336-2.466C383.482,481.393,383.158,480.87,382.732,480.474z M280.1,474.581
	c-0.785,0.648-1.18,1.729-1.18,3.243v1.86h-2.551v1.492h2.551v10.531h1.537v-10.531h4.973v-1.492h-4.973v-1.471
	c0-0.635,0.045-1.149,0.141-1.546c0.094-0.396,0.24-0.707,0.443-0.931c0.201-0.223,0.475-0.385,0.82-0.486
	c0.346-0.101,0.779-0.151,1.299-0.151h2.422v-1.492h-2.271C281.956,473.607,280.885,473.932,280.1,474.581z M398.273,487.825
	l3.057,3.057l3.057-3.057l-3.057-3.057L398.273,487.825z M343.322,482.322c0.389-0.418,0.854-0.749,1.395-0.994
	s1.135-0.368,1.783-0.368c0.736,0,1.373,0.076,1.914,0.228s1.121,0.414,1.74,0.789l0.715-1.405c-0.707-0.39-1.393-0.674-2.055-0.854
	c-0.664-0.181-1.436-0.271-2.314-0.271c-0.85,0-1.639,0.155-2.367,0.465c-0.729,0.311-1.367,0.746-1.914,1.309
	c-0.549,0.563-0.98,1.222-1.297,1.979c-0.317,0.757-0.476,1.59-0.476,2.498s0.158,1.74,0.476,2.497
	c0.316,0.757,0.748,1.413,1.297,1.969c0.547,0.555,1.186,0.987,1.914,1.297c0.729,0.311,1.518,0.465,2.367,0.465
	c0.879,0,1.65-0.09,2.314-0.27c0.662-0.181,1.348-0.466,2.055-0.854l-0.715-1.406c-0.619,0.375-1.199,0.639-1.74,0.79
	s-1.178,0.227-1.914,0.227c-0.648,0-1.242-0.119-1.783-0.356c-0.541-0.238-1.006-0.565-1.395-0.984
	c-0.391-0.418-0.693-0.915-0.908-1.492c-0.217-0.576-0.324-1.203-0.324-1.881s0.107-1.305,0.324-1.882
	C342.628,483.238,342.931,482.741,343.322,482.322z M404.387,487.825l1.949,1.95l1.951-1.95l-1.951-1.95L404.387,487.825z
	 M410.701,487.326l-0.664,0.433l0.633,0.564l241.176-0.341L410.701,487.326z M362.611,481.295c-0.549-0.569-1.193-1.02-1.936-1.352
	c-0.742-0.331-1.547-0.497-2.412-0.497c-0.863,0-1.668,0.166-2.41,0.497c-0.742,0.332-1.389,0.782-1.936,1.352
	c-0.549,0.57-0.977,1.229-1.287,1.979c-0.311,0.749-0.465,1.557-0.465,2.422s0.154,1.672,0.465,2.422s0.738,1.409,1.287,1.979
	c0.547,0.569,1.193,1.017,1.936,1.341s1.547,0.486,2.41,0.486c0.865,0,1.67-0.162,2.412-0.486s1.387-0.771,1.936-1.341
	c0.547-0.569,0.977-1.229,1.287-1.979c0.309-0.75,0.465-1.557,0.465-2.422s-0.156-1.673-0.465-2.422
	C363.587,482.524,363.158,481.865,362.611,481.295z M362.394,487.523c-0.217,0.569-0.52,1.067-0.908,1.492
	c-0.389,0.426-0.857,0.765-1.406,1.017c-0.547,0.252-1.152,0.378-1.816,0.378c-0.662,0-1.268-0.126-1.816-0.378
	c-0.547-0.252-1.016-0.591-1.404-1.017c-0.391-0.425-0.693-0.923-0.908-1.492c-0.217-0.569-0.324-1.179-0.324-1.827
	c0-0.649,0.107-1.262,0.324-1.839c0.215-0.576,0.518-1.077,0.908-1.503c0.389-0.425,0.857-0.764,1.404-1.016
	c0.549-0.252,1.154-0.379,1.816-0.379c0.664,0,1.27,0.127,1.816,0.379c0.549,0.252,1.018,0.591,1.406,1.016
	c0.389,0.426,0.691,0.927,0.908,1.503c0.217,0.577,0.324,1.189,0.324,1.839C362.718,486.345,362.611,486.954,362.394,487.523z
	 M296.221,481.295c-0.547-0.569-1.191-1.02-1.936-1.352c-0.742-0.331-1.545-0.497-2.41-0.497s-1.67,0.166-2.412,0.497
	c-0.742,0.332-1.387,0.782-1.936,1.352c-0.547,0.57-0.977,1.229-1.285,1.979c-0.311,0.749-0.465,1.557-0.465,2.422
	s0.154,1.672,0.465,2.422c0.309,0.75,0.738,1.409,1.285,1.979c0.549,0.569,1.193,1.017,1.936,1.341s1.547,0.486,2.412,0.486
	s1.668-0.162,2.41-0.486c0.744-0.324,1.389-0.771,1.936-1.341c0.549-0.569,0.977-1.229,1.287-1.979s0.465-1.557,0.465-2.422
	s-0.154-1.673-0.465-2.422C297.198,482.524,296.77,481.865,296.221,481.295z M296.006,487.523c-0.217,0.569-0.52,1.067-0.908,1.492
	c-0.391,0.426-0.859,0.765-1.406,1.017c-0.549,0.252-1.154,0.378-1.816,0.378c-0.664,0-1.27-0.126-1.816-0.378
	c-0.549-0.252-1.018-0.591-1.406-1.017c-0.389-0.425-0.691-0.923-0.908-1.492s-0.324-1.179-0.324-1.827
	c0-0.649,0.107-1.262,0.324-1.839c0.217-0.576,0.52-1.077,0.908-1.503c0.389-0.425,0.857-0.764,1.406-1.016
	c0.547-0.252,1.152-0.379,1.816-0.379c0.662,0,1.268,0.127,1.816,0.379c0.547,0.252,1.016,0.591,1.406,1.016
	c0.389,0.426,0.691,0.927,0.908,1.503c0.215,0.577,0.324,1.189,0.324,1.839C296.331,486.345,296.221,486.954,296.006,487.523z
	 M309.381,480.463c-0.455-0.39-0.996-0.656-1.623-0.801c-0.627-0.144-1.309-0.216-2.043-0.216c-0.707,0-1.465,0.047-2.271,0.141
	s-1.701,0.234-2.682,0.422v11.699h1.535v-10.402c1.184-0.23,2.293-0.346,3.33-0.346c0.592,0,1.111,0.062,1.559,0.184
	c0.445,0.123,0.818,0.332,1.113,0.628c0.295,0.295,0.525,0.713,0.691,1.254s0.25,1.251,0.25,2.13v6.553h1.535v-7.201
	c0-0.995-0.119-1.82-0.357-2.477C310.18,481.375,309.834,480.852,309.381,480.463z M318.516,490.054
	c-0.346-0.108-0.619-0.277-0.82-0.509c-0.203-0.23-0.35-0.547-0.443-0.951c-0.096-0.403-0.141-0.922-0.141-1.557v-5.86h4.973v-1.492
	h-4.973v-4.347h-1.537v4.347h-2.551v1.492h2.551v6.466c0,0.764,0.109,1.405,0.326,1.925c0.215,0.519,0.525,0.937,0.93,1.254
	c0.402,0.317,0.867,0.544,1.395,0.682c0.525,0.137,1.105,0.205,1.74,0.205h2.271v-1.492h-2.422
	C319.295,490.216,318.862,490.162,318.516,490.054z M337.784,489.589c-0.316,0-0.59,0.115-0.82,0.346s-0.346,0.505-0.346,0.822
	c0,0.316,0.115,0.591,0.346,0.821s0.504,0.346,0.82,0.346c0.318,0,0.592-0.115,0.822-0.346s0.346-0.505,0.346-0.821
	c0-0.317-0.115-0.592-0.346-0.822S338.102,489.589,337.784,489.589z M333.178,486.106c-0.346-0.303-0.785-0.565-1.318-0.789
	c-0.533-0.223-1.182-0.422-1.947-0.595l-0.799-0.173c-1.053-0.216-1.781-0.461-2.184-0.735c-0.404-0.273-0.607-0.678-0.607-1.211
	c0-0.504,0.238-0.904,0.715-1.2c0.475-0.295,1.174-0.443,2.098-0.443c0.793,0,1.477,0.076,2.055,0.228
	c0.576,0.151,1.217,0.421,1.924,0.811l0.691-1.405c-1.412-0.765-2.969-1.146-4.67-1.146c-0.635,0-1.223,0.076-1.764,0.228
	c-0.539,0.151-1.008,0.364-1.404,0.638s-0.711,0.605-0.941,0.994c-0.23,0.39-0.346,0.815-0.346,1.276
	c0,0.462,0.072,0.88,0.217,1.254c0.143,0.375,0.381,0.707,0.713,0.995s0.758,0.537,1.275,0.746c0.52,0.209,1.146,0.4,1.883,0.573
	l0.908,0.194c1.008,0.217,1.729,0.49,2.162,0.822c0.432,0.331,0.648,0.771,0.648,1.318c0,0.39-0.086,0.707-0.26,0.952
	c-0.172,0.245-0.414,0.436-0.725,0.573c-0.311,0.137-0.678,0.237-1.102,0.303c-0.426,0.064-0.877,0.097-1.352,0.097
	c-0.592,0-1.223-0.09-1.893-0.271c-0.67-0.18-1.352-0.479-2.045-0.897l-0.734,1.471c0.779,0.433,1.539,0.742,2.281,0.93
	s1.539,0.281,2.391,0.281c0.748,0,1.434-0.072,2.053-0.216c0.621-0.145,1.158-0.36,1.611-0.648c0.455-0.289,0.805-0.649,1.049-1.082
	c0.246-0.433,0.369-0.93,0.369-1.492c0-0.476-0.072-0.915-0.217-1.318C333.77,486.763,333.526,486.41,333.178,486.106z"/>
</svg>

