<?xml version="1.0" encoding="utf-8"?>
<!-- Generator: Adobe Illustrator 23.0.0, SVG Export Plug-In . SVG Version: 6.00 Build 0)  -->
<svg version="1.1" id="Layer_1" xmlns="http://www.w3.org/2000/svg" xmlns:xlink="http://www.w3.org/1999/xlink" x="0px" y="0px"
	 viewBox="0 0 800 500"  xml:space="preserve">

<path fill="#000000" id="XMLID_935_" class="st0" d="M258.58,120.96V67.61h-2.36v53.35l-9.58,9.57l9.58,9.58v58.78h2.36V140.1l9.57-9.58
	L258.58,120.96z M257.4,137.53l-1.18-1.18l-5.82-5.82l5.82-5.82l1.18-1.18l1.18,1.18l5.82,5.82l-5.82,5.82L257.4,137.53z"/>
<path fill="#000000" id="XMLID_932_" class="st0" d="M256.2,428v26.9h2.36V428l9.58-9.57l-9.58-9.58v-58.78h-2.36v58.78l-9.57,9.58L256.2,428z
	 M257.38,411.43l1.18,1.18l5.82,5.82l-5.82,5.82l-1.18,1.18l-1.18-1.18l-5.82-5.82l5.82-5.82L257.38,411.43z"/>
<g id="XMLID_1050_">
	<g id="XMLID_1146_">
		<polygon id="XMLID_1048_" points="428.77,369.23 428.77,369.24 428.76,369.23 		"/>
		<path fill="#000000" id="XMLID_1152_" d="M471.91,297.31l-14.39-14.36l-14.37-14.4l28.76-28.76l-14.39-14.37l-28.76-28.78l-27.84-27.83
			l-0.93-0.93l-0.92,0.92l-13.45,13.46l-14.39,14.37l-43.14,43.16l14.37,14.39h0.01l14.37,14.37l-22.43,22.45h28.74l4.67-4.66
			l3.4-3.39l7.19,7.18l7.19,7.18v0.01l-14.37,14.39h-0.01v-0.01l-5.11-5.09l-2.97-2.97h-28.77l8.08,8.08h0.01l14.37,14.37
			l-14.37,14.39l-14.39,14.39l14.39,14.37l14.37,14.39L371.23,398l22.46-22.46v-41.36l-8.08-8.09l14.37-14.37l14.39,14.37h0.01v0.01
			h-0.01l-8.06,8.06v41.42l8.06,8.04L428.77,398l14.39-14.39l14.37-14.39l14.39-14.37l-14.37-14.39l-14.39-14.39l14.37-14.39
			L471.91,297.31z M428.77,340.48l14.39,14.37l-14.39,14.37v0.01h-0.01l-14.36-14.37L428.77,340.48z M356.85,354.85l14.39-14.39
			l14.37,14.37l0.01,0.01v0.01l-14.37,14.36L356.85,354.85z M428.77,225.42l14.39,14.37l-14.39,14.39l-14.39-14.39l-14.39-14.37
			l-14.37,14.37l-14.39,14.39l-14.39-14.39l14.39-14.37l14.39-14.4l14.37-14.39l14.39,14.39L428.77,225.42z M414.38,268.55
			l-14.37,14.39h-0.01l-14.37-14.39l14.39-14.37L414.38,268.55z M414.38,297.31l14.39-14.37l14.39,14.37v0.01l-14.39,14.37
			l-14.39-14.37V297.31z"/>
		<rect id="XMLID_1041_" x="414.38" y="326.08" width="0.01" height="0.01"/>
		
			<rect id="XMLID_1040_" x="476.13" y="315.91" transform="matrix(0.7071 -0.7071 0.7071 0.7071 -88.143 439.3709)" width="20.34" height="20.34"/>
		
			<rect id="XMLID_1039_" x="303.53" y="330.29" transform="matrix(0.7071 -0.7071 0.7071 0.7071 -148.8625 321.5417)" width="20.34" height="20.34"/>
		
			<rect id="XMLID_1038_" x="303.53" y="301.53" transform="matrix(0.7071 -0.7071 0.7071 0.7071 -128.5257 313.1179)" width="20.34" height="20.34"/>
		<polygon id="XMLID_1037_" points="428.77,369.23 428.77,369.24 428.76,369.23 		"/>
	</g>
	<g id="XMLID_1130_">
		<polygon id="XMLID_1036_" points="428.77,369.23 428.77,369.24 428.76,369.23 		"/>
		<polygon id="XMLID_1035_" points="430.53,383.61 429.46,384.69 428.77,385.39 406.32,362.95 406.32,359.41 		"/>
		<polygon id="XMLID_1034_" points="393.7,359.4 393.7,362.92 379.31,377.32 371.23,385.39 363.16,377.31 348.78,362.92 
			340.7,354.85 371.39,324.18 372.04,323.53 377.55,318.02 391.93,303.63 393.69,305.39 373.8,325.29 344.24,354.85 371.25,381.84 
			377.54,375.55 		"/>
		<polygon id="XMLID_1033_" points="393.7,346.8 393.7,350.32 391.93,348.55 377.54,334.16 377.54,334.15 379.31,332.39 
			393.69,346.79 		"/>
		<polygon id="XMLID_1032_" points="379.31,274.87 377.57,276.66 420.69,319.78 422.46,318.01 		"/>
		<polygon id="XMLID_1031_" points="459.29,239.79 451.22,231.72 400,180.5 391.93,188.57 340.7,239.79 363.15,262.25 
			364.93,260.48 344.23,239.79 364.93,219.11 399.99,184.02 420.69,204.72 435.07,219.1 455.77,239.79 406.31,289.25 408.07,291.01 
					"/>
		<polygon id="XMLID_1030_" points="422.45,260.49 421.75,261.2 420.69,262.25 400.01,241.57 364.93,276.63 350.54,291.01 
			347.02,291.01 363.17,274.87 391.93,246.1 399.99,238.03 408.07,246.1 		"/>
		<polygon id="XMLID_1029_" points="459.3,297.32 422.46,334.17 406.32,350.31 406.32,346.76 428.77,324.32 455.76,297.31 
			449.46,291.02 435.07,276.63 436.12,275.58 436.84,274.87 451.22,289.26 		"/>
		<polygon id="XMLID_1028_" points="436.84,332.4 435.07,334.17 455.77,354.85 428.63,381.98 429.46,384.69 451.22,362.92 
			459.29,354.85 		"/>
		<polygon id="XMLID_1027_" points="364.93,318.01 363.16,319.78 348.78,305.4 347.01,303.63 350.54,303.63 		"/>
		<rect id="XMLID_1026_" x="414.38" y="326.08" width="0.01" height="0.01"/>
		
			<rect id="XMLID_1025_" x="485.05" y="324.84" transform="matrix(0.7071 -0.7071 0.7071 0.7071 -88.143 439.3711)" width="2.5" height="2.5"/>
		
			<rect id="XMLID_1024_" x="312.46" y="339.22" transform="matrix(0.7071 -0.7071 0.7071 0.7071 -148.8626 321.5417)" width="2.5" height="2.5"/>
		
			<rect id="XMLID_1023_" x="312.46" y="310.45" transform="matrix(0.7071 -0.7071 0.7071 0.7071 -128.5258 313.1179)" width="2.5" height="2.5"/>
		<polygon id="XMLID_1022_" points="428.77,369.23 428.77,369.24 428.76,369.23 		"/>
	</g>
	<g id="XMLID_1115_">
		<polygon id="XMLID_1021_" points="399.99,311.71 380.11,331.6 373.8,325.29 372.04,323.53 365.72,317.21 371.23,311.71 
			371.23,311.7 385.62,297.32 393.69,305.39 		"/>
		
			<rect id="XMLID_1020_" x="402.69" y="269.09" transform="matrix(0.7071 -0.7071 0.7071 0.7071 -75.0189 377.4084)" width="30.75" height="20.34"/>
		<polygon id="XMLID_1019_" points="393.7,334.17 393.7,346.76 393.69,346.79 391.93,348.55 385.62,354.85 385.61,354.84 
			371.23,340.47 385.62,326.08 		"/>
		<polygon id="XMLID_1018_" points="393.7,334.19 393.7,375.54 385.61,383.61 379.31,377.32 377.54,375.55 371.23,369.24 
			371.25,369.23 385.61,354.84 371.23,340.47 385.61,326.1 		"/>
		<polygon id="XMLID_1017_" points="414.39,354.87 428.75,369.24 422.46,375.55 420.69,377.31 414.38,383.61 406.32,375.57 
			406.32,334.15 414.38,326.1 428.75,340.47 414.38,354.84 		"/>
		
			<rect id="XMLID_1016_" x="432.98" y="272.77" transform="matrix(0.7071 -0.7071 0.7071 0.7071 -70.2738 396.2242)" width="20.34" height="20.34"/>
		
			<rect id="XMLID_1015_" x="404.21" y="244" transform="matrix(0.7071 -0.7071 0.7071 0.7071 -58.3588 367.4589)" width="20.34" height="20.34"/>
		
			<rect id="XMLID_1014_" x="346.68" y="244" transform="matrix(0.7071 -0.7071 0.7071 0.7071 -75.2092 326.7785)" width="20.34" height="20.34"/>
		
			<rect id="XMLID_1013_" x="432.98" y="330.3" transform="matrix(0.7071 -0.7071 0.7071 0.7071 -110.9542 413.0746)" width="20.34" height="20.34"/>
		
			<rect id="XMLID_1012_" x="378.6" y="271.46" transform="matrix(0.7071 -0.7071 0.7071 0.7071 -88.4306 358.6979)" width="20.34" height="29.26"/>
		<polygon id="XMLID_1011_" points="428.77,311.71 422.46,318.02 420.69,319.78 414.39,326.08 414.38,326.08 399.99,311.71 
			393.69,305.39 393.57,305.27 399.88,298.97 401.65,297.21 407.96,290.9 414.38,297.32 		"/>
		<polygon id="XMLID_1010_" points="371.23,311.71 365.72,317.21 364.93,318.01 356.85,326.08 342.48,311.71 342.48,311.7 
			348.78,305.4 350.54,303.63 363.16,303.63 		"/>
		<polygon id="XMLID_1009_" points="371.23,282.94 371.23,282.95 367.83,286.34 363.18,291.01 334.42,291.01 356.85,268.55 
			363.17,274.87 364.93,276.63 		"/>
		<polygon id="XMLID_1008_" points="371.23,311.7 371.23,311.71 365.72,317.21 364.93,318.01 356.85,326.08 342.48,311.71 
			342.48,311.7 334.42,303.63 363.18,303.63 		"/>
	</g>
	<g id="XMLID_1051_">
		<g id="XMLID_1094_">
			<path fill="#000000" id="XMLID_1007_" d="M400.93,21v23.54c-0.32-0.03-0.62-0.05-0.94-0.05c-0.3,0-0.62,0.03-0.92,0.05V21H400.93z"/>
			<path fill="#000000" id="XMLID_1006_" d="M400.93,64.37v2.02c-0.32,0.05-0.62,0.05-0.94,0.05c-0.3,0-0.62,0-0.92-0.03v-2.05
				c0.3,0.03,0.62,0.05,0.92,0.05C400.31,64.43,400.61,64.4,400.93,64.37z"/>
			<path fill="#000000" id="XMLID_1005_" d="M400.93,66.05v19.22c-0.32-0.05-0.62-0.05-0.94-0.05c-0.3,0-0.62,0-0.92,0.05V66.05
				c0.3,0.03,0.62,0.05,0.92,0.05C400.31,66.11,400.61,66.08,400.93,66.05z"/>
			<path fill="#000000" id="XMLID_1004_" d="M400.93,107.12v12.64c-0.32-0.05-0.62-0.05-0.94-0.05c-0.3,0-0.62,0-0.92,0.05v-12.64
				c0.3,0.05,0.62,0.05,0.92,0.05C400.31,107.18,400.61,107.18,400.93,107.12z"/>
			<path fill="#000000" id="XMLID_1003_" d="M400.93,176.58v-23.85c-0.32,0.05-0.62,0.05-0.94,0.05c-0.3,0-0.62,0-0.92-0.05v23.85H400.93z"/>
			<g id="XMLID_1101_">
				<path fill="#000000" id="XMLID_1102_" d="M390.5,57.5c-0.59,0.37-1.14,0.84-1.68,1.35c1.64,4.17,5.58,7.22,10.25,7.57v-2.05
					C395.03,64.02,391.68,61.25,390.5,57.5z M390.5,57.5c-0.59,0.37-1.14,0.84-1.68,1.35c1.64,4.17,5.58,7.22,10.25,7.57v-2.05
					C395.03,64.02,391.68,61.25,390.5,57.5z M400.93,42.52c-0.31-0.06-0.62-0.06-0.94-0.06c-0.29,0-0.62,0-0.91,0.02
					C392.89,42.98,388,48.15,388,54.46c0,0.75,0.08,1.5,0.21,2.2c0.14,0.76,0.35,1.48,0.62,2.19c1.64,4.17,5.58,7.22,10.25,7.57
					c0.29,0.02,0.62,0.02,0.91,0.02c0.33,0,0.63,0,0.94-0.05c4.66-0.35,8.57-3.37,10.21-7.54c0.28-0.71,0.49-1.43,0.63-2.19
					c0.13-0.7,0.21-1.46,0.21-2.2C411.98,48.18,407.11,42.98,400.93,42.52z M409.9,55.35c-0.06,0.76-0.19,1.46-0.43,2.16
					c-1.19,3.72-4.52,6.49-8.55,6.87c-0.31,0.03-0.62,0.06-0.94,0.06c-0.29,0-0.62-0.02-0.91-0.06c-4.05-0.35-7.39-3.12-8.57-6.87
					c-0.24-0.7-0.38-1.4-0.43-2.16c-0.06-0.29-0.06-0.59-0.06-0.89c0-5.21,3.99-9.47,9.06-9.92c0.29-0.02,0.62-0.06,0.91-0.06
					c0.33,0,0.63,0.03,0.94,0.06c5.07,0.45,9.03,4.74,9.03,9.92C409.96,54.75,409.96,55.05,409.9,55.35z M390.5,57.5
					c-0.59,0.37-1.14,0.84-1.68,1.35c1.64,4.17,5.58,7.22,10.25,7.57v-2.05C395.03,64.02,391.68,61.25,390.5,57.5z M390.5,57.5
					c-0.59,0.37-1.14,0.84-1.68,1.35c1.64,4.17,5.58,7.22,10.25,7.57v-2.05C395.03,64.02,391.68,61.25,390.5,57.5z"/>
			</g>
			<path fill="#000000" id="XMLID_993_" d="M410.98,96.18c0,5.74-4.42,10.48-10.05,10.94c-0.32,0.05-0.62,0.05-0.94,0.05c-0.3,0-0.62,0-0.92-0.05
				c-5.63-0.46-10.05-5.17-10.05-10.94c0-5.77,4.42-10.46,10.05-10.92c0.3-0.05,0.62-0.05,0.92-0.05c0.32,0,0.62,0,0.94,0.05
				C406.56,85.73,410.98,90.44,410.98,96.18z"/>
			<g id="XMLID_1095_">
				<path fill="#000000" id="XMLID_1096_" d="M400.93,117.74c-0.29-0.05-0.62-0.05-0.94-0.05c-0.29,0-0.62,0-0.91,0.05
					c-9.78,0.47-17.63,8.6-17.63,18.52c0,9.89,7.85,18.02,17.63,18.49c0.29,0.05,0.62,0.05,0.91,0.05c0.33,0,0.65,0,0.94-0.05
					c9.82-0.47,17.63-8.6,17.63-18.49C418.55,126.34,410.74,118.2,400.93,117.74z M400.93,152.72c-0.31,0.06-0.62,0.06-0.94,0.06
					c-0.29,0-0.62,0-0.91-0.06c-8.68-0.45-15.61-7.65-15.61-16.46s6.92-16.04,15.61-16.5c0.29-0.06,0.62-0.06,0.91-0.06
					c0.33,0,0.63,0,0.94,0.06c8.68,0.45,15.61,7.71,15.61,16.5C416.54,145.04,409.61,152.27,400.93,152.72z"/>
			</g>
		</g>
		<g id="XMLID_1073_">
			<path fill="#000000" id="XMLID_988_" d="M486.75,164.65v70.01c-0.16-0.01-0.3-0.03-0.46-0.03c-0.14,0-0.3,0.01-0.45,0.03v-70.01H486.75z"/>
			<path fill="#000000" id="XMLID_982_" d="M486.75,244.32v0.98c-0.16,0.03-0.3,0.03-0.46,0.03c-0.14,0-0.3,0-0.45-0.01v-1
				c0.14,0.01,0.3,0.03,0.45,0.03C486.45,244.35,486.59,244.34,486.75,244.32z"/>
			<path fill="#000000" id="XMLID_980_" d="M486.75,245.14v9.36c-0.16-0.03-0.3-0.03-0.46-0.03c-0.14,0-0.3,0-0.45,0.03v-9.36
				c0.14,0.01,0.3,0.03,0.45,0.03C486.45,245.17,486.59,245.15,486.75,245.14z"/>
			<path fill="#000000" id="XMLID_978_" d="M486.75,265.15v6.16c-0.16-0.03-0.3-0.03-0.46-0.03c-0.14,0-0.3,0-0.45,0.03v-6.16
				c0.14,0.03,0.3,0.03,0.45,0.03C486.45,265.17,486.59,265.17,486.75,265.15z"/>
			<path fill="#000000" id="XMLID_975_" d="M486.75,315.24v-27.89c-0.16,0.03-0.3,0.03-0.46,0.03c-0.14,0-0.3,0-0.45-0.03v27.89H486.75z"/>
			<g id="XMLID_1080_">
				<path fill="#000000" id="XMLID_1081_" d="M481.67,240.97c-0.29,0.19-0.55,0.41-0.82,0.66c0.8,2.03,2.72,3.52,4.99,3.68v-0.99
					C483.87,244.15,482.25,242.8,481.67,240.97z M481.67,240.97c-0.29,0.19-0.55,0.41-0.82,0.66c0.8,2.03,2.72,3.52,4.99,3.68v-0.99
					C483.87,244.15,482.25,242.8,481.67,240.97z M486.75,233.67c-0.16-0.02-0.3-0.02-0.47-0.02c-0.14,0-0.29,0-0.44,0.01
					c-3.01,0.24-5.4,2.76-5.4,5.83c0,0.37,0.05,0.73,0.1,1.08c0.07,0.36,0.17,0.71,0.3,1.06c0.8,2.03,2.72,3.52,4.99,3.68
					c0.15,0.01,0.3,0.01,0.44,0.01c0.16,0,0.3,0,0.47-0.02c2.27-0.17,4.17-1.64,4.98-3.67c0.13-0.35,0.23-0.7,0.3-1.06
					c0.06-0.35,0.1-0.71,0.1-1.08C492.14,236.44,489.76,233.91,486.75,233.67z M491.12,239.92c-0.02,0.37-0.09,0.71-0.21,1.05
					c-0.58,1.82-2.2,3.17-4.16,3.36c-0.16,0.01-0.3,0.02-0.47,0.02c-0.14,0-0.29-0.01-0.44-0.02c-1.97-0.17-3.59-1.53-4.17-3.36
					c-0.12-0.34-0.19-0.68-0.21-1.05c-0.02-0.14-0.02-0.28-0.02-0.43c0-2.53,1.94-4.6,4.41-4.83c0.15-0.01,0.3-0.02,0.44-0.02
					c0.16,0,0.3,0.01,0.47,0.02c2.47,0.22,4.39,2.31,4.39,4.83C491.15,239.64,491.15,239.78,491.12,239.92z M481.67,240.97
					c-0.29,0.19-0.55,0.41-0.82,0.66c0.8,2.03,2.72,3.52,4.99,3.68v-0.99C483.87,244.15,482.25,242.8,481.67,240.97z M481.67,240.97
					c-0.29,0.19-0.55,0.41-0.82,0.66c0.8,2.03,2.72,3.52,4.99,3.68v-0.99C483.87,244.15,482.25,242.8,481.67,240.97z"/>
			</g>
			<path fill="#000000" id="XMLID_951_" d="M491.65,259.82c0,2.8-2.15,5.11-4.9,5.33c-0.16,0.03-0.3,0.03-0.46,0.03c-0.14,0-0.3,0-0.45-0.03
				c-2.74-0.22-4.9-2.52-4.9-5.33c0-2.81,2.15-5.09,4.9-5.32c0.14-0.03,0.3-0.03,0.45-0.03c0.16,0,0.3,0,0.46,0.03
				C489.49,254.72,491.65,257.02,491.65,259.82z"/>
			<g id="XMLID_1074_">
				<path fill="#000000" id="XMLID_1075_" d="M486.75,270.31c-0.15-0.02-0.3-0.02-0.47-0.02c-0.14,0-0.29,0-0.44,0.02
					c-4.77,0.22-8.58,4.19-8.58,9.02c0,4.81,3.81,8.78,8.58,9c0.15,0.03,0.3,0.03,0.44,0.03c0.16,0,0.31,0,0.47-0.03
					c4.78-0.22,8.58-4.19,8.58-9C495.33,274.5,491.53,270.54,486.75,270.31z M486.75,287.36c-0.16,0.02-0.3,0.02-0.47,0.02
					c-0.14,0-0.29,0-0.44-0.02c-4.22-0.22-7.6-3.73-7.6-8.02s3.38-7.81,7.6-8.03c0.15-0.04,0.3-0.04,0.44-0.04
					c0.16,0,0.3,0,0.47,0.04c4.22,0.22,7.6,3.75,7.6,8.03C494.35,283.62,490.97,287.14,486.75,287.36z"/>
			</g>
		</g>
		<g id="XMLID_1052_">
			<path fill="#000000" id="XMLID_936_" d="M314.16,164.65v70.01c-0.16-0.01-0.3-0.03-0.46-0.03c-0.14,0-0.3,0.01-0.45,0.03v-70.01H314.16z"/>
			<path fill="#000000" id="XMLID_934_" d="M314.16,244.32v0.98c-0.16,0.03-0.3,0.03-0.46,0.03c-0.14,0-0.3,0-0.45-0.01v-1
				c0.14,0.01,0.3,0.03,0.45,0.03C313.85,244.35,314,244.34,314.16,244.32z"/>
			<path fill="#000000" id="XMLID_930_" d="M314.16,245.14v9.36c-0.16-0.03-0.3-0.03-0.46-0.03c-0.14,0-0.3,0-0.45,0.03v-9.36
				c0.14,0.01,0.3,0.03,0.45,0.03C313.85,245.17,314,245.15,314.16,245.14z"/>
			<path fill="#000000" id="XMLID_929_" d="M314.16,265.15v6.16c-0.16-0.03-0.3-0.03-0.46-0.03c-0.14,0-0.3,0-0.45,0.03v-6.16
				c0.14,0.03,0.3,0.03,0.45,0.03C313.85,265.17,314,265.17,314.16,265.15z"/>
			<path fill="#000000" id="XMLID_925_" d="M314.16,298.97v-11.62c-0.16,0.03-0.3,0.03-0.46,0.03c-0.14,0-0.3,0-0.45-0.03v11.62H314.16z"/>
			<g id="XMLID_1059_">
				<path fill="#000000" id="XMLID_1060_" d="M309.08,240.97c-0.29,0.19-0.55,0.41-0.82,0.66c0.8,2.03,2.72,3.52,4.99,3.68v-0.99
					C311.28,244.15,309.66,242.8,309.08,240.97z M309.08,240.97c-0.29,0.19-0.55,0.41-0.82,0.66c0.8,2.03,2.72,3.52,4.99,3.68v-0.99
					C311.28,244.15,309.66,242.8,309.08,240.97z M314.16,233.67c-0.16-0.02-0.3-0.02-0.47-0.02c-0.14,0-0.29,0-0.44,0.01
					c-3.01,0.24-5.4,2.76-5.4,5.83c0,0.37,0.05,0.73,0.1,1.08c0.07,0.36,0.17,0.71,0.3,1.06c0.8,2.03,2.72,3.52,4.99,3.68
					c0.15,0.01,0.3,0.01,0.44,0.01c0.16,0,0.3,0,0.47-0.02c2.27-0.17,4.17-1.64,4.98-3.67c0.13-0.35,0.23-0.7,0.29-1.06
					c0.07-0.35,0.1-0.71,0.1-1.08C319.53,236.44,317.17,233.91,314.16,233.67z M318.53,239.92c-0.02,0.37-0.09,0.71-0.21,1.05
					c-0.58,1.82-2.2,3.17-4.16,3.36c-0.16,0.01-0.3,0.02-0.47,0.02c-0.14,0-0.29-0.01-0.44-0.02c-1.97-0.17-3.59-1.53-4.17-3.36
					c-0.12-0.34-0.19-0.68-0.21-1.05c-0.02-0.14-0.02-0.28-0.02-0.43c0-2.53,1.94-4.6,4.41-4.83c0.15-0.01,0.3-0.02,0.44-0.02
					c0.16,0,0.3,0.01,0.47,0.02c2.47,0.22,4.39,2.31,4.39,4.83C318.55,239.64,318.55,239.78,318.53,239.92z M309.08,240.97
					c-0.29,0.19-0.55,0.41-0.82,0.66c0.8,2.03,2.72,3.52,4.99,3.68v-0.99C311.28,244.15,309.66,242.8,309.08,240.97z M309.08,240.97
					c-0.29,0.19-0.55,0.41-0.82,0.66c0.8,2.03,2.72,3.52,4.99,3.68v-0.99C311.28,244.15,309.66,242.8,309.08,240.97z"/>
			</g>
			<path fill="#000000" id="XMLID_911_" d="M319.05,259.82c0,2.8-2.15,5.11-4.9,5.33c-0.16,0.03-0.3,0.03-0.46,0.03c-0.14,0-0.3,0-0.45-0.03
				c-2.74-0.22-4.9-2.52-4.9-5.33c0-2.81,2.15-5.09,4.9-5.32c0.14-0.03,0.3-0.03,0.45-0.03c0.16,0,0.3,0,0.46,0.03
				C316.9,254.72,319.05,257.02,319.05,259.82z"/>
			<g id="XMLID_1053_">
				<path fill="#000000" id="XMLID_1054_" d="M314.16,270.31c-0.15-0.02-0.3-0.02-0.47-0.02c-0.14,0-0.29,0-0.44,0.02
					c-4.77,0.22-8.58,4.19-8.58,9.02c0,4.81,3.81,8.78,8.58,9c0.15,0.03,0.3,0.03,0.44,0.03c0.16,0,0.31,0,0.47-0.03
					c4.78-0.22,8.58-4.19,8.58-9C322.74,274.5,318.94,270.54,314.16,270.31z M314.16,287.36c-0.16,0.02-0.3,0.02-0.47,0.02
					c-0.14,0-0.29,0-0.44-0.02c-4.22-0.22-7.6-3.73-7.6-8.02s3.38-7.81,7.6-8.03c0.15-0.04,0.3-0.04,0.44-0.04
					c0.16,0,0.3,0,0.47,0.04c4.22,0.22,7.6,3.75,7.6,8.03C321.76,283.62,318.38,287.14,314.16,287.36z"/>
			</g>
		</g>
	</g>
</g>
<path fill="#000000" d="M273.602,481.306c-0.578-0.576-1.301-1.03-2.174-1.362c-0.873-0.331-1.885-0.497-3.039-0.497
	c-0.663,0-1.463,0.079-2.4,0.238v-6.077h-1.535v17.711c0.706,0.202,1.402,0.354,2.087,0.454s1.301,0.151,1.849,0.151
	c1.153,0,2.166-0.162,3.039-0.486s1.596-0.764,2.174-1.319c0.576-0.555,1.006-1.211,1.287-1.968s0.42-1.561,0.42-2.411
	s-0.139-1.657-0.42-2.422C274.608,482.554,274.178,481.883,273.602,481.306z M272.391,489.167c-0.852,0.829-2.17,1.243-3.958,1.243
	c-0.39,0-0.805-0.032-1.244-0.097c-0.439-0.065-0.84-0.134-1.2-0.206v-8.845c0.447-0.115,0.887-0.194,1.319-0.237
	c0.433-0.044,0.808-0.065,1.125-0.065c0.894,0,1.668,0.112,2.325,0.335c0.656,0.224,1.199,0.545,1.633,0.963
	c0.432,0.418,0.752,0.919,0.961,1.503s0.314,1.243,0.314,1.979C273.667,487.195,273.241,488.338,272.391,489.167z M247.392,479.446
	c-0.62,0-1.297,0.079-2.033,0.238c-0.735,0.158-1.485,0.433-2.249,0.821l-0.065,1.73c0.548-0.303,0.973-0.52,1.276-0.649
	s0.624-0.237,0.962-0.324c0.338-0.086,0.677-0.158,1.016-0.216s0.667-0.087,0.984-0.087c1.139,0,1.982,0.249,2.53,0.746
	s0.822,1.33,0.822,2.498v0.13c-0.332-0.044-0.732-0.087-1.2-0.13c-0.469-0.043-0.876-0.065-1.222-0.065
	c-1.831,0-3.302,0.311-4.412,0.931c-1.11,0.619-1.665,1.644-1.665,3.07c0,0.707,0.155,1.305,0.465,1.795
	c0.31,0.49,0.713,0.88,1.211,1.168s1.067,0.497,1.708,0.627c0.641,0.13,1.308,0.194,2,0.194c0.807,0,1.6-0.072,2.378-0.216
	c0.779-0.145,1.536-0.368,2.271-0.671v-7.028c0-1.585-0.397-2.742-1.189-3.471C250.189,479.811,248.992,479.446,247.392,479.446z
	 M250.636,489.892c-0.375,0.144-0.858,0.267-1.449,0.367c-0.591,0.102-1.183,0.151-1.773,0.151c-0.505,0-0.984-0.035-1.438-0.108
	c-0.454-0.071-0.84-0.197-1.157-0.378c-0.317-0.18-0.57-0.414-0.757-0.703c-0.188-0.288-0.281-0.663-0.281-1.124
	c0-0.52,0.111-0.934,0.335-1.244c0.224-0.31,0.533-0.551,0.93-0.724c0.396-0.174,0.85-0.296,1.362-0.368
	c0.511-0.072,1.041-0.108,1.589-0.108c0.476,0,0.984,0.029,1.524,0.087c0.541,0.058,0.912,0.108,1.114,0.151V489.892z
	 M258.032,479.868c-0.649,0.122-1.276,0.263-1.881,0.422v11.418h1.535v-10.186c0.202-0.072,0.563-0.147,1.082-0.228
	c0.519-0.079,1.002-0.118,1.449-0.118h1.989v-1.492H260C259.336,479.685,258.681,479.746,258.032,479.868z M-77.92,487.667
	l241.145,0.656l0.663-0.433l-0.632-0.564L-77.92,487.667z M164.994,487.825l1.95,1.95l1.95-1.95l-1.95-1.95L164.994,487.825z
	 M169.559,487.825l3.057,3.057l3.057-3.057l-3.057-3.057L169.559,487.825z M212.359,489.286l-3.395-9.602h-1.514l-3.396,9.602
	l-2.984-9.602h-1.73l3.979,12.023h1.428l3.46-9.645l3.46,9.645h1.427l3.979-12.023h-1.73L212.359,489.286z M238.418,489.589
	c-0.317,0-0.591,0.115-0.822,0.346c-0.231,0.23-0.346,0.505-0.346,0.822c0,0.316,0.115,0.591,0.346,0.821
	c0.23,0.23,0.504,0.346,0.822,0.346c0.317,0,0.591-0.115,0.822-0.346c0.23-0.23,0.346-0.505,0.346-0.821
	c0-0.317-0.116-0.592-0.346-0.822C239.009,489.704,238.735,489.589,238.418,489.589z M193.243,489.286l-3.395-9.602h-1.514
	l-3.396,9.602l-2.984-9.602h-1.73l3.979,12.023h1.428l3.46-9.645l3.46,9.645h1.427l3.979-12.023h-1.73L193.243,489.286z
	 M231.476,489.286l-3.395-9.602h-1.514l-3.396,9.602l-2.984-9.602h-1.73l3.979,12.023h1.428l3.46-9.645l3.46,9.645h1.427
	l3.979-12.023h-1.73L231.476,489.286z M382.732,480.474c-0.426-0.396-0.938-0.667-1.535-0.812c-0.598-0.144-1.271-0.216-2.021-0.216
	c-0.664,0-1.393,0.09-2.184,0.271c-0.793,0.181-1.471,0.4-2.033,0.659c-0.346-0.331-0.818-0.569-1.416-0.714
	c-0.6-0.144-1.273-0.216-2.023-0.216c-0.635,0-1.268,0.058-1.902,0.173l-2.465,0.454v11.635h1.535v-10.38
	c0.447-0.102,0.883-0.188,1.309-0.26c0.424-0.072,0.896-0.108,1.416-0.108c0.605,0,1.125,0.058,1.557,0.173
	c0.434,0.116,0.789,0.321,1.07,0.616c0.281,0.296,0.494,0.711,0.639,1.244s0.217,1.24,0.217,2.119v6.596h1.535v-7.201
	c0-0.663-0.055-1.243-0.162-1.741c-0.109-0.497-0.213-0.861-0.314-1.092c0.086-0.043,0.281-0.119,0.584-0.228
	c0.303-0.107,0.602-0.197,0.898-0.27c0.295-0.072,0.586-0.126,0.875-0.162s0.547-0.055,0.779-0.055c0.59,0,1.102,0.058,1.535,0.173
	c0.432,0.116,0.781,0.317,1.049,0.605c0.266,0.289,0.471,0.703,0.615,1.244c0.145,0.54,0.217,1.251,0.217,2.13v6.596h1.535v-7.201
	c0-0.995-0.111-1.816-0.336-2.466C383.482,481.393,383.158,480.87,382.732,480.474z M280.1,474.581
	c-0.785,0.648-1.18,1.729-1.18,3.243v1.86h-2.551v1.492h2.551v10.531h1.537v-10.531h4.973v-1.492h-4.973v-1.471
	c0-0.635,0.045-1.149,0.141-1.546c0.094-0.396,0.24-0.707,0.443-0.931c0.201-0.223,0.475-0.385,0.82-0.486
	c0.346-0.101,0.779-0.151,1.299-0.151h2.422v-1.492h-2.271C281.956,473.607,280.885,473.932,280.1,474.581z M398.273,487.825
	l3.057,3.057l3.057-3.057l-3.057-3.057L398.273,487.825z M343.322,482.322c0.389-0.418,0.854-0.749,1.395-0.994
	s1.135-0.368,1.783-0.368c0.736,0,1.373,0.076,1.914,0.228s1.121,0.414,1.74,0.789l0.715-1.405c-0.707-0.39-1.393-0.674-2.055-0.854
	c-0.664-0.181-1.436-0.271-2.314-0.271c-0.85,0-1.639,0.155-2.367,0.465c-0.729,0.311-1.367,0.746-1.914,1.309
	c-0.549,0.563-0.98,1.222-1.297,1.979c-0.317,0.757-0.476,1.59-0.476,2.498s0.158,1.74,0.476,2.497
	c0.316,0.757,0.748,1.413,1.297,1.969c0.547,0.555,1.186,0.987,1.914,1.297c0.729,0.311,1.518,0.465,2.367,0.465
	c0.879,0,1.65-0.09,2.314-0.27c0.662-0.181,1.348-0.466,2.055-0.854l-0.715-1.406c-0.619,0.375-1.199,0.639-1.74,0.79
	s-1.178,0.227-1.914,0.227c-0.648,0-1.242-0.119-1.783-0.356c-0.541-0.238-1.006-0.565-1.395-0.984
	c-0.391-0.418-0.693-0.915-0.908-1.492c-0.217-0.576-0.324-1.203-0.324-1.881s0.107-1.305,0.324-1.882
	C342.628,483.238,342.931,482.741,343.322,482.322z M404.387,487.825l1.949,1.95l1.951-1.95l-1.951-1.95L404.387,487.825z
	 M410.701,487.326l-0.664,0.433l0.633,0.564l241.176-0.341L410.701,487.326z M362.611,481.295c-0.549-0.569-1.193-1.02-1.936-1.352
	c-0.742-0.331-1.547-0.497-2.412-0.497c-0.863,0-1.668,0.166-2.41,0.497c-0.742,0.332-1.389,0.782-1.936,1.352
	c-0.549,0.57-0.977,1.229-1.287,1.979c-0.311,0.749-0.465,1.557-0.465,2.422s0.154,1.672,0.465,2.422s0.738,1.409,1.287,1.979
	c0.547,0.569,1.193,1.017,1.936,1.341s1.547,0.486,2.41,0.486c0.865,0,1.67-0.162,2.412-0.486s1.387-0.771,1.936-1.341
	c0.547-0.569,0.977-1.229,1.287-1.979c0.309-0.75,0.465-1.557,0.465-2.422s-0.156-1.673-0.465-2.422
	C363.587,482.524,363.158,481.865,362.611,481.295z M362.394,487.523c-0.217,0.569-0.52,1.067-0.908,1.492
	c-0.389,0.426-0.857,0.765-1.406,1.017c-0.547,0.252-1.152,0.378-1.816,0.378c-0.662,0-1.268-0.126-1.816-0.378
	c-0.547-0.252-1.016-0.591-1.404-1.017c-0.391-0.425-0.693-0.923-0.908-1.492c-0.217-0.569-0.324-1.179-0.324-1.827
	c0-0.649,0.107-1.262,0.324-1.839c0.215-0.576,0.518-1.077,0.908-1.503c0.389-0.425,0.857-0.764,1.404-1.016
	c0.549-0.252,1.154-0.379,1.816-0.379c0.664,0,1.27,0.127,1.816,0.379c0.549,0.252,1.018,0.591,1.406,1.016
	c0.389,0.426,0.691,0.927,0.908,1.503c0.217,0.577,0.324,1.189,0.324,1.839C362.718,486.345,362.611,486.954,362.394,487.523z
	 M296.221,481.295c-0.547-0.569-1.191-1.02-1.936-1.352c-0.742-0.331-1.545-0.497-2.41-0.497s-1.67,0.166-2.412,0.497
	c-0.742,0.332-1.387,0.782-1.936,1.352c-0.547,0.57-0.977,1.229-1.285,1.979c-0.311,0.749-0.465,1.557-0.465,2.422
	s0.154,1.672,0.465,2.422c0.309,0.75,0.738,1.409,1.285,1.979c0.549,0.569,1.193,1.017,1.936,1.341s1.547,0.486,2.412,0.486
	s1.668-0.162,2.41-0.486c0.744-0.324,1.389-0.771,1.936-1.341c0.549-0.569,0.977-1.229,1.287-1.979s0.465-1.557,0.465-2.422
	s-0.154-1.673-0.465-2.422C297.198,482.524,296.77,481.865,296.221,481.295z M296.006,487.523c-0.217,0.569-0.52,1.067-0.908,1.492
	c-0.391,0.426-0.859,0.765-1.406,1.017c-0.549,0.252-1.154,0.378-1.816,0.378c-0.664,0-1.27-0.126-1.816-0.378
	c-0.549-0.252-1.018-0.591-1.406-1.017c-0.389-0.425-0.691-0.923-0.908-1.492s-0.324-1.179-0.324-1.827
	c0-0.649,0.107-1.262,0.324-1.839c0.217-0.576,0.52-1.077,0.908-1.503c0.389-0.425,0.857-0.764,1.406-1.016
	c0.547-0.252,1.152-0.379,1.816-0.379c0.662,0,1.268,0.127,1.816,0.379c0.547,0.252,1.016,0.591,1.406,1.016
	c0.389,0.426,0.691,0.927,0.908,1.503c0.215,0.577,0.324,1.189,0.324,1.839C296.331,486.345,296.221,486.954,296.006,487.523z
	 M309.381,480.463c-0.455-0.39-0.996-0.656-1.623-0.801c-0.627-0.144-1.309-0.216-2.043-0.216c-0.707,0-1.465,0.047-2.271,0.141
	s-1.701,0.234-2.682,0.422v11.699h1.535v-10.402c1.184-0.23,2.293-0.346,3.33-0.346c0.592,0,1.111,0.062,1.559,0.184
	c0.445,0.123,0.818,0.332,1.113,0.628c0.295,0.295,0.525,0.713,0.691,1.254s0.25,1.251,0.25,2.13v6.553h1.535v-7.201
	c0-0.995-0.119-1.82-0.357-2.477C310.18,481.375,309.834,480.852,309.381,480.463z M318.516,490.054
	c-0.346-0.108-0.619-0.277-0.82-0.509c-0.203-0.23-0.35-0.547-0.443-0.951c-0.096-0.403-0.141-0.922-0.141-1.557v-5.86h4.973v-1.492
	h-4.973v-4.347h-1.537v4.347h-2.551v1.492h2.551v6.466c0,0.764,0.109,1.405,0.326,1.925c0.215,0.519,0.525,0.937,0.93,1.254
	c0.402,0.317,0.867,0.544,1.395,0.682c0.525,0.137,1.105,0.205,1.74,0.205h2.271v-1.492h-2.422
	C319.295,490.216,318.862,490.162,318.516,490.054z M337.784,489.589c-0.316,0-0.59,0.115-0.82,0.346s-0.346,0.505-0.346,0.822
	c0,0.316,0.115,0.591,0.346,0.821s0.504,0.346,0.82,0.346c0.318,0,0.592-0.115,0.822-0.346s0.346-0.505,0.346-0.821
	c0-0.317-0.115-0.592-0.346-0.822S338.102,489.589,337.784,489.589z M333.178,486.106c-0.346-0.303-0.785-0.565-1.318-0.789
	c-0.533-0.223-1.182-0.422-1.947-0.595l-0.799-0.173c-1.053-0.216-1.781-0.461-2.184-0.735c-0.404-0.273-0.607-0.678-0.607-1.211
	c0-0.504,0.238-0.904,0.715-1.2c0.475-0.295,1.174-0.443,2.098-0.443c0.793,0,1.477,0.076,2.055,0.228
	c0.576,0.151,1.217,0.421,1.924,0.811l0.691-1.405c-1.412-0.765-2.969-1.146-4.67-1.146c-0.635,0-1.223,0.076-1.764,0.228
	c-0.539,0.151-1.008,0.364-1.404,0.638s-0.711,0.605-0.941,0.994c-0.23,0.39-0.346,0.815-0.346,1.276
	c0,0.462,0.072,0.88,0.217,1.254c0.143,0.375,0.381,0.707,0.713,0.995s0.758,0.537,1.275,0.746c0.52,0.209,1.146,0.4,1.883,0.573
	l0.908,0.194c1.008,0.217,1.729,0.49,2.162,0.822c0.432,0.331,0.648,0.771,0.648,1.318c0,0.39-0.086,0.707-0.26,0.952
	c-0.172,0.245-0.414,0.436-0.725,0.573c-0.311,0.137-0.678,0.237-1.102,0.303c-0.426,0.064-0.877,0.097-1.352,0.097
	c-0.592,0-1.223-0.09-1.893-0.271c-0.67-0.18-1.352-0.479-2.045-0.897l-0.734,1.471c0.779,0.433,1.539,0.742,2.281,0.93
	s1.539,0.281,2.391,0.281c0.748,0,1.434-0.072,2.053-0.216c0.621-0.145,1.158-0.36,1.611-0.648c0.455-0.289,0.805-0.649,1.049-1.082
	c0.246-0.433,0.369-0.93,0.369-1.492c0-0.476-0.072-0.915-0.217-1.318C333.77,486.763,333.526,486.41,333.178,486.106z"/>
</svg>

