<?xml version="1.0" encoding="utf-8"?>
<!-- Generator: Adobe Illustrator 23.0.0, SVG Export Plug-In . SVG Version: 6.00 Build 0)  -->
<svg version="1.1" id="Layer_1" xmlns="http://www.w3.org/2000/svg" xmlns:xlink="http://www.w3.org/1999/xlink" x="0px" y="0px"
	 viewBox="0 0 800 500" xml:space="preserve">

<path fill="#000000" id="XMLID_935_" class="st0" d="M258.58,120.96V67.61h-2.36v53.35l-9.58,9.57l9.58,9.58v58.78h2.36V140.1l9.57-9.58
	L258.58,120.96z M257.4,137.53l-1.18-1.18l-5.82-5.82l5.82-5.82l1.18-1.18l1.18,1.18l5.82,5.82l-5.82,5.82L257.4,137.53z"/>
<path fill="#000000" id="XMLID_932_" class="st0" d="M256.2,428v26.9h2.36V428l9.58-9.57l-9.58-9.58v-58.78h-2.36v58.78l-9.57,9.58L256.2,428z
	 M257.38,411.43l1.18,1.18l5.82,5.82l-5.82,5.82l-1.18,1.18l-1.18-1.18l-5.82-5.82l5.82-5.82L257.38,411.43z"/>
<g id="XMLID_1569_">
	<path fill="#000000" id="XMLID_1580_" d="M496.24,274.66c-3.54-6.11-8.16-11.5-12.62-16.71c-3.95-4.61-8.04-9.38-11.28-14.57
		c-2.86-4.57-4.24-9.25-4.09-13.92c0-0.01,0-0.02,0-0.03c9.66,9.71,17.77,18.69,24.74,27.41c6.52,8.16,15.59,20.68,19.08,35.17
		c1.18,4.9,1.32,10.06,0.41,15.34c-0.89,5.17-4.72,11.06-6.36,13.58c-0.58,0.89-0.84,1.32-0.92,1.72c-3.91,4.29-3.91,4.36-3.78,5.12
		c0.08,0.45,0.41,0.84,0.76,1.04c0.99,0.52,1.46,0.03,2.84-1.42l1.42-1.49c5.52-5.76,10.74-11.2,15.21-16.78l0,0l0.22-0.23
		c0,0,0,0,0.01-0.01c0.08-0.09,0.12-0.19,0.18-0.29c10.09-12.71,18.67-28.88,7.42-52.49c-12.56-26.33-36.52-48.15-57.66-67.4
		c-3.13-2.85-6.22-5.67-9.24-8.46c-3.85-3.56-7.73-7.11-11.62-10.67c-22.09-20.19-44.93-41.06-62.5-65.56
		c-9.38-13.07-14.67-25.03-16.16-36.54c-0.67-5.16-0.19-10.63,1.42-16.28c0.92-3.23,2.5-6.28,3.78-8.57
		c0.79-1.41,1.71-2.72,2.77-4.21c0.35-0.5,0.63-0.9,0.75-1.11c2.19-2.49,4.47-5.05,6.32-6.82c0.58-0.55,0.6-1.47,0.04-2.05
		c-0.56-0.58-1.47-0.6-2.05-0.04c-0.01,0.01-0.02,0.02-0.03,0.03c-1.72,1.65-3.45,3.32-5.16,4.99c-1.27,0.6-3.85,3.09-10.81,11.13
		c-12.21,13.55-25.12,32.35-16.43,57.58c9.83,28.53,34.64,51.75,56.52,72.23c1.94,1.82,3.86,3.61,5.74,5.38
		c6.48,6.11,13.19,12.24,19.68,18.17c9,8.22,18.29,16.7,27.17,25.33c-0.93,1.13-1.91,2.38-2.41,3.22c-1.4,1.63-2.77,3.27-3.94,4.76
		c-10.65,9.63-20.16,20.03-27.5,30.08c-9.3,12.74-10.03,25.1-2.22,37.78c3.37,5.48,7.56,10.42,11.6,15.2
		c4.09,4.83,8.31,9.82,11.62,15.29c7.68,12.69,7.25,26.92-1.26,42.3c-0.35,0.62-0.19,1.4,0.37,1.84c0.07,0.05,0.14,0.1,0.22,0.14
		c0.53,0.28,1.2,0.2,1.66-0.22l4.53-4.25C479.56,346.09,517.18,310.86,496.24,274.66z M462.74,283.06
		c9.67,11.63,18.8,22.62,17.44,39.12c-0.37,4.44-1.74,8.72-3.4,12.57c1.75-10.72-1.18-21.95-8.7-32.94
		c-2.88-4.21-6.23-8.15-9.47-11.96c-5.12-6.02-10.41-12.23-13.76-19.51c-2.19-4.75-2.68-10.02-1.46-15.66
		c0.56-2.6,1.79-5.08,2.97-7.2c-1.15,6,0.14,12.37,3.85,18.69C453.77,272.28,458.33,277.76,462.74,283.06z"/>
	<path fill="#000000" id="XMLID_1579_" d="M405.17,288.74c-1.03-0.97-2.02-1.94-2.98-2.89l-1.62-1.58c-2.87-6.66,3.8-12.06,6.9-15.18
		c5.69-5.76,11.2-11.84,16.53-17.71l1.21-1.33c1.93-2.12,3.38-3.78,4.49-5.78l0.66-1.27c0.88-1.89,1.3-3.93,1.28-6.24
		c0-0.02,0-0.05,0-0.07c0-0.02,0-0.05-0.01-0.07l0.01,0c-0.03-0.46-0.27-0.86-0.63-1.11c-0.78-5.38-5.98-10.49-9.61-14.04
		l-1.21-1.19c-1.93-1.95-3.91-3.84-5.89-5.74c-4.69-4.5-9.54-9.14-13.53-14.38c-1.3-1.71-2.31-3.37-3.12-5.08
		c-0.76-1.55-1.37-3.27-1.81-5.08c-0.37-1.63-0.2-3.38,0.01-4.84c0.13-0.77,0.37-1.57,0.68-2.33l0.58-1.23
		c0.57-0.98,1.01-1.76,1.31-2.36l2.26-2.39c0.04-0.04,0.08-0.09,0.11-0.13c0.67-0.43,0.87-1.31,0.46-1.98
		c-0.42-0.68-1.31-0.89-1.99-0.48l-0.01,0.01l0,0l-0.27,0.17c-6.01,3.75-11.96,8.05-17.67,12.76
		c-15.5,12.62-29.77,28.33-40.16,44.23l-2.26,3.98c-5.15,10.59-3.58,21.79,4.78,34.24c4.59,6.84,10.73,13.33,15.66,18.54
		c2.89,3.06,14.86,14.33,14.86,14.33c28.2,26.2,66.83,62.07,40,93.33c-0.01,0.02-0.08,0.09-0.08,0.09l0,0.01
		c-0.44,0.6-0.35,1.45,0.23,1.95c0.09,0.07,0.18,0.13,0.27,0.18c0.58,0.31,1.32,0.18,1.77-0.34c0,0,0,0,0,0
		c2.08-2.41,5.1-5.58,8.31-8.94c3.73-3.9,7.58-7.94,10.62-11.47C463.1,345.15,426.85,309.85,405.17,288.74z"/>
	<path fill="#000000" id="XMLID_1578_" d="M369.45,313.29c-3.48-3.04-6.76-5.91-9.4-8.4c-13.87-13.07-31.14-29.32-40.87-49.3
		c-4.04-8.3-5.82-17.32-5.16-26.08c0.33-4.34,1.59-8.92,3.99-14.41c1.11-2.54,2.58-4.95,4.12-7.4c0.58-0.92,1-1.64,1.31-2.21
		c1.08-1.22,2.15-2.45,3.2-3.65c3.07-3.52,5.97-6.84,8.24-9.02c0.58-0.55,0.6-1.47,0.04-2.05c-0.55-0.59-1.47-0.6-2.05-0.05
		c0,0,0,0,0,0l-3.06,2.92c-16.8,16-37.71,35.92-38.53,60.66c-0.15,4.63,0.44,9.29,1.8,14.2c-0.99,1.25-1.95,2.48-2.82,3.63
		c-27.88,37.02-3.15,67.85,17.87,87.81c4.24,4.02,8.69,7.94,12.99,11.72c7.92,6.97,16.12,14.18,23.18,22.25
		c4.34,4.97,7.2,9.72,8.73,14.54c1.52,4.78-0.2,10.2-1.94,13.96c-2.84,3.66-2.84,3.67-2.68,4.39c0.09,0.42,0.36,0.78,0.74,0.98
		c1.07,0.56,1.56-0.03,2.87-1.62l0.94-1.1c0.09-0.09,0.18-0.19,0.27-0.31c1.33-1.53,2.78-3.13,4.29-4.79
		c9.42-10.33,21.13-23.19,16.63-37.33c-4.02-12.63-15.63-22.45-25.87-31.12c-1.99-1.68-3.92-3.32-5.72-4.91
		c-21.48-19.04-42.31-39.54-43.21-63.25c6.26,11.07,15.31,21.16,24.3,30.5c7.03,7.3,14.58,14.3,21.87,21.07
		c10.1,9.37,20.55,19.06,29.7,29.63c15.75,18.19,18.57,33.66,8.37,46c-0.51,0.62-0.43,1.53,0.19,2.04c0.62,0.5,1.53,0.43,2.04-0.19
		c0,0,0,0,0-0.01c2-2.42,5.08-5.59,8.33-8.94c3.78-3.9,7.69-7.93,10.68-11.54C427.73,364.23,392.65,333.57,369.45,313.29z"/>
	<path fill="#000000" id="XMLID_1574_" d="M329.75,145.43c0.29-0.93,0.19-1.92-0.26-2.78l-11.96-22.59c-0.92-1.72-3.2-2.42-4.93-1.51l-22.58,11.96
		c-0.86,0.45-1.49,1.22-1.78,2.15c-0.29,0.93-0.19,1.92,0.26,2.78l10.98,20.73l-20.73,10.98c-1.77,0.94-2.45,3.15-1.51,4.93
		l11.96,22.58c0.45,0.87,1.22,1.5,2.15,1.78c0.93,0.29,1.92,0.19,2.78-0.26l22.58-11.96c0.86-0.45,1.49-1.22,1.78-2.15
		c0.29-0.93,0.19-1.92-0.26-2.78l-10.98-20.73l20.73-10.98C328.83,147.13,329.46,146.36,329.75,145.43z"/>
	<path fill="#000000" id="XMLID_1572_" d="M525.39,361.37l-11.96-22.58c-0.91-1.72-3.21-2.43-4.93-1.52l-22.58,11.96
		c-1.78,0.94-2.46,3.15-1.52,4.93l11.96,22.58c0.46,0.86,1.22,1.49,2.15,1.78c0.93,0.29,1.92,0.19,2.78-0.26l22.58-11.96
		c0.86-0.45,1.49-1.22,1.78-2.15C525.94,363.21,525.85,362.23,525.39,361.37z"/>
</g>
<path fill="#000000" d="M273.602,481.306c-0.578-0.576-1.301-1.03-2.174-1.362c-0.873-0.331-1.885-0.497-3.039-0.497
	c-0.663,0-1.463,0.079-2.4,0.238v-6.077h-1.535v17.711c0.706,0.202,1.402,0.354,2.087,0.454s1.301,0.151,1.849,0.151
	c1.153,0,2.166-0.162,3.039-0.486s1.596-0.764,2.174-1.319c0.576-0.555,1.006-1.211,1.287-1.968s0.42-1.561,0.42-2.411
	s-0.139-1.657-0.42-2.422C274.608,482.554,274.178,481.883,273.602,481.306z M272.391,489.167c-0.852,0.829-2.17,1.243-3.958,1.243
	c-0.39,0-0.805-0.032-1.244-0.097c-0.439-0.065-0.84-0.134-1.2-0.206v-8.845c0.447-0.115,0.887-0.194,1.319-0.237
	c0.433-0.044,0.808-0.065,1.125-0.065c0.894,0,1.668,0.112,2.325,0.335c0.656,0.224,1.199,0.545,1.633,0.963
	c0.432,0.418,0.752,0.919,0.961,1.503s0.314,1.243,0.314,1.979C273.667,487.195,273.241,488.338,272.391,489.167z M247.392,479.446
	c-0.62,0-1.297,0.079-2.033,0.238c-0.735,0.158-1.485,0.433-2.249,0.821l-0.065,1.73c0.548-0.303,0.973-0.52,1.276-0.649
	s0.624-0.237,0.962-0.324c0.338-0.086,0.677-0.158,1.016-0.216s0.667-0.087,0.984-0.087c1.139,0,1.982,0.249,2.53,0.746
	s0.822,1.33,0.822,2.498v0.13c-0.332-0.044-0.732-0.087-1.2-0.13c-0.469-0.043-0.876-0.065-1.222-0.065
	c-1.831,0-3.302,0.311-4.412,0.931c-1.11,0.619-1.665,1.644-1.665,3.07c0,0.707,0.155,1.305,0.465,1.795
	c0.31,0.49,0.713,0.88,1.211,1.168s1.067,0.497,1.708,0.627c0.641,0.13,1.308,0.194,2,0.194c0.807,0,1.6-0.072,2.378-0.216
	c0.779-0.145,1.536-0.368,2.271-0.671v-7.028c0-1.585-0.397-2.742-1.189-3.471C250.189,479.811,248.992,479.446,247.392,479.446z
	 M250.636,489.892c-0.375,0.144-0.858,0.267-1.449,0.367c-0.591,0.102-1.183,0.151-1.773,0.151c-0.505,0-0.984-0.035-1.438-0.108
	c-0.454-0.071-0.84-0.197-1.157-0.378c-0.317-0.18-0.57-0.414-0.757-0.703c-0.188-0.288-0.281-0.663-0.281-1.124
	c0-0.52,0.111-0.934,0.335-1.244c0.224-0.31,0.533-0.551,0.93-0.724c0.396-0.174,0.85-0.296,1.362-0.368
	c0.511-0.072,1.041-0.108,1.589-0.108c0.476,0,0.984,0.029,1.524,0.087c0.541,0.058,0.912,0.108,1.114,0.151V489.892z
	 M258.032,479.868c-0.649,0.122-1.276,0.263-1.881,0.422v11.418h1.535v-10.186c0.202-0.072,0.563-0.147,1.082-0.228
	c0.519-0.079,1.002-0.118,1.449-0.118h1.989v-1.492H260C259.336,479.685,258.681,479.746,258.032,479.868z M-77.92,487.667
	l241.145,0.656l0.663-0.433l-0.632-0.564L-77.92,487.667z M164.994,487.825l1.95,1.95l1.95-1.95l-1.95-1.95L164.994,487.825z
	 M169.559,487.825l3.057,3.057l3.057-3.057l-3.057-3.057L169.559,487.825z M212.359,489.286l-3.395-9.602h-1.514l-3.396,9.602
	l-2.984-9.602h-1.73l3.979,12.023h1.428l3.46-9.645l3.46,9.645h1.427l3.979-12.023h-1.73L212.359,489.286z M238.418,489.589
	c-0.317,0-0.591,0.115-0.822,0.346c-0.231,0.23-0.346,0.505-0.346,0.822c0,0.316,0.115,0.591,0.346,0.821
	c0.23,0.23,0.504,0.346,0.822,0.346c0.317,0,0.591-0.115,0.822-0.346c0.23-0.23,0.346-0.505,0.346-0.821
	c0-0.317-0.116-0.592-0.346-0.822C239.009,489.704,238.735,489.589,238.418,489.589z M193.243,489.286l-3.395-9.602h-1.514
	l-3.396,9.602l-2.984-9.602h-1.73l3.979,12.023h1.428l3.46-9.645l3.46,9.645h1.427l3.979-12.023h-1.73L193.243,489.286z
	 M231.476,489.286l-3.395-9.602h-1.514l-3.396,9.602l-2.984-9.602h-1.73l3.979,12.023h1.428l3.46-9.645l3.46,9.645h1.427
	l3.979-12.023h-1.73L231.476,489.286z M382.732,480.474c-0.426-0.396-0.938-0.667-1.535-0.812c-0.598-0.144-1.271-0.216-2.021-0.216
	c-0.664,0-1.393,0.09-2.184,0.271c-0.793,0.181-1.471,0.4-2.033,0.659c-0.346-0.331-0.818-0.569-1.416-0.714
	c-0.6-0.144-1.273-0.216-2.023-0.216c-0.635,0-1.268,0.058-1.902,0.173l-2.465,0.454v11.635h1.535v-10.38
	c0.447-0.102,0.883-0.188,1.309-0.26c0.424-0.072,0.896-0.108,1.416-0.108c0.605,0,1.125,0.058,1.557,0.173
	c0.434,0.116,0.789,0.321,1.07,0.616c0.281,0.296,0.494,0.711,0.639,1.244s0.217,1.24,0.217,2.119v6.596h1.535v-7.201
	c0-0.663-0.055-1.243-0.162-1.741c-0.109-0.497-0.213-0.861-0.314-1.092c0.086-0.043,0.281-0.119,0.584-0.228
	c0.303-0.107,0.602-0.197,0.898-0.27c0.295-0.072,0.586-0.126,0.875-0.162s0.547-0.055,0.779-0.055c0.59,0,1.102,0.058,1.535,0.173
	c0.432,0.116,0.781,0.317,1.049,0.605c0.266,0.289,0.471,0.703,0.615,1.244c0.145,0.54,0.217,1.251,0.217,2.13v6.596h1.535v-7.201
	c0-0.995-0.111-1.816-0.336-2.466C383.482,481.393,383.158,480.87,382.732,480.474z M280.1,474.581
	c-0.785,0.648-1.18,1.729-1.18,3.243v1.86h-2.551v1.492h2.551v10.531h1.537v-10.531h4.973v-1.492h-4.973v-1.471
	c0-0.635,0.045-1.149,0.141-1.546c0.094-0.396,0.24-0.707,0.443-0.931c0.201-0.223,0.475-0.385,0.82-0.486
	c0.346-0.101,0.779-0.151,1.299-0.151h2.422v-1.492h-2.271C281.956,473.607,280.885,473.932,280.1,474.581z M398.273,487.825
	l3.057,3.057l3.057-3.057l-3.057-3.057L398.273,487.825z M343.322,482.322c0.389-0.418,0.854-0.749,1.395-0.994
	s1.135-0.368,1.783-0.368c0.736,0,1.373,0.076,1.914,0.228s1.121,0.414,1.74,0.789l0.715-1.405c-0.707-0.39-1.393-0.674-2.055-0.854
	c-0.664-0.181-1.436-0.271-2.314-0.271c-0.85,0-1.639,0.155-2.367,0.465c-0.729,0.311-1.367,0.746-1.914,1.309
	c-0.549,0.563-0.98,1.222-1.297,1.979c-0.317,0.757-0.476,1.59-0.476,2.498s0.158,1.74,0.476,2.497
	c0.316,0.757,0.748,1.413,1.297,1.969c0.547,0.555,1.186,0.987,1.914,1.297c0.729,0.311,1.518,0.465,2.367,0.465
	c0.879,0,1.65-0.09,2.314-0.27c0.662-0.181,1.348-0.466,2.055-0.854l-0.715-1.406c-0.619,0.375-1.199,0.639-1.74,0.79
	s-1.178,0.227-1.914,0.227c-0.648,0-1.242-0.119-1.783-0.356c-0.541-0.238-1.006-0.565-1.395-0.984
	c-0.391-0.418-0.693-0.915-0.908-1.492c-0.217-0.576-0.324-1.203-0.324-1.881s0.107-1.305,0.324-1.882
	C342.628,483.238,342.931,482.741,343.322,482.322z M404.387,487.825l1.949,1.95l1.951-1.95l-1.951-1.95L404.387,487.825z
	 M410.701,487.326l-0.664,0.433l0.633,0.564l241.176-0.341L410.701,487.326z M362.611,481.295c-0.549-0.569-1.193-1.02-1.936-1.352
	c-0.742-0.331-1.547-0.497-2.412-0.497c-0.863,0-1.668,0.166-2.41,0.497c-0.742,0.332-1.389,0.782-1.936,1.352
	c-0.549,0.57-0.977,1.229-1.287,1.979c-0.311,0.749-0.465,1.557-0.465,2.422s0.154,1.672,0.465,2.422s0.738,1.409,1.287,1.979
	c0.547,0.569,1.193,1.017,1.936,1.341s1.547,0.486,2.41,0.486c0.865,0,1.67-0.162,2.412-0.486s1.387-0.771,1.936-1.341
	c0.547-0.569,0.977-1.229,1.287-1.979c0.309-0.75,0.465-1.557,0.465-2.422s-0.156-1.673-0.465-2.422
	C363.587,482.524,363.158,481.865,362.611,481.295z M362.394,487.523c-0.217,0.569-0.52,1.067-0.908,1.492
	c-0.389,0.426-0.857,0.765-1.406,1.017c-0.547,0.252-1.152,0.378-1.816,0.378c-0.662,0-1.268-0.126-1.816-0.378
	c-0.547-0.252-1.016-0.591-1.404-1.017c-0.391-0.425-0.693-0.923-0.908-1.492c-0.217-0.569-0.324-1.179-0.324-1.827
	c0-0.649,0.107-1.262,0.324-1.839c0.215-0.576,0.518-1.077,0.908-1.503c0.389-0.425,0.857-0.764,1.404-1.016
	c0.549-0.252,1.154-0.379,1.816-0.379c0.664,0,1.27,0.127,1.816,0.379c0.549,0.252,1.018,0.591,1.406,1.016
	c0.389,0.426,0.691,0.927,0.908,1.503c0.217,0.577,0.324,1.189,0.324,1.839C362.718,486.345,362.611,486.954,362.394,487.523z
	 M296.221,481.295c-0.547-0.569-1.191-1.02-1.936-1.352c-0.742-0.331-1.545-0.497-2.41-0.497s-1.67,0.166-2.412,0.497
	c-0.742,0.332-1.387,0.782-1.936,1.352c-0.547,0.57-0.977,1.229-1.285,1.979c-0.311,0.749-0.465,1.557-0.465,2.422
	s0.154,1.672,0.465,2.422c0.309,0.75,0.738,1.409,1.285,1.979c0.549,0.569,1.193,1.017,1.936,1.341s1.547,0.486,2.412,0.486
	s1.668-0.162,2.41-0.486c0.744-0.324,1.389-0.771,1.936-1.341c0.549-0.569,0.977-1.229,1.287-1.979s0.465-1.557,0.465-2.422
	s-0.154-1.673-0.465-2.422C297.198,482.524,296.77,481.865,296.221,481.295z M296.006,487.523c-0.217,0.569-0.52,1.067-0.908,1.492
	c-0.391,0.426-0.859,0.765-1.406,1.017c-0.549,0.252-1.154,0.378-1.816,0.378c-0.664,0-1.27-0.126-1.816-0.378
	c-0.549-0.252-1.018-0.591-1.406-1.017c-0.389-0.425-0.691-0.923-0.908-1.492s-0.324-1.179-0.324-1.827
	c0-0.649,0.107-1.262,0.324-1.839c0.217-0.576,0.52-1.077,0.908-1.503c0.389-0.425,0.857-0.764,1.406-1.016
	c0.547-0.252,1.152-0.379,1.816-0.379c0.662,0,1.268,0.127,1.816,0.379c0.547,0.252,1.016,0.591,1.406,1.016
	c0.389,0.426,0.691,0.927,0.908,1.503c0.215,0.577,0.324,1.189,0.324,1.839C296.331,486.345,296.221,486.954,296.006,487.523z
	 M309.381,480.463c-0.455-0.39-0.996-0.656-1.623-0.801c-0.627-0.144-1.309-0.216-2.043-0.216c-0.707,0-1.465,0.047-2.271,0.141
	s-1.701,0.234-2.682,0.422v11.699h1.535v-10.402c1.184-0.23,2.293-0.346,3.33-0.346c0.592,0,1.111,0.062,1.559,0.184
	c0.445,0.123,0.818,0.332,1.113,0.628c0.295,0.295,0.525,0.713,0.691,1.254s0.25,1.251,0.25,2.13v6.553h1.535v-7.201
	c0-0.995-0.119-1.82-0.357-2.477C310.18,481.375,309.834,480.852,309.381,480.463z M318.516,490.054
	c-0.346-0.108-0.619-0.277-0.82-0.509c-0.203-0.23-0.35-0.547-0.443-0.951c-0.096-0.403-0.141-0.922-0.141-1.557v-5.86h4.973v-1.492
	h-4.973v-4.347h-1.537v4.347h-2.551v1.492h2.551v6.466c0,0.764,0.109,1.405,0.326,1.925c0.215,0.519,0.525,0.937,0.93,1.254
	c0.402,0.317,0.867,0.544,1.395,0.682c0.525,0.137,1.105,0.205,1.74,0.205h2.271v-1.492h-2.422
	C319.295,490.216,318.862,490.162,318.516,490.054z M337.784,489.589c-0.316,0-0.59,0.115-0.82,0.346s-0.346,0.505-0.346,0.822
	c0,0.316,0.115,0.591,0.346,0.821s0.504,0.346,0.82,0.346c0.318,0,0.592-0.115,0.822-0.346s0.346-0.505,0.346-0.821
	c0-0.317-0.115-0.592-0.346-0.822S338.102,489.589,337.784,489.589z M333.178,486.106c-0.346-0.303-0.785-0.565-1.318-0.789
	c-0.533-0.223-1.182-0.422-1.947-0.595l-0.799-0.173c-1.053-0.216-1.781-0.461-2.184-0.735c-0.404-0.273-0.607-0.678-0.607-1.211
	c0-0.504,0.238-0.904,0.715-1.2c0.475-0.295,1.174-0.443,2.098-0.443c0.793,0,1.477,0.076,2.055,0.228
	c0.576,0.151,1.217,0.421,1.924,0.811l0.691-1.405c-1.412-0.765-2.969-1.146-4.67-1.146c-0.635,0-1.223,0.076-1.764,0.228
	c-0.539,0.151-1.008,0.364-1.404,0.638s-0.711,0.605-0.941,0.994c-0.23,0.39-0.346,0.815-0.346,1.276
	c0,0.462,0.072,0.88,0.217,1.254c0.143,0.375,0.381,0.707,0.713,0.995s0.758,0.537,1.275,0.746c0.52,0.209,1.146,0.4,1.883,0.573
	l0.908,0.194c1.008,0.217,1.729,0.49,2.162,0.822c0.432,0.331,0.648,0.771,0.648,1.318c0,0.39-0.086,0.707-0.26,0.952
	c-0.172,0.245-0.414,0.436-0.725,0.573c-0.311,0.137-0.678,0.237-1.102,0.303c-0.426,0.064-0.877,0.097-1.352,0.097
	c-0.592,0-1.223-0.09-1.893-0.271c-0.67-0.18-1.352-0.479-2.045-0.897l-0.734,1.471c0.779,0.433,1.539,0.742,2.281,0.93
	s1.539,0.281,2.391,0.281c0.748,0,1.434-0.072,2.053-0.216c0.621-0.145,1.158-0.36,1.611-0.648c0.455-0.289,0.805-0.649,1.049-1.082
	c0.246-0.433,0.369-0.93,0.369-1.492c0-0.476-0.072-0.915-0.217-1.318C333.77,486.763,333.526,486.41,333.178,486.106z"/>
</svg>

