<?xml version="1.0" encoding="utf-8"?>
<!-- Generator: Adobe Illustrator 16.0.0, SVG Export Plug-In . SVG Version: 6.00 Build 0)  -->
<!DOCTYPE svg PUBLIC "-//W3C//DTD SVG 1.1//EN" "http://www.w3.org/Graphics/SVG/1.1/DTD/svg11.dtd">
<svg version="1.1" id="Layer_1" xmlns="http://www.w3.org/2000/svg" xmlns:xlink="http://www.w3.org/1999/xlink" x="0px" y="0px"
	  viewBox="-150 0 800 500"  xml:space="preserve">
<g>
	<g>
		<path fill="#000000" d="M283.302,173.687v-20.69c10.476,0,19.904-1.309,27.761-3.666c5.761-2.619,11.262-4.976,17.022-7.595
			c-2.095-2.095-8.118-6.547-17.809-13.095c-9.166-6.023-14.403-9.952-15.976-12.833c-2.096-3.405-3.143-7.333-3.143-11.262
			c0-6.547,2.619-12.571,7.333-17.547c5.238-4.976,11.523-7.857,19.119-7.857c14.142,0,36.665,2.881,68.092,8.12
			c24.88,4.452,41.38,7.856,50.021,9.952c1.572,0.262,2.096,1.571,1.31,3.405l-4.19,12.047c-1.047,2.095-1.833,3.667-3.143,4.19
			c-7.333,2.619-19.38,7.333-37.188,14.142c-19.119,7.857-31.689,13.095-37.975,16.238c2.881,2.619,5.237,6.286,7.332,11.262
			c2.096,4.976,2.882,9.952,2.62,14.666c-0.263,3.667-1.572,5.762-3.667,5.762c-1.31,0-3.144-0.262-6.023-1.048
			c-11-2.619-17.548-9.69-19.381-21.475c-11.262,6.286-20.165,10.475-26.188,12.833
			C300.324,172.115,291.682,173.687,283.302,173.687 M406.13,110.308c-5.238-2.095-18.333-4.714-38.761-7.857
			c-21.999-3.143-39.545-4.714-52.902-4.714c-11,0-16.762,1.048-16.762,3.143c0,1.31,1.834,2.88,5.238,4.976
			c17.809,10.476,30.38,20.429,37.189,30.119C366.584,124.712,388.583,116.069,406.13,110.308"/>
		<g>
			<path fill="#000000" d="M237.731,152.997c-13.094,8.905-20.951,14.143-23.832,15.452c-6.548,3.405-13.095,5.238-19.904,5.238v-20.69
				c9.428,0,20.166-3.404,31.689-10.999c-3.666-3.667-8.119-7.333-13.619-10.476c-4.976-2.619-8.38-3.666-11-3.666
				c-4.714,0-8.38,0.523-10.999,2.095c-0.524,0.523-1.572,0.523-2.095,0.523c-0.524,0-1.31-0.262-1.31-1.309
				c0-0.524,0.262-1.309,0.524-2.095l6.286-14.404c1.047-2.619,6.81-4.714,17.809-7.333c10.738-2.619,20.69-3.666,30.119-3.666
				c18.332,0,32.999,4.189,43.736,12.309c2.88,2.095,4.19,3.405,4.19,4.452c0,0.262-0.263,1.572-1.311,3.143l-6.023,11.523
				c-6.546,2.619-15.451,6.024-26.713,10.738c6.285,6.286,15.714,9.166,27.761,9.166v20.69c-9.166,0-16.237-1.309-20.951-3.143
				C256.064,167.925,247.684,162.164,237.731,152.997 M259.993,124.712c-3.667-2.881-11.001-4.19-21.476-4.19
				c-3.667,0-7.333,0.262-10.476,1.048c6.547,4.452,11.262,8.119,14.404,11.523C248.207,129.95,253.707,127.069,259.993,124.712"/>
		</g>
		<path fill="#000000" d="M193.995,173.687c-6.81,0-12.047-0.524-15.19-1.309c-6.548-1.833-12.047-6.286-16.238-12.833
			c-2.619-4.714-5.237-9.166-8.119-13.88c-2.619-3.667-4.714-5.762-7.333-5.762c-7.856,0-15.714,6.286-24.095,19.118
			c-1.571,2.619-4.452,8.38-8.119,18.333c-3.667,9.953-7.333,17.023-9.952,21.476c-4.453,6.547-9.428,9.952-14.404,9.952
			c-7.595,0-13.88-6.023-18.856-17.809c-4.714-10.476-6.809-20.952-6.809-32.475c0-13.619,1.309-24.095,4.19-32.475
			c0.524-2.881,1.571-4.19,2.095-4.19c0.523,0,1.047,1.571,0.523,5.238c-1.31,8.381-1.571,15.713-1.571,21.737
			c0,28.546,6.547,42.951,19.904,42.951c5.238,0,9.952-4.452,14.666-12.571c4.453-9.952,8.905-20.166,13.619-29.856
			c4.19-8.119,9.166-15.452,15.189-20.952c6.023-6.023,11.262-8.904,16.237-8.904c3.667,0,6.81,2.095,9.953,6.81
			c2.88,4.189,5.238,8.38,7.857,12.57c3.666,5.238,7.595,8.905,11.261,10.738c4.19,1.833,9.167,2.881,15.452,2.881v21.213"/>
		<path fill="#000000" d="M94.737,100.88l4.976-10.738c0.524-0.524,1.047-1.047,1.571-1.047s3.404,1.571,8.904,4.976
			c4.976,3.667,7.595,5.762,7.595,6.286c0,2.619-2.095,7.333-6.81,14.404c-0.262,1.048-1.047,1.309-1.571,1.048
			c-4.452-3.405-9.69-6.81-15.452-10.738c-1.833,4.452-3.667,8.119-5.238,10.999c-0.524,1.048-1.309,1.31-1.833,1.048
			c-4.976-4.19-10.476-7.856-15.713-11c-0.262-0.262-0.262-0.523,0-1.31l6.285-13.618c0.524-1.048,1.047-1.31,1.571-1.31
			s3.143,1.571,7.333,4.452C90.284,97.213,93.166,99.571,94.737,100.88"/>
		<path fill="#000000" d="M383.606,155.092c-0.262,0-0.262-0.523,0-1.309l6.286-13.618c0.524-0.524,1.048-1.048,1.572-1.048
			c0.522,0,3.403,1.571,8.903,5.238c4.977,3.405,7.595,5.762,7.595,6.285c0,2.096-2.096,7.333-6.547,14.404
			c-0.524,1.048-1.31,1.31-1.833,1.048C394.345,162.425,388.845,158.497,383.606,155.092"/>
		<path fill="#000000" d="M363.441,335.8c0.523-3.405,1.833-7.596,3.666-12.571c1.572-3.666,2.619-7.595,2.619-11.262
			c0-7.333-3.404-14.142-10.476-20.689c-0.263-0.523-0.524-1.309,0-1.833l2.095-3.666c0.263-0.524,0.523-0.524,1.048,0
			c6.548,5.237,9.952,13.094,9.952,23.308c0,4.977-1.311,10.477-3.404,15.715c-1.834,5.761-3.143,9.428-3.143,11.261
			c0,4.452,1.309,6.547,3.403,6.547c1.311,0,2.881-1.833,4.715-4.976c0-0.261,0.262-0.523,0.262-0.523c0.262,0,0.262,0,0.262,0
			c0,0.263,0,0.523,0,1.048c-1.57,7.594-3.666,11.262-6.809,11.262s-4.715-3.144-4.715-9.429
			C363.179,338.419,363.441,337.109,363.441,335.8"/>
		<path fill="#000000" d="M329.919,197.257c0-0.262,0.261-0.262,0.261-0.524c0,0,0.263,0,0.263,0.262c0,0,0,0.262,0,0.524
			c-1.31,6.285-3.143,9.428-5.762,9.428c-2.881,0-4.19-2.619-4.19-6.809c0-5.762,1.571-11.523,4.714-17.809
			c1.048-1.571,1.31-2.095,1.572-2.095c0,0.262-0.263,1.31-0.524,2.619c-2.096,6.286-3.143,11-3.143,13.619
			c0,3.404,1.047,5.238,2.881,5.238C327.037,201.448,328.348,199.876,329.919,197.257"/>
		<path fill="#000000" d="M416.605,377.965c-1.047-2.881-2.88-5.761-5.237-7.856c-2.096-2.095-4.714-3.143-7.334-3.143
			c-3.666,0-6.546,0.523-8.381,2.095c-1.57,1.048-2.618,2.096-2.618,3.404c5.762,4.19,12.31,7.333,20.166,9.429
			c1.047,0.262,1.571,0.262,2.095,0.262c1.048,0,1.572-0.262,1.572-1.572C416.868,380.061,416.605,379.274,416.605,377.965
			 M429.439,377.965c0,6.548-1.31,12.571-3.143,17.547c-2.096,5.238-4.453,7.856-6.811,7.856c-12.571,0-25.142-4.976-37.713-14.666
			c-4.19,9.953-9.428,18.595-16.237,24.88c-7.595,7.334-16.237,9.953-24.355,9.953v-20.952c6.023,0,13.095-0.524,19.118-2.881
			c7.595-3.143,12.571-7.333,15.451-12.833c1.048-1.571,3.144-6.023,6.547-13.88c1.572-3.667,3.143-5.763,4.715-6.023
			c1.833-4.19,4.976-8.119,8.904-12.048c5.763-5.762,10.738-8.119,15.714-8.119c6.286,0,11.262,3.667,14.404,11.523
			C428.13,364.084,429.439,370.632,429.439,377.965"/>
		<path fill="#000000" d="M340.918,423.535c-12.047,0-17.284-6.548-18.071-20.429c0-1.048-0.261-1.309-1.047-1.309c-1.31,0-2.095,0.523-3.404,1.833
			c-6.548,7.856-11,12.832-13.095,14.404c-8.381,7.594-20.429,10.476-29.855,10.476v-20.952c9.689,0,21.475-1.57,28.808-6.809
			c3.143-1.833,9.69-8.381,20.428-18.856c1.31-1.311,2.619-1.833,3.404-1.833c1.572,0,2.095,0.522,2.095,1.833
			c0,0.524-0.261,1.833-0.522,3.143c-0.263,1.31-0.263,2.095-0.263,3.143c0,3.666,1.048,7.333,2.619,9.952
			c2.095,3.404,4.714,4.452,8.904,4.19V423.535"/>
		<path fill="#000000" d="M257.636,387.655c1.57,9.689,4.714,15.976,9.429,18.856c2.095,1.571,6.023,1.31,10.999,1.31v20.951
			c-7.333,0-13.095-0.786-17.022-3.929c-6.023-4.19-9.691-12.309-12.049-23.833c-1.309-7.332-2.095-28.546-3.403-63.901
			c-1.31-38.237-2.095-61.808-3.143-70.712c-1.31-13.88-4.19-26.975-7.857-39.546c0-3.404,1.31-8.38,4.19-15.189
			c0.524-1.572,1.047-2.619,1.572-2.619c0.262,0,1.048,1.047,1.571,2.095c4.453,8.381,7.595,23.047,9.691,42.95
			c1.57,12.833,2.618,37.714,3.666,75.426C256.326,365.394,256.851,384.513,257.636,387.655"/>
		<path fill="#000000" d="M228.565,344.966c-6.547,0-12.57-3.143-17.547-9.166c-5.237-6.548-7.856-14.143-7.856-23.309
			c0-12.571,4.976-29.333,15.452-49.236c1.31-2.095,1.833-3.143,2.618-3.143c0.262,0,0.262,0.262,0.262,0.523
			c0,2.095-2.095,9.166-6.546,21.476c-4.453,12.048-6.81,21.737-6.81,28.547c0,5.237,1.572,9.689,4.19,12.832
			c2.62,3.405,6.286,5.238,10.999,5.238c7.596,0,15.977-4.714,25.666-13.881c1.311-1.047,9.953-10.475,26.453-28.284
			c24.094-26.189,45.568-39.022,64.426-39.022c5.761,0,10.476,1.571,14.142,4.715c3.666,3.404,5.762,7.333,5.762,11.522
			c0,5.763-0.523,10.476-2.619,14.404c-0.524,1.572-1.31,2.096-1.57,2.096c-0.263,0-1.048-0.523-1.572-2.096
			c-4.19-6.809-9.951-10.476-17.809-10.476c-14.666,0-31.428,9.428-50.022,28.285c-10.736,11.523-20.95,23.046-31.427,34.308
			C245.326,340.252,236.684,344.966,228.565,344.966"/>
		<path fill="#000000" d="M208.923,418.559v-20.689c7.857,0,15.452-3.404,22.524-10.738c0.523-0.522,1.047-1.57,1.047-2.095
			c0-1.31-1.31-3.405-4.19-6.809c-5.238-6.548-14.667-15.452-28.285-25.405c-19.118-14.665-31.427-24.094-35.88-28.284
			c-14.142-12.309-25.403-24.618-34.308-37.45c0-0.263-1.309-1.572-3.143-3.667c-1.048-1.31-1.572-2.619-1.572-3.143
			c0-18.595,2.095-29.595,6.81-34.046c11.524-10.476,36.403-24.094,74.378-41.118c38.76-17.285,64.165-26.189,76.735-26.189
			c3.405,0,6.023,1.047,7.596,2.095c1.31,1.571,1.833,4.19,1.833,7.595c0,8.119-4.714,18.333-14.404,30.118
			c-3.666,4.453-7.333,8.381-10.999,12.571c-5.763,6.547-9.691,12.309-11.524,16.237c-1.57,2.881-2.095,4.453-2.618,4.453
			c-0.524,0-0.262-1.834,0.261-5.762c0.524-2.095,2.096-6.024,4.977-11c2.619-4.714,4.452-7.856,5.762-9.428
			c11-12.309,17.548-20.428,19.903-24.618c0-0.262,0.263-0.524,0.263-1.048c0-2.619-3.143-3.405-9.429-3.667
			c-9.689,0.262-32.737,8.38-69.14,25.142c-36.403,16.761-61.545,30.38-74.902,41.117c-1.048,1.048-1.048,1.572,0.262,2.096
			l18.595,12.047c4.452,3.143,6.286,4.977,6.286,6.024s-1.048,1.309-3.405,1.309c-1.571,0-4.452-0.261-8.119-0.523
			c9.952,10.999,26.713,25.666,50.022,43.736c20.951,16.762,34.046,28.023,38.237,34.309c3.404,5.238,5.237,11.523,5.237,19.118
			c0,10.476-3.404,19.38-10.475,27.237C221.494,415.154,215.208,418.559,208.923,418.559"/>
		<path fill="#000000" d="M208.923,418.559c-6.809,0-12.047-0.523-15.189-1.309c-6.548-1.835-12.047-6.286-16.238-12.834
			c-2.619-4.714-5.238-9.166-8.119-13.88c-2.619-3.667-4.714-5.763-7.333-5.763c-7.856,0-15.713,6.286-24.094,19.119
			c-1.571,2.619-4.452,8.381-8.119,18.333c-3.667,9.951-7.333,17.022-9.952,21.476c-4.453,6.546-9.428,9.951-14.404,9.951
			c-7.595,0-13.88-6.023-18.857-17.808c-4.713-10.477-6.809-20.952-6.809-32.477c0-13.618,1.309-24.094,4.19-32.475
			c0.523-2.88,1.571-4.19,2.094-4.19c0.524,0,1.048,1.571,0.524,5.238c-1.309,8.381-1.571,15.714-1.571,21.737
			c0,28.547,6.548,42.951,19.904,42.951c5.238,0,9.952-4.453,14.666-12.571c4.452-9.952,8.905-20.166,13.619-29.856
			c4.189-8.118,9.166-15.452,15.189-20.951c6.023-6.024,11.262-8.905,16.237-8.905c3.667,0,6.81,2.096,9.952,6.811
			c2.881,4.189,5.238,8.38,7.857,12.57c3.667,5.237,7.595,8.905,11.262,10.738c4.19,1.833,9.166,2.88,15.451,2.88v21.214"/>
		<path fill="#000000" d="M293.253,445.011c-0.261,0-0.261-0.524,0-1.31l6.286-13.619c0.523-0.523,1.047-1.048,1.571-1.048
			c0.523,0,3.404,1.572,8.904,5.238c4.976,3.405,7.596,5.761,7.596,6.285c0,2.096-2.096,7.334-6.548,14.404
			c-0.524,1.048-1.31,1.311-1.833,1.048C303.991,452.082,298.753,448.414,293.253,445.011"/>
		<path fill="#000000" d="M108.355,357.275l4.976-10.737c0.524-0.524,1.048-1.048,1.571-1.048c0.524,0,3.405,1.571,8.905,4.976
			c4.976,3.666,7.595,5.762,7.595,6.286c0,2.618-2.095,7.332-6.809,14.404c-0.262,1.048-1.048,1.309-1.572,1.048
			c-4.452-3.405-9.69-6.811-15.451-10.738c-1.833,4.452-3.667,8.118-5.238,10.999c-0.524,1.048-1.31,1.31-1.834,1.048
			c-4.976-4.19-10.475-7.856-15.713-11c-0.262-0.262-0.262-0.522,0-1.31l6.286-13.617c0.524-1.048,1.048-1.311,1.571-1.311
			c0.524,0,3.143,1.571,7.333,4.452C103.903,353.87,106.784,355.965,108.355,357.275"/>
		<path fill="#000000" d="M417.13,61.857c-4.19-1.833-6.024-4.19-6.024-6.547c0-2.619,1.31-4.976,3.667-7.333c2.619-2.619,4.452-3.143,6.286-2.619
			c1.309,0.262,1.833,1.833,1.833,4.453c0,2.095-0.263,4.714-1.31,7.595c1.833,1.309,3.143,2.095,3.667,3.143
			c0,1.047-1.048,2.88-2.882,5.237c-0.261-1.047-1.571-1.833-3.404-3.142c-2.095,3.142-4.976,6.023-8.381,8.38
			c-3.667,2.881-7.595,4.977-10.738,6.548c-0.522,0.262-4.451,1.833-11.261,4.452c-1.048,0.262-1.833,0.524-2.096,0.524v-0.262
			c0-0.262,0.263-0.524,1.572-1.571c4.976-2.881,9.951-6.023,15.189-9.167C409.535,68.405,413.987,65,417.13,61.857 M419.486,56.096
			c0.524-1.31,0.524-2.619,0.263-3.666c-0.263-1.048-1.048-1.834-1.833-1.834c-0.263,0-1.048,0.262-1.833,0.524
			c-0.524,0.524-1.311,1.048-1.311,1.31C414.772,53.215,416.344,54.524,419.486,56.096"/>
		<path fill="#000000" d="M187.186,73.381c16.238-6.024,32.999-12.309,50.545-18.856c0.524,0,1.048-0.262,1.31,0c0,0,0,0.262-0.262,1.047
			c-0.523,1.833-1.309,3.143-1.833,3.405c-14.404,5.238-31.689,12.047-51.593,20.166C185.614,77.309,186.138,75.214,187.186,73.381"
			/>
		<path fill="#000000" d="M94.213,54.786c-0.524-2.88-0.524-4.714,0.523-5.762c0.524-1.047,1.572-1.309,2.881-1.309s2.619,0.262,3.667,1.047
			c4.976,2.881,8.38,6.285,9.952,9.952c0,0.262,0.262,0.524,0.262,1.31c0,1.309-0.524,2.88-1.571,4.714
			c-0.524,1.833-1.571,2.618-2.095,2.618c-0.262,0-2.881,0-7.333-0.524c-2.095,3.143-4.976,6.024-8.119,8.12
			c-3.667,3.142-7.595,4.976-10.737,6.547c-0.524,0.262-4.452,1.833-11.262,4.452c-1.047,0.262-1.571,0.524-2.095,0.524v-0.262
			c0,0,0.524-0.524,1.571-1.571c4.976-2.881,9.953-6.023,15.19-8.905c5.762-3.404,9.952-6.547,13.095-9.428
			c-3.667-1.048-5.762-2.881-5.762-5.238C92.642,58.977,92.903,56.881,94.213,54.786 M100.498,61.596
			c0.262-1.047,0.262-2.619,0-3.667c-0.261-1.571-1.309-2.095-2.095-2.095c-0.523,0-1.309,0.262-2.094,1.309
			c-1.048,1.048-1.572,1.833-1.572,2.095C94.475,60.286,96.309,61.072,100.498,61.596 M108.618,61.596
			c-1.048-2.095-2.881-4.19-5.762-4.977c0,2.095,0,4.19-0.523,5.762c0.261,0,2.619,0.262,6.286,1.047c0,0,0.261,0,0.261-0.262
			C109.141,62.644,108.879,62.381,108.618,61.596"/>
		<path fill="#000000" d="M349.561,323.49c1.31,0,3.143,0.524,5.238,2.619c2.619,1.834,3.667,3.404,3.667,4.715c0.261,0.262,0,1.31-0.524,2.88
			c-0.523,1.311-1.311,2.096-1.571,2.096c-1.833,0.524-4.19,1.31-6.285,1.572c-2.62,1.047-4.453,1.833-5.238,3.142
			c3.143,8.905,4.714,17.286,4.714,26.189c0,2.619-0.262,4.977-1.048,7.596c-0.261,1.047-0.523,1.309-0.523,1.571
			c-0.262,0-0.262-1.571-0.262-4.714c0-4.715-1.048-10.738-2.096-17.81c-1.57-6.809-2.095-10.738-2.095-12.047
			c0-3.405,1.047-6.023,2.881-7.596c1.047-0.522,2.881-1.57,5.237-2.095c-1.309-1.31-2.095-1.571-3.143-1.571
			c-0.261,0-1.309,0.262-1.833,1.571c-1.048,1.31-1.571,1.572-1.571,1.572c-0.262,0-0.262-0.263-0.262-1.311
			C345.108,326.109,347.204,323.49,349.561,323.49"/>
		<path fill="#000000" d="M188.495,250.422c1.31,0.524,1.833,1.572,1.833,2.095c0,1.047-0.262,1.309-1.048,1.833
			c-1.833,1.833-2.88,2.619-3.143,2.095c0-0.523-0.524-1.57-1.833-2.881c-0.523-0.262-2.88-0.523-6.547-0.262
			s-6.81,0.523-9.167,1.572c-0.524,0.261-1.31,0.523-1.31,1.047c0,1.048,1.31,1.833,3.667,3.404
			c1.833,1.048,4.452,2.096,7.595,3.144c3.143,1.309,4.714,1.833,5.762,2.095c3.667,2.095,5.238,4.714,4.976,7.595
			c0,1.572-1.309,3.405-3.143,4.976c-1.833,1.572-3.143,2.096-3.667,2.096c-11-2.881-18.594-5.238-23.047-7.856
			c-3.666-2.096-5.238-4.977-5.238-9.167c0-0.523,0-1.31,0-1.833c1.31,1.833,3.667,4.19,7.595,6.285
			c1.833,1.048,6.023,2.619,12.57,4.977c6.286,1.833,9.69,3.143,11.262,3.404c0.524-1.833-1.31-4.19-5.761-6.547
			c-3.143-1.31-7.333-2.882-12.309-5.238c-3.405-1.833-4.977-3.404-4.977-4.976c0-1.31,1.048-2.619,3.405-4.191
			c5.237-3.404,10.999-4.976,16.761-4.976C185.353,249.375,187.186,249.636,188.495,250.422"/>
		<path fill="#000000" d="M308.705,228.685c16.237-6.023,32.999-12.309,50.546-18.856c0.523,0,1.048-0.262,1.31,0c0,0,0,0.261-0.262,1.047
			c-0.524,1.833-1.311,3.143-1.833,3.404c-14.404,5.238-31.689,12.048-51.594,20.167
			C307.134,232.352,307.92,230.518,308.705,228.685"/>
		<path fill="#000000" d="M380.988,178.401c1.309,0,3.143,0.524,5.238,2.619c2.618,1.833,3.666,3.404,3.666,4.714c0.262,0.262,0,1.31-0.523,2.881
			c-0.524,1.309-1.31,2.095-1.572,2.095c-1.833,0.524-4.19,1.309-6.285,1.571c-2.618,1.048-4.451,1.833-5.238,3.143
			c3.143,8.904,4.715,17.285,4.715,26.189c0,2.619-0.262,4.976-1.048,7.595c-0.262,1.048-0.524,1.309-0.524,1.571
			c-0.261,0-0.261-1.571-0.261-4.714c0-4.714-1.048-10.738-2.095-17.809c-1.572-6.809-2.096-10.737-2.096-12.047
			c0-3.404,1.048-6.023,2.881-7.595c1.048-0.524,2.881-1.571,5.238-2.095c-1.311-1.309-2.096-1.571-3.144-1.571
			c-0.262,0-1.31,0.262-1.833,1.571c-1.047,1.31-1.571,1.571-1.571,1.571c-0.263,0-0.263-0.262-0.263-1.309
			C376.536,181.02,378.631,178.401,380.988,178.401"/>
		<path fill="#000000" d="M248.731,65.786c2.618,0,4.714,1.31,6.547,4.19c1.834,2.881,3.143,6.548,3.667,11.261
			c0.261,0.262,0.261,0.524,0.261,0.524c0,0.262,0,0.262,0,0c0.263,0,0.263-0.262,0.263-0.524c0.524-2.88,1.572-6.809,2.881-12.309
			c1.571-3.666,3.404-5.761,5.237-5.761c1.048,0,1.833,0.524,3.144,1.833c0.524,1.31,1.31,2.095,1.31,2.881
			c0,0.786-0.263,1.31-0.524,2.095c-0.261,1.31-0.523,1.833-1.309,1.833c-0.263,0-0.524-0.524-1.572-1.571
			c-0.523-1.048-1.309-1.31-2.095-1.31c-1.571,0-3.144,3.667-4.714,12.048c-0.524,3.404-1.31,6.023-1.833,7.595
			c-0.524,1.047-1.31,1.571-1.572,1.571c-0.262,0-0.523-0.524-0.523-1.571c0-1.309-0.524-4.19-2.095-8.381
			c-1.572-4.19-2.881-6.023-3.405-6.023c-0.523,0-1.048,0-1.048,0.262c0,0.262-0.522,0.524-1.31,0.524
			c-0.785,0-1.57-0.524-2.881-1.572c-1.309-1.31-1.57-1.833-1.57-2.881c0,0,0.262-1.048,1.309-2.881
			C247.684,66.572,248.47,65.786,248.731,65.786"/>
		<path fill="#000000" d="M272.302,327.156c2.619,0,4.714,1.311,6.547,4.19c1.834,2.882,3.143,6.548,3.667,11.262
			c0.262,0.263,0.262,0.524,0.262,0.524c0,0.263,0,0.263,0,0c0.262,0,0.262-0.262,0.262-0.524c0.524-2.881,1.572-6.809,2.881-12.309
			c1.572-3.666,3.405-5.762,5.238-5.762c1.047,0,1.834,0.524,3.143,1.833c0.524,1.31,1.31,2.096,1.31,2.881
			c0,0.786-0.262,1.31-0.523,2.095c-0.262,1.311-0.524,1.835-1.31,1.835c-0.262,0-0.524-0.524-1.572-1.572
			c-0.523-1.048-1.309-1.31-2.095-1.31c-1.571,0-3.143,3.667-4.714,12.048c-0.524,3.403-1.31,6.023-1.833,7.594
			c-0.524,1.048-1.31,1.572-1.572,1.572c-0.261,0-0.522-0.524-0.522-1.572c0-1.309-0.524-4.19-2.096-8.381
			c-1.572-4.188-2.881-6.023-3.405-6.023c-0.522,0-1.047,0-1.047,0.263c0,0.262-0.523,0.524-1.311,0.524
			c-0.785,0-1.57-0.524-2.88-1.572c-1.311-1.31-1.571-1.833-1.571-2.881c0,0,0.261-1.047,1.31-2.88
			C271.255,327.681,272.04,327.156,272.302,327.156"/>
		<path fill="#000000" d="M414.248,252.256c0-0.262,0.263-0.262,0.263-0.524c0,0,0.262,0,0.262,0.263c0,0,0,0.262,0,0.523
			c-1.31,6.285-3.143,9.428-5.762,9.428c-2.881,0-4.189-2.619-4.189-6.81c0-5.761,1.57-11.523,4.714-17.809
			c1.047-1.571,1.31-2.095,1.57-2.095c0,0.262-0.261,1.31-0.523,2.619c-2.095,6.286-3.143,11-3.143,13.618
			c0,3.406,1.048,5.238,2.881,5.238C411.63,256.445,412.678,254.875,414.248,252.256"/>
		<path fill="#000000" d="M73.785,271.636c0.262-2.882,1.571-6.285,3.143-10.476c1.31-3.405,1.833-6.548,1.833-9.691
			c0-6.023-2.881-11.522-8.381-17.284c-0.262-0.262-0.262-1.048,0-1.572l1.833-3.143c0-0.262,0.262-0.262,0.523,0
			c5.762,4.453,8.381,11,8.381,19.38c0,4.19-1.048,8.38-2.881,12.833c-1.571,4.714-2.619,7.857-2.619,9.69
			c0,3.404,1.047,5.237,2.88,5.237c1.048,0,2.095-1.571,3.667-4.19c0-0.262,0.262-0.523,0.262-0.523h0.262c0,0.262,0,0.262,0,0.523
			c-1.309,6.286-3.143,9.69-5.762,9.69c-2.881,0-4.19-2.881-4.19-7.857C73.261,273.992,73.261,272.684,73.785,271.636"/>
		<path fill="#000000" d="M417.13,321.133c-4.19-1.833-6.024-4.189-6.024-6.546c0-2.62,1.31-4.977,3.667-7.334c2.619-2.619,4.452-3.143,6.286-2.619
			c1.309,0.262,1.833,1.834,1.833,4.452c0,2.096-0.263,4.715-1.31,7.596c1.833,1.309,3.143,2.096,3.667,3.143
			c0,1.048-1.048,2.881-2.882,5.238c-0.261-1.048-1.571-1.834-3.404-3.143c-2.095,3.143-4.976,6.023-8.381,8.38
			c-3.667,2.882-7.595,4.977-10.738,6.548c-0.522,0.262-4.451,1.833-11.261,4.452c-1.048,0.261-1.833,0.523-2.096,0.523v-0.263
			c0-0.261,0.263-0.522,1.572-1.57c4.976-2.881,9.951-6.023,15.189-9.166C409.535,327.681,413.987,324.276,417.13,321.133
			 M419.486,315.372c0.524-1.31,0.524-2.618,0.263-3.666c-0.263-1.048-1.048-1.834-1.833-1.834c-0.263,0-1.048,0.262-1.833,0.524
			c-0.524,0.522-1.311,1.047-1.311,1.31C414.772,312.491,416.344,313.801,419.486,315.372"/>
		<path fill="#000000" d="M118.832,211.662c0-0.262,0.261-0.262,0.261-0.524c0.262,0,0.262,0,0.262,0c0,0.262,0,0.524,0,1.047
			c-1.571,7.595-3.667,11.262-6.809,11.262c-3.143,0-4.714-2.881-4.714-8.38c0-6.548,1.833-13.88,5.762-20.952
			c1.048-1.833,1.571-2.88,1.833-2.88c0,0.261-0.262,1.309-1.047,3.143c-2.619,7.595-3.667,13.095-3.667,15.976
			c0,4.452,1.048,6.547,3.405,6.547C115.426,216.637,116.998,214.804,118.832,211.662"/>
		<path fill="#000000" d="M145.021,164.259c0,2.88-1.31,5.761-3.405,9.166s-4.714,6.285-8.38,8.904c-1.31,1.047-1.834,1.571-2.095,1.571v-0.262
			c0,0,0.261-1.047,1.571-2.095c5.761-6.286,8.904-10.476,8.904-12.571c0-1.833-1.047-2.881-2.88-2.881
			c-1.31,0-1.833,0.262-2.881,0.524c-0.524,0.523-1.047,1.047-1.309,1.047c0,0,0-0.262-0.262-0.262c0-0.262,0.262-0.524,0.262-1.571
			c1.047-4.453,3.143-6.286,6.286-6.286C143.45,159.282,145.021,160.854,145.021,164.259"/>
		<path fill="#000000" d="M168.853,199.091c0-0.262,0.262-0.262,0.262-0.524c0,0,0.262,0,0.262,0.262c0,0,0,0.262,0,0.524
			c-1.31,6.286-3.143,9.428-5.762,9.428c-2.881,0-4.19-2.619-4.19-6.81c0-5.762,1.571-11.523,4.714-17.809
			c1.048-1.571,1.31-2.095,1.572-2.095c0,0.262-0.262,1.309-0.524,2.619c-2.095,6.285-3.143,10.999-3.143,13.618
			c0,3.405,1.048,5.238,2.881,5.238C165.973,203.281,167.282,201.71,168.853,199.091"/>
		<path fill="#000000" d="M144.497,76.262c0-0.262,0.262-0.262,0.262-0.524c0.262,0,0.262,0,0.262,0c0,0.262,0,0.524,0,1.048
			c-1.571,7.595-3.667,11.261-6.81,11.261c-3.143,0-4.714-2.88-4.714-8.381c0-6.547,1.833-13.88,5.762-20.952
			c1.047-1.833,1.571-2.88,1.833-2.88c0,0.262-0.262,1.309-1.048,3.143c-2.619,7.595-3.667,13.095-3.667,15.976
			c0,4.452,1.047,6.547,3.405,6.547C140.831,81.237,142.402,79.404,144.497,76.262"/>
		<path fill="#000000" d="M363.179,54.263c0,2.88-1.31,5.762-3.404,9.166c-2.096,3.404-4.714,6.286-8.38,8.905c-1.31,1.047-1.834,1.571-2.096,1.571
			v-0.262c0,0,0.262-1.047,1.571-2.095c5.761-6.285,8.904-10.476,8.904-12.571c0-1.833-1.048-2.881-2.881-2.881
			c-1.309,0-1.833,0.262-2.881,0.523c-0.523,0.524-1.048,1.048-1.31,1.048c0,0,0-0.262-0.261-0.262c0-0.262,0.261-0.524,0.261-1.571
			c1.048-4.452,3.143-6.286,6.285-6.286C361.608,49.287,363.179,50.858,363.179,54.263"/>
		<path fill="#000000" d="M107.046,329.514c0-0.262,0.262-0.262,0.262-0.522c0.262,0,0.262,0,0.262,0c0,0.261,0,0.522,0,1.047
			c-1.571,7.595-3.667,11.262-6.81,11.262c-3.143,0-4.714-2.881-4.714-8.381c0-6.548,1.833-13.881,5.762-20.952
			c1.047-1.833,1.571-2.881,1.833-2.881c0,0.263-0.262,1.311-1.048,3.144c-2.619,7.595-3.667,13.094-3.667,15.975
			c0,4.453,1.048,6.548,3.405,6.548C103.641,334.49,105.212,332.657,107.046,329.514"/>
		<path fill="#000000" d="M109.927,272.421c0,2.881-1.309,5.762-3.404,9.167c-2.095,3.404-4.714,6.285-8.381,8.904
			c-1.31,1.047-1.833,1.571-2.095,1.571v-0.262c0,0,0.262-1.048,1.571-2.096c5.762-6.285,8.905-10.476,8.905-12.571
			c0-1.833-1.048-2.881-2.881-2.881c-1.309,0-1.833,0.263-2.881,0.524c-0.523,0.523-1.047,1.048-1.31,1.048c0,0,0-0.262-0.262-0.262
			c0-0.263,0.262-0.524,0.262-1.572c1.047-4.451,3.143-6.285,6.286-6.285C108.355,267.445,109.927,269.017,109.927,272.421"/>
		<path fill="#000000" d="M277.016,250.422c0-0.262,0.263-0.262,0.263-0.524c0,0,0.262,0,0.262,0.262c0,0,0,0.262,0,0.523
			c-1.31,6.286-3.143,9.429-5.763,9.429c-2.88,0-4.19-2.618-4.19-6.81c0-5.762,1.572-11.523,4.715-17.809
			c1.048-1.571,1.309-2.095,1.571-2.095c0,0.262-0.263,1.309-0.523,2.619c-2.095,6.285-3.143,10.999-3.143,13.618
			c0,3.405,1.048,5.239,2.881,5.239C274.135,254.351,275.445,252.779,277.016,250.422"/>
		<path fill="#000000" d="M332.014,299.396c0-0.262,0.262-0.262,0.262-0.524c0,0,0.262,0,0.262,0.263c0,0,0,0.262,0,0.523
			c-1.31,6.285-3.143,9.428-5.761,9.428c-2.882,0-4.19-2.618-4.19-6.809c0-5.762,1.57-11.523,4.714-17.809
			c1.048-1.571,1.31-2.096,1.571-2.096c0,0.262-0.262,1.31-0.523,2.619c-2.096,6.285-3.144,11-3.144,13.618
			c0,3.405,1.048,5.238,2.881,5.238C329.133,303.586,330.442,302.016,332.014,299.396"/>
		<path fill="#000000" d="M306.872,358.061c0,2.095-1.048,4.452-2.881,7.333s-4.19,5.238-7.333,7.596c-1.048,0.523-1.833,1.31-1.833,1.31v-0.524
			c0,0,0.262-0.523,1.309-1.833c4.977-4.976,7.596-8.381,7.596-10.476c0-1.571-1.048-2.096-2.619-2.096
			c-1.048,0-1.571,0-2.619,0.524c-0.263,0.261-0.523,0.261-1.048,0.261c0,0,0,0-0.262,0c0-0.261,0.262-0.522,0.262-1.309
			c1.048-3.667,2.619-5.237,5.238-5.237C305.563,353.87,306.872,354.918,306.872,358.061"/>
		<path fill="#000000" d="M391.465,281.588c0,2.095-1.048,4.452-2.882,7.333c-1.833,2.881-4.19,5.238-7.334,7.595
			c-1.046,0.523-1.833,1.31-1.833,1.31v-0.263c0,0,0.263-0.523,1.311-1.833c4.976-4.976,7.595-8.381,7.595-10.476
			c0-1.571-1.047-2.096-2.619-2.096c-1.048,0-1.571,0-2.618,0.524c-0.263,0.263-0.524,0.263-1.048,0.263c0,0,0,0-0.263,0
			c0-0.263,0.263-0.524,0.263-1.311c1.048-3.667,2.618-5.237,5.238-5.237C390.154,277.135,391.465,278.444,391.465,281.588"/>
		<path fill="#000000" d="M149.473,438.986c0-0.262,0.261-0.262,0.261-0.523c0,0,0.262,0,0.262,0.262c0,0,0,0.262,0,0.523
			c-1.31,6.286-3.143,9.429-5.762,9.429c-2.88,0-4.19-2.618-4.19-6.809c0-5.763,1.571-11.524,4.714-17.81
			c1.047-1.571,1.31-2.096,1.571-2.096c0,0.263-0.262,1.311-0.524,2.62c-2.095,6.284-3.143,10.999-3.143,13.617
			c0,3.405,1.047,5.238,2.881,5.238C146.592,442.915,147.901,441.344,149.473,438.986"/>
		<path fill="#000000" d="M169.639,405.201c0,2.096-1.048,4.453-2.881,7.334c-1.833,2.88-4.19,5.237-7.333,7.595
			c-1.047,0.523-1.833,1.311-1.833,1.311v-0.524c0,0,0.262-0.523,1.309-1.833c4.977-4.977,7.595-8.381,7.595-10.477
			c0-1.57-1.047-2.095-2.619-2.095c-1.048,0-1.572,0-2.619,0.524c-0.262,0.261-0.524,0.261-1.048,0.261c0,0,0,0-0.262,0
			c0-0.261,0.262-0.523,0.262-1.309c1.048-3.667,2.619-5.238,5.238-5.238C168.329,401.011,169.639,402.059,169.639,405.201"/>
		<path fill="#000000" d="M228.304,432.701c0,2.096-1.047,4.452-2.882,7.332c-1.833,2.882-4.19,5.238-7.332,7.596
			c-1.047,0.524-1.834,1.31-1.834,1.31v-0.262c0,0,0.262-0.523,1.31-1.833c4.976-4.976,7.596-8.381,7.596-10.477
			c0-1.57-1.048-2.095-2.62-2.095c-1.048,0-1.571,0-2.619,0.524c-0.262,0.261-0.524,0.261-1.047,0.261c0,0,0,0-0.262,0
			c0-0.261,0.262-0.523,0.262-1.309c1.047-3.667,2.618-5.238,5.238-5.238C226.994,428.249,228.304,429.559,228.304,432.701"/>
		<path fill="#000000" d="M418.963,423.011c0,2.096-1.047,4.453-2.88,7.333c-1.835,2.881-4.19,5.238-7.334,7.595
			c-1.047,0.524-1.834,1.31-1.834,1.31v-0.262c0,0,0.263-0.523,1.31-1.833c4.977-4.977,7.596-8.381,7.596-10.477
			c0-1.57-1.048-2.094-2.619-2.094c-1.048,0-1.571,0-2.619,0.523c-0.262,0.262-0.524,0.262-1.047,0.262c0,0,0,0-0.263,0
			c0-0.262,0.263-0.524,0.263-1.31c1.047-3.666,2.618-5.238,5.237-5.238C417.916,418.559,418.963,419.868,418.963,423.011"/>
		<path fill="#000000" d="M371.298,440.82c0-0.263,0.262-0.263,0.262-0.524c0,0,0.263,0,0.263,0.262c0,0,0,0.263,0,0.523
			c-1.31,6.286-3.143,9.429-5.763,9.429c-2.881,0-4.19-2.618-4.19-6.809c0-5.763,1.572-11.524,4.715-17.81
			c1.048-1.571,1.31-2.096,1.571-2.096c0,0.263-0.262,1.311-0.523,2.62c-2.096,6.285-3.143,10.999-3.143,13.617
			c0,3.405,1.047,5.238,2.88,5.238C368.417,445.011,369.727,443.438,371.298,440.82"/>
		<path fill="#000000" d="M413.463,214.804c0.263-2.88,1.572-6.286,3.143-10.476c1.311-3.404,1.833-6.547,1.833-9.69
			c0-6.023-2.88-11.523-8.381-17.285c-0.261-0.261-0.261-1.047,0-1.571l1.835-3.143c0-0.262,0.261-0.262,0.522,0
			c5.763,4.453,8.381,11,8.381,19.38c0,4.19-1.047,8.381-2.88,12.833c-1.572,4.714-2.62,7.857-2.62,9.69
			c0,3.405,1.048,5.238,2.882,5.238c1.047,0,2.094-1.572,3.666-4.19c0-0.262,0.263-0.523,0.263-0.523h0.261c0,0.262,0,0.262,0,0.523
			c-1.309,6.286-3.143,9.69-5.762,9.69c-2.88,0-4.19-2.881-4.19-7.857C413.201,217.161,413.201,215.852,413.463,214.804"/>
		<path fill="#000000" d="M167.544,57.667c0,2.095-1.048,4.453-2.881,7.333c-1.833,2.881-4.19,5.238-7.333,7.595
			c-1.048,0.523-1.833,1.31-1.833,1.31v-0.262c0,0,0.262-0.524,1.31-1.833c4.976-4.977,7.595-8.381,7.595-10.476
			c0-1.571-1.047-2.095-2.619-2.095c-1.048,0-1.572,0-2.619,0.524c-0.262,0.262-0.524,0.262-1.048,0.262c0,0,0,0-0.261,0
			c0-0.262,0.261-0.524,0.261-1.31c1.048-3.667,2.619-5.238,5.238-5.238C166.496,53.215,167.544,54.524,167.544,57.667"/>
	</g>
</g>
<path fill="#000000" d="M273.602,481.306c-0.578-0.576-1.301-1.03-2.174-1.362c-0.873-0.331-1.885-0.497-3.039-0.497
	c-0.663,0-1.463,0.079-2.4,0.238v-6.077h-1.535v17.711c0.706,0.202,1.402,0.354,2.087,0.454s1.301,0.151,1.849,0.151
	c1.153,0,2.166-0.162,3.039-0.486s1.596-0.764,2.174-1.319c0.576-0.555,1.006-1.211,1.287-1.968s0.42-1.561,0.42-2.411
	s-0.139-1.657-0.42-2.422C274.608,482.554,274.178,481.883,273.602,481.306z M272.391,489.167c-0.852,0.829-2.17,1.243-3.958,1.243
	c-0.39,0-0.805-0.032-1.244-0.097c-0.439-0.065-0.84-0.134-1.2-0.206v-8.845c0.447-0.115,0.887-0.194,1.319-0.237
	c0.433-0.044,0.808-0.065,1.125-0.065c0.894,0,1.668,0.112,2.325,0.335c0.656,0.224,1.199,0.545,1.633,0.963
	c0.432,0.418,0.752,0.919,0.961,1.503s0.314,1.243,0.314,1.979C273.667,487.195,273.241,488.338,272.391,489.167z M247.392,479.446
	c-0.62,0-1.297,0.079-2.033,0.238c-0.735,0.158-1.485,0.433-2.249,0.821l-0.065,1.73c0.548-0.303,0.973-0.52,1.276-0.649
	s0.624-0.237,0.962-0.324c0.338-0.086,0.677-0.158,1.016-0.216s0.667-0.087,0.984-0.087c1.139,0,1.982,0.249,2.53,0.746
	s0.822,1.33,0.822,2.498v0.13c-0.332-0.044-0.732-0.087-1.2-0.13c-0.469-0.043-0.876-0.065-1.222-0.065
	c-1.831,0-3.302,0.311-4.412,0.931c-1.11,0.619-1.665,1.644-1.665,3.07c0,0.707,0.155,1.305,0.465,1.795
	c0.31,0.49,0.713,0.88,1.211,1.168s1.067,0.497,1.708,0.627c0.641,0.13,1.308,0.194,2,0.194c0.807,0,1.6-0.072,2.378-0.216
	c0.779-0.145,1.536-0.368,2.271-0.671v-7.028c0-1.585-0.397-2.742-1.189-3.471C250.189,479.811,248.992,479.446,247.392,479.446z
	 M250.636,489.892c-0.375,0.144-0.858,0.267-1.449,0.367c-0.591,0.102-1.183,0.151-1.773,0.151c-0.505,0-0.984-0.035-1.438-0.108
	c-0.454-0.071-0.84-0.197-1.157-0.378c-0.317-0.18-0.57-0.414-0.757-0.703c-0.188-0.288-0.281-0.663-0.281-1.124
	c0-0.52,0.111-0.934,0.335-1.244c0.224-0.31,0.533-0.551,0.93-0.724c0.396-0.174,0.85-0.296,1.362-0.368
	c0.511-0.072,1.041-0.108,1.589-0.108c0.476,0,0.984,0.029,1.524,0.087c0.541,0.058,0.912,0.108,1.114,0.151V489.892z
	 M258.032,479.868c-0.649,0.122-1.276,0.263-1.881,0.422v11.418h1.535v-10.186c0.202-0.072,0.563-0.147,1.082-0.228
	c0.519-0.079,1.002-0.118,1.449-0.118h1.989v-1.492H260C259.336,479.685,258.681,479.746,258.032,479.868z M-77.92,487.667
	l241.145,0.656l0.663-0.433l-0.632-0.564L-77.92,487.667z M164.994,487.825l1.95,1.95l1.95-1.95l-1.95-1.95L164.994,487.825z
	 M169.559,487.825l3.057,3.057l3.057-3.057l-3.057-3.057L169.559,487.825z M212.359,489.286l-3.395-9.602h-1.514l-3.396,9.602
	l-2.984-9.602h-1.73l3.979,12.023h1.428l3.46-9.645l3.46,9.645h1.427l3.979-12.023h-1.73L212.359,489.286z M238.418,489.589
	c-0.317,0-0.591,0.115-0.822,0.346c-0.231,0.23-0.346,0.505-0.346,0.822c0,0.316,0.115,0.591,0.346,0.821
	c0.23,0.23,0.504,0.346,0.822,0.346c0.317,0,0.591-0.115,0.822-0.346c0.23-0.23,0.346-0.505,0.346-0.821
	c0-0.317-0.116-0.592-0.346-0.822C239.009,489.704,238.735,489.589,238.418,489.589z M193.243,489.286l-3.395-9.602h-1.514
	l-3.396,9.602l-2.984-9.602h-1.73l3.979,12.023h1.428l3.46-9.645l3.46,9.645h1.427l3.979-12.023h-1.73L193.243,489.286z
	 M231.476,489.286l-3.395-9.602h-1.514l-3.396,9.602l-2.984-9.602h-1.73l3.979,12.023h1.428l3.46-9.645l3.46,9.645h1.427
	l3.979-12.023h-1.73L231.476,489.286z M382.732,480.474c-0.426-0.396-0.938-0.667-1.535-0.812c-0.598-0.144-1.271-0.216-2.021-0.216
	c-0.664,0-1.393,0.09-2.184,0.271c-0.793,0.181-1.471,0.4-2.033,0.659c-0.346-0.331-0.818-0.569-1.416-0.714
	c-0.6-0.144-1.273-0.216-2.023-0.216c-0.635,0-1.268,0.058-1.902,0.173l-2.465,0.454v11.635h1.535v-10.38
	c0.447-0.102,0.883-0.188,1.309-0.26c0.424-0.072,0.896-0.108,1.416-0.108c0.605,0,1.125,0.058,1.557,0.173
	c0.434,0.116,0.789,0.321,1.07,0.616c0.281,0.296,0.494,0.711,0.639,1.244s0.217,1.24,0.217,2.119v6.596h1.535v-7.201
	c0-0.663-0.055-1.243-0.162-1.741c-0.109-0.497-0.213-0.861-0.314-1.092c0.086-0.043,0.281-0.119,0.584-0.228
	c0.303-0.107,0.602-0.197,0.898-0.27c0.295-0.072,0.586-0.126,0.875-0.162s0.547-0.055,0.779-0.055c0.59,0,1.102,0.058,1.535,0.173
	c0.432,0.116,0.781,0.317,1.049,0.605c0.266,0.289,0.471,0.703,0.615,1.244c0.145,0.54,0.217,1.251,0.217,2.13v6.596h1.535v-7.201
	c0-0.995-0.111-1.816-0.336-2.466C383.482,481.393,383.158,480.87,382.732,480.474z M280.1,474.581
	c-0.785,0.648-1.18,1.729-1.18,3.243v1.86h-2.551v1.492h2.551v10.531h1.537v-10.531h4.973v-1.492h-4.973v-1.471
	c0-0.635,0.045-1.149,0.141-1.546c0.094-0.396,0.24-0.707,0.443-0.931c0.201-0.223,0.475-0.385,0.82-0.486
	c0.346-0.101,0.779-0.151,1.299-0.151h2.422v-1.492h-2.271C281.956,473.607,280.885,473.932,280.1,474.581z M398.273,487.825
	l3.057,3.057l3.057-3.057l-3.057-3.057L398.273,487.825z M343.322,482.322c0.389-0.418,0.854-0.749,1.395-0.994
	s1.135-0.368,1.783-0.368c0.736,0,1.373,0.076,1.914,0.228s1.121,0.414,1.74,0.789l0.715-1.405c-0.707-0.39-1.393-0.674-2.055-0.854
	c-0.664-0.181-1.436-0.271-2.314-0.271c-0.85,0-1.639,0.155-2.367,0.465c-0.729,0.311-1.367,0.746-1.914,1.309
	c-0.549,0.563-0.98,1.222-1.297,1.979c-0.317,0.757-0.476,1.59-0.476,2.498s0.158,1.74,0.476,2.497
	c0.316,0.757,0.748,1.413,1.297,1.969c0.547,0.555,1.186,0.987,1.914,1.297c0.729,0.311,1.518,0.465,2.367,0.465
	c0.879,0,1.65-0.09,2.314-0.27c0.662-0.181,1.348-0.466,2.055-0.854l-0.715-1.406c-0.619,0.375-1.199,0.639-1.74,0.79
	s-1.178,0.227-1.914,0.227c-0.648,0-1.242-0.119-1.783-0.356c-0.541-0.238-1.006-0.565-1.395-0.984
	c-0.391-0.418-0.693-0.915-0.908-1.492c-0.217-0.576-0.324-1.203-0.324-1.881s0.107-1.305,0.324-1.882
	C342.628,483.238,342.931,482.741,343.322,482.322z M404.387,487.825l1.949,1.95l1.951-1.95l-1.951-1.95L404.387,487.825z
	 M410.701,487.326l-0.664,0.433l0.633,0.564l241.176-0.341L410.701,487.326z M362.611,481.295c-0.549-0.569-1.193-1.02-1.936-1.352
	c-0.742-0.331-1.547-0.497-2.412-0.497c-0.863,0-1.668,0.166-2.41,0.497c-0.742,0.332-1.389,0.782-1.936,1.352
	c-0.549,0.57-0.977,1.229-1.287,1.979c-0.311,0.749-0.465,1.557-0.465,2.422s0.154,1.672,0.465,2.422s0.738,1.409,1.287,1.979
	c0.547,0.569,1.193,1.017,1.936,1.341s1.547,0.486,2.41,0.486c0.865,0,1.67-0.162,2.412-0.486s1.387-0.771,1.936-1.341
	c0.547-0.569,0.977-1.229,1.287-1.979c0.309-0.75,0.465-1.557,0.465-2.422s-0.156-1.673-0.465-2.422
	C363.587,482.524,363.158,481.865,362.611,481.295z M362.394,487.523c-0.217,0.569-0.52,1.067-0.908,1.492
	c-0.389,0.426-0.857,0.765-1.406,1.017c-0.547,0.252-1.152,0.378-1.816,0.378c-0.662,0-1.268-0.126-1.816-0.378
	c-0.547-0.252-1.016-0.591-1.404-1.017c-0.391-0.425-0.693-0.923-0.908-1.492c-0.217-0.569-0.324-1.179-0.324-1.827
	c0-0.649,0.107-1.262,0.324-1.839c0.215-0.576,0.518-1.077,0.908-1.503c0.389-0.425,0.857-0.764,1.404-1.016
	c0.549-0.252,1.154-0.379,1.816-0.379c0.664,0,1.27,0.127,1.816,0.379c0.549,0.252,1.018,0.591,1.406,1.016
	c0.389,0.426,0.691,0.927,0.908,1.503c0.217,0.577,0.324,1.189,0.324,1.839C362.718,486.345,362.611,486.954,362.394,487.523z
	 M296.221,481.295c-0.547-0.569-1.191-1.02-1.936-1.352c-0.742-0.331-1.545-0.497-2.41-0.497s-1.67,0.166-2.412,0.497
	c-0.742,0.332-1.387,0.782-1.936,1.352c-0.547,0.57-0.977,1.229-1.285,1.979c-0.311,0.749-0.465,1.557-0.465,2.422
	s0.154,1.672,0.465,2.422c0.309,0.75,0.738,1.409,1.285,1.979c0.549,0.569,1.193,1.017,1.936,1.341s1.547,0.486,2.412,0.486
	s1.668-0.162,2.41-0.486c0.744-0.324,1.389-0.771,1.936-1.341c0.549-0.569,0.977-1.229,1.287-1.979s0.465-1.557,0.465-2.422
	s-0.154-1.673-0.465-2.422C297.198,482.524,296.77,481.865,296.221,481.295z M296.006,487.523c-0.217,0.569-0.52,1.067-0.908,1.492
	c-0.391,0.426-0.859,0.765-1.406,1.017c-0.549,0.252-1.154,0.378-1.816,0.378c-0.664,0-1.27-0.126-1.816-0.378
	c-0.549-0.252-1.018-0.591-1.406-1.017c-0.389-0.425-0.691-0.923-0.908-1.492s-0.324-1.179-0.324-1.827
	c0-0.649,0.107-1.262,0.324-1.839c0.217-0.576,0.52-1.077,0.908-1.503c0.389-0.425,0.857-0.764,1.406-1.016
	c0.547-0.252,1.152-0.379,1.816-0.379c0.662,0,1.268,0.127,1.816,0.379c0.547,0.252,1.016,0.591,1.406,1.016
	c0.389,0.426,0.691,0.927,0.908,1.503c0.215,0.577,0.324,1.189,0.324,1.839C296.331,486.345,296.221,486.954,296.006,487.523z
	 M309.381,480.463c-0.455-0.39-0.996-0.656-1.623-0.801c-0.627-0.144-1.309-0.216-2.043-0.216c-0.707,0-1.465,0.047-2.271,0.141
	s-1.701,0.234-2.682,0.422v11.699h1.535v-10.402c1.184-0.23,2.293-0.346,3.33-0.346c0.592,0,1.111,0.062,1.559,0.184
	c0.445,0.123,0.818,0.332,1.113,0.628c0.295,0.295,0.525,0.713,0.691,1.254s0.25,1.251,0.25,2.13v6.553h1.535v-7.201
	c0-0.995-0.119-1.82-0.357-2.477C310.18,481.375,309.834,480.852,309.381,480.463z M318.516,490.054
	c-0.346-0.108-0.619-0.277-0.82-0.509c-0.203-0.23-0.35-0.547-0.443-0.951c-0.096-0.403-0.141-0.922-0.141-1.557v-5.86h4.973v-1.492
	h-4.973v-4.347h-1.537v4.347h-2.551v1.492h2.551v6.466c0,0.764,0.109,1.405,0.326,1.925c0.215,0.519,0.525,0.937,0.93,1.254
	c0.402,0.317,0.867,0.544,1.395,0.682c0.525,0.137,1.105,0.205,1.74,0.205h2.271v-1.492h-2.422
	C319.295,490.216,318.862,490.162,318.516,490.054z M337.784,489.589c-0.316,0-0.59,0.115-0.82,0.346s-0.346,0.505-0.346,0.822
	c0,0.316,0.115,0.591,0.346,0.821s0.504,0.346,0.82,0.346c0.318,0,0.592-0.115,0.822-0.346s0.346-0.505,0.346-0.821
	c0-0.317-0.115-0.592-0.346-0.822S338.102,489.589,337.784,489.589z M333.178,486.106c-0.346-0.303-0.785-0.565-1.318-0.789
	c-0.533-0.223-1.182-0.422-1.947-0.595l-0.799-0.173c-1.053-0.216-1.781-0.461-2.184-0.735c-0.404-0.273-0.607-0.678-0.607-1.211
	c0-0.504,0.238-0.904,0.715-1.2c0.475-0.295,1.174-0.443,2.098-0.443c0.793,0,1.477,0.076,2.055,0.228
	c0.576,0.151,1.217,0.421,1.924,0.811l0.691-1.405c-1.412-0.765-2.969-1.146-4.67-1.146c-0.635,0-1.223,0.076-1.764,0.228
	c-0.539,0.151-1.008,0.364-1.404,0.638s-0.711,0.605-0.941,0.994c-0.23,0.39-0.346,0.815-0.346,1.276
	c0,0.462,0.072,0.88,0.217,1.254c0.143,0.375,0.381,0.707,0.713,0.995s0.758,0.537,1.275,0.746c0.52,0.209,1.146,0.4,1.883,0.573
	l0.908,0.194c1.008,0.217,1.729,0.49,2.162,0.822c0.432,0.331,0.648,0.771,0.648,1.318c0,0.39-0.086,0.707-0.26,0.952
	c-0.172,0.245-0.414,0.436-0.725,0.573c-0.311,0.137-0.678,0.237-1.102,0.303c-0.426,0.064-0.877,0.097-1.352,0.097
	c-0.592,0-1.223-0.09-1.893-0.271c-0.67-0.18-1.352-0.479-2.045-0.897l-0.734,1.471c0.779,0.433,1.539,0.742,2.281,0.93
	s1.539,0.281,2.391,0.281c0.748,0,1.434-0.072,2.053-0.216c0.621-0.145,1.158-0.36,1.611-0.648c0.455-0.289,0.805-0.649,1.049-1.082
	c0.246-0.433,0.369-0.93,0.369-1.492c0-0.476-0.072-0.915-0.217-1.318C333.77,486.763,333.526,486.41,333.178,486.106z"/>
</svg>

