<?xml version="1.0" encoding="utf-8"?>
<!-- Generator: Adobe Illustrator 16.0.0, SVG Export Plug-In . SVG Version: 6.00 Build 0)  -->
<!DOCTYPE svg PUBLIC "-//W3C//DTD SVG 1.1//EN" "http://www.w3.org/Graphics/SVG/1.1/DTD/svg11.dtd">
<svg version="1.1" id="Layer_1" xmlns="http://www.w3.org/2000/svg" xmlns:xlink="http://www.w3.org/1999/xlink" x="0px" y="0px"
	  viewBox="-150 0 800 500"  xml:space="preserve">
<g>
	<g>
		<path fill="#000000" d="M593.954,239.878c-6.13-2.675-15.938-5.573-29.424-8.805c-17.276-4.235-30.762-6.13-41.128-6.13
			c-8.247,0-12.482,0.558-12.482,1.895c0,0.78,1.337,2.118,3.678,4.235c4.458,3.678,9.251,7.69,14.044,11.703
			c6.91,5.796,11.368,9.808,13.263,12.483C560.629,248.683,577.793,243.556,593.954,239.878 M623.156,232.745l-4.235,11.368
			c-0.224,1.337-0.78,2.118-1.115,2.675c-0.223,0.557-0.557,0.78-1.337,0.78c-23.295,5.796-46.7,13.041-69.771,21.957
			c0.223,3.678,0.557,6.353,0.557,8.248c0,2.897-0.557,4.235-1.337,4.235c-1.114,0-3.678-3.232-7.468-9.809
			c-4.235,1.338-11.703,4.235-21.957,9.028v-15.604c3.232-1.337,7.69-3.455,13.041-5.795c-0.558-0.78-4.459-4.013-11.926-10.031
			c-6.576-5.35-10.589-9.251-12.483-12.149c-1.561-2.675-2.341-5.795-2.341-9.028c0-5.016,2.118-9.585,6.354-13.486
			c4.235-3.678,9.585-5.795,16.161-5.795c11.702,0,30.539,3.232,55.95,9.585c1.115,0.223,14.602,4.013,40.57,11.146
			C623.156,230.07,623.713,231.185,623.156,232.745"/>
		<path fill="#000000" d="M517.05,304.3c-3.232-4.793-8.805-7.914-16.719-9.251c-2.117-0.223-3.231,0-3.231,0.558c0,0.223,0.557,0.779,1.114,1.56
			c5.573,7.134,11.368,10.923,17.275,10.923c1.895,0,2.898-0.557,2.898-1.114C518.388,306.194,517.941,305.414,517.05,304.3
			 M458.535,326.368v-17.499c7.914,0,15.158-3.678,21.512-11.368c1.561-1.561,4.458-6.354,8.805-13.82
			c1.114-1.561,2.117-2.676,3.232-2.676c0.557,0,1.114,0.224,1.561,0.558c0-0.223-0.224-0.558-0.224-0.78
			c0-3.455,7.69-8.471,23.071-15.158v15.604c9.251,6.575,13.821,14.823,13.821,24.632c0,4.012-1.338,8.247-4.459,12.705
			c-3.455,4.793-7.133,7.134-11.146,7.134c-4.792,0-9.808-2.341-15.381-7.134c-6.13-5.35-10.03-11.702-11.926-18.836
			C480.27,317.34,470.461,326.368,458.535,326.368"/>
		<g>
			<path fill="#000000" d="M420.083,308.869c-11.146,7.468-17.721,11.926-20.173,13.04c-5.573,2.898-11.146,4.459-16.719,4.459v-17.499
				c7.913,0,16.941-2.897,26.749-9.251c-3.231-3.232-6.91-6.13-11.368-8.805c-4.235-2.118-7.133-3.232-9.251-3.232
				c-4.012,0-7.133,0.558-9.251,1.895c-0.557,0.558-1.337,0.558-1.895,0.558c-0.557,0-1.114-0.223-1.114-1.114
				c0-0.558,0.223-1.115,0.558-1.896l5.35-12.148c0.78-2.117,5.796-4.012,15.158-6.13c9.027-2.117,17.498-3.232,25.411-3.232
				c15.381,0,27.864,3.455,36.893,10.365c2.34,1.896,3.455,2.898,3.455,3.679c0,0.223-0.224,1.337-1.115,2.675l-5.015,9.808
				c-5.573,2.118-13.041,5.016-22.515,9.028c5.35,5.35,13.264,7.69,23.294,7.69v17.498c-7.69,0-13.82-1.114-17.721-2.675
				C435.464,321.575,428.554,316.56,420.083,308.869 M438.808,285.018c-3.231-2.341-9.251-3.455-18.056-3.455
				c-3.232,0-6.13,0.223-8.805,0.78c5.572,3.678,9.585,6.91,12.148,9.808C428.777,289.476,433.569,287.136,438.808,285.018"/>
		</g>
		<path fill="#000000" d="M383.191,326.368c-5.796,0-10.031-0.558-12.706-1.115c-5.572-1.56-10.031-5.35-13.82-10.922
			c-2.118-4.013-4.458-7.69-6.91-11.703c-2.118-3.232-4.013-4.793-6.13-4.793c-6.576,0-13.264,5.35-20.396,16.161
			c-1.338,2.118-3.679,7.133-6.91,15.381c-3.232,8.248-6.131,14.267-8.471,18.056c-3.679,5.573-7.914,8.471-12.149,8.471
			c-6.353,0-11.702-5.016-15.938-15.157c-4.013-8.806-5.796-17.722-5.796-27.308c0-11.368,1.114-20.396,3.455-27.307
			c0.558-2.34,1.338-3.455,1.895-3.455c0.558,0,0.78,1.338,0.558,4.459c-1.114,7.133-1.338,13.263-1.338,18.278
			c0,24.186,5.573,36.335,16.719,36.335c4.458,0,8.471-3.679,12.483-10.589c3.678-8.471,7.467-16.941,11.368-25.188
			c3.455-6.91,7.69-13.041,12.706-17.722c5.016-5.016,9.585-7.468,13.82-7.468c3.232,0,5.796,1.895,8.471,5.796
			c2.341,3.455,4.458,7.133,6.576,10.588c3.231,4.459,6.353,7.468,9.585,9.028c3.455,1.561,7.69,2.341,13.04,2.341v17.833"/>
		<path fill="#000000" d="M256.132,288.695c-0.78-2.34-2.341-4.792-4.458-6.575c-1.895-1.895-4.013-2.675-6.13-2.675
			c-3.232,0-5.573,0.557-7.133,1.895c-1.338,0.78-2.118,1.895-2.118,2.897c4.792,3.455,10.365,6.13,16.941,7.913
			c0.78,0.224,1.337,0.224,1.895,0.224c0.78,0,1.337-0.224,1.337-1.338C256.354,290.591,256.132,289.699,256.132,288.695
			 M267.055,288.695c0,5.573-1.114,10.589-2.675,14.824c-1.896,4.458-3.679,6.576-5.796,6.576c-10.588,0-21.177-4.235-31.876-12.483
			c-3.455,8.471-7.913,15.604-13.82,20.953c-6.353,6.131-12.706,9.028-19.616,9.028v-17.275c5.015,0,10.031-1.338,15.158-3.455
			c6.353-2.675,10.588-6.13,13.041-10.923c0.78-1.338,2.675-5.016,5.573-11.703c1.337-3.232,2.675-4.792,4.012-5.016
			c1.561-3.455,4.235-6.91,7.468-10.03c4.792-4.793,9.028-6.911,13.263-6.911c5.35,0,9.585,3.232,12.148,9.809
			C265.94,276.993,267.055,282.565,267.055,288.695"/>
		<path fill="#000000" d="M193.048,327.705c-10.031,0-15.381-6.13-15.938-17.722c0-0.78-0.223-1.114-0.78-1.114c-1.115,0-1.895,0.558-2.898,1.561
			c-5.573,6.576-9.251,10.923-11.146,12.148c-7.133,6.354-14.824,9.585-22.849,9.585v-17.498c8.248,0,15.604-2.118,21.957-6.576
			c2.675-1.561,8.248-7.133,17.275-15.938c1.115-1.114,2.118-1.56,2.898-1.56c1.337,0,1.895,0.557,1.895,1.56
			c0,0.558-0.223,1.561-0.558,2.676c-0.223,1.114-0.223,1.895-0.223,2.675c0,3.232,0.78,6.13,2.118,8.471
			c1.895,2.897,4.792,4.458,8.248,4.235V327.705"/>
		<path fill="#000000" d="M121.939,296.943c1.337,8.248,4.013,13.486,7.914,15.938c1.895,1.337,5.016,1.895,9.251,1.895v17.499
			c-6.13,0-10.923-1.338-14.267-4.013c-5.016-3.455-8.248-10.365-10.031-20.174c-1.115-6.13-1.895-24.186-2.898-53.833
			c-1.115-32.322-1.895-52.272-2.675-59.629c-1.115-11.703-3.456-22.848-6.576-33.437c0-2.898,1.115-7.133,3.455-12.706
			c0.558-1.337,0.78-2.118,1.337-2.118c0.223,0,0.78,0.78,1.338,1.895c3.678,7.133,6.353,19.393,8.248,36.334
			c1.337,10.922,2.118,31.876,3.232,63.641C120.825,278.107,121.382,294.269,121.939,296.943"/>
		<path fill="#000000" d="M-11.696,360.25c-5.573,0-10.588-2.675-14.824-7.69c-4.458-5.572-6.576-11.926-6.576-19.616
			c0-10.588,4.235-24.632,13.04-41.685c1.115-1.895,1.561-2.675,2.118-2.675c0.223,0,0.223,0.224,0.223,0.558
			c0,1.895-1.895,7.69-5.573,18.056c-3.678,10.031-5.796,18.279-5.796,24.187c0,4.458,1.337,8.247,3.455,10.922
			c2.118,2.898,5.35,4.459,9.251,4.459c6.353,0,13.486-4.013,21.734-11.703c1.115-0.78,8.471-8.806,22.291-23.852
			c20.396-21.957,38.452-32.88,54.391-32.88c4.792,0,8.805,1.338,11.926,4.013c3.232,2.897,4.792,6.13,4.792,9.808
			c0,4.793-0.557,8.806-2.118,12.149c-0.557,1.337-1.115,1.895-1.337,1.895c-0.223,0-0.78-0.558-1.337-1.895
			c-3.455-5.796-8.471-8.806-15.158-8.806c-12.483,0-26.526,7.914-42.13,23.852c-9.028,9.809-17.721,19.394-26.526,28.867
			C2.347,356.35-4.786,360.25-11.696,360.25"/>
		<path fill="#000000" d="M-5.343,332.721v-17.498c6.576,0,13.04-2.898,19.059-9.028c0.557-0.558,0.78-1.338,0.78-1.895
			c0-1.115-1.114-2.898-3.455-5.796c-4.458-5.573-12.483-13.04-23.852-21.511c-16.161-12.483-26.526-20.396-30.205-23.852
			c-11.926-10.366-21.511-20.731-28.867-31.542c0-0.223-1.115-1.338-2.675-3.232c-0.78-1.115-1.337-2.118-1.337-2.675
			c0-15.604,1.895-24.966,5.796-28.645c9.808-8.805,30.762-20.396,62.861-34.774c32.657-14.601,54.056-21.957,64.756-21.957
			c2.898,0,5.016,0.78,6.353,1.895c1.115,1.337,1.561,3.455,1.561,6.353c0,6.91-4.013,15.381-12.149,25.412
			c-3.232,3.678-6.13,7.133-9.25,10.588c-4.793,5.573-8.248,10.366-9.808,13.821c-1.338,2.34-1.895,3.678-2.118,3.678
			c-0.558,0-0.223-1.56,0.223-4.792c0.557-1.895,1.895-5.016,4.235-9.251c2.118-4.012,3.678-6.576,4.792-7.913
			c9.251-10.366,14.824-17.276,16.719-20.731c0-0.223,0.223-0.557,0.223-0.78c0-2.118-2.675-2.897-7.913-3.232
			c-8.248,0.223-27.53,7.133-58.292,21.176s-51.938,25.747-63.084,34.774c-0.78,0.78-0.78,1.337,0.223,1.895l15.604,10.031
			c3.678,2.675,5.35,4.235,5.35,5.016s-0.78,1.114-2.898,1.114c-1.337,0-3.678-0.223-6.91-0.557
			c8.47,9.251,22.514,21.734,42.13,36.892c17.722,14.043,28.645,23.628,32.322,28.867c2.898,4.458,4.458,9.808,4.458,16.161
			c0,8.805-2.898,16.495-8.805,23.071C5.245,329.823-0.105,332.721-5.343,332.721"/>
		<path fill="#000000" d="M-5.343,332.721c-5.796,0-10.031-0.558-12.706-1.114c-5.573-1.561-10.031-5.351-13.82-10.923
			c-2.118-4.013-4.458-7.69-6.911-11.703c-2.118-3.232-4.012-4.792-6.13-4.792c-6.576,0-13.263,5.35-20.396,16.161
			c-1.337,2.117-3.678,7.133-6.91,15.381c-3.232,8.247-6.13,14.266-8.471,18.056c-3.678,5.572-7.913,8.471-12.148,8.471
			c-6.353,0-11.703-5.016-15.938-15.158c-4.012-8.805-5.795-17.722-5.795-27.307c0-11.368,1.114-20.396,3.455-27.307
			c0.557-2.341,1.337-3.455,1.895-3.455s0.78,1.337,0.557,4.458c-1.114,7.133-1.337,13.264-1.337,18.279
			c0,24.186,5.573,36.334,16.719,36.334c4.458,0,8.47-3.678,12.483-10.588c3.678-8.471,7.467-16.941,11.368-25.189
			c3.456-6.91,7.691-13.04,12.706-17.722c5.016-5.015,9.585-7.467,13.821-7.467c3.232,0,5.795,1.895,8.471,5.795
			c2.34,3.455,4.458,7.134,6.576,10.589c3.232,4.458,6.353,7.468,9.585,9.027c3.456,1.561,7.691,2.341,13.041,2.341v17.833"/>
		<path fill="#000000" d="M147.128,360.027c-0.223,0-0.223-0.558,0-1.114l5.35-11.369c0.557-0.557,0.78-0.779,1.337-0.779s2.898,1.337,7.468,4.458
			c4.235,2.897,6.353,4.792,6.353,5.35c0,1.895-1.895,6.13-5.573,12.148c-0.557,0.78-1.114,1.115-1.56,0.78
			C156.156,366.157,151.586,362.926,147.128,360.027"/>
		<path fill="#000000" d="M-88.601,274.318l4.235-9.028c0.558-0.558,0.78-0.78,1.338-0.78c0.557,0,2.897,1.338,7.467,4.235
			c4.235,3.232,6.353,4.793,6.353,5.35c0,2.118-1.895,6.131-5.796,12.149c-0.223,0.779-0.78,1.114-1.337,0.779
			c-3.678-2.897-8.248-5.795-13.04-9.027c-1.561,3.678-3.232,6.91-4.458,9.251c-0.557,0.78-1.114,1.114-1.56,0.78
			c-4.235-3.455-8.805-6.576-13.264-9.251c-0.223-0.223-0.223-0.558,0-1.114l5.35-11.369c0.557-0.78,0.78-1.114,1.337-1.114
			s2.675,1.337,6.13,3.678C-92.39,271.42-89.938,273.314-88.601,274.318"/>
		<path fill="#000000" d="M555.057,160.299c-5.351-2.675-7.914-5.573-7.914-8.805c0-3.455,1.561-6.91,5.016-10.031
			c3.455-2.898,6.13-4.013,8.471-3.232c1.895,0.557,2.675,2.675,2.675,6.13c0,2.898-0.557,6.353-1.895,10.031
			c2.897,1.561,4.458,2.898,5.016,4.012c0,1.561-1.114,4.013-3.455,7.468c-0.78-1.115-2.341-2.341-5.016-4.013
			c-2.897,4.235-6.576,7.914-11.368,11.369c-5.016,3.678-10.031,6.576-14.267,8.805c-1.114,0.557-6.13,2.34-15.158,5.795
			c-1.561,0.558-2.341,0.78-2.897,0.78c-0.223,0-0.223-0.223-0.223-0.223c0-0.223,0.779-1.115,2.34-2.118
			c6.576-4.013,13.486-7.914,20.396-12.149C544.914,169.327,551.044,164.534,555.057,160.299 M558.177,152.942
			c0.558-1.56,0.78-3.232,0.558-5.015c-0.558-1.561-1.338-2.675-2.675-2.675c-0.558,0-1.561,0.223-2.675,0.78
			c-1.115,0.78-1.561,1.337-1.561,1.895C551.824,149.153,553.941,151.048,558.177,152.942"/>
		<path fill="#000000" d="M572.221,308.535c-0.223,0-0.223-0.558,0-1.115l5.35-11.368c0.558-0.558,0.78-0.78,1.338-0.78
			c0.557,0,2.897,1.338,7.467,4.458c4.235,2.898,6.354,4.793,6.354,5.351c0,1.895-1.895,6.13-5.573,12.148
			c-0.557,0.78-1.114,1.114-1.561,0.78C581.248,314.665,576.79,311.544,572.221,308.535"/>
		<path fill="#000000" d="M315.761,257.934l4.235-9.027c0.558-0.558,0.78-0.78,1.338-0.78c0.557,0,2.897,1.337,7.467,4.235
			c4.235,3.232,6.354,4.792,6.354,5.35c0,2.118-1.895,6.13-5.796,12.148c-0.223,0.78-0.78,1.115-1.338,0.78
			c-3.678-2.897-8.247-5.796-13.04-9.027c-1.561,3.678-3.232,6.91-4.458,9.251c-0.558,0.779-1.114,1.114-1.561,0.779
			c-4.235-3.455-8.805-6.575-13.264-9.25c-0.223-0.224-0.223-0.558,0-1.115l5.351-11.368c0.557-0.78,0.78-1.115,1.337-1.115
			c0.558,0,2.675,1.337,6.13,3.678C312.083,255.036,314.423,256.819,315.761,257.934"/>
		<path fill="#000000" d="M370.485,196.633c21.511-7.914,44.248-16.496,67.877-25.189c1.114-0.223,1.561-0.557,1.561-0.223
			c0.223,0,0.223,0.558,0,1.337c-1.115,2.675-1.896,4.235-2.676,4.458c-19.839,7.467-42.91,16.718-69.771,27.53
			C368.033,202.206,368.813,199.531,370.485,196.633"/>
		<path fill="#000000" d="M309.185,206.776c-1.114-3.678-0.78-6.13,0.78-7.69c1.115-1.115,2.341-1.561,4.013-1.561c1.561,0,3.232,0.557,5.35,1.337
			c6.576,4.013,11.146,8.471,13.486,13.821c0,0.223,0.223,0.78,0.223,1.337c0,1.895-0.78,4.012-1.895,6.353
			c-1.114,2.34-2.341,3.678-3.455,3.678c-0.223,0-3.455-0.557-9.251-1.114c-3.232,4.235-6.91,7.913-11.146,11.146
			c-5.35,3.678-10.031,6.576-14.601,8.805c-0.78,0.558-5.796,2.341-15.158,5.796c-1.337,0.557-2.341,0.78-2.897,0.78
			c-0.224,0-0.224-0.223-0.224-0.223c0-0.223,0.78-1.114,2.341-2.118c6.576-4.012,13.486-7.913,20.174-11.926
			c7.69-4.458,13.82-8.805,18.056-12.706c-5.35-1.338-7.913-3.678-7.913-7.133C307.067,212.014,307.848,209.339,309.185,206.776
			 M317.655,215.804c0.558-1.561,0.558-3.455,0-5.35c-0.557-2.118-1.337-2.897-2.675-2.897c-0.78,0-1.895,0.557-3.232,1.895
			c-1.337,1.337-2.117,2.34-2.117,2.898C309.742,213.909,312.306,215.247,317.655,215.804 M329.024,215.804
			c-1.561-3.232-4.013-5.573-7.69-7.133c0,3.232-0.224,5.796-1.115,7.69c0.558,0.223,3.232,0.558,8.248,1.337
			c0.223,0,0.558,0,0.78-0.223C329.581,217.364,329.358,216.807,329.024,215.804"/>
		<path fill="#000000" d="M246.547,198.305c-5.35-2.675-7.914-5.573-7.914-8.805c0-3.455,1.561-6.91,5.016-10.031
			c3.455-2.898,6.13-4.013,8.47-3.232c1.896,0.557,2.676,2.675,2.676,6.13c0,2.897-0.558,6.353-1.896,10.031
			c2.898,1.561,4.458,2.898,5.016,4.012c0,1.561-1.114,4.013-3.455,7.468c-0.78-1.115-2.341-2.341-5.016-4.012
			c-2.897,4.235-6.576,7.913-11.368,11.368c-5.016,3.678-10.031,6.576-14.267,8.805c-1.114,0.557-6.13,2.34-15.158,5.795
			c-1.561,0.558-2.341,0.78-2.898,0.78c-0.223,0-0.223-0.223-0.223-0.223c0-0.223,0.78-1.115,2.341-2.118
			c6.576-4.013,13.486-7.914,20.396-12.149C236.516,207.222,242.646,202.541,246.547,198.305 M249.779,190.837
			c0.558-1.56,0.781-3.232,0.558-5.015c-0.558-1.561-1.338-2.675-2.675-2.675c-0.557,0-1.56,0.223-2.675,0.78
			c-1.115,0.78-1.561,1.337-1.561,1.895C243.426,187.16,245.543,188.943,249.779,190.837"/>
		<path fill="#000000" d="M134.645,225.834c16.161-6.13,33.103-12.483,50.936-18.836c0.78-0.223,1.114-0.557,1.337-0.223c0,0,0,0.223-0.223,1.114
			c-0.78,1.895-1.337,2.898-1.895,3.456c-14.824,5.35-32.322,12.148-52.273,20.396C132.862,229.847,133.642,227.952,134.645,225.834
			"/>
		<path fill="#000000" d="M21.963,242.553c16.161-6.13,33.103-12.483,50.935-18.836c0.78-0.223,1.115-0.557,1.337-0.223c0,0,0,0.223-0.223,1.115
			c-0.78,1.895-1.337,2.897-1.895,3.455c-14.824,5.35-32.322,12.148-52.273,20.396C20.068,246.565,20.849,244.671,21.963,242.553"/>
		<path fill="#000000" d="M-97.406,229.847c-0.78-2.675-0.557-4.458,0.557-5.796c0.78-0.78,1.895-1.114,3.232-1.114c1.114,0,2.34,0.223,3.678,1.114
			c5.35,2.898,8.471,6.13,10.366,10.366c0,0.223,0.223,0.557,0.223,0.78c0,1.561-0.557,3.232-1.337,5.016
			c-1.115,1.561-1.895,2.675-2.675,2.675c-0.223,0-2.675-0.223-7.133-0.78c-2.118,3.232-5.016,5.795-8.248,8.248
			c-4.013,2.898-7.69,5.35-10.923,6.576c-0.78,0.223-4.458,1.895-11.369,4.235c-1.114,0.558-1.895,0.78-2.34,0.78v-0.223
			c0-0.223,0.557-0.78,1.895-1.561c5.016-2.897,10.031-5.796,15.158-8.805c5.796-3.456,10.031-6.576,13.263-9.809
			c-4.012-0.78-5.796-2.675-5.796-5.35C-98.966,233.748-98.409,231.63-97.406,229.847 M-91.053,236.757
			c0.557-1.337,0.557-2.34,0-4.012c-0.223-1.561-1.115-2.118-2.118-2.118c-0.557,0-1.337,0.223-2.341,1.337
			c-0.78,1.114-1.337,1.895-1.337,2.118C-96.849,235.42-94.954,236.2-91.053,236.757 M-82.582,236.757
			c-1.115-2.34-2.898-4.235-5.573-5.35c0,2.34-0.223,4.235-0.78,5.795c0.223,0,2.34,0.223,6.13,0.78c0.223,0,0.223,0,0.557,0
			C-82.248,237.76-82.248,237.538-82.582,236.757"/>
		<path fill="#000000" d="M-5.121,185.042c2.341,0,3.455,1.114,2.898,3.232c-0.78,2.341-1.337,3.455-1.895,3.455c0,0-0.223,0-0.78-0.557
			s-1.337-0.78-2.118-0.78c-1.115,0-2.898,0.78-6.13,2.898c-3.232,2.118-5.573,4.013-7.133,6.13
			c-0.223,0.223-0.558,0.78-0.558,1.114c0,0.78,1.561,1.337,5.016,1.337c2.341,0,5.016-0.223,8.248-0.78
			c3.232-0.557,5.015-0.78,5.795-0.78c4.458,0,7.133,1.337,8.471,3.678c0.223,0.78,0.557,1.561,0.557,2.341
			c0,1.56-0.557,3.232-1.337,4.792c-0.557,1.561-1.337,2.34-1.895,2.675c-10.588,3.232-18.279,4.792-23.852,4.792
			c-2.675,0-5.016-1.114-7.133-2.675c-1.561-1.337-2.675-2.675-2.898-4.458c1.895,1.114,5.016,1.56,9.585,1.56
			c2.118,0,6.576-0.78,13.82-2.118c6.353-1.114,10.031-1.895,11.703-2.34c-0.78-1.895-3.455-2.675-8.471-2.675
			c-1.115,0-3.232,0.223-6.576,0.78c-3.232,0.558-5.35,0.78-6.576,0.78c-5.016,0-7.468-1.337-7.468-3.455
			c0-1.114,0.223-2.34,1.115-4.012c2.341-4.458,5.573-8.248,9.585-11.146C-10.136,186.045-7.461,185.042-5.121,185.042"/>
		<path fill="#000000" d="M398.795,205.104c3.455,0,6.354,1.895,8.806,5.573c2.675,4.012,4.458,8.805,5.572,14.824c0,0.78,0,1.114,0,1.337
			c0.224,0,0.224,0,0.224,0c0-0.223,0.223-0.558,0.557-1.337c0.558-3.678,1.895-9.028,3.678-16.496
			c2.118-5.35,4.459-7.69,7.134-7.69c1.337,0,2.675,0.78,4.013,2.675c1.114,1.561,1.895,2.898,1.895,3.678s-0.223,1.895-0.78,2.898
			c-0.558,1.895-1.114,2.675-1.561,2.675s-1.114-0.78-2.117-1.895c-0.78-1.338-1.896-1.895-2.898-1.895
			c-2.341,0-4.458,5.35-6.353,16.161c-0.78,4.458-1.896,7.914-2.898,9.808c-0.78,1.337-1.337,2.118-1.895,2.118
			s-0.78-0.78-0.78-1.895c0-1.895-1.114-5.573-3.232-11.146c-2.117-5.35-3.678-7.913-4.792-7.913c-0.558,0-0.78,0-1.115,0.557
			c-0.223,0.557-0.779,0.78-1.56,0.78c-1.115,0-2.118-0.78-3.679-2.341c-1.561-1.337-2.34-2.34-2.34-3.455
			c0-0.223,0.557-1.56,1.895-4.012C397.792,206.218,398.572,205.104,398.795,205.104"/>
		<path fill="#000000" d="M169.642,156.844c0.223-0.223,0.558-0.558,0.558-0.558c0.223-0.223,0.223-0.223,0.223,0c0.223,0.223,0.223,0.558,0,0.78
			c-1.561,8.471-4.012,12.706-7.467,12.706c-3.678,0-5.573-3.232-5.573-9.585c0-7.468,2.118-15.604,6.576-23.852
			c1.115-2.118,1.561-3.232,1.895-3.232c0,0.223-0.223,1.561-0.78,3.455c-3.232,8.805-4.458,14.824-4.458,18.279
			c0,4.792,1.337,7.133,4.013,7.133C165.964,162.193,167.859,160.299,169.642,156.844"/>
		<path fill="#000000" d="M133.642,240.212c3.455,0,6.353,1.895,8.805,5.573c2.675,4.013,4.458,8.805,5.573,14.824c0,0.779,0,1.114,0,1.337
			c0.223,0,0.223,0,0.223,0c0-0.223,0.223-0.558,0.557-1.337c0.558-3.679,1.895-9.028,3.678-16.496
			c2.118-5.35,4.458-7.69,7.133-7.69c1.337,0,2.675,0.78,4.012,2.675c1.115,1.56,1.895,2.897,1.895,3.678s-0.223,1.895-0.78,2.898
			c-0.558,1.895-1.115,2.675-1.561,2.675c-0.557,0-1.115-0.78-2.118-1.895c-0.78-1.337-1.895-1.895-2.898-1.895
			c-2.34,0-4.458,5.35-6.353,16.162c-0.78,4.458-1.895,7.913-2.897,9.808c-0.78,1.338-1.337,2.118-1.895,2.118
			c-0.557,0-0.78-0.78-0.78-1.896c0-1.895-1.114-5.572-3.232-11.146c-2.118-5.35-3.678-7.913-4.792-7.913
			c-0.558,0-0.78,0-1.115,0.558c-0.223,0.557-0.78,0.78-1.561,0.78c-1.114,0-2.118-0.78-3.678-2.341
			c-1.561-1.337-2.341-2.341-2.341-3.455c0-0.223,0.557-1.561,1.895-4.013C132.527,241.216,133.308,240.212,133.642,240.212"/>
		<path fill="#000000" d="M495.316,164.534c0,0.78-1.338,2.897-3.679,6.353c-2.675,3.678-5.016,6.353-7.468,8.248
			c-1.56,1.115-6.575,2.675-15.381,5.016c-1.56,0.223-2.34,0.557-2.34,0.557c0-0.223,0.557-0.78,1.561-1.561
			c1.114-0.78,4.235-2.34,9.25-5.35c4.793-2.341,7.69-4.235,8.471-4.792c0.224-0.223,0.224-0.223,0.224-0.558
			c0-1.114-4.235-1.56-13.041-1.56c0,0-1.561,0-5.016,0c-1.337,0.223-2.117,0-2.117-0.223c0-0.223,0-0.557,0.558-1.337l2.897-5.35
			c1.114-1.337,2.675-2.34,5.016-2.897c0.78,0,2.897,0,5.796,0C490.301,161.079,495.316,162.193,495.316,164.534"/>
		<path fill="#000000" d="M80.032,193.513c0.223-0.223,0.557-0.558,0.557-0.558c0.223-0.223,0.223-0.223,0.223,0c0.223,0.223,0.223,0.558,0,0.78
			c-1.561,8.471-4.013,12.706-7.468,12.706c-3.678,0-5.573-3.232-5.573-9.585c0-7.468,2.118-15.604,6.576-23.852
			c1.114-2.118,1.56-3.232,1.895-3.232c0,0.223-0.223,1.561-0.78,3.455c-3.232,8.805-4.458,14.824-4.458,18.279
			c0,4.792,1.337,7.133,4.012,7.133C76.354,198.751,78.137,196.968,80.032,193.513"/>
		<path fill="#000000" d="M335.377,161.971c0.223-0.223,0.558-0.558,0.558-0.558c0.223-0.223,0.223-0.223,0.223,0c0.223,0.223,0.223,0.558,0,0.78
			c-1.561,8.471-4.013,12.706-7.468,12.706c-3.678,0-5.572-3.232-5.572-9.585c0-7.468,2.117-15.604,6.575-23.852
			c1.115-2.118,1.561-3.232,1.896-3.232c0,0.223-0.224,1.561-0.78,3.455c-3.232,8.805-4.459,14.824-4.459,18.279
			c0,4.792,1.338,7.133,4.013,7.133C331.699,167.209,333.594,165.426,335.377,161.971"/>
	</g>
</g>
<path fill="#000000" d="M273.602,481.306c-0.578-0.576-1.301-1.03-2.174-1.362c-0.873-0.331-1.885-0.497-3.039-0.497
	c-0.663,0-1.463,0.079-2.4,0.238v-6.077h-1.535v17.711c0.706,0.202,1.402,0.354,2.087,0.454s1.301,0.151,1.849,0.151
	c1.153,0,2.166-0.162,3.039-0.486s1.596-0.764,2.174-1.319c0.576-0.555,1.006-1.211,1.287-1.968s0.42-1.561,0.42-2.411
	s-0.139-1.657-0.42-2.422C274.608,482.554,274.178,481.883,273.602,481.306z M272.391,489.167c-0.852,0.829-2.17,1.243-3.958,1.243
	c-0.39,0-0.805-0.032-1.244-0.097c-0.439-0.065-0.84-0.134-1.2-0.206v-8.845c0.447-0.115,0.887-0.194,1.319-0.237
	c0.433-0.044,0.808-0.065,1.125-0.065c0.894,0,1.668,0.112,2.325,0.335c0.656,0.224,1.199,0.545,1.633,0.963
	c0.432,0.418,0.752,0.919,0.961,1.503s0.314,1.243,0.314,1.979C273.667,487.195,273.241,488.338,272.391,489.167z M247.392,479.446
	c-0.62,0-1.297,0.079-2.033,0.238c-0.735,0.158-1.485,0.433-2.249,0.821l-0.065,1.73c0.548-0.303,0.973-0.52,1.276-0.649
	s0.624-0.237,0.962-0.324c0.338-0.086,0.677-0.158,1.016-0.216s0.667-0.087,0.984-0.087c1.139,0,1.982,0.249,2.53,0.746
	s0.822,1.33,0.822,2.498v0.13c-0.332-0.044-0.732-0.087-1.2-0.13c-0.469-0.043-0.876-0.065-1.222-0.065
	c-1.831,0-3.302,0.311-4.412,0.931c-1.11,0.619-1.665,1.644-1.665,3.07c0,0.707,0.155,1.305,0.465,1.795
	c0.31,0.49,0.713,0.88,1.211,1.168s1.067,0.497,1.708,0.627c0.641,0.13,1.308,0.194,2,0.194c0.807,0,1.6-0.072,2.378-0.216
	c0.779-0.145,1.536-0.368,2.271-0.671v-7.028c0-1.585-0.397-2.742-1.189-3.471C250.189,479.811,248.992,479.446,247.392,479.446z
	 M250.636,489.892c-0.375,0.144-0.858,0.267-1.449,0.367c-0.591,0.102-1.183,0.151-1.773,0.151c-0.505,0-0.984-0.035-1.438-0.108
	c-0.454-0.071-0.84-0.197-1.157-0.378c-0.317-0.18-0.57-0.414-0.757-0.703c-0.188-0.288-0.281-0.663-0.281-1.124
	c0-0.52,0.111-0.934,0.335-1.244c0.224-0.31,0.533-0.551,0.93-0.724c0.396-0.174,0.85-0.296,1.362-0.368
	c0.511-0.072,1.041-0.108,1.589-0.108c0.476,0,0.984,0.029,1.524,0.087c0.541,0.058,0.912,0.108,1.114,0.151V489.892z
	 M258.032,479.868c-0.649,0.122-1.276,0.263-1.881,0.422v11.418h1.535v-10.186c0.202-0.072,0.563-0.147,1.082-0.228
	c0.519-0.079,1.002-0.118,1.449-0.118h1.989v-1.492H260C259.336,479.685,258.681,479.746,258.032,479.868z M-77.92,487.667
	l241.145,0.656l0.663-0.433l-0.632-0.564L-77.92,487.667z M164.994,487.825l1.95,1.95l1.95-1.95l-1.95-1.95L164.994,487.825z
	 M169.559,487.825l3.057,3.057l3.057-3.057l-3.057-3.057L169.559,487.825z M212.359,489.286l-3.395-9.602h-1.514l-3.396,9.602
	l-2.984-9.602h-1.73l3.979,12.023h1.428l3.46-9.645l3.46,9.645h1.427l3.979-12.023h-1.73L212.359,489.286z M238.418,489.589
	c-0.317,0-0.591,0.115-0.822,0.346c-0.231,0.23-0.346,0.505-0.346,0.822c0,0.316,0.115,0.591,0.346,0.821
	c0.23,0.23,0.504,0.346,0.822,0.346c0.317,0,0.591-0.115,0.822-0.346c0.23-0.23,0.346-0.505,0.346-0.821
	c0-0.317-0.116-0.592-0.346-0.822C239.009,489.704,238.735,489.589,238.418,489.589z M193.243,489.286l-3.395-9.602h-1.514
	l-3.396,9.602l-2.984-9.602h-1.73l3.979,12.023h1.428l3.46-9.645l3.46,9.645h1.427l3.979-12.023h-1.73L193.243,489.286z
	 M231.476,489.286l-3.395-9.602h-1.514l-3.396,9.602l-2.984-9.602h-1.73l3.979,12.023h1.428l3.46-9.645l3.46,9.645h1.427
	l3.979-12.023h-1.73L231.476,489.286z M382.732,480.474c-0.426-0.396-0.938-0.667-1.535-0.812c-0.598-0.144-1.271-0.216-2.021-0.216
	c-0.664,0-1.393,0.09-2.184,0.271c-0.793,0.181-1.471,0.4-2.033,0.659c-0.346-0.331-0.818-0.569-1.416-0.714
	c-0.6-0.144-1.273-0.216-2.023-0.216c-0.635,0-1.268,0.058-1.902,0.173l-2.465,0.454v11.635h1.535v-10.38
	c0.447-0.102,0.883-0.188,1.309-0.26c0.424-0.072,0.896-0.108,1.416-0.108c0.605,0,1.125,0.058,1.557,0.173
	c0.434,0.116,0.789,0.321,1.07,0.616c0.281,0.296,0.494,0.711,0.639,1.244s0.217,1.24,0.217,2.119v6.596h1.535v-7.201
	c0-0.663-0.055-1.243-0.162-1.741c-0.109-0.497-0.213-0.861-0.314-1.092c0.086-0.043,0.281-0.119,0.584-0.228
	c0.303-0.107,0.602-0.197,0.898-0.27c0.295-0.072,0.586-0.126,0.875-0.162s0.547-0.055,0.779-0.055c0.59,0,1.102,0.058,1.535,0.173
	c0.432,0.116,0.781,0.317,1.049,0.605c0.266,0.289,0.471,0.703,0.615,1.244c0.145,0.54,0.217,1.251,0.217,2.13v6.596h1.535v-7.201
	c0-0.995-0.111-1.816-0.336-2.466C383.482,481.393,383.158,480.87,382.732,480.474z M280.1,474.581
	c-0.785,0.648-1.18,1.729-1.18,3.243v1.86h-2.551v1.492h2.551v10.531h1.537v-10.531h4.973v-1.492h-4.973v-1.471
	c0-0.635,0.045-1.149,0.141-1.546c0.094-0.396,0.24-0.707,0.443-0.931c0.201-0.223,0.475-0.385,0.82-0.486
	c0.346-0.101,0.779-0.151,1.299-0.151h2.422v-1.492h-2.271C281.956,473.607,280.885,473.932,280.1,474.581z M398.273,487.825
	l3.057,3.057l3.057-3.057l-3.057-3.057L398.273,487.825z M343.322,482.322c0.389-0.418,0.854-0.749,1.395-0.994
	s1.135-0.368,1.783-0.368c0.736,0,1.373,0.076,1.914,0.228s1.121,0.414,1.74,0.789l0.715-1.405c-0.707-0.39-1.393-0.674-2.055-0.854
	c-0.664-0.181-1.436-0.271-2.314-0.271c-0.85,0-1.639,0.155-2.367,0.465c-0.729,0.311-1.367,0.746-1.914,1.309
	c-0.549,0.563-0.98,1.222-1.297,1.979c-0.317,0.757-0.476,1.59-0.476,2.498s0.158,1.74,0.476,2.497
	c0.316,0.757,0.748,1.413,1.297,1.969c0.547,0.555,1.186,0.987,1.914,1.297c0.729,0.311,1.518,0.465,2.367,0.465
	c0.879,0,1.65-0.09,2.314-0.27c0.662-0.181,1.348-0.466,2.055-0.854l-0.715-1.406c-0.619,0.375-1.199,0.639-1.74,0.79
	s-1.178,0.227-1.914,0.227c-0.648,0-1.242-0.119-1.783-0.356c-0.541-0.238-1.006-0.565-1.395-0.984
	c-0.391-0.418-0.693-0.915-0.908-1.492c-0.217-0.576-0.324-1.203-0.324-1.881s0.107-1.305,0.324-1.882
	C342.628,483.238,342.931,482.741,343.322,482.322z M404.387,487.825l1.949,1.95l1.951-1.95l-1.951-1.95L404.387,487.825z
	 M410.701,487.326l-0.664,0.433l0.633,0.564l241.176-0.341L410.701,487.326z M362.611,481.295c-0.549-0.569-1.193-1.02-1.936-1.352
	c-0.742-0.331-1.547-0.497-2.412-0.497c-0.863,0-1.668,0.166-2.41,0.497c-0.742,0.332-1.389,0.782-1.936,1.352
	c-0.549,0.57-0.977,1.229-1.287,1.979c-0.311,0.749-0.465,1.557-0.465,2.422s0.154,1.672,0.465,2.422s0.738,1.409,1.287,1.979
	c0.547,0.569,1.193,1.017,1.936,1.341s1.547,0.486,2.41,0.486c0.865,0,1.67-0.162,2.412-0.486s1.387-0.771,1.936-1.341
	c0.547-0.569,0.977-1.229,1.287-1.979c0.309-0.75,0.465-1.557,0.465-2.422s-0.156-1.673-0.465-2.422
	C363.587,482.524,363.158,481.865,362.611,481.295z M362.394,487.523c-0.217,0.569-0.52,1.067-0.908,1.492
	c-0.389,0.426-0.857,0.765-1.406,1.017c-0.547,0.252-1.152,0.378-1.816,0.378c-0.662,0-1.268-0.126-1.816-0.378
	c-0.547-0.252-1.016-0.591-1.404-1.017c-0.391-0.425-0.693-0.923-0.908-1.492c-0.217-0.569-0.324-1.179-0.324-1.827
	c0-0.649,0.107-1.262,0.324-1.839c0.215-0.576,0.518-1.077,0.908-1.503c0.389-0.425,0.857-0.764,1.404-1.016
	c0.549-0.252,1.154-0.379,1.816-0.379c0.664,0,1.27,0.127,1.816,0.379c0.549,0.252,1.018,0.591,1.406,1.016
	c0.389,0.426,0.691,0.927,0.908,1.503c0.217,0.577,0.324,1.189,0.324,1.839C362.718,486.345,362.611,486.954,362.394,487.523z
	 M296.221,481.295c-0.547-0.569-1.191-1.02-1.936-1.352c-0.742-0.331-1.545-0.497-2.41-0.497s-1.67,0.166-2.412,0.497
	c-0.742,0.332-1.387,0.782-1.936,1.352c-0.547,0.57-0.977,1.229-1.285,1.979c-0.311,0.749-0.465,1.557-0.465,2.422
	s0.154,1.672,0.465,2.422c0.309,0.75,0.738,1.409,1.285,1.979c0.549,0.569,1.193,1.017,1.936,1.341s1.547,0.486,2.412,0.486
	s1.668-0.162,2.41-0.486c0.744-0.324,1.389-0.771,1.936-1.341c0.549-0.569,0.977-1.229,1.287-1.979s0.465-1.557,0.465-2.422
	s-0.154-1.673-0.465-2.422C297.198,482.524,296.77,481.865,296.221,481.295z M296.006,487.523c-0.217,0.569-0.52,1.067-0.908,1.492
	c-0.391,0.426-0.859,0.765-1.406,1.017c-0.549,0.252-1.154,0.378-1.816,0.378c-0.664,0-1.27-0.126-1.816-0.378
	c-0.549-0.252-1.018-0.591-1.406-1.017c-0.389-0.425-0.691-0.923-0.908-1.492s-0.324-1.179-0.324-1.827
	c0-0.649,0.107-1.262,0.324-1.839c0.217-0.576,0.52-1.077,0.908-1.503c0.389-0.425,0.857-0.764,1.406-1.016
	c0.547-0.252,1.152-0.379,1.816-0.379c0.662,0,1.268,0.127,1.816,0.379c0.547,0.252,1.016,0.591,1.406,1.016
	c0.389,0.426,0.691,0.927,0.908,1.503c0.215,0.577,0.324,1.189,0.324,1.839C296.331,486.345,296.221,486.954,296.006,487.523z
	 M309.381,480.463c-0.455-0.39-0.996-0.656-1.623-0.801c-0.627-0.144-1.309-0.216-2.043-0.216c-0.707,0-1.465,0.047-2.271,0.141
	s-1.701,0.234-2.682,0.422v11.699h1.535v-10.402c1.184-0.23,2.293-0.346,3.33-0.346c0.592,0,1.111,0.062,1.559,0.184
	c0.445,0.123,0.818,0.332,1.113,0.628c0.295,0.295,0.525,0.713,0.691,1.254s0.25,1.251,0.25,2.13v6.553h1.535v-7.201
	c0-0.995-0.119-1.82-0.357-2.477C310.18,481.375,309.834,480.852,309.381,480.463z M318.516,490.054
	c-0.346-0.108-0.619-0.277-0.82-0.509c-0.203-0.23-0.35-0.547-0.443-0.951c-0.096-0.403-0.141-0.922-0.141-1.557v-5.86h4.973v-1.492
	h-4.973v-4.347h-1.537v4.347h-2.551v1.492h2.551v6.466c0,0.764,0.109,1.405,0.326,1.925c0.215,0.519,0.525,0.937,0.93,1.254
	c0.402,0.317,0.867,0.544,1.395,0.682c0.525,0.137,1.105,0.205,1.74,0.205h2.271v-1.492h-2.422
	C319.295,490.216,318.862,490.162,318.516,490.054z M337.784,489.589c-0.316,0-0.59,0.115-0.82,0.346s-0.346,0.505-0.346,0.822
	c0,0.316,0.115,0.591,0.346,0.821s0.504,0.346,0.82,0.346c0.318,0,0.592-0.115,0.822-0.346s0.346-0.505,0.346-0.821
	c0-0.317-0.115-0.592-0.346-0.822S338.102,489.589,337.784,489.589z M333.178,486.106c-0.346-0.303-0.785-0.565-1.318-0.789
	c-0.533-0.223-1.182-0.422-1.947-0.595l-0.799-0.173c-1.053-0.216-1.781-0.461-2.184-0.735c-0.404-0.273-0.607-0.678-0.607-1.211
	c0-0.504,0.238-0.904,0.715-1.2c0.475-0.295,1.174-0.443,2.098-0.443c0.793,0,1.477,0.076,2.055,0.228
	c0.576,0.151,1.217,0.421,1.924,0.811l0.691-1.405c-1.412-0.765-2.969-1.146-4.67-1.146c-0.635,0-1.223,0.076-1.764,0.228
	c-0.539,0.151-1.008,0.364-1.404,0.638s-0.711,0.605-0.941,0.994c-0.23,0.39-0.346,0.815-0.346,1.276
	c0,0.462,0.072,0.88,0.217,1.254c0.143,0.375,0.381,0.707,0.713,0.995s0.758,0.537,1.275,0.746c0.52,0.209,1.146,0.4,1.883,0.573
	l0.908,0.194c1.008,0.217,1.729,0.49,2.162,0.822c0.432,0.331,0.648,0.771,0.648,1.318c0,0.39-0.086,0.707-0.26,0.952
	c-0.172,0.245-0.414,0.436-0.725,0.573c-0.311,0.137-0.678,0.237-1.102,0.303c-0.426,0.064-0.877,0.097-1.352,0.097
	c-0.592,0-1.223-0.09-1.893-0.271c-0.67-0.18-1.352-0.479-2.045-0.897l-0.734,1.471c0.779,0.433,1.539,0.742,2.281,0.93
	s1.539,0.281,2.391,0.281c0.748,0,1.434-0.072,2.053-0.216c0.621-0.145,1.158-0.36,1.611-0.648c0.455-0.289,0.805-0.649,1.049-1.082
	c0.246-0.433,0.369-0.93,0.369-1.492c0-0.476-0.072-0.915-0.217-1.318C333.77,486.763,333.526,486.41,333.178,486.106z"/>
</svg>

