<?xml version="1.0" encoding="utf-8"?>
<!-- Generator: Adobe Illustrator 16.0.0, SVG Export Plug-In . SVG Version: 6.00 Build 0)  -->
<!DOCTYPE svg PUBLIC "-//W3C//DTD SVG 1.1//EN" "http://www.w3.org/Graphics/SVG/1.1/DTD/svg11.dtd">
<svg version="1.1" id="Layer_1" xmlns="http://www.w3.org/2000/svg" xmlns:xlink="http://www.w3.org/1999/xlink" x="0px" y="0px"
	  viewBox="-150 0 800 500"  xml:space="preserve">
<g>
	<g>
		<path fill="#000000" d="M599.139,254.94c-7.061-3.026-18.443-6.485-34.149-10.231c-20.029-4.899-35.735-7.061-47.695-7.061
			c-9.511,0-14.409,0.576-14.409,2.161c0,0.865,1.585,2.45,4.322,4.899c5.188,4.323,10.808,8.934,16.283,13.544
			c8.068,6.772,13.256,11.384,15.418,14.41C560.233,265.171,580.263,259.263,599.139,254.94 M633.001,246.583l-4.899,13.256
			c-0.288,1.585-0.864,2.45-1.296,3.026c-0.289,0.576-0.577,0.864-1.585,0.864c-27.09,6.772-54.18,15.13-80.981,25.505
			c0.288,4.323,0.576,7.349,0.576,9.51c0,3.459-0.576,4.899-1.585,4.899c-1.297,0-4.322-3.746-8.646-11.383
			c-4.899,1.585-14.842,5.331-26.802,10.807l1.297-18.444c3.747-1.585,8.935-4.034,15.13-6.772
			c-0.576-0.864-5.188-4.61-13.833-11.671c-7.637-6.196-12.248-10.808-14.409-14.121c-1.873-3.026-2.737-6.773-2.737-10.52
			c0-5.908,2.449-11.095,7.349-15.706c4.899-4.323,11.095-6.772,18.732-6.772c13.544,0,35.446,3.747,64.986,11.095
			c1.297,0.288,17.003,4.611,47.118,12.969C633.001,243.557,633.578,244.854,633.001,246.583"/>
		<path fill="#000000" d="M509.801,329.869c-3.746-5.476-10.23-9.223-19.452-10.808c-2.45-0.288-3.747,0-3.747,0.577
			c0,0.288,0.576,0.864,1.297,1.873c6.484,8.357,13.257,12.68,20.029,12.68c2.161,0,3.458-0.576,3.458-1.297
			C511.386,332.03,510.665,331.021,509.801,329.869 M440.203,355.229l1.441-20.173c9.222,0,17.579-4.323,24.928-13.257
			c1.874-1.873,5.188-7.349,10.231-15.994c1.297-1.874,2.449-3.026,3.746-3.026c0.576,0,1.297,0.288,1.873,0.576
			c0-0.288-0.288-0.576-0.288-0.864c0-4.035,9.51-10.087,27.378-17.724l-0.576,18.444c10.807,7.637,15.994,17.291,15.994,28.674
			c0,4.611-1.585,9.511-5.188,14.842c-4.034,5.476-8.357,8.357-12.968,8.357c-5.477,0-11.384-2.737-17.868-8.357
			c-7.061-6.195-11.672-13.545-13.833-21.902c-8.069,20.317-19.453,30.837-33.286,30.837"/>
		<g>
			<path fill="#000000" d="M397.119,335.057c-12.969,8.646-20.605,13.833-23.343,15.13c-6.484,3.458-12.969,5.188-19.453,5.188v-20.317
				c9.223,0,19.741-3.459,31.124-10.808c-3.746-3.746-8.068-7.061-13.256-10.23c-4.899-2.449-8.357-3.746-10.808-3.746
				c-4.61,0-8.357,0.576-10.807,2.161c-0.576,0.576-1.585,0.576-2.161,0.576c-0.577,0-1.297-0.288-1.297-1.297
				c0-0.576,0.288-1.297,0.576-2.161l6.195-14.121c0.865-2.45,6.772-4.611,17.58-7.061c10.519-2.45,20.317-3.747,29.539-3.747
				c17.868,0,32.277,4.035,42.796,11.96c2.738,2.161,4.035,3.458,4.035,4.323c0,0.288-0.288,1.585-1.297,3.025l-5.908,11.384
				c-6.484,2.449-15.13,5.908-26.226,10.519c6.196,6.196,16.716,8.935,28.531,8.935v20.173c-8.934,0-17.436-1.153-22.047-2.882
				C414.987,349.754,406.918,343.99,397.119,335.057 M418.878,307.391c-3.747-2.738-10.808-4.035-20.894-4.035
				c-3.747,0-7.062,0.288-10.231,0.864c6.484,4.323,11.096,8.069,14.121,11.384C407.206,312.577,412.825,309.84,418.878,307.391"/>
		</g>
		<path fill="#000000" d="M312.392,295.286c0-3.025-1.585-10.23-4.61-21.182c-3.458,2.449-8.069,6.484-13.833,11.96
			c-7.061,6.772-12.681,12.68-15.995,17.579c-1.297,1.873-1.873,3.458-1.873,4.323c0,2.161,2.162,3.025,6.772,3.025
			c5.188,0,11.096-1.585,17.58-4.034C307.781,303.644,311.815,299.609,312.392,295.286 M354.18,355.374
			c-13.257,0-23.344-8.069-30.116-24.064c-3.746-8.069-6.484-17.867-8.357-30.115c-1.585,10.23-4.611,16.57-8.934,19.452
			c-10.23,7.061-20.029,10.808-28.963,10.808c-6.772,0-10.23-4.035-10.23-11.384c0-11.383,3.746-21.902,11.383-31.7
			c4.899-6.196,13.257-13.833,25.217-23.344c-0.576-3.458-1.585-7.349-3.026-11.672c0.288-4.034,2.162-9.798,5.476-17.867
			c0.288-0.865,0.577-1.297,0.865-1.297c0.576,0,1.297,0.865,1.873,2.738c3.025,8.069,5.188,14.841,6.484,20.029
			c5.907-3.746,10.23-7.061,13.545-10.23c1.873-1.873,3.025-3.026,3.746-3.026c0.288,0.288,0.288,0.576,0.288,0.576
			c0,0.865-0.288,2.45-1.297,4.611c-3.025,7.06-7.637,12.968-14.121,17.868c2.449,11.672,5.188,24.928,8.646,39.481
			c1.873,8.357,5.476,15.13,11.096,20.605c5.476,5.476,11.96,8.357,17.291,8.357L354.18,355.374"/>
		<path fill="#000000" d="M241.498,288.514c-0.864-2.737-2.738-5.476-5.187-7.637c-2.162-2.161-4.611-3.026-7.061-3.026
			c-3.747,0-6.484,0.577-8.357,2.162c-1.585,0.864-2.45,2.161-2.45,3.458c5.476,4.034,11.959,7.061,19.741,9.222
			c0.865,0.288,1.585,0.288,2.162,0.288c0.864,0,1.585-0.288,1.585-1.585C241.786,290.676,241.498,289.811,241.498,288.514
			 M254.178,288.514c0,6.484-1.297,12.248-3.025,17.292c-2.162,5.187-4.323,7.637-6.772,7.637c-12.248,0-24.64-4.899-36.888-14.409
			c-4.035,9.798-9.222,18.155-15.995,24.352c-7.349,7.061-15.418,10.23-23.487,10.23v-20.173c5.908,0,12.392-1.153,18.156-3.603
			c7.349-3.026,12.248-7.061,15.13-12.681c0.865-1.585,3.026-5.907,6.484-13.545c1.585-3.746,3.026-5.476,4.611-5.907
			c1.874-4.035,4.899-8.069,8.646-11.672c5.476-5.476,10.519-8.069,15.418-8.069c6.196,0,11.095,3.747,14.122,11.384
			C252.881,274.969,254.178,281.453,254.178,288.514"/>
		<path fill="#000000" d="M167.866,333.615c-11.671,0-17.436-6.916-18.156-20.461c0-0.865-0.288-1.297-0.865-1.297
			c-1.297,0-2.161,0.576-3.458,1.873c-6.484,7.637-10.807,12.68-12.969,14.121c-8.357,7.349-18.732,11.384-28.098,11.384v-20.174
			c9.51,0,19.741-2.882,27.09-8.213c3.026-1.873,9.51-8.357,20.029-18.444c1.297-1.297,2.45-1.873,3.458-1.873
			c1.585,0,2.161,0.576,2.161,1.873c0,0.576-0.288,1.873-0.576,3.026c-0.288,1.297-0.288,2.161-0.288,3.025
			c0,3.747,0.864,7.061,2.449,9.799c2.162,3.458,5.476,5.188,9.51,4.899l1.009,20.173"/>
		<path fill="#000000" d="M85.732,298.024c1.585,9.51,4.611,15.706,9.222,18.443c2.162,1.585,6.052,2.594,10.951,2.594v20.174
			c-7.061,0-12.824-1.874-16.859-4.899c-5.908-4.035-9.51-11.96-11.672-23.344c-1.297-7.061-2.161-27.954-3.458-62.537
			c-1.297-37.608-2.162-60.664-3.026-69.309c-1.297-13.545-4.035-26.513-7.637-38.761c0-3.458,1.297-8.357,4.035-14.842
			c0.576-1.585,0.865-2.45,1.585-2.45c0.288,0,0.865,0.865,1.585,2.162c4.323,8.357,7.349,22.479,9.51,42.22
			c1.585,12.68,2.45,36.888,3.747,73.92C84.435,276.266,85.012,294.998,85.732,298.024"/>
		<path fill="#000000" d="M61.092,294.71c-6.484,0-12.248-3.026-17.292-8.934c-5.188-6.484-7.637-13.833-7.637-22.767
			c0-12.248,4.899-28.675,15.13-48.416c1.297-2.162,1.874-3.026,2.45-3.026c0.288,0,0.288,0.288,0.288,0.576
			c0,2.162-2.161,8.934-6.484,20.894c-4.323,11.672-6.772,21.182-6.772,27.955c0,5.188,1.585,9.51,4.035,12.68
			c2.449,3.459,6.196,5.188,10.807,5.188c7.349,0,15.706-4.61,25.216-13.545c1.297-0.864,9.798-10.23,25.937-27.666
			c23.775-25.505,44.669-38.185,63.113-38.185c5.476,0,10.231,1.585,13.833,4.611c3.747,3.458,5.476,7.061,5.476,11.383
			c0,5.476-0.576,10.231-2.449,14.122c-0.577,1.585-1.297,2.161-1.585,2.161c-0.289,0-0.865-0.576-1.585-2.161
			c-4.035-6.772-9.798-10.231-17.579-10.231c-14.41,0-30.836,9.222-48.992,27.666c-10.519,11.384-20.605,22.479-30.836,33.574
			C77.375,290.099,69.017,294.71,61.092,294.71"/>
		<path fill="#000000" d="M54.896,310.128c0,8.357-1.585,15.13-4.611,20.605c-3.458,5.476-9.222,11.672-17.868,17.579
			c-8.934,6.484-17.292,10.808-25.217,13.257c-6.484,1.873-14.409,3.026-23.775,3.026v-20.317c26.802,0,48.416-9.222,64.698-27.954
			c0.865-1.297,1.585-2.161,1.585-3.026c0-0.864-1.297-2.449-3.458-4.322c-6.484-5.908-15.995-12.681-28.387-20.317
			c-15.418-9.511-25.216-15.994-30.116-19.741c-10.519-8.069-19.165-16.282-25.504-24.928c0-0.288-0.865-0.864-2.738-1.585
			c-1.874-0.865-2.738-1.585-2.738-2.45c0-17.868,2.161-28.963,6.772-32.998c11.383-10.23,35.735-23.775,73.056-40.346
			c37.896-17.003,62.825-25.505,75.217-25.505c3.458,0,6.196,0.577,7.349,2.162c1.297,1.585,1.873,4.035,1.873,7.349
			c0,8.069-4.611,17.868-14.121,29.54c-3.458,4.035-7.061,8.357-10.807,12.248c-5.476,6.484-9.51,11.959-11.383,15.994
			c-1.585,2.738-2.162,4.323-2.45,4.323s-0.288-1.874,0.576-5.476c0.289-2.162,1.874-5.908,4.611-10.807
			c2.449-4.611,4.323-7.637,5.476-9.222c10.807-11.96,17.291-20.029,19.453-24.063c0-0.289,0.288-0.577,0.288-1.297
			c0-2.162-3.026-3.458-9.222-3.458c-9.51,0-31.989,8.357-67.724,24.352c-35.735,16.571-60.375,30.116-73.344,40.634
			c-0.865,0.865-0.865,1.585,0.288,1.874l19.165,8.934c4.035,2.162,6.196,3.747,6.196,4.899c0,1.297-1.585,1.873-4.899,1.873
			c-1.873,0-3.747,0-6.196-0.288c4.035,5.188,13.257,12.248,27.667,20.605c17.579,10.519,28.963,17.579,33.862,21.614
			C49.42,292.261,54.896,301.194,54.896,310.128"/>
		<path fill="#000000" d="M-58.506,304.509c0-3.026-1.585-10.231-4.611-21.183c-3.458,2.45-8.069,6.484-13.833,11.96
			c-7.061,6.772-12.68,12.681-15.994,17.58c-1.297,1.873-1.874,3.458-1.874,4.322c0,2.161,2.162,3.026,6.772,3.026
			c5.188,0,11.095-1.585,17.58-4.035C-63.117,312.866-59.083,308.831-58.506,304.509 M-16.575,364.596
			c-13.256,0-23.343-8.069-30.116-24.063c-3.746-8.069-6.484-17.868-8.357-30.116c-1.585,10.23-4.611,16.571-8.934,19.453
			c-10.231,7.061-20.029,10.807-28.963,10.807c-6.772,0-10.231-4.034-10.231-11.383c0-11.384,3.747-21.902,11.384-31.701
			c4.899-6.196,13.256-13.833,25.216-23.343c-0.577-3.459-1.585-7.35-3.026-11.672c0.288-4.035,2.161-9.799,5.476-17.868
			c0.288-0.865,0.576-1.297,0.864-1.297c0.577,0,1.297,0.864,1.874,2.738c3.026,8.069,5.187,14.842,6.484,20.029
			c5.908-3.747,10.231-7.061,13.545-10.231c1.874-1.873,3.026-3.025,3.747-3.025c0.288,0.288,0.288,0.576,0.288,0.576
			c0,0.864-0.288,2.449-1.297,4.611c-3.026,7.061-7.637,12.968-14.121,17.867c2.45,11.672,5.188,24.929,8.646,39.482
			c1.874,8.357,5.476,15.13,11.095,20.604c5.62,5.477,11.095,8.358,16.283,8.358v20.173"/>
		<path fill="#000000" d="M126.367,363.731c-0.288,0-0.288-0.577,0-1.297l6.196-13.257c0.577-0.576,0.865-0.865,1.585-0.865
			c0.576,0,3.458,1.586,8.646,5.188c4.899,3.459,7.349,5.476,7.349,6.196c0,2.161-2.161,7.061-6.484,14.121
			c-0.576,0.865-1.296,1.297-1.873,0.865C136.886,370.792,131.554,367.045,126.367,363.731"/>
		<path fill="#000000" d="M-109.515,247.015l4.899-10.519c0.577-0.577,0.865-0.865,1.585-0.865c0.577,0,3.458,1.585,8.646,4.899
			c4.899,3.746,7.349,5.476,7.349,6.196c0,2.45-2.162,7.061-6.772,14.121c-0.288,0.865-0.865,1.297-1.585,0.865
			c-4.323-3.459-9.51-6.772-15.13-10.52c-1.873,4.323-3.747,8.069-5.188,10.808c-0.576,0.864-1.297,1.297-1.873,0.864
			c-4.899-4.035-10.231-7.637-15.418-10.807c-0.289-0.289-0.289-0.577,0-1.297l6.196-13.257c0.577-0.865,0.865-1.297,1.585-1.297
			c0.577,0,3.026,1.585,7.061,4.323C-113.838,243.557-111.1,245.718-109.515,247.015"/>
		<path fill="#000000" d="M581.848,180.731c-4.61-2.449-7.061-4.899-7.061-7.637c0-3.458,1.585-6.196,4.611-8.934
			c2.737-2.45,5.188-3.747,7.349-2.738c1.585,0.577,2.449,2.162,2.449,5.188c0,2.738-0.576,5.476-1.873,8.934
			c2.45,1.585,4.035,2.45,4.611,3.458c0,1.585-1.297,3.747-3.458,6.484c-0.577-0.865-1.874-1.874-4.035-3.458
			c-2.737,3.747-6.196,7.061-10.23,9.798c-4.323,3.458-8.646,5.908-12.248,7.637c-0.864,0.288-5.188,2.161-13.257,4.899
			c-1.297,0.577-2.161,0.865-2.737,0.865v-0.288c0-0.288,0.576-0.865,1.873-1.873c6.196-3.458,11.96-7.061,17.867-10.519
			C572.914,188.513,578.39,184.478,581.848,180.731 M584.586,174.248c0.576-1.585,0.576-3.026,0.288-4.611s-0.864-2.161-2.161-2.161
			c-0.577,0-1.297,0.288-2.162,0.576c-0.864,0.577-1.585,1.297-1.585,1.585C579.11,170.933,580.983,172.374,584.586,174.248"/>
		<path fill="#000000" d="M466.717,203.787c-4.611-2.45-7.061-4.899-7.061-7.637c0-3.458,1.585-6.196,4.611-8.934
			c2.737-2.45,5.187-3.747,7.349-2.738c1.585,0.576,2.449,2.162,2.449,5.188c0,2.738-0.576,5.476-1.873,8.934
			c2.449,1.585,4.034,2.45,4.611,3.458c0,1.585-1.297,3.746-3.459,6.484c-0.576-0.864-1.873-1.873-4.034-3.458
			c-2.738,3.747-6.196,7.061-10.23,9.798c-4.323,3.458-8.646,5.908-12.248,7.637c-0.865,0.288-5.188,2.161-13.257,4.899
			c-1.297,0.577-2.161,0.865-2.738,0.865v-0.288c0-0.289,0.577-0.865,1.874-1.874c6.195-3.458,11.959-7.061,17.867-10.519
			C457.783,211.568,463.259,207.533,466.717,203.787 M469.454,197.446c0.577-1.585,0.577-3.026,0.289-4.611
			c-0.289-1.585-0.865-2.162-2.162-2.162c-0.576,0-1.297,0.289-2.161,0.577c-0.864,0.576-1.585,1.297-1.585,1.585
			C463.835,193.988,465.708,195.573,469.454,197.446"/>
		<path fill="#000000" d="M352.45,221.366c18.732-7.061,38.473-14.41,59.078-21.902c0.865-0.288,1.297-0.577,1.585-0.288c0,0,0,0.288-0.288,1.297
			c-0.864,2.161-1.585,3.458-2.161,4.034c-17.291,6.196-37.608,14.122-60.663,23.776
			C350.289,225.977,351.153,223.816,352.45,221.366"/>
		<path fill="#000000" d="M573.778,307.967c-0.288,0-0.288-0.576,0-1.297l6.196-13.257c0.576-0.576,0.864-0.864,1.585-0.864
			s3.458,1.585,8.646,5.188c4.899,3.458,7.349,5.476,7.349,6.195c0,2.162-2.161,7.061-6.483,14.121
			c-0.577,0.865-1.297,1.297-1.874,0.865C584.298,315.027,579.11,311.281,573.778,307.967"/>
		<path fill="#000000" d="M285.015,210.271l4.898-10.519c0.577-0.576,0.865-0.865,1.585-0.865c0.577,0,3.459,1.585,8.646,4.899
			c4.898,3.747,7.349,5.476,7.349,6.196c0,2.45-2.162,7.061-6.772,14.122c-0.288,0.864-0.865,1.297-1.585,0.864
			c-4.323-3.458-9.511-6.772-15.13-10.519c-1.874,4.323-3.747,8.069-5.188,10.807c-0.576,0.864-1.297,1.297-1.873,0.864
			c-4.899-4.035-10.231-7.637-15.418-10.807c-0.289-0.288-0.289-0.576,0-1.297l6.195-13.256c0.576-0.865,0.865-1.297,1.585-1.297
			c0.577,0,3.026,1.585,7.061,4.323C280.691,206.957,283.429,209.118,285.015,210.271"/>
		<path fill="#000000" d="M369.31,232.173c2.737,0,5.476,1.585,7.637,4.899c2.161,3.458,3.746,7.637,4.611,12.969c0,0.576,0.288,0.864,0,0.864
			c0.288,0.288,0.288,0.288,0.288,0c0,0,0.288-0.288,0.288-0.864c0.576-3.458,1.873-8.069,3.458-14.41
			c1.873-4.611,4.034-6.772,6.196-6.772c1.297,0,2.449,0.577,3.746,2.162c0.864,1.297,1.585,2.45,1.585,3.458
			c0,0.577-0.288,1.585-0.576,2.45c-0.576,1.297-0.864,2.162-1.585,2.162c-0.288,0-0.864-0.577-1.873-1.585
			c-0.576-1.297-1.585-1.585-2.45-1.585c-2.161,0-4.034,4.611-5.476,14.122c-0.864,4.034-1.585,6.772-2.449,8.646
			c-0.576,1.297-1.297,1.873-1.873,1.873c-0.288,0-0.576-0.576-0.576-1.873c0-1.585-0.865-4.611-2.738-9.222
			c-1.873-4.899-3.026-7.061-4.034-7.061c-0.577,0-0.865,0-0.865,0.288c-0.288,0.288-0.576,0.577-1.585,0.577
			c-0.864,0-1.873-0.577-3.458-1.874c-1.297-1.297-1.873-2.45-1.873-3.026c0-0.288,0.288-1.585,1.585-3.458
			C368.444,233.038,369.021,232.173,369.31,232.173"/>
		<path fill="#000000" d="M301.297,368.342c4.899,0,10.519-0.864,15.994-2.737c1.873-0.288,2.45-0.576,2.45-0.288s-0.577,0.864-1.874,1.873
			c-4.898,4.61-11.383,7.061-19.164,7.061c-2.449,0-4.611-0.864-6.196-2.161s-2.161-2.738-2.161-4.611
			c0-5.188,2.161-10.808,6.484-16.571c-3.747-1.297-5.908-3.025-5.908-6.195c0-2.45,1.585-5.476,4.899-8.935
			c3.026-3.746,5.476-5.187,7.349-5.187c0.576,0,0.864,0.288,1.585,0.864c0.576,0.864,0.864,1.873,0.864,2.737
			c0,0.288-0.576,1.297-1.873,2.738c-0.864,1.585-1.585,2.161-1.585,1.873c-0.288-1.585-1.297-2.161-2.737-2.161
			c-0.576,0-1.585,0.576-2.45,1.873c-0.864,1.297-1.585,2.161-1.585,2.737c1.297,2.162,3.459,3.459,6.484,3.459
			c0.864,0,2.45-0.865,4.611-3.026c1.297-1.297,2.449-2.161,3.746-3.746c0.576-0.288,0.864,0,0.864,1.297
			c0,2.161-0.864,4.61-2.737,7.061c-6.484,4.322-11.384,9.51-14.842,15.418c-0.288,0.864-0.576,1.873-0.576,2.737
			C293.228,366.757,295.677,368.342,301.297,368.342"/>
		<path fill="#000000" d="M246.829,179.867c-0.864-3.026-0.576-5.188,0.577-6.772c0.864-0.865,2.161-1.297,3.747-1.297
			c1.297,0,2.737,0.288,4.322,1.297c6.196,3.458,9.799,7.061,11.96,11.959c0,0.289,0.288,0.577,0.288,0.865
			c0,1.873-0.576,3.747-1.585,5.908c-1.297,1.874-2.161,3.026-3.025,3.026c-0.289,0-3.026-0.288-8.357-0.864
			c-2.45,3.747-5.908,6.772-9.511,9.51c-4.611,3.458-8.934,6.196-12.68,7.637c-0.865,0.289-5.188,2.162-13.257,4.899
			c-1.297,0.576-2.161,0.865-2.738,0.865v-0.289c0-0.288,0.577-0.864,2.162-1.873c5.908-3.458,11.671-6.772,17.58-10.231
			c6.772-4.034,11.671-7.637,15.418-11.383c-4.611-0.864-6.772-3.026-6.772-6.196C244.956,184.478,245.532,182.028,246.829,179.867
			 M254.178,187.792c0.577-1.585,0.577-2.738,0-4.611c-0.288-1.873-1.297-2.45-2.449-2.45c-0.576,0-1.585,0.288-2.738,1.585
			c-0.865,1.297-1.585,2.162-1.585,2.45C247.406,186.351,249.567,187.216,254.178,187.792 M263.977,187.792
			c-1.297-2.738-3.458-4.899-6.484-6.196c0,2.738-0.288,4.899-0.864,6.772c0.288,0,2.737,0.288,7.061,0.864c0.288,0,0.288,0,0.576,0
			C264.265,189.089,264.265,188.801,263.977,187.792"/>
		<path fill="#000000" d="M210.374,246.294c-4.611-2.45-7.061-4.899-7.061-7.637c0-3.458,1.585-6.196,4.611-8.934
			c2.738-2.45,5.188-3.747,7.349-2.738c1.585,0.576,2.45,2.161,2.45,5.188c0,2.738-0.576,5.476-1.873,8.934
			c2.45,1.585,4.035,2.45,4.611,3.458c0,1.585-1.297,3.746-3.458,6.484c-0.577-0.865-1.874-1.874-4.035-3.458
			c-2.738,3.747-6.196,7.06-10.231,9.798c-4.323,3.458-8.646,5.908-12.248,7.637c-0.864,0.288-5.187,2.162-13.256,4.899
			c-1.297,0.576-2.162,0.864-2.738,0.864v-0.288c0-0.288,0.576-0.864,1.873-1.873c6.196-3.458,11.96-7.061,17.868-10.519
			C201.439,254.075,207.059,250.041,210.374,246.294 M213.255,239.81c0.576-1.585,0.576-3.026,0.288-4.611s-0.864-2.162-2.161-2.162
			c-0.577,0-1.297,0.288-2.162,0.577c-0.865,0.576-1.585,1.297-1.585,1.585C207.636,236.496,209.509,238.081,213.255,239.81"/>
		<path fill="#000000" d="M125.358,188.801c18.732-7.061,38.473-14.409,59.079-21.902c0.865-0.288,1.297-0.576,1.585-0.288c0,0,0,0.288-0.288,1.297
			c-0.865,2.162-1.585,3.458-2.162,4.035c-17.291,6.196-37.608,14.121-60.664,23.775
			C123.197,193.412,124.205,191.25,125.358,188.801"/>
		<path fill="#000000" d="M31.841,202.058c1.297,0.864,2.162,1.873,2.162,3.026c0,0.576-0.288,1.585-1.297,2.162
			c-1.873,1.873-3.026,2.737-3.747,2.449c0-0.576-0.576-1.873-2.161-3.458c-0.865-0.288-3.458-0.577-7.637-0.288
			c-4.323,0.288-8.069,0.864-10.807,1.873c-0.864,0.288-1.297,0.865-1.297,1.297c0,0.864,1.585,2.161,4.323,3.747
			c2.45,1.585,5.188,2.738,8.934,4.035c3.458,1.296,5.476,2.161,6.484,2.449c4.323,2.738,6.484,5.476,6.196,8.934
			c-0.288,2.161-1.585,4.035-4.035,6.196c-2.161,1.874-3.458,2.45-4.323,2.45c-12.968-3.026-21.902-6.196-26.801-9.222
			c-4.323-2.449-6.484-6.196-6.484-10.807c0-0.865,0-1.585,0-2.45c1.585,2.45,4.323,4.899,8.934,7.349
			c1.874,1.297,7.061,3.026,14.842,5.908c7.061,2.45,11.672,4.035,13.257,4.323c0.576-2.162-1.585-4.899-6.772-8.069
			c-3.458-1.297-8.357-3.026-14.41-5.908c-3.746-2.449-5.908-4.323-5.908-6.196c0-1.585,1.585-3.026,4.035-4.899
			c6.484-4.035,12.968-5.908,19.741-5.908C28.095,201.049,30.256,201.337,31.841,202.058"/>
		<path fill="#000000" d="M79.248,349.754c0,2.737-1.297,5.476-3.458,8.934c-2.161,3.458-4.611,6.196-8.357,8.646
			c-1.297,0.865-1.873,1.585-2.161,1.585v-0.288c0,0,0.288-0.864,1.585-2.161c5.476-6.196,8.646-10.23,8.646-12.248
			c0-1.873-0.865-2.737-2.738-2.737c-1.297,0-1.873,0.288-2.738,0.576c-0.576,0.576-0.865,0.864-1.297,0.864
			c0,0,0-0.288-0.288-0.288c0-0.288,0.288-0.576,0.288-1.585c0.865-4.323,3.026-6.196,6.196-6.196
			C77.663,344.854,79.248,346.439,79.248,349.754"/>
		<path fill="#000000" d="M217.146,359.696c0-0.288,0.288-0.288,0.288-0.576c0.288,0,0.288,0,0.288,0c0,0.288,0,0.576,0,0.864
			c-1.585,7.349-3.747,11.096-6.772,11.096s-4.611-2.738-4.611-8.357c0-6.484,1.873-13.545,5.476-20.605
			c0.865-1.873,1.585-2.738,1.873-2.738c0,0.288-0.288,1.297-0.864,3.026c-2.45,7.349-3.747,12.969-3.747,15.706
			c0,4.323,0.865,6.484,3.458,6.484C213.832,364.596,215.417,362.723,217.146,359.696"/>
		<path fill="#000000" d="M252.593,334.479c0,2.738-1.297,5.476-3.458,8.935c-2.162,3.458-4.611,6.195-8.357,8.646
			c-1.297,0.864-1.873,1.585-2.162,1.585v-0.288c0,0,0.289-0.865,1.585-2.161c5.476-6.196,8.646-10.231,8.646-12.248
			c0-1.874-0.865-2.738-2.738-2.738c-1.297,0-1.874,0.288-2.738,0.576c-0.577,0.576-0.865,0.865-1.297,0.865
			c0,0,0-0.289-0.288-0.289c0-0.288,0.288-0.576,0.288-1.585c0.864-4.322,3.026-6.195,6.196-6.195
			C251.008,329.437,252.593,331.021,252.593,334.479"/>
		<path fill="#000000" d="M552.885,349.754c0,2.737-1.297,5.476-3.458,8.934s-4.611,6.196-8.357,8.646c-1.297,0.865-1.873,1.585-2.161,1.585v-0.288
			c0,0,0.288-0.864,1.585-2.161c5.476-6.196,8.646-10.23,8.646-12.248c0-1.873-0.864-2.737-2.738-2.737
			c-1.297,0-1.873,0.288-2.737,0.576c-0.576,0.576-0.864,0.864-1.297,0.864c0,0,0-0.288-0.288-0.288
			c0-0.288,0.288-0.576,0.288-1.585c0.864-4.323,3.026-6.196,6.196-6.196C551.3,344.854,552.885,346.439,552.885,349.754"/>
		<path fill="#000000" d="M627.094,347.016c-4.899,4.611-11.384,7.062-19.165,7.062c-2.449,0-4.61-0.865-6.196-2.162
			c-1.585-1.297-2.161-2.737-2.161-4.899c0-3.458,1.297-6.771,4.323-10.519c2.737-3.025,5.476-6.196,8.646-9.222
			c0.576-0.576,0.288-1.297-0.576-1.585c-2.162-0.576-4.323-0.865-6.772-0.865c-1.585,0-3.026,0.289-4.611,1.297
			c-0.288,0-0.576,0-0.576,0s0-0.288,0-0.576c1.297-2.449,2.161-4.322,3.025-4.899c1.297-1.297,3.459-1.585,5.908-1.585
			c5.908,0,8.934,1.297,8.934,4.323c0,2.161-2.161,5.188-5.907,8.934c-2.45,2.738-5.188,5.476-8.069,8.357
			c-1.297,1.585-1.585,2.738-1.585,4.035c0,2.449,2.449,3.746,8.069,3.746c4.898,0,10.519-0.864,15.994-2.737
			c1.873-0.289,2.449-0.577,2.449-0.289C628.967,345.575,628.391,346.151,627.094,347.016"/>
		<path fill="#000000" d="M479.541,353.5c0,2.738-1.297,5.476-3.458,8.935c-2.161,3.458-4.611,6.195-8.357,8.646
			c-1.297,0.864-1.873,1.585-2.161,1.585v-0.288c0,0,0.288-0.865,1.585-2.162c5.476-6.195,8.646-10.23,8.646-12.248
			c0-1.873-0.865-2.737-2.738-2.737c-1.297,0-1.873,0.288-2.737,0.576c-0.576,0.576-0.865,0.864-1.297,0.864
			c0,0,0-0.288-0.288-0.288c0-0.288,0.288-0.576,0.288-1.585c0.864-4.322,3.025-6.195,6.196-6.195
			C478.101,348.602,479.541,350.187,479.541,353.5"/>
		<path fill="#000000" d="M317.003,165.313c0-0.288,0.288-0.288,0.288-0.576c0.288,0,0.288,0,0.288,0c0,0.288,0,0.576,0,0.864
			c-1.585,7.349-3.746,11.095-6.772,11.095c-3.025,0-4.61-2.738-4.61-8.357c0-6.484,1.873-13.545,5.476-20.605
			c0.864-1.873,1.585-2.738,1.873-2.738c0,0.289-0.288,1.297-0.864,3.026c-2.45,7.349-3.747,12.968-3.747,15.706
			c0,4.323,0.865,6.484,3.458,6.484C313.545,170.213,315.13,168.483,317.003,165.313"/>
		<path fill="#000000" d="M166.713,254.075c0,0.865-1.585,3.459-4.323,7.349c-3.026,4.323-5.908,7.35-8.646,9.511
			c-1.874,1.297-7.637,3.025-17.868,5.908c-1.874,0.288-2.738,0.576-2.738,0.576c0-0.288,0.576-0.865,1.873-1.873
			c1.297-0.865,4.899-2.738,10.807-6.196c5.476-2.738,8.934-4.899,9.798-5.476c0.288-0.288,0.288-0.288,0.288-0.576
			c0-1.297-4.899-1.874-15.13-1.874c0,0-1.873,0-5.908,0c-1.585,0.289-2.45,0-2.45-0.288s0-0.576,0.577-1.585l3.458-6.196
			c1.297-1.585,3.026-2.737,5.908-3.458c0.864,0,3.458,0,6.772,0C160.805,250.041,166.713,251.338,166.713,254.075"/>
		<path fill="#000000" d="M457.063,246.006c0,3.458-1.585,7.348-4.323,11.671c-3.025,4.323-6.772,8.357-11.383,11.384
			c-1.873,1.585-2.738,2.161-3.026,2.161v-0.288c0-0.288,0.576-1.297,2.161-2.738c7.35-8.069,11.384-13.545,11.384-16.282
			c0-2.45-1.297-3.747-3.746-3.747c-1.585,0-2.45,0.288-3.747,0.865c-0.864,0.288-1.297,0.576-1.585,0.864
			c0-0.288-0.288-0.288-0.288-0.288c0-0.288,0-0.864,0.288-2.161c1.297-5.476,4.035-8.357,8.357-8.357
			C455.333,239.234,457.063,241.395,457.063,246.006"/>
		<path fill="#000000" d="M519.312,157.388c0-0.288,0.288-0.288,0.288-0.576c0.288,0,0.288,0,0.288,0c0,0.288,0,0.576,0,0.865
			c-1.585,7.349-3.747,11.095-6.772,11.095c-3.026,0-4.611-2.738-4.611-8.358c0-6.484,1.873-13.544,5.476-20.605
			c0.864-1.874,1.585-2.738,1.873-2.738c0,0.288-0.288,1.297-0.864,3.026c-2.449,7.349-3.746,12.968-3.746,15.706
			c0,4.323,0.864,6.484,3.458,6.484C515.997,162.288,517.438,160.414,519.312,157.388"/>
		<path fill="#000000" d="M416.14,147.446c0,2.738-1.297,5.476-3.458,8.934c-2.161,3.458-4.611,6.196-8.357,8.646
			c-1.297,0.864-1.873,1.585-2.161,1.585v-0.288c0,0,0.288-0.865,1.585-2.162c5.476-6.196,8.646-10.23,8.646-12.248
			c0-1.873-0.865-2.738-2.738-2.738c-1.297,0-1.873,0.289-2.737,0.577c-0.576,0.576-0.865,0.864-1.297,0.864
			c0,0,0-0.288-0.288-0.288c0-0.288,0.288-0.576,0.288-1.585c0.864-4.323,3.025-6.196,6.196-6.196
			C414.555,142.547,416.14,144.132,416.14,147.446"/>
		<path fill="#000000" d="M-74.5,207.821c0.577-3.458,1.873-7.349,3.747-12.248c1.585-3.747,2.45-7.349,2.45-11.095
			c0-7.061-3.458-13.833-10.231-20.317c-0.288-0.576-0.576-1.297,0-1.873l2.162-3.747c0.288-0.576,0.576-0.576,0.864,0
			c6.484,5.188,9.798,12.969,9.798,22.767c0,4.899-1.296,10.23-3.458,15.418c-1.873,5.476-3.026,9.222-3.026,11.095
			c0,4.323,1.297,6.484,3.458,6.484c1.297,0,2.738-1.874,4.611-4.899c0-0.288,0.288-0.576,0.288-0.576c0.288,0,0.288,0,0.288,0
			c0,0.288,0,0.576,0,0.864c-1.585,7.349-3.747,11.095-6.772,11.095s-4.611-3.026-4.611-9.222
			C-74.789,210.271-74.5,209.118-74.5,207.821"/>
		<path fill="#000000" d="M-2.454,153.642c0-0.289,0.289-0.289,0.289-0.577c0.288,0,0.288,0,0.288,0c0,0.288,0,0.577,0,0.865
			c-1.585,7.349-3.747,11.095-6.772,11.095s-4.611-2.738-4.611-8.357c0-6.484,1.873-13.545,5.476-20.605
			c0.864-1.873,1.585-2.738,1.873-2.738c0,0.288-0.288,1.297-0.865,3.026c-2.45,7.349-3.746,12.969-3.746,15.706
			c0,4.323,0.864,6.484,3.458,6.484C-5.768,158.541-4.183,156.668-2.454,153.642"/>
		<path fill="#000000" d="M354.611,186.64c0.576-3.458,1.873-7.349,3.747-12.248c1.585-3.747,2.449-7.349,2.449-11.095
			c0-7.061-3.458-13.833-10.23-20.317c-0.288-0.577-0.576-1.297,0-1.874l2.161-3.746c0.288-0.577,0.576-0.577,0.864,0
			c6.484,5.188,9.799,12.968,9.799,22.767c0,4.899-1.297,10.231-3.458,15.418c-1.873,5.476-3.026,9.222-3.026,11.096
			c0,4.323,1.297,6.484,3.458,6.484c1.297,0,2.738-1.873,4.611-4.899c0-0.288,0.288-0.577,0.288-0.577c0.288,0,0.288,0,0.288,0
			c0,0.289,0,0.577,0,0.865c-1.585,7.349-3.746,11.095-6.772,11.095c-3.025,0-4.61-3.026-4.61-9.222
			C354.18,189.089,354.611,187.792,354.611,186.64"/>
		<path fill="#000000" d="M256.916,140.097c0,3.458-1.585,7.349-4.323,11.671c-3.026,4.323-6.772,8.357-11.383,11.384
			c-1.873,1.585-2.738,2.161-3.026,2.161v-0.288c0-0.288,0.576-1.297,2.162-2.738c7.349-8.069,11.383-13.545,11.383-16.283
			c0-2.45-1.297-3.747-3.747-3.747c-1.585,0-2.45,0.289-3.747,0.865c-0.864,0.288-1.297,0.576-1.585,0.865
			c0-0.289-0.288-0.289-0.288-0.289c0-0.288,0-0.864,0.288-2.161c1.297-5.476,4.035-8.357,8.357-8.357
			C255.043,133.325,256.916,135.486,256.916,140.097"/>
		<path fill="#000000" d="M166.137,153.065c0.288-0.288,0.576-0.576,0.576-0.576c0.288-0.288,0.288-0.288,0.288,0c0.289,0.288,0.289,0.576,0,0.864
			c-1.873,9.799-4.611,14.842-8.646,14.842c-4.323,0-6.484-3.747-6.484-11.095c0-8.646,2.45-18.156,7.637-27.666
			c1.297-2.45,1.873-3.747,2.162-3.747c0,0.289-0.289,1.874-0.865,4.035c-3.747,10.231-5.188,17.292-5.188,21.182
			c0,5.476,1.585,8.357,4.611,8.357C161.814,159.118,163.975,157.1,166.137,153.065"/>
		<path fill="#000000" d="M-107.354,151.48c0,2.738-1.297,5.476-3.458,8.934c-2.162,3.458-4.611,6.196-8.357,8.646
			c-1.297,0.864-1.874,1.585-2.162,1.585v-0.288c0,0,0.288-0.865,1.585-2.162c5.476-6.196,8.646-10.23,8.646-12.248
			c0-1.873-0.865-2.738-2.738-2.738c-1.297,0-1.874,0.289-2.738,0.577c-0.577,0.576-0.865,0.864-1.297,0.864
			c0,0,0-0.288-0.289-0.288c0-0.288,0.289-0.576,0.289-1.585c0.864-4.323,3.026-6.196,6.196-6.196
			C-108.939,146.581-107.354,148.167-107.354,151.48"/>
		<path fill="#000000" d="M-101.59,208.83c0.289-0.289,0.577-0.577,0.577-0.577c0.288-0.288,0.288-0.288,0.288,0c0.288,0.288,0.288,0.577,0,0.865
			c-1.873,9.798-4.611,14.842-8.646,14.842c-4.323,0-6.484-3.747-6.484-11.095c0-8.646,2.45-18.156,7.637-27.667
			c1.297-2.449,1.873-3.746,2.161-3.746c0,0.288-0.288,1.873-0.864,4.035c-3.747,10.23-5.188,17.291-5.188,21.182
			c0,5.476,1.585,8.357,4.611,8.357C-105.913,214.882-103.751,212.721-101.59,208.83"/>
		<path fill="#000000" d="M-73.492,365.46c0-0.288,0.288-0.288,0.288-0.576c0.288,0,0.288,0,0.288,0c0,0.288,0,0.576,0,0.864
			c-1.585,7.349-3.746,11.096-6.772,11.096c-3.026,0-4.611-2.738-4.611-8.357c0-6.484,1.873-13.545,5.476-20.605
			c0.865-1.873,1.585-2.738,1.873-2.738c0,0.288-0.288,1.297-0.864,3.026c-2.45,7.349-3.747,12.969-3.747,15.706
			c0,4.323,0.865,6.484,3.458,6.484C-76.95,370.504-75.365,368.63-73.492,365.46"/>
	</g>
</g>
<path fill="#000000" d="M273.602,481.306c-0.578-0.576-1.301-1.03-2.174-1.362c-0.873-0.331-1.885-0.497-3.039-0.497
	c-0.663,0-1.463,0.079-2.4,0.238v-6.077h-1.535v17.711c0.706,0.202,1.402,0.354,2.087,0.454s1.301,0.151,1.849,0.151
	c1.153,0,2.166-0.162,3.039-0.486s1.596-0.764,2.174-1.319c0.576-0.555,1.006-1.211,1.287-1.968s0.42-1.561,0.42-2.411
	s-0.139-1.657-0.42-2.422C274.608,482.554,274.178,481.883,273.602,481.306z M272.391,489.167c-0.852,0.829-2.17,1.243-3.958,1.243
	c-0.39,0-0.805-0.032-1.244-0.097c-0.439-0.065-0.84-0.134-1.2-0.206v-8.845c0.447-0.115,0.887-0.194,1.319-0.237
	c0.433-0.044,0.808-0.065,1.125-0.065c0.894,0,1.668,0.112,2.325,0.335c0.656,0.224,1.199,0.545,1.633,0.963
	c0.432,0.418,0.752,0.919,0.961,1.503s0.314,1.243,0.314,1.979C273.667,487.195,273.241,488.338,272.391,489.167z M247.392,479.446
	c-0.62,0-1.297,0.079-2.033,0.238c-0.735,0.158-1.485,0.433-2.249,0.821l-0.065,1.73c0.548-0.303,0.973-0.52,1.276-0.649
	s0.624-0.237,0.962-0.324c0.338-0.086,0.677-0.158,1.016-0.216s0.667-0.087,0.984-0.087c1.139,0,1.982,0.249,2.53,0.746
	s0.822,1.33,0.822,2.498v0.13c-0.332-0.044-0.732-0.087-1.2-0.13c-0.469-0.043-0.876-0.065-1.222-0.065
	c-1.831,0-3.302,0.311-4.412,0.931c-1.11,0.619-1.665,1.644-1.665,3.07c0,0.707,0.155,1.305,0.465,1.795
	c0.31,0.49,0.713,0.88,1.211,1.168s1.067,0.497,1.708,0.627c0.641,0.13,1.308,0.194,2,0.194c0.807,0,1.6-0.072,2.378-0.216
	c0.779-0.145,1.536-0.368,2.271-0.671v-7.028c0-1.585-0.397-2.742-1.189-3.471C250.189,479.811,248.992,479.446,247.392,479.446z
	 M250.636,489.892c-0.375,0.144-0.858,0.267-1.449,0.367c-0.591,0.102-1.183,0.151-1.773,0.151c-0.505,0-0.984-0.035-1.438-0.108
	c-0.454-0.071-0.84-0.197-1.157-0.378c-0.317-0.18-0.57-0.414-0.757-0.703c-0.188-0.288-0.281-0.663-0.281-1.124
	c0-0.52,0.111-0.934,0.335-1.244c0.224-0.31,0.533-0.551,0.93-0.724c0.396-0.174,0.85-0.296,1.362-0.368
	c0.511-0.072,1.041-0.108,1.589-0.108c0.476,0,0.984,0.029,1.524,0.087c0.541,0.058,0.912,0.108,1.114,0.151V489.892z
	 M258.032,479.868c-0.649,0.122-1.276,0.263-1.881,0.422v11.418h1.535v-10.186c0.202-0.072,0.563-0.147,1.082-0.228
	c0.519-0.079,1.002-0.118,1.449-0.118h1.989v-1.492H260C259.336,479.685,258.681,479.746,258.032,479.868z M-77.92,487.667
	l241.145,0.656l0.663-0.433l-0.632-0.564L-77.92,487.667z M164.994,487.825l1.95,1.95l1.95-1.95l-1.95-1.95L164.994,487.825z
	 M169.559,487.825l3.057,3.057l3.057-3.057l-3.057-3.057L169.559,487.825z M212.359,489.286l-3.395-9.602h-1.514l-3.396,9.602
	l-2.984-9.602h-1.73l3.979,12.023h1.428l3.46-9.645l3.46,9.645h1.427l3.979-12.023h-1.73L212.359,489.286z M238.418,489.589
	c-0.317,0-0.591,0.115-0.822,0.346c-0.231,0.23-0.346,0.505-0.346,0.822c0,0.316,0.115,0.591,0.346,0.821
	c0.23,0.23,0.504,0.346,0.822,0.346c0.317,0,0.591-0.115,0.822-0.346c0.23-0.23,0.346-0.505,0.346-0.821
	c0-0.317-0.116-0.592-0.346-0.822C239.009,489.704,238.735,489.589,238.418,489.589z M193.243,489.286l-3.395-9.602h-1.514
	l-3.396,9.602l-2.984-9.602h-1.73l3.979,12.023h1.428l3.46-9.645l3.46,9.645h1.427l3.979-12.023h-1.73L193.243,489.286z
	 M231.476,489.286l-3.395-9.602h-1.514l-3.396,9.602l-2.984-9.602h-1.73l3.979,12.023h1.428l3.46-9.645l3.46,9.645h1.427
	l3.979-12.023h-1.73L231.476,489.286z M382.732,480.474c-0.426-0.396-0.938-0.667-1.535-0.812c-0.598-0.144-1.271-0.216-2.021-0.216
	c-0.664,0-1.393,0.09-2.184,0.271c-0.793,0.181-1.471,0.4-2.033,0.659c-0.346-0.331-0.818-0.569-1.416-0.714
	c-0.6-0.144-1.273-0.216-2.023-0.216c-0.635,0-1.268,0.058-1.902,0.173l-2.465,0.454v11.635h1.535v-10.38
	c0.447-0.102,0.883-0.188,1.309-0.26c0.424-0.072,0.896-0.108,1.416-0.108c0.605,0,1.125,0.058,1.557,0.173
	c0.434,0.116,0.789,0.321,1.07,0.616c0.281,0.296,0.494,0.711,0.639,1.244s0.217,1.24,0.217,2.119v6.596h1.535v-7.201
	c0-0.663-0.055-1.243-0.162-1.741c-0.109-0.497-0.213-0.861-0.314-1.092c0.086-0.043,0.281-0.119,0.584-0.228
	c0.303-0.107,0.602-0.197,0.898-0.27c0.295-0.072,0.586-0.126,0.875-0.162s0.547-0.055,0.779-0.055c0.59,0,1.102,0.058,1.535,0.173
	c0.432,0.116,0.781,0.317,1.049,0.605c0.266,0.289,0.471,0.703,0.615,1.244c0.145,0.54,0.217,1.251,0.217,2.13v6.596h1.535v-7.201
	c0-0.995-0.111-1.816-0.336-2.466C383.482,481.393,383.158,480.87,382.732,480.474z M280.1,474.581
	c-0.785,0.648-1.18,1.729-1.18,3.243v1.86h-2.551v1.492h2.551v10.531h1.537v-10.531h4.973v-1.492h-4.973v-1.471
	c0-0.635,0.045-1.149,0.141-1.546c0.094-0.396,0.24-0.707,0.443-0.931c0.201-0.223,0.475-0.385,0.82-0.486
	c0.346-0.101,0.779-0.151,1.299-0.151h2.422v-1.492h-2.271C281.956,473.607,280.885,473.932,280.1,474.581z M398.273,487.825
	l3.057,3.057l3.057-3.057l-3.057-3.057L398.273,487.825z M343.322,482.322c0.389-0.418,0.854-0.749,1.395-0.994
	s1.135-0.368,1.783-0.368c0.736,0,1.373,0.076,1.914,0.228s1.121,0.414,1.74,0.789l0.715-1.405c-0.707-0.39-1.393-0.674-2.055-0.854
	c-0.664-0.181-1.436-0.271-2.314-0.271c-0.85,0-1.639,0.155-2.367,0.465c-0.729,0.311-1.367,0.746-1.914,1.309
	c-0.549,0.563-0.98,1.222-1.297,1.979c-0.317,0.757-0.476,1.59-0.476,2.498s0.158,1.74,0.476,2.497
	c0.316,0.757,0.748,1.413,1.297,1.969c0.547,0.555,1.186,0.987,1.914,1.297c0.729,0.311,1.518,0.465,2.367,0.465
	c0.879,0,1.65-0.09,2.314-0.27c0.662-0.181,1.348-0.466,2.055-0.854l-0.715-1.406c-0.619,0.375-1.199,0.639-1.74,0.79
	s-1.178,0.227-1.914,0.227c-0.648,0-1.242-0.119-1.783-0.356c-0.541-0.238-1.006-0.565-1.395-0.984
	c-0.391-0.418-0.693-0.915-0.908-1.492c-0.217-0.576-0.324-1.203-0.324-1.881s0.107-1.305,0.324-1.882
	C342.628,483.238,342.931,482.741,343.322,482.322z M404.387,487.825l1.949,1.95l1.951-1.95l-1.951-1.95L404.387,487.825z
	 M410.701,487.326l-0.664,0.433l0.633,0.564l241.176-0.341L410.701,487.326z M362.611,481.295c-0.549-0.569-1.193-1.02-1.936-1.352
	c-0.742-0.331-1.547-0.497-2.412-0.497c-0.863,0-1.668,0.166-2.41,0.497c-0.742,0.332-1.389,0.782-1.936,1.352
	c-0.549,0.57-0.977,1.229-1.287,1.979c-0.311,0.749-0.465,1.557-0.465,2.422s0.154,1.672,0.465,2.422s0.738,1.409,1.287,1.979
	c0.547,0.569,1.193,1.017,1.936,1.341s1.547,0.486,2.41,0.486c0.865,0,1.67-0.162,2.412-0.486s1.387-0.771,1.936-1.341
	c0.547-0.569,0.977-1.229,1.287-1.979c0.309-0.75,0.465-1.557,0.465-2.422s-0.156-1.673-0.465-2.422
	C363.587,482.524,363.158,481.865,362.611,481.295z M362.394,487.523c-0.217,0.569-0.52,1.067-0.908,1.492
	c-0.389,0.426-0.857,0.765-1.406,1.017c-0.547,0.252-1.152,0.378-1.816,0.378c-0.662,0-1.268-0.126-1.816-0.378
	c-0.547-0.252-1.016-0.591-1.404-1.017c-0.391-0.425-0.693-0.923-0.908-1.492c-0.217-0.569-0.324-1.179-0.324-1.827
	c0-0.649,0.107-1.262,0.324-1.839c0.215-0.576,0.518-1.077,0.908-1.503c0.389-0.425,0.857-0.764,1.404-1.016
	c0.549-0.252,1.154-0.379,1.816-0.379c0.664,0,1.27,0.127,1.816,0.379c0.549,0.252,1.018,0.591,1.406,1.016
	c0.389,0.426,0.691,0.927,0.908,1.503c0.217,0.577,0.324,1.189,0.324,1.839C362.718,486.345,362.611,486.954,362.394,487.523z
	 M296.221,481.295c-0.547-0.569-1.191-1.02-1.936-1.352c-0.742-0.331-1.545-0.497-2.41-0.497s-1.67,0.166-2.412,0.497
	c-0.742,0.332-1.387,0.782-1.936,1.352c-0.547,0.57-0.977,1.229-1.285,1.979c-0.311,0.749-0.465,1.557-0.465,2.422
	s0.154,1.672,0.465,2.422c0.309,0.75,0.738,1.409,1.285,1.979c0.549,0.569,1.193,1.017,1.936,1.341s1.547,0.486,2.412,0.486
	s1.668-0.162,2.41-0.486c0.744-0.324,1.389-0.771,1.936-1.341c0.549-0.569,0.977-1.229,1.287-1.979s0.465-1.557,0.465-2.422
	s-0.154-1.673-0.465-2.422C297.198,482.524,296.77,481.865,296.221,481.295z M296.006,487.523c-0.217,0.569-0.52,1.067-0.908,1.492
	c-0.391,0.426-0.859,0.765-1.406,1.017c-0.549,0.252-1.154,0.378-1.816,0.378c-0.664,0-1.27-0.126-1.816-0.378
	c-0.549-0.252-1.018-0.591-1.406-1.017c-0.389-0.425-0.691-0.923-0.908-1.492s-0.324-1.179-0.324-1.827
	c0-0.649,0.107-1.262,0.324-1.839c0.217-0.576,0.52-1.077,0.908-1.503c0.389-0.425,0.857-0.764,1.406-1.016
	c0.547-0.252,1.152-0.379,1.816-0.379c0.662,0,1.268,0.127,1.816,0.379c0.547,0.252,1.016,0.591,1.406,1.016
	c0.389,0.426,0.691,0.927,0.908,1.503c0.215,0.577,0.324,1.189,0.324,1.839C296.331,486.345,296.221,486.954,296.006,487.523z
	 M309.381,480.463c-0.455-0.39-0.996-0.656-1.623-0.801c-0.627-0.144-1.309-0.216-2.043-0.216c-0.707,0-1.465,0.047-2.271,0.141
	s-1.701,0.234-2.682,0.422v11.699h1.535v-10.402c1.184-0.23,2.293-0.346,3.33-0.346c0.592,0,1.111,0.062,1.559,0.184
	c0.445,0.123,0.818,0.332,1.113,0.628c0.295,0.295,0.525,0.713,0.691,1.254s0.25,1.251,0.25,2.13v6.553h1.535v-7.201
	c0-0.995-0.119-1.82-0.357-2.477C310.18,481.375,309.834,480.852,309.381,480.463z M318.516,490.054
	c-0.346-0.108-0.619-0.277-0.82-0.509c-0.203-0.23-0.35-0.547-0.443-0.951c-0.096-0.403-0.141-0.922-0.141-1.557v-5.86h4.973v-1.492
	h-4.973v-4.347h-1.537v4.347h-2.551v1.492h2.551v6.466c0,0.764,0.109,1.405,0.326,1.925c0.215,0.519,0.525,0.937,0.93,1.254
	c0.402,0.317,0.867,0.544,1.395,0.682c0.525,0.137,1.105,0.205,1.74,0.205h2.271v-1.492h-2.422
	C319.295,490.216,318.862,490.162,318.516,490.054z M337.784,489.589c-0.316,0-0.59,0.115-0.82,0.346s-0.346,0.505-0.346,0.822
	c0,0.316,0.115,0.591,0.346,0.821s0.504,0.346,0.82,0.346c0.318,0,0.592-0.115,0.822-0.346s0.346-0.505,0.346-0.821
	c0-0.317-0.115-0.592-0.346-0.822S338.102,489.589,337.784,489.589z M333.178,486.106c-0.346-0.303-0.785-0.565-1.318-0.789
	c-0.533-0.223-1.182-0.422-1.947-0.595l-0.799-0.173c-1.053-0.216-1.781-0.461-2.184-0.735c-0.404-0.273-0.607-0.678-0.607-1.211
	c0-0.504,0.238-0.904,0.715-1.2c0.475-0.295,1.174-0.443,2.098-0.443c0.793,0,1.477,0.076,2.055,0.228
	c0.576,0.151,1.217,0.421,1.924,0.811l0.691-1.405c-1.412-0.765-2.969-1.146-4.67-1.146c-0.635,0-1.223,0.076-1.764,0.228
	c-0.539,0.151-1.008,0.364-1.404,0.638s-0.711,0.605-0.941,0.994c-0.23,0.39-0.346,0.815-0.346,1.276
	c0,0.462,0.072,0.88,0.217,1.254c0.143,0.375,0.381,0.707,0.713,0.995s0.758,0.537,1.275,0.746c0.52,0.209,1.146,0.4,1.883,0.573
	l0.908,0.194c1.008,0.217,1.729,0.49,2.162,0.822c0.432,0.331,0.648,0.771,0.648,1.318c0,0.39-0.086,0.707-0.26,0.952
	c-0.172,0.245-0.414,0.436-0.725,0.573c-0.311,0.137-0.678,0.237-1.102,0.303c-0.426,0.064-0.877,0.097-1.352,0.097
	c-0.592,0-1.223-0.09-1.893-0.271c-0.67-0.18-1.352-0.479-2.045-0.897l-0.734,1.471c0.779,0.433,1.539,0.742,2.281,0.93
	s1.539,0.281,2.391,0.281c0.748,0,1.434-0.072,2.053-0.216c0.621-0.145,1.158-0.36,1.611-0.648c0.455-0.289,0.805-0.649,1.049-1.082
	c0.246-0.433,0.369-0.93,0.369-1.492c0-0.476-0.072-0.915-0.217-1.318C333.77,486.763,333.526,486.41,333.178,486.106z"/>
</svg>

