<?xml version="1.0" encoding="utf-8"?>
<!-- Generator: Adobe Illustrator 23.0.0, SVG Export Plug-In . SVG Version: 6.00 Build 0)  -->
<svg version="1.1" id="Layer_1" xmlns="http://www.w3.org/2000/svg" xmlns:xlink="http://www.w3.org/1999/xlink" x="0px" y="0px"
	 viewBox="0 0 800 500" style="enable-background:new 0 0 800 500;" xml:space="preserve">
<g id="XMLID_116_">
	<path fill="#000000" id="XMLID_303_" d="M649.41,392.54c-9.75,0-19.5,0-29.25,0c-13.24,0-26.49,0-39.74,0c0.12-0.28,0.16-0.6-0.27-0.55
		c-15.67,1.58-33.58-3.48-42.5-17.37c-3.22-5.02-4.76-11.09-3.14-16.93c0.19-0.68,0.42-1.34,0.69-1.99
		c0.06-0.16,0.14-0.33,0.21-0.49c0,0,0,0,0-0.01c0.01-0.02,0.03-0.06,0.05-0.11c0.19-0.38,0.39-0.75,0.6-1.12
		c0.18-0.32,0.38-0.64,0.59-0.95c0.02-0.02,0.04-0.06,0.06-0.09c0.07-0.1,0.14-0.19,0.21-0.29c0.05-0.07,0.14-0.19,0.24-0.3
		c0.1-0.06,0.19-0.12,0.28-0.18c0.2-0.13,0.4-0.24,0.6-0.36c-0.37,0.22,0.32-0.16,0.4-0.2c0.59-0.3,1.21-0.57,1.82-0.82
		c2.11-0.85,4.46-1.31,6.75-1.53c8.41-0.84,16.71,1.94,23.66,6.57c1.72,1.15,3.35,2.45,4.86,3.87c0.77,0.72,1.49,1.5,2.18,2.31
		c0.39,0.46,1.14,1.22,1.14,1.72c0,0.17-0.05,0.34-0.1,0.5c-0.22,0.25-0.51,0.61-0.21,0.32c-0.23,0.23-0.47,0.46-0.7,0.69
		c-1.95,1.9-3.89,3.82-5.59,5.95c-0.12,0.15-1.02,1.19-0.7,1.54c0.31,0.35,1.45-0.44,1.61-0.54c2.11-1.31,4.04-3.1,5.59-5.03
		c0.02-0.03,0.04-0.05,0.06-0.07c0.04-0.05,0.09-0.1,0.14-0.15c-0.08,0.1,0.77-0.79,0.98-1c0.87-0.85,1.75-1.68,2.59-2.56
		c1.22-1.28,2.42-2.58,3.4-4.05c0.45-0.68,0.95-1.52,0.88-2.36c-0.09-0.95-0.78-1.59-1.38-2.29c-0.82-0.96-1.71-1.84-2.64-2.69
		c-1.83-1.66-3.85-3.11-5.97-4.39c-8.14-4.95-18.34-7.28-27.66-4.6c-6.57,1.89-12.02,6.31-16.65,11.2c-2.6,2.74-4.76,6.04-5.87,9.66
		c-1.79,5.81-0.35,12.12,2.7,17.24c2.86,4.81,6.86,8.6,11.5,11.47c-2.16,0-4.32,0-6.48,0c-5.36,0-10.72,0-16.08,0
		c0.68-1.35,1.22-2.75,1.5-4.17c0.04-0.19-0.03-0.28-0.17-0.3c0.42-2.61,0.05-5.33-0.7-7.84c-1.85-6.17-5.89-11.55-9.39-16.87
		c-2.71-4.14-5.42-8.4-7.01-13.11c-0.71-2.1-1.15-4.29-1.13-6.52c0.01-1.13,0.16-2.26,0.41-3.36c0.13-0.6,0.31-1.19,0.52-1.78
		c0.11-0.3,0.22-0.6,0.34-0.89c0.03-0.06,0.05-0.13,0.08-0.18c-0.01,0.03,0.15-0.32,0.17-0.36c0.95-1.93-1.8-0.06-2.29,0.3
		c-1.1,0.81-2.14,1.71-3.11,2.67c-0.7,0.69-1.62,1.54-2.07,2.45c-1.44,2.92-2.19,5.95-1.96,9.21c0.22,3.11,1.17,6.06,2.45,8.87
		c2.78,6.09,6.94,11.44,10.44,17.11c2.35,3.81,4.59,7.92,5.3,12.4c0.31,1.99,0.17,4.04-0.36,5.97c-0.14,0.51-0.31,1-0.51,1.48
		c-0.05,0.11-0.09,0.22-0.14,0.33c-0.01,0.02-0.02,0.04-0.02,0.05c-0.01,0.02-0.03,0.04-0.04,0.08c-0.14,0.28-0.28,0.55-0.43,0.82
		c-0.13,0.22-0.26,0.44-0.4,0.65c-0.06,0.11-0.14,0.22-0.21,0.33c0,0,0,0,0,0c-0.17,0.23-0.34,0.45-0.51,0.67
		c-0.07,0.08-0.14,0.16-0.22,0.24c-0.79-0.09-1.51-0.58-2.16-1.06c-1.08-0.81-2.02-1.82-2.98-2.77c-1.85-1.84-3.8-3.67-6.38-4.25
		c-0.02-0.12-0.11-0.19-0.29-0.19c-6.21,0-12.41,0-18.62,0c-0.21,0-0.42,0-0.63,0c-5.78,0-11.56,0-17.34,0
		c0.27-0.32,0.54-0.64,0.8-0.97c1.66-2.12,3.06-4.56,3.85-7.14c1.22-4-0.98-8.28-3-11.62c-2.19-3.61-4.92-7.01-7.99-9.9
		c-0.64-0.6-2.59,0.99-3.03,1.31c-0.33,0.23-0.64,0.48-0.95,0.74c-10.08,0.37-20.22-0.36-30.19-1.74
		c-8.05-1.11-14.16-7.68-15.15-15.65c-0.31-2.48,0-5.04,0.64-7.43c0.32-1.23,0.78-2.5,1.31-3.61c0.29-0.62,0.62-1.22,0.96-1.81
		c0.2-0.35,0.41-0.69,0.63-1.03c0.11-0.17,0.22-0.34,0.34-0.51c-0.2,0.27-0.18,0.25,0.04-0.07c0.12-0.16,1.03-1.19,0.71-1.54
		c-0.32-0.35-1.45,0.44-1.61,0.54c-2.05,1.27-4.18,3.07-5.59,5.03c-2.89,4.04-5.06,8.55-5.45,13.56c-0.3,3.98,0.61,8.04,2.68,11.45
		c2.02,3.33,5.18,5.84,8.8,7.23c2.08,0.8,4.29,1.09,6.49,1.37c2.67,0.34,5.35,0.62,8.03,0.86c7.95,0.69,15.97,0.93,23.94,0.41
		c0.34-0.02,0.71-0.2,1.07-0.42c0.6,0.63,1.17,1.28,1.74,1.94c1.3,1.52,2.5,3.11,3.62,4.76c1.97,2.91,4.11,6.45,4.34,10.05
		c0.12,1.76-0.56,3.53-1.36,5.07c-0.01,0-0.02,0-0.03-0.01c-0.65-0.18-1.24-0.57-1.81-0.93c-1.48-0.94-2.89-1.84-4.55-2.4
		c0-0.15-0.09-0.24-0.29-0.24c-13.69,0-27.38,0-41.07,0c-2.84-0.26-5.48-1.32-7.43-3.5c-1.84-2.07-2.72-4.92-2.94-7.64
		c-0.04-0.57-0.44-0.4-0.89-0.19c-0.97,0.45-1.84,1.13-2.66,1.8c-1.06,0.87-2.06,1.8-2.98,2.82c-0.31,0.35-1.48,1.48-1.44,2.06
		c0.23,2.92,0.97,5.79,2.86,8.11c1.65,2.02,4.02,3.1,6.52,3.57c0,0.14,0.09,0.22,0.29,0.22c0.45,0,0.9,0,1.35,0
		c0.23,0.02,0.46,0.04,0.69,0.05c0.1,0,0.22-0.01,0.33-0.05c13.14,0,26.27,0,39.4,0c1.94,0.58,3.54,1.66,5.25,2.73
		c1.57,0.98,3.05,1.17,4.74,0.35c0.3-0.14,0.6-0.3,0.89-0.47c0.04,0.06,0.12,0.1,0.25,0.1c5.96,0,11.93,0,17.9,0
		c0.21,0,0.42,0,0.63,0c6.01,0,12.01,0,18.02,0c0.05,0.04,0.11,0.06,0.19,0.07c3.14,0.4,5.51,3.35,7.63,5.42
		c0.98,0.95,2,1.92,3.26,2.48c1.34,0.6,2.71,0.24,3.99-0.37c2.72-1.29,5.06-3.44,7.2-5.51c0.69-0.67,1.35-1.37,1.97-2.1
		c8.74,0,17.48,0,26.23,0c14.82,0,29.64,0,44.46,0c13.81,0,27.61,0,41.41,0c5.55,0,11.11,0,16.67,0c0.69,0,1.7-0.85,2.2-1.21
		c1.11-0.8,2.14-1.7,3.11-2.67C647.63,395.71,650.64,392.54,649.41,392.54z M579.05,366.79c0.01-0.02,0.03-0.03,0.04-0.04
		C579.08,366.76,579.06,366.78,579.05,366.79z M537.21,352.26C537.21,352.26,537.21,352.25,537.21,352.26
		C537.3,352.18,537.33,352.17,537.21,352.26z M537.28,352.17c0,0,0.01-0.01,0.01-0.01C537.48,351.99,537.61,351.89,537.28,352.17z"
		/>
	<path fill="#000000" id="XMLID_302_" d="M484.74,218.2c-0.94-1.87-2.02-3.68-2.81-5.62c-0.06-0.15-0.27-0.13-0.57,0c0.25-0.44,0.31-0.76-0.07-0.76
		c-6.86,0-13.73,0-20.59,0c-6.27-2.02-11.77-7.15-12.85-13.84c-0.25-1.59-0.13-3.23,0.26-4.79c0.1-0.39,0.23-0.78,0.36-1.16
		c0.15-0.41,0.28-0.7,0.35-0.85c0.19-0.38,0.4-0.74,0.61-1.1c0.12-0.06,0.25-0.11,0.37-0.16c0.16-0.07,0.31-0.12,0.47-0.18
		c-0.25,0.1,0.27-0.07,0.3-0.08c0.37-0.11,0.74-0.19,1.12-0.26c0.81-0.16,1.64-0.22,2.46-0.22c7.29,0,14,6.28,12.82,13.79
		c-0.17,1.09,3.05-1.33,3.23-1.47c0.96-0.78,1.88-1.63,2.71-2.55c0.4-0.44,1.2-1.23,1.3-1.87c0.53-3.33-0.26-6.67-2.35-9.32
		c-1.96-2.49-4.9-4.12-7.97-4.79c-3.3-0.73-6.71-0.32-9.69,1.3c-2.92,1.57-5.56,3.78-7.85,6.17c-1.88,1.95-3.6,4.03-4.72,6.52
		c-1.95,4.34-1.21,9.27,1.25,13.24c0.34,0.56,0.72,1.1,1.12,1.6c-10.76,0-21.53,0-32.29,0c-1.17,0-2.34,0-3.52,0
		c-0.63,0-1.55,0.77-2,1.1c-1.01,0.73-1.95,1.55-2.83,2.43c-0.18,0.18-2.91,3.05-1.79,3.05c17.43,0,34.86,0,52.29,0
		c0.36,0.11,0.72,0.21,1.08,0.29c0.41,0.1,0.79-0.08,1.15-0.29c5.03,0,10.06,0,15.1,0c1.15,0,2.31,0,3.46,0
		c0.06,0,0.12-0.01,0.18-0.02c-0.13,0.23-0.19,0.47-0.11,0.67c0.79,1.94,1.87,3.75,2.81,5.62c0.36,0.72,3.94-2.38,4.17-2.59
		c0.84-0.76,1.67-1.57,2.37-2.47C484.29,219.36,484.95,218.62,484.74,218.2z"/>
	<g id="XMLID_297_">
		<path fill="#000000" id="XMLID_299_" d="M540.42,261.33c-2.99-3.54-6.56-6.58-10.49-9.01c-2.99-1.85-6.28-3.4-9.73-4.14
			c-0.59-0.12-1.12,0.23-1.61,0.54c-1.07,0.66-2.05,1.47-2.98,2.31c-0.93,0.84-1.84,1.73-2.6,2.72c0.06-0.08-1.11,1.46-0.71,1.54
			c6.38,1.37,12.27,5.28,16.95,9.7c6.9,6.51,11.6,15.3,12.99,24.7c0.82,5.54,0.43,11.29-0.84,16.74c-0.25,1.09-0.55,2.16-0.9,3.23
			c-12.89-6.55-23.52-18.54-26.92-32.66c-1.05-4.38-1.31-8.89-0.95-13.38c0.1-1.23-3.32,1.43-3.55,1.61
			c-1.06,0.86-2.07,1.8-2.98,2.81c-0.4,0.44-1.38,1.38-1.44,2.06c0,0.04,0,0.09-0.01,0.13c-0.31,0.38-0.57,0.79-0.57,1.1
			c0,9.16,0,18.33,0,27.49c0,3.42,0,6.84,0,10.26c-3.76,0-7.52,0-11.28,0c0.49-1.01,0.9-2.05,1.17-3.11
			c0.01-0.03,0.02-0.06,0.03-0.1c0-0.03,0.01-0.06,0.02-0.09c0.05-0.18,0.1-0.37,0.13-0.56c0.59-2.79,0.22-5.74-0.59-8.44
			c-1.85-6.17-5.9-11.55-9.39-16.87c-2.71-4.14-5.42-8.4-7.02-13.11c-0.71-2.1-1.15-4.3-1.12-6.52c0.01-1.13,0.16-2.26,0.41-3.36
			c0.14-0.6,0.32-1.19,0.52-1.78c0.1-0.3,0.22-0.59,0.35-0.89c0.02-0.06,0.05-0.12,0.08-0.18c-0.01,0.03,0.15-0.32,0.17-0.36
			c0.95-1.93-1.8-0.06-2.29,0.3c-1.11,0.81-2.14,1.71-3.11,2.67c-0.7,0.69-1.62,1.54-2.06,2.45c-1.44,2.92-2.2,5.95-1.96,9.21
			c0.22,3.11,1.16,6.06,2.45,8.87c2.78,6.09,6.93,11.44,10.44,17.12c2.35,3.81,4.59,7.92,5.3,12.4c0.26,1.66,0.2,3.36-0.13,5.01
			c-0.01,0.02-0.01,0.04-0.02,0.06c-0.19,0.96-0.55,1.88-0.95,2.78c0.06-0.15-0.23,0.47-0.25,0.53c-0.15,0.29-0.31,0.59-0.46,0.88
			c-0.03,0.05-0.06,0.09-0.09,0.14c-0.07,0.11-0.14,0.22-0.21,0.33c0,0,0,0,0,0c-0.16,0.22-0.34,0.45-0.51,0.67
			c-0.07,0.08-0.15,0.17-0.22,0.25c-0.06,0.06-0.16,0.19-0.3,0.36c-0.96-0.01-1.87-0.65-2.64-1.19c-1.24-0.88-2.35-1.95-3.48-2.96
			c-1.6-1.44-3.29-2.92-5.25-3.79c0.22-0.42,0.24-0.72-0.14-0.72c-6.21,0-12.41,0-18.62,0c-0.21,0-0.41,0-0.63,0
			c-5.97,0-11.93,0-17.9,0c-0.17,0-0.35,0.05-0.55,0.13c0-22.38,0-44.76,0-67.15c0-0.37,0-0.74,0-1.11c10.43,0,20.85,0,31.28,0
			c3.05,0,6.1,0,9.14,0c0,0.08,0.01,0.16,0.04,0.23c1.94,4.53,5.93,10.38,11.66,9.55c1.36-0.2,2.69-0.87,3.82-1.61
			c2.76-1.82,5.18-4.08,7.29-6.61c2.25-2.7,3.36-6.13,3.82-9.57c0.02-0.17-0.04-0.27-0.15-0.3c0.09-0.17,0.15-0.34,0.15-0.47
			c0-20.77,0-41.54,0-62.31c0-6.06,0-135.46,0-141.51c0-1.24-3.28,1.39-3.55,1.61c-1.06,0.86-2.07,1.79-2.98,2.81
			c-0.35,0.39-1.43,1.43-1.43,2.06c0,20.84,0,165.02,0,185.86c0,5.99,0,11.98,0,17.96c0,0.17,0.06,0.26,0.16,0.31
			c-0.08,0.16-0.14,0.32-0.16,0.46c-0.19,1.41-0.47,2.79-0.9,4.14c-0.02,0-0.03,0-0.05,0c-1.96-0.07-3.77-1.26-5.17-2.54
			c-2.05-1.87-3.48-4.36-4.56-6.88c0.08-0.26,0.02-0.42-0.26-0.42c-12,0-24.02,0-36.02,0c-4.04,0-8.08,0-12.11,0
			c0-20.26,0-40.52,0-60.78c0-6.69,0-13.39,0-20.09c0-1.24-3.28,1.39-3.55,1.61c-1.06,0.86-2.07,1.8-2.99,2.81
			c-0.35,0.39-1.43,1.43-1.43,2.06c0,22.49,0,44.98,0,67.47c0,2.3,0,4.61,0,6.92c-9.67,0-19.34,0-29.01,0c-14.22,0-28.43,0-42.65,0
			c-3.19,0-193.27,0-196.46,0c-0.69,0-1.7,0.85-2.2,1.21c-1.11,0.8-2.14,1.71-3.11,2.67c-0.19,0.19-3.2,3.36-1.98,3.36
			c12.01,0,210.91,0,222.91,0c16.36,0,32.72,0,49.09,0c1.14,0,2.27,0,3.41,0c0,18.33,0,36.65,0,54.97c0,6.7,0,13.39,0,20.09
			c0,0.44,0.4,0.4,0.95,0.15c0.02,0.1,0.11,0.16,0.28,0.16c5.97,0,11.93,0,17.9,0c0.21,0,0.42,0,0.63,0c5.43,0,10.85,0,16.27,0
			c0.01,0,0.01,0,0.03,0c3.24,0.42,5.91,3.34,8.22,5.4c1.15,1.03,2.33,2.08,3.71,2.78c1.37,0.69,2.65,0.47,4.03-0.06
			c2.44-0.94,4.7-2.91,6.57-4.68c1.17-1.1,2.27-2.24,3.31-3.44c5.51,0,11.02,0,16.52,0c0.47-0.12,0.9-0.32,1.3-0.6
			c1.07-0.66,2.05-1.47,2.98-2.3c0.67-0.6,1.3-1.23,1.91-1.9c0.35-0.39,1.43-1.43,1.43-2.06c0-3.63,0-7.25,0-10.87
			c3.96,5.95,9.23,11.01,15.15,14.99c2.74,1.84,5.65,3.45,8.68,4.73c0.51,0.22,1.23-0.3,1.61-0.54c1.08-0.67,2.03-1.49,2.99-2.31
			c3.74-3.22,6.24-7.2,7.83-11.83c1.62-4.73,2.3-9.79,2.29-14.76C550.57,278.77,546.92,269.04,540.42,261.33z M490.67,246.56
			C490.64,246.59,490.64,246.59,490.67,246.56L490.67,246.56z"/>
		<path fill="#000000" id="XMLID_298_" d="M412.97,244.25c0-1.24-3.28,1.39-3.55,1.61c-1.06,0.87-2.06,1.8-2.98,2.82
			c-0.35,0.39-1.44,1.43-1.44,2.06c0,11.89,0,23.79,0,35.67c0,6.22,0,12.43,0,18.65c0,3.12,0.09,6.24-0.21,9.36
			c-0.23,2.44-0.67,4.86-1.33,7.22c-0.37,1.32-0.84,2.61-1.39,3.87c-0.24,0.55-0.53,1.07-0.83,1.59c-0.15,0.27-0.31,0.53-0.48,0.78
			c-0.06,0.09-0.13,0.18-0.19,0.28c-0.01,0.01-0.02,0.02-0.03,0.04c-0.28,0.38-0.57,0.75-0.86,1.12c-0.1,0.11-0.24,0.28-0.3,0.35
			c-0.2,0.22-0.4,0.45-0.61,0.67c0.94-1.02-0.99,0.88-0.7,0.66c-0.02,0.02-0.05,0.04-0.07,0.06c-0.02,0.02-0.04,0.04-0.07,0.06
			c-0.07,0.06-0.14,0.11-0.21,0.16c-0.16,0.12-0.5,0.38-0.63,0.48c-0.07,0.05-0.22,0.16-0.34,0.24c-0.21,0.13-0.41,0.26-0.62,0.39
			c-0.19,0.12-0.38,0.23-0.56,0.33c0.43-0.25-0.41,0.21-0.54,0.27c-0.57,0.28-1.16,0.52-1.77,0.73c-0.94,0.32-1.9,1.19-2.66,1.8
			c-1.06,0.86-2.07,1.8-2.98,2.81c-0.5,0.56-1.23,1.3-1.43,2.07c-0.18,0.66,0.69,0.25,0.89,0.18c2.49-0.85,4.75-2.34,6.89-3.84
			c2.88-2.02,5.55-4.38,8.04-6.85c3.97-3.94,7.3-8.27,9.06-13.63c2.59-7.89,1.89-16.46,1.89-24.62
			C412.97,275.85,412.97,260.05,412.97,244.25z"/>
	</g>
	<path fill="#000000" id="XMLID_296_" d="M443.38,160.92c-0.71,1.04-1.36,2.15-1.81,3.33c-0.04,0.1-0.39,0.78-0.17,0.94
		c0.22,0.15,0.72-0.43,0.8-0.51c0.68-0.71,1.36-1.58,1.87-2.49c0.71-0.34,1.48-0.41,2.25-0.25c1.78,0.36,3.18,1.91,3.7,3.6
		c0.33,1.07,0.33,2.23,0.19,3.34c-0.07,0.57-0.21,1.12-0.37,1.69c-0.09,0.32-0.19,0.64-0.31,0.95c-0.01,0.05-0.03,0.08-0.04,0.11
		c0,0.02-0.02,0.05-0.03,0.08c-0.06,0.16-0.12,0.31-0.19,0.48c-0.11,0.25-0.22,0.5-0.34,0.75c-0.04,0.08-0.11,0.22-0.13,0.27
		c-0.08,0.16-0.16,0.31-0.24,0.46c-0.03,0.06-0.06,0.12-0.1,0.18c-0.04,0.08-0.12,0.21-0.15,0.26c-0.08,0.14-0.17,0.28-0.25,0.42
		c-0.1,0.16-0.32,0.47-0.4,0.58c-0.12,0.16-0.23,0.31-0.35,0.47c-0.08,0.1-0.17,0.21-0.26,0.32c-0.1,0.11-0.19,0.22-0.29,0.34
		c-0.03,0.03-0.07,0.07-0.1,0.1c-0.94,1.02-1.78,2.21-2.34,3.48c-0.04,0.1-0.39,0.79-0.17,0.94c0.22,0.15,0.73-0.44,0.8-0.51
		c2.48-2.69,4.6-5.76,6.27-9.02c1.35-2.63,2.56-5.57,2.48-8.58c-0.05-2.01-1.02-4.05-2.77-5.11c-1.64-1-3.59-0.72-5.05,0.45
		C444.9,158.78,444.1,159.87,443.38,160.92z"/>
	<path fill="#000000" id="XMLID_295_" d="M480.63,330.21c-0.57,0.84-1.1,1.74-1.46,2.69c-0.03,0.08-0.31,0.64-0.13,0.76
		c0.18,0.12,0.58-0.35,0.64-0.41c0.55-0.57,1.1-1.28,1.51-2.02c0.57-0.28,1.2-0.33,1.82-0.2c1.44,0.29,2.58,1.54,3,2.91
		c0.27,0.87,0.27,1.8,0.16,2.7c-0.06,0.46-0.17,0.91-0.3,1.37c-0.07,0.26-0.16,0.51-0.25,0.77c-0.02,0.04-0.02,0.07-0.03,0.09
		c0,0.02-0.01,0.04-0.02,0.06c-0.05,0.13-0.1,0.26-0.16,0.39c-0.08,0.21-0.18,0.41-0.27,0.61c-0.04,0.07-0.09,0.18-0.11,0.22
		c-0.06,0.12-0.13,0.25-0.2,0.37c-0.02,0.05-0.05,0.1-0.08,0.15c-0.04,0.06-0.1,0.16-0.12,0.21c-0.07,0.11-0.14,0.22-0.2,0.34
		c-0.08,0.13-0.26,0.39-0.32,0.47c-0.09,0.13-0.18,0.25-0.28,0.37c-0.07,0.09-0.14,0.18-0.21,0.26c-0.08,0.09-0.16,0.18-0.23,0.27
		c-0.02,0.03-0.05,0.06-0.08,0.08c-0.76,0.82-1.44,1.79-1.89,2.82c-0.04,0.08-0.32,0.63-0.14,0.75c0.18,0.12,0.59-0.35,0.64-0.41
		c2.01-2.18,3.72-4.66,5.08-7.3c1.09-2.12,2.07-4.5,2.01-6.93c-0.04-1.63-0.82-3.28-2.24-4.14c-1.32-0.81-2.9-0.58-4.08,0.37
		C481.86,328.47,481.21,329.36,480.63,330.21z"/>
	<path fill="#000000" id="XMLID_163_" d="M517.87,338.36c-0.71,1.04-1.36,2.16-1.81,3.33c-0.04,0.1-0.39,0.78-0.17,0.94
		c0.22,0.14,0.72-0.44,0.8-0.51c0.69-0.71,1.37-1.58,1.87-2.49c0.71-0.35,1.48-0.41,2.25-0.25c1.78,0.36,3.18,1.91,3.7,3.6
		c0.33,1.07,0.33,2.23,0.19,3.34c-0.07,0.57-0.21,1.12-0.37,1.7c-0.09,0.32-0.2,0.63-0.31,0.95c-0.02,0.05-0.03,0.08-0.04,0.11
		c-0.01,0.02-0.02,0.05-0.03,0.07c-0.06,0.16-0.13,0.32-0.19,0.48c-0.11,0.25-0.22,0.5-0.34,0.75c-0.04,0.08-0.11,0.23-0.13,0.27
		c-0.08,0.16-0.16,0.31-0.24,0.46c-0.03,0.07-0.06,0.13-0.1,0.18c-0.05,0.08-0.12,0.2-0.15,0.26c-0.08,0.14-0.17,0.28-0.25,0.41
		c-0.11,0.16-0.33,0.48-0.4,0.59c-0.12,0.16-0.23,0.31-0.35,0.47c-0.09,0.1-0.18,0.21-0.26,0.32c-0.1,0.11-0.19,0.22-0.28,0.34
		c-0.04,0.03-0.06,0.07-0.1,0.1c-0.94,1.02-1.78,2.22-2.34,3.49c-0.04,0.1-0.38,0.78-0.17,0.93c0.22,0.15,0.73-0.43,0.8-0.51
		c2.48-2.69,4.61-5.76,6.28-9.02c1.35-2.63,2.56-5.57,2.48-8.58c-0.05-2.01-1.02-4.05-2.77-5.11c-1.64-1-3.59-0.72-5.05,0.45
		C519.39,336.22,518.58,337.3,517.87,338.36z"/>
	<path fill="#000000" id="XMLID_162_" d="M510.88,215c-0.7,1.04-1.36,2.15-1.81,3.33c-0.04,0.1-0.39,0.79-0.17,0.93c0.22,0.15,0.72-0.43,0.8-0.51
		c0.69-0.71,1.37-1.58,1.87-2.5c0.71-0.34,1.48-0.4,2.25-0.25c1.78,0.36,3.18,1.9,3.7,3.59c0.33,1.08,0.33,2.23,0.19,3.34
		c-0.07,0.57-0.21,1.12-0.37,1.7c-0.09,0.32-0.2,0.63-0.3,0.95c-0.02,0.04-0.03,0.08-0.04,0.11c-0.01,0.02-0.02,0.05-0.03,0.08
		c-0.06,0.16-0.13,0.32-0.19,0.47c-0.11,0.25-0.22,0.5-0.34,0.75c-0.04,0.08-0.11,0.23-0.13,0.27c-0.08,0.16-0.17,0.31-0.24,0.46
		c-0.04,0.06-0.07,0.12-0.1,0.18c-0.05,0.08-0.12,0.2-0.15,0.26c-0.08,0.14-0.17,0.28-0.25,0.41c-0.11,0.16-0.33,0.47-0.4,0.59
		c-0.12,0.16-0.23,0.31-0.35,0.47c-0.08,0.11-0.17,0.22-0.26,0.32c-0.1,0.12-0.19,0.23-0.29,0.34c-0.03,0.04-0.06,0.07-0.09,0.1
		c-0.94,1.02-1.78,2.22-2.33,3.49c-0.05,0.1-0.39,0.79-0.17,0.94c0.22,0.14,0.72-0.43,0.8-0.51c2.48-2.69,4.6-5.77,6.28-9.02
		c1.35-2.62,2.55-5.57,2.48-8.57c-0.05-2.01-1.02-4.05-2.76-5.12c-1.64-1-3.59-0.72-5.05,0.45C512.4,212.86,511.6,213.95,510.88,215
		z"/>
	<path fill="#000000" id="XMLID_161_" d="M491.56,377.39c0.65-1.23,1.23-2.53,1.57-3.87c0.03-0.12,0.33-0.9,0.06-1.04
		c-0.27-0.12-0.75,0.58-0.83,0.68c-0.67,0.87-1.31,1.92-1.75,2.98c-0.75,0.48-1.61,0.67-2.49,0.62c-2.05-0.11-3.85-1.55-4.67-3.29
		c-0.52-1.11-0.69-2.36-0.69-3.57c0-0.63,0.08-1.24,0.18-1.88c0.06-0.36,0.13-0.72,0.21-1.07c0.01-0.06,0.02-0.1,0.03-0.13
		c0-0.03,0.01-0.05,0.02-0.09c0.04-0.18,0.1-0.36,0.15-0.54c0.08-0.29,0.17-0.58,0.27-0.86c0.04-0.1,0.09-0.26,0.11-0.31
		c0.07-0.18,0.13-0.36,0.21-0.54c0.03-0.07,0.06-0.14,0.09-0.22c0.04-0.08,0.1-0.23,0.13-0.3c0.07-0.16,0.15-0.32,0.23-0.49
		c0.1-0.18,0.3-0.57,0.37-0.69c0.1-0.19,0.22-0.37,0.33-0.56c0.08-0.13,0.16-0.25,0.25-0.38c0.09-0.14,0.18-0.28,0.28-0.41
		c0.03-0.04,0.06-0.08,0.09-0.12c0.92-1.25,1.69-2.67,2.13-4.13c0.04-0.11,0.33-0.91,0.06-1.04c-0.26-0.12-0.75,0.59-0.83,0.68
		c-2.41,3.29-4.36,6.94-5.79,10.71c-1.14,3.04-2.08,6.41-1.57,9.63c0.34,2.16,1.72,4.21,3.82,5.09c1.99,0.82,4.14,0.21,5.61-1.28
		C490.15,379.94,490.9,378.64,491.56,377.39z"/>
	<path fill="#000000" id="XMLID_160_" d="M557.67,373.41c0.59-1.19,1.12-2.45,1.42-3.75c0.03-0.11,0.3-0.88,0.04-1c-0.25-0.12-0.69,0.56-0.76,0.65
		c-0.62,0.84-1.21,1.85-1.61,2.88c-0.69,0.46-1.49,0.64-2.32,0.58c-1.91-0.13-3.61-1.55-4.4-3.24c-0.5-1.08-0.66-2.29-0.68-3.48
		c-0.01-0.6,0.06-1.2,0.15-1.83c0.05-0.34,0.12-0.69,0.18-1.03c0.01-0.05,0.02-0.09,0.03-0.12c0-0.02,0.01-0.05,0.02-0.08
		c0.04-0.18,0.09-0.35,0.13-0.53c0.08-0.28,0.16-0.56,0.25-0.84c0.03-0.09,0.08-0.25,0.1-0.3c0.06-0.18,0.12-0.35,0.19-0.52
		c0.03-0.07,0.05-0.14,0.08-0.21c0.03-0.08,0.1-0.23,0.12-0.29c0.06-0.16,0.13-0.31,0.2-0.47c0.09-0.18,0.28-0.55,0.34-0.67
		c0.1-0.18,0.2-0.36,0.3-0.54c0.08-0.12,0.15-0.24,0.23-0.37c0.08-0.13,0.17-0.26,0.25-0.39c0.03-0.04,0.06-0.08,0.08-0.12
		c0.84-1.2,1.56-2.58,1.96-3.99c0.04-0.11,0.3-0.88,0.05-1c-0.25-0.12-0.7,0.56-0.76,0.65c-2.23,3.18-4.01,6.7-5.3,10.35
		c-1.04,2.94-1.89,6.21-1.38,9.34c0.34,2.1,1.65,4.11,3.63,4.98c1.86,0.81,3.87,0.24,5.23-1.19
		C556.38,375.88,557.07,374.62,557.67,373.41z"/>
	<path fill="#000000" id="XMLID_159_" d="M457.48,264.23c0.59-1.19,1.12-2.45,1.42-3.75c0.03-0.12,0.3-0.88,0.04-1c-0.25-0.12-0.69,0.56-0.76,0.65
		c-0.62,0.84-1.21,1.85-1.61,2.88c-0.69,0.46-1.5,0.64-2.32,0.58c-1.91-0.13-3.61-1.55-4.39-3.24c-0.51-1.08-0.67-2.29-0.68-3.48
		c0-0.6,0.06-1.2,0.15-1.83c0.05-0.35,0.12-0.69,0.18-1.04c0.01-0.05,0.02-0.09,0.03-0.12c0.01-0.03,0.01-0.05,0.02-0.09
		c0.04-0.18,0.09-0.35,0.13-0.53c0.08-0.28,0.16-0.56,0.25-0.84c0.03-0.09,0.08-0.25,0.1-0.3c0.06-0.17,0.12-0.34,0.19-0.52
		c0.03-0.07,0.05-0.14,0.08-0.2c0.03-0.09,0.09-0.23,0.12-0.29c0.06-0.16,0.13-0.32,0.2-0.48c0.09-0.18,0.28-0.55,0.34-0.67
		c0.1-0.18,0.2-0.36,0.3-0.54c0.08-0.13,0.15-0.25,0.23-0.37c0.08-0.13,0.17-0.26,0.25-0.39c0.03-0.04,0.06-0.08,0.08-0.12
		c0.84-1.2,1.56-2.58,1.96-3.99c0.03-0.11,0.3-0.88,0.05-1c-0.25-0.12-0.7,0.56-0.76,0.65c-2.23,3.18-4.01,6.7-5.3,10.35
		c-1.04,2.94-1.89,6.2-1.38,9.34c0.34,2.1,1.65,4.11,3.63,4.97c1.86,0.82,3.86,0.25,5.23-1.18
		C456.18,266.7,456.87,265.43,457.48,264.23z"/>
	<path fill="#000000" id="XMLID_158_" d="M487.51,256.84c-0.62,0.97-1.19,2.01-1.58,3.11c-0.04,0.1-0.34,0.73-0.13,0.86
		c0.21,0.13,0.66-0.42,0.72-0.49c0.61-0.67,1.22-1.49,1.66-2.35c0.65-0.33,1.35-0.41,2.07-0.29c1.64,0.29,2.97,1.67,3.5,3.21
		c0.33,0.98,0.36,2.05,0.26,3.07c-0.05,0.53-0.16,1.04-0.3,1.57c-0.08,0.3-0.16,0.59-0.26,0.88c-0.01,0.04-0.02,0.08-0.03,0.1
		c-0.01,0.02-0.02,0.04-0.03,0.07c-0.06,0.15-0.11,0.29-0.17,0.44c-0.09,0.24-0.19,0.47-0.29,0.7c-0.04,0.08-0.1,0.21-0.11,0.25
		c-0.07,0.14-0.14,0.28-0.21,0.43c-0.03,0.06-0.06,0.11-0.09,0.17c-0.04,0.08-0.1,0.19-0.13,0.25c-0.07,0.13-0.15,0.26-0.22,0.39
		c-0.1,0.15-0.29,0.45-0.35,0.55c-0.1,0.15-0.2,0.29-0.31,0.44c-0.08,0.1-0.16,0.2-0.23,0.3c-0.09,0.1-0.17,0.21-0.26,0.31
		c-0.03,0.04-0.05,0.06-0.08,0.1c-0.84,0.96-1.58,2.08-2.07,3.27c-0.03,0.1-0.34,0.73-0.13,0.86c0.2,0.13,0.66-0.41,0.72-0.49
		c2.22-2.54,4.09-5.42,5.55-8.46c1.17-2.45,2.21-5.19,2.06-7.95c-0.1-1.85-1.04-3.71-2.68-4.64c-1.54-0.88-3.32-0.57-4.64,0.54
		C488.86,254.83,488.15,255.85,487.51,256.84z"/>
	<path fill="#000000" id="XMLID_142_" d="M464.09,274.64c-2.54,1.87-4.59,4.48-5.98,7.3c-0.94,1.92-1.47,4.05-1.9,6.13
		c-0.27,1.32-0.49,2.65-0.71,3.98c-0.66-2.08-1.35-4.15-2.2-6.18c-0.77-1.87-1.68-3.71-2.83-5.39c-0.89-1.29-2-2.52-3.42-3.23
		c-0.01-0.08-0.06-0.13-0.2-0.13c-0.02,0-0.04,0-0.07,0c-0.04-0.01-0.09-0.01-0.15,0c-1.34,0-2.67,0-4.01,0
		c-0.32,0-0.86,0.6-1.05,0.78c-0.51,0.49-0.98,1.03-1.41,1.6c-0.33,0.44-0.67,0.91-0.89,1.42c-0.09,0.22-0.18,0.46,0.12,0.46
		c1.29,0,2.59,0,3.88,0c1.49,0.69,2.63,1.94,3.57,3.25c1.17,1.65,2.07,3.5,2.85,5.36c1.46,3.46,2.47,7.07,3.6,10.65
		c-0.04,0.16-0.04,0.33,0.18,0.26c0.39-0.12,0.77-0.51,1.05-0.78c0.9-0.87,1.76-1.88,2.29-3.01c1.69-3.53,2.04-7.6,2.73-11.4
		c0.18-0.99,0.37-1.98,0.61-2.96c0.25-1.04,0.45-1.76,0.81-2.72c0.15-0.41,0.32-0.81,0.5-1.22c0.03-0.05,0.05-0.1,0.08-0.16
		c0.03-0.05,0.07-0.14,0.09-0.17c0.01-0.03,0.02-0.05,0.04-0.07c0.9-0.71,1.66-1.63,2.3-2.57c0.22-0.32,0.54-0.76,0.59-1.17
		C464.61,274.34,464.19,274.57,464.09,274.64z M461.88,278.06c0-0.01,0-0.01,0.01-0.02C461.99,277.93,462.07,277.83,461.88,278.06z"
		/>
	<path fill="#000000" id="XMLID_139_" d="M440.62,332.41c-2.37,1.74-4.27,4.17-5.56,6.8c-0.88,1.79-1.37,3.76-1.77,5.71
		c-0.25,1.23-0.46,2.47-0.67,3.7c-0.61-1.94-1.25-3.87-2.04-5.75c-0.72-1.75-1.57-3.46-2.64-5.01c-0.83-1.2-1.86-2.35-3.18-3.02
		c-0.01-0.07-0.06-0.12-0.19-0.12c-0.02,0-0.04,0-0.06,0c-0.04-0.01-0.09-0.01-0.14,0c-1.25,0-2.49,0-3.74,0
		c-0.3,0-0.8,0.57-0.97,0.73c-0.48,0.46-0.91,0.97-1.31,1.49c-0.31,0.41-0.63,0.84-0.83,1.32c-0.09,0.21-0.17,0.43,0.11,0.43
		c1.2,0,2.41,0,3.61,0c1.39,0.64,2.45,1.8,3.32,3.03c1.1,1.54,1.92,3.26,2.66,4.99c1.36,3.22,2.29,6.59,3.36,9.92
		c-0.04,0.15-0.03,0.31,0.17,0.25c0.36-0.11,0.72-0.48,0.98-0.73c0.84-0.81,1.63-1.76,2.14-2.81c1.57-3.29,1.9-7.08,2.54-10.62
		c0.16-0.92,0.35-1.84,0.57-2.76c0.23-0.96,0.42-1.63,0.75-2.53c0.14-0.38,0.3-0.76,0.47-1.13c0.02-0.05,0.05-0.1,0.07-0.15
		c0.02-0.05,0.06-0.13,0.08-0.16c0.01-0.02,0.03-0.04,0.04-0.06c0.84-0.67,1.55-1.52,2.14-2.4c0.2-0.3,0.51-0.71,0.55-1.09
		C441.11,332.12,440.72,332.34,440.62,332.41z M438.57,335.59C438.57,335.59,438.57,335.59,438.57,335.59
		C438.66,335.47,438.74,335.38,438.57,335.59z"/>
	
		<rect id="XMLID_138_" x="498.51" y="415.63" transform="matrix(0.707 -0.7072 0.7072 0.707 -151.6718 483.501)" width="18.32" height="18.32"/>
	
		<rect id="XMLID_137_" x="475.37" y="415.63" transform="matrix(0.707 -0.7072 0.7072 0.707 -158.456 467.0821)" width="18.32" height="18.32"/>
	
		<rect id="XMLID_136_" x="451.6" y="326.91" transform="matrix(0.707 -0.7072 0.7072 0.707 -102.5407 424.0173)" width="17.69" height="17.69"/>
	<path fill="#000000" id="XMLID_135_" d="M458.28,159.7c7.39,0,14.8,0,22.19,0c-0.18,0.17-0.36,0.34-0.55,0.51c-0.19,0.17-0.38,0.35-0.57,0.51
		c-0.02,0.02-0.04,0.04-0.06,0.05c-0.1,0.08-0.19,0.16-0.29,0.25c-0.97,0.84-1.97,1.66-2.96,2.48c-3.75,3.07-7.64,6-11.38,9.07
		c-1.53,1.26-2.93,2.85-3.92,4.52c-0.07,0.13-0.68,1.04-0.38,1.27c0.3,0.23,1.13-0.51,1.25-0.61c4.18-3.44,8.52-6.68,12.68-10.14
		c4.46-3.71,9.11-7.74,12.11-12.63c0.11-0.17,0.22-0.34,0.32-0.52c0.17-0.27,0.58-0.97,0.31-1.17c-0.08-0.06-0.19-0.06-0.32-0.01
		c-7.81,0-15.62,0-23.42,0c-0.5,0-1.36,0.93-1.64,1.19c-0.8,0.75-1.53,1.57-2.19,2.41C459.26,157.13,457.25,159.7,458.28,159.7z"/>
	<g id="XMLID_117_">
		<path fill="#000000" id="XMLID_134_" d="M348.42,297.38c0-1.79-2.79-1.82-2.79-0.02c0,2.61,0,5.21,0,7.82c0,0.02,0,0.04,0,0.06
			c0,0.27,0,0.54,0,0.82c0,0.21,0,0.42,0,0.63c0,0.71-0.06,0.98-0.27,1.58c-0.14,0.41-0.33,0.74-0.7,1.22
			c-0.01,0.02-0.03,0.03-0.04,0.05c-0.01,0.02-0.04,0.04-0.08,0.09c-0.09,0.1-0.19,0.19-0.29,0.28c-0.1,0.09-0.2,0.18-0.31,0.26
			c-0.04,0.03-0.1,0.07-0.15,0.11c0,0-0.04,0.03-0.11,0.07c-0.23,0.14-0.47,0.26-0.73,0.37c-0.01,0-0.19,0.07-0.25,0.09
			c-0.1,0.03-0.21,0.06-0.32,0.09c-0.14,0.03-0.28,0.06-0.41,0.08c0,0-0.26,0.03-0.29,0.04c-0.14,0.01-0.28,0-0.43,0
			c-0.32,0-0.64,0-0.96,0c-0.24,0-0.49-0.01-0.72-0.04c0,0-0.23-0.04-0.28-0.05c-0.16-0.04-0.31-0.08-0.46-0.13
			c-0.13-0.04-0.26-0.09-0.38-0.14c-0.04-0.01-0.06-0.03-0.09-0.03c-0.02-0.01-0.05-0.03-0.09-0.05c-0.24-0.13-0.47-0.28-0.69-0.44
			c-0.01,0-0.18-0.15-0.2-0.16c-0.09-0.08-0.16-0.16-0.23-0.23c-0.1-0.1-0.18-0.2-0.27-0.3c-0.02-0.03-0.23-0.31-0.23-0.3
			c-0.13-0.22-0.25-0.44-0.35-0.66c-0.05-0.11-0.1-0.23-0.14-0.34c0.07,0.17-0.05-0.21-0.06-0.22c-0.13-0.48-0.15-0.74-0.15-1.07
			c0-0.45,0-0.9,0-1.35c0-1.85,0-3.7,0-5.54c0-0.76-0.51-1.44-1.3-1.48c-0.72-0.04-1.48,0.54-1.48,1.3c0,2.32,0,4.62,0,6.94
			c0,1.24,0.32,2.46,0.9,3.52c-2.64,0-5.26,0-7.9,0c0.19-0.24,0.37-0.48,0.54-0.74c1.39-2.11,1.5-5.05,0.41-7.29
			c-1.14-2.34-3.35-4.03-5.95-4.36c-2.63-0.33-5.26,0.72-6.94,2.76c-1.15,1.4-1.71,3.15-1.73,4.95c0,0.05,0,0.09,0.01,0.14
			c0,3.65,0,7.3,0,10.95c0,0.76,0.41,1.45,1.22,1.55c0.69,0.08,1.54-0.47,1.54-1.23c0-3.68,0-7.37,0-11.06c0-0.09,0-0.17-0.02-0.25
			c0.01-0.08,0.02-0.18,0.02-0.26c0,0,0.01-0.28,0.01-0.29c0.01-0.12,0.03-0.23,0.04-0.34c0.04-0.27,0.11-0.55,0.18-0.82
			c0.01-0.02,0.02-0.04,0.02-0.06c0.01-0.02,0.02-0.06,0.05-0.12c0.04-0.12,0.1-0.25,0.16-0.37c0.1-0.23,0.23-0.45,0.36-0.66
			c-0.07,0.11,0.14-0.18,0.14-0.19c0.08-0.11,0.17-0.21,0.26-0.31c0.08-0.1,0.18-0.2,0.28-0.29c0-0.01,0.17-0.17,0.19-0.18
			c0.18-0.16,0.38-0.29,0.58-0.42c0.11-0.08,0.23-0.15,0.35-0.21c0.04-0.02,0.06-0.04,0.08-0.05c0.07-0.02,0.13-0.06,0.19-0.08
			c1.03-0.45,1.94-0.53,2.99-0.32c1.01,0.19,1.77,0.64,2.55,1.4c0.01,0.01,0.14,0.17,0.17,0.19c0.07,0.09,0.13,0.16,0.2,0.25
			c0.16,0.22,0.3,0.45,0.43,0.68c0.02,0.03,0.04,0.05,0.04,0.07c0.01,0.02,0.02,0.05,0.03,0.08c0.06,0.12,0.11,0.25,0.16,0.38
			c0.08,0.23,0.16,0.47,0.22,0.72c-0.03-0.09,0.04,0.24,0.04,0.25c0.02,0.15,0.03,0.28,0.04,0.43c0.02,0.14,0.02,0.29,0.02,0.43
			c0,0-0.02,0.3-0.01,0.29c-0.02,0.25-0.07,0.5-0.12,0.75c-0.03,0.14-0.07,0.27-0.11,0.41c0,0.02-0.01,0.05-0.02,0.07
			c-0.03,0.08-0.06,0.16-0.1,0.23c-0.41,1.02-1,1.67-1.81,2.23c-0.11,0.08-0.22,0.15-0.35,0.22c-0.01,0.01-0.22,0.12-0.24,0.13
			c-0.21,0.09-0.44,0.18-0.67,0.26c-0.53,0.18-0.85,0.22-1.57,0.23c-0.76,0-1.35,0.74-1.31,1.47c0.05,0.79,0.71,1.31,1.48,1.3
			c0.45,0,0.9-0.05,1.33-0.13c4.82,0,9.62,0,14.44,0c0.06,0,0.12,0,0.18,0c0.19,0,0.37-0.04,0.54-0.1c0.03,0.02,0.07,0.04,0.1,0.06
			c1.05,0.56,2.2,0.84,3.38,0.84c0.95,0,1.9,0.02,2.83-0.2c2.44-0.6,4.43-2.55,5.08-4.96c0.34-1.26,0.27-2.61,0.25-3.91
			C348.42,302.26,348.42,299.82,348.42,297.38z"/>
		<path fill="#000000" id="XMLID_133_" d="M330.55,256.82c0.42,0,0.82-0.05,1.17-0.31c0.11-0.09,0.22-0.18,0.31-0.28c0.05,0.06,0.11,0.12,0.17,0.17
			c0.36,0.29,0.77,0.41,1.23,0.41c0.42,0,0.82-0.05,1.17-0.31c0.43-0.31,0.69-0.76,0.75-1.29c0.03-0.23,0.01-0.48,0.01-0.72v-0.02
			c0-1.22,0-1.44,0-2.66c0-0.25-0.17-0.45-0.41-0.47c-0.23-0.02-0.47,0.17-0.47,0.41c0,1.23,0,1.46,0,2.7c0,0.01,0,0.01,0,0.02
			c0,0.19,0,0.38,0,0.57c0,0.16-0.01,0.21-0.07,0.35l-0.03,0.07c-0.02,0.04-0.05,0.07-0.07,0.11c0,0-0.01,0.01-0.01,0.01
			c-0.01,0.01-0.01,0.02-0.02,0.03c-0.04,0.04-0.08,0.08-0.12,0.11c-0.01,0.01-0.01,0.01-0.02,0.02c0,0-0.01,0.01-0.02,0.01
			c-0.04,0.02-0.07,0.04-0.11,0.06c0,0-0.07,0.04-0.07,0.04c-0.04,0.01-0.06,0.02-0.1,0.02c-0.04,0.01-0.08,0.02-0.12,0.03
			c0.05-0.01-0.08,0-0.08,0c-0.05,0-0.1,0-0.15,0c-0.05,0-0.1,0-0.15,0c-0.03,0-0.06,0-0.09,0c0,0-0.07-0.02-0.09-0.02
			c-0.03,0-0.06-0.01-0.1-0.02c0,0-0.08-0.03-0.08-0.04c-0.03-0.01-0.06-0.03-0.09-0.05c-0.02-0.01-0.1-0.07-0.1-0.06
			c-0.05-0.05-0.1-0.1-0.14-0.15c0.02,0.03-0.04-0.06-0.04-0.06c-0.02-0.04-0.05-0.08-0.06-0.11c-0.01-0.01-0.01-0.02-0.02-0.03
			c0-0.01,0-0.02-0.01-0.03c-0.01-0.04-0.03-0.08-0.04-0.13l-0.01-0.09c-0.01-0.01-0.01-0.01-0.01-0.01c0.02-0.22,0-0.43,0-0.65l0,0
			c0-0.33,0-0.66,0-0.99c0-0.7,0-0.39,0-1.09c0-0.01,0-0.01,0-0.02c0-0.19,0-0.39,0-0.58c0-0.25-0.16-0.45-0.41-0.47
			c-0.23-0.02-0.47,0.17-0.47,0.41c0,0.2,0,0.41,0,0.62l0,0.01c0,0.78,0,0.54,0,1.31c0,0.41,0,0.81,0,1.22v0.01
			c0,0.04,0,0.08,0,0.12c0,0.16-0.01,0.21-0.06,0.35l-0.04,0.07c-0.02,0.04-0.04,0.07-0.07,0.11c-0.01,0-0.01,0.01-0.02,0.01
			c-0.01,0.01-0.01,0.02-0.02,0.03c-0.04,0.04-0.08,0.08-0.12,0.11c-0.01,0.01-0.02,0.01-0.02,0.02c0,0-0.01,0.01-0.02,0.01
			c-0.04,0.02-0.08,0.04-0.11,0.06c0,0-0.07,0.04-0.08,0.04c-0.03,0.01-0.06,0.02-0.1,0.02c-0.04,0.01-0.08,0.02-0.12,0.03
			c0.05-0.01-0.08,0-0.08,0c-0.05,0-0.1,0-0.15,0c-0.05,0-0.1,0-0.14,0c-0.04,0-0.06,0-0.1,0c0,0-0.08-0.02-0.09-0.02
			c-0.03,0-0.07-0.01-0.1-0.02c-0.01,0-0.08-0.03-0.08-0.04c-0.03-0.01-0.06-0.03-0.1-0.05c-0.02-0.01-0.1-0.07-0.09-0.06
			c-0.06-0.05-0.1-0.1-0.15-0.15c0.02,0.03-0.04-0.06-0.04-0.06c-0.03-0.04-0.05-0.08-0.06-0.11c0-0.01-0.01-0.02-0.02-0.03
			c0-0.01,0-0.02-0.01-0.03c-0.01-0.04-0.02-0.08-0.03-0.13c-0.01,0-0.02-0.09-0.02-0.09c0-0.02,0-0.04,0-0.07c0-0.08,0-0.16,0-0.24
			c0-0.45,0-0.88,0-1.33c0-0.7,0-0.39,0-1.09c0-0.57-0.87-0.59-0.87-0.03c0,0.78,0,0.54,0,1.31c0,0.41,0,0.81,0,1.22
			c0,0.57,0.16,1.1,0.61,1.48C329.68,256.7,330.09,256.82,330.55,256.82z"/>
		<path fill="#000000" id="XMLID_132_" d="M374.1,267.29c-0.03-2.68-1.46-5-3.66-6.46c-2.11-1.39-5.04-1.5-7.29-0.4c-2.34,1.14-4.02,3.34-4.35,5.95
			c-0.32,2.63,0.72,5.26,2.75,6.94c1.4,1.15,3.15,1.71,4.95,1.73c0.76,0.01,1.35-0.75,1.31-1.47c-0.05-0.8-0.71-1.3-1.47-1.31
			c0,0-0.29-0.01-0.29-0.01c-0.11-0.01-0.22-0.03-0.34-0.04c-0.27-0.04-0.54-0.11-0.81-0.19c-0.02-0.01-0.04-0.01-0.06-0.02
			c-0.02-0.01-0.06-0.02-0.12-0.04c-0.13-0.05-0.25-0.1-0.37-0.16c-0.23-0.11-0.45-0.23-0.66-0.36c0.11,0.07-0.18-0.14-0.19-0.15
			c-0.11-0.08-0.21-0.17-0.31-0.26c-0.1-0.08-0.19-0.18-0.29-0.28c-0.01,0-0.16-0.17-0.18-0.19c-0.16-0.18-0.29-0.38-0.42-0.58
			c-0.07-0.12-0.14-0.23-0.21-0.35c-0.02-0.03-0.04-0.06-0.05-0.09c-0.03-0.06-0.06-0.12-0.08-0.18c-0.44-1.03-0.52-1.94-0.32-2.99
			c0.2-1.01,0.64-1.77,1.41-2.55c0.01-0.01,0.16-0.15,0.19-0.18c0.08-0.06,0.16-0.13,0.25-0.19c0.22-0.16,0.44-0.3,0.68-0.43
			c0.02-0.02,0.04-0.04,0.06-0.04c0.02-0.01,0.05-0.02,0.08-0.03c0.12-0.06,0.25-0.1,0.37-0.16c0.24-0.09,0.48-0.16,0.72-0.22
			c-0.09,0.02,0.24-0.04,0.26-0.04c0.14-0.03,0.28-0.04,0.42-0.05c0.14-0.01,0.29-0.01,0.43-0.01c0,0,0.29,0.01,0.29,0
			c0.25,0.02,0.51,0.07,0.76,0.13c0.13,0.03,0.27,0.07,0.4,0.11c0.02,0,0.05,0.01,0.07,0.02c0.08,0.03,0.16,0.06,0.24,0.09
			c1.01,0.42,1.67,1,2.23,1.82c0.08,0.11,0.15,0.22,0.22,0.34c0.01,0.01,0.12,0.23,0.13,0.24c0.1,0.22,0.18,0.44,0.25,0.67
			c0.18,0.53,0.23,0.86,0.24,1.57c0,0.04,0,0.07,0,0.1c0,4.24,0,8.47,0,12.71c0,0.76,0.41,1.45,1.23,1.55
			c0.69,0.08,1.55-0.46,1.55-1.23c0-4.26,0-8.52,0-12.78c0-0.08,0-0.16-0.01-0.24C374.1,267.48,374.11,267.38,374.1,267.29z"/>
		<path fill="#000000" id="XMLID_131_" d="M370.15,298.9c-2.1-1.39-5.04-1.5-7.29-0.4c-2.34,1.14-4.03,3.34-4.35,5.96
			c-0.33,2.62,0.71,5.26,2.76,6.94c1.4,1.15,3.14,1.71,4.94,1.73c0.76,0.01,1.35-0.75,1.31-1.48c-0.04-0.8-0.71-1.3-1.48-1.3
			c0.01,0-0.28-0.02-0.28-0.01c-0.12-0.01-0.23-0.03-0.35-0.04c-0.28-0.05-0.55-0.11-0.81-0.19c-0.03-0.01-0.05-0.01-0.07-0.02
			c-0.02-0.01-0.06-0.02-0.11-0.04c-0.12-0.05-0.25-0.11-0.37-0.16c-0.23-0.11-0.45-0.24-0.66-0.37c0.12,0.07-0.18-0.14-0.19-0.14
			c-0.1-0.08-0.21-0.17-0.31-0.26c-0.1-0.08-0.19-0.18-0.29-0.28c-0.01-0.01-0.16-0.17-0.18-0.19c-0.14-0.18-0.29-0.39-0.42-0.58
			c-0.07-0.12-0.14-0.23-0.21-0.35c-0.02-0.04-0.03-0.07-0.04-0.08c-0.03-0.07-0.06-0.12-0.09-0.19c-0.45-1.03-0.53-1.94-0.32-2.99
			c0.19-1.01,0.64-1.77,1.4-2.54c0.01-0.01,0.17-0.16,0.19-0.18c0.09-0.06,0.17-0.13,0.25-0.2c0.22-0.16,0.44-0.3,0.67-0.43
			c0.04-0.01,0.06-0.03,0.07-0.04c0.02-0.01,0.05-0.02,0.08-0.03c0.13-0.06,0.25-0.11,0.38-0.16c0.23-0.1,0.47-0.17,0.72-0.22
			c-0.09,0.02,0.24-0.04,0.26-0.04c0.14-0.02,0.28-0.03,0.42-0.05c0.14-0.01,0.29-0.01,0.43-0.01c0,0,0.3,0.01,0.29,0.01
			c0.25,0.02,0.51,0.08,0.76,0.13c0.14,0.02,0.27,0.07,0.4,0.1c0.03,0.01,0.05,0.02,0.07,0.02c0.08,0.03,0.16,0.07,0.24,0.09
			c1.01,0.42,1.66,1,2.23,1.82c0.08,0.11,0.15,0.22,0.22,0.34c0,0.02,0.11,0.22,0.12,0.24c0.1,0.22,0.19,0.45,0.26,0.67
			c0.18,0.53,0.22,0.86,0.23,1.57c0,0.04,0.01,0.07,0.01,0.1c0,4.96,0,9.93,0,14.89c0,2.49,0,4.97,0,7.46
			c0,0.76,0.41,1.45,1.22,1.54c0.69,0.08,1.55-0.47,1.55-1.22c0-4.99,0-9.97,0-14.95c0-2.49,0-4.97,0-7.46c0-0.08,0-0.16-0.01-0.24
			c0.01-0.09,0.02-0.19,0.02-0.28C373.78,302.68,372.36,300.36,370.15,298.9z"/>
		<path fill="#000000" id="XMLID_130_" d="M277.86,259.75c-2.63-0.32-5.26,0.72-6.94,2.76c-1.16,1.4-1.72,3.15-1.73,4.94c0,0.05,0,0.09,0.01,0.14
			c0,3.65,0,7.3,0,10.95c0,0.76,0.4,1.45,1.23,1.55c0.69,0.08,1.54-0.47,1.54-1.23c0-3.69,0-7.37,0-11.06
			c0-0.09-0.01-0.17-0.02-0.25c0.01-0.09,0.02-0.18,0.02-0.27c0,0.01,0.02-0.28,0.02-0.28c0.01-0.13,0.03-0.24,0.04-0.35
			c0.04-0.28,0.11-0.55,0.19-0.82c0.01-0.02,0.02-0.04,0.02-0.06c0.01-0.02,0.02-0.06,0.05-0.12c0.05-0.13,0.1-0.25,0.16-0.37
			c0.11-0.23,0.23-0.45,0.37-0.66c-0.07,0.11,0.14-0.18,0.15-0.19c0.08-0.11,0.16-0.21,0.25-0.31c0.08-0.1,0.18-0.2,0.28-0.29
			c0.01-0.01,0.18-0.16,0.19-0.18c0.19-0.15,0.39-0.29,0.59-0.42c0.11-0.07,0.23-0.14,0.35-0.21c0.04-0.02,0.07-0.04,0.09-0.05
			c0.06-0.03,0.12-0.05,0.18-0.08c1.03-0.45,1.94-0.53,2.98-0.32c1.01,0.19,1.77,0.64,2.55,1.4c0.01,0.01,0.15,0.17,0.18,0.19
			c0.07,0.08,0.14,0.17,0.2,0.25c0.17,0.22,0.3,0.45,0.44,0.68c0.01,0.03,0.03,0.05,0.04,0.07c0.01,0.02,0.02,0.05,0.04,0.09
			c0.05,0.12,0.1,0.24,0.15,0.38c0.1,0.22,0.16,0.47,0.23,0.72c-0.03-0.1,0.04,0.24,0.04,0.25c0.03,0.14,0.04,0.28,0.04,0.43
			c0.01,0.14,0.01,0.29,0.01,0.42c0,0-0.01,0.3,0,0.29c-0.03,0.25-0.07,0.5-0.13,0.75c-0.03,0.14-0.06,0.28-0.1,0.41
			c-0.01,0.02-0.01,0.05-0.02,0.07c-0.04,0.08-0.07,0.16-0.1,0.24c-0.41,1.01-1,1.67-1.82,2.23c-0.11,0.08-0.22,0.15-0.34,0.22
			c-0.02,0.01-0.23,0.12-0.24,0.13c-0.21,0.1-0.44,0.18-0.66,0.26c-0.53,0.18-0.86,0.23-1.57,0.23c-0.76,0.01-1.35,0.75-1.31,1.47
			c0.05,0.78,0.72,1.32,1.48,1.31c2.68-0.03,5.01-1.45,6.46-3.66c1.38-2.11,1.5-5.05,0.4-7.29
			C282.67,261.77,280.47,260.08,277.86,259.75z"/>
		<path fill="#000000" id="XMLID_129_" d="M348.5,257.7c-0.76,0-1.42,0.55-1.46,1.33c-0.04,0.74,0.57,1.45,1.32,1.46c0.29,0.01,0.57,0.03,0.86,0.06
			c0,0,0.23,0.04,0.27,0.04c0.11,0.03,0.22,0.05,0.33,0.08c0.67,0.18,0.88,0.29,1.42,0.62c0.87,0.53,1.48,1.22,1.95,2.11
			c0.06,0.12,0.12,0.25,0.18,0.37c0.01,0.01,0.09,0.24,0.1,0.25c0.08,0.23,0.14,0.47,0.19,0.7c0.02,0.14,0.05,0.28,0.08,0.41
			c0,0,0.02,0.28,0.03,0.28c0.01,0.17,0.01,0.34,0.01,0.51c0,0.31,0,0.63,0,0.94c-0.01,0.72-0.07,0.97-0.26,1.58
			c-0.04,0.13-0.09,0.26-0.14,0.39c-0.01,0.01-0.11,0.25-0.11,0.25c-0.11,0.22-0.23,0.43-0.37,0.63c-0.34,0.53-0.48,0.67-1,1.14
			c-0.41,0.35-0.58,0.46-1.16,0.75c-0.12,0.07-0.25,0.12-0.37,0.17c-0.03,0.01-0.05,0.02-0.06,0.03c-0.02,0-0.06,0.02-0.1,0.03
			c-0.31,0.1-0.63,0.17-0.94,0.23c-0.41,0.07-0.78,0.06-1.35,0.06c-0.72,0-1.43,0-2.14,0c-1.32,0-2.64,0-3.96,0
			c-0.41,0-0.8,0.17-1.07,0.44c0.76-1.12,1.15-2.53,1.15-3.86c0-0.51,0-1.02,0-1.53c0-0.02,0.01-0.04,0.01-0.06
			c0-4.4,0-8.79,0-13.19c0-1.8-2.79-1.82-2.79-0.02c0,4.39,0,8.79,0,13.19c0,0.02,0,0.04,0,0.06c0,0.28,0,0.54,0,0.82
			c0,0.21,0,0.42,0,0.63c0,0.72-0.06,0.98-0.27,1.58c-0.14,0.41-0.34,0.74-0.7,1.22c-0.01,0.02-0.03,0.04-0.04,0.05
			c-0.02,0.02-0.04,0.04-0.08,0.09c-0.09,0.1-0.19,0.19-0.29,0.28c-0.1,0.1-0.2,0.18-0.31,0.27c-0.05,0.03-0.1,0.07-0.14,0.1
			c-0.01,0.01-0.05,0.03-0.11,0.08c-0.83,0.51-1.52,0.66-2.32,0.66c-0.73,0-1.45,0-2.18,0c-0.31,0-0.63-0.01-0.95-0.04
			c0,0-0.25-0.05-0.28-0.05c-0.11-0.02-0.22-0.06-0.32-0.09c-0.13-0.04-0.26-0.08-0.39-0.13c-0.08-0.04-0.16-0.07-0.23-0.1
			c-0.02-0.01-0.03-0.02-0.07-0.04c-0.53-0.28-0.82-0.53-1.12-0.83c-0.48-0.49-0.56-0.65-0.85-1.27c-0.24-0.51-0.35-1.15-0.35-1.75
			c0-2.65,0-5.3,0-7.93c0-0.76-0.51-1.43-1.3-1.48c-0.72-0.05-1.48,0.53-1.48,1.3c0,2.53,0,5.06,0,7.6c0,0.59,0.01,1.16,0.09,1.74
			c0.18,1.28,0.81,2.5,1.63,3.48c1.48,1.75,3.62,2.4,5.83,2.4c1.09,0,2.21,0.07,3.29-0.11c1.73-0.29,3.23-1.31,4.31-2.66
			c0.01-0.02,0.02-0.04,0.04-0.05c-0.09,0.16-0.14,0.36-0.15,0.57c-0.04,0.73,0.56,1.46,1.32,1.46c2.32,0,4.66,0.07,6.98-0.01
			c2.64-0.08,5.03-1.43,6.53-3.59c1.22-1.75,1.5-3.92,1.35-6C356.22,261.12,352.75,257.76,348.5,257.7z"/>
		<path fill="#000000" id="XMLID_128_" d="M306.15,314.12c0.39-0.72,0.07-1.47-0.56-1.89c-0.87-0.6-1.75-1.2-2.62-1.8c1.14-0.96,2.1-2.15,2.78-3.46
			c0.9-1.76,1.28-3.65,1.28-5.61c0-1.48,0-2.97,0-4.46c0-0.17,0-0.34,0-0.5c0-0.76-0.54-1.42-1.33-1.46
			c-0.73-0.04-1.47,0.56-1.47,1.32c0,1.24,0,2.49,0,3.73c0,0.56,0,1.1,0,1.66c0,1.06-0.08,1.68-0.37,2.62
			c-0.33,1.09-0.73,1.82-1.48,2.79c-0.02,0.03-0.03,0.06-0.05,0.07c-0.02,0.02-0.04,0.04-0.06,0.07c-0.09,0.1-0.18,0.2-0.27,0.3
			c-0.18,0.2-0.38,0.38-0.58,0.56c-0.39,0.35-0.57,0.5-0.87,0.69c-2.38-1.64-4.76-3.27-7.13-4.9c-2.35-1.61-4.7-3.22-7.05-4.83
			c-0.63-0.43-1.56-0.07-1.89,0.55c-0.39,0.72-0.08,1.46,0.55,1.89c4.05,2.79,8.12,5.57,12.17,8.36c0.1,0.07,0.2,0.13,0.3,0.2
			c-0.09,0.02-0.19,0.04-0.28,0.06c-0.6,0.11-0.86,0.12-1.51,0.12c-4.84,0-9.69,0-14.53,0c-0.02-3.72-0.05-7.45-0.08-11.17
			c0-0.78-0.75-1.32-1.48-1.31c-0.95,0.01-1.91,0.01-2.86,0.02c-1.48,0.01-2.93-0.04-4.34,0.47c-3.08,1.1-5,4.08-5.04,7.3
			c-0.01,0.05,0,0.09,0,0.14c0,5.11,0,10.22,0,15.33c0,0.91,0,1.83,0,2.74c0,0.76,0.41,1.45,1.23,1.54
			c0.69,0.08,1.54-0.46,1.54-1.23c0-5.14,0-10.29,0-15.43c0-0.92,0-1.83,0-2.75c0-0.09,0-0.17-0.02-0.25
			c0.02-0.08,0.02-0.18,0.02-0.26c0,0,0.02-0.28,0.01-0.29c0.01-0.12,0.03-0.23,0.04-0.34c0.05-0.3,0.13-0.59,0.21-0.88
			c-0.02,0.09,0.09-0.23,0.09-0.24c0.07-0.17,0.16-0.33,0.24-0.49c0.06-0.12,0.13-0.24,0.2-0.35c0.09-0.14,0.1-0.15,0.03-0.04
			c0.05-0.07,0.1-0.14,0.16-0.21c0.41-0.55,0.64-0.74,1.09-1.06c0.1-0.08,0.22-0.15,0.34-0.23c0.04-0.02,0.35-0.19,0.33-0.19
			c0.27-0.12,0.54-0.22,0.82-0.3c0.11-0.04,0.23-0.07,0.35-0.1c-0.16,0.04,0.22-0.04,0.23-0.04c0.32-0.05,0.65-0.06,0.98-0.06
			c0.65,0,1.3,0,1.95-0.01c0.37,0,0.74,0,1.11-0.01c0.02,4.07,0.06,8.13,0.09,12.2c0,0.76,0.75,1.35,1.48,1.31
			c0.63-0.04,1.1-0.48,1.25-1.04c4.79,0,9.56,0,14.35,0c1.71,0,3.33-0.3,4.89-0.97c1.29,0.88,2.57,1.76,3.86,2.65
			C304.88,315.1,305.81,314.73,306.15,314.12z"/>
		<path fill="#000000" id="XMLID_127_" d="M320.62,272.13c-2.37,0-4.73,0-7.11,0c-0.18,0-0.37,0-0.55,0c-1.57,0-2.58-0.1-3.79-0.97
			c-0.01,0-0.18-0.15-0.21-0.17c-0.08-0.07-0.16-0.14-0.24-0.22c-0.19-0.19-0.36-0.4-0.53-0.61c-0.02-0.02-0.03-0.02-0.04-0.04
			c-0.01-0.02-0.03-0.05-0.07-0.1c-0.07-0.11-0.14-0.23-0.21-0.35c-0.07-0.11-0.13-0.24-0.18-0.36c-0.02-0.04-0.16-0.41-0.15-0.35
			c-0.3-0.9-0.26-1.4-0.26-2.38c0-0.79,0.07-1.12,0.34-1.86c0.03-0.08,0.06-0.16,0.1-0.24c0.01-0.02,0.02-0.04,0.03-0.06
			c0.08-0.16,0.17-0.31,0.27-0.47c0.1-0.15,0.2-0.3,0.31-0.44c0.01-0.02,0.02-0.04,0.03-0.05c0.06-0.06,0.11-0.13,0.18-0.19
			c0.56-0.6,0.84-0.78,1.57-1.12c0.03-0.02,0.32-0.13,0.35-0.15c0.15-0.05,0.31-0.09,0.46-0.13c0.18-0.04,0.37-0.08,0.55-0.1
			c0.07-0.01,0.12-0.01,0.13-0.02c0.12,0,0.23-0.01,0.35-0.01c0.76-0.01,1.42-0.53,1.46-1.32c0.03-0.72-0.57-1.47-1.33-1.46
			c-2.66,0.03-5.1,1.35-6.51,3.61c-1.16,1.87-1.38,4.4-0.9,6.53c0.25,1.13,0.78,2.17,1.5,3.04c-1.39,0-16.04,0-17.43,0
			c0-3.79,0-7.58,0-11.38c0-2.6,0-5.2,0-7.8c0-0.76-0.54-1.42-1.32-1.46c-0.73-0.04-1.46,0.57-1.46,1.32c0,4.97,0,9.94,0,14.92
			c0,2.6,0,5.2,0,7.8c0,0.76,0.54,1.42,1.33,1.46c0.73,0.04,1.46-0.56,1.46-1.32c0-0.26,0-0.51,0-0.76c3.43,0,20.1,0,23.53,0
			c0.44,0.01,0.88,0,1.33,0c2.28,0,4.56,0,6.84,0c0.76,0,1.42-0.54,1.46-1.32C321.99,272.86,321.38,272.13,320.62,272.13z"/>
		<path fill="#000000" id="XMLID_126_" d="M355.6,254.2c-3.45,0-6.9,0-10.35,0c-1.8,0-1.76,2.79,0.03,2.79c3.46,0,6.9,0,10.35,0
			C357.43,256.99,357.39,254.2,355.6,254.2z"/>
		<path fill="#000000" id="XMLID_125_" d="M340.22,297.42c0.83,0,1.5-0.67,1.5-1.5c0-0.83-0.67-1.49-1.5-1.49c-0.83,0-1.49,0.67-1.49,1.49
			C338.73,296.75,339.39,297.42,340.22,297.42z"/>
		<path fill="#000000" id="XMLID_124_" d="M331.34,296.18c0.83,0,1.5-0.67,1.5-1.49c0-0.83-0.67-1.5-1.5-1.5s-1.5,0.67-1.5,1.5
			C329.84,295.51,330.52,296.18,331.34,296.18z"/>
		<path fill="#000000" id="XMLID_123_" d="M327.21,296.18c0.83,0,1.49-0.67,1.49-1.49c0-0.83-0.66-1.5-1.49-1.5c-0.83,0-1.5,0.67-1.5,1.5
			C325.71,295.51,326.39,296.18,327.21,296.18z"/>
		<path fill="#000000" id="XMLID_122_" d="M305.74,316.31c-0.83,0-1.5,0.66-1.5,1.49c0,0.83,0.67,1.49,1.5,1.49c0.83,0,1.5-0.67,1.5-1.49
			C307.23,316.98,306.57,316.31,305.74,316.31z"/>
		<path fill="#000000" id="XMLID_121_" d="M276.1,316.31c-0.83,0-1.49,0.66-1.49,1.49c0,0.83,0.66,1.49,1.49,1.49c0.83,0,1.5-0.67,1.5-1.49
			C277.6,316.98,276.93,316.31,276.1,316.31z"/>
		<path fill="#000000" id="XMLID_120_" d="M279.61,316.31c-0.83,0-1.49,0.66-1.49,1.49c0,0.83,0.66,1.49,1.49,1.49c0.83,0,1.5-0.67,1.5-1.49
			C281.12,316.98,280.44,316.31,279.61,316.31z"/>
		<path fill="#000000" id="XMLID_119_" d="M292.11,299.07c0.83,0,1.5-0.67,1.5-1.5s-0.67-1.5-1.5-1.5c-0.82,0-1.5,0.67-1.5,1.5
			S291.28,299.07,292.11,299.07z"/>
		<path fill="#000000" id="XMLID_118_" d="M360.47,295.26c0.15,0,0.3,0,0.45,0c0.78,0,1.57,0,2.35,0c0.26,0,0.49-0.19,0.5-0.45
			c0.01-0.25-0.19-0.5-0.45-0.5c-0.82,0-1.63,0-2.44,0c-0.07,0-0.13,0-0.19,0c-0.53,0-0.88-0.04-1.29-0.33
			c-0.01,0-0.07-0.05-0.08-0.06c-0.02-0.03-0.05-0.05-0.08-0.08c-0.07-0.06-0.12-0.13-0.18-0.2c-0.01-0.01-0.01-0.01-0.01-0.01
			c-0.01-0.01-0.01-0.02-0.03-0.04c-0.02-0.04-0.05-0.08-0.07-0.12c-0.03-0.04-0.04-0.08-0.06-0.12c-0.01-0.01-0.06-0.14-0.06-0.12
			c-0.1-0.31-0.09-0.48-0.09-0.82c0-0.27,0.02-0.38,0.12-0.64c0.01-0.02,0.02-0.05,0.04-0.08c0-0.01,0-0.01,0.01-0.03
			c0.03-0.05,0.06-0.1,0.09-0.16c0.03-0.06,0.07-0.1,0.11-0.16c0,0,0.01-0.01,0.02-0.02c0.02-0.02,0.04-0.04,0.06-0.07
			c0.19-0.2,0.29-0.27,0.54-0.38c0.01,0,0.11-0.04,0.12-0.05c0.06-0.01,0.1-0.03,0.16-0.05c0.06-0.01,0.13-0.02,0.19-0.03
			c0.02,0,0.04,0,0.05-0.01c0.04,0,0.08,0,0.12,0c0.26,0,0.49-0.18,0.5-0.45c0.01-0.25-0.19-0.51-0.45-0.51
			c-0.91,0.01-1.75,0.46-2.23,1.24c-0.4,0.64-0.48,1.51-0.31,2.24c0.09,0.39,0.27,0.74,0.51,1.04c-0.45,0-2.64,0-3.35,0
			c0-1.09,0-2.18,0-3.26c0-0.76-0.53-1.42-1.32-1.47c-0.73-0.04-1.46,0.57-1.46,1.33c0,4.97,0,9.94,0,14.92c0,2.6,0,5.2,0,7.8
			c0,0.76,0.54,1.42,1.32,1.46c0.73,0.04,1.46-0.57,1.46-1.32c0-4.97,0-9.95,0-14.92c0-1.19,0-2.39,0-3.58
			C356.35,295.26,359.33,295.26,360.47,295.26z"/>
	</g>
</g>
<path fill="#000000" d="M273.602,481.306c-0.578-0.576-1.301-1.03-2.174-1.362c-0.873-0.331-1.885-0.497-3.039-0.497
	c-0.663,0-1.463,0.079-2.4,0.238v-6.077h-1.535v17.711c0.706,0.202,1.402,0.354,2.087,0.454s1.301,0.151,1.849,0.151
	c1.153,0,2.166-0.162,3.039-0.486s1.596-0.764,2.174-1.319c0.576-0.555,1.006-1.211,1.287-1.968s0.42-1.561,0.42-2.411
	s-0.139-1.657-0.42-2.422C274.608,482.554,274.178,481.883,273.602,481.306z M272.391,489.167c-0.852,0.829-2.17,1.243-3.958,1.243
	c-0.39,0-0.805-0.032-1.244-0.097c-0.439-0.065-0.84-0.134-1.2-0.206v-8.845c0.447-0.115,0.887-0.194,1.319-0.237
	c0.433-0.044,0.808-0.065,1.125-0.065c0.894,0,1.668,0.112,2.325,0.335c0.656,0.224,1.199,0.545,1.633,0.963
	c0.432,0.418,0.752,0.919,0.961,1.503s0.314,1.243,0.314,1.979C273.667,487.195,273.241,488.338,272.391,489.167z M247.392,479.446
	c-0.62,0-1.297,0.079-2.033,0.238c-0.735,0.158-1.485,0.433-2.249,0.821l-0.065,1.73c0.548-0.303,0.973-0.52,1.276-0.649
	s0.624-0.237,0.962-0.324c0.338-0.086,0.677-0.158,1.016-0.216s0.667-0.087,0.984-0.087c1.139,0,1.982,0.249,2.53,0.746
	s0.822,1.33,0.822,2.498v0.13c-0.332-0.044-0.732-0.087-1.2-0.13c-0.469-0.043-0.876-0.065-1.222-0.065
	c-1.831,0-3.302,0.311-4.412,0.931c-1.11,0.619-1.665,1.644-1.665,3.07c0,0.707,0.155,1.305,0.465,1.795
	c0.31,0.49,0.713,0.88,1.211,1.168s1.067,0.497,1.708,0.627c0.641,0.13,1.308,0.194,2,0.194c0.807,0,1.6-0.072,2.378-0.216
	c0.779-0.145,1.536-0.368,2.271-0.671v-7.028c0-1.585-0.397-2.742-1.189-3.471C250.189,479.811,248.992,479.446,247.392,479.446z
	 M250.636,489.892c-0.375,0.144-0.858,0.267-1.449,0.367c-0.591,0.102-1.183,0.151-1.773,0.151c-0.505,0-0.984-0.035-1.438-0.108
	c-0.454-0.071-0.84-0.197-1.157-0.378c-0.317-0.18-0.57-0.414-0.757-0.703c-0.188-0.288-0.281-0.663-0.281-1.124
	c0-0.52,0.111-0.934,0.335-1.244c0.224-0.31,0.533-0.551,0.93-0.724c0.396-0.174,0.85-0.296,1.362-0.368
	c0.511-0.072,1.041-0.108,1.589-0.108c0.476,0,0.984,0.029,1.524,0.087c0.541,0.058,0.912,0.108,1.114,0.151V489.892z
	 M258.032,479.868c-0.649,0.122-1.276,0.263-1.881,0.422v11.418h1.535v-10.186c0.202-0.072,0.563-0.147,1.082-0.228
	c0.519-0.079,1.002-0.118,1.449-0.118h1.989v-1.492H260C259.336,479.685,258.681,479.746,258.032,479.868z M-77.92,487.667
	l241.145,0.656l0.663-0.433l-0.632-0.564L-77.92,487.667z M164.994,487.825l1.95,1.95l1.95-1.95l-1.95-1.95L164.994,487.825z
	 M169.559,487.825l3.057,3.057l3.057-3.057l-3.057-3.057L169.559,487.825z M212.359,489.286l-3.395-9.602h-1.514l-3.396,9.602
	l-2.984-9.602h-1.73l3.979,12.023h1.428l3.46-9.645l3.46,9.645h1.427l3.979-12.023h-1.73L212.359,489.286z M238.418,489.589
	c-0.317,0-0.591,0.115-0.822,0.346c-0.231,0.23-0.346,0.505-0.346,0.822c0,0.316,0.115,0.591,0.346,0.821
	c0.23,0.23,0.504,0.346,0.822,0.346c0.317,0,0.591-0.115,0.822-0.346c0.23-0.23,0.346-0.505,0.346-0.821
	c0-0.317-0.116-0.592-0.346-0.822C239.009,489.704,238.735,489.589,238.418,489.589z M193.243,489.286l-3.395-9.602h-1.514
	l-3.396,9.602l-2.984-9.602h-1.73l3.979,12.023h1.428l3.46-9.645l3.46,9.645h1.427l3.979-12.023h-1.73L193.243,489.286z
	 M231.476,489.286l-3.395-9.602h-1.514l-3.396,9.602l-2.984-9.602h-1.73l3.979,12.023h1.428l3.46-9.645l3.46,9.645h1.427
	l3.979-12.023h-1.73L231.476,489.286z M382.732,480.474c-0.426-0.396-0.938-0.667-1.535-0.812c-0.598-0.144-1.271-0.216-2.021-0.216
	c-0.664,0-1.393,0.09-2.184,0.271c-0.793,0.181-1.471,0.4-2.033,0.659c-0.346-0.331-0.818-0.569-1.416-0.714
	c-0.6-0.144-1.273-0.216-2.023-0.216c-0.635,0-1.268,0.058-1.902,0.173l-2.465,0.454v11.635h1.535v-10.38
	c0.447-0.102,0.883-0.188,1.309-0.26c0.424-0.072,0.896-0.108,1.416-0.108c0.605,0,1.125,0.058,1.557,0.173
	c0.434,0.116,0.789,0.321,1.07,0.616c0.281,0.296,0.494,0.711,0.639,1.244s0.217,1.24,0.217,2.119v6.596h1.535v-7.201
	c0-0.663-0.055-1.243-0.162-1.741c-0.109-0.497-0.213-0.861-0.314-1.092c0.086-0.043,0.281-0.119,0.584-0.228
	c0.303-0.107,0.602-0.197,0.898-0.27c0.295-0.072,0.586-0.126,0.875-0.162s0.547-0.055,0.779-0.055c0.59,0,1.102,0.058,1.535,0.173
	c0.432,0.116,0.781,0.317,1.049,0.605c0.266,0.289,0.471,0.703,0.615,1.244c0.145,0.54,0.217,1.251,0.217,2.13v6.596h1.535v-7.201
	c0-0.995-0.111-1.816-0.336-2.466C383.482,481.393,383.158,480.87,382.732,480.474z M280.1,474.581
	c-0.785,0.648-1.18,1.729-1.18,3.243v1.86h-2.551v1.492h2.551v10.531h1.537v-10.531h4.973v-1.492h-4.973v-1.471
	c0-0.635,0.045-1.149,0.141-1.546c0.094-0.396,0.24-0.707,0.443-0.931c0.201-0.223,0.475-0.385,0.82-0.486
	c0.346-0.101,0.779-0.151,1.299-0.151h2.422v-1.492h-2.271C281.956,473.607,280.885,473.932,280.1,474.581z M398.273,487.825
	l3.057,3.057l3.057-3.057l-3.057-3.057L398.273,487.825z M343.322,482.322c0.389-0.418,0.854-0.749,1.395-0.994
	s1.135-0.368,1.783-0.368c0.736,0,1.373,0.076,1.914,0.228s1.121,0.414,1.74,0.789l0.715-1.405c-0.707-0.39-1.393-0.674-2.055-0.854
	c-0.664-0.181-1.436-0.271-2.314-0.271c-0.85,0-1.639,0.155-2.367,0.465c-0.729,0.311-1.367,0.746-1.914,1.309
	c-0.549,0.563-0.98,1.222-1.297,1.979c-0.317,0.757-0.476,1.59-0.476,2.498s0.158,1.74,0.476,2.497
	c0.316,0.757,0.748,1.413,1.297,1.969c0.547,0.555,1.186,0.987,1.914,1.297c0.729,0.311,1.518,0.465,2.367,0.465
	c0.879,0,1.65-0.09,2.314-0.27c0.662-0.181,1.348-0.466,2.055-0.854l-0.715-1.406c-0.619,0.375-1.199,0.639-1.74,0.79
	s-1.178,0.227-1.914,0.227c-0.648,0-1.242-0.119-1.783-0.356c-0.541-0.238-1.006-0.565-1.395-0.984
	c-0.391-0.418-0.693-0.915-0.908-1.492c-0.217-0.576-0.324-1.203-0.324-1.881s0.107-1.305,0.324-1.882
	C342.628,483.238,342.931,482.741,343.322,482.322z M404.387,487.825l1.949,1.95l1.951-1.95l-1.951-1.95L404.387,487.825z
	 M410.701,487.326l-0.664,0.433l0.633,0.564l241.176-0.341L410.701,487.326z M362.611,481.295c-0.549-0.569-1.193-1.02-1.936-1.352
	c-0.742-0.331-1.547-0.497-2.412-0.497c-0.863,0-1.668,0.166-2.41,0.497c-0.742,0.332-1.389,0.782-1.936,1.352
	c-0.549,0.57-0.977,1.229-1.287,1.979c-0.311,0.749-0.465,1.557-0.465,2.422s0.154,1.672,0.465,2.422s0.738,1.409,1.287,1.979
	c0.547,0.569,1.193,1.017,1.936,1.341s1.547,0.486,2.41,0.486c0.865,0,1.67-0.162,2.412-0.486s1.387-0.771,1.936-1.341
	c0.547-0.569,0.977-1.229,1.287-1.979c0.309-0.75,0.465-1.557,0.465-2.422s-0.156-1.673-0.465-2.422
	C363.587,482.524,363.158,481.865,362.611,481.295z M362.394,487.523c-0.217,0.569-0.52,1.067-0.908,1.492
	c-0.389,0.426-0.857,0.765-1.406,1.017c-0.547,0.252-1.152,0.378-1.816,0.378c-0.662,0-1.268-0.126-1.816-0.378
	c-0.547-0.252-1.016-0.591-1.404-1.017c-0.391-0.425-0.693-0.923-0.908-1.492c-0.217-0.569-0.324-1.179-0.324-1.827
	c0-0.649,0.107-1.262,0.324-1.839c0.215-0.576,0.518-1.077,0.908-1.503c0.389-0.425,0.857-0.764,1.404-1.016
	c0.549-0.252,1.154-0.379,1.816-0.379c0.664,0,1.27,0.127,1.816,0.379c0.549,0.252,1.018,0.591,1.406,1.016
	c0.389,0.426,0.691,0.927,0.908,1.503c0.217,0.577,0.324,1.189,0.324,1.839C362.718,486.345,362.611,486.954,362.394,487.523z
	 M296.221,481.295c-0.547-0.569-1.191-1.02-1.936-1.352c-0.742-0.331-1.545-0.497-2.41-0.497s-1.67,0.166-2.412,0.497
	c-0.742,0.332-1.387,0.782-1.936,1.352c-0.547,0.57-0.977,1.229-1.285,1.979c-0.311,0.749-0.465,1.557-0.465,2.422
	s0.154,1.672,0.465,2.422c0.309,0.75,0.738,1.409,1.285,1.979c0.549,0.569,1.193,1.017,1.936,1.341s1.547,0.486,2.412,0.486
	s1.668-0.162,2.41-0.486c0.744-0.324,1.389-0.771,1.936-1.341c0.549-0.569,0.977-1.229,1.287-1.979s0.465-1.557,0.465-2.422
	s-0.154-1.673-0.465-2.422C297.198,482.524,296.77,481.865,296.221,481.295z M296.006,487.523c-0.217,0.569-0.52,1.067-0.908,1.492
	c-0.391,0.426-0.859,0.765-1.406,1.017c-0.549,0.252-1.154,0.378-1.816,0.378c-0.664,0-1.27-0.126-1.816-0.378
	c-0.549-0.252-1.018-0.591-1.406-1.017c-0.389-0.425-0.691-0.923-0.908-1.492s-0.324-1.179-0.324-1.827
	c0-0.649,0.107-1.262,0.324-1.839c0.217-0.576,0.52-1.077,0.908-1.503c0.389-0.425,0.857-0.764,1.406-1.016
	c0.547-0.252,1.152-0.379,1.816-0.379c0.662,0,1.268,0.127,1.816,0.379c0.547,0.252,1.016,0.591,1.406,1.016
	c0.389,0.426,0.691,0.927,0.908,1.503c0.215,0.577,0.324,1.189,0.324,1.839C296.331,486.345,296.221,486.954,296.006,487.523z
	 M309.381,480.463c-0.455-0.39-0.996-0.656-1.623-0.801c-0.627-0.144-1.309-0.216-2.043-0.216c-0.707,0-1.465,0.047-2.271,0.141
	s-1.701,0.234-2.682,0.422v11.699h1.535v-10.402c1.184-0.23,2.293-0.346,3.33-0.346c0.592,0,1.111,0.062,1.559,0.184
	c0.445,0.123,0.818,0.332,1.113,0.628c0.295,0.295,0.525,0.713,0.691,1.254s0.25,1.251,0.25,2.13v6.553h1.535v-7.201
	c0-0.995-0.119-1.82-0.357-2.477C310.18,481.375,309.834,480.852,309.381,480.463z M318.516,490.054
	c-0.346-0.108-0.619-0.277-0.82-0.509c-0.203-0.23-0.35-0.547-0.443-0.951c-0.096-0.403-0.141-0.922-0.141-1.557v-5.86h4.973v-1.492
	h-4.973v-4.347h-1.537v4.347h-2.551v1.492h2.551v6.466c0,0.764,0.109,1.405,0.326,1.925c0.215,0.519,0.525,0.937,0.93,1.254
	c0.402,0.317,0.867,0.544,1.395,0.682c0.525,0.137,1.105,0.205,1.74,0.205h2.271v-1.492h-2.422
	C319.295,490.216,318.862,490.162,318.516,490.054z M337.784,489.589c-0.316,0-0.59,0.115-0.82,0.346s-0.346,0.505-0.346,0.822
	c0,0.316,0.115,0.591,0.346,0.821s0.504,0.346,0.82,0.346c0.318,0,0.592-0.115,0.822-0.346s0.346-0.505,0.346-0.821
	c0-0.317-0.115-0.592-0.346-0.822S338.102,489.589,337.784,489.589z M333.178,486.106c-0.346-0.303-0.785-0.565-1.318-0.789
	c-0.533-0.223-1.182-0.422-1.947-0.595l-0.799-0.173c-1.053-0.216-1.781-0.461-2.184-0.735c-0.404-0.273-0.607-0.678-0.607-1.211
	c0-0.504,0.238-0.904,0.715-1.2c0.475-0.295,1.174-0.443,2.098-0.443c0.793,0,1.477,0.076,2.055,0.228
	c0.576,0.151,1.217,0.421,1.924,0.811l0.691-1.405c-1.412-0.765-2.969-1.146-4.67-1.146c-0.635,0-1.223,0.076-1.764,0.228
	c-0.539,0.151-1.008,0.364-1.404,0.638s-0.711,0.605-0.941,0.994c-0.23,0.39-0.346,0.815-0.346,1.276
	c0,0.462,0.072,0.88,0.217,1.254c0.143,0.375,0.381,0.707,0.713,0.995s0.758,0.537,1.275,0.746c0.52,0.209,1.146,0.4,1.883,0.573
	l0.908,0.194c1.008,0.217,1.729,0.49,2.162,0.822c0.432,0.331,0.648,0.771,0.648,1.318c0,0.39-0.086,0.707-0.26,0.952
	c-0.172,0.245-0.414,0.436-0.725,0.573c-0.311,0.137-0.678,0.237-1.102,0.303c-0.426,0.064-0.877,0.097-1.352,0.097
	c-0.592,0-1.223-0.09-1.893-0.271c-0.67-0.18-1.352-0.479-2.045-0.897l-0.734,1.471c0.779,0.433,1.539,0.742,2.281,0.93
	s1.539,0.281,2.391,0.281c0.748,0,1.434-0.072,2.053-0.216c0.621-0.145,1.158-0.36,1.611-0.648c0.455-0.289,0.805-0.649,1.049-1.082
	c0.246-0.433,0.369-0.93,0.369-1.492c0-0.476-0.072-0.915-0.217-1.318C333.77,486.763,333.526,486.41,333.178,486.106z"/>
</svg>

