<?xml version="1.0" encoding="utf-8"?>
<!-- Generator: Adobe Illustrator 23.0.0, SVG Export Plug-In . SVG Version: 6.00 Build 0)  -->
<svg version="1.1" id="Layer_1" xmlns="http://www.w3.org/2000/svg" xmlns:xlink="http://www.w3.org/1999/xlink" x="0px" y="0px"
	 viewBox="0 0 800 500" style="enable-background:new 0 0 800 500;" xml:space="preserve">
<g id="XMLID_842_">
	<path fill="#000000" id="XMLID_856_" d="M433.16,305.63c-0.54-0.23-1.07-0.49-1.57-0.79c-1.43-0.9-2.78-1.97-4.28-2.73
		c-1.96-0.99-3.6-2.38-5.29-3.71c-0.95-0.75-1.9-0.84-2.69,0.11c-1.69,1.98-3.34,4-4.93,6.05c-1.14,1.47-2.16,3.03-3.21,4.52
		c-1.09-0.91-1.99-1.78-3-2.49c-2.34-1.64-4.73-3.21-7.12-4.8c-0.48-0.32-0.99-0.64-1.54-0.85c-0.23-0.09-0.65,0-0.85,0.16
		c-1.6,1.41-3.01,2.98-4.19,4.78c-1.05,1.61-2.26,3.1-3.31,4.71c-0.65,0.98-1.18,2.06-1.64,3.14c-0.14,0.34-0.03,1.05,0.23,1.27
		c1.2,0.98,2.53,1.8,3.76,2.75c2.17,1.67,4.28,3.41,6.45,5.08c0.31,0.24,0.81,0.28,1.23,0.31c0.99,0.07,1.48-0.75,2.05-1.32
		c1.65-1.66,3.49-3.23,4.78-5.15c0.99-1.48,2.16-2.72,3.37-3.97c0.16-0.16,0.58-0.21,0.82-0.13c0.4,0.14,0.75,0.41,1.11,0.64
		c0.59,0.38,1.16,0.78,1.76,1.15c0.99,0.6,2.01,1.14,2.97,1.78c1.43,0.94,2.82,1.93,4.24,2.89c0.12,0.09,0.29,0.11,0.45,0.13
		c0.93,0.16,1.68-0.25,2.24-0.92c2.11-2.48,4.22-4.97,6.28-7.5c0.9-1.11,1.71-2.3,2.48-3.5
		C434.21,306.56,433.91,305.96,433.16,305.63z"/>
	<path fill="#000000" id="XMLID_855_" d="M409.25,243.5c0.63-0.28,1.38-0.49,1.81-0.98c0.63-0.71,1.19-1.58,1.49-2.48c0.62-1.85,2-2.75,3.66-3.41
		c3.23-1.3,6.64-1.52,10.05-1.63c1.85-0.06,3.71,0.12,5.55,0.33c1.37,0.16,2.71,0.55,4.23,0.87c-0.53,0.45-0.95,0.82-1.4,1.17
		c-2.59,2-5.17,4.02-7.8,5.97c-3.12,2.31-6.63,3.9-10.18,5.43c-0.79,0.34-1.52,0.85-2.27,1.28c0.05,0.09,0.09,0.19,0.14,0.28
		c1.63,0.15,3.13-0.42,4.66-0.85c2.29-0.65,4.41-1.74,6.96-1.55c1.21,0.09,2.54-0.79,3.74-1.37c3.04-1.47,5.28-3.92,7.3-6.52
		c2.04-2.62,3.93-5.37,5.68-8.19c1.57-2.53,3.02-5.17,3.89-8.06c0.24-0.79-0.42-2.06-1.25-2.23c-0.93-0.18-1.87-0.32-2.8-0.5
		c-2.4-0.46-4.79-0.94-7.24-0.99c-0.58-0.02-1.16,0-1.74-0.05c-0.84-0.07-1.66-0.21-2.5-0.28c-0.98-0.08-1.96-0.16-2.95-0.16
		c-1.24-0.01-2.5-0.06-3.72,0.11c-1.21,0.17-2.39,0.59-3.58,0.93c-0.41,0.12-0.89,0.22-1.16,0.5c-1.15,1.14-2.36,2.27-3.32,3.57
		c-1.14,1.54-2.16,3.18-3.01,4.89c-1.38,2.77-2.66,5.61-3.83,8.48c-0.63,1.55-0.94,3.23-0.8,4.94
		C408.86,243.19,409.19,243.52,409.25,243.5z"/>
	<path fill="#000000" id="XMLID_854_" d="M356.4,286.45c2.05,2.96,5.1,5.14,8.96,6.29c1.3,0.39,2.7,0.12,3.65-0.56c0.93-0.67,1.61-1.72,2.1-2.71
		c1.74-3.49,2.27-7.21,2.46-10.96c0.06-1.18-0.14-2.35-0.2-3.53c-0.07-1.55-0.61-2.97-1.62-4.24c-0.7-0.88-1.41-1.76-2.2-2.58
		c-0.32-0.33-0.87-0.72-1.28-0.69c-0.33,0.03-0.76,0.59-0.89,0.98c-0.58,1.72-1.15,3.44-1.53,5.19c-0.13,0.57,0.14,1.34,0.53,1.84
		c0.62,0.76,1.68,1.27,2.24,2.05c1.1,1.55,2.29,3.05,1.47,5.15c-0.76,1.97-2.83,2.54-4.58,1.89c-3.45-1.29-6.17-3.34-7.74-6.38
		c-0.23-0.45-0.26-0.98-0.5-1.42c-1.39-2.63-2.02-5.4-1.93-8.26c0.09-2.5,0.15-5.05,0.72-7.48c0.66-2.81,1.59-5.62,2.9-8.24
		c1.33-2.63,3.29-5.02,4.94-7.53c0.22-0.35,0.24-0.83,0.22-1.24c0-0.1-0.63-0.34-0.8-0.25c-0.41,0.2-0.8,0.51-1.04,0.86
		c-0.58,0.85-0.9,1.87-1.62,2.62c-3.05,3.2-5.28,6.71-6.59,10.72c-1.34,4.14-2.14,8.32-2.1,13.13c-0.05,2.34,0.3,5.15,1.1,7.94
		C353.82,281.63,354.84,284.18,356.4,286.45z"/>
	<path fill="#000000" id="XMLID_845_" d="M510.47,243.6c-0.34-1.59-1.51-2.45-2.82-3.15c-2.4-1.28-4.97-1.04-7.5-0.63
		c-2.02,0.34-3.89,1.17-5.68,2.15c-0.46,0.25-1.01,0.37-1.45,0.66c-0.64,0.42-1.24,0.9-1.81,1.4c-1.68,1.46-3.4,2.87-4.98,4.42
		c-1.28,1.24-2.37,2.67-3.56,4c-0.3,0.35-0.63,0.69-1.02,1.11c-0.46-2.4-0.78-4.69-1.35-6.9c-0.63-2.44-1.42-4.86-2.28-7.23
		c-0.81-2.25-1.75-4.47-2.73-6.65c-1.23-2.73-2.39-5.51-3.92-8.07c-1.92-3.21-4.22-6.18-6.62-9.08c-1.54-1.87-3.23-3.57-5.06-5.13
		c-1.73-1.48-3.51-2.89-5.36-4.22c-1.27-0.9-2.8-1.47-4-2.44c-1.16-0.94-2.54-1.4-3.77-2.15c-0.59-0.36-1.21-0.69-1.84-0.99
		c-0.93-0.44-1.9-0.85-2.85-1.27c-1-0.45-1.98-0.92-2.95-1.36c0.08-0.04,0.25-0.11,0.41-0.2c1.62-0.9,3.33-1.68,4.82-2.76
		c1.1-0.79,1.87-2.04,2.9-2.95c2.38-2.13,3.95-4.86,5.34-7.63c1.35-2.68,2.4-5.54,2.74-8.58c0.2-1.8,0.52-3.6,0.63-5.41
		c0.08-1.28-0.02-2.58-0.16-3.85c-0.15-1.34-0.35-2.69-0.71-3.98c-0.56-1.96-1.15-3.93-1.95-5.8c-1.14-2.66-2.81-4.96-5.46-6.36
		c-1.2-0.63-2.51-0.9-3.85-0.81c-2.25,0.15-2.95,2.53-2.45,4.63c0.5,2.07,2.03,2.5,3.98,2.25c0.82-0.11,1.71-0.35,2.48-0.17
		c2.37,0.56,3.83,2.19,4.69,4.43c0.92,2.38,1.55,4.83,1.78,7.36c0.24,2.6-0.13,5.17-0.69,7.71c-0.8,3.57-2.21,6.89-4.36,9.85
		c-1.04,1.42-2.24,2.73-3.39,4.06c-0.66,0.76-1.34,1.53-2.08,2.2c-1.61,1.45-3.53,2.36-5.59,2.96c-2.37,0.69-4.76,1.08-7.21,0.37
		c-0.95-0.27-1.9-0.6-2.86-0.81c-2.14-0.48-4.21-1.15-6.04-2.4c-2.86-1.97-5.06-4.6-7.14-7.35c-1.26-1.66-2.01-3.55-2.83-5.43
		c-0.08-0.19,0-0.51,0.1-0.7c0.97-1.65,1.99-3.27,2.94-4.94c1.5-2.65,3.02-5.31,4.42-8.02c2.51-4.88,5.04-9.76,7.36-14.73
		c1.97-4.22,3.72-8.55,5.46-12.87c1.55-3.87,2.94-7.81,4.41-11.71c0.54-1.43,1.15-2.84,1.61-4.3c0.58-1.82,1.02-3.68,1.54-5.51
		c0.76-2.69,1.6-5.37,2.29-8.08c0.54-2.11,0.93-4.26,1.33-6.41c0.37-2.02,0.67-4.05,1-6.08c0.26-1.6,0.56-3.19,0.78-4.8
		c0.22-1.61,0.39-3.23,0.54-4.85c0.11-1.17,0.09-2.35,0.2-3.52c0.18-2.05,0.53-4.1,0.61-6.16c0.13-3.25-0.13-6.48-0.59-9.72
		c-0.25-1.8-0.47-3.57-1.03-5.31c-0.59-1.84-0.92-3.76-1.45-5.62c-0.9-3.14-2.44-6-4.17-8.73c-0.88-1.4-2.18-2.55-3.35-3.75
		c-1.41-1.45-3.29-2.11-5.07-2.93c-0.19-0.09-0.58-0.11-0.65,0c-0.12,0.18-0.18,0.53-0.09,0.73c0.66,1.62,1.35,3.23,2.07,4.83
		c0.13,0.29,0.43,0.54,0.71,0.73c0.74,0.48,1.52,0.9,2.26,1.38c1.43,0.93,2.69,2.04,3.47,3.59c0.2,0.4,0.25,0.88,0.48,1.25
		c0.43,0.7,1.11,1.28,1.41,2.01c0.76,1.86,1.42,3.77,2.03,5.69c0.36,1.13,0.72,2.29,0.81,3.45c0.18,2.05,0.16,4.12,0.19,6.18
		c0.03,1.61,0.19,3.24-0.03,4.81c-0.33,2.37-0.81,4.73-1.47,7.03c-1.09,3.83-3,7.31-4.87,10.81c-0.89,1.66-1.76,3.32-2.65,4.97
		c-0.23,0.42-0.48,0.83-0.74,1.24c-0.84,1.34-1.65,2.7-2.54,4.01c-0.82,1.21-1.72,2.35-2.59,3.53c-0.92,1.27-1.82,2.55-2.75,3.81
		c-0.66,0.88-1.37,1.71-2.02,2.59c-0.68,0.9-1.27,1.88-2.01,2.74c-1.76,2.05-3.57,4.05-5.38,6.06c-0.6,0.66-1.25,1.28-1.88,1.92
		c-1.63,1.63-3.27,3.27-4.91,4.9c-0.89,0.88-1.78,1.76-2.67,2.64c-0.91,0.91-1.81,1.84-2.74,2.74c-0.67,0.65-1.37,1.26-2.05,1.89
		c-1.34,1.23-2.68,2.46-4.01,3.69c-0.96,0.88-1.89,1.79-2.85,2.66c-1.42,1.3-2.81,2.63-4.28,3.86c-1.54,1.29-3.21,2.41-4.72,3.72
		c-1.85,1.61-3.59,3.34-5.39,5c-0.67,0.61-1.39,1.18-2.08,1.77c-0.67,0.57-1.36,1.12-2.02,1.7c-1.05,0.94-2.04,1.95-3.11,2.86
		c-1.18,0.99-2.45,1.88-3.63,2.87c-0.9,0.76-1.72,1.62-2.6,2.39c-0.83,0.72-1.71,1.38-2.55,2.08c-1.15,0.97-2.29,1.98-3.43,2.96
		c-0.77,0.66-1.59,1.28-2.33,1.99c-1.38,1.32-2.7,2.71-4.08,4.04c-1.18,1.14-2.44,2.19-3.62,3.33c-0.82,0.8-1.81,1.35-2.56,2.3
		c-1.65,2.09-3.56,3.96-5.36,5.94c-0.96,1.05-1.91,2.12-2.86,3.2c-1.57,1.78-3.13,3.56-4.69,5.35c-0.91,1.03-1.85,2.04-2.7,3.11
		c-0.95,1.18-1.83,2.41-2.72,3.64c-1.21,1.66-2.41,3.32-3.59,5c-0.74,1.06-1.43,2.16-2.17,3.22c-1.09,1.58-2.24,3.11-3.28,4.72
		c-1.28,1.99-2.44,4.05-3.69,6.05c-1.19,1.9-2.51,3.71-3.62,5.65c-1.3,2.29-2.46,4.68-3.63,7.04c-0.69,1.39-1.31,2.82-1.99,4.31
		c-2.57-0.58-5.07-1.12-7.54-1.72c-2.51-0.61-4.99-1.3-7.48-1.95c-0.04,0.05-0.08,0.1-0.12,0.15c4.78,1.92,9.56,3.83,14.32,5.74
		c-0.69,2.13-1.39,4.23-2.07,6.33c-0.57,1.76-1.19,3.51-1.7,5.29c-0.63,2.19-1.23,4.4-1.75,6.62c-0.33,1.39-0.52,2.81-0.75,4.23
		c-0.18,1.09-0.31,2.19-0.48,3.29c-0.11,0.72-0.27,1.43-0.35,2.15c-0.14,1.38-0.23,2.77-0.35,4.15c-0.21,2.47-0.49,4.93-0.63,7.4
		c-0.1,1.6-0.04,3.21-0.01,4.82c0.03,1.56,0.05,3.13,0.18,4.69c0.1,1.18,0.39,2.34,0.56,3.51c0.21,1.45,0.37,2.9,0.58,4.34
		c0.3,2.03,0.58,4.06,0.93,6.09c0.31,1.78,0.68,3.54,1.05,5.31c0.45,2.14,0.94,4.26,1.39,6.39c0.25,1.22,1.57,2.15,0.93,3.59
		c-0.02,0.04,0.02,0.11,0.04,0.16c0.19,0.53,0.35,1.07,0.57,1.59c0.96,2.29,1.93,4.56,2.89,6.85c0.39,0.93,0.75,1.87,1.18,2.95
		c-1.35-0.09-2.55-0.15-3.75-0.25c-3.14-0.26-6.3-0.44-9.43-0.86c-1.99-0.26-3.93-0.87-5.88-1.36c-0.69-0.18-1.07,0.09-1.39,0.66
		c-0.35,0.62-0.01,0.9,0.49,1.13c0.17,0.08,0.33,0.21,0.51,0.26c2.22,0.62,4.43,1.24,6.65,1.84c0.39,0.11,0.78,0.18,1.18,0.26
		c2.09,0.41,4.18,0.84,6.27,1.22c1.7,0.31,3.42,0.55,5.12,0.84c0.69,0.11,1.38,0.27,2.14,0.42c1.1,1.96,2.17,4.02,3.4,5.99
		c0.71,1.14,1.64,2.16,2.51,3.2c0.66,0.78,1.44,1.47,2.08,2.26c1.87,2.32,3.62,4.75,5.56,7c1.33,1.54,2.98,2.8,4.38,4.3
		c2.22,2.36,4.75,4.35,7.25,6.38c1.34,1.09,2.75,2.1,4.13,3.15c1.04,0.8,2.07,1.62,3.14,2.45c-5.23,3.1-8.96,7.69-12.99,12
		c0.17-0.09,0.34-0.17,0.6-0.3c-1.13,1.77-2.27,3.38-3.23,5.09c-1.44,2.58-3.19,5.04-3.97,7.93c-0.6,2.18-1.05,4.4-1.42,6.63
		c-0.33,1.97-0.59,3.98-0.65,5.98c-0.05,1.93,0.06,3.89,0.33,5.8c0.27,1.83,0.73,3.65,1.3,5.41c0.55,1.65,1.26,3.28,2.09,4.82
		c0.85,1.58,1.86,3.09,2.91,4.56c0.82,1.15,1.74,2.23,2.73,3.24c0.8,0.82,1.82,1.42,2.65,2.21c1.67,1.59,3.73,2.5,5.81,3.26
		c1.5,0.54,3.15,0.83,4.74,0.93c2.39,0.15,4.81,0.12,7.21,0.01c1.05-0.05,2.14-0.36,3.11-0.77c1.15-0.49,2.24-1.17,3.3-1.86
		c1.15-0.75,2.34-1.48,3.31-2.43c2.54-2.49,4.34-5.42,4.81-9.05c0.23-1.78,0.28-3.5-0.65-5.13c-0.83-1.45-2.66-2.16-3.95-1.52
		c-1.69,0.83-2.67,2.22-3.15,4.01c-0.37,1.39,0.29,2.76,1.57,3.46c0.63,0.35,1.2,0.83,1.79,1.26c0.46,0.33,0.71,0.77,0.57,1.35
		c-0.19,0.8-0.41,1.61-0.65,2.4c-0.16,0.52-0.23,1.22-0.59,1.5c-1.63,1.24-3.26,2.53-5.06,3.48c-2.29,1.22-4.83,1.61-7.45,1.37
		c-2.06-0.19-4.15-0.2-6.18-0.54c-2.08-0.36-4.04-1.2-5.77-2.44c-1.21-0.87-2.36-1.83-3.48-2.82c-0.8-0.69-1.59-1.43-2.22-2.26
		c-1.96-2.58-3.55-5.39-4.93-8.32c-1.19-2.53-1.74-5.22-2.02-7.96c-0.15-1.54,0.02-3.12,0.14-4.68c0.17-2.25,0.36-4.5,0.67-6.73
		c0.33-2.32,0.84-4.63,1.97-6.72c2.03-3.76,4.25-7.39,6.92-10.75c1.84-2.32,3.99-4.25,6.37-5.94c1.38-0.98,2.84-1.85,4.29-2.71
		c0.59-0.35,1.26-0.6,1.92-0.81c0.46-0.14,0.96-0.12,1.45-0.18c0.18-0.03,0.38-0.15,0.52-0.09c0.76,0.27,1.51,0.56,2.25,0.88
		c2.27,0.98,4.51,2.06,6.81,2.95c1.52,0.58,3.16,0.87,4.73,1.33c2.04,0.6,4.05,1.35,6.12,1.84c1.81,0.43,3.69,0.59,5.53,0.86
		c1.21,0.17,2.41,0.36,3.62,0.49c1,0.11,2.02,0.14,3.03,0.18c2.43,0.1,4.86,0.26,7.28,0.24c1.96-0.02,3.92-0.31,5.87-0.4
		c1.33-0.06,2.6-0.34,4.01-0.15c1.46,0.2,3.04-0.48,4.57-0.79c0.84-0.17,1.67-0.42,2.52-0.55c2.25-0.35,4.31-1.29,6.45-1.99
		c0.95-0.31,1.84-0.39,2.79-0.24c0.2,0.03,0.41,0,0.62,0c0-0.06,0-0.11,0-0.17c-0.41-0.1-0.82-0.21-1.24-0.32
		c0.42-0.28,0.86-0.37,1.27-0.54c2.53-1.11,5.07-2.23,7.58-3.38c1.67-0.77,3.37-1.51,4.97-2.43c2.02-1.15,3.95-2.44,5.9-3.71
		c1.76-1.16,3.57-2.26,5.19-3.59c1.67-1.36,3.14-2.98,4.7-4.48c0.18-0.17,0.37-0.33,0.54-0.51c1.68-1.68,3.38-3.33,5.02-5.03
		c0.98-1.02,1.87-2.14,2.83-3.18c0.36-0.4,0.88-0.67,1.21-1.09c1.08-1.35,2.09-2.76,3.16-4.12c1.47-1.88,3.12-3.64,4.4-5.64
		c1.94-3.01,3.73-6.14,5.41-9.31c1.26-2.36,2.24-4.87,3.36-7.31c0.86-1.86,1.9-3.65,2.59-5.57c1.22-3.38,2.27-6.81,3.33-10.25
		c0.72-2.33,1.32-4.71,1.99-7.06c0.36-1.26,0.85-2.5,1.14-3.78c0.59-2.58,1.13-5.16,1.62-7.75c0.45-2.42,0.83-4.85,1.2-7.27
		c0.15-0.95,0.13-1.91,0.24-2.86c0.18-1.48,0.48-2.94,0.58-4.43c0.16-2.45,0.19-4.91,0.29-7.36c0-0.11,0.08-0.25,0.16-0.34
		c0.78-0.83,1.53-1.67,2.35-2.46c1.29-1.24,2.59-2.48,3.95-3.66c0.95-0.82,1.98-1.54,2.99-2.3c1.16-0.87,2.62-1.06,3.9-1.64
		c1.77-0.79,3.66-0.92,5.52-1.18c2-0.27,3.8,0.44,5.5,1.4c0.5,0.29,0.89,0.76,1.36,1.11c0.24,0.18,0.57,0.46,0.78,0.41
		c0.23-0.06,0.43-0.45,0.51-0.73c0.11-0.38,0.1-0.79,0.12-1.19c0.09-1.84,0.13-3.67,0.24-5.5c0.14-2.43,0.33-4.86,0.48-7.29
		C510.53,244.09,510.52,243.84,510.47,243.6z M419.12,193.78c-5.97-0.76-11.7-0.4-17.54,0.71c3.06-4.55,6.01-8.95,9.04-13.45
		C412.56,185.84,415.44,189.95,419.12,193.78z M422.99,135.4c1.47-2.39,2.96-4.76,4.47-7.12c1.36-2.14,2.77-4.25,4.14-6.38
		c0.16-0.26,0.21-0.59,0.33-0.88c0.09-0.21,0.19-0.43,0.32-0.62c0.33-0.5,0.71-0.96,1.01-1.48c1.01-1.77,2-3.55,2.97-5.33
		c0.37-0.69,0.67-1.41,1.02-2.11c1.13-2.25,2.26-4.5,3.39-6.75c0.13-0.25,0.28-0.5,0.57-0.7c-0.25,1.24-0.43,2.49-0.77,3.7
		c-1.1,3.88-2.17,7.78-3.41,11.62c-1.79,5.52-3.62,11.04-5.63,16.49c-1.65,4.47-3.53,8.86-5.44,13.22c-1.39,3.2-2.96,6.31-4.52,9.42
		c-1.39,2.8-2.85,5.58-4.34,8.33c-1.89,3.48-3.83,6.93-5.76,10.39c-0.02,0.04-0.09,0.06-0.27,0.18c-0.22-1-0.48-1.93-0.63-2.89
		c-0.47-2.8-0.73-5.62-0.36-8.47c0.13-0.97,0.15-1.96,0.18-2.94c0.07-2.11,0.71-4.1,1.43-6.04c0.95-2.57,1.98-5.12,3.14-7.6
		c0.95-2.02,2.07-3.97,3.2-5.89C419.63,140.8,421.32,138.1,422.99,135.4z M326.34,236.71c1.27-1.96,2.49-3.97,3.78-5.92
		c1.09-1.66,2.27-3.26,3.39-4.9c0.89-1.31,1.71-2.67,2.63-3.96c0.74-1.03,1.58-2,2.36-3c0.93-1.19,1.84-2.41,2.8-3.58
		c0.95-1.14,1.98-2.22,2.95-3.34c0.83-0.96,1.62-1.97,2.46-2.93c2.13-2.43,4.26-4.86,6.43-7.25c1.43-1.57,2.95-3.06,4.41-4.6
		c1.08-1.14,2.05-2.39,3.18-3.48c2.04-1.97,4.18-3.85,6.25-5.79c1-0.94,1.91-1.98,2.95-2.88c1.94-1.7,3.97-3.29,5.91-5
		c1.66-1.46,3.24-3.02,4.88-4.51c0.79-0.72,1.67-1.33,2.47-2.04c0.63-0.55,1.2-1.17,1.8-1.75c1.16-1.11,2.3-2.24,3.49-3.31
		c1.79-1.61,3.63-3.17,5.42-4.78c1.55-1.39,3.06-2.84,4.6-4.25c1.72-1.58,3.51-3.09,5.18-4.72c1.89-1.84,3.68-3.77,5.53-5.66
		c0.74-0.75,1.52-1.48,2.23-2.26c1.69-1.82,3.35-3.67,5.03-5.49c0.28-0.3,0.63-0.54,1.06-0.77c-0.16,0.3-0.32,0.6-0.48,0.89
		c-1.16,2.07-2.43,4.09-3.46,6.23c-1.07,2.22-1.9,4.57-2.84,6.85c-0.4,0.97-0.92,1.9-1.24,2.9c-0.33,1.05-0.55,2.14-0.73,3.23
		c-0.18,1.1-0.28,2.23-0.33,3.35c-0.09,1.79-0.16,3.57-0.16,5.37c-0.01,3.24,0.57,6.4,1.46,9.5c0.1,0.36,0.05,0.88-0.15,1.18
		c-2.81,4.29-5.66,8.55-8.5,12.82c-0.21,0.31-0.42,0.63-0.63,0.94c-0.46,0.69-1.03,1.11-1.9,1.34c-2.38,0.65-4.75,1.37-7.05,2.25
		c-3.22,1.23-6.45,2.46-9.53,4c-2.76,1.38-5.33,3.15-7.94,4.81c-1.78,1.13-3.47,2.38-5.24,3.54c-4.68,3.07-8.72,6.87-12.52,10.94
		c-2.2,2.34-4.31,4.78-6.29,7.3c-1.6,2.03-2.96,4.25-4.42,6.4c-0.59,0.87-1.02,1.9-1.75,2.61c-0.62,0.6-1.53,1.02-2.38,1.23
		c-2.63,0.66-5.29,1.21-7.94,1.75c-1.56,0.32-3.14,0.57-4.72,0.76c-1.51,0.18-3.04,0.24-4.56,0.34c-0.21,0.01-0.42-0.02-0.74-0.04
		C324.48,239.53,325.43,238.13,326.34,236.71z M390.05,205.96c-1.52,1.69-2.94,3.28-4.39,4.84c-1.63,1.77-3.22,3.6-4.96,5.26
		c-1.73,1.64-3.62,3.13-5.48,4.64c-1.93,1.57-3.89,3.12-5.89,4.6c-2.08,1.53-4.08,3.15-6.47,4.24c-3.07,1.39-6.06,2.96-9.11,4.37
		c-1.92,0.89-3.91,1.63-5.87,2.43c-0.05-0.05-0.1-0.11-0.15-0.16c0.54-0.81,1-1.67,1.61-2.42c1.57-1.92,3.18-3.79,4.81-5.66
		c2.92-3.37,6.4-6.12,9.93-8.81c4.21-3.21,8.65-6.03,13.39-8.34c3.16-1.54,6.51-2.66,9.79-3.95
		C388.15,206.65,389.06,206.33,390.05,205.96z M314.17,332.43c-0.16,0.01-0.43-0.15-0.49-0.29c-1.14-2.9-2.34-5.78-3.32-8.74
		c-0.68-2.04-1.09-4.16-1.52-6.27c-0.35-1.67-0.57-3.35-0.82-5.04c-0.29-2-0.55-4.01-0.82-6.02c-0.09-0.65-0.14-1.3-0.18-1.96
		c-0.12-1.92-0.28-3.84-0.31-5.76c-0.03-1.67,0.05-3.34,0.16-5.01c0.18-2.46,0.36-4.92,0.66-7.37c0.19-1.58,0.6-3.13,0.87-4.69
		c0.18-1.04,0.24-2.09,0.44-3.12c0.23-1.2,0.49-2.41,0.83-3.59c0.85-2.94,1.71-5.88,2.65-8.79c0.58-1.79,1.31-3.53,1.95-5.31
		c0.79-2.17,1.48-4.38,2.36-6.52c0.76-1.83,1.72-3.57,2.59-5.35c0.52-1.06,1.1-2.09,1.55-3.18c0.33-0.79,1.02-0.84,1.61-0.83
		c0.87,0.01,1.75,0.37,2.62,0.4c0.88,0.03,1.77-0.18,2.66-0.28c1.43-0.17,2.85-0.33,4.28-0.5c2.23-0.27,4.46-0.55,6.69-0.83
		c0.31-0.04,0.61-0.12,1.1-0.21c-0.6,1.07-1.16,1.96-1.6,2.9c-1.18,2.51-2.45,4.98-3.43,7.57c-1,2.66-1.6,5.47-2.58,8.14
		c-0.94,2.58-1.23,5.25-1.61,7.91c-0.22,1.55-0.47,3.1-0.64,4.66c-0.16,1.47-0.4,2.96-0.32,4.42c0.18,3.17,0.15,6.36,0.94,9.47
		c0.41,1.62,0.56,3.31,1.06,4.89c0.52,1.65,1.23,3.27,2.04,4.8c0.81,1.54,1.7,3.08,2.8,4.43c0.19,0.23,0.39,0.45,0.6,0.68
		c-7.88-21.03-1.31-42.39,3.25-53.15c0.63-1.87,1.41-3.68,2.45-5.39c0.06-0.09,0.03-0.21,0.08-0.31c0.48-1.05,1-1.85,2.3-2.29
		c3.6-1.21,7.18-2.48,10.55-4.29c1.42-0.76,2.97-1.29,4.42-2c3.1-1.51,5.92-3.44,8.6-5.61c2.55-2.06,5.19-3.99,7.77-6.02
		c0.81-0.64,1.55-1.39,2.31-2.1c2.82-2.65,5.33-5.58,7.85-8.51c1.9-2.19,3.82-4.37,5.73-6.56c0.27-0.31,0.56-0.6,0.77-0.95
		c0.46-0.79,1.11-1.13,2.03-1.26c2.3-0.3,4.59-0.77,6.89-1.1c1.88-0.27,3.77-0.63,5.65-0.61c2.69,0.03,5.37,0.36,8.05,0.6
		c1.52,0.13,3.04,0.28,4.55,0.52c2.72,0.43,5.41,0.98,8.12,1.42c3.28,0.53,6.23,2.03,9.33,3.08c0.69,0.23,1.27,0.44,1.61,1.19
		c0.12,0.27,0.85,0.46,1.23,0.37c0.85-0.21,1.45,0.28,2.11,0.56c1.42,0.61,2.86,1.23,4.2,1.99c2.02,1.14,3.98,2.38,5.94,3.63
		c1.63,1.05,3.25,2.11,4.59,3.57c0.91,1,2.17,1.67,3.14,2.63c0.96,0.96,1.75,2.09,2.61,3.15c0.99,1.21,2.01,2.42,2.95,3.68
		c0.94,1.25,1.83,2.54,2.67,3.86c0.9,1.41,1.85,2.81,2.56,4.31c1.25,2.68,2.43,5.41,3.48,8.18c0.96,2.56,1.77,5.19,2.55,7.81
		c0.46,1.54,0.77,3.13,1.09,4.72c0.06,0.31-0.02,0.73-0.18,1.01c-1.02,1.68-2.09,3.33-3.11,5c-0.43,0.71-0.81,1.45-1.2,2.19
		c-1,1.87-1.95,3.77-3,5.62c-1.04,1.83-2.11,3.65-3.27,5.39c-1.99,2.99-3.98,5.98-6.69,8.4c-1.98,1.76-4,3.44-6.4,4.67
		c-2.22,1.14-4.43,2.24-6.86,2.79c-2.49,0.57-5.01,0.8-7.54,0.12c-1.12-0.3-1.37-0.66-1.09-1.78c0.47-1.87,1.37-3.54,2.68-4.94
		c2.04-2.17,4.26-4.11,7-5.37c1.48-0.68,3.03-1.03,4.64-1.09c0.38-0.01,0.77,0.11,1.15,0.06c1.56-0.2,2.53,0.48,3.05,1.93
		c0.07,0.18,0.31,0.3,0.45,0.43c1.38-0.47,1.34-0.51,1.24-2.4c-0.07-1.39,0.1-2.79,0.2-4.17c0.05-0.7,0.13-1.4,0.27-2.1
		c0.17-0.89-0.36-1.54-0.91-1.98c-1.63-1.31-3.4-2.17-5.66-1.87c-1.7,0.22-3.37,0.49-4.88,1.29c-1.09,0.57-2.13,1.27-3.08,2.05
		c-1.81,1.46-3.46,3.08-4.76,5.04c-1.78,2.67-2.78,5.64-3.57,8.71c-0.08,0.32-0.25,0.6-0.31,0.92c-0.29,1.48-0.6,2.95-0.82,4.45
		c-0.29,2.07-0.93,4.11-0.66,6.23c0.16,1.28,0.16,2.61,1.05,3.76c0.81,1.05,1.89,1.39,3.05,1.57c1.98,0.31,3.93,0,5.9-0.27
		c2.25-0.31,4.23-1.25,6.22-2.17c1.04-0.48,2.02-1.11,3-1.69c0.39-0.23,0.74-0.53,1.24-0.72c-0.6,0.99-1.15,2.01-1.8,2.96
		c-1.24,1.8-2.53,3.56-3.84,5.32c-1.42,1.91-2.86,3.82-4.35,5.69c-1.25,1.56-2.59,3.05-3.88,4.57c-0.98,1.15-1.94,2.32-2.94,3.44
		c-0.85,0.97-1.75,1.89-2.65,2.81c-0.9,0.93-1.8,1.86-2.75,2.73c-1.46,1.34-2.87,2.74-4.45,3.92c-2.41,1.8-4.73,3.77-7.56,4.95
		c-2,0.84-3.95,1.82-6.01,2.47c-1.94,0.61-3.99,0.87-6,1.25c-1.06,0.19-2.15,0.38-3.22,0.4c-1.11,0.02-2.24-0.06-3.33-0.27
		c-1.89-0.37-3.83-0.71-5.64-1.36c-1.76-0.63-3.44-1.54-5.05-2.5c-1.58-0.93-3.01-2.11-4.52-3.14c-1.23-0.84-1.99-2.06-2.65-3.33
		c-0.65-1.26-1.09-2.64-1.81-3.85c-1.27-2.12-1.8-4.49-2.44-6.82c-0.06-0.2,0.01-0.51,0.14-0.68c2.07-2.75,3.72-5.76,5.28-8.82
		c1.52-2.97,2.92-5.99,4.49-8.94c1.91-3.58,3.21-7.41,4.81-11.13c1.03-2.4,2.08-4.8,3.14-7.18c1.36-3.02,2.73-6.04,4.14-9.04
		c0.5-1.05,1.14-2.02,1.83-3.21c0.18,1.22,0.38,2.2,0.45,3.18c0.22,2.87,1.32,5.39,2.74,7.86c1.33,2.31,3.2,3.94,5.46,5.16
		c2.3,1.24,4.8,1.33,7.33,0.81c3.25-0.66,6.02-2.29,8.53-4.39c1.29-1.07,2.62-2.11,3.78-3.32c1.95-2.03,3.6-4.32,5.01-6.78
		c1.15-2.01,2.38-3.98,3.5-6.02c1.15-2.1,2.11-4.31,3.31-6.37c0.77-1.31,1.56-2.65,2.85-3.6c0.47-0.35,0.84-0.86,1.19-1.34
		c1-1.35,2.4-1.77,3.99-1.9c1.47-0.12,2.91-0.23,4.37,0.16c1.38,0.37,2.47,1.05,3.29,2.24c0.17,0.26,0.76,0.23,1.09,0.32
		c0.06-1.01,0.08-1.88,0.17-2.75c0.19-1.81,0.43-3.63,0.64-5.44c0.13-1.14,0.24-2.27,0.34-3.41c0.13-1.5,0.25-2.99,0.33-4.49
		c0.05-0.84-0.31-1.5-1.09-1.83c-1.23-0.53-2.46-1.06-3.72-1.51c-1.63-0.58-3.16-0.02-4.7,0.5c-1.87,0.63-3,2.16-4.38,3.38
		c-3.54,3.14-5.59,7.32-8.06,11.22c-1.47,2.32-2.98,4.63-4.57,6.87c-1.22,1.71-2.56,3.33-3.91,4.94c-0.51,0.61-1.16,1.12-1.81,1.61
		c-1.13,0.86-2.24,1.76-3.47,2.45c-1.49,0.84-3.05,1.58-4.65,2.17c-2.65,0.99-5.36,0.89-7.87-0.4c-2.06-1.06-3.69-2.62-4.69-4.83
		c-0.98-2.16-1.42-4.39-1.32-6.73c0.05-1.2,0.24-2.38,0.3-3.58c0.03-0.53-0.07-1.08-0.16-1.61c-0.11-0.61-1.33-1.07-2.02-0.81
		c-2.2,0.85-4.19,2.06-5.76,3.82c-2.21,2.46-4.27,5.04-5.79,8.01c-0.97,1.89-2.13,3.7-3.03,5.62c-1.17,2.49-2.16,5.05-3.25,7.58
		c-0.98,2.28-1.94,4.57-2.98,6.82c-1.43,3.06-2.83,6.14-4.43,9.11c-1.75,3.25-3.62,6.45-5.62,9.56c-1.2,1.86-2.71,3.53-4.17,5.2
		c-1.41,1.6-2.97,3.05-4.41,4.62c-1.78,1.96-3.92,3.47-6.09,4.95c-1.51,1.03-2.95,2.17-4.52,3.12c-1.65,0.99-3.4,1.81-5.11,2.68
		c-0.9,0.47-1.79,0.99-2.73,1.36c-1.99,0.79-4,1.49-6.01,2.23c-0.36,0.12-0.74,0.18-1.07,0.35c-3.56,1.83-7.47,2.52-11.3,3.46
		c-1.36,0.33-2.69,0.78-4.06,1.04c-1.73,0.33-3.47,0.54-5.22,0.78c-1.39,0.19-2.79,0.38-4.19,0.55
		C316.06,332.24,315.12,332.35,314.17,332.43z M453,339.49c-1.2,1.34-2.43,2.66-3.71,3.92c-1.29,1.27-2.67,2.43-3.98,3.68
		c-1.23,1.16-2.38,2.41-3.64,3.55c-0.51,0.46-0.9,1.2-1.78,1.15c-0.14,0-0.41,0.21-0.42,0.34c-0.12,1.36-1.36,1.73-2.17,2.4
		c-1.43,1.18-2.96,2.25-4.52,3.24c-1.87,1.21-3.8,2.35-5.76,3.41c-2.64,1.42-5.29,2.81-8.01,4.06c-1.89,0.88-3.9,1.5-5.85,2.25
		c-1.37,0.53-2.72,1.15-4.12,1.6c-1.84,0.58-3.71,1.03-5.58,1.54c-0.13,0.04-0.27,0.07-0.37,0.14c-1.39,1.08-3.02,0.95-4.64,1.04
		c-1.76,0.09-3.51,0.37-5.27,0.49c-1.05,0.07-2.11-0.03-3.16-0.01c-1.87,0.04-3.73,0.19-5.59,0.14c-2.67-0.08-5.34-0.29-8.01-0.45
		c-0.08-0.01-0.17-0.02-0.25,0c-1.53,0.44-3.72,0.32-5.24-0.23c-0.4-0.14-0.87-0.07-1.28-0.17c-2.24-0.56-4.48-1.14-6.72-1.7
		c-0.99-0.24-1.99-0.45-2.98-0.68c-0.02-0.08-0.03-0.17-0.05-0.26c1.35-0.53,2.65-1.25,4.04-1.58c2.7-0.62,5.46-1.01,8.18-1.54
		c1.37-0.26,2.72-0.62,4.09-0.9c0.61-0.12,1.24-0.15,1.85-0.25c1.44-0.22,2.88-0.48,4.32-0.68c1.29-0.18,2.58-0.4,3.87-0.46
		c3.14-0.15,6.24-0.4,9.34-0.98c3.05-0.57,6.15-0.91,9.23-1.36c2.22-0.33,4.48-0.5,6.65-1.02c3.87-0.93,7.69-2.05,11.53-3.12
		c0.77-0.21,1.52-0.52,2.27-0.83c1.84-0.75,3.74-1.41,5.5-2.33c2.96-1.56,5.93-3.13,8.72-4.98c2.95-1.95,5.72-4.17,8.51-6.36
		c2.5-1.97,4.92-4.06,7.37-6.1c0.03,0.03,0.07,0.05,0.1,0.07C454.64,337.51,453.86,338.54,453,339.49z M479.42,274.72
		c-0.18,3.18-0.3,6.36-0.51,9.53c-0.25,3.84-1.02,7.6-2.08,11.29c-0.51,1.79-1.07,3.56-1.42,5.38c-0.49,2.57-1.9,4.73-2.84,7.09
		c-1.39,3.52-3.23,6.83-5.22,10.04c-1.33,2.15-2.8,4.22-4.31,6.27c-0.7,0.95-1.63,1.73-2.41,2.62c-1.72,1.97-3.36,4.01-5.14,5.92
		c-1.64,1.75-3.39,3.4-5.16,5.03c-1.45,1.33-2.95,2.58-4.48,3.8c-1.67,1.34-3.32,2.72-5.1,3.89c-2.56,1.66-5.16,3.27-7.87,4.65
		c-3.11,1.58-6.3,3.03-9.74,3.88c-2.89,0.71-5.7,1.79-8.59,2.5c-2.59,0.63-5.25,0.97-7.88,1.43c-2.26,0.4-4.51,0.82-6.78,1.21
		c-1.36,0.23-2.72,0.42-4.09,0.61c-1.56,0.22-3.11,0.43-4.67,0.63c-1.19,0.14-2.39,0.21-3.58,0.38c-2.03,0.3-4.05,0.66-6.08,1
		c-1.3,0.21-2.61,0.41-3.91,0.66c-2.88,0.53-5.78,1.02-8.64,1.66c-3.15,0.71-6.27,1.54-9.39,2.35c-1.25,0.33-2.45,0.84-3.69,1.15
		c-0.45,0.11-1-0.05-1.46-0.22c-2.47-0.9-5.02-1.67-7.38-2.82c-3.13-1.52-6.21-3.17-8.93-5.4c-2.33-1.9-4.78-3.66-7.05-5.62
		c-2.19-1.89-4.32-3.86-6.29-5.97c-2.15-2.3-4.11-4.78-6.1-7.23c-0.6-0.74-1-1.64-1.52-2.52c1.33,0.14,2.61,0.28,3.89,0.41
		c0.92,0.09,1.85,0.11,2.77,0.22c1.58,0.19,3.16,0.45,4.75,0.63c1.1,0.12,2.21,0.2,3.31,0.17c2.68-0.06,5.36-0.22,8.04-0.3
		c0.54-0.01,1.09,0.18,1.62,0.14c1.79-0.13,3.59-0.24,5.36-0.51c1.75-0.27,3.51-0.61,5.22-1.1c2.13-0.61,4.23-1.36,6.3-2.16
		c1.74-0.66,3.49-1.35,5.11-2.23c1.73-0.94,3.31-2.17,4.99-3.22c2.4-1.51,4.52-3.36,6.58-5.28c0.82-0.76,1.56-1.62,2.49-2.61
		c-0.1,1.37-0.22,2.52-0.25,3.68c-0.04,1.36-0.03,2.72,0,4.09c0.01,0.68,0.18,1.35,0.2,2.02c0.03,1.87,0.89,3.48,1.48,5.18
		c0.9,2.59,2.55,4.73,3.97,7.01c0.75,1.21,1.46,2.47,2.42,3.51c1.42,1.54,3.02,2.94,4.93,3.89c2.19,1.08,4.37,2.19,6.63,3.13
		c1.94,0.8,4.04,1.1,6.13,1.34c1.45,0.17,2.89,0.44,4.34,0.62c0.28,0.04,0.59-0.14,0.87-0.13c2.58,0.1,5.06-0.62,7.57-1.05
		c1.16-0.2,2.28-0.76,3.35-1.29c2.05-1.03,4.02-2.21,6.07-3.25c2.54-1.29,4.65-3.16,6.73-5.03c2.91-2.62,5.65-5.43,8.08-8.53
		c1.31-1.68,2.55-3.42,3.83-5.13c1.42-1.88,2.91-3.7,4.27-5.62c1.73-2.45,3.37-4.95,5.01-7.46c1.02-1.56,1.96-3.16,2.95-4.74
		c0.96-1.53,1.96-3.04,2.88-4.59c0.77-1.3,1.46-2.64,2.16-3.97c1.19-2.26,2.4-4.52,3.54-6.8c0.71-1.42,1.3-2.91,1.97-4.35
		c0.54-1.16,1.13-2.3,1.7-3.46c1.8-3.65,3.61-7.3,5.86-10.71c1-1.52,1.92-3.1,2.84-4.67c0.8-1.36,1.53-2.76,2.29-4.15
		c0.1,0.03,0.19,0.06,0.29,0.09C479.56,272.7,479.48,273.71,479.42,274.72z"/>
	<path fill="#000000" id="XMLID_844_" d="M410.68,439.1c-0.94-0.65-1.94-1.66-2.81-2.58c-0.17-0.2-0.3-0.12-0.62,0.2
		c-0.45,0.42-1.44,1.56-1.99,2.21c-0.72-0.4-1.94-1.49-2.61-2.24c-0.25-0.27-0.37-0.3-0.57-0.1c-0.89,0.89-1.84,1.96-2.51,2.78
		c-0.22,0.27-0.22,0.37-0.05,0.6c0.72,0.94,1.89,1.94,2.81,2.51c0.35,0.22,0.47,0.07,0.7-0.07c0.45-0.32,1.52-1.52,2.06-2.14
		c0.89,0.87,1.91,1.69,2.61,2.21c0.27,0.2,0.35,0.2,0.55-0.05c0.79-0.97,1.59-1.86,2.43-2.76
		C410.98,439.37,410.98,439.3,410.68,439.1z"/>
	<path fill="#000000" id="XMLID_843_" d="M452.16,419.8c-0.15,0-0.32,0.17-0.4,0.27c-0.52,0.72-1.81,2.76-1.81,3.28c0,0.1,0.02,0.17,0.07,0.25
		c0.47,0.77,0.77,1.32,0.77,1.81c0,0.67-0.79,0.79-1.22,0.79c-1.34,0-3.33-0.94-3.33-3.23c0-0.57,0.12-0.94,0.12-1.34
		c0-0.35-0.1-0.5-0.3-0.5c-0.32,0-0.72,0.5-1.14,1.61c-0.75,1.94-2.76,3.68-4.74,3.68c-1.91,0-2.56-1.22-2.73-2.73
		c-0.1-0.92-0.17-1.29-0.5-1.29c-0.17,0-0.42,0.15-0.57,0.4c-0.97,1.56-1.79,2.68-3.13,3.38c-1.04,0.55-2.31,0.82-3.9,0.82h-0.22
		c-1.69,0-3.28-0.75-4.77-2.24c1.59-1.17,2.31-2.96,2.31-4.25c0-0.57-0.15-1.07-0.42-1.34c-1.24-1.29-2.93-1.94-4.74-1.94
		c-1.84,0-3.83,0.67-5.59,2.01c-0.52,0.4-0.84,1.96-0.84,2.91c0,0.42,0.05,0.72,0.2,0.75c1.14,0.2,3.28,0.7,4.17,1.96
		c-2.73,1.54-4.84,2.14-8.12,2.14h-0.22H411h-0.15c-0.25,0-0.52,0-0.87-0.05c-1.34-0.25-2.46-1.42-2.46-2.46
		c0-0.94-0.17-1.32-0.45-1.32c-0.2,0-0.42,0.1-0.89,0.92c-1.54,2.63-4.12,2.91-5.94,2.91h-0.84h-0.4h-0.2
		c-0.77-0.02-1.52-0.42-2.24-1.19c-0.37-0.4-0.65-0.92-0.82-1.56c-0.67-2.41-0.79-6.63-2.16-12.67c-0.17-0.77-0.32-1.09-0.5-1.09
		c-0.2,0-0.42,0.47-0.7,1.14c-0.82,1.96-0.92,2.41-0.92,2.63c0,0.2,0.02,0.47,0.1,0.82c0.57,2.78,1.32,5.79,1.32,8.07
		c0,0.45-0.02,0.87-0.1,1.24c-0.84,1.44-2.73,2.31-6.56,2.31c-2.04,0-3.8-0.47-4.2-1.76c-0.12-0.4-0.22-0.62-0.47-0.62
		c-0.25,0-0.45,0.25-0.6,0.6c-0.5,1.09-0.75,2.48-0.75,3.45c0,0.84,0.45,1.47,1.19,1.96c1.17,0.77,2.58,0.89,3.83,0.89
		c4.27,0,7.73-1.96,8.32-4.79c0.55,1.71,1.22,2.86,2.04,3.53c0.72,0.72,1.79,1.12,3.18,1.19h0.2h0.17h0.17
		c0.16,0,0.31-0.01,0.45-0.04c3.59-0.19,5.63-1.96,6.05-3.02c0.15,0.27,1.17,2.73,3.95,3.01c0.5,0.05,0.75,0.05,1.04,0.05h0.32
		c0.02,0,0.03-0.01,0.05-0.01c1.8-0.02,3.4-0.31,4.79-0.86c1.29-0.52,3.03-1.74,5.19-3.65c0.89,1.47,1.52,2.19,2.96,3.06
		c1.21,0.72,2.57,1.17,4.05,1.36c0.21,0.06,0.43,0.1,0.7,0.1h0.25h0.22h0.2c0.1,0,0.19-0.01,0.28-0.02c1.67-0.11,2.7-0.81,3.77-1.79
		c0.89-0.82,1.52-1.61,2.31-2.66c0.45,2.91,1.79,4,3.7,4c1.47,0,3.35-0.87,4.79-3.43c0.52,1.89,1.94,2.93,3.85,2.93
		c3.25,0,4.77-4.77,4.77-7.05c0-1.24-0.1-2.14-0.47-2.88C452.39,419.92,452.29,419.8,452.16,419.8z"/>
</g>
<path fill="#000000" d="M273.602,481.306c-0.578-0.576-1.301-1.03-2.174-1.362c-0.873-0.331-1.885-0.497-3.039-0.497
	c-0.663,0-1.463,0.079-2.4,0.238v-6.077h-1.535v17.711c0.706,0.202,1.402,0.354,2.087,0.454s1.301,0.151,1.849,0.151
	c1.153,0,2.166-0.162,3.039-0.486s1.596-0.764,2.174-1.319c0.576-0.555,1.006-1.211,1.287-1.968s0.42-1.561,0.42-2.411
	s-0.139-1.657-0.42-2.422C274.608,482.554,274.178,481.883,273.602,481.306z M272.391,489.167c-0.852,0.829-2.17,1.243-3.958,1.243
	c-0.39,0-0.805-0.032-1.244-0.097c-0.439-0.065-0.84-0.134-1.2-0.206v-8.845c0.447-0.115,0.887-0.194,1.319-0.237
	c0.433-0.044,0.808-0.065,1.125-0.065c0.894,0,1.668,0.112,2.325,0.335c0.656,0.224,1.199,0.545,1.633,0.963
	c0.432,0.418,0.752,0.919,0.961,1.503s0.314,1.243,0.314,1.979C273.667,487.195,273.241,488.338,272.391,489.167z M247.392,479.446
	c-0.62,0-1.297,0.079-2.033,0.238c-0.735,0.158-1.485,0.433-2.249,0.821l-0.065,1.73c0.548-0.303,0.973-0.52,1.276-0.649
	s0.624-0.237,0.962-0.324c0.338-0.086,0.677-0.158,1.016-0.216s0.667-0.087,0.984-0.087c1.139,0,1.982,0.249,2.53,0.746
	s0.822,1.33,0.822,2.498v0.13c-0.332-0.044-0.732-0.087-1.2-0.13c-0.469-0.043-0.876-0.065-1.222-0.065
	c-1.831,0-3.302,0.311-4.412,0.931c-1.11,0.619-1.665,1.644-1.665,3.07c0,0.707,0.155,1.305,0.465,1.795
	c0.31,0.49,0.713,0.88,1.211,1.168s1.067,0.497,1.708,0.627c0.641,0.13,1.308,0.194,2,0.194c0.807,0,1.6-0.072,2.378-0.216
	c0.779-0.145,1.536-0.368,2.271-0.671v-7.028c0-1.585-0.397-2.742-1.189-3.471C250.189,479.811,248.992,479.446,247.392,479.446z
	 M250.636,489.892c-0.375,0.144-0.858,0.267-1.449,0.367c-0.591,0.102-1.183,0.151-1.773,0.151c-0.505,0-0.984-0.035-1.438-0.108
	c-0.454-0.071-0.84-0.197-1.157-0.378c-0.317-0.18-0.57-0.414-0.757-0.703c-0.188-0.288-0.281-0.663-0.281-1.124
	c0-0.52,0.111-0.934,0.335-1.244c0.224-0.31,0.533-0.551,0.93-0.724c0.396-0.174,0.85-0.296,1.362-0.368
	c0.511-0.072,1.041-0.108,1.589-0.108c0.476,0,0.984,0.029,1.524,0.087c0.541,0.058,0.912,0.108,1.114,0.151V489.892z
	 M258.032,479.868c-0.649,0.122-1.276,0.263-1.881,0.422v11.418h1.535v-10.186c0.202-0.072,0.563-0.147,1.082-0.228
	c0.519-0.079,1.002-0.118,1.449-0.118h1.989v-1.492H260C259.336,479.685,258.681,479.746,258.032,479.868z M-77.92,487.667
	l241.145,0.656l0.663-0.433l-0.632-0.564L-77.92,487.667z M164.994,487.825l1.95,1.95l1.95-1.95l-1.95-1.95L164.994,487.825z
	 M169.559,487.825l3.057,3.057l3.057-3.057l-3.057-3.057L169.559,487.825z M212.359,489.286l-3.395-9.602h-1.514l-3.396,9.602
	l-2.984-9.602h-1.73l3.979,12.023h1.428l3.46-9.645l3.46,9.645h1.427l3.979-12.023h-1.73L212.359,489.286z M238.418,489.589
	c-0.317,0-0.591,0.115-0.822,0.346c-0.231,0.23-0.346,0.505-0.346,0.822c0,0.316,0.115,0.591,0.346,0.821
	c0.23,0.23,0.504,0.346,0.822,0.346c0.317,0,0.591-0.115,0.822-0.346c0.23-0.23,0.346-0.505,0.346-0.821
	c0-0.317-0.116-0.592-0.346-0.822C239.009,489.704,238.735,489.589,238.418,489.589z M193.243,489.286l-3.395-9.602h-1.514
	l-3.396,9.602l-2.984-9.602h-1.73l3.979,12.023h1.428l3.46-9.645l3.46,9.645h1.427l3.979-12.023h-1.73L193.243,489.286z
	 M231.476,489.286l-3.395-9.602h-1.514l-3.396,9.602l-2.984-9.602h-1.73l3.979,12.023h1.428l3.46-9.645l3.46,9.645h1.427
	l3.979-12.023h-1.73L231.476,489.286z M382.732,480.474c-0.426-0.396-0.938-0.667-1.535-0.812c-0.598-0.144-1.271-0.216-2.021-0.216
	c-0.664,0-1.393,0.09-2.184,0.271c-0.793,0.181-1.471,0.4-2.033,0.659c-0.346-0.331-0.818-0.569-1.416-0.714
	c-0.6-0.144-1.273-0.216-2.023-0.216c-0.635,0-1.268,0.058-1.902,0.173l-2.465,0.454v11.635h1.535v-10.38
	c0.447-0.102,0.883-0.188,1.309-0.26c0.424-0.072,0.896-0.108,1.416-0.108c0.605,0,1.125,0.058,1.557,0.173
	c0.434,0.116,0.789,0.321,1.07,0.616c0.281,0.296,0.494,0.711,0.639,1.244s0.217,1.24,0.217,2.119v6.596h1.535v-7.201
	c0-0.663-0.055-1.243-0.162-1.741c-0.109-0.497-0.213-0.861-0.314-1.092c0.086-0.043,0.281-0.119,0.584-0.228
	c0.303-0.107,0.602-0.197,0.898-0.27c0.295-0.072,0.586-0.126,0.875-0.162s0.547-0.055,0.779-0.055c0.59,0,1.102,0.058,1.535,0.173
	c0.432,0.116,0.781,0.317,1.049,0.605c0.266,0.289,0.471,0.703,0.615,1.244c0.145,0.54,0.217,1.251,0.217,2.13v6.596h1.535v-7.201
	c0-0.995-0.111-1.816-0.336-2.466C383.482,481.393,383.158,480.87,382.732,480.474z M280.1,474.581
	c-0.785,0.648-1.18,1.729-1.18,3.243v1.86h-2.551v1.492h2.551v10.531h1.537v-10.531h4.973v-1.492h-4.973v-1.471
	c0-0.635,0.045-1.149,0.141-1.546c0.094-0.396,0.24-0.707,0.443-0.931c0.201-0.223,0.475-0.385,0.82-0.486
	c0.346-0.101,0.779-0.151,1.299-0.151h2.422v-1.492h-2.271C281.956,473.607,280.885,473.932,280.1,474.581z M398.273,487.825
	l3.057,3.057l3.057-3.057l-3.057-3.057L398.273,487.825z M343.322,482.322c0.389-0.418,0.854-0.749,1.395-0.994
	s1.135-0.368,1.783-0.368c0.736,0,1.373,0.076,1.914,0.228s1.121,0.414,1.74,0.789l0.715-1.405c-0.707-0.39-1.393-0.674-2.055-0.854
	c-0.664-0.181-1.436-0.271-2.314-0.271c-0.85,0-1.639,0.155-2.367,0.465c-0.729,0.311-1.367,0.746-1.914,1.309
	c-0.549,0.563-0.98,1.222-1.297,1.979c-0.317,0.757-0.476,1.59-0.476,2.498s0.158,1.74,0.476,2.497
	c0.316,0.757,0.748,1.413,1.297,1.969c0.547,0.555,1.186,0.987,1.914,1.297c0.729,0.311,1.518,0.465,2.367,0.465
	c0.879,0,1.65-0.09,2.314-0.27c0.662-0.181,1.348-0.466,2.055-0.854l-0.715-1.406c-0.619,0.375-1.199,0.639-1.74,0.79
	s-1.178,0.227-1.914,0.227c-0.648,0-1.242-0.119-1.783-0.356c-0.541-0.238-1.006-0.565-1.395-0.984
	c-0.391-0.418-0.693-0.915-0.908-1.492c-0.217-0.576-0.324-1.203-0.324-1.881s0.107-1.305,0.324-1.882
	C342.628,483.238,342.931,482.741,343.322,482.322z M404.387,487.825l1.949,1.95l1.951-1.95l-1.951-1.95L404.387,487.825z
	 M410.701,487.326l-0.664,0.433l0.633,0.564l241.176-0.341L410.701,487.326z M362.611,481.295c-0.549-0.569-1.193-1.02-1.936-1.352
	c-0.742-0.331-1.547-0.497-2.412-0.497c-0.863,0-1.668,0.166-2.41,0.497c-0.742,0.332-1.389,0.782-1.936,1.352
	c-0.549,0.57-0.977,1.229-1.287,1.979c-0.311,0.749-0.465,1.557-0.465,2.422s0.154,1.672,0.465,2.422s0.738,1.409,1.287,1.979
	c0.547,0.569,1.193,1.017,1.936,1.341s1.547,0.486,2.41,0.486c0.865,0,1.67-0.162,2.412-0.486s1.387-0.771,1.936-1.341
	c0.547-0.569,0.977-1.229,1.287-1.979c0.309-0.75,0.465-1.557,0.465-2.422s-0.156-1.673-0.465-2.422
	C363.587,482.524,363.158,481.865,362.611,481.295z M362.394,487.523c-0.217,0.569-0.52,1.067-0.908,1.492
	c-0.389,0.426-0.857,0.765-1.406,1.017c-0.547,0.252-1.152,0.378-1.816,0.378c-0.662,0-1.268-0.126-1.816-0.378
	c-0.547-0.252-1.016-0.591-1.404-1.017c-0.391-0.425-0.693-0.923-0.908-1.492c-0.217-0.569-0.324-1.179-0.324-1.827
	c0-0.649,0.107-1.262,0.324-1.839c0.215-0.576,0.518-1.077,0.908-1.503c0.389-0.425,0.857-0.764,1.404-1.016
	c0.549-0.252,1.154-0.379,1.816-0.379c0.664,0,1.27,0.127,1.816,0.379c0.549,0.252,1.018,0.591,1.406,1.016
	c0.389,0.426,0.691,0.927,0.908,1.503c0.217,0.577,0.324,1.189,0.324,1.839C362.718,486.345,362.611,486.954,362.394,487.523z
	 M296.221,481.295c-0.547-0.569-1.191-1.02-1.936-1.352c-0.742-0.331-1.545-0.497-2.41-0.497s-1.67,0.166-2.412,0.497
	c-0.742,0.332-1.387,0.782-1.936,1.352c-0.547,0.57-0.977,1.229-1.285,1.979c-0.311,0.749-0.465,1.557-0.465,2.422
	s0.154,1.672,0.465,2.422c0.309,0.75,0.738,1.409,1.285,1.979c0.549,0.569,1.193,1.017,1.936,1.341s1.547,0.486,2.412,0.486
	s1.668-0.162,2.41-0.486c0.744-0.324,1.389-0.771,1.936-1.341c0.549-0.569,0.977-1.229,1.287-1.979s0.465-1.557,0.465-2.422
	s-0.154-1.673-0.465-2.422C297.198,482.524,296.77,481.865,296.221,481.295z M296.006,487.523c-0.217,0.569-0.52,1.067-0.908,1.492
	c-0.391,0.426-0.859,0.765-1.406,1.017c-0.549,0.252-1.154,0.378-1.816,0.378c-0.664,0-1.27-0.126-1.816-0.378
	c-0.549-0.252-1.018-0.591-1.406-1.017c-0.389-0.425-0.691-0.923-0.908-1.492s-0.324-1.179-0.324-1.827
	c0-0.649,0.107-1.262,0.324-1.839c0.217-0.576,0.52-1.077,0.908-1.503c0.389-0.425,0.857-0.764,1.406-1.016
	c0.547-0.252,1.152-0.379,1.816-0.379c0.662,0,1.268,0.127,1.816,0.379c0.547,0.252,1.016,0.591,1.406,1.016
	c0.389,0.426,0.691,0.927,0.908,1.503c0.215,0.577,0.324,1.189,0.324,1.839C296.331,486.345,296.221,486.954,296.006,487.523z
	 M309.381,480.463c-0.455-0.39-0.996-0.656-1.623-0.801c-0.627-0.144-1.309-0.216-2.043-0.216c-0.707,0-1.465,0.047-2.271,0.141
	s-1.701,0.234-2.682,0.422v11.699h1.535v-10.402c1.184-0.23,2.293-0.346,3.33-0.346c0.592,0,1.111,0.062,1.559,0.184
	c0.445,0.123,0.818,0.332,1.113,0.628c0.295,0.295,0.525,0.713,0.691,1.254s0.25,1.251,0.25,2.13v6.553h1.535v-7.201
	c0-0.995-0.119-1.82-0.357-2.477C310.18,481.375,309.834,480.852,309.381,480.463z M318.516,490.054
	c-0.346-0.108-0.619-0.277-0.82-0.509c-0.203-0.23-0.35-0.547-0.443-0.951c-0.096-0.403-0.141-0.922-0.141-1.557v-5.86h4.973v-1.492
	h-4.973v-4.347h-1.537v4.347h-2.551v1.492h2.551v6.466c0,0.764,0.109,1.405,0.326,1.925c0.215,0.519,0.525,0.937,0.93,1.254
	c0.402,0.317,0.867,0.544,1.395,0.682c0.525,0.137,1.105,0.205,1.74,0.205h2.271v-1.492h-2.422
	C319.295,490.216,318.862,490.162,318.516,490.054z M337.784,489.589c-0.316,0-0.59,0.115-0.82,0.346s-0.346,0.505-0.346,0.822
	c0,0.316,0.115,0.591,0.346,0.821s0.504,0.346,0.82,0.346c0.318,0,0.592-0.115,0.822-0.346s0.346-0.505,0.346-0.821
	c0-0.317-0.115-0.592-0.346-0.822S338.102,489.589,337.784,489.589z M333.178,486.106c-0.346-0.303-0.785-0.565-1.318-0.789
	c-0.533-0.223-1.182-0.422-1.947-0.595l-0.799-0.173c-1.053-0.216-1.781-0.461-2.184-0.735c-0.404-0.273-0.607-0.678-0.607-1.211
	c0-0.504,0.238-0.904,0.715-1.2c0.475-0.295,1.174-0.443,2.098-0.443c0.793,0,1.477,0.076,2.055,0.228
	c0.576,0.151,1.217,0.421,1.924,0.811l0.691-1.405c-1.412-0.765-2.969-1.146-4.67-1.146c-0.635,0-1.223,0.076-1.764,0.228
	c-0.539,0.151-1.008,0.364-1.404,0.638s-0.711,0.605-0.941,0.994c-0.23,0.39-0.346,0.815-0.346,1.276
	c0,0.462,0.072,0.88,0.217,1.254c0.143,0.375,0.381,0.707,0.713,0.995s0.758,0.537,1.275,0.746c0.52,0.209,1.146,0.4,1.883,0.573
	l0.908,0.194c1.008,0.217,1.729,0.49,2.162,0.822c0.432,0.331,0.648,0.771,0.648,1.318c0,0.39-0.086,0.707-0.26,0.952
	c-0.172,0.245-0.414,0.436-0.725,0.573c-0.311,0.137-0.678,0.237-1.102,0.303c-0.426,0.064-0.877,0.097-1.352,0.097
	c-0.592,0-1.223-0.09-1.893-0.271c-0.67-0.18-1.352-0.479-2.045-0.897l-0.734,1.471c0.779,0.433,1.539,0.742,2.281,0.93
	s1.539,0.281,2.391,0.281c0.748,0,1.434-0.072,2.053-0.216c0.621-0.145,1.158-0.36,1.611-0.648c0.455-0.289,0.805-0.649,1.049-1.082
	c0.246-0.433,0.369-0.93,0.369-1.492c0-0.476-0.072-0.915-0.217-1.318C333.77,486.763,333.526,486.41,333.178,486.106z"/>
</svg>

