<?xml version="1.0" encoding="utf-8"?>
<!-- Generator: Adobe Illustrator 23.0.0, SVG Export Plug-In . SVG Version: 6.00 Build 0)  -->
<svg version="1.1" id="Layer_1" xmlns="http://www.w3.org/2000/svg" xmlns:xlink="http://www.w3.org/1999/xlink" x="0px" y="0px"
	 viewBox="0 0 800 500" style="enable-background:new 0 0 800 500;" xml:space="preserve">
<g id="XMLID_419_">
	<path fill="#000000" id="XMLID_405_" d="M494.68,345.24c-1.93,2.31-3.85,4.62-5.78,6.93h-40.57c-0.05-0.09-0.12-0.15-0.23-0.17
		c-11-1.62-21.77-2.34-31.65-7.95c-9.27-5.26-16.43-15.05-15.39-26.01c1.01-10.64,15.45-11.75,24.21-11.94
		c5.55-0.11,11.14,0.68,16.36,2.58c2.33,0.84,4.18,2.27,5.93,4c0.56,0.55,1.14,1.26,1.61,2.02c-1.73,1.35-3.26,3.48-4.31,4.92
		c-0.16,0.21-3.6,5.6-1.67,5.13c6.32-1.54,12.11-8.19,14.97-13.74c3.73-7.24-3.44-12.2-9.85-14.23
		c-13.86-4.39-31.47-2.19-42.38,7.77c-11.54,10.53-19.32,25.29-10.16,39.85c1.98,3.15,4.35,5.68,6.99,7.77h-19.93V224.34
		c-0.01-0.45-0.23-0.63-0.66-0.55h-10.54c-2.32,0-5.38,4.51-6.52,6.07c-0.33,0.45-3.7,5.13-1.68,5.13h6.65h3.48
		c-0.38,0-0.25,7.66-0.25,8.86v39.92v75.07c-0.94,1.37-2.91,4.53-1.25,4.53h1.27c0.05,0.68,0.7,0.5,1.51,0h58.02h32.6h14.89
		c3.7,0,5.7-2.73,7.94-5.42c2.96-3.55,5.91-7.1,8.87-10.65c0.56-0.67,4.67-5.46,3.35-6.56C499.2,339.66,495.24,344.57,494.68,345.24
		"/>
	<path fill="#000000" id="XMLID_404_" d="M377.1,174.85c1.63-1.73,4.78-4.9,4.78-7.52V45.66c0-2-4.51,2.35-4.73,2.59c-1.63,1.73-4.78,4.9-4.78,7.52
		v121.67C372.36,179.44,376.88,175.08,377.1,174.85"/>
	<path fill="#000000" id="XMLID_401_" d="M290.93,166.22v6.08c-0.02,0.03-0.04,0.06-0.06,0.08c-0.33,0.45-3.7,5.13-1.68,5.13h57.01
		c2.32,0,5.38-4.51,6.52-6.08c0.25-0.34,2.29-3.18,2.3-4.48c0.31-0.68,0.51-1.37,0.51-2.01V84.46c0-2-4.52,2.36-4.74,2.59
		c-1.63,1.73-4.78,4.9-4.78,7.52v71.73H328.2c0.01-0.14,0.03-0.27,0.03-0.4V81.58c0-2-4.52,2.36-4.74,2.59
		c-1.62,1.73-4.78,4.9-4.78,7.52v74.61h-18.52c0.16-0.46,0.25-0.92,0.25-1.36V90.69c0-0.33-0.13-0.47-0.32-0.5
		c4.38-6.99,7.55-14.6,8.02-22.84c0.8-13.95-10.76-24.62-23.35-27.92c-3.69-0.96-9.7,10.92-9.19,11.06
		c15.57,4.07,26.25,17.62,21.92,33.95c-2.31,8.71-8.54,15.52-14.51,21.95c-6.18,6.65-12.55,13.12-18.15,20.29
		c-8.78,11.22-20.5,28.53-9.41,41.91C265.14,180.27,280.65,173.91,290.93,166.22 M268.38,127.43c5.15-6.59,11.22-12.43,16.87-18.58
		c1.88-2.05,3.8-4.18,5.67-6.38v57.78c-5.04,2.8-10.81,4.22-16.53,2.97c-6.37-1.39-11.36-6.08-13.43-12.19
		C258.17,142.79,263.44,133.74,268.38,127.43"/>
	<path fill="#000000" id="XMLID_398_" d="M243.86,209.01c14.22,1.83,32.08,3.21,46.41,3.79c24.73,1,50.17-1.06,74.77-3.5
		c23.05-2.28,43.9-5.66,66.05-12.6c8.71-2.73,19.77-6.19,27.49-11.1c0.5-0.32,0.98-0.68,1.45-1.06v24.53c0,2,4.52-2.35,4.74-2.59
		c0.07-0.07,0.14-0.14,0.21-0.22h116.1v1.05c0,1.22,1.67,0.08,3.03-1.05h59.59c2.32,0,5.37-4.52,6.51-6.07
		c0.13-0.18,0.71-0.98,1.26-1.91c1.67-1.79,3.84-4.35,3.81-6.49c-0.06-6.96-2.86-13.09-5.99-19.16c-3.93-7.61-7.84-15.21-11.59-22.9
		c-3.69-7.56-7.32-15.18-10.66-22.9c-3.22-7.43-5.97-16.81-2.53-24.67c0.97-2.23,0.37-3.1-1.76-1.46c-2.52,1.94-5.21,4.87-6.49,7.82
		c-6.72,15.38,1.72,30.04,8.27,43.94c3.93,8.35,8.04,16.63,12.26,24.84c2.97,5.79,6.41,11.52,8.04,17.77h-54.22v-71.84
		c0.85-1.22,1.51-2.53,1.59-3.78c0.53-9.13-23.02,3.63-26.52,5.34c-11.41,5.56-21.92,11.72-28.31,23.09
		c-6.55,11.62,5.34,22.46,12.82,29.75c6.33,6.17,13.03,11.97,19.97,17.44h-56.82c1.61-1.77,3.51-4.13,3.51-6.16v-74.63
		c0.14-0.37,0.22-0.73,0.16-1.01c-1.07-4.99-6.15-5.62-10.47-5.79c-0.91-0.03-2.3,1.42-2.85,1.92c-1.35,1.25-2.58,2.67-3.66,4.15
		c-0.36,0.5-3.69,5.05-1.67,5.13c3.18,0.12,7.82,0.61,9,4.17c-0.01,0.05-0.02,0.1-0.02,0.16v72.06h-36.17
		c-0.5,0-1.04,0.21-1.58,0.56V58.6c0-0.4-0.18-0.54-0.48-0.52c-0.57-1.26-1.55-2.19-2.87-2.93c-1.82-1.02-4.48-2.01-6.57-1.58
		c-1.06,0.21-2.11,1.23-2.86,1.92c-1.35,1.26-2.57,2.67-3.66,4.16c-0.18,0.25-3.63,5.53-1.68,5.14c1.72-0.35,3.49,0.5,5.05,1.17
		c1.6,0.68,3.21,1.92,3.51,3.72c0.01,0.03,0.02,0.05,0.03,0.08v105.79c-12.52,8.52-34.47,14.73-51.9,17.83
		c-24.08,4.28-46.08,7.03-70.5,8.05c-27.17,1.15-57.98-0.32-84.94-3.79c-26.55-3.41-59.36-14.01-83.67-25.57
		c-8.44-4.02-20.36-9.95-20.53-14.84c-0.08-2.65-6.46,17.38-4.73,18.63c18.78,13.55,38.57,20.23,60.94,25.89
		C218.17,205.15,230.1,207.24,243.86,209.01 M548.19,154.32c-1.45-2.09-2.33-4.43-2.88-6.9c-0.19-1.05-0.26-2.13-0.21-3.19
		c0.19-0.66,0.31-1.16,0.38-1.55c3.68-2.57,8.03-4.54,11.96-6.54c4.34-2.22,8.79-4.22,13.31-6.06c1.57-0.64,7.61-3.67,10.44-2.89
		c-0.08,0.32-0.12,0.62-0.12,0.92v57.23c-4.36-3.38-8.64-6.88-12.79-10.51C561.21,168.63,553.58,162.07,548.19,154.32"/>
	<path fill="#000000" id="XMLID_395_" d="M656.51,359.84c-2.67-16.2-10.56-31.46-23.28-42.03c-11.93-9.91-28.47-12.66-43.5-10.96
		c-7.82,0.88-15.35,3.24-22.5,6.51c0.02-0.02,0.05-0.05,0.06-0.06c1.63-1.73,4.78-4.9,4.78-7.52v-80.96c0-2.01-4.51,2.35-4.73,2.59
		c-1.63,1.73-4.78,4.9-4.78,7.52v80.72c-5.8,3.02-11.32,6.57-16.52,10.37c-9.78,7.12-19.82,15.75-26.6,26.16h-0.4
		c-0.5,0-1.03,0.22-1.58,0.56V229.13c0-0.39-0.18-0.53-0.48-0.51c-0.57-1.27-1.55-2.2-2.87-2.94c-1.82-1.01-4.48-2-6.57-1.58
		c-1.06,0.21-2.1,1.23-2.85,1.92c-1.35,1.26-2.57,2.66-3.66,4.16c-0.18,0.25-3.63,5.52-1.68,5.13c1.72-0.35,3.49,0.5,5.05,1.17
		c1.6,0.68,3.21,1.93,3.51,3.73c0,0.03,0.02,0.05,0.03,0.08V368.1c0,2,4.52-2.36,4.74-2.59c0.45-0.48,1.02-1.08,1.61-1.75
		c0.28,0.01,0.69-0.15,1.12-0.38h128.28c0.55,0,1.13-0.26,1.72-0.66c0.65,2.38,1.18,4.78,1.59,7.23c0.32,1.99,4.38-2.21,4.74-2.59
		C653.09,365.92,656.89,362.16,656.51,359.84 M524.1,352.17c2.43-4.89,6.6-8.36,10.82-11.89c5.49-4.61,11.36-8.7,17.57-12.25
		c12.12-6.93,25.71-10.78,39.7-10.45c22.76,0.55,40.47,15.12,49.37,34.59H524.1z"/>
	<path fill="#000000" id="XMLID_394_" d="M349.55,306.31c-2.51-6.77-5.44-13.61-7-20.67c-0.61-2.77-0.88-5.62-1.1-8.44
		c-0.1-1.34-0.09-2.64-0.01-3.97c0.1-1.73,1.21-3.42,0.61-2.86c1.48-1.68,3.03-3.72,3.04-5.61c0.02-1.99-4.51,2.34-4.74,2.59
		c-4.52,5.1-8.11,10.37-8.52,17.35c-0.4,6.88,1.8,13.78,4.03,20.17c5.53,15.85,11.75,31.45,17.25,47.31h-26.87
		c1.87-2.44,3.31-5.15,3.71-8.24c0.56-4.29-0.97-9.61-1.89-13.76c-0.94-4.19-2.33-8.26-3.91-12.24
		c-6.65-16.79-19.5-30.49-35.92-37.95c-7.55-3.42-15.82-5.12-24.07-5.43c-2.02-0.08-4.29,0.49-3.57-1.91
		c1.14-0.95,2.36-1.81,3.55-2.69c4.21-3.12,8.42-6.22,12.65-9.3c15.74-11.48,31.77-22.55,48.13-33.15c2.74-1.78,5-4.44,6.73-7.19
		c0.36-0.57,2.58-5.1-0.06-3.4c-15.62,10.12-30.95,20.64-46.03,31.54c-7.51,5.42-15.57,10.58-22.45,16.78
		c-5.66,5.11-11.96,12.02-12.34,20.04c0,0.44,0.22,0.62,0.66,0.54c20.69-0.78,39.93,8.85,52.87,24.8c6.65,8.2,11.19,18,13.88,28.16
		c1.15,4.36,1.89,8.89,2.17,13.4H241.2c7.8-7.84,13.3-18.71,15.12-28.25c4.02-21.09-6.05-44.07-27.52-50.7
		c-2.96-0.92-6.07-1.33-9.17-1.48c-0.09-0.03-0.2-0.06-0.33-0.06c-0.23,0-0.46,0.02-0.69,0.02c-0.25-0.01-0.5-0.02-0.75-0.02
		c-0.16-0.01-0.33,0.02-0.49,0.06c-24.7,1.19-46.14,22.62-49.38,46.97c-0.06,0.45,0.17,0.55,0.53,0.45
		c-0.43,0.82-0.71,1.65-0.71,2.43v78.6c0,2,4.51-2.35,4.74-2.59c1.62-1.73,4.78-4.9,4.78-7.52v-78.6c0-0.47-0.25-0.58-0.63-0.49
		c0.4-0.79,0.7-1.58,0.81-2.39c0.63-4.71,1.93-9.13,4.1-13.35c1.99-3.87,6.6-5.7,10.08-8c5.25-3.47,12.1-4.24,18.29-4.34
		c18.12,0.47,32.34,13.64,36.64,30.9c2.24,8.99,1.29,18.67-2.02,27.25c-2.91,7.58-10.22,10.7-18.36,10.69
		c-13.99-0.03-25.3-11.44-29.18-24.14c-1.85-6.03-2.1-12.73-0.59-18.86c1.6-6.47,4.56-9.03,10.58-11.79
		c2.76-1.27,5.18-4.72,6.73-7.19c0.55-0.87,2.65-4.64-0.06-3.39c-16.06,7.37-28.56,24.99-27.66,42.94
		c0.79,15.99,12.07,30.75,28.21,33.28c1.95,0.31,3.87,0.39,5.76,0.26c0.03,0.32,0.21,0.52,0.63,0.52h92.24
		c0.22,0.12,0.5,0.11,0.81,0h32.93c2.31,0,5.38-4.51,6.52-6.08c0.17-0.23,1.13-1.56,1.75-2.81c2.66-1.19,9.35-7.61,8.49-10.12
		C359.07,331.59,354.24,318.98,349.55,306.31"/>
	<path fill="#000000" id="XMLID_393_" d="M516.66,65.62h-36.13c-0.82,0-1.91,1.6-2.31,2.15c-0.11,0.16-1.3,1.82-0.59,1.82h36.13
		c0.82,0,1.9-1.6,2.31-2.16C516.18,67.29,517.37,65.62,516.66,65.62"/>
	<path fill="#000000" id="XMLID_392_" d="M639.08,275.73h-50c-1.13,0-2.63,2.21-3.19,2.98c-0.16,0.22-1.81,2.51-0.82,2.51h50
		c1.14,0,2.64-2.21,3.2-2.98C638.42,278.03,640.07,275.73,639.08,275.73"/>
	<path fill="#000000" id="XMLID_391_" d="M473.94,265h-66.1c-1.13,0-2.63,2.21-3.19,2.97c-0.16,0.22-1.81,2.52-0.82,2.52h66.1
		c1.14,0,2.64-2.21,3.2-2.97C473.28,267.29,474.93,265,473.94,265"/>
	<path fill="#000000" id="XMLID_390_" d="M352.7,376.14h-66.1c-1.13,0-2.63,2.21-3.19,2.98c-0.16,0.22-1.81,2.52-0.82,2.52h66.1
		c1.14,0,2.64-2.21,3.2-2.98C352.04,378.43,353.69,376.14,352.7,376.14"/>
	<path fill="#000000" id="XMLID_389_" d="M502.83,78.14c-0.56,0.6-1.65,1.69-1.65,2.6V92.1h-5.99V77.9c0-0.69-1.56,0.81-1.63,0.89
		c-0.57,0.59-1.65,1.69-1.65,2.59v11.29h-6.9V78.73c0-0.69-1.55,0.81-1.63,0.9c-0.57,0.6-1.65,1.69-1.65,2.59v14.31
		c0,0.27,0.23,0.2,0.52,0.03h10.21c0.32,0,0.68-0.25,1.02-0.58h7.84c0.8,0,1.85-1.56,2.25-2.09c0.1-0.14,1.02-1.42,0.75-1.71
		c0.08-0.21,0.14-0.42,0.14-0.62v-14.3C504.46,76.55,502.9,78.06,502.83,78.14"/>
	<path fill="#000000" id="XMLID_388_" d="M339.9,56.03c-0.56,0.6-1.65,1.69-1.65,2.6V70h-5.99V55.8c0-0.69-1.55,0.81-1.63,0.9
		c-0.56,0.59-1.65,1.69-1.65,2.59v11.29h-6.89V56.63c0-0.69-1.56,0.81-1.63,0.89c-0.56,0.6-1.65,1.69-1.65,2.6v14.3
		c0,0.26,0.23,0.2,0.52,0.02h10.21c0.32,0,0.68-0.25,1.02-0.57h7.84c0.8,0,1.85-1.56,2.25-2.1c0.1-0.14,1.02-1.41,0.75-1.71
		c0.09-0.21,0.14-0.42,0.14-0.61v-14.3C341.53,54.45,339.98,55.96,339.9,56.03"/>
	<path fill="#000000" id="XMLID_387_" d="M624.9,244.36c-1.13,1.43-1.71,3.55-2,5.31c0.32-1.95-0.07-0.45-1.01,0.25c-0.89,0.65-2.01,0.76-3.08,0.75
		c-2.06-0.03-3.26-1.56-3.94-3.31c-1.79-4.59-0.07-9.24,1.55-13.54c0.49-1.29,1.47-3.65,0.9-5.06c-0.44-1.07-1.89,2.25-1.96,2.42
		c-2.82,7.45-6.65,17.37-2.68,25.1c1.56,3.05,5.58,2.69,7.94,0.95c3.18-2.33,4.46-7.43,5.07-11.07
		C625.75,245.69,626,242.96,624.9,244.36"/>
	<path fill="#000000" id="XMLID_386_" d="M435.3,133.21c-1.44,1.83-2.19,4.54-2.56,6.8c0.41-2.5-0.09-0.57-1.3,0.32c-1.14,0.84-2.57,0.99-3.94,0.97
		c-2.64-0.04-4.17-2-5.05-4.25c-2.29-5.88-0.1-11.83,1.99-17.35c0.63-1.65,1.88-4.68,1.14-6.47c-0.55-1.37-2.42,2.88-2.51,3.1
		c-3.61,9.54-8.52,22.25-3.44,32.15c2,3.91,7.15,3.44,10.17,1.23c4.08-2.99,5.72-9.52,6.49-14.19
		C436.4,134.92,436.71,131.42,435.3,133.21"/>
	<path fill="#000000" id="XMLID_385_" d="M496.88,148.37c-1.45,1.83-2.19,4.54-2.57,6.8c0.41-2.5-0.09-0.57-1.3,0.32
		c-1.14,0.84-2.58,0.99-3.94,0.96c-2.64-0.04-4.17-2-5.05-4.25c-2.29-5.88-0.1-11.82,1.99-17.35c0.63-1.65,1.88-4.68,1.15-6.48
		c-0.55-1.37-2.42,2.88-2.51,3.1c-3.61,9.55-8.53,22.25-3.44,32.15c2,3.91,7.15,3.44,10.17,1.23c4.08-2.99,5.72-9.52,6.49-14.18
		C497.97,150.08,498.29,146.58,496.88,148.37"/>
	<path fill="#000000" id="XMLID_384_" d="M549.92,270.56c-1.45,1.83-2.19,4.54-2.57,6.8c0.41-2.5-0.09-0.57-1.3,0.32
		c-1.15,0.84-2.58,0.99-3.95,0.97c-2.64-0.04-4.17-2-5.05-4.25c-2.3-5.88-0.1-11.82,1.99-17.35c0.62-1.65,1.87-4.68,1.14-6.48
		c-0.55-1.37-2.42,2.88-2.51,3.1c-3.61,9.54-8.52,22.25-3.44,32.15c2,3.91,7.15,3.44,10.17,1.23c4.08-2.99,5.72-9.52,6.49-14.19
		C551.01,272.27,551.33,268.78,549.92,270.56"/>
	<path fill="#000000" id="XMLID_383_" d="M220.66,82.71c-1.35,1.71-2.05,4.26-2.4,6.37c0.39-2.34-0.08-0.53-1.22,0.3c-1.07,0.79-2.41,0.92-3.69,0.9
		c-2.48-0.04-3.91-1.87-4.74-3.98c-2.14-5.51-0.09-11.07,1.87-16.25c0.59-1.55,1.75-4.38,1.07-6.07c-0.52-1.28-2.27,2.7-2.35,2.91
		c-3.38,8.94-7.99,20.84-3.22,30.11c1.88,3.67,6.7,3.23,9.53,1.15c3.82-2.8,5.36-8.91,6.09-13.29
		C221.68,84.31,221.98,81.04,220.66,82.71"/>
	<path fill="#000000" id="XMLID_382_" d="M438.46,235.51c-1.45,1.83-2.2,4.54-2.57,6.8c0.41-2.49-0.08-0.57-1.3,0.32
		c-1.14,0.84-2.58,0.99-3.95,0.97c-2.64-0.04-4.17-2-5.05-4.25c-2.29-5.88-0.1-11.83,1.99-17.35c0.63-1.65,1.87-4.67,1.14-6.48
		c-0.55-1.37-2.42,2.88-2.51,3.1c-3.61,9.55-8.52,22.25-3.44,32.16c2,3.91,7.15,3.44,10.17,1.23c4.08-2.99,5.72-9.52,6.49-14.19
		C439.56,237.23,439.87,233.72,438.46,235.51"/>
	
		<rect id="XMLID_381_" x="593.11" y="75.05" transform="matrix(0.7069 -0.7073 0.7073 0.7069 118.3662 447.2739)" width="11.52" height="11.52"/>
	
		<rect id="XMLID_380_" x="609.21" y="75.05" transform="matrix(0.7071 -0.7071 0.7071 0.7071 122.9731 458.517)" width="11.52" height="11.52"/>
	
		<rect id="XMLID_379_" x="548.59" y="75.05" transform="matrix(0.7069 -0.7073 0.7073 0.7069 105.3173 415.784)" width="11.52" height="11.52"/>
	
		<rect id="XMLID_378_" x="564.69" y="75.05" transform="matrix(0.7071 -0.7071 0.7071 0.7071 109.933 427.0357)" width="11.52" height="11.52"/>
	
		<rect id="XMLID_377_" x="313.36" y="246.82" transform="matrix(0.7073 -0.707 0.707 0.7073 -85.141 299.5488)" width="11.52" height="11.52"/>
	
		<rect id="XMLID_376_" x="326.62" y="246.82" transform="matrix(0.7071 -0.7071 0.7071 0.7071 -81.2472 309.0082)" width="11.52" height="11.52"/>
	
		<rect id="XMLID_375_" x="463.96" y="217.76" transform="matrix(0.7071 -0.7071 0.7071 0.7071 -22.0493 401.4052)" width="19.12" height="19.12"/>
	<path fill="#000000" id="XMLID_374_" d="M227.46,231.14c0.04-0.43-0.11-0.72-0.59-0.72h-29.44c-2.18,0-5.06,4.25-6.13,5.72
		c-0.31,0.42-3.47,4.83-1.58,4.83h24.01c-2.33,1.34-4.67,2.65-6.93,4c-2.6,1.55-4.74,4.24-6.33,6.76c-0.38,0.6-2.45,4.7,0.05,3.2
		c7.89-4.72,16.23-9.08,22.85-15.57c2.11-2.08,4.52-4.59,5.48-7.46C229.4,230.32,228.46,230.55,227.46,231.14"/>
	<path fill="#000000" id="XMLID_373_" d="M230.08,117.94c-1.69,0.94-2.97,2.73-4.03,4.3c-3.16,4.68-4.83,10.35-6.79,15.6
		c-0.82,2.21-1.64,4.42-2.46,6.63c-0.47-4.85-1.12-9.68-1.97-14.48c-1.01-5.84-2.93-10.79-8.22-14c-0.09-0.06-0.19-0.08-0.3-0.08
		c-0.06-0.03-0.12-0.05-0.2-0.05c-2.43-0.12-4.85-0.16-7.28-0.15c-0.56,0-1.36,0.83-1.71,1.15c-0.81,0.75-1.54,1.6-2.19,2.49
		c-0.19,0.27-2.21,3.08-1.01,3.08c2.39-0.03,4.77,0.03,7.14,0.14c0.01,0.01,0.03,0.03,0.04,0.04c5.53,3.37,7.16,8.48,8.22,14.56
		c1.16,6.68,1.9,13.43,2.32,20.19c0.09,1.36,4.58-3.72,4.88-4.17c3.06-4.54,4.48-10.33,6.37-15.43c1.11-3,2.22-6.01,3.35-9.01
		c1.11-2.94,2.08-6.15,3.85-8.77C230.4,119.56,231.68,117.05,230.08,117.94"/>
</g>
<path fill="#000000" d="M273.602,481.306c-0.578-0.576-1.301-1.03-2.174-1.362c-0.873-0.331-1.885-0.497-3.039-0.497
	c-0.663,0-1.463,0.079-2.4,0.238v-6.077h-1.535v17.711c0.706,0.202,1.402,0.354,2.087,0.454s1.301,0.151,1.849,0.151
	c1.153,0,2.166-0.162,3.039-0.486s1.596-0.764,2.174-1.319c0.576-0.555,1.006-1.211,1.287-1.968s0.42-1.561,0.42-2.411
	s-0.139-1.657-0.42-2.422C274.608,482.554,274.178,481.883,273.602,481.306z M272.391,489.167c-0.852,0.829-2.17,1.243-3.958,1.243
	c-0.39,0-0.805-0.032-1.244-0.097c-0.439-0.065-0.84-0.134-1.2-0.206v-8.845c0.447-0.115,0.887-0.194,1.319-0.237
	c0.433-0.044,0.808-0.065,1.125-0.065c0.894,0,1.668,0.112,2.325,0.335c0.656,0.224,1.199,0.545,1.633,0.963
	c0.432,0.418,0.752,0.919,0.961,1.503s0.314,1.243,0.314,1.979C273.667,487.195,273.241,488.338,272.391,489.167z M247.392,479.446
	c-0.62,0-1.297,0.079-2.033,0.238c-0.735,0.158-1.485,0.433-2.249,0.821l-0.065,1.73c0.548-0.303,0.973-0.52,1.276-0.649
	s0.624-0.237,0.962-0.324c0.338-0.086,0.677-0.158,1.016-0.216s0.667-0.087,0.984-0.087c1.139,0,1.982,0.249,2.53,0.746
	s0.822,1.33,0.822,2.498v0.13c-0.332-0.044-0.732-0.087-1.2-0.13c-0.469-0.043-0.876-0.065-1.222-0.065
	c-1.831,0-3.302,0.311-4.412,0.931c-1.11,0.619-1.665,1.644-1.665,3.07c0,0.707,0.155,1.305,0.465,1.795
	c0.31,0.49,0.713,0.88,1.211,1.168s1.067,0.497,1.708,0.627c0.641,0.13,1.308,0.194,2,0.194c0.807,0,1.6-0.072,2.378-0.216
	c0.779-0.145,1.536-0.368,2.271-0.671v-7.028c0-1.585-0.397-2.742-1.189-3.471C250.189,479.811,248.992,479.446,247.392,479.446z
	 M250.636,489.892c-0.375,0.144-0.858,0.267-1.449,0.367c-0.591,0.102-1.183,0.151-1.773,0.151c-0.505,0-0.984-0.035-1.438-0.108
	c-0.454-0.071-0.84-0.197-1.157-0.378c-0.317-0.18-0.57-0.414-0.757-0.703c-0.188-0.288-0.281-0.663-0.281-1.124
	c0-0.52,0.111-0.934,0.335-1.244c0.224-0.31,0.533-0.551,0.93-0.724c0.396-0.174,0.85-0.296,1.362-0.368
	c0.511-0.072,1.041-0.108,1.589-0.108c0.476,0,0.984,0.029,1.524,0.087c0.541,0.058,0.912,0.108,1.114,0.151V489.892z
	 M258.032,479.868c-0.649,0.122-1.276,0.263-1.881,0.422v11.418h1.535v-10.186c0.202-0.072,0.563-0.147,1.082-0.228
	c0.519-0.079,1.002-0.118,1.449-0.118h1.989v-1.492H260C259.336,479.685,258.681,479.746,258.032,479.868z M-77.92,487.667
	l241.145,0.656l0.663-0.433l-0.632-0.564L-77.92,487.667z M164.994,487.825l1.95,1.95l1.95-1.95l-1.95-1.95L164.994,487.825z
	 M169.559,487.825l3.057,3.057l3.057-3.057l-3.057-3.057L169.559,487.825z M212.359,489.286l-3.395-9.602h-1.514l-3.396,9.602
	l-2.984-9.602h-1.73l3.979,12.023h1.428l3.46-9.645l3.46,9.645h1.427l3.979-12.023h-1.73L212.359,489.286z M238.418,489.589
	c-0.317,0-0.591,0.115-0.822,0.346c-0.231,0.23-0.346,0.505-0.346,0.822c0,0.316,0.115,0.591,0.346,0.821
	c0.23,0.23,0.504,0.346,0.822,0.346c0.317,0,0.591-0.115,0.822-0.346c0.23-0.23,0.346-0.505,0.346-0.821
	c0-0.317-0.116-0.592-0.346-0.822C239.009,489.704,238.735,489.589,238.418,489.589z M193.243,489.286l-3.395-9.602h-1.514
	l-3.396,9.602l-2.984-9.602h-1.73l3.979,12.023h1.428l3.46-9.645l3.46,9.645h1.427l3.979-12.023h-1.73L193.243,489.286z
	 M231.476,489.286l-3.395-9.602h-1.514l-3.396,9.602l-2.984-9.602h-1.73l3.979,12.023h1.428l3.46-9.645l3.46,9.645h1.427
	l3.979-12.023h-1.73L231.476,489.286z M382.732,480.474c-0.426-0.396-0.938-0.667-1.535-0.812c-0.598-0.144-1.271-0.216-2.021-0.216
	c-0.664,0-1.393,0.09-2.184,0.271c-0.793,0.181-1.471,0.4-2.033,0.659c-0.346-0.331-0.818-0.569-1.416-0.714
	c-0.6-0.144-1.273-0.216-2.023-0.216c-0.635,0-1.268,0.058-1.902,0.173l-2.465,0.454v11.635h1.535v-10.38
	c0.447-0.102,0.883-0.188,1.309-0.26c0.424-0.072,0.896-0.108,1.416-0.108c0.605,0,1.125,0.058,1.557,0.173
	c0.434,0.116,0.789,0.321,1.07,0.616c0.281,0.296,0.494,0.711,0.639,1.244s0.217,1.24,0.217,2.119v6.596h1.535v-7.201
	c0-0.663-0.055-1.243-0.162-1.741c-0.109-0.497-0.213-0.861-0.314-1.092c0.086-0.043,0.281-0.119,0.584-0.228
	c0.303-0.107,0.602-0.197,0.898-0.27c0.295-0.072,0.586-0.126,0.875-0.162s0.547-0.055,0.779-0.055c0.59,0,1.102,0.058,1.535,0.173
	c0.432,0.116,0.781,0.317,1.049,0.605c0.266,0.289,0.471,0.703,0.615,1.244c0.145,0.54,0.217,1.251,0.217,2.13v6.596h1.535v-7.201
	c0-0.995-0.111-1.816-0.336-2.466C383.482,481.393,383.158,480.87,382.732,480.474z M280.1,474.581
	c-0.785,0.648-1.18,1.729-1.18,3.243v1.86h-2.551v1.492h2.551v10.531h1.537v-10.531h4.973v-1.492h-4.973v-1.471
	c0-0.635,0.045-1.149,0.141-1.546c0.094-0.396,0.24-0.707,0.443-0.931c0.201-0.223,0.475-0.385,0.82-0.486
	c0.346-0.101,0.779-0.151,1.299-0.151h2.422v-1.492h-2.271C281.956,473.607,280.885,473.932,280.1,474.581z M398.273,487.825
	l3.057,3.057l3.057-3.057l-3.057-3.057L398.273,487.825z M343.322,482.322c0.389-0.418,0.854-0.749,1.395-0.994
	s1.135-0.368,1.783-0.368c0.736,0,1.373,0.076,1.914,0.228s1.121,0.414,1.74,0.789l0.715-1.405c-0.707-0.39-1.393-0.674-2.055-0.854
	c-0.664-0.181-1.436-0.271-2.314-0.271c-0.85,0-1.639,0.155-2.367,0.465c-0.729,0.311-1.367,0.746-1.914,1.309
	c-0.549,0.563-0.98,1.222-1.297,1.979c-0.317,0.757-0.476,1.59-0.476,2.498s0.158,1.74,0.476,2.497
	c0.316,0.757,0.748,1.413,1.297,1.969c0.547,0.555,1.186,0.987,1.914,1.297c0.729,0.311,1.518,0.465,2.367,0.465
	c0.879,0,1.65-0.09,2.314-0.27c0.662-0.181,1.348-0.466,2.055-0.854l-0.715-1.406c-0.619,0.375-1.199,0.639-1.74,0.79
	s-1.178,0.227-1.914,0.227c-0.648,0-1.242-0.119-1.783-0.356c-0.541-0.238-1.006-0.565-1.395-0.984
	c-0.391-0.418-0.693-0.915-0.908-1.492c-0.217-0.576-0.324-1.203-0.324-1.881s0.107-1.305,0.324-1.882
	C342.628,483.238,342.931,482.741,343.322,482.322z M404.387,487.825l1.949,1.95l1.951-1.95l-1.951-1.95L404.387,487.825z
	 M410.701,487.326l-0.664,0.433l0.633,0.564l241.176-0.341L410.701,487.326z M362.611,481.295c-0.549-0.569-1.193-1.02-1.936-1.352
	c-0.742-0.331-1.547-0.497-2.412-0.497c-0.863,0-1.668,0.166-2.41,0.497c-0.742,0.332-1.389,0.782-1.936,1.352
	c-0.549,0.57-0.977,1.229-1.287,1.979c-0.311,0.749-0.465,1.557-0.465,2.422s0.154,1.672,0.465,2.422s0.738,1.409,1.287,1.979
	c0.547,0.569,1.193,1.017,1.936,1.341s1.547,0.486,2.41,0.486c0.865,0,1.67-0.162,2.412-0.486s1.387-0.771,1.936-1.341
	c0.547-0.569,0.977-1.229,1.287-1.979c0.309-0.75,0.465-1.557,0.465-2.422s-0.156-1.673-0.465-2.422
	C363.587,482.524,363.158,481.865,362.611,481.295z M362.394,487.523c-0.217,0.569-0.52,1.067-0.908,1.492
	c-0.389,0.426-0.857,0.765-1.406,1.017c-0.547,0.252-1.152,0.378-1.816,0.378c-0.662,0-1.268-0.126-1.816-0.378
	c-0.547-0.252-1.016-0.591-1.404-1.017c-0.391-0.425-0.693-0.923-0.908-1.492c-0.217-0.569-0.324-1.179-0.324-1.827
	c0-0.649,0.107-1.262,0.324-1.839c0.215-0.576,0.518-1.077,0.908-1.503c0.389-0.425,0.857-0.764,1.404-1.016
	c0.549-0.252,1.154-0.379,1.816-0.379c0.664,0,1.27,0.127,1.816,0.379c0.549,0.252,1.018,0.591,1.406,1.016
	c0.389,0.426,0.691,0.927,0.908,1.503c0.217,0.577,0.324,1.189,0.324,1.839C362.718,486.345,362.611,486.954,362.394,487.523z
	 M296.221,481.295c-0.547-0.569-1.191-1.02-1.936-1.352c-0.742-0.331-1.545-0.497-2.41-0.497s-1.67,0.166-2.412,0.497
	c-0.742,0.332-1.387,0.782-1.936,1.352c-0.547,0.57-0.977,1.229-1.285,1.979c-0.311,0.749-0.465,1.557-0.465,2.422
	s0.154,1.672,0.465,2.422c0.309,0.75,0.738,1.409,1.285,1.979c0.549,0.569,1.193,1.017,1.936,1.341s1.547,0.486,2.412,0.486
	s1.668-0.162,2.41-0.486c0.744-0.324,1.389-0.771,1.936-1.341c0.549-0.569,0.977-1.229,1.287-1.979s0.465-1.557,0.465-2.422
	s-0.154-1.673-0.465-2.422C297.198,482.524,296.77,481.865,296.221,481.295z M296.006,487.523c-0.217,0.569-0.52,1.067-0.908,1.492
	c-0.391,0.426-0.859,0.765-1.406,1.017c-0.549,0.252-1.154,0.378-1.816,0.378c-0.664,0-1.27-0.126-1.816-0.378
	c-0.549-0.252-1.018-0.591-1.406-1.017c-0.389-0.425-0.691-0.923-0.908-1.492s-0.324-1.179-0.324-1.827
	c0-0.649,0.107-1.262,0.324-1.839c0.217-0.576,0.52-1.077,0.908-1.503c0.389-0.425,0.857-0.764,1.406-1.016
	c0.547-0.252,1.152-0.379,1.816-0.379c0.662,0,1.268,0.127,1.816,0.379c0.547,0.252,1.016,0.591,1.406,1.016
	c0.389,0.426,0.691,0.927,0.908,1.503c0.215,0.577,0.324,1.189,0.324,1.839C296.331,486.345,296.221,486.954,296.006,487.523z
	 M309.381,480.463c-0.455-0.39-0.996-0.656-1.623-0.801c-0.627-0.144-1.309-0.216-2.043-0.216c-0.707,0-1.465,0.047-2.271,0.141
	s-1.701,0.234-2.682,0.422v11.699h1.535v-10.402c1.184-0.23,2.293-0.346,3.33-0.346c0.592,0,1.111,0.062,1.559,0.184
	c0.445,0.123,0.818,0.332,1.113,0.628c0.295,0.295,0.525,0.713,0.691,1.254s0.25,1.251,0.25,2.13v6.553h1.535v-7.201
	c0-0.995-0.119-1.82-0.357-2.477C310.18,481.375,309.834,480.852,309.381,480.463z M318.516,490.054
	c-0.346-0.108-0.619-0.277-0.82-0.509c-0.203-0.23-0.35-0.547-0.443-0.951c-0.096-0.403-0.141-0.922-0.141-1.557v-5.86h4.973v-1.492
	h-4.973v-4.347h-1.537v4.347h-2.551v1.492h2.551v6.466c0,0.764,0.109,1.405,0.326,1.925c0.215,0.519,0.525,0.937,0.93,1.254
	c0.402,0.317,0.867,0.544,1.395,0.682c0.525,0.137,1.105,0.205,1.74,0.205h2.271v-1.492h-2.422
	C319.295,490.216,318.862,490.162,318.516,490.054z M337.784,489.589c-0.316,0-0.59,0.115-0.82,0.346s-0.346,0.505-0.346,0.822
	c0,0.316,0.115,0.591,0.346,0.821s0.504,0.346,0.82,0.346c0.318,0,0.592-0.115,0.822-0.346s0.346-0.505,0.346-0.821
	c0-0.317-0.115-0.592-0.346-0.822S338.102,489.589,337.784,489.589z M333.178,486.106c-0.346-0.303-0.785-0.565-1.318-0.789
	c-0.533-0.223-1.182-0.422-1.947-0.595l-0.799-0.173c-1.053-0.216-1.781-0.461-2.184-0.735c-0.404-0.273-0.607-0.678-0.607-1.211
	c0-0.504,0.238-0.904,0.715-1.2c0.475-0.295,1.174-0.443,2.098-0.443c0.793,0,1.477,0.076,2.055,0.228
	c0.576,0.151,1.217,0.421,1.924,0.811l0.691-1.405c-1.412-0.765-2.969-1.146-4.67-1.146c-0.635,0-1.223,0.076-1.764,0.228
	c-0.539,0.151-1.008,0.364-1.404,0.638s-0.711,0.605-0.941,0.994c-0.23,0.39-0.346,0.815-0.346,1.276
	c0,0.462,0.072,0.88,0.217,1.254c0.143,0.375,0.381,0.707,0.713,0.995s0.758,0.537,1.275,0.746c0.52,0.209,1.146,0.4,1.883,0.573
	l0.908,0.194c1.008,0.217,1.729,0.49,2.162,0.822c0.432,0.331,0.648,0.771,0.648,1.318c0,0.39-0.086,0.707-0.26,0.952
	c-0.172,0.245-0.414,0.436-0.725,0.573c-0.311,0.137-0.678,0.237-1.102,0.303c-0.426,0.064-0.877,0.097-1.352,0.097
	c-0.592,0-1.223-0.09-1.893-0.271c-0.67-0.18-1.352-0.479-2.045-0.897l-0.734,1.471c0.779,0.433,1.539,0.742,2.281,0.93
	s1.539,0.281,2.391,0.281c0.748,0,1.434-0.072,2.053-0.216c0.621-0.145,1.158-0.36,1.611-0.648c0.455-0.289,0.805-0.649,1.049-1.082
	c0.246-0.433,0.369-0.93,0.369-1.492c0-0.476-0.072-0.915-0.217-1.318C333.77,486.763,333.526,486.41,333.178,486.106z"/>
</svg>

