<?xml version="1.0" encoding="utf-8"?>
<!-- Generator: Adobe Illustrator 23.0.0, SVG Export Plug-In . SVG Version: 6.00 Build 0)  -->
<svg version="1.1" id="Layer_1" xmlns="http://www.w3.org/2000/svg" xmlns:xlink="http://www.w3.org/1999/xlink" x="0px" y="0px"
	 viewBox="0 0 800 500" style="enable-background:new 0 0 800 500;" xml:space="preserve">
<g id="XMLID_810_">
	<path fill="#000000" id="XMLID_827_" d="M658.1,249.14c-16.48-12.78-40.33-15.79-69.24-15.11c2-1.04,3.99-2.08,5.99-3.12
		c2.86-2.17,5.73-4.34,8.59-6.51c12.08-9.7,18.68-25.89,25.25-41.14c-1.3-0.43-2.6-0.87-3.9-1.3c-1.48,3.21-2.95,6.42-4.42,9.63
		c-2.99,5.3-6.46,10.23-10.16,14.84c-16.44,20.51-53.92,31.04-83.82,16.41c-2,3.21-3.99,6.42-5.99,9.63
		c-1.56,2.43-3.12,4.86-4.69,7.29c-0.94,5.46,14.29,10.91,19.52,11.98c10.52,2.14,25.02,0.9,35.66-0.78
		c6.16-0.44,12.32-0.87,18.48-1.3c6.16-0.26,12.32-0.52,18.48-0.78c6.85,1.11,13.49,1.31,19.52,3.12c4.86,1.91,9.72,3.82,14.58,5.73
		c-41.65,0.43-83.3,0.87-124.95,1.3c-2.94-6.03-3.44-13.45-5.99-19.27c-4.71-10.77-12.09-19.28-19-27.86
		c-7.73-9.6-18.74-17.53-28.64-25c-33.88-25.57-76.85-48.92-101.26-83.59c-12.97-18.43-21.71-46.23-7.29-69.27
		c2.02-3.22,4.43-7.87,7.81-9.64c-0.33-1.21-0.82-1.83-1.82-2.34c-2.69,2.95-5.38,5.9-8.07,8.85c-5.63,7.34-10.4,15.71-13.02,26.04
		c-7.85,30.99,11.75,57.25,24.21,72.91c35.77,44.96,104.29,65.16,133.8,115.36c3.16,5.37,5.33,11.77,7.03,18.49
		c10.61,42.11-15.27,72.23-38.01,88.28c-5.88,4.15-14.24,11.4-22.38,12.5c-2.22-13.86-17.99-7.03-22.91-0.26
		c2.78,4.6,5.55,9.2,8.33,13.8c4.66,0.45,25.78-12.73,30.2-15.62c23.46-15.38,41.34-33.76,52.32-61.72
		c2.86-7.27,7.96-22.55,5.99-32.81c0-0.09,0-0.17,0-0.26c43.99-0.35,87.99-0.7,131.98-1.04c1.65,2.52,3.3,5.04,4.95,7.55
		c0.26,0.17,0.52,0.35,0.78,0.52c4.42-3.82,8.85-7.64,13.27-11.46C669.39,258.43,661.56,251.82,658.1,249.14z"/>
	<path fill="#000000" id="XMLID_828_" d="M398.05,197.84c4.74,6.69,11.1,15.47,12.23,25.26c0.17,0.09,0.35,0.17,0.52,0.26
		c4.6-4.51,9.2-9.03,13.8-13.54c-10.9-31.58-33.16-49.5-61.17-63.8c-8.19-4.18-18.68-10.82-28.89-11.98
		c-2.25,6.42-4.51,12.85-6.77,19.27C357.09,158.12,383.69,177.59,398.05,197.84z"/>
	<path fill="#000000" id="XMLID_829_" d="M287.68,217.37c2.04-0.93,3.14-2.98,4.42-4.69c7.17-9.5,4.38-19.61-8.85-20.83
		c-2.69,5.38-5.38,10.76-8.07,16.14C280.39,208.69,286.4,212.62,287.68,217.37z"/>
	<path fill="#000000" id="XMLID_830_" d="M280.91,297.32c-5.29-12.08-27.96-34.87-39.83-40.1c-0.59-1.27,0.98-7.03,2.86-6.25
		c1.39,1.47,2.78,2.95,4.16,4.43c3.77,2.98,8.64,7.35,13.8,8.59c17.27,0.17,34.54,0.35,51.8,0.52c9.53,1.54,26.9-4.48,27.85,5.73
		c0.09,0,0.17,0,0.26,0c4.08-4.69,8.15-9.38,12.23-14.06c-6.94-17.15-26.48-8.6-37.48-18.23c-0.17,0-0.35,0-0.52,0
		c5.34-8.87,11.19-16.17,12.76-29.42c-8.51-2.4-9.04-7.79-14.32-11.72c-2.23,10.74-13.24,21.56,3.38,26.56
		c-0.78,11.55-25.55,7.02-32.54,4.17c-9.92-4.05-17.84-10.85-28.89-13.8c-16.93-4.53-24.48,10.55-29.41,20.83
		c-1.35,2.82-3.45,5.75-3.91,9.37c0.78,0.35,1.56,0.7,2.34,1.04c4.81-6.37,5.23-14.8,13.28-17.97c6.36-2.5,17.14,5.07,21.6,7.29
		c14.09,7,35.43,17.96,52.59,20.31c-6.16-0.17-12.32-0.35-18.48-0.52c-5.73-0.17-11.45-0.35-17.18-0.52
		c-6.28-1.85-22.47-13.32-24.21-19.53c-4.67,2.21-9.1,8.28-12.24,12.24c-2.59,3.27-5.59,6.48-7.81,10.15
		c-2.46,4.08-5.97,13.23-2.34,18.49c2.69,1.91,5.38,3.82,8.07,5.73c6.31,4.76,12.77,10.24,17.7,16.4c4.8,6,16.42,17.86,9.63,29.16
		c-4.9,8.16-26.46,18.84-35.4,24.48c-32.28,20.57-64.56,41.14-96.84,61.71c-1.95,1.91-2.98,10.65-3.12,13.8
		c34.88-23.17,69.77-46.35,104.65-69.53c7.46-4.95,14.93-9.89,22.39-14.84c8.14-5.34,17.79-9.62,22.91-17.97
		C285.14,316.55,284.31,305.09,280.91,297.32z"/>
	<path fill="#000000" id="XMLID_833_" d="M408.2,254.35c4.57-13.34-5.09-29.52-9.89-36.72c-2.18-3.27-5.45-9.93-9.37-11.2
		c-6.67,8.67-28.34,21.03-21.09,38.28c2.02,4.81,5.83,6.96,9.11,10.41c-3.47,1.22-6.94,2.43-10.41,3.65
		c-7.34,4.05-19.2,15.62-11.98,27.86c3.02,5.12,8,7.39,11.98,11.46c3.46-0.96,6.3-7.13,8.59-9.63c0-0.09,0-0.17,0-0.26
		c-4.91-2.98-19.55-12.73-13.27-21.09c5.97-7.96,30.15-6.07,32.02,5.21c0.95,0.09,1.91,0.17,2.86,0.26
		c1.22-2.52,2.43-5.04,3.65-7.55C402.99,261.47,405.6,257.91,408.2,254.35z M378.26,226.23c0.56-4.05,3.22-5.27,5.47-7.55
		c7.01,3.44,16.31,21.18,17.44,31.51C395.21,248.64,377.19,234.04,378.26,226.23z"/>
	<path fill="#000000" id="XMLID_834_" d="M434.49,255.65c-2.37-2.98-1.56-8.36-2.34-13.02c-1.53-9.09-3-18.25-4.95-26.3
		c-0.17-0.09-0.34-0.17-0.52-0.26c-4.77,4.25-9.54,8.51-14.32,12.76c1.19,6.77,3.2,13.68,4.42,21.09c0,3.82,0,7.64,0,11.46
		c1.06,2.72,4.49,5.26,7.29,6.25c4.22,1.5,9.49,0.19,14.84,1.04c10.15,0.52,20.31,1.04,30.46,1.56c4.06,0.63,7.52-0.23,10.41,1.3
		c2.79,1.48,4.16,4.49,4.16,8.86c0.87,0.61,1.74,1.21,2.6,1.82c0.17,0.17,0.35,0.35,0.52,0.52c2.91-2.96,12.74-13.91,9.89-20.83
		c-1.63-3.98-9-6.53-12.49-8.86c-8.79-5.85-24.63-15.21-29.42-24.48c0.24-5.34,4.16-9.45,7.81-11.46c-0.48-1.94-2.38-5.32-4.17-5.99
		c-5.42,11-29.17,25.13-9.89,40.62c4.23,3.4,10.34,5.61,14.32,9.38c0,0.09,0,0.17,0,0.26C452.38,261.51,439.24,261.62,434.49,255.65
		z"/>
	<path fill="#000000" id="XMLID_835_" d="M332.97,232.48c6.49,1.77,8.95,5.06,12.76,9.38c11.76-8.51,11.44-21.91-4.69-25.52
		C338.35,221.71,335.66,227.1,332.97,232.48z"/>
	<path fill="#000000" id="XMLID_837_" d="M416.53,267.37c-0.18,26.37-13.39,59.41,9.11,72.39c2.5-1.75,11.9-10.13,12.75-12.76
		c-13.89-5.86-8.45-41.27-5.99-55.99C425.02,271.27,421.49,269.42,416.53,267.37z"/>
	<path fill="#000000" id="XMLID_838_" d="M304.34,268.93c-2.17,4.25-4.34,8.51-6.51,12.76c3.78,2.59,8.28,2.75,9.89,7.55
		c0.17,0.09,0.35,0.17,0.52,0.26C314.65,281.46,320.02,272.14,304.34,268.93z"/>
	<path fill="#000000" id="XMLID_839_" d="M280.65,283.52c3.95,1,8.99,3.49,9.89,7.55c0.09,0,0.17,0,0.26,0c9.49-6.8,9.37-17.63-3.65-20.57
		C284.99,274.83,282.82,279.18,280.65,283.52z"/>
	<path fill="#000000" id="XMLID_840_" d="M470.41,329.87c15.86-12.79,25.53-36.13,4.69-51.04c-3.83-2.74-8.54-6.5-13.8-7.55
		c-8.97,7.17-34.34,21.62-21.87,39.32c4.74,6.73,16.53,5.37,20.56,13.02c0.17,0,0.34,0,0.52,0c4.1-2.98,10.12-13.04,5.73-20.05
		c-3.54-5.51-27.25-6.92-13.02-19.01c10.23,5.67,25.02,21.93,15.1,36.98c-4.65,7.04-14.04,10.78-21.35,15.1
		c-32.8,18.57-65.6,37.15-98.4,55.72c-10.85,6.08-21.69,12.15-32.54,18.23c-1.65,5.47-3.3,10.94-4.95,16.4
		c21.52-13.02,43.04-26.05,64.56-39.06c21.08-12.76,42.17-25.52,63.26-38.28C449.5,343.07,460.92,337.52,470.41,329.87z"/>
	<path fill="#000000" id="XMLID_841_" d="M378.53,289.76c0,0.09,0,0.17,0,0.26c4.95,0.96,11.44,4.45,12.49,9.38c2.28-0.68,3.4-2.98,4.68-4.69
		c7.72-10.31,3.68-18.3-8.85-20.83C384.08,279.18,381.3,284.47,378.53,289.76z"/>
	<path fill="#000000" id="XMLID_1071_" d="M347.29,314.5c0.17,0.09,0.35,0.17,0.52,0.26c3.27-4.09,10.86-11.77,3.64-17.19
		c-1.82-1.36-3.9-2.84-6.77-3.13c1.3-2.08,2.6-4.16,3.9-6.25c3.15-7.75-4.56-11.3-9.89-12.5c-2.17,3.99-4.34,7.99-6.51,11.98
		c-0.09,0.26-0.17,0.52-0.26,0.78c2,0.87,3.99,1.73,5.99,2.6c1.75,1.14,3.45,4.62,4.95,4.95c-1.82,3.73-3.64,7.46-5.46,11.2
		C341.4,307.9,346.4,310.67,347.29,314.5z"/>
	<path fill="#000000" id="XMLID_1074_" d="M322.82,350.96c1.13,0,2.26,0,3.38,0c0.94-5.14,4.45-7.86,6.25-11.98c4-1.74,22.17,0.98,28.37,1.04
		c1.47-1.91,2.95-3.82,4.43-5.73c0-0.17,0-0.35,0-0.52c4.52,5.19,9.56,9.12,19,9.37c6.37-5.74,13.11-14.87,16.92-22.92
		c-1.21-3.99-2.43-7.99-3.64-11.98c-0.91-4.72,1.89-6.61,0.52-9.64c-0.17,0-0.35,0-0.52,0c-4.42,4.08-8.85,8.16-13.28,12.24
		c-0.02,6.42,0.88,10.48,2.87,14.58c0,0.09,0,0.17,0,0.26c-5.41,0-9.92-2.11-11.46-5.99c-1.79-6.09,3.94-13.87-3.64-18.49
		c-4.42,3.91-8.85,7.81-13.28,11.72c0.96,4.97,3.83,8.95,2.86,15.62c-7.37-0.52-14.75-1.04-22.13-1.56
		c0.04-0.78,0.27-16.28-21.35-42.19c-7.1,9.17-31.04,22.97-20.04,41.15c1.95,3.22,4.94,5.23,7.81,7.55
		c-1.91,0.61-3.82,1.21-5.73,1.82c-3.86,1.5-7.64,3.59-10.67,5.99c-14.74,11.65-6.51,28.54,6.51,35.41
		c2.43-3.03,4.86-6.07,7.29-9.11c0.26-0.26,0.52-0.52,0.78-0.78c-4.48-2.95-19.5-12.61-13.54-20.83
		C296.79,337.39,320.96,339.71,322.82,350.96z M307.72,302.27c0.92-2.18,3.16-3.35,4.69-4.95c2.27,0.71,3.36,3.01,4.68,4.69
		c6.37,8.04,10.02,14.22,13.02,26.3c-0.17,0.17-0.35,0.34-0.52,0.52C323.82,325.29,303.41,312.43,307.72,302.27z"/>
</g>
<path fill="#000000" d="M273.602,481.306c-0.578-0.576-1.301-1.03-2.174-1.362c-0.873-0.331-1.885-0.497-3.039-0.497
	c-0.663,0-1.463,0.079-2.4,0.238v-6.077h-1.535v17.711c0.706,0.202,1.402,0.354,2.087,0.454s1.301,0.151,1.849,0.151
	c1.153,0,2.166-0.162,3.039-0.486s1.596-0.764,2.174-1.319c0.576-0.555,1.006-1.211,1.287-1.968s0.42-1.561,0.42-2.411
	s-0.139-1.657-0.42-2.422C274.608,482.554,274.178,481.883,273.602,481.306z M272.391,489.167c-0.852,0.829-2.17,1.243-3.958,1.243
	c-0.39,0-0.805-0.032-1.244-0.097c-0.439-0.065-0.84-0.134-1.2-0.206v-8.845c0.447-0.115,0.887-0.194,1.319-0.237
	c0.433-0.044,0.808-0.065,1.125-0.065c0.894,0,1.668,0.112,2.325,0.335c0.656,0.224,1.199,0.545,1.633,0.963
	c0.432,0.418,0.752,0.919,0.961,1.503s0.314,1.243,0.314,1.979C273.667,487.195,273.241,488.338,272.391,489.167z M247.392,479.446
	c-0.62,0-1.297,0.079-2.033,0.238c-0.735,0.158-1.485,0.433-2.249,0.821l-0.065,1.73c0.548-0.303,0.973-0.52,1.276-0.649
	s0.624-0.237,0.962-0.324c0.338-0.086,0.677-0.158,1.016-0.216s0.667-0.087,0.984-0.087c1.139,0,1.982,0.249,2.53,0.746
	s0.822,1.33,0.822,2.498v0.13c-0.332-0.044-0.732-0.087-1.2-0.13c-0.469-0.043-0.876-0.065-1.222-0.065
	c-1.831,0-3.302,0.311-4.412,0.931c-1.11,0.619-1.665,1.644-1.665,3.07c0,0.707,0.155,1.305,0.465,1.795
	c0.31,0.49,0.713,0.88,1.211,1.168s1.067,0.497,1.708,0.627c0.641,0.13,1.308,0.194,2,0.194c0.807,0,1.6-0.072,2.378-0.216
	c0.779-0.145,1.536-0.368,2.271-0.671v-7.028c0-1.585-0.397-2.742-1.189-3.471C250.189,479.811,248.992,479.446,247.392,479.446z
	 M250.636,489.892c-0.375,0.144-0.858,0.267-1.449,0.367c-0.591,0.102-1.183,0.151-1.773,0.151c-0.505,0-0.984-0.035-1.438-0.108
	c-0.454-0.071-0.84-0.197-1.157-0.378c-0.317-0.18-0.57-0.414-0.757-0.703c-0.188-0.288-0.281-0.663-0.281-1.124
	c0-0.52,0.111-0.934,0.335-1.244c0.224-0.31,0.533-0.551,0.93-0.724c0.396-0.174,0.85-0.296,1.362-0.368
	c0.511-0.072,1.041-0.108,1.589-0.108c0.476,0,0.984,0.029,1.524,0.087c0.541,0.058,0.912,0.108,1.114,0.151V489.892z
	 M258.032,479.868c-0.649,0.122-1.276,0.263-1.881,0.422v11.418h1.535v-10.186c0.202-0.072,0.563-0.147,1.082-0.228
	c0.519-0.079,1.002-0.118,1.449-0.118h1.989v-1.492H260C259.336,479.685,258.681,479.746,258.032,479.868z M-77.92,487.667
	l241.145,0.656l0.663-0.433l-0.632-0.564L-77.92,487.667z M164.994,487.825l1.95,1.95l1.95-1.95l-1.95-1.95L164.994,487.825z
	 M169.559,487.825l3.057,3.057l3.057-3.057l-3.057-3.057L169.559,487.825z M212.359,489.286l-3.395-9.602h-1.514l-3.396,9.602
	l-2.984-9.602h-1.73l3.979,12.023h1.428l3.46-9.645l3.46,9.645h1.427l3.979-12.023h-1.73L212.359,489.286z M238.418,489.589
	c-0.317,0-0.591,0.115-0.822,0.346c-0.231,0.23-0.346,0.505-0.346,0.822c0,0.316,0.115,0.591,0.346,0.821
	c0.23,0.23,0.504,0.346,0.822,0.346c0.317,0,0.591-0.115,0.822-0.346c0.23-0.23,0.346-0.505,0.346-0.821
	c0-0.317-0.116-0.592-0.346-0.822C239.009,489.704,238.735,489.589,238.418,489.589z M193.243,489.286l-3.395-9.602h-1.514
	l-3.396,9.602l-2.984-9.602h-1.73l3.979,12.023h1.428l3.46-9.645l3.46,9.645h1.427l3.979-12.023h-1.73L193.243,489.286z
	 M231.476,489.286l-3.395-9.602h-1.514l-3.396,9.602l-2.984-9.602h-1.73l3.979,12.023h1.428l3.46-9.645l3.46,9.645h1.427
	l3.979-12.023h-1.73L231.476,489.286z M382.732,480.474c-0.426-0.396-0.938-0.667-1.535-0.812c-0.598-0.144-1.271-0.216-2.021-0.216
	c-0.664,0-1.393,0.09-2.184,0.271c-0.793,0.181-1.471,0.4-2.033,0.659c-0.346-0.331-0.818-0.569-1.416-0.714
	c-0.6-0.144-1.273-0.216-2.023-0.216c-0.635,0-1.268,0.058-1.902,0.173l-2.465,0.454v11.635h1.535v-10.38
	c0.447-0.102,0.883-0.188,1.309-0.26c0.424-0.072,0.896-0.108,1.416-0.108c0.605,0,1.125,0.058,1.557,0.173
	c0.434,0.116,0.789,0.321,1.07,0.616c0.281,0.296,0.494,0.711,0.639,1.244s0.217,1.24,0.217,2.119v6.596h1.535v-7.201
	c0-0.663-0.055-1.243-0.162-1.741c-0.109-0.497-0.213-0.861-0.314-1.092c0.086-0.043,0.281-0.119,0.584-0.228
	c0.303-0.107,0.602-0.197,0.898-0.27c0.295-0.072,0.586-0.126,0.875-0.162s0.547-0.055,0.779-0.055c0.59,0,1.102,0.058,1.535,0.173
	c0.432,0.116,0.781,0.317,1.049,0.605c0.266,0.289,0.471,0.703,0.615,1.244c0.145,0.54,0.217,1.251,0.217,2.13v6.596h1.535v-7.201
	c0-0.995-0.111-1.816-0.336-2.466C383.482,481.393,383.158,480.87,382.732,480.474z M280.1,474.581
	c-0.785,0.648-1.18,1.729-1.18,3.243v1.86h-2.551v1.492h2.551v10.531h1.537v-10.531h4.973v-1.492h-4.973v-1.471
	c0-0.635,0.045-1.149,0.141-1.546c0.094-0.396,0.24-0.707,0.443-0.931c0.201-0.223,0.475-0.385,0.82-0.486
	c0.346-0.101,0.779-0.151,1.299-0.151h2.422v-1.492h-2.271C281.956,473.607,280.885,473.932,280.1,474.581z M398.273,487.825
	l3.057,3.057l3.057-3.057l-3.057-3.057L398.273,487.825z M343.322,482.322c0.389-0.418,0.854-0.749,1.395-0.994
	s1.135-0.368,1.783-0.368c0.736,0,1.373,0.076,1.914,0.228s1.121,0.414,1.74,0.789l0.715-1.405c-0.707-0.39-1.393-0.674-2.055-0.854
	c-0.664-0.181-1.436-0.271-2.314-0.271c-0.85,0-1.639,0.155-2.367,0.465c-0.729,0.311-1.367,0.746-1.914,1.309
	c-0.549,0.563-0.98,1.222-1.297,1.979c-0.317,0.757-0.476,1.59-0.476,2.498s0.158,1.74,0.476,2.497
	c0.316,0.757,0.748,1.413,1.297,1.969c0.547,0.555,1.186,0.987,1.914,1.297c0.729,0.311,1.518,0.465,2.367,0.465
	c0.879,0,1.65-0.09,2.314-0.27c0.662-0.181,1.348-0.466,2.055-0.854l-0.715-1.406c-0.619,0.375-1.199,0.639-1.74,0.79
	s-1.178,0.227-1.914,0.227c-0.648,0-1.242-0.119-1.783-0.356c-0.541-0.238-1.006-0.565-1.395-0.984
	c-0.391-0.418-0.693-0.915-0.908-1.492c-0.217-0.576-0.324-1.203-0.324-1.881s0.107-1.305,0.324-1.882
	C342.628,483.238,342.931,482.741,343.322,482.322z M404.387,487.825l1.949,1.95l1.951-1.95l-1.951-1.95L404.387,487.825z
	 M410.701,487.326l-0.664,0.433l0.633,0.564l241.176-0.341L410.701,487.326z M362.611,481.295c-0.549-0.569-1.193-1.02-1.936-1.352
	c-0.742-0.331-1.547-0.497-2.412-0.497c-0.863,0-1.668,0.166-2.41,0.497c-0.742,0.332-1.389,0.782-1.936,1.352
	c-0.549,0.57-0.977,1.229-1.287,1.979c-0.311,0.749-0.465,1.557-0.465,2.422s0.154,1.672,0.465,2.422s0.738,1.409,1.287,1.979
	c0.547,0.569,1.193,1.017,1.936,1.341s1.547,0.486,2.41,0.486c0.865,0,1.67-0.162,2.412-0.486s1.387-0.771,1.936-1.341
	c0.547-0.569,0.977-1.229,1.287-1.979c0.309-0.75,0.465-1.557,0.465-2.422s-0.156-1.673-0.465-2.422
	C363.587,482.524,363.158,481.865,362.611,481.295z M362.394,487.523c-0.217,0.569-0.52,1.067-0.908,1.492
	c-0.389,0.426-0.857,0.765-1.406,1.017c-0.547,0.252-1.152,0.378-1.816,0.378c-0.662,0-1.268-0.126-1.816-0.378
	c-0.547-0.252-1.016-0.591-1.404-1.017c-0.391-0.425-0.693-0.923-0.908-1.492c-0.217-0.569-0.324-1.179-0.324-1.827
	c0-0.649,0.107-1.262,0.324-1.839c0.215-0.576,0.518-1.077,0.908-1.503c0.389-0.425,0.857-0.764,1.404-1.016
	c0.549-0.252,1.154-0.379,1.816-0.379c0.664,0,1.27,0.127,1.816,0.379c0.549,0.252,1.018,0.591,1.406,1.016
	c0.389,0.426,0.691,0.927,0.908,1.503c0.217,0.577,0.324,1.189,0.324,1.839C362.718,486.345,362.611,486.954,362.394,487.523z
	 M296.221,481.295c-0.547-0.569-1.191-1.02-1.936-1.352c-0.742-0.331-1.545-0.497-2.41-0.497s-1.67,0.166-2.412,0.497
	c-0.742,0.332-1.387,0.782-1.936,1.352c-0.547,0.57-0.977,1.229-1.285,1.979c-0.311,0.749-0.465,1.557-0.465,2.422
	s0.154,1.672,0.465,2.422c0.309,0.75,0.738,1.409,1.285,1.979c0.549,0.569,1.193,1.017,1.936,1.341s1.547,0.486,2.412,0.486
	s1.668-0.162,2.41-0.486c0.744-0.324,1.389-0.771,1.936-1.341c0.549-0.569,0.977-1.229,1.287-1.979s0.465-1.557,0.465-2.422
	s-0.154-1.673-0.465-2.422C297.198,482.524,296.77,481.865,296.221,481.295z M296.006,487.523c-0.217,0.569-0.52,1.067-0.908,1.492
	c-0.391,0.426-0.859,0.765-1.406,1.017c-0.549,0.252-1.154,0.378-1.816,0.378c-0.664,0-1.27-0.126-1.816-0.378
	c-0.549-0.252-1.018-0.591-1.406-1.017c-0.389-0.425-0.691-0.923-0.908-1.492s-0.324-1.179-0.324-1.827
	c0-0.649,0.107-1.262,0.324-1.839c0.217-0.576,0.52-1.077,0.908-1.503c0.389-0.425,0.857-0.764,1.406-1.016
	c0.547-0.252,1.152-0.379,1.816-0.379c0.662,0,1.268,0.127,1.816,0.379c0.547,0.252,1.016,0.591,1.406,1.016
	c0.389,0.426,0.691,0.927,0.908,1.503c0.215,0.577,0.324,1.189,0.324,1.839C296.331,486.345,296.221,486.954,296.006,487.523z
	 M309.381,480.463c-0.455-0.39-0.996-0.656-1.623-0.801c-0.627-0.144-1.309-0.216-2.043-0.216c-0.707,0-1.465,0.047-2.271,0.141
	s-1.701,0.234-2.682,0.422v11.699h1.535v-10.402c1.184-0.23,2.293-0.346,3.33-0.346c0.592,0,1.111,0.062,1.559,0.184
	c0.445,0.123,0.818,0.332,1.113,0.628c0.295,0.295,0.525,0.713,0.691,1.254s0.25,1.251,0.25,2.13v6.553h1.535v-7.201
	c0-0.995-0.119-1.82-0.357-2.477C310.18,481.375,309.834,480.852,309.381,480.463z M318.516,490.054
	c-0.346-0.108-0.619-0.277-0.82-0.509c-0.203-0.23-0.35-0.547-0.443-0.951c-0.096-0.403-0.141-0.922-0.141-1.557v-5.86h4.973v-1.492
	h-4.973v-4.347h-1.537v4.347h-2.551v1.492h2.551v6.466c0,0.764,0.109,1.405,0.326,1.925c0.215,0.519,0.525,0.937,0.93,1.254
	c0.402,0.317,0.867,0.544,1.395,0.682c0.525,0.137,1.105,0.205,1.74,0.205h2.271v-1.492h-2.422
	C319.295,490.216,318.862,490.162,318.516,490.054z M337.784,489.589c-0.316,0-0.59,0.115-0.82,0.346s-0.346,0.505-0.346,0.822
	c0,0.316,0.115,0.591,0.346,0.821s0.504,0.346,0.82,0.346c0.318,0,0.592-0.115,0.822-0.346s0.346-0.505,0.346-0.821
	c0-0.317-0.115-0.592-0.346-0.822S338.102,489.589,337.784,489.589z M333.178,486.106c-0.346-0.303-0.785-0.565-1.318-0.789
	c-0.533-0.223-1.182-0.422-1.947-0.595l-0.799-0.173c-1.053-0.216-1.781-0.461-2.184-0.735c-0.404-0.273-0.607-0.678-0.607-1.211
	c0-0.504,0.238-0.904,0.715-1.2c0.475-0.295,1.174-0.443,2.098-0.443c0.793,0,1.477,0.076,2.055,0.228
	c0.576,0.151,1.217,0.421,1.924,0.811l0.691-1.405c-1.412-0.765-2.969-1.146-4.67-1.146c-0.635,0-1.223,0.076-1.764,0.228
	c-0.539,0.151-1.008,0.364-1.404,0.638s-0.711,0.605-0.941,0.994c-0.23,0.39-0.346,0.815-0.346,1.276
	c0,0.462,0.072,0.88,0.217,1.254c0.143,0.375,0.381,0.707,0.713,0.995s0.758,0.537,1.275,0.746c0.52,0.209,1.146,0.4,1.883,0.573
	l0.908,0.194c1.008,0.217,1.729,0.49,2.162,0.822c0.432,0.331,0.648,0.771,0.648,1.318c0,0.39-0.086,0.707-0.26,0.952
	c-0.172,0.245-0.414,0.436-0.725,0.573c-0.311,0.137-0.678,0.237-1.102,0.303c-0.426,0.064-0.877,0.097-1.352,0.097
	c-0.592,0-1.223-0.09-1.893-0.271c-0.67-0.18-1.352-0.479-2.045-0.897l-0.734,1.471c0.779,0.433,1.539,0.742,2.281,0.93
	s1.539,0.281,2.391,0.281c0.748,0,1.434-0.072,2.053-0.216c0.621-0.145,1.158-0.36,1.611-0.648c0.455-0.289,0.805-0.649,1.049-1.082
	c0.246-0.433,0.369-0.93,0.369-1.492c0-0.476-0.072-0.915-0.217-1.318C333.77,486.763,333.526,486.41,333.178,486.106z"/>
</svg>

