<?xml version="1.0" encoding="utf-8"?>
<!-- Generator: Adobe Illustrator 23.0.0, SVG Export Plug-In . SVG Version: 6.00 Build 0)  -->
<svg version="1.1" id="Layer_1" xmlns="http://www.w3.org/2000/svg" xmlns:xlink="http://www.w3.org/1999/xlink" x="0px" y="0px"
	 viewBox="0 0 800 500" style="enable-background:new 0 0 800 500;" xml:space="preserve">
<g id="XMLID_1554_">
	<path fill="#000000" id="XMLID_1685_" d="M399.28,286.25c-0.9,0.66-3.5,2.44-3.5,3.76c0,16.67,0,33.35,0,50.02c-3.51,0-7.03,0-10.54,0
		c0.84-0.7,1.62-1.51,2.01-2.37c1.41-3.15,0.5-5.26-2.24-7.21c-3.57-2.55-7.61-4.59-11.43-6.7c-7.74-4.29-15.64-8.25-23.38-12.51
		c-0.26-0.14-0.59-0.13-0.96-0.01c-0.07,0.02-0.14,0.04-0.22,0.07c-0.07,0.03-0.13,0.05-0.21,0.09c-0.36,0.17-0.7,0.39-0.98,0.57
		c-0.67,0.43-1.3,0.93-1.9,1.45c-0.79,0.6-1.55,1.23-2.27,1.91c-0.59,0.58-1.21,1.19-1.63,1.91c-0.13,0.23-0.4,0.82,0.13,0.81
		c0.62-0.02,1.32-0.5,1.81-0.81c0.16-0.1,0.31-0.23,0.47-0.34c6.86,3.76,13.82,7.31,20.69,11.05c3.72,2.03,7.41,4.12,11.06,6.31
		c2.21,1.33,5.43,3.05,5.33,5.78c-9.7,0-19.41,0-29.12,0c-0.47,0-0.98,0.2-1.47,0.47c-1.42,0.28-3.07,1.85-3.95,2.74
		c-2.13,2.14-4.33,4.52-4.38,7.71c-0.05,2.72,1.84,5.06,3.68,6.84c3.88,3.74,8.7,6.88,13.32,9.65c1.72,1.03,6.82-5.05,6.35-5.33
		c-3.44-2.07-6.72-4.38-9.89-6.84c-2.19-1.69-4.35-3.38-5.87-5.71c-0.63-0.96-1.21-2.55-1.21-4.01c15.6,0,31.2,0,46.8,0
		c0,2.18,0,4.37,0,6.55c0,1.14,2.69-0.81,2.95-1c0.89-0.66,3.49-2.44,3.49-3.76c0-20.69,0-41.38,0-62.07
		C402.22,284.1,399.53,286.06,399.28,286.25z"/>
	<path fill="#000000" id="XMLID_1684_" d="M382.65,249.37c0,1.14,2.69-0.81,2.94-1c0.9-0.66,3.5-2.44,3.5-3.77c0-25.78,0-51.56,0-77.34
		c0.44-0.4,0.85-0.83,1.23-1.23c0.31-0.34,2.01-2.49,0.33-1.91c-11.05,3.84-23.13,9.96-29.83,19.96
		c-6.43,9.6,5.09,19.27,13.28,22.41c1.15,0.44,3-1.33,3.77-1.97c0.15-0.12,3.27-3.1,2.58-3.36c-6.83-2.61-16.96-9.82-14.79-18.41
		c0.73-2.86,3.12-4.84,5.45-6.41c3.69-2.45,7.75-4.33,11.89-5.91c-0.22,0.33-0.37,0.66-0.37,0.97
		C382.65,197.38,382.65,223.38,382.65,249.37z"/>
	<path fill="#000000" id="XMLID_1683_" d="M428.33,122.93c-0.31,0.23-1.21,0.84-1.21,1.3c0,1.96,0,3.92,0,5.88c0,0.26,0.39,0.06,0.68-0.11
		c-0.01,0.06,0.01,0.1,0.1,0.1c3.35,0,6.69,0,10.03,0c0.1,0,0.21-0.02,0.32-0.07c0,0.41,0,0.83,0,1.23c0,0.4,0.93-0.28,1.01-0.34
		c0.31-0.23,1.21-0.84,1.21-1.3c0-2.82,0-5.64,0-8.46c0-0.39-0.93,0.28-1.02,0.34c-0.3,0.23-1.21,0.84-1.21,1.3c0,1.8,0,3.6,0,5.39
		c-1.1,0-2.21,0-3.32,0c0-2.11,0-4.21,0-6.32c0-0.4-0.93,0.28-1.01,0.34c-0.31,0.23-1.21,0.84-1.21,1.3c0,1.56,0,3.11,0,4.67
		c-0.93,0-1.87,0-2.81,0c-0.18,0-0.37,0.08-0.55,0.19c0-1.93,0-3.86,0-5.79C429.35,122.19,428.41,122.87,428.33,122.93z"/>
	<path fill="#000000" id="XMLID_1682_" d="M352.54,155.12c8.92-5.12,18.39-9.02,28-12.63c11.14-4.19,22.51-7.97,34.08-10.82
		c-1.12,0.82-2.94,2.25-2.94,3.36c0,13.37,0,26.73,0,40.09c0,0.73,1.1,0.19,1.96-0.34c-0.03,0.18,0.05,0.3,0.28,0.3
		c9.68,0,19.36,0,29.03,0c0.3,0,0.62-0.09,0.93-0.21c0,2.85,0,5.7,0,8.55c0,1.14,2.69-0.81,2.94-1c0.9-0.66,3.49-2.44,3.49-3.77
		c0-17.14,0-34.28,0-51.43c0-1.15-2.68,0.81-2.94,1c-0.89,0.66-3.49,2.44-3.49,3.77c0,12.53,0,25.05,0,37.58c-2.92,0-5.84,0-8.77,0
		c0-11.08,0-22.15,0-33.23c0-1.14-2.69,0.81-2.94,1c-0.9,0.66-3.5,2.44-3.5,3.76c0,9.49,0,18.97,0,28.46c-2.98,0-5.96,0-8.94,0
		c-0.52,0-1.08,0.23-1.63,0.56c0-13.14,0-26.28,0-39.42c1.41-0.67,2.8-2.08,3.73-3.09c0.42-0.46,1.99-2.3,0.33-1.91
		c-10.63,2.47-21.04,5.82-31.31,9.49c-8.66,3.08-17.31,6.37-25.59,10.38c-16.56,8.02-32.86,19.04-43.96,33.94
		c-7.34,9.83-11.39,21.62-9.66,33.92c0.9,6.39,3.18,12.62,6.54,18.13c3.39,5.55,7.82,11.4,13.39,14.92
		c1.67,1.05,6.86-5.01,6.35-5.33c-3.99-2.53-7.17-6.27-10.01-10c-2.9-3.82-5.31-7.92-7.08-12.39c-3.47-8.8-4.17-18.35-1.58-27.46
		C323.96,174.81,338.29,163.3,352.54,155.12z"/>
	<polygon id="XMLID_1681_" points="461.21,72.61 467.26,66.56 461.87,61.17 467.26,55.78 461.21,49.73 455.15,55.78 460.55,61.17 
		455.15,66.56 	"/>
	<polygon id="XMLID_1680_" points="426.37,67.23 432.42,61.17 427.04,55.78 432.42,50.39 426.37,44.34 420.32,50.39 425.71,55.78 
		420.32,61.17 	"/>
	
		<rect id="XMLID_1679_" x="389.03" y="120.47" transform="matrix(0.7072 -0.707 0.707 0.7072 26.6582 315.2903)" width="9.97" height="9.97"/>
	<polygon id="XMLID_1678_" points="417.52,199.12 423.58,193.06 417.52,187.01 411.47,193.06 	"/>
	<path fill="#000000" id="XMLID_1677_" d="M435.5,414.7c-4.16,0-8.33,0-12.49,0c0.06-0.16,0.05-0.28-0.06-0.32c-7.09-3.01-16.9-10.56-15.17-19.41
		c0.13-0.68,0.42-1.27,0.77-1.87c0.05-0.09,0.09-0.17,0.13-0.23c0.03-0.02,0.05-0.04,0.09-0.07c1.41-1.05,3.14-1.78,4.74-2.47
		c4.23-1.84,8.64-3.24,13-4.73c1.73-0.59,3.35-2.08,4.56-3.4c0.32-0.34,2.01-2.48,0.34-1.91c-10.03,3.45-22.59,6.84-28.7,16.36
		c-4.19,6.51,0.18,13.33,5.85,18.06c-3.04,0-6.09,0-9.13,0c-0.3,0-0.62,0.09-0.93,0.22c0-11.98,0-23.96,0-35.93
		c0-1.15-2.69,0.81-2.94,1c-0.41,0.3-1.17,0.84-1.88,1.45c-9.4,3.57-19.78,7.5-25.44,16.15c-2.67,4.06-1.08,9.07,1.47,12.74
		c1.12,1.61,2.49,3.06,4.01,4.36c-4.42,0-8.85,0-13.27,0c-0.04,0-0.07,0.01-0.1,0.01c0-14.54,0-29.07,0-43.61
		c0-1.14-2.69,0.81-2.94,1c-0.9,0.66-3.5,2.44-3.5,3.76c0,15.21,0,30.42,0,45.63c0,1.14,2.69-0.82,2.94-1.01
		c0.11-0.08,0.24-0.18,0.39-0.28c9.37,0,18.73,0,28.09,0c1.5,0,3.34-1.86,4.32-2.79c0.14-0.13,2.64-2.72,1.5-2.72
		c-0.67,0-1.35,0-2.03,0c-7.17-2.8-17.06-9.92-15.69-18.73c0.49-3.12,2.67-3.71,5.42-5.07c4.12-2.04,8.47-3.56,12.74-5.21
		c0.16-0.06,0.32-0.16,0.47-0.23c0,12.75,0,25.51,0,38.26c0,1.15,2.69-0.81,2.94-1c0.63-0.47,2.08-1.48,2.9-2.5
		c10.6,0,21.2,0,31.8,0c1.5,0,3.34-1.86,4.32-2.79C434.14,417.28,436.63,414.7,435.5,414.7z"/>
	<path fill="#000000" id="XMLID_1674_" d="M469.61,342.68c0,2.12,0,4.24,0,6.36c0,1.14,2.69-0.82,2.94-1.01c0.89-0.66,3.49-2.44,3.49-3.77
		c0-11.67,0-23.33,0-35c0.3-0.41,0.44-0.73,0.24-0.8c-9.69-3.49-21.07-2.43-30.38,1.73c-5.6,2.51-11.01,6.3-14.92,11.13
		c0-4.15,0-8.29,0-12.44c0-1.14-2.69,0.81-2.95,1c-0.89,0.66-3.5,2.44-3.5,3.77c0,8.79,0,17.59,0,26.38c-2.47,0-4.95,0-7.42,0
		c-0.17,0-0.34,0.03-0.52,0.07c0-18.29,0-36.58,0-54.86c0-1.14-2.69,0.81-2.94,1c-0.9,0.66-3.5,2.44-3.5,3.76
		c0,18.57,0,37.15,0,55.72c0,0.66,0.9,0.28,1.71-0.19c17.79,0,35.56,0,53.35,0c1.49,0,3.34-1.86,4.32-2.79
		C469.55,342.74,469.57,342.72,469.61,342.68z M430.36,340.03c0.36-0.44,0.62-0.88,0.62-1.28c0-1.77,0-3.54,0-5.3
		c0.29-0.39,0.48-0.77,0.48-1.13c0-4.45,1.09-8.86,3.75-12.48c0.48-0.64,0.97-1.18,1.3-1.5c0.35-0.35,0.79-0.69,1.2-0.97
		c1.79-1.21,3.76-2.12,5.78-2.88c8.06-3.04,17.89-3.64,26.12-0.79c0,8.78,0,17.56,0,26.34
		C456.52,340.03,443.45,340.03,430.36,340.03z"/>
	
		<rect id="XMLID_1673_" x="419.05" y="240.21" transform="matrix(0.7073 -0.7069 0.7069 0.7073 -48.9302 370.8098)" width="8.56" height="8.56"/>
	<path fill="#000000" id="XMLID_1670_" d="M328.93,129.56c16.14,2.85,32.5-2.07,45.69-11.4c3.95-2.8,7.63-6.04,10.93-9.62c0,2.48,0,4.96,0,7.43
		c-0.15,0.3-0.18,0.52,0.01,0.6c0.05,0.43,0.57,0.31,1.17,0.03c3.53,0,7.06,0,10.6,0c1.42,0,3.15-1.68,4.16-2.65
		c0.37,0.62,2.66-1.04,2.89-1.21c0.15-0.11,0.36-0.26,0.59-0.43c-0.62,0.51-1.17,1.05-1.58,1.43c-0.14,0.13-2.64,2.72-1.5,2.72
		c22.12,0,44.24,0,66.36,0c1.5,0,3.33-1.86,4.32-2.79c0.1-0.09,1.28-1.33,1.67-2.1c0.92-0.77,1.8-1.69,1.8-2.46
		c0-11.37,0-22.74,0-34.11c0-1.14-2.69,0.81-2.94,1c-0.9,0.66-3.49,2.44-3.49,3.77c0,10.39,0,20.78,0,31.17c-8.13,0-16.26,0-24.39,0
		c0-14.41,0-28.82,0-43.23c0.47-0.6,1.67-2.33,0.19-1.74c-6.55,2.6-13.3,5.01-19.22,8.9c-4.56,2.99-10.85,7.88-10.34,14.02
		c0.43,5.35,4.08,10.38,7.2,14.52c1.98,2.62,4.15,5.15,6.47,7.52c-7.27,0-14.54,0-21.8,0c-0.67,0-1.4,0.38-2.1,0.87
		c1.05-0.83,2.27-1.94,2.27-2.85c0-14.15,0-28.29,0-42.44c0-1.14-2.69,0.82-2.94,1c-0.9,0.66-3.5,2.44-3.5,3.76
		c0,13.27,0,26.53,0,39.79c-3.16,0-6.31,0-9.46,0c0-25.13,0-50.26,0-75.39c0-1.15-2.69,0.81-2.95,1c-0.89,0.66-3.49,2.44-3.49,3.77
		c0,21.47,0,42.95,0,64.42c-0.13,0.16-0.29,0.32-0.41,0.48c-4.58,6.25-9.35,10.26-16.24,13.73c-6.98,3.51-14.77,5.36-22.56,5.7
		c-16.05,0.71-31.65-5.9-41.84-18.39c-2.54-3.12-4.65-6.56-6.43-10.16c-0.34-0.7-7.17,3.68-6.35,5.33
		C299.07,116.44,312.6,126.68,328.93,129.56z M423.28,87.85c-1.15-2.87-1.61-7.47,0.71-9.07c4.44-3.05,9.74-4.88,14.78-6.81
		c0,12.17,0,24.33,0,36.5c-2.6-2.4-5.01-5.03-7.28-7.74C428.24,96.83,425.18,92.58,423.28,87.85z"/>
	<path fill="#000000" id="XMLID_1669_" d="M349.13,416.22c0-15.04,0-30.09,0-45.13c0-1.14-2.69,0.81-2.94,1c-0.9,0.66-3.5,2.44-3.5,3.76
		c0,14.46,0,28.92,0,43.37c-7.21,2.85-15.65,2.51-22.73-0.5c-9.17-3.89-15.4-12.45-16.44-22.34c-0.12-1.13-2.61,0.76-2.94,1
		c-0.79,0.58-3.63,2.54-3.5,3.77c1.12,10.75,7.72,19.5,17.81,23.42c9.53,3.7,19.97,2.22,28.63-2.86c0.81-0.3,1.95-1.13,2.11-1.25
		c0.83-0.61,3.1-2.18,3.43-3.47c0.01-0.02,0.03-0.05,0.05-0.07C349.38,416.48,349.33,416.27,349.13,416.22z"/>
	<rect id="XMLID_1668_" x="352.13" y="87.55" width="27.92" height="2.95"/>
	<rect id="XMLID_1667_" x="430.93" y="297.21" width="43.13" height="2.95"/>
	<rect id="XMLID_1666_" x="373.97" y="372.7" width="38.99" height="2.95"/>
	<rect id="XMLID_1665_" x="373.97" y="355.28" width="38.99" height="2.95"/>
	<path fill="#000000" id="XMLID_1662_" d="M463.19,151.28c-0.01-0.07-0.02-0.13-0.05-0.18c0.11-0.23,0.18-0.44,0.18-0.65c0-9.81,0-19.63,0-29.45
		c0-1.14-2.69,0.82-2.93,1c-0.9,0.66-3.5,2.44-3.5,3.77c0,9.81,0,19.63,0,29.45c0,0.07,0.01,0.13,0.03,0.18
		c-0.11,0.23-0.18,0.45-0.17,0.65c0.73,7.63,3.62,15.09,10.75,18.8c2.09,1.08,4.33,1.73,6.62,2.05c-0.5,0.3-0.92,0.61-1.01,0.68
		c-0.41,0.3-1.17,0.84-1.87,1.45c-9.4,3.57-19.78,7.5-25.44,16.15c-2.66,4.06-1.08,9.08,1.47,12.74c1.12,1.61,2.49,3.06,4.01,4.36
		c-5.75,0-11.5,0-17.25,0c0-9.32,0-18.64,0-27.97c0-1.14-2.69,0.81-2.94,1c-0.89,0.66-3.5,2.44-3.5,3.77c0,7.73,0,15.47,0,23.2
		c-7.03,0-14.08,0-21.11,0c-0.64,0-1.35,0.36-2.04,0.83c0-22.55,0-45.1,0-67.65c0-1.15-2.69,0.81-2.94,1
		c-0.9,0.66-3.5,2.44-3.5,3.77c0,25.25,0,50.51,0,75.76c0,1.14,2.69-0.82,2.95-1c0.89-0.66,3.49-2.44,3.49-3.77
		c0-1.14,0-2.29,0-3.43c9.27,0,18.55,0,27.82,0c-15.6,13.38-33.51,24.76-49.6,38.02c-0.38,0.32-3.21,2.62-2.58,3.37
		c0.62,0.75,3.38-1.65,3.76-1.97c0.35-0.28,0.7-0.56,1.04-0.84c0.12,0,0.27-0.02,0.48-0.1c13.75-4.87,30.39,5.05,33.54,19.06
		c-16.45,0-32.89,0-49.34,0c0.77-0.71,1.52-1.44,2.24-2.2c3.78-3.98,7.49-9.43,6.03-15.19c-1.24-4.87-6.52-8.37-10.52-10.81
		c-5.12-3.12-10.8-5.46-16.57-7.05c-1.2-0.33-3.6,2.11-4.32,2.79c-0.29,0.28-2.6,2.43-1.5,2.73c0.87,0.24,1.73,0.51,2.59,0.79
		c-0.01,0.03-0.02,0.05-0.02,0.08c0,19.15,0,38.29,0,57.43c0,1.15,2.69-0.81,2.95-1c0.89-0.66,3.49-2.44,3.49-3.77
		c0-4.67,0-9.35,0-14.02c3.13-1.24,6.15-2.79,9-4.63c-0.07,0.23-0.01,0.38,0.27,0.38c22.98,0,45.97,0,68.95,0c0,0.01,0,0.03,0,0.04
		c0,0.59,0.72,0.35,1.45-0.04c9.89,0,19.79,0,29.69,0c1.5,0,3.33-1.87,4.32-2.79c0.13-0.13,2.63-2.72,1.49-2.72
		c-0.81,0-1.63,0-2.44,0c-7.17-2.8-17.05-9.92-15.68-18.73c0.48-3.11,2.67-3.71,5.42-5.07c4.11-2.03,8.47-3.56,12.74-5.21
		c0.16-0.06,0.31-0.16,0.47-0.23c0,12.75,0,25.51,0,38.26c0,1.15,2.69-0.81,2.94-1c0.89-0.66,3.49-2.44,3.49-3.77
		c0-13.31,0-26.63,0-39.95c0-1.15-2.69,0.81-2.94,1c-0.41,0.3-1.17,0.84-1.87,1.46c-9.4,3.57-19.78,7.5-25.44,16.15
		c-2.66,4.07-1.08,9.07,1.47,12.74c1.12,1.61,2.49,3.06,4.01,4.36c-4.23,0-8.46,0-12.69,0c0-9.19,0-18.37,0-27.56
		c0-1.14-2.69,0.81-2.95,1c-0.89,0.67-3.49,2.44-3.49,3.77c0,7.6,0,15.19,0,22.79c-2.2,0-4.39,0-6.59,0c0.19-0.3,0.32-0.6,0.31-0.87
		c-0.64-16.11-17.75-27.73-32.95-24.26c0.16-0.11,0.3-0.23,0.46-0.35c4.58-3.44,9.18-6.84,13.77-10.26
		c8.95-6.66,17.99-13.25,26.45-20.53c0.17-0.14,0.8-0.66,1.41-1.26c8.46,0,16.91,0,25.37,0c0.13,0,0.28-0.03,0.41-0.06
		c1.15,0.14,2.79-1.41,3.5-2c0.16-0.13,3.27-3.1,2.59-3.36c-7.18-2.74-17.29-9.92-15.91-18.82c0.48-3.12,2.67-3.71,5.42-5.08
		c4.11-2.03,8.47-3.55,12.74-5.21c0.16-0.06,0.31-0.16,0.47-0.23c0,12.76,0,25.51,0,38.26c0,1.14,2.69-0.82,2.94-1.01
		c0.89-0.66,3.49-2.44,3.49-3.77c0-13.15,0-26.29,0-39.44c4.8,0.29,9.77-0.72,14.25-2.16c1.72-0.55,3.36-2.1,4.55-3.4
		c0.34-0.36,2.01-2.45,0.34-1.91c-6.83,2.2-14.67,3.14-21.33-0.12C466.91,166.12,463.89,158.58,463.19,151.28z M353.92,283.22
		c0-11.46,0-22.91,0-34.37c1.5,0.67,2.99,1.37,4.44,2.14c4.12,2.18,8.23,4.87,11.14,8.56c2.89,3.66,2.66,8.03,0.44,11.98
		c-2.41,4.32-7.2,6.75-11.64,8.46C356.65,280.64,355.14,281.93,353.92,283.22z"/>
	<path fill="#000000" id="XMLID_1661_" d="M507.62,409.36c-6.83,2.19-14.67,3.14-21.33-0.11c-6.95-3.4-9.97-10.94-10.67-18.24
		c0-0.07-0.02-0.13-0.04-0.18c0.11-0.22,0.19-0.44,0.19-0.65c0-9.82,0-19.63,0-29.44c0-1.15-2.69,0.81-2.94,1
		c-0.9,0.66-3.5,2.44-3.5,3.76c0,9.82,0,19.63,0,29.45c0,0.07,0.01,0.13,0.04,0.18c-0.12,0.23-0.19,0.45-0.17,0.64
		c0.73,7.63,3.61,15.1,10.75,18.8c7.03,3.64,15.57,2.41,22.78,0.09c1.72-0.55,3.36-2.1,4.55-3.4
		C507.62,410.91,509.29,408.83,507.62,409.36z"/>
	<path fill="#000000" id="XMLID_1660_" d="M460.25,359.66c-0.9,0.66-3.5,2.44-3.5,3.77c0,18.07,0,36.13,0,54.2c-5.24,3.58-10.49,7.16-15.73,10.74
		c-1.5,1.03-3.22,2.28-4.14,3.9c-0.86,1.53,1.56,0.27,1.95,0c6.56-4.48,13.12-8.96,19.68-13.44c1.01-0.69,1.99-1.39,2.87-2.24
		c1.01-0.94,1.81-1.74,1.81-3.15c0-1.34,0-2.69,0-4.04c0-5.69,0-11.38,0-17.06c0-11.23,0-22.45,0-33.67
		C463.19,357.51,460.5,359.47,460.25,359.66z"/>
	<path fill="#000000" id="XMLID_1659_" d="M443.89,375.87c0,14.43,0,28.85,0,43.27c0,1.15,2.69-0.81,2.94-1c0.9-0.66,3.49-2.44,3.49-3.77
		c0-14.42,0-28.85,0-43.27c0-1.14-2.68,0.81-2.94,1C446.5,372.76,443.89,374.54,443.89,375.87z"/>
	<path fill="#000000" id="XMLID_1658_" d="M421.18,368.69c-0.1,0.09-1.82,1.89-1.04,1.89c8.55,0,17.11,0,25.66,0c1.04,0,2.31-1.29,2.99-1.93
		c0.1-0.09,1.82-1.89,1.04-1.89c-2.74,0-5.49,0-8.23,0c-0.01-0.09-0.07-0.16-0.2-0.19c-1.99-0.45-3.58-1.69-4.41-3.56
		c-0.39-0.89-0.44-1.84-0.3-2.79c0.05-0.37,0.18-0.72,0.33-1.06c1-0.54,1.9-1.28,2.67-2.11c0.17-0.18,1.38-1.84,0.23-1.33
		c-3.3,1.47-7.38,4.44-7.77,8.35c-0.1,0.98,0.07,1.88,0.44,2.68c-2.82,0-5.63,0-8.43,0C423.13,366.75,421.85,368.04,421.18,368.69z"
		/>
	<path fill="#000000" id="XMLID_1657_" d="M368.81,306.32c-1.41,0.84-3.04,2.18-3.86,3.64c-0.81,1.45,1.46,0.21,1.81,0
		c0.16-0.1,0.37-0.21,0.93-0.53c0.56-0.32,1.1-0.63,1.66-0.95c1.3-0.75,2.61-1.51,3.88-2.33c2.68-1.7,5.51-3.73,7.4-6.32
		c1.4-1.93,0.78-3.04-1.47-3.48c-4.17-0.83-8.57-0.57-12.8-1.1c-1.27-0.16-3.23,1.85-4.03,2.61c-0.18,0.18-2.46,2.41-1.4,2.54
		c3.27,0.41,6.57,0.51,9.86,0.77c0.72,0.06,4.34,0,4.63,1.26c-0.47,0.31-1.06,0.67-1.56,0.97
		C372.21,304.4,370.49,305.32,368.81,306.32z"/>
	<path fill="#000000" id="XMLID_1656_" d="M385.8,304.69c-0.71,0.37-1.39,1.72-1.66,2.39c-1.56,3.82-4.43,11.08-0.62,14.57
		c1.26,1.16,2.8,0.75,3.88-0.28c1.59-1.5,2.71-4.22,2.75-6.39c0.02-0.9-0.76,0.21-0.9,0.44c-0.45,0.73-0.98,1.73-1.04,2.62
		c-0.31,0.23-0.68,0.37-1.05,0.45c-1.27,0.27-2.26-0.73-2.73-1.68c-1.34-2.66-0.13-7.48,0.93-10.08
		C385.39,306.64,386.32,304.43,385.8,304.69z"/>
	<path fill="#000000" id="XMLID_1655_" d="M373.69,219.37c-0.84,0.43-1.62,2.02-1.94,2.81c-1.84,4.48-5.2,12.99-0.73,17.08
		c1.48,1.35,3.28,0.87,4.55-0.33c1.86-1.76,3.17-4.95,3.22-7.49c0.01-1.06-0.9,0.25-1.06,0.51c-0.53,0.86-1.15,2.02-1.22,3.07
		c-0.36,0.27-0.79,0.43-1.24,0.53c-1.48,0.31-2.64-0.86-3.2-1.97c-1.57-3.12-0.16-8.77,1.09-11.82
		C373.21,221.65,374.29,219.06,373.69,219.37z"/>
	<path fill="#000000" id="XMLID_1654_" d="M448,228.76h26.07v-2.95h-43.13v2.95h16.16c-0.38,0.57-0.71,1.24-0.89,1.67
		c-1.7,4.15-4.81,12.04-0.67,15.83c1.37,1.26,3.04,0.81,4.22-0.3c1.73-1.63,2.94-4.58,2.98-6.94c0.01-0.98-0.83,0.23-0.98,0.48
		c-0.49,0.8-1.06,1.87-1.13,2.84c-0.33,0.25-0.73,0.4-1.14,0.49c-1.37,0.3-2.45-0.8-2.96-1.83c-1.46-2.89-0.15-8.13,1-10.95
		C447.55,229.99,447.82,229.35,448,228.76z"/>
	<path fill="#000000" id="XMLID_1653_" d="M440.7,179.38c-0.61,0.31-1.17,1.46-1.41,2.04c-1.32,3.25-3.77,9.43-0.53,12.4
		c1.08,0.98,2.38,0.63,3.31-0.24c1.35-1.27,2.3-3.6,2.34-5.43c0.01-0.77-0.65,0.18-0.77,0.37c-0.38,0.62-0.83,1.47-0.89,2.22
		c-0.27,0.2-0.58,0.31-0.9,0.39c-1.07,0.23-1.92-0.63-2.32-1.43c-1.13-2.27-0.11-6.37,0.79-8.58
		C440.35,181.04,441.14,179.16,440.7,179.38z"/>
	<path fill="#000000" id="XMLID_1652_" d="M377.29,122.24c-0.67,0.34-1.3,1.61-1.56,2.25c-1.47,3.59-4.18,10.44-0.58,13.72
		c1.19,1.09,2.64,0.7,3.66-0.26c1.5-1.41,2.55-3.98,2.58-6.01c0.01-0.85-0.72,0.2-0.85,0.41c-0.42,0.69-0.92,1.62-0.98,2.46
		c-0.29,0.21-0.64,0.34-0.99,0.43c-1.19,0.25-2.12-0.7-2.57-1.58c-1.26-2.51-0.13-7.05,0.87-9.49
		C376.91,124.07,377.78,121.99,377.29,122.24z"/>
	<path fill="#000000" id="XMLID_1651_" d="M368.17,94.32c-0.67,0.34-1.3,1.62-1.56,2.25c-1.47,3.59-4.17,10.44-0.58,13.73
		c1.19,1.08,2.64,0.7,3.66-0.27c1.5-1.41,2.55-3.98,2.58-6.01c0.01-0.85-0.72,0.2-0.85,0.41c-0.42,0.69-0.92,1.62-0.98,2.46
		c-0.3,0.21-0.64,0.35-0.99,0.43c-1.19,0.25-2.13-0.7-2.57-1.58c-1.26-2.51-0.13-7.05,0.87-9.49
		C367.79,96.15,368.66,94.07,368.17,94.32z"/>
	<path fill="#000000" id="XMLID_1650_" d="M458.92,100.45c1.99-1.88,3.4-5.31,3.45-8.02c0.02-1.13-0.96,0.26-1.14,0.55
		c-0.56,0.92-1.22,2.16-1.3,3.28c-0.39,0.28-0.85,0.46-1.32,0.56c-1.58,0.34-2.83-0.92-3.43-2.11c-1.68-3.34-0.17-9.41,1.17-12.67
		c0.04-0.11,1.2-2.89,0.56-2.55c-0.9,0.46-1.74,2.16-2.09,3c-1.96,4.8-5.57,13.92-0.78,18.31
		C455.62,102.26,457.55,101.74,458.92,100.45z"/>
	<path fill="#000000" id="XMLID_1649_" d="M472.74,149.28c-1.55-3.08-0.16-8.67,1.07-11.68c0.04-0.1,1.11-2.66,0.51-2.35
		c-0.82,0.43-1.6,1.99-1.92,2.77c-1.81,4.42-5.13,12.84-0.72,16.88c1.47,1.34,3.24,0.86,4.5-0.33c1.84-1.73,3.13-4.89,3.18-7.39
		c0.02-1.05-0.88,0.24-1.04,0.5c-0.52,0.85-1.13,2-1.2,3.03c-0.36,0.26-0.78,0.42-1.22,0.51
		C474.44,151.54,473.29,150.38,472.74,149.28z"/>
	<path fill="#000000" id="XMLID_1648_" d="M402.59,61.63c1.5-1.41,2.55-3.97,2.59-6.01c0.01-0.85-0.73,0.2-0.85,0.41
		c-0.42,0.69-0.92,1.63-0.98,2.47c-0.29,0.22-0.64,0.34-0.98,0.42c-1.19,0.26-2.13-0.69-2.58-1.58c-1.26-2.5-0.13-7.05,0.88-9.49
		c0.03-0.08,0.9-2.16,0.41-1.91c-0.67,0.34-1.3,1.61-1.56,2.25c-1.47,3.6-4.18,10.44-0.58,13.72
		C400.12,62.98,401.57,62.6,402.59,61.63z"/>
	<path fill="#000000" id="XMLID_1647_" d="M332.03,393.12c-0.6,0.31-1.17,1.47-1.41,2.04c-1.33,3.25-3.77,9.43-0.53,12.4
		c1.07,0.98,2.38,0.63,3.31-0.24c1.35-1.27,2.3-3.59,2.33-5.43c0.01-0.77-0.65,0.18-0.76,0.37c-0.39,0.62-0.84,1.47-0.89,2.23
		c-0.27,0.2-0.58,0.31-0.9,0.39c-1.07,0.23-1.92-0.63-2.32-1.43c-1.13-2.27-0.11-6.37,0.79-8.58
		C331.69,394.78,332.47,392.9,332.03,393.12z"/>
</g>
<path fill="#000000" d="M273.602,481.306c-0.578-0.576-1.301-1.03-2.174-1.362c-0.873-0.331-1.885-0.497-3.039-0.497
	c-0.663,0-1.463,0.079-2.4,0.238v-6.077h-1.535v17.711c0.706,0.202,1.402,0.354,2.087,0.454s1.301,0.151,1.849,0.151
	c1.153,0,2.166-0.162,3.039-0.486s1.596-0.764,2.174-1.319c0.576-0.555,1.006-1.211,1.287-1.968s0.42-1.561,0.42-2.411
	s-0.139-1.657-0.42-2.422C274.608,482.554,274.178,481.883,273.602,481.306z M272.391,489.167c-0.852,0.829-2.17,1.243-3.958,1.243
	c-0.39,0-0.805-0.032-1.244-0.097c-0.439-0.065-0.84-0.134-1.2-0.206v-8.845c0.447-0.115,0.887-0.194,1.319-0.237
	c0.433-0.044,0.808-0.065,1.125-0.065c0.894,0,1.668,0.112,2.325,0.335c0.656,0.224,1.199,0.545,1.633,0.963
	c0.432,0.418,0.752,0.919,0.961,1.503s0.314,1.243,0.314,1.979C273.667,487.195,273.241,488.338,272.391,489.167z M247.392,479.446
	c-0.62,0-1.297,0.079-2.033,0.238c-0.735,0.158-1.485,0.433-2.249,0.821l-0.065,1.73c0.548-0.303,0.973-0.52,1.276-0.649
	s0.624-0.237,0.962-0.324c0.338-0.086,0.677-0.158,1.016-0.216s0.667-0.087,0.984-0.087c1.139,0,1.982,0.249,2.53,0.746
	s0.822,1.33,0.822,2.498v0.13c-0.332-0.044-0.732-0.087-1.2-0.13c-0.469-0.043-0.876-0.065-1.222-0.065
	c-1.831,0-3.302,0.311-4.412,0.931c-1.11,0.619-1.665,1.644-1.665,3.07c0,0.707,0.155,1.305,0.465,1.795
	c0.31,0.49,0.713,0.88,1.211,1.168s1.067,0.497,1.708,0.627c0.641,0.13,1.308,0.194,2,0.194c0.807,0,1.6-0.072,2.378-0.216
	c0.779-0.145,1.536-0.368,2.271-0.671v-7.028c0-1.585-0.397-2.742-1.189-3.471C250.189,479.811,248.992,479.446,247.392,479.446z
	 M250.636,489.892c-0.375,0.144-0.858,0.267-1.449,0.367c-0.591,0.102-1.183,0.151-1.773,0.151c-0.505,0-0.984-0.035-1.438-0.108
	c-0.454-0.071-0.84-0.197-1.157-0.378c-0.317-0.18-0.57-0.414-0.757-0.703c-0.188-0.288-0.281-0.663-0.281-1.124
	c0-0.52,0.111-0.934,0.335-1.244c0.224-0.31,0.533-0.551,0.93-0.724c0.396-0.174,0.85-0.296,1.362-0.368
	c0.511-0.072,1.041-0.108,1.589-0.108c0.476,0,0.984,0.029,1.524,0.087c0.541,0.058,0.912,0.108,1.114,0.151V489.892z
	 M258.032,479.868c-0.649,0.122-1.276,0.263-1.881,0.422v11.418h1.535v-10.186c0.202-0.072,0.563-0.147,1.082-0.228
	c0.519-0.079,1.002-0.118,1.449-0.118h1.989v-1.492H260C259.336,479.685,258.681,479.746,258.032,479.868z M-77.92,487.667
	l241.145,0.656l0.663-0.433l-0.632-0.564L-77.92,487.667z M164.994,487.825l1.95,1.95l1.95-1.95l-1.95-1.95L164.994,487.825z
	 M169.559,487.825l3.057,3.057l3.057-3.057l-3.057-3.057L169.559,487.825z M212.359,489.286l-3.395-9.602h-1.514l-3.396,9.602
	l-2.984-9.602h-1.73l3.979,12.023h1.428l3.46-9.645l3.46,9.645h1.427l3.979-12.023h-1.73L212.359,489.286z M238.418,489.589
	c-0.317,0-0.591,0.115-0.822,0.346c-0.231,0.23-0.346,0.505-0.346,0.822c0,0.316,0.115,0.591,0.346,0.821
	c0.23,0.23,0.504,0.346,0.822,0.346c0.317,0,0.591-0.115,0.822-0.346c0.23-0.23,0.346-0.505,0.346-0.821
	c0-0.317-0.116-0.592-0.346-0.822C239.009,489.704,238.735,489.589,238.418,489.589z M193.243,489.286l-3.395-9.602h-1.514
	l-3.396,9.602l-2.984-9.602h-1.73l3.979,12.023h1.428l3.46-9.645l3.46,9.645h1.427l3.979-12.023h-1.73L193.243,489.286z
	 M231.476,489.286l-3.395-9.602h-1.514l-3.396,9.602l-2.984-9.602h-1.73l3.979,12.023h1.428l3.46-9.645l3.46,9.645h1.427
	l3.979-12.023h-1.73L231.476,489.286z M382.732,480.474c-0.426-0.396-0.938-0.667-1.535-0.812c-0.598-0.144-1.271-0.216-2.021-0.216
	c-0.664,0-1.393,0.09-2.184,0.271c-0.793,0.181-1.471,0.4-2.033,0.659c-0.346-0.331-0.818-0.569-1.416-0.714
	c-0.6-0.144-1.273-0.216-2.023-0.216c-0.635,0-1.268,0.058-1.902,0.173l-2.465,0.454v11.635h1.535v-10.38
	c0.447-0.102,0.883-0.188,1.309-0.26c0.424-0.072,0.896-0.108,1.416-0.108c0.605,0,1.125,0.058,1.557,0.173
	c0.434,0.116,0.789,0.321,1.07,0.616c0.281,0.296,0.494,0.711,0.639,1.244s0.217,1.24,0.217,2.119v6.596h1.535v-7.201
	c0-0.663-0.055-1.243-0.162-1.741c-0.109-0.497-0.213-0.861-0.314-1.092c0.086-0.043,0.281-0.119,0.584-0.228
	c0.303-0.107,0.602-0.197,0.898-0.27c0.295-0.072,0.586-0.126,0.875-0.162s0.547-0.055,0.779-0.055c0.59,0,1.102,0.058,1.535,0.173
	c0.432,0.116,0.781,0.317,1.049,0.605c0.266,0.289,0.471,0.703,0.615,1.244c0.145,0.54,0.217,1.251,0.217,2.13v6.596h1.535v-7.201
	c0-0.995-0.111-1.816-0.336-2.466C383.482,481.393,383.158,480.87,382.732,480.474z M280.1,474.581
	c-0.785,0.648-1.18,1.729-1.18,3.243v1.86h-2.551v1.492h2.551v10.531h1.537v-10.531h4.973v-1.492h-4.973v-1.471
	c0-0.635,0.045-1.149,0.141-1.546c0.094-0.396,0.24-0.707,0.443-0.931c0.201-0.223,0.475-0.385,0.82-0.486
	c0.346-0.101,0.779-0.151,1.299-0.151h2.422v-1.492h-2.271C281.956,473.607,280.885,473.932,280.1,474.581z M398.273,487.825
	l3.057,3.057l3.057-3.057l-3.057-3.057L398.273,487.825z M343.322,482.322c0.389-0.418,0.854-0.749,1.395-0.994
	s1.135-0.368,1.783-0.368c0.736,0,1.373,0.076,1.914,0.228s1.121,0.414,1.74,0.789l0.715-1.405c-0.707-0.39-1.393-0.674-2.055-0.854
	c-0.664-0.181-1.436-0.271-2.314-0.271c-0.85,0-1.639,0.155-2.367,0.465c-0.729,0.311-1.367,0.746-1.914,1.309
	c-0.549,0.563-0.98,1.222-1.297,1.979c-0.317,0.757-0.476,1.59-0.476,2.498s0.158,1.74,0.476,2.497
	c0.316,0.757,0.748,1.413,1.297,1.969c0.547,0.555,1.186,0.987,1.914,1.297c0.729,0.311,1.518,0.465,2.367,0.465
	c0.879,0,1.65-0.09,2.314-0.27c0.662-0.181,1.348-0.466,2.055-0.854l-0.715-1.406c-0.619,0.375-1.199,0.639-1.74,0.79
	s-1.178,0.227-1.914,0.227c-0.648,0-1.242-0.119-1.783-0.356c-0.541-0.238-1.006-0.565-1.395-0.984
	c-0.391-0.418-0.693-0.915-0.908-1.492c-0.217-0.576-0.324-1.203-0.324-1.881s0.107-1.305,0.324-1.882
	C342.628,483.238,342.931,482.741,343.322,482.322z M404.387,487.825l1.949,1.95l1.951-1.95l-1.951-1.95L404.387,487.825z
	 M410.701,487.326l-0.664,0.433l0.633,0.564l241.176-0.341L410.701,487.326z M362.611,481.295c-0.549-0.569-1.193-1.02-1.936-1.352
	c-0.742-0.331-1.547-0.497-2.412-0.497c-0.863,0-1.668,0.166-2.41,0.497c-0.742,0.332-1.389,0.782-1.936,1.352
	c-0.549,0.57-0.977,1.229-1.287,1.979c-0.311,0.749-0.465,1.557-0.465,2.422s0.154,1.672,0.465,2.422s0.738,1.409,1.287,1.979
	c0.547,0.569,1.193,1.017,1.936,1.341s1.547,0.486,2.41,0.486c0.865,0,1.67-0.162,2.412-0.486s1.387-0.771,1.936-1.341
	c0.547-0.569,0.977-1.229,1.287-1.979c0.309-0.75,0.465-1.557,0.465-2.422s-0.156-1.673-0.465-2.422
	C363.587,482.524,363.158,481.865,362.611,481.295z M362.394,487.523c-0.217,0.569-0.52,1.067-0.908,1.492
	c-0.389,0.426-0.857,0.765-1.406,1.017c-0.547,0.252-1.152,0.378-1.816,0.378c-0.662,0-1.268-0.126-1.816-0.378
	c-0.547-0.252-1.016-0.591-1.404-1.017c-0.391-0.425-0.693-0.923-0.908-1.492c-0.217-0.569-0.324-1.179-0.324-1.827
	c0-0.649,0.107-1.262,0.324-1.839c0.215-0.576,0.518-1.077,0.908-1.503c0.389-0.425,0.857-0.764,1.404-1.016
	c0.549-0.252,1.154-0.379,1.816-0.379c0.664,0,1.27,0.127,1.816,0.379c0.549,0.252,1.018,0.591,1.406,1.016
	c0.389,0.426,0.691,0.927,0.908,1.503c0.217,0.577,0.324,1.189,0.324,1.839C362.718,486.345,362.611,486.954,362.394,487.523z
	 M296.221,481.295c-0.547-0.569-1.191-1.02-1.936-1.352c-0.742-0.331-1.545-0.497-2.41-0.497s-1.67,0.166-2.412,0.497
	c-0.742,0.332-1.387,0.782-1.936,1.352c-0.547,0.57-0.977,1.229-1.285,1.979c-0.311,0.749-0.465,1.557-0.465,2.422
	s0.154,1.672,0.465,2.422c0.309,0.75,0.738,1.409,1.285,1.979c0.549,0.569,1.193,1.017,1.936,1.341s1.547,0.486,2.412,0.486
	s1.668-0.162,2.41-0.486c0.744-0.324,1.389-0.771,1.936-1.341c0.549-0.569,0.977-1.229,1.287-1.979s0.465-1.557,0.465-2.422
	s-0.154-1.673-0.465-2.422C297.198,482.524,296.77,481.865,296.221,481.295z M296.006,487.523c-0.217,0.569-0.52,1.067-0.908,1.492
	c-0.391,0.426-0.859,0.765-1.406,1.017c-0.549,0.252-1.154,0.378-1.816,0.378c-0.664,0-1.27-0.126-1.816-0.378
	c-0.549-0.252-1.018-0.591-1.406-1.017c-0.389-0.425-0.691-0.923-0.908-1.492s-0.324-1.179-0.324-1.827
	c0-0.649,0.107-1.262,0.324-1.839c0.217-0.576,0.52-1.077,0.908-1.503c0.389-0.425,0.857-0.764,1.406-1.016
	c0.547-0.252,1.152-0.379,1.816-0.379c0.662,0,1.268,0.127,1.816,0.379c0.547,0.252,1.016,0.591,1.406,1.016
	c0.389,0.426,0.691,0.927,0.908,1.503c0.215,0.577,0.324,1.189,0.324,1.839C296.331,486.345,296.221,486.954,296.006,487.523z
	 M309.381,480.463c-0.455-0.39-0.996-0.656-1.623-0.801c-0.627-0.144-1.309-0.216-2.043-0.216c-0.707,0-1.465,0.047-2.271,0.141
	s-1.701,0.234-2.682,0.422v11.699h1.535v-10.402c1.184-0.23,2.293-0.346,3.33-0.346c0.592,0,1.111,0.062,1.559,0.184
	c0.445,0.123,0.818,0.332,1.113,0.628c0.295,0.295,0.525,0.713,0.691,1.254s0.25,1.251,0.25,2.13v6.553h1.535v-7.201
	c0-0.995-0.119-1.82-0.357-2.477C310.18,481.375,309.834,480.852,309.381,480.463z M318.516,490.054
	c-0.346-0.108-0.619-0.277-0.82-0.509c-0.203-0.23-0.35-0.547-0.443-0.951c-0.096-0.403-0.141-0.922-0.141-1.557v-5.86h4.973v-1.492
	h-4.973v-4.347h-1.537v4.347h-2.551v1.492h2.551v6.466c0,0.764,0.109,1.405,0.326,1.925c0.215,0.519,0.525,0.937,0.93,1.254
	c0.402,0.317,0.867,0.544,1.395,0.682c0.525,0.137,1.105,0.205,1.74,0.205h2.271v-1.492h-2.422
	C319.295,490.216,318.862,490.162,318.516,490.054z M337.784,489.589c-0.316,0-0.59,0.115-0.82,0.346s-0.346,0.505-0.346,0.822
	c0,0.316,0.115,0.591,0.346,0.821s0.504,0.346,0.82,0.346c0.318,0,0.592-0.115,0.822-0.346s0.346-0.505,0.346-0.821
	c0-0.317-0.115-0.592-0.346-0.822S338.102,489.589,337.784,489.589z M333.178,486.106c-0.346-0.303-0.785-0.565-1.318-0.789
	c-0.533-0.223-1.182-0.422-1.947-0.595l-0.799-0.173c-1.053-0.216-1.781-0.461-2.184-0.735c-0.404-0.273-0.607-0.678-0.607-1.211
	c0-0.504,0.238-0.904,0.715-1.2c0.475-0.295,1.174-0.443,2.098-0.443c0.793,0,1.477,0.076,2.055,0.228
	c0.576,0.151,1.217,0.421,1.924,0.811l0.691-1.405c-1.412-0.765-2.969-1.146-4.67-1.146c-0.635,0-1.223,0.076-1.764,0.228
	c-0.539,0.151-1.008,0.364-1.404,0.638s-0.711,0.605-0.941,0.994c-0.23,0.39-0.346,0.815-0.346,1.276
	c0,0.462,0.072,0.88,0.217,1.254c0.143,0.375,0.381,0.707,0.713,0.995s0.758,0.537,1.275,0.746c0.52,0.209,1.146,0.4,1.883,0.573
	l0.908,0.194c1.008,0.217,1.729,0.49,2.162,0.822c0.432,0.331,0.648,0.771,0.648,1.318c0,0.39-0.086,0.707-0.26,0.952
	c-0.172,0.245-0.414,0.436-0.725,0.573c-0.311,0.137-0.678,0.237-1.102,0.303c-0.426,0.064-0.877,0.097-1.352,0.097
	c-0.592,0-1.223-0.09-1.893-0.271c-0.67-0.18-1.352-0.479-2.045-0.897l-0.734,1.471c0.779,0.433,1.539,0.742,2.281,0.93
	s1.539,0.281,2.391,0.281c0.748,0,1.434-0.072,2.053-0.216c0.621-0.145,1.158-0.36,1.611-0.648c0.455-0.289,0.805-0.649,1.049-1.082
	c0.246-0.433,0.369-0.93,0.369-1.492c0-0.476-0.072-0.915-0.217-1.318C333.77,486.763,333.526,486.41,333.178,486.106z"/>
</svg>

