<?xml version="1.0" encoding="utf-8"?>
<!-- Generator: Adobe Illustrator 23.0.0, SVG Export Plug-In . SVG Version: 6.00 Build 0)  -->
<svg version="1.1" id="Layer_1" xmlns="http://www.w3.org/2000/svg" xmlns:xlink="http://www.w3.org/1999/xlink" x="0px" y="0px"
	 viewBox="0 0 800 500" style="enable-background:new 0 0 800 500;" xml:space="preserve">
<style type="text/css">
	.st0{fill-rule:evenodd;clip-rule:evenodd;}
</style>
<g>
	<path fill="#000000" id="XMLID_9_" d="M455.91,59.73c-1.83,0.05-3.34,0.09-5.28-0.01c-7.83-0.39-25.39-6.15-25.39-6.15
		c9.57,8.69,20.36,11.72,26.5,12.77C451.75,66.35,453.38,62.73,455.91,59.73z"/>
	<path fill="#000000" id="XMLID_25_" d="M466.18,66.27c34.15-4.36,46.49-31.36,46.49-31.36s-39.53,9.71-49.72-6.25c-4.42-6.93,5.24-6.84,5.24-6.84
		s5.27-0.48,7.61,6.84l8.89-9.27c0,0-0.78-12.94-15.91-8.01c-4.49,1.46-14.64,12.4-16.2,19.72c-1.1,5.15-1.07,22.45,40.12,17.28
		c0,0-9.46,7.25-25.17,10.2C467.51,58.58,466.84,62.61,466.18,66.27z"/>
	<g id="XMLID_14_">
		<path fill="#000000" id="XMLID_17_" d="M465.54,164.72c-12.02-66.67,2.93-114.31,2.93-114.31c-26.91,12.8-29.6,71.77-22.79,119.16
			C445.68,169.57,455.65,168.36,465.54,164.72z"/>
		<path fill="#000000" id="XMLID_24_" d="M472.11,192.6c-0.38-1.34-0.65-2.63-1-3.96c-13.22,6.04-20.1,7.79-20.1,7.79
			c0.35,1.45,0.54,2.45,0.91,3.84c8.02,30.09,8.97,57.85,6.75,81.6h19.15C482.17,250.58,479.14,217.73,472.11,192.6z"/>
		<path fill="#000000" id="XMLID_23_" d="M438.58,362.25c15.22-12.53,25.5-29.99,32.03-49.52l-16.69-0.91
			C446.48,345.58,434.88,365.29,438.58,362.25z"/>
		<g id="XMLID_10_">
			<path fill="#000000" id="XMLID_11_" d="M317.7,245.21c9.39,5.45,31.2,23.02,137.24,13.63c0.44-0.04,1.99-0.05,2.42-0.09
				c-0.28-8.6-0.97-17.18-2.27-25.97c-26.55-0.09-55.25,2.1-71.34,2.42c-29.69,0.61-59.98-19.69-59.98-19.69
				c25.75-22.42,36.35-42.11,36.35-42.11c19.99,37.87,67.98,27.32,71.8,26.36c67.25-16.97,78.46-44.23,85.43-62.1
				c6.12-15.71,6.66-26.36-8.18-18.78c-19.64,10.02-33.68,7.86-45.26,4.5c0.32,8.16,0.97,16.79,2.14,25.9
				c15.95,1.25,22.53,0.53,24.64-0.1c3.03-0.91-8.79,20.3-56.35,24.84c-34.16,3.26-44.23-7.88-44.23-7.88s10-24.74,50.59-19.59
				c-0.67-9.49-0.93-19.15-0.62-28.59c-1.2-0.03-4.77-0.33-6.05-0.29c-43.63,0.91-52.71,40.29-52.71,40.29
				c-11.51-14.54-9.69-27.27-13.03-39.99c-3.33-12.72-8.48,12.47-9.69,19.69c-10.91,64.83-67.06,67.37-68.47,69.07
				c-7.27,8.79-9.69,25.14-9.69,25.14C300.43,232.48,308.31,239.75,317.7,245.21z"/>
			<path fill="#000000" id="XMLID_15_" d="M511.89,240.66c-7.59-3.37-18.97-5.48-30.14-6.67c0.45,8.15,0.82,16.42,0.45,25.15
				c41.07,6.3,48.47,36.35,48.47,36.35c-31.2-20.6-103-3.64-159.96-15.75c-39.07-8.31-61.94-33.86-62.71-32.42
				c-20.3,38.17-2.73,59.98,20.9,78.77c51.25,40.74,49.99,56.05,49.99,56.05c-5.15-5.76-27.06-17.6-41.2-24.54
				c-48.17-23.63-73.86-68.22-76.95-86.95c-5.76-34.84,35.13-92.62,24.24-81.8c-43.93,43.62-40.37,90.53-38.47,99.97
				c13.63,67.86,88.32,99.66,96.34,103.91c44.53,23.63,27.8,34.73,35.14,30.3c26.05-15.75,22.72-41.5,21.51-48.47
				c-7.03-40.4-71.16-80.95-63.32-77.25c32.11,15.15,87.85,13.83,90.28,13.63c74.22-6.06,94.52,11.82,100.88,15.75
				c6.36,3.94,8.62,16.3,14.84,6.97C573.09,287.32,539.16,252.78,511.89,240.66z"/>
		</g>
	</g>
	<path fill="#000000" id="XMLID_18_" class="st0" d="M261.15,98.39c-0.77-3.75,1.21-4.76,1-7.97c20.07,7.4,15.4,36.69,9.2,55.41
		c8.03-5.07,12.8-8.41,22.34-17.34c1.21,2.54,1.14,4.54-0.68,8.33l-12.19,10c-3.32,12.4-7.5,28.7,2.12,32.64
		c2.6,0.78,4.44-2.72,4.11-6.38c2.48,3.12,2.1,12.51-2.99,13.94c-15.13,1.07-8.53-28.65-3.98-39.84
		c-9.73,7.54-27.72,15.44-29.88,33.86c-4.35-15.51,6.05-27.55,18.92-33.86C275.57,130.84,276.56,105.03,261.15,98.39z"/>
	<path fill="#000000" id="XMLID_5_" class="st0" d="M381.69,26.88c6.77-3.2,19.45-4.8,26.98-9.71c-0.29,13.56-4.5,26.08-12.36,32.37
		c-1.63,1.3-5.1,2.42-7.53,3.63c-10.39,5.16-13.15,9.65-18.27,15.78c4.51-14.81,13.69-21.55,22.65-28.69
		c-7.01,2.39-14.97,3.16-20.15,8.71C369.4,42.23,375.81,28.91,381.69,26.88L381.69,26.88z"/>
	<path fill="#000000" id="XMLID_16_" class="st0" d="M415,335.4c-4.45-0.12-7.11,5.69-7.19,10.85c-2.6-5.55-1.13-20.64,7.46-20.2
		c17.77,1.2,6.38,30.21,0.98,40.3C408.65,376.24,430.07,338.64,415,335.4z"/>
	<path fill="#000000" id="XMLID_20_" class="st0" d="M512.99,216.42c4.12,0.12,6.58-5.26,6.65-10.05c2.4,5.14,1.05,19.11-6.91,18.7
		c-16.45-1.11-5.9-27.96-0.91-37.3C518.87,178.62,499.03,213.43,512.99,216.42z"/>
	<path fill="#000000" id="XMLID_21_" class="st0" d="M366.98,214.16c2.56,0.07,4.09-3.27,4.13-6.24c1.49,3.19,0.65,11.87-4.29,11.62
		c-10.22-0.69-3.67-17.38-0.56-23.18C370.63,190.68,358.3,212.3,366.98,214.16z"/>
	<path fill="#000000" id="XMLID_12_" class="st0" d="M405.93,95.54c-0.93,6.21-10.24,15.44-15.86,17.91c3.18-11.49-10.65-13.04-14.2-20.17
		c3.34-7.24,10.03-12.21,14.72-18.1C390.58,75.18,407.52,84.86,405.93,95.54z"/>
	<path fill="#000000" id="XMLID_13_" class="st0" d="M350.67,99.36c-1.98,27.44-38.28,26.22-43.03,52.34l0,0c-0.35-16.28,8.42-26.96,21.07-33.33
		C328.71,118.37,344.97,109.38,350.67,99.36z"/>
	<path fill="#000000" id="XMLID_19_" class="st0" d="M500.03,377.88c-2.46-3.96-6.82-9.52-9.02-13.15c-1.8-1.31-2.03,2.22-0.99,2.69
		c-3.09-0.7-6.34-2.88-9.35-2.84c-3-3.75-2.5-9.56-0.7-12.18c8.97-2.74,16.29,11.35,19.96,17.14c0-11.89-10.83-25.81,2.99-37.1
		c14.64,2.5,6.82,19.49,2.25,26.2c-1.31-4.8,4.51-10.39,2.84-15.15c-1.99-3.69-5.61-4.68-7.93-1.7
		c-4.03,10.98,5.46,20.47,1.54,31.44L500.03,377.88z"/>
	<path fill="#000000" id="XMLID_22_" class="st0" d="M286.57,280.88c-1.86-2.99-5.15-7.18-6.81-9.92c-1.36-0.99-1.53,1.68-0.75,2.03
		c-2.33-0.53-4.78-2.17-7.05-2.14c-2.26-2.83-1.89-7.21-0.53-9.19c6.77-2.06,12.29,8.56,15.06,12.93c0-8.97-8.17-19.47,2.26-27.99
		c11.04,1.88,5.14,14.7,1.7,19.76c-0.99-3.62,3.4-7.84,2.14-11.43c-1.5-2.78-4.23-3.53-5.98-1.28c-3.04,8.28,4.12,15.44,1.17,23.72
		L286.57,280.88z"/>
</g>
<path fill="#000000" d="M273.602,481.306c-0.578-0.576-1.301-1.03-2.174-1.362c-0.873-0.331-1.885-0.497-3.039-0.497
	c-0.663,0-1.463,0.079-2.4,0.238v-6.077h-1.535v17.711c0.706,0.202,1.402,0.354,2.087,0.454s1.301,0.151,1.849,0.151
	c1.153,0,2.166-0.162,3.039-0.486s1.596-0.764,2.174-1.319c0.576-0.555,1.006-1.211,1.287-1.968s0.42-1.561,0.42-2.411
	s-0.139-1.657-0.42-2.422C274.608,482.554,274.178,481.883,273.602,481.306z M272.391,489.167c-0.852,0.829-2.17,1.243-3.958,1.243
	c-0.39,0-0.805-0.032-1.244-0.097c-0.439-0.065-0.84-0.134-1.2-0.206v-8.845c0.447-0.115,0.887-0.194,1.319-0.237
	c0.433-0.044,0.808-0.065,1.125-0.065c0.894,0,1.668,0.112,2.325,0.335c0.656,0.224,1.199,0.545,1.633,0.963
	c0.432,0.418,0.752,0.919,0.961,1.503s0.314,1.243,0.314,1.979C273.667,487.195,273.241,488.338,272.391,489.167z M247.392,479.446
	c-0.62,0-1.297,0.079-2.033,0.238c-0.735,0.158-1.485,0.433-2.249,0.821l-0.065,1.73c0.548-0.303,0.973-0.52,1.276-0.649
	s0.624-0.237,0.962-0.324c0.338-0.086,0.677-0.158,1.016-0.216s0.667-0.087,0.984-0.087c1.139,0,1.982,0.249,2.53,0.746
	s0.822,1.33,0.822,2.498v0.13c-0.332-0.044-0.732-0.087-1.2-0.13c-0.469-0.043-0.876-0.065-1.222-0.065
	c-1.831,0-3.302,0.311-4.412,0.931c-1.11,0.619-1.665,1.644-1.665,3.07c0,0.707,0.155,1.305,0.465,1.795
	c0.31,0.49,0.713,0.88,1.211,1.168s1.067,0.497,1.708,0.627c0.641,0.13,1.308,0.194,2,0.194c0.807,0,1.6-0.072,2.378-0.216
	c0.779-0.145,1.536-0.368,2.271-0.671v-7.028c0-1.585-0.397-2.742-1.189-3.471C250.189,479.811,248.992,479.446,247.392,479.446z
	 M250.636,489.892c-0.375,0.144-0.858,0.267-1.449,0.367c-0.591,0.102-1.183,0.151-1.773,0.151c-0.505,0-0.984-0.035-1.438-0.108
	c-0.454-0.071-0.84-0.197-1.157-0.378c-0.317-0.18-0.57-0.414-0.757-0.703c-0.188-0.288-0.281-0.663-0.281-1.124
	c0-0.52,0.111-0.934,0.335-1.244c0.224-0.31,0.533-0.551,0.93-0.724c0.396-0.174,0.85-0.296,1.362-0.368
	c0.511-0.072,1.041-0.108,1.589-0.108c0.476,0,0.984,0.029,1.524,0.087c0.541,0.058,0.912,0.108,1.114,0.151V489.892z
	 M258.032,479.868c-0.649,0.122-1.276,0.263-1.881,0.422v11.418h1.535v-10.186c0.202-0.072,0.563-0.147,1.082-0.228
	c0.519-0.079,1.002-0.118,1.449-0.118h1.989v-1.492H260C259.336,479.685,258.681,479.746,258.032,479.868z M-77.92,487.667
	l241.145,0.656l0.663-0.433l-0.632-0.564L-77.92,487.667z M164.994,487.825l1.95,1.95l1.95-1.95l-1.95-1.95L164.994,487.825z
	 M169.559,487.825l3.057,3.057l3.057-3.057l-3.057-3.057L169.559,487.825z M212.359,489.286l-3.395-9.602h-1.514l-3.396,9.602
	l-2.984-9.602h-1.73l3.979,12.023h1.428l3.46-9.645l3.46,9.645h1.427l3.979-12.023h-1.73L212.359,489.286z M238.418,489.589
	c-0.317,0-0.591,0.115-0.822,0.346c-0.231,0.23-0.346,0.505-0.346,0.822c0,0.316,0.115,0.591,0.346,0.821
	c0.23,0.23,0.504,0.346,0.822,0.346c0.317,0,0.591-0.115,0.822-0.346c0.23-0.23,0.346-0.505,0.346-0.821
	c0-0.317-0.116-0.592-0.346-0.822C239.009,489.704,238.735,489.589,238.418,489.589z M193.243,489.286l-3.395-9.602h-1.514
	l-3.396,9.602l-2.984-9.602h-1.73l3.979,12.023h1.428l3.46-9.645l3.46,9.645h1.427l3.979-12.023h-1.73L193.243,489.286z
	 M231.476,489.286l-3.395-9.602h-1.514l-3.396,9.602l-2.984-9.602h-1.73l3.979,12.023h1.428l3.46-9.645l3.46,9.645h1.427
	l3.979-12.023h-1.73L231.476,489.286z M382.732,480.474c-0.426-0.396-0.938-0.667-1.535-0.812c-0.598-0.144-1.271-0.216-2.021-0.216
	c-0.664,0-1.393,0.09-2.184,0.271c-0.793,0.181-1.471,0.4-2.033,0.659c-0.346-0.331-0.818-0.569-1.416-0.714
	c-0.6-0.144-1.273-0.216-2.023-0.216c-0.635,0-1.268,0.058-1.902,0.173l-2.465,0.454v11.635h1.535v-10.38
	c0.447-0.102,0.883-0.188,1.309-0.26c0.424-0.072,0.896-0.108,1.416-0.108c0.605,0,1.125,0.058,1.557,0.173
	c0.434,0.116,0.789,0.321,1.07,0.616c0.281,0.296,0.494,0.711,0.639,1.244s0.217,1.24,0.217,2.119v6.596h1.535v-7.201
	c0-0.663-0.055-1.243-0.162-1.741c-0.109-0.497-0.213-0.861-0.314-1.092c0.086-0.043,0.281-0.119,0.584-0.228
	c0.303-0.107,0.602-0.197,0.898-0.27c0.295-0.072,0.586-0.126,0.875-0.162s0.547-0.055,0.779-0.055c0.59,0,1.102,0.058,1.535,0.173
	c0.432,0.116,0.781,0.317,1.049,0.605c0.266,0.289,0.471,0.703,0.615,1.244c0.145,0.54,0.217,1.251,0.217,2.13v6.596h1.535v-7.201
	c0-0.995-0.111-1.816-0.336-2.466C383.482,481.393,383.158,480.87,382.732,480.474z M280.1,474.581
	c-0.785,0.648-1.18,1.729-1.18,3.243v1.86h-2.551v1.492h2.551v10.531h1.537v-10.531h4.973v-1.492h-4.973v-1.471
	c0-0.635,0.045-1.149,0.141-1.546c0.094-0.396,0.24-0.707,0.443-0.931c0.201-0.223,0.475-0.385,0.82-0.486
	c0.346-0.101,0.779-0.151,1.299-0.151h2.422v-1.492h-2.271C281.956,473.607,280.885,473.932,280.1,474.581z M398.273,487.825
	l3.057,3.057l3.057-3.057l-3.057-3.057L398.273,487.825z M343.322,482.322c0.389-0.418,0.854-0.749,1.395-0.994
	s1.135-0.368,1.783-0.368c0.736,0,1.373,0.076,1.914,0.228s1.121,0.414,1.74,0.789l0.715-1.405c-0.707-0.39-1.393-0.674-2.055-0.854
	c-0.664-0.181-1.436-0.271-2.314-0.271c-0.85,0-1.639,0.155-2.367,0.465c-0.729,0.311-1.367,0.746-1.914,1.309
	c-0.549,0.563-0.98,1.222-1.297,1.979c-0.317,0.757-0.476,1.59-0.476,2.498s0.158,1.74,0.476,2.497
	c0.316,0.757,0.748,1.413,1.297,1.969c0.547,0.555,1.186,0.987,1.914,1.297c0.729,0.311,1.518,0.465,2.367,0.465
	c0.879,0,1.65-0.09,2.314-0.27c0.662-0.181,1.348-0.466,2.055-0.854l-0.715-1.406c-0.619,0.375-1.199,0.639-1.74,0.79
	s-1.178,0.227-1.914,0.227c-0.648,0-1.242-0.119-1.783-0.356c-0.541-0.238-1.006-0.565-1.395-0.984
	c-0.391-0.418-0.693-0.915-0.908-1.492c-0.217-0.576-0.324-1.203-0.324-1.881s0.107-1.305,0.324-1.882
	C342.628,483.238,342.931,482.741,343.322,482.322z M404.387,487.825l1.949,1.95l1.951-1.95l-1.951-1.95L404.387,487.825z
	 M410.701,487.326l-0.664,0.433l0.633,0.564l241.176-0.341L410.701,487.326z M362.611,481.295c-0.549-0.569-1.193-1.02-1.936-1.352
	c-0.742-0.331-1.547-0.497-2.412-0.497c-0.863,0-1.668,0.166-2.41,0.497c-0.742,0.332-1.389,0.782-1.936,1.352
	c-0.549,0.57-0.977,1.229-1.287,1.979c-0.311,0.749-0.465,1.557-0.465,2.422s0.154,1.672,0.465,2.422s0.738,1.409,1.287,1.979
	c0.547,0.569,1.193,1.017,1.936,1.341s1.547,0.486,2.41,0.486c0.865,0,1.67-0.162,2.412-0.486s1.387-0.771,1.936-1.341
	c0.547-0.569,0.977-1.229,1.287-1.979c0.309-0.75,0.465-1.557,0.465-2.422s-0.156-1.673-0.465-2.422
	C363.587,482.524,363.158,481.865,362.611,481.295z M362.394,487.523c-0.217,0.569-0.52,1.067-0.908,1.492
	c-0.389,0.426-0.857,0.765-1.406,1.017c-0.547,0.252-1.152,0.378-1.816,0.378c-0.662,0-1.268-0.126-1.816-0.378
	c-0.547-0.252-1.016-0.591-1.404-1.017c-0.391-0.425-0.693-0.923-0.908-1.492c-0.217-0.569-0.324-1.179-0.324-1.827
	c0-0.649,0.107-1.262,0.324-1.839c0.215-0.576,0.518-1.077,0.908-1.503c0.389-0.425,0.857-0.764,1.404-1.016
	c0.549-0.252,1.154-0.379,1.816-0.379c0.664,0,1.27,0.127,1.816,0.379c0.549,0.252,1.018,0.591,1.406,1.016
	c0.389,0.426,0.691,0.927,0.908,1.503c0.217,0.577,0.324,1.189,0.324,1.839C362.718,486.345,362.611,486.954,362.394,487.523z
	 M296.221,481.295c-0.547-0.569-1.191-1.02-1.936-1.352c-0.742-0.331-1.545-0.497-2.41-0.497s-1.67,0.166-2.412,0.497
	c-0.742,0.332-1.387,0.782-1.936,1.352c-0.547,0.57-0.977,1.229-1.285,1.979c-0.311,0.749-0.465,1.557-0.465,2.422
	s0.154,1.672,0.465,2.422c0.309,0.75,0.738,1.409,1.285,1.979c0.549,0.569,1.193,1.017,1.936,1.341s1.547,0.486,2.412,0.486
	s1.668-0.162,2.41-0.486c0.744-0.324,1.389-0.771,1.936-1.341c0.549-0.569,0.977-1.229,1.287-1.979s0.465-1.557,0.465-2.422
	s-0.154-1.673-0.465-2.422C297.198,482.524,296.77,481.865,296.221,481.295z M296.006,487.523c-0.217,0.569-0.52,1.067-0.908,1.492
	c-0.391,0.426-0.859,0.765-1.406,1.017c-0.549,0.252-1.154,0.378-1.816,0.378c-0.664,0-1.27-0.126-1.816-0.378
	c-0.549-0.252-1.018-0.591-1.406-1.017c-0.389-0.425-0.691-0.923-0.908-1.492s-0.324-1.179-0.324-1.827
	c0-0.649,0.107-1.262,0.324-1.839c0.217-0.576,0.52-1.077,0.908-1.503c0.389-0.425,0.857-0.764,1.406-1.016
	c0.547-0.252,1.152-0.379,1.816-0.379c0.662,0,1.268,0.127,1.816,0.379c0.547,0.252,1.016,0.591,1.406,1.016
	c0.389,0.426,0.691,0.927,0.908,1.503c0.215,0.577,0.324,1.189,0.324,1.839C296.331,486.345,296.221,486.954,296.006,487.523z
	 M309.381,480.463c-0.455-0.39-0.996-0.656-1.623-0.801c-0.627-0.144-1.309-0.216-2.043-0.216c-0.707,0-1.465,0.047-2.271,0.141
	s-1.701,0.234-2.682,0.422v11.699h1.535v-10.402c1.184-0.23,2.293-0.346,3.33-0.346c0.592,0,1.111,0.062,1.559,0.184
	c0.445,0.123,0.818,0.332,1.113,0.628c0.295,0.295,0.525,0.713,0.691,1.254s0.25,1.251,0.25,2.13v6.553h1.535v-7.201
	c0-0.995-0.119-1.82-0.357-2.477C310.18,481.375,309.834,480.852,309.381,480.463z M318.516,490.054
	c-0.346-0.108-0.619-0.277-0.82-0.509c-0.203-0.23-0.35-0.547-0.443-0.951c-0.096-0.403-0.141-0.922-0.141-1.557v-5.86h4.973v-1.492
	h-4.973v-4.347h-1.537v4.347h-2.551v1.492h2.551v6.466c0,0.764,0.109,1.405,0.326,1.925c0.215,0.519,0.525,0.937,0.93,1.254
	c0.402,0.317,0.867,0.544,1.395,0.682c0.525,0.137,1.105,0.205,1.74,0.205h2.271v-1.492h-2.422
	C319.295,490.216,318.862,490.162,318.516,490.054z M337.784,489.589c-0.316,0-0.59,0.115-0.82,0.346s-0.346,0.505-0.346,0.822
	c0,0.316,0.115,0.591,0.346,0.821s0.504,0.346,0.82,0.346c0.318,0,0.592-0.115,0.822-0.346s0.346-0.505,0.346-0.821
	c0-0.317-0.115-0.592-0.346-0.822S338.102,489.589,337.784,489.589z M333.178,486.106c-0.346-0.303-0.785-0.565-1.318-0.789
	c-0.533-0.223-1.182-0.422-1.947-0.595l-0.799-0.173c-1.053-0.216-1.781-0.461-2.184-0.735c-0.404-0.273-0.607-0.678-0.607-1.211
	c0-0.504,0.238-0.904,0.715-1.2c0.475-0.295,1.174-0.443,2.098-0.443c0.793,0,1.477,0.076,2.055,0.228
	c0.576,0.151,1.217,0.421,1.924,0.811l0.691-1.405c-1.412-0.765-2.969-1.146-4.67-1.146c-0.635,0-1.223,0.076-1.764,0.228
	c-0.539,0.151-1.008,0.364-1.404,0.638s-0.711,0.605-0.941,0.994c-0.23,0.39-0.346,0.815-0.346,1.276
	c0,0.462,0.072,0.88,0.217,1.254c0.143,0.375,0.381,0.707,0.713,0.995s0.758,0.537,1.275,0.746c0.52,0.209,1.146,0.4,1.883,0.573
	l0.908,0.194c1.008,0.217,1.729,0.49,2.162,0.822c0.432,0.331,0.648,0.771,0.648,1.318c0,0.39-0.086,0.707-0.26,0.952
	c-0.172,0.245-0.414,0.436-0.725,0.573c-0.311,0.137-0.678,0.237-1.102,0.303c-0.426,0.064-0.877,0.097-1.352,0.097
	c-0.592,0-1.223-0.09-1.893-0.271c-0.67-0.18-1.352-0.479-2.045-0.897l-0.734,1.471c0.779,0.433,1.539,0.742,2.281,0.93
	s1.539,0.281,2.391,0.281c0.748,0,1.434-0.072,2.053-0.216c0.621-0.145,1.158-0.36,1.611-0.648c0.455-0.289,0.805-0.649,1.049-1.082
	c0.246-0.433,0.369-0.93,0.369-1.492c0-0.476-0.072-0.915-0.217-1.318C333.77,486.763,333.526,486.41,333.178,486.106z"/>
</svg>

