<?xml version="1.0" encoding="utf-8"?>
<!-- Generator: Adobe Illustrator 23.0.0, SVG Export Plug-In . SVG Version: 6.00 Build 0)  -->
<svg version="1.1" id="Layer_1" xmlns="http://www.w3.org/2000/svg" xmlns:xlink="http://www.w3.org/1999/xlink" x="0px" y="0px"
	 viewBox="0 0 1200 800" style="enable-background:new 0 0 1200 800;" xml:space="preserve">
<style type="text/css">
	.st0{fill:#231F20;}
	.st1{opacity:0.3;fill:#231F20;}
</style>
<g>
	<path fill="#000000" class="st0" d="M562.56,637.39c0.1,0.53,0.24,1.06,0.38,1.54c-0.19-0.53-0.29-1.06-0.43-1.54c-0.1-0.43-0.19-0.86-0.29-1.34
		C562.32,636.47,562.46,636.95,562.56,637.39z"/>
	<path fill="#000000" class="st0" d="M569.71,654.86c-0.43-0.62-0.82-1.3-1.15-1.92c-0.14-0.29-0.29-0.62-0.43-0.91c0.14,0.29,0.29,0.62,0.48,0.91
		C568.94,653.56,569.33,654.23,569.71,654.86z"/>
	<g>
		<g>
			<g>
				<g>
					<polygon class="st0" points="631.88,594.95 625.16,590.32 630.52,596.55 628.86,598.51 613.65,586.06 629.16,567.73 
						644.37,580.19 					"/>
					<path fill="#000000" class="st0" d="M629.17,567.73c0,0-12.24,12.54-4.6,17.11l5.09,3.9l11.29-11.38L629.17,567.73z"/>
				</g>
				<g>
					<polygon class="st0" points="632.16,621.96 625.44,617.34 630.8,623.56 629.14,625.53 613.93,613.07 629.44,594.75 
						644.65,607.21 					"/>
					<path fill="#000000" class="st0" d="M629.44,594.75c0,0-12.24,12.54-4.6,17.11l5.09,3.9l11.29-11.38L629.44,594.75z"/>
				</g>
			</g>
			<g>
				<polygon class="st0" points="582.39,406.28 577.59,402.97 581.42,407.42 580.23,408.83 569.36,399.92 580.45,386.82 
					591.32,395.73 				"/>
				<path fill="#000000" class="st0" d="M580.45,386.82c0,0-8.75,8.97-3.29,12.24l3.64,2.79l8.07-8.13L580.45,386.82z"/>
			</g>
			<g>
				<polygon class="st0" points="617.78,380.57 612.97,377.26 616.8,381.71 615.61,383.12 604.74,374.21 615.83,361.11 
					626.71,370.02 				"/>
				<path fill="#000000" class="st0" d="M615.83,361.11c0,0-8.75,8.97-3.29,12.24l3.64,2.79l8.07-8.13L615.83,361.11z"/>
			</g>
			<g>
				<polygon class="st0" points="565.82,414.41 561.02,411.1 564.85,415.56 563.66,416.96 552.79,408.06 563.88,394.95 
					574.75,403.86 				"/>
				<path fill="#000000" class="st0" d="M563.88,394.95c0,0-8.75,8.97-3.29,12.24l3.64,2.79l8.07-8.13L563.88,394.95z"/>
			</g>
			<g>
				<polygon class="st0" points="702.48,515.21 697.94,512.09 701.56,516.29 700.44,517.62 690.16,509.2 700.65,496.82 
					710.92,505.24 				"/>
				<path fill="#000000" class="st0" d="M700.65,496.82c0,0-8.27,8.48-3.11,11.56l3.44,2.63l7.63-7.69L700.65,496.82z"/>
			</g>
			<g>
				<polygon class="st0" points="601.88,483.17 597.34,480.04 600.96,484.25 599.83,485.58 589.56,477.16 600.04,464.78 
					610.32,473.2 				"/>
				<path fill="#000000" class="st0" d="M600.04,464.78c0,0-8.27,8.48-3.11,11.56l3.44,2.63l7.63-7.69L600.04,464.78z"/>
			</g>
		</g>
	</g>
	<path fill="#000000" class="st0" d="M634.61,274.01c-0.1-0.8-0.13-1.57,0.08-2.32c0.39-1.51,0.75-2.94,1.1-4.28c0.73-2.69,1.39-5.03,1.97-6.97
		c1.17-3.86,1.99-6.07,1.99-6.07s0.82,2.21,1.98,6.07c0.6,1.94,1.25,4.28,1.97,6.97c0.34,1.34,0.71,2.77,1.1,4.28
		c0.22,0.75,0.18,1.53,0.08,2.32c-0.09,0.79-0.04,1.6-0.05,2.43v48.7l-10.15,7.73v-56.44C634.66,275.6,634.7,274.79,634.61,274.01z"
		/>
	<path fill="#000000" class="st0" d="M644.87,396.12c0.03,0.4,0.09,0.79,0.07,1.18c-0.01,0.39-0.11,0.77-0.2,1.15c-0.39,1.51-0.76,2.94-1.1,4.28
		c-0.72,2.69-1.38,5.04-1.96,6.97c-0.56,1.93-1.08,3.45-1.39,4.48c-0.33,1.03-0.53,1.59-0.53,1.59s-0.2-0.55-0.53-1.59
		c-0.32-1.03-0.83-2.55-1.4-4.48c-0.57-1.93-1.23-4.28-1.95-6.97c-0.35-1.34-0.72-2.77-1.11-4.28c-0.11-0.38-0.19-0.76-0.21-1.15
		c-0.02-0.39,0.04-0.77,0.08-1.18c0.08-0.79,0.04-1.6,0.04-2.43v-65.29l10.15-6.79v72.07C644.83,394.53,644.79,395.34,644.87,396.12
		z"/>
	<path fill="#000000" class="st0" d="M627.02,403.26c-0.06-0.5-0.13-1-0.24-1.5c-0.93-4.56-2.3-9.21-4.38-13.39c-0.71,1.51-1.31,3.2-1.89,4.81
		c-0.59,1.64-1.16,3.29-1.69,4.93c-1.78,5.51-1.85,11.39-3.7,16.98c-2.17,6.57-5.6,12.88-10.42,17.86
		c-0.51,0.53-1.02,1.07-1.58,1.56c-1.07,1.04-2.2,1.94-3.38,2.9c-2.35,1.82-4.84,4.43-7.49,5.64c-0.33-5.14,2.29-9.75,4.37-14.24
		c2.21-4.78,5.14-9.26,7.34-13.97c-2.57,0.87-5.11,2.48-7.55,3.71c-11.62,5.82-21.37,13.19-31.44,21.28
		c-2.1,1.68-4.25,3.41-6.45,5.18c-0.55,0.44-1.1,0.89-1.66,1.33l-0.84,0.67l-0.36,0.3l-0.2,0.18l-0.41,0.35
		c-1.09,0.95-2.19,1.9-3.29,2.86c-2.21,1.92-4.46,3.88-6.74,5.86c-1.14,0.99-2.29,1.99-3.44,2.99c-0.58,0.5-1.15,1-1.73,1.51
		l-0.87,0.76l-0.22,0.19l-0.3,0.28l-0.43,0.39c-5.07,4.6-9.29,10.36-12.02,16.86c-1.36,3.25-2.4,6.68-2.89,10.25
		c-0.11,0.9-0.24,1.78-0.28,2.69l-0.08,1.43l-0.02,1.24c0,1.55,0,3.1,0,4.64c0,6.16,0,12.22,0,18.09c0,8.26,0,16.53,0,24.79
		c0,10.3,1.02,19.89,3.14,29.96c0.56,2.74,1.08,4.89,1.4,6.36c0.15,0.63,0.28,1.26,0.53,1.83c0.99-2.6,1.38-5.47,1.94-8.19
		c1.87-9.11,3.14-17.59,3.14-26.9c0-9.29,0-18.57,0-27.86c0-1.73,0-3.52,0-5.28c3.02-0.97,5.94-2.25,8.69-3.84
		c15.59-8.98,29.71-32.5,19.26-50.02c-0.27-0.46-0.54-0.93-0.84-1.37c7.47-6.3,14.96-12.54,22.59-18.66
		c-0.53,3.17-1.06,6.36-1.05,9.57c0.01,4.28,2.26,14.37,8.71,9.36l0.11-0.08c8.68-6.73,17.94-13.01,24.99-21.54
		c5.24-6.34,8.89-13.93,10.63-21.96C626.76,410.49,627.43,406.84,627.02,403.26z M553.85,471.6c-0.23,4.95-1.44,9.58-3.77,13.94
		c-3.75,7.03-10.11,10.66-15.81,15.9c-0.47,0.43-0.93,0.9-1.38,1.37c0-1.02,0-2.02,0-3.04c0-1.54,0-3.09,0-4.64l0.01-1.08l0.06-0.9
		c0.02-0.65,0.13-1.3,0.2-1.95c0.35-2.61,1.14-5.22,2.19-7.74c3.44-8.21,9.64-13.36,16.22-19c1.19-1.02,2.39-2.01,3.58-3.02
		C554.08,464.68,554,468.42,553.85,471.6z"/>
	<path fill="#000000" class="st0" d="M625.11,279.46c-0.15-1.85-0.75-6.56-2.18-10.14c0,0,0,0,0-0.02c-1.11-2.75-2.73-4.8-5.02-4.36
		c-0.98,0.18-1.84,0.78-2.64,1.38c-8.6,6.2-17.24,12.38-25.78,18.65c-8.2,6-16.98,12.09-25.45,18.64c-3.33,2.55-6.6,5.18-9.76,7.91
		c-15.13,12.98-28.02,28.07-32.93,47.76c-3,12.02-3.27,24.49-3,36.8c0.27,11.71,0.02,23.69,1.95,35.23
		c0.73,4.29,1.38,8.04,1.95,11.13c0.56,3.07,1.09,5.51,1.4,7.16c0.36,1.64,0.55,2.53,0.55,2.53s0.18-0.89,0.53-2.53
		c0.33-1.65,0.84-4.09,1.4-7.16c0.58-3.09,1.24-6.84,1.96-11.13c0.35-2.15,0-4.44,0.4-6.84c0.09-0.6,0.18-1.22,0.2-1.84
		c0.24-7.82,0.49-35.09,0.55-40.62c0.13-11.82,2.11-22.91,7.2-33.56c4.38-9.18,10.51-17.51,17.94-24.45l0.02-0.02
		c0.71-0.67,1.44-1.33,2.18-1.96c2.31-2,4.89-4.16,7.47-6.25c2.11-1.69,4.2-3.35,6.16-4.82c5.67-4.27,9.11-6.27,12.22-8.25
		c0.09,8.04,0.33,11.05,0.78,15.71c0.24,2.27,0.8,6.67,2.4,8.74c8.95-3.27,15.64-10.84,16.2-11.47
		c-4.35,6.89-10.07,10.78-14.13,12.82c1.25,0.33,2.64,0.18,3.85-0.27c7.49-2.76,14.51-10.13,19.98-15.69
		c6.02-6.13,10.33-13.51,12.55-21.8C625.02,287.08,625.4,283.24,625.11,279.46z M614.69,287.02c-0.69,3.29-1.87,6.45-3.45,9.4
		c-3.18,5.93-10.74,16.27-17.45,18.18c-0.15,0.05-2.47-18.44,0.16-20.89c3.05-2.84,4.15-3.49,6.18-5.27
		C617.35,273.44,615.08,285.28,614.69,287.02z M618.75,267.77c0.05-0.07,0.09-0.11,0.09-0.11s0.93-0.78,1.33-1.18
		C619.89,266.86,619.37,267.3,618.75,267.77z"/>
	<path fill="#000000" class="st0" d="M621.64,270.46c0,0-0.04,0.04-0.09,0.09c0.6-0.44,1.11-0.85,1.38-1.24c0,0,0,0,0-0.02
		C622.51,269.72,621.64,270.46,621.64,270.46z"/>
	<path fill="#000000" class="st0" d="M724.03,334.29c0,0,2.6,11.11,2.29,16.98c-0.98,19.34-28.91,44.02-50.03,33.33
		c-7.71-3.91-10.91-11.85-10.65-20.11c0.36-12.18,7.04-23.87,16.67-31.18c4.78-3.64,10.33-6.04,16.2-7.29
		c2.89-0.64,5.84-0.98,8.78-1.18c1.16-0.09,7.58-1.02,8.65-0.33c-0.29-0.38-0.62-0.76-0.98-1.11c-6.05-1.71-17.96-3.55-28.91,3.55
		c0.45-0.47,8.69-8.96,24.44-6.73c-3.16-1.67-6.8-2.67-9.93-3.04c-20.14-2.31-37.76,18.36-42.93,35.87
		c-3.04,10.35-2.16,22.13,3.84,31.09c5,7.49,12.84,11.45,21.18,12.47c0,0,0.01,0,0.02,0c-2.41,1.62-4.75,3.39-7.04,5.39
		c-7.82,6.84-16.7,12.8-25.01,19.1c-11.18,8.48-12.49,7.27-22.73,16.96c-3.62,3.43-7.03,7.07-10.21,10.91
		c-0.57,0.69-4.55,4.82-4.16,5.6c0.05,0.1,0.12,0.18,0.19,0.25c2.8,2.45,12.06-3.67,14.47-5.1c4.89-2.91,9.64-6.51,14.04-9.84
		c8.46-6.41,6.06-4.28,14.52-10.69c9.27-7.03,18.22-14.59,27.87-21.08c5.69-3.83,11.57-8.06,15.71-13.57
		c3.14-1.13,6.11-2.65,8.78-4.54C739.12,368.66,724.03,334.29,724.03,334.29z"/>
	<path fill="#000000" class="st0" d="M726.38,247.75c-0.05-0.62-0.09-1.2-0.13-1.75c-0.05-0.53-0.05-1.02-0.15-1.45c-0.09-0.44-0.16-0.82-0.22-1.18
		c-0.29-1.42-0.44-2.16-0.44-2.16s-0.22,0.73-0.64,2.11c-0.11,0.35-0.22,0.75-0.35,1.16c-3.4,11.73-14,26.14-26.65,32.53
		c-0.08,0.04-0.16,0.07-0.24,0.12c-0.91,0.39-1.96,0.85-3.13,1.37c-0.01,0-0.01,0.01-0.02,0.01c-6.47,2.45-13.35,2.65-20-0.72
		c-7.69-3.89-10.89-11.84-10.64-20.09c0.36-12.18,7.04-23.87,16.65-31.16c4.8-3.64,10.33-6.04,16.2-7.31
		c2.89-0.62,5.84-0.98,8.8-1.18c1.15-0.09,7.58-1,8.64-0.33c-0.44-0.58-0.96-1.13-1.53-1.64l-0.2,0.53c0,0-17.42-7.91-32.94,2.15
		c0.47-0.51,9.76-10.05,27.45-6.18c-2.69-1.16-5.62-1.89-8.16-2.16c-20.14-2.31-37.74,18.34-42.91,35.87
		c-3.04,10.33-2.18,22.11,3.82,31.07c4.04,6.02,9.82,9.67,16.25,11.34l0.01,0c-13.31,10.15-30.91,23.56-48.51,36.98
		c-17.83,13.59-40.22,30.42-40.96,31.11c-20.02,15.76-22.36-6.59-22.37-7.67v-99.95l-10.15,12.82c0,0,0.7,90.96,0.8,93.52
		c1.07,29.39,28.99,16.25,29.82,15.61c13.37-10.19,31.2-23.78,49.03-37.36c17.83-13.59,35.65-27.17,49.02-37.36
		c0.55-0.41,5.72-4.36,9.53-7.25c0.01,0,0.01,0,0.02,0c5.42-1,10.65-3.05,15.16-5.95C718.69,275.86,727.38,261.59,726.38,247.75z"/>
	<path fill="#000000" class="st0" d="M554.36,226.63c0.66-8.55,2.01-17.04,4.68-25.43c-0.37,1.15,0.77,3.47,1.09,4.64
		c0.63,2.33,1.26,4.66,1.77,7.02c2.99,13.81,2.13,27.9,2.13,41.97l-10.15,9.37C553.88,251.6,553.4,239.05,554.36,226.63z"/>
	<path fill="#000000" class="st0" d="M537.52,227.86"/>
	<path fill="#000000" class="st0" d="M538.94,224.3"/>
	<path fill="#000000" class="st0" d="M710.09,115.92c-1.98-33.87-25.65-58.87-60.23-60.63c-21.71-1.13-41.56,8.98-57.71,22.74
		c-28.85,24.65-43.78,63.14-33.13,100.45c-1.09-4.76,1.71-13.05,2.51-17.96c1.05-6.4,2.35-12.76,3.96-19.04
		c3.2-12.47,7.82-24.67,15.07-35.38c4.85-7.22,10.96-14.2,18.18-20.34c15.35-13.13,34.87-23.11,55.6-20.11
		c17.98,2.6,34.78,13.98,41.43,30.98c6.69,17.31,5.31,37.27-1.36,54.36c-2.91,7.49-7,14.73-11.64,21.27
		c-4.35,6.11-11.36,12.58-18.78,16.09c-11.02,4.6-28.74,1.45-34.78-9.93c-2.33-4.36-1.42-6.13-4.18-10.15
		c-0.09-0.15-0.35,0.2-0.67,0.82c0.75,4.58,2.65,11.42,7.58,16.13c-0.45-0.22-6.73-3.45-9.09-12.65c-0.4,1-0.69,1.82-0.71,1.95
		c-0.38,2.67-0.22,5.44,0.53,8.04c1.75,6.09,6.93,11.27,12.25,14.47c2.24,1.36,4.71,2.42,7.25,3.15c2.55,0.73,5.15,1.11,7.71,1.22
		c1.76,0.07,3.48,0.02,5.15-0.16c-0.51,0.52-1.1,0.97-1.67,1.46c-10.06,8.61-20.27,17.11-30.54,25.47
		c-9.91,8.07-19.04,16.86-30.38,23.03c-3.44,1.87-7.24,3.54-11.13,3.14c-3.13-0.32-5.75-2.24-7.13-5.02
		c-0.37-0.75-2.71-7.53-2.69-7.55c-0.3,0.32-0.39,0.65-0.54,1.06c-0.36,1.03-0.93,2.52-1.36,4.56c-0.42,2.04-0.87,4.61-0.28,8.03
		c0.92,4.93,4.53,8.56,9.54,9.33c3.85,0.59,7.78-0.41,11.44-1.76c13.71-5.04,25-14.69,35.7-24.33
		c10.83-9.76,22.54-18.94,33.88-28.16c0.63-0.51,1.21-1.06,1.87-1.48c0.66-0.42,1.27-0.88,1.7-1.52c0.89-1.25,1.73-2.43,2.53-3.54
		c1.57-2.25,2.91-4.23,3.99-5.89c0.58-0.89,1.08-1.68,1.51-2.37c2.27-1.36,4.45-2.96,6.51-4.73c8.73-7.54,16.47-16.85,21.82-27.09
		C707.16,149.79,711.07,132.58,710.09,115.92z"/>
	<path fill="#000000" class="st0" d="M598.02,537.79l0.04-0.02l0.05-0.04c2.31-1.27,4.41-3.31,6.42-4.94c3.58-2.87,8.27-6.42,11.84-9.31
		c6.51-5.25,12.62-8.93,19.29-14.02c7.56-5.78,14.85-11.89,22.22-17.94c1.02-0.84,2.05-1.69,3.07-2.53
		c0.01-0.01,0.01-0.01,0.02-0.02c14.41,4.55,27.6-5.13,37.52-14.97c9.17-9.09,16.29-20.7,19.52-33.19
		c1.93-7.44,4.68-15.86,1.64-23.32c-0.82-2.01-1.57-3.76-2.23-5.2c-1.31-2.88-2.21-4.52-2.21-4.52s-0.74,1.74-1.75,4.77
		c-0.51,1.52-1.09,3.35-1.71,5.46c-0.16,0.53-0.3,1.07-0.46,1.63c-0.08,0.28-0.16,0.56-0.24,0.85l-0.06,0.22l-0.03,0.11l-0.02,0.05
		c0,0.35-0.01-0.44-0.01-0.35l-0.01,0.03l-0.15,0.43c-0.23,0.58-0.21,1.17-0.13,1.78c0.07,0.61,0.01,1.23,0.01,1.86
		c0,0.67-0.09,1.2-0.15,1.78c-0.06,0.58-0.13,1.16-0.19,1.76c-0.08,1.18-0.36,2.48-0.59,3.8c-0.13,0.66-0.23,1.33-0.38,2.01
		c-0.17,0.67-0.35,1.35-0.53,2.03c-2.63,10.27-7.9,19.84-14.96,27.78c-5.49,6.18-13.76,14.03-21.93,16.33
		c-0.27,0.08-0.54,0.13-0.78,0.26c-0.24,0.12-0.45,0.3-0.66,0.49c-0.42,0.38-0.83,0.74-1.25,1.09l0.02-0.01l2.44-2.16
		c2.27-2.04,4.53-4.07,6.76-6.2c1.11-1.07,2.22-2.15,3.31-3.27l0.82-0.84l0.84-0.89l0.85-0.91l0.75-0.84c2.15-2.45,4.11-5,5.89-7.8
		c1.78-2.78,3.33-5.78,4.51-9c1.16-3.2,1.96-6.64,2.15-10.2c0.09-1.78,0.04-3.58-0.22-5.4c-0.13-0.91-0.31-1.82-0.55-2.75
		c-0.11-0.45-0.25-0.93-0.42-1.4c-0.07-0.25-0.16-0.49-0.27-0.75l-0.15-0.4l-0.11-0.22l-0.15-0.33c-0.15-0.31-0.35-0.64-0.56-0.91
		c-0.53-0.69-1.22-1.18-1.96-1.49c0.55,3.13,0.73,6.02,0.69,8.64c0.02,0.15,0.02,0.27,0,0.4c-0.2,10.49-3.96,16.8-3.96,16.8
		c1.91-5.89,2.55-11.14,2.47-15.62c0-0.65-0.02-1.29-0.07-1.91c-0.2-3.4-0.82-6.29-1.55-8.65c-0.91,0.07-1.82,0.42-2.6,1.04
		l-0.09,0.09c-28.27,21.78-57.12,42.62-80.61,69.82c2-1.04,3.96-2.13,5.95-3.18c27.2-14.64,50.07-34.13,73.96-53.2
		c-0.22,2.15-0.73,4.25-1.47,6.27c-0.89,2.38-2.07,4.75-3.51,7c-1.44,2.24-3.13,4.44-4.93,6.49l-0.75,0.84l-0.69,0.73l-0.69,0.75
		l-0.76,0.76c-0.98,1.02-2.04,2.04-3.07,3.04c-2.09,2-4.27,3.98-6.47,5.95c-4.4,3.91-8.95,7.73-13.53,11.49
		c-2.47,2.04-4.96,4.04-7.45,6.04c-7.6,6.09-15.76,11.65-23.09,18.02c-4.84,4.2-11.62,9.05-17.76,13.91
		c-0.93-7.25-2.98-17.91-5.53-22.09c-5.64,2.4-4.71,24.38-4.35,28.4c0.02,0.2,0.04,0.4,0.04,0.62l-29.14,22.05l-0.09-25.45
		c0.02-2.8-2.89-10.96-5.05-12.05c-2.49-1.27-5.09,9.24-5.09,12.04v33.18l-0.04-0.04c0,0-2.05,52.91,1.09,70.54
		c0.16,0.96,0.4,1.95,0.62,2.93c0.25,1,0.51,1.98,0.75,3c0.22,1.02,0.55,2.02,0.84,3.04c1.24,4.07,2.91,8.22,5.13,12.29
		c2.22,4.05,5,8.02,8.38,11.64c6.71,7.27,15.87,13.14,26.25,16c5.16,1.45,10.6,2.24,16.05,2.36c0.69,0.04,1.38,0.02,2.05,0
		l2.05-0.04c1.38-0.05,2.75-0.18,4.11-0.27c1.36-0.15,2.73-0.35,4.11-0.51c1.38-0.25,2.78-0.51,4.18-0.76
		c1.29-0.29,2.6-0.6,3.91-0.91c1.33-0.36,2.65-0.75,3.98-1.13c1.31-0.44,2.62-0.89,3.93-1.33c1.29-0.51,2.58-1,3.85-1.51
		c5.11-2.13,10.04-4.73,14.69-7.69c9.33-5.95,17.6-13.36,24.58-21.62c6.98-8.25,12.67-17.34,16.89-26.76
		c2.11-4.73,3.85-9.51,5.2-14.31c2.53-9.04,3.78-18.76,3.31-28.29c-0.82-17.07-7.18-33.45-21.73-43.74
		c13.96,13.64,12.4,26.54,12.4,26.54c-2.25-17.53-19.42-29.16-27.65-33.8c-0.18-0.04-0.36-0.04-0.55-0.05
		c0.89,0.64,1.84,1.22,2.74,1.82c0.51,0.35,1.04,0.78,1.64,1.24c0.6,0.45,1.25,0.93,1.93,1.49c1.31,1.18,2.85,2.45,4.36,4.11
		c16.53,18.09,20.24,44.89,13.78,67.94c-1.22,4.31-2.8,8.64-4.71,12.91c-3.82,8.53-9,16.84-15.36,24.36
		c-6.36,7.51-13.91,14.25-22.29,19.6c-4.2,2.67-8.6,4.98-13.13,6.89c-1.15,0.44-2.29,0.89-3.44,1.33c-1.16,0.4-2.33,0.78-3.47,1.18
		c-1.18,0.33-2.35,0.65-3.51,1c-1.22,0.27-2.44,0.56-3.65,0.84c-1.15,0.22-2.29,0.42-3.42,0.62c-1.18,0.15-2.36,0.31-3.55,0.44
		c-1.18,0.07-2.36,0.2-3.53,0.24l-1.76,0.04c-0.58,0-1.16,0.02-1.75-0.02c-4.65-0.09-9.22-0.75-13.51-1.96
		c-8.62-2.38-16.05-7.18-21.58-13.13c-5.55-5.96-15.62-19.11-14.76-56.03c-0.02-11.36,1.02-20.04,0.8-31.4v-4.04L598.02,537.79z"/>
	<g>
		<path fill="#000000" class="st0" d="M615.77,150.49c0.2-0.72,0.42-1.42,0.66-2.12l0.36-1.02c0.05-0.18,0.13-0.33,0.26-0.42
			c0.13-0.09,0.28-0.16,0.41-0.26l1.42-1.27l5.66-5.1l10.46-11.1l0,0l0.74-1.98c0.25-0.28,0.51-0.55,0.75-0.83
			c0.11-0.15,0.17-0.35,0.35-0.44c0.18-0.09,0.4-0.14,0.59-0.22c0.4-0.14,0.8-0.28,1.22-0.41c0.41-0.13,0.83-0.26,1.25-0.37
			l0.64-0.18c0.21-0.06,0.42-0.12,0.64-0.17c0.44-0.1,0.87-0.22,1.33-0.3c-0.04,0.47-0.12,0.9-0.18,1.35
			c-0.03,0.23-0.08,0.44-0.12,0.65l-0.12,0.65c-0.08,0.44-0.17,0.86-0.26,1.28c-0.09,0.42-0.2,0.84-0.3,1.25
			c-0.06,0.2-0.09,0.42-0.17,0.61c-0.08,0.18-0.27,0.26-0.41,0.38c-0.26,0.27-0.51,0.55-0.76,0.82l-1.52,1.66
			c-0.06,0.07-0.13,0.14-0.2,0.2l-11.31,10.21l-5.66,5.1l-1.41,1.28c-0.11,0.11-0.2,0.26-0.3,0.38c-0.1,0.12-0.26,0.18-0.44,0.22
			l-1.05,0.26c-0.71,0.16-1.43,0.31-2.17,0.44C615.37,151.15,615.57,151.22,615.77,150.49z"/>
		<path fill="#000000" class="st0" d="M645.47,121.97c0,0-1.89-6.2-6.57-6.22c-3.32-0.01-7.63,2.52-9.48,6.22c-2.01,4.02-1.23,6.81-0.62,8.72
			c1.35,4.2,6.24,5.54,6.24,5.54S647.25,127.48,645.47,121.97z"/>
		<path fill="#000000" class="st0" d="M638.2,133.71c-0.03,0.02-0.05,0.04-0.08,0.06c-0.12,0.08-0.18,0.13-0.18,0.13s-4.9-1.33-6.25-5.53
			c-0.62-1.91-1.4-4.7,0.62-8.72c0.44-0.88,1.02-1.69,1.69-2.42c1.62-0.94,3.36-1.48,4.9-1.47c4.69,0.01,6.57,6.22,6.57,6.22
			C646.65,125.62,641.68,130.7,638.2,133.71z"/>
		<path fill="#000000" class="st0" d="M638.2,133.71c-0.03,0.02-0.05,0.04-0.08,0.06c-0.12,0.08-0.18,0.13-0.18,0.13s-4.9-1.33-6.25-5.53
			c-0.62-1.91-1.4-4.7,0.62-8.72c0.44-0.88,1.02-1.69,1.69-2.42c1.62-0.94,3.36-1.48,4.9-1.47c4.69,0.01,6.57,6.22,6.57,6.22
			C646.65,125.62,641.68,130.7,638.2,133.71z"/>
	</g>
	<path fill="#000000" class="st0" d="M610.28,206.57c-1.27,8.78-8.44,14.76-14.53,20.38c-7.42,6.84-14.82,13.67-22.24,20.53
		c-0.05,0.04-0.11,0.09-0.16,0.15c-1.44,1.33-2.87,2.65-4.29,4c-1.69,1.56-3.35,3.13-5.02,4.71c-2.16,2-4.31,4.02-6.47,6.02
		c-1.22,1.13-2.44,2.25-3.65,3.35c0,0.04-0.02,0.02-0.02,0.02c-1.44,1.33-2.87,2.64-4.33,3.93c-7.36,6.55-15.05,13.44-23.33,18.85
		c-10.71,7.02-22.73,11.16-35.07,5.94c-26.36-11.14-22.36-47.83-5.76-65.62c9.89-10.58,28.25-19.31,41.94-13.44
		c-15.34-1.56-23.38,6.73-23.84,7.2c10.84-7.02,22.56-5.65,29.13-3.96c0.96,0.78,1.87,1.67,2.73,2.65c0.4,0.45,0.67,0.85,0.85,1.11
		c0.15,0.18,0.24,0.29,0.27,0.35c-0.13-0.04-0.73-0.24-1.71-0.56c-17.84-5.76-38.74,6.89-47.33,22.27
		c-3.44,6.16-5.75,13.47-5.33,20.58c0.33,6.04,2.78,12.07,7.31,16.09c8.75,7.71,21.44,4.45,30.94-1.33
		c9.15-5.56,15.94-11.74,23.64-18.89c3.25-3.02,6.53-6.04,9.78-9.04c3.44-3.2,6.89-6.38,10.33-9.56c0.78-0.71,1.55-1.44,2.33-2.15
		c6.51-5.98,13-11.98,19.51-17.98c6.33-5.84,11.67-10.87,19.8-14.05C607.17,207.56,608.8,206.72,610.28,206.57z"/>
	<polygon class="st1" points="634.65,336.7 645,341.49 644.82,325.14 634.67,332.87 	"/>
	<polygon class="st1" points="553.89,269.5 564.11,274.71 564.02,256.48 553.92,265.68 	"/>
	<polygon class="st1" points="554.41,328.1 564.05,333.04 564.04,315.76 554.38,324.01 	"/>
</g>
<path fill="#000000" d="M273.602,481.306c-0.578-0.576-1.301-1.03-2.174-1.362c-0.873-0.331-1.885-0.497-3.039-0.497
	c-0.663,0-1.463,0.079-2.4,0.238v-6.077h-1.535v17.711c0.706,0.202,1.402,0.354,2.087,0.454s1.301,0.151,1.849,0.151
	c1.153,0,2.166-0.162,3.039-0.486s1.596-0.764,2.174-1.319c0.576-0.555,1.006-1.211,1.287-1.968s0.42-1.561,0.42-2.411
	s-0.139-1.657-0.42-2.422C274.608,482.554,274.178,481.883,273.602,481.306z M272.391,489.167c-0.852,0.829-2.17,1.243-3.958,1.243
	c-0.39,0-0.805-0.032-1.244-0.097c-0.439-0.065-0.84-0.134-1.2-0.206v-8.845c0.447-0.115,0.887-0.194,1.319-0.237
	c0.433-0.044,0.808-0.065,1.125-0.065c0.894,0,1.668,0.112,2.325,0.335c0.656,0.224,1.199,0.545,1.633,0.963
	c0.432,0.418,0.752,0.919,0.961,1.503s0.314,1.243,0.314,1.979C273.667,487.195,273.241,488.338,272.391,489.167z M247.392,479.446
	c-0.62,0-1.297,0.079-2.033,0.238c-0.735,0.158-1.485,0.433-2.249,0.821l-0.065,1.73c0.548-0.303,0.973-0.52,1.276-0.649
	s0.624-0.237,0.962-0.324c0.338-0.086,0.677-0.158,1.016-0.216s0.667-0.087,0.984-0.087c1.139,0,1.982,0.249,2.53,0.746
	s0.822,1.33,0.822,2.498v0.13c-0.332-0.044-0.732-0.087-1.2-0.13c-0.469-0.043-0.876-0.065-1.222-0.065
	c-1.831,0-3.302,0.311-4.412,0.931c-1.11,0.619-1.665,1.644-1.665,3.07c0,0.707,0.155,1.305,0.465,1.795
	c0.31,0.49,0.713,0.88,1.211,1.168s1.067,0.497,1.708,0.627c0.641,0.13,1.308,0.194,2,0.194c0.807,0,1.6-0.072,2.378-0.216
	c0.779-0.145,1.536-0.368,2.271-0.671v-7.028c0-1.585-0.397-2.742-1.189-3.471C250.189,479.811,248.992,479.446,247.392,479.446z
	 M250.636,489.892c-0.375,0.144-0.858,0.267-1.449,0.367c-0.591,0.102-1.183,0.151-1.773,0.151c-0.505,0-0.984-0.035-1.438-0.108
	c-0.454-0.071-0.84-0.197-1.157-0.378c-0.317-0.18-0.57-0.414-0.757-0.703c-0.188-0.288-0.281-0.663-0.281-1.124
	c0-0.52,0.111-0.934,0.335-1.244c0.224-0.31,0.533-0.551,0.93-0.724c0.396-0.174,0.85-0.296,1.362-0.368
	c0.511-0.072,1.041-0.108,1.589-0.108c0.476,0,0.984,0.029,1.524,0.087c0.541,0.058,0.912,0.108,1.114,0.151V489.892z
	 M258.032,479.868c-0.649,0.122-1.276,0.263-1.881,0.422v11.418h1.535v-10.186c0.202-0.072,0.563-0.147,1.082-0.228
	c0.519-0.079,1.002-0.118,1.449-0.118h1.989v-1.492H260C259.336,479.685,258.681,479.746,258.032,479.868z M-77.92,487.667
	l241.145,0.656l0.663-0.433l-0.632-0.564L-77.92,487.667z M164.994,487.825l1.95,1.95l1.95-1.95l-1.95-1.95L164.994,487.825z
	 M169.559,487.825l3.057,3.057l3.057-3.057l-3.057-3.057L169.559,487.825z M212.359,489.286l-3.395-9.602h-1.514l-3.396,9.602
	l-2.984-9.602h-1.73l3.979,12.023h1.428l3.46-9.645l3.46,9.645h1.427l3.979-12.023h-1.73L212.359,489.286z M238.418,489.589
	c-0.317,0-0.591,0.115-0.822,0.346c-0.231,0.23-0.346,0.505-0.346,0.822c0,0.316,0.115,0.591,0.346,0.821
	c0.23,0.23,0.504,0.346,0.822,0.346c0.317,0,0.591-0.115,0.822-0.346c0.23-0.23,0.346-0.505,0.346-0.821
	c0-0.317-0.116-0.592-0.346-0.822C239.009,489.704,238.735,489.589,238.418,489.589z M193.243,489.286l-3.395-9.602h-1.514
	l-3.396,9.602l-2.984-9.602h-1.73l3.979,12.023h1.428l3.46-9.645l3.46,9.645h1.427l3.979-12.023h-1.73L193.243,489.286z
	 M231.476,489.286l-3.395-9.602h-1.514l-3.396,9.602l-2.984-9.602h-1.73l3.979,12.023h1.428l3.46-9.645l3.46,9.645h1.427
	l3.979-12.023h-1.73L231.476,489.286z M382.732,480.474c-0.426-0.396-0.938-0.667-1.535-0.812c-0.598-0.144-1.271-0.216-2.021-0.216
	c-0.664,0-1.393,0.09-2.184,0.271c-0.793,0.181-1.471,0.4-2.033,0.659c-0.346-0.331-0.818-0.569-1.416-0.714
	c-0.6-0.144-1.273-0.216-2.023-0.216c-0.635,0-1.268,0.058-1.902,0.173l-2.465,0.454v11.635h1.535v-10.38
	c0.447-0.102,0.883-0.188,1.309-0.26c0.424-0.072,0.896-0.108,1.416-0.108c0.605,0,1.125,0.058,1.557,0.173
	c0.434,0.116,0.789,0.321,1.07,0.616c0.281,0.296,0.494,0.711,0.639,1.244s0.217,1.24,0.217,2.119v6.596h1.535v-7.201
	c0-0.663-0.055-1.243-0.162-1.741c-0.109-0.497-0.213-0.861-0.314-1.092c0.086-0.043,0.281-0.119,0.584-0.228
	c0.303-0.107,0.602-0.197,0.898-0.27c0.295-0.072,0.586-0.126,0.875-0.162s0.547-0.055,0.779-0.055c0.59,0,1.102,0.058,1.535,0.173
	c0.432,0.116,0.781,0.317,1.049,0.605c0.266,0.289,0.471,0.703,0.615,1.244c0.145,0.54,0.217,1.251,0.217,2.13v6.596h1.535v-7.201
	c0-0.995-0.111-1.816-0.336-2.466C383.482,481.393,383.158,480.87,382.732,480.474z M280.1,474.581
	c-0.785,0.648-1.18,1.729-1.18,3.243v1.86h-2.551v1.492h2.551v10.531h1.537v-10.531h4.973v-1.492h-4.973v-1.471
	c0-0.635,0.045-1.149,0.141-1.546c0.094-0.396,0.24-0.707,0.443-0.931c0.201-0.223,0.475-0.385,0.82-0.486
	c0.346-0.101,0.779-0.151,1.299-0.151h2.422v-1.492h-2.271C281.956,473.607,280.885,473.932,280.1,474.581z M398.273,487.825
	l3.057,3.057l3.057-3.057l-3.057-3.057L398.273,487.825z M343.322,482.322c0.389-0.418,0.854-0.749,1.395-0.994
	s1.135-0.368,1.783-0.368c0.736,0,1.373,0.076,1.914,0.228s1.121,0.414,1.74,0.789l0.715-1.405c-0.707-0.39-1.393-0.674-2.055-0.854
	c-0.664-0.181-1.436-0.271-2.314-0.271c-0.85,0-1.639,0.155-2.367,0.465c-0.729,0.311-1.367,0.746-1.914,1.309
	c-0.549,0.563-0.98,1.222-1.297,1.979c-0.317,0.757-0.476,1.59-0.476,2.498s0.158,1.74,0.476,2.497
	c0.316,0.757,0.748,1.413,1.297,1.969c0.547,0.555,1.186,0.987,1.914,1.297c0.729,0.311,1.518,0.465,2.367,0.465
	c0.879,0,1.65-0.09,2.314-0.27c0.662-0.181,1.348-0.466,2.055-0.854l-0.715-1.406c-0.619,0.375-1.199,0.639-1.74,0.79
	s-1.178,0.227-1.914,0.227c-0.648,0-1.242-0.119-1.783-0.356c-0.541-0.238-1.006-0.565-1.395-0.984
	c-0.391-0.418-0.693-0.915-0.908-1.492c-0.217-0.576-0.324-1.203-0.324-1.881s0.107-1.305,0.324-1.882
	C342.628,483.238,342.931,482.741,343.322,482.322z M404.387,487.825l1.949,1.95l1.951-1.95l-1.951-1.95L404.387,487.825z
	 M410.701,487.326l-0.664,0.433l0.633,0.564l241.176-0.341L410.701,487.326z M362.611,481.295c-0.549-0.569-1.193-1.02-1.936-1.352
	c-0.742-0.331-1.547-0.497-2.412-0.497c-0.863,0-1.668,0.166-2.41,0.497c-0.742,0.332-1.389,0.782-1.936,1.352
	c-0.549,0.57-0.977,1.229-1.287,1.979c-0.311,0.749-0.465,1.557-0.465,2.422s0.154,1.672,0.465,2.422s0.738,1.409,1.287,1.979
	c0.547,0.569,1.193,1.017,1.936,1.341s1.547,0.486,2.41,0.486c0.865,0,1.67-0.162,2.412-0.486s1.387-0.771,1.936-1.341
	c0.547-0.569,0.977-1.229,1.287-1.979c0.309-0.75,0.465-1.557,0.465-2.422s-0.156-1.673-0.465-2.422
	C363.587,482.524,363.158,481.865,362.611,481.295z M362.394,487.523c-0.217,0.569-0.52,1.067-0.908,1.492
	c-0.389,0.426-0.857,0.765-1.406,1.017c-0.547,0.252-1.152,0.378-1.816,0.378c-0.662,0-1.268-0.126-1.816-0.378
	c-0.547-0.252-1.016-0.591-1.404-1.017c-0.391-0.425-0.693-0.923-0.908-1.492c-0.217-0.569-0.324-1.179-0.324-1.827
	c0-0.649,0.107-1.262,0.324-1.839c0.215-0.576,0.518-1.077,0.908-1.503c0.389-0.425,0.857-0.764,1.404-1.016
	c0.549-0.252,1.154-0.379,1.816-0.379c0.664,0,1.27,0.127,1.816,0.379c0.549,0.252,1.018,0.591,1.406,1.016
	c0.389,0.426,0.691,0.927,0.908,1.503c0.217,0.577,0.324,1.189,0.324,1.839C362.718,486.345,362.611,486.954,362.394,487.523z
	 M296.221,481.295c-0.547-0.569-1.191-1.02-1.936-1.352c-0.742-0.331-1.545-0.497-2.41-0.497s-1.67,0.166-2.412,0.497
	c-0.742,0.332-1.387,0.782-1.936,1.352c-0.547,0.57-0.977,1.229-1.285,1.979c-0.311,0.749-0.465,1.557-0.465,2.422
	s0.154,1.672,0.465,2.422c0.309,0.75,0.738,1.409,1.285,1.979c0.549,0.569,1.193,1.017,1.936,1.341s1.547,0.486,2.412,0.486
	s1.668-0.162,2.41-0.486c0.744-0.324,1.389-0.771,1.936-1.341c0.549-0.569,0.977-1.229,1.287-1.979s0.465-1.557,0.465-2.422
	s-0.154-1.673-0.465-2.422C297.198,482.524,296.77,481.865,296.221,481.295z M296.006,487.523c-0.217,0.569-0.52,1.067-0.908,1.492
	c-0.391,0.426-0.859,0.765-1.406,1.017c-0.549,0.252-1.154,0.378-1.816,0.378c-0.664,0-1.27-0.126-1.816-0.378
	c-0.549-0.252-1.018-0.591-1.406-1.017c-0.389-0.425-0.691-0.923-0.908-1.492s-0.324-1.179-0.324-1.827
	c0-0.649,0.107-1.262,0.324-1.839c0.217-0.576,0.52-1.077,0.908-1.503c0.389-0.425,0.857-0.764,1.406-1.016
	c0.547-0.252,1.152-0.379,1.816-0.379c0.662,0,1.268,0.127,1.816,0.379c0.547,0.252,1.016,0.591,1.406,1.016
	c0.389,0.426,0.691,0.927,0.908,1.503c0.215,0.577,0.324,1.189,0.324,1.839C296.331,486.345,296.221,486.954,296.006,487.523z
	 M309.381,480.463c-0.455-0.39-0.996-0.656-1.623-0.801c-0.627-0.144-1.309-0.216-2.043-0.216c-0.707,0-1.465,0.047-2.271,0.141
	s-1.701,0.234-2.682,0.422v11.699h1.535v-10.402c1.184-0.23,2.293-0.346,3.33-0.346c0.592,0,1.111,0.062,1.559,0.184
	c0.445,0.123,0.818,0.332,1.113,0.628c0.295,0.295,0.525,0.713,0.691,1.254s0.25,1.251,0.25,2.13v6.553h1.535v-7.201
	c0-0.995-0.119-1.82-0.357-2.477C310.18,481.375,309.834,480.852,309.381,480.463z M318.516,490.054
	c-0.346-0.108-0.619-0.277-0.82-0.509c-0.203-0.23-0.35-0.547-0.443-0.951c-0.096-0.403-0.141-0.922-0.141-1.557v-5.86h4.973v-1.492
	h-4.973v-4.347h-1.537v4.347h-2.551v1.492h2.551v6.466c0,0.764,0.109,1.405,0.326,1.925c0.215,0.519,0.525,0.937,0.93,1.254
	c0.402,0.317,0.867,0.544,1.395,0.682c0.525,0.137,1.105,0.205,1.74,0.205h2.271v-1.492h-2.422
	C319.295,490.216,318.862,490.162,318.516,490.054z M337.784,489.589c-0.316,0-0.59,0.115-0.82,0.346s-0.346,0.505-0.346,0.822
	c0,0.316,0.115,0.591,0.346,0.821s0.504,0.346,0.82,0.346c0.318,0,0.592-0.115,0.822-0.346s0.346-0.505,0.346-0.821
	c0-0.317-0.115-0.592-0.346-0.822S338.102,489.589,337.784,489.589z M333.178,486.106c-0.346-0.303-0.785-0.565-1.318-0.789
	c-0.533-0.223-1.182-0.422-1.947-0.595l-0.799-0.173c-1.053-0.216-1.781-0.461-2.184-0.735c-0.404-0.273-0.607-0.678-0.607-1.211
	c0-0.504,0.238-0.904,0.715-1.2c0.475-0.295,1.174-0.443,2.098-0.443c0.793,0,1.477,0.076,2.055,0.228
	c0.576,0.151,1.217,0.421,1.924,0.811l0.691-1.405c-1.412-0.765-2.969-1.146-4.67-1.146c-0.635,0-1.223,0.076-1.764,0.228
	c-0.539,0.151-1.008,0.364-1.404,0.638s-0.711,0.605-0.941,0.994c-0.23,0.39-0.346,0.815-0.346,1.276
	c0,0.462,0.072,0.88,0.217,1.254c0.143,0.375,0.381,0.707,0.713,0.995s0.758,0.537,1.275,0.746c0.52,0.209,1.146,0.4,1.883,0.573
	l0.908,0.194c1.008,0.217,1.729,0.49,2.162,0.822c0.432,0.331,0.648,0.771,0.648,1.318c0,0.39-0.086,0.707-0.26,0.952
	c-0.172,0.245-0.414,0.436-0.725,0.573c-0.311,0.137-0.678,0.237-1.102,0.303c-0.426,0.064-0.877,0.097-1.352,0.097
	c-0.592,0-1.223-0.09-1.893-0.271c-0.67-0.18-1.352-0.479-2.045-0.897l-0.734,1.471c0.779,0.433,1.539,0.742,2.281,0.93
	s1.539,0.281,2.391,0.281c0.748,0,1.434-0.072,2.053-0.216c0.621-0.145,1.158-0.36,1.611-0.648c0.455-0.289,0.805-0.649,1.049-1.082
	c0.246-0.433,0.369-0.93,0.369-1.492c0-0.476-0.072-0.915-0.217-1.318C333.77,486.763,333.526,486.41,333.178,486.106z"/>
</svg>

