<?xml version="1.0" encoding="utf-8"?>
<!-- Generator: Adobe Illustrator 23.0.0, SVG Export Plug-In . SVG Version: 6.00 Build 0)  -->
<svg version="1.1" id="Layer_1" xmlns="http://www.w3.org/2000/svg" xmlns:xlink="http://www.w3.org/1999/xlink" x="0px" y="0px"
	 viewBox="0 0 1200 800" style="enable-background:new 0 0 1200 800;" xml:space="preserve">
<style type="text/css">
	.st0{fill:#231F20;}
	.st1{clip-path:url(#SVGID_2_);fill:#231F20;}
	.st2{clip-path:url(#SVGID_4_);fill:#231F20;}
</style>
<g>
	<g>
		<rect x="765.18" y="767.9" class="st0" width="33.68" height="0.37"/>
	</g>
	<g>
		<rect x="453.6" y="767.73" class="st0" width="33.68" height="0.37"/>
	</g>
	<g>
		<g>
			
				<rect x="798.03" y="763.72" transform="matrix(0.7142 -0.6999 0.6999 0.7142 -308.2557 781.0764)" class="st0" width="8.56" height="8.56"/>
		</g>
		<g>
			<g>
				<defs>
					<path fill="#000000" id="SVGID_1_" d="M802.25,774.05c0,0,4.82-3.97,1.81-6.38l-2-1.94l-4.45,3.59L802.25,774.05z"/>
				</defs>
				<use xlink:href="#SVGID_1_"  style="overflow:visible;fill:#231F20;"/>
				<clipPath id="SVGID_2_">
					<use xlink:href="#SVGID_1_"  style="overflow:visible;"/>
				</clipPath>
				<polygon class="st1" points="807.07,767.2 797.61,769.33 797.61,765.74 807.07,765.74 				"/>
				<polygon class="st1" points="807.07,767.23 797.61,769.37 797.61,769.33 807.07,767.2 				"/>
				<polygon class="st1" points="807.07,767.27 797.61,769.4 797.61,769.37 807.07,767.23 				"/>
				<polygon class="st1" points="807.07,767.31 797.61,769.44 797.61,769.4 807.07,767.27 				"/>
				<polygon class="st1" points="807.07,767.35 797.61,769.48 797.61,769.44 807.07,767.31 				"/>
				<polygon class="st1" points="807.07,767.39 797.61,769.52 797.61,769.48 807.07,767.35 				"/>
				<polygon class="st1" points="807.07,767.42 797.61,769.56 797.61,769.52 807.07,767.39 				"/>
				<polygon class="st1" points="807.07,767.46 797.61,769.59 797.61,769.56 807.07,767.42 				"/>
				<polygon class="st1" points="807.07,767.5 797.61,769.63 797.61,769.59 807.07,767.46 				"/>
				<polygon class="st1" points="807.07,767.54 797.61,769.67 797.61,769.63 807.07,767.5 				"/>
				<polygon class="st1" points="807.07,767.58 797.61,769.71 797.61,769.67 807.07,767.54 				"/>
				<polygon class="st1" points="807.07,767.61 797.61,769.75 797.61,769.71 807.07,767.58 				"/>
				<polygon class="st1" points="807.07,767.65 797.61,769.78 797.61,769.75 807.07,767.61 				"/>
				<polygon class="st1" points="807.07,767.69 797.61,769.82 797.61,769.78 807.07,767.65 				"/>
				<polygon class="st1" points="807.07,767.73 797.61,769.86 797.61,769.82 807.07,767.69 				"/>
				<polygon class="st1" points="807.07,767.77 797.61,769.9 797.61,769.86 807.07,767.73 				"/>
				<polygon class="st1" points="807.07,767.81 797.61,769.94 797.61,769.9 807.07,767.77 				"/>
				<polygon class="st1" points="807.07,767.84 797.61,769.97 797.61,769.94 807.07,767.81 				"/>
				<polygon class="st1" points="807.07,767.88 797.61,770.01 797.61,769.97 807.07,767.84 				"/>
				<polygon class="st1" points="807.07,767.92 797.61,770.05 797.61,770.01 807.07,767.88 				"/>
				<polygon class="st1" points="807.07,767.96 797.61,770.09 797.61,770.05 807.07,767.92 				"/>
				<polygon class="st1" points="807.07,768 797.61,770.13 797.61,770.09 807.07,767.96 				"/>
				<polygon class="st1" points="807.07,768.03 797.61,770.16 797.61,770.13 807.07,768 				"/>
				<polygon class="st1" points="807.07,768.07 797.61,770.2 797.61,770.16 807.07,768.03 				"/>
				<polygon class="st1" points="807.07,768.11 797.61,770.24 797.61,770.2 807.07,768.07 				"/>
				<polygon class="st1" points="807.07,768.15 797.61,770.28 797.61,770.24 807.07,768.11 				"/>
				<polygon class="st1" points="807.07,768.19 797.61,770.32 797.61,770.28 807.07,768.15 				"/>
				<polygon class="st1" points="807.07,768.22 797.61,770.35 797.61,770.32 807.07,768.19 				"/>
				<polygon class="st1" points="807.07,768.26 797.61,770.39 797.61,770.35 807.07,768.22 				"/>
				<polygon class="st1" points="807.07,768.3 797.61,770.43 797.61,770.39 807.07,768.26 				"/>
				<polygon class="st1" points="807.07,768.34 797.61,770.47 797.61,770.43 807.07,768.3 				"/>
				<polygon class="st1" points="807.07,768.38 797.61,770.51 797.61,770.47 807.07,768.34 				"/>
				<polygon class="st1" points="807.07,768.41 797.61,770.55 797.61,770.51 807.07,768.38 				"/>
				<polygon class="st1" points="807.07,768.45 797.61,770.58 797.61,770.55 807.07,768.41 				"/>
				<polygon class="st1" points="807.07,768.49 797.61,770.62 797.61,770.58 807.07,768.45 				"/>
				<polygon class="st1" points="807.07,768.53 797.61,770.66 797.61,770.62 807.07,768.49 				"/>
				<polygon class="st1" points="807.07,768.57 797.61,770.7 797.61,770.66 807.07,768.53 				"/>
				<polygon class="st1" points="807.07,768.6 797.61,770.74 797.61,770.7 807.07,768.57 				"/>
				<polygon class="st1" points="807.07,768.64 797.61,770.77 797.61,770.74 807.07,768.6 				"/>
				<polygon class="st1" points="807.07,768.68 797.61,770.81 797.61,770.77 807.07,768.64 				"/>
				<polygon class="st1" points="807.07,768.72 797.61,770.85 797.61,770.81 807.07,768.68 				"/>
				<polygon class="st1" points="807.07,768.76 797.61,770.89 797.61,770.85 807.07,768.72 				"/>
				<polygon class="st1" points="807.07,768.79 797.61,770.93 797.61,770.89 807.07,768.76 				"/>
				<polygon class="st1" points="807.07,768.83 797.61,770.96 797.61,770.93 807.07,768.79 				"/>
				<polygon class="st1" points="807.07,768.87 797.61,771 797.61,770.96 807.07,768.83 				"/>
				<polygon class="st1" points="807.07,768.91 797.61,771.04 797.61,771 807.07,768.87 				"/>
				<polygon class="st1" points="807.07,768.95 797.61,771.08 797.61,771.04 807.07,768.91 				"/>
				<polygon class="st1" points="807.07,768.98 797.61,771.12 797.61,771.08 807.07,768.95 				"/>
				<polygon class="st1" points="807.07,769.02 797.61,771.15 797.61,771.12 807.07,768.98 				"/>
				<polygon class="st1" points="807.07,769.06 797.61,771.19 797.61,771.15 807.07,769.02 				"/>
				<polygon class="st1" points="807.07,769.1 797.61,771.23 797.61,771.19 807.07,769.06 				"/>
				<polygon class="st1" points="807.07,769.14 797.61,771.27 797.61,771.23 807.07,769.1 				"/>
				<polygon class="st1" points="807.07,769.17 797.61,771.31 797.61,771.27 807.07,769.14 				"/>
				<polygon class="st1" points="807.07,769.21 797.61,771.34 797.61,771.31 807.07,769.17 				"/>
				<polygon class="st1" points="807.07,769.25 797.61,771.38 797.61,771.34 807.07,769.21 				"/>
				<polygon class="st1" points="807.07,769.29 797.61,771.42 797.61,771.38 807.07,769.25 				"/>
				<polygon class="st1" points="807.07,769.33 797.61,771.46 797.61,771.42 807.07,769.29 				"/>
				<polygon class="st1" points="807.07,769.37 797.61,771.5 797.61,771.46 807.07,769.33 				"/>
				<polygon class="st1" points="807.07,769.4 797.61,771.53 797.61,771.5 807.07,769.37 				"/>
				<polygon class="st1" points="807.07,769.44 797.61,771.57 797.61,771.53 807.07,769.4 				"/>
				<polygon class="st1" points="807.07,769.48 797.61,771.61 797.61,771.57 807.07,769.44 				"/>
				<polygon class="st1" points="807.07,769.52 797.61,771.65 797.61,771.61 807.07,769.48 				"/>
				<polygon class="st1" points="807.07,769.56 797.61,771.69 797.61,771.65 807.07,769.52 				"/>
				<polygon class="st1" points="807.07,769.59 797.61,771.72 797.61,771.69 807.07,769.56 				"/>
				<polygon class="st1" points="807.07,769.63 797.61,771.76 797.61,771.72 807.07,769.59 				"/>
				<polygon class="st1" points="807.07,769.67 797.61,771.8 797.61,771.76 807.07,769.63 				"/>
				<polygon class="st1" points="807.07,769.71 797.61,771.84 797.61,771.8 807.07,769.67 				"/>
				<polygon class="st1" points="807.07,769.75 797.61,771.88 797.61,771.84 807.07,769.71 				"/>
				<polygon class="st1" points="807.07,769.78 797.61,771.91 797.61,771.88 807.07,769.75 				"/>
				<polygon class="st1" points="807.07,769.82 797.61,771.95 797.61,771.91 807.07,769.78 				"/>
				<polygon class="st1" points="807.07,769.86 797.61,771.99 797.61,771.95 807.07,769.82 				"/>
				<polygon class="st1" points="807.07,769.9 797.61,772.03 797.61,771.99 807.07,769.86 				"/>
				<polygon class="st1" points="807.07,769.94 797.61,772.07 797.61,772.03 807.07,769.9 				"/>
				<polygon class="st1" points="807.07,769.97 797.61,772.11 797.61,772.07 807.07,769.94 				"/>
				<polygon class="st1" points="807.07,770.01 797.61,772.14 797.61,772.11 807.07,769.97 				"/>
				<polygon class="st1" points="807.07,770.05 797.61,772.18 797.61,772.14 807.07,770.01 				"/>
				<polygon class="st1" points="807.07,770.09 797.61,772.22 797.61,772.18 807.07,770.05 				"/>
				<polygon class="st1" points="807.07,770.13 797.61,772.26 797.61,772.22 807.07,770.09 				"/>
				<polygon class="st1" points="807.07,770.16 797.61,772.3 797.61,772.26 807.07,770.13 				"/>
				<polygon class="st1" points="807.07,770.2 797.61,772.33 797.61,772.3 807.07,770.16 				"/>
				<polygon class="st1" points="807.07,770.24 797.61,772.37 797.61,772.33 807.07,770.2 				"/>
				<polygon class="st1" points="807.07,770.28 797.61,772.41 797.61,772.37 807.07,770.24 				"/>
				<polygon class="st1" points="807.07,770.32 797.61,772.45 797.61,772.41 807.07,770.28 				"/>
				<polygon class="st1" points="807.07,770.35 797.61,772.49 797.61,772.45 807.07,770.32 				"/>
				<polygon class="st1" points="807.07,770.39 797.61,772.52 797.61,772.49 807.07,770.35 				"/>
				<polygon class="st1" points="807.07,770.43 797.61,772.56 797.61,772.52 807.07,770.39 				"/>
				<polygon class="st1" points="807.07,770.47 797.61,772.6 797.61,772.56 807.07,770.43 				"/>
				<polygon class="st1" points="807.07,770.51 797.61,772.64 797.61,772.6 807.07,770.47 				"/>
				<polygon class="st1" points="807.07,770.54 797.61,772.68 797.61,772.64 807.07,770.51 				"/>
				<polygon class="st1" points="807.07,770.58 797.61,772.71 797.61,772.68 807.07,770.54 				"/>
				<polygon class="st1" points="807.07,770.62 797.61,772.75 797.61,772.71 807.07,770.58 				"/>
				<polygon class="st1" points="807.07,770.66 797.61,772.79 797.61,772.75 807.07,770.62 				"/>
				<polygon class="st1" points="807.07,770.7 797.61,772.83 797.61,772.79 807.07,770.66 				"/>
				<polygon class="st1" points="807.07,770.73 797.61,772.87 797.61,772.83 807.07,770.7 				"/>
				<polygon class="st1" points="807.07,770.77 797.61,772.9 797.61,772.87 807.07,770.73 				"/>
				<polygon class="st1" points="807.07,770.81 797.61,772.94 797.61,772.9 807.07,770.77 				"/>
				<polygon class="st1" points="807.07,770.85 797.61,772.98 797.61,772.94 807.07,770.81 				"/>
				<polygon class="st1" points="807.07,770.89 797.61,773.02 797.61,772.98 807.07,770.85 				"/>
				<polygon class="st1" points="807.07,770.93 797.61,773.06 797.61,773.02 807.07,770.89 				"/>
				<polygon class="st1" points="807.07,770.96 797.61,773.09 797.61,773.06 807.07,770.93 				"/>
				<polygon class="st1" points="807.07,771 797.61,773.13 797.61,773.09 807.07,770.96 				"/>
				<polygon class="st1" points="807.07,771.04 797.61,773.17 797.61,773.13 807.07,771 				"/>
				<polygon class="st1" points="807.07,771.08 797.61,773.21 797.61,773.17 807.07,771.04 				"/>
				<polygon class="st1" points="807.07,771.12 797.61,773.25 797.61,773.21 807.07,771.08 				"/>
				<polygon class="st1" points="807.07,771.15 797.61,773.28 797.61,773.25 807.07,771.12 				"/>
				<polygon class="st1" points="807.07,771.19 797.61,773.32 797.61,773.28 807.07,771.15 				"/>
				<polygon class="st1" points="807.07,771.23 797.61,773.36 797.61,773.32 807.07,771.19 				"/>
				<polygon class="st1" points="807.07,771.27 797.61,773.4 797.61,773.36 807.07,771.23 				"/>
				<polygon class="st1" points="807.07,771.31 797.61,773.44 797.61,773.4 807.07,771.27 				"/>
				<polygon class="st1" points="807.07,771.34 797.61,773.47 797.61,773.44 807.07,771.31 				"/>
				<polygon class="st1" points="807.07,771.38 797.61,773.51 797.61,773.47 807.07,771.34 				"/>
				<polygon class="st1" points="807.07,771.42 797.61,773.55 797.61,773.51 807.07,771.38 				"/>
				<polygon class="st1" points="807.07,771.46 797.61,773.59 797.61,773.55 807.07,771.42 				"/>
				<polygon class="st1" points="807.07,771.5 797.61,773.63 797.61,773.59 807.07,771.46 				"/>
				<polygon class="st1" points="807.07,771.53 797.61,773.67 797.61,773.63 807.07,771.5 				"/>
				<polygon class="st1" points="807.07,771.57 797.61,773.7 797.61,773.67 807.07,771.53 				"/>
				<polygon class="st1" points="807.07,771.61 797.61,773.74 797.61,773.7 807.07,771.57 				"/>
				<polygon class="st1" points="807.07,771.65 797.61,773.78 797.61,773.74 807.07,771.61 				"/>
				<polygon class="st1" points="807.07,771.69 797.61,773.82 797.61,773.78 807.07,771.65 				"/>
				<polygon class="st1" points="807.07,771.72 797.61,773.86 797.61,773.82 807.07,771.69 				"/>
				<polygon class="st1" points="807.07,771.76 797.61,773.89 797.61,773.86 807.07,771.72 				"/>
				<polygon class="st1" points="807.07,771.8 797.61,773.93 797.61,773.89 807.07,771.76 				"/>
				<polygon class="st1" points="807.07,771.84 797.61,773.97 797.61,773.93 807.07,771.8 				"/>
				<polygon class="st1" points="807.07,771.88 797.61,774.01 797.61,773.97 807.07,771.84 				"/>
				<polygon class="st1" points="807.07,771.91 797.61,774.05 797.61,774.01 807.07,771.88 				"/>
				<polygon class="st1" points="807.07,771.95 797.74,774.05 797.61,774.05 797.61,774.05 807.07,771.91 				"/>
				<polygon class="st1" points="807.07,771.99 797.91,774.05 797.74,774.05 807.07,771.95 				"/>
				<polygon class="st1" points="807.07,772.03 798.08,774.05 797.91,774.05 807.07,771.99 				"/>
				<polygon class="st1" points="807.07,772.07 798.25,774.05 798.08,774.05 807.07,772.03 				"/>
				<polygon class="st1" points="807.07,772.1 798.42,774.05 798.25,774.05 807.07,772.07 				"/>
				<polygon class="st1" points="807.07,772.14 798.59,774.05 798.42,774.05 807.07,772.1 				"/>
				<polygon class="st1" points="807.07,772.18 798.75,774.05 798.59,774.05 807.07,772.14 				"/>
				<polygon class="st1" points="807.07,772.22 798.92,774.05 798.75,774.05 807.07,772.18 				"/>
				<polygon class="st1" points="807.07,772.26 799.09,774.05 798.92,774.05 807.07,772.22 				"/>
				<polygon class="st1" points="807.07,772.29 799.26,774.05 799.09,774.05 807.07,772.26 				"/>
				<polygon class="st1" points="807.07,772.33 799.43,774.05 799.26,774.05 807.07,772.29 				"/>
				<polygon class="st1" points="807.07,772.37 799.6,774.05 799.43,774.05 807.07,772.33 				"/>
				<polygon class="st1" points="807.07,772.41 799.77,774.05 799.6,774.05 807.07,772.37 				"/>
				<polygon class="st1" points="807.07,772.45 799.94,774.05 799.77,774.05 807.07,772.41 				"/>
				<polygon class="st1" points="807.07,772.49 800.11,774.05 799.94,774.05 807.07,772.45 				"/>
				<polygon class="st1" points="807.07,772.52 800.28,774.05 800.11,774.05 807.07,772.49 				"/>
				<polygon class="st1" points="807.07,772.56 800.44,774.05 800.28,774.05 807.07,772.52 				"/>
				<polygon class="st1" points="807.07,772.6 800.61,774.05 800.44,774.05 807.07,772.56 				"/>
				<polygon class="st1" points="807.07,772.64 800.78,774.05 800.61,774.05 807.07,772.6 				"/>
				<polygon class="st1" points="807.07,772.68 800.95,774.05 800.78,774.05 807.07,772.64 				"/>
				<polygon class="st1" points="807.07,772.71 801.12,774.05 800.95,774.05 807.07,772.68 				"/>
				<polygon class="st1" points="807.07,772.75 801.29,774.05 801.12,774.05 807.07,772.71 				"/>
				<polygon class="st1" points="807.07,772.79 801.46,774.05 801.29,774.05 807.07,772.75 				"/>
				<polygon class="st1" points="807.07,772.83 801.63,774.05 801.46,774.05 807.07,772.79 				"/>
				<polygon class="st1" points="807.07,772.87 801.8,774.05 801.63,774.05 807.07,772.83 				"/>
				<polygon class="st1" points="807.07,772.9 801.96,774.05 801.8,774.05 807.07,772.87 				"/>
				<polygon class="st1" points="807.07,772.94 802.13,774.05 801.96,774.05 807.07,772.9 				"/>
				<polygon class="st1" points="807.07,772.98 802.3,774.05 802.13,774.05 807.07,772.94 				"/>
				<polygon class="st1" points="807.07,773.02 802.47,774.05 802.3,774.05 807.07,772.98 				"/>
				<polygon class="st1" points="807.07,773.06 802.64,774.05 802.47,774.05 807.07,773.02 				"/>
				<polygon class="st1" points="807.07,773.09 802.81,774.05 802.64,774.05 807.07,773.06 				"/>
				<polygon class="st1" points="807.07,773.13 802.98,774.05 802.81,774.05 807.07,773.09 				"/>
				<polygon class="st1" points="807.07,773.17 803.15,774.05 802.98,774.05 807.07,773.13 				"/>
				<polygon class="st1" points="807.07,773.21 803.32,774.05 803.15,774.05 807.07,773.17 				"/>
				<polygon class="st1" points="807.07,773.25 803.49,774.05 803.32,774.05 807.07,773.21 				"/>
				<polygon class="st1" points="807.07,773.28 803.65,774.05 803.49,774.05 807.07,773.25 				"/>
				<polygon class="st1" points="807.07,773.32 803.82,774.05 803.65,774.05 807.07,773.28 				"/>
				<polygon class="st1" points="807.07,773.36 803.99,774.05 803.82,774.05 807.07,773.32 				"/>
				<polygon class="st1" points="807.07,773.4 804.16,774.05 803.99,774.05 807.07,773.36 				"/>
				<polygon class="st1" points="807.07,773.44 804.33,774.05 804.16,774.05 807.07,773.4 				"/>
				<polygon class="st1" points="807.07,773.47 804.5,774.05 804.33,774.05 807.07,773.44 				"/>
				<polygon class="st1" points="807.07,773.51 804.67,774.05 804.5,774.05 807.07,773.47 				"/>
				<polygon class="st1" points="807.07,773.55 804.84,774.05 804.67,774.05 807.07,773.51 				"/>
				<polygon class="st1" points="807.07,773.59 805.01,774.05 804.84,774.05 807.07,773.55 				"/>
				<polygon class="st1" points="807.07,773.63 805.17,774.05 805.01,774.05 807.07,773.59 				"/>
				<polygon class="st1" points="807.07,773.66 805.34,774.05 805.17,774.05 807.07,773.63 				"/>
				<polygon class="st1" points="807.07,773.7 805.51,774.05 805.34,774.05 807.07,773.66 				"/>
				<polygon class="st1" points="807.07,773.74 805.68,774.05 805.51,774.05 807.07,773.7 				"/>
				<polygon class="st1" points="807.07,773.78 805.85,774.05 805.68,774.05 807.07,773.74 				"/>
				<polygon class="st1" points="807.07,773.82 806.02,774.05 805.85,774.05 807.07,773.78 				"/>
				<polygon class="st1" points="807.07,773.86 806.19,774.05 806.02,774.05 807.07,773.82 				"/>
				<polygon class="st1" points="807.07,773.89 806.36,774.05 806.19,774.05 807.07,773.86 				"/>
				<polygon class="st1" points="807.07,773.93 806.53,774.05 806.36,774.05 807.07,773.89 				"/>
				<polygon class="st1" points="807.07,773.97 806.7,774.05 806.53,774.05 807.07,773.93 				"/>
				<polygon class="st1" points="807.07,774.01 806.86,774.05 806.7,774.05 807.07,773.97 				"/>
				<polygon class="st1" points="807.07,774.05 807.03,774.05 806.86,774.05 807.07,774.01 				"/>
				<polygon class="st1" points="807.03,774.05 807.07,774.05 807.07,774.05 				"/>
			</g>
		</g>
	</g>
	<g>
		<g>
			
				<rect x="445.87" y="763.72" transform="matrix(0.7142 -0.6999 0.6999 0.7142 -408.9052 534.5835)" class="st0" width="8.56" height="8.56"/>
		</g>
		<g>
			<g>
				<defs>
					<path fill="#000000" id="SVGID_3_" d="M450.21,761.95c0,0-4.82,3.97-1.81,6.38l2,1.94l4.45-3.59L450.21,761.95z"/>
				</defs>
				<use xlink:href="#SVGID_3_"  style="overflow:visible;fill:#231F20;"/>
				<clipPath id="SVGID_4_">
					<use xlink:href="#SVGID_3_"  style="overflow:visible;"/>
				</clipPath>
				<polygon class="st2" points="445.39,768.8 454.85,766.67 454.85,770.27 445.39,770.27 				"/>
				<polygon class="st2" points="445.39,768.77 454.85,766.64 454.85,766.67 445.39,768.8 				"/>
				<polygon class="st2" points="445.39,768.73 454.85,766.6 454.85,766.64 445.39,768.77 				"/>
				<polygon class="st2" points="445.39,768.69 454.85,766.56 454.85,766.6 445.39,768.73 				"/>
				<polygon class="st2" points="445.39,768.65 454.85,766.52 454.85,766.56 445.39,768.69 				"/>
				<polygon class="st2" points="445.39,768.61 454.85,766.48 454.85,766.52 445.39,768.65 				"/>
				<polygon class="st2" points="445.39,768.58 454.85,766.45 454.85,766.48 445.39,768.61 				"/>
				<polygon class="st2" points="445.39,768.54 454.85,766.41 454.85,766.45 445.39,768.58 				"/>
				<polygon class="st2" points="445.39,768.5 454.85,766.37 454.85,766.41 445.39,768.54 				"/>
				<polygon class="st2" points="445.39,768.46 454.85,766.33 454.85,766.37 445.39,768.5 				"/>
				<polygon class="st2" points="445.39,768.42 454.85,766.29 454.85,766.33 445.39,768.46 				"/>
				<polygon class="st2" points="445.39,768.39 454.85,766.26 454.85,766.29 445.39,768.42 				"/>
				<polygon class="st2" points="445.39,768.35 454.85,766.22 454.85,766.26 445.39,768.39 				"/>
				<polygon class="st2" points="445.39,768.31 454.85,766.18 454.85,766.22 445.39,768.35 				"/>
				<polygon class="st2" points="445.39,768.27 454.85,766.14 454.85,766.18 445.39,768.31 				"/>
				<polygon class="st2" points="445.39,768.23 454.85,766.1 454.85,766.14 445.39,768.27 				"/>
				<polygon class="st2" points="445.39,768.2 454.85,766.06 454.85,766.1 445.39,768.23 				"/>
				<polygon class="st2" points="445.39,768.16 454.85,766.03 454.85,766.06 445.39,768.2 				"/>
				<polygon class="st2" points="445.39,768.12 454.85,765.99 454.85,766.03 445.39,768.16 				"/>
				<polygon class="st2" points="445.39,768.08 454.85,765.95 454.85,765.99 445.39,768.12 				"/>
				<polygon class="st2" points="445.39,768.04 454.85,765.91 454.85,765.95 445.39,768.08 				"/>
				<polygon class="st2" points="445.39,768.01 454.85,765.87 454.85,765.91 445.39,768.04 				"/>
				<polygon class="st2" points="445.39,767.97 454.85,765.84 454.85,765.87 445.39,768.01 				"/>
				<polygon class="st2" points="445.39,767.93 454.85,765.8 454.85,765.84 445.39,767.97 				"/>
				<polygon class="st2" points="445.39,767.89 454.85,765.76 454.85,765.8 445.39,767.93 				"/>
				<polygon class="st2" points="445.39,767.85 454.85,765.72 454.85,765.76 445.39,767.89 				"/>
				<polygon class="st2" points="445.39,767.82 454.85,765.68 454.85,765.72 445.39,767.85 				"/>
				<polygon class="st2" points="445.39,767.78 454.85,765.65 454.85,765.68 445.39,767.82 				"/>
				<polygon class="st2" points="445.39,767.74 454.85,765.61 454.85,765.65 445.39,767.78 				"/>
				<polygon class="st2" points="445.39,767.7 454.85,765.57 454.85,765.61 445.39,767.74 				"/>
				<polygon class="st2" points="445.39,767.66 454.85,765.53 454.85,765.57 445.39,767.7 				"/>
				<polygon class="st2" points="445.39,767.63 454.85,765.49 454.85,765.53 445.39,767.66 				"/>
				<polygon class="st2" points="445.39,767.59 454.85,765.46 454.85,765.49 445.39,767.63 				"/>
				<polygon class="st2" points="445.39,767.55 454.85,765.42 454.85,765.46 445.39,767.59 				"/>
				<polygon class="st2" points="445.39,767.51 454.85,765.38 454.85,765.42 445.39,767.55 				"/>
				<polygon class="st2" points="445.39,767.47 454.85,765.34 454.85,765.38 445.39,767.51 				"/>
				<polygon class="st2" points="445.39,767.44 454.85,765.3 454.85,765.34 445.39,767.47 				"/>
				<polygon class="st2" points="445.39,767.4 454.85,765.27 454.85,765.3 445.39,767.44 				"/>
				<polygon class="st2" points="445.39,767.36 454.85,765.23 454.85,765.27 445.39,767.4 				"/>
				<polygon class="st2" points="445.39,767.32 454.85,765.19 454.85,765.23 445.39,767.36 				"/>
				<polygon class="st2" points="445.39,767.28 454.85,765.15 454.85,765.19 445.39,767.32 				"/>
				<polygon class="st2" points="445.39,767.24 454.85,765.11 454.85,765.15 445.39,767.28 				"/>
				<polygon class="st2" points="445.39,767.21 454.85,765.08 454.85,765.11 445.39,767.24 				"/>
				<polygon class="st2" points="445.39,767.17 454.85,765.04 454.85,765.08 445.39,767.21 				"/>
				<polygon class="st2" points="445.39,767.13 454.85,765 454.85,765.04 445.39,767.17 				"/>
				<polygon class="st2" points="445.39,767.09 454.85,764.96 454.85,765 445.39,767.13 				"/>
				<polygon class="st2" points="445.39,767.05 454.85,764.92 454.85,764.96 445.39,767.09 				"/>
				<polygon class="st2" points="445.39,767.02 454.85,764.89 454.85,764.92 445.39,767.05 				"/>
				<polygon class="st2" points="445.39,766.98 454.85,764.85 454.85,764.89 445.39,767.02 				"/>
				<polygon class="st2" points="445.39,766.94 454.85,764.81 454.85,764.85 445.39,766.98 				"/>
				<polygon class="st2" points="445.39,766.9 454.85,764.77 454.85,764.81 445.39,766.94 				"/>
				<polygon class="st2" points="445.39,766.86 454.85,764.73 454.85,764.77 445.39,766.9 				"/>
				<polygon class="st2" points="445.39,766.83 454.85,764.7 454.85,764.73 445.39,766.86 				"/>
				<polygon class="st2" points="445.39,766.79 454.85,764.66 454.85,764.7 445.39,766.83 				"/>
				<polygon class="st2" points="445.39,766.75 454.85,764.62 454.85,764.66 445.39,766.79 				"/>
				<polygon class="st2" points="445.39,766.71 454.85,764.58 454.85,764.62 445.39,766.75 				"/>
				<polygon class="st2" points="445.39,766.67 454.85,764.54 454.85,764.58 445.39,766.71 				"/>
				<polygon class="st2" points="445.39,766.64 454.85,764.5 454.85,764.54 445.39,766.67 				"/>
				<polygon class="st2" points="445.39,766.6 454.85,764.47 454.85,764.5 445.39,766.64 				"/>
				<polygon class="st2" points="445.39,766.56 454.85,764.43 454.85,764.47 445.39,766.6 				"/>
				<polygon class="st2" points="445.39,766.52 454.85,764.39 454.85,764.43 445.39,766.56 				"/>
				<polygon class="st2" points="445.39,766.48 454.85,764.35 454.85,764.39 445.39,766.52 				"/>
				<polygon class="st2" points="445.39,766.45 454.85,764.31 454.85,764.35 445.39,766.48 				"/>
				<polygon class="st2" points="445.39,766.41 454.85,764.28 454.85,764.31 445.39,766.45 				"/>
				<polygon class="st2" points="445.39,766.37 454.85,764.24 454.85,764.28 445.39,766.41 				"/>
				<polygon class="st2" points="445.39,766.33 454.85,764.2 454.85,764.24 445.39,766.37 				"/>
				<polygon class="st2" points="445.39,766.29 454.85,764.16 454.85,764.2 445.39,766.33 				"/>
				<polygon class="st2" points="445.39,766.26 454.85,764.12 454.85,764.16 445.39,766.29 				"/>
				<polygon class="st2" points="445.39,766.22 454.85,764.09 454.85,764.12 445.39,766.26 				"/>
				<polygon class="st2" points="445.39,766.18 454.85,764.05 454.85,764.09 445.39,766.22 				"/>
				<polygon class="st2" points="445.39,766.14 454.85,764.01 454.85,764.05 445.39,766.18 				"/>
				<polygon class="st2" points="445.39,766.1 454.85,763.97 454.85,764.01 445.39,766.14 				"/>
				<polygon class="st2" points="445.39,766.07 454.85,763.93 454.85,763.97 445.39,766.1 				"/>
				<polygon class="st2" points="445.39,766.03 454.85,763.9 454.85,763.93 445.39,766.07 				"/>
				<polygon class="st2" points="445.39,765.99 454.85,763.86 454.85,763.9 445.39,766.03 				"/>
				<polygon class="st2" points="445.39,765.95 454.85,763.82 454.85,763.86 445.39,765.99 				"/>
				<polygon class="st2" points="445.39,765.91 454.85,763.78 454.85,763.82 445.39,765.95 				"/>
				<polygon class="st2" points="445.39,765.88 454.85,763.74 454.85,763.78 445.39,765.91 				"/>
				<polygon class="st2" points="445.39,765.84 454.85,763.71 454.85,763.74 445.39,765.88 				"/>
				<polygon class="st2" points="445.39,765.8 454.85,763.67 454.85,763.71 445.39,765.84 				"/>
				<polygon class="st2" points="445.39,765.76 454.85,763.63 454.85,763.67 445.39,765.8 				"/>
				<polygon class="st2" points="445.39,765.72 454.85,763.59 454.85,763.63 445.39,765.76 				"/>
				<polygon class="st2" points="445.39,765.68 454.85,763.55 454.85,763.59 445.39,765.72 				"/>
				<polygon class="st2" points="445.39,765.65 454.85,763.52 454.85,763.55 445.39,765.68 				"/>
				<polygon class="st2" points="445.39,765.61 454.85,763.48 454.85,763.52 445.39,765.65 				"/>
				<polygon class="st2" points="445.39,765.57 454.85,763.44 454.85,763.48 445.39,765.61 				"/>
				<polygon class="st2" points="445.39,765.53 454.85,763.4 454.85,763.44 445.39,765.57 				"/>
				<polygon class="st2" points="445.39,765.49 454.85,763.36 454.85,763.4 445.39,765.53 				"/>
				<polygon class="st2" points="445.39,765.46 454.85,763.33 454.85,763.36 445.39,765.49 				"/>
				<polygon class="st2" points="445.39,765.42 454.85,763.29 454.85,763.33 445.39,765.46 				"/>
				<polygon class="st2" points="445.39,765.38 454.85,763.25 454.85,763.29 445.39,765.42 				"/>
				<polygon class="st2" points="445.39,765.34 454.85,763.21 454.85,763.25 445.39,765.38 				"/>
				<polygon class="st2" points="445.39,765.3 454.85,763.17 454.85,763.21 445.39,765.34 				"/>
				<polygon class="st2" points="445.39,765.27 454.85,763.14 454.85,763.17 445.39,765.3 				"/>
				<polygon class="st2" points="445.39,765.23 454.85,763.1 454.85,763.14 445.39,765.27 				"/>
				<polygon class="st2" points="445.39,765.19 454.85,763.06 454.85,763.1 445.39,765.23 				"/>
				<polygon class="st2" points="445.39,765.15 454.85,763.02 454.85,763.06 445.39,765.19 				"/>
				<polygon class="st2" points="445.39,765.11 454.85,762.98 454.85,763.02 445.39,765.15 				"/>
				<polygon class="st2" points="445.39,765.08 454.85,762.94 454.85,762.98 445.39,765.11 				"/>
				<polygon class="st2" points="445.39,765.04 454.85,762.91 454.85,762.94 445.39,765.08 				"/>
				<polygon class="st2" points="445.39,765 454.85,762.87 454.85,762.91 445.39,765.04 				"/>
				<polygon class="st2" points="445.39,764.96 454.85,762.83 454.85,762.87 445.39,765 				"/>
				<polygon class="st2" points="445.39,764.92 454.85,762.79 454.85,762.83 445.39,764.96 				"/>
				<polygon class="st2" points="445.39,764.89 454.85,762.75 454.85,762.79 445.39,764.92 				"/>
				<polygon class="st2" points="445.39,764.85 454.85,762.72 454.85,762.75 445.39,764.89 				"/>
				<polygon class="st2" points="445.39,764.81 454.85,762.68 454.85,762.72 445.39,764.85 				"/>
				<polygon class="st2" points="445.39,764.77 454.85,762.64 454.85,762.68 445.39,764.81 				"/>
				<polygon class="st2" points="445.39,764.73 454.85,762.6 454.85,762.64 445.39,764.77 				"/>
				<polygon class="st2" points="445.39,764.7 454.85,762.56 454.85,762.6 445.39,764.73 				"/>
				<polygon class="st2" points="445.39,764.66 454.85,762.53 454.85,762.56 445.39,764.7 				"/>
				<polygon class="st2" points="445.39,764.62 454.85,762.49 454.85,762.53 445.39,764.66 				"/>
				<polygon class="st2" points="445.39,764.58 454.85,762.45 454.85,762.49 445.39,764.62 				"/>
				<polygon class="st2" points="445.39,764.54 454.85,762.41 454.85,762.45 445.39,764.58 				"/>
				<polygon class="st2" points="445.39,764.51 454.85,762.37 454.85,762.41 445.39,764.54 				"/>
				<polygon class="st2" points="445.39,764.47 454.85,762.34 454.85,762.37 445.39,764.51 				"/>
				<polygon class="st2" points="445.39,764.43 454.85,762.3 454.85,762.34 445.39,764.47 				"/>
				<polygon class="st2" points="445.39,764.39 454.85,762.26 454.85,762.3 445.39,764.43 				"/>
				<polygon class="st2" points="445.39,764.35 454.85,762.22 454.85,762.26 445.39,764.39 				"/>
				<polygon class="st2" points="445.39,764.32 454.85,762.18 454.85,762.22 445.39,764.35 				"/>
				<polygon class="st2" points="445.39,764.28 454.85,762.15 454.85,762.18 445.39,764.32 				"/>
				<polygon class="st2" points="445.39,764.24 454.85,762.11 454.85,762.15 445.39,764.28 				"/>
				<polygon class="st2" points="445.39,764.2 454.85,762.07 454.85,762.11 445.39,764.24 				"/>
				<polygon class="st2" points="445.39,764.16 454.85,762.03 454.85,762.07 445.39,764.2 				"/>
				<polygon class="st2" points="445.39,764.12 454.85,761.99 454.85,762.03 445.39,764.16 				"/>
				<polygon class="st2" points="445.39,764.09 454.85,761.96 454.85,761.99 445.39,764.12 				"/>
				<polygon class="st2" points="445.39,764.05 454.72,761.95 454.85,761.95 454.85,761.96 445.39,764.09 				"/>
				<polygon class="st2" points="445.39,764.01 454.55,761.95 454.72,761.95 445.39,764.05 				"/>
				<polygon class="st2" points="445.39,763.97 454.38,761.95 454.55,761.95 445.39,764.01 				"/>
				<polygon class="st2" points="445.39,763.93 454.21,761.95 454.38,761.95 445.39,763.97 				"/>
				<polygon class="st2" points="445.39,763.9 454.04,761.95 454.21,761.95 445.39,763.93 				"/>
				<polygon class="st2" points="445.39,763.86 453.87,761.95 454.04,761.95 445.39,763.9 				"/>
				<polygon class="st2" points="445.39,763.82 453.7,761.95 453.87,761.95 445.39,763.86 				"/>
				<polygon class="st2" points="445.39,763.78 453.54,761.95 453.7,761.95 445.39,763.82 				"/>
				<polygon class="st2" points="445.39,763.74 453.37,761.95 453.54,761.95 445.39,763.78 				"/>
				<polygon class="st2" points="445.39,763.71 453.2,761.95 453.37,761.95 445.39,763.74 				"/>
				<polygon class="st2" points="445.39,763.67 453.03,761.95 453.2,761.95 445.39,763.71 				"/>
				<polygon class="st2" points="445.39,763.63 452.86,761.95 453.03,761.95 445.39,763.67 				"/>
				<polygon class="st2" points="445.39,763.59 452.69,761.95 452.86,761.95 445.39,763.63 				"/>
				<polygon class="st2" points="445.39,763.55 452.52,761.95 452.69,761.95 445.39,763.59 				"/>
				<polygon class="st2" points="445.39,763.52 452.35,761.95 452.52,761.95 445.39,763.55 				"/>
				<polygon class="st2" points="445.39,763.48 452.18,761.95 452.35,761.95 445.39,763.52 				"/>
				<polygon class="st2" points="445.39,763.44 452.02,761.95 452.18,761.95 445.39,763.48 				"/>
				<polygon class="st2" points="445.39,763.4 451.85,761.95 452.02,761.95 445.39,763.44 				"/>
				<polygon class="st2" points="445.39,763.36 451.68,761.95 451.85,761.95 445.39,763.4 				"/>
				<polygon class="st2" points="445.39,763.33 451.51,761.95 451.68,761.95 445.39,763.36 				"/>
				<polygon class="st2" points="445.39,763.29 451.34,761.95 451.51,761.95 445.39,763.33 				"/>
				<polygon class="st2" points="445.39,763.25 451.17,761.95 451.34,761.95 445.39,763.29 				"/>
				<polygon class="st2" points="445.39,763.21 451,761.95 451.17,761.95 445.39,763.25 				"/>
				<polygon class="st2" points="445.39,763.17 450.83,761.95 451,761.95 445.39,763.21 				"/>
				<polygon class="st2" points="445.39,763.14 450.66,761.95 450.83,761.95 445.39,763.17 				"/>
				<polygon class="st2" points="445.39,763.1 450.49,761.95 450.66,761.95 445.39,763.14 				"/>
				<polygon class="st2" points="445.39,763.06 450.33,761.95 450.49,761.95 445.39,763.1 				"/>
				<polygon class="st2" points="445.39,763.02 450.16,761.95 450.33,761.95 445.39,763.06 				"/>
				<polygon class="st2" points="445.39,762.98 449.99,761.95 450.16,761.95 445.39,763.02 				"/>
				<polygon class="st2" points="445.39,762.95 449.82,761.95 449.99,761.95 445.39,762.98 				"/>
				<polygon class="st2" points="445.39,762.91 449.65,761.95 449.82,761.95 445.39,762.95 				"/>
				<polygon class="st2" points="445.39,762.87 449.48,761.95 449.65,761.95 445.39,762.91 				"/>
				<polygon class="st2" points="445.39,762.83 449.31,761.95 449.48,761.95 445.39,762.87 				"/>
				<polygon class="st2" points="445.39,762.79 449.14,761.95 449.31,761.95 445.39,762.83 				"/>
				<polygon class="st2" points="445.39,762.76 448.97,761.95 449.14,761.95 445.39,762.79 				"/>
				<polygon class="st2" points="445.39,762.72 448.81,761.95 448.97,761.95 445.39,762.76 				"/>
				<polygon class="st2" points="445.39,762.68 448.64,761.95 448.81,761.95 445.39,762.72 				"/>
				<polygon class="st2" points="445.39,762.64 448.47,761.95 448.64,761.95 445.39,762.68 				"/>
				<polygon class="st2" points="445.39,762.6 448.3,761.95 448.47,761.95 445.39,762.64 				"/>
				<polygon class="st2" points="445.39,762.56 448.13,761.95 448.3,761.95 445.39,762.6 				"/>
				<polygon class="st2" points="445.39,762.53 447.96,761.95 448.13,761.95 445.39,762.56 				"/>
				<polygon class="st2" points="445.39,762.49 447.79,761.95 447.96,761.95 445.39,762.53 				"/>
				<polygon class="st2" points="445.39,762.45 447.62,761.95 447.79,761.95 445.39,762.49 				"/>
				<polygon class="st2" points="445.39,762.41 447.45,761.95 447.62,761.95 445.39,762.45 				"/>
				<polygon class="st2" points="445.39,762.37 447.28,761.95 447.45,761.95 445.39,762.41 				"/>
				<polygon class="st2" points="445.39,762.34 447.12,761.95 447.28,761.95 445.39,762.37 				"/>
				<polygon class="st2" points="445.39,762.3 446.95,761.95 447.12,761.95 445.39,762.34 				"/>
				<polygon class="st2" points="445.39,762.26 446.78,761.95 446.95,761.95 445.39,762.3 				"/>
				<polygon class="st2" points="445.39,762.22 446.61,761.95 446.78,761.95 445.39,762.26 				"/>
				<polygon class="st2" points="445.39,762.18 446.44,761.95 446.61,761.95 445.39,762.22 				"/>
				<polygon class="st2" points="445.39,762.15 446.27,761.95 446.44,761.95 445.39,762.18 				"/>
				<polygon class="st2" points="445.39,762.11 446.1,761.95 446.27,761.95 445.39,762.15 				"/>
				<polygon class="st2" points="445.39,762.07 445.93,761.95 446.1,761.95 445.39,762.11 				"/>
				<polygon class="st2" points="445.39,762.03 445.76,761.95 445.93,761.95 445.39,762.07 				"/>
				<polygon class="st2" points="445.39,761.99 445.6,761.95 445.76,761.95 445.39,762.03 				"/>
				<polygon class="st2" points="445.39,761.96 445.43,761.95 445.6,761.95 445.39,761.99 				"/>
				<polygon class="st2" points="445.43,761.95 445.39,761.96 445.39,761.95 				"/>
			</g>
		</g>
	</g>
	<path fill="#000000" class="st0" d="M485.37,428.2c-1.53-5.24-4.42-9.87-7.83-14.08c-5.24-6.47-11.71-11.67-18.22-16.78
		c-0.19-0.15-0.77,0.55-1.42,1.49c5.27,3.75,13.6,10.52,16.72,17.68c0.03,0.06,0.05,0.11,0.07,0.17c0.09,0.19,0.17,0.4,0.24,0.6
		c0.09,0.22,0.17,0.43,0.23,0.65c0.1,0.28,0.19,0.56,0.26,0.84c-0.64-1.25-1.47-2.54-2.48-3.85c-0.14-0.19-0.29-0.37-0.44-0.56
		c-0.29-0.36-0.6-0.73-0.91-1.09c0-0.01-0.01-0.02-0.03-0.04c-1.01-1.15-2.14-2.31-3.39-3.45c-0.3-0.27-0.6-0.54-0.91-0.8
		c-1-0.87-2.06-1.72-3.2-2.55c-0.78-0.58-1.6-1.15-2.45-1.7c-0.25-0.17-0.51-0.34-0.78-0.5c-1.18-0.75-2.42-1.47-3.7-2.17
		c-0.32-0.18-0.65-0.35-0.98-0.53c-0.39,0.63-0.67,1.11-0.72,1.2c-0.28,0.49-3.43,5.51-2.73,6.06c0.04,0.03,0.07,0.06,0.11,0.09
		c1.43,1.12,2.86,2.25,4.26,3.4c0.72,0.58,1.44,1.17,2.14,1.77c3.55,2.98,6.95,6.11,10.07,9.6c0.99,1.11,1.97,2.29,2.91,3.55
		c0.13,0.17,0.27,0.35,0.4,0.53c0.27,0.35,0.52,0.71,0.78,1.08c0.51,0.73,1.01,1.49,1.48,2.25c0.12,0.19,0.24,0.39,0.35,0.58
		c0.12,0.19,0.24,0.39,0.35,0.58c0.23,0.39,0.45,0.79,0.66,1.19c0.11,0.19,0.21,0.4,0.32,0.6c0.11,0.2,0.21,0.4,0.3,0.6
		c0.31,0.63,0.6,1.26,0.88,1.9c0.26,0.6,0.5,1.21,0.71,1.82c0.15,0.42,0.29,0.83,0.42,1.26c0.39,1.27,0.7,2.57,0.88,3.86
		c0.02,0.11,0.04,0.22,0.05,0.34c0.03,0.17,0.05,0.35,0.07,0.53c0.01,0.14,0.04,0.29,0.04,0.43c0.02,0.22,0.04,0.43,0.05,0.65
		c0.01,0.18,0.02,0.36,0.03,0.53c0.01,0.26,0.01,0.51,0.01,0.77c0,2.48-0.45,4.95-1.48,7.36c0,0-0.01,0.03-0.04,0.08
		c-0.01,0.03-0.04,0.07-0.06,0.13c-0.06,0.13-0.15,0.32-0.23,0.52c-0.03,0.06-0.05,0.11-0.07,0.17c-0.14,0.34-0.25,0.7-0.22,0.89
		c0,0.06,0.02,0.1,0.06,0.12c0.32,0.18,1.37-1.44,1.37-1.45c1.8-2.5,3.47-5.27,4.68-8.1c0.04-0.09,0.07-0.17,0.11-0.26v-0.01
		C486.6,440.18,487.21,434.48,485.37,428.2z"/>
	<path fill="#000000" class="st0" d="M769.46,178.35c-0.02-0.82-0.05-1.66-0.07-2.55c-0.11-1.5-0.24-3.09-0.37-4.76
		c-0.18-3.37-0.74-7.05-1.22-11.09c-0.68-3.99-1.37-8.33-2.47-12.89c-2.11-9.12-5.26-19.26-9.93-29.78
		c-0.29-0.66-0.58-1.33-0.87-1.99c-0.3-0.66-0.64-1.31-0.95-1.97c-0.65-1.32-1.31-2.65-1.96-3.99c-0.64-1.36-1.41-2.66-2.14-3.99
		c-0.74-1.33-1.48-2.68-2.23-4.03c-0.82-1.32-1.64-2.65-2.45-3.99c-0.41-0.66-0.83-1.34-1.25-2.02c-0.42-0.66-0.89-1.32-1.33-1.98
		c-0.9-1.32-1.81-2.65-2.72-3.99c-0.93-1.33-1.95-2.61-2.94-3.93c-1.92-2.68-4.13-5.19-6.27-7.8c-1.09-1.29-2.27-2.51-3.42-3.78
		c-0.58-0.63-1.16-1.26-1.73-1.9c-0.58-0.64-1.21-1.22-1.82-1.84c-1.22-1.21-2.45-2.44-3.7-3.67c-1.28-1.18-2.59-2.35-3.9-3.53
		c-0.65-0.58-1.3-1.18-1.97-1.76c-0.68-0.56-1.37-1.12-2.06-1.68c-0.68-0.56-1.38-1.13-2.07-1.68c-0.69-0.56-1.37-1.16-2.1-1.67
		c-1.44-1.06-2.89-2.13-4.34-3.2c-0.37-0.26-0.72-0.54-1.1-0.8l-1.13-0.75c-0.76-0.5-1.51-1.01-2.27-1.51
		c-0.76-0.5-1.52-1.01-2.28-1.51c-0.75-0.51-1.56-0.95-2.34-1.42c-1.58-0.93-3.15-1.9-4.75-2.81c-6.45-3.56-13.23-6.69-20.25-9.37
		c-7.05-2.6-14.34-4.66-21.77-6.24c-1.87-0.34-3.73-0.66-5.6-1l-1.41-0.25c-0.47-0.08-0.94-0.13-1.42-0.19l-2.86-0.35
		c-1.9-0.24-3.82-0.51-5.66-0.6l-5.66-0.39c-7.59-0.25-15.21-0.03-22.72,0.79c-7.51,0.92-14.92,2.34-22.12,4.29
		c-7.17,2.05-14.14,4.55-20.82,7.51c-1.66,0.77-3.28,1.58-4.92,2.36c-0.81,0.4-1.64,0.77-2.43,1.2c-0.79,0.43-1.58,0.87-2.37,1.29
		c-0.79,0.43-1.58,0.87-2.37,1.29l-1.17,0.64c-0.4,0.22-0.77,0.46-1.15,0.69c-1.53,0.93-3.04,1.86-4.55,2.78
		c-0.76,0.44-1.48,0.97-2.21,1.46c-0.72,0.49-1.45,0.99-2.17,1.48l-2.17,1.47c-0.71,0.51-1.4,1.05-2.1,1.57
		c-1.39,1.05-2.77,2.08-4.13,3.13c-1.32,1.1-2.64,2.19-3.95,3.28c-0.64,0.55-1.32,1.07-1.93,1.65c-0.62,0.57-1.24,1.15-1.86,1.71
		c-1.23,1.15-2.49,2.23-3.68,3.41c-2.32,2.38-4.69,4.64-6.8,7.09c-1.08,1.2-2.18,2.37-3.21,3.59c-1.01,1.23-2.01,2.46-3,3.68
		c-0.49,0.61-1,1.2-1.47,1.82c-0.47,0.63-0.93,1.25-1.39,1.87c-0.92,1.24-1.84,2.47-2.74,3.7c-0.86,1.25-1.69,2.5-2.53,3.74
		c-0.82,1.24-1.68,2.44-2.42,3.71c-0.76,1.25-1.51,2.49-2.26,3.72c-0.37,0.63-0.75,1.22-1.1,1.85c-0.34,0.63-0.67,1.24-1.01,1.86
		c-5.45,9.86-9.37,19.43-12.19,28.11c-1.46,4.32-2.49,8.47-3.49,12.28c-0.81,3.87-1.67,7.38-2.13,10.63
		c-0.27,1.62-0.52,3.15-0.75,4.58c-0.17,1.44-0.33,2.8-0.48,4.06c-0.14,1.26-0.28,2.43-0.4,3.5c-0.1,1.07-0.14,2.04-0.21,2.92
		c-0.23,3.49-0.36,5.35-0.36,5.35s0.16-1.86,0.47-5.34c0.09-0.88,0.15-1.85,0.28-2.92c0.14-1.07,0.31-2.22,0.48-3.48
		c0.17-1.25,0.37-2.6,0.57-4.04c0.26-1.42,0.55-2.95,0.85-4.54c0.53-3.22,1.46-6.72,2.36-10.54c1.08-3.78,2.19-7.88,3.74-12.15
		c2.98-8.56,7.09-17.97,12.7-27.6c0.35-0.61,0.69-1.21,1.05-1.83c0.35-0.61,0.75-1.19,1.13-1.79c0.76-1.2,1.53-2.42,2.31-3.64
		c0.75-1.23,1.64-2.4,2.47-3.61c0.85-1.2,1.7-2.42,2.57-3.65c0.92-1.18,1.85-2.38,2.79-3.58c0.46-0.6,0.93-1.2,1.41-1.81
		c0.47-0.6,0.99-1.17,1.49-1.76c1.01-1.17,2.02-2.36,3.04-3.55c1.03-1.18,2.15-2.31,3.23-3.47c2.13-2.37,4.51-4.54,6.84-6.82
		c1.18-1.13,2.45-2.18,3.69-3.27c0.62-0.55,1.24-1.09,1.86-1.64c0.62-0.56,1.3-1.05,1.94-1.58c1.3-1.04,2.61-2.08,3.93-3.13
		c1.36-1,2.74-1.98,4.12-2.98c0.69-0.49,1.38-1,2.08-1.48c0.72-0.46,1.43-0.93,2.16-1.4c0.72-0.47,1.44-0.93,2.17-1.41
		c0.73-0.46,1.43-0.96,2.19-1.38c1.49-0.88,2.99-1.74,4.5-2.62c0.38-0.22,0.75-0.45,1.14-0.65l1.16-0.61c0.77-0.4,1.55-0.8,2.33-1.2
		c0.78-0.4,1.56-0.81,2.35-1.21c0.78-0.41,1.6-0.74,2.4-1.12c1.61-0.73,3.21-1.49,4.84-2.19c6.56-2.74,13.4-5.02,20.39-6.86
		c7.03-1.74,14.23-2.95,21.51-3.68c7.29-0.63,14.63-0.68,21.95-0.28l5.51,0.51c1.88,0.13,3.65,0.43,5.45,0.69l2.69,0.39
		c0.44,0.07,0.9,0.12,1.34,0.2l1.35,0.27c1.79,0.36,3.58,0.72,5.36,1.08c7.09,1.67,14.03,3.8,20.73,6.44
		c6.65,2.71,13.07,5.84,19.15,9.38c1.5,0.9,2.97,1.86,4.47,2.78c0.73,0.47,1.49,0.9,2.2,1.41c0.71,0.5,1.42,0.99,2.14,1.49
		c0.71,0.49,1.42,0.99,2.14,1.48l1.06,0.74c0.35,0.26,0.68,0.53,1.02,0.79c1.37,1.05,2.72,2.1,4.07,3.15
		c0.69,0.5,1.32,1.09,1.97,1.63c0.65,0.56,1.29,1.11,1.93,1.66c0.64,0.55,1.28,1.1,1.92,1.65c0.63,0.56,1.22,1.15,1.84,1.72
		c1.21,1.16,2.44,2.28,3.64,3.44c1.15,1.19,2.29,2.39,3.44,3.57c0.56,0.6,1.15,1.16,1.68,1.78c0.54,0.62,1.07,1.23,1.61,1.84
		c1.06,1.23,2.16,2.42,3.17,3.67c1.97,2.52,4.01,4.95,5.78,7.53c0.9,1.27,1.85,2.5,2.69,3.79c0.85,1.29,1.68,2.57,2.5,3.84
		c0.41,0.64,0.84,1.26,1.22,1.91c0.39,0.65,0.76,1.3,1.14,1.94c0.76,1.29,1.5,2.57,2.25,3.83c0.68,1.3,1.36,2.59,2.03,3.87
		c0.65,1.28,1.37,2.52,1.93,3.82c0.6,1.29,1.18,2.56,1.77,3.82c0.29,0.64,0.6,1.25,0.87,1.89c0.26,0.64,0.51,1.27,0.77,1.9
		c4.2,10.05,6.96,19.67,8.76,28.31c0.94,4.31,1.49,8.41,2.06,12.18c0.37,3.8,0.83,7.28,0.92,10.45c0.09,1.58,0.16,3.07,0.24,4.48
		c0.21,3.84-0.25,10.1-0.3,10.98c-2.15,35.27-17.9,58.27-24.19,66.63c-19.13,25.5-51.02,44.16-82.46,47.6
		c-67.05,7.36-129.18-27.15-177.01-71.15c-0.96-0.89-1.92-1.78-2.88-2.68c-0.17-0.16-0.78,0.6-1.51,1.68
		c14.81,16.94,42.39,42.95,82.35,58.54c-2.24-0.66-45.77-13.93-85.62-53.18c-0.08,0.13-0.13,0.21-0.14,0.25
		c-0.42,0.79-4.37,7.22-3.4,8.13c4.22,3.96,8.58,7.81,13.01,11.59c-1.43,1.79-2.82,3.6-4.17,5.42
		c-8.2,11.07-15.86,23.88-16.69,37.96c-0.83,13.93,5.71,25.82,15.24,35.46c10.21,10.32,23.09,17.17,36.28,23.09
		c7.57,3.39,15.56,5.93,23.37,8.69c8.82,3.12,17.7,5.61,26.52,8.74c16.04,5.69,33.96,10.37,49.38,17.61
		c22.59,10.61,46.89,26.04,62.97,45.36c10.48,12.6,16.42,27.3,19.78,42.87c-2.46-3.52-5.29-6.81-8.61-9.75
		c-12.06-10.67-27.59-12.18-42.3-6.47c-14.38,5.58-27.07,15.76-39.41,24.8c-9.71,7.12-19.09,14.68-28.64,22.01
		c-18.77,14.39-38.53,27.41-61.47,34c-13.28,3.82-27.1,5.36-40.89,5.38c-15.89,0.03-32.21-1.6-47.49-6.14
		c-19.56-5.82-37.94-17.54-48.73-35.21c-4.24-6.96-7.14-14.88-7.98-23c-0.39-3.64-0.29-7.32,0.2-10.95c0.25-1.86,0.65-3.7,1.15-5.5
		c0.5-1.83,1.08-3.13,1.47-3.98c0.01-0.01,1.19-2.34,0.77-2.59c-0.27-0.15-0.93,0.65-1.39,1.28c-5.83,11.82-13.32,39.98,23.55,71.79
		c-0.99-0.6-31.74-19.34-33.88-49.35c-2.91,14.5,1.04,29.4,9.85,41.91c14.93,21.19,40.58,31.85,65.51,35.26
		c28.34,3.9,57.43,2.38,84.05-8.71c21.56-8.98,40-23.46,58.27-37.71c8.79-6.85,17.67-13.52,26.75-19.98
		c5.12-3.64,10.34-7.4,15.77-10.77c-0.76,1.31-1.55,2.62-2.23,3.97c-0.41,0.82-1.69,2.79-1.59,3.83c0.77,8.52,3.88,16.3,10.29,22.12
		c5.38,4.89,12.47,7.63,19.55,8.89c6.86,1.22,13.59,0.78,20.14-1.68c10.2-3.82,17.24-11.84,22.79-20.83
		c4.18,8.06,6.82,16.99,8.75,25.81c0.06,0.3,1.75-1.84,1.86-1.95c1.23-1.71,2.34-3.52,3.4-5.35c0.37-0.64,0.67-1.31,1.02-1.95
		c0.62-0.93,1.28-1.84,1.85-2.8c0.47-0.78,1.85-2.6,1.83-3.63c-0.27-21.63-3.59-43.3-12.7-63.07
		c-9.36-20.33-24.68-37.04-42.69-50.09c-25.08-18.19-54.39-28.69-83.33-38.94c-8.82-3.12-17.65-6.2-26.47-9.32
		c-7.64-2.71-15.39-5.26-22.77-8.63c-13.19-6.02-25.75-14.34-35.86-24.77c-5.74-5.92-10.28-12.71-12.58-20.68
		c-2.42-8.39-1.72-17.22,1.06-25.42c0.52-1.53,1.17-3.01,1.85-4.48c0.29-0.64,0.62-1.25,0.95-1.87c0.08-0.15,0.15-0.27,0.2-0.36
		c0.05-0.06,0.09-0.12,0.13-0.16c0.14-0.17,0.28-0.34,0.42-0.51c0.38-0.46,0.77-0.91,1.17-1.36c-0.05,0.06,0.78-0.86,0.89-0.97
		c0.39-0.42,0.79-0.83,1.18-1.23c0.65-0.67,1.32-1.32,2.01-1.96c0.08-0.08,0.14-0.13,0.19-0.18c0,0,0.02-0.02,0.09-0.08
		c0.18-0.16,0.37-0.33,0.55-0.49c0.15-0.13,0.31-0.27,0.47-0.4c0.31-0.26,0.55-0.63,0.85-0.92c45.06,37.82,100.27,65.32,160.5,60.52
		c31.29-2.49,62.83-14.44,85.74-36.19c11.67-11.08,21.82-24.42,29.38-38.55c7.53-14.02,11.43-28.94,13.63-44.76
		c0.25-1.85,0.45-3.7,0.6-5.55h0.07c0,0,0.01-0.53,0.03-1.53C769.74,186.56,769.72,182.45,769.46,178.35z M683.75,499.85
		c-1.7,1.66-3.61,3.1-5.58,4.43c-4.18,2.8-8.99,4.65-13.94,5.49c-5.12,0.87-10.55,0.3-15.58-0.83
		c-13.64-3.07-23.88-12.63-26.51-26.14c5.59-2.99,11.43-5.39,17.72-6.58c13.47-2.56,26.16,2.86,35.54,12.41
		c3.32,3.38,6.04,7.18,8.37,11.21C683.76,499.84,683.76,499.85,683.75,499.85z M471.55,265.05L471.55,265.05
		c0,0,0.01-0.01,0.01-0.01C471.55,265.04,471.55,265.04,471.55,265.05z"/>
	<path fill="#000000" class="st0" d="M858.35,459.11c-2.27-4.82-4.54-9.64-6.81-14.46c0-0.11-0.03-0.19-0.11-0.22c-0.01-0.01-0.01-0.02-0.02-0.04
		c-0.03-0.06-0.11-0.03-0.23,0.06c-0.03,0.01-0.05,0.01-0.09,0.03c-13.98,6.23-28.19,11.51-43.12,14.88
		c-8.84-4.09-17.11-9.15-22.98-17.18c-3.75-5.14-5.87-11.31-5.74-17.69c0.05-2.32,0.45-4.7,1.2-6.93c0.4-0.47,0.84-0.92,1.27-1.37
		c1.14-1.16,2.38-2.18,3.66-3.18c10.04-7.79,23.78-10.21,35.94-6.86c12.35,3.4,22.77,13.14,25.59,25.77
		c0.05,0.23,1.39-1.47,1.41-1.47c0.73-1.02,1.4-2.08,2.03-3.16c-2.43-18.59-14.65-24.89-15.49-25.3
		c11.09,3.93,15.66,13.88,17.54,21.97c0.77-1.3,1.44-2.71,1.23-3.67c-3.12-14-15.18-23.72-28.86-26.57
		c-13.24-2.75-28.02,2.06-37.44,11.65c-5.74,5.82-10.16,13.64-13.04,21.24c-2.44,6.45-2.34,13.41,0.01,19.85
		c2.58,7.1,7.52,12.38,13.35,16.63c-8.35,1.09-16.75,1.51-25.22,0.68c-13.68-1.35-26.88-4.5-36.76-14.63
		c-3.92-4.03-7.48-8.77-9.38-14.09c-2.15-6.01-2.46-12.68-1.57-18.96c0.15-1.06,0.49-2.09,0.76-3.13c5.3-0.65,10.62-1.2,15.98-1.54
		c0.68-0.05,1.59-1.58,1.86-1.95c1.23-1.71,2.34-3.52,3.39-5.35c0.26-0.45,3.91-8.22,3.71-8.2c-31.47,2.01-62.09,9.31-90.82,22.35
		c-13.25,6.02-25.94,13.19-38.21,20.98c-12.59,8-23.4,16.03-35.82,24.26c-26.01,17.22-57.94,27.67-88.98,29.47
		c-30.31,1.75-63.56-3.67-89.45-20.27c-11.28-7.23-21.06-17.26-26.45-29.62c-2.74-6.28-4.08-13.12-4.11-19.95
		c-0.02-3.28,0.4-6.55,1.08-9.77c0.29-1.38,2.05-5.93,2.05-5.93c2.11-4.95,6.41-12.17,4.43-9.62c-2.56,3.29-4.96,6.73-7.07,10.28
		c-5.23,12.83-8.55,38.16,24.46,68.06c-0.95-0.57-29.37-17.89-33.09-45.89c-0.93,5.21-1.08,10.58-0.25,16.1
		c2.3,15.32,11.97,28.18,23.92,37.56c12.2,9.58,26.97,15.4,41.85,19.35c15.03,3.98,30.63,5.66,46.15,5.47
		c30.86-0.37,61.76-8.69,88.52-24.09c13-7.48,24.68-17.1,37.14-25.42c12.12-8.08,24.64-15.53,37.69-22.02
		c24.93-12.4,51.62-20.19,79.07-23.86c-1.89,3.28-3.66,6.63-5,10.17c-2.25,5.94-2.71,12.46-2.01,18.73
		c1.3,11.75,8.61,21.77,18.26,28.33c11.27,7.66,26.63,9.19,39.93,9.22c15.02,0.03,30.45-3.33,44.89-7.29
		c11.64-3.19,22.83-7.77,33.84-12.66c0.01,0.01,0,0.03,0.01,0.04c2.31,4.9,4.62,9.81,6.94,14.72c0.16,0.34,2.01-2.17,1.86-1.95
		c1.23-1.71,2.34-3.52,3.39-5.35c1.05-1.83,2.07-3.69,2.94-5.61C857.78,461.25,858.64,459.74,858.35,459.11z M780.04,418.05
		c0.01-0.02,0.03-0.03,0.05-0.05C778.92,420.25,778.93,419.41,780.04,418.05z"/>
	<path fill="#000000" class="st0" d="M858.65,579.92c-2.05-10.17-9.99-19.13-20.25-21.33c-0.54-0.12-1.37,0.81-2.21,2.05
		c6.16,1.33,15.97,6.01,18.86,22.12c0,0-5.77-15.96-21.02-18.5c-0.43,0.79-0.76,1.41-0.89,1.64c-0.22,0.39-4.32,8.07-3.71,8.2
		c8.95,1.92,15.68,8.71,18.99,17.06c1.47,3.72,2.03,7.68,1.72,11.65c-0.09,0.06-0.16,0.11-0.24,0.15
		c-6.77,4.34-15.53,5.55-23.42,5.5c-7.23-0.06-15.29-1.49-21.18-5.99c6.1-8.56,9.41-17.95,8.36-28.65
		c-0.03-0.34-2.39,1.79-2.18,1.58c-1.52,1.46-2.94,3.04-4.31,4.65c-1.37,1.6-2.71,3.25-3.91,4.99c-0.38,0.54-1.3,1.62-1.22,2.41
		c0.41,4.21,0.17,8.35-0.75,12.49c-0.44,1.96-1.1,3.87-1.86,5.73c-0.16,0.39-0.36,0.78-0.57,1.16c-0.59,0.39-1.17,0.8-1.78,1.16
		c-1.63,0.95-3.4,1.65-5.17,2.26c-3.83,1.31-7.93,1.68-11.96,1.55c-7.63-0.24-15.29-3.14-20.57-8.73c-5.2-5.5-7.61-16.36-3.02-22.69
		c0.01-0.01,1.59-2.09,1.22-2.41c-0.37-0.32-2.17,2.54-2.18,2.55c-3.04,2.92-4.79,6.22-7.26,9.63c-2.38,3.28-3.98,6.97-4.65,10.73
		c-5.69,4.12-12.47,6.64-19.6,6.33c-7.43-0.32-14.03-4.18-19.94-8.67c4.88-4.04,9.62-8.21,14.21-12.32c2.6-2.33,4.4-6.03,6.05-9.01
		c0.85-1.53,1.7-3.09,2.32-4.72c-0.07,0.17,0.74-1.89-0.15-1.1c-8.85,7.92-18.05,15.92-27.91,22.74c-0.25-0.21-0.52-0.43-0.77-0.64
		c-12.3-10.34-24.55-20.72-36.8-31.11c23.06-0.17,46.11-0.35,69.17-0.53c1.76-0.02,4.57-6.12,5.26-7.3c0.05-0.08,0.21-0.41,0.45-0.9
		l-35.69-3.11l37.79-1.33c0.71-1.57,1.27-2.86,1.15-2.86c-32.06,0.24-64.12,0.49-96.18,0.74c-1.76,0.01-4.57,6.11-5.26,7.31
		c-0.4,0.69-4.66,7.39-3.7,8.2c16.17,13.68,32.3,27.43,48.53,41.06c-0.02,0.01-0.05,0.03-0.07,0.04c-0.05,0.02-0.54,0.27-1.41,0.67
		c-1.08,0.51-2.17,0.99-3.27,1.45c-0.56,0.24-1.16,0.49-1.79,0.74c-8.27,3.3-17.06,5.42-26.53,5.77
		c-13.75,0.51-27.43-3.59-37.36-13.08c-8.46-8.09-13.31-19.91-10.31-31.32c0.08-0.22,0.14-0.52,0.16-0.76
		c0.01-0.02,0.01-0.03,0.01-0.05c0.02-0.08-0.02-0.05-0.01-0.11c-0.01-0.03,0-0.08-0.01-0.1c-0.07-0.44-1.21,0.84-1.03,0.63
		c-0.21,0.25-0.37,0.55-0.57,0.81c-0.83,0.97-1.59,2.05-2.26,3.23c-0.06,0.1-0.14,0.19-0.2,0.29c-1.67,2.66-3.45,5.49-4.54,8.47
		c-0.72,1.27-1,1.75-1.88,3.17c-1.42,2.3-3.9,5.32-6.07,7.56c-5.43,5.58-12.41,9.6-20.1,10.8c-9.36,1.47-19.86-3.98-23.5-12.55
		c18.02-12,35.41-25.02,53.76-36.52c1.01-0.64,1.92-2.37,2.52-3.29c1.27-1.92,2.44-3.91,3.53-5.93c0.85-1.57,1.7-3.18,2.32-4.84
		c0.07-0.18,0.71-1.67-0.14-1.13c-25.47,15.97-49.09,34.83-75.12,49.88c-11.91,6.89-24.43,12.66-37.65,16.48
		c-14.14,4.09-28.86,5.6-43.55,5.09c-25.21-0.87-52.58-7.16-70.36-26.34c-12.42-13.41-17.4-32.77-10.26-49.96
		c0.7-1.69,0.01-1.13-0.85-0.14c0,0,0,0.01-0.01,0.01c-5.93,11.15-13.3,37.2,22.61,67.33c0,0-30.92-16.18-33.11-44.91
		c-3.2,16.32,2.42,32.88,14.49,45.08c20.23,20.46,52.29,25.39,79.81,24.46c26.72-0.91,51.46-10.45,74.22-23.99
		c3.66-2.18,7.21-4.54,10.79-6.84l-3.12,6.13c0.49,5.07,3.04,9.16,6.95,12.65c6.42,5.72,15.37,6.07,23.2,3.56
		c13.68-4.4,22.78-16.87,30.12-29.54c-1,9.77,3.2,19.35,10.01,26.66c9.56,10.27,23.64,14.4,37.53,14.3
		c16.1-0.12,30.48-5.69,43.62-13.72l0.03,0.01c0,0,1.56-0.55,6.46-4.11l-0.09-0.08c0.01,0,0.01-0.01,0.02-0.01
		c0.27,0.23,0.54,0.45,0.81,0.68c7.65,6.39,16.21,12.44,26.57,12.5c10.14,0.05,19.2-6.23,25.77-13.42c0.34-0.37,0.64-0.8,0.95-1.21
		c0.6,3.01,1.9,5.93,4.21,8.55c6.6,7.51,17.78,9.65,27.28,8.4c9.52-1.26,17-6.96,23.26-13.85c-0.05,0.08-0.08,0.14-0.13,0.22
		l0.76-0.78l-2.68,7.32c6.83,5.27,16.47,6.28,24.8,5.91c8.56-0.37,18.38-2.66,24.62-8.91c5.36-5.37,9.3-12.98,11.98-20
		C859.51,590.14,859.66,584.97,858.65,579.92z"/>
	<path fill="#000000" class="st0" d="M643.31,663.49L643.31,663.49C643.31,663.48,643.31,663.48,643.31,663.49c-0.27-0.3-0.55-0.59-0.83-0.87
		c-0.28-0.29-0.58-0.57-0.88-0.84c-0.29-0.28-0.6-0.54-0.91-0.81c-0.3-0.26-0.61-0.52-0.93-0.77c0,0,0,0,0,0
		c-0.04-0.04-0.08-0.07-0.13-0.11c-0.91-0.73-1.87-1.41-2.86-2.07c-0.34-0.24-0.7-0.47-1.05-0.69c-0.08-0.05-0.16-0.1-0.24-0.15
		c-0.74-0.48-1.48-0.96-2.21-1.45c-0.2-0.14-0.41-0.27-0.61-0.4c-0.02-0.01-0.04-0.03-0.06-0.04c-1.98-1.34-3.87-2.77-5.47-4.52l0,0
		l0,0c-0.81-0.88-1.55-1.85-2.2-2.93c0,0.01-0.41,0.45-0.97,1.05c-0.01,0.01-0.02,0.02-0.03,0.03c-0.05,0.05-0.1,0.11-0.15,0.16
		c-0.05,0.06-0.08,0.09-0.14,0.15c-0.27,0.29-0.56,0.6-0.88,0.94c-0.12,0.13-0.24,0.26-0.37,0.4c-0.47,0.51-0.97,1.04-1.49,1.61
		c-0.82,0.89-1.58,1.7-2.38,2.56c-1.73,1.86-3.18,3.43-3.38,3.66c-0.93,1.09-1.84,2.17-2.76,3.28l0,0
		c-0.94,1.13-1.86,2.27-2.77,3.41c-0.35-0.45-0.63-0.98-1.01-1.41c-0.27-0.3-0.54-0.59-0.82-0.88c-0.28-0.29-0.57-0.57-0.87-0.85
		c-0.27-0.26-0.55-0.51-0.83-0.76c-0.03-0.03-0.06-0.05-0.09-0.08c-0.3-0.25-0.6-0.51-0.91-0.76c-0.31-0.25-0.64-0.5-0.96-0.75
		c-0.32-0.25-0.65-0.5-0.99-0.73c-0.33-0.24-0.68-0.48-1.02-0.72c-0.34-0.24-0.69-0.47-1.04-0.7c-0.17-0.12-0.35-0.23-0.52-0.34
		c-0.71-0.47-1.42-0.94-2.12-1.42c-0.13-0.09-0.27-0.18-0.41-0.27c-0.02-0.01-0.04-0.03-0.06-0.04c-1.96-1.36-3.82-2.8-5.41-4.56
		c-0.01-0.01-0.03-0.03-0.04-0.04c-0.8-0.89-1.52-1.85-2.16-2.93l0,0l0,0c0,0,0,0,0,0c0,0.01-0.98,1.05-2.29,2.42
		c-1.52,1.6-3.51,3.69-5.08,5.35c-0.07,0.07-0.13,0.14-0.2,0.21c-0.74,0.78-1.38,1.46-1.79,1.9c-0.12,0.13-0.21,0.22-0.29,0.31
		c-0.08,0.08-0.22,0.23-0.25,0.27c-0.94,1.08-1.87,2.15-2.8,3.25l0,0c-1.28,1.5-2.53,3.01-3.76,4.53c0.04-0.05-2.69,3.05-2.45,3.45
		c2.4,4.1,6.15,6.65,10.06,9.19c4.58,2.98,8.61,6.2,11.31,11.04c0-0.04,1.53-1.65,3.39-3.61c-2.84-4.42-7.46-8.28-7.46-8.28
		c3.68,1.97,6.52,4.85,8.43,7.25c2.52-2.64,5.25-5.5,5.54-5.82c1.92-2.21,3.81-4.45,5.66-6.72c2.27,2.51,5.1,4.38,8.02,6.24
		c4.61,2.93,8.67,6.11,11.42,10.92c0-0.04,1.71-1.88,3.71-4.02c-2.85-4.64-7.93-8.8-7.93-8.8c4,2.08,7.02,5.23,8.95,7.71
		c2.37-2.54,4.8-5.13,5.06-5.44c2.2-2.58,4.38-5.18,6.47-7.85c-0.03,0.04,2.65-3.06,2.42-3.48
		C645.57,666.21,644.51,664.79,643.31,663.49z"/>
	<g>
		<path fill="#000000" class="st0" d="M481.7,169.31c-0.18-0.2-0.36-0.39-0.54-0.58c-0.19-0.19-0.38-0.38-0.57-0.56c-0.18-0.17-0.36-0.34-0.55-0.5
			c-0.02-0.02-0.04-0.03-0.06-0.05c-0.19-0.17-0.39-0.34-0.59-0.5c-0.2-0.17-0.42-0.33-0.63-0.49c-0.21-0.17-0.43-0.33-0.65-0.48
			c-0.22-0.16-0.44-0.32-0.67-0.47c-0.22-0.16-0.45-0.31-0.68-0.46c-0.12-0.08-0.23-0.15-0.35-0.23c-0.46-0.3-0.91-0.6-1.36-0.91
			c-0.09-0.06-0.19-0.13-0.28-0.19c-0.02-0.01-0.03-0.02-0.05-0.03c-1.29-0.89-2.51-1.84-3.54-2.99c-0.01-0.01-0.02-0.02-0.03-0.03
			c-0.52-0.58-1-1.22-1.42-1.93c0,0-0.1,0.11-0.21,0.23c-0.04,0.04-0.07,0.07-0.13,0.14c-0.14,0.14-0.31,0.33-0.52,0.55
			c-0.76,0.8-1.86,1.96-2.95,3.11c-0.3,0.32-0.59,0.62-0.87,0.91c-0.05,0.05-0.11,0.12-0.16,0.17c-0.02,0.02-0.04,0.04-0.05,0.06
			c-0.84,0.88-1.5,1.59-1.6,1.7c-0.62,0.71-1.23,1.41-1.83,2.13l0,0c-0.84,0.98-1.66,1.97-2.47,2.98c0.03-0.03-1.76,2-1.61,2.27
			c1.58,2.69,4.04,4.36,6.6,6.03c3.01,1.95,5.65,4.07,7.42,7.24c0-0.02,1-1.09,2.23-2.37c-1.87-2.9-4.9-5.43-4.9-5.43
			c2.42,1.29,4.28,3.18,5.53,4.76c1.66-1.73,3.45-3.61,3.63-3.82c1.46-1.68,2.91-3.37,4.3-5.11c-0.02,0.02,1.76-1.99,1.61-2.27
			C483.17,171.11,482.48,170.17,481.7,169.31z"/>
	</g>
	<path fill="#000000" class="st0" d="M828.77,515.59L828.77,515.59C828.77,515.59,828.77,515.59,828.77,515.59c-0.27-0.3-0.55-0.59-0.83-0.87
		c-0.28-0.29-0.58-0.57-0.88-0.84c-0.29-0.28-0.6-0.54-0.91-0.81c-0.3-0.26-0.61-0.52-0.93-0.77l0,0c-0.04-0.04-0.08-0.07-0.13-0.11
		c-0.91-0.73-1.87-1.41-2.86-2.07c-0.34-0.24-0.7-0.47-1.05-0.69c-0.08-0.05-0.16-0.1-0.24-0.15c-0.74-0.48-1.48-0.96-2.21-1.45
		c-0.2-0.14-0.41-0.27-0.61-0.4c-0.02-0.01-0.04-0.03-0.06-0.04c-1.98-1.34-3.87-2.77-5.47-4.52c0,0,0,0,0,0l0,0
		c-0.81-0.88-1.55-1.85-2.2-2.93c0,0.01-0.41,0.45-0.97,1.05c-0.01,0.01-0.02,0.02-0.03,0.03c-0.05,0.05-0.1,0.11-0.15,0.16
		c-0.05,0.06-0.08,0.09-0.14,0.15c-0.27,0.29-0.56,0.6-0.88,0.94c-0.12,0.13-0.24,0.26-0.37,0.4c-0.47,0.51-0.97,1.04-1.49,1.61
		c-0.82,0.89-1.58,1.7-2.38,2.56c-1.73,1.86-3.18,3.43-3.38,3.66c-0.93,1.09-1.84,2.17-2.76,3.28l0,0
		c-0.94,1.13-1.86,2.27-2.77,3.41c-0.35-0.45-0.63-0.98-1.01-1.41c-0.27-0.3-0.54-0.59-0.82-0.88c-0.28-0.29-0.57-0.57-0.87-0.85
		c-0.27-0.26-0.55-0.51-0.83-0.76c-0.03-0.03-0.06-0.05-0.09-0.08c-0.3-0.25-0.6-0.51-0.91-0.76c-0.31-0.25-0.64-0.5-0.96-0.75
		c-0.32-0.25-0.65-0.5-0.99-0.73c-0.33-0.24-0.68-0.48-1.02-0.72c-0.34-0.24-0.69-0.47-1.04-0.7c-0.17-0.12-0.35-0.23-0.52-0.34
		c-0.71-0.47-1.42-0.94-2.12-1.42c-0.13-0.09-0.27-0.18-0.41-0.27c-0.02-0.01-0.04-0.03-0.06-0.04c-1.96-1.36-3.82-2.8-5.41-4.56
		c-0.01-0.01-0.03-0.03-0.04-0.04c-0.8-0.89-1.52-1.85-2.16-2.93l0,0l0,0l0,0c0,0.01-0.98,1.05-2.29,2.42
		c-1.52,1.6-3.51,3.69-5.08,5.35c-0.07,0.07-0.13,0.14-0.2,0.21c-0.74,0.78-1.38,1.46-1.79,1.9c-0.12,0.13-0.21,0.22-0.29,0.31
		c-0.08,0.08-0.22,0.23-0.25,0.27c-0.94,1.08-1.87,2.15-2.8,3.25c0,0,0,0,0,0c-1.28,1.5-2.53,3.01-3.76,4.53
		c0.04-0.05-2.69,3.05-2.45,3.45c2.4,4.1,6.15,6.65,10.06,9.19c4.58,2.98,8.61,6.2,11.31,11.04c0-0.04,1.53-1.65,3.39-3.61
		c-2.84-4.42-7.46-8.28-7.46-8.28c3.68,1.97,6.52,4.85,8.43,7.25c2.52-2.64,5.25-5.5,5.54-5.82c1.92-2.21,3.81-4.45,5.66-6.72
		c2.27,2.51,5.1,4.38,8.02,6.24c4.61,2.93,8.67,6.11,11.42,10.92c0-0.04,1.71-1.88,3.71-4.02c-2.85-4.64-7.93-8.8-7.93-8.8
		c4,2.08,7.02,5.23,8.95,7.71c2.37-2.54,4.8-5.13,5.06-5.44c2.2-2.58,4.38-5.18,6.47-7.85c-0.03,0.04,2.65-3.06,2.42-3.48
		C831.03,518.32,829.96,516.9,828.77,515.59z"/>
</g>
<path fill="#000000" d="M273.602,481.306c-0.578-0.576-1.301-1.03-2.174-1.362c-0.873-0.331-1.885-0.497-3.039-0.497
	c-0.663,0-1.463,0.079-2.4,0.238v-6.077h-1.535v17.711c0.706,0.202,1.402,0.354,2.087,0.454s1.301,0.151,1.849,0.151
	c1.153,0,2.166-0.162,3.039-0.486s1.596-0.764,2.174-1.319c0.576-0.555,1.006-1.211,1.287-1.968s0.42-1.561,0.42-2.411
	s-0.139-1.657-0.42-2.422C274.608,482.554,274.178,481.883,273.602,481.306z M272.391,489.167c-0.852,0.829-2.17,1.243-3.958,1.243
	c-0.39,0-0.805-0.032-1.244-0.097c-0.439-0.065-0.84-0.134-1.2-0.206v-8.845c0.447-0.115,0.887-0.194,1.319-0.237
	c0.433-0.044,0.808-0.065,1.125-0.065c0.894,0,1.668,0.112,2.325,0.335c0.656,0.224,1.199,0.545,1.633,0.963
	c0.432,0.418,0.752,0.919,0.961,1.503s0.314,1.243,0.314,1.979C273.667,487.195,273.241,488.338,272.391,489.167z M247.392,479.446
	c-0.62,0-1.297,0.079-2.033,0.238c-0.735,0.158-1.485,0.433-2.249,0.821l-0.065,1.73c0.548-0.303,0.973-0.52,1.276-0.649
	s0.624-0.237,0.962-0.324c0.338-0.086,0.677-0.158,1.016-0.216s0.667-0.087,0.984-0.087c1.139,0,1.982,0.249,2.53,0.746
	s0.822,1.33,0.822,2.498v0.13c-0.332-0.044-0.732-0.087-1.2-0.13c-0.469-0.043-0.876-0.065-1.222-0.065
	c-1.831,0-3.302,0.311-4.412,0.931c-1.11,0.619-1.665,1.644-1.665,3.07c0,0.707,0.155,1.305,0.465,1.795
	c0.31,0.49,0.713,0.88,1.211,1.168s1.067,0.497,1.708,0.627c0.641,0.13,1.308,0.194,2,0.194c0.807,0,1.6-0.072,2.378-0.216
	c0.779-0.145,1.536-0.368,2.271-0.671v-7.028c0-1.585-0.397-2.742-1.189-3.471C250.189,479.811,248.992,479.446,247.392,479.446z
	 M250.636,489.892c-0.375,0.144-0.858,0.267-1.449,0.367c-0.591,0.102-1.183,0.151-1.773,0.151c-0.505,0-0.984-0.035-1.438-0.108
	c-0.454-0.071-0.84-0.197-1.157-0.378c-0.317-0.18-0.57-0.414-0.757-0.703c-0.188-0.288-0.281-0.663-0.281-1.124
	c0-0.52,0.111-0.934,0.335-1.244c0.224-0.31,0.533-0.551,0.93-0.724c0.396-0.174,0.85-0.296,1.362-0.368
	c0.511-0.072,1.041-0.108,1.589-0.108c0.476,0,0.984,0.029,1.524,0.087c0.541,0.058,0.912,0.108,1.114,0.151V489.892z
	 M258.032,479.868c-0.649,0.122-1.276,0.263-1.881,0.422v11.418h1.535v-10.186c0.202-0.072,0.563-0.147,1.082-0.228
	c0.519-0.079,1.002-0.118,1.449-0.118h1.989v-1.492H260C259.336,479.685,258.681,479.746,258.032,479.868z M-77.92,487.667
	l241.145,0.656l0.663-0.433l-0.632-0.564L-77.92,487.667z M164.994,487.825l1.95,1.95l1.95-1.95l-1.95-1.95L164.994,487.825z
	 M169.559,487.825l3.057,3.057l3.057-3.057l-3.057-3.057L169.559,487.825z M212.359,489.286l-3.395-9.602h-1.514l-3.396,9.602
	l-2.984-9.602h-1.73l3.979,12.023h1.428l3.46-9.645l3.46,9.645h1.427l3.979-12.023h-1.73L212.359,489.286z M238.418,489.589
	c-0.317,0-0.591,0.115-0.822,0.346c-0.231,0.23-0.346,0.505-0.346,0.822c0,0.316,0.115,0.591,0.346,0.821
	c0.23,0.23,0.504,0.346,0.822,0.346c0.317,0,0.591-0.115,0.822-0.346c0.23-0.23,0.346-0.505,0.346-0.821
	c0-0.317-0.116-0.592-0.346-0.822C239.009,489.704,238.735,489.589,238.418,489.589z M193.243,489.286l-3.395-9.602h-1.514
	l-3.396,9.602l-2.984-9.602h-1.73l3.979,12.023h1.428l3.46-9.645l3.46,9.645h1.427l3.979-12.023h-1.73L193.243,489.286z
	 M231.476,489.286l-3.395-9.602h-1.514l-3.396,9.602l-2.984-9.602h-1.73l3.979,12.023h1.428l3.46-9.645l3.46,9.645h1.427
	l3.979-12.023h-1.73L231.476,489.286z M382.732,480.474c-0.426-0.396-0.938-0.667-1.535-0.812c-0.598-0.144-1.271-0.216-2.021-0.216
	c-0.664,0-1.393,0.09-2.184,0.271c-0.793,0.181-1.471,0.4-2.033,0.659c-0.346-0.331-0.818-0.569-1.416-0.714
	c-0.6-0.144-1.273-0.216-2.023-0.216c-0.635,0-1.268,0.058-1.902,0.173l-2.465,0.454v11.635h1.535v-10.38
	c0.447-0.102,0.883-0.188,1.309-0.26c0.424-0.072,0.896-0.108,1.416-0.108c0.605,0,1.125,0.058,1.557,0.173
	c0.434,0.116,0.789,0.321,1.07,0.616c0.281,0.296,0.494,0.711,0.639,1.244s0.217,1.24,0.217,2.119v6.596h1.535v-7.201
	c0-0.663-0.055-1.243-0.162-1.741c-0.109-0.497-0.213-0.861-0.314-1.092c0.086-0.043,0.281-0.119,0.584-0.228
	c0.303-0.107,0.602-0.197,0.898-0.27c0.295-0.072,0.586-0.126,0.875-0.162s0.547-0.055,0.779-0.055c0.59,0,1.102,0.058,1.535,0.173
	c0.432,0.116,0.781,0.317,1.049,0.605c0.266,0.289,0.471,0.703,0.615,1.244c0.145,0.54,0.217,1.251,0.217,2.13v6.596h1.535v-7.201
	c0-0.995-0.111-1.816-0.336-2.466C383.482,481.393,383.158,480.87,382.732,480.474z M280.1,474.581
	c-0.785,0.648-1.18,1.729-1.18,3.243v1.86h-2.551v1.492h2.551v10.531h1.537v-10.531h4.973v-1.492h-4.973v-1.471
	c0-0.635,0.045-1.149,0.141-1.546c0.094-0.396,0.24-0.707,0.443-0.931c0.201-0.223,0.475-0.385,0.82-0.486
	c0.346-0.101,0.779-0.151,1.299-0.151h2.422v-1.492h-2.271C281.956,473.607,280.885,473.932,280.1,474.581z M398.273,487.825
	l3.057,3.057l3.057-3.057l-3.057-3.057L398.273,487.825z M343.322,482.322c0.389-0.418,0.854-0.749,1.395-0.994
	s1.135-0.368,1.783-0.368c0.736,0,1.373,0.076,1.914,0.228s1.121,0.414,1.74,0.789l0.715-1.405c-0.707-0.39-1.393-0.674-2.055-0.854
	c-0.664-0.181-1.436-0.271-2.314-0.271c-0.85,0-1.639,0.155-2.367,0.465c-0.729,0.311-1.367,0.746-1.914,1.309
	c-0.549,0.563-0.98,1.222-1.297,1.979c-0.317,0.757-0.476,1.59-0.476,2.498s0.158,1.74,0.476,2.497
	c0.316,0.757,0.748,1.413,1.297,1.969c0.547,0.555,1.186,0.987,1.914,1.297c0.729,0.311,1.518,0.465,2.367,0.465
	c0.879,0,1.65-0.09,2.314-0.27c0.662-0.181,1.348-0.466,2.055-0.854l-0.715-1.406c-0.619,0.375-1.199,0.639-1.74,0.79
	s-1.178,0.227-1.914,0.227c-0.648,0-1.242-0.119-1.783-0.356c-0.541-0.238-1.006-0.565-1.395-0.984
	c-0.391-0.418-0.693-0.915-0.908-1.492c-0.217-0.576-0.324-1.203-0.324-1.881s0.107-1.305,0.324-1.882
	C342.628,483.238,342.931,482.741,343.322,482.322z M404.387,487.825l1.949,1.95l1.951-1.95l-1.951-1.95L404.387,487.825z
	 M410.701,487.326l-0.664,0.433l0.633,0.564l241.176-0.341L410.701,487.326z M362.611,481.295c-0.549-0.569-1.193-1.02-1.936-1.352
	c-0.742-0.331-1.547-0.497-2.412-0.497c-0.863,0-1.668,0.166-2.41,0.497c-0.742,0.332-1.389,0.782-1.936,1.352
	c-0.549,0.57-0.977,1.229-1.287,1.979c-0.311,0.749-0.465,1.557-0.465,2.422s0.154,1.672,0.465,2.422s0.738,1.409,1.287,1.979
	c0.547,0.569,1.193,1.017,1.936,1.341s1.547,0.486,2.41,0.486c0.865,0,1.67-0.162,2.412-0.486s1.387-0.771,1.936-1.341
	c0.547-0.569,0.977-1.229,1.287-1.979c0.309-0.75,0.465-1.557,0.465-2.422s-0.156-1.673-0.465-2.422
	C363.587,482.524,363.158,481.865,362.611,481.295z M362.394,487.523c-0.217,0.569-0.52,1.067-0.908,1.492
	c-0.389,0.426-0.857,0.765-1.406,1.017c-0.547,0.252-1.152,0.378-1.816,0.378c-0.662,0-1.268-0.126-1.816-0.378
	c-0.547-0.252-1.016-0.591-1.404-1.017c-0.391-0.425-0.693-0.923-0.908-1.492c-0.217-0.569-0.324-1.179-0.324-1.827
	c0-0.649,0.107-1.262,0.324-1.839c0.215-0.576,0.518-1.077,0.908-1.503c0.389-0.425,0.857-0.764,1.404-1.016
	c0.549-0.252,1.154-0.379,1.816-0.379c0.664,0,1.27,0.127,1.816,0.379c0.549,0.252,1.018,0.591,1.406,1.016
	c0.389,0.426,0.691,0.927,0.908,1.503c0.217,0.577,0.324,1.189,0.324,1.839C362.718,486.345,362.611,486.954,362.394,487.523z
	 M296.221,481.295c-0.547-0.569-1.191-1.02-1.936-1.352c-0.742-0.331-1.545-0.497-2.41-0.497s-1.67,0.166-2.412,0.497
	c-0.742,0.332-1.387,0.782-1.936,1.352c-0.547,0.57-0.977,1.229-1.285,1.979c-0.311,0.749-0.465,1.557-0.465,2.422
	s0.154,1.672,0.465,2.422c0.309,0.75,0.738,1.409,1.285,1.979c0.549,0.569,1.193,1.017,1.936,1.341s1.547,0.486,2.412,0.486
	s1.668-0.162,2.41-0.486c0.744-0.324,1.389-0.771,1.936-1.341c0.549-0.569,0.977-1.229,1.287-1.979s0.465-1.557,0.465-2.422
	s-0.154-1.673-0.465-2.422C297.198,482.524,296.77,481.865,296.221,481.295z M296.006,487.523c-0.217,0.569-0.52,1.067-0.908,1.492
	c-0.391,0.426-0.859,0.765-1.406,1.017c-0.549,0.252-1.154,0.378-1.816,0.378c-0.664,0-1.27-0.126-1.816-0.378
	c-0.549-0.252-1.018-0.591-1.406-1.017c-0.389-0.425-0.691-0.923-0.908-1.492s-0.324-1.179-0.324-1.827
	c0-0.649,0.107-1.262,0.324-1.839c0.217-0.576,0.52-1.077,0.908-1.503c0.389-0.425,0.857-0.764,1.406-1.016
	c0.547-0.252,1.152-0.379,1.816-0.379c0.662,0,1.268,0.127,1.816,0.379c0.547,0.252,1.016,0.591,1.406,1.016
	c0.389,0.426,0.691,0.927,0.908,1.503c0.215,0.577,0.324,1.189,0.324,1.839C296.331,486.345,296.221,486.954,296.006,487.523z
	 M309.381,480.463c-0.455-0.39-0.996-0.656-1.623-0.801c-0.627-0.144-1.309-0.216-2.043-0.216c-0.707,0-1.465,0.047-2.271,0.141
	s-1.701,0.234-2.682,0.422v11.699h1.535v-10.402c1.184-0.23,2.293-0.346,3.33-0.346c0.592,0,1.111,0.062,1.559,0.184
	c0.445,0.123,0.818,0.332,1.113,0.628c0.295,0.295,0.525,0.713,0.691,1.254s0.25,1.251,0.25,2.13v6.553h1.535v-7.201
	c0-0.995-0.119-1.82-0.357-2.477C310.18,481.375,309.834,480.852,309.381,480.463z M318.516,490.054
	c-0.346-0.108-0.619-0.277-0.82-0.509c-0.203-0.23-0.35-0.547-0.443-0.951c-0.096-0.403-0.141-0.922-0.141-1.557v-5.86h4.973v-1.492
	h-4.973v-4.347h-1.537v4.347h-2.551v1.492h2.551v6.466c0,0.764,0.109,1.405,0.326,1.925c0.215,0.519,0.525,0.937,0.93,1.254
	c0.402,0.317,0.867,0.544,1.395,0.682c0.525,0.137,1.105,0.205,1.74,0.205h2.271v-1.492h-2.422
	C319.295,490.216,318.862,490.162,318.516,490.054z M337.784,489.589c-0.316,0-0.59,0.115-0.82,0.346s-0.346,0.505-0.346,0.822
	c0,0.316,0.115,0.591,0.346,0.821s0.504,0.346,0.82,0.346c0.318,0,0.592-0.115,0.822-0.346s0.346-0.505,0.346-0.821
	c0-0.317-0.115-0.592-0.346-0.822S338.102,489.589,337.784,489.589z M333.178,486.106c-0.346-0.303-0.785-0.565-1.318-0.789
	c-0.533-0.223-1.182-0.422-1.947-0.595l-0.799-0.173c-1.053-0.216-1.781-0.461-2.184-0.735c-0.404-0.273-0.607-0.678-0.607-1.211
	c0-0.504,0.238-0.904,0.715-1.2c0.475-0.295,1.174-0.443,2.098-0.443c0.793,0,1.477,0.076,2.055,0.228
	c0.576,0.151,1.217,0.421,1.924,0.811l0.691-1.405c-1.412-0.765-2.969-1.146-4.67-1.146c-0.635,0-1.223,0.076-1.764,0.228
	c-0.539,0.151-1.008,0.364-1.404,0.638s-0.711,0.605-0.941,0.994c-0.23,0.39-0.346,0.815-0.346,1.276
	c0,0.462,0.072,0.88,0.217,1.254c0.143,0.375,0.381,0.707,0.713,0.995s0.758,0.537,1.275,0.746c0.52,0.209,1.146,0.4,1.883,0.573
	l0.908,0.194c1.008,0.217,1.729,0.49,2.162,0.822c0.432,0.331,0.648,0.771,0.648,1.318c0,0.39-0.086,0.707-0.26,0.952
	c-0.172,0.245-0.414,0.436-0.725,0.573c-0.311,0.137-0.678,0.237-1.102,0.303c-0.426,0.064-0.877,0.097-1.352,0.097
	c-0.592,0-1.223-0.09-1.893-0.271c-0.67-0.18-1.352-0.479-2.045-0.897l-0.734,1.471c0.779,0.433,1.539,0.742,2.281,0.93
	s1.539,0.281,2.391,0.281c0.748,0,1.434-0.072,2.053-0.216c0.621-0.145,1.158-0.36,1.611-0.648c0.455-0.289,0.805-0.649,1.049-1.082
	c0.246-0.433,0.369-0.93,0.369-1.492c0-0.476-0.072-0.915-0.217-1.318C333.77,486.763,333.526,486.41,333.178,486.106z"/>
</svg>

