<?xml version="1.0" encoding="utf-8"?>
<!-- Generator: Adobe Illustrator 21.0.0, SVG Export Plug-In . SVG Version: 6.00 Build 0)  -->
<svg version="1.1" id="Layer_1" xmlns="http://www.w3.org/2000/svg" xmlns:xlink="http://www.w3.org/1999/xlink" x="0px" y="0px"
	 viewBox="0 0 800 500" style="enable-background:new 0 0 800 500;" xml:space="preserve">
<g>
	<path fill="#000000" d="M475,312.8c-0.1,0-0.2,0-0.3,0c-7,0.8-7.7,0.1-6.9-6.8c0.2-1.3,0.3-2.6,0.5-4.2c4.4,3,9.3,3.5,14.2,3.1
		c4.9-0.4,9.7-1.3,14.7-2c-1.3,5.1-3,10.4-4,15.9c-1.7,9.1,0.8,17.4,5.9,24.9c3,4.5,7.1,3.8,8.8-1.3c2.6-7.5,2.7-15.3,2-23.1
		c-0.5-5.4-1.7-10.8-2.7-16.8c8.1-1.5,16.6-3.2,25.6-4.9c0.5,1.6,0.9,2.9,1.3,4.3c-0.4,0.4-0.6,0.7-0.8,0.8
		c-5.4,0.8-6.5,4.3-6.8,9.1c-1,13.5,5,24.2,12.7,34.3c0.4,0.6,1.1,1,1.7,1.4c3.3,2.1,6.1,0.9,5.9-2.9c-0.1-4.6-0.5-9.3-1.7-13.8
		c-2.1-7.7-4.8-15.2-7.3-22.9c10,0.5,20.4,1,30.9,1.5c-0.7,3.6-2.8,5.4-6.5,5.6c-2.2,0.1-4.5,0.6-7.4,1c1,1.2,1.7,2,2.5,2.8
		c6.5,7,12,14.7,12.6,24.6c0.3,3.9-0.2,8.1-1.5,11.7c-3.8,10.6-15.8,14.2-24.9,7.1c-4.7-3.7-8.1-9.1-12-13.9c-1.5-1.8-2.4-4.1-4.1-7
		c0,6,0.3,11.2-0.1,16.3c-0.3,3.4-1.2,6.8-2.6,9.9c-1.7,3.9-5,5.3-9.1,4.1c-8.6-2.6-14.9-8.3-19.3-15.9c-2.6-4.4-4.4-9.3-6.4-13.8
		c-0.5,4.6-0.6,9.6-1.6,14.4c-0.9,4.7-2.2,9.5-4.2,13.8c-3.2,6.9-9.1,10.7-16.7,11c-6.1,0.2-12.4,0.2-18.4-0.8
		c-4.4-0.7-8.5-3.3-13.3-5.4c-15.7,5.5-32.3,11.2-47.8-2.8c-9.8,7.1-20.5,10-32.4,7.9c-1.4-0.2-2.9-0.6-3.9-1.4
		c-2.9-2.5-5.8-1.6-9.2-1c-4.7,0.9-9.7,1.2-14.4,0.5c-7.1-1-10-3.8-13.1-10.3c-2.4,2-4.7,4-7.1,5.9c-10.8,8.4-23.1,8-35.6,6
		c-4.1-0.7-8.1-2.2-12.1-3.4c-10.4-3.2-15.6-10.8-16.9-21.2c-0.6-5-0.4-10,1.8-15.7c1.3,3.1,2.3,5.4,3.2,7.8
		c3.6,9.7,11.2,14.1,20.8,15.8c3.7,0.7,7.2-0.6,9.8-3.3c2.5-2.6,5-5.5,6.6-8.7c5.3-10.2,9-21,11.2-32.3c0.6-3.2,0.6-6.8,0.1-10
		c-1.8-10.3-10.2-16-20.7-14.2c-2.8,0.5-5.6,1.5-8.3,2.5c-1.3,0.5-2.3,1.7-4.2,3.1c3.5,1,6.1,1.8,8.6,2.6c5.4,1.7,9.2,5,10.9,10.6
		c1.7,5.8,0.1,9-5.7,11c-5.8,2-11.7,1.8-17.6,0.9c-3.7-0.5-7.4-1.5-11-2.8c-5.4-2-7.4-5.9-6.5-11.6c1.7-11.6,9.5-19.6,21.8-21.7
		c11.9-2.1,23.6-0.8,34.6,4.2c12.7,5.9,18.8,16.3,19.4,30.2c0.3,7.8,0.6,15.6,1.4,23.3c0.3,3.1,1.8,6.2,3.3,9
		c1.9,3.6,5.2,5.3,9.4,5.4c3.9,0,6.7-1.8,7.8-5.6c2.4-8.3,3.1-16.6-1.5-24.5c-2.8-4.8-5.5-9.7-8.5-15c1.7,0,3.4,0,5,0
		c7.2-0.1,14.5,0,21.7-0.4c2.8-0.2,4.2,0.6,4.9,3.2c0.3,1.2,1,2.3,1.5,3.6c-5.2,0-10.1,0-15.8,0c5.1,12.7,10.1,25.2,15.2,37.6
		c1.5,3.7,4.3,5.5,8.5,5c3.7-0.5,7.4-0.6,11.6-0.9c-4.7-9.4-7.1-18.6-8.3-28.1c-1.1-9.6-0.9-19.1,3.7-27.9
		c6.3-12,17.2-17.2,29.9-19.2c8.5-1.3,17-1.8,25.3,1.2c9.7,3.5,15.6,10.1,17.1,20.5c0.8,5.5-1.2,9.3-6.3,11.4
		c-8.2,3.3-16.8,4.2-25.5,2.8c-3.8-0.6-8.2-1.6-9.3-5.9c-1.3-5,0.7-9.5,4.5-12.8c1.9-1.6,4.4-2.7,6.7-3.7c2.4-1,4.9-1.5,8.1-2.5
		c-1.3-1.2-2.1-2.3-3.1-2.8c-4.7-2.5-9.7-3.7-15-3c-9.1,1.2-15.1,7.1-15,16.3c0.1,17,5,32.6,15.4,46.2c3.5,4.6,8.6,6,14.2,5.2
		c10.1-1.4,16.7-7.1,20-16.7c0.6-1.8,1.3-3.5,2-5.3c0.3,0,0.6,0,0.9,0.1c0.4,3,0.9,6,1.3,9c0.7,6,3,11.3,7.3,15.6
		c4.3,4.4,8.2,3.9,10.1-1.8c2.1-6.5,3.5-13.3,4.7-20.1c1.4-8,2.1-16.1,3.3-24.1c0.3-1.9,0.9-3.8,1.4-5.6c0.2-0.1,0.3-0.3,0.5-0.4
		C475.6,312.8,475.3,312.8,475,312.8z"/>
	<path fill="#000000" d="M494.5,105.4c-1.7-1.5-2.4-2.4-3.4-3c-6.3-3.3-13-4.6-20.1-2.7c-8.2,2.2-13.2,9.2-13.2,18.6c0,10.6,2.9,20.7,6.3,30.7
		c1.5,4.4,3.3,8.7,5.7,12.7c8,13.7,17.7,16.4,32.9,6.7c4-2.6,6.6-6.5,8.4-10.9c1.2-2.9,2.3-5.8,3.8-9.4c2.4,6.4,2.7,12.2,1.8,18.1
		c-1.6,11.4-7.9,19.2-19.1,22.7c-9.4,2.9-18.8,5.6-28.9,4.2c-7.2-1-13.3-4.2-18.6-9.4c-6.5,6.6-15,8.2-23.6,9.6
		c-6.7,1.1-13.1,0-19-3.7c-1-0.6-2.6-0.7-3.7-0.4c-5.9,2.1-12,2.8-18.2,1.8c-7.4-1.2-11.9-4.6-15.2-11.8c-0.8,0.6-1.6,1.2-2.2,1.9
		c-10.6,10.7-23.6,14.1-38.1,12.1c-7.2-1-14.4-2.9-21.3-5.3c-12.4-4.3-18.9-16.7-17-31.2c0.3-2.6,1-5.2,2.2-7.9
		c1,2.6,2.2,5.1,3.1,7.7c3.8,10.5,12,15.5,22.4,17.4c5.8,1.1,10.3-1.9,13.9-6.1c6.2-7,9.9-15.5,12.4-24.4c2.1-7.7,4.2-15.5,4.7-23.4
		c1.1-18.3-13.6-23.7-26.3-20.3c-3.5,0.9-7.1,1.8-9.7,5.7c3.2,0.9,5.8,1.7,8.5,2.4c6.7,2,11.1,6.1,12.6,13c1.2,5.2-0.3,8.7-5.4,10.2
		c-4.5,1.3-9.3,2.2-14,1.9c-5.9-0.3-11.8-1.4-17.5-3.1c-6.8-2-9-6.1-8.1-13.1c1.5-12.3,10.7-21.5,24.4-23.8
		c12.2-2,24.2-0.7,35.6,4.1c14.5,6.1,21.9,17.3,22.6,33c0.4,8.5,0.6,17.1,1.4,25.6c0.3,3.3,1.9,6.6,3.3,9.8c1.4,3.2,4.1,5.3,7.5,6.2
		c5.3,1.5,9.9-0.9,11.4-6.2c2.7-10.1,3.5-20-2.8-29.3c-2.8-4.2-5.2-8.7-8-13.3c2.4,0,4.7,0,7,0c8.1-0.1,16.2-0.3,24.3-0.3
		c0.9,0,2.1,0.6,2.5,1.3c1.1,1.8,1.8,3.9,2.9,6.3c-5.7-0.3-11-0.6-16.5-0.9c3.7,11.7,7.4,23.3,11.1,34.8c0.4,1.2,1,2.4,1.6,3.6
		c4.8,9.4,11.5,12.4,21.8,9.7c2.2-0.6,3-1.7,2.2-4.1c-1.9-5.5-3.8-11-5.6-16.6c-3.3-10.3-4.2-20.8-2.2-31.4
		c2.5-13.1,9.8-22.8,22.3-27.9c13.1-5.4,26.8-7.1,40.6-3.1c12.1,3.4,20,13.7,20,25.1c0,4.6-1.9,8.1-6.1,9.8
		c-10.3,4.2-20.9,5.6-31.7,2.7c-7.1-1.9-9.1-6.1-6.7-13c2-5.8,6.2-9.2,12-10.9C488.2,107.1,490.8,106.4,494.5,105.4z"/>
	<path fill="#000000" d="M90.8,282.3c2.2,0.8,4.1,1.6,6.3,2.4c-1,2.8-3,3.6-5.3,3.6c-2.6,0.1-4.6-1.2-5.6-3.6c-1.6-3.7-0.4-8.8,2.8-11.6
		c2.9-2.6,6.6-2.7,10.5-0.4c5.6,3.3,8.3,11.1,6.8,20c-1.1,6.9-6,12.5-12.1,13.8c-6.2,1.3-11-1.5-14.9-5.9
		c-9.2-10.4-9.7-29.2-1.2-40.1c7-8.9,19.2-11.3,30.5-6c14.4,6.8,22.6,22.6,21.3,39.7c-1.1,13.9-6.8,26.2-12.5,38.6
		c-6.3,13.7-12.2,27.4-14.8,42.4c-2.4,14-1.8,27.8,4.1,41c3.6,8,8.8,14.3,17.5,17.2c9.8,3.3,19.3-0.2,24.6-9.1
		c1-1.7,1.7-3.5,2.4-5.3c1.9-4.4,2-8-1.6-12.3c-7.2-8.6-10.7-19-11.1-30.2c-0.1-2.7-0.6-6.1,2.6-7.4c3.3-1.3,5.8,1.1,7.8,3.5
		c4.8,5.9,7,12.9,8.4,20.2c0.9,4.6,0.8,9.5,1.4,14.2c0.2,1.5,0.9,3.3,2,4.3c5.2,4.6,11.3,7.5,18.6,8.1c2.4-10.3,7.8-17.6,18.9-19
		c6.6-0.8,12.3,1.9,16.7,7.9c-7.7,9.7-17.8,15.3-30.8,16.6c0.4,2.6,0.6,5.1,1.1,7.4c4.5,19.2,22.4,32,41.7,29.7
		c14.2-1.7,26.8-13.9,27.1-26.7c0.1-3.6-1-7.5-2.5-10.8c-1.8-4-6.6-5.4-9.9-3.9c-3.4,1.6-5.3,6.3-3.7,10.3c0.5,1.4,2.2,2.3,3.4,3.4
		c0.8-1.1,1.7-2.2,2.5-3.4c-0.2-0.2-0.4-0.3-0.6-0.5c1.3-0.5,2.6-1,4.1-1.7c1.7,2.9,1.4,5.6-0.5,8.1c-1.8,2.5-5.5,3.3-8.5,2
		c-3.6-1.5-5.1-4.4-5.8-8c-1.2-6.7,2-13.1,7.6-15.2c5.7-2.2,12.5,0.3,15.9,6.1c4.2,7.1,4.3,14.6,1.6,22.2
		c-5.1,14.3-21.5,24.7-36.9,23.6c-22.1-1.6-38.9-17.7-41.5-39.8c-0.3-2.2-0.8-3.3-3.3-3.7c-3.3-0.5-6.5-1.7-9.5-3
		c-3-1.3-5.8-3.3-8.9-5.1c-0.5,1.6-1,3.3-1.6,5c-7,20-29.7,25.4-45,10.6c-8.4-8.1-12.3-18.4-14-29.7c-2.9-18.8,1.1-36.6,8.1-53.9
		c5-12.3,10.8-24.3,15.6-36.7c4.1-10.5,5.8-21.6,2.1-32.7c-3.3-10.2-9.9-17.7-20.5-20.8c-10.8-3.2-19.7,1.4-23.6,11.9
		c-3.7,9.8-1.3,22.2,5.5,28.7c5.6,5.3,12.8,3.9,15.7-3.3c2.2-5.5,2.1-11.1-1.4-16.1c-1.3-1.9-3.3-3.5-5.8-2.3
		C90.8,277.8,90.3,280.1,90.8,282.3z M207.9,408.2c-3.7-3.1-8.2-3.7-13-1.7c-5.5,2.3-8.6,6.6-9.7,12.4
		C192,419.7,203.5,414.1,207.9,408.2z M144.2,375.1c-0.2,10.5,4.6,23.9,9.8,27.9C152.8,392.8,150.8,383.1,144.2,375.1z"/>
	<path fill="#000000" d="M611.9,424.9c-13.6-1.4-23.8-6.8-31.8-16.7c4.1-5.8,9.6-8.6,16.5-7.9c11.1,1.2,16.7,8.4,19.2,18.9c8-0.6,14.5-4.1,20.2-9.4
		c0.5-0.5,0.6-1.8,0.5-2.7c-0.3-9.9,1.8-19.4,5.9-28.3c1.4-3,3.4-5.8,5.8-8c1.4-1.3,4.3-2,6.1-1.4c1.2,0.4,2.2,3.3,2.3,5.1
		c0.2,13.1-4.4,24.5-12.7,34.5c-1.4,1.7-1.9,3.2-1.2,5.2c0.4,1.1,0.5,2.3,0.9,3.4c2.7,8.1,7.2,14.6,16.2,16.4
		c8.9,1.8,16.3-1.4,22.2-7.9c7.6-8.3,10.5-18.7,11.6-29.7c1.8-18.6-3.6-35.7-10.6-52.5c-5-11.9-10.6-23.7-14.8-35.9
		c-4.1-11.7-4.5-23.8,0.9-35.5c4.5-9.9,11.8-17.1,22.5-20c14-3.8,26.1,2.6,30.2,16.6c3.4,11.6,1.9,22.5-6.4,31.9
		c-3.8,4.3-8.6,6.7-14.5,5.2c-6.2-1.6-9.9-5.9-11.4-12.1c-1.6-6.7-1.1-13.1,3.2-18.8c3-3.9,8.2-5.4,11.8-3.7c3.7,1.7,5.9,6.4,5.3,11
		c-0.4,2.8-1.9,4.8-4.8,5.5c-2.6,0.6-4.7-0.3-6.8-3.3c2.1-0.9,4.1-1.7,6.3-2.6c0.6-2.3,0.1-5-2.5-5.6c-1.6-0.4-4.2,0.9-5.4,2.3
		c-4.4,5.2-3.6,15.4,1.3,20c3.3,3.1,7.5,3.5,11.2,0.8c5.6-4.1,8-10,8.7-16.7c0.9-7.2-0.4-13.8-4.9-19.6c-5.3-6.9-14.7-8.9-23.8-4.4
		c-12.4,6.1-18.1,16.5-18.6,30c-0.4,10.4,2.6,20.1,6.6,29.5c5.4,12.7,11.3,25.3,16,38.2c5.8,15.8,7.8,32.1,4.3,48.8
		c-2,9.6-5.7,18.5-12.8,25.4c-14.7,14.3-38.8,11.7-45.9-11.3c-0.4-1.2-0.8-2.5-1.3-4.1c-6.4,4.9-13.3,8.2-20.4,8.9
		c-1.9,6.2-3,12.3-5.5,17.7c-9.9,21.5-34.5,31-55.2,21.7c-13-5.9-21-17.9-20.6-31c0.1-5,1.5-9.6,4.9-13.4c4.7-5.4,12.7-6.1,17.8-1.8
		c5,4.4,5.9,13.5,1.8,18.6c-2.4,3-6.8,4-9.9,2.3c-3.2-1.8-4.3-5.4-2.7-9.8c2,0.8,4.6,0.5,4.5,4.1c-0.1,1.7,2.6,1.8,4.1,0.1
		c2.2-2.5,1.9-8-0.6-10.9c-2.4-2.7-6.4-3-9.7-0.5c-3.6,2.8-4.9,6.8-5,11.2c-0.3,12.4,6.5,20.5,16.8,25.9
		c17.1,8.9,39.2,1.1,48.4-17.3C608.7,436.5,609.9,430.9,611.9,424.9z M587,408.3c6.6,6.3,13.9,10.4,23.3,11
		c-1.2-6.1-4.1-10.3-9.4-12.6C596.2,404.6,591.7,404.9,587,408.3z M641.9,402.9c6.2-8.2,9.5-17.5,9.4-27.8
		C644.7,383.2,642.5,392.8,641.9,402.9z"/>
	<path fill="#000000" d="M96.7,216.1c-1.5,0.8-2.7,1.9-3.9,2c-2.8,0.2-3,1.6-2.2,3.7c0.9,2.2,2.2,4.1,4.9,2.6c1.5-0.8,3.1-2.2,3.9-3.7
		c2.8-5.4,2.6-10.9-0.4-16.1c-3.1-5.5-9.2-6.5-14-2.5c-6.4,5.4-8,12.8-7.9,20.7c0,1.8,0.3,3.7,0.7,5.4c3.4,14.1,15.3,19.8,28.4,13.6
		c12.3-5.8,19.5-20,18.2-34.8c-1.1-12-5.8-22.7-10.9-33.4c-6.5-13.5-13-27.1-16.4-41.8c-4-17.4-4.2-34.5,3.6-51
		c4.4-9.3,11-16.2,21.2-19.1c12.3-3.5,24,1.5,29.9,12.8c1.5,3,2.6,6.2,3.9,9.3c3.1-1.9,6.3-4.1,9.8-5.7c3.5-1.6,7.3-2.5,10.4-3.5
		c1.8-6.1,2.9-12.3,5.4-17.9c9.5-21.6,34.6-31.4,55.3-22.1c12.6,5.7,20.9,17.7,20.4,30.2c-0.2,6.2-1.8,12-7.3,15.9
		c-5.3,3.8-11.8,3.4-16-0.9c-4.4-4.5-5-13-1.3-17.7c2.7-3.5,7-4.4,10.4-2.4c3.2,2,4.1,5.5,2.3,9.4c-1.9-0.8-4.5-0.4-4.4-3.9
		c0.1-1.7-2.2-1.9-3.8-0.5c-2.1,2-2.4,6.9-0.5,10c1.7,2.9,5,4,8.2,2.7c4-1.5,5.8-4.8,6.6-8.6c2.2-10.1-1.6-18.1-9-24.5
		c-15.9-13.8-40.4-9.8-53,8.5c-3.9,5.6-6.3,11.8-7,18.6c-0.2,2.3,0.3,3.1,2.8,3.4c11.4,1.2,20.6,6.7,28,15.5
		c-4.2,5.9-9.9,8.9-17,8.1c-10.8-1.2-16.4-8.2-18.8-18.5c-8,0.8-14.6,4.5-20.2,10c-0.7,0.7-0.6,2.4-0.5,3.6
		c0.5,10.3-1.8,20-6.3,29.1c-1.2,2.5-3,4.9-5.1,6.6c-1.4,1.2-4.2,2-5.8,1.4c-1.3-0.5-2.3-3.3-2.4-5.1c-0.5-9.2,2-17.8,6.3-25.8
		c1.8-3.3,4.2-6.3,6.2-9.5c0.7-1.1,1-2.5,1-3.8c0-1.1-0.4-2.3-0.8-3.5c-2.8-8.6-7.5-15.6-17.1-17c-9.6-1.4-17.2,2.5-22.9,9.9
		c-6.2,7.9-8.8,17.2-9.8,27.1c-1.7,17.4,2.8,33.7,9.6,49.4c5.2,12.2,11.2,24.1,16.1,36.4c4.6,11.7,6.1,24,1.7,36.2
		c-4.1,11.4-11.6,19.7-23.5,23.2c-13.3,3.9-24.8-1.8-29.8-14.8c-4.5-11.7-1.6-26.6,6.9-34.6c7.7-7.3,19-5.3,23.4,4.4
		c2.9,6.3,3.1,12.9,0.1,19.2c-1.1,2.2-3,4.3-5,5.8c-3.6,2.6-7.6,2.4-10.5,0c-3.3-2.8-4.9-7.8-3-11.4c0.8-1.6,2.8-3.1,4.5-3.6
		C92.7,212.4,95.1,213.3,96.7,216.1z M182.6,79.8c1.2,6.1,4.2,10.2,9.5,12.5c4.8,2.1,9.4,1.6,13.9-1.9
		C199.4,84.1,192,80.5,182.6,79.8z M151.2,97.3c-6,8.2-9.2,17.3-8.8,27.6C148.7,116.8,150.8,107.3,151.2,97.3z"/>
	<path fill="#000000" d="M618.3,79.9c-2.4,10.4-8.1,17.3-19,18.7c-6.3,0.8-12.6-2.4-16.7-8.3c8-9.6,18.2-14.9,30.9-15.9c-0.2-9.2-3.4-17.1-8.9-24
		c-12.4-15.4-33.6-18.9-48.7-8.1c-9.3,6.6-13.7,16.7-11.5,26.3c0.9,4.1,2.8,7.5,7.1,9c3.1,1,6.2-0.2,7.8-3c1.9-3.2,1.7-8.2-0.6-10
		c-0.7-0.5-2.2-1.1-2.5-0.8c-0.8,0.9-1.2,2.2-2.1,4c-0.6,0.2-2,0.7-3.4,1.2c-1.7-3.8-1-7.3,1.9-9.3c2.8-2,6.8-1.6,9.6,1
		c4.9,4.5,4.7,14-0.4,19.1c-5,4.9-13.4,4.4-18.1-1.4c-6.3-7.8-6.3-16.6-2.8-25.4c5.6-14.2,20.9-22.8,37.9-21.9
		c19.3,1.1,37.6,18.5,39.7,38.1c0.2,1.7,0.3,3.4,0.5,5.5c7.8,1.1,14.8,4.2,21.1,9.6c0.8-2.3,1.4-4.3,2.2-6.2
		c7.4-18,26.9-23.1,42.1-10.9c9.6,7.7,13.8,18.4,15.8,30c3.2,18.6-0.5,36.4-7.7,53.5c-4.9,11.9-10.7,23.4-15.8,35.2
		c-4.2,9.7-6.7,19.9-5.1,30.6c1.9,12.3,8.2,21.6,20,26.3c11.4,4.6,21.8-0.3,25.6-12c3-9.5,2-18.7-4.4-26.6c-2.4-3-5.5-5.4-9.8-4.3
		c-4.6,1.2-7,4.5-7.9,9C693.8,214,694,219,698,223c1.1,1.1,3.2,1.8,4.6,1.5c1.1-0.3,2.1-2.3,2.6-3.7c0.5-1.2,0.2-2.4-1.8-2.6
		c-1.5-0.2-2.9-1.2-4.6-1.9c1.2-2.7,3.4-3.9,5.8-3.2c1.9,0.6,4.2,2,5.1,3.7c2,3.7,0.3,8.8-3.2,11.6c-2.8,2.3-7,2.4-10.5-0.3
		c-6.9-5.2-7.5-12.5-6.2-20.2c1.2-7,6.1-12.4,12.6-13.1c3-0.3,6.5,0.5,9.2,1.8c4.5,2.2,7.4,6.3,9.3,10.9c3.4,8.3,4,16.8,1,25.4
		c-4.9,14.1-18.7,20.2-32.8,14.5c-13.7-5.5-22.9-19.7-23.2-35.7c-0.2-12.1,3.6-23.1,8.4-34c5.8-13,11.9-25.9,16.8-39.3
		c5.9-16.5,7.1-33.6,1.1-50.6c-3-8.5-7.6-15.8-16.2-19.8c-11.1-5.2-22.2-1.6-27.9,9.1c-0.6,1.1-1,2.4-1.6,3.5
		c-2.1,4.5-2.1,8.3,1.4,12.6c6.9,8.6,10.2,19,10.6,30.1c0.1,2.8,0.6,6.4-2.8,7.6c-3.3,1.2-5.8-1.3-7.7-3.7c-4.9-6.3-7-13.9-8.3-21.6
		c-0.7-4.2-0.5-8.6-0.9-12.9c-0.1-1.4-0.7-3.2-1.8-4.1C631.9,84,625.8,80.9,618.3,79.9z M612.8,79.8c-9.3,0.7-16.8,4.3-23.4,10.7
		c4.5,3.5,9,3.9,13.9,1.9C608.7,90,611.6,85.8,612.8,79.8z M644.2,97.2c0.4,10,2.4,19.6,8.8,27.7
		C653.5,114.6,650.1,105.5,644.2,97.2z"/>
	<path fill="#000000" d="M267.1,273.4c-2.3-0.5-4.7-0.8-6.8-1.6c-7.3-3-10.2-9-7.7-16.5c2.4-7.4,7.8-12.6,13.7-17.2c2.3-1.8,5.5-0.2,6.4,2.6
		c0.4,1.2,1.1,2.4,1.9,3.5c2.1,3,4.8,5.6,6.5,8.8c5.1,9.7-0.2,19-11.2,20c-0.9,0.1-1.7,0-2.6,0C267.1,273.1,267.1,273.2,267.1,273.4
		z M267.2,247.6c-1.5,1.8-2.6,2.9-3.5,4c-0.9,1.1-1.6,2.3-2.3,3.5c-3.4,5.8-1.2,9.7,5.5,9.9c1.4,0.1,2.8-0.2,4.1-0.6
		c4-1.2,5.3-3.7,3.2-7.3C272.3,253.9,269.7,251.1,267.2,247.6z"/>
	<path fill="#000000" d="M313.6,82.9c-5.7-0.2-10.6-1.7-13.4-6.7c-2.9-5.1-1.8-10.2,1.4-14.6c2.9-4,6.4-7.5,10-11c2.3-2.3,5.5-1.2,6.9,1.7
		c0.8,1.7,1.9,3.3,2.9,4.8c1.2,1.7,2.7,3.1,3.7,4.9c2.8,4.5,4.4,9.3,1.6,14.4C323.8,81.5,318.8,82.7,313.6,82.9z M313.1,59.5
		c-1.9,2.5-3.5,3.9-4.3,5.7c-0.9,2.2-2.3,5.6-1.4,7c1.2,1.7,4.6,1.9,7.1,2.5c0.8,0.2,1.9-0.3,2.8-0.6c2.5-1,3.6-3,2.1-5.4
		C317.7,65.8,315.6,63,313.1,59.5z"/>
	<path fill="#000000" d="M361.3,238.4c3.6-1.1,7.1-2.1,10.6-3.3c1.8-0.6,3.5-1.8,5.3-2.7c-0.1-0.4-0.2-0.8-0.3-1.1c-1.8-0.9-3.7-1.7-5.5-2.6
		c-3.1-1.5-5.4-3.7-5.3-7.4c0.1-3.6,2.6-5.3,5.4-6.7c4.9-2.4,10-2.7,15.1-1.1c5.7,1.8,8.4,8.1,5.6,14.4c-1.4,3.1-4.1,6.3-7,8.1
		c-7.2,4.6-15.4,4.6-23.6,3.6C361.6,239.2,361.4,238.8,361.3,238.4z"/>
	<path fill="#000000" d="M395.3,213.1c9-1.1,18-1,25.7,4.9c2.5,2,4.7,5.3,5.4,8.4c2,7.9-1.8,12.6-9.9,13.5c-4.4,0.5-8.6-0.2-12.4-2.5
		c-5.5-3.4-5.6-9.2-0.2-12.7c1.5-1,3.3-1.7,4.9-2.4c2.4-1,2-2.4,0.3-3.4c-1.1-0.7-2.6-0.9-3.9-1.3c-3.4-1.1-6.8-2.3-10.2-3.4
		C395.1,213.8,395.2,213.4,395.3,213.1z"/>
	<path fill="#000000" d="M334.4,398.3c8-0.9,15.6-0.8,22.5,3.7c1.9,1.3,3.7,3.1,4.8,5.1c4.7,8,0.2,16-9.1,15.8c-3.3-0.1-6.9-0.7-9.9-2.2
		c-5.6-2.7-5.5-8.7-0.1-11.9c1.8-1.1,3.8-1.9,6.2-3C345.1,400.7,338,403.2,334.4,398.3z"/>
	<path fill="#000000" d="M303.3,421.5c3.2-1,6.5-2,9.7-3.1c1.7-0.6,3.2-1.5,4.8-2.3c-0.1-0.4-0.2-0.7-0.2-1.1c-1.7-0.8-3.4-1.6-5.1-2.5
		c-2.7-1.4-4.8-3.4-4.7-6.8c0.1-3.2,2.3-4.8,4.8-6c4.3-2.2,8.9-2.5,13.6-1.2c6.5,1.8,8.6,10,4.2,16.3c-4,5.6-9.9,7.4-16.3,8
		c-3.4,0.3-6.9,0.1-10.4,0.1C303.4,422.4,303.4,422,303.3,421.5z"/>
	<path fill="#000000" d="M411.3,404.5c-2.2-0.2-6.1-0.6-9.9-1.1c-2.5-0.3-4.4-1.3-4-4.4c0.3-2.5,2.4-3.9,5.2-3.5c8.7,1.3,17.5,1.9,26-0.5
		c4.1-1.2,8.1-3,12-4.8c3-1.4,4.8-1.2,6.1,1.1c1.3,2.3,0.7,4.3-2,5.9C434.9,402.9,424.2,404.9,411.3,404.5z"/>
	<path fill="#000000" d="M505.9,285c-2.6,0.1-4.4-0.6-4.6-3.4c-0.2-2.7,1.2-4.2,4.2-4.7c6-1,12.2-1.9,18.1-3.4c6.7-1.7,12.4-5.5,17.5-10.2
		c2.6-2.4,4.5-2.6,6.4-0.6c1.9,1.9,1.6,4-0.9,6.4c-8.8,8.5-19.6,12.8-31.5,14.8C512.1,284.4,508.9,284.7,505.9,285z"/>
	<path fill="#000000" d="M480.4,212.8c-1.7-0.1-3.2-1.1-3.3-3.5c-0.1-2.6,1.1-4.1,3.6-4.5c3.5-0.5,7.1-0.8,10.6-1.4c8.4-1.6,16.1-5.1,22.3-11.2
		c2-2,4-2.5,6.2-0.5c2,1.8,1.7,4.1-0.7,6.4c-9.5,9.1-21.3,12.9-34,14.3C483.7,212.6,482.3,212.7,480.4,212.8z"/>
	<path fill="#000000" d="M641.9,402.9c0.6-10.1,2.8-19.7,9.4-27.8C651.4,385.5,648.1,394.7,641.9,402.9z"/>
</g>
<path class="af" fill="#000000" d="M273.602,481.306c-0.578-0.576-1.301-1.03-2.174-1.362c-0.873-0.331-1.885-0.497-3.039-0.497
	c-0.663,0-1.463,0.079-2.4,0.238v-6.077h-1.535v17.711c0.706,0.202,1.402,0.354,2.087,0.454s1.301,0.151,1.849,0.151
	c1.153,0,2.166-0.162,3.039-0.486s1.596-0.764,2.174-1.319c0.576-0.555,1.006-1.211,1.287-1.968s0.42-1.561,0.42-2.411
	s-0.139-1.657-0.42-2.422C274.608,482.554,274.178,481.883,273.602,481.306z M272.391,489.167c-0.852,0.829-2.17,1.243-3.958,1.243
	c-0.39,0-0.805-0.032-1.244-0.097c-0.439-0.065-0.84-0.134-1.2-0.206v-8.845c0.447-0.115,0.887-0.194,1.319-0.237
	c0.433-0.044,0.808-0.065,1.125-0.065c0.894,0,1.668,0.112,2.325,0.335c0.656,0.224,1.199,0.545,1.633,0.963
	c0.432,0.418,0.752,0.919,0.961,1.503s0.314,1.243,0.314,1.979C273.667,487.195,273.241,488.338,272.391,489.167z M247.392,479.446
	c-0.62,0-1.297,0.079-2.033,0.238c-0.735,0.158-1.485,0.433-2.249,0.821l-0.065,1.73c0.548-0.303,0.973-0.52,1.276-0.649
	s0.624-0.237,0.962-0.324c0.338-0.086,0.677-0.158,1.016-0.216s0.667-0.087,0.984-0.087c1.139,0,1.982,0.249,2.53,0.746
	s0.822,1.33,0.822,2.498v0.13c-0.332-0.044-0.732-0.087-1.2-0.13c-0.469-0.043-0.876-0.065-1.222-0.065
	c-1.831,0-3.302,0.311-4.412,0.931c-1.11,0.619-1.665,1.644-1.665,3.07c0,0.707,0.155,1.305,0.465,1.795
	c0.31,0.49,0.713,0.88,1.211,1.168s1.067,0.497,1.708,0.627c0.641,0.13,1.308,0.194,2,0.194c0.807,0,1.6-0.072,2.378-0.216
	c0.779-0.145,1.536-0.368,2.271-0.671v-7.028c0-1.585-0.397-2.742-1.189-3.471C250.189,479.811,248.992,479.446,247.392,479.446z
	 M250.636,489.892c-0.375,0.144-0.858,0.267-1.449,0.367c-0.591,0.102-1.183,0.151-1.773,0.151c-0.505,0-0.984-0.035-1.438-0.108
	c-0.454-0.071-0.84-0.197-1.157-0.378c-0.317-0.18-0.57-0.414-0.757-0.703c-0.188-0.288-0.281-0.663-0.281-1.124
	c0-0.52,0.111-0.934,0.335-1.244c0.224-0.31,0.533-0.551,0.93-0.724c0.396-0.174,0.85-0.296,1.362-0.368
	c0.511-0.072,1.041-0.108,1.589-0.108c0.476,0,0.984,0.029,1.524,0.087c0.541,0.058,0.912,0.108,1.114,0.151V489.892z
	 M258.032,479.868c-0.649,0.122-1.276,0.263-1.881,0.422v11.418h1.535v-10.186c0.202-0.072,0.563-0.147,1.082-0.228
	c0.519-0.079,1.002-0.118,1.449-0.118h1.989v-1.492H260C259.336,479.685,258.681,479.746,258.032,479.868z M-77.92,487.667
	l241.145,0.656l0.663-0.433l-0.632-0.564L-77.92,487.667z M164.994,487.825l1.95,1.95l1.95-1.95l-1.95-1.95L164.994,487.825z
	 M169.559,487.825l3.057,3.057l3.057-3.057l-3.057-3.057L169.559,487.825z M212.359,489.286l-3.395-9.602h-1.514l-3.396,9.602
	l-2.984-9.602h-1.73l3.979,12.023h1.428l3.46-9.645l3.46,9.645h1.427l3.979-12.023h-1.73L212.359,489.286z M238.418,489.589
	c-0.317,0-0.591,0.115-0.822,0.346c-0.231,0.23-0.346,0.505-0.346,0.822c0,0.316,0.115,0.591,0.346,0.821
	c0.23,0.23,0.504,0.346,0.822,0.346c0.317,0,0.591-0.115,0.822-0.346c0.23-0.23,0.346-0.505,0.346-0.821
	c0-0.317-0.116-0.592-0.346-0.822C239.009,489.704,238.735,489.589,238.418,489.589z M193.243,489.286l-3.395-9.602h-1.514
	l-3.396,9.602l-2.984-9.602h-1.73l3.979,12.023h1.428l3.46-9.645l3.46,9.645h1.427l3.979-12.023h-1.73L193.243,489.286z
	 M231.476,489.286l-3.395-9.602h-1.514l-3.396,9.602l-2.984-9.602h-1.73l3.979,12.023h1.428l3.46-9.645l3.46,9.645h1.427
	l3.979-12.023h-1.73L231.476,489.286z M382.732,480.474c-0.426-0.396-0.938-0.667-1.535-0.812c-0.598-0.144-1.271-0.216-2.021-0.216
	c-0.664,0-1.393,0.09-2.184,0.271c-0.793,0.181-1.471,0.4-2.033,0.659c-0.346-0.331-0.818-0.569-1.416-0.714
	c-0.6-0.144-1.273-0.216-2.023-0.216c-0.635,0-1.268,0.058-1.902,0.173l-2.465,0.454v11.635h1.535v-10.38
	c0.447-0.102,0.883-0.188,1.309-0.26c0.424-0.072,0.896-0.108,1.416-0.108c0.605,0,1.125,0.058,1.557,0.173
	c0.434,0.116,0.789,0.321,1.07,0.616c0.281,0.296,0.494,0.711,0.639,1.244s0.217,1.24,0.217,2.119v6.596h1.535v-7.201
	c0-0.663-0.055-1.243-0.162-1.741c-0.109-0.497-0.213-0.861-0.314-1.092c0.086-0.043,0.281-0.119,0.584-0.228
	c0.303-0.107,0.602-0.197,0.898-0.27c0.295-0.072,0.586-0.126,0.875-0.162s0.547-0.055,0.779-0.055c0.59,0,1.102,0.058,1.535,0.173
	c0.432,0.116,0.781,0.317,1.049,0.605c0.266,0.289,0.471,0.703,0.615,1.244c0.145,0.54,0.217,1.251,0.217,2.13v6.596h1.535v-7.201
	c0-0.995-0.111-1.816-0.336-2.466C383.482,481.393,383.158,480.87,382.732,480.474z M280.1,474.581
	c-0.785,0.648-1.18,1.729-1.18,3.243v1.86h-2.551v1.492h2.551v10.531h1.537v-10.531h4.973v-1.492h-4.973v-1.471
	c0-0.635,0.045-1.149,0.141-1.546c0.094-0.396,0.24-0.707,0.443-0.931c0.201-0.223,0.475-0.385,0.82-0.486
	c0.346-0.101,0.779-0.151,1.299-0.151h2.422v-1.492h-2.271C281.956,473.607,280.885,473.932,280.1,474.581z M398.273,487.825
	l3.057,3.057l3.057-3.057l-3.057-3.057L398.273,487.825z M343.322,482.322c0.389-0.418,0.854-0.749,1.395-0.994
	s1.135-0.368,1.783-0.368c0.736,0,1.373,0.076,1.914,0.228s1.121,0.414,1.74,0.789l0.715-1.405c-0.707-0.39-1.393-0.674-2.055-0.854
	c-0.664-0.181-1.436-0.271-2.314-0.271c-0.85,0-1.639,0.155-2.367,0.465c-0.729,0.311-1.367,0.746-1.914,1.309
	c-0.549,0.563-0.98,1.222-1.297,1.979c-0.317,0.757-0.476,1.59-0.476,2.498s0.158,1.74,0.476,2.497
	c0.316,0.757,0.748,1.413,1.297,1.969c0.547,0.555,1.186,0.987,1.914,1.297c0.729,0.311,1.518,0.465,2.367,0.465
	c0.879,0,1.65-0.09,2.314-0.27c0.662-0.181,1.348-0.466,2.055-0.854l-0.715-1.406c-0.619,0.375-1.199,0.639-1.74,0.79
	s-1.178,0.227-1.914,0.227c-0.648,0-1.242-0.119-1.783-0.356c-0.541-0.238-1.006-0.565-1.395-0.984
	c-0.391-0.418-0.693-0.915-0.908-1.492c-0.217-0.576-0.324-1.203-0.324-1.881s0.107-1.305,0.324-1.882
	C342.628,483.238,342.931,482.741,343.322,482.322z M404.387,487.825l1.949,1.95l1.951-1.95l-1.951-1.95L404.387,487.825z
	 M410.701,487.326l-0.664,0.433l0.633,0.564l241.176-0.341L410.701,487.326z M362.611,481.295c-0.549-0.569-1.193-1.02-1.936-1.352
	c-0.742-0.331-1.547-0.497-2.412-0.497c-0.863,0-1.668,0.166-2.41,0.497c-0.742,0.332-1.389,0.782-1.936,1.352
	c-0.549,0.57-0.977,1.229-1.287,1.979c-0.311,0.749-0.465,1.557-0.465,2.422s0.154,1.672,0.465,2.422s0.738,1.409,1.287,1.979
	c0.547,0.569,1.193,1.017,1.936,1.341s1.547,0.486,2.41,0.486c0.865,0,1.67-0.162,2.412-0.486s1.387-0.771,1.936-1.341
	c0.547-0.569,0.977-1.229,1.287-1.979c0.309-0.75,0.465-1.557,0.465-2.422s-0.156-1.673-0.465-2.422
	C363.587,482.524,363.158,481.865,362.611,481.295z M362.394,487.523c-0.217,0.569-0.52,1.067-0.908,1.492
	c-0.389,0.426-0.857,0.765-1.406,1.017c-0.547,0.252-1.152,0.378-1.816,0.378c-0.662,0-1.268-0.126-1.816-0.378
	c-0.547-0.252-1.016-0.591-1.404-1.017c-0.391-0.425-0.693-0.923-0.908-1.492c-0.217-0.569-0.324-1.179-0.324-1.827
	c0-0.649,0.107-1.262,0.324-1.839c0.215-0.576,0.518-1.077,0.908-1.503c0.389-0.425,0.857-0.764,1.404-1.016
	c0.549-0.252,1.154-0.379,1.816-0.379c0.664,0,1.27,0.127,1.816,0.379c0.549,0.252,1.018,0.591,1.406,1.016
	c0.389,0.426,0.691,0.927,0.908,1.503c0.217,0.577,0.324,1.189,0.324,1.839C362.718,486.345,362.611,486.954,362.394,487.523z
	 M296.221,481.295c-0.547-0.569-1.191-1.02-1.936-1.352c-0.742-0.331-1.545-0.497-2.41-0.497s-1.67,0.166-2.412,0.497
	c-0.742,0.332-1.387,0.782-1.936,1.352c-0.547,0.57-0.977,1.229-1.285,1.979c-0.311,0.749-0.465,1.557-0.465,2.422
	s0.154,1.672,0.465,2.422c0.309,0.75,0.738,1.409,1.285,1.979c0.549,0.569,1.193,1.017,1.936,1.341s1.547,0.486,2.412,0.486
	s1.668-0.162,2.41-0.486c0.744-0.324,1.389-0.771,1.936-1.341c0.549-0.569,0.977-1.229,1.287-1.979s0.465-1.557,0.465-2.422
	s-0.154-1.673-0.465-2.422C297.198,482.524,296.77,481.865,296.221,481.295z M296.006,487.523c-0.217,0.569-0.52,1.067-0.908,1.492
	c-0.391,0.426-0.859,0.765-1.406,1.017c-0.549,0.252-1.154,0.378-1.816,0.378c-0.664,0-1.27-0.126-1.816-0.378
	c-0.549-0.252-1.018-0.591-1.406-1.017c-0.389-0.425-0.691-0.923-0.908-1.492s-0.324-1.179-0.324-1.827
	c0-0.649,0.107-1.262,0.324-1.839c0.217-0.576,0.52-1.077,0.908-1.503c0.389-0.425,0.857-0.764,1.406-1.016
	c0.547-0.252,1.152-0.379,1.816-0.379c0.662,0,1.268,0.127,1.816,0.379c0.547,0.252,1.016,0.591,1.406,1.016
	c0.389,0.426,0.691,0.927,0.908,1.503c0.215,0.577,0.324,1.189,0.324,1.839C296.331,486.345,296.221,486.954,296.006,487.523z
	 M309.381,480.463c-0.455-0.39-0.996-0.656-1.623-0.801c-0.627-0.144-1.309-0.216-2.043-0.216c-0.707,0-1.465,0.047-2.271,0.141
	s-1.701,0.234-2.682,0.422v11.699h1.535v-10.402c1.184-0.23,2.293-0.346,3.33-0.346c0.592,0,1.111,0.062,1.559,0.184
	c0.445,0.123,0.818,0.332,1.113,0.628c0.295,0.295,0.525,0.713,0.691,1.254s0.25,1.251,0.25,2.13v6.553h1.535v-7.201
	c0-0.995-0.119-1.82-0.357-2.477C310.18,481.375,309.834,480.852,309.381,480.463z M318.516,490.054
	c-0.346-0.108-0.619-0.277-0.82-0.509c-0.203-0.23-0.35-0.547-0.443-0.951c-0.096-0.403-0.141-0.922-0.141-1.557v-5.86h4.973v-1.492
	h-4.973v-4.347h-1.537v4.347h-2.551v1.492h2.551v6.466c0,0.764,0.109,1.405,0.326,1.925c0.215,0.519,0.525,0.937,0.93,1.254
	c0.402,0.317,0.867,0.544,1.395,0.682c0.525,0.137,1.105,0.205,1.74,0.205h2.271v-1.492h-2.422
	C319.295,490.216,318.862,490.162,318.516,490.054z M337.784,489.589c-0.316,0-0.59,0.115-0.82,0.346s-0.346,0.505-0.346,0.822
	c0,0.316,0.115,0.591,0.346,0.821s0.504,0.346,0.82,0.346c0.318,0,0.592-0.115,0.822-0.346s0.346-0.505,0.346-0.821
	c0-0.317-0.115-0.592-0.346-0.822S338.102,489.589,337.784,489.589z M333.178,486.106c-0.346-0.303-0.785-0.565-1.318-0.789
	c-0.533-0.223-1.182-0.422-1.947-0.595l-0.799-0.173c-1.053-0.216-1.781-0.461-2.184-0.735c-0.404-0.273-0.607-0.678-0.607-1.211
	c0-0.504,0.238-0.904,0.715-1.2c0.475-0.295,1.174-0.443,2.098-0.443c0.793,0,1.477,0.076,2.055,0.228
	c0.576,0.151,1.217,0.421,1.924,0.811l0.691-1.405c-1.412-0.765-2.969-1.146-4.67-1.146c-0.635,0-1.223,0.076-1.764,0.228
	c-0.539,0.151-1.008,0.364-1.404,0.638s-0.711,0.605-0.941,0.994c-0.23,0.39-0.346,0.815-0.346,1.276
	c0,0.462,0.072,0.88,0.217,1.254c0.143,0.375,0.381,0.707,0.713,0.995s0.758,0.537,1.275,0.746c0.52,0.209,1.146,0.4,1.883,0.573
	l0.908,0.194c1.008,0.217,1.729,0.49,2.162,0.822c0.432,0.331,0.648,0.771,0.648,1.318c0,0.39-0.086,0.707-0.26,0.952
	c-0.172,0.245-0.414,0.436-0.725,0.573c-0.311,0.137-0.678,0.237-1.102,0.303c-0.426,0.064-0.877,0.097-1.352,0.097
	c-0.592,0-1.223-0.09-1.893-0.271c-0.67-0.18-1.352-0.479-2.045-0.897l-0.734,1.471c0.779,0.433,1.539,0.742,2.281,0.93
	s1.539,0.281,2.391,0.281c0.748,0,1.434-0.072,2.053-0.216c0.621-0.145,1.158-0.36,1.611-0.648c0.455-0.289,0.805-0.649,1.049-1.082
	c0.246-0.433,0.369-0.93,0.369-1.492c0-0.476-0.072-0.915-0.217-1.318C333.77,486.763,333.526,486.41,333.178,486.106z"/>
</svg>

