<?xml version="1.0" encoding="utf-8"?>
<!-- Generator: Adobe Illustrator 23.0.0, SVG Export Plug-In . SVG Version: 6.00 Build 0)  -->
<svg version="1.1" id="Layer_1" xmlns="http://www.w3.org/2000/svg" xmlns:xlink="http://www.w3.org/1999/xlink" x="0px" y="0px"
	 viewBox="0 0 800 500" style="enable-background:new 0 0 800 500;" xml:space="preserve">
<g>
	<g>
		<path fill="#000000" d="M396.89,65.36c0.22,1.72,1.44,3.03,2.7,4.05c1.3,1.01,2.8,1.75,4.35,2.17c1.54,0.41,3.16,0.46,4.57,0.01
			c1.41-0.42,2.62-1.41,3.36-2.58c1.53-2.39,1.22-5.54-0.25-7.82c-1.46-2.33-3.99-3.88-6.8-4.62c-1.41-0.38-2.89-0.58-4.41-0.63
			c-0.75-0.03-1.54-0.01-2.28,0.02c-0.48,0.02-0.69,0.05-1.09,0.09c-0.36,0.04-0.72,0.09-1.07,0.16c-2.83,0.51-5.4,1.76-7.36,3.64
			c-1.94,1.88-3.3,4.35-3.76,6.99c-0.48,2.64-0.13,5.41,1.02,7.88c0.28,0.62,0.61,1.23,0.98,1.81l0.13,0.2l0.17,0.25l0.27,0.38
			c0.2,0.27,0.42,0.54,0.64,0.8c0.9,1.05,1.99,2,3.18,2.84c2.37,1.71,5.15,2.93,8.04,3.63c2.89,0.71,5.91,0.81,8.81,0.32
			c2.9-0.51,5.68-1.67,8.15-3.42c4.98-3.48,8.54-9.15,10.96-15.25c2.49-6.14,3.86-12.81,4.98-19.55c0.42,6.83-0.03,13.78-1.74,20.61
			c-0.88,3.4-2.11,6.77-3.88,9.95c-1.75,3.17-4.06,6.16-7,8.57c-2.92,2.42-6.46,4.22-10.23,5.08c-3.76,0.9-7.71,0.87-11.46,0.13
			c-3.76-0.76-7.35-2.26-10.57-4.44c-1.6-1.11-3.1-2.4-4.44-3.92c-0.33-0.38-0.66-0.77-0.97-1.18c-0.15-0.2-0.31-0.42-0.48-0.65
			l-0.41-0.61c-0.54-0.85-1.04-1.74-1.46-2.67c-1.69-3.71-2.25-8.01-1.42-12.06c0.83-4.04,2.97-7.81,6.06-10.51
			c3.07-2.73,7-4.35,10.9-4.78c0.49-0.06,0.98-0.1,1.46-0.12c0.45-0.03,1.09-0.04,1.46-0.03c0.96,0.01,1.88,0.08,2.82,0.19
			c1.87,0.22,3.76,0.62,5.59,1.3c1.82,0.68,3.59,1.63,5.14,2.91c1.55,1.28,2.86,2.91,3.72,4.75c0.87,1.85,1.26,3.93,1.07,5.96
			c-0.19,2.03-1.02,4.01-2.36,5.51c-0.67,0.75-1.45,1.37-2.32,1.86c-0.24,0.14-0.44,0.23-0.63,0.32c-0.26,0.13-0.46,0.21-0.69,0.3
			c-0.46,0.17-0.93,0.3-1.41,0.39c-1.91,0.35-3.81,0.02-5.49-0.64c-1.68-0.67-3.18-1.68-4.4-2.95
			C397.9,68.71,396.82,67.11,396.89,65.36z"/>
	</g>
	<g>
		<path fill="#000000" d="M441.26,53.01c-3.39,3.16-5.24,7.35-6.95,11.48c-1.64,4.2-3.01,8.52-4.33,12.88c-1.32,4.37-2.69,8.74-4.12,13.15
			c-1.49,4.39-3.16,8.76-5.21,13.08c-1.02,2.16-2.21,4.28-3.58,6.33c-1.37,2.05-2.93,4.05-4.81,5.87c-1.88,1.8-4.1,3.44-6.67,4.52
			c-0.64,0.27-1.3,0.5-1.97,0.7c-0.36,0.11-0.61,0.17-1.08,0.29c-0.29,0.06-0.51,0.12-0.94,0.19c-1.48,0.27-2.91,0.33-4.4,0.19
			c-2.97-0.28-5.83-1.54-8.03-3.32c-2.23-1.77-3.92-3.94-5.21-6.24c-1.3-2.3-2.23-4.74-2.81-7.28c-0.55-2.55-0.82-5.19-0.42-8.01
			l0.01-0.07c0.25-1.75,1.86-2.97,3.62-2.73c1.62,0.23,2.79,1.63,2.75,3.23c-0.06,3.65-0.7,7.17-1.67,10.54
			c-0.97,3.37-2.3,6.61-3.93,9.66c-1.62,3.06-3.51,5.96-5.64,8.67c-2.13,2.71-4.53,5.23-7.22,7.41c-2.68,2.19-5.63,4.1-8.83,5.49
			c-3.2,1.38-6.7,2.18-10.19,2.19c-3.5,0.03-6.94-0.84-9.98-2.35c-3.05-1.49-5.7-3.63-7.96-6.02c2.62,2.01,5.48,3.66,8.5,4.72
			c3.03,1.05,6.22,1.41,9.3,1.09c3.09-0.32,6.06-1.37,8.78-2.83c2.73-1.46,5.23-3.37,7.48-5.54c4.46-4.37,8.13-9.62,10.71-15.31
			c2.56-5.67,4.33-11.79,4.23-17.71l6.38,0.43c-0.2,1.73,0.02,3.72,0.51,5.62c0.49,1.91,1.22,3.79,2.21,5.46
			c1.95,3.38,4.91,5.8,8.08,6.05c0.79,0.07,1.66,0.03,2.44-0.12c0.13-0.02,0.47-0.1,0.74-0.16l0.58-0.17
			c0.43-0.13,0.85-0.29,1.26-0.46c1.65-0.71,3.23-1.75,4.67-3.1c2.91-2.69,5.2-6.38,7.3-10.2c2.1-3.85,3.88-7.98,5.63-12.15
			c1.8-4.16,3.45-8.44,5.29-12.66c1.85-4.22,3.76-8.47,6.16-12.5c1.18-2.02,2.5-3.98,4.02-5.77
			C437.46,55.75,439.23,54.12,441.26,53.01z"/>
	</g>
	<g>
		<path fill="#000000" d="M335.08,94.93c-0.3-1.09-0.38-2.29-0.07-3.45c0.3-1.15,1-2.23,1.96-3.02c1.92-1.58,4.76-2,7.18-0.98
			c1.21,0.5,2.29,1.36,3.07,2.43c0.78,1.06,1.31,2.25,1.62,3.54c0.61,2.59,0.06,5.34-1.11,7.62c-1.17,2.3-2.93,4.21-4.96,5.73
			c-2.04,1.5-4.42,2.65-7.09,3.1c-1.33,0.22-2.73,0.27-4.14,0.02c-0.7-0.12-1.4-0.31-2.08-0.56c-0.34-0.12-0.67-0.27-1-0.43
			l-0.24-0.12l-0.06-0.03l-0.13-0.07l-0.09-0.05l-0.37-0.21c-2.63-1.58-4.34-4.12-5.2-6.73c-1.67-5.27-0.89-10.45,0.57-15.13
			c1.52-4.71,3.89-9.1,7.15-12.93c1.63-1.92,3.54-3.65,5.72-5.1c2.18-1.44,4.66-2.59,7.35-3.17c0.67-0.15,1.36-0.25,2.04-0.33
			l0.9-0.08l0.98-0.06c1.28-0.06,2.55-0.04,3.85,0.06c2.57,0.21,5.18,0.78,7.64,1.82c2.46,1.03,4.75,2.54,6.69,4.39
			c1.94,1.86,3.53,4.04,4.71,6.39c2.34,4.71,3.16,9.92,2.85,14.91c-0.65,10.03-5.41,19.22-11.97,26.09
			c-6.51,6.99-14.71,12.1-23.49,15.25c-8.79,3.08-18.27,4.16-27.27,2.68c9.1-0.06,17.99-2.06,25.99-5.83
			c4.01-1.85,7.81-4.11,11.28-6.76c3.47-2.65,6.69-5.6,9.43-8.92c2.74-3.32,5.04-6.95,6.72-10.78c1.65-3.83,2.63-7.96,2.74-12.02
			c0.12-4.05-0.6-8.09-2.39-11.48c-1.74-3.41-4.54-6.08-7.99-7.5c-1.71-0.74-3.58-1.19-5.53-1.37c-0.97-0.09-1.97-0.12-2.95-0.08
			l-0.72,0.03l-0.79,0.06c-0.44,0.05-0.88,0.11-1.32,0.2c-3.52,0.7-6.84,3.03-9.57,5.99c-2.74,2.98-4.91,6.64-6.31,10.52
			c-0.7,1.94-1.18,3.94-1.43,5.92c-0.25,1.97-0.2,3.95,0.26,5.68c0.43,1.72,1.41,3.18,2.63,4.05l0.36,0.23l0.09,0.06
			c-0.02-0.01,0.11,0.06-0.03-0.02l0.03,0.02l0.13,0.08c0.18,0.1,0.36,0.2,0.55,0.28c0.38,0.17,0.77,0.3,1.18,0.4
			c0.82,0.19,1.71,0.27,2.63,0.19c3.69-0.31,7.57-2.7,9.69-6.01c1.07-1.65,1.66-3.57,1.43-5.47c-0.11-0.94-0.42-1.9-0.9-2.73
			c-0.49-0.82-1.15-1.52-1.99-2c-1.65-0.98-3.97-0.99-5.74,0.11c-0.89,0.53-1.63,1.35-2.06,2.35
			C335.09,92.66,334.96,93.8,335.08,94.93z"/>
	</g>
	<g>
		<path fill="#000000" d="M459.56,63.65c3.45,3.91,6.66,8.17,9.26,12.78c2.6,4.6,4.67,9.6,5.51,14.92c0.41,2.65,0.5,5.39,0.02,8.09
			c-0.47,2.67-1.54,5.36-3.47,7.38c-1.9,2.05-4.69,3.14-7.32,3.06c-2.65-0.04-5.11-0.99-7.26-2.27c2.3,0.99,4.81,1.55,7.21,1.26
			c2.39-0.27,4.52-1.52,5.83-3.36c1.33-1.83,1.91-4.13,2-6.41c0.09-2.3-0.3-4.63-0.96-6.87c-1.35-4.5-3.77-8.67-6.64-12.46
			c-2.89-3.8-6.25-7.21-9.91-10.38c-1.7-1.47-1.88-4.03-0.42-5.73c1.47-1.7,4.03-1.88,5.73-0.42c0.13,0.12,0.26,0.24,0.37,0.37
			L459.56,63.65z"/>
	</g>
	<g>
		<path fill="#000000" d="M441.26,81.94c4.76,5.02,8.96,10.66,12.2,16.97c1.6,3.17,2.93,6.52,3.74,10.11c0.78,3.58,1.14,7.44,0,11.45
			c-0.6,1.98-1.65,4.03-3.48,5.63c-0.91,0.79-2.02,1.43-3.21,1.83c-1.2,0.39-2.45,0.52-3.66,0.45l-0.45-0.04l-0.28-0.03l-0.16-0.02
			l-0.33-0.05l-0.46-0.09c-0.59-0.12-1.1-0.26-1.62-0.44c-1.03-0.35-2.01-0.8-2.9-1.32c-1.8-1.04-3.32-2.31-4.69-3.64
			c-2.74-2.68-4.88-5.68-6.81-8.72c-0.96-1.52-1.87-3.06-2.71-4.61l-1.24-2.28l-0.59-1.07l-0.26-0.44l-0.08-0.11
			c-0.01-0.03,0,0.02,0.2,0.23l5.88-2.66c0.46,7.7-0.14,15.68-2.82,23.27c-1.36,3.77-3.25,7.42-5.82,10.63
			c-2.56,3.2-5.78,5.95-9.49,7.8c-3.69,1.88-7.83,2.82-11.9,2.79c-4.08-0.04-8.08-1.06-11.62-2.87c-3.53-1.83-6.6-4.38-8.99-7.4
			c-2.39-3.02-4.14-6.46-5.19-10.04c3.54,6.54,9.01,11.89,15.6,14.22c6.51,2.44,13.8,1.82,19.44-1.6c5.7-3.38,9.6-9.22,11.66-15.7
			c2.11-6.51,2.6-13.63,2.22-20.71l0-0.08c-0.1-1.89,1.35-3.51,3.25-3.61c1.02-0.05,1.98,0.36,2.64,1.03
			c0.35,0.36,0.49,0.58,0.6,0.73c0.12,0.17,0.2,0.3,0.28,0.43l0.4,0.68l0.65,1.2l1.21,2.26c0.8,1.48,1.6,2.93,2.45,4.34
			c1.69,2.81,3.54,5.49,5.64,7.72c2.07,2.21,4.53,3.93,6.79,4.22c1.03,0.12,1.92-0.08,2.76-0.69c0.83-0.6,1.56-1.66,2.04-2.93
			c1.01-2.57,1.07-5.82,0.7-8.99c-0.4-3.2-1.27-6.42-2.39-9.57C448.18,93.88,444.85,87.85,441.26,81.94z"/>
	</g>
	<g>
		<path fill="#000000" d="M365.45,181.09c1.33,1.38,2.26,3.24,2.49,5.26c0.24,2.02-0.26,4.16-1.36,5.96c-1.09,1.82-2.79,3.25-4.68,4.2
			c-0.95,0.48-1.95,0.83-2.97,1.09l-0.19,0.05l-0.21,0.05l-0.36,0.08c-0.29,0.05-0.57,0.1-0.84,0.13c-0.54,0.07-1.09,0.1-1.64,0.1
			c-2.2-0.02-4.43-0.62-6.38-1.83c-1.96-1.19-3.62-3.05-4.52-5.28c-0.93-2.22-1.04-4.68-0.67-6.9c0.37-2.23,1.17-4.29,2.15-6.17
			c2.01-3.77,4.61-6.89,7.6-9.72c3.2-2.93,7.02-5.09,11.2-6.28c4.17-1.2,8.64-1.3,12.91-0.42c4.27,0.9,8.4,2.86,11.73,5.93
			c3.31,3.07,5.66,7.31,6.44,11.77c0.81,4.45,0.13,9-1.13,12.89c-2.6,7.95-7.51,14.88-13.77,20.01c-3.12,2.57-6.54,4.79-10.21,6.44
			c-3.67,1.65-7.53,2.83-11.48,3.42c-7.89,1.15-16.03-0.15-22.84-3.73c7.38,2.13,15.08,2.33,22.17,0.39
			c3.55-0.93,6.94-2.32,10.09-4.14c3.14-1.81,6.08-3.94,8.68-6.44c2.6-2.49,4.87-5.28,6.79-8.26c1.89-3,3.37-6.23,4.28-9.57
			c0.11-0.41,0.22-0.85,0.31-1.25c0.09-0.39,0.19-0.78,0.28-1.28c0.17-0.82,0.28-1.64,0.35-2.45c0.14-1.62,0.06-3.23-0.25-4.76
			c-0.58-3.07-2.14-5.84-4.43-7.96c-2.26-2.16-5.24-3.66-8.43-4.38c-3.19-0.73-6.58-0.64-9.79,0.13c-3.21,0.76-6.29,2.33-8.82,4.46
			c-1.31,1.1-2.61,2.44-3.79,3.73c-1.19,1.31-2.27,2.69-3.17,4.13c-1.8,2.86-2.75,6.11-1.93,8.87c0.74,2.77,3.6,4.92,6.85,5.28
			c0.4,0.05,0.81,0.08,1.22,0.08c0.21,0,0.4-0.01,0.59-0.01l0.35-0.03l0.14-0.01l0.16-0.02c0.85-0.11,1.69-0.29,2.5-0.57
			c1.61-0.56,3.07-1.53,4.18-2.84c1.11-1.31,1.81-3.02,1.88-4.82C367.02,184.58,366.46,182.72,365.45,181.09z"/>
	</g>
	<g>
		<path fill="#000000" d="M312.41,147.27c0.9,2.75,1.94,5.4,3.31,7.81c1.36,2.41,3.04,4.57,5.01,6.34c3.95,3.56,9.08,5.43,14.34,5.88
			c1.25,0.11,2.17,1.2,2.06,2.45c-0.03,0.35-0.14,0.67-0.31,0.96l-0.07,0.11c-0.34,0.57-0.77,1.4-1.11,2.15
			c-0.35,0.77-0.67,1.57-0.98,2.38c-0.62,1.61-1.09,3.28-1.52,4.97c-0.81,3.38-1.27,6.87-1.36,10.39
			c-0.13,3.52,0.14,7.09,0.67,10.64c0.52,3.57,1.38,7.11,2.33,10.69c-2-3.13-3.55-6.55-4.73-10.12c-1.17-3.58-1.88-7.33-2.15-11.14
			c-0.23-3.81,0.01-7.68,0.82-11.46c0.39-1.89,0.94-3.75,1.6-5.58c0.33-0.91,0.72-1.81,1.13-2.7c0.44-0.91,0.83-1.72,1.46-2.71
			l1.68,3.52c-3.06-0.34-6.09-1.16-8.89-2.51c-2.8-1.34-5.34-3.27-7.37-5.59c-2.04-2.32-3.53-5.03-4.48-7.85
			C312.9,153.09,312.45,150.17,312.41,147.27z"/>
	</g>
	<g>
		<path fill="#000000" d="M481.57,102.78c0.63,2.47,0.85,5.04,0.76,7.64c-0.14,2.59-0.64,5.24-1.67,7.75c-1.03,2.5-2.56,4.87-4.58,6.81
			c-2.01,1.95-4.48,3.46-7.21,4.32l0.18-4.35c2.47,0.99,4.86,2.15,7.17,3.5c2.29,1.36,4.52,2.89,6.53,4.7
			c2.02,1.79,3.82,3.89,5.2,6.25c1.32,2.38,2.17,5.11,1.91,7.75c-0.8-2.5-2.12-4.62-3.79-6.41c-1.63-1.82-3.57-3.32-5.59-4.71
			c-2.04-1.37-4.17-2.6-6.39-3.71c-2.21-1.13-4.47-2.15-6.78-3.08l-0.01-0.01c-1.18-0.48-1.75-1.83-1.27-3.01
			c0.27-0.66,0.82-1.14,1.46-1.34c4.11-1.27,7.64-4.31,9.92-8.29c1.15-1.99,2.06-4.19,2.7-6.52
			C480.8,107.74,481.2,105.29,481.57,102.78z"/>
	</g>
	<g>
		<path fill="#000000" d="M398.91,165.55c1.45-0.61,3.18-0.58,4.76-0.19c1.61,0.36,3.09,1.08,4.48,1.93c1.37,0.87,2.64,1.89,3.77,3.07
			c1.14,1.17,2.17,2.46,3,4.03l-4.26,0.82c0.13-2.49,0.27-5.06,0.57-7.68c0.33-2.61,0.83-5.28,1.81-7.85
			c0.97-2.56,2.43-5.03,4.41-6.95c1.98-1.92,4.38-3.29,6.91-3.95c-1.98,1.71-3.7,3.51-4.93,5.56c-1.25,2.03-2.07,4.23-2.62,6.52
			c-1.1,4.61-1.13,9.55-1.68,14.72l-0.01,0.11c-0.13,1.23-1.23,2.12-2.46,1.99c-0.81-0.09-1.47-0.6-1.8-1.28
			c-0.52-1.12-1.24-2.28-2.05-3.39c-0.82-1.1-1.71-2.18-2.69-3.16c-0.98-1-2.04-1.9-3.21-2.69
			C401.75,166.4,400.46,165.77,398.91,165.55z"/>
	</g>
	<g>
		<path fill="#000000" d="M367.4,144.37c0.08-0.93,0.31-1.88,0.8-2.77c0.47-0.9,1.25-1.74,2.29-2.27c1.04-0.53,2.29-0.7,3.46-0.53
			c1.18,0.17,2.3,0.64,3.26,1.32c1.92,1.34,3.37,3.66,3.45,6.3c0.06,1.3-0.23,2.62-0.75,3.76c-0.14,0.31-0.24,0.51-0.45,0.88
			l-0.18,0.31c-0.1,0.16-0.21,0.32-0.32,0.47c-0.39,0.53-0.86,1.03-1.38,1.46c-1.04,0.88-2.3,1.43-3.55,1.73
			c-1.26,0.27-2.52,0.29-3.72,0.08c-2.38-0.42-4.59-1.63-6.12-3.59c-0.75-0.99-1.31-2.17-1.5-3.41c-0.21-1.23-0.06-2.48,0.35-3.54
			c0.82-2.13,2.39-3.52,4.11-4.38c-0.67,1.8-1.16,3.53-1.02,4.97c0.13,1.44,0.78,2.37,1.69,3.06c0.9,0.7,2.13,1.15,3.3,1.25
			c1.18,0.11,2.23-0.14,2.95-0.63c0.19-0.12,0.36-0.27,0.53-0.44c0.02-0.03,0.05-0.05,0.08-0.07c0.05-0.05,0.13-0.17,0.19-0.25
			c0.02-0.02,0.15-0.2,0.2-0.3c0.28-0.47,0.45-0.94,0.53-1.44c0.14-0.98-0.17-2.19-1-3.16c-0.81-0.97-2-1.66-3.33-1.55
			c-0.66,0.06-1.38,0.33-2.05,0.82C368.56,142.95,367.96,143.62,367.4,144.37z"/>
	</g>
	<g>
		<path fill="#000000" d="M399.39,194.32c0.32-1.7,1.35-3.35,2.97-4.44c0.8-0.56,1.78-0.94,2.86-1.05c1.08-0.1,2.26,0.11,3.27,0.67
			c1.03,0.53,1.82,1.36,2.44,2.23c0.6,0.87,1.06,1.83,1.35,2.85c0.54,2.04,0.45,4.06,0.05,5.91c-0.8,3.7-2.64,6.92-5.02,9.58
			c-2.37,2.62-5.43,4.83-8.89,5.49c2.46-2.44,4.28-5.02,5.88-7.72c1.55-2.7,2.87-5.52,3.53-8.33c0.31-1.4,0.47-2.78,0.31-4.01
			c-0.15-1.21-0.72-2.44-1.48-3.13c-0.75-0.72-2.01-0.99-3.41-0.62C401.88,192.1,400.52,193.02,399.39,194.32z"/>
	</g>
	<g>
		<path fill="#000000" d="M410.36,250.9c-0.32,0.71-0.78,1.41-1.43,1.97c-0.64,0.57-1.52,1.01-2.53,1.11c-1.01,0.1-2.07-0.15-2.97-0.66
			c-0.9-0.51-1.65-1.25-2.21-2.1c-1.12-1.7-1.55-4.04-0.74-6.23c0.38-1.08,1.06-2.06,1.86-2.81c0.22-0.21,0.36-0.33,0.66-0.57
			l0.24-0.19c0.14-0.1,0.28-0.19,0.43-0.28c0.5-0.3,1.05-0.55,1.62-0.74c1.14-0.37,2.36-0.4,3.47-0.22
			c1.11,0.21,2.14,0.61,3.03,1.18c1.77,1.13,3.13,2.85,3.69,4.95c0.26,1.05,0.3,2.19,0.03,3.26c-0.26,1.06-0.82,2.01-1.51,2.7
			c-1.4,1.39-3.11,1.89-4.74,1.9c1.02-1.28,1.87-2.51,2.12-3.62c0.25-1.12-0.04-1.88-0.5-2.57c-0.46-0.7-1.2-1.33-1.97-1.71
			c-0.78-0.39-1.51-0.49-2.06-0.4c-0.14,0.02-0.29,0.06-0.44,0.12c-0.01,0.01-0.03,0.01-0.05,0.01c-0.05,0.02-0.15,0.08-0.22,0.12
			c0-0.02-0.15,0.08-0.21,0.13c-0.32,0.22-0.56,0.46-0.77,0.75c-0.38,0.56-0.57,1.46-0.33,2.39c0.24,0.93,0.8,1.79,1.75,2.18
			c0.48,0.19,1.09,0.25,1.76,0.13C408.97,251.55,409.66,251.27,410.36,250.9z"/>
	</g>
	<g>
		<path fill="#000000" d="M419.84,238.42c0.11-1,0.38-2.03,0.92-2.98c0.52-0.96,1.37-1.85,2.49-2.4c1.12-0.56,2.45-0.73,3.71-0.54
			c1.26,0.19,2.45,0.7,3.48,1.43c2.05,1.45,3.57,3.92,3.65,6.73c0.05,1.39-0.26,2.78-0.81,3.99c-0.15,0.33-0.26,0.55-0.48,0.94
			l-0.19,0.34c-0.11,0.17-0.22,0.33-0.34,0.5c-0.42,0.57-0.91,1.09-1.46,1.55c-1.1,0.93-2.44,1.52-3.77,1.83
			c-1.34,0.29-2.69,0.31-3.96,0.09c-2.54-0.44-4.9-1.73-6.55-3.81c-0.8-1.05-1.4-2.3-1.62-3.62c-0.23-1.31-0.08-2.65,0.34-3.78
			c0.86-2.29,2.52-3.82,4.34-4.81c-0.77,1.93-1.36,3.8-1.25,5.4c0.1,1.6,0.8,2.7,1.82,3.52c1.01,0.83,2.39,1.34,3.73,1.47
			c1.34,0.13,2.56-0.15,3.41-0.74c0.22-0.15,0.43-0.32,0.61-0.53c0.03-0.03,0.06-0.07,0.1-0.1c0.05-0.06,0.14-0.19,0.21-0.28
			c0.04-0.03,0.17-0.24,0.23-0.35c0.31-0.54,0.51-1.1,0.59-1.67c0.15-1.14-0.25-2.51-1.2-3.59c-0.93-1.08-2.3-1.82-3.78-1.66
			c-0.74,0.08-1.53,0.41-2.25,0.96C421.08,236.86,420.44,237.6,419.84,238.42z"/>
	</g>
	<g>
		<path fill="#000000" d="M358.58,62.08c1.46-0.5,3.14-0.4,4.67,0.03c1.55,0.41,2.98,1.17,4.32,2.03c1.31,0.9,2.55,1.91,3.64,3.08
			c1.1,1.17,2.09,2.44,2.88,3.95l-3.2,0.61c0.13-2.23,0.23-4.51,0.47-6.84c0.26-2.32,0.65-4.71,1.56-7.02
			c0.9-2.29,2.38-4.48,4.39-5.94c1.98-1.48,4.29-2.28,6.59-2.55c-2.04,1.11-3.91,2.36-5.31,3.96c-1.41,1.59-2.33,3.45-2.85,5.48
			c-1.09,4.06-0.98,8.58-1.47,13.19l-0.01,0.07c-0.1,0.92-0.93,1.59-1.85,1.49c-0.6-0.06-1.1-0.44-1.34-0.95
			c-0.56-1.17-1.33-2.35-2.17-3.47c-0.87-1.1-1.78-2.2-2.83-3.15c-1.02-0.99-2.15-1.85-3.37-2.59
			C361.46,62.75,360.11,62.19,358.58,62.08z"/>
	</g>
	<g>
		<path fill="#000000" d="M427.78,444.83c-3.79-3.79-7.18-8.08-9.52-12.99c-2.36-4.88-3.52-10.39-3.22-15.85c0.27-5.47,1.82-10.79,3.96-15.77
			c2.13-4.99,4.83-9.7,7.66-14.28c2.85-4.56,5.86-9,8.74-13.49c2.87-4.49,5.65-9.02,7.81-13.78c2.15-4.73,3.68-9.78,3.43-14.76
			c-0.36-5.01-1.73-10.17-4.81-13.89c-3.06-3.78-7.75-5.87-12.72-7.11c-5-1.25-10.3-1.82-15.65-2.71
			c-5.33-0.93-10.86-2.11-16.01-4.74c-2.56-1.34-4.97-2.99-7.09-5.1c-2.03-2.01-3.83-4.44-5.13-7.07
			c-2.61-5.32-3.16-11.31-2.55-16.86c0.63-5.59,2.21-10.9,4.25-15.95c4.08-10.12,9.8-19.32,15.95-28.1c0.07-0.1,0.22-0.13,0.32-0.06
			c0.1,0.07,0.13,0.2,0.07,0.3c-2.52,4.73-5.05,9.44-7.28,14.28c-2.27,4.81-4.34,9.71-6.01,14.69c-1.63,4.99-2.93,10.09-3.24,15.18
			c-0.35,5.07,0.33,10.15,2.61,14.42c1.12,2.15,2.57,4.06,4.37,5.78c1.7,1.65,3.74,3.08,5.93,4.2c4.39,2.29,9.44,3.54,14.61,4.51
			c5.17,1.03,10.54,1.76,15.9,3.26c2.67,0.75,5.36,1.72,7.88,3.13c2.52,1.4,4.86,3.3,6.67,5.63c1.82,2.32,3.09,5,3.9,7.72
			c0.81,2.75,1.24,5.49,1.37,8.35c0.15,5.79-1.7,11.25-4.06,16.16c-2.38,4.94-5.32,9.5-8.32,13.96c-3,4.46-6.1,8.82-9.01,13.28
			c-2.93,4.44-5.7,8.98-7.92,13.78c-2.21,4.78-3.85,9.86-4.26,15.1c-0.43,5.23,0.52,10.55,2.68,15.38
			c2.14,4.84,5.35,9.18,9.01,13.05c0.09,0.09,0.08,0.24-0.01,0.33C428.01,444.93,427.87,444.92,427.78,444.83z"/>
	</g>
	<path fill="#000000" d="M449.43,59.97c-2.32,1.58-4.28,4.1-6.07,6.65c-1.79,2.58-3.4,5.32-4.91,8.12c-3.01,5.61-5.71,11.43-8.01,17.41
		c1.75-6.17,3.92-12.23,6.44-18.17c1.28-2.97,2.66-5.9,4.27-8.75c1.65-2.82,3.39-5.69,6.18-8.03l0.01-0.01
		c0.74-0.62,1.83-0.52,2.45,0.22c0.62,0.74,0.52,1.83-0.22,2.45C449.53,59.9,449.48,59.93,449.43,59.97z"/>
	<g>
		<path fill="#000000" d="M337.04,145.05c1.01,0.9,1.7,2.12,2.12,3.5c0.39,1.38,0.43,2.98-0.22,4.57c-0.62,1.59-2.21,3.02-3.97,3.46
			c-0.44,0.13-0.87,0.2-1.3,0.24l-0.58,0.03c-0.12,0.01-0.45-0.01-0.66-0.02c-0.9-0.06-1.71-0.27-2.52-0.6
			c-1.59-0.67-2.84-1.81-3.72-3.05c-0.88-1.25-1.46-2.59-1.81-3.95c-0.68-2.71-0.59-5.49,0.37-7.99c0.98,2.48,1.88,4.71,3.03,6.65
			c1.12,1.93,2.51,3.49,3.94,4.08c0.35,0.16,0.75,0.26,1.09,0.31c0.1,0.01,0.08,0.04,0.27,0.04l0.23,0.01l0.12,0l0.06,0
			c-0.17,0-0.05,0-0.08,0l0,0l0.01,0h0.02c0.19,0,0.38,0,0.55-0.02c0.68-0.08,1.24-0.31,1.79-0.93c0.54-0.61,0.95-1.58,1.15-2.68
			C337.15,147.6,337.13,146.38,337.04,145.05z"/>
	</g>
	<g>
		<path fill="#000000" d="M489.87,152.27c-3.92,3.64-5.91,8.58-7.9,13.37c-1.87,4.88-3.52,9.86-5.11,14.9c-1.65,5.01-3.29,10.07-5.13,15.1
			c-1.91,5-3.98,10.01-6.57,14.88c-2.68,4.8-5.84,9.56-10.34,13.47c-1.13,0.97-2.33,1.88-3.65,2.66c-0.65,0.39-1.33,0.76-2.03,1.09
			c-0.36,0.17-0.68,0.32-1.07,0.48l-0.95,0.39c-2.82,1.1-5.75,1.87-8.98,1.91c-3.19,0.07-6.6-0.8-9.39-2.6
			c-2.81-1.77-4.94-4.27-6.47-6.9c-1.54-2.65-2.57-5.46-3.19-8.34c-0.6-2.9-0.91-5.8-0.49-9.04l6.35,0.88
			c-0.69,4.43-2.19,8.64-4.21,12.5c-2.02,3.87-4.56,7.42-7.5,10.56c-2.94,3.15-6.23,5.94-9.83,8.28c-3.59,2.35-7.49,4.24-11.62,5.48
			c-4.12,1.24-8.46,1.85-12.77,1.58c-4.31-0.28-8.55-1.51-12.29-3.57c-3.76-2.04-6.94-4.92-9.54-8.16
			c-2.61-3.24-4.62-6.88-6.2-10.64c2.06,3.53,4.46,6.83,7.26,9.7c2.8,2.86,6.07,5.21,9.63,6.8c7.16,3.22,15.35,2.89,22.53,0.15
			c7.2-2.76,13.67-7.47,18.63-13.36c4.94-5.86,8.64-12.89,9.56-20.23c0.22-1.76,1.82-3,3.58-2.78c1.74,0.22,2.98,1.79,2.79,3.53
			l-0.01,0.13c-0.23,2.03,0.03,4.47,0.57,6.72c0.55,2.27,1.38,4.48,2.53,6.39c1.14,1.91,2.6,3.51,4.3,4.54
			c1.69,1.04,3.62,1.52,5.71,1.49c2.07-0.02,4.35-0.6,6.44-1.42c0.25-0.09,0.59-0.25,0.89-0.37c0.22-0.09,0.49-0.22,0.73-0.34
			c0.49-0.24,0.98-0.51,1.46-0.8c0.95-0.59,1.88-1.24,2.77-1.99c3.57-2.98,6.49-7.1,9.01-11.47c2.59-4.36,4.81-9.05,6.9-13.84
			c2.15-4.77,4.16-9.64,6.26-14.52c2.17-4.85,4.3-9.75,6.97-14.44c1.31-2.35,2.76-4.64,4.44-6.77
			C485.59,155.57,487.53,153.58,489.87,152.27z"/>
	</g>
	<g>
		<path fill="#000000" d="M357.3,154.1c-0.32,0.71-0.78,1.41-1.43,1.97c-0.64,0.57-1.52,1.01-2.53,1.11c-1.01,0.1-2.07-0.15-2.97-0.66
			c-0.9-0.51-1.65-1.25-2.21-2.1c-1.12-1.7-1.55-4.04-0.74-6.23c0.38-1.08,1.06-2.06,1.85-2.81c0.22-0.21,0.36-0.33,0.66-0.57
			l0.23-0.19c0.14-0.1,0.28-0.19,0.43-0.28c0.5-0.3,1.05-0.55,1.62-0.74c1.14-0.37,2.37-0.4,3.48-0.22
			c1.11,0.21,2.14,0.61,3.03,1.18c1.77,1.13,3.13,2.85,3.69,4.95c0.26,1.05,0.3,2.19,0.03,3.26c-0.26,1.06-0.82,2.01-1.51,2.7
			c-1.4,1.39-3.11,1.89-4.74,1.9c1.02-1.28,1.87-2.51,2.12-3.62c0.25-1.12-0.04-1.88-0.5-2.57c-0.46-0.7-1.2-1.33-1.97-1.71
			c-0.78-0.39-1.51-0.49-2.06-0.4c-0.14,0.02-0.29,0.06-0.44,0.12c-0.01,0.01-0.03,0.01-0.05,0.01c-0.05,0.02-0.15,0.08-0.23,0.12
			c0-0.02-0.15,0.08-0.21,0.13c-0.32,0.22-0.56,0.46-0.77,0.75c-0.38,0.56-0.57,1.46-0.32,2.39c0.24,0.93,0.8,1.79,1.75,2.18
			c0.48,0.19,1.09,0.25,1.76,0.13C355.91,154.74,356.6,154.46,357.3,154.1z"/>
	</g>
	<path fill="#000000" d="M342.29,122.42c-1.45-0.26-2.8,0.1-4.01,0.72c-1.23,0.6-2.37,1.42-3.56,2.21c-1.18,0.82-2.42,1.6-3.78,2.29
		c-1.36,0.66-2.9,1.16-4.55,1.24c-1.65,0.02-3.27-0.33-4.74-1.23c-1.46-0.91-2.55-2.64-2.52-4.38c-0.03-1.71,0.72-3.39,2.14-4.34
		c0.71-0.46,1.63-0.64,2.42-0.4c0.79,0.22,1.38,0.74,1.83,1.31c-0.61-0.39-1.29-0.67-1.93-0.67c-0.64-0.01-1.21,0.25-1.63,0.67
		c-0.86,0.84-1.19,2.18-1.03,3.31c0.18,1.15,0.84,2.1,1.87,2.64c1.01,0.56,2.3,0.85,3.51,0.79c2.49-0.06,4.95-1.47,7.5-2.77
		c1.28-0.66,2.62-1.32,4.09-1.72C339.34,121.68,341.02,121.65,342.29,122.42z"/>
	<path fill="#000000" d="M365.94,208.02c-1.45-0.26-2.8,0.1-4.01,0.72c-1.23,0.6-2.37,1.42-3.56,2.21c-1.18,0.82-2.42,1.6-3.78,2.29
		c-1.37,0.66-2.9,1.16-4.55,1.24c-1.65,0.02-3.27-0.33-4.74-1.23c-1.46-0.91-2.55-2.64-2.52-4.38c-0.03-1.71,0.72-3.39,2.14-4.34
		c0.71-0.46,1.63-0.64,2.42-0.4c0.79,0.22,1.38,0.74,1.83,1.31c-0.61-0.4-1.29-0.67-1.93-0.67c-0.64,0-1.21,0.25-1.63,0.67
		c-0.86,0.84-1.19,2.18-1.03,3.31c0.19,1.15,0.84,2.09,1.87,2.64c1.01,0.56,2.31,0.85,3.51,0.79c2.49-0.06,4.95-1.47,7.5-2.77
		c1.28-0.66,2.62-1.32,4.08-1.72C362.99,207.28,364.67,207.26,365.94,208.02z"/>
	<path fill="#000000" d="M397.48,224.99c-1.46-0.15-2.78,0.31-3.95,1.02c-1.18,0.69-2.25,1.6-3.38,2.48c-1.11,0.91-2.29,1.78-3.59,2.57
		c-1.31,0.77-2.81,1.38-4.44,1.59c-1.64,0.15-3.29-0.08-4.82-0.86c-1.52-0.8-2.74-2.43-2.86-4.17c-0.17-1.7,0.45-3.44,1.8-4.49
		c0.68-0.51,1.58-0.76,2.38-0.59c0.8,0.16,1.44,0.63,1.92,1.16c-0.64-0.35-1.33-0.56-1.97-0.52c-0.64,0.04-1.19,0.34-1.57,0.8
		c-0.79,0.9-1.02,2.26-0.77,3.38c0.27,1.13,1,2.02,2.07,2.49c1.05,0.48,2.36,0.67,3.56,0.51c2.48-0.25,4.82-1.84,7.26-3.34
		c1.22-0.76,2.51-1.52,3.94-2.03C394.48,224.48,396.15,224.32,397.48,224.99z"/>
	<path fill="#000000" d="M454.71,209.07c-1.47,0.05-2.72,0.69-3.77,1.55c-1.08,0.85-2.02,1.89-3.01,2.91c-0.98,1.05-2.03,2.08-3.21,3.04
		c-1.19,0.94-2.59,1.75-4.18,2.18c-1.61,0.37-3.27,0.37-4.89-0.2c-1.62-0.58-3.05-2.04-3.39-3.75c-0.39-1.66-0.01-3.47,1.17-4.7
		c0.6-0.6,1.46-0.97,2.28-0.91c0.82,0.05,1.51,0.43,2.06,0.89c-0.68-0.26-1.4-0.38-2.03-0.25c-0.63,0.13-1.13,0.5-1.45,1
		c-0.66,1-0.7,2.38-0.3,3.45c0.42,1.09,1.27,1.87,2.38,2.18c1.1,0.33,2.43,0.34,3.6,0.02c2.42-0.58,4.53-2.48,6.74-4.29
		c1.11-0.92,2.28-1.84,3.63-2.55C451.66,208.97,453.3,208.59,454.71,209.07z"/>
	<g>
		<path fill="#000000" d="M444.36,166.44c0.22,1.72,1.44,3.03,2.7,4.05c1.3,1.01,2.8,1.75,4.35,2.17c1.54,0.41,3.16,0.46,4.57,0.01
			c1.41-0.42,2.62-1.41,3.36-2.58c1.53-2.39,1.23-5.54-0.25-7.82c-1.46-2.33-3.99-3.88-6.8-4.62c-1.41-0.38-2.89-0.58-4.41-0.63
			c-0.75-0.03-1.54-0.01-2.28,0.02c-0.48,0.02-0.69,0.05-1.09,0.09c-0.36,0.04-0.72,0.09-1.07,0.16c-2.83,0.51-5.4,1.76-7.36,3.64
			c-1.95,1.88-3.3,4.35-3.76,6.99c-0.48,2.64-0.13,5.41,1.02,7.88c0.29,0.62,0.61,1.23,0.98,1.81l0.13,0.2l0.17,0.25l0.27,0.38
			c0.2,0.27,0.42,0.54,0.64,0.8c0.9,1.04,1.99,2,3.18,2.84c2.37,1.71,5.15,2.93,8.04,3.63c2.89,0.71,5.9,0.81,8.81,0.31
			c2.9-0.51,5.68-1.67,8.15-3.41c4.98-3.48,8.54-9.15,10.96-15.25c2.49-6.14,3.86-12.81,4.98-19.55c0.42,6.83-0.03,13.78-1.74,20.61
			c-0.88,3.4-2.11,6.77-3.88,9.95c-1.76,3.17-4.07,6.16-7,8.58c-2.91,2.42-6.46,4.22-10.22,5.08c-3.77,0.9-7.71,0.87-11.46,0.13
			c-3.76-0.76-7.35-2.26-10.57-4.44c-1.6-1.11-3.1-2.4-4.44-3.92c-0.33-0.38-0.66-0.77-0.97-1.18c-0.15-0.2-0.31-0.42-0.48-0.65
			l-0.41-0.61c-0.54-0.85-1.04-1.74-1.46-2.67c-1.69-3.71-2.25-8.01-1.41-12.06c0.83-4.04,2.97-7.81,6.06-10.51
			c3.07-2.73,7-4.35,10.91-4.78c0.49-0.06,0.98-0.1,1.46-0.12c0.45-0.03,1.09-0.04,1.46-0.03c0.96,0.01,1.88,0.08,2.82,0.19
			c1.88,0.22,3.76,0.62,5.59,1.3c1.82,0.68,3.59,1.63,5.14,2.91c1.55,1.28,2.86,2.91,3.73,4.75c0.87,1.85,1.26,3.93,1.07,5.96
			c-0.19,2.03-1.02,4.01-2.37,5.51c-0.67,0.75-1.45,1.38-2.32,1.86c-0.24,0.14-0.44,0.23-0.63,0.32c-0.26,0.13-0.46,0.21-0.7,0.3
			c-0.46,0.17-0.93,0.3-1.41,0.39c-1.91,0.35-3.81,0.02-5.48-0.64c-1.68-0.67-3.18-1.68-4.41-2.95
			C445.37,169.79,444.28,168.19,444.36,166.44z"/>
	</g>
	<path fill="#000000" d="M451.31,137.05c1.09,0.99,2.43,1.4,3.79,1.51c1.36,0.14,2.76,0.04,4.19,0c1.43-0.07,2.9-0.08,4.42,0.05
		c1.51,0.16,3.08,0.54,4.52,1.34c1.42,0.85,2.6,2.01,3.37,3.55c0.76,1.54,0.77,3.58-0.16,5.05c-0.88,1.47-2.4,2.5-4.11,2.56
		c-0.85,0.01-1.72-0.32-2.27-0.93c-0.55-0.6-0.79-1.36-0.86-2.08c0.31,0.66,0.74,1.24,1.28,1.59c0.54,0.34,1.16,0.43,1.74,0.29
		c1.17-0.26,2.16-1.22,2.62-2.27c0.45-1.07,0.39-2.22-0.19-3.23c-0.56-1.01-1.51-1.94-2.57-2.52c-2.14-1.27-4.98-1.37-7.83-1.61
		c-1.43-0.11-2.92-0.26-4.38-0.69C453.43,139.24,451.99,138.37,451.31,137.05z"/>
</g>
<path class="af" fill="#000000" d="M273.602,481.306c-0.578-0.576-1.301-1.03-2.174-1.362c-0.873-0.331-1.885-0.497-3.039-0.497
	c-0.663,0-1.463,0.079-2.4,0.238v-6.077h-1.535v17.711c0.706,0.202,1.402,0.354,2.087,0.454s1.301,0.151,1.849,0.151
	c1.153,0,2.166-0.162,3.039-0.486s1.596-0.764,2.174-1.319c0.576-0.555,1.006-1.211,1.287-1.968s0.42-1.561,0.42-2.411
	s-0.139-1.657-0.42-2.422C274.608,482.554,274.178,481.883,273.602,481.306z M272.391,489.167c-0.852,0.829-2.17,1.243-3.958,1.243
	c-0.39,0-0.805-0.032-1.244-0.097c-0.439-0.065-0.84-0.134-1.2-0.206v-8.845c0.447-0.115,0.887-0.194,1.319-0.237
	c0.433-0.044,0.808-0.065,1.125-0.065c0.894,0,1.668,0.112,2.325,0.335c0.656,0.224,1.199,0.545,1.633,0.963
	c0.432,0.418,0.752,0.919,0.961,1.503s0.314,1.243,0.314,1.979C273.667,487.195,273.241,488.338,272.391,489.167z M247.392,479.446
	c-0.62,0-1.297,0.079-2.033,0.238c-0.735,0.158-1.485,0.433-2.249,0.821l-0.065,1.73c0.548-0.303,0.973-0.52,1.276-0.649
	s0.624-0.237,0.962-0.324c0.338-0.086,0.677-0.158,1.016-0.216s0.667-0.087,0.984-0.087c1.139,0,1.982,0.249,2.53,0.746
	s0.822,1.33,0.822,2.498v0.13c-0.332-0.044-0.732-0.087-1.2-0.13c-0.469-0.043-0.876-0.065-1.222-0.065
	c-1.831,0-3.302,0.311-4.412,0.931c-1.11,0.619-1.665,1.644-1.665,3.07c0,0.707,0.155,1.305,0.465,1.795
	c0.31,0.49,0.713,0.88,1.211,1.168s1.067,0.497,1.708,0.627c0.641,0.13,1.308,0.194,2,0.194c0.807,0,1.6-0.072,2.378-0.216
	c0.779-0.145,1.536-0.368,2.271-0.671v-7.028c0-1.585-0.397-2.742-1.189-3.471C250.189,479.811,248.992,479.446,247.392,479.446z
	 M250.636,489.892c-0.375,0.144-0.858,0.267-1.449,0.367c-0.591,0.102-1.183,0.151-1.773,0.151c-0.505,0-0.984-0.035-1.438-0.108
	c-0.454-0.071-0.84-0.197-1.157-0.378c-0.317-0.18-0.57-0.414-0.757-0.703c-0.188-0.288-0.281-0.663-0.281-1.124
	c0-0.52,0.111-0.934,0.335-1.244c0.224-0.31,0.533-0.551,0.93-0.724c0.396-0.174,0.85-0.296,1.362-0.368
	c0.511-0.072,1.041-0.108,1.589-0.108c0.476,0,0.984,0.029,1.524,0.087c0.541,0.058,0.912,0.108,1.114,0.151V489.892z
	 M258.032,479.868c-0.649,0.122-1.276,0.263-1.881,0.422v11.418h1.535v-10.186c0.202-0.072,0.563-0.147,1.082-0.228
	c0.519-0.079,1.002-0.118,1.449-0.118h1.989v-1.492H260C259.336,479.685,258.681,479.746,258.032,479.868z M-77.92,487.667
	l241.145,0.656l0.663-0.433l-0.632-0.564L-77.92,487.667z M164.994,487.825l1.95,1.95l1.95-1.95l-1.95-1.95L164.994,487.825z
	 M169.559,487.825l3.057,3.057l3.057-3.057l-3.057-3.057L169.559,487.825z M212.359,489.286l-3.395-9.602h-1.514l-3.396,9.602
	l-2.984-9.602h-1.73l3.979,12.023h1.428l3.46-9.645l3.46,9.645h1.427l3.979-12.023h-1.73L212.359,489.286z M238.418,489.589
	c-0.317,0-0.591,0.115-0.822,0.346c-0.231,0.23-0.346,0.505-0.346,0.822c0,0.316,0.115,0.591,0.346,0.821
	c0.23,0.23,0.504,0.346,0.822,0.346c0.317,0,0.591-0.115,0.822-0.346c0.23-0.23,0.346-0.505,0.346-0.821
	c0-0.317-0.116-0.592-0.346-0.822C239.009,489.704,238.735,489.589,238.418,489.589z M193.243,489.286l-3.395-9.602h-1.514
	l-3.396,9.602l-2.984-9.602h-1.73l3.979,12.023h1.428l3.46-9.645l3.46,9.645h1.427l3.979-12.023h-1.73L193.243,489.286z
	 M231.476,489.286l-3.395-9.602h-1.514l-3.396,9.602l-2.984-9.602h-1.73l3.979,12.023h1.428l3.46-9.645l3.46,9.645h1.427
	l3.979-12.023h-1.73L231.476,489.286z M382.732,480.474c-0.426-0.396-0.938-0.667-1.535-0.812c-0.598-0.144-1.271-0.216-2.021-0.216
	c-0.664,0-1.393,0.09-2.184,0.271c-0.793,0.181-1.471,0.4-2.033,0.659c-0.346-0.331-0.818-0.569-1.416-0.714
	c-0.6-0.144-1.273-0.216-2.023-0.216c-0.635,0-1.268,0.058-1.902,0.173l-2.465,0.454v11.635h1.535v-10.38
	c0.447-0.102,0.883-0.188,1.309-0.26c0.424-0.072,0.896-0.108,1.416-0.108c0.605,0,1.125,0.058,1.557,0.173
	c0.434,0.116,0.789,0.321,1.07,0.616c0.281,0.296,0.494,0.711,0.639,1.244s0.217,1.24,0.217,2.119v6.596h1.535v-7.201
	c0-0.663-0.055-1.243-0.162-1.741c-0.109-0.497-0.213-0.861-0.314-1.092c0.086-0.043,0.281-0.119,0.584-0.228
	c0.303-0.107,0.602-0.197,0.898-0.27c0.295-0.072,0.586-0.126,0.875-0.162s0.547-0.055,0.779-0.055c0.59,0,1.102,0.058,1.535,0.173
	c0.432,0.116,0.781,0.317,1.049,0.605c0.266,0.289,0.471,0.703,0.615,1.244c0.145,0.54,0.217,1.251,0.217,2.13v6.596h1.535v-7.201
	c0-0.995-0.111-1.816-0.336-2.466C383.482,481.393,383.158,480.87,382.732,480.474z M280.1,474.581
	c-0.785,0.648-1.18,1.729-1.18,3.243v1.86h-2.551v1.492h2.551v10.531h1.537v-10.531h4.973v-1.492h-4.973v-1.471
	c0-0.635,0.045-1.149,0.141-1.546c0.094-0.396,0.24-0.707,0.443-0.931c0.201-0.223,0.475-0.385,0.82-0.486
	c0.346-0.101,0.779-0.151,1.299-0.151h2.422v-1.492h-2.271C281.956,473.607,280.885,473.932,280.1,474.581z M398.273,487.825
	l3.057,3.057l3.057-3.057l-3.057-3.057L398.273,487.825z M343.322,482.322c0.389-0.418,0.854-0.749,1.395-0.994
	s1.135-0.368,1.783-0.368c0.736,0,1.373,0.076,1.914,0.228s1.121,0.414,1.74,0.789l0.715-1.405c-0.707-0.39-1.393-0.674-2.055-0.854
	c-0.664-0.181-1.436-0.271-2.314-0.271c-0.85,0-1.639,0.155-2.367,0.465c-0.729,0.311-1.367,0.746-1.914,1.309
	c-0.549,0.563-0.98,1.222-1.297,1.979c-0.317,0.757-0.476,1.59-0.476,2.498s0.158,1.74,0.476,2.497
	c0.316,0.757,0.748,1.413,1.297,1.969c0.547,0.555,1.186,0.987,1.914,1.297c0.729,0.311,1.518,0.465,2.367,0.465
	c0.879,0,1.65-0.09,2.314-0.27c0.662-0.181,1.348-0.466,2.055-0.854l-0.715-1.406c-0.619,0.375-1.199,0.639-1.74,0.79
	s-1.178,0.227-1.914,0.227c-0.648,0-1.242-0.119-1.783-0.356c-0.541-0.238-1.006-0.565-1.395-0.984
	c-0.391-0.418-0.693-0.915-0.908-1.492c-0.217-0.576-0.324-1.203-0.324-1.881s0.107-1.305,0.324-1.882
	C342.628,483.238,342.931,482.741,343.322,482.322z M404.387,487.825l1.949,1.95l1.951-1.95l-1.951-1.95L404.387,487.825z
	 M410.701,487.326l-0.664,0.433l0.633,0.564l241.176-0.341L410.701,487.326z M362.611,481.295c-0.549-0.569-1.193-1.02-1.936-1.352
	c-0.742-0.331-1.547-0.497-2.412-0.497c-0.863,0-1.668,0.166-2.41,0.497c-0.742,0.332-1.389,0.782-1.936,1.352
	c-0.549,0.57-0.977,1.229-1.287,1.979c-0.311,0.749-0.465,1.557-0.465,2.422s0.154,1.672,0.465,2.422s0.738,1.409,1.287,1.979
	c0.547,0.569,1.193,1.017,1.936,1.341s1.547,0.486,2.41,0.486c0.865,0,1.67-0.162,2.412-0.486s1.387-0.771,1.936-1.341
	c0.547-0.569,0.977-1.229,1.287-1.979c0.309-0.75,0.465-1.557,0.465-2.422s-0.156-1.673-0.465-2.422
	C363.587,482.524,363.158,481.865,362.611,481.295z M362.394,487.523c-0.217,0.569-0.52,1.067-0.908,1.492
	c-0.389,0.426-0.857,0.765-1.406,1.017c-0.547,0.252-1.152,0.378-1.816,0.378c-0.662,0-1.268-0.126-1.816-0.378
	c-0.547-0.252-1.016-0.591-1.404-1.017c-0.391-0.425-0.693-0.923-0.908-1.492c-0.217-0.569-0.324-1.179-0.324-1.827
	c0-0.649,0.107-1.262,0.324-1.839c0.215-0.576,0.518-1.077,0.908-1.503c0.389-0.425,0.857-0.764,1.404-1.016
	c0.549-0.252,1.154-0.379,1.816-0.379c0.664,0,1.27,0.127,1.816,0.379c0.549,0.252,1.018,0.591,1.406,1.016
	c0.389,0.426,0.691,0.927,0.908,1.503c0.217,0.577,0.324,1.189,0.324,1.839C362.718,486.345,362.611,486.954,362.394,487.523z
	 M296.221,481.295c-0.547-0.569-1.191-1.02-1.936-1.352c-0.742-0.331-1.545-0.497-2.41-0.497s-1.67,0.166-2.412,0.497
	c-0.742,0.332-1.387,0.782-1.936,1.352c-0.547,0.57-0.977,1.229-1.285,1.979c-0.311,0.749-0.465,1.557-0.465,2.422
	s0.154,1.672,0.465,2.422c0.309,0.75,0.738,1.409,1.285,1.979c0.549,0.569,1.193,1.017,1.936,1.341s1.547,0.486,2.412,0.486
	s1.668-0.162,2.41-0.486c0.744-0.324,1.389-0.771,1.936-1.341c0.549-0.569,0.977-1.229,1.287-1.979s0.465-1.557,0.465-2.422
	s-0.154-1.673-0.465-2.422C297.198,482.524,296.77,481.865,296.221,481.295z M296.006,487.523c-0.217,0.569-0.52,1.067-0.908,1.492
	c-0.391,0.426-0.859,0.765-1.406,1.017c-0.549,0.252-1.154,0.378-1.816,0.378c-0.664,0-1.27-0.126-1.816-0.378
	c-0.549-0.252-1.018-0.591-1.406-1.017c-0.389-0.425-0.691-0.923-0.908-1.492s-0.324-1.179-0.324-1.827
	c0-0.649,0.107-1.262,0.324-1.839c0.217-0.576,0.52-1.077,0.908-1.503c0.389-0.425,0.857-0.764,1.406-1.016
	c0.547-0.252,1.152-0.379,1.816-0.379c0.662,0,1.268,0.127,1.816,0.379c0.547,0.252,1.016,0.591,1.406,1.016
	c0.389,0.426,0.691,0.927,0.908,1.503c0.215,0.577,0.324,1.189,0.324,1.839C296.331,486.345,296.221,486.954,296.006,487.523z
	 M309.381,480.463c-0.455-0.39-0.996-0.656-1.623-0.801c-0.627-0.144-1.309-0.216-2.043-0.216c-0.707,0-1.465,0.047-2.271,0.141
	s-1.701,0.234-2.682,0.422v11.699h1.535v-10.402c1.184-0.23,2.293-0.346,3.33-0.346c0.592,0,1.111,0.062,1.559,0.184
	c0.445,0.123,0.818,0.332,1.113,0.628c0.295,0.295,0.525,0.713,0.691,1.254s0.25,1.251,0.25,2.13v6.553h1.535v-7.201
	c0-0.995-0.119-1.82-0.357-2.477C310.18,481.375,309.834,480.852,309.381,480.463z M318.516,490.054
	c-0.346-0.108-0.619-0.277-0.82-0.509c-0.203-0.23-0.35-0.547-0.443-0.951c-0.096-0.403-0.141-0.922-0.141-1.557v-5.86h4.973v-1.492
	h-4.973v-4.347h-1.537v4.347h-2.551v1.492h2.551v6.466c0,0.764,0.109,1.405,0.326,1.925c0.215,0.519,0.525,0.937,0.93,1.254
	c0.402,0.317,0.867,0.544,1.395,0.682c0.525,0.137,1.105,0.205,1.74,0.205h2.271v-1.492h-2.422
	C319.295,490.216,318.862,490.162,318.516,490.054z M337.784,489.589c-0.316,0-0.59,0.115-0.82,0.346s-0.346,0.505-0.346,0.822
	c0,0.316,0.115,0.591,0.346,0.821s0.504,0.346,0.82,0.346c0.318,0,0.592-0.115,0.822-0.346s0.346-0.505,0.346-0.821
	c0-0.317-0.115-0.592-0.346-0.822S338.102,489.589,337.784,489.589z M333.178,486.106c-0.346-0.303-0.785-0.565-1.318-0.789
	c-0.533-0.223-1.182-0.422-1.947-0.595l-0.799-0.173c-1.053-0.216-1.781-0.461-2.184-0.735c-0.404-0.273-0.607-0.678-0.607-1.211
	c0-0.504,0.238-0.904,0.715-1.2c0.475-0.295,1.174-0.443,2.098-0.443c0.793,0,1.477,0.076,2.055,0.228
	c0.576,0.151,1.217,0.421,1.924,0.811l0.691-1.405c-1.412-0.765-2.969-1.146-4.67-1.146c-0.635,0-1.223,0.076-1.764,0.228
	c-0.539,0.151-1.008,0.364-1.404,0.638s-0.711,0.605-0.941,0.994c-0.23,0.39-0.346,0.815-0.346,1.276
	c0,0.462,0.072,0.88,0.217,1.254c0.143,0.375,0.381,0.707,0.713,0.995s0.758,0.537,1.275,0.746c0.52,0.209,1.146,0.4,1.883,0.573
	l0.908,0.194c1.008,0.217,1.729,0.49,2.162,0.822c0.432,0.331,0.648,0.771,0.648,1.318c0,0.39-0.086,0.707-0.26,0.952
	c-0.172,0.245-0.414,0.436-0.725,0.573c-0.311,0.137-0.678,0.237-1.102,0.303c-0.426,0.064-0.877,0.097-1.352,0.097
	c-0.592,0-1.223-0.09-1.893-0.271c-0.67-0.18-1.352-0.479-2.045-0.897l-0.734,1.471c0.779,0.433,1.539,0.742,2.281,0.93
	s1.539,0.281,2.391,0.281c0.748,0,1.434-0.072,2.053-0.216c0.621-0.145,1.158-0.36,1.611-0.648c0.455-0.289,0.805-0.649,1.049-1.082
	c0.246-0.433,0.369-0.93,0.369-1.492c0-0.476-0.072-0.915-0.217-1.318C333.77,486.763,333.526,486.41,333.178,486.106z"/>
</svg>

