<?xml version="1.0" encoding="utf-8"?>
<!-- Generator: Adobe Illustrator 22.1.0, SVG Export Plug-In . SVG Version: 6.00 Build 0)  -->
<svg version="1.1" id="Layer_1" xmlns="http://www.w3.org/2000/svg" xmlns:xlink="http://www.w3.org/1999/xlink" x="0px" y="0px"
	 viewBox="0 0 800 500" style="enable-background:new 0 0 800 500;" xml:space="preserve">
<g>
	<g>
		<path fill="#000000" d="M475.3,226.9c2.8-7,3.4-8.6,1.8-4.7c-0.5,1.1-0.9,2.2-1.3,3.3c-0.6,1.7-1,3.4-1.4,5.1c-0.6,2.6-1,5.3-1,8
			c0,4.6,0.9,9.4,2.4,13.9c3.2,9.2,9.7,17.1,18.1,22.2c0.2-0.1,0.3-0.2,0.5-0.2c5-4.2,8.2-10.2,11.1-15.9c3.3-6.4,6.4-13.3,7.4-20.5
			c1.3-9-1.2-19.2-6.5-26.8c-6.5-9.2-17.5-9.7-27.8-10.3c-10.3-0.6-19.8-2.6-27.4-9.9c-4-3.8-7.3-8.7-8.9-14
			c-0.9-2.8-1.3-5.8-1.3-8.7c0-1.3,0.1-2.6,0.3-3.9c0.1-0.5,0.2-1,0.3-1.4c0.5-3.1-1.1,2.3-0.6,1.2c1.1-2,2.1-4.1,2.8-6.3
			c0,0.1,0.9-2.8,0.1-2c-2.6,2.6-4.3,6.5-5.9,9.7c-2.2,4.6-4.2,9.3-5.4,14.2c-1.8,7.2-1.8,14.6,0.7,21.6
			c4.7,13.1,17.3,19.9,30.7,21.1c6.7,0.6,13.7,0.4,20.2,2.5c6.9,2.2,11.4,7.2,14.4,13.5c2.7,5.8,4,12.1,3.5,18.4
			c-0.1,1.3-0.4,2.6-0.6,3.9c-0.8,4.7,9.6-15.5,4.7-9.9c-1.5,1.7-2.2,1.4-4.1,0.1c-1.4-0.9-2.7-2-3.9-3.1
			c-10.3-9.1-15.1-22.8-14.6-36.1c0-1.1-1.1,0.5-1.1,0.5c-1,1.1-1.6,2.6-2.3,3.8C478.1,219.6,476.3,223.2,475.3,226.9L475.3,226.9z"
			/>
	</g>
	<g>
		<path fill="#000000" d="M443,162.5C443,162.5,443,162.4,443,162.5C443,162.4,443,162.5,443,162.5L443,162.5z"/>
	</g>
	<g>
		<path fill="#000000" d="M438.8,168c2.9-2.7,4.9-6.6,7.4-9.6c3.1-3.7,6.5-7.1,10.1-10.2c7.6-6.6,16.1-12.2,25.3-16.3c10.3-4.6,21.8-8.5,33.3-7.7
			c10.3,0.7,20.1,5.8,26.6,13.8c7.5,9.2,9.1,20.3,6.9,31.4c-0.2,1.2,0,0.7,0.6,0.3c1-0.7,1.9-3.1,2.3-4.1c5.2-11,7.9-23.6,3.1-35.4
			c-4.3-10.3-13.6-18.3-24.5-21.3c-12.2-3.4-25.5,0-36.8,4.8c-10.1,4.3-19.7,10.2-27.8,17.4c-10.2,9.1-18.8,19.9-24.9,32.1
			C440,163.7,438.7,168.1,438.8,168L438.8,168z"/>
	</g>
	<g>
		<path fill="#000000" d="M549.3,169.1c1.7-6.2,0.6-12-4.5-16.5c-5-4.5-11.9-5.7-18.5-5.1c-3.2,0.3-6.3,1-9.4,1.9c-3.6,1-7.2,2.5-11,2.2
			c-2.7-0.2-5.5-1.2-7.3-3.3c-1.7-2-1.1-5.6-3.3-7.1c-2-1.4-5.6,0-7.7,0.5c-3.2,0.8-6.2,1.8-9.3,3c-5.7,2.2-11.3,4.9-17.1,6.7
			c-11.7,3.7-23.7,2.5-33.3-5.6c-11.5-9.7-14.4-32.6-6.6-55.7c0.4-1-0.2-0.3-0.6,0.1c-0.9,0.9-1.5,2.8-2.1,3.9
			c-11.8,20-11.7,46.8-5.6,60.4c5.1,11.2,16,19.3,28.8,18.5c13.2-0.8,24.1-9.3,36.6-12.5c2-0.5,5.7-1.8,7.7-0.4
			c2.2,1.5,1.6,5.5,3.6,7.5c5.1,5.2,13,2.3,18.7,0.3c7.5-2.6,16.2-4.4,24-1.3c3,1.2,5.6,3.2,7.6,5.6c1,1.2,1.8,2.4,2.5,3.9
			c0.5,1.1,0.5,2.4,1.6,3C545,179.7,549.1,170,549.3,169.1L549.3,169.1z"/>
	</g>
	<path fill="#000000" d="M543,222.2c-2.2-9.8-6.3-19.2-12.2-27.5c-3.3-4.6-7.2-8.9-10.9-13.2c-1.7-2-6-5.9-6.7-9.1c0.4-1.1,0.6-1.8,0.4-1.8
		c-1.7-0.3-2.9,2.8-3.5,3.9c-1.8,3.1-3.3,6.3-4.7,9.6c-1.8,4.4-2.5,8.3-0.2,12.6c4.5,8.2,11.8,14.9,17,22.8
		c9.4,14.3,13,31.4,11.9,48.1c-0.5,7.4-2.4,15.9-4.6,22.1c-0.6,0.8-1.7,2.6-1.8,2.8c-2.8,3.7-6.2,7.1-10,9.7
		c-7.6,5.2-17.4,8.1-26.7,6.1c-8.1-1.7-15.2-6.5-20.6-12.5c-12.1-13.4-15.2-34-8.7-50.3c0.3-0.7,0.9-1.6,0.1-1.3
		c-0.8,0.3-1.7,3.1-2,3.9c-6.4,15.4-6.1,32.8,0.8,48.2c6.8,15.3,20.8,33.6,40.1,28.7c8.9-2.2,15.9-8.8,21-16
		c7.2-10.1,12.6-21.6,16.9-33.2C544.7,258.7,547.1,240.1,543,222.2z M529.5,289.7c-0.1,0.3-0.2,0.5-0.2,0.7
		c-0.1,0.2-0.2,0.4-0.4,0.7C529,291,529.3,290.2,529.5,289.7z M529.6,289.4c0.1-0.2,0.2-0.3,0.2-0.3
		C529.9,289.1,529.8,289.3,529.6,289.4z"/>
	<g>
		<path fill="#000000" d="M469.6,227c-11.1,0.4-21,5.6-30,11.5c-9.5,6.2-18.3,13.4-27.5,19.9c-19.4,13.7-41.1,25.8-64.9,30.4
			c-21,4-44.5,2.4-63.4-8.5c-19.4-11.2-34-32.9-37-54.6c-1.5-10.9-0.3-22.4,3.8-32.6c4.4-10.8,13-20.2,22.3-27.2
			c1.1-0.8,0.7-2.1,1.2-2.4c-19.6,11.6-26.8,28.9-30.9,48.4c-4.9,23.4,2.3,45.6,16.4,65c7.2,9.9,16,18.3,27,23.9
			c10.1,5.2,21.5,8.2,32.9,8.9c24,1.4,47.1-6.5,67.4-18.3c12.2-7.1,23.3-15.5,34.6-23.8c11.1-8.1,22.7-15,36.7-16.9
			c1-0.1,2.3-2.5,2.6-3c1.7-2.6,3.1-5.4,4.5-8.2c1.3-2.8,2.7-5.6,3.7-8.5C469,230.6,470.2,227,469.6,227L469.6,227z"/>
	</g>
	<g>
		<path fill="#000000" d="M504.9,65.6c0.9-2.7,1.7-5.4,2.6-8.1C507,58.6,503.7,64.3,504.9,65.6c3,3.2,7.8,5.5,11.6,7.7c3.4,2,5.7,3.6,4.6,7.7
			c-0.9,3.5,1.6,0.1,2.3-1c2.6-4,4.7-8.4,6.5-12.8c1.6-4,5.3-11.3,0.5-14.7c-2.1-1.5-4.7-2.7-7-3.9c-2.6-1.3-5.6-3.1-8.4-3.7
			c-1.8-0.4-5.6,8.4-6.2,9.7c-1.2,2.4-2.3,4.9-3.2,7.4C505.3,62.9,504.3,64.9,504.9,65.6L504.9,65.6z"/>
	</g>
	<g>
		<path fill="#000000" d="M267,229.2c0.9-2.7,1.7-5.4,2.6-8.1C269,222.2,265.8,227.9,267,229.2c3,3.2,7.8,5.5,11.6,7.7c3.4,2,5.7,3.6,4.6,7.7
			c-0.9,3.5,1.6,0.1,2.3-1c2.6-4,4.7-8.4,6.5-12.8c1.6-4,5.3-11.3,0.5-14.7c-2.1-1.5-4.7-2.7-7-3.9c-2.6-1.3-5.6-3.1-8.4-3.7
			c-1.8-0.4-5.6,8.4-6.2,9.7c-1.2,2.4-2.3,4.9-3.2,7.4C267.4,226.4,266.4,228.5,267,229.2L267,229.2z"/>
	</g>
	<path fill="#000000" d="M356.1,137.2c-7.3-9.3-18.5-11.7-29.6-10.6c-2.5-6.9-3.9-14.2-4.2-21.4c-0.3-7,1.1-13.3,2.6-20c0.2-0.4,0.2-0.8,0.1-1.2
		c0,0,0,0,0,0c-0.3-0.2-1.3,1.5-1.4,1.6c-8.4,13-12.6,28.8-11.7,44.3c-3.4,1.2-6.7,2.5-9.7,4c-6,3-11.7,6.4-17.2,10.2
		c-5.6,3.9-11.7,8.1-16.2,13.3c-0.3,0.3-2,3.9-1.8,3.9c1.8,0.2,4.8-2.5,6.4-3.3c2.6-1.4,5.3-2.8,8-4.1c5.5-2.6,11.2-4.9,17-6.8
		c5.1-1.6,10.3-2.9,15.6-3.3c4.4,17.2,14.7,32,27.1,44.8c0.3,0.3,8.3-8.3,9.4-9.9c3.7-5.7,6.8-12.2,8.8-18.7
		C361.7,152.2,361.4,144,356.1,137.2z M339,150.2c9.4,0.9,11.5,7.6,10.8,13.2C345.9,159.2,342.3,154.8,339,150.2z"/>
	<path fill="#000000" d="M319.1,220.3c-2.6-1.5-5.5-2.1-8-3.6c1.7-3.2,3-6.6,4.2-9.6c1.7-4.3,3.7-9.4,2-14c-1.4-3.7-5-5.3-8.5-6.8
		c-1.8-0.7-3.6-1.4-5.3-2.3c-1.6-0.9-3-2.8-4.9-2.4c-2,0.5-4,5.7-4.7,7.2c-1.5,3-3.7,6.6-4,10c-0.6,6.7,5.2,8.4,10.3,11.1
		c2.1,1.1,4.1,2.5,5.4,4.6c0.6,1,1,2.1,1.2,3.3c-1.9,3.1-4.4,7.7-4.7,8.2c-1.3,2.7-2.6,5.5-3.6,8.3c-0.3,0.8-1.4,3-0.7,3.8
		c3.1,3.6,8,4.2,11.7,7.1c1.8,1.5,2.8,3.4,3,5.7c0,0.4,0,0.8,0,1.1c-1,1.9-2,3.9-2.8,5.9c-0.2,0.4-1.3,4.5-0.7,3.8
		c3.6-4.1,6.2-9,8.5-13.9c2.7-5.6,5.6-11.7,6.2-17.9C324.2,226.1,322.6,222.3,319.1,220.3z M309,215C309,215,309,215,309,215
		c0.4-0.7,0.8-1.5,1.3-2.4C309.8,213.4,309.4,214.2,309,215z"/>
	<path fill="#000000" d="M529.3,66.4c-3.3,4.1-5.8,8.5-9.7,12.1c-3.8,3.6-8.4,6.7-13.5,8.4c-12.3,4.1-23.7-1-34.5-6.7c-13.2-7-25.9-14.7-39.4-21.2
		c-12.6-6-27.2-9.2-40.4-3.4c-6,2.6-9.9,7-14.3,11.5c-0.4,0.4-0.8,0.8-1.2,1.3c-3.1,3.5-5,8.3-6.8,12.4c-2.7,6.1-4.9,12.3-6.1,18.9
		c-2.1,11.2-0.9,22.4,3.3,33.1c4.1,10.6,10.3,20.2,16.1,29.9c6.2,10.4,11.5,21.2,14.3,32.9c1.4,6,2.1,12.3,1.8,18.5
		c-0.1,1.4-0.2,2.8-0.4,4.2c-0.7,0.9-1.4,1.9-1.9,2.3c-2.5,2.1-4.9,4.3-8,5.6c-6,2.4-12.9,1.5-18.6-1.4c-5.1-2.5-9.5-6.3-12.4-11.1
		c-3.9-6.3-4.3-12-1.6-18.7c0.3-0.8,2.2-6.5,0.2-3.6c-0.6,0.9-1.3,1.9-1.9,2.9c0-0.1,0-0.2-0.1-0.2c-0.2-0.4-4.1,5.8-4.1,5.8
		c-1.4,2.7-2.6,5.4-3.7,8.2c-1.5,3.8-2.5,7.7-2.7,11.8c-0.4,8,2.4,15.6,6.2,22.7c4,7.5,9.2,14.3,12,22.4c2.1,6.1,3.4,14,2,20.6
		c-4.3,20.1-19.6,37.5-41.8,38.2c-23.4,0.7-41.9-17.3-45.6-39.3c-1-6.2-0.9-12.7,0.2-18.9c1.4-7.9,4.8-14.8,8.6-21.8
		c0.2-0.3,1.3-3,0.9-2.5c-3.9,4.8-7.7,11.2-10,16.9c-2.6,6.5-3.4,13.2-4.3,20.1c-1.7,13.8,1.1,28.3,9,40.1
		c7.6,11.3,20.4,19.6,34.2,20.6c13.7,1,23.2-8.1,33.1-16.5c21.3-18.3,26.7-59.2,25.9-69.1c-0.2-1.9-0.5-3.7-1-5.5
		c4.4-0.6,8.7-2.6,12.3-5.8c4.6-4,8.7-8.7,12.2-13.7c0.9-1.2,2.8-4.9,3.8-7.8c0.2-0.4,0.3-0.7,0.5-1.1c3.2-7.3,5.2-13.9,6.2-19.6
		c2.1-12.4,0.3-25.1-4-36.9c-8.3-22.5-26.7-41.2-30.8-65.1c-1-5.9-1-12,0.2-17.8c0.1-0.2,0.1-0.3,0.1-0.3c0.3-1,0.7-2,1-3
		c0.1-0.2,0.1-0.4,0.2-0.5c0.6-0.7,1.8-1.9,1.9-1.9c1.9-1.8,4.2-3.3,6.7-4.3c5.5-2.2,11.7-2.2,17.6-1.3c12.9,1.9,24.6,9.1,35.8,15.3
		c6.4,3.6,12.8,7,19.2,10.5c5.7,3.1,11.3,5.9,17.6,7.7c11.5,3.2,22.7,0.8,32.5-5.5c10.3-6.6,18.4-17.1,23.2-28.1
		C529,68.1,530.1,65.3,529.3,66.4z M374.1,76.5c0,0,0.1-0.1,0.2-0.3C374.2,76.4,374.2,76.6,374.1,76.5z"/>
</g>
<g>
	<path fill="#000000" d="M320.5,378.3c-1-0.3-1.8-0.7-2.4-1.3c0,0.1,0.1,0.3,0.1,0.4c0,0.1,0.1,0.3,0.1,0.4c0,0.1,0,0.3,0,0.4c0,1.9-0.3,3.6-0.9,5
		c-0.6,1.4-1.4,2.6-2.3,3.5c-1,0.9-2.1,1.6-3.4,2c-1.3,0.4-2.7,0.7-4.1,0.7l0.3-4.3c0.9,0,1.8-0.1,2.5-0.3c0.8-0.2,1.4-0.6,2-1.1
		c0.6-0.5,1-1.2,1.3-2c0.3-0.8,0.5-1.9,0.5-3.1v-9.2c0-1.9,0.2-3.6,0.7-5c0.5-1.4,1.1-2.6,2-3.5c0.9-0.9,1.9-1.6,3.1-2.1
		c1.2-0.5,2.5-0.7,4-0.7c1.3,0,2.4,0.2,3.4,0.6c1,0.4,1.9,1,2.6,1.8c0.7,0.8,1.3,1.9,1.7,3.2c0.4,1.3,0.6,2.8,0.6,4.6v6.9h4.5v3.4
		h-12.4C322.9,378.7,321.5,378.6,320.5,378.3z M328.5,375.3v-7.7c0-0.8-0.1-1.6-0.3-2.4c-0.2-0.8-0.5-1.4-1-2
		c-0.4-0.6-0.9-1-1.6-1.3c-0.6-0.3-1.3-0.5-2.1-0.5c-0.9,0-1.7,0.2-2.4,0.5c-0.7,0.3-1.2,0.8-1.6,1.4c-0.4,0.6-0.7,1.3-0.9,2.1
		c-0.2,0.8-0.3,1.7-0.3,2.7c0,2.5,0.6,4.3,1.7,5.5c1.1,1.1,2.9,1.7,5.2,1.7H328.5z"/>
	<path fill="#000000" d="M336.2,375.3h6.2v-16.5h3.9v20h-10.1V375.3z M339.3,387.8c-0.8,0-1.4-0.3-1.9-0.8c-0.5-0.5-0.7-1.2-0.7-1.9
		c0-0.8,0.2-1.4,0.7-1.9c0.5-0.5,1.1-0.8,1.9-0.8c0.8,0,1.4,0.3,1.9,0.8c0.5,0.5,0.7,1.2,0.7,1.9c0,0.8-0.2,1.4-0.7,1.9
		C340.7,387.5,340,387.8,339.3,387.8z M345.9,387.8c-0.8,0-1.4-0.3-1.9-0.8c-0.5-0.5-0.8-1.2-0.8-2c0-0.8,0.3-1.4,0.8-1.9
		c0.5-0.5,1.1-0.8,1.9-0.8c0.8,0,1.4,0.3,1.8,0.8c0.5,0.5,0.7,1.2,0.7,1.9c0,0.8-0.2,1.4-0.7,2C347.3,387.5,346.7,387.8,345.9,387.8
		z"/>
	<path fill="#000000" d="M362.4,378.9c0,1.6-0.2,3-0.5,4.3c-0.3,1.3-0.8,2.4-1.6,3.4c-0.8,0.9-1.8,1.7-3,2.2c-1.3,0.5-2.9,0.8-4.8,0.8
		c-0.8,0-1.5,0-2.3-0.1l0.4-3.9c0.7,0.1,1.3,0.1,1.9,0.1c2.1,0,3.5-0.5,4.5-1.6c0.9-1.1,1.4-2.7,1.4-5v-20.3h3.9v16.5h5.8v3.5h-5.8
		V378.9z"/>
	<path fill="#000000" d="M367.3,375.3h14c0-1.7-0.2-3.3-0.7-4.9c-0.5-1.6-1.3-3-2.3-4.3c-1.1-1.3-2.5-2.4-4.2-3.3c-1.7-0.9-3.8-1.5-6.4-1.7v-3.6
		c3.3-1.8,6.5-3.6,9.5-5.4c3-1.8,6.2-3.6,9.4-5.4v4.9c-1.1,0.6-2.1,1.1-3.1,1.7c-1,0.5-2,1.1-3,1.6c-1,0.5-2.1,1.1-3.1,1.6
		c-1.1,0.5-2.2,1.1-3.4,1.8c3.5,1.1,6.3,3.1,8.3,5.9c2,2.8,3,6.3,3,10.5v4.1h-17.9V375.3z"/>
	<path fill="#000000" d="M409.8,389.5c-1.9,0-3.6-0.3-4.9-1c-1.4-0.7-2.5-1.6-3.3-2.8c-0.8-1.2-1.4-2.6-1.8-4.2c-0.4-1.6-0.6-3.3-0.6-5.2
		c0-0.5,0-1.1,0.1-1.8c0.1-0.7,0.1-1.4,0.3-2.1c0.1-0.7,0.3-1.4,0.4-2.1c0.2-0.7,0.3-1.3,0.5-2l4.3-0.8c-0.5,1.6-0.9,3-1.1,4.4
		c-0.2,1.4-0.3,2.7-0.3,3.9c0,1.8,0.2,3.4,0.5,4.6c0.3,1.3,0.8,2.3,1.4,3.1c0.6,0.8,1.3,1.4,2.2,1.8c0.8,0.4,1.8,0.6,2.8,0.6
		c1.3,0,2.4-0.3,3.3-0.8c0.9-0.5,1.6-1.3,2.1-2.2c0.5-1,0.9-2.1,1.2-3.5c0.2-1.4,0.4-2.9,0.4-4.6v-16.2h3.9v15.9
		c0,5.1-0.9,8.8-2.7,11.2C416.5,388.3,413.7,389.5,409.8,389.5z M410.5,362.4c-0.7,0-1.3-0.3-1.8-0.8c-0.5-0.5-0.7-1.1-0.7-1.9
		c0-0.7,0.2-1.3,0.7-1.8c0.5-0.5,1.1-0.8,1.8-0.8c0.7,0,1.3,0.3,1.8,0.8c0.4,0.5,0.7,1.1,0.7,1.8c0,0.7-0.2,1.3-0.7,1.9
		C411.8,362.2,411.2,362.4,410.5,362.4z"/>
	<path fill="#000000" d="M432.6,375.3h4.9v3.4h-8.8v-28.7c-0.5-0.1-1.1-0.2-1.8-0.2c-0.7-0.1-1.3-0.1-2-0.2v-2.3c1.1-0.1,2.3-0.2,3.7-0.3
		c1.4-0.1,2.7-0.1,4,0V375.3z"/>
	<path fill="#000000" d="M436.6,375.3h6.2v-16.5h3.9c0,1.6,0,3.1-0.1,4.3c0,1.2-0.1,2.3-0.2,3.2c-0.1,0.9-0.1,1.7-0.2,2.3c-0.1,0.6-0.2,1.1-0.2,1.5
		c0.6-1.4,1.4-2.8,2.4-4.2c1-1.4,2-2.7,3.2-3.8c1.2-1.1,2.5-2.1,3.8-2.8c1.4-0.7,2.7-1.1,4.2-1.1c2.5,0,4.6,0.8,6,2.5
		c1.5,1.7,2.2,4.1,2.2,7.4v7.3h4.9v3.4h-36.2V375.3z M463.7,375.3v-6.7c0-1-0.1-2-0.3-2.8c-0.2-0.9-0.5-1.6-0.8-2.2
		c-0.4-0.6-0.9-1.1-1.5-1.4s-1.4-0.5-2.3-0.5c-1,0-2,0.3-3.1,1c-1.1,0.7-2.3,1.6-3.4,2.8c-1.1,1.2-2.1,2.6-3.1,4.3
		c-1,1.7-1.8,3.5-2.5,5.6H463.7z M451.9,355.2c-0.7,0-1.3-0.3-1.8-0.8c-0.5-0.5-0.7-1.1-0.7-1.9c0-0.7,0.2-1.3,0.7-1.8
		c0.5-0.5,1.1-0.8,1.8-0.8c0.7,0,1.3,0.3,1.8,0.8c0.4,0.5,0.7,1.1,0.7,1.8c0,0.7-0.2,1.3-0.7,1.9C453.2,355,452.6,355.2,451.9,355.2
		z"/>
	<path fill="#000000" d="M472,375.3h1.4c0.5,0,1.1-0.1,1.6-0.3c0.5-0.2,1-0.5,1.4-0.9c0.4-0.4,0.7-1.1,1-1.8c0.2-0.8,0.4-1.7,0.4-2.9
		c0-1.9,0.2-3.6,0.7-5c0.5-1.4,1.2-2.6,2-3.5c0.9-0.9,1.9-1.6,3.1-2.1c1.2-0.5,2.5-0.7,4-0.7c1.3,0,2.4,0.2,3.4,0.6
		c1,0.4,1.9,1,2.6,1.8c0.7,0.8,1.3,1.9,1.7,3.2c0.4,1.3,0.6,2.8,0.6,4.6v10.4H488c-2.5,0-4.4-0.4-5.7-1.1s-2.4-1.8-3.1-3
		c-0.4,1.2-1.1,2.2-2.1,3c-1,0.8-2.4,1.1-4.2,1.1H472V375.3z M492,375.3v-7.7c0-0.8-0.1-1.6-0.3-2.4c-0.2-0.8-0.5-1.4-1-2
		c-0.4-0.6-0.9-1-1.6-1.3c-0.6-0.3-1.3-0.5-2.1-0.5c-0.9,0-1.7,0.2-2.4,0.5c-0.7,0.3-1.2,0.8-1.6,1.4c-0.4,0.6-0.7,1.3-0.9,2.1
		c-0.2,0.8-0.3,1.7-0.3,2.7c0,2.5,0.6,4.3,1.7,5.5c1.1,1.1,2.9,1.7,5.2,1.7H492z"/>
	<path fill="#000000" d="M499.7,389.6c-0.8,0-1.5,0-2.3-0.1l0.4-3.9c0.7,0.1,1.3,0.1,1.9,0.1c2.1,0,3.5-0.5,4.5-1.6c0.9-1.1,1.4-2.7,1.4-5v-20.3
		h3.9v20.1c0,1.6-0.2,3-0.5,4.3c-0.3,1.3-0.8,2.4-1.6,3.4c-0.8,0.9-1.8,1.7-3,2.2C503.2,389.3,501.6,389.6,499.7,389.6z"/>
</g>
<g>
	<path fill="#000000" d="M320.3,416.5c-0.3,0-0.6,0-0.9-0.1c-2.2-0.1-3.3-0.7-4.5-2.4c-0.9-1.3-1.8-2.9-2.6-4.1c-0.5-0.8-0.9-1.1-2.3-1.1h-0.8v4.1
		c0,2.2,0.3,2.4,2.4,2.6v0.8h-7.2v-0.8c2.2-0.2,2.4-0.4,2.4-2.6v-10.4c0-2.2-0.2-2.4-2.3-2.5v-0.8h6.8c2,0,3.3,0.2,4.3,0.9
		c1.1,0.7,1.8,1.8,1.8,3.4c0,2.3-1.5,3.6-3.4,4.4c0.5,0.9,1.6,2.6,2.4,3.8c1,1.4,1.5,2.1,2.2,2.8c0.7,0.8,1.3,1.1,1.9,1.2
		L320.3,416.5z M310.3,408c1.3,0,2.2-0.2,2.9-0.8c1-0.8,1.4-1.8,1.4-3.2c0-2.8-1.8-3.8-3.8-3.8c-0.8,0-1.2,0.1-1.4,0.3
		c-0.2,0.1-0.3,0.4-0.3,1.1v6.4H310.3z"/>
	<path fill="#000000" d="M330,416.6c-0.5,0-1.1-0.2-1.4-0.5c-0.4-0.3-0.5-0.7-0.6-1.1c-1.1,0.7-2.3,1.6-3.1,1.6c-2,0-3.3-1.6-3.3-3.2
		c0-1.3,0.7-2.1,2.2-2.6c1.7-0.5,3.5-1.2,4.1-1.7v-0.5c0-1.9-0.9-2.9-2.1-2.9c-0.5,0-0.9,0.2-1.1,0.5c-0.3,0.3-0.6,0.9-0.8,1.8
		c-0.2,0.5-0.4,0.6-0.9,0.6c-0.5,0-1.2-0.5-1.2-1.2c0-0.4,0.3-0.7,0.9-1.1c0.8-0.6,2.6-1.6,4.1-1.8c0.8,0,1.6,0.2,2.2,0.7
		c1,0.8,1.3,1.9,1.3,3.3v4.7c0,1.2,0.5,1.6,0.9,1.6c0.3,0,0.7-0.1,0.9-0.3l0.3,0.7L330,416.6z M327.9,410c-0.5,0.3-1.6,0.8-2.2,1
		c-1,0.4-1.6,1-1.6,1.9c0,1.4,1,2,1.8,2c0.6,0,1.5-0.4,1.9-0.9V410z"/>
	<path fill="#000000" d="M347.9,416.3v-0.7c1.5-0.2,1.8-0.3,1.8-2.1v-4.2c0-2-0.8-3-2.3-3c-0.9,0-1.8,0.5-2.8,1.3c0,0.3,0.1,0.6,0.1,1.1v5
		c0,1.6,0.3,1.8,1.7,2v0.7h-5.8v-0.7c1.6-0.2,1.8-0.3,1.8-2v-4.4c0-2-0.7-3-2.3-3c-1,0-2,0.7-2.8,1.3v6.1c0,1.7,0.2,1.8,1.4,2v0.7
		H333v-0.7c1.7-0.2,2-0.3,2-2v-5.3c0-1.7-0.1-1.8-1.6-2.1v-0.7c1.1-0.2,2.6-0.5,3.9-1v2.1c0.6-0.4,1.1-0.9,1.9-1.3
		c0.7-0.4,1.4-0.7,2.2-0.7c1.3,0,2.4,0.8,3,2.1c0.8-0.6,1.5-1.1,2.2-1.5c0.6-0.4,1.3-0.7,2-0.7c2.1,0,3.5,1.4,3.5,4.1v4.9
		c0,1.7,0.2,1.8,1.7,2v0.7H347.9z"/>
	<path fill="#000000" d="M363.5,416.6c-0.5,0-1.1-0.2-1.4-0.5c-0.4-0.3-0.5-0.7-0.6-1.1c-1.1,0.7-2.3,1.6-3.1,1.6c-2,0-3.3-1.6-3.3-3.2
		c0-1.3,0.7-2.1,2.2-2.6c1.7-0.5,3.5-1.2,4.1-1.7v-0.5c0-1.9-0.9-2.9-2.1-2.9c-0.5,0-0.9,0.2-1.1,0.5c-0.3,0.3-0.6,0.9-0.8,1.8
		c-0.2,0.5-0.4,0.6-0.9,0.6c-0.5,0-1.2-0.5-1.2-1.2c0-0.4,0.3-0.7,0.9-1.1c0.8-0.6,2.6-1.6,4.1-1.8c0.8,0,1.6,0.2,2.2,0.7
		c1,0.8,1.3,1.9,1.3,3.3v4.7c0,1.2,0.5,1.6,0.9,1.6c0.3,0,0.7-0.1,0.9-0.3l0.3,0.7L363.5,416.6z M361.5,410c-0.5,0.3-1.6,0.8-2.2,1
		c-1,0.4-1.6,1-1.6,1.9c0,1.4,1,2,1.8,2c0.6,0,1.5-0.4,1.9-0.9V410z"/>
	<path fill="#000000" d="M380,415.6c-0.6,0.1-2.6,0.4-4.3,1v-1.7l-1.6,0.9c-1.1,0.6-1.8,0.8-2,0.8c-2.2,0-5.1-1.9-5.1-5.6c0-3.6,3.3-6.5,7-6.5
		c0.4,0,1.1,0.1,1.7,0.3v-3.7c0-1.7-0.2-1.8-2.1-1.9v-0.7c1.5-0.2,3.3-0.6,4.4-0.9v15.5c0,1.4,0.2,1.6,1.3,1.7l0.8,0.1V415.6z
		 M375.7,407c-0.6-0.9-1.7-1.4-2.7-1.4c-1.1,0-3.3,0.9-3.3,4.7c0,3.1,2,4.6,3.6,4.6c0.9,0,1.8-0.4,2.4-0.8V407z"/>
	<path fill="#000000" d="M389.7,416.6c-0.5,0-1.1-0.2-1.4-0.5c-0.4-0.3-0.5-0.7-0.6-1.1c-1.1,0.7-2.3,1.6-3.1,1.6c-2,0-3.3-1.6-3.3-3.2
		c0-1.3,0.7-2.1,2.2-2.6c1.7-0.5,3.5-1.2,4.1-1.7v-0.5c0-1.9-0.9-2.9-2.1-2.9c-0.5,0-0.9,0.2-1.1,0.5c-0.3,0.3-0.6,0.9-0.8,1.8
		c-0.2,0.5-0.4,0.6-0.9,0.6c-0.5,0-1.2-0.5-1.2-1.2c0-0.4,0.3-0.7,0.9-1.1c0.8-0.6,2.6-1.6,4.1-1.8c0.8,0,1.6,0.2,2.2,0.7
		c1,0.8,1.3,1.9,1.3,3.3v4.7c0,1.2,0.5,1.6,0.9,1.6c0.3,0,0.7-0.1,0.9-0.3l0.3,0.7L389.7,416.6z M387.6,410c-0.5,0.3-1.6,0.8-2.2,1
		c-1,0.4-1.6,1-1.6,1.9c0,1.4,1,2,1.8,2c0.6,0,1.5-0.4,1.9-0.9V410z"/>
	<path fill="#000000" d="M400.4,416.3v-0.7c1.5-0.2,1.7-0.4,1.7-2.2v-4.3c0-1.8-0.7-2.9-2.4-2.9c-1,0-2,0.6-2.8,1.3v6c0,1.8,0.1,1.9,1.7,2.1v0.7
		h-5.9v-0.7c1.8-0.2,1.9-0.3,1.9-2.1v-5.3c0-1.7-0.2-1.8-1.6-2.1v-0.7c1.3-0.2,2.6-0.5,3.9-1v2.1c0.5-0.4,1.1-0.8,1.8-1.3
		c0.8-0.5,1.4-0.8,2.2-0.8c2.1,0,3.5,1.5,3.5,4.1v4.9c0,1.8,0.2,1.9,1.7,2.1v0.7H400.4z"/>
	<path fill="#000000" d="M429.9,416.3v-0.8c2.2-0.2,2.3-0.4,2.2-3.1l-0.1-10.5H432l-6.5,14.2h-0.5l-6-13.9h-0.1l-0.4,7.3c-0.1,2.2-0.1,3.3-0.1,4.3
		c0.1,1.2,0.7,1.4,2.4,1.6v0.8h-6.3v-0.8c1.5-0.1,2.1-0.5,2.3-1.6c0.1-0.9,0.3-2,0.5-4.8l0.4-5.3c0.2-3.4,0.1-3.5-2.3-3.8v-0.8h4.6
		l6.1,12.9l6.1-12.9h4.7v0.8c-2.3,0.2-2.5,0.3-2.4,2.9l0.3,9.4c0.1,2.8,0.2,2.9,2.5,3.1v0.8H429.9z"/>
	<path fill="#000000" d="M451.1,415.7c-0.6,0.1-1.4,0.2-2.1,0.4c-0.7,0.2-1.4,0.4-2,0.5l-0.2-0.1v-1.9c-0.6,0.4-1.1,0.9-1.9,1.3
		c-0.8,0.4-1.4,0.7-2.1,0.7c-1.9,0-3.4-1.1-3.4-3.9v-5c0-1.4-0.2-1.6-0.9-1.7l-0.7-0.2v-0.6c0.5,0,1.3-0.1,2-0.2
		c0.8-0.1,1.5-0.2,2-0.3c-0.1,0.8-0.1,2.1-0.1,3.8v3.5c0,2.2,1.1,2.9,2.3,2.9c0.9,0,1.9-0.4,2.7-1.2v-6c0-1.4-0.2-1.6-1.1-1.7
		l-0.9-0.2v-0.6c0.8,0,1.7-0.1,2.5-0.2c0.8-0.1,1.4-0.2,1.8-0.3v8.6c0,1.4,0.2,1.5,1.3,1.6l0.7,0V415.7z"/>
	<path fill="#000000" d="M457.5,404.9c0.5-0.2,0.9-0.3,1.2-0.3c2.9,0,5.3,2.4,5.3,5.5c0,3.8-3.2,6.5-6.8,6.5c-1.1,0-2.5-0.3-4.1-0.9v-14.4
		c0-1.6-0.1-1.8-1.8-2v-0.6c1.3-0.2,3-0.6,4.1-0.9v8L457.5,404.9z M455.6,413.2c0,0.4,0.1,0.7,0.2,0.9c0.2,0.5,1,1.4,2.3,1.4
		c2.1,0,3.5-1.7,3.5-4.8c0-3-1.9-4.7-4-4.7c-0.7,0-1.5,0.2-2,0.4V413.2z"/>
	<path fill="#000000" d="M474.6,416.6c-0.5,0-1.1-0.2-1.4-0.5c-0.4-0.3-0.5-0.7-0.6-1.1c-1.1,0.7-2.3,1.6-3.1,1.6c-2,0-3.3-1.6-3.3-3.2
		c0-1.3,0.7-2.1,2.2-2.6c1.7-0.5,3.5-1.2,4.1-1.7v-0.5c0-1.9-0.9-2.9-2.1-2.9c-0.5,0-0.9,0.2-1.1,0.5c-0.3,0.3-0.6,0.9-0.8,1.8
		c-0.2,0.5-0.4,0.6-0.9,0.6c-0.5,0-1.2-0.5-1.2-1.2c0-0.4,0.3-0.7,0.9-1.1c0.8-0.6,2.6-1.6,4.1-1.8c0.8,0,1.6,0.2,2.2,0.7
		c1,0.8,1.3,1.9,1.3,3.3v4.7c0,1.2,0.5,1.6,0.9,1.6c0.3,0,0.7-0.1,0.9-0.3l0.3,0.7L474.6,416.6z M472.5,410c-0.5,0.3-1.6,0.8-2.2,1
		c-1,0.4-1.6,1-1.6,1.9c0,1.4,1,2,1.8,2c0.6,0,1.5-0.4,1.9-0.9V410z"/>
	<path fill="#000000" d="M481.9,407.4c0.9-1.4,2-2.8,3.2-2.8c1,0,1.6,0.7,1.6,1.3c0,0.6-0.4,1.1-0.9,1.4c-0.3,0.1-0.6,0.1-0.7-0.1
		c-0.4-0.4-0.7-0.5-1.2-0.5c-0.7,0-1.5,0.8-2.1,2.2v4.7c0,1.7,0.1,1.9,2.2,2v0.7h-6.3v-0.7c1.6-0.2,1.8-0.3,1.8-2v-5.4
		c0-1.7-0.1-1.8-1.6-2v-0.6c1.3-0.2,2.6-0.5,3.9-1.1L481.9,407.4L481.9,407.4z"/>
	<path fill="#000000" d="M496.3,416.6c-0.5,0-1.1-0.2-1.4-0.5c-0.4-0.3-0.5-0.7-0.6-1.1c-1.1,0.7-2.3,1.6-3.1,1.6c-2,0-3.3-1.6-3.3-3.2
		c0-1.3,0.7-2.1,2.2-2.6c1.7-0.5,3.5-1.2,4.1-1.7v-0.5c0-1.9-0.9-2.9-2.1-2.9c-0.5,0-0.9,0.2-1.1,0.5c-0.3,0.3-0.6,0.9-0.8,1.8
		c-0.2,0.5-0.4,0.6-0.9,0.6c-0.5,0-1.2-0.5-1.2-1.2c0-0.4,0.3-0.7,0.9-1.1c0.8-0.6,2.6-1.6,4.1-1.8c0.8,0,1.6,0.2,2.2,0.7
		c1,0.8,1.3,1.9,1.3,3.3v4.7c0,1.2,0.5,1.6,0.9,1.6c0.3,0,0.7-0.1,0.9-0.3l0.3,0.7L496.3,416.6z M494.2,410c-0.5,0.3-1.6,0.8-2.2,1
		c-1,0.4-1.6,1-1.6,1.9c0,1.4,1,2,1.8,2c0.6,0,1.5-0.4,1.9-0.9V410z"/>
	<path fill="#000000" d="M508.9,416.4c-1.2-1.3-2.9-3.5-4.3-5.1c-0.3-0.4-0.5-0.5-0.8-0.5c-0.1,0-0.2,0-0.4,0v2.8c0,1.7,0.2,1.9,1.9,2.1v0.7h-6.1
		v-0.7c1.8-0.2,1.9-0.4,1.9-2.1v-12.3c0-1.7-0.2-1.8-1.8-2v-0.6c1.3-0.1,2.9-0.6,4-0.9V410c0.8-0.2,1.2-0.5,1.6-0.9
		c0.6-0.6,1.4-1.6,1.8-2.3c0.5-0.8,0.4-1-0.8-1.1V405l5.6-0.2v0.7c-1.8,0.3-2.5,0.6-3.5,1.5c-0.7,0.7-1.1,1.2-2.2,2.4
		c0.6,0.8,3.3,3.9,4.1,4.8c0.9,0.9,1.7,1.4,2.6,1.4v0.7L508.9,416.4z"/>
</g>
<g>
	<g>
		<path fill="#000000" d="M332.2,449.9v-0.6c1.3-0.2,1.5-0.4,1.2-1.2c-0.3-0.8-0.7-1.9-1.2-3.1h-4.6c-0.4,1-0.7,1.8-0.9,2.6
			c-0.5,1.3-0.3,1.5,1.3,1.7v0.6h-4.8v-0.6c1.4-0.2,1.7-0.4,2.5-2.2l4.5-11l0.8-0.2c1.4,3.7,2.8,7.5,4.2,11.2c0.7,1.9,1,2.1,2.4,2.2
			v0.6H332.2z M330.1,438.8L330.1,438.8c-0.7,1.8-1.4,3.6-2.1,5.3h4L330.1,438.8z"/>
		<path fill="#000000" d="M342.5,440.7c0.4-0.2,0.7-0.2,1-0.2c2.4,0,4.3,2,4.3,4.4c0,3.1-2.6,5.3-5.5,5.3c-0.9,0-2-0.2-3.3-0.8v-11.7
			c0-1.3-0.1-1.5-1.4-1.6v-0.5c1-0.1,2.4-0.4,3.3-0.7v6.5L342.5,440.7z M340.9,447.4c0,0.3,0,0.5,0.1,0.7c0.1,0.4,0.8,1.2,1.9,1.2
			c1.7,0,2.8-1.4,2.8-3.9c0-2.4-1.5-3.8-3.2-3.8c-0.6,0-1.2,0.2-1.6,0.4V447.4z"/>
		<path fill="#000000" d="M360.1,449.4c-0.5,0.1-2.1,0.4-3.5,0.8v-1.4l-1.3,0.8c-0.9,0.5-1.4,0.6-1.6,0.6c-1.8,0-4.1-1.5-4.1-4.5
			c0-2.9,2.6-5.2,5.6-5.2c0.3,0,0.9,0.1,1.4,0.2v-3c0-1.4-0.1-1.4-1.7-1.5v-0.5c1.2-0.1,2.7-0.5,3.5-0.7v12.5c0,1.2,0.2,1.3,1,1.3
			l0.6,0.1V449.4z M356.6,442.4c-0.5-0.7-1.4-1.1-2.2-1.1c-0.9,0-2.7,0.8-2.7,3.8c0,2.5,1.6,3.7,2.9,3.7c0.7,0,1.4-0.3,2-0.7V442.4z
			"/>
		<path fill="#000000" d="M371.5,449.4c-0.5,0.1-1.1,0.2-1.7,0.3c-0.6,0.2-1.2,0.3-1.6,0.4l-0.1-0.1v-1.5c-0.5,0.4-0.9,0.7-1.5,1.1
			c-0.6,0.3-1.1,0.5-1.7,0.5c-1.5,0-2.7-0.9-2.7-3.2v-4c0-1.2-0.2-1.3-0.7-1.4l-0.6-0.1v-0.5c0.4,0,1-0.1,1.6-0.1
			c0.6-0.1,1.2-0.2,1.6-0.2c-0.1,0.7-0.1,1.7-0.1,3.1v2.8c0,1.8,0.9,2.3,1.9,2.3c0.8,0,1.5-0.3,2.2-0.9V443c0-1.2-0.2-1.3-0.9-1.4
			l-0.8-0.1v-0.5c0.6,0,1.4-0.1,2-0.2c0.6,0,1.2-0.1,1.5-0.2v7c0,1.1,0.2,1.2,1,1.3l0.6,0V449.4z"/>
		<path fill="#000000" d="M372.2,449.9v-0.6c1.3-0.2,1.5-0.3,1.5-1.7v-9.9c0-1.4-0.1-1.5-1.5-1.6v-0.5c1.2-0.1,2.5-0.5,3.3-0.7v12.8
			c0,1.4,0.2,1.6,1.6,1.7v0.6H372.2z"/>
		<path fill="#000000" d="M383.4,455v-0.6c1.7-0.1,1.8-0.3,1.8-1.7v-3.4l-2.2,0.9c-3.2,0-4.7-2.4-4.7-4.4c0-3,2.8-5.3,5.8-5.3
			c0.8,0.1,1.3,0.2,1.6,0.3c0.3,0.1,0.4,0.1,0.6,0.1c0.2,0,0.5-0.1,0.8-0.2l0.1,0.1c0,0.4-0.1,0.8-0.1,2.3v9.8
			c0,1.4,0.1,1.5,1.6,1.7v0.6H383.4z M385.2,442.2c-0.5-0.6-1.4-0.9-2.1-0.9c-1.4,0-2.8,1.2-2.8,3.7c0,2.5,1.8,3.9,3.3,3.9
			c0.7,0,1.1-0.1,1.5-0.3V442.2z"/>
		<path fill="#000000" d="M396.3,450.2c-0.4,0-0.9-0.2-1.1-0.4c-0.3-0.3-0.4-0.6-0.5-0.9c-0.9,0.5-1.9,1.3-2.5,1.3c-1.6,0-2.7-1.3-2.7-2.6
			c0-1.1,0.6-1.7,1.8-2.1c1.4-0.4,2.9-1,3.3-1.4v-0.4c0-1.5-0.7-2.3-1.7-2.3c-0.4,0-0.7,0.1-0.9,0.4c-0.3,0.3-0.5,0.8-0.7,1.4
			c-0.1,0.4-0.4,0.5-0.7,0.5c-0.4,0-1-0.4-1-0.9c0-0.3,0.3-0.6,0.7-0.9c0.6-0.4,2.1-1.3,3.3-1.5c0.7,0,1.3,0.2,1.8,0.5
			c0.8,0.7,1,1.5,1,2.7v3.8c0,0.9,0.4,1.3,0.8,1.3c0.2,0,0.5-0.1,0.8-0.2l0.2,0.6L396.3,450.2z M394.6,444.9
			c-0.4,0.2-1.3,0.6-1.7,0.8c-0.8,0.4-1.3,0.8-1.3,1.6c0,1.1,0.8,1.6,1.5,1.6c0.5,0,1.2-0.3,1.6-0.7V444.9z"/>
		<path fill="#000000" d="M409.6,449.4c-0.5,0.1-2.1,0.4-3.5,0.8v-1.4l-1.3,0.8c-0.9,0.5-1.4,0.6-1.6,0.6c-1.8,0-4.1-1.5-4.1-4.5
			c0-2.9,2.6-5.2,5.6-5.2c0.3,0,0.9,0.1,1.4,0.2v-3c0-1.4-0.1-1.4-1.7-1.5v-0.5c1.2-0.1,2.7-0.5,3.5-0.7v12.5c0,1.2,0.2,1.3,1,1.3
			l0.6,0.1V449.4z M406.1,442.4c-0.5-0.7-1.4-1.1-2.2-1.1c-0.9,0-2.7,0.8-2.7,3.8c0,2.5,1.6,3.7,2.9,3.7c0.7,0,1.4-0.3,2-0.7V442.4z
			"/>
		<path fill="#000000" d="M418.4,448c-1.4,1.8-2.9,2.1-3.6,2.1c-2.6,0-4.2-2.1-4.2-4.5c0-1.4,0.5-2.7,1.4-3.6c0.9-1,2.1-1.6,3.2-1.6h0
			c1.8,0,3.3,1.6,3.3,3.3c0,0.4-0.1,0.6-0.5,0.7c-0.4,0.1-3.1,0.3-5.6,0.4c0,2.7,1.6,3.9,3.1,3.9c0.9,0,1.7-0.3,2.5-1.1L418.4,448z
			 M414.7,441.2c-0.9,0-1.9,0.8-2.2,2.6c1.1,0,2.3,0,3.5,0c0.4,0,0.5-0.1,0.5-0.4C416.5,442.3,415.8,441.2,414.7,441.2L414.7,441.2z
			"/>
		<path fill="#000000" d="M423.1,442.7c0.7-1.2,1.6-2.3,2.6-2.3c0.8,0,1.3,0.6,1.3,1.1c0,0.5-0.3,0.9-0.8,1.1c-0.3,0.1-0.4,0.1-0.6-0.1
			c-0.3-0.3-0.6-0.4-0.9-0.4c-0.5,0-1.2,0.6-1.7,1.8v3.8c0,1.4,0.1,1.5,1.8,1.6v0.6h-5.1v-0.6c1.3-0.1,1.5-0.3,1.5-1.6v-4.4
			c0-1.3-0.1-1.4-1.3-1.6v-0.5c1.1-0.2,2.1-0.4,3.2-0.9L423.1,442.7L423.1,442.7z"/>
		<path fill="#000000" d="M442.3,449.9v-0.6c1.3-0.2,1.5-0.4,1.2-1.2c-0.3-0.8-0.7-1.9-1.2-3.1h-4.6c-0.4,1-0.7,1.8-0.9,2.6
			c-0.5,1.3-0.3,1.5,1.3,1.7v0.6h-4.8v-0.6c1.4-0.2,1.7-0.4,2.5-2.2l4.5-11l0.8-0.2c1.4,3.7,2.8,7.5,4.2,11.2c0.7,1.9,1,2.1,2.4,2.2
			v0.6H442.3z M440.2,438.8L440.2,438.8c-0.7,1.8-1.4,3.6-2.1,5.3h4L440.2,438.8z"/>
		<path fill="#000000" d="M448.5,449.9v-0.6c1.3-0.2,1.5-0.3,1.5-1.7v-9.9c0-1.4-0.1-1.5-1.5-1.6v-0.5c1.2-0.1,2.5-0.5,3.3-0.7v12.8
			c0,1.4,0.2,1.6,1.6,1.7v0.6H448.5z"/>
		<path fill="#000000" d="M462,450c-1-1.1-2.3-2.8-3.5-4.2c-0.3-0.3-0.4-0.4-0.6-0.4c-0.1,0-0.2,0-0.3,0v2.3c0,1.4,0.2,1.5,1.6,1.7v0.6h-5v-0.6
			c1.4-0.2,1.6-0.3,1.6-1.7v-10c0-1.4-0.1-1.5-1.4-1.6v-0.5c1-0.1,2.3-0.4,3.3-0.7v10c0.6-0.1,1-0.4,1.3-0.7
			c0.5-0.4,1.1-1.3,1.5-1.9c0.4-0.6,0.3-0.8-0.6-0.9v-0.6l4.5-0.2v0.5c-1.5,0.2-2,0.5-2.8,1.2c-0.6,0.5-0.9,0.9-1.8,2
			c0.4,0.7,2.7,3.2,3.4,3.9c0.7,0.8,1.3,1.1,2.1,1.2v0.6L462,450z"/>
		<path fill="#000000" d="M472.3,450.2c-0.4,0-0.9-0.2-1.1-0.4c-0.3-0.3-0.4-0.6-0.5-0.9c-0.9,0.5-1.9,1.3-2.5,1.3c-1.6,0-2.7-1.3-2.7-2.6
			c0-1.1,0.6-1.7,1.7-2.1c1.4-0.4,2.9-1,3.3-1.4v-0.4c0-1.5-0.7-2.3-1.7-2.3c-0.4,0-0.7,0.1-0.9,0.4c-0.3,0.3-0.5,0.8-0.7,1.4
			c-0.1,0.4-0.4,0.5-0.7,0.5c-0.4,0-1-0.4-1-0.9c0-0.3,0.3-0.6,0.7-0.9c0.6-0.4,2.1-1.3,3.3-1.5c0.7,0,1.3,0.2,1.8,0.5
			c0.8,0.7,1,1.5,1,2.7v3.8c0,0.9,0.4,1.3,0.8,1.3c0.2,0,0.5-0.1,0.8-0.2l0.2,0.6L472.3,450.2z M470.6,444.9
			c-0.4,0.2-1.3,0.6-1.7,0.8c-0.8,0.4-1.3,0.8-1.3,1.6c0,1.1,0.8,1.6,1.5,1.6c0.5,0,1.2-0.3,1.6-0.7V444.9z"/>
		<path fill="#000000" d="M476.4,440.4c0-0.6,0.1-1.2,0.3-1.7c0.2-0.5,0.6-1.4,1.7-2.3c0.9-0.7,1.7-1,2.7-1.1c1.3,0,2.2,0.6,2.6,1.1
			c1-1,1.9-1.4,2.9-1.5c0.8,0,1.4,0.3,1.8,0.8c0.2,0.2,0.2,0.5,0.1,0.7c-0.1,0.2-0.3,0.4-0.5,0.6c-0.2,0.2-0.5,0.2-0.7,0
			c-0.4-0.4-1.1-0.9-1.8-0.9c-0.5,0-0.9,0.3-1.1,0.7c-0.2,0.4-0.4,1.4-0.4,3.3l0,0.8h2.6c0.1,0.2,0.1,0.7-0.2,0.9h-2.4v6.2
			c0,1.4,0.2,1.5,1.8,1.6v0.5H481v-0.5c1.1-0.1,1.3-0.3,1.3-1.7v-6.1h-4v6.2c0,1.3,0.2,1.5,1.4,1.6v0.5H475v-0.6
			c1.3-0.1,1.5-0.3,1.5-1.6v-6.2h-1.5l-0.1-0.2l0.6-0.6h1V440.4z M482.3,440.3c0-0.7,0.1-1.2,0.2-1.5c0.1-0.4,0.2-0.7,0.4-1
			c-0.4-0.7-1.3-1.5-2.4-1.5c-0.8,0-1.3,0.5-1.5,1c-0.3,0.6-0.6,1.4-0.6,3v0.6h4V440.3z"/>
	</g>
</g>
<path fill="#000000" d="M273.602,481.306c-0.578-0.576-1.301-1.03-2.174-1.362c-0.873-0.331-1.885-0.497-3.039-0.497
	c-0.663,0-1.463,0.079-2.4,0.238v-6.077h-1.535v17.711c0.706,0.202,1.402,0.354,2.087,0.454s1.301,0.151,1.849,0.151
	c1.153,0,2.166-0.162,3.039-0.486s1.596-0.764,2.174-1.319c0.576-0.555,1.006-1.211,1.287-1.968s0.42-1.561,0.42-2.411
	s-0.139-1.657-0.42-2.422C274.608,482.554,274.178,481.883,273.602,481.306z M272.391,489.167c-0.852,0.829-2.17,1.243-3.958,1.243
	c-0.39,0-0.805-0.032-1.244-0.097c-0.439-0.065-0.84-0.134-1.2-0.206v-8.845c0.447-0.115,0.887-0.194,1.319-0.237
	c0.433-0.044,0.808-0.065,1.125-0.065c0.894,0,1.668,0.112,2.325,0.335c0.656,0.224,1.199,0.545,1.633,0.963
	c0.432,0.418,0.752,0.919,0.961,1.503s0.314,1.243,0.314,1.979C273.667,487.195,273.241,488.338,272.391,489.167z M247.392,479.446
	c-0.62,0-1.297,0.079-2.033,0.238c-0.735,0.158-1.485,0.433-2.249,0.821l-0.065,1.73c0.548-0.303,0.973-0.52,1.276-0.649
	s0.624-0.237,0.962-0.324c0.338-0.086,0.677-0.158,1.016-0.216s0.667-0.087,0.984-0.087c1.139,0,1.982,0.249,2.53,0.746
	s0.822,1.33,0.822,2.498v0.13c-0.332-0.044-0.732-0.087-1.2-0.13c-0.469-0.043-0.876-0.065-1.222-0.065
	c-1.831,0-3.302,0.311-4.412,0.931c-1.11,0.619-1.665,1.644-1.665,3.07c0,0.707,0.155,1.305,0.465,1.795
	c0.31,0.49,0.713,0.88,1.211,1.168s1.067,0.497,1.708,0.627c0.641,0.13,1.308,0.194,2,0.194c0.807,0,1.6-0.072,2.378-0.216
	c0.779-0.145,1.536-0.368,2.271-0.671v-7.028c0-1.585-0.397-2.742-1.189-3.471C250.189,479.811,248.992,479.446,247.392,479.446z
	 M250.636,489.892c-0.375,0.144-0.858,0.267-1.449,0.367c-0.591,0.102-1.183,0.151-1.773,0.151c-0.505,0-0.984-0.035-1.438-0.108
	c-0.454-0.071-0.84-0.197-1.157-0.378c-0.317-0.18-0.57-0.414-0.757-0.703c-0.188-0.288-0.281-0.663-0.281-1.124
	c0-0.52,0.111-0.934,0.335-1.244c0.224-0.31,0.533-0.551,0.93-0.724c0.396-0.174,0.85-0.296,1.362-0.368
	c0.511-0.072,1.041-0.108,1.589-0.108c0.476,0,0.984,0.029,1.524,0.087c0.541,0.058,0.912,0.108,1.114,0.151V489.892z
	 M258.032,479.868c-0.649,0.122-1.276,0.263-1.881,0.422v11.418h1.535v-10.186c0.202-0.072,0.563-0.147,1.082-0.228
	c0.519-0.079,1.002-0.118,1.449-0.118h1.989v-1.492H260C259.336,479.685,258.681,479.746,258.032,479.868z M-77.92,487.667
	l241.145,0.656l0.663-0.433l-0.632-0.564L-77.92,487.667z M164.994,487.825l1.95,1.95l1.95-1.95l-1.95-1.95L164.994,487.825z
	 M169.559,487.825l3.057,3.057l3.057-3.057l-3.057-3.057L169.559,487.825z M212.359,489.286l-3.395-9.602h-1.514l-3.396,9.602
	l-2.984-9.602h-1.73l3.979,12.023h1.428l3.46-9.645l3.46,9.645h1.427l3.979-12.023h-1.73L212.359,489.286z M238.418,489.589
	c-0.317,0-0.591,0.115-0.822,0.346c-0.231,0.23-0.346,0.505-0.346,0.822c0,0.316,0.115,0.591,0.346,0.821
	c0.23,0.23,0.504,0.346,0.822,0.346c0.317,0,0.591-0.115,0.822-0.346c0.23-0.23,0.346-0.505,0.346-0.821
	c0-0.317-0.116-0.592-0.346-0.822C239.009,489.704,238.735,489.589,238.418,489.589z M193.243,489.286l-3.395-9.602h-1.514
	l-3.396,9.602l-2.984-9.602h-1.73l3.979,12.023h1.428l3.46-9.645l3.46,9.645h1.427l3.979-12.023h-1.73L193.243,489.286z
	 M231.476,489.286l-3.395-9.602h-1.514l-3.396,9.602l-2.984-9.602h-1.73l3.979,12.023h1.428l3.46-9.645l3.46,9.645h1.427
	l3.979-12.023h-1.73L231.476,489.286z M382.732,480.474c-0.426-0.396-0.938-0.667-1.535-0.812c-0.598-0.144-1.271-0.216-2.021-0.216
	c-0.664,0-1.393,0.09-2.184,0.271c-0.793,0.181-1.471,0.4-2.033,0.659c-0.346-0.331-0.818-0.569-1.416-0.714
	c-0.6-0.144-1.273-0.216-2.023-0.216c-0.635,0-1.268,0.058-1.902,0.173l-2.465,0.454v11.635h1.535v-10.38
	c0.447-0.102,0.883-0.188,1.309-0.26c0.424-0.072,0.896-0.108,1.416-0.108c0.605,0,1.125,0.058,1.557,0.173
	c0.434,0.116,0.789,0.321,1.07,0.616c0.281,0.296,0.494,0.711,0.639,1.244s0.217,1.24,0.217,2.119v6.596h1.535v-7.201
	c0-0.663-0.055-1.243-0.162-1.741c-0.109-0.497-0.213-0.861-0.314-1.092c0.086-0.043,0.281-0.119,0.584-0.228
	c0.303-0.107,0.602-0.197,0.898-0.27c0.295-0.072,0.586-0.126,0.875-0.162s0.547-0.055,0.779-0.055c0.59,0,1.102,0.058,1.535,0.173
	c0.432,0.116,0.781,0.317,1.049,0.605c0.266,0.289,0.471,0.703,0.615,1.244c0.145,0.54,0.217,1.251,0.217,2.13v6.596h1.535v-7.201
	c0-0.995-0.111-1.816-0.336-2.466C383.482,481.393,383.158,480.87,382.732,480.474z M280.1,474.581
	c-0.785,0.648-1.18,1.729-1.18,3.243v1.86h-2.551v1.492h2.551v10.531h1.537v-10.531h4.973v-1.492h-4.973v-1.471
	c0-0.635,0.045-1.149,0.141-1.546c0.094-0.396,0.24-0.707,0.443-0.931c0.201-0.223,0.475-0.385,0.82-0.486
	c0.346-0.101,0.779-0.151,1.299-0.151h2.422v-1.492h-2.271C281.956,473.607,280.885,473.932,280.1,474.581z M398.273,487.825
	l3.057,3.057l3.057-3.057l-3.057-3.057L398.273,487.825z M343.322,482.322c0.389-0.418,0.854-0.749,1.395-0.994
	s1.135-0.368,1.783-0.368c0.736,0,1.373,0.076,1.914,0.228s1.121,0.414,1.74,0.789l0.715-1.405c-0.707-0.39-1.393-0.674-2.055-0.854
	c-0.664-0.181-1.436-0.271-2.314-0.271c-0.85,0-1.639,0.155-2.367,0.465c-0.729,0.311-1.367,0.746-1.914,1.309
	c-0.549,0.563-0.98,1.222-1.297,1.979c-0.317,0.757-0.476,1.59-0.476,2.498s0.158,1.74,0.476,2.497
	c0.316,0.757,0.748,1.413,1.297,1.969c0.547,0.555,1.186,0.987,1.914,1.297c0.729,0.311,1.518,0.465,2.367,0.465
	c0.879,0,1.65-0.09,2.314-0.27c0.662-0.181,1.348-0.466,2.055-0.854l-0.715-1.406c-0.619,0.375-1.199,0.639-1.74,0.79
	s-1.178,0.227-1.914,0.227c-0.648,0-1.242-0.119-1.783-0.356c-0.541-0.238-1.006-0.565-1.395-0.984
	c-0.391-0.418-0.693-0.915-0.908-1.492c-0.217-0.576-0.324-1.203-0.324-1.881s0.107-1.305,0.324-1.882
	C342.628,483.238,342.931,482.741,343.322,482.322z M404.387,487.825l1.949,1.95l1.951-1.95l-1.951-1.95L404.387,487.825z
	 M410.701,487.326l-0.664,0.433l0.633,0.564l241.176-0.341L410.701,487.326z M362.611,481.295c-0.549-0.569-1.193-1.02-1.936-1.352
	c-0.742-0.331-1.547-0.497-2.412-0.497c-0.863,0-1.668,0.166-2.41,0.497c-0.742,0.332-1.389,0.782-1.936,1.352
	c-0.549,0.57-0.977,1.229-1.287,1.979c-0.311,0.749-0.465,1.557-0.465,2.422s0.154,1.672,0.465,2.422s0.738,1.409,1.287,1.979
	c0.547,0.569,1.193,1.017,1.936,1.341s1.547,0.486,2.41,0.486c0.865,0,1.67-0.162,2.412-0.486s1.387-0.771,1.936-1.341
	c0.547-0.569,0.977-1.229,1.287-1.979c0.309-0.75,0.465-1.557,0.465-2.422s-0.156-1.673-0.465-2.422
	C363.587,482.524,363.158,481.865,362.611,481.295z M362.394,487.523c-0.217,0.569-0.52,1.067-0.908,1.492
	c-0.389,0.426-0.857,0.765-1.406,1.017c-0.547,0.252-1.152,0.378-1.816,0.378c-0.662,0-1.268-0.126-1.816-0.378
	c-0.547-0.252-1.016-0.591-1.404-1.017c-0.391-0.425-0.693-0.923-0.908-1.492c-0.217-0.569-0.324-1.179-0.324-1.827
	c0-0.649,0.107-1.262,0.324-1.839c0.215-0.576,0.518-1.077,0.908-1.503c0.389-0.425,0.857-0.764,1.404-1.016
	c0.549-0.252,1.154-0.379,1.816-0.379c0.664,0,1.27,0.127,1.816,0.379c0.549,0.252,1.018,0.591,1.406,1.016
	c0.389,0.426,0.691,0.927,0.908,1.503c0.217,0.577,0.324,1.189,0.324,1.839C362.718,486.345,362.611,486.954,362.394,487.523z
	 M296.221,481.295c-0.547-0.569-1.191-1.02-1.936-1.352c-0.742-0.331-1.545-0.497-2.41-0.497s-1.67,0.166-2.412,0.497
	c-0.742,0.332-1.387,0.782-1.936,1.352c-0.547,0.57-0.977,1.229-1.285,1.979c-0.311,0.749-0.465,1.557-0.465,2.422
	s0.154,1.672,0.465,2.422c0.309,0.75,0.738,1.409,1.285,1.979c0.549,0.569,1.193,1.017,1.936,1.341s1.547,0.486,2.412,0.486
	s1.668-0.162,2.41-0.486c0.744-0.324,1.389-0.771,1.936-1.341c0.549-0.569,0.977-1.229,1.287-1.979s0.465-1.557,0.465-2.422
	s-0.154-1.673-0.465-2.422C297.198,482.524,296.77,481.865,296.221,481.295z M296.006,487.523c-0.217,0.569-0.52,1.067-0.908,1.492
	c-0.391,0.426-0.859,0.765-1.406,1.017c-0.549,0.252-1.154,0.378-1.816,0.378c-0.664,0-1.27-0.126-1.816-0.378
	c-0.549-0.252-1.018-0.591-1.406-1.017c-0.389-0.425-0.691-0.923-0.908-1.492s-0.324-1.179-0.324-1.827
	c0-0.649,0.107-1.262,0.324-1.839c0.217-0.576,0.52-1.077,0.908-1.503c0.389-0.425,0.857-0.764,1.406-1.016
	c0.547-0.252,1.152-0.379,1.816-0.379c0.662,0,1.268,0.127,1.816,0.379c0.547,0.252,1.016,0.591,1.406,1.016
	c0.389,0.426,0.691,0.927,0.908,1.503c0.215,0.577,0.324,1.189,0.324,1.839C296.331,486.345,296.221,486.954,296.006,487.523z
	 M309.381,480.463c-0.455-0.39-0.996-0.656-1.623-0.801c-0.627-0.144-1.309-0.216-2.043-0.216c-0.707,0-1.465,0.047-2.271,0.141
	s-1.701,0.234-2.682,0.422v11.699h1.535v-10.402c1.184-0.23,2.293-0.346,3.33-0.346c0.592,0,1.111,0.062,1.559,0.184
	c0.445,0.123,0.818,0.332,1.113,0.628c0.295,0.295,0.525,0.713,0.691,1.254s0.25,1.251,0.25,2.13v6.553h1.535v-7.201
	c0-0.995-0.119-1.82-0.357-2.477C310.18,481.375,309.834,480.852,309.381,480.463z M318.516,490.054
	c-0.346-0.108-0.619-0.277-0.82-0.509c-0.203-0.23-0.35-0.547-0.443-0.951c-0.096-0.403-0.141-0.922-0.141-1.557v-5.86h4.973v-1.492
	h-4.973v-4.347h-1.537v4.347h-2.551v1.492h2.551v6.466c0,0.764,0.109,1.405,0.326,1.925c0.215,0.519,0.525,0.937,0.93,1.254
	c0.402,0.317,0.867,0.544,1.395,0.682c0.525,0.137,1.105,0.205,1.74,0.205h2.271v-1.492h-2.422
	C319.295,490.216,318.862,490.162,318.516,490.054z M337.784,489.589c-0.316,0-0.59,0.115-0.82,0.346s-0.346,0.505-0.346,0.822
	c0,0.316,0.115,0.591,0.346,0.821s0.504,0.346,0.82,0.346c0.318,0,0.592-0.115,0.822-0.346s0.346-0.505,0.346-0.821
	c0-0.317-0.115-0.592-0.346-0.822S338.102,489.589,337.784,489.589z M333.178,486.106c-0.346-0.303-0.785-0.565-1.318-0.789
	c-0.533-0.223-1.182-0.422-1.947-0.595l-0.799-0.173c-1.053-0.216-1.781-0.461-2.184-0.735c-0.404-0.273-0.607-0.678-0.607-1.211
	c0-0.504,0.238-0.904,0.715-1.2c0.475-0.295,1.174-0.443,2.098-0.443c0.793,0,1.477,0.076,2.055,0.228
	c0.576,0.151,1.217,0.421,1.924,0.811l0.691-1.405c-1.412-0.765-2.969-1.146-4.67-1.146c-0.635,0-1.223,0.076-1.764,0.228
	c-0.539,0.151-1.008,0.364-1.404,0.638s-0.711,0.605-0.941,0.994c-0.23,0.39-0.346,0.815-0.346,1.276
	c0,0.462,0.072,0.88,0.217,1.254c0.143,0.375,0.381,0.707,0.713,0.995s0.758,0.537,1.275,0.746c0.52,0.209,1.146,0.4,1.883,0.573
	l0.908,0.194c1.008,0.217,1.729,0.49,2.162,0.822c0.432,0.331,0.648,0.771,0.648,1.318c0,0.39-0.086,0.707-0.26,0.952
	c-0.172,0.245-0.414,0.436-0.725,0.573c-0.311,0.137-0.678,0.237-1.102,0.303c-0.426,0.064-0.877,0.097-1.352,0.097
	c-0.592,0-1.223-0.09-1.893-0.271c-0.67-0.18-1.352-0.479-2.045-0.897l-0.734,1.471c0.779,0.433,1.539,0.742,2.281,0.93
	s1.539,0.281,2.391,0.281c0.748,0,1.434-0.072,2.053-0.216c0.621-0.145,1.158-0.36,1.611-0.648c0.455-0.289,0.805-0.649,1.049-1.082
	c0.246-0.433,0.369-0.93,0.369-1.492c0-0.476-0.072-0.915-0.217-1.318C333.77,486.763,333.526,486.41,333.178,486.106z"/>
</svg>

