<?xml version="1.0" encoding="utf-8"?>
<!-- Generator: Adobe Illustrator 22.1.0, SVG Export Plug-In . SVG Version: 6.00 Build 0)  -->
<svg version="1.1" id="Layer_1" xmlns="http://www.w3.org/2000/svg" xmlns:xlink="http://www.w3.org/1999/xlink" x="0px" y="0px"
	 viewBox="0 0 800 500" style="enable-background:new 0 0 800 500;" xml:space="preserve">
<style type="text/css">
	.st0{opacity:0.33;}
</style>
<g>
	<g>
		<g>
			<path fill="#000000" d="M207.7,187.7c0.2,0.2,0.5,0.3,0.8,0.3h17.2v-21.7h2.2V188h3.8v2.2h-23.3c-1,0-1.8-0.3-2.4-1c-0.6-0.6-1-1.4-1-2.4v-9.4
				h2.2v9.4C207.3,187.2,207.5,187.5,207.7,187.7z M218.8,166.7l1.2,1.1l-4,3.9c0.5,0.1,1,0.2,1.5,0.4c0.5,0.1,0.9,0.4,1.2,0.7
				c0.4,0.3,0.6,0.7,0.9,1.1c0.2,0.4,0.3,1,0.3,1.7v3.3h-7.8v-1.6h6.3v-1.7c0-0.6-0.1-1-0.4-1.3c-0.3-0.3-0.6-0.6-1-0.7
				s-0.9-0.3-1.4-0.3c-0.5,0-1-0.1-1.4-0.1l-0.4-1.4L218.8,166.7z"/>
			<path fill="#000000" d="M238.2,166.3v24h-6.7c-0.3,0-0.6-0.1-0.8-0.3c-0.2-0.2-0.3-0.5-0.3-0.8c0-0.3,0.1-0.6,0.3-0.8c0.2-0.2,0.5-0.3,0.8-0.3
				h4.5v-21.7H238.2z"/>
			<path fill="#000000" d="M249.3,187.8H247l-2.3-19.3h2.3L249.3,187.8z M258.3,166.3V188h4.3v2.2H258c-0.4,1.5-1.1,2.5-2.3,3.1
				c-1.1,0.6-2.5,0.9-4,0.9c-1.6,0-3.3-0.3-5.1-0.9l0.7-2.1c0.7,0.2,1.4,0.4,2.1,0.5c0.7,0.1,1.4,0.2,2.1,0.2c0.6,0,1.2-0.1,1.7-0.2
				c0.6-0.1,1-0.3,1.5-0.6c0.4-0.3,0.7-0.7,1-1.2c0.2-0.5,0.4-1.1,0.4-1.8v-21.9H258.3z"/>
			<path fill="#000000" d="M276.6,178c0.7,0.7,1,1.4,1,2.4v7.6h5.8v-7.6c0-2-0.5-3.5-1.4-4.3c-1-0.9-2.2-1.3-3.6-1.3c-1.1,0-2.3,0.2-3.6,0.5
				c-0.1-0.3-0.2-0.6-0.2-0.9c-0.1-0.3-0.1-0.6-0.2-0.9c0.9-0.3,1.7-0.5,2.5-0.6c0.8-0.1,1.5-0.2,2.2-0.2c2,0,3.6,0.6,4.8,1.9
				c1.2,1.3,1.8,3.2,1.8,6v9.8h-23.3c-0.3,0-0.6-0.1-0.8-0.3c-0.2-0.2-0.3-0.5-0.3-0.8c0-0.3,0.1-0.6,0.3-0.8
				c0.2-0.2,0.5-0.3,0.8-0.3h5.1c-1-1.2-1.5-2.6-1.5-4.2c0-0.9,0.2-1.7,0.5-2.5c0.3-0.8,0.8-1.5,1.4-2.2c0.6-0.6,1.3-1.1,2.1-1.5
				c0.8-0.4,1.7-0.6,2.6-0.6h1.7C275.1,177,275.9,177.3,276.6,178z M270.8,179.6c-0.5,0.3-1,0.6-1.4,1c-0.4,0.4-0.7,0.9-0.9,1.5
				c-0.2,0.6-0.3,1.1-0.3,1.7c0,1.1,0.4,2.1,1.2,2.9c0.8,0.8,1.8,1.2,3.2,1.2h2.8v-7.6c0-0.3-0.1-0.6-0.3-0.8
				c-0.2-0.2-0.5-0.3-0.8-0.3h-1.7C271.9,179.2,271.3,179.4,270.8,179.6z"/>
			<path fill="#000000" d="M306.9,161.2v1.1l-8,1.1v-1.1L306.9,161.2z M302.9,165.5c0.2,0,0.3,0,0.5-0.1c0,0.1,0,0.3,0,0.4v0.3
				c0,0.7,0.1,1.2,0.4,1.5c0.2,0.3,0.5,0.5,0.7,0.5c0.2,0,0.4-0.2,0.6-0.5c0.2-0.3,0.3-0.8,0.3-1.5c0-0.1,0-0.3,0-0.5s0-0.4-0.1-0.6
				c0.4-0.1,0.8-0.1,1.1-0.2c0,0.1,0,0.3,0,0.5v0.6c0,0.9-0.2,1.7-0.5,2.3c-0.3,0.6-0.8,0.9-1.5,0.9c-0.3,0-0.5-0.1-0.8-0.2
				c-0.3-0.2-0.5-0.4-0.6-0.6c-0.1,0.4-0.4,0.7-0.7,1c-0.3,0.2-0.6,0.4-0.9,0.4c-0.6,0-1.1-0.2-1.5-0.7c-0.4-0.5-0.6-1.1-0.6-1.9
				c0-0.3,0-0.7,0.1-1l1.1-0.2l-0.1,0.6c0,0.2,0,0.4,0,0.6c0,0.5,0.1,0.8,0.3,1.1c0.2,0.3,0.4,0.4,0.6,0.4c0.2,0,0.5-0.2,0.7-0.5
				c0.2-0.3,0.3-0.9,0.3-1.5v-0.5c0-0.2,0-0.3,0-0.5C302.6,165.6,302.7,165.5,302.9,165.5z"/>
			<path fill="#000000" d="M319.4,188v2.2h-3.8v3.4c0,1-0.3,1.8-1,2.4c-0.7,0.6-1.4,1-2.4,1h-4.9c-1.1,0-2.1-0.2-3-0.6c-1-0.4-1.8-1-2.5-1.7
				c-0.7-0.7-1.3-1.6-1.7-2.5c-0.4-1-0.6-2-0.6-3v-6.3h2.2v6.3c0,0.8,0.1,1.5,0.4,2.2c0.3,0.7,0.7,1.3,1.2,1.8
				c0.5,0.5,1.1,0.9,1.8,1.2c0.7,0.3,1.4,0.4,2.2,0.4h4.9c0.3,0,0.6-0.1,0.8-0.3c0.2-0.2,0.3-0.5,0.3-0.8v-27.3h2.2V188H319.4z"/>
			<path fill="#000000" d="M333.5,178c0.7,0.7,1,1.4,1,2.4v7.6h5.8v-7.6c0-2-0.5-3.5-1.4-4.3c-1-0.9-2.2-1.3-3.6-1.3c-1.1,0-2.3,0.2-3.6,0.5
				c-0.1-0.3-0.2-0.6-0.2-0.9c-0.1-0.3-0.1-0.6-0.2-0.9c0.9-0.3,1.7-0.5,2.5-0.6c0.8-0.1,1.5-0.2,2.2-0.2c2,0,3.6,0.6,4.8,1.9
				c1.2,1.3,1.8,3.2,1.8,6v9.8h-23.3c-0.3,0-0.6-0.1-0.8-0.3c-0.2-0.2-0.3-0.5-0.3-0.8c0-0.3,0.1-0.6,0.3-0.8
				c0.2-0.2,0.5-0.3,0.8-0.3h5.1c-1-1.2-1.5-2.6-1.5-4.2c0-0.9,0.2-1.7,0.5-2.5c0.3-0.8,0.8-1.5,1.4-2.2c0.6-0.6,1.3-1.1,2.1-1.5
				c0.8-0.4,1.7-0.6,2.6-0.6h1.7C332,177,332.8,177.3,333.5,178z M327.6,179.6c-0.5,0.3-1,0.6-1.4,1c-0.4,0.4-0.7,0.9-0.9,1.5
				c-0.2,0.6-0.3,1.1-0.3,1.7c0,1.1,0.4,2.1,1.2,2.9c0.8,0.8,1.8,1.2,3.2,1.2h2.8v-7.6c0-0.3-0.1-0.6-0.3-0.8
				c-0.2-0.2-0.5-0.3-0.8-0.3h-1.7C328.8,179.2,328.2,179.4,327.6,179.6z"/>
			<path fill="#000000" d="M216.6,239.4c-0.7,0.6-1.4,1-2.4,1h-5.4c-1.1,0-2.1-0.2-3-0.6c-1-0.4-1.8-1-2.5-1.7c-0.7-0.7-1.3-1.6-1.7-2.5
				c-0.4-1-0.6-2-0.6-3v-6.3h2.2v6.3c0,0.8,0.1,1.5,0.4,2.2c0.3,0.7,0.7,1.3,1.2,1.8c0.5,0.5,1.1,0.9,1.8,1.2
				c0.7,0.3,1.4,0.4,2.2,0.4h5.4c0.3,0,0.6-0.1,0.8-0.3c0.2-0.2,0.3-0.5,0.3-0.8v-15.2h2.2V237C217.6,237.9,217.2,238.7,216.6,239.4
				z M211,216.2l-1.6,1.6l-2.2-2.2l1.6-1.6L211,216.2z"/>
			<path fill="#000000" d="M226.5,233.6h4.3v2.2h-6.5v-24h2.2V233.6z"/>
			<path fill="#000000" d="M229.7,233.9c0.2-0.2,0.5-0.3,0.8-0.3h9.2v2.2h-9.2c-0.3,0-0.6-0.1-0.8-0.3c-0.2-0.2-0.3-0.5-0.3-0.8
				C229.4,234.4,229.5,234.1,229.7,233.9z"/>
			<path fill="#000000" d="M238.7,233.9c0.2-0.2,0.5-0.3,0.8-0.3h9.2v2.2h-9.2c-0.3,0-0.6-0.1-0.8-0.3c-0.2-0.2-0.3-0.5-0.3-0.8
				C238.4,234.4,238.5,234.1,238.7,233.9z"/>
			<path fill="#000000" d="M247.7,233.9c0.2-0.2,0.5-0.3,0.8-0.3h9.2v2.2h-9.2c-0.3,0-0.6-0.1-0.8-0.3c-0.2-0.2-0.3-0.5-0.3-0.8
				C247.3,234.4,247.4,234.1,247.7,233.9z"/>
			<path fill="#000000" d="M261,222.2h2.2v7.3c2-1.7,3.7-3.1,5-4.1c1.3-1,2.5-1.8,3.4-2.3c0.9-0.5,1.7-0.8,2.4-1c0.7-0.1,1.3-0.2,1.9-0.2
				c0.8,0,1.6,0.2,2.4,0.5c0.7,0.3,1.4,0.7,1.9,1.3c0.6,0.6,1,1.2,1.3,1.9c0.3,0.7,0.5,1.5,0.5,2.4v5.6h3.4v2.2h-28
				c-0.3,0-0.6-0.1-0.8-0.3c-0.2-0.2-0.3-0.5-0.3-0.8c0-0.3,0.1-0.6,0.3-0.8c0.2-0.2,0.5-0.3,0.8-0.3h3.6V222.2z M263.2,233.6h16.6
				V228c0-0.5-0.1-1-0.3-1.5c-0.2-0.5-0.5-0.9-0.8-1.2c-0.3-0.3-0.7-0.6-1.2-0.8c-0.5-0.2-1-0.3-1.5-0.3c-0.4,0-0.8,0-1.2,0.1
				c-0.4,0.1-0.9,0.2-1.4,0.5c-0.6,0.3-1.2,0.7-2.1,1.2c-0.8,0.5-1.8,1.3-3,2.2l-5.1,4V233.6z M275,216.2l-1.6,1.6l-2.2-2.2l1.6-1.6
				L275,216.2z"/>
			<path fill="#000000" d="M284.4,233.9c0.2-0.2,0.5-0.3,0.8-0.3h9.2v2.2h-9.2c-0.3,0-0.6-0.1-0.8-0.3c-0.2-0.2-0.3-0.5-0.3-0.8
				C284.1,234.4,284.2,234.1,284.4,233.9z"/>
			<path fill="#000000" d="M293.3,235.5c-0.2-0.2-0.3-0.5-0.3-0.8c0-0.3,0.1-0.6,0.3-0.8c0.2-0.2,0.5-0.3,0.8-0.3h3.6v-4.9c0-0.9,0.2-1.7,0.6-2.4
				c0.4-0.7,0.9-1.3,1.5-1.8c0.6-0.5,1.4-0.8,2.2-1.1c0.8-0.2,1.7-0.4,2.6-0.4c1.1,0,2.1,0.2,3.2,0.5c1.1,0.4,2,0.9,2.9,1.6v6.7
				c0,1-0.2,1.8-0.5,2.6c-0.3,0.7-0.8,1.3-1.4,1.8c-0.6,0.5-1.2,0.8-2,1c-0.7,0.2-1.5,0.3-2.3,0.3c-1,0-1.9-0.1-2.9-0.4
				c-1-0.3-1.8-0.7-2.6-1.3h-4.9C293.8,235.9,293.5,235.7,293.3,235.5z M302.3,235.1c0.8,0.2,1.5,0.3,2.2,0.3c0.5,0,1-0.1,1.5-0.2
				c0.5-0.1,0.9-0.3,1.3-0.6c0.4-0.3,0.6-0.6,0.9-1.1c0.2-0.4,0.3-0.9,0.3-1.5v-5.6c-1.3-0.7-2.6-1-3.9-1c-0.6,0-1.2,0.1-1.7,0.2
				c-0.6,0.1-1.1,0.4-1.5,0.6c-0.4,0.3-0.8,0.6-1,1.1c-0.3,0.4-0.4,0.9-0.4,1.4v5.3C300.7,234.5,301.5,234.9,302.3,235.1z"/>
			<path fill="#000000" d="M321,221.7v14.8c0,2.2-0.5,3.8-1.5,4.9c-1,1.1-2.4,1.6-4.2,1.6c-1.4,0-3.1-0.3-5-1c0-0.1,0.1-0.2,0.2-0.4
				c0.1-0.2,0.2-0.4,0.2-0.6c0.1-0.2,0.2-0.4,0.2-0.6c0.1-0.2,0.1-0.3,0.2-0.4c1.4,0.5,2.7,0.8,3.9,0.8c1.1,0,2-0.3,2.7-0.9
				c0.7-0.6,1.1-1.7,1.1-3.3v-14.8H321z"/>
			<path fill="#000000" d="M330.4,233.6h4.3v2.2h-6.5v-24h2.2V233.6z"/>
			<path fill="#000000" d="M343,221.7v14.1h-8.5c-0.3,0-0.6-0.1-0.8-0.3c-0.2-0.2-0.3-0.5-0.3-0.8c0-0.3,0.1-0.6,0.3-0.8c0.2-0.2,0.5-0.3,0.8-0.3
				h6.3v-11.9H343z M338.4,240.9l-1.6,1.6l-2.2-2.2l1.6-1.6L338.4,240.9z M343.8,240.9l-1.6,1.6l-2.2-2.2l1.6-1.6L343.8,240.9z"/>
		</g>
	</g>
	<g>
		<path fill="#000000" d="M392,199.9l-22.6-22.6c-0.3-0.3-0.3-0.7,0-1l22.6-22.6c0.3-0.3,0.7-0.3,1,0l22.6,22.6c0.3,0.3,0.3,0.7,0,1L393,199.9
			C392.7,200.2,392.2,200.2,392,199.9z"/>
		<g>
			<g>
				<path fill="#000000" d="M466.9,151.6c7.8,7.2,14.9,6.3,24.2,6.5c16.1,0.4,31.9,2.3,46.8,8.8c10.6,4.6,20.1,10.7,25.7,21.2
					c5.1,9.4,8.3,14.9,7.9,25.9c0,1.1,0.7,2.4,1.5,3.2c8.6,8.6,17,24.1,20.4,35.8c2,6.9,3.8,14.2,3.5,24.3c0,0.2-0.3,0.2-0.3,0
					c-3.3-15.8-10.5-29.6-22.6-41.7c0,1.9-0.1,3,0,4.1c0.9,11.6-1.9,22.5-5.8,33.2c-3.3,9.1-10.2,14.7-18.7,18.4
					c-3.5,1.5-4.5,3.5-4.3,7.2c2.2,38.6-11,72.1-36,100.7c-31.7,36.4-72.7,53.6-120.6,53.7c-53,0.1-103-18.2-143-53.3
					c-17.2-15.2-30-33.4-39.3-54.4c-1.6-3.5-3.7-5.3-1.7-7.5c3,5.2,7.7,11.4,10.8,16.5c20.4,33.1,49.7,55,86.3,67
					c56.7,18.6,114.7,14.4,166.1-16.4c36-21.6,59.3-53.3,69.1-94.6c2.6-10.9,2.2-22,1.9-33.1c0-1.3,0.1-2.5,0-3.8
					c-0.2-3.4,1.4-5.5,4.6-6.7c13.1-5,19.9-15.2,22.6-28.5c0.2-1.1-0.3-6-1-6.6c-5.3-4.5-14-6.5-20.6-8.2c-11-2.9-22.3-2.6-33.5-4.3
					c-10.4-1.6-18.5-4.4-27-10.6c-5.3-3.8-8.5-8.9-11.8-14.5C459.9,173.5,466.6,151.3,466.9,151.6z M478.5,179.4
					C478.5,179.4,478.4,179.4,478.5,179.4c-0.5-0.1-1.5-0.3-1.5-0.2c3.1,4.2,6.2,7.4,10.6,10.1c10.6,6.3,22.4,8.1,34.3,9.5
					c11.5,1.3,23,2.2,33.8,6.8c1.3,0.5,2.6,1.1,3.9,1.6c-1.6-2.9-3.4-5.4-5.6-7.4c-9.4-8.9-21.1-13.8-33.4-16
					C506,181,493.3,181,478.5,179.4z"/>
			</g>
			<g>
				<path fill="#000000" d="M422.7,85.4c12.5,6.3,25.2,5.9,37.7,6.4c16.6,0.6,32.7,3.1,47.6,10.8c12.4,6.5,23.8,16.5,27.8,30.2
					c0.3,0.9,0.9,1.9,1.7,2.5c31.1,23.7,38.8,84.9,38.7,90.3c-0.3,0.2-5.2-3.3-5.5-3.1c-0.5-0.9,1-11.6,0.5-12.5
					c-3-5.5-14.6-36.8-17.6-42.3c-7.3-13.2-18.8-19.6-33.5-21c-13.6-1.3-27.2-2.3-40.8-3.7c-21.7-2.2-35-14.9-42.2-34.8
					c-0.9-2.6-2.1-4.4-4.7-5.8C426.2,99,424.1,92.8,422.7,85.4z M442.9,105.8c-0.3,0.3-0.7,0.6-1,0.8c1.6,2.5,2.9,5.3,5,7.4
					c5.1,4.9,11.4,7.9,18.3,8.9c10,1.5,20.2,2.3,30.3,3.4c10.9,1.2,22,0.6,32.7,5.1c-0.3-0.9-0.4-1.2-0.5-1.4
					c-0.4-0.6-0.9-1.2-1.4-1.7c-6.5-8.1-15.7-11.9-25.2-15.2C482.1,106.5,462.2,108.7,442.9,105.8z"/>
			</g>
		</g>
		<g>
			<g>
				<path fill="#000000" d="M490.5,229.5c-0.2,53.7-27,105.2-72.8,134c-23.3,14.6-50.4,23.3-77.8,25.7c-26.9,2.3-54.2-2.3-79.7-11.1
					c-11.5-4-22.6-9.2-32.4-16.3c-5.6-4.1-10.8-8.9-15.2-14.3c-2.3-2.8-4.8-5.8-6.6-8.9c-0.5-0.9-4-7.1-4.8-5.7
					c-0.5,0.8,1.7,5.2,1.9,5.6c1.3,3,2.8,5.9,4.5,8.7c12.2,20.9,28.1,37.5,50.3,47.6c11.3,5.1,23.3,8.7,35.4,11.6
					c13.8,3.3,27.6,5.6,41.8,5.7c56.1,0.6,111.8-26,142.3-73.8c16.7-26.1,25.3-56.8,25.4-87.8c0-1.7-1.2-4.2-1.9-5.6
					c-1.3-3-2.8-5.9-4.5-8.7c-1.2-2.1-2.5-4.6-4.2-6.3C491.9,229.7,490.5,228,490.5,229.5z"/>
			</g>
		</g>
		<g>
			<g>
				<path fill="#000000" d="M426.6,64.8c21.2,5.2,36.7,12.1,55,23.6c6.1,1.3,15.1,4,20.2,6.6c0.1,0.1,0.2-0.1,0.1-0.2c-18.9-20-56.9-37.2-77.7-42.6
					c-21.3-5.4-43.4-6.1-65-2c-0.9,0.2,4.1,9.5,5.7,9.2C386.1,55.4,405.7,59.6,426.6,64.8z"/>
			</g>
		</g>
		<g>
			<path fill="#000000" d="M392,272.4L356.5,237c-0.3-0.3-0.3-0.7,0-1l35.4-35.4c0.3-0.3,0.7-0.3,1,0l35.4,35.4c0.3,0.3,0.3,0.7,0,1L393,272.4
				C392.7,272.7,392.2,272.7,392,272.4z"/>
		</g>
		<g>
			<path fill="#000000" d="M417.6,81.8c-0.5-2-1.3-6.2-2.8-7.8c-11.9-11.8-27.3-16.3-46.2-19.3c-0.1,0-4.7-1.6-4.8-1.7l-3.1-2.9
				c0-0.1-0.1-0.2-0.3-0.2c-2.5,0.2-19.6,3-27.7,6.2c-0.3,0.1-0.2,0.5,0.1,0.5c10.4-0.8,50.7,4.5,85,29.9
				C418.8,87.3,417.7,82.1,417.6,81.8z"/>
		</g>
	</g>
	<g class="st0">
		<g>
			<path fill="#000000" d="M567.6,315.7c1.3-5.5,2.7-2.8-0.6-2.7c-0.6,0-1.2-0.1-1.7-0.4c-1.9-0.8-3-2.6-3.4-4.5c-1.2-4.7,1.7-10,3.3-14.3
				c0.6-1.5-1.2,0.7-1.3,0.9c-1,1.4-1.9,3.1-2.5,4.7c-1.9,5.1-7.4,15.9-0.4,19.7c5.3,2.9,9.4-4.9,10.4-8.9c0.4-1.5-1.1,0.6-1.3,0.9
				C569.1,312.3,568,314.1,567.6,315.7L567.6,315.7z"/>
		</g>
		<g>
			<path fill="#000000" d="M426.6,412c-2.8,3.1-7.3,1.7-8.5-2.2c-1.1-3.8,1-8.7,2.7-12c2-3.9-0.6-0.8-1.5,1.1c-2.2,4.3-5.1,9.9-4.7,14.8
				c0.5,5.4,6.1,7.1,9.6,3.2c0.9-1,1.7-2.4,2.3-3.7C426.6,413,427.4,411.1,426.6,412L426.6,412z"/>
		</g>
		<g>
			<path fill="#000000" d="M527.9,253.1c-5.2,1.7-8.3-3.5-8.8-7.9c-0.6-5.3,1.5-10.4,3.7-15c0.4-0.8,1.5-2.6,0.1-1.9c-1.4,0.7-2.8,4.2-3.5,5.6
				c-2.6,5.6-5.5,11.7-5.3,18c0.2,5.2,3.3,11.5,9.4,9.5c1.4-0.4,2.7-3.7,3.3-4.9C527.1,256,528.5,252.9,527.9,253.1L527.9,253.1z"/>
		</g>
		<g>
			<path fill="#000000" d="M512.1,337.4c-3.8,4.1-8.7-1.1-9.7-4.8c-1.2-4.6-0.5-10.7,1.5-15.1c0.4-0.8,1.6-2.8,0.1-2c-1.5,0.8-3,4.5-3.7,5.9
				c-2.6,5.8-4.6,12.7-3.3,19.1c1.1,5.4,6.8,9.7,11.3,4.8c1.5-1.7,2.7-3.9,3.7-5.9C512.2,338.9,513.4,335.9,512.1,337.4L512.1,337.4
				z"/>
		</g>
		<path fill="#000000" d="M550.6,240l-4.6,4.6c-0.2,0.2-0.5,0.2-0.8,0l-4.6-4.6c-0.2-0.2-0.2-0.5,0-0.8l4.6-4.6c0.2-0.2,0.5-0.2,0.8,0l4.6,4.6
			C550.8,239.4,550.8,239.8,550.6,240z"/>
		<path fill="#000000" d="M525.1,292.7l-3,3c-0.2,0.2-0.5,0.2-0.8,0l-3-3c-0.2-0.2-0.2-0.5,0-0.8l3-3c0.2-0.2,0.5-0.2,0.8,0l3,3
			C525.3,292.1,525.3,292.5,525.1,292.7z"/>
		<path fill="#000000" d="M511.8,294.6l-3,3c-0.2,0.2-0.5,0.2-0.8,0l-3-3c-0.2-0.2-0.2-0.5,0-0.8l3-3c0.2-0.2,0.5-0.2,0.8,0l3,3
			C512,294,512,294.3,511.8,294.6z"/>
		<path fill="#000000" d="M514.2,283.5l-4.2,4.2c-0.2,0.2-0.5,0.2-0.8,0l-4.2-4.2c-0.2-0.2-0.2-0.5,0-0.8l4.2-4.2c0.2-0.2,0.5-0.2,0.8,0l4.2,4.2
			C514.5,282.9,514.5,283.3,514.2,283.5z"/>
		<path fill="#000000" d="M580.7,266.3l-3,3c-0.2,0.2-0.5,0.2-0.8,0l-3-3c-0.2-0.2-0.2-0.5,0-0.8l3-3c0.2-0.2,0.5-0.2,0.8,0l3,3
			C580.9,265.8,580.9,266.1,580.7,266.3z"/>
		<path fill="#000000" d="M581.3,252.2l-1.9,1.9c-0.2,0.2-0.5,0.2-0.8,0l-1.9-1.9c-0.2-0.2-0.2-0.5,0-0.8l1.9-1.9c0.2-0.2,0.5-0.2,0.8,0l1.9,1.9
			C581.6,251.7,581.6,252,581.3,252.2z"/>
		<path fill="#000000" d="M509.1,306.8l-3,3c-0.2,0.2-0.5,0.2-0.8,0l-3-3c-0.2-0.2-0.2-0.5,0-0.8l3-3c0.2-0.2,0.5-0.2,0.8,0l3,3
			C509.3,306.3,509.3,306.6,509.1,306.8z"/>
		<path fill="#000000" d="M519.7,314.9l-3,3c-0.2,0.2-0.5,0.2-0.8,0l-3-3c-0.2-0.2-0.2-0.5,0-0.8l3-3c0.2-0.2,0.5-0.2,0.8,0l3,3
			C519.9,314.4,519.9,314.7,519.7,314.9z"/>
		<path fill="#000000" d="M554.8,320.1l-3,3c-0.2,0.2-0.5,0.2-0.8,0l-3-3c-0.2-0.2-0.2-0.5,0-0.8l3-3c0.2-0.2,0.5-0.2,0.8,0l3,3
			C555,319.6,555,319.9,554.8,320.1z"/>
		<path fill="#000000" d="M578.9,283.5l-3,3c-0.2,0.2-0.5,0.2-0.8,0l-3-3c-0.2-0.2-0.2-0.5,0-0.8l3-3c0.2-0.2,0.5-0.2,0.8,0l3,3
			C579.1,282.9,579.1,283.3,578.9,283.5z"/>
		<path fill="#000000" d="M574.7,296.9l-3,3c-0.2,0.2-0.5,0.2-0.8,0l-3-3c-0.2-0.2-0.2-0.5,0-0.8l3-3c0.2-0.2,0.5-0.2,0.8,0l3,3
			C574.9,296.4,574.9,296.7,574.7,296.9z"/>
		<path fill="#000000" d="M563.3,333.1l-3,3c-0.2,0.2-0.5,0.2-0.8,0l-3-3c-0.2-0.2-0.2-0.5,0-0.8l3-3c0.2-0.2,0.5-0.2,0.8,0l3,3
			C563.6,332.6,563.6,332.9,563.3,333.1z"/>
		<path fill="#000000" d="M553.3,338.1l-3,3c-0.2,0.2-0.5,0.2-0.8,0l-3-3c-0.2-0.2-0.2-0.5,0-0.8l3-3c0.2-0.2,0.5-0.2,0.8,0l3,3
			C553.6,337.5,553.6,337.9,553.3,338.1z"/>
		<path fill="#000000" d="M528.7,321.9l-3,3c-0.2,0.2-0.5,0.2-0.8,0l-3-3c-0.2-0.2-0.2-0.5,0-0.8l3-3c0.2-0.2,0.5-0.2,0.8,0l3,3
			C528.9,321.4,528.9,321.7,528.7,321.9z"/>
		<path fill="#000000" d="M523.3,333.1l-3,3c-0.2,0.2-0.5,0.2-0.8,0l-3-3c-0.2-0.2-0.2-0.5,0-0.8l3-3c0.2-0.2,0.5-0.2,0.8,0l3,3
			C523.5,332.6,523.5,332.9,523.3,333.1z"/>
		<path fill="#000000" d="M520.1,347.1l-3,3c-0.2,0.2-0.5,0.2-0.8,0l-3-3c-0.2-0.2-0.2-0.5,0-0.8l3-3c0.2-0.2,0.5-0.2,0.8,0l3,3
			C520.3,346.5,520.3,346.9,520.1,347.1z"/>
		<path fill="#000000" d="M516.2,326l-3,3c-0.2,0.2-0.5,0.2-0.8,0l-3-3c-0.2-0.2-0.2-0.5,0-0.8l3-3c0.2-0.2,0.5-0.2,0.8,0l3,3
			C516.4,325.5,516.4,325.8,516.2,326z"/>
		<path fill="#000000" d="M495.5,326l-3,3c-0.2,0.2-0.5,0.2-0.8,0l-3-3c-0.2-0.2-0.2-0.5,0-0.8l3-3c0.2-0.2,0.5-0.2,0.8,0l3,3
			C495.7,325.5,495.7,325.8,495.5,326z"/>
		<path fill="#000000" d="M499,223.5l-3,3c-0.2,0.2-0.5,0.2-0.8,0l-3-3c-0.2-0.2-0.2-0.5,0-0.8l3-3c0.2-0.2,0.5-0.2,0.8,0l3,3
			C499.2,223,499.2,223.3,499,223.5z"/>
		<path fill="#000000" d="M508.1,232.6l-3,3c-0.2,0.2-0.5,0.2-0.8,0l-3-3c-0.2-0.2-0.2-0.5,0-0.8l3-3c0.2-0.2,0.5-0.2,0.8,0l3,3
			C508.3,232,508.3,232.3,508.1,232.6z"/>
		<path fill="#000000" d="M511.8,240l-3,3c-0.2,0.2-0.5,0.2-0.8,0l-3-3c-0.2-0.2-0.2-0.5,0-0.8l3-3c0.2-0.2,0.5-0.2,0.8,0l3,3
			C512,239.4,512,239.8,511.8,240z"/>
		<path fill="#000000" d="M511.8,151.2l-3,3c-0.2,0.2-0.5,0.2-0.8,0l-3-3c-0.2-0.2-0.2-0.5,0-0.8l3-3c0.2-0.2,0.5-0.2,0.8,0l3,3
			C512,150.6,512,151,511.8,151.2z"/>
		<path fill="#000000" d="M452.6,77.6l-3,3c-0.2,0.2-0.5,0.2-0.8,0l-3-3c-0.2-0.2-0.2-0.5,0-0.8l3-3c0.2-0.2,0.5-0.2,0.8,0l3,3
			C452.8,77,452.8,77.4,452.6,77.6z"/>
		<path fill="#000000" d="M463.4,82.9l-3,3c-0.2,0.2-0.5,0.2-0.8,0l-3-3c-0.2-0.2-0.2-0.5,0-0.8l3-3c0.2-0.2,0.5-0.2,0.8,0l3,3
			C463.6,82.4,463.6,82.7,463.4,82.9z"/>
		<path fill="#000000" d="M554.8,250l-3,3c-0.2,0.2-0.5,0.2-0.8,0l-3-3c-0.2-0.2-0.2-0.5,0-0.8l3-3c0.2-0.2,0.5-0.2,0.8,0l3,3
			C555,249.5,555,249.8,554.8,250z"/>
		<path fill="#000000" d="M539.7,252.5l-3,3c-0.2,0.2-0.5,0.2-0.8,0l-3-3c-0.2-0.2-0.2-0.5,0-0.8l3-3c0.2-0.2,0.5-0.2,0.8,0l3,3
			C539.9,252,539.9,252.3,539.7,252.5z"/>
		<path fill="#000000" d="M535.6,261.7l-2.2,2.2c-0.2,0.2-0.5,0.2-0.8,0l-2.2-2.2c-0.2-0.2-0.2-0.5,0-0.8l2.2-2.2c0.2-0.2,0.5-0.2,0.8,0l2.2,2.2
			C535.8,261.2,535.8,261.5,535.6,261.7z"/>
		<path fill="#000000" d="M540.4,157.1l-2.2,2.2c-0.2,0.2-0.5,0.2-0.8,0l-2.2-2.2c-0.2-0.2-0.2-0.5,0-0.8l2.2-2.2c0.2-0.2,0.5-0.2,0.8,0l2.2,2.2
			C540.6,156.5,540.6,156.9,540.4,157.1z"/>
		<path fill="#000000" d="M424.3,69.4l-2.2,2.2c-0.2,0.2-0.5,0.2-0.8,0l-2.2-2.2c-0.2-0.2-0.2-0.5,0-0.8l2.2-2.2c0.2-0.2,0.5-0.2,0.8,0l2.2,2.2
			C424.5,68.8,424.5,69.1,424.3,69.4z"/>
		<path fill="#000000" d="M446.6,85l-2.2,2.2c-0.2,0.2-0.5,0.2-0.8,0l-2.2-2.2c-0.2-0.2-0.2-0.5,0-0.8l2.2-2.2c0.2-0.2,0.5-0.2,0.8,0l2.2,2.2
			C446.8,84.5,446.8,84.8,446.6,85z"/>
		<path fill="#000000" d="M475.3,88l-2.2,2.2c-0.2,0.2-0.5,0.2-0.8,0l-2.2-2.2c-0.2-0.2-0.2-0.5,0-0.8l2.2-2.2c0.2-0.2,0.5-0.2,0.8,0l2.2,2.2
			C475.5,87.4,475.5,87.8,475.3,88z"/>
		<path fill="#000000" d="M484.7,153.1l-2.2,2.2c-0.2,0.2-0.5,0.2-0.8,0l-2.2-2.2c-0.2-0.2-0.2-0.5,0-0.8l2.2-2.2c0.2-0.2,0.5-0.2,0.8,0l2.2,2.2
			C484.9,152.5,484.9,152.8,484.7,153.1z"/>
		<path fill="#000000" d="M503.1,149.2l-2.2,2.2c-0.2,0.2-0.5,0.2-0.8,0l-2.2-2.2c-0.2-0.2-0.2-0.5,0-0.8l2.2-2.2c0.2-0.2,0.5-0.2,0.8,0l2.2,2.2
			C503.3,148.7,503.3,149,503.1,149.2z"/>
		<path fill="#000000" d="M519.3,155.8l-2.2,2.2c-0.2,0.2-0.5,0.2-0.8,0l-2.2-2.2c-0.2-0.2-0.2-0.5,0-0.8l2.2-2.2c0.2-0.2,0.5-0.2,0.8,0l2.2,2.2
			C519.5,155.3,519.5,155.6,519.3,155.8z"/>
		<path fill="#000000" d="M553.4,168.3l-1.9,1.9c-0.2,0.2-0.5,0.2-0.8,0l-1.9-1.9c-0.2-0.2-0.2-0.5,0-0.8l1.9-1.9c0.2-0.2,0.5-0.2,0.8,0l1.9,1.9
			C553.6,167.8,553.6,168.1,553.4,168.3z"/>
		<path fill="#000000" d="M495.5,153.9l-2.2,2.2c-0.2,0.2-0.5,0.2-0.8,0l-2.2-2.2c-0.2-0.2-0.2-0.5,0-0.8l2.2-2.2c0.2-0.2,0.5-0.2,0.8,0l2.2,2.2
			C495.7,153.4,495.7,153.7,495.5,153.9z"/>
		<path fill="#000000" d="M531.3,157.1l-2.2,2.2c-0.2,0.2-0.5,0.2-0.8,0l-2.2-2.2c-0.2-0.2-0.2-0.5,0-0.8l2.2-2.2c0.2-0.2,0.5-0.2,0.8,0l2.2,2.2
			C531.5,156.5,531.5,156.9,531.3,157.1z"/>
		<path fill="#000000" d="M478.1,146.4l-2.2,2.2c-0.2,0.2-0.5,0.2-0.8,0l-2.2-2.2c-0.2-0.2-0.2-0.5,0-0.8l2.2-2.2c0.2-0.2,0.5-0.2,0.8,0l2.2,2.2
			C478.3,145.9,478.3,146.2,478.1,146.4z"/>
		<path fill="#000000" d="M491.4,147.5l-2.2,2.2c-0.2,0.2-0.5,0.2-0.8,0l-2.2-2.2c-0.2-0.2-0.2-0.5,0-0.8l2.2-2.2c0.2-0.2,0.5-0.2,0.8,0l2.2,2.2
			C491.6,147,491.6,147.3,491.4,147.5z"/>
		<path fill="#000000" d="M524,267.4l-2.2,2.2c-0.2,0.2-0.5,0.2-0.8,0l-2.2-2.2c-0.2-0.2-0.2-0.5,0-0.8l2.2-2.2c0.2-0.2,0.5-0.2,0.8,0l2.2,2.2
			C524.2,266.9,524.2,267.2,524,267.4z"/>
		<path fill="#000000" d="M512.2,251.4l-2.2,2.2c-0.2,0.2-0.5,0.2-0.8,0l-2.2-2.2c-0.2-0.2-0.2-0.5,0-0.8l2.2-2.2c0.2-0.2,0.5-0.2,0.8,0l2.2,2.2
			C512.4,250.9,512.4,251.2,512.2,251.4z"/>
		<path fill="#000000" d="M526.7,151.2l-2.2,2.2c-0.2,0.2-0.5,0.2-0.8,0l-2.2-2.2c-0.2-0.2-0.2-0.5,0-0.8l2.2-2.2c0.2-0.2,0.5-0.2,0.8,0l2.2,2.2
			C526.9,150.6,526.9,151,526.7,151.2z"/>
		<path fill="#000000" d="M547.5,258.8l-3,3c-0.2,0.2-0.5,0.2-0.8,0l-3-3c-0.2-0.2-0.2-0.5,0-0.8l3-3c0.2-0.2,0.5-0.2,0.8,0l3,3
			C547.7,258.3,547.7,258.6,547.5,258.8z"/>
		<path fill="#000000" d="M544.3,229.9l-3,3c-0.2,0.2-0.5,0.2-0.8,0l-3-3c-0.2-0.2-0.2-0.5,0-0.8l3-3c0.2-0.2,0.5-0.2,0.8,0l3,3
			C544.5,229.3,544.5,229.7,544.3,229.9z"/>
		<path fill="#000000" d="M561.2,236.1l-3,3c-0.2,0.2-0.5,0.2-0.8,0l-3-3c-0.2-0.2-0.2-0.5,0-0.8l3-3c0.2-0.2,0.5-0.2,0.8,0l3,3
			C561.4,235.6,561.4,235.9,561.2,236.1z"/>
		<path fill="#000000" d="M532.6,241.6l-3,3c-0.2,0.2-0.5,0.2-0.8,0l-3-3c-0.2-0.2-0.2-0.5,0-0.8l3-3c0.2-0.2,0.5-0.2,0.8,0l3,3
			C532.8,241,532.8,241.4,532.6,241.6z"/>
		<path fill="#000000" d="M547.5,162.8l-3,3c-0.2,0.2-0.5,0.2-0.8,0l-3-3c-0.2-0.2-0.2-0.5,0-0.8l3-3c0.2-0.2,0.5-0.2,0.8,0l3,3
			C547.7,162.2,547.7,162.6,547.5,162.8z"/>
		<path fill="#000000" d="M516.2,225.2l-3,3c-0.2,0.2-0.5,0.2-0.8,0l-3-3c-0.2-0.2-0.2-0.5,0-0.8l3-3c0.2-0.2,0.5-0.2,0.8,0l3,3
			C516.4,224.6,516.4,225,516.2,225.2z"/>
		<path fill="#000000" d="M532.6,228.5l-3,3c-0.2,0.2-0.5,0.2-0.8,0l-3-3c-0.2-0.2-0.2-0.5,0-0.8l3-3c0.2-0.2,0.5-0.2,0.8,0l3,3
			C532.8,227.9,532.8,228.3,532.6,228.5z"/>
		<path fill="#000000" d="M534.9,272.1l-3.7,3.7c-0.2,0.2-0.5,0.2-0.8,0l-3.7-3.7c-0.2-0.2-0.2-0.5,0-0.8l3.7-3.7c0.2-0.2,0.5-0.2,0.8,0l3.7,3.7
			C535.2,271.6,535.2,271.9,534.9,272.1z"/>
		<path fill="#000000" d="M491.9,339.9l-3,3c-0.2,0.2-0.5,0.2-0.8,0l-3-3c-0.2-0.2-0.2-0.5,0-0.8l3-3c0.2-0.2,0.5-0.2,0.8,0l3,3
			C492.1,339.4,492.1,339.7,491.9,339.9z"/>
		<path fill="#000000" d="M495.5,350.7l-3,3c-0.2,0.2-0.5,0.2-0.8,0l-3-3c-0.2-0.2-0.2-0.5,0-0.8l3-3c0.2-0.2,0.5-0.2,0.8,0l3,3
			C495.7,350.1,495.7,350.4,495.5,350.7z"/>
		<path fill="#000000" d="M482.6,352l-3,3c-0.2,0.2-0.5,0.2-0.8,0l-3-3c-0.2-0.2-0.2-0.5,0-0.8l3-3c0.2-0.2,0.5-0.2,0.8,0l3,3
			C482.8,351.5,482.8,351.8,482.6,352z"/>
		<path fill="#000000" d="M477.4,364.8l-3,3c-0.2,0.2-0.5,0.2-0.8,0l-3-3c-0.2-0.2-0.2-0.5,0-0.8l3-3c0.2-0.2,0.5-0.2,0.8,0l3,3
			C477.6,364.2,477.6,364.6,477.4,364.8z"/>
		<path fill="#000000" d="M465.6,369l-3,3c-0.2,0.2-0.5,0.2-0.8,0l-3-3c-0.2-0.2-0.2-0.5,0-0.8l3-3c0.2-0.2,0.5-0.2,0.8,0l3,3
			C465.8,368.4,465.8,368.8,465.6,369z"/>
		<path fill="#000000" d="M473.1,377.5l-3,3c-0.2,0.2-0.5,0.2-0.8,0l-3-3c-0.2-0.2-0.2-0.5,0-0.8l3-3c0.2-0.2,0.5-0.2,0.8,0l3,3
			C473.3,376.9,473.3,377.3,473.1,377.5z"/>
		<path fill="#000000" d="M458.6,381l-3,3c-0.2,0.2-0.5,0.2-0.8,0l-3-3c-0.2-0.2-0.2-0.5,0-0.8l3-3c0.2-0.2,0.5-0.2,0.8,0l3,3
			C458.8,380.4,458.8,380.8,458.6,381z"/>
		<path fill="#000000" d="M447.6,385.6l-3,3c-0.2,0.2-0.5,0.2-0.8,0l-3-3c-0.2-0.2-0.2-0.5,0-0.8l3-3c0.2-0.2,0.5-0.2,0.8,0l3,3
			C447.8,385,447.8,385.4,447.6,385.6z"/>
		<path fill="#000000" d="M452.3,393.8l-3,3c-0.2,0.2-0.5,0.2-0.8,0l-3-3c-0.2-0.2-0.2-0.5,0-0.8l3-3c0.2-0.2,0.5-0.2,0.8,0l3,3
			C452.5,393.3,452.5,393.6,452.3,393.8z"/>
		<path fill="#000000" d="M447.6,403l-3,3c-0.2,0.2-0.5,0.2-0.8,0l-3-3c-0.2-0.2-0.2-0.5,0-0.8l3-3c0.2-0.2,0.5-0.2,0.8,0l3,3
			C447.8,402.4,447.8,402.8,447.6,403z"/>
		<path fill="#000000" d="M438.8,408.2l-3,3c-0.2,0.2-0.5,0.2-0.8,0l-3-3c-0.2-0.2-0.2-0.5,0-0.8l3-3c0.2-0.2,0.5-0.2,0.8,0l3,3
			C439,407.7,439,408,438.8,408.2z"/>
		<path fill="#000000" d="M412,407.8l-3,3c-0.2,0.2-0.5,0.2-0.8,0l-3-3c-0.2-0.2-0.2-0.5,0-0.8l3-3c0.2-0.2,0.5-0.2,0.8,0l3,3
			C412.2,407.3,412.2,407.6,412,407.8z"/>
		<path fill="#000000" d="M400.2,422.9l-3,3c-0.2,0.2-0.5,0.2-0.8,0l-3-3c-0.2-0.2-0.2-0.5,0-0.8l3-3c0.2-0.2,0.5-0.2,0.8,0l3,3
			C400.4,422.4,400.4,422.7,400.2,422.9z"/>
		<path fill="#000000" d="M433,395.2l-3,3c-0.2,0.2-0.5,0.2-0.8,0l-3-3c-0.2-0.2-0.2-0.5,0-0.8l3-3c0.2-0.2,0.5-0.2,0.8,0l3,3
			C433.2,394.6,433.2,394.9,433,395.2z"/>
		<path fill="#000000" d="M393.7,413.3l-3,3c-0.2,0.2-0.5,0.2-0.8,0l-3-3c-0.2-0.2-0.2-0.5,0-0.8l3-3c0.2-0.2,0.5-0.2,0.8,0l3,3
			C393.9,412.7,393.9,413.1,393.7,413.3z"/>
		<path fill="#000000" d="M379.8,415.4l-3,3c-0.2,0.2-0.5,0.2-0.8,0l-3-3c-0.2-0.2-0.2-0.5,0-0.8l3-3c0.2-0.2,0.5-0.2,0.8,0l3,3
			C380,414.9,380,415.2,379.8,415.4z"/>
		<path fill="#000000" d="M367.7,418.7l-3,3c-0.2,0.2-0.5,0.2-0.8,0l-3-3c-0.2-0.2-0.2-0.5,0-0.8l3-3c0.2-0.2,0.5-0.2,0.8,0l3,3
			C367.9,418.1,367.9,418.5,367.7,418.7z"/>
		<path fill="#000000" d="M361.5,426.5l-3,3c-0.2,0.2-0.5,0.2-0.8,0l-3-3c-0.2-0.2-0.2-0.5,0-0.8l3-3c0.2-0.2,0.5-0.2,0.8,0l3,3
			C361.7,426,361.7,426.3,361.5,426.5z"/>
		<path fill="#000000" d="M356.4,418.7l-3,3c-0.2,0.2-0.5,0.2-0.8,0l-3-3c-0.2-0.2-0.2-0.5,0-0.8l3-3c0.2-0.2,0.5-0.2,0.8,0l3,3
			C356.6,418.1,356.6,418.5,356.4,418.7z"/>
		<path fill="#000000" d="M330.2,420.3l-3,3c-0.2,0.2-0.5,0.2-0.8,0l-3-3c-0.2-0.2-0.2-0.5,0-0.8l3-3c0.2-0.2,0.5-0.2,0.8,0l3,3
			C330.4,419.7,330.4,420.1,330.2,420.3z"/>
		<path fill="#000000" d="M317.7,416.9l-3,3c-0.2,0.2-0.5,0.2-0.8,0l-3-3c-0.2-0.2-0.2-0.5,0-0.8l3-3c0.2-0.2,0.5-0.2,0.8,0l3,3
			C318,416.3,318,416.7,317.7,416.9z"/>
		<path fill="#000000" d="M303.9,413.3l-3,3c-0.2,0.2-0.5,0.2-0.8,0l-3-3c-0.2-0.2-0.2-0.5,0-0.8l3-3c0.2-0.2,0.5-0.2,0.8,0l3,3
			C304.1,412.7,304.1,413.1,303.9,413.3z"/>
		<path fill="#000000" d="M290.3,410.5l-2,2c-0.2,0.2-0.5,0.2-0.8,0l-2-2c-0.2-0.2-0.2-0.5,0-0.8l2-2c0.2-0.2,0.5-0.2,0.8,0l2,2
			C290.5,410,290.5,410.3,290.3,410.5z"/>
		<path fill="#000000" d="M349.3,426.5l-2,2c-0.2,0.2-0.5,0.2-0.8,0l-2-2c-0.2-0.2-0.2-0.5,0-0.8l2-2c0.2-0.2,0.5-0.2,0.8,0l2,2
			C349.5,426,349.5,426.3,349.3,426.5z"/>
		<path fill="#000000" d="M403.5,413.3l-2,2c-0.2,0.2-0.5,0.2-0.8,0l-2-2c-0.2-0.2-0.2-0.5,0-0.8l2-2c0.2-0.2,0.5-0.2,0.8,0l2,2
			C403.7,412.7,403.7,413.1,403.5,413.3z"/>
		<path fill="#000000" d="M527.7,388.1l-2,2c-0.2,0.2-0.5,0.2-0.8,0l-2-2c-0.2-0.2-0.2-0.5,0-0.8l2-2c0.2-0.2,0.5-0.2,0.8,0l2,2
			C527.9,387.6,527.9,387.9,527.7,388.1z"/>
		<path fill="#000000" d="M440.7,395.2l-2,2c-0.2,0.2-0.5,0.2-0.8,0l-2-2c-0.2-0.2-0.2-0.5,0-0.8l2-2c0.2-0.2,0.5-0.2,0.8,0l2,2
			C440.9,394.6,440.9,394.9,440.7,395.2z"/>
		<path fill="#000000" d="M344.1,420.3l-3,3c-0.2,0.2-0.5,0.2-0.8,0l-3-3c-0.2-0.2-0.2-0.5,0-0.8l3-3c0.2-0.2,0.5-0.2,0.8,0l3,3
			C344.3,419.7,344.3,420.1,344.1,420.3z"/>
		<path fill="#000000" d="M375.2,424.8l-3,3c-0.2,0.2-0.5,0.2-0.8,0l-3-3c-0.2-0.2-0.2-0.5,0-0.8l3-3c0.2-0.2,0.5-0.2,0.8,0l3,3
			C375.4,424.2,375.4,424.6,375.2,424.8z"/>
		<path fill="#000000" d="M388.4,422.3l-3,3c-0.2,0.2-0.5,0.2-0.8,0l-3-3c-0.2-0.2-0.2-0.5,0-0.8l3-3c0.2-0.2,0.5-0.2,0.8,0l3,3
			C388.6,421.7,388.6,422.1,388.4,422.3z"/>
		<path fill="#000000" d="M429.4,405.2l-3,3c-0.2,0.2-0.5,0.2-0.8,0l-3-3c-0.2-0.2-0.2-0.5,0-0.8l3-3c0.2-0.2,0.5-0.2,0.8,0l3,3
			C429.6,404.7,429.6,405,429.4,405.2z"/>
		<path fill="#000000" d="M412,420.3l-3,3c-0.2,0.2-0.5,0.2-0.8,0l-3-3c-0.2-0.2-0.2-0.5,0-0.8l3-3c0.2-0.2,0.5-0.2,0.8,0l3,3
			C412.2,419.7,412.2,420.1,412,420.3z"/>
		<path fill="#000000" d="M461.5,403l-3,3c-0.2,0.2-0.5,0.2-0.8,0l-3-3c-0.2-0.2-0.2-0.5,0-0.8l3-3c0.2-0.2,0.5-0.2,0.8,0l3,3
			C461.7,402.4,461.7,402.8,461.5,403z"/>
		<path fill="#000000" d="M484.5,371.9l-3,3c-0.2,0.2-0.5,0.2-0.8,0l-3-3c-0.2-0.2-0.2-0.5,0-0.8l3-3c0.2-0.2,0.5-0.2,0.8,0l3,3
			C484.7,371.3,484.7,371.7,484.5,371.9z"/>
		<path fill="#000000" d="M489.8,383.5l-3,3c-0.2,0.2-0.5,0.2-0.8,0l-3-3c-0.2-0.2-0.2-0.5,0-0.8l3-3c0.2-0.2,0.5-0.2,0.8,0l3,3
			C490,382.9,490,383.3,489.8,383.5z"/>
		<path fill="#000000" d="M539.7,375.4l-3,3c-0.2,0.2-0.5,0.2-0.8,0l-3-3c-0.2-0.2-0.2-0.5,0-0.8l3-3c0.2-0.2,0.5-0.2,0.8,0l3,3
			C539.9,374.9,539.9,375.2,539.7,375.4z"/>
		<path fill="#000000" d="M545.3,362.5l-3,3c-0.2,0.2-0.5,0.2-0.8,0l-3-3c-0.2-0.2-0.2-0.5,0-0.8l3-3c0.2-0.2,0.5-0.2,0.8,0l3,3
			C545.6,361.9,545.6,362.2,545.3,362.5z"/>
		<path fill="#000000" d="M499,374.3l-3,3c-0.2,0.2-0.5,0.2-0.8,0l-3-3c-0.2-0.2-0.2-0.5,0-0.8l3-3c0.2-0.2,0.5-0.2,0.8,0l3,3
			C499.2,373.7,499.2,374,499,374.3z"/>
		<path fill="#000000" d="M493,362.5l-3,3c-0.2,0.2-0.5,0.2-0.8,0l-3-3c-0.2-0.2-0.2-0.5,0-0.8l3-3c0.2-0.2,0.5-0.2,0.8,0l3,3
			C493.2,361.9,493.2,362.2,493,362.5z"/>
		<path fill="#000000" d="M516.1,273.8l-3,3c-0.2,0.2-0.5,0.2-0.8,0l-3-3c-0.2-0.2-0.2-0.5,0-0.8l3-3c0.2-0.2,0.5-0.2,0.8,0l3,3
			C516.3,273.2,516.3,273.6,516.1,273.8z"/>
		<path fill="#000000" d="M513.6,262.9l-3,3c-0.2,0.2-0.5,0.2-0.8,0l-3-3c-0.2-0.2-0.2-0.5,0-0.8l3-3c0.2-0.2,0.5-0.2,0.8,0l3,3
			C513.8,262.3,513.8,262.7,513.6,262.9z"/>
		<path fill="#000000" d="M557.6,297.8l-3,3c-0.2,0.2-0.5,0.2-0.8,0l-3-3c-0.2-0.2-0.2-0.5,0-0.8l3-3c0.2-0.2,0.5-0.2,0.8,0l3,3
			C557.8,297.3,557.8,297.6,557.6,297.8z"/>
		<path fill="#000000" d="M525.1,282.7l-3,3c-0.2,0.2-0.5,0.2-0.8,0l-3-3c-0.2-0.2-0.2-0.5,0-0.8l3-3c0.2-0.2,0.5-0.2,0.8,0l3,3
			C525.3,282.2,525.3,282.5,525.1,282.7z"/>
		<path fill="#000000" d="M535.1,286.4l-3,3c-0.2,0.2-0.5,0.2-0.8,0l-3-3c-0.2-0.2-0.2-0.5,0-0.8l3-3c0.2-0.2,0.5-0.2,0.8,0l3,3
			C535.3,285.9,535.3,286.2,535.1,286.4z"/>
		<path fill="#000000" d="M521.5,304.3l-3,3c-0.2,0.2-0.5,0.2-0.8,0l-3-3c-0.2-0.2-0.2-0.5,0-0.8l3-3c0.2-0.2,0.5-0.2,0.8,0l3,3
			C521.7,303.7,521.7,304.1,521.5,304.3z"/>
		<path fill="#000000" d="M534.2,304.3l-4.6,4.6c-0.2,0.2-0.5,0.2-0.8,0l-4.6-4.6c-0.2-0.2-0.2-0.5,0-0.8l4.6-4.6c0.2-0.2,0.5-0.2,0.8,0l4.6,4.6
			C534.4,303.7,534.4,304.1,534.2,304.3z"/>
		<path fill="#000000" d="M556,352l-4.6,4.6c-0.2,0.2-0.5,0.2-0.8,0l-4.6-4.6c-0.2-0.2-0.2-0.5,0-0.8l4.6-4.6c0.2-0.2,0.5-0.2,0.8,0l4.6,4.6
			C556.2,351.5,556.2,351.8,556,352z"/>
		<path fill="#000000" d="M509.7,359.1l-4.6,4.6c-0.2,0.2-0.5,0.2-0.8,0l-4.6-4.6c-0.2-0.2-0.2-0.5,0-0.8l4.6-4.6c0.2-0.2,0.5-0.2,0.8,0l4.6,4.6
			C509.9,358.6,509.9,358.9,509.7,359.1z"/>
		<path fill="#000000" d="M471.5,390.2l-5.6,5.6c-0.2,0.2-0.5,0.2-0.8,0l-5.6-5.6c-0.2-0.2-0.2-0.5,0-0.8l5.6-5.6c0.2-0.2,0.5-0.2,0.8,0l5.6,5.6
			C471.7,389.7,471.7,390,471.5,390.2z"/>
		<path fill="#000000" d="M437.6,76.5l-4.6,4.6c-0.2,0.2-0.5,0.2-0.8,0l-4.6-4.6c-0.2-0.2-0.2-0.5,0-0.8l4.6-4.6c0.2-0.2,0.5-0.2,0.8,0l4.6,4.6
			C437.8,75.9,437.8,76.3,437.6,76.5z"/>
	</g>
</g>
<g>
	<g>
		<path fill="#000000" d="M208.2,275.3v-0.6c1.2-0.2,1.4-0.3,1.1-1.1c-0.3-0.8-0.6-1.7-1-2.8h-4.2c-0.3,0.9-0.6,1.6-0.8,2.4
			c-0.4,1.2-0.3,1.4,1.2,1.5v0.6h-4.3v-0.6c1.3-0.2,1.5-0.3,2.2-2l4.1-10l0.7-0.2c1.3,3.4,2.5,6.8,3.8,10.2c0.6,1.7,0.9,1.9,2.2,2
			v0.6H208.2z M206.3,265.2L206.3,265.2c-0.7,1.6-1.3,3.2-1.9,4.8h3.6L206.3,265.2z"/>
		<path fill="#000000" d="M217.5,267c0.4-0.2,0.7-0.2,0.9-0.2c2.1,0,3.9,1.8,3.9,4c0,2.8-2.3,4.8-5,4.8c-0.8,0-1.8-0.2-3-0.7v-10.6
			c0-1.2-0.1-1.3-1.3-1.5v-0.5c0.9-0.1,2.2-0.4,3-0.7v5.9L217.5,267z M216,273.1c0,0.3,0,0.5,0.1,0.7c0.1,0.4,0.7,1.1,1.7,1.1
			c1.5,0,2.6-1.3,2.6-3.5c0-2.2-1.4-3.4-2.9-3.4c-0.5,0-1.1,0.2-1.4,0.3V273.1z"/>
		<path fill="#000000" d="M233.5,274.8c-0.4,0.1-1.9,0.3-3.2,0.7v-1.2l-1.2,0.7c-0.8,0.4-1.3,0.6-1.5,0.6c-1.6,0-3.7-1.4-3.7-4.1
			c0-2.7,2.4-4.7,5.1-4.7c0.3,0,0.8,0.1,1.3,0.2v-2.7c0-1.2-0.1-1.3-1.5-1.4v-0.5c1.1-0.1,2.4-0.4,3.2-0.7v11.4c0,1,0.1,1.1,0.9,1.2
			l0.6,0.1V274.8z M230.3,268.5c-0.5-0.7-1.2-1-2-1c-0.8,0-2.4,0.7-2.4,3.5c0,2.3,1.5,3.3,2.7,3.3c0.6,0,1.3-0.3,1.8-0.6V268.5z"/>
		<path fill="#000000" d="M243.7,274.9c-0.4,0.1-1,0.2-1.5,0.3c-0.5,0.1-1.1,0.3-1.5,0.4l-0.1-0.1v-1.4c-0.4,0.3-0.8,0.7-1.4,1
			c-0.6,0.3-1,0.5-1.5,0.5c-1.4,0-2.5-0.8-2.5-2.9V269c0-1-0.2-1.1-0.7-1.3l-0.5-0.1v-0.5c0.4,0,0.9-0.1,1.5-0.1
			c0.6-0.1,1.1-0.2,1.5-0.2c-0.1,0.6-0.1,1.5-0.1,2.8v2.6c0,1.6,0.8,2.1,1.7,2.1c0.7,0,1.4-0.3,2-0.9V269c0-1-0.2-1.2-0.8-1.3
			l-0.7-0.1v-0.5c0.6,0,1.2-0.1,1.8-0.2c0.6,0,1-0.1,1.3-0.2v6.3c0,1,0.2,1.1,0.9,1.2l0.5,0V274.9z"/>
		<path fill="#000000" d="M244.4,275.3v-0.5c1.2-0.1,1.4-0.2,1.4-1.5v-9c0-1.3-0.1-1.3-1.3-1.5v-0.5c1-0.1,2.3-0.4,3-0.7v11.6
			c0,1.3,0.2,1.4,1.4,1.5v0.5H244.4z"/>
		<path fill="#000000" d="M254.5,279.9v-0.5c1.5-0.1,1.7-0.2,1.7-1.6v-3.1l-2,0.8c-2.9,0-4.3-2.1-4.3-4c0-2.7,2.5-4.8,5.3-4.8
			c0.7,0.1,1.2,0.2,1.4,0.2c0.3,0.1,0.4,0.1,0.6,0.1c0.1,0,0.4-0.1,0.7-0.2l0.1,0.1c0,0.4-0.1,0.8-0.1,2v8.9c0,1.3,0.1,1.4,1.5,1.5
			v0.5H254.5z M256.1,268.4c-0.4-0.5-1.2-0.8-1.9-0.8c-1.2,0-2.5,1.1-2.5,3.4c0,2.3,1.6,3.5,3,3.5c0.6,0,1-0.1,1.4-0.3V268.4z"/>
		<path fill="#000000" d="M266.2,275.6c-0.4,0-0.8-0.2-1-0.4c-0.3-0.2-0.4-0.5-0.5-0.8c-0.8,0.5-1.7,1.2-2.3,1.2c-1.5,0-2.4-1.2-2.4-2.4
			c0-1,0.5-1.5,1.6-1.9c1.2-0.4,2.6-0.9,3-1.2v-0.3c0-1.4-0.6-2.1-1.6-2.1c-0.3,0-0.6,0.1-0.8,0.3c-0.2,0.2-0.4,0.7-0.6,1.3
			c-0.1,0.3-0.3,0.5-0.6,0.5c-0.4,0-0.9-0.4-0.9-0.9c0-0.3,0.2-0.5,0.6-0.8c0.6-0.4,1.9-1.1,3-1.3c0.6,0,1.2,0.1,1.6,0.5
			c0.7,0.6,0.9,1.4,0.9,2.4v3.4c0,0.9,0.3,1.1,0.7,1.1c0.2,0,0.5-0.1,0.7-0.2l0.2,0.5L266.2,275.6z M264.6,270.8
			c-0.4,0.2-1.2,0.6-1.6,0.7c-0.8,0.3-1.2,0.7-1.2,1.4c0,1,0.8,1.5,1.3,1.5c0.5,0,1.1-0.3,1.4-0.6V270.8z"/>
		<path fill="#000000" d="M278.2,274.8c-0.4,0.1-1.9,0.3-3.2,0.7v-1.2l-1.2,0.7c-0.8,0.4-1.3,0.6-1.5,0.6c-1.6,0-3.7-1.4-3.7-4.1
			c0-2.7,2.4-4.7,5.1-4.7c0.3,0,0.8,0.1,1.3,0.2v-2.7c0-1.2-0.1-1.3-1.5-1.4v-0.5c1.1-0.1,2.4-0.4,3.2-0.7v11.4c0,1,0.1,1.1,0.9,1.2
			l0.6,0.1V274.8z M275,268.5c-0.5-0.7-1.2-1-2-1c-0.8,0-2.4,0.7-2.4,3.5c0,2.3,1.5,3.3,2.7,3.3c0.6,0,1.3-0.3,1.8-0.6V268.5z"/>
		<path fill="#000000" d="M286.2,273.6c-1.3,1.6-2.7,1.9-3.3,1.9c-2.4,0-3.8-1.9-3.8-4.1c0-1.3,0.5-2.4,1.2-3.3c0.8-0.9,1.9-1.5,2.9-1.5h0
			c1.7,0,3,1.4,3,2.9c0,0.4-0.1,0.5-0.5,0.6c-0.4,0.1-2.8,0.2-5,0.3c0,2.5,1.5,3.5,2.8,3.5c0.8,0,1.5-0.3,2.3-1L286.2,273.6z
			 M282.8,267.5c-0.8,0-1.7,0.7-2,2.3c1,0,2.1,0,3.2,0c0.3,0,0.5-0.1,0.5-0.4C284.5,268.4,283.9,267.5,282.8,267.5L282.8,267.5z"/>
		<path fill="#000000" d="M290.5,268.8c0.6-1,1.4-2.1,2.3-2.1c0.7,0,1.2,0.5,1.2,1c0,0.4-0.3,0.8-0.7,1c-0.2,0.1-0.4,0.1-0.5-0.1
			c-0.3-0.3-0.5-0.4-0.9-0.4c-0.5,0-1.1,0.6-1.5,1.6v3.4c0,1.3,0.1,1.4,1.6,1.5v0.5h-4.6v-0.5c1.2-0.1,1.3-0.2,1.3-1.5v-4
			c0-1.2-0.1-1.3-1.2-1.5v-0.4c1-0.2,1.9-0.4,2.9-0.8L290.5,268.8L290.5,268.8z"/>
		<path fill="#000000" d="M307.9,275.3v-0.6c1.2-0.2,1.4-0.3,1.1-1.1c-0.3-0.8-0.6-1.7-1-2.8h-4.2c-0.3,0.9-0.6,1.6-0.8,2.4
			c-0.4,1.2-0.3,1.4,1.2,1.5v0.6h-4.3v-0.6c1.3-0.2,1.5-0.3,2.2-2l4.1-10l0.7-0.2c1.3,3.4,2.5,6.8,3.8,10.2c0.6,1.7,0.9,1.9,2.2,2
			v0.6H307.9z M305.9,265.2L305.9,265.2c-0.7,1.6-1.3,3.2-1.9,4.8h3.6L305.9,265.2z"/>
		<path fill="#000000" d="M313.5,275.3v-0.5c1.2-0.1,1.4-0.2,1.4-1.5v-9c0-1.3-0.1-1.3-1.3-1.5v-0.5c1-0.1,2.3-0.4,3-0.7v11.6
			c0,1.3,0.2,1.4,1.4,1.5v0.5H313.5z"/>
		<path fill="#000000" d="M325.7,275.4c-0.9-1-2.1-2.6-3.1-3.8c-0.2-0.3-0.4-0.4-0.6-0.4c-0.1,0-0.2,0-0.3,0v2.1c0,1.3,0.2,1.4,1.4,1.5v0.5h-4.5
			v-0.5c1.3-0.1,1.4-0.3,1.4-1.5v-9c0-1.2-0.1-1.3-1.3-1.5v-0.5c0.9-0.1,2.1-0.4,3-0.7v9c0.6-0.1,0.9-0.4,1.2-0.7
			c0.4-0.4,1-1.2,1.3-1.7c0.4-0.6,0.3-0.7-0.6-0.8V267l4.1-0.2v0.5c-1.3,0.2-1.8,0.4-2.6,1.1c-0.5,0.5-0.8,0.9-1.6,1.8
			c0.4,0.6,2.4,2.9,3,3.5c0.7,0.7,1.2,1,1.9,1v0.5L325.7,275.4z"/>
		<path fill="#000000" d="M335,275.6c-0.4,0-0.8-0.2-1-0.4c-0.3-0.2-0.4-0.5-0.5-0.8c-0.8,0.5-1.7,1.2-2.3,1.2c-1.5,0-2.4-1.2-2.4-2.4
			c0-1,0.5-1.5,1.6-1.9c1.2-0.4,2.6-0.9,3-1.2v-0.3c0-1.4-0.6-2.1-1.6-2.1c-0.3,0-0.6,0.1-0.8,0.3c-0.2,0.2-0.4,0.7-0.6,1.3
			c-0.1,0.3-0.3,0.5-0.6,0.5c-0.4,0-0.9-0.4-0.9-0.9c0-0.3,0.2-0.5,0.6-0.8c0.6-0.4,1.9-1.1,3-1.3c0.6,0,1.2,0.1,1.6,0.5
			c0.7,0.6,0.9,1.4,0.9,2.4v3.4c0,0.9,0.3,1.1,0.7,1.1c0.2,0,0.5-0.1,0.7-0.2l0.2,0.5L335,275.6z M333.5,270.8
			c-0.4,0.2-1.2,0.6-1.6,0.7c-0.8,0.3-1.2,0.7-1.2,1.4c0,1,0.8,1.5,1.3,1.5c0.5,0,1.1-0.3,1.4-0.6V270.8z"/>
		<path fill="#000000" d="M338.8,266.7c0-0.6,0.1-1.1,0.3-1.5c0.2-0.5,0.5-1.3,1.5-2c0.8-0.6,1.6-0.9,2.4-1c1.2,0,2,0.5,2.4,1
			c0.9-0.9,1.8-1.3,2.6-1.4c0.7,0,1.3,0.3,1.6,0.7c0.2,0.2,0.2,0.5,0.1,0.7c-0.1,0.2-0.3,0.4-0.4,0.5c-0.2,0.2-0.4,0.2-0.6,0
			c-0.4-0.4-1-0.8-1.6-0.8c-0.5,0-0.8,0.3-1,0.6c-0.2,0.4-0.4,1.3-0.4,3l0,0.7h2.3c0.1,0.2,0.1,0.7-0.2,0.8h-2.2v5.6
			c0,1.2,0.2,1.3,1.6,1.5v0.5h-4.5v-0.5c1-0.1,1.2-0.2,1.2-1.5v-5.6h-3.6v5.6c0,1.2,0.2,1.3,1.3,1.5v0.5h-4.3v-0.5
			c1.2-0.1,1.3-0.2,1.3-1.5v-5.6h-1.4l-0.1-0.2l0.5-0.6h0.9V266.7z M344,266.6c0-0.6,0.1-1.1,0.2-1.4c0.1-0.3,0.2-0.6,0.4-0.9
			c-0.4-0.6-1.1-1.3-2.2-1.3c-0.7,0-1.1,0.4-1.4,0.9c-0.3,0.5-0.5,1.3-0.5,2.7v0.5h3.6V266.6z"/>
	</g>
</g>
<path fill="#000000" d="M273.602,481.306c-0.578-0.576-1.301-1.03-2.174-1.362c-0.873-0.331-1.885-0.497-3.039-0.497
	c-0.663,0-1.463,0.079-2.4,0.238v-6.077h-1.535v17.711c0.706,0.202,1.402,0.354,2.087,0.454s1.301,0.151,1.849,0.151
	c1.153,0,2.166-0.162,3.039-0.486s1.596-0.764,2.174-1.319c0.576-0.555,1.006-1.211,1.287-1.968s0.42-1.561,0.42-2.411
	s-0.139-1.657-0.42-2.422C274.608,482.554,274.178,481.883,273.602,481.306z M272.391,489.167c-0.852,0.829-2.17,1.243-3.958,1.243
	c-0.39,0-0.805-0.032-1.244-0.097c-0.439-0.065-0.84-0.134-1.2-0.206v-8.845c0.447-0.115,0.887-0.194,1.319-0.237
	c0.433-0.044,0.808-0.065,1.125-0.065c0.894,0,1.668,0.112,2.325,0.335c0.656,0.224,1.199,0.545,1.633,0.963
	c0.432,0.418,0.752,0.919,0.961,1.503s0.314,1.243,0.314,1.979C273.667,487.195,273.241,488.338,272.391,489.167z M247.392,479.446
	c-0.62,0-1.297,0.079-2.033,0.238c-0.735,0.158-1.485,0.433-2.249,0.821l-0.065,1.73c0.548-0.303,0.973-0.52,1.276-0.649
	s0.624-0.237,0.962-0.324c0.338-0.086,0.677-0.158,1.016-0.216s0.667-0.087,0.984-0.087c1.139,0,1.982,0.249,2.53,0.746
	s0.822,1.33,0.822,2.498v0.13c-0.332-0.044-0.732-0.087-1.2-0.13c-0.469-0.043-0.876-0.065-1.222-0.065
	c-1.831,0-3.302,0.311-4.412,0.931c-1.11,0.619-1.665,1.644-1.665,3.07c0,0.707,0.155,1.305,0.465,1.795
	c0.31,0.49,0.713,0.88,1.211,1.168s1.067,0.497,1.708,0.627c0.641,0.13,1.308,0.194,2,0.194c0.807,0,1.6-0.072,2.378-0.216
	c0.779-0.145,1.536-0.368,2.271-0.671v-7.028c0-1.585-0.397-2.742-1.189-3.471C250.189,479.811,248.992,479.446,247.392,479.446z
	 M250.636,489.892c-0.375,0.144-0.858,0.267-1.449,0.367c-0.591,0.102-1.183,0.151-1.773,0.151c-0.505,0-0.984-0.035-1.438-0.108
	c-0.454-0.071-0.84-0.197-1.157-0.378c-0.317-0.18-0.57-0.414-0.757-0.703c-0.188-0.288-0.281-0.663-0.281-1.124
	c0-0.52,0.111-0.934,0.335-1.244c0.224-0.31,0.533-0.551,0.93-0.724c0.396-0.174,0.85-0.296,1.362-0.368
	c0.511-0.072,1.041-0.108,1.589-0.108c0.476,0,0.984,0.029,1.524,0.087c0.541,0.058,0.912,0.108,1.114,0.151V489.892z
	 M258.032,479.868c-0.649,0.122-1.276,0.263-1.881,0.422v11.418h1.535v-10.186c0.202-0.072,0.563-0.147,1.082-0.228
	c0.519-0.079,1.002-0.118,1.449-0.118h1.989v-1.492H260C259.336,479.685,258.681,479.746,258.032,479.868z M-77.92,487.667
	l241.145,0.656l0.663-0.433l-0.632-0.564L-77.92,487.667z M164.994,487.825l1.95,1.95l1.95-1.95l-1.95-1.95L164.994,487.825z
	 M169.559,487.825l3.057,3.057l3.057-3.057l-3.057-3.057L169.559,487.825z M212.359,489.286l-3.395-9.602h-1.514l-3.396,9.602
	l-2.984-9.602h-1.73l3.979,12.023h1.428l3.46-9.645l3.46,9.645h1.427l3.979-12.023h-1.73L212.359,489.286z M238.418,489.589
	c-0.317,0-0.591,0.115-0.822,0.346c-0.231,0.23-0.346,0.505-0.346,0.822c0,0.316,0.115,0.591,0.346,0.821
	c0.23,0.23,0.504,0.346,0.822,0.346c0.317,0,0.591-0.115,0.822-0.346c0.23-0.23,0.346-0.505,0.346-0.821
	c0-0.317-0.116-0.592-0.346-0.822C239.009,489.704,238.735,489.589,238.418,489.589z M193.243,489.286l-3.395-9.602h-1.514
	l-3.396,9.602l-2.984-9.602h-1.73l3.979,12.023h1.428l3.46-9.645l3.46,9.645h1.427l3.979-12.023h-1.73L193.243,489.286z
	 M231.476,489.286l-3.395-9.602h-1.514l-3.396,9.602l-2.984-9.602h-1.73l3.979,12.023h1.428l3.46-9.645l3.46,9.645h1.427
	l3.979-12.023h-1.73L231.476,489.286z M382.732,480.474c-0.426-0.396-0.938-0.667-1.535-0.812c-0.598-0.144-1.271-0.216-2.021-0.216
	c-0.664,0-1.393,0.09-2.184,0.271c-0.793,0.181-1.471,0.4-2.033,0.659c-0.346-0.331-0.818-0.569-1.416-0.714
	c-0.6-0.144-1.273-0.216-2.023-0.216c-0.635,0-1.268,0.058-1.902,0.173l-2.465,0.454v11.635h1.535v-10.38
	c0.447-0.102,0.883-0.188,1.309-0.26c0.424-0.072,0.896-0.108,1.416-0.108c0.605,0,1.125,0.058,1.557,0.173
	c0.434,0.116,0.789,0.321,1.07,0.616c0.281,0.296,0.494,0.711,0.639,1.244s0.217,1.24,0.217,2.119v6.596h1.535v-7.201
	c0-0.663-0.055-1.243-0.162-1.741c-0.109-0.497-0.213-0.861-0.314-1.092c0.086-0.043,0.281-0.119,0.584-0.228
	c0.303-0.107,0.602-0.197,0.898-0.27c0.295-0.072,0.586-0.126,0.875-0.162s0.547-0.055,0.779-0.055c0.59,0,1.102,0.058,1.535,0.173
	c0.432,0.116,0.781,0.317,1.049,0.605c0.266,0.289,0.471,0.703,0.615,1.244c0.145,0.54,0.217,1.251,0.217,2.13v6.596h1.535v-7.201
	c0-0.995-0.111-1.816-0.336-2.466C383.482,481.393,383.158,480.87,382.732,480.474z M280.1,474.581
	c-0.785,0.648-1.18,1.729-1.18,3.243v1.86h-2.551v1.492h2.551v10.531h1.537v-10.531h4.973v-1.492h-4.973v-1.471
	c0-0.635,0.045-1.149,0.141-1.546c0.094-0.396,0.24-0.707,0.443-0.931c0.201-0.223,0.475-0.385,0.82-0.486
	c0.346-0.101,0.779-0.151,1.299-0.151h2.422v-1.492h-2.271C281.956,473.607,280.885,473.932,280.1,474.581z M398.273,487.825
	l3.057,3.057l3.057-3.057l-3.057-3.057L398.273,487.825z M343.322,482.322c0.389-0.418,0.854-0.749,1.395-0.994
	s1.135-0.368,1.783-0.368c0.736,0,1.373,0.076,1.914,0.228s1.121,0.414,1.74,0.789l0.715-1.405c-0.707-0.39-1.393-0.674-2.055-0.854
	c-0.664-0.181-1.436-0.271-2.314-0.271c-0.85,0-1.639,0.155-2.367,0.465c-0.729,0.311-1.367,0.746-1.914,1.309
	c-0.549,0.563-0.98,1.222-1.297,1.979c-0.317,0.757-0.476,1.59-0.476,2.498s0.158,1.74,0.476,2.497
	c0.316,0.757,0.748,1.413,1.297,1.969c0.547,0.555,1.186,0.987,1.914,1.297c0.729,0.311,1.518,0.465,2.367,0.465
	c0.879,0,1.65-0.09,2.314-0.27c0.662-0.181,1.348-0.466,2.055-0.854l-0.715-1.406c-0.619,0.375-1.199,0.639-1.74,0.79
	s-1.178,0.227-1.914,0.227c-0.648,0-1.242-0.119-1.783-0.356c-0.541-0.238-1.006-0.565-1.395-0.984
	c-0.391-0.418-0.693-0.915-0.908-1.492c-0.217-0.576-0.324-1.203-0.324-1.881s0.107-1.305,0.324-1.882
	C342.628,483.238,342.931,482.741,343.322,482.322z M404.387,487.825l1.949,1.95l1.951-1.95l-1.951-1.95L404.387,487.825z
	 M410.701,487.326l-0.664,0.433l0.633,0.564l241.176-0.341L410.701,487.326z M362.611,481.295c-0.549-0.569-1.193-1.02-1.936-1.352
	c-0.742-0.331-1.547-0.497-2.412-0.497c-0.863,0-1.668,0.166-2.41,0.497c-0.742,0.332-1.389,0.782-1.936,1.352
	c-0.549,0.57-0.977,1.229-1.287,1.979c-0.311,0.749-0.465,1.557-0.465,2.422s0.154,1.672,0.465,2.422s0.738,1.409,1.287,1.979
	c0.547,0.569,1.193,1.017,1.936,1.341s1.547,0.486,2.41,0.486c0.865,0,1.67-0.162,2.412-0.486s1.387-0.771,1.936-1.341
	c0.547-0.569,0.977-1.229,1.287-1.979c0.309-0.75,0.465-1.557,0.465-2.422s-0.156-1.673-0.465-2.422
	C363.587,482.524,363.158,481.865,362.611,481.295z M362.394,487.523c-0.217,0.569-0.52,1.067-0.908,1.492
	c-0.389,0.426-0.857,0.765-1.406,1.017c-0.547,0.252-1.152,0.378-1.816,0.378c-0.662,0-1.268-0.126-1.816-0.378
	c-0.547-0.252-1.016-0.591-1.404-1.017c-0.391-0.425-0.693-0.923-0.908-1.492c-0.217-0.569-0.324-1.179-0.324-1.827
	c0-0.649,0.107-1.262,0.324-1.839c0.215-0.576,0.518-1.077,0.908-1.503c0.389-0.425,0.857-0.764,1.404-1.016
	c0.549-0.252,1.154-0.379,1.816-0.379c0.664,0,1.27,0.127,1.816,0.379c0.549,0.252,1.018,0.591,1.406,1.016
	c0.389,0.426,0.691,0.927,0.908,1.503c0.217,0.577,0.324,1.189,0.324,1.839C362.718,486.345,362.611,486.954,362.394,487.523z
	 M296.221,481.295c-0.547-0.569-1.191-1.02-1.936-1.352c-0.742-0.331-1.545-0.497-2.41-0.497s-1.67,0.166-2.412,0.497
	c-0.742,0.332-1.387,0.782-1.936,1.352c-0.547,0.57-0.977,1.229-1.285,1.979c-0.311,0.749-0.465,1.557-0.465,2.422
	s0.154,1.672,0.465,2.422c0.309,0.75,0.738,1.409,1.285,1.979c0.549,0.569,1.193,1.017,1.936,1.341s1.547,0.486,2.412,0.486
	s1.668-0.162,2.41-0.486c0.744-0.324,1.389-0.771,1.936-1.341c0.549-0.569,0.977-1.229,1.287-1.979s0.465-1.557,0.465-2.422
	s-0.154-1.673-0.465-2.422C297.198,482.524,296.77,481.865,296.221,481.295z M296.006,487.523c-0.217,0.569-0.52,1.067-0.908,1.492
	c-0.391,0.426-0.859,0.765-1.406,1.017c-0.549,0.252-1.154,0.378-1.816,0.378c-0.664,0-1.27-0.126-1.816-0.378
	c-0.549-0.252-1.018-0.591-1.406-1.017c-0.389-0.425-0.691-0.923-0.908-1.492s-0.324-1.179-0.324-1.827
	c0-0.649,0.107-1.262,0.324-1.839c0.217-0.576,0.52-1.077,0.908-1.503c0.389-0.425,0.857-0.764,1.406-1.016
	c0.547-0.252,1.152-0.379,1.816-0.379c0.662,0,1.268,0.127,1.816,0.379c0.547,0.252,1.016,0.591,1.406,1.016
	c0.389,0.426,0.691,0.927,0.908,1.503c0.215,0.577,0.324,1.189,0.324,1.839C296.331,486.345,296.221,486.954,296.006,487.523z
	 M309.381,480.463c-0.455-0.39-0.996-0.656-1.623-0.801c-0.627-0.144-1.309-0.216-2.043-0.216c-0.707,0-1.465,0.047-2.271,0.141
	s-1.701,0.234-2.682,0.422v11.699h1.535v-10.402c1.184-0.23,2.293-0.346,3.33-0.346c0.592,0,1.111,0.062,1.559,0.184
	c0.445,0.123,0.818,0.332,1.113,0.628c0.295,0.295,0.525,0.713,0.691,1.254s0.25,1.251,0.25,2.13v6.553h1.535v-7.201
	c0-0.995-0.119-1.82-0.357-2.477C310.18,481.375,309.834,480.852,309.381,480.463z M318.516,490.054
	c-0.346-0.108-0.619-0.277-0.82-0.509c-0.203-0.23-0.35-0.547-0.443-0.951c-0.096-0.403-0.141-0.922-0.141-1.557v-5.86h4.973v-1.492
	h-4.973v-4.347h-1.537v4.347h-2.551v1.492h2.551v6.466c0,0.764,0.109,1.405,0.326,1.925c0.215,0.519,0.525,0.937,0.93,1.254
	c0.402,0.317,0.867,0.544,1.395,0.682c0.525,0.137,1.105,0.205,1.74,0.205h2.271v-1.492h-2.422
	C319.295,490.216,318.862,490.162,318.516,490.054z M337.784,489.589c-0.316,0-0.59,0.115-0.82,0.346s-0.346,0.505-0.346,0.822
	c0,0.316,0.115,0.591,0.346,0.821s0.504,0.346,0.82,0.346c0.318,0,0.592-0.115,0.822-0.346s0.346-0.505,0.346-0.821
	c0-0.317-0.115-0.592-0.346-0.822S338.102,489.589,337.784,489.589z M333.178,486.106c-0.346-0.303-0.785-0.565-1.318-0.789
	c-0.533-0.223-1.182-0.422-1.947-0.595l-0.799-0.173c-1.053-0.216-1.781-0.461-2.184-0.735c-0.404-0.273-0.607-0.678-0.607-1.211
	c0-0.504,0.238-0.904,0.715-1.2c0.475-0.295,1.174-0.443,2.098-0.443c0.793,0,1.477,0.076,2.055,0.228
	c0.576,0.151,1.217,0.421,1.924,0.811l0.691-1.405c-1.412-0.765-2.969-1.146-4.67-1.146c-0.635,0-1.223,0.076-1.764,0.228
	c-0.539,0.151-1.008,0.364-1.404,0.638s-0.711,0.605-0.941,0.994c-0.23,0.39-0.346,0.815-0.346,1.276
	c0,0.462,0.072,0.88,0.217,1.254c0.143,0.375,0.381,0.707,0.713,0.995s0.758,0.537,1.275,0.746c0.52,0.209,1.146,0.4,1.883,0.573
	l0.908,0.194c1.008,0.217,1.729,0.49,2.162,0.822c0.432,0.331,0.648,0.771,0.648,1.318c0,0.39-0.086,0.707-0.26,0.952
	c-0.172,0.245-0.414,0.436-0.725,0.573c-0.311,0.137-0.678,0.237-1.102,0.303c-0.426,0.064-0.877,0.097-1.352,0.097
	c-0.592,0-1.223-0.09-1.893-0.271c-0.67-0.18-1.352-0.479-2.045-0.897l-0.734,1.471c0.779,0.433,1.539,0.742,2.281,0.93
	s1.539,0.281,2.391,0.281c0.748,0,1.434-0.072,2.053-0.216c0.621-0.145,1.158-0.36,1.611-0.648c0.455-0.289,0.805-0.649,1.049-1.082
	c0.246-0.433,0.369-0.93,0.369-1.492c0-0.476-0.072-0.915-0.217-1.318C333.77,486.763,333.526,486.41,333.178,486.106z"/>
</svg>

