<?xml version="1.0" encoding="utf-8"?>
<!-- Generator: Adobe Illustrator 22.1.0, SVG Export Plug-In . SVG Version: 6.00 Build 0)  -->
<svg version="1.1" id="Layer_1" xmlns="http://www.w3.org/2000/svg" xmlns:xlink="http://www.w3.org/1999/xlink" x="0px" y="0px"
	 viewBox="0 0 800 500" style="enable-background:new 0 0 800 500;" xml:space="preserve">
<g>
	<g>
		<path fill="#000000" d="M155.7,364.4c-2.1-0.6-3.9-1.5-5.2-2.7c-1.3-1.2-2.3-2.6-2.9-4.2c-0.6-1.6-0.9-3.5-0.9-5.5c0-1,0.1-2,0.3-3.2
			c0.2-1.2,0.4-2.3,0.6-3.2l4.4-0.9c-0.3,1.1-0.6,2.2-0.8,3.3c-0.2,1.1-0.3,2.2-0.3,3.5c0,1.5,0.2,2.9,0.6,4.2
			c0.4,1.3,1.1,2.4,2.1,3.3c1,0.9,2.4,1.7,4.1,2.2c1.7,0.5,3.9,0.8,6.6,0.8h8.7v-29.3h4v32.9h-13.6
			C160.5,365.4,157.9,365.1,155.7,364.4z M165.5,341.1c-0.3,0-0.5-0.1-0.8-0.1c-0.2,0-0.5,0-0.7,0c-0.5,0-0.9,0.1-1.2,0.4
			c-0.3,0.3-0.5,0.6-0.5,1.1c0,0.4,0.2,0.9,0.5,1.2c0.4,0.4,1,0.5,1.8,0.5h1.9v2.6h-8.8v-2.6c0.3,0,0.8,0,1.4,0
			c0.6,0,1.2,0.1,1.6,0.2c-0.4-0.3-0.7-0.6-0.8-0.9c-0.2-0.3-0.2-0.8-0.2-1.4c0-1,0.4-1.9,1.2-2.5c0.8-0.6,1.8-0.9,3.1-0.9
			c0.3,0,0.6,0,1,0c0.3,0,0.7,0.1,1.1,0.1L165.5,341.1z"/>
		<path fill="#000000" d="M182.3,376.6c-0.8,0-1.6,0-2.3-0.1l0.4-4c0.7,0.1,1.3,0.1,2,0.1c2.1,0,3.7-0.5,4.6-1.6c1-1.1,1.4-2.8,1.4-5.1v-21.1h4
			v20.8c0,1.6-0.2,3.1-0.5,4.4s-0.9,2.5-1.6,3.5c-0.8,1-1.8,1.7-3.1,2.3C186,376.3,184.3,376.6,182.3,376.6z"/>
		<path fill="#000000" d="M204.5,361.8h5.1v3.5h-9.2v-29.7c-0.5-0.1-1.2-0.2-1.9-0.2c-0.7-0.1-1.4-0.1-2-0.2v-2.4c1.1-0.1,2.4-0.3,3.8-0.3
			c1.4-0.1,2.8-0.1,4.1,0V361.8z"/>
		<path fill="#000000" d="M208.7,361.8h6.4v-17.1h4v17.1h5.1v3.5h-15.5V361.8z M217,374.4c-0.7,0-1.4-0.3-1.9-0.8s-0.7-1.2-0.7-1.9
			c0-0.7,0.2-1.3,0.7-1.9c0.5-0.5,1.1-0.8,1.9-0.8c0.7,0,1.4,0.3,1.8,0.8c0.5,0.5,0.7,1.1,0.7,1.9c0,0.7-0.2,1.4-0.7,1.9
			C218.4,374.1,217.8,374.4,217,374.4z"/>
		<path fill="#000000" d="M223.4,361.8h1.4c0.6,0,1.1-0.1,1.7-0.3c0.5-0.2,1-0.5,1.4-1c0.4-0.5,0.8-1.1,1-1.9c0.3-0.8,0.4-1.8,0.4-3
			c0-2,0.2-3.7,0.7-5.1c0.5-1.5,1.2-2.7,2.1-3.6c0.9-1,2-1.7,3.2-2.2c1.2-0.5,2.6-0.7,4.2-0.7c1.3,0,2.5,0.2,3.6,0.6
			c1.1,0.4,2,1,2.7,1.9c0.7,0.9,1.3,1.9,1.7,3.3c0.4,1.3,0.6,2.9,0.6,4.8v10.8H240c-2.5,0-4.5-0.4-5.9-1.2c-1.4-0.8-2.5-1.8-3.2-3.1
			c-0.4,1.3-1.2,2.3-2.2,3.1c-1.1,0.8-2.5,1.2-4.4,1.2h-0.9V361.8z M244.1,361.8v-8c0-0.9-0.1-1.7-0.3-2.5c-0.2-0.8-0.6-1.5-1-2
			c-0.4-0.6-1-1-1.6-1.4c-0.6-0.3-1.4-0.5-2.2-0.5c-1,0-1.8,0.2-2.4,0.5c-0.7,0.4-1.2,0.9-1.7,1.5c-0.4,0.6-0.7,1.4-0.9,2.2
			c-0.2,0.8-0.3,1.8-0.3,2.7c0,2.6,0.6,4.5,1.7,5.7c1.2,1.2,3,1.8,5.4,1.8H244.1z"/>
		<path fill="#000000" d="M273.4,376.5c-2,0-3.7-0.3-5.1-1c-1.4-0.7-2.5-1.6-3.4-2.9c-0.9-1.2-1.5-2.7-1.9-4.3c-0.4-1.7-0.6-3.5-0.6-5.4
			c0-0.5,0-1.2,0.1-1.8c0.1-0.7,0.1-1.4,0.3-2.1c0.1-0.7,0.3-1.5,0.4-2.2c0.2-0.7,0.3-1.4,0.5-2l4.4-0.8c-0.5,1.6-0.9,3.1-1.1,4.5
			c-0.2,1.4-0.3,2.8-0.3,4.1c0,1.9,0.2,3.5,0.5,4.8c0.3,1.3,0.8,2.4,1.5,3.2c0.6,0.8,1.4,1.4,2.2,1.8c0.9,0.4,1.8,0.6,2.9,0.6
			c1.3,0,2.5-0.3,3.4-0.8c0.9-0.5,1.6-1.3,2.2-2.3c0.6-1,1-2.2,1.2-3.6c0.3-1.4,0.4-3,0.4-4.7v-16.7h4v16.4c0,5.2-0.9,9.1-2.8,11.6
			C280.4,375.3,277.5,376.5,273.4,376.5z M274.1,348.5c-0.7,0-1.4-0.3-1.9-0.8c-0.5-0.5-0.7-1.2-0.7-1.9c0-0.7,0.2-1.3,0.7-1.9
			c0.5-0.5,1.1-0.8,1.9-0.8c0.7,0,1.4,0.3,1.8,0.8c0.5,0.5,0.7,1.1,0.7,1.9c0,0.7-0.2,1.4-0.7,1.9
			C275.5,348.2,274.9,348.5,274.1,348.5z"/>
		<path fill="#000000" d="M297,361.8h5.1v3.5h-9.2v-29.7c-0.5-0.1-1.2-0.2-1.9-0.2c-0.7-0.1-1.4-0.1-2-0.2v-2.4c1.1-0.1,2.4-0.3,3.8-0.3
			c1.4-0.1,2.8-0.1,4.1,0V361.8z"/>
		<path fill="#000000" d="M301.2,361.8h6.4v-17.1h4c0,1.7,0,3.2-0.1,4.4c0,1.3-0.1,2.4-0.2,3.3c-0.1,0.9-0.1,1.7-0.2,2.3c-0.1,0.6-0.2,1.1-0.2,1.5
			c0.7-1.4,1.5-2.9,2.5-4.3c1-1.5,2.1-2.8,3.3-4c1.2-1.2,2.5-2.1,3.9-2.9c1.4-0.7,2.8-1.1,4.3-1.1c2.6,0,4.7,0.9,6.3,2.6
			c1.5,1.7,2.3,4.3,2.3,7.7v7.5h5.1v3.5h-37.5V361.8z M329.3,361.8v-6.9c0-1.1-0.1-2-0.3-2.9c-0.2-0.9-0.5-1.6-0.9-2.3
			c-0.4-0.6-0.9-1.1-1.6-1.5s-1.4-0.5-2.4-0.5c-1,0-2.1,0.3-3.3,1c-1.2,0.7-2.3,1.7-3.5,2.9c-1.1,1.2-2.2,2.7-3.3,4.5
			c-1,1.7-1.9,3.7-2.6,5.8H329.3z M317,341c-0.7,0-1.4-0.3-1.9-0.8c-0.5-0.5-0.7-1.2-0.7-1.9c0-0.7,0.2-1.3,0.7-1.9
			c0.5-0.5,1.1-0.8,1.9-0.8s1.4,0.3,1.8,0.8c0.5,0.5,0.7,1.1,0.7,1.9c0,0.7-0.2,1.4-0.7,1.9C318.4,340.8,317.8,341,317,341z"/>
		<path fill="#000000" d="M337.8,361.8h1.4c0.6,0,1.1-0.1,1.7-0.3c0.5-0.2,1-0.5,1.4-1c0.4-0.5,0.8-1.1,1-1.9c0.3-0.8,0.4-1.8,0.4-3
			c0-2,0.2-3.7,0.7-5.1c0.5-1.5,1.2-2.7,2.1-3.6c0.9-1,2-1.7,3.2-2.2c1.2-0.5,2.6-0.7,4.2-0.7c1.3,0,2.5,0.2,3.6,0.6
			c1.1,0.4,2,1,2.7,1.9c0.7,0.9,1.3,1.9,1.7,3.3c0.4,1.3,0.6,2.9,0.6,4.8v10.8h-8.2c-2.5,0-4.5-0.4-5.9-1.2
			c-1.4-0.8-2.5-1.8-3.2-3.1c-0.4,1.3-1.2,2.3-2.2,3.1c-1.1,0.8-2.5,1.2-4.4,1.2h-0.9V361.8z M358.5,361.8v-8c0-0.9-0.1-1.7-0.3-2.5
			c-0.2-0.8-0.6-1.5-1-2c-0.4-0.6-1-1-1.6-1.4c-0.6-0.3-1.4-0.5-2.2-0.5c-1,0-1.8,0.2-2.4,0.5c-0.7,0.4-1.2,0.9-1.7,1.5
			c-0.4,0.6-0.7,1.4-0.9,2.2c-0.2,0.8-0.3,1.8-0.3,2.7c0,2.6,0.6,4.5,1.7,5.7c1.2,1.2,3,1.8,5.4,1.8H358.5z"/>
		<path fill="#000000" d="M366.5,376.6c-0.8,0-1.6,0-2.3-0.1l0.4-4c0.7,0.1,1.3,0.1,2,0.1c2.1,0,3.7-0.5,4.6-1.6c1-1.1,1.4-2.8,1.4-5.1v-21.1h4
			v20.8c0,1.6-0.2,3.1-0.5,4.4c-0.3,1.3-0.9,2.5-1.6,3.5c-0.8,1-1.8,1.7-3.1,2.3C370.1,376.3,368.5,376.6,366.5,376.6z"/>
	</g>
	<g>
		<path fill="#000000" d="M163.3,402.6c-0.4,0-0.7,0-1.1-0.1c-2.4-0.1-3.7-0.8-5.1-2.7c-1-1.4-2-3.2-2.9-4.6c-0.5-0.8-1.1-1.2-2.6-1.2h-0.8v4.6
			c0,2.5,0.3,2.7,2.7,2.9v0.8h-8.2v-0.8c2.4-0.2,2.7-0.4,2.7-2.9v-11.7c0-2.5-0.3-2.7-2.6-2.8v-0.9h7.7c2.3,0,3.7,0.3,4.9,1
			c1.2,0.8,2,2.1,2,3.9c0,2.6-1.7,4.1-3.8,5c0.5,1,1.8,2.9,2.7,4.3c1.1,1.6,1.7,2.4,2.4,3.1c0.8,0.9,1.4,1.2,2.1,1.4L163.3,402.6z
			 M152.2,393c1.5,0,2.5-0.2,3.3-0.8c1.1-0.9,1.6-2,1.6-3.6c0-3.2-2.1-4.3-4.3-4.3c-0.9,0-1.4,0.1-1.6,0.3c-0.2,0.2-0.3,0.5-0.3,1.3
			v7.3H152.2z"/>
		<path fill="#000000" d="M174.3,402.7c-0.6,0-1.2-0.3-1.5-0.6c-0.4-0.4-0.6-0.8-0.7-1.2c-1.2,0.8-2.6,1.8-3.5,1.8c-2.2,0-3.7-1.8-3.7-3.6
			c0-1.5,0.8-2.4,2.4-2.9c1.9-0.6,4-1.4,4.6-1.9v-0.5c0-2.1-1-3.2-2.4-3.2c-0.5,0-1,0.2-1.3,0.5c-0.4,0.4-0.6,1-0.9,2
			c-0.2,0.5-0.5,0.7-1,0.7c-0.6,0-1.4-0.6-1.4-1.3c0-0.4,0.4-0.8,1-1.2c0.9-0.6,2.9-1.8,4.6-2.1c0.9,0,1.8,0.2,2.5,0.7
			c1.1,0.9,1.4,2.2,1.4,3.7v5.3c0,1.3,0.5,1.8,1.1,1.8c0.3,0,0.7-0.1,1.1-0.3l0.3,0.8L174.3,402.7z M171.9,395.3
			c-0.6,0.3-1.8,0.9-2.4,1.1c-1.2,0.5-1.8,1.1-1.8,2.2c0,1.6,1.2,2.2,2.1,2.2c0.7,0,1.7-0.4,2.2-1V395.3z"/>
		<path fill="#000000" d="M194.4,402.3v-0.8c1.7-0.2,2-0.3,2-2.4v-4.8c0-2.2-0.8-3.4-2.6-3.4c-1,0-2.1,0.6-3.2,1.5c0,0.4,0.1,0.7,0.1,1.2v5.7
			c0,1.9,0.3,2,1.9,2.2v0.8h-6.6v-0.8c1.8-0.2,2.1-0.3,2.1-2.3v-5c0-2.2-0.8-3.3-2.5-3.3c-1.1,0-2.2,0.7-3.1,1.5v6.9
			c0,1.9,0.3,2.1,1.6,2.3v0.8h-6.4v-0.8c1.9-0.2,2.2-0.4,2.2-2.3v-6c0-1.9-0.1-2.1-1.8-2.3v-0.7c1.3-0.2,3-0.6,4.4-1.2v2.4
			c0.6-0.4,1.3-1,2.2-1.5c0.8-0.5,1.5-0.8,2.5-0.8c1.4,0,2.7,0.9,3.3,2.4c0.9-0.6,1.7-1.2,2.5-1.7c0.6-0.4,1.4-0.7,2.3-0.7
			c2.4,0,3.9,1.6,3.9,4.6v5.6c0,2,0.2,2,1.9,2.3v0.8H194.4z"/>
		<path fill="#000000" d="M212.1,402.7c-0.6,0-1.2-0.3-1.5-0.6c-0.4-0.4-0.6-0.8-0.7-1.2c-1.2,0.8-2.6,1.8-3.5,1.8c-2.2,0-3.7-1.8-3.7-3.6
			c0-1.5,0.8-2.4,2.4-2.9c1.9-0.6,4-1.4,4.6-1.9v-0.5c0-2.1-1-3.2-2.4-3.2c-0.5,0-1,0.2-1.3,0.5c-0.4,0.4-0.6,1-0.9,2
			c-0.2,0.5-0.5,0.7-1,0.7c-0.6,0-1.4-0.6-1.4-1.3c0-0.4,0.4-0.8,1-1.2c0.9-0.6,2.9-1.8,4.6-2.1c0.9,0,1.8,0.2,2.5,0.7
			c1.1,0.9,1.4,2.2,1.4,3.7v5.3c0,1.3,0.5,1.8,1.1,1.8c0.3,0,0.7-0.1,1.1-0.3l0.3,0.8L212.1,402.7z M209.8,395.3
			c-0.6,0.3-1.8,0.9-2.4,1.1c-1.2,0.5-1.8,1.1-1.8,2.2c0,1.6,1.2,2.2,2.1,2.2c0.7,0,1.7-0.4,2.2-1V395.3z"/>
		<path fill="#000000" d="M230.7,401.5c-0.6,0.1-3,0.5-4.9,1.1v-1.9l-1.8,1c-1.2,0.7-2,0.8-2.3,0.8c-2.5,0-5.7-2.1-5.7-6.3c0-4.1,3.7-7.3,7.8-7.3
			c0.4,0,1.2,0.1,1.9,0.3v-4.2c0-1.9-0.2-2-2.3-2.1v-0.8c1.7-0.2,3.7-0.6,4.9-1v17.5c0,1.6,0.2,1.8,1.4,1.9l0.8,0.1V401.5z
			 M225.8,391.8c-0.7-1-1.9-1.5-3-1.5c-1.3,0-3.8,1.1-3.8,5.3c0,3.5,2.2,5.1,4.1,5.1c1,0,2-0.4,2.7-0.9V391.8z"/>
		<path fill="#000000" d="M241.6,402.7c-0.6,0-1.2-0.3-1.5-0.6c-0.4-0.4-0.6-0.8-0.7-1.2c-1.2,0.8-2.6,1.8-3.5,1.8c-2.2,0-3.7-1.8-3.7-3.6
			c0-1.5,0.8-2.4,2.4-2.9c1.9-0.6,4-1.4,4.6-1.9v-0.5c0-2.1-1-3.2-2.4-3.2c-0.5,0-1,0.2-1.3,0.5c-0.4,0.4-0.6,1-0.9,2
			c-0.2,0.5-0.5,0.7-1,0.7c-0.6,0-1.4-0.6-1.4-1.3c0-0.4,0.4-0.8,1-1.2c0.9-0.6,2.9-1.8,4.6-2.1c0.9,0,1.8,0.2,2.5,0.7
			c1.1,0.9,1.4,2.2,1.4,3.7v5.3c0,1.3,0.5,1.8,1.1,1.8c0.3,0,0.7-0.1,1.1-0.3l0.3,0.8L241.6,402.7z M239.3,395.3
			c-0.6,0.3-1.8,0.9-2.4,1.1c-1.2,0.5-1.8,1.1-1.8,2.2c0,1.6,1.2,2.2,2.1,2.2c0.7,0,1.7-0.4,2.2-1V395.3z"/>
		<path fill="#000000" d="M253.7,402.3v-0.8c1.7-0.2,1.9-0.4,1.9-2.5v-4.8c0-2.1-0.8-3.3-2.7-3.3c-1.1,0-2.2,0.7-3.1,1.5v6.8c0,2,0.2,2.1,1.9,2.3
			v0.8h-6.7v-0.8c2-0.2,2.2-0.4,2.2-2.4v-5.9c0-1.9-0.2-2-1.8-2.3v-0.7c1.4-0.2,3-0.6,4.4-1.2v2.4c0.6-0.4,1.2-0.9,2-1.4
			c0.8-0.5,1.6-0.9,2.5-0.9c2.4,0,3.9,1.7,3.9,4.6v5.5c0,2,0.2,2.1,1.9,2.3v0.8H253.7z"/>
		<path fill="#000000" d="M287,402.3v-0.8c2.4-0.2,2.6-0.4,2.5-3.5l-0.1-11.8h-0.1l-7.4,16h-0.6l-6.8-15.6h-0.1l-0.4,8.3c-0.1,2.4-0.1,3.7-0.1,4.9
			c0.1,1.4,0.8,1.6,2.8,1.8v0.9h-7.1v-0.9c1.7-0.2,2.3-0.6,2.6-1.8c0.2-1,0.3-2.3,0.6-5.5l0.4-5.9c0.3-3.8,0.1-4-2.6-4.3v-0.9h5.1
			l6.8,14.5l6.9-14.5h5.3v0.9c-2.6,0.2-2.8,0.3-2.7,3.2l0.3,10.6c0.1,3.1,0.2,3.3,2.8,3.5v0.8H287z"/>
		<path fill="#000000" d="M310.8,401.6c-0.7,0.1-1.5,0.3-2.4,0.5c-0.8,0.2-1.6,0.4-2.3,0.6l-0.2-0.2v-2.1c-0.7,0.5-1.3,1-2.1,1.5
			c-0.9,0.5-1.5,0.7-2.4,0.7c-2.1,0-3.8-1.2-3.8-4.4v-5.6c0-1.6-0.2-1.8-1-1.9l-0.8-0.2v-0.7c0.6,0,1.4-0.1,2.3-0.2
			c0.8-0.1,1.7-0.2,2.3-0.3c-0.1,0.9-0.1,2.3-0.1,4.3v4c0,2.5,1.2,3.2,2.6,3.2c1,0,2.1-0.4,3.1-1.3v-6.8c0-1.6-0.3-1.8-1.2-2
			l-1.1-0.2v-0.7c0.8,0,1.9-0.1,2.8-0.2c0.9-0.1,1.6-0.2,2.1-0.3v9.7c0,1.5,0.2,1.7,1.4,1.8l0.8,0V401.6z"/>
		<path fill="#000000" d="M318.1,389.4c0.6-0.2,1-0.3,1.4-0.3c3.3,0,6,2.7,6,6.2c0,4.3-3.6,7.4-7.6,7.4c-1.3,0-2.8-0.3-4.6-1v-16.3
			c0-1.9-0.1-2.1-2-2.2v-0.7c1.4-0.2,3.4-0.6,4.6-1v9L318.1,389.4z M315.8,398.8c0,0.4,0.1,0.7,0.2,1c0.2,0.6,1.1,1.6,2.6,1.6
			c2.4,0,3.9-2,3.9-5.4c0-3.4-2.1-5.3-4.5-5.3c-0.8,0-1.7,0.2-2.2,0.5V398.8z"/>
		<path fill="#000000" d="M337.3,402.7c-0.6,0-1.2-0.3-1.5-0.6c-0.4-0.4-0.6-0.8-0.7-1.2c-1.2,0.8-2.6,1.8-3.5,1.8c-2.2,0-3.7-1.8-3.7-3.6
			c0-1.5,0.8-2.4,2.4-2.9c1.9-0.6,4-1.4,4.6-1.9v-0.5c0-2.1-1-3.2-2.4-3.2c-0.5,0-1,0.2-1.3,0.5c-0.4,0.4-0.6,1-0.9,2
			c-0.2,0.5-0.5,0.7-1,0.7c-0.6,0-1.4-0.6-1.4-1.3c0-0.4,0.4-0.8,1-1.2c0.9-0.6,2.9-1.8,4.6-2.1c0.9,0,1.8,0.2,2.5,0.7
			c1.1,0.9,1.4,2.2,1.4,3.7v5.3c0,1.3,0.5,1.8,1.1,1.8c0.3,0,0.7-0.1,1.1-0.3l0.3,0.8L337.3,402.7z M334.9,395.3
			c-0.6,0.3-1.8,0.9-2.4,1.1c-1.2,0.5-1.8,1.1-1.8,2.2c0,1.6,1.2,2.2,2.1,2.2c0.7,0,1.7-0.4,2.2-1V395.3z"/>
		<path fill="#000000" d="M345.5,392.3c1-1.6,2.2-3.2,3.6-3.2c1.1,0,1.8,0.8,1.8,1.5c0,0.7-0.4,1.3-1,1.6c-0.4,0.1-0.6,0.1-0.8-0.1
			c-0.5-0.4-0.8-0.6-1.3-0.6c-0.8,0-1.7,0.9-2.3,2.4v5.3c0,1.9,0.1,2.1,2.5,2.3v0.8h-7.2v-0.8c1.8-0.2,2.1-0.4,2.1-2.3v-6.1
			c0-1.9-0.2-2-1.8-2.2v-0.7c1.5-0.2,2.9-0.6,4.4-1.2L345.5,392.3L345.5,392.3z"/>
		<path fill="#000000" d="M361.8,402.7c-0.6,0-1.2-0.3-1.5-0.6c-0.4-0.4-0.6-0.8-0.7-1.2c-1.2,0.8-2.6,1.8-3.5,1.8c-2.2,0-3.7-1.8-3.7-3.6
			c0-1.5,0.8-2.4,2.4-2.9c1.9-0.6,4-1.4,4.6-1.9v-0.5c0-2.1-1-3.2-2.4-3.2c-0.5,0-1,0.2-1.3,0.5c-0.4,0.4-0.6,1-0.9,2
			c-0.2,0.5-0.5,0.7-1,0.7c-0.6,0-1.4-0.6-1.4-1.3c0-0.4,0.4-0.8,1-1.2c0.9-0.6,2.9-1.8,4.6-2.1c0.9,0,1.8,0.2,2.5,0.7
			c1.1,0.9,1.4,2.2,1.4,3.7v5.3c0,1.3,0.5,1.8,1.1,1.8c0.3,0,0.7-0.1,1.1-0.3l0.3,0.8L361.8,402.7z M359.5,395.3
			c-0.6,0.3-1.8,0.9-2.4,1.1c-1.2,0.5-1.8,1.1-1.8,2.2c0,1.6,1.2,2.2,2.1,2.2c0.7,0,1.7-0.4,2.2-1V395.3z"/>
		<path fill="#000000" d="M376,402.4c-1.4-1.5-3.2-3.9-4.8-5.8c-0.4-0.4-0.6-0.6-0.9-0.6c-0.1,0-0.3,0-0.4,0v3.2c0,2,0.3,2.1,2.2,2.3v0.8h-6.9v-0.8
			c2-0.2,2.2-0.4,2.2-2.3v-13.9c0-1.9-0.2-2.1-2-2.3v-0.7c1.4-0.1,3.2-0.6,4.6-1v13.9c0.9-0.2,1.4-0.6,1.9-1
			c0.6-0.6,1.6-1.8,2.1-2.6c0.6-0.9,0.5-1.1-0.9-1.3v-0.8l6.3-0.3v0.8c-2,0.3-2.8,0.6-4,1.7c-0.8,0.7-1.3,1.3-2.5,2.7
			c0.6,0.9,3.7,4.4,4.7,5.4c1,1.1,1.9,1.6,3,1.6v0.8L376,402.4z"/>
	</g>
	<g>
		<path fill="#000000" d="M405.9,300.7c-6.1,2.9-12.4,4.2-18.9,3.7c-19.3-1.4-33.8-10.7-43.5-27.2c-3.2-5.4-4.9-11.7-7.3-17.6
			c-0.2-0.5-0.2-1.1-0.3-1.6c0-0.2,0.1-0.4,0.2-0.9c7.3,17.4,19,29.9,37.1,35.7c10.3,3.3,22.8,3.1,29.1-0.1c-1-3.9-2.2-7.8-2.9-11.7
			c-3.6-19.4-0.8-37.9,8.4-55.4c0.6-1.2,0.9-2.9,0.7-4.2c-1.8-11.6-1.4-23.2,0.4-34.7c0.2-1.4-0.1-2.4-1.1-3.3
			c-3.8-3.4-7.6-6.8-11.2-10.4c-2.2-2.3-4-4.9-5.8-7.6c-3-4.6-3.4-9.5-1.1-14.6c0.9-1.9,1.7-3.8,2.6-5.6c0.5-1,1.3-1.9,2.3-3.2
			c1.9,12.2,10.6,16.1,20.6,19.1c9.2-25.9,25.4-46.1,47.8-61.9c-0.9-0.6-1.5-1.1-2.1-1.5C448,89.6,434.5,82.4,420.3,77
			c-7.1-2.7-14.6-4.7-22.3-4.6c-1.5,0-3,0.2-4.5,0.5c-3.5,0.7-3.9,1.1-2.4,4.4c1.7,3.8,3.6,7.7,6.1,11c9.2,11.9,20.6,21.3,34.2,27.7
			c1.1,0.5,1.9,1,1.3,2.3c-1.7,4.1-3.4,8.2-5.1,12.3c-0.7,1.6-1.8,1.7-3.3,1c-14.5-7.1-26.7-17-35.7-30.5
			c-6.8-10.3-6.4-20.8-0.5-31.4c2.7-4.9,6.9-7.9,12.3-8.6c4.4-0.6,9.1-0.6,13.5,0c12.2,1.7,23.2,6.7,33.9,12.4
			c9.4,5.1,18.6,10.6,27.8,15.9c1.3,0.8,2.3,0.9,3.7,0.2c20.1-10.3,41.5-16.1,63.7-19.6c1.2-0.2,2.5-0.2,3.9,0
			c-20.9,6.6-41,15-60.3,25.9c0.4,0.4,0.5,0.6,0.8,0.8c16.6,10.1,33,20.6,49.8,30.3c11.1,6.4,23,11.4,35.8,13.6
			c16.4,2.9,32.7,3.3,48.5-3c8.9-3.5,17.3-7.9,24.6-14c2-1.6,3.6-3.7,5.4-5.6c0.2,0.2,0.4,0.3,0.6,0.5c-1.4,1.9-2.7,4.1-4.4,5.8
			c-14.4,14.4-31.1,24.5-51.7,26.5c-17.4,1.7-34.6,0.3-51.3-6c-15.6-5.9-30.1-13.9-44.2-22.5c-8.6-5.3-17.2-10.6-25.8-16
			c-1.9-1.2-3.1-1.3-5,0c-17.6,12.4-32.7,27.1-44,45.6c-1.8,3-3.4,6.1-5.5,9.7c2.4-0.3,4.2-0.3,5.9-0.7c6.7-1.3,12.3-4.6,17.2-9.4
			c1.9-1.9,2.8-3.9,1.5-6.8c-1.8-4.2,0.7-7.7,2.6-11.8c2.1,3.5,3.7,6.4,2.8,10.1c-3.1,12.7-8.9,23.5-21,29.8c-2.2,1.1-4.5,1.9-7.3,3
			c1.1,0.9,2.2,1.5,2.9,2.4c3.2,4,6.9,7.8,9.4,12.3c6.3,11,8.6,23.1,7.5,35.8c-0.6,7-1.9,13.9-3,20.8c-0.2,1.5,0.2,2.3,1.3,3
			c7.4,4.8,14.8,9.6,22.3,14.4c0.4,0.3,0.9,0.4,1.3,0.7c2.2,1.4,5.3,2.2,5.8,5.3c0.8,4.3,0,8.6-1.9,12.5c-0.8,1.6-2.2,1.1-3.3,0.4
			c-6.4-3.5-12.8-6.8-19-10.6c-4-2.4-7.6-5.5-11.5-8.3c-4.7,11.8-10.1,23.1-20.1,31.4c7.7,14.2,37.2,29.5,50.8,25.9
			c-4.1-3-8-5.7-11.7-8.7c-4.3-3.4-8.7-6.7-12.6-10.6c-5.5-5.5-5.2-13.8,0.3-19c1.7,2,3.1,4.2,5,5.9c3.8,3.3,7.8,6.6,12,9.4
			c7.6,5.2,15.2,10.5,21.5,17.4c1.2,1.3,2.2,1.4,3.6,0.4c4.7-3.1,8.6-7.1,11.9-12.2c-2.2-1.5-4.5-2.8-6.5-4.4
			c-3.6-2.9-7.1-5.9-10.4-9.1c-2.9-2.9-3.4-6.5-2.4-10.4c0.7-2.5,1.5-5,2.3-7.5c0.3-0.7,0.8-1.4,1.4-2.3c2.2,7.4,7.7,11.4,13.2,15.2
			c1.9,1.3,3.9,2.5,5.8,3.8c3.9,2.9,5.5,9.2,3.5,13.6c-1.7,3.8-3.3,7.6-5.4,11.2c-2.2,3.9-4.9,7.6-7.3,11.4
			c-0.4,0.7-0.8,1.8-0.5,2.4c7.5,13.4,8,27.5,4.1,41.9c-4.1,14.9-12.2,27.4-24.1,37.4c-11.6,9.7-24.2,11.3-37.9,5.6
			c-2.9-1.2-5.3-3.4-7.8-5.4c-12.3-10.2-17.6-23.8-17.9-39.3c-0.3-15.7,5.4-29.4,14.9-41.7c0.2-0.2,0.3-0.5,0.9-0.5
			c-0.5,0.8-1.1,1.6-1.6,2.5c-3,5.8-6.5,11.4-8.8,17.4c-6.4,17.3-0.9,39.2,15.6,50.9c11.3,8,23.3,9,35.8,4
			c8.1-3.3,14.1-9.6,19.9-16.1c6.3-7.1,7.2-15.3,6.4-24.1c-0.8-9.2-4.1-17.3-9.5-24.6c-0.7-0.9-1.2-1.4-2.5-0.9
			c-14.8,6.1-28.7,3.9-41.9-4.4c-11.3-7.1-20-16.6-26.6-28.2C406.8,302.3,406.5,301.6,405.9,300.7z M409.8,227
			c-11.8,18.7-12,50-0.5,62.8c9.4-5.7,16.3-13.5,20.2-24c1.1-3,1.3-5.3-1.5-7.2c-0.8-0.5-1.3-1.4-1.9-2.1
			C418.6,247.9,413.2,238.2,409.8,227z M426.3,202.7c-3.4,4.4-6.4,8.5-9.5,12.4c-1,1.2-1,2.3-0.4,3.7c3.9,9,9.2,17.1,15.9,24.2
			c0.5,0.5,1.1,1,1.9,1.7C436.2,229.8,433.9,216,426.3,202.7z M413,187.4c-0.3,0.2-0.6,0.4-0.9,0.6c-1.1,8.9-0.4,17.6,2.7,26.3
			c3.4-4,6.6-7.7,9.7-11.5c0.4-0.5,0.6-1.9,0.2-2.3C420.9,196,416.9,191.7,413,187.4z"/>
		<path fill="#000000" d="M362.5,211.3c3.6,0.5,6.4,0.8,9.1,1.2c0.4,0.1,0.8,0.1,1.2,0.2c13.3,3.1,18.9,10.8,17.1,24.5c-1.1,8.7-3.8,16.9-8,24.6
			c-0.6,1.1-1.4,2-2.1,3c-12.4-6.8-21.1-20.3-24.1-37.4c-2.5,0.2-5,0.3-7.5,0.6c-12.9,1.7-25.1,5.7-37.2,10.2
			c-13,4.9-25.9,10.4-39.2,14.5c-16.6,5.2-33.6,6.6-50.7,2.3c-11.5-2.9-22.3-7.7-31.9-14.7c-0.6-0.4-1.1-1-1.7-1.4
			c0.1-0.2,0.2-0.4,0.3-0.5c2.7,1,5.4,2,8.2,3c26.9,9.3,53.7,7.9,80.1-1.5c14.5-5.1,28.6-11.7,42.9-17.5
			c11.8-4.8,23.9-8.8,36.7-10.4c1.5-0.2,1.7-1.4,2.2-2.6c0.7-1.7,1.5-3.4,2.2-5.1c1.5-3.7,3-7.3,5-10.8c0.1-0.1,0.1-0.2,0.2-0.3
			c3.9-6.9,10.1-10.9,18.2-11.5c4.2-0.3,7.9,1,11,3.7c2.5,2.2,3.9,5.1,3.3,8.3c-0.6,3.1-1.9,6.2-3.1,9.2c-0.6,1.6-2,2-3.1,0.3
			c-6.9-10.3-21.4-6.5-27.4,0.7C362.7,205.5,362.3,208.4,362.5,211.3z M382.7,246.6c0.9-8.6-6.5-17-15.1-17.4
			C371.4,236.1,376.3,241.8,382.7,246.6z"/>
		<path fill="#000000" d="M501.5,276.7c-0.3-4.6,1.3-9.5,0.7-14.4c-0.7-6.4-4-11.6-8.3-16.3c-7.7-8.4-17.3-14.6-26.1-21.5c-1.8-1.4-3.4-3-5.3-4.7
			c-2,6.1-0.9,11.6,3.3,15.8c4.1,4.2,8.9,7.7,13.5,11.2c6.1,4.7,12.7,8.8,17.8,14.7c4.5,5.3,6.5,11,3.9,17.8
			c-0.9,2.2-1.7,4.5-2.6,6.7c-0.2-0.1-0.5-0.1-0.7-0.2c-0.6-1.8-1-3.6-1.8-5.3c-2.9-5.8-7.6-9.9-12.7-13.7
			c-6.1-4.5-12.2-8.9-18.2-13.5c-7.4-5.7-9.5-13.5-8-22.3c0.8-4.6,1.9-9.2,2.9-13.8c0.1-0.7,0-1.6-0.1-2.3c-1.6-7,0.6-13.3,3.8-19.4
			c0.1-0.2,0.4-0.2,1-0.6c0.1,0.9,0.3,1.7,0.1,2.4c-1.1,3.4,0.3,6,2.6,8.1c4,3.6,8.2,7,12.4,10.4c6,4.9,12.2,9.7,18.3,14.7
			c0-1,0.2-2.5,0-3.9c-1.5-10.4-6.1-18.6-15.3-24.4c-5.7-3.6-11.1-7.7-16.2-12.2c-7.1-6.2-9.1-14.4-7.5-23.4
			c0.9-5.1,2.3-10.2,3.6-15.3c2.6-9.6,16.2-22.1,26.4-13.6c3.1,2.6,5.5,6.4,7.5,10c2.3,4,2.7,8.7,1.5,13.2
			c-1.5,5.7-3.3,11.4-5.1,17.1c-0.6,1.9-1.9,2.8-4,1.4c-2.3-1.5-4.8-2.5-7.1-4c-6.4-4.1-8.6-10-6.9-17.3c0.6-2.7,1.3-5.4,2-8.4
			c-0.7,0.1-1.3,0.1-1.8,0.3c-3,1.1-6.3,1.7-8.7,3.5c-3.2,2.3-3.2,6.2-2.6,9.8c1.1,6.9,5.4,11.8,10.6,15.9c5.3,4.2,11,7.9,16.5,11.8
			c6.1,4.3,9.3,10.4,10.9,17.4c1.9,8.1,2.3,16.2-0.6,24.3c-0.3,0.8-0.2,2,0.2,2.6c4.7,6.1,6.4,13,5.6,20.5c-0.7,6.5-3.8,13-4.9,19.5
			C501.9,276,501.6,276.6,501.5,276.7z M480.2,149.8c-2.3,5.3,5.2,14,12.9,15.1C490.6,158.2,487.5,152.4,480.2,149.8z"/>
		<path fill="#000000" d="M506.4,142.6c2.3,3.5,4.1,6.7,6.3,9.6c3.5,4.5,7.2,8.9,11,13.2c8.4,9.5,16.1,19.6,22.1,30.8c7.8,14.5,10.6,30,7.7,46.4
			c-3.1,18.2-9.7,35.1-21.2,49.6c-7.6,9.6-17.2,17.3-28.5,22.4c-1.2,0.5-2.5,1-3.9,1.1c2.9-2.2,6-4.3,8.8-6.6
			c14.6-12.1,27.3-25.8,35-43.5c6-13.8,6.2-27.8,2-42c-3.5-11.8-10.2-21.9-17.4-31.6c-4.9-6.6-10.4-12.9-15.6-19.4
			c-4.2-5.2-7.9-10.6-9.4-17.3C502.4,150.7,504.3,146.8,506.4,142.6z"/>
		<path fill="#000000" d="M460.9,361.6c-1,5-2.6,9.3-5.3,13.2c-0.7,1-1.5,1.3-2.6,0.5c-3.3-2.3-6.7-4.6-10.1-6.8c-1.9-1.2-2.4-2.8-1.7-4.7
			c1.2-3.3,2.7-6.6,4.1-9.9c0.8-1.8,2.2-2.1,3.9-1c3.5,2.3,7,4.5,10.4,6.8C460.2,360.1,460.5,361.1,460.9,361.6z"/>
		<path fill="#000000" d="M339.8,289.6c-1.2,5-3,9.2-5.8,13c-0.7,0.9-1.5,1.2-2.6,0.4c-3.2-2.4-6.5-4.8-9.9-7.1c-1.8-1.3-2.3-2.9-1.5-4.8
			c1.4-3.3,2.9-6.5,4.5-9.7c0.9-1.8,2.3-2,4-0.8c3.4,2.4,6.8,4.7,10.1,7.2C339.2,288.1,339.5,289.1,339.8,289.6z"/>
		<path fill="#000000" d="M319.7,293.1c-1.2,5-3,9.2-5.8,13c-0.7,0.9-1.5,1.2-2.6,0.4c-3.2-2.4-6.5-4.8-9.9-7.1c-1.8-1.3-2.3-2.9-1.5-4.8
			c1.4-3.3,2.9-6.5,4.5-9.7c0.9-1.8,2.3-2,4-0.8c3.4,2.4,6.8,4.7,10.1,7.2C319.1,291.6,319.4,292.6,319.7,293.1z"/>
		<path fill="#000000" d="M437.4,185.3c1.2-4.8,3-9.1,6-12.8c0.3-0.3,1.4-0.3,1.8,0c3.5,2.5,7,5,10.3,7.7c0.6,0.4,0.9,1.8,0.6,2.5
			c-1.8,4.1-3.7,8.2-5.7,12.2c-0.2,0.4-1.7,0.8-2,0.5c-3.4-2.7-6.7-5.5-10-8.4C437.9,186.6,437.7,185.8,437.4,185.3z"/>
	</g>
</g>
<g>
	<g>
		<path fill="#000000" d="M210.8,433.2v-0.7c1.4-0.2,1.7-0.4,1.3-1.3c-0.3-0.9-0.7-2-1.2-3.3h-5c-0.4,1-0.7,1.9-1,2.8c-0.5,1.4-0.3,1.7,1.4,1.8v0.7
			h-5.1v-0.7c1.5-0.2,1.8-0.4,2.7-2.4l4.9-11.9l0.8-0.2c1.5,4,3,8.1,4.5,12.1c0.7,2,1.1,2.3,2.6,2.4v0.7H210.8z M208.6,421.2
			L208.6,421.2c-0.8,1.9-1.5,3.8-2.2,5.7h4.3L208.6,421.2z"/>
		<path fill="#000000" d="M221.9,423.3c0.4-0.2,0.8-0.3,1-0.3c2.5,0,4.7,2.1,4.7,4.8c0,3.3-2.8,5.7-5.9,5.7c-1,0-2.2-0.2-3.5-0.8v-12.6
			c0-1.4-0.1-1.6-1.5-1.7v-0.5c1.1-0.1,2.6-0.5,3.5-0.8v7L221.9,423.3z M220.2,430.5c0,0.3,0,0.6,0.1,0.8c0.2,0.5,0.8,1.3,2,1.3
			c1.8,0,3.1-1.5,3.1-4.2c0-2.6-1.6-4.1-3.5-4.1c-0.6,0-1.3,0.2-1.7,0.4V430.5z"/>
		<path fill="#000000" d="M240.9,432.6c-0.5,0.1-2.3,0.4-3.8,0.9V432l-1.4,0.8c-0.9,0.5-1.5,0.7-1.8,0.7c-1.9,0-4.4-1.7-4.4-4.8
			c0-3.2,2.8-5.6,6.1-5.6c0.3,0,0.9,0.1,1.5,0.2v-3.2c0-1.5-0.2-1.5-1.8-1.7v-0.6c1.3-0.2,2.9-0.5,3.8-0.8v13.5
			c0,1.2,0.2,1.4,1.1,1.4l0.7,0.1V432.6z M237.1,425.1c-0.6-0.8-1.5-1.2-2.4-1.2c-1,0-2.9,0.8-2.9,4.1c0,2.7,1.7,4,3.2,4
			c0.8,0,1.5-0.3,2.1-0.7V425.1z"/>
		<path fill="#000000" d="M253.1,432.7c-0.5,0.1-1.2,0.2-1.8,0.4c-0.6,0.2-1.3,0.3-1.7,0.5l-0.2-0.1v-1.6c-0.5,0.4-1,0.8-1.6,1.2
			c-0.7,0.4-1.2,0.6-1.8,0.6c-1.6,0-2.9-1-2.9-3.4v-4.3c0-1.2-0.2-1.4-0.8-1.5l-0.6-0.2v-0.5c0.5,0,1.1-0.1,1.7-0.2
			c0.7-0.1,1.3-0.2,1.7-0.2c-0.1,0.7-0.1,1.8-0.1,3.3v3.1c0,1.9,1,2.5,2,2.5c0.8,0,1.6-0.3,2.4-1v-5.2c0-1.2-0.2-1.4-0.9-1.5
			l-0.8-0.1v-0.5c0.7,0,1.5-0.1,2.2-0.2c0.7,0,1.2-0.2,1.6-0.2v7.5c0,1.2,0.2,1.3,1.1,1.4l0.6,0V432.7z"/>
		<path fill="#000000" d="M253.9,433.2v-0.6c1.4-0.2,1.7-0.3,1.7-1.8v-10.7c0-1.5-0.2-1.6-1.6-1.7v-0.6c1.2-0.1,2.7-0.5,3.6-0.8v13.8
			c0,1.5,0.2,1.7,1.7,1.8v0.6H253.9z"/>
		<path fill="#000000" d="M265.9,438.7v-0.6c1.8-0.2,2-0.3,2-1.9v-3.6l-2.4,0.9c-3.5,0-5.1-2.6-5.1-4.7c0-3.3,3-5.7,6.3-5.7
			c0.9,0.1,1.4,0.2,1.7,0.3c0.3,0.1,0.5,0.1,0.7,0.1c0.2,0,0.5-0.1,0.9-0.2l0.1,0.1c0,0.5-0.1,0.9-0.1,2.4v10.6
			c0,1.6,0.1,1.7,1.8,1.8v0.6H265.9z M267.8,424.9c-0.5-0.6-1.5-1-2.2-1c-1.5,0-3,1.3-3,4c0,2.7,1.9,4.2,3.6,4.2
			c0.7,0,1.2-0.2,1.6-0.4V424.9z"/>
		<path fill="#000000" d="M279.8,433.5c-0.4,0-0.9-0.2-1.2-0.5c-0.3-0.3-0.5-0.6-0.6-1c-0.9,0.6-2,1.4-2.7,1.4c-1.7,0-2.9-1.4-2.9-2.8
			c0-1.1,0.6-1.8,1.9-2.2c1.5-0.5,3.1-1.1,3.6-1.5v-0.4c0-1.6-0.7-2.5-1.9-2.5c-0.4,0-0.7,0.2-1,0.4c-0.3,0.3-0.5,0.8-0.7,1.5
			c-0.1,0.4-0.4,0.6-0.7,0.6c-0.5,0-1.1-0.5-1.1-1c0-0.3,0.3-0.6,0.7-0.9c0.7-0.5,2.2-1.4,3.5-1.6c0.7,0,1.4,0.2,1.9,0.6
			c0.9,0.7,1.1,1.7,1.1,2.9v4.1c0,1,0.4,1.4,0.8,1.4c0.3,0,0.6-0.1,0.8-0.2l0.2,0.6L279.8,433.5z M277.9,427.8
			c-0.5,0.2-1.4,0.7-1.9,0.9c-0.9,0.4-1.4,0.8-1.4,1.7c0,1.2,0.9,1.7,1.6,1.7c0.5,0,1.3-0.3,1.7-0.7V427.8z"/>
		<path fill="#000000" d="M294.1,432.6c-0.5,0.1-2.3,0.4-3.8,0.9V432l-1.4,0.8c-0.9,0.5-1.5,0.7-1.8,0.7c-1.9,0-4.4-1.7-4.4-4.8
			c0-3.2,2.8-5.6,6.1-5.6c0.3,0,0.9,0.1,1.5,0.2v-3.2c0-1.5-0.2-1.5-1.8-1.7v-0.6c1.3-0.2,2.9-0.5,3.8-0.8v13.5
			c0,1.2,0.2,1.4,1.1,1.4l0.7,0.1V432.6z M290.3,425.1c-0.6-0.8-1.5-1.2-2.4-1.2c-1,0-2.9,0.8-2.9,4.1c0,2.7,1.7,4,3.2,4
			c0.8,0,1.5-0.3,2.1-0.7V425.1z"/>
		<path fill="#000000" d="M303.6,431.2c-1.5,1.9-3.2,2.3-3.9,2.3c-2.8,0-4.5-2.3-4.5-4.8c0-1.5,0.5-2.9,1.5-3.9c1-1.1,2.3-1.7,3.5-1.7h0
			c2,0,3.6,1.7,3.6,3.5c0,0.4-0.1,0.6-0.5,0.7c-0.4,0.1-3.3,0.3-6,0.4c0,2.9,1.8,4.2,3.4,4.2c1,0,1.8-0.4,2.7-1.1L303.6,431.2z
			 M299.6,423.9c-1,0-2,0.9-2.3,2.8c1.2,0,2.5,0,3.8,0c0.4,0,0.5-0.1,0.5-0.4C301.6,425,300.8,423.9,299.6,423.9L299.6,423.9z"/>
		<path fill="#000000" d="M308.7,425.5c0.8-1.2,1.7-2.5,2.8-2.5c0.8,0,1.4,0.6,1.4,1.2c0,0.5-0.3,1-0.8,1.2c-0.3,0.1-0.5,0.1-0.6-0.1
			c-0.4-0.3-0.6-0.5-1-0.5c-0.6,0-1.3,0.7-1.8,1.9v4.1c0,1.5,0.1,1.6,1.9,1.8v0.6H305v-0.6c1.4-0.1,1.6-0.3,1.6-1.8v-4.7
			c0-1.4-0.1-1.5-1.4-1.7v-0.5c1.2-0.2,2.2-0.5,3.4-0.9L308.7,425.5L308.7,425.5z"/>
		<path fill="#000000" d="M329.3,433.2v-0.7c1.4-0.2,1.7-0.4,1.3-1.3c-0.3-0.9-0.7-2-1.2-3.3h-5c-0.4,1-0.7,1.9-1,2.8c-0.5,1.4-0.3,1.7,1.4,1.8v0.7
			h-5.1v-0.7c1.5-0.2,1.8-0.4,2.7-2.4l4.9-11.9l0.8-0.2c1.5,4,3,8.1,4.5,12.1c0.7,2,1.1,2.3,2.6,2.4v0.7H329.3z M327,421.2
			L327,421.2c-0.8,1.9-1.5,3.8-2.2,5.7h4.3L327,421.2z"/>
		<path fill="#000000" d="M336.1,433.2v-0.6c1.4-0.2,1.7-0.3,1.7-1.8v-10.7c0-1.5-0.2-1.6-1.6-1.7v-0.6c1.2-0.1,2.7-0.5,3.6-0.8v13.8
			c0,1.5,0.2,1.7,1.7,1.8v0.6H336.1z"/>
		<path fill="#000000" d="M350.6,433.3c-1.1-1.2-2.5-3-3.7-4.5c-0.3-0.3-0.5-0.5-0.7-0.5c-0.1,0-0.2,0-0.3,0v2.5c0,1.5,0.2,1.6,1.7,1.8v0.6h-5.4
			v-0.6c1.5-0.2,1.7-0.3,1.7-1.8v-10.7c0-1.5-0.1-1.6-1.5-1.7v-0.5c1.1-0.1,2.5-0.5,3.5-0.8v10.7c0.7-0.1,1.1-0.5,1.4-0.8
			c0.5-0.5,1.2-1.4,1.6-2c0.5-0.7,0.4-0.9-0.7-1v-0.6l4.9-0.2v0.6c-1.6,0.2-2.2,0.5-3.1,1.3c-0.6,0.6-1,1-1.9,2.1
			c0.5,0.7,2.9,3.4,3.6,4.2c0.8,0.8,1.4,1.2,2.3,1.2v0.6L350.6,433.3z"/>
		<path fill="#000000" d="M361.7,433.5c-0.4,0-0.9-0.2-1.2-0.5c-0.3-0.3-0.5-0.6-0.6-1c-0.9,0.6-2,1.4-2.7,1.4c-1.7,0-2.9-1.4-2.9-2.8
			c0-1.1,0.6-1.8,1.9-2.2c1.5-0.5,3.1-1.1,3.6-1.5v-0.4c0-1.6-0.7-2.5-1.9-2.5c-0.4,0-0.7,0.2-1,0.4c-0.3,0.3-0.5,0.8-0.7,1.5
			c-0.1,0.4-0.4,0.6-0.7,0.6c-0.5,0-1.1-0.5-1.1-1c0-0.3,0.3-0.6,0.7-0.9c0.7-0.5,2.2-1.4,3.5-1.6c0.7,0,1.4,0.2,1.9,0.6
			c0.9,0.7,1.1,1.7,1.1,2.9v4.1c0,1,0.4,1.4,0.8,1.4c0.3,0,0.6-0.1,0.8-0.2l0.2,0.6L361.7,433.5z M359.8,427.8
			c-0.5,0.2-1.4,0.7-1.9,0.9c-0.9,0.4-1.4,0.8-1.4,1.7c0,1.2,0.9,1.7,1.6,1.7c0.5,0,1.3-0.3,1.7-0.7V427.8z"/>
		<path fill="#000000" d="M366.1,423c0-0.7,0.1-1.3,0.3-1.8c0.2-0.6,0.7-1.6,1.8-2.4c0.9-0.7,1.9-1.1,2.9-1.2c1.4,0,2.3,0.6,2.8,1.2
			c1.1-1.1,2.1-1.5,3.1-1.7c0.8,0,1.5,0.4,1.9,0.8c0.2,0.2,0.2,0.5,0.1,0.8c-0.1,0.2-0.3,0.5-0.5,0.6c-0.2,0.2-0.5,0.2-0.7,0
			c-0.4-0.4-1.2-1-1.9-1c-0.6,0-0.9,0.3-1.2,0.7c-0.2,0.5-0.5,1.5-0.4,3.5l0,0.9h2.8c0.1,0.2,0.1,0.8-0.2,1h-2.6v6.6
			c0,1.5,0.2,1.6,1.9,1.8v0.6H371v-0.6c1.2-0.2,1.4-0.3,1.4-1.8v-6.6h-4.3v6.6c0,1.4,0.2,1.6,1.5,1.8v0.6h-5.1v-0.6
			c1.4-0.1,1.6-0.3,1.6-1.7v-6.6h-1.7l-0.1-0.3l0.6-0.7h1.1V423z M372.4,422.8c0-0.7,0.1-1.3,0.2-1.6c0.1-0.4,0.2-0.7,0.4-1.1
			c-0.5-0.7-1.4-1.6-2.6-1.6c-0.9,0-1.4,0.5-1.7,1c-0.3,0.6-0.6,1.5-0.6,3.2v0.6h4.3V422.8z"/>
	</g>
</g>
<path fill="#000000" d="M273.602,481.306c-0.578-0.576-1.301-1.03-2.174-1.362c-0.873-0.331-1.885-0.497-3.039-0.497
	c-0.663,0-1.463,0.079-2.4,0.238v-6.077h-1.535v17.711c0.706,0.202,1.402,0.354,2.087,0.454s1.301,0.151,1.849,0.151
	c1.153,0,2.166-0.162,3.039-0.486s1.596-0.764,2.174-1.319c0.576-0.555,1.006-1.211,1.287-1.968s0.42-1.561,0.42-2.411
	s-0.139-1.657-0.42-2.422C274.608,482.554,274.178,481.883,273.602,481.306z M272.391,489.167c-0.852,0.829-2.17,1.243-3.958,1.243
	c-0.39,0-0.805-0.032-1.244-0.097c-0.439-0.065-0.84-0.134-1.2-0.206v-8.845c0.447-0.115,0.887-0.194,1.319-0.237
	c0.433-0.044,0.808-0.065,1.125-0.065c0.894,0,1.668,0.112,2.325,0.335c0.656,0.224,1.199,0.545,1.633,0.963
	c0.432,0.418,0.752,0.919,0.961,1.503s0.314,1.243,0.314,1.979C273.667,487.195,273.241,488.338,272.391,489.167z M247.392,479.446
	c-0.62,0-1.297,0.079-2.033,0.238c-0.735,0.158-1.485,0.433-2.249,0.821l-0.065,1.73c0.548-0.303,0.973-0.52,1.276-0.649
	s0.624-0.237,0.962-0.324c0.338-0.086,0.677-0.158,1.016-0.216s0.667-0.087,0.984-0.087c1.139,0,1.982,0.249,2.53,0.746
	s0.822,1.33,0.822,2.498v0.13c-0.332-0.044-0.732-0.087-1.2-0.13c-0.469-0.043-0.876-0.065-1.222-0.065
	c-1.831,0-3.302,0.311-4.412,0.931c-1.11,0.619-1.665,1.644-1.665,3.07c0,0.707,0.155,1.305,0.465,1.795
	c0.31,0.49,0.713,0.88,1.211,1.168s1.067,0.497,1.708,0.627c0.641,0.13,1.308,0.194,2,0.194c0.807,0,1.6-0.072,2.378-0.216
	c0.779-0.145,1.536-0.368,2.271-0.671v-7.028c0-1.585-0.397-2.742-1.189-3.471C250.189,479.811,248.992,479.446,247.392,479.446z
	 M250.636,489.892c-0.375,0.144-0.858,0.267-1.449,0.367c-0.591,0.102-1.183,0.151-1.773,0.151c-0.505,0-0.984-0.035-1.438-0.108
	c-0.454-0.071-0.84-0.197-1.157-0.378c-0.317-0.18-0.57-0.414-0.757-0.703c-0.188-0.288-0.281-0.663-0.281-1.124
	c0-0.52,0.111-0.934,0.335-1.244c0.224-0.31,0.533-0.551,0.93-0.724c0.396-0.174,0.85-0.296,1.362-0.368
	c0.511-0.072,1.041-0.108,1.589-0.108c0.476,0,0.984,0.029,1.524,0.087c0.541,0.058,0.912,0.108,1.114,0.151V489.892z
	 M258.032,479.868c-0.649,0.122-1.276,0.263-1.881,0.422v11.418h1.535v-10.186c0.202-0.072,0.563-0.147,1.082-0.228
	c0.519-0.079,1.002-0.118,1.449-0.118h1.989v-1.492H260C259.336,479.685,258.681,479.746,258.032,479.868z M-77.92,487.667
	l241.145,0.656l0.663-0.433l-0.632-0.564L-77.92,487.667z M164.994,487.825l1.95,1.95l1.95-1.95l-1.95-1.95L164.994,487.825z
	 M169.559,487.825l3.057,3.057l3.057-3.057l-3.057-3.057L169.559,487.825z M212.359,489.286l-3.395-9.602h-1.514l-3.396,9.602
	l-2.984-9.602h-1.73l3.979,12.023h1.428l3.46-9.645l3.46,9.645h1.427l3.979-12.023h-1.73L212.359,489.286z M238.418,489.589
	c-0.317,0-0.591,0.115-0.822,0.346c-0.231,0.23-0.346,0.505-0.346,0.822c0,0.316,0.115,0.591,0.346,0.821
	c0.23,0.23,0.504,0.346,0.822,0.346c0.317,0,0.591-0.115,0.822-0.346c0.23-0.23,0.346-0.505,0.346-0.821
	c0-0.317-0.116-0.592-0.346-0.822C239.009,489.704,238.735,489.589,238.418,489.589z M193.243,489.286l-3.395-9.602h-1.514
	l-3.396,9.602l-2.984-9.602h-1.73l3.979,12.023h1.428l3.46-9.645l3.46,9.645h1.427l3.979-12.023h-1.73L193.243,489.286z
	 M231.476,489.286l-3.395-9.602h-1.514l-3.396,9.602l-2.984-9.602h-1.73l3.979,12.023h1.428l3.46-9.645l3.46,9.645h1.427
	l3.979-12.023h-1.73L231.476,489.286z M382.732,480.474c-0.426-0.396-0.938-0.667-1.535-0.812c-0.598-0.144-1.271-0.216-2.021-0.216
	c-0.664,0-1.393,0.09-2.184,0.271c-0.793,0.181-1.471,0.4-2.033,0.659c-0.346-0.331-0.818-0.569-1.416-0.714
	c-0.6-0.144-1.273-0.216-2.023-0.216c-0.635,0-1.268,0.058-1.902,0.173l-2.465,0.454v11.635h1.535v-10.38
	c0.447-0.102,0.883-0.188,1.309-0.26c0.424-0.072,0.896-0.108,1.416-0.108c0.605,0,1.125,0.058,1.557,0.173
	c0.434,0.116,0.789,0.321,1.07,0.616c0.281,0.296,0.494,0.711,0.639,1.244s0.217,1.24,0.217,2.119v6.596h1.535v-7.201
	c0-0.663-0.055-1.243-0.162-1.741c-0.109-0.497-0.213-0.861-0.314-1.092c0.086-0.043,0.281-0.119,0.584-0.228
	c0.303-0.107,0.602-0.197,0.898-0.27c0.295-0.072,0.586-0.126,0.875-0.162s0.547-0.055,0.779-0.055c0.59,0,1.102,0.058,1.535,0.173
	c0.432,0.116,0.781,0.317,1.049,0.605c0.266,0.289,0.471,0.703,0.615,1.244c0.145,0.54,0.217,1.251,0.217,2.13v6.596h1.535v-7.201
	c0-0.995-0.111-1.816-0.336-2.466C383.482,481.393,383.158,480.87,382.732,480.474z M280.1,474.581
	c-0.785,0.648-1.18,1.729-1.18,3.243v1.86h-2.551v1.492h2.551v10.531h1.537v-10.531h4.973v-1.492h-4.973v-1.471
	c0-0.635,0.045-1.149,0.141-1.546c0.094-0.396,0.24-0.707,0.443-0.931c0.201-0.223,0.475-0.385,0.82-0.486
	c0.346-0.101,0.779-0.151,1.299-0.151h2.422v-1.492h-2.271C281.956,473.607,280.885,473.932,280.1,474.581z M398.273,487.825
	l3.057,3.057l3.057-3.057l-3.057-3.057L398.273,487.825z M343.322,482.322c0.389-0.418,0.854-0.749,1.395-0.994
	s1.135-0.368,1.783-0.368c0.736,0,1.373,0.076,1.914,0.228s1.121,0.414,1.74,0.789l0.715-1.405c-0.707-0.39-1.393-0.674-2.055-0.854
	c-0.664-0.181-1.436-0.271-2.314-0.271c-0.85,0-1.639,0.155-2.367,0.465c-0.729,0.311-1.367,0.746-1.914,1.309
	c-0.549,0.563-0.98,1.222-1.297,1.979c-0.317,0.757-0.476,1.59-0.476,2.498s0.158,1.74,0.476,2.497
	c0.316,0.757,0.748,1.413,1.297,1.969c0.547,0.555,1.186,0.987,1.914,1.297c0.729,0.311,1.518,0.465,2.367,0.465
	c0.879,0,1.65-0.09,2.314-0.27c0.662-0.181,1.348-0.466,2.055-0.854l-0.715-1.406c-0.619,0.375-1.199,0.639-1.74,0.79
	s-1.178,0.227-1.914,0.227c-0.648,0-1.242-0.119-1.783-0.356c-0.541-0.238-1.006-0.565-1.395-0.984
	c-0.391-0.418-0.693-0.915-0.908-1.492c-0.217-0.576-0.324-1.203-0.324-1.881s0.107-1.305,0.324-1.882
	C342.628,483.238,342.931,482.741,343.322,482.322z M404.387,487.825l1.949,1.95l1.951-1.95l-1.951-1.95L404.387,487.825z
	 M410.701,487.326l-0.664,0.433l0.633,0.564l241.176-0.341L410.701,487.326z M362.611,481.295c-0.549-0.569-1.193-1.02-1.936-1.352
	c-0.742-0.331-1.547-0.497-2.412-0.497c-0.863,0-1.668,0.166-2.41,0.497c-0.742,0.332-1.389,0.782-1.936,1.352
	c-0.549,0.57-0.977,1.229-1.287,1.979c-0.311,0.749-0.465,1.557-0.465,2.422s0.154,1.672,0.465,2.422s0.738,1.409,1.287,1.979
	c0.547,0.569,1.193,1.017,1.936,1.341s1.547,0.486,2.41,0.486c0.865,0,1.67-0.162,2.412-0.486s1.387-0.771,1.936-1.341
	c0.547-0.569,0.977-1.229,1.287-1.979c0.309-0.75,0.465-1.557,0.465-2.422s-0.156-1.673-0.465-2.422
	C363.587,482.524,363.158,481.865,362.611,481.295z M362.394,487.523c-0.217,0.569-0.52,1.067-0.908,1.492
	c-0.389,0.426-0.857,0.765-1.406,1.017c-0.547,0.252-1.152,0.378-1.816,0.378c-0.662,0-1.268-0.126-1.816-0.378
	c-0.547-0.252-1.016-0.591-1.404-1.017c-0.391-0.425-0.693-0.923-0.908-1.492c-0.217-0.569-0.324-1.179-0.324-1.827
	c0-0.649,0.107-1.262,0.324-1.839c0.215-0.576,0.518-1.077,0.908-1.503c0.389-0.425,0.857-0.764,1.404-1.016
	c0.549-0.252,1.154-0.379,1.816-0.379c0.664,0,1.27,0.127,1.816,0.379c0.549,0.252,1.018,0.591,1.406,1.016
	c0.389,0.426,0.691,0.927,0.908,1.503c0.217,0.577,0.324,1.189,0.324,1.839C362.718,486.345,362.611,486.954,362.394,487.523z
	 M296.221,481.295c-0.547-0.569-1.191-1.02-1.936-1.352c-0.742-0.331-1.545-0.497-2.41-0.497s-1.67,0.166-2.412,0.497
	c-0.742,0.332-1.387,0.782-1.936,1.352c-0.547,0.57-0.977,1.229-1.285,1.979c-0.311,0.749-0.465,1.557-0.465,2.422
	s0.154,1.672,0.465,2.422c0.309,0.75,0.738,1.409,1.285,1.979c0.549,0.569,1.193,1.017,1.936,1.341s1.547,0.486,2.412,0.486
	s1.668-0.162,2.41-0.486c0.744-0.324,1.389-0.771,1.936-1.341c0.549-0.569,0.977-1.229,1.287-1.979s0.465-1.557,0.465-2.422
	s-0.154-1.673-0.465-2.422C297.198,482.524,296.77,481.865,296.221,481.295z M296.006,487.523c-0.217,0.569-0.52,1.067-0.908,1.492
	c-0.391,0.426-0.859,0.765-1.406,1.017c-0.549,0.252-1.154,0.378-1.816,0.378c-0.664,0-1.27-0.126-1.816-0.378
	c-0.549-0.252-1.018-0.591-1.406-1.017c-0.389-0.425-0.691-0.923-0.908-1.492s-0.324-1.179-0.324-1.827
	c0-0.649,0.107-1.262,0.324-1.839c0.217-0.576,0.52-1.077,0.908-1.503c0.389-0.425,0.857-0.764,1.406-1.016
	c0.547-0.252,1.152-0.379,1.816-0.379c0.662,0,1.268,0.127,1.816,0.379c0.547,0.252,1.016,0.591,1.406,1.016
	c0.389,0.426,0.691,0.927,0.908,1.503c0.215,0.577,0.324,1.189,0.324,1.839C296.331,486.345,296.221,486.954,296.006,487.523z
	 M309.381,480.463c-0.455-0.39-0.996-0.656-1.623-0.801c-0.627-0.144-1.309-0.216-2.043-0.216c-0.707,0-1.465,0.047-2.271,0.141
	s-1.701,0.234-2.682,0.422v11.699h1.535v-10.402c1.184-0.23,2.293-0.346,3.33-0.346c0.592,0,1.111,0.062,1.559,0.184
	c0.445,0.123,0.818,0.332,1.113,0.628c0.295,0.295,0.525,0.713,0.691,1.254s0.25,1.251,0.25,2.13v6.553h1.535v-7.201
	c0-0.995-0.119-1.82-0.357-2.477C310.18,481.375,309.834,480.852,309.381,480.463z M318.516,490.054
	c-0.346-0.108-0.619-0.277-0.82-0.509c-0.203-0.23-0.35-0.547-0.443-0.951c-0.096-0.403-0.141-0.922-0.141-1.557v-5.86h4.973v-1.492
	h-4.973v-4.347h-1.537v4.347h-2.551v1.492h2.551v6.466c0,0.764,0.109,1.405,0.326,1.925c0.215,0.519,0.525,0.937,0.93,1.254
	c0.402,0.317,0.867,0.544,1.395,0.682c0.525,0.137,1.105,0.205,1.74,0.205h2.271v-1.492h-2.422
	C319.295,490.216,318.862,490.162,318.516,490.054z M337.784,489.589c-0.316,0-0.59,0.115-0.82,0.346s-0.346,0.505-0.346,0.822
	c0,0.316,0.115,0.591,0.346,0.821s0.504,0.346,0.82,0.346c0.318,0,0.592-0.115,0.822-0.346s0.346-0.505,0.346-0.821
	c0-0.317-0.115-0.592-0.346-0.822S338.102,489.589,337.784,489.589z M333.178,486.106c-0.346-0.303-0.785-0.565-1.318-0.789
	c-0.533-0.223-1.182-0.422-1.947-0.595l-0.799-0.173c-1.053-0.216-1.781-0.461-2.184-0.735c-0.404-0.273-0.607-0.678-0.607-1.211
	c0-0.504,0.238-0.904,0.715-1.2c0.475-0.295,1.174-0.443,2.098-0.443c0.793,0,1.477,0.076,2.055,0.228
	c0.576,0.151,1.217,0.421,1.924,0.811l0.691-1.405c-1.412-0.765-2.969-1.146-4.67-1.146c-0.635,0-1.223,0.076-1.764,0.228
	c-0.539,0.151-1.008,0.364-1.404,0.638s-0.711,0.605-0.941,0.994c-0.23,0.39-0.346,0.815-0.346,1.276
	c0,0.462,0.072,0.88,0.217,1.254c0.143,0.375,0.381,0.707,0.713,0.995s0.758,0.537,1.275,0.746c0.52,0.209,1.146,0.4,1.883,0.573
	l0.908,0.194c1.008,0.217,1.729,0.49,2.162,0.822c0.432,0.331,0.648,0.771,0.648,1.318c0,0.39-0.086,0.707-0.26,0.952
	c-0.172,0.245-0.414,0.436-0.725,0.573c-0.311,0.137-0.678,0.237-1.102,0.303c-0.426,0.064-0.877,0.097-1.352,0.097
	c-0.592,0-1.223-0.09-1.893-0.271c-0.67-0.18-1.352-0.479-2.045-0.897l-0.734,1.471c0.779,0.433,1.539,0.742,2.281,0.93
	s1.539,0.281,2.391,0.281c0.748,0,1.434-0.072,2.053-0.216c0.621-0.145,1.158-0.36,1.611-0.648c0.455-0.289,0.805-0.649,1.049-1.082
	c0.246-0.433,0.369-0.93,0.369-1.492c0-0.476-0.072-0.915-0.217-1.318C333.77,486.763,333.526,486.41,333.178,486.106z"/>
</svg>

