<?xml version="1.0" encoding="utf-8"?>
<!-- Generator: Adobe Illustrator 22.1.0, SVG Export Plug-In . SVG Version: 6.00 Build 0)  -->
<svg version="1.1" id="Layer_1" xmlns="http://www.w3.org/2000/svg" xmlns:xlink="http://www.w3.org/1999/xlink" x="0px" y="0px"
	 viewBox="0 0 800 500" style="enable-background:new 0 0 800 500;" xml:space="preserve">
<style type="text/css">
	.st0{fill:#231F20;}
	.st1{fill:#FFFFFF;}
	.st2{fill:#D0D2D3;}
</style>
<g>
	<polygon class="st0" points="467,200.3 441.5,197.2 442.3,193.6 467.8,196.7 	"/>
	<path fill="#000000" class="st0" d="M394.8,256.7l-2.1-3c21.3-15,38.7-35.3,50.2-58.7l3.3,1.6C434.4,220.5,416.6,241.3,394.8,256.7"/>
	
		<rect x="604.8" y="311.9" transform="matrix(0.9833 -0.1818 0.1818 0.9833 -46.7985 117.0554)" class="st0" width="20.4" height="3.7"/>
	
		<rect x="616.7" y="311.7" transform="matrix(0.9984 -5.635092e-02 5.635092e-02 0.9984 -19.3411 35.4278)" class="st0" width="3.7" height="97.9"/>
	
		<rect x="577.1" y="409.1" transform="matrix(0.9913 -0.1319 0.1319 0.9913 -48.9753 82.7129)" class="st0" width="45.1" height="3.7"/>
	<path fill="#000000" class="st0" d="M408.5,176.5c-2-11.4-5-22.7-9-33.5c-1.6-4.3-3.3-6.5-5.4-6.9c-2.6-0.5-5.2,2.1-5.9,4.8
		c-0.8,3.2,5.9,19.2,6.8,22.4l-3.6,1c-0.9-3.5-7.8-20.1-6.8-24.3c1.1-4.4,5.3-8.5,10.2-7.6c4.6,0.9,6.8,5.4,8.2,9.2
		c4.1,11.1,7.2,22.5,9.2,34.2L408.5,176.5z"/>
	
		<rect x="417.6" y="171.8" transform="matrix(0.9998 -1.793276e-02 1.793276e-02 0.9998 -3.0454 7.7079)" class="st0" width="21.4" height="3.7"/>
	
		<rect x="413.3" y="186.5" transform="matrix(0.4235 -0.9059 0.9059 0.4235 77.6834 498.7134)" class="st0" width="34.8" height="3.7"/>
	<path fill="#000000" class="st0" d="M367.2,240.5l-3.2-1.7l19.9-37.3c3.2-6,6.5-12.2,10.9-17.5c5.1-6.1,11-10,17.2-11.4l0.8,3.6
		c-6.8,1.5-12,6.4-15.2,10.2c-4.2,5-7.4,11-10.5,16.9L367.2,240.5z"/>
	<path fill="#000000" class="st0" d="M361,241.5c-2.5,0-5.2-0.9-7.6-2.7c-3.1-2.2-5.3-5.4-7.4-8.3c-2.8-4-5.3-8.1-7.7-12.1c-2.4-3.9-4.8-8-7.5-11.8
		l-4.7-6.6l48.1,26.6l-0.5,1.5c-1.7,4.9-4.2,10.7-8.9,12.7C363.6,241.3,362.3,241.5,361,241.5 M338,210.8c1.2,1.9,2.4,3.9,3.5,5.8
		c2.4,3.9,4.8,8,7.5,11.8c1.9,2.7,4,5.6,6.5,7.4c2,1.5,5.1,2.6,7.7,1.5c2.9-1.2,5-5.4,6.3-9L338,210.8z"/>
	<path fill="#000000" class="st0" d="M258.2,179l-0.9-1.1c-5.5-6.2-5.6-15.1-5.6-23.6c0-5.2-0.1-10.1-1.4-13.9l-0.5-1.4l24.2-15.1
		c6.8-4.3,10-2.7,11.4-0.6l20.1,29.7l-1.9,0.9c-4.8,2.5-13.5,7.4-22,12.2c-8.5,4.8-17.2,9.7-22.1,12.2L258.2,179z M254.1,140.6
		c1.1,4.1,1.1,8.8,1.2,13.7c0.1,7.3,0.1,14.9,3.8,20.1c5-2.6,12.9-7.1,20.6-11.5c7.5-4.2,15.2-8.6,20.3-11.3l-17.8-26.3
		c-0.7-1-3.2-0.3-6.4,1.7L254.1,140.6z"/>
	<path fill="#000000" class="st0" d="M542.8,368L542.8,368c-1-1.9-9.9-18.3-4.8-24.5l1.3-1.6l1.4,1.5c3.2,3.2,4.7,8.1,5.4,11.6
		c0.3,1.4,0.1,3.7,0,6.1c-0.1,1.7-0.3,4.6-0.1,5.3c0,0,0-0.1,0-0.1L542.8,368z M540.1,348.6c-0.1,2.7,1,6.5,2.5,10.3
		c0.1-1.3,0.1-2.6,0-3.2C542,352.9,541.1,350.5,540.1,348.6"/>
	
		<rect x="524" y="302.5" transform="matrix(0.9364 -0.351 0.351 0.9364 -72.7416 207.3355)" class="st0" width="23.1" height="3.7"/>
	<path fill="#000000" class="st0" d="M490,385.1c-7.7,0-14.1-6.8-16.2-14.3c-1-3.5-1.3-7.4-0.9-11.6l3.7,0.3c-0.3,3.8,0,7.3,0.8,10.3
		c1.8,6.6,8,12.9,14.7,11.4c3.4-0.8,6.9-3.5,9.6-7.6c2.5-3.8,4.1-8.3,5.7-12.9c5.9-17.1,10.9-34.8,15-52.4l3.6,0.8
		c-4.1,17.8-9.1,35.6-15.1,52.8c-1.7,4.9-3.4,9.6-6.2,13.8c-3.2,4.9-7.5,8.2-11.9,9.2C491.9,385,490.9,385.1,490,385.1"/>
	<path fill="#000000" class="st0" d="M485.4,398.3c-9.3,0-17.1-7.8-20.4-16.5c-3.7-9.8-3.2-21-2-31.5l3.7,0.4c-1.1,10.1-1.6,20.7,1.8,29.8
		c3.1,8.2,10.8,15.5,19.5,13.8c5.5-1.1,11-5.7,16.6-14c8.9-13,15.1-28.2,18.1-44l3.6,0.7c-3.1,16.2-9.6,31.9-18.7,45.3
		c-6.3,9.3-12.4,14.3-19,15.5C487.5,398.2,486.4,398.3,485.4,398.3"/>
	<path fill="#000000" class="st0" d="M411.9,396.6c-1.7-19-3.6-40.6,1.2-61c2.5-10.5,6.9-20.4,12.8-28.5c6.5-8.9,14.5-15.1,23.2-18
		c8.9-3,18.7-2.2,27.6,2.3c9.4,4.8,16.6,13.3,19.8,23.4c6.4,20.2-3.3,45.8-21.1,56l-1.8-3.2c16.4-9.4,25.3-33.1,19.4-51.7
		c-2.9-9.1-9.4-16.8-18-21.2c-8-4-16.7-4.8-24.7-2.1c-15.4,5.2-28.6,22.4-33.6,43.8c-4.7,19.8-2.8,40.2-1.1,59.9L411.9,396.6z"/>
	<path fill="#000000" class="st0" d="M465.1,356.8l-1.3-2.7c-2.7-5.6,4.8-29.9,7.2-35l0.1-0.1c1.2-2.5,3.8-3.6,6.2-2.8c2.1,0.7,4,3,3.3,6.3
		c-1.1,5.2-2.9,10.6-5,15.7c-3.1,7.3-6,12.8-8.6,16.2L465.1,356.8z M474.3,320.7c-2.3,4.7-6.3,18.8-7.3,26.7
		c1.6-2.9,3.3-6.4,5.1-10.6c2.1-4.9,3.8-10.2,4.8-15.1c0.3-1.2-0.3-1.8-0.9-2c-0.3-0.1-1.1-0.2-1.7,0.9L474.3,320.7z"/>
	<path fill="#000000" class="st0" d="M450.9,402.9l-6.1-2.8c-2.7-1.2-6-0.9-9-0.6l-28.7,3l-0.4-3.7l28.7-3c1.9-0.2,4-0.4,6.2-0.3
		c-6.7-11.3-10.3-24.8-10.4-38.4l3.7,0c0.1,14.5,4.5,28.8,12.3,40.2L450.9,402.9z"/>
	<polygon class="st0" points="413.4,335.5 404.8,306.2 408.4,305.6 417,334.9 	"/>
	<polygon class="st0" points="393.7,317.8 391.5,314.7 406.9,306.6 409.1,309.7 	"/>
	<path fill="#000000" class="st0" d="M385.8,399.6L385.8,399.6c-8.8,0-15.9-7.1-22-21.6c-11.6-27.9-18.9-57.8-21.6-88.9l3.7-0.3
		c2.6,30.7,9.8,60.3,21.3,87.8c5.4,13,11.5,19.3,18.6,19.4h0c4.9,0,10.1-3.3,14.1-8.9c3.7-5.3,6-11.7,8.1-17.9l3.5,1.2
		c-2.2,6.5-4.6,13.1-8.6,18.8C398.3,395.6,391.9,399.6,385.8,399.6"/>
	<path fill="#000000" class="st0" d="M268.4,395.4c-2.7,0-5.4-0.2-8.1-0.6c-17.5-2.8-34.3-14.7-45-31.7c-12.7-20.3-15.3-45.7-7-66.5
		c4.3-10.6,11.8-20.2,21.2-27.1c9.8-7.2,20.9-11.2,32.2-11.6c23.9-0.9,46.9,15.8,52.5,38l-3.6,0.9c-5.2-20.6-26.7-36-48.8-35.3
		c-21.1,0.8-41.7,15.8-50.1,36.5c-7.9,19.6-5.4,43.8,6.7,63.1c10.1,16.1,25.9,27.3,42.4,30c18.3,2.9,37.1-5.1,45.8-19.7
		c9.3-15.5,5-37.2-9.1-46.5l2-3.1c15.7,10.3,20.5,34.4,10.2,51.5C301.7,386.9,285.4,395.4,268.4,395.4"/>
	<path fill="#000000" class="st0" d="M271.5,408.2c-18.7,0-35.5-9.8-46.7-18.6C201.3,371.2,187.5,347,187,323c-0.3-13.8,4.2-27.9,12.7-39.8
		c8.5-11.9,20.4-20.8,33.5-25c13.1-4.2,28-3.9,41.8,0.9c13.8,4.8,25.7,13.6,33.5,25l-3,2.1c-15.1-22.1-45.6-32.6-71.1-24.5
		c-25.5,8.2-44.3,34.5-43.7,61.2c0.5,22.9,13.8,46.1,36.4,63.8c12,9.3,30.5,19.9,50.5,17.4c16.7-2.1,32.8-13.6,43.1-30.8
		c10.2-17.1,13.9-37.3,16-53l3.7,0.5c-2.1,16.1-5.9,36.8-16.5,54.4c-10.9,18.2-28,30.4-45.8,32.6C275.8,408,273.7,408.2,271.5,408.2
		"/>
	<path fill="#000000" class="st1" d="M328.1,71.7c-1.6,0-2.9,1.4-2.9,3c0,1.6,1.4,2.9,3,2.9c1.6,0,2.9-1.4,2.9-3C331.1,73,329.8,71.7,328.1,71.7"/>
	<path fill="#000000" class="st1" d="M390.2,83c-1.4,0-2.5,1.1-2.5,2.5c0,1.4,1.1,2.5,2.5,2.5c1.4,0,2.5-1.1,2.5-2.5C392.7,84.1,391.5,83,390.2,83"
		/>
	<path fill="#000000" class="st0" d="M482.3,78.2c-0.1,0-0.2,0-0.2-0.1l-5-3.6l-5,3.6c-0.1,0.1-0.3,0.1-0.4,0c-0.1-0.1-0.2-0.3-0.1-0.4l1.9-5.8
		l-5-3.6c-0.1-0.1-0.2-0.3-0.1-0.4s0.2-0.3,0.4-0.3h6.1l1.9-5.8c0-0.2,0.2-0.3,0.4-0.3c0.2,0,0.3,0.1,0.4,0.3l1.9,5.8h6.1
		c0.2,0,0.3,0.1,0.4,0.3c0.1,0.2,0,0.3-0.1,0.4l-5,3.6l1.9,5.8c0.1,0.2,0,0.3-0.1,0.4C482.5,78.1,482.4,78.2,482.3,78.2 M477.1,73.6
		c0.1,0,0.2,0,0.2,0.1l4.2,3.1l-1.6-5c-0.1-0.2,0-0.3,0.1-0.4l4.2-3.1h-5.2c-0.2,0-0.3-0.1-0.4-0.3l-1.6-5l-1.6,5
		c0,0.2-0.2,0.3-0.4,0.3h-5.2l4.2,3.1c0.1,0.1,0.2,0.3,0.1,0.4l-1.6,5l4.2-3.1C477,73.7,477,73.6,477.1,73.6"/>
	<path fill="#000000" class="st0" d="M253.2,234.7c-0.1,0-0.2,0-0.3-0.1l-7.2-5.2l-7.2,5.2c-0.2,0.1-0.4,0.1-0.6,0c-0.2-0.1-0.3-0.4-0.2-0.6
		l2.7-8.4l-7.2-5.2c-0.2-0.1-0.3-0.4-0.2-0.6c0.1-0.2,0.3-0.4,0.5-0.4h8.9l2.7-8.4c0.1-0.2,0.3-0.4,0.5-0.4c0.2,0,0.4,0.2,0.5,0.4
		l2.7,8.4h8.8c0.2,0,0.4,0.2,0.5,0.4c0.1,0.2,0,0.5-0.2,0.6l-7.2,5.2l2.7,8.4c0.1,0.2,0,0.5-0.2,0.6
		C253.4,234.7,253.3,234.7,253.2,234.7 M245.7,228.2c0.1,0,0.2,0,0.3,0.1l6.1,4.4l-2.3-7.2c-0.1-0.2,0-0.5,0.2-0.6l6.1-4.4h-7.6
		c-0.2,0-0.4-0.2-0.5-0.4l-2.3-7.2l-2.3,7.2c-0.1,0.2-0.3,0.4-0.5,0.4h-7.6l6.1,4.4c0.2,0.1,0.3,0.4,0.2,0.6l-2.3,7.2l6.1-4.4
		C245.5,228.2,245.6,228.2,245.7,228.2"/>
	<path fill="#000000" class="st0" d="M563.7,290.3c-0.1,0-0.3,0-0.4-0.1l-8.2-6l-8.2,6c-0.2,0.2-0.5,0.2-0.7,0c-0.2-0.2-0.3-0.4-0.2-0.7l3.1-9.6
		l-8.2-6c-0.2-0.2-0.3-0.4-0.2-0.7c0.1-0.3,0.3-0.4,0.6-0.4h10.1l3.1-9.6c0.1-0.3,0.3-0.4,0.6-0.4c0.3,0,0.5,0.2,0.6,0.4l3.1,9.6
		H569c0.3,0,0.5,0.2,0.6,0.4c0.1,0.3,0,0.5-0.2,0.7l-8.2,6l3.1,9.6c0.1,0.3,0,0.5-0.2,0.7C563.9,290.3,563.8,290.3,563.7,290.3
		 M555.1,282.9c0.1,0,0.3,0,0.4,0.1l7,5.1l-2.7-8.2c-0.1-0.3,0-0.5,0.2-0.7l7-5.1h-8.7c-0.3,0-0.5-0.2-0.6-0.4l-2.7-8.2l-2.7,8.2
		c-0.1,0.3-0.3,0.4-0.6,0.4h-8.7l7,5.1c0.2,0.2,0.3,0.4,0.2,0.7l-2.7,8.2l7-5.1C554.9,282.9,555,282.9,555.1,282.9"/>
	<path fill="#000000" class="st0" d="M410.6,296c-8.4,0-15.3-6.9-15.3-15.3s6.9-15.3,15.3-15.3c0.7,0,1.4,0,2.1,0.1c0.3,0,0.5,0.3,0.5,0.6
		c0,0.3-0.2,0.6-0.5,0.6c-5.1,0.8-8.9,5.2-8.9,10.3c0,5.8,4.7,10.5,10.5,10.5c5.1,0,9.6-3.8,10.3-8.9c0-0.3,0.3-0.5,0.6-0.5
		c0.3,0,0.6,0.2,0.6,0.5c0.1,0.7,0.1,1.4,0.1,2.1C425.9,289.1,419,296,410.6,296 M409,266.7c-7,0.8-12.5,6.8-12.5,14
		c0,7.8,6.3,14.1,14.1,14.1c7.2,0,13.2-5.5,14-12.5c-2,3.8-5.9,6.4-10.4,6.4c-6.4,0-11.7-5.2-11.7-11.7
		C402.6,272.6,405.2,268.6,409,266.7"/>
	<path fill="#000000" class="st0" d="M409.3,299.4c-4.6,0-7.8-2-8-2.1c-0.3-0.2-0.4-0.5-0.2-0.8c0.2-0.3,0.5-0.4,0.8-0.2c0,0,3.5,2.2,8.2,1.9
		c0.3,0,0.6,0.2,0.6,0.6c0,0.3-0.2,0.6-0.6,0.6C409.9,299.4,409.6,299.4,409.3,299.4"/>
	<path fill="#000000" class="st0" d="M244.2,239.7c-4.6,0-7.8-2-8-2.1c-0.3-0.2-0.4-0.5-0.2-0.8c0.2-0.3,0.5-0.4,0.8-0.2c0,0,3.5,2.2,8.3,1.9
		c0.3,0,0.6,0.2,0.6,0.6c0,0.3-0.2,0.6-0.6,0.6C244.8,239.7,244.5,239.7,244.2,239.7"/>
	<path fill="#000000" class="st0" d="M395.3,70.6c-9.9,0-18-8.1-18-18c0-9.9,8.1-18,18-18c0.8,0,1.6,0.1,2.4,0.2c0.3,0,0.6,0.3,0.6,0.7
		c0,0.3-0.2,0.6-0.6,0.7c-6,0.9-10.4,6.1-10.4,12.1c0,6.8,5.5,12.3,12.3,12.3c6,0,11.2-4.5,12.1-10.4c0.1-0.3,0.3-0.6,0.7-0.6h0
		c0.3,0,0.6,0.3,0.7,0.6c0.1,0.8,0.2,1.6,0.2,2.4C413.3,62.6,405.2,70.6,395.3,70.6 M393.4,36.2c-8.2,1-14.6,8-14.6,16.5
		c0,9.1,7.4,16.6,16.6,16.6c8.5,0,15.5-6.4,16.5-14.6c-2.3,4.5-7,7.5-12.2,7.5c-7.5,0-13.7-6.1-13.7-13.7
		C385.9,43.2,388.9,38.5,393.4,36.2"/>
	<path fill="#000000" class="st0" d="M393.7,74.7c-5.4,0-9.2-2.3-9.4-2.4c-0.3-0.2-0.4-0.6-0.2-1c0.2-0.3,0.6-0.4,1-0.2c0,0,4.2,2.5,9.7,2.2
		c0.4-0.1,0.7,0.3,0.7,0.7c0,0.4-0.3,0.7-0.7,0.7C394.5,74.7,394.1,74.7,393.7,74.7"/>
	<path fill="#000000" class="st0" d="M274.3,250.2c-6.4-20.6-2.2-44,11.1-61l2.9,2.3c-12.5,16.1-16.5,38.2-10.4,57.6L274.3,250.2z"/>
	<path fill="#000000" class="st0" d="M553.5,239.5l-2.9-2.2c11.1-14.3,18-31.4,20.1-49.4l3.7,0.4C572.1,206.9,564.9,224.6,553.5,239.5"/>
	
		<rect x="572" y="420.4" transform="matrix(0.9877 -0.1561 0.1561 0.9877 -58.6424 97.7086)" class="st0" width="41.5" height="3.7"/>
	<path fill="#000000" class="st0" d="M498,356.1l-3.1-1.9c6.5-10.5,9.1-23.6,7.2-35.8l3.6-0.6C507.7,330.9,504.9,344.8,498,356.1"/>
	<path fill="#000000" class="st0" d="M268.3,420.4c-1.9,0-3.8-0.1-5.7-0.2c-19.3-1.4-38.3-10-52.1-23.5l2.6-2.6c13.2,13,31.4,21.1,49.8,22.5
		c18.5,1.3,37.6-4.2,52.5-15.1l2.2,3C303.4,414.7,285.8,420.4,268.3,420.4"/>
	<rect x="333.6" y="409.6" class="st0" width="36.3" height="3.2"/>
	<rect x="490.6" y="431.6" class="st0" width="36.3" height="3.2"/>
	<rect x="312.7" y="431.6" class="st0" width="82.1" height="3.2"/>
	<rect x="366.8" y="423.3" class="st0" width="36.3" height="3.2"/>
	<rect x="429.6" y="422.4" class="st0" width="82.3" height="3.2"/>
	<rect x="482.4" y="394.9" class="st0" width="36.3" height="3.2"/>
	<rect x="564" y="237.4" class="st0" width="51.7" height="3.7"/>
	
		<rect x="564" y="252.3" transform="matrix(0.9988 -4.993957e-02 4.993957e-02 0.9988 -11.9693 29.182)" class="st0" width="28" height="3.7"/>
	
		<rect x="573.8" y="275.5" transform="matrix(0.9975 -7.043888e-02 7.043888e-02 0.9975 -18.0459 42.9315)" class="st0" width="51.8" height="3.7"/>
	
		<rect x="201" y="204.2" transform="matrix(0.996 -8.962162e-02 8.962162e-02 0.996 -17.5966 20.0918)" class="st0" width="27.9" height="3.7"/>
	
		<rect x="174.4" y="220.2" transform="matrix(0.9946 -0.1037 0.1037 0.9946 -21.9717 21.3921)" class="st0" width="40.7" height="3.7"/>
	<rect x="191.2" y="237.4" class="st0" width="36.3" height="3.7"/>
	<path fill="#000000" class="st2" d="M435,255.6c-3.7,0.9-7.5,0.5-11.3,0.1c5.3,2.8,10.6,5.7,15.8,8.5c0.5,0.2,1,0.5,1.5,0.3
		c0.3-0.2,0.5-0.5,0.7-0.9c1.6-3.5,6.6-10.2,4.6-13.9C442.5,251,439.4,254.6,435,255.6"/>
	
		<rect x="419.8" y="234.1" transform="matrix(0.1384 -0.9904 0.9904 0.1384 152.8448 647.4778)" class="st0" width="57.5" height="3.7"/>
	<polygon class="st0" points="447.6,268.4 391.5,257 392.4,253.4 448.5,264.8 	"/>
	<path fill="#000000" class="st2" d="M341.9,143.6c2.5,4.3,5.6,8.4,10,10.6c3.9,2,8.6,2.4,12.2,5c-15.6,0.4-31.2,0.1-46.8-0.8
		c-3.5-0.2,4.6-46.2,9.2-50c7.3-6.1,6.7,7,7.1,10.6C334.8,127.6,337.5,136.1,341.9,143.6"/>
	<path fill="#000000" class="st0" d="M416.7,175.1l-12.7-42.9c-3.7-12.4-7.5-25.2-15.4-35.5c-8.5-11.2-21.2-17.1-32.4-15.2
		c-15.4,2.7-25,19-28.9,33.3c-1.5,5.7-2.6,11.7-3.6,17.5c-1.8,10.1-3.6,20.5-8.1,30l-3.3-1.6c4.2-9.1,6-19.2,7.8-29.1
		c1-5.9,2.1-11.9,3.7-17.8c2-7.5,10.3-32.2,31.8-36c12.5-2.2,26.6,4.3,35.9,16.6c8.3,10.9,12.4,24.6,16,36.7l12.7,42.9L416.7,175.1z
		"/>
	<path fill="#000000" class="st2" d="M462.4,353.6c-7.1,7.4-21.1,10.5-29.4,4.5c7.9,3.7,16.3,16.6,26,15.5C459,367.7,460.5,361.3,462.4,353.6"/>
	<path fill="#000000" class="st0" d="M454.4,375.1c-9.8,0-19.2-6.3-24.4-17.1l3.3-1.6c6.1,12.7,18,18.1,29,13.3l1.5,3.4
		C460.7,374.4,457.5,375.1,454.4,375.1"/>
	<path fill="#000000" class="st2" d="M365,258.9c-4,0.4-7.7,8.1-12.1,10.5c-3.7,2.1-8.5,4.2-12.4,5.4c-7.4,2.4-15.9,1.4-23.8,1.5
		c7.3,6.6,26.4,16.6,35.4,8.4C358.4,279,358.6,267.3,365,258.9"/>
	<path fill="#000000" class="st0" d="M340.4,287.9c-4.4,0-9-0.8-13.4-2.4c-8.5-3.1-16.4-9.1-22.8-17.3c-9.2-11.7-14.2-26.4-14.2-41.2
		c0-13.1,5.3-27.4,14.5-39.7c-1.7-1-3.3-1.8-5.1-2.6c-2.3-1.1-4.7-2.3-7.1-3.8l-1.3-0.8l0.6-1.4c0.8-1.8,1.6-3.3,2.5-4.8
		c0.8-1.5,1.6-2.9,2.3-4.5l0.7-1.7l1.7,0.8c24.1,11.3,47,25.4,69.2,39.1l11.6,7.2l-1.9,3.1l-11.6-7.2
		c-21.6-13.3-43.9-27.1-67.2-38.1c-0.5,1.1-1.1,2.1-1.7,3.1c-0.6,1-1.1,2-1.6,3.1c1.8,1,3.6,1.9,5.4,2.8c2.3,1.1,4.7,2.3,7.1,3.8
		l1.7,1.1l-1.3,1.6c-9.5,11.9-14.9,26.2-14.9,39.1c0,14.1,4.7,27.9,13.4,39c6,7.7,13.4,13.2,21.2,16.1c8.7,3.2,18.4,2.8,25.8-1
		l1.7,3.2C351.1,286.7,345.8,287.9,340.4,287.9"/>
	<path fill="#000000" class="st0" d="M356.6,283.5l-3.3-1.7l33-62.7c3.4-6.5,7.7-14.7,15.2-19.2c4.4-2.7,10.2-3.6,15.2-2.4c3.9,1,6.9,3.1,8.7,6.2
		l-3.2,1.8c-1.6-2.8-4.4-4-6.4-4.5c-4-1-8.8-0.3-12.4,1.9c-6.6,4-10.4,11.3-13.8,17.8L356.6,283.5z"/>
	<path fill="#000000" class="st2" d="M271.3,344.1c-11.6,0-23.6,0.5-35.3,1c1.2,3.3,6.6,6.5,9.1,9.3c2.2,2.5,5.4,5.8,9.3,3.9
		c2.3-1.1,4.5-5.3,6.3-7.2C263.4,348.1,266.8,345.9,271.3,344.1"/>
	<path fill="#000000" class="st0" d="M250.7,363.4l-1.1-0.9c-4.8-4.1-9.1-8.3-13.3-12.4c-4.1-4-8.3-8.2-13.1-12.2l-1.7-1.4l22.4-18.8
		c0.6-0.5,1.7-1.7,2.9-3c5-5.3,8.7-9,11.5-9c0.8,0,1.6,0.3,2.1,0.9c3.9,4.3,7,9.8,10.1,15.1c2.9,5.1,6,10.4,9.6,14.5l1.4,1.5
		l-1.7,1.2c-4.4,3.1-9.2,7.5-13.8,11.7c-4.7,4.3-9.6,8.8-14.2,12L250.7,363.4z M227.3,336.5c4.2,3.7,8,7.4,11.6,11
		c3.8,3.7,7.7,7.6,12,11.3c4.1-3,8.4-7,12.7-10.9c4.2-3.8,8.5-7.7,12.6-10.8c-3.3-4-6.1-8.9-8.7-13.6c-2.8-5-5.8-10.1-9.3-14.1
		c-1.8,0.7-6.5,5.6-8.5,7.8c-1.4,1.5-2.5,2.6-3.2,3.2L227.3,336.5z"/>
	<path fill="#000000" class="st2" d="M374.9,307.1c-1.9-6.2-4.7-12.3-9.6-16.1c-4.4-3.4-10.2-3.9-14.3-6.5c11-0.7,22.7-6,33-9.5
		C377.5,285.5,378.5,296.6,374.9,307.1"/>
	<path fill="#000000" class="st2" d="M334.4,320c-5.4,3.5-10.6,7.8-13,13.6c-2.2,5.1-1,10.8-2.4,15.5c-3.6-10.4-11.8-20.2-18-29.2
		C312.8,323.2,323.2,319.3,334.4,320"/>
	<path fill="#000000" class="st0" d="M386.8,387.6c-5.9,0-11.6-4.3-14.6-11c-2.7-5.9-3.1-12.7-3.3-19.1c-0.6-29.8,5.7-59.9,18.1-87.2l3.4,1.5
		c-12.2,26.7-18.3,56.3-17.8,85.6c0.1,6.1,0.6,12.4,2.9,17.7c2.4,5.4,6.9,8.9,11.4,8.8c3.9-0.1,8.1-2.8,11-7.2
		c2.4-3.7,4-8.5,4.9-14.7c2.3-16.2-1.2-32.8-9.7-45.5l3.1-2.1c9,13.4,12.8,30.9,10.3,48.1c-1,6.7-2.8,12-5.5,16.2
		c-3.5,5.4-8.9,8.8-14,8.9H386.8z"/>
	<polygon class="st0" points="342.6,289.6 340.9,286.3 390.9,268.4 392.7,271.8 	"/>
	<path fill="#000000" class="st2" d="M527.2,177.9c-1.3,14.3-13.4,18.3-26.5,17.1c5.3-0.4,11.4,3.1,16.6,4.4c3.7,0.9,7.4,1,11.3,0.8
		C529.6,194.9,531.2,181.5,527.2,177.9"/>
	<path fill="#000000" class="st0" d="M504.9,250c-3.6,0-7.2-0.4-10.7-1.1c-20.4-4.2-37.5-20.6-42.6-40.8l3.6-0.9c4.7,18.9,20.7,34.2,39.8,38.1
		c19.1,3.9,39.8-3.8,51.6-19.3c10.1-13.2,14.2-32.4,11.7-53.9c-2.4-19.8-9.5-37.1-20.6-49.8c-12.6-14.5-30.4-22.6-47.6-21.9
		c-18.7,0.8-35.6,12.8-41.2,29.2c-6.1,17.8,1.9,40.2,18.9,53.2c14.5,11,35.1,16.2,58.1,14.5l0.3,3.7c-23.9,1.7-45.5-3.7-60.6-15.2
		c-18.3-13.9-26.7-38-20.2-57.3c6.1-17.8,24.4-30.8,44.5-31.7c18.3-0.8,37.2,7.8,50.5,23.1c11.6,13.3,19,31.2,21.5,51.8
		c2.7,22.5-1.7,42.5-12.4,56.5C539,241.9,522,250,504.9,250"/>
	<path fill="#000000" class="st0" d="M528.4,179.3c-6.3-4.4-11-10.8-13.3-18.2c-2.2-7.4-1.9-15.4,1-22.5l3.4,1.4c-2.6,6.4-2.9,13.5-0.9,20.1
		c2,6.6,6.2,12.3,11.8,16.2L528.4,179.3z"/>
	<path fill="#000000" class="st0" d="M496.1,235.1c-2.3,0-4.6-0.2-7-0.7c-15.8-3.1-27.9-18.6-27-34.7l3.7,0.2c-0.8,14.1,10.2,28.2,24,30.9
		c2.3,0.4,4.4,0.6,6.4,0.6c13.2,0,20.9-8.8,25.2-16.9c11.8-22,9.1-59.1-5.2-73.6l2.6-2.6c15.6,15.7,18.4,54.3,5.8,77.9
		C518.1,228.6,508.1,235.1,496.1,235.1"/>
	<path fill="#000000" class="st2" d="M531,391.1c10.2,0,17.9-0.7,27.2-5.2c7.4-3.5,13.2-8.8,19.2-14.2C579.4,398.5,547.5,406.1,531,391.1"/>
	<path fill="#000000" class="st0" d="M550.1,402.7c-0.9,0-1.9-0.1-2.8-0.2c-11.7-1.3-22.1-11-26.5-24.6c-4.6-14.3-2.1-29.4,0.7-39.6l3.5,1
		c-2.7,9.7-5.1,24.1-0.8,37.5c3.9,12.2,13.1,20.9,23.4,22.1c0.8,0.1,1.5,0.1,2.3,0.1c11.8,0,24.4-10.1,29.4-24
		c4.8-13.5,3.3-29.9-4.3-43.7c-6.2-11.3-16-21-29.9-29.5l1.9-3.1c14.5,8.9,24.7,19,31.2,30.9c8,14.7,9.7,32.2,4.5,46.7
		C577.4,391.8,563.6,402.7,550.1,402.7"/>
	<path fill="#000000" class="st2" d="M594.3,377.6c0.1,11.4,7.6,25.8,18.6,28.3c-6.5,0.6-12.8,0.5-19.2,1.5c-3.2,0.5-8.3,2.6-11.5,1.7
		C583,398.6,590.8,389.4,594.3,377.6"/>
	<path fill="#000000" class="st0" d="M578.8,418.3l-3.3-1.6c14.5-29.4,24.5-64.4,28.8-101.4l3.7,0.4C603.6,353.1,593.5,388.6,578.8,418.3"/>
	
		<rect x="287.1" y="317.8" transform="matrix(0.9986 -5.377785e-02 5.377785e-02 0.9986 -16.7373 17.2956)" class="st0" width="51.9" height="3.7"/>
	<path fill="#000000" class="st2" d="M305,90.1c-11.5-0.1-23-1-34.6-1.5c7.3-5.5,15.7-7.9,22.7-12.5C298.1,79.2,300.9,87.2,305,90.1"/>
	<path fill="#000000" class="st2" d="M290.5,140.1c-11.5-0.1-23-1-34.6-1.5c7.3-5.5,15.7-7.9,22.7-12.5C283.6,129.1,286.5,137.1,290.5,140.1"/>
	<path fill="#000000" class="st2" d="M452.6,77.9c-11.5-0.1-23-1-34.6-1.5c7.3-5.5,15.7-7.9,22.7-12.5C445.7,67,448.6,75,452.6,77.9"/>
	<path fill="#000000" class="st2" d="M525.6,268.2c-11.5-0.1-23-1-34.6-1.5c7.3-5.5,15.7-7.9,22.7-12.5C518.7,257.2,521.5,265.2,525.6,268.2"/>
	<path fill="#000000" class="st0" d="M281.8,125.5l-0.9-1.1c-4.2-4.8-7.8-9.6-11.4-14.2c-3.5-4.6-7.1-9.3-11.2-14l-1.4-1.6l24.8-15.5
		c0.6-0.4,1.9-1.4,3.3-2.5c5.7-4.5,9.9-7.7,12.7-7.3c0.8,0.1,1.5,0.6,2,1.2c3.3,4.8,5.6,10.7,7.8,16.4c2.2,5.5,4.4,11.2,7.5,15.7
		l1.2,1.7l-1.9,0.9c-4.8,2.4-10.1,6.1-15.3,9.6c-5.3,3.6-10.8,7.3-15.7,9.9L281.8,125.5z M262.5,95.5c3.6,4.2,6.8,8.4,9.9,12.5
		c3.2,4.2,6.5,8.6,10.2,12.9c4.4-2.4,9.3-5.7,14.1-9c4.7-3.2,9.5-6.4,14-8.9c-2.7-4.5-4.7-9.6-6.7-14.7c-2.1-5.3-4.3-10.8-7.2-15.3
		c-1.9,0.4-7.2,4.6-9.5,6.5c-1.6,1.2-2.8,2.2-3.6,2.7L262.5,95.5z"/>
	<path fill="#000000" class="st0" d="M432.1,115.7l-1.1-0.9c-4.8-4.1-9.1-8.3-13.3-12.4c-4.1-4-8.3-8.2-13.1-12.2l-1.7-1.4l22.4-18.8
		c0.6-0.5,1.7-1.7,2.9-3c5-5.3,8.7-9,11.5-9c0.8,0,1.6,0.3,2.1,0.9c3.9,4.3,7,9.8,10.1,15.1c2.9,5.1,6,10.4,9.6,14.5l1.4,1.5
		l-1.7,1.2c-4.4,3.1-9.2,7.5-13.8,11.7c-4.7,4.3-9.6,8.8-14.2,12L432.1,115.7z M408.7,88.7c4.2,3.7,8,7.4,11.6,11
		c3.8,3.7,7.7,7.6,12,11.3c4.1-3,8.4-7,12.7-10.9c4.2-3.8,8.5-7.7,12.6-10.8c-3.3-4-6.1-8.9-8.7-13.6c-2.8-5-5.8-10.1-9.3-14.1
		c-1.8,0.7-6.5,5.6-8.5,7.8c-1.4,1.5-2.5,2.6-3.2,3.2L408.7,88.7z"/>
	<path fill="#000000" class="st0" d="M503.3,305.7l-1.1-0.9c-4.8-4.1-9.1-8.3-13.3-12.4c-4.1-4-8.3-8.2-13.1-12.2l-1.7-1.4l22.4-18.8
		c0.6-0.5,1.7-1.7,2.9-2.9c5-5.3,8.7-9,11.5-9h0c0.8,0,1.6,0.3,2.1,0.9c3.9,4.3,7,9.8,10.1,15.1c2.9,5.1,6,10.4,9.6,14.5l1.4,1.5
		l-1.7,1.2c-4.4,3.1-9.2,7.5-13.8,11.7c-4.7,4.3-9.6,8.8-14.2,12L503.3,305.7z M480,278.7c4.2,3.7,8,7.4,11.6,11
		c3.8,3.7,7.7,7.6,12,11.3c4.1-3,8.4-7,12.7-10.9c4.2-3.8,8.5-7.7,12.6-10.8c-3.3-4-6.1-8.9-8.7-13.6c-2.8-5-5.8-10.1-9.3-14.1
		c-1.8,0.7-6.5,5.6-8.5,7.8c-1.4,1.5-2.5,2.6-3.2,3.2L480,278.7z"/>
	
		<rect x="312.8" y="159.1" transform="matrix(0.9996 -2.689373e-02 2.689373e-02 0.9996 -4.2001 9.5502)" class="st0" width="80.4" height="3.7"/>
	<path fill="#000000" class="st0" d="M298.7,451.4c0-1.2,2.2-1.3,4.4-1.3c2.4,0,3.5,2.2,3.3,3.3c-0.2,1.1-1.4,2.3-2,2.7c-0.2,0.1-0.4,0.3-0.6,0.4
		c0.8,2.8,1.8,4.1,2,5c0.5,2.1-2.2,1.5-2.7-1.2c-0.7-3.7-2.3-4-2.3-2.4v3.7c0,1.3-2,1.1-2-0.2L298.7,451.4z M302.7,451.7
		c-2.3,0.1-2,0.2-1.9,3.3c0.1,1.7,4.1-0.3,3.8-2.3C304.5,452.1,303.9,451.7,302.7,451.7"/>
	<path fill="#000000" class="st0" d="M319.3,451.5c1.9-4.4,3.2,3.5,4.9,9.2c0.2,0.8,0,1.6-0.5,1.7c-0.5,0.1-0.9-0.4-1-1c-0.3-1.5-0.6-2.5-0.9-3.2
		l-2.6,0.1c-0.4,1.4-1.6,4.1-2.2,4.2c-2.3,0.5-0.1-3.3,0.6-5.1C317.8,456.7,318.4,454.9,319.3,451.5 M321.5,456.6
		c-2-5.4-0.6-5.7-2.1,0.2C320.4,456.8,320.9,456.8,321.5,456.6"/>
	<path fill="#000000" class="st0" d="M344,461.5v0.2c0,0.5-0.4,0.8-1,0.8h-0.2c-0.7-0.1-1.1-1.9-1.2-4.9c-0.1-1.4-0.2-2.4-0.2-3.1
		c-3.2,7-2.8,6.9-4.6,2.8c-0.3-0.7-0.6-1.3-0.8-1.7c-0.1,4.4-0.3,6.7-1.2,6.7h-0.2c-0.5-0.1-0.9-0.4-0.9-0.9
		c0.2-2.4,0.3-4.4,0.4-6.6v-0.6l-0.2-2.5c0-0.8,0.4-1.4,1-1.4c0.6,0,1,0.5,1.3,1.3c0.2,0.6,0.4,1.8,1.6,3.9c0.3,0.6,0.6,0.6,0.8,0.2
		c1.9-4.1,4.2-7.6,4.2-3.4C343.1,452.9,343.4,456,344,461.5"/>
	<path fill="#000000" class="st0" d="M356.9,451.5c1.9-4.4,3.2,3.5,4.9,9.2c0.2,0.8,0,1.6-0.5,1.7c-0.5,0.1-0.9-0.4-1-1c-0.3-1.5-0.6-2.5-0.9-3.2
		l-2.6,0.1c-0.4,1.4-1.6,4.1-2.2,4.2c-2.3,0.5-0.1-3.3,0.6-5.1C355.4,456.7,355.9,454.9,356.9,451.5 M359,456.6
		c-2-5.4-0.6-5.7-2.1,0.2C357.9,456.8,358.4,456.8,359,456.6"/>
	<path fill="#000000" class="st0" d="M371.9,457.9c0-4.6-0.8-7.8,0.7-7.9c2.8-0.1,5,0.9,6.7,2.7c1.7,1.8,2.3,5.7,0.1,8c-1.1,1.1-3,1.8-5.6,1.9h0
		c-1.2,0-2.3-0.8-2-2.3C371.8,459.5,371.9,458.8,371.9,457.9 M379,456.5c-0.4-3.6-5.7-6.6-5.5-2.8c0.3,7-0.3,7.1,0.8,7.1
		C376.8,460.8,379.3,458.7,379,456.5"/>
	<path fill="#000000" class="st0" d="M393.6,451.5c1.9-4.4,3.2,3.5,4.9,9.2c0.2,0.8,0,1.6-0.5,1.7c-0.5,0.1-0.9-0.4-1-1c-0.3-1.5-0.6-2.5-0.9-3.2
		l-2.6,0.1c-0.4,1.4-1.6,4.1-2.2,4.2c-2.3,0.5-0.1-3.3,0.6-5.1C392.1,456.7,392.7,454.9,393.6,451.5 M395.8,456.6
		c-2-5.4-0.6-5.7-2.1,0.2C394.7,456.8,395.2,456.8,395.8,456.6"/>
	<path fill="#000000" class="st0" d="M414.9,450.3c1.2-0.1,1,10.4,0.5,11.3c-0.2,0.4-0.6,0.6-1,0.7c-0.4,0.1-0.9-0.4-1.4-1.3
		c-0.3-0.6-1.1-2-2.3-4.3c-0.4-0.8-0.5-0.7-0.5,1.5c0.1,1.3,0.2,2.3,0.3,3.1c0.1,2.1-1.7,2-1.9,0.6c-0.2-6.3-0.6-9.6-0.6-9.9
		c0-1.4,1.8-1.7,2.2-0.2l3.3,7.1c0.6,1.1,0.5,0.8,0.3-7.1C413.9,451,414.1,450.3,414.9,450.3"/>
	<path fill="#000000" class="st0" d="M437.7,450.1c0.7,0,1.1,0.4,1.1,1.1c0,5.8,0.1,4.6,4.1,0.1v0c0.4-0.8,0.9-1.2,1.5-1.2c0.6,0,1,0.4,0.9,1
		c-0.3,0.7-2.5,3.7-4.7,5.2c1.2,0.8,4.5,3.6,4.8,4.4c0.6,1.5-1.3,1.6-2,0.8c-1.4-1.7-4.3-5.2-4.5-4.1l-0.6,4
		c-0.1,0.9-1.2,1.3-1.3,0.4c-0.5-2.4,0.2-8.5-0.1-10.3C436.7,450.8,437,450.1,437.7,450.1"/>
	<path fill="#000000" class="st0" d="M458.4,451.5c1.9-4.4,3.3,3.5,4.9,9.2c0.2,0.8,0,1.6-0.5,1.7c-0.5,0.1-0.9-0.4-1-1c-0.3-1.5-0.6-2.5-0.9-3.2
		l-2.6,0.1c-0.4,1.4-1.6,4.1-2.2,4.2c-2.3,0.5-0.1-3.3,0.6-5.1C456.9,456.7,457.4,454.9,458.4,451.5 M460.5,456.6
		c-2-5.4-0.6-5.7-2.1,0.2C459.5,456.8,460,456.8,460.5,456.6"/>
	<path fill="#000000" class="st0" d="M472.9,451.4c0-1.2,2.2-1.3,4.4-1.3c2.4,0,3.5,2.2,3.3,3.3c-0.2,1.1-1.4,2.3-2,2.7c-0.2,0.1-0.4,0.3-0.6,0.4
		c0.8,2.8,1.8,4.1,2,5c0.5,2.1-2.2,1.5-2.7-1.2c-0.7-3.7-2.3-4-2.3-2.4v3.7c0,1.3-2,1.1-2-0.2L472.9,451.4z M476.8,451.7
		c-2.3,0.1-2,0.2-1.9,3.3c0.1,1.7,4.1-0.3,3.8-2.3C478.6,452.1,478,451.7,476.8,451.7"/>
	<path fill="#000000" class="st0" d="M497.9,461.3L497.9,461.3c0,0.9-1.3,1.1-3.1,1c-1.9-0.1-2.9,0-3.8,0c-1.2,0-0.9-1.8-0.7-5.4v-2.4
		c-0.2-3.4-0.4-4,0.6-4c0.4,0,2-0.1,4.8-0.2l0.8,0c0.4,0,0.7,0.4,0.8,0.9v0.2c0,0.6-0.9,0.8-2,0.8c-0.9,0-1.7,0-2.6,0
		c-0.3,0-0.4,0.1-0.4,0.4c0,0.5,0,1.3-0.1,2.2l3-0.3c2.3,0,0.9,2-1.7,2l-1.3,0l0,2.5c0,2.1,0.5,1.7,4.2,1.6
		C497.1,460.5,497.9,460.7,497.9,461.3"/>
	<path fill="#000000" class="st0" d="M515.2,461.3L515.2,461.3c0,0.9-1.3,1.1-3.1,1c-1.9-0.1-2.9,0-3.8,0c-1.2,0-0.9-1.8-0.7-5.4v-2.4
		c-0.2-3.4-0.4-4,0.6-4c0.4,0,2-0.1,4.8-0.2l0.8,0c0.4,0,0.7,0.4,0.8,0.9v0.2c0,0.6-0.9,0.8-2,0.8c-0.9,0-1.7,0-2.6,0
		c-0.3,0-0.4,0.1-0.4,0.4c0,0.5,0,1.3-0.1,2.2l3-0.3c2.3,0,0.9,2-1.7,2l-1.3,0l0,2.5c0,2.1,0.5,1.7,4.2,1.6
		C514.5,460.5,515.2,460.7,515.2,461.3"/>
	<path fill="#000000" class="st0" d="M534.9,461.5v0.2c0,0.5-0.4,0.8-1,0.8h-0.2c-0.7-0.1-1.1-1.9-1.2-4.9c-0.1-1.4-0.2-2.4-0.2-3.1
		c-3.2,7-2.8,6.9-4.6,2.8c-0.3-0.7-0.6-1.3-0.8-1.7c-0.1,4.4-0.3,6.7-1.2,6.7h-0.2c-0.5-0.1-0.9-0.4-0.9-0.9
		c0.2-2.4,0.3-4.4,0.4-6.6v-0.6l-0.2-2.5c0-0.8,0.4-1.4,1-1.4c0.6,0,1,0.5,1.3,1.3c0.2,0.6,0.4,1.8,1.6,3.9c0.3,0.6,0.6,0.6,0.8,0.2
		c1.9-4.1,4.2-7.6,4.2-3.4C534,452.9,534.3,456,534.9,461.5"/>
</g>
<path fill="#000000" d="M273.602,481.306c-0.578-0.576-1.301-1.03-2.174-1.362c-0.873-0.331-1.885-0.497-3.039-0.497
	c-0.663,0-1.463,0.079-2.4,0.238v-6.077h-1.535v17.711c0.706,0.202,1.402,0.354,2.087,0.454s1.301,0.151,1.849,0.151
	c1.153,0,2.166-0.162,3.039-0.486s1.596-0.764,2.174-1.319c0.576-0.555,1.006-1.211,1.287-1.968s0.42-1.561,0.42-2.411
	s-0.139-1.657-0.42-2.422C274.608,482.554,274.178,481.883,273.602,481.306z M272.391,489.167c-0.852,0.829-2.17,1.243-3.958,1.243
	c-0.39,0-0.805-0.032-1.244-0.097c-0.439-0.065-0.84-0.134-1.2-0.206v-8.845c0.447-0.115,0.887-0.194,1.319-0.237
	c0.433-0.044,0.808-0.065,1.125-0.065c0.894,0,1.668,0.112,2.325,0.335c0.656,0.224,1.199,0.545,1.633,0.963
	c0.432,0.418,0.752,0.919,0.961,1.503s0.314,1.243,0.314,1.979C273.667,487.195,273.241,488.338,272.391,489.167z M247.392,479.446
	c-0.62,0-1.297,0.079-2.033,0.238c-0.735,0.158-1.485,0.433-2.249,0.821l-0.065,1.73c0.548-0.303,0.973-0.52,1.276-0.649
	s0.624-0.237,0.962-0.324c0.338-0.086,0.677-0.158,1.016-0.216s0.667-0.087,0.984-0.087c1.139,0,1.982,0.249,2.53,0.746
	s0.822,1.33,0.822,2.498v0.13c-0.332-0.044-0.732-0.087-1.2-0.13c-0.469-0.043-0.876-0.065-1.222-0.065
	c-1.831,0-3.302,0.311-4.412,0.931c-1.11,0.619-1.665,1.644-1.665,3.07c0,0.707,0.155,1.305,0.465,1.795
	c0.31,0.49,0.713,0.88,1.211,1.168s1.067,0.497,1.708,0.627c0.641,0.13,1.308,0.194,2,0.194c0.807,0,1.6-0.072,2.378-0.216
	c0.779-0.145,1.536-0.368,2.271-0.671v-7.028c0-1.585-0.397-2.742-1.189-3.471C250.189,479.811,248.992,479.446,247.392,479.446z
	 M250.636,489.892c-0.375,0.144-0.858,0.267-1.449,0.367c-0.591,0.102-1.183,0.151-1.773,0.151c-0.505,0-0.984-0.035-1.438-0.108
	c-0.454-0.071-0.84-0.197-1.157-0.378c-0.317-0.18-0.57-0.414-0.757-0.703c-0.188-0.288-0.281-0.663-0.281-1.124
	c0-0.52,0.111-0.934,0.335-1.244c0.224-0.31,0.533-0.551,0.93-0.724c0.396-0.174,0.85-0.296,1.362-0.368
	c0.511-0.072,1.041-0.108,1.589-0.108c0.476,0,0.984,0.029,1.524,0.087c0.541,0.058,0.912,0.108,1.114,0.151V489.892z
	 M258.032,479.868c-0.649,0.122-1.276,0.263-1.881,0.422v11.418h1.535v-10.186c0.202-0.072,0.563-0.147,1.082-0.228
	c0.519-0.079,1.002-0.118,1.449-0.118h1.989v-1.492H260C259.336,479.685,258.681,479.746,258.032,479.868z M-77.92,487.667
	l241.145,0.656l0.663-0.433l-0.632-0.564L-77.92,487.667z M164.994,487.825l1.95,1.95l1.95-1.95l-1.95-1.95L164.994,487.825z
	 M169.559,487.825l3.057,3.057l3.057-3.057l-3.057-3.057L169.559,487.825z M212.359,489.286l-3.395-9.602h-1.514l-3.396,9.602
	l-2.984-9.602h-1.73l3.979,12.023h1.428l3.46-9.645l3.46,9.645h1.427l3.979-12.023h-1.73L212.359,489.286z M238.418,489.589
	c-0.317,0-0.591,0.115-0.822,0.346c-0.231,0.23-0.346,0.505-0.346,0.822c0,0.316,0.115,0.591,0.346,0.821
	c0.23,0.23,0.504,0.346,0.822,0.346c0.317,0,0.591-0.115,0.822-0.346c0.23-0.23,0.346-0.505,0.346-0.821
	c0-0.317-0.116-0.592-0.346-0.822C239.009,489.704,238.735,489.589,238.418,489.589z M193.243,489.286l-3.395-9.602h-1.514
	l-3.396,9.602l-2.984-9.602h-1.73l3.979,12.023h1.428l3.46-9.645l3.46,9.645h1.427l3.979-12.023h-1.73L193.243,489.286z
	 M231.476,489.286l-3.395-9.602h-1.514l-3.396,9.602l-2.984-9.602h-1.73l3.979,12.023h1.428l3.46-9.645l3.46,9.645h1.427
	l3.979-12.023h-1.73L231.476,489.286z M382.732,480.474c-0.426-0.396-0.938-0.667-1.535-0.812c-0.598-0.144-1.271-0.216-2.021-0.216
	c-0.664,0-1.393,0.09-2.184,0.271c-0.793,0.181-1.471,0.4-2.033,0.659c-0.346-0.331-0.818-0.569-1.416-0.714
	c-0.6-0.144-1.273-0.216-2.023-0.216c-0.635,0-1.268,0.058-1.902,0.173l-2.465,0.454v11.635h1.535v-10.38
	c0.447-0.102,0.883-0.188,1.309-0.26c0.424-0.072,0.896-0.108,1.416-0.108c0.605,0,1.125,0.058,1.557,0.173
	c0.434,0.116,0.789,0.321,1.07,0.616c0.281,0.296,0.494,0.711,0.639,1.244s0.217,1.24,0.217,2.119v6.596h1.535v-7.201
	c0-0.663-0.055-1.243-0.162-1.741c-0.109-0.497-0.213-0.861-0.314-1.092c0.086-0.043,0.281-0.119,0.584-0.228
	c0.303-0.107,0.602-0.197,0.898-0.27c0.295-0.072,0.586-0.126,0.875-0.162s0.547-0.055,0.779-0.055c0.59,0,1.102,0.058,1.535,0.173
	c0.432,0.116,0.781,0.317,1.049,0.605c0.266,0.289,0.471,0.703,0.615,1.244c0.145,0.54,0.217,1.251,0.217,2.13v6.596h1.535v-7.201
	c0-0.995-0.111-1.816-0.336-2.466C383.482,481.393,383.158,480.87,382.732,480.474z M280.1,474.581
	c-0.785,0.648-1.18,1.729-1.18,3.243v1.86h-2.551v1.492h2.551v10.531h1.537v-10.531h4.973v-1.492h-4.973v-1.471
	c0-0.635,0.045-1.149,0.141-1.546c0.094-0.396,0.24-0.707,0.443-0.931c0.201-0.223,0.475-0.385,0.82-0.486
	c0.346-0.101,0.779-0.151,1.299-0.151h2.422v-1.492h-2.271C281.956,473.607,280.885,473.932,280.1,474.581z M398.273,487.825
	l3.057,3.057l3.057-3.057l-3.057-3.057L398.273,487.825z M343.322,482.322c0.389-0.418,0.854-0.749,1.395-0.994
	s1.135-0.368,1.783-0.368c0.736,0,1.373,0.076,1.914,0.228s1.121,0.414,1.74,0.789l0.715-1.405c-0.707-0.39-1.393-0.674-2.055-0.854
	c-0.664-0.181-1.436-0.271-2.314-0.271c-0.85,0-1.639,0.155-2.367,0.465c-0.729,0.311-1.367,0.746-1.914,1.309
	c-0.549,0.563-0.98,1.222-1.297,1.979c-0.317,0.757-0.476,1.59-0.476,2.498s0.158,1.74,0.476,2.497
	c0.316,0.757,0.748,1.413,1.297,1.969c0.547,0.555,1.186,0.987,1.914,1.297c0.729,0.311,1.518,0.465,2.367,0.465
	c0.879,0,1.65-0.09,2.314-0.27c0.662-0.181,1.348-0.466,2.055-0.854l-0.715-1.406c-0.619,0.375-1.199,0.639-1.74,0.79
	s-1.178,0.227-1.914,0.227c-0.648,0-1.242-0.119-1.783-0.356c-0.541-0.238-1.006-0.565-1.395-0.984
	c-0.391-0.418-0.693-0.915-0.908-1.492c-0.217-0.576-0.324-1.203-0.324-1.881s0.107-1.305,0.324-1.882
	C342.628,483.238,342.931,482.741,343.322,482.322z M404.387,487.825l1.949,1.95l1.951-1.95l-1.951-1.95L404.387,487.825z
	 M410.701,487.326l-0.664,0.433l0.633,0.564l241.176-0.341L410.701,487.326z M362.611,481.295c-0.549-0.569-1.193-1.02-1.936-1.352
	c-0.742-0.331-1.547-0.497-2.412-0.497c-0.863,0-1.668,0.166-2.41,0.497c-0.742,0.332-1.389,0.782-1.936,1.352
	c-0.549,0.57-0.977,1.229-1.287,1.979c-0.311,0.749-0.465,1.557-0.465,2.422s0.154,1.672,0.465,2.422s0.738,1.409,1.287,1.979
	c0.547,0.569,1.193,1.017,1.936,1.341s1.547,0.486,2.41,0.486c0.865,0,1.67-0.162,2.412-0.486s1.387-0.771,1.936-1.341
	c0.547-0.569,0.977-1.229,1.287-1.979c0.309-0.75,0.465-1.557,0.465-2.422s-0.156-1.673-0.465-2.422
	C363.587,482.524,363.158,481.865,362.611,481.295z M362.394,487.523c-0.217,0.569-0.52,1.067-0.908,1.492
	c-0.389,0.426-0.857,0.765-1.406,1.017c-0.547,0.252-1.152,0.378-1.816,0.378c-0.662,0-1.268-0.126-1.816-0.378
	c-0.547-0.252-1.016-0.591-1.404-1.017c-0.391-0.425-0.693-0.923-0.908-1.492c-0.217-0.569-0.324-1.179-0.324-1.827
	c0-0.649,0.107-1.262,0.324-1.839c0.215-0.576,0.518-1.077,0.908-1.503c0.389-0.425,0.857-0.764,1.404-1.016
	c0.549-0.252,1.154-0.379,1.816-0.379c0.664,0,1.27,0.127,1.816,0.379c0.549,0.252,1.018,0.591,1.406,1.016
	c0.389,0.426,0.691,0.927,0.908,1.503c0.217,0.577,0.324,1.189,0.324,1.839C362.718,486.345,362.611,486.954,362.394,487.523z
	 M296.221,481.295c-0.547-0.569-1.191-1.02-1.936-1.352c-0.742-0.331-1.545-0.497-2.41-0.497s-1.67,0.166-2.412,0.497
	c-0.742,0.332-1.387,0.782-1.936,1.352c-0.547,0.57-0.977,1.229-1.285,1.979c-0.311,0.749-0.465,1.557-0.465,2.422
	s0.154,1.672,0.465,2.422c0.309,0.75,0.738,1.409,1.285,1.979c0.549,0.569,1.193,1.017,1.936,1.341s1.547,0.486,2.412,0.486
	s1.668-0.162,2.41-0.486c0.744-0.324,1.389-0.771,1.936-1.341c0.549-0.569,0.977-1.229,1.287-1.979s0.465-1.557,0.465-2.422
	s-0.154-1.673-0.465-2.422C297.198,482.524,296.77,481.865,296.221,481.295z M296.006,487.523c-0.217,0.569-0.52,1.067-0.908,1.492
	c-0.391,0.426-0.859,0.765-1.406,1.017c-0.549,0.252-1.154,0.378-1.816,0.378c-0.664,0-1.27-0.126-1.816-0.378
	c-0.549-0.252-1.018-0.591-1.406-1.017c-0.389-0.425-0.691-0.923-0.908-1.492s-0.324-1.179-0.324-1.827
	c0-0.649,0.107-1.262,0.324-1.839c0.217-0.576,0.52-1.077,0.908-1.503c0.389-0.425,0.857-0.764,1.406-1.016
	c0.547-0.252,1.152-0.379,1.816-0.379c0.662,0,1.268,0.127,1.816,0.379c0.547,0.252,1.016,0.591,1.406,1.016
	c0.389,0.426,0.691,0.927,0.908,1.503c0.215,0.577,0.324,1.189,0.324,1.839C296.331,486.345,296.221,486.954,296.006,487.523z
	 M309.381,480.463c-0.455-0.39-0.996-0.656-1.623-0.801c-0.627-0.144-1.309-0.216-2.043-0.216c-0.707,0-1.465,0.047-2.271,0.141
	s-1.701,0.234-2.682,0.422v11.699h1.535v-10.402c1.184-0.23,2.293-0.346,3.33-0.346c0.592,0,1.111,0.062,1.559,0.184
	c0.445,0.123,0.818,0.332,1.113,0.628c0.295,0.295,0.525,0.713,0.691,1.254s0.25,1.251,0.25,2.13v6.553h1.535v-7.201
	c0-0.995-0.119-1.82-0.357-2.477C310.18,481.375,309.834,480.852,309.381,480.463z M318.516,490.054
	c-0.346-0.108-0.619-0.277-0.82-0.509c-0.203-0.23-0.35-0.547-0.443-0.951c-0.096-0.403-0.141-0.922-0.141-1.557v-5.86h4.973v-1.492
	h-4.973v-4.347h-1.537v4.347h-2.551v1.492h2.551v6.466c0,0.764,0.109,1.405,0.326,1.925c0.215,0.519,0.525,0.937,0.93,1.254
	c0.402,0.317,0.867,0.544,1.395,0.682c0.525,0.137,1.105,0.205,1.74,0.205h2.271v-1.492h-2.422
	C319.295,490.216,318.862,490.162,318.516,490.054z M337.784,489.589c-0.316,0-0.59,0.115-0.82,0.346s-0.346,0.505-0.346,0.822
	c0,0.316,0.115,0.591,0.346,0.821s0.504,0.346,0.82,0.346c0.318,0,0.592-0.115,0.822-0.346s0.346-0.505,0.346-0.821
	c0-0.317-0.115-0.592-0.346-0.822S338.102,489.589,337.784,489.589z M333.178,486.106c-0.346-0.303-0.785-0.565-1.318-0.789
	c-0.533-0.223-1.182-0.422-1.947-0.595l-0.799-0.173c-1.053-0.216-1.781-0.461-2.184-0.735c-0.404-0.273-0.607-0.678-0.607-1.211
	c0-0.504,0.238-0.904,0.715-1.2c0.475-0.295,1.174-0.443,2.098-0.443c0.793,0,1.477,0.076,2.055,0.228
	c0.576,0.151,1.217,0.421,1.924,0.811l0.691-1.405c-1.412-0.765-2.969-1.146-4.67-1.146c-0.635,0-1.223,0.076-1.764,0.228
	c-0.539,0.151-1.008,0.364-1.404,0.638s-0.711,0.605-0.941,0.994c-0.23,0.39-0.346,0.815-0.346,1.276
	c0,0.462,0.072,0.88,0.217,1.254c0.143,0.375,0.381,0.707,0.713,0.995s0.758,0.537,1.275,0.746c0.52,0.209,1.146,0.4,1.883,0.573
	l0.908,0.194c1.008,0.217,1.729,0.49,2.162,0.822c0.432,0.331,0.648,0.771,0.648,1.318c0,0.39-0.086,0.707-0.26,0.952
	c-0.172,0.245-0.414,0.436-0.725,0.573c-0.311,0.137-0.678,0.237-1.102,0.303c-0.426,0.064-0.877,0.097-1.352,0.097
	c-0.592,0-1.223-0.09-1.893-0.271c-0.67-0.18-1.352-0.479-2.045-0.897l-0.734,1.471c0.779,0.433,1.539,0.742,2.281,0.93
	s1.539,0.281,2.391,0.281c0.748,0,1.434-0.072,2.053-0.216c0.621-0.145,1.158-0.36,1.611-0.648c0.455-0.289,0.805-0.649,1.049-1.082
	c0.246-0.433,0.369-0.93,0.369-1.492c0-0.476-0.072-0.915-0.217-1.318C333.77,486.763,333.526,486.41,333.178,486.106z"/>
</svg>

