<?xml version="1.0" encoding="utf-8"?>
<!-- Generator: Adobe Illustrator 22.1.0, SVG Export Plug-In . SVG Version: 6.00 Build 0)  -->
<svg version="1.1" id="Layer_1" xmlns="http://www.w3.org/2000/svg" xmlns:xlink="http://www.w3.org/1999/xlink" x="0px" y="0px"
	 viewBox="0 0 800 500" style="enable-background:new 0 0 800 500;" xml:space="preserve">
<style type="text/css">
	.st0{fill:#231F20;}
</style>
<g>
	<path fill="#000000" class="st0" d="M466.1,118.8c0,0-6.8,0.6-12.2,10.1c-3.9,6.8-18.2,33.1-33.2,26.3c0,0,8.4-4.6,6.1-17c0,0-4.6,9.6-11.9,2.8
		c-3.4-3.2-1.9-8.4,1.5-12.4c5.9-6.9,17.3-3.4,18.4,5.6c0.4,3.7,0.3,8.1-1.2,12.8c0,0,4.7-6.6,7.6-15.6
		C445,120.1,454.8,110.6,466.1,118.8"/>
	<path fill="#000000" class="st0" d="M337.8,87c0,0-11.4,5.3-9.6,20.4c1.3,10.8,9.2,41.9-12.6,47.9c0,0,2.7-18.7-20.8-29.1c0,0,0.5,12-8.6,11.8
		c-5.4-0.1-11.2-5.5-10.9-12.8c0.5-11.6,11.7-14,23.2-10.1c5.4,1.9,20.2,12.6,22.8,21.5c0,0-1-12.2-5-24.6
		C311,95.9,317.3,82.8,337.8,87"/>
	<path fill="#000000" class="st0" d="M386,128.4c0.1,0.1,0.2,0.1,0.3,0.2c5,4.1,9.1,6.7,13.5,10c44.7-88.5,9.7-113.2,9.7-113.2l-17.1,16.5
		C408.3,55.9,400.4,91.7,386,128.4"/>
	<path fill="#000000" class="st0" d="M389.3,158.2c3.3-5.8,6.3-11.3,9.1-16.6c-4.4-3.5-9.5-6.2-13.6-10c-2.3,5.6-4.7,11.3-7.2,16.9
		C381.5,151.6,385.5,154.8,389.3,158.2"/>
	<path fill="#000000" class="st0" d="M529.4,191.4c-7,0.2-23,7.8-36.2,10c-12.3,2.1-22-0.8-26.4-5.7c-9.2-10.1-0.2-19.5-0.2-19.5
		c8.9,21.7,32.1,17.2,32.1,17.2l14.7-17.8c0,0-23.7,5.5-35.6-25.2c0,0-66.8,54.4-12.1,67c0,0-6.8,16.8-22.9-3.8l-9.7-12l-12.3,16.2
		c20.3,19.5,16.8,30.9,16.8,30.9c-17.4-4.6-17.4-23.4-17.4-23.4l-12.2,9.1c2.4,15.1-4.7,24.9-4.7,24.9c-12.2-12,3.3-41,3.3-41
		l-16.9,0.7c-17,27.2-39,6.3-39,6.3l35.2-61.5c0.6-1,1.1-1.9,1.7-2.9c-4.8-3.3-7.9-5.7-11.8-8.7c-19.1,42-41.7,78.5-41.7,78.5
		c25.9,40.4,49.2,14.7,49.2,14.7c-5.6,28.4,17.2,36.1,17.2,36.1l15.7-11.5l2.7-13.5c1.3,2.6,14,8.3,14,8.3
		c21.3,8.7,18.3-23.7,18.3-23.7c10.1,3.5,11.1,8.2,29.8-12.2c17-18.6,41.9-5.9,41.9-5.9l17.5-24.4
		C540.5,198.8,542.9,190.9,529.4,191.4"/>
	<path fill="#000000" class="st0" d="M367.2,162.8c-15-10.6-26-20-26-20l-22,20.7c0,0-13.1-19.9-38.9,5.5c-40.9,40.3-2.4,66.8-2.4,66.8
		c24.2,22.8,36.9,44.1,43.4,61.9c3.9,1.6,7.7,2.9,11.5,4.6c-5.1-43-39.5-82.9-52.1-98.9c-8.9-11.4,14.1-31.2,19.7-29.5
		c3.6,1.1,3.2,3.8,3.2,3.8c-23,26.5,12.1,45.1,12.1,45.1c28-10.3,23.1-51.1,23.1-51.1c3.4,3.3,9.6,7.2,17.8,11.7
		C360.2,176.6,364.1,169,367.2,162.8 M322.2,194.5c-0.2,1-1.4,1.3-2.1,0.6l-10.4-10.3l13.5-12.1
		C325.3,178.1,323.2,189.7,322.2,194.5"/>
	<path fill="#000000" class="st0" d="M332,326.9c-0.3-0.1-0.6-0.2-0.8-0.3c-0.6-0.2-1.1-0.3-1.7-0.4c-0.8-0.2-1.6-0.3-2.3-0.5
		c0.8,14.3-2.2,22.9-2.2,22.9c3.7-7.1,6.1-14.3,7.3-21.6C332.2,327,332.1,327,332,326.9"/>
	<path fill="#000000" class="st0" d="M326.9,322.2c1.2,0.3,2.4,0.5,3.6,0.8c0.8,0.2,1.5,0.4,2.2,0.6c0.7-5.7,0.9-11.5,0.4-17.2
		c-0.2,0-0.3-0.1-0.5-0.1c-3.3-1.4-6.7-2.9-10-4.3C325,309.5,326.3,316.3,326.9,322.2C326.9,322.2,326.9,322.2,326.9,322.2"/>
	<path fill="#000000" class="st0" d="M395,107.7c4.2,0,8.5-0.3,12.7-1.2c1.6-0.3,3.5-0.7,5.6-1.1c0.1-0.3,0.2-0.6,0.3-0.9c0.5-2.1,1-4.2,1.6-6.3
		c1-3.5,2-7,2.6-10.5c-6.2,0.1-11.9-0.2-17.2-0.9C399.4,93.9,397.1,100.8,395,107.7"/>
	<path fill="#000000" class="st0" d="M360.7,113c-15.5-11.8-7-20.8-7-20.8c3.5,6,18.2,13.7,36.4,14.8c2.7-6.1,4.9-14.4,6-20.9
		c-41.8-6.7-51.5-35.6-51.5-35.6l-3.7,5.2c-6.9,9.8-4.5,23.4,5.3,30.3c-29.3,27.1,6.7,47.9,6.7,47.9c69,45.8,56.3,52.3,56.3,52.3
		c-8.2-2.7-16.5-7-25.4-12.5c-0.1,0.1-6.9,12.4-10.2,18.5c17.4,8.6,33.8,15.6,33.8,15.6s18.7-19.2,19.7-34.2
		C428.1,158.6,378.3,126.4,360.7,113"/>
	<path fill="#000000" class="st0" d="M440.9,85.5c-7,1.2-12.3,2.1-18.4,2.4c-1.2,6.4-3.9,14.6-5.2,18.6c19.6-3,50-6.2,53.7,8.8
		c4.4,17.7-26.7,49.4-26.7,49.4C487,145.1,519.4,72.4,440.9,85.5"/>
	<path fill="#000000" class="st0" d="M527.1,355.8c-6.5-0.4-22.4,4.6-34.9,5.7c-13.5,1.2-23.6-1.5-27.8-7.2c-8.3-10.9,1.6-19.5,1.6-19.5
		c6.8,22.5,30.4,20.1,30.4,20.1l16.2-18.7c0,0-31.1,4.2-43.9-23c0,0-60.8,44.8-7.5,62.6c0,0-6,3-12.6,5c-6.8,2-15-0.2-19.2-12.6
		c0,0,6.5-35.9-9.5-46.3c-11.5-7.5-60,50.7-19.5,57.2c7.7,1.2,10.3,0,10,4.2c0,0-18.7,58-65.7,37.2c-34.3-15.2-21.5-62.1-21.5-62.1
		s-14.9,23.1-6.8,52.4c10.6,38.4,78,63.5,105.3-17.7c0,0,0.6-3.7,3,0.1c16.9,26.7,18.5,9.6,53.8-6.6c35.3-16.2,40.3-1,40.3-1
		l18.6-21.4C537.4,364.1,540.5,356.6,527.1,355.8 M411.1,346.5L411.1,346.5c4.5,5,3.5,14.9,3.5,14.9S390.8,361.4,411.1,346.5"/>
	<path fill="#000000" class="st0" d="M388.2,412.3c-0.5-12.9-2.7-27.9-7.4-46.4c-5.5-21.9-11.7-38.1-14.3-64.8c-2.5-25.2,5.1-34,5.1-34
		s-32.4,4.2-17.2,65.9c7.2,29.2,16.2,53.5,16.5,87.8C381.1,418.7,387.9,412.4,388.2,412.3"/>
	<path fill="#000000" class="st0" d="M368.7,449.2c-2.2,12.2-6.2,22-13,28.8c0,0,21.3-2.5,29.3-33.3C380.1,448,371.6,449.5,368.7,449.2"/>
	<path fill="#000000" class="st0" d="M313.1,384.4c-5.1,2-9.9,3.9-16.7,3.8c-6.2-0.1-13.3-5-10.1-14c3-8.1,9.8-15.3,1.8-8.2
		c-21.3,19-14.9,59,15.9,42.3c3.1-1.7,6.1-3.1,8.9-4.2C311.8,397.2,311.4,392,313.1,384.4"/>
	<path fill="#000000" class="st0" d="M316.5,383.7c-0.5,6.4-0.8,12.8-0.3,19.2c2.4-0.9,4.7-1.6,6.8-2.1c-2.4-5.9-3.7-12.4-3.7-18.7
		c-1,0.3-2,0.7-2.9,1.1C316.5,383.3,316.5,383.4,316.5,383.7"/>
	<path fill="#000000" class="st0" d="M337.8,345.4c-36.9,5.1-38.6-18.8-38.6-18.8s-10,10.3-9.8,22.9c0.3,18.1,22.2,18.9,40,17.4
		c17.8-1.5,14.6,12.7,14.6,12.7c-9.3-0.9-15.8,0-21.2,1.5c0.3,7.1,1.7,13.4,4.2,18.9c17.7-3.3,26,3.9,26,3.9
		S372.1,340.6,337.8,345.4"/>
	<path fill="#000000" class="st0" d="M264.4,322L264.4,322c1.6-4.2,1.7-8.8,0.5-13.2l-0.7-2.5c0,0,0.7,5.7-12.7,21.7c-12.2,14.6-23.2,34-19.4,49.9
		c5.2,21.7,28,30.3,28,30.3S303.3,345.5,264.4,322 M264,374.8c-28.4-16.4-11-32.8-11-32.8C276.6,352.7,264,374.8,264,374.8"/>
	<path fill="#000000" class="st0" d="M336.4,254c0,0-5.9,14.1-8.8,15.9c-2.8,1.8,14.2,5.4,14.6,14.2C342.7,292.9,375.6,262.5,336.4,254"/>
	<path fill="#000000" class="st0" d="M249.7,320.5c0,0,4.5-0.2,10.8-15.8c1.3-3.1-14.1-5.5-14.5-14.3C245.6,281.6,210.6,311.8,249.7,320.5"/>
	<path fill="#000000" class="st0" d="M237.1,256.5c0,0-5.6,14.2-8.4,16.1c-2.8,1.8,14.3,5.1,14.9,13.9C244.2,295.2,276.4,264.1,237.1,256.5"/>
	<path fill="#000000" class="st0" d="M288.5,245.2c0.3,0.3,0.5,0.7,0.7,1c1.2-1.1,2.5-2.2,4-3.2c3-2.1,6.5-3.8,10.1-5.3c-0.8-1.1-1.5-2.2-2-3.5
		c0-0.1,0-0.1,0-0.1c-6,1.5-12,3.6-17.2,6.6C285.8,241.9,287.2,243.5,288.5,245.2"/>
	<path fill="#000000" class="st0" d="M347.3,307.2c-13.4-1.5-28-6.2-43.3-15.5c-26.5-16.2-27.1-31.9-17.2-43c-0.3-0.5-0.7-0.9-1-1.4
		c0,0-0.3-0.4-0.2-0.3c0.1,0.2-0.1-0.2-0.2-0.2c-0.2-0.2-0.4-0.5-0.6-0.7c-0.3-0.4-0.7-0.8-1.1-1.2c-0.4-0.4-2.3-2.2-2.7-2.4
		c-8.5,5.9-14.2,14.7-12.5,28c3.8,30.4,38.3,55.6,81,56.9C348.4,323.1,347.4,309.6,347.3,307.2"/>
	<path fill="#000000" class="st0" d="M304.9,233.4c0.1,0.1,0.2,0.3,0.2,0.4c0.2,0.3,0.4,0.5,0.6,0.8c0.4,0.5,0.8,1.1,1.2,1.7c0,0,0.1,0.1,0.1,0.1
		c13.2-4.5,27-5.5,27-5.5s-14-0.6-29.1,2.4C304.9,233.3,304.9,233.4,304.9,233.4"/>
	<path fill="#000000" class="st0" d="M367,307.3c-5.2,0.5-10.7,0.6-16.4,0.2c0.1,2,0.1,4,0.4,5.9c0.6,4.8,2.2,9.4,3.5,14c5.2,0,10.5-0.3,15.9-1.1
		C368.4,320.2,367.3,313.7,367,307.3"/>
	<path fill="#000000" class="st0" d="M495.1,244.1c0,0-5.2,12.3-43.3,50.3c0,0-13.5-21.1-14.4-24.7c0,0-26.3,31.4-67,37.1
		c0.3,6.4,1.3,10.8,3.4,18.9c19.1-3.3,38.6-11.5,56.6-26.3l13.6,23.6c4.7-3.5,16.5-13.1,30-28.9c0,0,1.8,18.8,30.6,29.2
		C504.5,323.5,546.2,279.6,495.1,244.1 M503.8,292.7c-16.6-3.8-19.1-11.6-19.1-11.6l11.5-14.6C510.5,282.4,503.8,292.7,503.8,292.7"
		/>
</g>
<path fill="#000000" d="M273.602,481.306c-0.578-0.576-1.301-1.03-2.174-1.362c-0.873-0.331-1.885-0.497-3.039-0.497
	c-0.663,0-1.463,0.079-2.4,0.238v-6.077h-1.535v17.711c0.706,0.202,1.402,0.354,2.087,0.454s1.301,0.151,1.849,0.151
	c1.153,0,2.166-0.162,3.039-0.486s1.596-0.764,2.174-1.319c0.576-0.555,1.006-1.211,1.287-1.968s0.42-1.561,0.42-2.411
	s-0.139-1.657-0.42-2.422C274.608,482.554,274.178,481.883,273.602,481.306z M272.391,489.167c-0.852,0.829-2.17,1.243-3.958,1.243
	c-0.39,0-0.805-0.032-1.244-0.097c-0.439-0.065-0.84-0.134-1.2-0.206v-8.845c0.447-0.115,0.887-0.194,1.319-0.237
	c0.433-0.044,0.808-0.065,1.125-0.065c0.894,0,1.668,0.112,2.325,0.335c0.656,0.224,1.199,0.545,1.633,0.963
	c0.432,0.418,0.752,0.919,0.961,1.503s0.314,1.243,0.314,1.979C273.667,487.195,273.241,488.338,272.391,489.167z M247.392,479.446
	c-0.62,0-1.297,0.079-2.033,0.238c-0.735,0.158-1.485,0.433-2.249,0.821l-0.065,1.73c0.548-0.303,0.973-0.52,1.276-0.649
	s0.624-0.237,0.962-0.324c0.338-0.086,0.677-0.158,1.016-0.216s0.667-0.087,0.984-0.087c1.139,0,1.982,0.249,2.53,0.746
	s0.822,1.33,0.822,2.498v0.13c-0.332-0.044-0.732-0.087-1.2-0.13c-0.469-0.043-0.876-0.065-1.222-0.065
	c-1.831,0-3.302,0.311-4.412,0.931c-1.11,0.619-1.665,1.644-1.665,3.07c0,0.707,0.155,1.305,0.465,1.795
	c0.31,0.49,0.713,0.88,1.211,1.168s1.067,0.497,1.708,0.627c0.641,0.13,1.308,0.194,2,0.194c0.807,0,1.6-0.072,2.378-0.216
	c0.779-0.145,1.536-0.368,2.271-0.671v-7.028c0-1.585-0.397-2.742-1.189-3.471C250.189,479.811,248.992,479.446,247.392,479.446z
	 M250.636,489.892c-0.375,0.144-0.858,0.267-1.449,0.367c-0.591,0.102-1.183,0.151-1.773,0.151c-0.505,0-0.984-0.035-1.438-0.108
	c-0.454-0.071-0.84-0.197-1.157-0.378c-0.317-0.18-0.57-0.414-0.757-0.703c-0.188-0.288-0.281-0.663-0.281-1.124
	c0-0.52,0.111-0.934,0.335-1.244c0.224-0.31,0.533-0.551,0.93-0.724c0.396-0.174,0.85-0.296,1.362-0.368
	c0.511-0.072,1.041-0.108,1.589-0.108c0.476,0,0.984,0.029,1.524,0.087c0.541,0.058,0.912,0.108,1.114,0.151V489.892z
	 M258.032,479.868c-0.649,0.122-1.276,0.263-1.881,0.422v11.418h1.535v-10.186c0.202-0.072,0.563-0.147,1.082-0.228
	c0.519-0.079,1.002-0.118,1.449-0.118h1.989v-1.492H260C259.336,479.685,258.681,479.746,258.032,479.868z M-77.92,487.667
	l241.145,0.656l0.663-0.433l-0.632-0.564L-77.92,487.667z M164.994,487.825l1.95,1.95l1.95-1.95l-1.95-1.95L164.994,487.825z
	 M169.559,487.825l3.057,3.057l3.057-3.057l-3.057-3.057L169.559,487.825z M212.359,489.286l-3.395-9.602h-1.514l-3.396,9.602
	l-2.984-9.602h-1.73l3.979,12.023h1.428l3.46-9.645l3.46,9.645h1.427l3.979-12.023h-1.73L212.359,489.286z M238.418,489.589
	c-0.317,0-0.591,0.115-0.822,0.346c-0.231,0.23-0.346,0.505-0.346,0.822c0,0.316,0.115,0.591,0.346,0.821
	c0.23,0.23,0.504,0.346,0.822,0.346c0.317,0,0.591-0.115,0.822-0.346c0.23-0.23,0.346-0.505,0.346-0.821
	c0-0.317-0.116-0.592-0.346-0.822C239.009,489.704,238.735,489.589,238.418,489.589z M193.243,489.286l-3.395-9.602h-1.514
	l-3.396,9.602l-2.984-9.602h-1.73l3.979,12.023h1.428l3.46-9.645l3.46,9.645h1.427l3.979-12.023h-1.73L193.243,489.286z
	 M231.476,489.286l-3.395-9.602h-1.514l-3.396,9.602l-2.984-9.602h-1.73l3.979,12.023h1.428l3.46-9.645l3.46,9.645h1.427
	l3.979-12.023h-1.73L231.476,489.286z M382.732,480.474c-0.426-0.396-0.938-0.667-1.535-0.812c-0.598-0.144-1.271-0.216-2.021-0.216
	c-0.664,0-1.393,0.09-2.184,0.271c-0.793,0.181-1.471,0.4-2.033,0.659c-0.346-0.331-0.818-0.569-1.416-0.714
	c-0.6-0.144-1.273-0.216-2.023-0.216c-0.635,0-1.268,0.058-1.902,0.173l-2.465,0.454v11.635h1.535v-10.38
	c0.447-0.102,0.883-0.188,1.309-0.26c0.424-0.072,0.896-0.108,1.416-0.108c0.605,0,1.125,0.058,1.557,0.173
	c0.434,0.116,0.789,0.321,1.07,0.616c0.281,0.296,0.494,0.711,0.639,1.244s0.217,1.24,0.217,2.119v6.596h1.535v-7.201
	c0-0.663-0.055-1.243-0.162-1.741c-0.109-0.497-0.213-0.861-0.314-1.092c0.086-0.043,0.281-0.119,0.584-0.228
	c0.303-0.107,0.602-0.197,0.898-0.27c0.295-0.072,0.586-0.126,0.875-0.162s0.547-0.055,0.779-0.055c0.59,0,1.102,0.058,1.535,0.173
	c0.432,0.116,0.781,0.317,1.049,0.605c0.266,0.289,0.471,0.703,0.615,1.244c0.145,0.54,0.217,1.251,0.217,2.13v6.596h1.535v-7.201
	c0-0.995-0.111-1.816-0.336-2.466C383.482,481.393,383.158,480.87,382.732,480.474z M280.1,474.581
	c-0.785,0.648-1.18,1.729-1.18,3.243v1.86h-2.551v1.492h2.551v10.531h1.537v-10.531h4.973v-1.492h-4.973v-1.471
	c0-0.635,0.045-1.149,0.141-1.546c0.094-0.396,0.24-0.707,0.443-0.931c0.201-0.223,0.475-0.385,0.82-0.486
	c0.346-0.101,0.779-0.151,1.299-0.151h2.422v-1.492h-2.271C281.956,473.607,280.885,473.932,280.1,474.581z M398.273,487.825
	l3.057,3.057l3.057-3.057l-3.057-3.057L398.273,487.825z M343.322,482.322c0.389-0.418,0.854-0.749,1.395-0.994
	s1.135-0.368,1.783-0.368c0.736,0,1.373,0.076,1.914,0.228s1.121,0.414,1.74,0.789l0.715-1.405c-0.707-0.39-1.393-0.674-2.055-0.854
	c-0.664-0.181-1.436-0.271-2.314-0.271c-0.85,0-1.639,0.155-2.367,0.465c-0.729,0.311-1.367,0.746-1.914,1.309
	c-0.549,0.563-0.98,1.222-1.297,1.979c-0.317,0.757-0.476,1.59-0.476,2.498s0.158,1.74,0.476,2.497
	c0.316,0.757,0.748,1.413,1.297,1.969c0.547,0.555,1.186,0.987,1.914,1.297c0.729,0.311,1.518,0.465,2.367,0.465
	c0.879,0,1.65-0.09,2.314-0.27c0.662-0.181,1.348-0.466,2.055-0.854l-0.715-1.406c-0.619,0.375-1.199,0.639-1.74,0.79
	s-1.178,0.227-1.914,0.227c-0.648,0-1.242-0.119-1.783-0.356c-0.541-0.238-1.006-0.565-1.395-0.984
	c-0.391-0.418-0.693-0.915-0.908-1.492c-0.217-0.576-0.324-1.203-0.324-1.881s0.107-1.305,0.324-1.882
	C342.628,483.238,342.931,482.741,343.322,482.322z M404.387,487.825l1.949,1.95l1.951-1.95l-1.951-1.95L404.387,487.825z
	 M410.701,487.326l-0.664,0.433l0.633,0.564l241.176-0.341L410.701,487.326z M362.611,481.295c-0.549-0.569-1.193-1.02-1.936-1.352
	c-0.742-0.331-1.547-0.497-2.412-0.497c-0.863,0-1.668,0.166-2.41,0.497c-0.742,0.332-1.389,0.782-1.936,1.352
	c-0.549,0.57-0.977,1.229-1.287,1.979c-0.311,0.749-0.465,1.557-0.465,2.422s0.154,1.672,0.465,2.422s0.738,1.409,1.287,1.979
	c0.547,0.569,1.193,1.017,1.936,1.341s1.547,0.486,2.41,0.486c0.865,0,1.67-0.162,2.412-0.486s1.387-0.771,1.936-1.341
	c0.547-0.569,0.977-1.229,1.287-1.979c0.309-0.75,0.465-1.557,0.465-2.422s-0.156-1.673-0.465-2.422
	C363.587,482.524,363.158,481.865,362.611,481.295z M362.394,487.523c-0.217,0.569-0.52,1.067-0.908,1.492
	c-0.389,0.426-0.857,0.765-1.406,1.017c-0.547,0.252-1.152,0.378-1.816,0.378c-0.662,0-1.268-0.126-1.816-0.378
	c-0.547-0.252-1.016-0.591-1.404-1.017c-0.391-0.425-0.693-0.923-0.908-1.492c-0.217-0.569-0.324-1.179-0.324-1.827
	c0-0.649,0.107-1.262,0.324-1.839c0.215-0.576,0.518-1.077,0.908-1.503c0.389-0.425,0.857-0.764,1.404-1.016
	c0.549-0.252,1.154-0.379,1.816-0.379c0.664,0,1.27,0.127,1.816,0.379c0.549,0.252,1.018,0.591,1.406,1.016
	c0.389,0.426,0.691,0.927,0.908,1.503c0.217,0.577,0.324,1.189,0.324,1.839C362.718,486.345,362.611,486.954,362.394,487.523z
	 M296.221,481.295c-0.547-0.569-1.191-1.02-1.936-1.352c-0.742-0.331-1.545-0.497-2.41-0.497s-1.67,0.166-2.412,0.497
	c-0.742,0.332-1.387,0.782-1.936,1.352c-0.547,0.57-0.977,1.229-1.285,1.979c-0.311,0.749-0.465,1.557-0.465,2.422
	s0.154,1.672,0.465,2.422c0.309,0.75,0.738,1.409,1.285,1.979c0.549,0.569,1.193,1.017,1.936,1.341s1.547,0.486,2.412,0.486
	s1.668-0.162,2.41-0.486c0.744-0.324,1.389-0.771,1.936-1.341c0.549-0.569,0.977-1.229,1.287-1.979s0.465-1.557,0.465-2.422
	s-0.154-1.673-0.465-2.422C297.198,482.524,296.77,481.865,296.221,481.295z M296.006,487.523c-0.217,0.569-0.52,1.067-0.908,1.492
	c-0.391,0.426-0.859,0.765-1.406,1.017c-0.549,0.252-1.154,0.378-1.816,0.378c-0.664,0-1.27-0.126-1.816-0.378
	c-0.549-0.252-1.018-0.591-1.406-1.017c-0.389-0.425-0.691-0.923-0.908-1.492s-0.324-1.179-0.324-1.827
	c0-0.649,0.107-1.262,0.324-1.839c0.217-0.576,0.52-1.077,0.908-1.503c0.389-0.425,0.857-0.764,1.406-1.016
	c0.547-0.252,1.152-0.379,1.816-0.379c0.662,0,1.268,0.127,1.816,0.379c0.547,0.252,1.016,0.591,1.406,1.016
	c0.389,0.426,0.691,0.927,0.908,1.503c0.215,0.577,0.324,1.189,0.324,1.839C296.331,486.345,296.221,486.954,296.006,487.523z
	 M309.381,480.463c-0.455-0.39-0.996-0.656-1.623-0.801c-0.627-0.144-1.309-0.216-2.043-0.216c-0.707,0-1.465,0.047-2.271,0.141
	s-1.701,0.234-2.682,0.422v11.699h1.535v-10.402c1.184-0.23,2.293-0.346,3.33-0.346c0.592,0,1.111,0.062,1.559,0.184
	c0.445,0.123,0.818,0.332,1.113,0.628c0.295,0.295,0.525,0.713,0.691,1.254s0.25,1.251,0.25,2.13v6.553h1.535v-7.201
	c0-0.995-0.119-1.82-0.357-2.477C310.18,481.375,309.834,480.852,309.381,480.463z M318.516,490.054
	c-0.346-0.108-0.619-0.277-0.82-0.509c-0.203-0.23-0.35-0.547-0.443-0.951c-0.096-0.403-0.141-0.922-0.141-1.557v-5.86h4.973v-1.492
	h-4.973v-4.347h-1.537v4.347h-2.551v1.492h2.551v6.466c0,0.764,0.109,1.405,0.326,1.925c0.215,0.519,0.525,0.937,0.93,1.254
	c0.402,0.317,0.867,0.544,1.395,0.682c0.525,0.137,1.105,0.205,1.74,0.205h2.271v-1.492h-2.422
	C319.295,490.216,318.862,490.162,318.516,490.054z M337.784,489.589c-0.316,0-0.59,0.115-0.82,0.346s-0.346,0.505-0.346,0.822
	c0,0.316,0.115,0.591,0.346,0.821s0.504,0.346,0.82,0.346c0.318,0,0.592-0.115,0.822-0.346s0.346-0.505,0.346-0.821
	c0-0.317-0.115-0.592-0.346-0.822S338.102,489.589,337.784,489.589z M333.178,486.106c-0.346-0.303-0.785-0.565-1.318-0.789
	c-0.533-0.223-1.182-0.422-1.947-0.595l-0.799-0.173c-1.053-0.216-1.781-0.461-2.184-0.735c-0.404-0.273-0.607-0.678-0.607-1.211
	c0-0.504,0.238-0.904,0.715-1.2c0.475-0.295,1.174-0.443,2.098-0.443c0.793,0,1.477,0.076,2.055,0.228
	c0.576,0.151,1.217,0.421,1.924,0.811l0.691-1.405c-1.412-0.765-2.969-1.146-4.67-1.146c-0.635,0-1.223,0.076-1.764,0.228
	c-0.539,0.151-1.008,0.364-1.404,0.638s-0.711,0.605-0.941,0.994c-0.23,0.39-0.346,0.815-0.346,1.276
	c0,0.462,0.072,0.88,0.217,1.254c0.143,0.375,0.381,0.707,0.713,0.995s0.758,0.537,1.275,0.746c0.52,0.209,1.146,0.4,1.883,0.573
	l0.908,0.194c1.008,0.217,1.729,0.49,2.162,0.822c0.432,0.331,0.648,0.771,0.648,1.318c0,0.39-0.086,0.707-0.26,0.952
	c-0.172,0.245-0.414,0.436-0.725,0.573c-0.311,0.137-0.678,0.237-1.102,0.303c-0.426,0.064-0.877,0.097-1.352,0.097
	c-0.592,0-1.223-0.09-1.893-0.271c-0.67-0.18-1.352-0.479-2.045-0.897l-0.734,1.471c0.779,0.433,1.539,0.742,2.281,0.93
	s1.539,0.281,2.391,0.281c0.748,0,1.434-0.072,2.053-0.216c0.621-0.145,1.158-0.36,1.611-0.648c0.455-0.289,0.805-0.649,1.049-1.082
	c0.246-0.433,0.369-0.93,0.369-1.492c0-0.476-0.072-0.915-0.217-1.318C333.77,486.763,333.526,486.41,333.178,486.106z"/>
</svg>

