<?xml version="1.0" encoding="utf-8"?>
<!-- Generator: Adobe Illustrator 22.1.0, SVG Export Plug-In . SVG Version: 6.00 Build 0)  -->
<svg version="1.1" id="Layer_1" xmlns="http://www.w3.org/2000/svg" xmlns:xlink="http://www.w3.org/1999/xlink" x="0px" y="0px"
	 viewBox="0 0 800 500" style="enable-background:new 0 0 800 500;" xml:space="preserve">
<g>
	<path fill="#000000" d="M689.5,294.4c10.3-69.8,6-194.9,5.8-200.6l-2.2,0.3l0.5-0.9c-15.6-5.2-38.5-7.7-61.1-8.7v0l-0.1,0c-0.1,0-0.2,0-0.2,0v0
		l-10.3,1.1c0,0.3,0.4,9.9,0.7,24.5c-40.9-6.8-111.6,2.5-127.2,4.7c-0.2-7.4-0.3-12.1-0.3-13.2l-10.6,1.9c0,0.3,0.1,4.3,0.3,11.2
		c-16.2-2.7-36.8-2.7-55.8-1.6c0.3-10.1,0.3-19.9,0.3-28.9c-1.9-1-3.8-1.9-5.7-2.9c4.9,0.8,9.5,1.7,13.5,2.8l0.6-0.8
		c-1.1-4.1-3.3-7.8-5.7-11.5c-16.7-3.1-37.4-4.8-58.5-5.8c0-0.1,0-0.3,0-0.4L372,66c-2.6-0.1-5.3-0.2-7.9-0.3v2.1l-3,0.7
		c0,0.5,0.2,11,0.5,28.4c-14.4-2.3-31.2-3.7-47.9-4.4c-0.1-7.7-0.2-13.9-0.3-18.5l5.6-8c-21-5.2-52-7.7-82.5-8.8v10.7
		c2.5,0.1,5.1,0.2,7.6,0.3c0.2,8,0.6,27.6,0.8,53.4c-16.1-3.3-36.3-5.2-56.7-6.2c0-0.4,0-0.6,0-0.8l-10.6,0.9c0,0.2,0.2,2.8,0.3,7.2
		c-11.7-3-26.1-4.8-41-5.9c0.9-5,1.9-9.6,3-13.7l-0.8-0.5c-4.1,1-7.8,3.1-11.5,5.2c-0.5,2.7-1,5.4-1.5,8.3c0,0-0.1,0-0.1,0v0.8
		c-2.1,13.4-3.4,28.8-4.2,44.4c-2.7-0.1-5.5-0.3-8.2-0.4v4.1c-0.2,3.5-4.4,80.5,5.3,124.9c-3.6-0.8-6.9-1.6-10-2.6l-5.3,9.8
		c15.8,5.1,38.8,7.6,61.7,8.7c-0.8,20.2-1.7,65.7,3.3,100.5l-1.5,2.3c29.3,2.6,66.3,4.3,106.5,5.3c0.3,6.1,1,20.2,0.8,36.5
		c-2.8-0.5-5.3-1.1-7.8-1.7l-5.5,10c25.3,6.7,67.3,7.5,101.1,6.8l1.6,2.1c0.1-0.7,0.2-1.4,0.3-2.1c16.3-0.4,30.5-1.1,39.8-1.7
		c-0.2,2.5-0.5,4.7-0.7,6.4l11.4-2.6c0.2-1.5,0.4-3,0.6-4.5c0.1,0,0.1,0,0.1,0l-0.1-0.6c1.7-14.1,3.2-29.9,4.4-47.1
		c63.6,0.2,125.4-0.9,164.9-1.8c0-0.7,0-1.5,0-2.2c7.2-26.8,9-70.8,9.2-106c26.7,5.9,68.2,2.7,88.7,0.6l4.4,3.6
		c0.3-1.4,0.6-2.8,0.8-4.2c4.1-0.5,6.6-0.8,7.1-0.9l-1.4-10.5C693.3,294,691.9,294.1,689.5,294.4 M302.8,73.8
		c0.4,20.2,1.6,93.3,0.4,168.9c-17.8-0.8-34.2-1.9-48.2-3.2c1.7-74.1,0.4-148.2-0.1-170.7C272.5,69.7,289.2,71.3,302.8,73.8
		 M135.3,127.5c16.2,1.1,31.6,3.1,43,6.6c0.2,9.2,0.4,21.2,0.2,34c-13.1-2.9-29.3-4.8-46.2-6C133,150,133.9,138.2,135.3,127.5
		 M130.5,292.1c-9.4-33.8-7.5-99.5-6.6-119.8c20.6,1.1,40.4,3.3,54.4,7.1c-0.7,24.3-2.9,50.1-8.3,66.2l9.8,5.1
		c10.9-32.8,9.9-98.1,8.9-124.6c21,1,41.5,3,56.3,6.7c0.3,46.8,0,109.6-2.8,162.3C231.3,295.6,171.3,298.1,130.5,292.1 M178.4,399.1
		c-4-32.4-3.1-74-2.4-92.7c29.2,0.9,56.3-0.1,65.7-0.5c-1,16.3-2.2,31.3-3.8,44.4c-9.5-0.1-18.1-0.7-25.2-2l-4.2,10.4
		c10.6,2,24.1,2.5,38.5,2.2c0.3,0,0.5,0.1,0.8,0.1c3.6-30.4,5.7-69.9,6.8-110.2c14.7,1.2,31,2.1,48.3,2.8
		c-1,54.1-3.3,108.3-7.9,143.9l4.9,6.5C256.7,403.1,209.3,401.6,178.4,399.1 M354.3,455c-23.1,0.3-48.8-0.2-69.2-2.8
		c0.3-16.5-0.4-31-0.8-37.9c7.6,0.2,15.4,0.3,23.2,0.5c0.2-3.6,0.4-7.1,0.5-10.7c-0.8,0-1.5,0-2.3,0c4.7-39.6,7-95.3,8-150.1
		c15.5,0.6,31.8,1,48.3,1.3c-0.8,72.4-3.4,149.2-9.6,197.3L354.3,455z M362.1,244.5c-16.7-0.3-32.9-0.7-48.3-1.3
		c0.8-54.2,0.5-106.4,0-140c17.1,0.8,34,2.2,47.9,4.7C362.2,140.8,362.6,190.9,362.1,244.5 M485,126.3c0.5,26.4,1,72.2-0.1,118.5
		c-35.4,0.3-73.8,0.4-110.5-0.2c0.2-16.1,0.2-31.8,0.2-46.9c0.4,0,0.4-10.9,0-10.9c0-23.5-0.2-45.1-0.4-63.4l1.1,6.7
		C376.2,130.1,447.6,118.9,485,126.3 M416.8,80.4c0.1,10.2,0.1,21.7-0.2,33.6c-21.2,1.7-38.4,4.3-42.3,4.9c0-2.9-0.1-5.7-0.1-8.4
		c0.5,0.1,0.9,0.3,1.4,0.4l0.5-0.8c-0.5-2-1.2-3.8-2-5.6c-0.2-11.6-0.3-21-0.4-27.7C389,77.5,403.9,78.6,416.8,80.4 M404.7,453
		c-8.8,0.5-23,1.3-39.4,1.7c1.3-12.2,2.5-25.6,3.5-39.8c12.6,0.2,25.4,0.3,38.2,0.4C406.3,426.1,405.5,440.9,404.7,453 M575.3,403
		c-10.5,0.2-22.4,0.5-35.3,0.7c2.1-18,1.8-41.3,0.4-64.2l-10.6,1.1c1.4,23.3,1.6,46.7-0.9,63.3c-47.1,0.7-105.3,1.2-159.5,0.3
		c2.9-45.6,4.3-98.5,4.9-148.9c18.7,0.3,37.7,0.4,56.5,0.4l-2.3,0.2c0.1,0.7,5.1,73.6-7.6,104l9.8,4.1
		c13.2-31.6,8.9-100.6,8.4-108.3c15.5,0,30.8-0.1,45.5-0.2c-1.1,39.7-3.3,78.8-7.8,105l9.8,10.1c5-29.5,7.5-72.4,8.6-115.2
		c33.5-0.4,63.7-0.9,86.7-1.5C582.7,268.8,586,359.8,575.3,403 M563,243.7c1.8-17.7,1.5-40,0.2-61.9l-10.6,1.1
		c1.3,22.3,1.6,44.6-0.6,61.1c-17,0.3-36.1,0.6-56.4,0.8c1-46.5,0.5-91.7,0.1-118.5c10.7-1.5,88.5-12.2,127.2-4.4
		c0.4,36.1-0.4,90.5-8,120.6C604.5,242.7,586.2,243.2,563,243.7 M678.1,295.7c-21.6,2.1-61.1,4.7-84.4-1.2
		c-0.1-19.2-0.7-34.5-0.9-40.7c19.7-0.5,32.3-0.9,34.5-0.9l-1.9-7c10-43,8.5-121.9,7.5-150.6c19.2,0.9,38.3,2.9,51.9,6.8
		C685.7,129.9,688,240.4,678.1,295.7"/>
	<path fill="#000000" d="M433.7,181.5c-5,0.8-10,1.5-14.9,2.2v10.8c5.6-0.7,11.3-1.6,17-2.4L433.7,181.5z"/>
</g>
<path fill="#000000" d="M273.602,481.306c-0.578-0.576-1.301-1.03-2.174-1.362c-0.873-0.331-1.885-0.497-3.039-0.497
	c-0.663,0-1.463,0.079-2.4,0.238v-6.077h-1.535v17.711c0.706,0.202,1.402,0.354,2.087,0.454s1.301,0.151,1.849,0.151
	c1.153,0,2.166-0.162,3.039-0.486s1.596-0.764,2.174-1.319c0.576-0.555,1.006-1.211,1.287-1.968s0.42-1.561,0.42-2.411
	s-0.139-1.657-0.42-2.422C274.608,482.554,274.178,481.883,273.602,481.306z M272.391,489.167c-0.852,0.829-2.17,1.243-3.958,1.243
	c-0.39,0-0.805-0.032-1.244-0.097c-0.439-0.065-0.84-0.134-1.2-0.206v-8.845c0.447-0.115,0.887-0.194,1.319-0.237
	c0.433-0.044,0.808-0.065,1.125-0.065c0.894,0,1.668,0.112,2.325,0.335c0.656,0.224,1.199,0.545,1.633,0.963
	c0.432,0.418,0.752,0.919,0.961,1.503s0.314,1.243,0.314,1.979C273.667,487.195,273.241,488.338,272.391,489.167z M247.392,479.446
	c-0.62,0-1.297,0.079-2.033,0.238c-0.735,0.158-1.485,0.433-2.249,0.821l-0.065,1.73c0.548-0.303,0.973-0.52,1.276-0.649
	s0.624-0.237,0.962-0.324c0.338-0.086,0.677-0.158,1.016-0.216s0.667-0.087,0.984-0.087c1.139,0,1.982,0.249,2.53,0.746
	s0.822,1.33,0.822,2.498v0.13c-0.332-0.044-0.732-0.087-1.2-0.13c-0.469-0.043-0.876-0.065-1.222-0.065
	c-1.831,0-3.302,0.311-4.412,0.931c-1.11,0.619-1.665,1.644-1.665,3.07c0,0.707,0.155,1.305,0.465,1.795
	c0.31,0.49,0.713,0.88,1.211,1.168s1.067,0.497,1.708,0.627c0.641,0.13,1.308,0.194,2,0.194c0.807,0,1.6-0.072,2.378-0.216
	c0.779-0.145,1.536-0.368,2.271-0.671v-7.028c0-1.585-0.397-2.742-1.189-3.471C250.189,479.811,248.992,479.446,247.392,479.446z
	 M250.636,489.892c-0.375,0.144-0.858,0.267-1.449,0.367c-0.591,0.102-1.183,0.151-1.773,0.151c-0.505,0-0.984-0.035-1.438-0.108
	c-0.454-0.071-0.84-0.197-1.157-0.378c-0.317-0.18-0.57-0.414-0.757-0.703c-0.188-0.288-0.281-0.663-0.281-1.124
	c0-0.52,0.111-0.934,0.335-1.244c0.224-0.31,0.533-0.551,0.93-0.724c0.396-0.174,0.85-0.296,1.362-0.368
	c0.511-0.072,1.041-0.108,1.589-0.108c0.476,0,0.984,0.029,1.524,0.087c0.541,0.058,0.912,0.108,1.114,0.151V489.892z
	 M258.032,479.868c-0.649,0.122-1.276,0.263-1.881,0.422v11.418h1.535v-10.186c0.202-0.072,0.563-0.147,1.082-0.228
	c0.519-0.079,1.002-0.118,1.449-0.118h1.989v-1.492H260C259.336,479.685,258.681,479.746,258.032,479.868z M-77.92,487.667
	l241.145,0.656l0.663-0.433l-0.632-0.564L-77.92,487.667z M164.994,487.825l1.95,1.95l1.95-1.95l-1.95-1.95L164.994,487.825z
	 M169.559,487.825l3.057,3.057l3.057-3.057l-3.057-3.057L169.559,487.825z M212.359,489.286l-3.395-9.602h-1.514l-3.396,9.602
	l-2.984-9.602h-1.73l3.979,12.023h1.428l3.46-9.645l3.46,9.645h1.427l3.979-12.023h-1.73L212.359,489.286z M238.418,489.589
	c-0.317,0-0.591,0.115-0.822,0.346c-0.231,0.23-0.346,0.505-0.346,0.822c0,0.316,0.115,0.591,0.346,0.821
	c0.23,0.23,0.504,0.346,0.822,0.346c0.317,0,0.591-0.115,0.822-0.346c0.23-0.23,0.346-0.505,0.346-0.821
	c0-0.317-0.116-0.592-0.346-0.822C239.009,489.704,238.735,489.589,238.418,489.589z M193.243,489.286l-3.395-9.602h-1.514
	l-3.396,9.602l-2.984-9.602h-1.73l3.979,12.023h1.428l3.46-9.645l3.46,9.645h1.427l3.979-12.023h-1.73L193.243,489.286z
	 M231.476,489.286l-3.395-9.602h-1.514l-3.396,9.602l-2.984-9.602h-1.73l3.979,12.023h1.428l3.46-9.645l3.46,9.645h1.427
	l3.979-12.023h-1.73L231.476,489.286z M382.732,480.474c-0.426-0.396-0.938-0.667-1.535-0.812c-0.598-0.144-1.271-0.216-2.021-0.216
	c-0.664,0-1.393,0.09-2.184,0.271c-0.793,0.181-1.471,0.4-2.033,0.659c-0.346-0.331-0.818-0.569-1.416-0.714
	c-0.6-0.144-1.273-0.216-2.023-0.216c-0.635,0-1.268,0.058-1.902,0.173l-2.465,0.454v11.635h1.535v-10.38
	c0.447-0.102,0.883-0.188,1.309-0.26c0.424-0.072,0.896-0.108,1.416-0.108c0.605,0,1.125,0.058,1.557,0.173
	c0.434,0.116,0.789,0.321,1.07,0.616c0.281,0.296,0.494,0.711,0.639,1.244s0.217,1.24,0.217,2.119v6.596h1.535v-7.201
	c0-0.663-0.055-1.243-0.162-1.741c-0.109-0.497-0.213-0.861-0.314-1.092c0.086-0.043,0.281-0.119,0.584-0.228
	c0.303-0.107,0.602-0.197,0.898-0.27c0.295-0.072,0.586-0.126,0.875-0.162s0.547-0.055,0.779-0.055c0.59,0,1.102,0.058,1.535,0.173
	c0.432,0.116,0.781,0.317,1.049,0.605c0.266,0.289,0.471,0.703,0.615,1.244c0.145,0.54,0.217,1.251,0.217,2.13v6.596h1.535v-7.201
	c0-0.995-0.111-1.816-0.336-2.466C383.482,481.393,383.158,480.87,382.732,480.474z M280.1,474.581
	c-0.785,0.648-1.18,1.729-1.18,3.243v1.86h-2.551v1.492h2.551v10.531h1.537v-10.531h4.973v-1.492h-4.973v-1.471
	c0-0.635,0.045-1.149,0.141-1.546c0.094-0.396,0.24-0.707,0.443-0.931c0.201-0.223,0.475-0.385,0.82-0.486
	c0.346-0.101,0.779-0.151,1.299-0.151h2.422v-1.492h-2.271C281.956,473.607,280.885,473.932,280.1,474.581z M398.273,487.825
	l3.057,3.057l3.057-3.057l-3.057-3.057L398.273,487.825z M343.322,482.322c0.389-0.418,0.854-0.749,1.395-0.994
	s1.135-0.368,1.783-0.368c0.736,0,1.373,0.076,1.914,0.228s1.121,0.414,1.74,0.789l0.715-1.405c-0.707-0.39-1.393-0.674-2.055-0.854
	c-0.664-0.181-1.436-0.271-2.314-0.271c-0.85,0-1.639,0.155-2.367,0.465c-0.729,0.311-1.367,0.746-1.914,1.309
	c-0.549,0.563-0.98,1.222-1.297,1.979c-0.317,0.757-0.476,1.59-0.476,2.498s0.158,1.74,0.476,2.497
	c0.316,0.757,0.748,1.413,1.297,1.969c0.547,0.555,1.186,0.987,1.914,1.297c0.729,0.311,1.518,0.465,2.367,0.465
	c0.879,0,1.65-0.09,2.314-0.27c0.662-0.181,1.348-0.466,2.055-0.854l-0.715-1.406c-0.619,0.375-1.199,0.639-1.74,0.79
	s-1.178,0.227-1.914,0.227c-0.648,0-1.242-0.119-1.783-0.356c-0.541-0.238-1.006-0.565-1.395-0.984
	c-0.391-0.418-0.693-0.915-0.908-1.492c-0.217-0.576-0.324-1.203-0.324-1.881s0.107-1.305,0.324-1.882
	C342.628,483.238,342.931,482.741,343.322,482.322z M404.387,487.825l1.949,1.95l1.951-1.95l-1.951-1.95L404.387,487.825z
	 M410.701,487.326l-0.664,0.433l0.633,0.564l241.176-0.341L410.701,487.326z M362.611,481.295c-0.549-0.569-1.193-1.02-1.936-1.352
	c-0.742-0.331-1.547-0.497-2.412-0.497c-0.863,0-1.668,0.166-2.41,0.497c-0.742,0.332-1.389,0.782-1.936,1.352
	c-0.549,0.57-0.977,1.229-1.287,1.979c-0.311,0.749-0.465,1.557-0.465,2.422s0.154,1.672,0.465,2.422s0.738,1.409,1.287,1.979
	c0.547,0.569,1.193,1.017,1.936,1.341s1.547,0.486,2.41,0.486c0.865,0,1.67-0.162,2.412-0.486s1.387-0.771,1.936-1.341
	c0.547-0.569,0.977-1.229,1.287-1.979c0.309-0.75,0.465-1.557,0.465-2.422s-0.156-1.673-0.465-2.422
	C363.587,482.524,363.158,481.865,362.611,481.295z M362.394,487.523c-0.217,0.569-0.52,1.067-0.908,1.492
	c-0.389,0.426-0.857,0.765-1.406,1.017c-0.547,0.252-1.152,0.378-1.816,0.378c-0.662,0-1.268-0.126-1.816-0.378
	c-0.547-0.252-1.016-0.591-1.404-1.017c-0.391-0.425-0.693-0.923-0.908-1.492c-0.217-0.569-0.324-1.179-0.324-1.827
	c0-0.649,0.107-1.262,0.324-1.839c0.215-0.576,0.518-1.077,0.908-1.503c0.389-0.425,0.857-0.764,1.404-1.016
	c0.549-0.252,1.154-0.379,1.816-0.379c0.664,0,1.27,0.127,1.816,0.379c0.549,0.252,1.018,0.591,1.406,1.016
	c0.389,0.426,0.691,0.927,0.908,1.503c0.217,0.577,0.324,1.189,0.324,1.839C362.718,486.345,362.611,486.954,362.394,487.523z
	 M296.221,481.295c-0.547-0.569-1.191-1.02-1.936-1.352c-0.742-0.331-1.545-0.497-2.41-0.497s-1.67,0.166-2.412,0.497
	c-0.742,0.332-1.387,0.782-1.936,1.352c-0.547,0.57-0.977,1.229-1.285,1.979c-0.311,0.749-0.465,1.557-0.465,2.422
	s0.154,1.672,0.465,2.422c0.309,0.75,0.738,1.409,1.285,1.979c0.549,0.569,1.193,1.017,1.936,1.341s1.547,0.486,2.412,0.486
	s1.668-0.162,2.41-0.486c0.744-0.324,1.389-0.771,1.936-1.341c0.549-0.569,0.977-1.229,1.287-1.979s0.465-1.557,0.465-2.422
	s-0.154-1.673-0.465-2.422C297.198,482.524,296.77,481.865,296.221,481.295z M296.006,487.523c-0.217,0.569-0.52,1.067-0.908,1.492
	c-0.391,0.426-0.859,0.765-1.406,1.017c-0.549,0.252-1.154,0.378-1.816,0.378c-0.664,0-1.27-0.126-1.816-0.378
	c-0.549-0.252-1.018-0.591-1.406-1.017c-0.389-0.425-0.691-0.923-0.908-1.492s-0.324-1.179-0.324-1.827
	c0-0.649,0.107-1.262,0.324-1.839c0.217-0.576,0.52-1.077,0.908-1.503c0.389-0.425,0.857-0.764,1.406-1.016
	c0.547-0.252,1.152-0.379,1.816-0.379c0.662,0,1.268,0.127,1.816,0.379c0.547,0.252,1.016,0.591,1.406,1.016
	c0.389,0.426,0.691,0.927,0.908,1.503c0.215,0.577,0.324,1.189,0.324,1.839C296.331,486.345,296.221,486.954,296.006,487.523z
	 M309.381,480.463c-0.455-0.39-0.996-0.656-1.623-0.801c-0.627-0.144-1.309-0.216-2.043-0.216c-0.707,0-1.465,0.047-2.271,0.141
	s-1.701,0.234-2.682,0.422v11.699h1.535v-10.402c1.184-0.23,2.293-0.346,3.33-0.346c0.592,0,1.111,0.062,1.559,0.184
	c0.445,0.123,0.818,0.332,1.113,0.628c0.295,0.295,0.525,0.713,0.691,1.254s0.25,1.251,0.25,2.13v6.553h1.535v-7.201
	c0-0.995-0.119-1.82-0.357-2.477C310.18,481.375,309.834,480.852,309.381,480.463z M318.516,490.054
	c-0.346-0.108-0.619-0.277-0.82-0.509c-0.203-0.23-0.35-0.547-0.443-0.951c-0.096-0.403-0.141-0.922-0.141-1.557v-5.86h4.973v-1.492
	h-4.973v-4.347h-1.537v4.347h-2.551v1.492h2.551v6.466c0,0.764,0.109,1.405,0.326,1.925c0.215,0.519,0.525,0.937,0.93,1.254
	c0.402,0.317,0.867,0.544,1.395,0.682c0.525,0.137,1.105,0.205,1.74,0.205h2.271v-1.492h-2.422
	C319.295,490.216,318.862,490.162,318.516,490.054z M337.784,489.589c-0.316,0-0.59,0.115-0.82,0.346s-0.346,0.505-0.346,0.822
	c0,0.316,0.115,0.591,0.346,0.821s0.504,0.346,0.82,0.346c0.318,0,0.592-0.115,0.822-0.346s0.346-0.505,0.346-0.821
	c0-0.317-0.115-0.592-0.346-0.822S338.102,489.589,337.784,489.589z M333.178,486.106c-0.346-0.303-0.785-0.565-1.318-0.789
	c-0.533-0.223-1.182-0.422-1.947-0.595l-0.799-0.173c-1.053-0.216-1.781-0.461-2.184-0.735c-0.404-0.273-0.607-0.678-0.607-1.211
	c0-0.504,0.238-0.904,0.715-1.2c0.475-0.295,1.174-0.443,2.098-0.443c0.793,0,1.477,0.076,2.055,0.228
	c0.576,0.151,1.217,0.421,1.924,0.811l0.691-1.405c-1.412-0.765-2.969-1.146-4.67-1.146c-0.635,0-1.223,0.076-1.764,0.228
	c-0.539,0.151-1.008,0.364-1.404,0.638s-0.711,0.605-0.941,0.994c-0.23,0.39-0.346,0.815-0.346,1.276
	c0,0.462,0.072,0.88,0.217,1.254c0.143,0.375,0.381,0.707,0.713,0.995s0.758,0.537,1.275,0.746c0.52,0.209,1.146,0.4,1.883,0.573
	l0.908,0.194c1.008,0.217,1.729,0.49,2.162,0.822c0.432,0.331,0.648,0.771,0.648,1.318c0,0.39-0.086,0.707-0.26,0.952
	c-0.172,0.245-0.414,0.436-0.725,0.573c-0.311,0.137-0.678,0.237-1.102,0.303c-0.426,0.064-0.877,0.097-1.352,0.097
	c-0.592,0-1.223-0.09-1.893-0.271c-0.67-0.18-1.352-0.479-2.045-0.897l-0.734,1.471c0.779,0.433,1.539,0.742,2.281,0.93
	s1.539,0.281,2.391,0.281c0.748,0,1.434-0.072,2.053-0.216c0.621-0.145,1.158-0.36,1.611-0.648c0.455-0.289,0.805-0.649,1.049-1.082
	c0.246-0.433,0.369-0.93,0.369-1.492c0-0.476-0.072-0.915-0.217-1.318C333.77,486.763,333.526,486.41,333.178,486.106z"/>
</svg>

