<?xml version="1.0" encoding="utf-8"?>
<!-- Generator: Adobe Illustrator 22.1.0, SVG Export Plug-In . SVG Version: 6.00 Build 0)  -->
<svg version="1.1" id="Layer_1" xmlns="http://www.w3.org/2000/svg" xmlns:xlink="http://www.w3.org/1999/xlink" x="0px" y="0px"
	 viewBox="0 0 800 500" style="enable-background:new 0 0 800 500;" xml:space="preserve">
<g>
	<polygon points="328,111.7 326.3,106.1 323.3,111.1 317.7,109.9 320.6,114.9 316.6,119.2 322.4,119.2 324.2,124.7 327.1,119.7 
		332.7,121 329.9,115.9 333.8,111.7 	"/>
	<polygon points="502.8,222.6 504.5,228.1 507.4,223.1 513.1,224.4 510.2,219.3 514.1,215.1 508.3,215 506.6,209.5 503.7,214.5 
		498,213.3 500.9,218.3 497,222.6 	"/>
	<path fill="#000000" d="M263.9,284.7c-7.8,0-14.4,1.1-19.8,3.2c-5.4,2.1-9.5,4.7-12.4,7.8c-2.9,3.1-5.1,7.3-6.6,12.7c-1.5,5.4-2.4,10.1-2.7,14.2
		c-0.3,4.1-0.4,9.6-0.4,16.4v40.1l15.3-0.1l-15.3,9.6v12.1h36.3v-33.9l12.7-8l-12.7,0.1v-22.6c0-5.6,0.5-9.4,1.4-11.5
		c0.9-2,3.4-3.2,7.3-3.6c3.3,29,18.5,43.5,45.4,43.5c20.2,0,34.1-6.8,41.5-20.4c2.4,0.6,4.5,1,6.7,1.3v0.4h31.2
		c12.1,0,21.6-4.1,28.6-12.4c7-8.3,10.4-20.6,10.4-37v-38.2l11.9-7.5l-11.9,0.1v-2.3h-36.3v22.6l14.5-0.1l-14.5,9.1v15.8
		c0,5.8-1,9.7-2.9,11.9c-2,2.1-5.2,3.2-9.6,3.2h-11.7c-3.5,0-6.5-0.4-8.9-1.1v-5.9c0-6.9-0.3-12.9-0.8-18.1
		c-0.6-5.2-1.8-10.6-3.8-16.2c-2-5.6-4.6-10.1-8-13.7c-1.3-1.4-2.9-2.7-4.6-3.9l7.5-4.7l-16.1,0.1c-0.2-0.1-0.4-0.2-0.7-0.3
		c-5.9-2.3-12.9-3.5-21.1-3.5c-19.2,0-32.5,6.9-40.1,20.6l13.9-0.1l-18.9,13.1c-0.6,2.3-1,4.6-1.4,7.1H263.9z M321.4,335.4
		c-0.1,0.3-0.4,0.3-0.7,0.3c-3.5-0.2-7-0.4-10.6-0.5c-3.5-0.2-7-0.4-10.6-0.6c-0.2,0-0.5-0.1-0.6-0.3c-0.2-0.2-0.1-0.5,0-0.7
		c1.5-2.1,3-4.1,4.5-6.2c0.1-0.1,0.3-0.2,0.5-0.1c3.4,0.2,6.8,0.3,10.1,0.5c1,0.1,2.1,0.1,3.1,0.2c0.2,0,0.4,0.1,0.5,0.3
		c1.2,2.2,2.5,4.3,3.7,6.4C321.5,334.8,321.5,335.1,321.4,335.4 M329,298.4c-3.7,9-7.5,18-11.3,27.1c-0.1,0.3-0.2,0.3-0.5,0.3
		c-1.9-0.1-3.8-0.2-5.7-0.3c-1-9.6-1.9-19.1-2.9-28.7c0.2,0,0.4,0,0.5,0c6.5,0.3,12.9,0.7,19.4,1C329.1,297.9,329.2,297.9,329,298.4
		 M308.1,276.7c0.3-1,0.6-2,0.9-2.9c0.4-1.2,1.4-1.9,2.6-1.9c0.1,0,0.2,0,0.3,0c0-0.5,0-1.1,0.1-1.7c0.1-0.7,0.9-1.1,1.6-1
		c0.7,0.1,1.3,0.7,1.3,1.4c0,0.4,0,0.9-0.1,1.3c0.1,0,0.2,0,0.3,0c1.2,0.1,2.2,0.9,2.4,2.1c0.2,1.1,0.5,2.3,0.7,3.4
		c0,0.1,0,0.2,0,0.3c-0.3,0-0.7,0-1,0c0,0.2,0,0.5,0,0.7c-2.8-0.1-5.7-0.3-8.5-0.4c0-0.2,0-0.5,0.1-0.8c-0.3,0-0.7,0-1,0
		C308,277.1,308,276.9,308.1,276.7 M302.5,284.6c0.7-1.2,1.4-2.5,2.2-3.7c0.5-0.9,1.3-1.4,2.4-1.3c4,0.2,7.9,0.4,11.9,0.6
		c1,0,1.8,0.6,2.2,1.6c0.6,1.3,1.2,2.7,1.8,4c0,0.1,0.1,0.2,0.1,0.3c-0.4,0-0.9,0-1.3-0.1c0,0.5,0,0.9-0.1,1.4
		c-6-0.3-12-0.6-18.1-0.9c0-0.5,0.1-0.9,0.1-1.4c-0.4,0-0.9,0-1.3-0.1C302.4,284.8,302.5,284.7,302.5,284.6 M296.3,292
		c0.3-0.3,0.6-0.6,0.9-0.9c0.8-0.8,1.7-1.6,2.5-2.4c0.6-0.6,1.3-0.9,2.3-0.9c7.1,0.4,14.2,0.7,21.3,1.1c0.9,0,1.5,0.4,2.1,1
		c1,1.2,2,2.4,3,3.6c0.1,0.1,0.1,0.3,0.2,0.4c-0.2,0-0.3,0.1-0.5,0.1c-0.4,0-0.7,0-1.1-0.1c0,0.5-0.1,1-0.1,1.5
		c-9.7-0.5-19.4-1-29.1-1.5c0-0.5,0-1,0.1-1.5c-0.3,0-0.6,0-0.9,0c-0.1,0-0.3,0-0.4,0c-0.1,0-0.2-0.1-0.3-0.2
		C296.2,292.2,296.2,292.1,296.3,292 M295.7,296.1c3.7,0.2,7.4,0.4,11.1,0.6c0.1,0,0.3,0,0.5,0c1,9.5,2,19.1,2.9,28.7h-0.4
		c-1.9-0.1-3.9-0.2-5.8-0.3c-0.3,0-0.4-0.1-0.4-0.4c-2.8-9.4-5.6-18.7-8.4-28.1C295.1,296.1,295.1,296.1,295.7,296.1"/>
	<polygon points="345.8,398.3 377.3,398.3 377.3,370.8 385.6,365.6 377.3,365.7 377.3,363.4 345.8,363.4 345.8,382.6 358.6,382.5 
		345.8,390.5 	"/>
	<polygon points="389.6,398.3 421.1,398.3 421.1,370.8 429.4,365.6 421.1,365.7 421.1,363.4 389.6,363.4 389.6,382.6 402.4,382.5 
		389.6,390.5 	"/>
	<polygon points="416.3,39.9 405,50 406.2,57.7 437.3,52.4 432.7,25.4 440.1,18.9 431.9,20.3 431.5,18 400.4,23.3 403.6,42.2 	"/>
	<polygon points="187.2,93.9 175.8,103.9 177.1,111.6 208.2,106.3 203.6,79.3 211,72.8 202.8,74.2 202.4,72 171.3,77.2 174.5,96.1 	
		"/>
	<path fill="#000000" d="M581.9,220.8l-1.5-6.3l-85.2,34.8v15.3l15.1-0.1l-15.1,9.5v5.5l20.4,39.7c2.8,8.2,4.5,14.8,4.9,19.6l13.4-0.1l-14,8.8
		c-1.9,6.9-7.3,10.4-16.2,10.4h-8.9c-5.8,0-9.9-1.1-12.3-3.5c-2.4-2.3-3.6-7.1-3.6-14.4v-44.8l11.3-7.1l-11.3,0.1v-9.8h-36.3v30.1
		l13.8-0.1l-13.8,8.7v75.7c0,8.4-1.7,14-5,16.8c-3.3,2.9-9.2,4.3-17.8,4.3H221.5v22.5l15.9-0.1l-15.9,10v3h197.9
		c0,0,27.6,3.9,45-12.8c2.8-2.7,5.1-5.8,7-9.5l11.9-7.5l-8.7,0.1c2.7-8,4.1-17.7,4.2-29.1c3,1.5,6,2.3,9.2,2.3h17.6
		c17.5,0,30.4-4.7,38.8-14.1c8.4-9.4,12.5-21.4,12.5-35.8c0-7.6-1.3-15.6-3.9-24l11.3-7.1l-13.9,0.1l-19-38.3l58.2-21.8l-5.8-24.1
		l10.9-6.8L581.9,220.8z"/>
	<polygon points="470.8,221.3 462.1,209.9 458.4,223.7 444.9,228.5 456.9,236.3 457.2,250.6 468.3,241.6 482,245.7 476.9,232.3 
		485,220.5 	"/>
	<polygon points="489.6,64.6 497.1,58.6 506.3,61.4 502.9,52.4 508.3,44.5 498.7,44.9 492.9,37.3 490.4,46.6 481.3,49.8 489.4,55 	
		"/>
	<polygon points="289.9,379.8 283.8,371.8 281.2,381.6 271.7,385 280.2,390.4 280.5,400.5 288.3,394.1 298,397 294.3,387.6 
		300,379.2 	"/>
	<polygon points="283,223.9 277.9,217.3 275.7,225.4 267.8,228.2 274.8,232.8 275,241.2 281.6,235.9 289.6,238.3 286.6,230.4 
		291.4,223.5 	"/>
	<polygon points="609.3,57.2 615.8,51.9 623.9,54.3 620.9,46.5 625.7,39.5 617.3,40 612.2,33.3 610,41.4 602.1,44.2 609.1,48.8 	"/>
	<polygon points="341.1,42 336,35.4 333.8,43.5 325.8,46.3 332.9,50.9 333.1,59.3 339.6,54 347.7,56.4 344.7,48.5 349.5,41.6 	"/>
	<polygon points="364.2,228 360.6,223.3 359.1,229 353.5,231 358.4,234.3 358.6,240.2 363.2,236.5 368.9,238.2 366.8,232.6 
		370.2,227.7 	"/>
	<polygon points="496.4,329.1 492.8,324.3 491.2,330.1 485.6,332.1 490.6,335.3 490.7,341.3 495.4,337.5 501.1,339.2 499,333.7 
		502.3,328.8 	"/>
	<polygon points="228.3,85.9 235.6,80.1 244.5,82.7 241.2,74 246.4,66.4 237.1,66.8 231.5,59.5 229.1,68.4 220.3,71.5 228.1,76.6 	
		"/>
	<path fill="#000000" d="M172.9,285.9l-4.8,4.8c0.7,0.7,15.5,15.3,29.3,17.6V450h6.7V301.7h-3.4C190.9,301.7,177.3,290.3,172.9,285.9"/>
	<path fill="#000000" d="M498.4,403l-4.1-1.4l-0.4,4.3c-0.8,9.7-5.6,37.3-16.9,37.3v6.7c16.6,0,21.8-28.5,23.2-39.6c10.6,1.9,24-0.8,24.7-0.9
		l-1.3-6.6C523.4,402.9,507.5,406,498.4,403"/>
	<rect x="173.9" y="311.8" width="6.7" height="138.1"/>
	<path fill="#000000" d="M499.2,447l3,6c15.2-7.6,15.3-35.5,15.3-36.7h-6.7C510.8,423.2,508.7,442.2,499.2,447"/>
	<path fill="#000000" d="M339.1,88.6c6.3,0,12.7-1.6,18.5-5.1c12.1-7.2,19-20.8,17.6-34.8c-0.1-0.9-0.7-1.6-1.8-1.5c-0.9,0-1.6,0.8-1.6,1.7
		c-0.1,10.3-5.4,19.6-14.3,24.8c-6.7,4-14.5,5.1-22.1,3.2c-7.5-1.9-13.9-6.7-17.9-13.4c-4-6.7-5.1-14.5-3.2-22.1
		c1.9-7.5,6.7-13.9,13.4-17.9c4.2-2.5,9-3.9,13.8-4.1c0.9,0,1.6-0.8,1.6-1.7c0-0.9-0.7-1.6-1.6-1.7c-7.4-0.5-14.7,1.2-21.2,5
		c-17.2,10.2-22.9,32.5-12.7,49.8C314.6,82.2,326.7,88.6,339.1,88.6"/>
	<path fill="#000000" d="M554.7,69c4.7,0,9.4-1.2,13.7-3.8c8.9-5.3,14-15.4,13-25.7c-0.1-0.7-0.5-1.1-1.3-1.1c-0.7,0-1.2,0.6-1.2,1.2
		c-0.1,7.6-4,14.4-10.5,18.3c-4.9,2.9-10.7,3.8-16.3,2.4c-5.6-1.4-10.3-4.9-13.2-9.9c-2.9-4.9-3.8-10.7-2.4-16.3
		c1.4-5.6,4.9-10.3,9.9-13.2c3.1-1.8,6.6-2.9,10.2-3c0.7,0,1.2-0.6,1.2-1.2c0-0.7-0.5-1.2-1.2-1.3c-5.5-0.4-10.9,0.9-15.6,3.7
		c-12.7,7.6-16.9,24-9.4,36.8C536.6,64.3,545.5,69,554.7,69"/>
	<path fill="#000000" d="M654.2,207.3c1.9-8.6,2-19,0.3-31.1l-6.7-49.8l10.7-6.7l-11.6,0.1l-5-36.9L606,87.6l6.6,49l15.6-0.1l-14.4,9l5.2,38.5
		c1.1,8.3,0.2,14.1-2.7,17.4c-2.8,3.1-8,5.3-15.8,6.5l5.6,23l12.1-0.1l-10.5,6.6l1.4,5.9c17.8-3.1,30.4-9.5,37.8-19
		c2.5-3.2,4.4-6.9,5.8-11.2l9.3-5.8L654.2,207.3z"/>
	<path fill="#000000" d="M602.4,140.8c-1-8.9-2.5-16.4-4.5-22.8c-2-6.3-4.9-12.3-8.7-17.9c-0.7-1-1.4-1.9-2.2-2.8l7.4-4.6l-12.3,0.1h0
		c-2.6-1.9-5.5-3.4-8.8-4.5c-6.8-2.3-15.1-2.9-24.9-1.8c-20.8,2.4-33.9,12.4-39,29.9l11.1-0.1l-12.8,8.1c-0.4,3.4-0.6,8.2-0.7,14.5
		c0,6.9-0.6,11.7-1.6,14.2c-1.7,4.2-5,6.7-9.9,7.3c-4.2,0.4-8.3,0.2-12.1-0.8c1.2-8.4,1.2-18.6-0.2-30.6c-1-8.7-2.6-16.3-4.8-22.9
		c-2.2-6.6-5.4-12.7-9.6-18.4c-1-1.3-2-2.5-3.2-3.7l7.6-4.8l-13.5,0.1c-2.6-1.6-5.4-2.9-8.5-4c-7.5-2.5-16.4-3.1-26.8-1.9
		c-21.5,2.5-35.9,12.3-43.2,29.5l17.9-0.1l-21.7,12.8c-2.1,10.5-2.3,23-0.6,37.5l2.4,20.8l-2,0.2c-4.6,0.5-8-0.3-10.3-2.6
		c-2.2-2.3-3.7-6.5-4.4-12.8l-1.6-13.8l7.9-5l-8.4,0.1l-0.6-5.1l-31.3,3.7l1.8,14.9l15-0.1l-14,8.3l0.2,2.1
		c0.6,5.7,0.2,9.8-1.2,12.3c-1.5,2.5-4.2,4-8.1,4.4l-0.5,0.1l-2.3,0.3c-4.2,0.5-7.4-0.3-9.5-2.3c-2.1-2-3.5-5.8-4.1-11.3l-7.2-61.8
		l9.6-6l-10.3,0.1l-9.3-79.9l-36,4.2l10.4,89.2l18.3-0.1L264,123l5.7,49c1.9,16.4,6.6,28.3,14.1,35.7c7.5,7.4,17.1,10.4,29,9
		l7.2-0.8l7.7-0.9l3.7-0.4c4.7-0.5,8.7-2,11.9-4.3c3.2-2.3,5.6-5.6,7.3-9.7c6.1,7.1,14.5,10.1,25.2,8.9l8.6-1l3,25.4l33.3-3.9
		l-3-25.4l11.4-1.3c14.6-1.7,26.4-5.5,35.4-11.4c8.7,3.8,18.1,5.2,28.3,4l3.6-0.4l9.7-1.1l1.4-0.2l0-0.1c4.5-0.7,8.2-2.4,10.9-5.1
		c8.2,14.2,22.6,20.1,43.3,17.7c9.6-1.1,17.5-3.6,23.7-7.4c6.2-3.8,10.6-8.8,13.3-15c2.6-6.2,4.2-12.7,4.7-19.5
		C603.7,157.8,603.5,149.9,602.4,140.8 M418.4,109.2c0.1-1,0.3-2,0.4-3c0.2-1.2,1-2.1,2.3-2.3c0.1,0,0.2,0,0.3,0
		c-0.1-0.5-0.2-1.1-0.2-1.6c0-0.7,0.7-1.2,1.4-1.3c0.7,0,1.4,0.5,1.5,1.2c0.1,0.5,0.1,0.9,0.2,1.4c0.1,0,0.2,0,0.3,0
		c1.2-0.1,2.3,0.5,2.7,1.7c0.4,1.1,0.8,2.2,1.2,3.2c0,0.1,0.1,0.2,0.1,0.3c-0.3,0-0.7,0.1-1,0.1c0,0.3,0.1,0.5,0.1,0.8
		c-2.8,0.3-5.6,0.7-8.5,1c0-0.2-0.1-0.5-0.1-0.7c-0.3,0-0.7,0.1-1,0.1C418.3,109.7,418.4,109.4,418.4,109.2 M414.3,118
		c0.5-1.3,1-2.7,1.5-4c0.4-1,1.1-1.6,2.2-1.7c3.9-0.5,7.9-0.9,11.8-1.4c1-0.1,1.9,0.2,2.5,1.1c0.8,1.2,1.6,2.4,2.4,3.6
		c0,0.1,0.1,0.2,0.2,0.3c-0.4,0-0.9,0.1-1.3,0.1c0,0.5,0.1,0.9,0.2,1.4c-6,0.7-12,1.4-18,2.1c-0.1-0.5-0.1-0.9-0.2-1.4
		c-0.4,0.1-0.9,0.1-1.3,0.2C414.2,118.2,414.2,118.1,414.3,118 M409.4,126.3c0.2-0.3,0.5-0.7,0.7-1c0.7-0.9,1.4-1.9,2.1-2.8
		c0.5-0.7,1.2-1.1,2.1-1.2c7.1-0.8,14.1-1.7,21.2-2.5c0.9-0.1,1.6,0.1,2.3,0.7c1.1,1,2.4,2,3.5,3.1c0.1,0.1,0.2,0.2,0.3,0.4
		c-0.1,0.1-0.3,0.2-0.4,0.2c-0.4,0-0.7,0.1-1.1,0.1c0.1,0.5,0.1,1,0.2,1.5c-9.6,1.1-19.3,2.3-29,3.4c-0.1-0.5-0.1-1-0.2-1.5
		c-0.3,0-0.6,0.1-0.9,0.1c-0.1,0-0.3,0-0.4,0c-0.1,0-0.2,0-0.3-0.1C409.3,126.6,409.3,126.4,409.4,126.3 M409.1,131
		c-0.2-0.5-0.2-0.5,0.4-0.6c3.7-0.4,7.4-0.9,11.1-1.3c0.2,0,0.3-0.1,0.5-0.1c2.6,9.3,5.1,18.5,7.7,27.8c-0.1,0-0.2,0.1-0.3,0.1
		c-1.9,0.2-3.9,0.4-5.8,0.7c-0.3,0-0.4-0.1-0.5-0.3C417.7,148.6,413.4,139.8,409.1,131 M440.8,165.2c-3.5,0.4-7,0.8-10.5,1.2
		c-3.5,0.4-7,0.8-10.5,1.2c-0.2,0-0.5,0-0.7-0.2c-0.2-0.1-0.2-0.4-0.1-0.7c1.1-2.3,2.3-4.6,3.4-6.9c0.1-0.1,0.3-0.2,0.4-0.2
		c3.3-0.4,6.7-0.8,10.1-1.2c1-0.1,2.1-0.2,3.1-0.3c0.2,0,0.4,0,0.5,0.2c1.6,1.9,3.2,3.8,4.7,5.7c0.1,0.2,0.2,0.5,0.2,0.7
		C441.4,165.1,441.1,165.2,440.8,165.2 M442.7,127.1c-2.2,9.5-4.3,19-6.5,28.6c0,0.3-0.1,0.4-0.4,0.4c-1.9,0.2-3.7,0.4-5.6,0.6
		c-2.6-9.3-5.2-18.5-7.7-27.8c0.2,0,0.4,0,0.5-0.1c6.4-0.7,12.9-1.5,19.3-2.3C442.7,126.5,442.8,126.6,442.7,127.1 M546.4,116
		c0.1-1,0.3-2,0.4-3c0.2-1.2,1-2.1,2.3-2.3c0.1,0,0.2,0,0.3,0c-0.1-0.5-0.2-1.1-0.2-1.6c0-0.7,0.7-1.2,1.4-1.3
		c0.7,0,1.4,0.5,1.5,1.2c0.1,0.5,0.1,0.9,0.2,1.4c0.1,0,0.2,0,0.3,0c1.2-0.1,2.3,0.5,2.7,1.7c0.4,1.1,0.8,2.2,1.2,3.2
		c0,0.1,0.1,0.2,0.1,0.3c-0.3,0-0.7,0.1-1,0.1c0,0.3,0.1,0.5,0.1,0.8c-2.8,0.3-5.6,0.7-8.5,1c0-0.2-0.1-0.5-0.1-0.7
		c-0.3,0-0.7,0.1-1,0.1C546.4,116.4,546.4,116.2,546.4,116 M542.3,124.7c0.5-1.3,1-2.7,1.5-4c0.4-1,1.1-1.6,2.2-1.7
		c3.9-0.5,7.9-0.9,11.8-1.4c1-0.1,1.9,0.2,2.5,1.1c0.8,1.2,1.6,2.4,2.4,3.6c0,0.1,0.1,0.2,0.2,0.3c-0.4,0-0.9,0.1-1.3,0.1
		c0,0.5,0.1,0.9,0.2,1.4c-6,0.7-12,1.4-18,2.1c-0.1-0.5-0.1-0.9-0.2-1.4c-0.4,0.1-0.9,0.1-1.3,0.2
		C542.2,125,542.2,124.8,542.3,124.7 M537.4,133.1c0.2-0.3,0.5-0.7,0.7-1c0.7-0.9,1.4-1.9,2.1-2.8c0.5-0.7,1.2-1.1,2.1-1.2
		c7.1-0.8,14.1-1.6,21.2-2.5c0.9-0.1,1.6,0.1,2.3,0.7c1.1,1,2.4,2,3.5,3.1c0.1,0.1,0.2,0.2,0.3,0.4c-0.1,0.1-0.3,0.2-0.4,0.2
		c-0.4,0-0.7,0.1-1.1,0.1c0.1,0.5,0.1,1,0.2,1.5c-9.6,1.1-19.3,2.3-29,3.4c-0.1-0.5-0.1-1-0.2-1.5c-0.3,0-0.6,0.1-0.9,0.1
		c-0.1,0-0.3,0-0.4,0c-0.1,0-0.2,0-0.3-0.1C537.3,133.3,537.3,133.1,537.4,133.1 M537.5,137.2c3.7-0.4,7.4-0.9,11.1-1.3
		c0.2,0,0.3-0.1,0.5-0.1c2.6,9.3,5.1,18.5,7.7,27.8c-0.1,0-0.2,0.1-0.3,0.1c-1.9,0.2-3.9,0.4-5.8,0.7c-0.3,0-0.4-0.1-0.5-0.3
		c-4.3-8.8-8.6-17.5-13-26.3C536.9,137.3,536.9,137.2,537.5,137.2 M568.8,172c-3.5,0.4-7,0.8-10.5,1.2c-3.5,0.4-7,0.8-10.5,1.2
		c-0.2,0-0.5,0-0.7-0.2c-0.2-0.1-0.2-0.4-0.1-0.7c1.1-2.3,2.3-4.6,3.4-6.9c0.1-0.1,0.3-0.2,0.4-0.2c3.3-0.4,6.7-0.8,10.1-1.2
		c1-0.1,2.1-0.2,3.1-0.3c0.2,0,0.4,0,0.5,0.2c1.6,1.9,3.2,3.8,4.7,5.7c0.1,0.2,0.2,0.5,0.2,0.7C569.4,171.9,569.1,171.9,568.8,172
		 M570.7,133.8c-2.2,9.5-4.3,19-6.5,28.6c0,0.3-0.1,0.4-0.4,0.4c-1.9,0.2-3.7,0.4-5.6,0.6c-2.6-9.3-5.2-18.5-7.7-27.8
		c0.2,0,0.4,0,0.5-0.1c6.4-0.7,12.9-1.5,19.3-2.3C570.7,133.3,570.8,133.3,570.7,133.8"/>
	<path fill="#000000" d="M253.8,256.3c7.6-11.9,9.7-26.8,6.5-44.7l-5.3-28.9l9.3-5.8l-10.3,0.1l-10.4-57.5l-35.7,6.5l11.8,64.6l17.8-0.1l-16.1,9.5
		l2.7,15c1.6,9,1.4,15.6-0.6,19.9c-2.1,4.3-5.9,7-11.6,8.1c-5.7,1-10.3-0.1-13.9-3.4c-3.6-3.3-6.3-9.5-7.9-18.4l-13.9-76.5l7.4-4.7
		l-8.2,0.1l-1.4-7.8l-35.6,6.5l2.7,14.8l15.6-0.1l-14.1,8.4l12.7,69.9c3.2,17.9,10.4,31,21.4,39.2c11,8.2,24.9,10.8,41.5,7.7
		C234.3,275.6,246.2,268.2,253.8,256.3"/>
</g>
<path fill="#000000" d="M273.602,481.306c-0.578-0.576-1.301-1.03-2.174-1.362c-0.873-0.331-1.885-0.497-3.039-0.497
	c-0.663,0-1.463,0.079-2.4,0.238v-6.077h-1.535v17.711c0.706,0.202,1.402,0.354,2.087,0.454s1.301,0.151,1.849,0.151
	c1.153,0,2.166-0.162,3.039-0.486s1.596-0.764,2.174-1.319c0.576-0.555,1.006-1.211,1.287-1.968s0.42-1.561,0.42-2.411
	s-0.139-1.657-0.42-2.422C274.608,482.554,274.178,481.883,273.602,481.306z M272.391,489.167c-0.852,0.829-2.17,1.243-3.958,1.243
	c-0.39,0-0.805-0.032-1.244-0.097c-0.439-0.065-0.84-0.134-1.2-0.206v-8.845c0.447-0.115,0.887-0.194,1.319-0.237
	c0.433-0.044,0.808-0.065,1.125-0.065c0.894,0,1.668,0.112,2.325,0.335c0.656,0.224,1.199,0.545,1.633,0.963
	c0.432,0.418,0.752,0.919,0.961,1.503s0.314,1.243,0.314,1.979C273.667,487.195,273.241,488.338,272.391,489.167z M247.392,479.446
	c-0.62,0-1.297,0.079-2.033,0.238c-0.735,0.158-1.485,0.433-2.249,0.821l-0.065,1.73c0.548-0.303,0.973-0.52,1.276-0.649
	s0.624-0.237,0.962-0.324c0.338-0.086,0.677-0.158,1.016-0.216s0.667-0.087,0.984-0.087c1.139,0,1.982,0.249,2.53,0.746
	s0.822,1.33,0.822,2.498v0.13c-0.332-0.044-0.732-0.087-1.2-0.13c-0.469-0.043-0.876-0.065-1.222-0.065
	c-1.831,0-3.302,0.311-4.412,0.931c-1.11,0.619-1.665,1.644-1.665,3.07c0,0.707,0.155,1.305,0.465,1.795
	c0.31,0.49,0.713,0.88,1.211,1.168s1.067,0.497,1.708,0.627c0.641,0.13,1.308,0.194,2,0.194c0.807,0,1.6-0.072,2.378-0.216
	c0.779-0.145,1.536-0.368,2.271-0.671v-7.028c0-1.585-0.397-2.742-1.189-3.471C250.189,479.811,248.992,479.446,247.392,479.446z
	 M250.636,489.892c-0.375,0.144-0.858,0.267-1.449,0.367c-0.591,0.102-1.183,0.151-1.773,0.151c-0.505,0-0.984-0.035-1.438-0.108
	c-0.454-0.071-0.84-0.197-1.157-0.378c-0.317-0.18-0.57-0.414-0.757-0.703c-0.188-0.288-0.281-0.663-0.281-1.124
	c0-0.52,0.111-0.934,0.335-1.244c0.224-0.31,0.533-0.551,0.93-0.724c0.396-0.174,0.85-0.296,1.362-0.368
	c0.511-0.072,1.041-0.108,1.589-0.108c0.476,0,0.984,0.029,1.524,0.087c0.541,0.058,0.912,0.108,1.114,0.151V489.892z
	 M258.032,479.868c-0.649,0.122-1.276,0.263-1.881,0.422v11.418h1.535v-10.186c0.202-0.072,0.563-0.147,1.082-0.228
	c0.519-0.079,1.002-0.118,1.449-0.118h1.989v-1.492H260C259.336,479.685,258.681,479.746,258.032,479.868z M-77.92,487.667
	l241.145,0.656l0.663-0.433l-0.632-0.564L-77.92,487.667z M164.994,487.825l1.95,1.95l1.95-1.95l-1.95-1.95L164.994,487.825z
	 M169.559,487.825l3.057,3.057l3.057-3.057l-3.057-3.057L169.559,487.825z M212.359,489.286l-3.395-9.602h-1.514l-3.396,9.602
	l-2.984-9.602h-1.73l3.979,12.023h1.428l3.46-9.645l3.46,9.645h1.427l3.979-12.023h-1.73L212.359,489.286z M238.418,489.589
	c-0.317,0-0.591,0.115-0.822,0.346c-0.231,0.23-0.346,0.505-0.346,0.822c0,0.316,0.115,0.591,0.346,0.821
	c0.23,0.23,0.504,0.346,0.822,0.346c0.317,0,0.591-0.115,0.822-0.346c0.23-0.23,0.346-0.505,0.346-0.821
	c0-0.317-0.116-0.592-0.346-0.822C239.009,489.704,238.735,489.589,238.418,489.589z M193.243,489.286l-3.395-9.602h-1.514
	l-3.396,9.602l-2.984-9.602h-1.73l3.979,12.023h1.428l3.46-9.645l3.46,9.645h1.427l3.979-12.023h-1.73L193.243,489.286z
	 M231.476,489.286l-3.395-9.602h-1.514l-3.396,9.602l-2.984-9.602h-1.73l3.979,12.023h1.428l3.46-9.645l3.46,9.645h1.427
	l3.979-12.023h-1.73L231.476,489.286z M382.732,480.474c-0.426-0.396-0.938-0.667-1.535-0.812c-0.598-0.144-1.271-0.216-2.021-0.216
	c-0.664,0-1.393,0.09-2.184,0.271c-0.793,0.181-1.471,0.4-2.033,0.659c-0.346-0.331-0.818-0.569-1.416-0.714
	c-0.6-0.144-1.273-0.216-2.023-0.216c-0.635,0-1.268,0.058-1.902,0.173l-2.465,0.454v11.635h1.535v-10.38
	c0.447-0.102,0.883-0.188,1.309-0.26c0.424-0.072,0.896-0.108,1.416-0.108c0.605,0,1.125,0.058,1.557,0.173
	c0.434,0.116,0.789,0.321,1.07,0.616c0.281,0.296,0.494,0.711,0.639,1.244s0.217,1.24,0.217,2.119v6.596h1.535v-7.201
	c0-0.663-0.055-1.243-0.162-1.741c-0.109-0.497-0.213-0.861-0.314-1.092c0.086-0.043,0.281-0.119,0.584-0.228
	c0.303-0.107,0.602-0.197,0.898-0.27c0.295-0.072,0.586-0.126,0.875-0.162s0.547-0.055,0.779-0.055c0.59,0,1.102,0.058,1.535,0.173
	c0.432,0.116,0.781,0.317,1.049,0.605c0.266,0.289,0.471,0.703,0.615,1.244c0.145,0.54,0.217,1.251,0.217,2.13v6.596h1.535v-7.201
	c0-0.995-0.111-1.816-0.336-2.466C383.482,481.393,383.158,480.87,382.732,480.474z M280.1,474.581
	c-0.785,0.648-1.18,1.729-1.18,3.243v1.86h-2.551v1.492h2.551v10.531h1.537v-10.531h4.973v-1.492h-4.973v-1.471
	c0-0.635,0.045-1.149,0.141-1.546c0.094-0.396,0.24-0.707,0.443-0.931c0.201-0.223,0.475-0.385,0.82-0.486
	c0.346-0.101,0.779-0.151,1.299-0.151h2.422v-1.492h-2.271C281.956,473.607,280.885,473.932,280.1,474.581z M398.273,487.825
	l3.057,3.057l3.057-3.057l-3.057-3.057L398.273,487.825z M343.322,482.322c0.389-0.418,0.854-0.749,1.395-0.994
	s1.135-0.368,1.783-0.368c0.736,0,1.373,0.076,1.914,0.228s1.121,0.414,1.74,0.789l0.715-1.405c-0.707-0.39-1.393-0.674-2.055-0.854
	c-0.664-0.181-1.436-0.271-2.314-0.271c-0.85,0-1.639,0.155-2.367,0.465c-0.729,0.311-1.367,0.746-1.914,1.309
	c-0.549,0.563-0.98,1.222-1.297,1.979c-0.317,0.757-0.476,1.59-0.476,2.498s0.158,1.74,0.476,2.497
	c0.316,0.757,0.748,1.413,1.297,1.969c0.547,0.555,1.186,0.987,1.914,1.297c0.729,0.311,1.518,0.465,2.367,0.465
	c0.879,0,1.65-0.09,2.314-0.27c0.662-0.181,1.348-0.466,2.055-0.854l-0.715-1.406c-0.619,0.375-1.199,0.639-1.74,0.79
	s-1.178,0.227-1.914,0.227c-0.648,0-1.242-0.119-1.783-0.356c-0.541-0.238-1.006-0.565-1.395-0.984
	c-0.391-0.418-0.693-0.915-0.908-1.492c-0.217-0.576-0.324-1.203-0.324-1.881s0.107-1.305,0.324-1.882
	C342.628,483.238,342.931,482.741,343.322,482.322z M404.387,487.825l1.949,1.95l1.951-1.95l-1.951-1.95L404.387,487.825z
	 M410.701,487.326l-0.664,0.433l0.633,0.564l241.176-0.341L410.701,487.326z M362.611,481.295c-0.549-0.569-1.193-1.02-1.936-1.352
	c-0.742-0.331-1.547-0.497-2.412-0.497c-0.863,0-1.668,0.166-2.41,0.497c-0.742,0.332-1.389,0.782-1.936,1.352
	c-0.549,0.57-0.977,1.229-1.287,1.979c-0.311,0.749-0.465,1.557-0.465,2.422s0.154,1.672,0.465,2.422s0.738,1.409,1.287,1.979
	c0.547,0.569,1.193,1.017,1.936,1.341s1.547,0.486,2.41,0.486c0.865,0,1.67-0.162,2.412-0.486s1.387-0.771,1.936-1.341
	c0.547-0.569,0.977-1.229,1.287-1.979c0.309-0.75,0.465-1.557,0.465-2.422s-0.156-1.673-0.465-2.422
	C363.587,482.524,363.158,481.865,362.611,481.295z M362.394,487.523c-0.217,0.569-0.52,1.067-0.908,1.492
	c-0.389,0.426-0.857,0.765-1.406,1.017c-0.547,0.252-1.152,0.378-1.816,0.378c-0.662,0-1.268-0.126-1.816-0.378
	c-0.547-0.252-1.016-0.591-1.404-1.017c-0.391-0.425-0.693-0.923-0.908-1.492c-0.217-0.569-0.324-1.179-0.324-1.827
	c0-0.649,0.107-1.262,0.324-1.839c0.215-0.576,0.518-1.077,0.908-1.503c0.389-0.425,0.857-0.764,1.404-1.016
	c0.549-0.252,1.154-0.379,1.816-0.379c0.664,0,1.27,0.127,1.816,0.379c0.549,0.252,1.018,0.591,1.406,1.016
	c0.389,0.426,0.691,0.927,0.908,1.503c0.217,0.577,0.324,1.189,0.324,1.839C362.718,486.345,362.611,486.954,362.394,487.523z
	 M296.221,481.295c-0.547-0.569-1.191-1.02-1.936-1.352c-0.742-0.331-1.545-0.497-2.41-0.497s-1.67,0.166-2.412,0.497
	c-0.742,0.332-1.387,0.782-1.936,1.352c-0.547,0.57-0.977,1.229-1.285,1.979c-0.311,0.749-0.465,1.557-0.465,2.422
	s0.154,1.672,0.465,2.422c0.309,0.75,0.738,1.409,1.285,1.979c0.549,0.569,1.193,1.017,1.936,1.341s1.547,0.486,2.412,0.486
	s1.668-0.162,2.41-0.486c0.744-0.324,1.389-0.771,1.936-1.341c0.549-0.569,0.977-1.229,1.287-1.979s0.465-1.557,0.465-2.422
	s-0.154-1.673-0.465-2.422C297.198,482.524,296.77,481.865,296.221,481.295z M296.006,487.523c-0.217,0.569-0.52,1.067-0.908,1.492
	c-0.391,0.426-0.859,0.765-1.406,1.017c-0.549,0.252-1.154,0.378-1.816,0.378c-0.664,0-1.27-0.126-1.816-0.378
	c-0.549-0.252-1.018-0.591-1.406-1.017c-0.389-0.425-0.691-0.923-0.908-1.492s-0.324-1.179-0.324-1.827
	c0-0.649,0.107-1.262,0.324-1.839c0.217-0.576,0.52-1.077,0.908-1.503c0.389-0.425,0.857-0.764,1.406-1.016
	c0.547-0.252,1.152-0.379,1.816-0.379c0.662,0,1.268,0.127,1.816,0.379c0.547,0.252,1.016,0.591,1.406,1.016
	c0.389,0.426,0.691,0.927,0.908,1.503c0.215,0.577,0.324,1.189,0.324,1.839C296.331,486.345,296.221,486.954,296.006,487.523z
	 M309.381,480.463c-0.455-0.39-0.996-0.656-1.623-0.801c-0.627-0.144-1.309-0.216-2.043-0.216c-0.707,0-1.465,0.047-2.271,0.141
	s-1.701,0.234-2.682,0.422v11.699h1.535v-10.402c1.184-0.23,2.293-0.346,3.33-0.346c0.592,0,1.111,0.062,1.559,0.184
	c0.445,0.123,0.818,0.332,1.113,0.628c0.295,0.295,0.525,0.713,0.691,1.254s0.25,1.251,0.25,2.13v6.553h1.535v-7.201
	c0-0.995-0.119-1.82-0.357-2.477C310.18,481.375,309.834,480.852,309.381,480.463z M318.516,490.054
	c-0.346-0.108-0.619-0.277-0.82-0.509c-0.203-0.23-0.35-0.547-0.443-0.951c-0.096-0.403-0.141-0.922-0.141-1.557v-5.86h4.973v-1.492
	h-4.973v-4.347h-1.537v4.347h-2.551v1.492h2.551v6.466c0,0.764,0.109,1.405,0.326,1.925c0.215,0.519,0.525,0.937,0.93,1.254
	c0.402,0.317,0.867,0.544,1.395,0.682c0.525,0.137,1.105,0.205,1.74,0.205h2.271v-1.492h-2.422
	C319.295,490.216,318.862,490.162,318.516,490.054z M337.784,489.589c-0.316,0-0.59,0.115-0.82,0.346s-0.346,0.505-0.346,0.822
	c0,0.316,0.115,0.591,0.346,0.821s0.504,0.346,0.82,0.346c0.318,0,0.592-0.115,0.822-0.346s0.346-0.505,0.346-0.821
	c0-0.317-0.115-0.592-0.346-0.822S338.102,489.589,337.784,489.589z M333.178,486.106c-0.346-0.303-0.785-0.565-1.318-0.789
	c-0.533-0.223-1.182-0.422-1.947-0.595l-0.799-0.173c-1.053-0.216-1.781-0.461-2.184-0.735c-0.404-0.273-0.607-0.678-0.607-1.211
	c0-0.504,0.238-0.904,0.715-1.2c0.475-0.295,1.174-0.443,2.098-0.443c0.793,0,1.477,0.076,2.055,0.228
	c0.576,0.151,1.217,0.421,1.924,0.811l0.691-1.405c-1.412-0.765-2.969-1.146-4.67-1.146c-0.635,0-1.223,0.076-1.764,0.228
	c-0.539,0.151-1.008,0.364-1.404,0.638s-0.711,0.605-0.941,0.994c-0.23,0.39-0.346,0.815-0.346,1.276
	c0,0.462,0.072,0.88,0.217,1.254c0.143,0.375,0.381,0.707,0.713,0.995s0.758,0.537,1.275,0.746c0.52,0.209,1.146,0.4,1.883,0.573
	l0.908,0.194c1.008,0.217,1.729,0.49,2.162,0.822c0.432,0.331,0.648,0.771,0.648,1.318c0,0.39-0.086,0.707-0.26,0.952
	c-0.172,0.245-0.414,0.436-0.725,0.573c-0.311,0.137-0.678,0.237-1.102,0.303c-0.426,0.064-0.877,0.097-1.352,0.097
	c-0.592,0-1.223-0.09-1.893-0.271c-0.67-0.18-1.352-0.479-2.045-0.897l-0.734,1.471c0.779,0.433,1.539,0.742,2.281,0.93
	s1.539,0.281,2.391,0.281c0.748,0,1.434-0.072,2.053-0.216c0.621-0.145,1.158-0.36,1.611-0.648c0.455-0.289,0.805-0.649,1.049-1.082
	c0.246-0.433,0.369-0.93,0.369-1.492c0-0.476-0.072-0.915-0.217-1.318C333.77,486.763,333.526,486.41,333.178,486.106z"/>
</svg>

