<?xml version="1.0" encoding="utf-8"?>
<!-- Generator: Adobe Illustrator 22.1.0, SVG Export Plug-In . SVG Version: 6.00 Build 0)  -->
<svg version="1.1" id="Layer_1" xmlns="http://www.w3.org/2000/svg" xmlns:xlink="http://www.w3.org/1999/xlink" x="0px" y="0px"
	 viewBox="0 0 800 500" style="enable-background:new 0 0 800 500;" xml:space="preserve">
<g>
	<path fill="#000000" d="M529.9,96.1c12.5-6.8,37.9-13.8,37.9-13.8s3.7-5.8,0-10.7c-2.7-3.5-11.9-1.9-11.9-1.9c-3.5,0.4-25.2,8.6-37.9,15
		c-2.3,1.2-17.5,6.6-23,7.8c-0.4,1.2-0.5,2.2-0.5,3.1C495.3,106,514,104.7,529.9,96.1"/>
	<path fill="#000000" d="M381.7,125.3c3.1,1.2,6.6,1.3,10.3-0.6c3.1-1.6,6.2-4.4,8.8-8.1c2.9-4.1,4.7-9.1,6.8-13.8c1.1-2.5,2.5-5.1,3.5-7.7
		c0.3-0.7,0.6-1.5,0.8-2.2c1.1-3.3,1.8-6.5,1.1-9.2c-1.2-4.9-5.5-6.2-9.1-6.8c-1.9-0.3-3.9-0.4-6-0.1c0,0,0.9,4.1-0.9,8.7l-10,26.4
		c-13.5,0.6,3.3-29.2,3.3-29.2s-12.5-8-19.6,10.1l-2,5C363.1,112.6,373.1,121.9,381.7,125.3"/>
	<path fill="#000000" d="M582.6,114.9c0,0,9.8-5.2,19.4-11.2c2.3,0.8,4.9,1.5,7.7,2.3l10.3-5.2c0,0-3.5-1.8-7.5-4.5c2.1-1.5,3.9-3.1,5.3-4.6
		c12.6-12.6-0.8-26.1-14.5-24.8c-7.7,0.6-16.1,5.7-17.8,14.3c-0.8,3.9-0.5,8.5,2.7,12.9c-3.5,2-6.8,3.9-9.6,5.4
		c-3.4,1.9-4.1,6.4-1.6,9.2L582.6,114.9z M599.8,80.4c1.2-6.3,9.3-4.2,8,0c-0.3,1-3,3.1-6.6,5.5C600.1,84.1,599.6,82.2,599.8,80.4"
		/>
	<path fill="#000000" d="M165.1,128.4c7,6,18.1,2.1,23.4-4.3c5-5.9,7.4-15.4,2.5-22.7c-1.2-1.8-2.8-3.5-4.9-4.9c0.5,3.3-1.1,7.2-2.4,10.2
		c-1.5,3.7-3.4,7.9-6.3,10.7c-0.3,0.3-0.6,0.6-1,0.6c-1.6,0.2,0.2-10.4,0.3-11.4c1.1-6.5,2.9-12.7,4.8-18.9c0.4-1.4,0.8-2.7,1.2-4.1
		c1-3.7-1.6-7.4-5.4-7.6l-8.3-0.5c-0.3,0-2.2,7.6-2.4,8.1c-2.2,7.9-4.5,15.8-5.6,24C160.3,114.4,159.3,123.4,165.1,128.4"/>
	<path fill="#000000" d="M287.8,205.3c26.7,1.7,51,9.1,51,9.1c12.1-39.3,5.5-113.5,5.5-113.5c-0.8-6,9.7-1.8,9.7-1.8c-8-51.1-62.3-21.8-62.3-21.8
		c11.2,34.9,7.2,97,7.2,97c-25.9-8.9-132.1,11.4-132.1,11.4s0.5-6,11.4-10c11.9-4.3,30.7-0.1,30.7-0.1c1.9,0.4,1-15,0.6-16.1
		c-3-9.4-12.4-12.2-21.4-12.8c-19.7-1.3-38.2,6.9-42.2,27.8c-3.5,18.1,7.6,50.1,7.6,50.1S264.9,203.9,287.8,205.3"/>
	<path fill="#000000" d="M220.4,146c-1.4,6-2,13.9,0.7,19.6c10.4-3.9,18.1-11.7,28.3-15.9c3.2-1.3,36.3-4.5,35.2-1.9c0,0,12.8-29.9-31.6-26.8
		c-13.1,0.9-3.5-27.6-3.5-27.6s12.9,4.7,2.2,17.6c0,0,11,7.5,23.2,1.7c11.2-5.3,20.6-37.4-21.5-36.4c-7.4,0.1-22.8,2-22.8,2
		s-28.9,37.5,6,46C236.4,124.5,224.1,129.7,220.4,146"/>
	<path fill="#000000" d="M338,229.2c7.1,12.5,20.8,18,29.4,19.3c0.4,0.1,0.8,0.1,1.3,0.2c-2.1-1.9-4.1-4-6.3-6.2l-2.6-2.6l2.4-2.7
		c7.9-8.5,14-14.3,22.8-21.1l2.3-1.8l2.4,1.8c6.2,4.9,11.1,9.2,16.3,14.4c5-9.4,6.2-21.3,2.8-33.3c-6.3-21.9,5.2-44.5,5.2-44.5
		s-13.2-8.7-31.9-5.9c-13.4,1.9-19.2,16.3-19.2,16.3c-2.6,5.4-6.6,23.1-1.7,45.2C365.6,227.9,338,229.2,338,229.2"/>
	<path fill="#000000" d="M481.1,218.3c-8.8,6.8-14.8,12.5-22.3,20.6c7.6,7.8,13.9,13.1,23,19.8c8.4-6.6,14.3-12.1,21.5-19.8
		C495.9,230.8,489.8,225.1,481.1,218.3"/>
	<path fill="#000000" d="M423.6,186.3c-3.7,16.2,16.9,30,16.9,30c12.6-13.3,37.2-10.9,37.2-10.9h6.2h11.4h0.9c11.5,0,19.4-3.2,24.9-7.1
		c3.9,4.1,9.5,7.1,17.7,7.1h33.5c-1.8-9.1,3-20.2,3-20.2c0,35.5,59.5,38,62.7,22.2c4.3-21.5,12.9-33.2,12.9-33.2
		c-0.1-14.6-30.2-70.9-75.9-52.2C547.7,133,538.7,174,538.7,174h-10.9c-3.5-12.3-6.6-32.1,3.7-46.2c1.7-2.4-0.4-5.1-3.5-7.4
		c-7.6-5.3-74-8-37.8,53.6h-14.8h-3V116c0-11.7,10.5-23.9,10.5-23.9c-5.9-15.6-21.3-29.4-41.8-22.9c-17.5,5.6-19,19.2-19,19.2
		S431.5,151.6,423.6,186.3 M597.6,156.3c0,0,10.8,0.8,16.2,17.7c-14.3,5.8-29.4-5.9-29.4-5.9S589.7,158,597.6,156.3"/>
	<path fill="#000000" d="M164,249.9c7.6,7.8,13.9,13.1,23,19.8c8.4-6.6,14.4-12.1,21.5-19.8c-7.5-8.1-13.5-13.8-22.2-20.6
		C177.5,236.1,171.5,241.8,164,249.9"/>
	<path fill="#000000" d="M262,327.4c-12.1-27.7,5.5-42.3,5.5-42.3c-15.8-47.8-65.4-15.9-65.4-15.9s9.1,10.5,8.7,38.8c-0.3,18.5-4.7,24.7-4.7,24.7
		c-24.7-18-0.8-36.5-0.8-36.5s-21.1-39.4-51.9-8.5c-16.6,16.6-13.4,66.1,55.2,66.1C250.3,353.7,262,327.4,262,327.4"/>
	<path fill="#000000" d="M387.4,220.6c-8.2,6.4-13.8,11.6-20.8,19.2c7.1,7.2,13.1,12.2,21.4,18.5c7.8-6.1,13.5-11.3,20.1-18.5
		C401.1,232.2,395.5,226.9,387.4,220.6"/>
	<path fill="#000000" d="M518.4,255.4c-27.3,11.2-36.3,52.2-36.3,52.2h-11.3c0.5-3,0.8-6.1,0.8-9.3c0-10-1.8-42.6-33.5-48
		c-52.8-9.1-72.5,46.1-72.5,46.1s-6.3-13.3,5.3-29.2c2-2.9-23.4-5-38.6,11.2c-6.4,6.8-6.8,20.9-1.7,29.2h-7h-3v-58.1
		c0-11.7,10.5-8.7,10.5-8.7c-5.9-15.6-21.3-29.4-41.8-22.9c-11.3,3.7-15.9,10.6-17.8,15.1c-3.8-1.9-8.6-3.7-14.4-5.2
		c-28.8-7.7-32.7,21.1-32.7,21.1c7.2-9.6,26.4-3.5,39.8,2.5c5.6,2.5,9.3,7.8,9.9,13.9c1.4,16.3,1.9,37.1-2.1,54.5
		c-3.7,16.2,16.9,30,16.9,30c12.6-13.3,37.2-10.9,37.2-10.9h8.9h8.7h48.1c36.9,0,30.2,16.4,30.2,16.4c13.4-1.4,30.3-10.5,40.5-26.1
		c3.9,5.4,10,9.7,19.8,9.7h33.5c-1.8-9.1,3-20.2,3-20.2c0,35.5,59.5,38,62.7,22.2c4.3-21.5,12.9-33.2,12.9-33.2
		C594.2,293,564.1,236.6,518.4,255.4 M419,307.5h-45.5c12.9-18.8,38.9-17.3,46.4-13C427.7,299,425.5,307.5,419,307.5 M527.7,301.6
		c0,0,5.4-10.1,13.3-11.8c0,0,10.8,0.8,16.2,17.7C542.8,313.3,527.7,301.6,527.7,301.6"/>
	<path fill="#000000" d="M649.9,261.8c0,0-12.2-9.6-29.3-6.5c-12.3,2.2-17.6,18-17.6,18c-2.4,5.9-2.5,45.8,1.9,70.1c4,21.6-21.3,23-21.3,23
		c6.5,13.8,19,19.8,27,21.3c29.4,5.2,45.3-25.6,38-56.5C642.8,307,649.9,261.8,649.9,261.8"/>
	<path fill="#000000" d="M653.8,226.8c-2.7-5.1-14.9-5.1-14.9-5.1c-4.6-0.2-34.4,5.4-52.2,10.9c-3.3,1-24,4.6-31.3,4.9c-0.7,1.4-1.2,2.8-1.3,3.9
		c-1.4,13.6,22.9,16.1,45.4,8.5c17.6-6,51.9-9.3,51.9-9.3S657.5,233.8,653.8,226.8"/>
	<path fill="#000000" d="M566.4,358.2l-30.5,23.3l-33.5-24.1l0,0c-0.6-0.4-1.5-0.4-2,0l-33.6,25.7l-30.9-22.2c0.8-0.8,0.7-2-0.3-2.7
		c-1.1-0.8-3-0.8-4.1,0L401,381.5l-33.5-24.1l0,0c-0.6-0.4-1.5-0.4-2,0l-33.6,25.7l-29.9-21.5l0.5-0.3c0,0,0,0,0.1,0
		c1.1-0.8,1.1-2.2-0.1-3c-1.1-0.8-3-0.8-4.1,0l-30.5,23.3l-33.5-24.1l0,0c-0.6-0.4-1.5-0.4-2,0l-33.6,25.7l-32.5-23.4l32,24.5
		c0.3,0.2,0.7,0.2,1,0l0,0l34.1-24.5l33.1,25.3c0.8,0.6,2.2,0.6,3,0l0,0l32.5-23.3l29.5,22.6c0.3,0.2,0.7,0.2,1,0l0,0l34.1-24.5
		l33.1,25.3c0.8,0.6,2.2,0.6,3,0l0,0l33-23.7c0,0,0,0,0.1,0c0.1-0.1,0.1-0.2,0.2-0.3l30.4,23.3c0.3,0.2,0.7,0.2,1,0l0,0l34.1-24.5
		l33.1,25.3c0.8,0.6,2.2,0.6,3,0l0,0l33-23.7c0,0,0,0,0.1,0c1.1-0.8,1.1-2.2-0.1-3C569.4,357.3,567.5,357.3,566.4,358.2"/>
</g>
<path fill="#000000" d="M273.602,481.306c-0.578-0.576-1.301-1.03-2.174-1.362c-0.873-0.331-1.885-0.497-3.039-0.497
	c-0.663,0-1.463,0.079-2.4,0.238v-6.077h-1.535v17.711c0.706,0.202,1.402,0.354,2.087,0.454s1.301,0.151,1.849,0.151
	c1.153,0,2.166-0.162,3.039-0.486s1.596-0.764,2.174-1.319c0.576-0.555,1.006-1.211,1.287-1.968s0.42-1.561,0.42-2.411
	s-0.139-1.657-0.42-2.422C274.608,482.554,274.178,481.883,273.602,481.306z M272.391,489.167c-0.852,0.829-2.17,1.243-3.958,1.243
	c-0.39,0-0.805-0.032-1.244-0.097c-0.439-0.065-0.84-0.134-1.2-0.206v-8.845c0.447-0.115,0.887-0.194,1.319-0.237
	c0.433-0.044,0.808-0.065,1.125-0.065c0.894,0,1.668,0.112,2.325,0.335c0.656,0.224,1.199,0.545,1.633,0.963
	c0.432,0.418,0.752,0.919,0.961,1.503s0.314,1.243,0.314,1.979C273.667,487.195,273.241,488.338,272.391,489.167z M247.392,479.446
	c-0.62,0-1.297,0.079-2.033,0.238c-0.735,0.158-1.485,0.433-2.249,0.821l-0.065,1.73c0.548-0.303,0.973-0.52,1.276-0.649
	s0.624-0.237,0.962-0.324c0.338-0.086,0.677-0.158,1.016-0.216s0.667-0.087,0.984-0.087c1.139,0,1.982,0.249,2.53,0.746
	s0.822,1.33,0.822,2.498v0.13c-0.332-0.044-0.732-0.087-1.2-0.13c-0.469-0.043-0.876-0.065-1.222-0.065
	c-1.831,0-3.302,0.311-4.412,0.931c-1.11,0.619-1.665,1.644-1.665,3.07c0,0.707,0.155,1.305,0.465,1.795
	c0.31,0.49,0.713,0.88,1.211,1.168s1.067,0.497,1.708,0.627c0.641,0.13,1.308,0.194,2,0.194c0.807,0,1.6-0.072,2.378-0.216
	c0.779-0.145,1.536-0.368,2.271-0.671v-7.028c0-1.585-0.397-2.742-1.189-3.471C250.189,479.811,248.992,479.446,247.392,479.446z
	 M250.636,489.892c-0.375,0.144-0.858,0.267-1.449,0.367c-0.591,0.102-1.183,0.151-1.773,0.151c-0.505,0-0.984-0.035-1.438-0.108
	c-0.454-0.071-0.84-0.197-1.157-0.378c-0.317-0.18-0.57-0.414-0.757-0.703c-0.188-0.288-0.281-0.663-0.281-1.124
	c0-0.52,0.111-0.934,0.335-1.244c0.224-0.31,0.533-0.551,0.93-0.724c0.396-0.174,0.85-0.296,1.362-0.368
	c0.511-0.072,1.041-0.108,1.589-0.108c0.476,0,0.984,0.029,1.524,0.087c0.541,0.058,0.912,0.108,1.114,0.151V489.892z
	 M258.032,479.868c-0.649,0.122-1.276,0.263-1.881,0.422v11.418h1.535v-10.186c0.202-0.072,0.563-0.147,1.082-0.228
	c0.519-0.079,1.002-0.118,1.449-0.118h1.989v-1.492H260C259.336,479.685,258.681,479.746,258.032,479.868z M-77.92,487.667
	l241.145,0.656l0.663-0.433l-0.632-0.564L-77.92,487.667z M164.994,487.825l1.95,1.95l1.95-1.95l-1.95-1.95L164.994,487.825z
	 M169.559,487.825l3.057,3.057l3.057-3.057l-3.057-3.057L169.559,487.825z M212.359,489.286l-3.395-9.602h-1.514l-3.396,9.602
	l-2.984-9.602h-1.73l3.979,12.023h1.428l3.46-9.645l3.46,9.645h1.427l3.979-12.023h-1.73L212.359,489.286z M238.418,489.589
	c-0.317,0-0.591,0.115-0.822,0.346c-0.231,0.23-0.346,0.505-0.346,0.822c0,0.316,0.115,0.591,0.346,0.821
	c0.23,0.23,0.504,0.346,0.822,0.346c0.317,0,0.591-0.115,0.822-0.346c0.23-0.23,0.346-0.505,0.346-0.821
	c0-0.317-0.116-0.592-0.346-0.822C239.009,489.704,238.735,489.589,238.418,489.589z M193.243,489.286l-3.395-9.602h-1.514
	l-3.396,9.602l-2.984-9.602h-1.73l3.979,12.023h1.428l3.46-9.645l3.46,9.645h1.427l3.979-12.023h-1.73L193.243,489.286z
	 M231.476,489.286l-3.395-9.602h-1.514l-3.396,9.602l-2.984-9.602h-1.73l3.979,12.023h1.428l3.46-9.645l3.46,9.645h1.427
	l3.979-12.023h-1.73L231.476,489.286z M382.732,480.474c-0.426-0.396-0.938-0.667-1.535-0.812c-0.598-0.144-1.271-0.216-2.021-0.216
	c-0.664,0-1.393,0.09-2.184,0.271c-0.793,0.181-1.471,0.4-2.033,0.659c-0.346-0.331-0.818-0.569-1.416-0.714
	c-0.6-0.144-1.273-0.216-2.023-0.216c-0.635,0-1.268,0.058-1.902,0.173l-2.465,0.454v11.635h1.535v-10.38
	c0.447-0.102,0.883-0.188,1.309-0.26c0.424-0.072,0.896-0.108,1.416-0.108c0.605,0,1.125,0.058,1.557,0.173
	c0.434,0.116,0.789,0.321,1.07,0.616c0.281,0.296,0.494,0.711,0.639,1.244s0.217,1.24,0.217,2.119v6.596h1.535v-7.201
	c0-0.663-0.055-1.243-0.162-1.741c-0.109-0.497-0.213-0.861-0.314-1.092c0.086-0.043,0.281-0.119,0.584-0.228
	c0.303-0.107,0.602-0.197,0.898-0.27c0.295-0.072,0.586-0.126,0.875-0.162s0.547-0.055,0.779-0.055c0.59,0,1.102,0.058,1.535,0.173
	c0.432,0.116,0.781,0.317,1.049,0.605c0.266,0.289,0.471,0.703,0.615,1.244c0.145,0.54,0.217,1.251,0.217,2.13v6.596h1.535v-7.201
	c0-0.995-0.111-1.816-0.336-2.466C383.482,481.393,383.158,480.87,382.732,480.474z M280.1,474.581
	c-0.785,0.648-1.18,1.729-1.18,3.243v1.86h-2.551v1.492h2.551v10.531h1.537v-10.531h4.973v-1.492h-4.973v-1.471
	c0-0.635,0.045-1.149,0.141-1.546c0.094-0.396,0.24-0.707,0.443-0.931c0.201-0.223,0.475-0.385,0.82-0.486
	c0.346-0.101,0.779-0.151,1.299-0.151h2.422v-1.492h-2.271C281.956,473.607,280.885,473.932,280.1,474.581z M398.273,487.825
	l3.057,3.057l3.057-3.057l-3.057-3.057L398.273,487.825z M343.322,482.322c0.389-0.418,0.854-0.749,1.395-0.994
	s1.135-0.368,1.783-0.368c0.736,0,1.373,0.076,1.914,0.228s1.121,0.414,1.74,0.789l0.715-1.405c-0.707-0.39-1.393-0.674-2.055-0.854
	c-0.664-0.181-1.436-0.271-2.314-0.271c-0.85,0-1.639,0.155-2.367,0.465c-0.729,0.311-1.367,0.746-1.914,1.309
	c-0.549,0.563-0.98,1.222-1.297,1.979c-0.317,0.757-0.476,1.59-0.476,2.498s0.158,1.74,0.476,2.497
	c0.316,0.757,0.748,1.413,1.297,1.969c0.547,0.555,1.186,0.987,1.914,1.297c0.729,0.311,1.518,0.465,2.367,0.465
	c0.879,0,1.65-0.09,2.314-0.27c0.662-0.181,1.348-0.466,2.055-0.854l-0.715-1.406c-0.619,0.375-1.199,0.639-1.74,0.79
	s-1.178,0.227-1.914,0.227c-0.648,0-1.242-0.119-1.783-0.356c-0.541-0.238-1.006-0.565-1.395-0.984
	c-0.391-0.418-0.693-0.915-0.908-1.492c-0.217-0.576-0.324-1.203-0.324-1.881s0.107-1.305,0.324-1.882
	C342.628,483.238,342.931,482.741,343.322,482.322z M404.387,487.825l1.949,1.95l1.951-1.95l-1.951-1.95L404.387,487.825z
	 M410.701,487.326l-0.664,0.433l0.633,0.564l241.176-0.341L410.701,487.326z M362.611,481.295c-0.549-0.569-1.193-1.02-1.936-1.352
	c-0.742-0.331-1.547-0.497-2.412-0.497c-0.863,0-1.668,0.166-2.41,0.497c-0.742,0.332-1.389,0.782-1.936,1.352
	c-0.549,0.57-0.977,1.229-1.287,1.979c-0.311,0.749-0.465,1.557-0.465,2.422s0.154,1.672,0.465,2.422s0.738,1.409,1.287,1.979
	c0.547,0.569,1.193,1.017,1.936,1.341s1.547,0.486,2.41,0.486c0.865,0,1.67-0.162,2.412-0.486s1.387-0.771,1.936-1.341
	c0.547-0.569,0.977-1.229,1.287-1.979c0.309-0.75,0.465-1.557,0.465-2.422s-0.156-1.673-0.465-2.422
	C363.587,482.524,363.158,481.865,362.611,481.295z M362.394,487.523c-0.217,0.569-0.52,1.067-0.908,1.492
	c-0.389,0.426-0.857,0.765-1.406,1.017c-0.547,0.252-1.152,0.378-1.816,0.378c-0.662,0-1.268-0.126-1.816-0.378
	c-0.547-0.252-1.016-0.591-1.404-1.017c-0.391-0.425-0.693-0.923-0.908-1.492c-0.217-0.569-0.324-1.179-0.324-1.827
	c0-0.649,0.107-1.262,0.324-1.839c0.215-0.576,0.518-1.077,0.908-1.503c0.389-0.425,0.857-0.764,1.404-1.016
	c0.549-0.252,1.154-0.379,1.816-0.379c0.664,0,1.27,0.127,1.816,0.379c0.549,0.252,1.018,0.591,1.406,1.016
	c0.389,0.426,0.691,0.927,0.908,1.503c0.217,0.577,0.324,1.189,0.324,1.839C362.718,486.345,362.611,486.954,362.394,487.523z
	 M296.221,481.295c-0.547-0.569-1.191-1.02-1.936-1.352c-0.742-0.331-1.545-0.497-2.41-0.497s-1.67,0.166-2.412,0.497
	c-0.742,0.332-1.387,0.782-1.936,1.352c-0.547,0.57-0.977,1.229-1.285,1.979c-0.311,0.749-0.465,1.557-0.465,2.422
	s0.154,1.672,0.465,2.422c0.309,0.75,0.738,1.409,1.285,1.979c0.549,0.569,1.193,1.017,1.936,1.341s1.547,0.486,2.412,0.486
	s1.668-0.162,2.41-0.486c0.744-0.324,1.389-0.771,1.936-1.341c0.549-0.569,0.977-1.229,1.287-1.979s0.465-1.557,0.465-2.422
	s-0.154-1.673-0.465-2.422C297.198,482.524,296.77,481.865,296.221,481.295z M296.006,487.523c-0.217,0.569-0.52,1.067-0.908,1.492
	c-0.391,0.426-0.859,0.765-1.406,1.017c-0.549,0.252-1.154,0.378-1.816,0.378c-0.664,0-1.27-0.126-1.816-0.378
	c-0.549-0.252-1.018-0.591-1.406-1.017c-0.389-0.425-0.691-0.923-0.908-1.492s-0.324-1.179-0.324-1.827
	c0-0.649,0.107-1.262,0.324-1.839c0.217-0.576,0.52-1.077,0.908-1.503c0.389-0.425,0.857-0.764,1.406-1.016
	c0.547-0.252,1.152-0.379,1.816-0.379c0.662,0,1.268,0.127,1.816,0.379c0.547,0.252,1.016,0.591,1.406,1.016
	c0.389,0.426,0.691,0.927,0.908,1.503c0.215,0.577,0.324,1.189,0.324,1.839C296.331,486.345,296.221,486.954,296.006,487.523z
	 M309.381,480.463c-0.455-0.39-0.996-0.656-1.623-0.801c-0.627-0.144-1.309-0.216-2.043-0.216c-0.707,0-1.465,0.047-2.271,0.141
	s-1.701,0.234-2.682,0.422v11.699h1.535v-10.402c1.184-0.23,2.293-0.346,3.33-0.346c0.592,0,1.111,0.062,1.559,0.184
	c0.445,0.123,0.818,0.332,1.113,0.628c0.295,0.295,0.525,0.713,0.691,1.254s0.25,1.251,0.25,2.13v6.553h1.535v-7.201
	c0-0.995-0.119-1.82-0.357-2.477C310.18,481.375,309.834,480.852,309.381,480.463z M318.516,490.054
	c-0.346-0.108-0.619-0.277-0.82-0.509c-0.203-0.23-0.35-0.547-0.443-0.951c-0.096-0.403-0.141-0.922-0.141-1.557v-5.86h4.973v-1.492
	h-4.973v-4.347h-1.537v4.347h-2.551v1.492h2.551v6.466c0,0.764,0.109,1.405,0.326,1.925c0.215,0.519,0.525,0.937,0.93,1.254
	c0.402,0.317,0.867,0.544,1.395,0.682c0.525,0.137,1.105,0.205,1.74,0.205h2.271v-1.492h-2.422
	C319.295,490.216,318.862,490.162,318.516,490.054z M337.784,489.589c-0.316,0-0.59,0.115-0.82,0.346s-0.346,0.505-0.346,0.822
	c0,0.316,0.115,0.591,0.346,0.821s0.504,0.346,0.82,0.346c0.318,0,0.592-0.115,0.822-0.346s0.346-0.505,0.346-0.821
	c0-0.317-0.115-0.592-0.346-0.822S338.102,489.589,337.784,489.589z M333.178,486.106c-0.346-0.303-0.785-0.565-1.318-0.789
	c-0.533-0.223-1.182-0.422-1.947-0.595l-0.799-0.173c-1.053-0.216-1.781-0.461-2.184-0.735c-0.404-0.273-0.607-0.678-0.607-1.211
	c0-0.504,0.238-0.904,0.715-1.2c0.475-0.295,1.174-0.443,2.098-0.443c0.793,0,1.477,0.076,2.055,0.228
	c0.576,0.151,1.217,0.421,1.924,0.811l0.691-1.405c-1.412-0.765-2.969-1.146-4.67-1.146c-0.635,0-1.223,0.076-1.764,0.228
	c-0.539,0.151-1.008,0.364-1.404,0.638s-0.711,0.605-0.941,0.994c-0.23,0.39-0.346,0.815-0.346,1.276
	c0,0.462,0.072,0.88,0.217,1.254c0.143,0.375,0.381,0.707,0.713,0.995s0.758,0.537,1.275,0.746c0.52,0.209,1.146,0.4,1.883,0.573
	l0.908,0.194c1.008,0.217,1.729,0.49,2.162,0.822c0.432,0.331,0.648,0.771,0.648,1.318c0,0.39-0.086,0.707-0.26,0.952
	c-0.172,0.245-0.414,0.436-0.725,0.573c-0.311,0.137-0.678,0.237-1.102,0.303c-0.426,0.064-0.877,0.097-1.352,0.097
	c-0.592,0-1.223-0.09-1.893-0.271c-0.67-0.18-1.352-0.479-2.045-0.897l-0.734,1.471c0.779,0.433,1.539,0.742,2.281,0.93
	s1.539,0.281,2.391,0.281c0.748,0,1.434-0.072,2.053-0.216c0.621-0.145,1.158-0.36,1.611-0.648c0.455-0.289,0.805-0.649,1.049-1.082
	c0.246-0.433,0.369-0.93,0.369-1.492c0-0.476-0.072-0.915-0.217-1.318C333.77,486.763,333.526,486.41,333.178,486.106z"/>
</svg>

