<svg id="Layer_1" data-name="Layer 1" xmlns="http://www.w3.org/2000/svg" viewBox="0 0 412.14 350.89"><title>Quranic verses4</title><path fill="#000000" d="M332.08,159.6c-1.05.44-1.52,4-1.63,4.52A92.59,92.59,0,0,0,329,175.23c-.1,1.18-.23,16.18.35,15.94a16.1,16.1,0,0,1,13.63.49,17.91,17.91,0,0,1,5.34,4c3.06,3.38,2.61,9,3.37,9.09,1.92.17,3.07-15.09,3.12-15.63.7-8.67,2.4-19.12-4.49-25.8A16.86,16.86,0,0,0,332.08,159.6Z" transform="translate(-193.93 -63.11)"/><path fill="#000000" d="M448.5,163.32a16.86,16.86,0,0,0-18.21-3.72c-1.05.44-1.52,4-1.63,4.52a92.59,92.59,0,0,0-1.48,11.11c-.1,1.18-.23,16.18.35,15.94a16.08,16.08,0,0,1,13.62.49,16.73,16.73,0,0,1,5.35,4c2.94,3.47,2.61,9,3.37,9.09,1.92.17,3.07-15.09,3.11-15.63C453.68,180.45,455.39,170,448.5,163.32Z" transform="translate(-193.93 -63.11)"/><path fill="#000000" d="M605.7,226.07c-42.81,37.23-65.06,91.59-108.28,128.34C473.68,374.59,441,389,409.57,379.66c-25.82-7.67-44.69-34.21-43.29-61.33.12-2.3,1.17-11.32-1.17-11.21-1.83.08-2.85,18.24-2.91,19.31-1.4,27,1.87,55.65,24.17,74,26.1,21.46,64.11,14.9,90.89-1.68,55.08-34.08,77.83-99.48,125.68-141.1,3.08-2.68,2.78-11.88,3.11-15.63C606.21,240.22,605.21,226.49,605.7,226.07Z" transform="translate(-193.93 -63.11)"/><path fill="#000000" d="M513.91,246.27s0-.06,0-.09A.81.81,0,0,0,513.91,246.27Z" transform="translate(-193.93 -63.11)"/><path fill="#000000" d="M551.07,238.46c.28-1.38.51-2.76.71-4.16l.06-.47c.17-1.23.33-2.45.45-3.68a86.63,86.63,0,0,0,.54-12.85c-.09-2.11-.35-3.56-.72-4-.28-.74-.66-.63-1.17,1.36-.41,1.6-.9,3.21-1.38,4.83-4.53,10.24-25.2,33.84-34,22.18-.38-.49-1.63,4.6-1.65,4.61a91.1,91.1,0,0,0-1.47,11c-.35,4-2.29,12.43.36,15.94a7,7,0,0,0,6.68,2.91c-12,15.65-26.12,29.51-40.5,39.57-12,8.36-29.89,17.64-44.94,12.66a25.71,25.71,0,0,1-8.11-4.54c13-9.51,22.69-25.59,29.58-39.12.23,4.66.64,11.35.24,11.7a434.79,434.79,0,0,0,62.56-70.48c14-19.88,25.68-47.25,18.09-72.23-3.86-12.72-15.79-17.94-27.56-11.08-12.24,7.13-20.51,21.87-28.09,33.3-18,27.14-35,56.11-65.32,71-2.95,1.45-6.21,44.81-7.08,53.44a38.06,38.06,0,0,1-11.56-.77c-13.33-2.92-19.1-10.66-20-23.61-.83-11.34-1.19-22.57-3.46-33.71a15.63,15.63,0,0,0-.63-3c-8.31-25-28.33-35.25-50.94-45.24-23.28-10.29-44.55-27.24-39.44-55.93,1.25-7,3-15.23,2-22.32-.64-4.33-1.32-6.63-2.46-.21-6,33.53-13.78,80.31,20.22,101.51,25.87,16.13,56.18,19.82,67.07,52.55,5.22,22-4.4,55.09,24.95,61.53a37.09,37.09,0,0,0,15.5.2,47.36,47.36,0,0,0,7.5,17.31c10.64,14.76,27.19,14.44,43,7.79,23.67-10,42.57-31.09,57.53-51.33,13.52-18.29,26.25-39.05,32.29-61.23.1-.35.19-.72.29-1.07l.21-.76c.07-.27.11-.54.17-.8.13-.55.29-1.08.4-1.64C551,239.24,551,238.85,551.07,238.46Zm-137.48,61a25.09,25.09,0,0,1,.56-6.67c.23-1,.45-2,.66-3.08a33.32,33.32,0,0,1,12.71-20.38c12.9-9.44,23.49-21.65,32.85-34.87,7.42-10.47,14.12-21.42,21.31-32s15.56-25.14,27.95-30.11c4.64-1.86,10-2.22,14.57.21a8.19,8.19,0,0,1,3.41,10.9c-1,2-1.83,3.63-2.24,4.26-3.46,5.2-7.1,10.29-10.81,15.31a429.77,429.77,0,0,1-55.69,61.51c.1-1.94-.62-12.3-1.17-11.2C448.47,271.58,434.31,294.44,413.59,299.48Z" transform="translate(-193.93 -63.11)"/><path fill="#000000" d="M396.51,158.06c-6.74-12.54-17.56-20.48-29.69-26.77a1,1,0,0,0-.33-.35c-11.31-6.09-24.12-11.37-32.15-21.83a37.14,37.14,0,0,1-5.65-9.86c-1.71-5-2.45-15-.1-19.57,2.49-4.85,9.13-6.83,14.09-5.56,5.86,1.5,10,9.54,2.88,12.37a7.57,7.57,0,0,1-10.13-4.57c.5,1.58-2.21,7.58-1.25,10.62,2.1,6.68,10.49,6.95,14.95,2.11,3.49-3.79,4-10.3,4.17-15.18C353.83,63,334.63,56,327.37,72.6c-5.56,12.71-4.08,30.55,2.68,42.55-15.16-6.29-30.34-12.52-45.24-19.42.89.41-8.08,29.1-2.76,31.56,19,8.82,38.47,16.73,57.83,24.82,14.91,6.23,31.52,12.12,43.42,23.53,8.78,8.42,14,20,16.33,31.86,2.53,12.85-1.08,23.65-8.19,36.05C360.61,297.32,276.78,274.2,270,214.8c-.72-6.24-2.73,4.58-2.87,5.46-1.14,6.9-2.07,14.64-1.27,21.64,3.92,34.22,32,62.27,67,64.27,33.85,1.94,56.62-22.74,65.69-53.1C407,224.62,411.12,185.26,396.51,158.06Z" transform="translate(-193.93 -63.11)"/><path fill="#000000" d="M197.78,369.83V351.2h-3.17v-.76h11a14,14,0,0,1,3.56.38,4.7,4.7,0,0,1,2.39,1.55,4.07,4.07,0,0,1,1,2.71,3.79,3.79,0,0,1-1.47,3.1,11.2,11.2,0,0,1-5,1.79V360a8.66,8.66,0,0,1,4.14,1.93q1.62,1.42,1.62,4.84a4.47,4.47,0,0,0,.45,2.5,1.56,1.56,0,0,0,1.27.55,4.83,4.83,0,0,0,1.27-.21v.73a7.84,7.84,0,0,1-2.53.46,4.08,4.08,0,0,1-3.5-1.39,4.38,4.38,0,0,1-1-2.7l.06-2.56a4.85,4.85,0,0,0-.85-2.64c-.57-.86-1.85-1.3-3.86-1.3h-1.88v9.58h3.18v.76h-9.92v-.76Zm3.57-18.63v8.35h2.71a11.17,11.17,0,0,0,2.66-.24,2.3,2.3,0,0,0,1.46-1.21,6.7,6.7,0,0,0,.55-3.14,4.67,4.67,0,0,0-.55-2.57,2.29,2.29,0,0,0-1.35-1,9.49,9.49,0,0,0-2.06-.19Z" transform="translate(-193.93 -63.11)"/><path fill="#000000" d="M228.86,364.31h-6.41l-2,5.52h3.72v.76h-7.3v-.76h2.78L227,350h.47l7,19.86h2.71v.76h-9.6v-.76h3.26Zm-6.12-.76h5.85l-2.84-8.07h-.06Z" transform="translate(-193.93 -63.11)"/><polygon points="45.18 287.33 52.41 287.33 56.72 301.58 56.78 301.58 61.13 287.33 68.17 287.33 68.17 288.1 65.18 288.1 65.18 306.72 68.17 306.72 68.17 307.49 58.69 307.49 58.69 306.72 61.77 306.72 61.77 287.75 61.71 287.75 55.71 307.49 55.02 307.49 49.03 287.75 48.97 287.75 48.97 306.72 52.05 306.72 52.05 307.49 45.18 307.49 45.18 306.72 48.2 306.72 48.2 288.1 45.18 288.1 45.18 287.33"/><path fill="#000000" d="M276.59,364.31h-6.4l-2.06,5.52h3.73v.76h-7.31v-.76h2.79L274.68,350h.47l7.05,19.86h2.7v.76h-9.6v-.76h3.26Zm-6.11-.76h5.84l-2.84-8.07h-.06Z" transform="translate(-193.93 -63.11)"/><path fill="#000000" d="M290,369.83V351.2h-3.14v-.76h9.52a14.75,14.75,0,0,1,5.4.89,7.69,7.69,0,0,1,3.75,3.51,11.11,11.11,0,0,1,1.5,5.65,10.39,10.39,0,0,1-1.65,5.78,8.6,8.6,0,0,1-3.81,3.43,13.66,13.66,0,0,1-5.25.89h-9.46v-.76Zm3.58-18.63v18.63h2.62a12.44,12.44,0,0,0,3.36-.38,3.9,3.9,0,0,0,2.15-1.64,7.85,7.85,0,0,0,1.14-3.2,34.35,34.35,0,0,0,.3-5.06,12.64,12.64,0,0,0-1-5.61,4.21,4.21,0,0,0-2.34-2.29,11.88,11.88,0,0,0-3.6-.45Z" transform="translate(-193.93 -63.11)"/><path fill="#000000" d="M319.22,364.31h-6.41l-2.05,5.52h3.72v.76h-7.3v-.76H310L317.31,350h.46l7.05,19.86h2.71v.76h-9.61v-.76h3.27Zm-6.12-.76H319l-2.84-8.07h-.06Z" transform="translate(-193.93 -63.11)"/><polygon points="153.33 288.1 153.33 307.95 152.72 307.95 139.45 288.01 139.38 288.01 139.38 306.72 142.8 306.72 142.8 307.49 135.63 307.49 135.63 306.72 138.62 306.72 138.62 288.1 135.41 288.1 135.41 287.33 143.11 287.33 152.51 301.46 152.57 301.46 152.57 288.1 149.23 288.1 149.23 287.33 156.38 287.33 156.38 288.1 153.33 288.1"/><polygon points="0 324.27 7.23 324.27 11.54 338.52 11.6 338.52 15.95 324.27 22.99 324.27 22.99 325.04 20 325.04 20 343.66 22.99 343.66 22.99 344.43 13.51 344.43 13.51 343.66 16.59 343.66 16.59 324.69 16.53 324.69 10.53 344.43 9.84 344.43 3.85 324.69 3.79 324.69 3.79 343.66 6.87 343.66 6.87 344.43 0 344.43 0 343.66 3.02 343.66 3.02 325.04 0 325.04 0 324.27"/><path fill="#000000" d="M236.93,388.14h-3.29v-.76h7.2v.76h-3.17v12.19a14.22,14.22,0,0,1-.4,3.91,4.43,4.43,0,0,1-1.45,2.12,6.7,6.7,0,0,1-2.52,1.25,11.77,11.77,0,0,1-3,.39,8.83,8.83,0,0,1-4.84-1,4.19,4.19,0,0,1-1.88-2.56,18.34,18.34,0,0,1-.36-4.07V388.14h-2.91v-.76h9.63v.76h-3.17V400a27,27,0,0,0,.22,3.84,4,4,0,0,0,1.22,2.33,4.48,4.48,0,0,0,3.14.94,6.66,6.66,0,0,0,3.13-.72,4.06,4.06,0,0,0,1.93-1.91,12.22,12.22,0,0,0,.55-4.48Z" transform="translate(-193.93 -63.11)"/><path fill="#000000" d="M246.49,406.77V388.14h-3.11v-.76h10.41a19.68,19.68,0,0,1,2.89.17,5.4,5.4,0,0,1,2.25.89,4.27,4.27,0,0,1,1.56,1.78,5,5,0,0,1,.47,2c0,2.4-1.84,4-5.51,4.71V397c4.14.67,6.22,2.39,6.22,5.17a5,5,0,0,1-.56,2.16,5.06,5.06,0,0,1-1.77,2,6.21,6.21,0,0,1-2.49,1,21.56,21.56,0,0,1-3.19.2H243.38v-.76Zm6.66-18.63h-3.08v8.46h2.76c1.87,0,3.07-.36,3.59-1.09a6.06,6.06,0,0,0,.78-3.46,5.39,5.39,0,0,0-.51-2.69,2.1,2.1,0,0,0-1.3-1A10.49,10.49,0,0,0,253.15,388.14Zm-.35,9.23h-2.73v9.4h2.82a10.54,10.54,0,0,0,2.52-.25,2.71,2.71,0,0,0,1.6-1.28,6.34,6.34,0,0,0,.66-3.29,5,5,0,0,0-1-3.48C256,397.74,254.72,397.37,252.8,397.37Z" transform="translate(-193.93 -63.11)"/><path fill="#000000" d="M274.56,401.25h-6.4l-2.06,5.52h3.73v.76h-7.3v-.76h2.78l7.34-19.86h.47l7.05,19.86h2.7v.76h-9.6v-.76h3.26Zm-6.11-.77h5.84l-2.84-8.07h-.06Z" transform="translate(-193.93 -63.11)"/><path fill="#000000" d="M288.66,406.77V388.14h-3.17v-.76h11.05a13.94,13.94,0,0,1,3.55.37,4.7,4.7,0,0,1,2.4,1.56,4.07,4.07,0,0,1,1,2.71,3.79,3.79,0,0,1-1.48,3.1,11.15,11.15,0,0,1-5,1.79V397a8.57,8.57,0,0,1,4.14,1.92q1.62,1.44,1.62,4.84a4.38,4.38,0,0,0,.46,2.51,1.57,1.57,0,0,0,1.27.54,5.07,5.07,0,0,0,1.26-.2v.73a7.72,7.72,0,0,1-2.52.45,4.09,4.09,0,0,1-3.51-1.38,4.39,4.39,0,0,1-1-2.71l.06-2.55a4.77,4.77,0,0,0-.85-2.64c-.56-.87-1.85-1.3-3.85-1.3h-1.88v9.58h3.17v.76h-9.92v-.76Zm3.58-18.63v8.35h2.7a11.17,11.17,0,0,0,2.66-.24,2.33,2.33,0,0,0,1.47-1.22,6.65,6.65,0,0,0,.55-3.13,4.64,4.64,0,0,0-.56-2.57,2.3,2.3,0,0,0-1.34-1,9.59,9.59,0,0,0-2.07-.19Z" transform="translate(-193.93 -63.11)"/><path fill="#000000" d="M319.74,401.25h-6.4l-2.06,5.52H315v.76H307.7v-.76h2.79l7.34-19.86h.47l7.05,19.86h2.7v.76h-9.6v-.76h3.26Zm-6.11-.77h5.84l-2.84-8.07h-.06Z" transform="translate(-193.93 -63.11)"/><path fill="#000000" d="M334.05,406.77V388.14H330.9v-.76h9.9v.76h-3.17v18.63h3.17v.76h-9.9v-.76Zm8.9-19.39h7.6v.76h-3.08L340.8,395l9.75,11.77h2v.76h-9.9v-.76h3.47L338,396.82l8.4-8.68H343Z" transform="translate(-193.93 -63.11)"/><path fill="#000000" d="M348.52,321.74a6.08,6.08,0,0,0-4.38-1.75,6,6,0,0,0-4.44,1.83,6.11,6.11,0,0,0-1.79,4.43l0,.22v2.66a2.74,2.74,0,0,1-1.79,2.65,2.48,2.48,0,0,1-.77.12,1.07,1.07,0,0,1-1.16-.72,9.86,9.86,0,0,1-.22-2.57V320l-2.93.77v8.37a2.73,2.73,0,0,1-1.78,2.65l-.7.11H245.23a1.06,1.06,0,0,1-1.16-.72,9.73,9.73,0,0,1-.23-2.57V315.25l-2.93.77v12.06c0,1.88.34,3.12,1,3.7a3.92,3.92,0,0,0,2.68.88H328a4.42,4.42,0,0,0,2.39-.7,3.54,3.54,0,0,0,1-1.13,2.39,2.39,0,0,0,.6.95,3.94,3.94,0,0,0,2.69.88,4.45,4.45,0,0,0,2.51-.7,3.82,3.82,0,0,0,1.59-2.36,6.74,6.74,0,0,0,.88,1.13,5.88,5.88,0,0,0,4.32,1.83,6,6,0,0,0,4.4-1.87,6.23,6.23,0,0,0,1.86-4.56A5.87,5.87,0,0,0,348.52,321.74Zm-1.77,8.18a2.31,2.31,0,0,1-.89,1.44,2.84,2.84,0,0,1-1.75.52,2.77,2.77,0,0,1-1.72-.51,2.34,2.34,0,0,1-.89-1.41,20.2,20.2,0,0,1-.21-3.69,24.8,24.8,0,0,1,.17-3.65,2.24,2.24,0,0,1,.87-1.42,2.85,2.85,0,0,1,1.78-.53,2.77,2.77,0,0,1,1.79.52,2.34,2.34,0,0,1,.85,1.4,23,23,0,0,1,.18,3.66A23.65,23.65,0,0,1,346.75,329.92Z" transform="translate(-193.93 -63.11)"/><path fill="#000000" d="M279.5,334.7a2.86,2.86,0,0,0-2.12.87,2.93,2.93,0,0,0-.85,2.12,2.89,2.89,0,0,0,.86,2.14,2.82,2.82,0,0,0,2.06.87,2.87,2.87,0,0,0,2.11-.89,3,3,0,0,0,.89-2.18,2.81,2.81,0,0,0-.86-2.09A2.87,2.87,0,0,0,279.5,334.7Z" transform="translate(-193.93 -63.11)"/><path fill="#000000" d="M233.71,330v4.25a1.6,1.6,0,0,1-1.59,1.6h-.45s-.57,0-.56-.39a1.69,1.69,0,0,1,.2-.58,1,1,0,0,0-.12-1.33,1.39,1.39,0,0,0-1.84.06,1.72,1.72,0,0,0,.18,2.35,3.16,3.16,0,0,0,2.05.53h.78a4.27,4.27,0,0,0,4.27-4.27V319.94l-2.92,1Z" transform="translate(-193.93 -63.11)"/><path fill="#000000" d="M226,326a5.87,5.87,0,0,1-5.87,5.85H200.71a2.41,2.41,0,0,1-1.94-.65,3.71,3.71,0,0,1-.76-2,39.44,39.44,0,0,1-.14-4c0-1.82.25-3,.76-3.56a3,3,0,0,1,2.32-.85h16.57s-.07,2.44-.07,4.25-.25,3-.76,3.56a2.83,2.83,0,0,1-2.17.84h-4.05a3,3,0,0,1-1.44-.31c-.37-.21-.56-.45-.56-.72a1.36,1.36,0,0,1,.37-.61,1.43,1.43,0,0,0,.37-.92,1.39,1.39,0,0,0-.43-1.07,1.5,1.5,0,0,0-1.07-.4,1.36,1.36,0,0,0-1.08.48,1.64,1.64,0,0,0-.41,1.08,2.78,2.78,0,0,0,1.2,2.17,4.78,4.78,0,0,0,3.11,1h4.11a5.86,5.86,0,0,0,4.27-1.91,6.27,6.27,0,0,0,1.81-4.43V320.1H200.89a5.89,5.89,0,0,0-4.48,1.91,6.26,6.26,0,0,0-1.8,4.43,6.19,6.19,0,0,0,1.75,4.34,5.69,5.69,0,0,0,4.3,1.88h21.82a6.48,6.48,0,0,0,6.48-6.48V315.25l-2.92,1Z" transform="translate(-193.93 -63.11)"/><path fill="#000000" d="M211,326a3.21,3.21,0,0,0-.91-2,3.49,3.49,0,0,0-2.09-1,3.57,3.57,0,0,0-3.81,2.39,3.45,3.45,0,0,0,0,2.33,3.06,3.06,0,0,0,3.47,2,3.05,3.05,0,0,1-2.33-2.35,2.5,2.5,0,0,1,3.94-2.46,3,3,0,0,1,1.1,3.11A2.8,2.8,0,0,0,211,326Z" transform="translate(-193.93 -63.11)"/><path fill="#000000" d="M340.59,315.26a4.66,4.66,0,0,0,.18-1.31,3.42,3.42,0,0,0-.63-2.14,1.91,1.91,0,0,0-1.59-.86,1.94,1.94,0,0,0-1.52.75,2.53,2.53,0,0,0-.63,1.69,2.28,2.28,0,0,0,.49,1.46,1.83,1.83,0,0,0,1.5.79,1.46,1.46,0,0,0,1.15-.56l0,0-.12.67a1.54,1.54,0,0,1-.92,1l-2.12.84v.55l2.32-.93A3.18,3.18,0,0,0,340.59,315.26ZM339.52,314a1.21,1.21,0,0,1-.51,1l-.54.17a.74.74,0,0,1-.62-.3,3.29,3.29,0,0,1-.21-1.52,3.38,3.38,0,0,1,.23-1.53.76.76,0,0,1,.68-.37c.19,0,1,.08,1,2.06v.14Z" transform="translate(-193.93 -63.11)"/><path fill="#000000" d="M273.602,481.306c-0.578-0.576-1.301-1.03-2.174-1.362c-0.873-0.331-1.885-0.497-3.039-0.497
	c-0.663,0-1.463,0.079-2.4,0.238v-6.077h-1.535v17.711c0.706,0.202,1.402,0.354,2.087,0.454s1.301,0.151,1.849,0.151
	c1.153,0,2.166-0.162,3.039-0.486s1.596-0.764,2.174-1.319c0.576-0.555,1.006-1.211,1.287-1.968s0.42-1.561,0.42-2.411
	s-0.139-1.657-0.42-2.422C274.608,482.554,274.178,481.883,273.602,481.306z M272.391,489.167c-0.852,0.829-2.17,1.243-3.958,1.243
	c-0.39,0-0.805-0.032-1.244-0.097c-0.439-0.065-0.84-0.134-1.2-0.206v-8.845c0.447-0.115,0.887-0.194,1.319-0.237
	c0.433-0.044,0.808-0.065,1.125-0.065c0.894,0,1.668,0.112,2.325,0.335c0.656,0.224,1.199,0.545,1.633,0.963
	c0.432,0.418,0.752,0.919,0.961,1.503s0.314,1.243,0.314,1.979C273.667,487.195,273.241,488.338,272.391,489.167z M247.392,479.446
	c-0.62,0-1.297,0.079-2.033,0.238c-0.735,0.158-1.485,0.433-2.249,0.821l-0.065,1.73c0.548-0.303,0.973-0.52,1.276-0.649
	s0.624-0.237,0.962-0.324c0.338-0.086,0.677-0.158,1.016-0.216s0.667-0.087,0.984-0.087c1.139,0,1.982,0.249,2.53,0.746
	s0.822,1.33,0.822,2.498v0.13c-0.332-0.044-0.732-0.087-1.2-0.13c-0.469-0.043-0.876-0.065-1.222-0.065
	c-1.831,0-3.302,0.311-4.412,0.931c-1.11,0.619-1.665,1.644-1.665,3.07c0,0.707,0.155,1.305,0.465,1.795
	c0.31,0.49,0.713,0.88,1.211,1.168s1.067,0.497,1.708,0.627c0.641,0.13,1.308,0.194,2,0.194c0.807,0,1.6-0.072,2.378-0.216
	c0.779-0.145,1.536-0.368,2.271-0.671v-7.028c0-1.585-0.397-2.742-1.189-3.471C250.189,479.811,248.992,479.446,247.392,479.446z
	 M250.636,489.892c-0.375,0.144-0.858,0.267-1.449,0.367c-0.591,0.102-1.183,0.151-1.773,0.151c-0.505,0-0.984-0.035-1.438-0.108
	c-0.454-0.071-0.84-0.197-1.157-0.378c-0.317-0.18-0.57-0.414-0.757-0.703c-0.188-0.288-0.281-0.663-0.281-1.124
	c0-0.52,0.111-0.934,0.335-1.244c0.224-0.31,0.533-0.551,0.93-0.724c0.396-0.174,0.85-0.296,1.362-0.368
	c0.511-0.072,1.041-0.108,1.589-0.108c0.476,0,0.984,0.029,1.524,0.087c0.541,0.058,0.912,0.108,1.114,0.151V489.892z
	 M258.032,479.868c-0.649,0.122-1.276,0.263-1.881,0.422v11.418h1.535v-10.186c0.202-0.072,0.563-0.147,1.082-0.228
	c0.519-0.079,1.002-0.118,1.449-0.118h1.989v-1.492H260C259.336,479.685,258.681,479.746,258.032,479.868z M-77.92,487.667
	l241.145,0.656l0.663-0.433l-0.632-0.564L-77.92,487.667z M164.994,487.825l1.95,1.95l1.95-1.95l-1.95-1.95L164.994,487.825z
	 M169.559,487.825l3.057,3.057l3.057-3.057l-3.057-3.057L169.559,487.825z M212.359,489.286l-3.395-9.602h-1.514l-3.396,9.602
	l-2.984-9.602h-1.73l3.979,12.023h1.428l3.46-9.645l3.46,9.645h1.427l3.979-12.023h-1.73L212.359,489.286z M238.418,489.589
	c-0.317,0-0.591,0.115-0.822,0.346c-0.231,0.23-0.346,0.505-0.346,0.822c0,0.316,0.115,0.591,0.346,0.821
	c0.23,0.23,0.504,0.346,0.822,0.346c0.317,0,0.591-0.115,0.822-0.346c0.23-0.23,0.346-0.505,0.346-0.821
	c0-0.317-0.116-0.592-0.346-0.822C239.009,489.704,238.735,489.589,238.418,489.589z M193.243,489.286l-3.395-9.602h-1.514
	l-3.396,9.602l-2.984-9.602h-1.73l3.979,12.023h1.428l3.46-9.645l3.46,9.645h1.427l3.979-12.023h-1.73L193.243,489.286z
	 M231.476,489.286l-3.395-9.602h-1.514l-3.396,9.602l-2.984-9.602h-1.73l3.979,12.023h1.428l3.46-9.645l3.46,9.645h1.427
	l3.979-12.023h-1.73L231.476,489.286z M382.732,480.474c-0.426-0.396-0.938-0.667-1.535-0.812c-0.598-0.144-1.271-0.216-2.021-0.216
	c-0.664,0-1.393,0.09-2.184,0.271c-0.793,0.181-1.471,0.4-2.033,0.659c-0.346-0.331-0.818-0.569-1.416-0.714
	c-0.6-0.144-1.273-0.216-2.023-0.216c-0.635,0-1.268,0.058-1.902,0.173l-2.465,0.454v11.635h1.535v-10.38
	c0.447-0.102,0.883-0.188,1.309-0.26c0.424-0.072,0.896-0.108,1.416-0.108c0.605,0,1.125,0.058,1.557,0.173
	c0.434,0.116,0.789,0.321,1.07,0.616c0.281,0.296,0.494,0.711,0.639,1.244s0.217,1.24,0.217,2.119v6.596h1.535v-7.201
	c0-0.663-0.055-1.243-0.162-1.741c-0.109-0.497-0.213-0.861-0.314-1.092c0.086-0.043,0.281-0.119,0.584-0.228
	c0.303-0.107,0.602-0.197,0.898-0.27c0.295-0.072,0.586-0.126,0.875-0.162s0.547-0.055,0.779-0.055c0.59,0,1.102,0.058,1.535,0.173
	c0.432,0.116,0.781,0.317,1.049,0.605c0.266,0.289,0.471,0.703,0.615,1.244c0.145,0.54,0.217,1.251,0.217,2.13v6.596h1.535v-7.201
	c0-0.995-0.111-1.816-0.336-2.466C383.482,481.393,383.158,480.87,382.732,480.474z M280.1,474.581
	c-0.785,0.648-1.18,1.729-1.18,3.243v1.86h-2.551v1.492h2.551v10.531h1.537v-10.531h4.973v-1.492h-4.973v-1.471
	c0-0.635,0.045-1.149,0.141-1.546c0.094-0.396,0.24-0.707,0.443-0.931c0.201-0.223,0.475-0.385,0.82-0.486
	c0.346-0.101,0.779-0.151,1.299-0.151h2.422v-1.492h-2.271C281.956,473.607,280.885,473.932,280.1,474.581z M398.273,487.825
	l3.057,3.057l3.057-3.057l-3.057-3.057L398.273,487.825z M343.322,482.322c0.389-0.418,0.854-0.749,1.395-0.994
	s1.135-0.368,1.783-0.368c0.736,0,1.373,0.076,1.914,0.228s1.121,0.414,1.74,0.789l0.715-1.405c-0.707-0.39-1.393-0.674-2.055-0.854
	c-0.664-0.181-1.436-0.271-2.314-0.271c-0.85,0-1.639,0.155-2.367,0.465c-0.729,0.311-1.367,0.746-1.914,1.309
	c-0.549,0.563-0.98,1.222-1.297,1.979c-0.317,0.757-0.476,1.59-0.476,2.498s0.158,1.74,0.476,2.497
	c0.316,0.757,0.748,1.413,1.297,1.969c0.547,0.555,1.186,0.987,1.914,1.297c0.729,0.311,1.518,0.465,2.367,0.465
	c0.879,0,1.65-0.09,2.314-0.27c0.662-0.181,1.348-0.466,2.055-0.854l-0.715-1.406c-0.619,0.375-1.199,0.639-1.74,0.79
	s-1.178,0.227-1.914,0.227c-0.648,0-1.242-0.119-1.783-0.356c-0.541-0.238-1.006-0.565-1.395-0.984
	c-0.391-0.418-0.693-0.915-0.908-1.492c-0.217-0.576-0.324-1.203-0.324-1.881s0.107-1.305,0.324-1.882
	C342.628,483.238,342.931,482.741,343.322,482.322z M404.387,487.825l1.949,1.95l1.951-1.95l-1.951-1.95L404.387,487.825z
	 M410.701,487.326l-0.664,0.433l0.633,0.564l241.176-0.341L410.701,487.326z M362.611,481.295c-0.549-0.569-1.193-1.02-1.936-1.352
	c-0.742-0.331-1.547-0.497-2.412-0.497c-0.863,0-1.668,0.166-2.41,0.497c-0.742,0.332-1.389,0.782-1.936,1.352
	c-0.549,0.57-0.977,1.229-1.287,1.979c-0.311,0.749-0.465,1.557-0.465,2.422s0.154,1.672,0.465,2.422s0.738,1.409,1.287,1.979
	c0.547,0.569,1.193,1.017,1.936,1.341s1.547,0.486,2.41,0.486c0.865,0,1.67-0.162,2.412-0.486s1.387-0.771,1.936-1.341
	c0.547-0.569,0.977-1.229,1.287-1.979c0.309-0.75,0.465-1.557,0.465-2.422s-0.156-1.673-0.465-2.422
	C363.587,482.524,363.158,481.865,362.611,481.295z M362.394,487.523c-0.217,0.569-0.52,1.067-0.908,1.492
	c-0.389,0.426-0.857,0.765-1.406,1.017c-0.547,0.252-1.152,0.378-1.816,0.378c-0.662,0-1.268-0.126-1.816-0.378
	c-0.547-0.252-1.016-0.591-1.404-1.017c-0.391-0.425-0.693-0.923-0.908-1.492c-0.217-0.569-0.324-1.179-0.324-1.827
	c0-0.649,0.107-1.262,0.324-1.839c0.215-0.576,0.518-1.077,0.908-1.503c0.389-0.425,0.857-0.764,1.404-1.016
	c0.549-0.252,1.154-0.379,1.816-0.379c0.664,0,1.27,0.127,1.816,0.379c0.549,0.252,1.018,0.591,1.406,1.016
	c0.389,0.426,0.691,0.927,0.908,1.503c0.217,0.577,0.324,1.189,0.324,1.839C362.718,486.345,362.611,486.954,362.394,487.523z
	 M296.221,481.295c-0.547-0.569-1.191-1.02-1.936-1.352c-0.742-0.331-1.545-0.497-2.41-0.497s-1.67,0.166-2.412,0.497
	c-0.742,0.332-1.387,0.782-1.936,1.352c-0.547,0.57-0.977,1.229-1.285,1.979c-0.311,0.749-0.465,1.557-0.465,2.422
	s0.154,1.672,0.465,2.422c0.309,0.75,0.738,1.409,1.285,1.979c0.549,0.569,1.193,1.017,1.936,1.341s1.547,0.486,2.412,0.486
	s1.668-0.162,2.41-0.486c0.744-0.324,1.389-0.771,1.936-1.341c0.549-0.569,0.977-1.229,1.287-1.979s0.465-1.557,0.465-2.422
	s-0.154-1.673-0.465-2.422C297.198,482.524,296.77,481.865,296.221,481.295z M296.006,487.523c-0.217,0.569-0.52,1.067-0.908,1.492
	c-0.391,0.426-0.859,0.765-1.406,1.017c-0.549,0.252-1.154,0.378-1.816,0.378c-0.664,0-1.27-0.126-1.816-0.378
	c-0.549-0.252-1.018-0.591-1.406-1.017c-0.389-0.425-0.691-0.923-0.908-1.492s-0.324-1.179-0.324-1.827
	c0-0.649,0.107-1.262,0.324-1.839c0.217-0.576,0.52-1.077,0.908-1.503c0.389-0.425,0.857-0.764,1.406-1.016
	c0.547-0.252,1.152-0.379,1.816-0.379c0.662,0,1.268,0.127,1.816,0.379c0.547,0.252,1.016,0.591,1.406,1.016
	c0.389,0.426,0.691,0.927,0.908,1.503c0.215,0.577,0.324,1.189,0.324,1.839C296.331,486.345,296.221,486.954,296.006,487.523z
	 M309.381,480.463c-0.455-0.39-0.996-0.656-1.623-0.801c-0.627-0.144-1.309-0.216-2.043-0.216c-0.707,0-1.465,0.047-2.271,0.141
	s-1.701,0.234-2.682,0.422v11.699h1.535v-10.402c1.184-0.23,2.293-0.346,3.33-0.346c0.592,0,1.111,0.062,1.559,0.184
	c0.445,0.123,0.818,0.332,1.113,0.628c0.295,0.295,0.525,0.713,0.691,1.254s0.25,1.251,0.25,2.13v6.553h1.535v-7.201
	c0-0.995-0.119-1.82-0.357-2.477C310.18,481.375,309.834,480.852,309.381,480.463z M318.516,490.054
	c-0.346-0.108-0.619-0.277-0.82-0.509c-0.203-0.23-0.35-0.547-0.443-0.951c-0.096-0.403-0.141-0.922-0.141-1.557v-5.86h4.973v-1.492
	h-4.973v-4.347h-1.537v4.347h-2.551v1.492h2.551v6.466c0,0.764,0.109,1.405,0.326,1.925c0.215,0.519,0.525,0.937,0.93,1.254
	c0.402,0.317,0.867,0.544,1.395,0.682c0.525,0.137,1.105,0.205,1.74,0.205h2.271v-1.492h-2.422
	C319.295,490.216,318.862,490.162,318.516,490.054z M337.784,489.589c-0.316,0-0.59,0.115-0.82,0.346s-0.346,0.505-0.346,0.822
	c0,0.316,0.115,0.591,0.346,0.821s0.504,0.346,0.82,0.346c0.318,0,0.592-0.115,0.822-0.346s0.346-0.505,0.346-0.821
	c0-0.317-0.115-0.592-0.346-0.822S338.102,489.589,337.784,489.589z M333.178,486.106c-0.346-0.303-0.785-0.565-1.318-0.789
	c-0.533-0.223-1.182-0.422-1.947-0.595l-0.799-0.173c-1.053-0.216-1.781-0.461-2.184-0.735c-0.404-0.273-0.607-0.678-0.607-1.211
	c0-0.504,0.238-0.904,0.715-1.2c0.475-0.295,1.174-0.443,2.098-0.443c0.793,0,1.477,0.076,2.055,0.228
	c0.576,0.151,1.217,0.421,1.924,0.811l0.691-1.405c-1.412-0.765-2.969-1.146-4.67-1.146c-0.635,0-1.223,0.076-1.764,0.228
	c-0.539,0.151-1.008,0.364-1.404,0.638s-0.711,0.605-0.941,0.994c-0.23,0.39-0.346,0.815-0.346,1.276
	c0,0.462,0.072,0.88,0.217,1.254c0.143,0.375,0.381,0.707,0.713,0.995s0.758,0.537,1.275,0.746c0.52,0.209,1.146,0.4,1.883,0.573
	l0.908,0.194c1.008,0.217,1.729,0.49,2.162,0.822c0.432,0.331,0.648,0.771,0.648,1.318c0,0.39-0.086,0.707-0.26,0.952
	c-0.172,0.245-0.414,0.436-0.725,0.573c-0.311,0.137-0.678,0.237-1.102,0.303c-0.426,0.064-0.877,0.097-1.352,0.097
	c-0.592,0-1.223-0.09-1.893-0.271c-0.67-0.18-1.352-0.479-2.045-0.897l-0.734,1.471c0.779,0.433,1.539,0.742,2.281,0.93
	s1.539,0.281,2.391,0.281c0.748,0,1.434-0.072,2.053-0.216c0.621-0.145,1.158-0.36,1.611-0.648c0.455-0.289,0.805-0.649,1.049-1.082
	c0.246-0.433,0.369-0.93,0.369-1.492c0-0.476-0.072-0.915-0.217-1.318C333.77,486.763,333.526,486.41,333.178,486.106z"/>
</svg>
