<?xml version="1.0" encoding="utf-8"?>
<!-- Generator: Adobe Illustrator 22.1.0, SVG Export Plug-In . SVG Version: 6.00 Build 0)  -->
<svg version="1.1" id="Layer_1" xmlns="http://www.w3.org/2000/svg" xmlns:xlink="http://www.w3.org/1999/xlink" x="0px" y="0px"
	 viewBox="0 0 800 500" style="enable-background:new 0 0 800 500;" xml:space="preserve">
<style type="text/css">
	.st0{fill:#231F20;}
</style>
<g>
	<path fill="#000000" class="st0" d="M479.1,220.5c-21.5-4.9-29.1,23.1-32.5,38.1c-1.3,5.6-2.3,12.4-1.8,18.2c-0.5,1.2-0.7-0.8-2.4-2.9
		c-2-2.4-3.8-4.6-6.3-6.5c-4.6-3.5-10.1-5.6-15.4-7.8c-5-2.1-10.1-4.2-14.3-7.7c-2.1-1.8-3.9-3.8-5.3-6.1c5.7,0.1,11.6-1.1,16.8-3.2
		c17.2-7.2,27.3-24.2,36.2-39.8c0,0.7-0.1,1.2-0.1,1.6c-0.1,1.1,0.1,13.8,0.3,13.7c19.1-10.5,32.1-28.1,35.6-49.7
		c3.1-18.9,4.5-43.9-20.7-45.2c-23.5-1.3-43.1,17.9-53.8,36.9c-10.1,17.9-16.3,37.5-18.9,57.8c-1.4-0.4-2.8-0.9-4.2-1.5
		c-15-6.5-18.1-24.6-16.8-39.5c0.5-2.2,2.3-19,2-20.9c1-19.9-1-39.9-16.1-54.6c-5.9-5.8-13-10.1-19.3-15.4c-2.6-2.2-5.3-4.6-7.3-7.4
		c-5.7-10.1-4-20.3-5-20c-2.2,0.6-2.6,12.2-2.7,13.5c-1.5,19.9,0.8,32.2,16.9,44.6c14.8,11.3,28.9,24,29.8,43.3
		c0.1,2.1-0.1,4.3-0.4,6.4c-3.3,22.4-7.7,54.4,7.8,71.3c3.4,3.7,7.6,6,12.1,7.2c-0.7,13.6,1.2,27.4,11.9,35.4
		c12.4,9.2,30,9.5,36.9,25.3c0.6,1.4,1.2-0.9,1.3-1.3c0.6-2.4,1.1-4.8,1.7-7.1c1.4-6,2.1-12.3,2.2-18.5c0-0.3,0-0.9-0.1-1.7
		c2.6-10.5,8.1-24.1,18.3-28.4c-0.4,6.3,0.3,12.4,3.7,17c7.5,9.9,29,7.2,31.3,21.7c0.8,4.7,2-2,2.2-3.3c1.1-5.8,1.6-12,1.4-17.8
		C504.1,250,497.6,224.7,479.1,220.5z M419.1,178.2c9.1-13,22.4-24.1,38.4-27.1c5.9-1.1,12.2-1.2,17.8,0.9c2.6,0.9,5.2,2.3,7.3,4.1
		c1.2,1.1,2.2,2.3,3,3.7c-0.9,2.3-1.7,4.8-2.4,6c-1.7,3-3.7,5.8-5.9,8.4c-5.6,6.8-12.3,12-19.9,16.3c0.1-2.2,0.2-4.4,0.3-6.3
		c0.1-1.6-0.4-10.7-1-9.6c-11.2,20-30.8,49.4-57,44.1C402.6,204.7,411.7,188.9,419.1,178.2z"/>
	<path fill="#000000" class="st0" d="M320.1,179.2c23.2,6.4,40.3,25.9,41.3,50.4c0.1,2.7,0.3,1.8,1.1,0.1c1.1-2.5,0.9-6.9,0.8-9.6
		c-1-26.1-16.4-47.5-42-54.5C321,165.6,318.3,178.7,320.1,179.2z"/>
	<path fill="#000000" class="st0" d="M368.6,328.9c17,4.7,29.9,19,30.6,37c0.1,2.7,0.3,1.8,1.1,0.1c1.1-2.5,0.9-6.9,0.8-9.6
		c-0.8-19.6-12-35.7-31.3-41.1C369.5,315.3,366.8,328.4,368.6,328.9z"/>
	<path fill="#000000" class="st0" d="M342.6,214.5c-9.3-8.4-23-11-35.2-9.1c-19.5,3-29.6,19-33.8,37c-1.4,6-2.1,12.3-2.2,18.5
		c0,1.3,0.4,10.1,1.6,5.1c6.2-26.4,28.9-39.9,54.8-31.5c11.9,3.8,20.6,14.3,25.4,25.6c1.5,3.6,3,7.3,3.5,11.2
		c0.6,4.6-3,13.6-4.6,16.6c-3.2,5.8-6.6,11.1-12.6,16c-28.1,23.5-70.4,19.4-95.9-5.5c-0.9-0.9-2.1-2.4-3.4-3.7
		c-3.8-3.8-6.1-9.7-7-12.2c-6.1-17.2-4.8-34.9,5.8-50.9c9.4-14.1,22.7-21.5,36.9-29.8c23.6-13.7,38.1-33.8,42.6-60.8
		c0.4-2.4,0.7-15.2-0.7-7c-3.7,22.7-18.3,40.7-37.6,52.4c-14.7,8.9-29.4,16.2-39.5,30.6c-11.6,16.5-16,38.4-13.7,59
		c-4.8-9.3-8-19.4-8.8-29.3c-1.6-22.7,15.7-47.4,31.2-62.5c16.8-16.4,37.6-28.2,54.1-45c15.4-15.7,23.3-33.2,26.1-54.8
		c0.2-1.8,2.1-16.4,0.4-16.8c-1.9-0.5-2.5,7.7-2.7,9.3c-3.3,25.8-32.6,45.7-51.3,60c-20.1,15.4-38.4,31.7-49.4,55.1
		c-17.9,38.3-19.9,92.3,7.8,126.4c27.7,34,83,39.5,111.7,3.3c12.7-16,15.1-38.5,15.1-58.3C361.6,245.3,356.6,227,342.6,214.5z"/>
	<path fill="#000000" class="st0" d="M585.1,186.4c-33.1-10-50.6,38.7-60.5,60.7c-11.5,25.6-27.7,54.3-53.7,67.6c-10.6,5.4-21.3,5.8-32.8,3.2
		c-23.7-5.3-37-24.6-38.2-48.4c-0.2-4.9-0.8-4.2-2.1-0.2c-1.8,5.6-2,13.4-1.7,19.2c1.1,23.4,8.9,46.1,32.7,54.6
		c11.2,4,24.2,5.3,35.4,0.7c23.9-9.7,40.5-34.2,52-56.1c12.3-23.6,28.8-85.6,66.5-74.2C583.1,213.7,588.9,187.6,585.1,186.4z"/>
	<path fill="#000000" class="st0" d="M578.4,125.1c-0.1,7.3-10.3,16-15.4,19.9c-8,6-17.3,9.9-26.1,14.6c-13,7-24.2,15.5-29,30
		c-0.9,2.7-1.3,6.4-1.1,9.3c0.1,0.7,0,5,0.8,2.5c8.2-25,37.1-29.3,55.4-43.9c12.7-10.1,17.1-23.5,17.2-39.2
		C580.4,110,578.4,122.8,578.4,125.1z"/>
	<path fill="#000000" class="st0" d="M316.3,278.8c-4.3,3.4-10.7,3.9-15.9,2.3c-3.2-1-6-3-8.1-5.6c-1.3-1.7-2.3-3.7-3-5.7c-0.4-1.2-0.8-2.5-1-3.7
		c-0.1-0.5-0.2-3.7-0.3-1.4c0.1-1.5,1-10.3-1-9.6c-2.1,0.7-2.4,15.1-2.5,16.6c-0.6,11.4-1.6,27.6,9.6,34.7
		c5.7,3.6,14.3,3.9,19.8-0.4c2.7-2.1,2.4-10.4,2.7-13.4c0.3-3.2,0.5-6.4,0.4-9.6C317,282.5,316.6,278.6,316.3,278.8z"/>
	<path fill="#000000" class="st0" d="M431,104.3c-14.1,11.2-35.4-2.3-34.5-19.4c0.1-0.9,0.6-11-1-9.6c-2.6,2.1-2.4,13.8-2.5,16.6
		c-0.7,13.4-1.5,31.8,11.5,40.1c7,4.4,17.5,4.8,24.1-0.5c2.7-2.1,2.4-10.4,2.7-13.5c0.3-3.2,0.6-6.4,0.4-9.6
		C431.7,108,431.3,104.1,431,104.3z"/>
	<path fill="#000000" class="st0" d="M400.2,368.7c1.2-5.7,4.3-14.1,11.8-13.2c4.5,0.6,6.9,5,9.8,7.8c7.1,6.7,15.7,4.6,18.6-4.7
		c0.9-2.9,1.1-6.3,1.1-9.3c0-0.7,0-5-0.8-2.5c-2.2,7.1-9.8,9-15.5,5c-3.5-2.5-5.4-7-9.4-8.9c-10.4-4.9-14.3,8.8-15.8,16.1
		c-0.6,2.8-1.5,6.8-0.8,9.6C399.5,370.3,399.6,371.6,400.2,368.7z"/>
	<g>
		<path fill="#000000" class="st0" d="M383.1,406.6l-0.4,5h-10.1V410c1.1-1.2,2.6-2.7,4.6-4.6c2-1.9,3.1-4,3.1-6.2c0-1.3-0.3-2.3-0.8-3.1
			c-0.6-0.8-1.4-1.2-2.4-1.2c-0.9,0-1.7,0.3-2.3,0.9c-0.6,0.6-0.9,1.2-0.9,1.9c0,0.3,0.1,0.5,0.2,0.5c0,0,0.1,0,0.2-0.1
			c0.3-0.2,0.6-0.3,0.9-0.3c0.3,0,0.6,0.1,0.9,0.4c0.2,0.3,0.4,0.6,0.4,1c0,0.4-0.1,0.7-0.4,1c-0.3,0.3-0.6,0.4-1,0.4
			c-0.6,0-1-0.2-1.4-0.7c-0.4-0.5-0.6-1.1-0.6-1.8c0-1.1,0.5-2.1,1.4-2.9c0.9-0.8,2.1-1.3,3.5-1.3c1.4,0,2.6,0.4,3.6,1.2
			c1,0.8,1.5,1.8,1.5,3c0,1.3-0.4,2.5-1.3,3.7c-0.9,1.1-2.2,2.5-3.9,4.1c-1.7,1.6-3,2.8-3.7,3.6h6.1c1.1,0,1.8-0.1,1.9-0.3
			c0.1-0.2,0.2-0.6,0.2-1.3l0.1-1.2H383.1z"/>
		<path fill="#000000" class="st0" d="M391.4,412c-1.5,0-2.9-0.9-4-2.7c-1.1-1.8-1.6-3.9-1.6-6.1c0-2.4,0.6-4.5,1.7-6.4c1.1-1.9,2.5-2.8,4-2.8
			c1.5,0,2.8,0.9,3.9,2.8c1.1,1.9,1.7,4,1.7,6.3c0,2.2-0.6,4.3-1.7,6.2C394.3,411.1,392.9,412,391.4,412z M394.2,404.9v-4.6
			c0-3.8-0.9-5.8-2.7-5.8c-0.9,0-1.6,0.5-2.1,1.3c-0.5,0.9-0.7,2.5-0.7,4.7v5.2c0,3.7,0.9,5.5,2.8,5.5c0.9,0,1.6-0.5,2-1.4
			C394,409,394.2,407.3,394.2,404.9z"/>
		<path fill="#000000" class="st0" d="M406.2,393.9v17.1h3.1v0.7h-8.8v-0.7h3.1v-15.8h-3.1v-0.7h0.5C403,394.4,404.7,394.3,406.2,393.9z"/>
		<path fill="#000000" class="st0" d="M419.8,402.6L419.8,402.6c1.5,0.4,2.6,1,3.3,1.8c0.7,0.8,1.1,1.7,1.1,2.8c0,1.3-0.5,2.5-1.5,3.4
			c-1,1-2.4,1.4-4.1,1.4c-1.7,0-3.1-0.5-4.1-1.4c-1-0.9-1.6-2-1.6-3.4c0-1.2,0.4-2.2,1.3-3.1c0.9-0.8,2-1.3,3.3-1.5v-0.1
			c-1.4-0.3-2.4-0.8-3.1-1.6c-0.7-0.8-1-1.7-1-2.7c0-1.2,0.5-2.2,1.5-3.1c1-0.9,2.2-1.3,3.7-1.3c1.6,0,2.9,0.4,3.8,1.3
			c1,0.9,1.4,1.9,1.4,3.1c0,0.9-0.3,1.8-1,2.6C422.1,401.7,421.1,402.3,419.8,402.6z M418.4,411.4c1,0,1.7-0.3,2.2-0.8
			c0.5-0.6,0.7-1.6,0.7-3.1c0-2.9-0.9-4.4-2.8-4.4c-0.9,0-1.6,0.3-2.1,1c-0.5,0.7-0.7,1.8-0.7,3.6c0,1.4,0.2,2.4,0.6,2.9
			C416.8,411.1,417.5,411.4,418.4,411.4z M418.6,402.3c0.8,0,1.4-0.3,1.8-0.9c0.4-0.6,0.6-1.6,0.6-3.2c0-1.4-0.2-2.4-0.6-2.9
			c-0.4-0.5-1-0.8-1.9-0.8c-0.8,0-1.4,0.3-1.8,0.8c-0.4,0.5-0.6,1.7-0.6,3.5C416,401.2,416.9,402.3,418.6,402.3z"/>
	</g>
	<g>
		<path fill="#000000" class="st0" d="M379.2,425.3v17.1h3.1v0.7h-8.8v-0.7h3.1v-15.8h-3.1v-0.7h0.5C376,425.8,377.7,425.7,379.2,425.3z"/>
		<path fill="#000000" class="st0" d="M394.3,425.3v12.2h2.3v-2h0.7v4.8h-0.7v-2.1h-2.3v4.1h2v0.7h-6.9v-0.7h2.3v-4.1h-6.3v-0.7
			c3-5.6,5.6-9.7,7.7-12.2H394.3z M391.7,437.5v-9.3h-0.1c-1.5,2.3-3.4,5.4-5.5,9.3H391.7z"/>
		<path fill="#000000" class="st0" d="M405.2,433.6L405.2,433.6c2,0.2,3.3,0.8,4.1,1.7c0.8,0.9,1.1,1.9,1.1,3c0,1.4-0.6,2.6-1.8,3.6
			c-1.2,1-2.6,1.5-4.2,1.5c-1.3,0-2.4-0.3-3.2-1s-1.3-1.4-1.3-2.3c0-0.5,0.1-0.9,0.4-1.2c0.3-0.3,0.6-0.5,1-0.5
			c0.4,0,0.7,0.1,0.9,0.4c0.3,0.3,0.4,0.6,0.4,1c0,0.6-0.2,1-0.7,1.3c-0.3,0.1-0.5,0.2-0.5,0.3c0,0.2,0.3,0.4,0.8,0.7
			c0.6,0.3,1.2,0.5,1.9,0.5c2.2,0,3.3-1.3,3.3-4c0-1.9-0.4-3.2-1.2-3.8c-0.8-0.6-1.7-0.9-2.6-0.9l-1.2,0.1c-0.4,0-0.6-0.1-0.6-0.4
			c0-0.3,0.2-0.4,0.6-0.4c0.1,0,0.4,0,0.9,0.1c0.5,0,0.7,0.1,0.7,0.1c0.3,0,0.7-0.1,1.2-0.4c0.5-0.3,0.9-0.7,1.2-1.2
			c0.3-0.5,0.4-1.3,0.4-2.3c0-1.4-0.2-2.4-0.6-2.8s-1-0.7-1.7-0.7c-0.7,0-1.2,0.1-1.7,0.4c-0.5,0.3-0.7,0.5-0.7,0.7
			c0,0.1,0.2,0.2,0.5,0.4c0.4,0.2,0.5,0.5,0.5,1c0,0.3-0.1,0.6-0.4,0.9s-0.6,0.4-0.9,0.4c-0.4,0-0.7-0.2-0.9-0.5
			c-0.2-0.3-0.4-0.7-0.4-1.1c0-0.7,0.4-1.4,1.2-2c0.8-0.6,1.8-0.9,3-0.9c1.4,0,2.5,0.4,3.4,1.2c0.9,0.8,1.4,1.7,1.4,2.8
			C409.5,431.4,408.1,432.8,405.2,433.6z"/>
		<path fill="#000000" class="st0" d="M414.2,444v-0.6c3.9-0.6,6.2-3.2,6.8-7.7l-0.1-0.1c-0.9,1-1.9,1.4-3,1.4c-1.3,0-2.4-0.6-3.5-1.7
			s-1.6-2.5-1.6-4c0-1.6,0.5-3.1,1.5-4.3c1-1.3,2.3-1.9,3.9-1.9c1.7,0,3.1,0.7,4.2,2.1c1.1,1.4,1.6,3.2,1.6,5.4
			c0,2.8-0.9,5.3-2.8,7.4C419.4,442.3,417,443.6,414.2,444z M421.1,434.7l0.1-4.5c0-2.9-0.9-4.3-2.8-4.3c-0.9,0-1.6,0.4-2,1.1
			c-0.4,0.8-0.6,2.6-0.6,5.4c0,2.7,0.8,4.1,2.3,4.1C419.2,436.5,420.2,435.9,421.1,434.7z"/>
	</g>
	<path fill="#000000" class="st0" d="M225.6,410.6v-16h-2.7v-0.7h9.5c1.2,0,2.3,0.1,3.1,0.3c0.8,0.2,1.5,0.7,2.1,1.3c0.6,0.7,0.9,1.5,0.9,2.3
		c0,1.1-0.4,2-1.3,2.7c-0.8,0.7-2.3,1.2-4.3,1.5v0.1c1.4,0.3,2.6,0.8,3.6,1.7c0.9,0.8,1.4,2.2,1.4,4.2c0,1.1,0.1,1.8,0.4,2.2
		c0.3,0.3,0.6,0.5,1.1,0.5c0.3,0,0.7-0.1,1.1-0.2v0.6c-0.8,0.3-1.5,0.4-2.2,0.4c-1.4,0-2.4-0.4-3-1.2c-0.6-0.8-0.9-1.6-0.9-2.3
		l0.1-2.2c0-0.8-0.2-1.5-0.7-2.3c-0.5-0.7-1.6-1.1-3.3-1.1h-1.6v8.2h2.7v0.7h-8.5v-0.7H225.6z M228.6,394.6v7.2h2.3
		c1,0,1.8-0.1,2.3-0.2c0.5-0.1,0.9-0.5,1.3-1c0.3-0.6,0.5-1.5,0.5-2.7c0-1-0.2-1.7-0.5-2.2c-0.3-0.5-0.7-0.8-1.2-0.9
		c-0.5-0.1-1-0.2-1.8-0.2H228.6z"/>
	<path fill="#000000" class="st0" d="M252.3,405.8h-5.5l-1.8,4.7h3.2v0.7H242v-0.7h2.4l6.3-17.1h0.4l6.1,17.1h2.3v0.7h-8.3v-0.7h2.8L252.3,405.8z
		 M247.1,405.2h5l-2.4-6.9h-0.1L247.1,405.2z"/>
	<polygon class="st0" points="261.1,393.9 267.4,393.9 271.1,406.2 271.1,406.2 274.9,393.9 280.9,393.9 280.9,394.6 278.4,394.6 
		278.4,410.6 280.9,410.6 280.9,411.2 272.8,411.2 272.8,410.6 275.4,410.6 275.4,394.3 275.4,394.3 270.2,411.2 269.6,411.2 
		264.4,394.3 264.4,394.3 264.4,410.6 267,410.6 267,411.2 261.1,411.2 261.1,410.6 263.7,410.6 263.7,394.6 261.1,394.6 	"/>
	<path fill="#000000" class="st0" d="M293.4,405.8h-5.5l-1.8,4.7h3.2v0.7H283v-0.7h2.4l6.3-17.1h0.4l6.1,17.1h2.3v0.7h-8.3v-0.7h2.8L293.4,405.8z
		 M288.1,405.2h5l-2.4-6.9h-0.1L288.1,405.2z"/>
	<path fill="#000000" class="st0" d="M304.9,410.6v-16h-2.7v-0.7h8.2c1.8,0,3.4,0.3,4.6,0.8c1.3,0.5,2.4,1.5,3.2,3c0.9,1.5,1.3,3.1,1.3,4.9
		c0,1.9-0.5,3.5-1.4,5c-0.9,1.5-2,2.4-3.3,3c-1.2,0.5-2.7,0.8-4.5,0.8h-8.1v-0.7H304.9z M308,394.6v16h2.3c1.2,0,2.1-0.1,2.9-0.3
		c0.7-0.2,1.4-0.7,1.9-1.4c0.5-0.7,0.8-1.6,1-2.8c0.2-1.1,0.3-2.6,0.3-4.4c0-2.2-0.3-3.8-0.8-4.8c-0.5-1.1-1.2-1.7-2-2
		c-0.8-0.3-1.8-0.4-3.1-0.4H308z"/>
	<path fill="#000000" class="st0" d="M330.1,405.8h-5.5l-1.8,4.7h3.2v0.7h-6.3v-0.7h2.4l6.3-17.1h0.4l6.1,17.1h2.3v0.7H329v-0.7h2.8L330.1,405.8z
		 M324.8,405.2h5l-2.4-6.9h-0.1L324.8,405.2z"/>
	<polygon class="st0" points="354.2,394.6 354.2,411.6 353.7,411.6 342.3,394.5 342.2,394.5 342.2,410.6 345.1,410.6 345.1,411.2 
		339,411.2 339,410.6 341.5,410.6 341.5,394.6 338.8,394.6 338.8,393.9 345.4,393.9 353.5,406.1 353.5,406.1 353.5,394.6 
		350.7,394.6 350.7,393.9 356.8,393.9 356.8,394.6 	"/>
	<polygon class="st0" points="222.3,425.7 228.5,425.7 232.2,437.9 232.2,437.9 236,425.7 242,425.7 242,426.3 239.5,426.3 
		239.5,442.4 242,442.4 242,443 233.9,443 233.9,442.4 236.5,442.4 236.5,426 236.5,426 231.3,443 230.7,443 225.6,426 225.5,426 
		225.5,442.4 228.2,442.4 228.2,443 222.3,443 222.3,442.4 224.9,442.4 224.9,426.3 222.3,426.3 	"/>
	<path fill="#000000" class="st0" d="M259.3,426.3h-2.8v-0.7h6.2v0.7h-2.7v10.5c0,1.5-0.1,2.6-0.3,3.4c-0.2,0.7-0.6,1.3-1.2,1.8
		c-0.6,0.5-1.3,0.8-2.2,1.1c-0.8,0.2-1.7,0.3-2.6,0.3c-1.9,0-3.3-0.3-4.2-0.9c-0.9-0.6-1.4-1.3-1.6-2.2c-0.2-0.9-0.3-2-0.3-3.5
		v-10.5h-2.5v-0.7h8.3v0.7h-2.7v10.2c0,1.4,0.1,2.5,0.2,3.3c0.1,0.8,0.5,1.5,1,2c0.6,0.5,1.5,0.8,2.7,0.8c1,0,1.9-0.2,2.7-0.6
		c0.8-0.4,1.3-1,1.7-1.6c0.3-0.7,0.5-2,0.5-3.9V426.3z"/>
	<path fill="#000000" class="st0" d="M267.5,442.4v-16h-2.7v-0.7h9c1,0,1.8,0,2.5,0.1c0.7,0.1,1.3,0.4,1.9,0.8c0.6,0.4,1.1,0.9,1.3,1.5
		c0.3,0.6,0.4,1.2,0.4,1.7c0,2.1-1.6,3.4-4.7,4v0.1c3.6,0.6,5.4,2.1,5.4,4.4c0,0.6-0.2,1.2-0.5,1.9c-0.3,0.7-0.8,1.2-1.5,1.7
		c-0.7,0.5-1.4,0.8-2.1,0.9c-0.7,0.1-1.6,0.2-2.7,0.2h-8.8v-0.7H267.5z M273.2,426.3h-2.7v7.3h2.4c1.6,0,2.6-0.3,3.1-0.9
		s0.7-1.6,0.7-3c0-1.1-0.1-1.8-0.4-2.3c-0.3-0.5-0.7-0.8-1.1-0.9C274.7,426.4,274.1,426.3,273.2,426.3z M272.9,434.3h-2.4v8.1h2.4
		c0.9,0,1.6-0.1,2.2-0.2c0.5-0.1,1-0.5,1.4-1.1c0.4-0.6,0.6-1.5,0.6-2.8c0-1.4-0.3-2.4-0.9-3C275.7,434.6,274.6,434.3,272.9,434.3z"
		/>
	<path fill="#000000" class="st0" d="M291.6,437.6h-5.5l-1.8,4.7h3.2v0.7h-6.3v-0.7h2.4l6.3-17.1h0.4l6.1,17.1h2.3v0.7h-8.3v-0.7h2.8L291.6,437.6z
		 M286.4,437h5L289,430h-0.1L286.4,437z"/>
	<path fill="#000000" class="st0" d="M303.8,442.4v-16h-2.7v-0.7h9.5c1.2,0,2.3,0.1,3.1,0.3c0.8,0.2,1.5,0.7,2.1,1.3c0.6,0.7,0.9,1.5,0.9,2.3
		c0,1.1-0.4,2-1.3,2.7c-0.8,0.7-2.3,1.2-4.3,1.5v0.1c1.4,0.3,2.6,0.8,3.6,1.7c0.9,0.8,1.4,2.2,1.4,4.2c0,1.1,0.1,1.8,0.4,2.2
		c0.3,0.3,0.6,0.5,1.1,0.5c0.3,0,0.7-0.1,1.1-0.2v0.6c-0.8,0.3-1.5,0.4-2.2,0.4c-1.4,0-2.4-0.4-3-1.2c-0.6-0.8-0.9-1.6-0.9-2.3
		l0.1-2.2c0-0.8-0.2-1.5-0.7-2.3c-0.5-0.7-1.6-1.1-3.3-1.1h-1.6v8.2h2.7v0.7h-8.5v-0.7H303.8z M306.9,426.3v7.2h2.3
		c1,0,1.8-0.1,2.3-0.2c0.5-0.1,0.9-0.5,1.3-1c0.3-0.6,0.5-1.5,0.5-2.7c0-1-0.2-1.7-0.5-2.2c-0.3-0.5-0.7-0.8-1.2-0.9
		c-0.5-0.1-1-0.2-1.8-0.2H306.9z"/>
	<path fill="#000000" class="st0" d="M330.5,437.6H325l-1.8,4.7h3.2v0.7h-6.3v-0.7h2.4l6.3-17.1h0.4l6.1,17.1h2.3v0.7h-8.3v-0.7h2.8L330.5,437.6z
		 M325.3,437h5l-2.4-6.9h-0.1L325.3,437z"/>
	<path fill="#000000" class="st0" d="M342.8,442.4v-16h-2.7v-0.7h8.5v0.7h-2.7v16h2.7v0.7h-8.5v-0.7H342.8z M350.5,425.7h6.5v0.7h-2.7l-5.7,5.9
		l8.4,10.1h1.7v0.7h-8.5v-0.7h3l-7-8.6l7.2-7.5h-2.9V425.7z"/>
	<path fill="#000000" class="st0" d="M392.6,369.2c-1.3-1.3-2.9-1.9-4.8-1.9c-1.9,0-3.6,0.7-4.9,2c-1.3,1.3-2,3-2,4.9l0,0.2l0,0v2.9
		c0,1.3-0.7,2.5-2,2.9c-0.3,0.1-0.6,0.1-0.9,0.1c-0.7,0-1.1-0.3-1.3-0.8c-0.2-0.5-0.2-1.5-0.2-2.8v-9.5l-3.2,0.8v8.1l0,0.3v0.8
		c0,1.3-0.7,2.5-2,2.9c-0.3,0.1-0.5,0.1-0.8,0.1l-91.9,0c-0.7,0-1.1-0.3-1.3-0.8c-0.2-0.5-0.2-1.5-0.2-2.8V362l-3.2,0.8v13.3
		c0,2.1,0.4,3.4,1.1,4.1c0.7,0.6,1.7,1,3,1l92,0c1,0,1.9-0.3,2.6-0.8c0.5-0.3,0.9-0.8,1.2-1.3c0.2,0.4,0.4,0.8,0.7,1.1
		c0.7,0.6,1.7,1,3,1c1.1,0,2-0.3,2.8-0.8c0.9-0.6,1.5-1.6,1.8-2.6c0.3,0.4,0.6,0.9,1,1.2c1.3,1.3,2.9,2,4.8,2c1.9,0,3.5-0.7,4.9-2.1
		c1.4-1.4,2.1-3.1,2.1-5C394.5,372.1,393.9,370.4,392.6,369.2z M390.6,378.2c-0.1,0.7-0.5,1.2-1,1.6c-0.5,0.4-1.2,0.6-1.9,0.6
		c-0.8,0-1.4-0.2-1.9-0.6c-0.5-0.4-0.8-0.9-1-1.6c-0.2-0.7-0.2-2-0.2-4.1c0-2,0.1-3.4,0.2-4c0.1-0.7,0.4-1.2,1-1.6
		c0.5-0.4,1.2-0.6,2-0.6c0.8,0,1.5,0.2,2,0.6c0.5,0.4,0.8,0.9,0.9,1.5c0.1,0.7,0.2,2,0.2,4C390.8,376.1,390.7,377.5,390.6,378.2z"/>
	<path fill="#000000" class="st0" d="M310.9,383.4c-0.9,0-1.7,0.3-2.3,1c-0.6,0.6-0.9,1.4-0.9,2.3c0,0.9,0.3,1.7,1,2.4c0.6,0.6,1.4,1,2.3,1
		c0.9,0,1.7-0.3,2.3-1c0.7-0.7,1-1.5,1-2.4c0-0.9-0.3-1.7-0.9-2.3C312.6,383.8,311.8,383.4,310.9,383.4z"/>
	<path fill="#000000" class="st0" d="M266,378.3l0,4.7c0,1-0.8,1.8-1.8,1.8l-0.5,0c0,0-0.6,0-0.6-0.4c0-0.1,0.1-0.3,0.2-0.6c0.3-0.5,0.3-1-0.1-1.5
		c-0.5-0.5-1.5-0.4-2,0.1c-0.7,0.7-0.4,1.9,0.2,2.6c0.7,0.7,2.3,0.6,2.3,0.6l0.9,0c2.6,0,4.7-2.1,4.7-4.7v-5.3v-8.3l-3.2,1.1V378.3z
		"/>
	<path fill="#000000" class="st0" d="M257.5,373.9c0,3.6-2.9,6.4-6.5,6.4h-21.5c-1,0-1.7-0.2-2.1-0.7c-0.5-0.5-0.7-1.3-0.8-2.3
		c-0.1-1-0.2-2.4-0.2-4.4c0-2,0.3-3.3,0.8-3.9c0.6-0.6,1.4-0.9,2.6-0.9H241v0h3.8h3.3c0,0-0.1,2.7-0.1,4.7c0,2-0.3,3.3-0.8,3.9
		c-0.5,0.6-1.3,0.9-2.4,0.9l-4.5,0c-0.7,0-1.2-0.1-1.6-0.3c-0.4-0.2-0.6-0.5-0.6-0.8c0-0.1,0.1-0.3,0.4-0.7c0.3-0.3,0.4-0.7,0.4-1
		c0-0.5-0.2-0.9-0.5-1.2c-0.3-0.3-0.7-0.4-1.2-0.4c-0.5,0-0.9,0.2-1.2,0.5c-0.3,0.4-0.5,0.8-0.5,1.2c0,0.9,0.4,1.7,1.3,2.4
		c0.9,0.7,2,1.1,3.4,1.1l4.5,0c1.9-0.1,3.4-0.8,4.7-2.1c1.3-1.4,2-3,2-4.9l0-4H245H241h-6.5h-4.8c-2,0-3.6,0.7-4.9,2.1
		c-1.3,1.4-2,3-2,4.9c0,1.8,0.6,3.4,1.9,4.8c1.3,1.4,2.9,2.1,4.7,2.1h0.8h7.3h16c3.9,0,7.1-3.2,7.1-7.2v-12l-3.2,1.1V373.9z"/>
	<path fill="#000000" class="st0" d="M240.9,373.9c-0.1-0.8-0.4-1.6-1-2.2c-0.6-0.6-1.4-1-2.3-1.1c-0.9-0.1-1.8,0.1-2.6,0.6
		c-0.8,0.5-1.3,1.2-1.6,2.1c-0.3,0.8-0.3,1.8,0,2.6c0.6,1.7,2.4,2.6,3.8,2.2c-1.4-0.4-2.4-1.5-2.6-2.6c-0.2-1.1,0.3-2.3,1.2-2.8
		c0.9-0.6,2.2-0.6,3.1,0.1c0.9,0.7,1.5,2,1.2,3.4C240.7,375.5,240.9,374.7,240.9,373.9z"/>
	<path fill="#000000" class="st0" d="M383.8,362c0.1-0.4,0.2-0.9,0.2-1.4c0-0.9-0.2-1.7-0.7-2.4c-0.5-0.6-1-0.9-1.8-0.9c-0.6,0-1.2,0.3-1.7,0.8
		c-0.5,0.5-0.7,1.2-0.7,1.9c0,0.6,0.2,1.2,0.5,1.6c0.5,0.6,1,0.9,1.6,0.9c0.5,0,0.9-0.2,1.3-0.6l0,0c0,0.3-0.1,0.5-0.1,0.7
		c-0.1,0.5-0.5,0.9-1,1.1l-2.3,0.9v0.6l2.6-1C382.7,363.8,383.5,363,383.8,362z M382.6,360.6c0,0.4-0.2,0.8-0.6,1.1l-0.6,0.2
		c-0.3,0-0.5-0.1-0.7-0.3c-0.2-0.2-0.2-0.8-0.2-1.7c0-0.8,0.1-1.4,0.3-1.7c0.2-0.3,0.4-0.4,0.8-0.4c0.2,0,1.1,0.1,1.1,2.3v0.2
		L382.6,360.6z"/>
</g>
<path fill="#000000" d="M273.602,481.306c-0.578-0.576-1.301-1.03-2.174-1.362c-0.873-0.331-1.885-0.497-3.039-0.497
	c-0.663,0-1.463,0.079-2.4,0.238v-6.077h-1.535v17.711c0.706,0.202,1.402,0.354,2.087,0.454s1.301,0.151,1.849,0.151
	c1.153,0,2.166-0.162,3.039-0.486s1.596-0.764,2.174-1.319c0.576-0.555,1.006-1.211,1.287-1.968s0.42-1.561,0.42-2.411
	s-0.139-1.657-0.42-2.422C274.608,482.554,274.178,481.883,273.602,481.306z M272.391,489.167c-0.852,0.829-2.17,1.243-3.958,1.243
	c-0.39,0-0.805-0.032-1.244-0.097c-0.439-0.065-0.84-0.134-1.2-0.206v-8.845c0.447-0.115,0.887-0.194,1.319-0.237
	c0.433-0.044,0.808-0.065,1.125-0.065c0.894,0,1.668,0.112,2.325,0.335c0.656,0.224,1.199,0.545,1.633,0.963
	c0.432,0.418,0.752,0.919,0.961,1.503s0.314,1.243,0.314,1.979C273.667,487.195,273.241,488.338,272.391,489.167z M247.392,479.446
	c-0.62,0-1.297,0.079-2.033,0.238c-0.735,0.158-1.485,0.433-2.249,0.821l-0.065,1.73c0.548-0.303,0.973-0.52,1.276-0.649
	s0.624-0.237,0.962-0.324c0.338-0.086,0.677-0.158,1.016-0.216s0.667-0.087,0.984-0.087c1.139,0,1.982,0.249,2.53,0.746
	s0.822,1.33,0.822,2.498v0.13c-0.332-0.044-0.732-0.087-1.2-0.13c-0.469-0.043-0.876-0.065-1.222-0.065
	c-1.831,0-3.302,0.311-4.412,0.931c-1.11,0.619-1.665,1.644-1.665,3.07c0,0.707,0.155,1.305,0.465,1.795
	c0.31,0.49,0.713,0.88,1.211,1.168s1.067,0.497,1.708,0.627c0.641,0.13,1.308,0.194,2,0.194c0.807,0,1.6-0.072,2.378-0.216
	c0.779-0.145,1.536-0.368,2.271-0.671v-7.028c0-1.585-0.397-2.742-1.189-3.471C250.189,479.811,248.992,479.446,247.392,479.446z
	 M250.636,489.892c-0.375,0.144-0.858,0.267-1.449,0.367c-0.591,0.102-1.183,0.151-1.773,0.151c-0.505,0-0.984-0.035-1.438-0.108
	c-0.454-0.071-0.84-0.197-1.157-0.378c-0.317-0.18-0.57-0.414-0.757-0.703c-0.188-0.288-0.281-0.663-0.281-1.124
	c0-0.52,0.111-0.934,0.335-1.244c0.224-0.31,0.533-0.551,0.93-0.724c0.396-0.174,0.85-0.296,1.362-0.368
	c0.511-0.072,1.041-0.108,1.589-0.108c0.476,0,0.984,0.029,1.524,0.087c0.541,0.058,0.912,0.108,1.114,0.151V489.892z
	 M258.032,479.868c-0.649,0.122-1.276,0.263-1.881,0.422v11.418h1.535v-10.186c0.202-0.072,0.563-0.147,1.082-0.228
	c0.519-0.079,1.002-0.118,1.449-0.118h1.989v-1.492H260C259.336,479.685,258.681,479.746,258.032,479.868z M-77.92,487.667
	l241.145,0.656l0.663-0.433l-0.632-0.564L-77.92,487.667z M164.994,487.825l1.95,1.95l1.95-1.95l-1.95-1.95L164.994,487.825z
	 M169.559,487.825l3.057,3.057l3.057-3.057l-3.057-3.057L169.559,487.825z M212.359,489.286l-3.395-9.602h-1.514l-3.396,9.602
	l-2.984-9.602h-1.73l3.979,12.023h1.428l3.46-9.645l3.46,9.645h1.427l3.979-12.023h-1.73L212.359,489.286z M238.418,489.589
	c-0.317,0-0.591,0.115-0.822,0.346c-0.231,0.23-0.346,0.505-0.346,0.822c0,0.316,0.115,0.591,0.346,0.821
	c0.23,0.23,0.504,0.346,0.822,0.346c0.317,0,0.591-0.115,0.822-0.346c0.23-0.23,0.346-0.505,0.346-0.821
	c0-0.317-0.116-0.592-0.346-0.822C239.009,489.704,238.735,489.589,238.418,489.589z M193.243,489.286l-3.395-9.602h-1.514
	l-3.396,9.602l-2.984-9.602h-1.73l3.979,12.023h1.428l3.46-9.645l3.46,9.645h1.427l3.979-12.023h-1.73L193.243,489.286z
	 M231.476,489.286l-3.395-9.602h-1.514l-3.396,9.602l-2.984-9.602h-1.73l3.979,12.023h1.428l3.46-9.645l3.46,9.645h1.427
	l3.979-12.023h-1.73L231.476,489.286z M382.732,480.474c-0.426-0.396-0.938-0.667-1.535-0.812c-0.598-0.144-1.271-0.216-2.021-0.216
	c-0.664,0-1.393,0.09-2.184,0.271c-0.793,0.181-1.471,0.4-2.033,0.659c-0.346-0.331-0.818-0.569-1.416-0.714
	c-0.6-0.144-1.273-0.216-2.023-0.216c-0.635,0-1.268,0.058-1.902,0.173l-2.465,0.454v11.635h1.535v-10.38
	c0.447-0.102,0.883-0.188,1.309-0.26c0.424-0.072,0.896-0.108,1.416-0.108c0.605,0,1.125,0.058,1.557,0.173
	c0.434,0.116,0.789,0.321,1.07,0.616c0.281,0.296,0.494,0.711,0.639,1.244s0.217,1.24,0.217,2.119v6.596h1.535v-7.201
	c0-0.663-0.055-1.243-0.162-1.741c-0.109-0.497-0.213-0.861-0.314-1.092c0.086-0.043,0.281-0.119,0.584-0.228
	c0.303-0.107,0.602-0.197,0.898-0.27c0.295-0.072,0.586-0.126,0.875-0.162s0.547-0.055,0.779-0.055c0.59,0,1.102,0.058,1.535,0.173
	c0.432,0.116,0.781,0.317,1.049,0.605c0.266,0.289,0.471,0.703,0.615,1.244c0.145,0.54,0.217,1.251,0.217,2.13v6.596h1.535v-7.201
	c0-0.995-0.111-1.816-0.336-2.466C383.482,481.393,383.158,480.87,382.732,480.474z M280.1,474.581
	c-0.785,0.648-1.18,1.729-1.18,3.243v1.86h-2.551v1.492h2.551v10.531h1.537v-10.531h4.973v-1.492h-4.973v-1.471
	c0-0.635,0.045-1.149,0.141-1.546c0.094-0.396,0.24-0.707,0.443-0.931c0.201-0.223,0.475-0.385,0.82-0.486
	c0.346-0.101,0.779-0.151,1.299-0.151h2.422v-1.492h-2.271C281.956,473.607,280.885,473.932,280.1,474.581z M398.273,487.825
	l3.057,3.057l3.057-3.057l-3.057-3.057L398.273,487.825z M343.322,482.322c0.389-0.418,0.854-0.749,1.395-0.994
	s1.135-0.368,1.783-0.368c0.736,0,1.373,0.076,1.914,0.228s1.121,0.414,1.74,0.789l0.715-1.405c-0.707-0.39-1.393-0.674-2.055-0.854
	c-0.664-0.181-1.436-0.271-2.314-0.271c-0.85,0-1.639,0.155-2.367,0.465c-0.729,0.311-1.367,0.746-1.914,1.309
	c-0.549,0.563-0.98,1.222-1.297,1.979c-0.317,0.757-0.476,1.59-0.476,2.498s0.158,1.74,0.476,2.497
	c0.316,0.757,0.748,1.413,1.297,1.969c0.547,0.555,1.186,0.987,1.914,1.297c0.729,0.311,1.518,0.465,2.367,0.465
	c0.879,0,1.65-0.09,2.314-0.27c0.662-0.181,1.348-0.466,2.055-0.854l-0.715-1.406c-0.619,0.375-1.199,0.639-1.74,0.79
	s-1.178,0.227-1.914,0.227c-0.648,0-1.242-0.119-1.783-0.356c-0.541-0.238-1.006-0.565-1.395-0.984
	c-0.391-0.418-0.693-0.915-0.908-1.492c-0.217-0.576-0.324-1.203-0.324-1.881s0.107-1.305,0.324-1.882
	C342.628,483.238,342.931,482.741,343.322,482.322z M404.387,487.825l1.949,1.95l1.951-1.95l-1.951-1.95L404.387,487.825z
	 M410.701,487.326l-0.664,0.433l0.633,0.564l241.176-0.341L410.701,487.326z M362.611,481.295c-0.549-0.569-1.193-1.02-1.936-1.352
	c-0.742-0.331-1.547-0.497-2.412-0.497c-0.863,0-1.668,0.166-2.41,0.497c-0.742,0.332-1.389,0.782-1.936,1.352
	c-0.549,0.57-0.977,1.229-1.287,1.979c-0.311,0.749-0.465,1.557-0.465,2.422s0.154,1.672,0.465,2.422s0.738,1.409,1.287,1.979
	c0.547,0.569,1.193,1.017,1.936,1.341s1.547,0.486,2.41,0.486c0.865,0,1.67-0.162,2.412-0.486s1.387-0.771,1.936-1.341
	c0.547-0.569,0.977-1.229,1.287-1.979c0.309-0.75,0.465-1.557,0.465-2.422s-0.156-1.673-0.465-2.422
	C363.587,482.524,363.158,481.865,362.611,481.295z M362.394,487.523c-0.217,0.569-0.52,1.067-0.908,1.492
	c-0.389,0.426-0.857,0.765-1.406,1.017c-0.547,0.252-1.152,0.378-1.816,0.378c-0.662,0-1.268-0.126-1.816-0.378
	c-0.547-0.252-1.016-0.591-1.404-1.017c-0.391-0.425-0.693-0.923-0.908-1.492c-0.217-0.569-0.324-1.179-0.324-1.827
	c0-0.649,0.107-1.262,0.324-1.839c0.215-0.576,0.518-1.077,0.908-1.503c0.389-0.425,0.857-0.764,1.404-1.016
	c0.549-0.252,1.154-0.379,1.816-0.379c0.664,0,1.27,0.127,1.816,0.379c0.549,0.252,1.018,0.591,1.406,1.016
	c0.389,0.426,0.691,0.927,0.908,1.503c0.217,0.577,0.324,1.189,0.324,1.839C362.718,486.345,362.611,486.954,362.394,487.523z
	 M296.221,481.295c-0.547-0.569-1.191-1.02-1.936-1.352c-0.742-0.331-1.545-0.497-2.41-0.497s-1.67,0.166-2.412,0.497
	c-0.742,0.332-1.387,0.782-1.936,1.352c-0.547,0.57-0.977,1.229-1.285,1.979c-0.311,0.749-0.465,1.557-0.465,2.422
	s0.154,1.672,0.465,2.422c0.309,0.75,0.738,1.409,1.285,1.979c0.549,0.569,1.193,1.017,1.936,1.341s1.547,0.486,2.412,0.486
	s1.668-0.162,2.41-0.486c0.744-0.324,1.389-0.771,1.936-1.341c0.549-0.569,0.977-1.229,1.287-1.979s0.465-1.557,0.465-2.422
	s-0.154-1.673-0.465-2.422C297.198,482.524,296.77,481.865,296.221,481.295z M296.006,487.523c-0.217,0.569-0.52,1.067-0.908,1.492
	c-0.391,0.426-0.859,0.765-1.406,1.017c-0.549,0.252-1.154,0.378-1.816,0.378c-0.664,0-1.27-0.126-1.816-0.378
	c-0.549-0.252-1.018-0.591-1.406-1.017c-0.389-0.425-0.691-0.923-0.908-1.492s-0.324-1.179-0.324-1.827
	c0-0.649,0.107-1.262,0.324-1.839c0.217-0.576,0.52-1.077,0.908-1.503c0.389-0.425,0.857-0.764,1.406-1.016
	c0.547-0.252,1.152-0.379,1.816-0.379c0.662,0,1.268,0.127,1.816,0.379c0.547,0.252,1.016,0.591,1.406,1.016
	c0.389,0.426,0.691,0.927,0.908,1.503c0.215,0.577,0.324,1.189,0.324,1.839C296.331,486.345,296.221,486.954,296.006,487.523z
	 M309.381,480.463c-0.455-0.39-0.996-0.656-1.623-0.801c-0.627-0.144-1.309-0.216-2.043-0.216c-0.707,0-1.465,0.047-2.271,0.141
	s-1.701,0.234-2.682,0.422v11.699h1.535v-10.402c1.184-0.23,2.293-0.346,3.33-0.346c0.592,0,1.111,0.062,1.559,0.184
	c0.445,0.123,0.818,0.332,1.113,0.628c0.295,0.295,0.525,0.713,0.691,1.254s0.25,1.251,0.25,2.13v6.553h1.535v-7.201
	c0-0.995-0.119-1.82-0.357-2.477C310.18,481.375,309.834,480.852,309.381,480.463z M318.516,490.054
	c-0.346-0.108-0.619-0.277-0.82-0.509c-0.203-0.23-0.35-0.547-0.443-0.951c-0.096-0.403-0.141-0.922-0.141-1.557v-5.86h4.973v-1.492
	h-4.973v-4.347h-1.537v4.347h-2.551v1.492h2.551v6.466c0,0.764,0.109,1.405,0.326,1.925c0.215,0.519,0.525,0.937,0.93,1.254
	c0.402,0.317,0.867,0.544,1.395,0.682c0.525,0.137,1.105,0.205,1.74,0.205h2.271v-1.492h-2.422
	C319.295,490.216,318.862,490.162,318.516,490.054z M337.784,489.589c-0.316,0-0.59,0.115-0.82,0.346s-0.346,0.505-0.346,0.822
	c0,0.316,0.115,0.591,0.346,0.821s0.504,0.346,0.82,0.346c0.318,0,0.592-0.115,0.822-0.346s0.346-0.505,0.346-0.821
	c0-0.317-0.115-0.592-0.346-0.822S338.102,489.589,337.784,489.589z M333.178,486.106c-0.346-0.303-0.785-0.565-1.318-0.789
	c-0.533-0.223-1.182-0.422-1.947-0.595l-0.799-0.173c-1.053-0.216-1.781-0.461-2.184-0.735c-0.404-0.273-0.607-0.678-0.607-1.211
	c0-0.504,0.238-0.904,0.715-1.2c0.475-0.295,1.174-0.443,2.098-0.443c0.793,0,1.477,0.076,2.055,0.228
	c0.576,0.151,1.217,0.421,1.924,0.811l0.691-1.405c-1.412-0.765-2.969-1.146-4.67-1.146c-0.635,0-1.223,0.076-1.764,0.228
	c-0.539,0.151-1.008,0.364-1.404,0.638s-0.711,0.605-0.941,0.994c-0.23,0.39-0.346,0.815-0.346,1.276
	c0,0.462,0.072,0.88,0.217,1.254c0.143,0.375,0.381,0.707,0.713,0.995s0.758,0.537,1.275,0.746c0.52,0.209,1.146,0.4,1.883,0.573
	l0.908,0.194c1.008,0.217,1.729,0.49,2.162,0.822c0.432,0.331,0.648,0.771,0.648,1.318c0,0.39-0.086,0.707-0.26,0.952
	c-0.172,0.245-0.414,0.436-0.725,0.573c-0.311,0.137-0.678,0.237-1.102,0.303c-0.426,0.064-0.877,0.097-1.352,0.097
	c-0.592,0-1.223-0.09-1.893-0.271c-0.67-0.18-1.352-0.479-2.045-0.897l-0.734,1.471c0.779,0.433,1.539,0.742,2.281,0.93
	s1.539,0.281,2.391,0.281c0.748,0,1.434-0.072,2.053-0.216c0.621-0.145,1.158-0.36,1.611-0.648c0.455-0.289,0.805-0.649,1.049-1.082
	c0.246-0.433,0.369-0.93,0.369-1.492c0-0.476-0.072-0.915-0.217-1.318C333.77,486.763,333.526,486.41,333.178,486.106z"/>
</svg>

