<?xml version="1.0" encoding="utf-8"?>
<!-- Generator: Adobe Illustrator 22.1.0, SVG Export Plug-In . SVG Version: 6.00 Build 0)  -->
<svg version="1.1" id="Layer_1" xmlns="http://www.w3.org/2000/svg" xmlns:xlink="http://www.w3.org/1999/xlink" x="0px" y="0px"
	 viewBox="0 0 800 500" style="enable-background:new 0 0 800 500;" xml:space="preserve">
<g>
	<path fill="#000000" d="M409,88.6c1.2,0,1.8,0.7,1.8,2.2c0,9-10.3,20.9-30.9,35.9v0.7c6.3,0,17.5,13.9,33.7,41.6h0.9l16.9-9.9l-17.8-17.5v-0.7
		c1,0,2.6-1.9,4.8-5.7h1.8c5,0,11,6.6,17.8,19.7h0.9c13.6-8.5,21.7-12.7,24.3-12.7l2.9,1.5c-2,2.6-10.7,8-26.3,16.2l0.9,3.5v2.2
		c-1.2,10.3-3.1,15.4-5.7,15.4h-0.9l0.9-10.5v-5.7l-1.8-1.5c-11.3,6.7-16.9,10.5-16.9,11.4l13.2,20.4c47.2-29.2,78.8-43.8,94.7-43.8
		h4.6c15,0,24.9,4.2,30,12.7c1.2,1.8,1.8,4.4,1.8,7.7v3.5c-15.8,12.1-47.3,32.1-94.5,59.9l-13.2,8.5c4.2,8.5,6.7,12.7,7.5,12.7
		c10.5-16.4,20.8-24.6,30.9-24.6c5.6,2.3,8.5,7,8.5,14v0.7h-0.9l-8.5-1.3c-6.9,0-14.7,6.8-23.4,20.4c4.8,2.3,8.5,3.5,11.2,3.5
		c9.4,0,21.3-9.6,35.7-28.9h0.9c8.1,8.5,15.9,12.7,23.4,12.7h1.8c8.6-27,16.7-43.6,24.5-50c6.4-5.1,15.1-7.7,26.1-7.7
		c23.2,0,34.8,8,34.8,23.9c0,15.2-15,29.3-45.1,42.3c-12.6,3.7-23.8,5.5-33.7,5.5h-1.8v2.9c0,9.8,5.6,14.7,16.7,14.7h2
		c22.8,0,47.4-10.3,73.9-30.9c-5.6-11.5-8.5-19.8-8.5-24.8c0-13.6,4.1-20.4,12.3-20.4c9.3,0,16.8,8.2,22.4,24.6l0.9,5.7
		c0,7.6-5.3,15.6-15.8,23.9l1.8,5.7h-0.9c-1.6,0-2.6-0.9-2.9-2.8h-1.8c-23,16.2-43,26.2-59.9,30.2c-10.7,1.5-16,5-16,10.7v0.7
		c0,3.1,1.3,5.1,3.9,6.3c1.2,0,3.7-1.9,7.4-5.7v4.2c0,4.9-1.2,11.5-3.7,19.9c2.9,15.9,10.7,23.9,23.4,23.9
		c16.1-0.6,40.1-10.5,72.3-29.6l5.7-7.7c-2.2-3.9-10.1-12.1-23.5-24.6c-3.1-5.1-4.6-8.7-4.6-10.7v-2.8l0.9-7h1.8
		c8.1,4.9,14.6,9.6,19.7,14h-7.5c11.6,11.3,17.6,20,17.8,26.1c0,20.2-22.5,38.3-67.5,54.2l-8.5,1.5h-4.6l-6.6-0.7v0.7
		c-15-5.5-22.4-16.1-22.4-31.8l2.8-18.9l-10.3,3.5l-9.4,16.2c-6.4,6.1-14.2,9.2-23.5,9.2h-6.4c-6.3,0-12.8-2.6-19.7-7.7
		c-6.1,5.1-12.4,7.7-18.8,7.7h-9.4c-13.1,0-22.2-7.3-27.2-21.9l-8.5-7h0.9c2.3,0,5.1,2.1,8.5,6.3c4.2-5.1,9.2-7.7,15.1-7.7
		c3.6,1,9.8,4.7,18.8,11.2h1.8v0.7c-1,2-3.2,2.9-6.6,2.9h-2.8l-5.7-1.5l-7.5,0.7c-2.5,0-4.3-1-5.5-2.9v-2.8l0.9,0.7h5.7l0.9-0.7
		l0.9-2h0.9c-0.9-2.3-3.1-3.5-6.6-3.5c-4.3,0-6.8,2.6-7.5,7.7c0,7.8,7.5,13.7,22.6,17.5l6.4,0.7c7.1,0,14.3-2.6,21.7-7.7
		c-3.8-4.5-5.7-9-5.7-13.4v-2.8c1.7-7,3.6-10.5,5.7-10.5l-7.5-7.2h0.9l8.5,5l8.5-5.7h0.9l-8.5,7.2c3.8,5.1,5.7,9.1,5.7,12v2.8
		c0,3.1-1.6,7.5-4.8,13.4c6.9,4.7,14,7,21.5,7c13.4,0,22.4-5.4,27.2-16.2v-4.2c0-3.7-3.1-5.5-9.4-5.5c-2.5,0.9-3.7,2-3.7,3.5
		l2.8,2.8h3.7l2.9-1.5v0.7c0,3.8-2.5,5.7-7.5,5.7l-6.6-0.7l-5.5,1.5h-2c-3.3,0-5.5-1-6.4-2.9V328c1.2,0,7.2-3.5,17.8-10.5l3.7-0.7
		c8.1,1.1,12.1,3.7,12.1,7.7l7.5-5.5l-2.8-7.7l2.8-13.4h-1.8c-13.1,0-21.9-8.2-26.3-24.6v-6.4c-7.1,0-14.9-4-23.4-12h-0.9
		c-5.1,18.4-15.8,27.6-32,27.6h-4.6c-5.1,0-10.8-2.6-16.9-7.9h-0.9c-9.9,21-24.3,43.5-43,67.7L393,365.4v0.7c0,0.7,1.2,1.5,3.7,2.2
		c0-1.3,2.8-3.7,8.5-7.2h0.9l-8.5,8.5c5.6,4.9,8.5,10.1,8.5,15.6c0,3.6-1.2,7.3-3.7,11.2c5.9,3.8,11.2,5.7,16,5.7h5.5
		c17.5-3.3,26.3-9.2,26.3-17.7V383c0-5.6-2.8-8.5-8.5-8.5H439l-2.9,2.2c0.5,2.8,1.5,4.2,2.9,4.2h3.7l2.8-1.5h1.1c0,4.7-3.5,7-10.5,7
		l-0.9-0.6h-0.9l-7.4,2h-2.9c-3.2,0-5-0.7-5.5-2v-0.7c1.2,0,6.8-4.2,16.7-12.7h5.7c3.6,0,7.3,1.8,11.2,5.5l0.9-0.6
		c-1-3.6-4.1-7.4-9.4-11.4h0.9c2.5,0,5,1.9,7.5,5.7c4-4.7,8.1-7,12.1-7h4.8c11.3,7.5,17.8,11.2,19.7,11.2v0.7l-8.5,2.8
		c-5-0.6-7.5-1.3-7.5-2L468,378h-4.8c-2,0-3.2-1.6-3.7-4.8l-3.7,2.8v1.5c4.3,10.3,13.3,15.4,27,15.4h2.9c6.1,0,12.7-2.6,19.7-7.7
		c-3.8-4.8-5.7-8.6-5.7-11.4v-2.8c0-4.3,1.9-8.8,5.7-13.4l-6.6-5.5h0.9l6.6,4.2h1.8c0-1.2,1.9-2.6,5.7-4.2h0.9l-6.6,5.5v0.7
		c3.8,3.9,5.7,8.4,5.7,13.4v0.7c0,4.8-1.6,8.8-4.8,12v0.7c4.5,5.1,11.4,7.7,20.6,7.7h2.8c6.1,0,11.2-1.7,15.1-5l-6.6-3.5v-0.7h2
		l6.4,3.5c5.6-3.2,8.5-6.9,8.5-11.2v-5l-4.6-3.5h-5.7l-2.8,2c0,2.8,1.8,4.2,5.5,4.2l3.9-1.3v2c-1.2,2.3-3.4,3.5-6.6,3.5h-2.8
		l-3.9-0.6l-7.4,2c-3.2,0-5.7-1.2-7.5-3.5l18.8-11.2h4.6c6.9,0.9,10.3,3.2,10.3,7h1.8c0-1.5,2.2-3.4,6.6-5.7h1.8
		c-4.7,2.5-8.4,7.4-11.2,14.9l-0.9,2l4.8-0.7h1.8c3.1,0,9.9,3.8,20.6,11.4h1.8c0,1.5-3.1,2.6-9.4,3.5l-7.5-2.2l-4.6,1.5
		c-5,0-7.5-1.7-7.5-5v-1.3l2.8,1.3h0.9c3.4,0,5.3-1.2,5.7-3.5c-1-1.8-1.9-2.8-2.8-2.8h-3.9c-4.9,0-7.4,2.6-7.4,7.7
		c2.3,9.3,8.6,14,18.8,14l20.6,2.2c2.8-0.6,6.6-2.8,11.2-6.4c-3.8-4.3-5.7-8.7-5.7-13.2v-2.2c0-3.2,1.9-6.9,5.7-11.2l-6.6-6.4h0.9
		c3.8,1.8,5.7,3.3,5.7,4.2h1.8l6.6-4.2h0.9c-4.4,3.4-6.6,5.8-6.6,7.2c3.8,2.5,5.7,6.7,5.7,12.7v2.8c0,3.1-1.6,6.4-4.8,9.9v0.6
		c5.3,5.3,11.2,7.9,17.8,7.9h6.6c11.3,0,19.7-5.6,25.2-16.9v-0.7c0-5.1-2.5-7.7-7.4-7.7h-3.9c-1.4,0-2.3,1.2-2.8,3.5
		c0.6,1.8,2.5,2.8,5.7,2.8h0.9l2.8-1.3v0.6c0,3.8-2.8,5.7-8.5,5.7l-4.6-1.5l-8.5,2.2c-3.6-0.9-6.1-2-7.5-3.5c2,0,6.3-2.6,13.1-7.7
		l6.6-3.7h2.8c8.1,1.1,12.1,3.5,12.1,7.2h2c2-3.8,5.1-5.7,9.4-5.7c0-8.3-7.8-16.8-23.5-25.4v-0.7h2.9c13.5,0,21.6,10.4,24.3,31.1
		l-0.9,35.1c-87.5-11.6-152.2-17.5-194-17.5h-4.8c-40.7,0-83.2,4.7-127.4,14h-0.9v-0.7c37.5-9.8,62.5-14.7,75-14.7v-0.7
		c-6.6,0-12.6-1.9-17.8-5.7h-0.9c-7.2,7.1-16.3,10.7-27.2,10.7c-8.5,0-15.3-2.6-20.6-7.7v-0.7c7.5,4.2,15,6.3,22.4,6.3
		c9.4,0,17.3-3.5,23.5-10.5c-5.6-3.6-8.5-8.7-8.5-15.4l3.7-12l-3.7-2.2l-21.5,16.9l11.2,6.4c0,1.4-2.8,2.5-8.5,3.5h-1.8l-6.6-1.5
		c-0.6,1.4-2.5,2-5.7,2c-2.5,0-3.7-0.4-3.7-1.3c-2.7,0-4.2,1.4-4.6,4.2l-1.1-0.7H348c-35.8,19.2-67,28.9-93.6,28.9
		c-25.7,0-43.6-8-53.5-23.9c-2.5-5.8-4-12.3-4.6-19.7c0.6-8.6,2.1-16.4,4.6-23.4l-3.7,2.2h-3.9c-2.1,0-3.6-2.8-4.6-8.5
		c0-9.7,3.4-17.7,10.3-24.1v0.7c-3.2,5.8-5.4,11.9-6.6,18.4c1,4.7,2.6,7,4.8,7h0.9c3.7-2.1,5.5-3.9,5.5-5.5h0.9v1.3l-1.8,13.4v5.7
		c0,20.2,12.2,33.6,36.6,40.1l14.2,1.5h7.4c22.7,0,48.9-8,78.7-24.1l-5.5-2v-0.7h0.9l6.6,2.2c28.2-15.6,51-34.4,68.4-56.5
		c12.1-15,26.8-36.5,43.9-64.7V264c-5.3-10.7-8.4-16.1-9.4-16.2C388,284,349,302.1,327.4,302.1l-9.4-0.7c1.2,2.1,1.8,5.8,1.8,11.2
		v1.5c0,13.6-16.9,30-50.6,49.3c-10.3,4.2-17.5,6.3-21.5,6.3h-6.6c-14.2,0-23.6-9.6-28.1-28.9v-11.2c-10.4,0-21.6-8.2-33.7-24.6
		c-2.6-6.6-3.9-12.5-3.9-17.7v-3.5h1.1l13.1,27.6c5.9,7.5,11.5,11.2,16.9,11.2h2.8c3.1,0,4.6-1.2,4.6-3.5l2-7.2h1.8l-0.9,7.9
		c8.1-5.3,12.1-12.3,12.1-21.1c5.6-21.1,12.5-37.8,20.6-50c-1.4,0-12.3-6.4-32.7-19.1l-0.9-4.8c-25.1,22.7-38.6,39.1-40.5,49.3v3.5
		c1.3,1.8,3.2,2.8,5.7,2.8v2.2c-6.9-3.2-10.3-6.5-10.3-9.9c0-10.9,16.9-30.9,50.6-59.9c15.2-12,24-18.3,26.3-18.9v1.5l-28.1,25.4
		v0.6l22.4,6.4v0.7c-0.4,1.4-2.8,2-7.4,2c2.5,2.7,9,6.7,19.7,12c6.9-8.5,14-12.7,21.5-12.7h1.8c8,0,15.8,5.6,23.4,16.9v5
		c0,5.6-5.6,8.5-16.7,8.5v0.7c-7-0.5-14.5-1.9-22.6-4.2c-7.5,9.8-14.7,27.9-21.5,54.2c-5.5,12.6-13.3,18.9-23.4,18.9v2.8
		c3.1,16.1,10.8,24.1,23.4,24.1h0.9c13.7-1.8,33.4-11.3,59-28.3c8.8-6.5,13.2-12.1,13.2-16.7c-2.2-7.7-8.8-16.4-19.7-26.1v-2.8
		l1.8-9.9h0.9c10.5,10.8,20.5,16.2,30,16.2c25.6-4.3,63.1-22.4,112.5-54.2c-5-8.1-8.5-15.1-10.3-21.1h-1.8
		c-50.3,30.5-82.8,45.8-97.6,45.8h-1.8c-8,0-13.2-5.1-15.8-15.4v-9.2c0-14.6,8.7-34.1,26.1-58.5c5.6-7.7,12.9-13.8,21.7-18.2h5.5
		c4.4,1.8,6.6,5.8,6.6,12v2.8l-6.6-0.7h-2.8c-9.2,5.3-18,14.9-26.3,28.9c-11.3,20.6-16.9,34.7-16.9,42.3v0.7l3.9,2
		c15.7,0,46.9-14.3,93.6-42.8l4.8-2.2c-7.7-13.7-12.4-21.2-14.2-22.4l-35.5,21.1c-9.4,6-15.7,9-18.8,9H350V207
		c3.1-2.8,19.3-12.4,48.7-28.9c4.3-2.2,6.4-3.9,6.4-5c-9-16.7-17-27.5-24.3-32.4H379l-2,14v0.7h-1.8l-2.8-16.2l1.8-8.5
		c-11.9,7.1-32.2,17.7-60.9,31.6c-11.9,7.6-19.7,11.4-23.5,11.4h-2.8l-1.8-1.5c6.5-5.6,24.3-14.5,53.3-26.7
		c17.8-9.6,32.5-18.3,44.1-26.1C396.3,108.8,405.1,98.4,409,88.6z M201.8,288.7v0.7l-1.8,4.2h0.9c2.5,0.7,3.7,2.4,3.7,5v0.6
		c0,2.6-1.5,4.5-4.6,5.7h-2.8l-2.9-2v-0.7C196.7,293.2,199.2,288.7,201.8,288.7z M198.1,296.4l-1.8,4.2l1.8,1.5c2.8-1,4.3-2,4.6-2.9
		L198.1,296.4z M227.2,240.1h2.8c2.6,0.7,3.9,2.4,3.9,5l-1.1,2.8h-0.9l-4.6-2.8c-1.8,0-4.7,6.1-8.5,18.2c6.9,1.7,10.3,4.3,10.3,7.7
		v1.5c0,1.7-5.6,3.8-16.9,6.3v0.7c3.8,7.4,5.7,15.8,5.7,25.4l-0.9,6.4h-0.9c0-6.3-1.9-16.9-5.7-31.8v-1.3c0-3.3,3.1-5.7,9.4-7.2
		v-1.3l-3.7-0.7l-3.9,2.8v-1.5c0-2.5,1.3-4.8,3.9-7c0-2.7-2.2-7.2-6.6-13.4l-0.9,0.7h-2.8l-4.8-3.5c1.6-3.3,3.5-5,5.7-5
		c4,0,7.8,4.7,11.2,14.2h0.9C220.8,245.5,223.6,240.1,227.2,240.1z M225.3,373.3h1.8l-1.8,4.2c3.1,2.3,4.6,4.4,4.6,6.3
		c0,3.8-2.8,5.7-8.5,5.7l-1.8-1.5v-0.7C219.6,383.2,221.5,378.5,225.3,373.3z M223.3,381l-1.8,4.2l0.9,0.7h2.9l2.8-2.2L223.3,381z
		 M260.8,205.6c10.1,3.7,15.1,6.5,15.1,8.5c-1.8,5.6-4,9.2-6.6,10.7l-14.9-7.9l-5.7,8.5l-16-8.5c4-7,6.6-10.5,7.5-10.5l15.1,7.7
		C255.3,212.7,257.1,209.9,260.8,205.6z M297.4,371.1h1.8l4.8,3.5c-0.9,2.3-1.8,3.5-2.9,3.5l-3.7-2c-1.8,1.7-4.7,7.6-8.5,17.7H288
		l-6.6-13.4l-0.9,0.7h-3.7l-2.8-1.5c-1.1,4.8-12.1,11.1-32.9,18.9h-4.6c0.1-0.7,6.1-3.5,17.8-8.3c12.9-6,20.3-11.6,22.4-16.9h0.9
		c4.8,0,8.5,4.2,11.2,12.7h0.9C292.1,376,294.6,371.1,297.4,371.1z M292.8,296.4h2.8c2.5,0.7,3.7,2.4,3.7,5l-0.9,2.8h-1.8l-3.7-2h-2
		c-5.6,17.9-12.5,28.4-20.6,31.6c-14.2,7.1-23.9,10.7-29.1,10.7h-1.8l33.8-15.6l8.3-7c-3.1-9.8-5.5-14.7-7.4-14.7l-3.9,0.6
		c-3.1-0.6-4.6-2.2-4.6-4.8c0-2,1.2-3.4,3.7-4.2c6.4,0,10.8,4.9,13.2,14.7h0.9C286,302,289.1,296.4,292.8,296.4z M256.2,293.6h0.9
		v1.3c-4.4,7.8-6.6,14.7-6.6,20.6c0,3.2,2.2,4.8,6.6,4.8c3.1-2.5,4.6-4.3,4.6-5.5h1.1v1.3c-1.7,7.1-4.8,10.7-9.4,10.7h-2
		c-3.1-1-4.6-3.6-4.6-7.7C246.8,311.9,250,303.5,256.2,293.6z M271.1,247.9l0.9,0.7h4.8l11.2-3.5v-2.9l-3.7-0.7
		C280.1,241.4,275.6,243.6,271.1,247.9z M274,174.7c4,3.7,7.5,9.1,10.3,16.2c-1.2,0-1.8-0.7-1.8-2.2l-1.1-0.7h-0.9l0.9,0.7v4.2
		c-2.5,8-5.2,12-8.3,12H272c4.4-4.7,6.6-9.8,6.6-15.4L274,174.7z M279.6,201.3c10.3,0,19.4,5.6,27.2,16.9l0.9,4.2v0.7
		c-3.1,4.2-6.5,6.3-10.3,6.3c-8.7-1.3-13.1-4.2-13.1-8.5v-3.5c0.4-2.8,1.3-4.2,2.8-4.2l-1.8,6.4c0.9,4.7,3.7,7,8.5,7h0.9
		c4,0,7.2-2.1,9.4-6.3c0-6.5-6.6-12-19.7-16.4h-0.9v0.7l6.4,5.7L288,212c0-1.1-2.8-3.9-8.5-8.5V201.3z M289.9,216.2
		c1.3,0,2,0.9,2,2.8l0.9-0.7h0.9l1.8,1.5v2h-1.8l0.9-0.7v-0.6c-3.2,0-4.8-0.7-4.8-2.2V216.2z M290.8,212h1.1l2.8,2h-0.9L290.8,212z
		 M311.6,176.7h1.8l2.8,2.2v3.5c-2.6,6.7-7.6,11.6-15.1,14.7v-0.7c7.6-6,11.4-10,11.4-12l-0.9-2h-1.1l-6.4,0.7
		C304,178.8,306.5,176.7,311.6,176.7z M334.9,337.2c9.3,4.3,14,7.1,14,8.5c0,3.2-2.1,6.5-6.4,9.9h-0.9l-15.1-7.7
		C330.5,340.8,333.3,337.2,334.9,337.2z M346.1,212.5h0.9l0.9,0.7h0.9c0,1.6-2.5,2.6-7.4,2.9l-5.7,4.2v0.6h1.8l13.2-0.6
		c3.1,0.2,4.6,1.7,4.6,4.2c0,2.8-6.9,4.7-20.6,5.5c-3.8-1.1-5.7-2-5.7-2.8v-0.7l5.7,0.7l18.8-2.2v-1.3l-3.7-0.7l-16,0.7l-0.9-2.2
		C337.4,215.6,341.7,212.5,346.1,212.5z M335.8,164.7v0.7l-3.7,2.8v-0.7L335.8,164.7z M335.8,155.5h2.8l2.9,2.2l-2.9,4.8h-0.9
		c0-2.3-1.5-3.5-4.6-3.5v-1.3L335.8,155.5z M337.7,162.5v0.7l-1.8,1.5V164L337.7,162.5z M337.7,269h0.9c0,4.2,0.7,6.3,2,6.3l0.9-2
		h0.9v2l-2.9,2.2h-1.8l-0.9-3.5L337.7,269z M359.4,311.3c5.5,3.2,8.3,7.2,8.3,12v1.3c0,4.9-0.9,8.5-2.8,10.7c4.4,2.3,6.6,4.7,6.6,7
		c-0.6,5.1-3.4,7.7-8.5,7.7h-1.8c-1.5,0-2.5-1.7-2.9-5c5-10.5,7.5-16.9,7.5-18.9c0-2.1-2.8-6.1-8.5-12v-0.7
		C358.7,313.3,359.4,312.6,359.4,311.3z M363.1,339.4l-1.8,4.2v2h1.8c3.3,0,5.5-0.9,6.6-2.8L363.1,339.4z M380,250.6h0.9
		c0.9,0,1.8,1,2.8,2.9l-0.9,0.6h-1.8l-0.9-0.6H379l-3.9,9.7h-0.9c0-4.4-2.8-7.2-8.5-8.5l2.8-2.8c3.8,1,5.7,2.9,5.7,5.7h1.8
		C377,253,378.2,250.6,380,250.6z M380.9,166.2h0.9v0.6l-0.9,6.4l0.9,0.7h0.9l0.9-0.7h0.9v1.5l-1.8,1.3H380v-5L380.9,166.2z
		 M398.7,298.6h0.9c2.5,0.7,3.7,2.3,3.7,4.8c-3.7,9.1-9.3,15-16.9,17.7v-0.7c8.2-5.8,12.3-10.4,12.3-14l-2.9-1.5h-0.9l-4.6,0.7v-0.7
		C391,300.7,393.8,298.6,398.7,298.6z M396.7,371.8c-1.8,3.1-2.8,6.4-2.8,9.9c0,5.4,2.5,9.6,7.5,12.5l1.8-9.7
		C403.3,379.8,401.1,375.6,396.7,371.8z M412.7,61.2h4.8v0.7c-6.3,0.6-9.4,2.9-9.4,7v0.7c0,3.2,2.5,5.8,7.4,7.7h4.8
		c4.8,0,8.5-2.8,11.2-8.5h0.9v0.7c0,5.6-3.1,9.6-9.4,12l-0.9,0.7v2.8c0,13.6,15.3,27.2,46,40.8l11.2,2.9v0.6h-4.8l-0.9-0.6h-0.9v1.3
		l1.8,2.2h-0.9c-14.1-5.6-28.1-13.9-42.1-24.6c-5.8-4.9-10.4-11.7-14-20.4c-3.8,0-5.7-1-5.7-2.9c0-2.1-2.5-5.1-7.5-9l-0.9-4.2v-2.2
		C404.5,63.8,407.7,61.2,412.7,61.2z M411.8,229.5l2.8,0.7v3.5c0,2.9-2.8,6-8.5,9.2v-0.7l6.6-6.3l-0.9-2.2h-0.9l-4.8,0.7
		C406.4,231.1,408.3,229.5,411.8,229.5z M417.5,107c2.5,0.7,3.7,1.4,3.7,2v2.9c0,5.3-4.4,10.2-13.1,14.7H407
		c6.3-6.1,9.4-10.1,9.4-12l-2.8-2L409,114v-0.7C411,109.1,413.8,107,417.5,107z M420.2,272.5h0.9v0.7l-2.8,7.7
		c0.7,2.3,1.7,3.5,2.8,3.5l3.7-2v1.3c-1.5,2.8-2.7,4.2-3.7,4.2h-1.8c-2-0.2-2.9-1.9-2.9-5L420.2,272.5z M433.3,332.3h0.9l1.8,9.9
		l7.5-2h0.9c6.7,0,11.5,3,14.2,9l-0.9,6.4v1.5l2.8,5.5h-0.9c-6.9,0-11.2-2.6-13.1-7.7c-2.6,0-4.8-1.2-6.6-3.5v-2.8l0.9-3.7h0.9
		c0,2,1.6,3.6,4.8,5h0.9c1.8-0.5,2.8-1.9,2.8-4.2v-0.7c-1.6-2.3-4.1-3.5-7.5-3.5c-6.9,2.2-10.3,5.5-10.3,9.9
		c2.2,5.8,7.2,10.7,15.1,14.7h-0.9c-10.7-3.6-16-8.9-16-16.2C432.4,344.4,433.3,338.5,433.3,332.3z M453.9,381
		c0,9.6-6.9,16.8-20.6,21.7h-1.8v0.7h0.9l41.2-1.3c26.8,0.4,55,1.5,84.4,3.5v-0.7c-3.7-3.3-6.5-8-8.5-14.2h-0.9
		c-4.8,2.8-11.3,4.2-19.7,4.2c-7.8,0-15.3-2.8-22.4-8.5c-5.6,5.6-13.5,8.5-23.5,8.5c-13,0-22.4-4.4-28.1-13.2V381H453.9z
		 M436.1,208.3l10.5,21.9l103-62c-2.2-2.8-9.4-4.2-21.5-4.2C515.1,164,484.5,178.8,436.1,208.3z M466.2,202.1h1.8l0.9,3.5h-1.8
		l-0.9-0.7h-1.1c-2.5,3.6-3.7,6.9-3.7,9.9c-1.1,0-2.6-2.6-4.6-7.7l-0.9,0.7h-1.1l-2.8-2.2l2.8-2h1.1c1.8,0,3.4,2.1,4.6,6.3h0.9
		C462.4,204.6,464,202.1,466.2,202.1z M454.8,373.8l5.7-2v0.7l1.8,1.3h2.8l3.9-2.8c-0.9-2.3-1.8-3.5-2.8-3.5h-3.9
		C457.3,367.6,454.8,369.6,454.8,373.8z M463.3,282.4h0.9l2,6.3v3.5l7.4-1.3h3.9c7.5,1.5,11.2,4.5,11.2,9l-0.9,6.4l2.8,7h-0.9
		c-6.3,0-12.8-4.5-19.7-13.4v-1.3l2.8-2.9c0,2.9,1.9,4.6,5.7,5l2.8-4.2c-1.2-2.8-3.7-4.2-7.5-4.2c-5.1,0-8.6,2.8-10.3,8.5
		c0,5.3,5,10.7,15.1,16.2h-0.9c-10.7-4.2-16-8.6-16-13.4v-4.2l2.8-12l-0.9-4.2V282.4z M493.2,133.1c2.6,0.6,3.9,1.3,3.9,2v1.5
		c-3.3,11.3-8.3,16.9-15.1,16.9c7.5-6.3,11.2-10.7,11.2-13.4l-0.9-0.7h-2.8l-4.6,0.7C485.9,135.4,488.7,133.1,493.2,133.1z
		 M496.2,180.9h1.8l2.8,2.2c0,4.2-3.1,7.9-9.4,11.2v-0.7l6.6-6.3v-1.5c0-1-0.9-1.5-2.8-1.5l-2.9,0.7v-0.7
		C493.5,182.3,494.8,181.2,496.2,180.9z M496.2,350.6h0.9l1.8,1.5H498L496.2,350.6z M563.7,181.7h0.9l1.8,1.5v0.6
		c-3.4,3.1-23.4,15.8-59.9,38.1c-0.6,1.5-2.5,2.2-5.7,2.2l-0.9-0.7v-1.5C514.1,212.1,535.4,198.7,563.7,181.7z M506.5,312.6
		c-2.6,3.7-3.9,6.7-3.9,9.2v5l3.9,9.2h0.9c2.5-4.3,3.7-8.1,3.7-11.4V324C510.5,317,508.9,313.2,506.5,312.6z M506.5,359.8l-3.9,9.2
		v4.8c1.3,6.1,2.9,9.2,4.8,9.2c2.5-3.4,3.7-7.2,3.7-11.2v-0.7C511.1,365.8,509.5,362,506.5,359.8z M519.5,266.8
		c4.4,3.4,6.6,7.2,6.6,11.4l-4.8,14l1.8,1.5h1.1l0.9-0.7h0.9v1.5l-2.9,2v0.7c-2.5-0.5-3.7-2.1-3.7-5c2.5-5.4,3.7-9.6,3.7-12.7v-2
		c-3.7-4-5.5-6.9-5.5-8.5v-0.7L519.5,266.8z M528,216.2l15.1,8.5c0,2.7-2.8,6.2-8.5,10.5c-7.6-5.1-12.3-7.7-14.2-7.7
		C521.7,223.3,524.2,219.5,528,216.2z M546.8,252.8h2.8c19.5,0,42.6-10.4,69.3-31.1l2-4.2c-9.6-5.1-19.9-7.7-31.1-7.7
		c-20.2,0-34.6,13.9-43,41.6V252.8z M569.2,164h0.9l41.4,23.9l0.9,0.7v0.7h-0.9c-3.6,0-13.9-5.6-31.1-16.9l-13.1-6.3v-0.7L569.2,164
		z M576.7,174.7h2.8c2.6,0.7,3.9,2.3,3.9,4.8c0,5-5,10.2-15.1,15.6v-0.7l10.3-11.2c-0.6-1.6-1.8-2.6-3.7-2.9l-4.8,1.5v-0.7
		C571.9,177.7,574.2,175.6,576.7,174.7z M646.1,299.9h0.9c2,0,3.6,2.1,4.8,6.4c0,3.6-1.3,5.6-3.9,6.3h-1.8c-2.5,0-5.6-1.4-9.4-4.2
		c0,6-9.7,12.4-29.1,19.1l-22.4,4.2h-1.8V331c33.7-9.7,50.6-17.2,50.6-22.6C639.1,302.7,643.1,299.9,646.1,299.9z M599.2,257.8h4.8
		l0.9,2.8c-2.3,5-5.1,8.3-8.5,9.7h-0.9l5.7-6.3v-1.5c0-0.9-1-1.3-2.9-1.3l-2.8,0.6C596.7,259.1,597.9,257.8,599.2,257.8z
		 M599.2,409.1v0.7h0.9l15.1,1.3h0.9v-0.6c-1.6,0-5-1.9-10.3-5.7L599.2,409.1z M604.9,377.5c-2.5,4.2-3.7,7.9-3.7,11.2v2.8
		c1.2,6.1,2.8,9.2,4.6,9.2c2.5-3.7,3.7-6.7,3.7-9.2v-2.8C609.5,383.3,607.9,379.6,604.9,377.5z M610.6,299.2c4.3,2.2,6.4,5,6.4,8.5
		v1.5l-1.8,1.5c0-5.1-2.5-7.7-7.5-7.7v-2.9L610.6,299.2z M615.2,368.3h0.9l-1.8,1.3h-0.9L615.2,368.3z M620.9,297.9h0.9
		c1.3,0,2.3,1.2,2.8,3.5l-0.9,0.7h-0.9l-1.8-1.5l-2.9,5H617v-2.2C618.1,299.7,619.4,297.9,620.9,297.9z M630.2,412.6v0.7
		c4.5,0,14.8,1.4,30.9,4.2h2.8l3.7-2.8l-0.9-6.4l2.9-23.9h-0.9c-3.7,0-7.8,5.6-12.3,16.9C649,408.9,640.3,412.6,630.2,412.6z
		 M636.7,233.7v2.9c0,4,1.3,9,3.9,14.7h0.9c5.8-3.6,11.3-8.9,16.7-16.2v-0.7c0-4.4-4.7-8.4-14-12
		C639.2,222.5,636.7,226.2,636.7,233.7z M643.3,304.1l-1.8,2.2l6.4,2v-0.7C647.9,306.4,646.4,305.2,643.3,304.1z M665.7,253.6h6.6
		l0.9,3.5c-1.1,5.6-5.5,11.3-13.1,16.9h-2.9c8.2-6.5,12.3-11.2,12.3-14.2l-3.9-1.5l-4.6,1.5v-0.7
		C662.7,255.4,664.3,253.6,665.7,253.6z"/>
</g>
<path fill="#000000" d="M273.602,481.306c-0.578-0.576-1.301-1.03-2.174-1.362c-0.873-0.331-1.885-0.497-3.039-0.497
	c-0.663,0-1.463,0.079-2.4,0.238v-6.077h-1.535v17.711c0.706,0.202,1.402,0.354,2.087,0.454s1.301,0.151,1.849,0.151
	c1.153,0,2.166-0.162,3.039-0.486s1.596-0.764,2.174-1.319c0.576-0.555,1.006-1.211,1.287-1.968s0.42-1.561,0.42-2.411
	s-0.139-1.657-0.42-2.422C274.608,482.554,274.178,481.883,273.602,481.306z M272.391,489.167c-0.852,0.829-2.17,1.243-3.958,1.243
	c-0.39,0-0.805-0.032-1.244-0.097c-0.439-0.065-0.84-0.134-1.2-0.206v-8.845c0.447-0.115,0.887-0.194,1.319-0.237
	c0.433-0.044,0.808-0.065,1.125-0.065c0.894,0,1.668,0.112,2.325,0.335c0.656,0.224,1.199,0.545,1.633,0.963
	c0.432,0.418,0.752,0.919,0.961,1.503s0.314,1.243,0.314,1.979C273.667,487.195,273.241,488.338,272.391,489.167z M247.392,479.446
	c-0.62,0-1.297,0.079-2.033,0.238c-0.735,0.158-1.485,0.433-2.249,0.821l-0.065,1.73c0.548-0.303,0.973-0.52,1.276-0.649
	s0.624-0.237,0.962-0.324c0.338-0.086,0.677-0.158,1.016-0.216s0.667-0.087,0.984-0.087c1.139,0,1.982,0.249,2.53,0.746
	s0.822,1.33,0.822,2.498v0.13c-0.332-0.044-0.732-0.087-1.2-0.13c-0.469-0.043-0.876-0.065-1.222-0.065
	c-1.831,0-3.302,0.311-4.412,0.931c-1.11,0.619-1.665,1.644-1.665,3.07c0,0.707,0.155,1.305,0.465,1.795
	c0.31,0.49,0.713,0.88,1.211,1.168s1.067,0.497,1.708,0.627c0.641,0.13,1.308,0.194,2,0.194c0.807,0,1.6-0.072,2.378-0.216
	c0.779-0.145,1.536-0.368,2.271-0.671v-7.028c0-1.585-0.397-2.742-1.189-3.471C250.189,479.811,248.992,479.446,247.392,479.446z
	 M250.636,489.892c-0.375,0.144-0.858,0.267-1.449,0.367c-0.591,0.102-1.183,0.151-1.773,0.151c-0.505,0-0.984-0.035-1.438-0.108
	c-0.454-0.071-0.84-0.197-1.157-0.378c-0.317-0.18-0.57-0.414-0.757-0.703c-0.188-0.288-0.281-0.663-0.281-1.124
	c0-0.52,0.111-0.934,0.335-1.244c0.224-0.31,0.533-0.551,0.93-0.724c0.396-0.174,0.85-0.296,1.362-0.368
	c0.511-0.072,1.041-0.108,1.589-0.108c0.476,0,0.984,0.029,1.524,0.087c0.541,0.058,0.912,0.108,1.114,0.151V489.892z
	 M258.032,479.868c-0.649,0.122-1.276,0.263-1.881,0.422v11.418h1.535v-10.186c0.202-0.072,0.563-0.147,1.082-0.228
	c0.519-0.079,1.002-0.118,1.449-0.118h1.989v-1.492H260C259.336,479.685,258.681,479.746,258.032,479.868z M-77.92,487.667
	l241.145,0.656l0.663-0.433l-0.632-0.564L-77.92,487.667z M164.994,487.825l1.95,1.95l1.95-1.95l-1.95-1.95L164.994,487.825z
	 M169.559,487.825l3.057,3.057l3.057-3.057l-3.057-3.057L169.559,487.825z M212.359,489.286l-3.395-9.602h-1.514l-3.396,9.602
	l-2.984-9.602h-1.73l3.979,12.023h1.428l3.46-9.645l3.46,9.645h1.427l3.979-12.023h-1.73L212.359,489.286z M238.418,489.589
	c-0.317,0-0.591,0.115-0.822,0.346c-0.231,0.23-0.346,0.505-0.346,0.822c0,0.316,0.115,0.591,0.346,0.821
	c0.23,0.23,0.504,0.346,0.822,0.346c0.317,0,0.591-0.115,0.822-0.346c0.23-0.23,0.346-0.505,0.346-0.821
	c0-0.317-0.116-0.592-0.346-0.822C239.009,489.704,238.735,489.589,238.418,489.589z M193.243,489.286l-3.395-9.602h-1.514
	l-3.396,9.602l-2.984-9.602h-1.73l3.979,12.023h1.428l3.46-9.645l3.46,9.645h1.427l3.979-12.023h-1.73L193.243,489.286z
	 M231.476,489.286l-3.395-9.602h-1.514l-3.396,9.602l-2.984-9.602h-1.73l3.979,12.023h1.428l3.46-9.645l3.46,9.645h1.427
	l3.979-12.023h-1.73L231.476,489.286z M382.732,480.474c-0.426-0.396-0.938-0.667-1.535-0.812c-0.598-0.144-1.271-0.216-2.021-0.216
	c-0.664,0-1.393,0.09-2.184,0.271c-0.793,0.181-1.471,0.4-2.033,0.659c-0.346-0.331-0.818-0.569-1.416-0.714
	c-0.6-0.144-1.273-0.216-2.023-0.216c-0.635,0-1.268,0.058-1.902,0.173l-2.465,0.454v11.635h1.535v-10.38
	c0.447-0.102,0.883-0.188,1.309-0.26c0.424-0.072,0.896-0.108,1.416-0.108c0.605,0,1.125,0.058,1.557,0.173
	c0.434,0.116,0.789,0.321,1.07,0.616c0.281,0.296,0.494,0.711,0.639,1.244s0.217,1.24,0.217,2.119v6.596h1.535v-7.201
	c0-0.663-0.055-1.243-0.162-1.741c-0.109-0.497-0.213-0.861-0.314-1.092c0.086-0.043,0.281-0.119,0.584-0.228
	c0.303-0.107,0.602-0.197,0.898-0.27c0.295-0.072,0.586-0.126,0.875-0.162s0.547-0.055,0.779-0.055c0.59,0,1.102,0.058,1.535,0.173
	c0.432,0.116,0.781,0.317,1.049,0.605c0.266,0.289,0.471,0.703,0.615,1.244c0.145,0.54,0.217,1.251,0.217,2.13v6.596h1.535v-7.201
	c0-0.995-0.111-1.816-0.336-2.466C383.482,481.393,383.158,480.87,382.732,480.474z M280.1,474.581
	c-0.785,0.648-1.18,1.729-1.18,3.243v1.86h-2.551v1.492h2.551v10.531h1.537v-10.531h4.973v-1.492h-4.973v-1.471
	c0-0.635,0.045-1.149,0.141-1.546c0.094-0.396,0.24-0.707,0.443-0.931c0.201-0.223,0.475-0.385,0.82-0.486
	c0.346-0.101,0.779-0.151,1.299-0.151h2.422v-1.492h-2.271C281.956,473.607,280.885,473.932,280.1,474.581z M398.273,487.825
	l3.057,3.057l3.057-3.057l-3.057-3.057L398.273,487.825z M343.322,482.322c0.389-0.418,0.854-0.749,1.395-0.994
	s1.135-0.368,1.783-0.368c0.736,0,1.373,0.076,1.914,0.228s1.121,0.414,1.74,0.789l0.715-1.405c-0.707-0.39-1.393-0.674-2.055-0.854
	c-0.664-0.181-1.436-0.271-2.314-0.271c-0.85,0-1.639,0.155-2.367,0.465c-0.729,0.311-1.367,0.746-1.914,1.309
	c-0.549,0.563-0.98,1.222-1.297,1.979c-0.317,0.757-0.476,1.59-0.476,2.498s0.158,1.74,0.476,2.497
	c0.316,0.757,0.748,1.413,1.297,1.969c0.547,0.555,1.186,0.987,1.914,1.297c0.729,0.311,1.518,0.465,2.367,0.465
	c0.879,0,1.65-0.09,2.314-0.27c0.662-0.181,1.348-0.466,2.055-0.854l-0.715-1.406c-0.619,0.375-1.199,0.639-1.74,0.79
	s-1.178,0.227-1.914,0.227c-0.648,0-1.242-0.119-1.783-0.356c-0.541-0.238-1.006-0.565-1.395-0.984
	c-0.391-0.418-0.693-0.915-0.908-1.492c-0.217-0.576-0.324-1.203-0.324-1.881s0.107-1.305,0.324-1.882
	C342.628,483.238,342.931,482.741,343.322,482.322z M404.387,487.825l1.949,1.95l1.951-1.95l-1.951-1.95L404.387,487.825z
	 M410.701,487.326l-0.664,0.433l0.633,0.564l241.176-0.341L410.701,487.326z M362.611,481.295c-0.549-0.569-1.193-1.02-1.936-1.352
	c-0.742-0.331-1.547-0.497-2.412-0.497c-0.863,0-1.668,0.166-2.41,0.497c-0.742,0.332-1.389,0.782-1.936,1.352
	c-0.549,0.57-0.977,1.229-1.287,1.979c-0.311,0.749-0.465,1.557-0.465,2.422s0.154,1.672,0.465,2.422s0.738,1.409,1.287,1.979
	c0.547,0.569,1.193,1.017,1.936,1.341s1.547,0.486,2.41,0.486c0.865,0,1.67-0.162,2.412-0.486s1.387-0.771,1.936-1.341
	c0.547-0.569,0.977-1.229,1.287-1.979c0.309-0.75,0.465-1.557,0.465-2.422s-0.156-1.673-0.465-2.422
	C363.587,482.524,363.158,481.865,362.611,481.295z M362.394,487.523c-0.217,0.569-0.52,1.067-0.908,1.492
	c-0.389,0.426-0.857,0.765-1.406,1.017c-0.547,0.252-1.152,0.378-1.816,0.378c-0.662,0-1.268-0.126-1.816-0.378
	c-0.547-0.252-1.016-0.591-1.404-1.017c-0.391-0.425-0.693-0.923-0.908-1.492c-0.217-0.569-0.324-1.179-0.324-1.827
	c0-0.649,0.107-1.262,0.324-1.839c0.215-0.576,0.518-1.077,0.908-1.503c0.389-0.425,0.857-0.764,1.404-1.016
	c0.549-0.252,1.154-0.379,1.816-0.379c0.664,0,1.27,0.127,1.816,0.379c0.549,0.252,1.018,0.591,1.406,1.016
	c0.389,0.426,0.691,0.927,0.908,1.503c0.217,0.577,0.324,1.189,0.324,1.839C362.718,486.345,362.611,486.954,362.394,487.523z
	 M296.221,481.295c-0.547-0.569-1.191-1.02-1.936-1.352c-0.742-0.331-1.545-0.497-2.41-0.497s-1.67,0.166-2.412,0.497
	c-0.742,0.332-1.387,0.782-1.936,1.352c-0.547,0.57-0.977,1.229-1.285,1.979c-0.311,0.749-0.465,1.557-0.465,2.422
	s0.154,1.672,0.465,2.422c0.309,0.75,0.738,1.409,1.285,1.979c0.549,0.569,1.193,1.017,1.936,1.341s1.547,0.486,2.412,0.486
	s1.668-0.162,2.41-0.486c0.744-0.324,1.389-0.771,1.936-1.341c0.549-0.569,0.977-1.229,1.287-1.979s0.465-1.557,0.465-2.422
	s-0.154-1.673-0.465-2.422C297.198,482.524,296.77,481.865,296.221,481.295z M296.006,487.523c-0.217,0.569-0.52,1.067-0.908,1.492
	c-0.391,0.426-0.859,0.765-1.406,1.017c-0.549,0.252-1.154,0.378-1.816,0.378c-0.664,0-1.27-0.126-1.816-0.378
	c-0.549-0.252-1.018-0.591-1.406-1.017c-0.389-0.425-0.691-0.923-0.908-1.492s-0.324-1.179-0.324-1.827
	c0-0.649,0.107-1.262,0.324-1.839c0.217-0.576,0.52-1.077,0.908-1.503c0.389-0.425,0.857-0.764,1.406-1.016
	c0.547-0.252,1.152-0.379,1.816-0.379c0.662,0,1.268,0.127,1.816,0.379c0.547,0.252,1.016,0.591,1.406,1.016
	c0.389,0.426,0.691,0.927,0.908,1.503c0.215,0.577,0.324,1.189,0.324,1.839C296.331,486.345,296.221,486.954,296.006,487.523z
	 M309.381,480.463c-0.455-0.39-0.996-0.656-1.623-0.801c-0.627-0.144-1.309-0.216-2.043-0.216c-0.707,0-1.465,0.047-2.271,0.141
	s-1.701,0.234-2.682,0.422v11.699h1.535v-10.402c1.184-0.23,2.293-0.346,3.33-0.346c0.592,0,1.111,0.062,1.559,0.184
	c0.445,0.123,0.818,0.332,1.113,0.628c0.295,0.295,0.525,0.713,0.691,1.254s0.25,1.251,0.25,2.13v6.553h1.535v-7.201
	c0-0.995-0.119-1.82-0.357-2.477C310.18,481.375,309.834,480.852,309.381,480.463z M318.516,490.054
	c-0.346-0.108-0.619-0.277-0.82-0.509c-0.203-0.23-0.35-0.547-0.443-0.951c-0.096-0.403-0.141-0.922-0.141-1.557v-5.86h4.973v-1.492
	h-4.973v-4.347h-1.537v4.347h-2.551v1.492h2.551v6.466c0,0.764,0.109,1.405,0.326,1.925c0.215,0.519,0.525,0.937,0.93,1.254
	c0.402,0.317,0.867,0.544,1.395,0.682c0.525,0.137,1.105,0.205,1.74,0.205h2.271v-1.492h-2.422
	C319.295,490.216,318.862,490.162,318.516,490.054z M337.784,489.589c-0.316,0-0.59,0.115-0.82,0.346s-0.346,0.505-0.346,0.822
	c0,0.316,0.115,0.591,0.346,0.821s0.504,0.346,0.82,0.346c0.318,0,0.592-0.115,0.822-0.346s0.346-0.505,0.346-0.821
	c0-0.317-0.115-0.592-0.346-0.822S338.102,489.589,337.784,489.589z M333.178,486.106c-0.346-0.303-0.785-0.565-1.318-0.789
	c-0.533-0.223-1.182-0.422-1.947-0.595l-0.799-0.173c-1.053-0.216-1.781-0.461-2.184-0.735c-0.404-0.273-0.607-0.678-0.607-1.211
	c0-0.504,0.238-0.904,0.715-1.2c0.475-0.295,1.174-0.443,2.098-0.443c0.793,0,1.477,0.076,2.055,0.228
	c0.576,0.151,1.217,0.421,1.924,0.811l0.691-1.405c-1.412-0.765-2.969-1.146-4.67-1.146c-0.635,0-1.223,0.076-1.764,0.228
	c-0.539,0.151-1.008,0.364-1.404,0.638s-0.711,0.605-0.941,0.994c-0.23,0.39-0.346,0.815-0.346,1.276
	c0,0.462,0.072,0.88,0.217,1.254c0.143,0.375,0.381,0.707,0.713,0.995s0.758,0.537,1.275,0.746c0.52,0.209,1.146,0.4,1.883,0.573
	l0.908,0.194c1.008,0.217,1.729,0.49,2.162,0.822c0.432,0.331,0.648,0.771,0.648,1.318c0,0.39-0.086,0.707-0.26,0.952
	c-0.172,0.245-0.414,0.436-0.725,0.573c-0.311,0.137-0.678,0.237-1.102,0.303c-0.426,0.064-0.877,0.097-1.352,0.097
	c-0.592,0-1.223-0.09-1.893-0.271c-0.67-0.18-1.352-0.479-2.045-0.897l-0.734,1.471c0.779,0.433,1.539,0.742,2.281,0.93
	s1.539,0.281,2.391,0.281c0.748,0,1.434-0.072,2.053-0.216c0.621-0.145,1.158-0.36,1.611-0.648c0.455-0.289,0.805-0.649,1.049-1.082
	c0.246-0.433,0.369-0.93,0.369-1.492c0-0.476-0.072-0.915-0.217-1.318C333.77,486.763,333.526,486.41,333.178,486.106z"/>
</svg>

