<?xml version="1.0" encoding="utf-8"?>
<!-- Generator: Adobe Illustrator 22.1.0, SVG Export Plug-In . SVG Version: 6.00 Build 0)  -->
<svg version="1.1" id="Layer_1" xmlns="http://www.w3.org/2000/svg" xmlns:xlink="http://www.w3.org/1999/xlink" x="0px" y="0px"
	 viewBox="0 0 800 500" style="enable-background:new 0 0 800 500;" xml:space="preserve">
<g>
	<path fill="#000000" d="M426.5,59.4h0.7v1.3l-9.6,64.4l-0.7,10.7h0.7c35.2,2.8,66.3,8.1,93.4,15.8c28.2,9,51.5,19,69.9,30.2
		c18.1,11.8,31.9,23.8,41.2,36c6.4,8.7,9.6,14.8,9.6,18.2v3.9H631c-13.2-28.2-43.4-52.6-90.5-73.2c-38.5-14.3-70.4-22.3-95.6-23.9
		c-9.3-1.7-18.9-2.6-28.7-2.6v3.1c0,4.2,1.7,12.6,5.1,25.2v2c-2.3,0-5.3-10.1-8.8-30.3l-11-0.6h-11c-2.1,1-3.6,2.5-4.4,4.4
		c16.2,16.1,24.3,28.3,24.3,36.6l1.5,8.1c-1.7,19.6-5.9,30.8-12.5,33.5c-14.2,9-21.3,16.1-21.3,21.5v3.1c2.9,0,12.5,3.4,28.7,10.1
		c4.5-24.9,8.7-37.3,12.5-37.3l2.9-2.4h4.4c4.3,1.8,7.5,6.3,9.6,13.2v0.6h0.7c7.8-9.7,15.7-14.5,23.5-14.5h5.9
		c10.2,0,16.5,8,19.1,23.9l1.5,14c-1.5,18.5-5.1,27.8-11,27.8h-1.5c-3.1,0-6.5-2.8-10.3-8.3c-4.2,0-7.8,4.4-11,13.2
		c9.1,10.8,14.5,18.6,16.2,23.4h0.7c24.5-16.9,36.8-44.9,36.8-83.9c2-6.5,4.9-10.9,8.8-13.2l1.5-10.1h0.7c2.9,3.8,8.3,6.6,16.2,8.3
		c2,0,2.9,0.4,2.9,1.3v3.1l0.7,8.1l-0.7,5.7h-0.7l-2.9-0.6c-11.3,0-18.6,3.7-22.1,11.2c-6.1,37.5-14,60.3-23.5,68.2
		c-2,2.8-6.9,7-14.7,12.5v1.3l1.5,4.4h-0.7l1.5,3.9c15,0,28.7-7.8,41.2-23.4c7.8-12,15.9-33.9,24.3-65.6l3.7-3.1h2.9
		c6.4,1.5,9.6,4.2,9.6,8.3l0.7,11.2v2l-8.8-4.4c-4.5,0-7.7,6.9-9.6,20.8c-5,27.3-9.2,41-12.5,41c-1.7,4.3-7.6,8.5-17.7,12.5
		c-13,3.4-24.3,5.1-33.8,5.1v10.7c0,4.3-0.7,6.4-2.2,6.4l-2.9,0.6v-3.9l0.7-5l-0.7-5V335h-0.7c-9.9,0-18.8-0.6-26.5-1.8v-0.7
		l7.4-0.6h15.4c2.5,0,3.7-0.4,3.7-1.3l-1.5-7c-8.3,2.6-15,3.9-19.9,3.9h-5.1l-5.9-1.3c-5.3,4.7-11.2,7-17.7,7
		c-7.5,0-16.3-4.7-26.5-14c-11.6,10.9-19.7,16.4-24.3,16.4l-1.5-17.7c9.4-5.1,14.3-9.1,14.7-12l-8.1-12.5h-1.5
		c-10.1,16.3-25.7,24.5-47.1,24.5l-19.9-0.6l-2.9-0.7c10.1,5.9,20.8,8.8,32.4,8.8h2.2c5.5,0,13.4-1.2,23.5-3.7v10.7l0.7,6.4
		c-7.5,2.5-14.8,3.7-22.1,3.7c-21.6,0-41.4-8.8-59.6-26.5l-0.7,4.4v6.3c1.2,11.8,3.4,17.7,6.6,17.7c39.7,11.4,70.6,17.1,92.7,17.1
		h2.2v0.6c-4.3,1.4-8,2-11,2c-20.1,0-48.1-5.5-83.9-16.4v0.6c7.7,11.9,25.1,21.3,52.2,28.3c19.5,4.3,37.4,6.4,53.7,6.4l43.4-0.7
		l2.2-0.6c-9.1-6.3-17.4-13-25-20.2c41.4-4.2,73.6-8.8,96.4-13.8c23.4-5.9,43.8-12.6,61-20.2c11.3-5.8,21.8-12.5,31.6-20.2
		c16.3-15.1,25.9-28.7,28.7-41l2.9-12.7h2.2v0.7c0,24-14.2,46.5-42.7,67.5c-21.2,14.5-43,24.3-65.5,29.6c-9.1,3.4-27.7,7-55.9,10.7
		l-48.5,4.4c12.4,10.5,21,15.8,25.7,15.8l11,0.7l8.1-17.7h3.7v0.6l-9.6,17.7c29.5,7.6,46.5,14.8,50.8,21.5v1.3
		c0,0.7-0.7,1.1-2.2,1.1c-10.7,0-28.6-5-53.7-15.1c-7.8,10.2-17.7,20.9-29.4,32.2V424l27.2-32.9l-11.8-6.3
		c-14.1,1.2-29.1,1.8-44.9,1.8c-56,0-91.1-8.8-105.2-26.5c-2.6-1.3-6-5.1-10.3-11.4c0-2.1-3.4-3.9-10.3-5.5
		c-46.3-23.7-71.8-44.9-76.5-63.8l2.2-1.3h0.7c4.7,15,22.6,31.8,53.7,50.6c6.6,3.9,14.7,7.9,24.3,12V340c-4.4-9.6-6.6-18.1-6.6-25.7
		v-3.1l1.5-11.4c-2.5-9.7-3.7-17.9-3.7-24.6v-4.4c0-8.2,2.7-19.6,8.1-34h-2.2c-23.9,0-39.6,2.5-47.1,7.5
		c-18.6,7.1-29.4,10.7-32.4,10.7l0.7,5.1c-0.5,2.5-1.2,3.7-2.2,3.7h-0.7l-1.5-2.4v-3.9h-0.7c-45.6,13-77.7,19.5-96.4,19.5h-3.7v-0.6
		c1.1-4.9,12.6-11.2,34.6-18.9c36.2-10.9,58.5-16.4,66.9-16.4c1.6-14.5,11.2-31.1,28.7-49.8c18-14.5,33.5-24.3,46.3-29.6
		c20.8-8.8,42.2-15.4,64-19.7c0-4.8-8.8-9.4-26.5-13.8c2.8-17.7,6.5-26.5,11-26.5c18.1,5.1,27.2,10.2,27.2,15.1v0.7
		c0,5.6-1.7,13.4-5.1,23.2h0.7c22.2-2.9,36.4-4.4,42.7-4.4l44.9-75L426.5,59.4z M103.6,272.5c26.1-2.9,50.4-8,72.8-15.1l13.2-3.1
		v-3.1l0.7-4.4h-0.7c-6.9,0-29.2,5.6-66.9,16.9L103.6,272.5z M193.3,249.9v2.6l33.8-12.1v-0.6c-22.1,2.9-33.1,5-33.1,6.3
		L193.3,249.9z M331.6,150.2h-0.7v-1.8c-27,3.3-55.9,14.4-86.8,33.3c-22.4,16.7-36.9,31.8-43.4,45.4l-4.4,12.7
		c9.7-2.1,25.1-4,46.3-5.7c24.5-11.3,39.5-19.2,44.9-23.9c5.6-15.6,9.6-23.4,11.8-23.4v1.3c0,2.5-1.5,8.5-4.4,18.2h0.7
		c18-10.5,37.1-24.4,57.4-41.6c11.3-10.2,18.9-18,22.8-23.4H375c-16.4,1.7-30.4,3.8-41.9,6.3L331.6,150.2z M252.9,232.8v0.7h3.7
		l19.9-0.7l5.1-12.5h-0.7L252.9,232.8z M280.9,235.9c-6.4,15.1-9.6,27.5-9.6,37.3l2.9,15.1h0.7c1.6-6,11.6-16.9,30.2-32.7
		c-1-2.3-1.5-6.6-1.5-12.7l0.7-6.3l-12.5-0.7H280.9z M283.1,232.8h2.9l19.9,0.7c6.9-16.1,16.9-27,30.2-32.9c2.7-1.2,5.4-1.8,8.1-1.8
		c8.7,0,14.1,6.9,16.2,20.8l0.7,7c-6.7-7.1-12.6-10.7-17.7-10.7h-2.9c-8.8,0-18.4,8.6-28.7,25.7c11.6-4.8,19-11.1,22.1-18.9
		c0-1.2,0.5-1.8,1.5-1.8c1.5,2.2,2.2,4.3,2.2,6.3v10.1c0,0.7,4.2,1.6,12.5,2.6l-1.5-9.4l0.7-5.7c1,0,2.5,5.2,4.4,15.6l20.6,5.1
		v-15.1c0-9.1,7.4-17.1,22.1-24.1c5.9-4.5,8.8-8.7,8.8-12.5v-1.3c0-9.3-7.1-19.9-21.3-31.6v0.7l2.2,25.2v3.7h-0.7
		c-2.9,0-5.1-12.6-6.6-37.7c-31.5,27.5-51.9,43.2-61,47.3l-26.5,15.8L283.1,232.8z M336.8,240.3c0,6.1-8.1,16.4-24.3,30.9
		c-19.1,16.7-28.7,27.2-28.7,31.6c5.9,8.5,13.7,12.7,23.5,12.7c17.8,0,36.2-10.7,55.2-32.2l2.9-4.4L350,242.3L336.8,240.3z
		 M346.3,255.6l0.7,0.6h0.7c0,15.8-2.7,25.5-8.1,29.1c-14.2,7.2-21.3,13.5-21.3,18.9h-0.7c-2-3.9-2.9-7.7-2.9-11.4
		c0-8.5,7.4-16.7,22.1-24.6c4.7-3.4,7.6-7.6,8.8-12.5H346.3z M355.2,243.6v0.6c5.5,13.7,10.2,23,14,27.8c2.5-5.1,4.2-12.7,5.1-22.8
		L355.2,243.6z M364.7,319.9l1.5,16.9h-1.5l-0.7,0.7l-0.7-0.7l-1.5-16.4l0.7-0.6H364.7z M372.8,171v0.7l-6.6,18.8l0.7,2h2.2l4.4-4.4
		l0.7,0.6v1.3c0,3.6-1.5,6.1-4.4,7.5h-3.7c-2.5-1.1-3.7-2.8-3.7-5c0.5-6.4,3.7-13.5,9.6-21.5H372.8z M378.7,250.4v0.7l0.7,2.4v10.1
		c0,6.6-1.2,13.6-3.7,21c3.3,5.4,7.5,10.4,12.5,15.1c11.8-19.5,17.7-32.3,17.7-38.4C399.4,257.8,390.3,254.2,378.7,250.4z
		 M388.3,329.9c8.3,7.2,12.5,14.4,12.5,21.5c-0.6,7-2.1,11-4.4,12h-0.7v-0.6c2-4.7,2.9-8,2.9-10.1c-1.6-5.8-5.8-11.5-12.5-17.1v-3.7
		L388.3,329.9z M393.4,135.1v0.6h19.1l2.2-28.3l-0.7-2.6C411.3,107.4,404.4,117.5,393.4,135.1z M411.8,263.1v0.6
		c0,12.1-4.2,27.5-12.5,46.2v0.6c4.4,3.8,9.3,5.7,14.7,5.7c4.5,0,8.5-1.7,11.8-5c-1.5-8.3-2.2-15.3-2.2-21v-21.3L411.8,263.1z
		 M412.5,259.3l11,5.7c3.3-15.3,6.3-24.8,8.8-28.3v-0.7l-5.1-0.6h-0.7c-7,0-11.6,7.4-14,22.1V259.3z M429.4,184.2
		c12.3,1.6,18.4,3.5,18.4,5.7c0,5.1-0.7,11.5-2.2,18.9h-2.2c0-3.8-4.7-5.7-14-5.7l-2.2-0.6l-0.7-0.7c-1,0-1.5-0.6-1.5-1.8
		C426.3,190.5,427.7,185.2,429.4,184.2z M429.4,273.8L428,289c0,6.7,0.7,13.4,2.2,20c8.5-6.9,13.4-14,14.7-21.3l0.7-2l-15.4-12
		H429.4z M430.9,268.1v2c1.2,0,6.4,3.6,15.4,10.7c3.7-16.8,8.8-25.2,15.4-25.2c3.6,5.4,6,8.5,7.4,9.4h2.2
		c6.9-6.1,10.3-12.6,10.3-19.5c-6.4-7.6-12.3-11.4-17.7-11.4h-2.9c-8.6,0-17.2,7.4-25.7,22.1C432.4,261.9,430.9,265.9,430.9,268.1z
		 M451.5,293.5c0,11.6-3.4,21.3-10.3,28.9v0.7c4.2,0,11.8-2.8,22.8-8.3C464,310.4,459.8,303.3,451.5,293.5z M448.6,384.1
		c2.6,2.6,5,3.9,7.4,3.9l0.7-3.1h-0.7L448.6,384.1z M459.6,386.1l-2.2,3.7h0.7c25.6,10.2,42.3,15.3,50,15.3
		c-10.2-6.7-21.2-12-33.1-15.8L459.6,386.1z M480.9,185v1.1c-2.9,4.8-4.4,8.4-4.4,10.8c1,2.2,2.5,3.7,4.4,4.4h0.7l2.2-4.4h0.7v1.3
		h0.7c-1.4,5.9-2.8,8.8-4.4,8.8h-1.5c-3.9-1.8-5.9-4.2-5.9-7v-4.4C476.5,188.5,479,185,480.9,185z"/>
</g>
<path fill="#000000" d="M273.602,481.306c-0.578-0.576-1.301-1.03-2.174-1.362c-0.873-0.331-1.885-0.497-3.039-0.497
	c-0.663,0-1.463,0.079-2.4,0.238v-6.077h-1.535v17.711c0.706,0.202,1.402,0.354,2.087,0.454s1.301,0.151,1.849,0.151
	c1.153,0,2.166-0.162,3.039-0.486s1.596-0.764,2.174-1.319c0.576-0.555,1.006-1.211,1.287-1.968s0.42-1.561,0.42-2.411
	s-0.139-1.657-0.42-2.422C274.608,482.554,274.178,481.883,273.602,481.306z M272.391,489.167c-0.852,0.829-2.17,1.243-3.958,1.243
	c-0.39,0-0.805-0.032-1.244-0.097c-0.439-0.065-0.84-0.134-1.2-0.206v-8.845c0.447-0.115,0.887-0.194,1.319-0.237
	c0.433-0.044,0.808-0.065,1.125-0.065c0.894,0,1.668,0.112,2.325,0.335c0.656,0.224,1.199,0.545,1.633,0.963
	c0.432,0.418,0.752,0.919,0.961,1.503s0.314,1.243,0.314,1.979C273.667,487.195,273.241,488.338,272.391,489.167z M247.392,479.446
	c-0.62,0-1.297,0.079-2.033,0.238c-0.735,0.158-1.485,0.433-2.249,0.821l-0.065,1.73c0.548-0.303,0.973-0.52,1.276-0.649
	s0.624-0.237,0.962-0.324c0.338-0.086,0.677-0.158,1.016-0.216s0.667-0.087,0.984-0.087c1.139,0,1.982,0.249,2.53,0.746
	s0.822,1.33,0.822,2.498v0.13c-0.332-0.044-0.732-0.087-1.2-0.13c-0.469-0.043-0.876-0.065-1.222-0.065
	c-1.831,0-3.302,0.311-4.412,0.931c-1.11,0.619-1.665,1.644-1.665,3.07c0,0.707,0.155,1.305,0.465,1.795
	c0.31,0.49,0.713,0.88,1.211,1.168s1.067,0.497,1.708,0.627c0.641,0.13,1.308,0.194,2,0.194c0.807,0,1.6-0.072,2.378-0.216
	c0.779-0.145,1.536-0.368,2.271-0.671v-7.028c0-1.585-0.397-2.742-1.189-3.471C250.189,479.811,248.992,479.446,247.392,479.446z
	 M250.636,489.892c-0.375,0.144-0.858,0.267-1.449,0.367c-0.591,0.102-1.183,0.151-1.773,0.151c-0.505,0-0.984-0.035-1.438-0.108
	c-0.454-0.071-0.84-0.197-1.157-0.378c-0.317-0.18-0.57-0.414-0.757-0.703c-0.188-0.288-0.281-0.663-0.281-1.124
	c0-0.52,0.111-0.934,0.335-1.244c0.224-0.31,0.533-0.551,0.93-0.724c0.396-0.174,0.85-0.296,1.362-0.368
	c0.511-0.072,1.041-0.108,1.589-0.108c0.476,0,0.984,0.029,1.524,0.087c0.541,0.058,0.912,0.108,1.114,0.151V489.892z
	 M258.032,479.868c-0.649,0.122-1.276,0.263-1.881,0.422v11.418h1.535v-10.186c0.202-0.072,0.563-0.147,1.082-0.228
	c0.519-0.079,1.002-0.118,1.449-0.118h1.989v-1.492H260C259.336,479.685,258.681,479.746,258.032,479.868z M-77.92,487.667
	l241.145,0.656l0.663-0.433l-0.632-0.564L-77.92,487.667z M164.994,487.825l1.95,1.95l1.95-1.95l-1.95-1.95L164.994,487.825z
	 M169.559,487.825l3.057,3.057l3.057-3.057l-3.057-3.057L169.559,487.825z M212.359,489.286l-3.395-9.602h-1.514l-3.396,9.602
	l-2.984-9.602h-1.73l3.979,12.023h1.428l3.46-9.645l3.46,9.645h1.427l3.979-12.023h-1.73L212.359,489.286z M238.418,489.589
	c-0.317,0-0.591,0.115-0.822,0.346c-0.231,0.23-0.346,0.505-0.346,0.822c0,0.316,0.115,0.591,0.346,0.821
	c0.23,0.23,0.504,0.346,0.822,0.346c0.317,0,0.591-0.115,0.822-0.346c0.23-0.23,0.346-0.505,0.346-0.821
	c0-0.317-0.116-0.592-0.346-0.822C239.009,489.704,238.735,489.589,238.418,489.589z M193.243,489.286l-3.395-9.602h-1.514
	l-3.396,9.602l-2.984-9.602h-1.73l3.979,12.023h1.428l3.46-9.645l3.46,9.645h1.427l3.979-12.023h-1.73L193.243,489.286z
	 M231.476,489.286l-3.395-9.602h-1.514l-3.396,9.602l-2.984-9.602h-1.73l3.979,12.023h1.428l3.46-9.645l3.46,9.645h1.427
	l3.979-12.023h-1.73L231.476,489.286z M382.732,480.474c-0.426-0.396-0.938-0.667-1.535-0.812c-0.598-0.144-1.271-0.216-2.021-0.216
	c-0.664,0-1.393,0.09-2.184,0.271c-0.793,0.181-1.471,0.4-2.033,0.659c-0.346-0.331-0.818-0.569-1.416-0.714
	c-0.6-0.144-1.273-0.216-2.023-0.216c-0.635,0-1.268,0.058-1.902,0.173l-2.465,0.454v11.635h1.535v-10.38
	c0.447-0.102,0.883-0.188,1.309-0.26c0.424-0.072,0.896-0.108,1.416-0.108c0.605,0,1.125,0.058,1.557,0.173
	c0.434,0.116,0.789,0.321,1.07,0.616c0.281,0.296,0.494,0.711,0.639,1.244s0.217,1.24,0.217,2.119v6.596h1.535v-7.201
	c0-0.663-0.055-1.243-0.162-1.741c-0.109-0.497-0.213-0.861-0.314-1.092c0.086-0.043,0.281-0.119,0.584-0.228
	c0.303-0.107,0.602-0.197,0.898-0.27c0.295-0.072,0.586-0.126,0.875-0.162s0.547-0.055,0.779-0.055c0.59,0,1.102,0.058,1.535,0.173
	c0.432,0.116,0.781,0.317,1.049,0.605c0.266,0.289,0.471,0.703,0.615,1.244c0.145,0.54,0.217,1.251,0.217,2.13v6.596h1.535v-7.201
	c0-0.995-0.111-1.816-0.336-2.466C383.482,481.393,383.158,480.87,382.732,480.474z M280.1,474.581
	c-0.785,0.648-1.18,1.729-1.18,3.243v1.86h-2.551v1.492h2.551v10.531h1.537v-10.531h4.973v-1.492h-4.973v-1.471
	c0-0.635,0.045-1.149,0.141-1.546c0.094-0.396,0.24-0.707,0.443-0.931c0.201-0.223,0.475-0.385,0.82-0.486
	c0.346-0.101,0.779-0.151,1.299-0.151h2.422v-1.492h-2.271C281.956,473.607,280.885,473.932,280.1,474.581z M398.273,487.825
	l3.057,3.057l3.057-3.057l-3.057-3.057L398.273,487.825z M343.322,482.322c0.389-0.418,0.854-0.749,1.395-0.994
	s1.135-0.368,1.783-0.368c0.736,0,1.373,0.076,1.914,0.228s1.121,0.414,1.74,0.789l0.715-1.405c-0.707-0.39-1.393-0.674-2.055-0.854
	c-0.664-0.181-1.436-0.271-2.314-0.271c-0.85,0-1.639,0.155-2.367,0.465c-0.729,0.311-1.367,0.746-1.914,1.309
	c-0.549,0.563-0.98,1.222-1.297,1.979c-0.317,0.757-0.476,1.59-0.476,2.498s0.158,1.74,0.476,2.497
	c0.316,0.757,0.748,1.413,1.297,1.969c0.547,0.555,1.186,0.987,1.914,1.297c0.729,0.311,1.518,0.465,2.367,0.465
	c0.879,0,1.65-0.09,2.314-0.27c0.662-0.181,1.348-0.466,2.055-0.854l-0.715-1.406c-0.619,0.375-1.199,0.639-1.74,0.79
	s-1.178,0.227-1.914,0.227c-0.648,0-1.242-0.119-1.783-0.356c-0.541-0.238-1.006-0.565-1.395-0.984
	c-0.391-0.418-0.693-0.915-0.908-1.492c-0.217-0.576-0.324-1.203-0.324-1.881s0.107-1.305,0.324-1.882
	C342.628,483.238,342.931,482.741,343.322,482.322z M404.387,487.825l1.949,1.95l1.951-1.95l-1.951-1.95L404.387,487.825z
	 M410.701,487.326l-0.664,0.433l0.633,0.564l241.176-0.341L410.701,487.326z M362.611,481.295c-0.549-0.569-1.193-1.02-1.936-1.352
	c-0.742-0.331-1.547-0.497-2.412-0.497c-0.863,0-1.668,0.166-2.41,0.497c-0.742,0.332-1.389,0.782-1.936,1.352
	c-0.549,0.57-0.977,1.229-1.287,1.979c-0.311,0.749-0.465,1.557-0.465,2.422s0.154,1.672,0.465,2.422s0.738,1.409,1.287,1.979
	c0.547,0.569,1.193,1.017,1.936,1.341s1.547,0.486,2.41,0.486c0.865,0,1.67-0.162,2.412-0.486s1.387-0.771,1.936-1.341
	c0.547-0.569,0.977-1.229,1.287-1.979c0.309-0.75,0.465-1.557,0.465-2.422s-0.156-1.673-0.465-2.422
	C363.587,482.524,363.158,481.865,362.611,481.295z M362.394,487.523c-0.217,0.569-0.52,1.067-0.908,1.492
	c-0.389,0.426-0.857,0.765-1.406,1.017c-0.547,0.252-1.152,0.378-1.816,0.378c-0.662,0-1.268-0.126-1.816-0.378
	c-0.547-0.252-1.016-0.591-1.404-1.017c-0.391-0.425-0.693-0.923-0.908-1.492c-0.217-0.569-0.324-1.179-0.324-1.827
	c0-0.649,0.107-1.262,0.324-1.839c0.215-0.576,0.518-1.077,0.908-1.503c0.389-0.425,0.857-0.764,1.404-1.016
	c0.549-0.252,1.154-0.379,1.816-0.379c0.664,0,1.27,0.127,1.816,0.379c0.549,0.252,1.018,0.591,1.406,1.016
	c0.389,0.426,0.691,0.927,0.908,1.503c0.217,0.577,0.324,1.189,0.324,1.839C362.718,486.345,362.611,486.954,362.394,487.523z
	 M296.221,481.295c-0.547-0.569-1.191-1.02-1.936-1.352c-0.742-0.331-1.545-0.497-2.41-0.497s-1.67,0.166-2.412,0.497
	c-0.742,0.332-1.387,0.782-1.936,1.352c-0.547,0.57-0.977,1.229-1.285,1.979c-0.311,0.749-0.465,1.557-0.465,2.422
	s0.154,1.672,0.465,2.422c0.309,0.75,0.738,1.409,1.285,1.979c0.549,0.569,1.193,1.017,1.936,1.341s1.547,0.486,2.412,0.486
	s1.668-0.162,2.41-0.486c0.744-0.324,1.389-0.771,1.936-1.341c0.549-0.569,0.977-1.229,1.287-1.979s0.465-1.557,0.465-2.422
	s-0.154-1.673-0.465-2.422C297.198,482.524,296.77,481.865,296.221,481.295z M296.006,487.523c-0.217,0.569-0.52,1.067-0.908,1.492
	c-0.391,0.426-0.859,0.765-1.406,1.017c-0.549,0.252-1.154,0.378-1.816,0.378c-0.664,0-1.27-0.126-1.816-0.378
	c-0.549-0.252-1.018-0.591-1.406-1.017c-0.389-0.425-0.691-0.923-0.908-1.492s-0.324-1.179-0.324-1.827
	c0-0.649,0.107-1.262,0.324-1.839c0.217-0.576,0.52-1.077,0.908-1.503c0.389-0.425,0.857-0.764,1.406-1.016
	c0.547-0.252,1.152-0.379,1.816-0.379c0.662,0,1.268,0.127,1.816,0.379c0.547,0.252,1.016,0.591,1.406,1.016
	c0.389,0.426,0.691,0.927,0.908,1.503c0.215,0.577,0.324,1.189,0.324,1.839C296.331,486.345,296.221,486.954,296.006,487.523z
	 M309.381,480.463c-0.455-0.39-0.996-0.656-1.623-0.801c-0.627-0.144-1.309-0.216-2.043-0.216c-0.707,0-1.465,0.047-2.271,0.141
	s-1.701,0.234-2.682,0.422v11.699h1.535v-10.402c1.184-0.23,2.293-0.346,3.33-0.346c0.592,0,1.111,0.062,1.559,0.184
	c0.445,0.123,0.818,0.332,1.113,0.628c0.295,0.295,0.525,0.713,0.691,1.254s0.25,1.251,0.25,2.13v6.553h1.535v-7.201
	c0-0.995-0.119-1.82-0.357-2.477C310.18,481.375,309.834,480.852,309.381,480.463z M318.516,490.054
	c-0.346-0.108-0.619-0.277-0.82-0.509c-0.203-0.23-0.35-0.547-0.443-0.951c-0.096-0.403-0.141-0.922-0.141-1.557v-5.86h4.973v-1.492
	h-4.973v-4.347h-1.537v4.347h-2.551v1.492h2.551v6.466c0,0.764,0.109,1.405,0.326,1.925c0.215,0.519,0.525,0.937,0.93,1.254
	c0.402,0.317,0.867,0.544,1.395,0.682c0.525,0.137,1.105,0.205,1.74,0.205h2.271v-1.492h-2.422
	C319.295,490.216,318.862,490.162,318.516,490.054z M337.784,489.589c-0.316,0-0.59,0.115-0.82,0.346s-0.346,0.505-0.346,0.822
	c0,0.316,0.115,0.591,0.346,0.821s0.504,0.346,0.82,0.346c0.318,0,0.592-0.115,0.822-0.346s0.346-0.505,0.346-0.821
	c0-0.317-0.115-0.592-0.346-0.822S338.102,489.589,337.784,489.589z M333.178,486.106c-0.346-0.303-0.785-0.565-1.318-0.789
	c-0.533-0.223-1.182-0.422-1.947-0.595l-0.799-0.173c-1.053-0.216-1.781-0.461-2.184-0.735c-0.404-0.273-0.607-0.678-0.607-1.211
	c0-0.504,0.238-0.904,0.715-1.2c0.475-0.295,1.174-0.443,2.098-0.443c0.793,0,1.477,0.076,2.055,0.228
	c0.576,0.151,1.217,0.421,1.924,0.811l0.691-1.405c-1.412-0.765-2.969-1.146-4.67-1.146c-0.635,0-1.223,0.076-1.764,0.228
	c-0.539,0.151-1.008,0.364-1.404,0.638s-0.711,0.605-0.941,0.994c-0.23,0.39-0.346,0.815-0.346,1.276
	c0,0.462,0.072,0.88,0.217,1.254c0.143,0.375,0.381,0.707,0.713,0.995s0.758,0.537,1.275,0.746c0.52,0.209,1.146,0.4,1.883,0.573
	l0.908,0.194c1.008,0.217,1.729,0.49,2.162,0.822c0.432,0.331,0.648,0.771,0.648,1.318c0,0.39-0.086,0.707-0.26,0.952
	c-0.172,0.245-0.414,0.436-0.725,0.573c-0.311,0.137-0.678,0.237-1.102,0.303c-0.426,0.064-0.877,0.097-1.352,0.097
	c-0.592,0-1.223-0.09-1.893-0.271c-0.67-0.18-1.352-0.479-2.045-0.897l-0.734,1.471c0.779,0.433,1.539,0.742,2.281,0.93
	s1.539,0.281,2.391,0.281c0.748,0,1.434-0.072,2.053-0.216c0.621-0.145,1.158-0.36,1.611-0.648c0.455-0.289,0.805-0.649,1.049-1.082
	c0.246-0.433,0.369-0.93,0.369-1.492c0-0.476-0.072-0.915-0.217-1.318C333.77,486.763,333.526,486.41,333.178,486.106z"/>
</svg>

