<?xml version="1.0" encoding="utf-8"?>
<!-- Generator: Adobe Illustrator 22.1.0, SVG Export Plug-In . SVG Version: 6.00 Build 0)  -->
<svg version="1.1" id="Layer_1" xmlns="http://www.w3.org/2000/svg" xmlns:xlink="http://www.w3.org/1999/xlink" x="0px" y="0px"
	 viewBox="0 0 800 500" style="enable-background:new 0 0 800 500;" xml:space="preserve">
<g>
	<path fill="#000000" d="M122.9,386.4h2.4v0.7h-2.4V386.4z M274.2,96.8V98c-3.3,11.8-5,21.3-5,28.7v7c0,12.5,5.4,27.9,16.2,46.2
		c6.1,11.8,9.2,23.5,9.2,35.1v6.3c0,6.4-0.8,14.5-2.4,24.5h-0.6c-3.2-29.3-7.5-47.5-13.1-54.6c-12.9-21-19.3-38.7-19.3-53.1h-0.6
		c-5.4,18.5-8.1,32.3-8.1,41.4v2.8c0,15.7,7.4,29.7,22.3,41.9c13.2,14.1,19.9,28.1,19.9,42.1c0,33.5-11.6,59.6-34.8,78.3l-6.1,3.5
		c2.5-8.2,3.7-14,3.7-17.5l-0.6-0.7h-0.7c-1.7,1.2-4.6,8.5-8.6,21.7c-7.6,5.9-28.7,13.8-63.3,23.7c-20.5,4.7-39.3,8.4-56.5,11.2
		h-0.7v-0.7C232.4,348.3,286,310,286,270.9c0-8.2-5.6-17.5-16.7-28c-16.5-16.3-24.8-37.3-24.8-63.1
		C244.4,155.6,254.4,127.9,274.2,96.8z M308.4,205.1c14,9,22.4,18.3,25.4,28.1l1.8,17.5c0,12.4-4.8,24.9-14.3,37.7
		c-2.8,6.3-4.2,10.5-4.2,12.7h0.6c12.9-7.5,19.3-15.6,19.3-24.5h1.3c2,8.3,2.9,14.4,2.9,18.2v2.8c0,14.7-9.3,30.3-27.8,46.9h-0.7
		v-2.2l-0.6-4.8h-1.3c-2.8,12.3-5.5,18.8-8.1,19.5c-11.3,21.6-19.3,35.4-24.1,41.4c-3.9,4.2-8.9,6.3-14.9,6.3
		c-9.7,0-16.1-5.1-19.3-15.4l-1.3-10.5c0-10.3,2.9-24,8.8-41.2h0.6v1.3c-3.3,13.2-5,23.8-5,31.6c0,10.5,3.9,16.4,11.8,17.5l1.8,0.7
		c7.4,0,16.7-12.1,28-36.4c3.3-5.9,12.2-16.2,26.7-30.9c-2.5-12.7-3.7-22.1-3.7-28c0-13.1,5-25.7,14.9-37.9l3.1-9v-3.5
		c0-7.6-4.6-13.4-13.8-17.5h-1.8v0.7c0,3.3,1.3,8.9,3.9,16.7v0.7h-0.7c-7.5-17.7-11.2-30.3-11.2-37.9L308.4,205.1z M246.3,400.4h1.3
		v1.5l-1.3,1.5l-1.1-1.5L246.3,400.4z M253.1,373.9h3.9l0.6,3.5l-0.6,2h-3.9l-0.6-3.5L253.1,373.9z M303.5,261.1h1.1
		c5,1.4,7.5,4.2,7.5,8.5v1.3c0,3.4-2.3,6.3-6.8,8.5v-0.7l1.1-4.2v-0.7c0-1.1-0.8-1.8-2.4-2c-3.3,1.4-5,4.6-5,9.7
		c0,2.1,3.3,8.6,9.9,19.7l1.3,8.5v4c-0.9,8.5-1.9,12.7-3.1,12.7l-3.1-8.5h-1.3l-9.2,17.5c-8,9.9-16.7,17-26.1,21.1l-14.3,6.3
		c14.5-10.8,25.7-19.9,33.7-27.4c4.4-5.4,8.5-11.6,12.3-18.8c-5.8-1.1-8.6-3.4-8.6-7c0-3.1,1.8-5,5.5-5.7h3.7
		c4.5,3.3,6.8,6.8,6.8,10.5h0.7v-2c0-5.5-3.1-11.3-9.4-17.5c-2.1-4.9-3.1-9.8-3.1-14.7C294.6,268.8,297.6,262.5,303.5,261.1z
		 M263.7,343.7h1.1c0.7,0,1.4,0.9,2,2.8c-0.6,2.2-1.5,3.4-2.6,3.5c-1.6-0.6-2.4-1.3-2.4-2v-2.2L263.7,343.7z M264.3,377.4l1.3,1.3
		v0.7l-1.3,1.5l-1.3-1.5v-0.7L264.3,377.4z M266.9,363.9l0.6,0.7v2.8h-1.8v-2L266.9,363.9z M275.5,331.8h1.8c0.6,0,1.2,1,1.8,2.9
		l-0.6,2.8h-3.1l-1.3-1.5v-2.8L275.5,331.8z M277.9,357h1.8l1.3,1.5v2.8l-1.3,1.5h-1.8l-1.1-1.5v-2.8L277.9,357z M279.2,156.2h3.1
		l1.3,1.5v2.8l-1.3,1.5h-3.1V156.2z M284.2,319.3h1.8l1.3,1.3v2.9c0,1.3-0.9,2-2.6,2c-1.6-0.5-2.4-1.9-2.4-4.2L284.2,319.3z
		 M284.7,397.6h2l1.1,1.5v2.8l-1.1,1.5h-2c-1.2-0.5-1.8-1.9-1.8-4.2L284.7,397.6z M284.2,166.6h1.3l1.3,1.5l-1.3,1.3h-1.3V166.6z
		 M291,169.4h1.8c1,0,1.6,1.2,1.8,3.5l-1.8,2.9H291l-1.3-1.5v-3.5L291,169.4z M292.8,156.2h1.8l1.3,1.5v2.8l-1.3,1.5h-2.9v-4.2
		L292.8,156.2z M300.9,380.1v0.7c-2.1,4.2-3.1,8.3-3.1,12.5v0.7c0,1.4,0.9,2,2.6,2c2.1-0.7,3.1-2.1,3.1-4h0.6v2c0,4-1.5,7.1-4.4,9.2
		h-2.4c-1.7-0.9-2.6-2.5-2.6-5v-2.2C294.6,391.3,296.7,386,300.9,380.1z M298.5,185.6h1.8l1.3,1.5v2.8l-1.3,1.3h-1.8l-1.3-1.3V187
		L298.5,185.6z M298.5,255.4h1.1v2.9h-1.1l-1.3-1.5L298.5,255.4z M299.1,201h2.6l1.1,1.3v2.2l-1.8,2l-3.1-0.7v-3.5L299.1,201z
		 M304,228.2v0.7c-1.6,3.7-2.4,6.7-2.4,9v3.5l1.8,2.2c2.5-1.1,3.7-2.8,3.7-5h0.6v2.2c-1.2,6.5-3.1,9.7-5.5,9.7c-2.9,0-4.4-1.7-4.4-5
		C297.8,239.6,299.8,233.8,304,228.2z M300.9,163.1h1.8l1.3,1.5v2.8c0,1.4-0.8,2-2.4,2l-2-0.6v-4.2L300.9,163.1z M301.6,217.8h1.1
		v2.8h-1.1l-1.3-1.3L301.6,217.8z M301.6,324.8h1.8l1.1,1.5v2.8l-1.1,1.5h-1.8l-1.3-1.5v-2.8L301.6,324.8z M300.9,370.9h2.6v2.9
		h-2.6V370.9z M303.5,175.1h1.1c1,0,1.6,1.2,1.8,3.5l-1.8,2.8h-1.1l-1.8-2v-2.2L303.5,175.1z M302.2,156.2h1.3l1.1,1.5v1.3h-2.4
		V156.2z M376.7,51.9l7.4,19.7c-9.7,11.6-14.8,22.6-15.4,32.7c0,4,1.4,7.1,4.2,9.2h0.7c2.6-6.1,5.6-9.2,9.2-9.2h0.7
		c3.9,0,6.2,3.6,6.8,10.7v2.8c0,4.5-1.8,8-5.5,10.5h-4.4c-1.5,0-3.7-1.2-6.8-3.5l-0.7,8.3v1.5c1,7,3.1,10.5,6.3,10.5
		c1.6-3.7,3.7-5.5,6.3-5.5h2.4c3.7,0,5.8,3,6.3,9v2.8c0,6.6-2.9,9.9-8.6,9.9c-3.7-0.7-5.5-2.1-5.5-4.2H379l-0.6,3.5v10.5
		c0,6.3,2.3,12.6,6.8,18.9v0.7c-7.5-5-11.2-12.5-11.2-22.4v-2.8l1.3-12.7c-4.5-3.7-6.8-9-6.8-16V131l0.6-11.2l-0.6-2h-3.1
		c0,25.5-3.7,46-11.2,61.6l-5,5.5c0,13.9,8.7,38.6,26.1,74.3c7,17.9,10.5,33.3,10.5,46.2c-0.4,6.3-1.4,12.1-3.1,17.5h-0.6v-12.7
		l-1.3-1.3c-1.6,4.7-3,12.6-4.2,23.7c-12,9.9-18,17.2-18,21.7c-1.1,1.5-1.7,5.9-1.8,13.2v8.5c0,20.1-3.3,31.8-9.9,34.9l-8.1,1.5
		c-19.9,0-29.8-17.5-29.8-52.4c0-6.4,0.6-12.9,1.8-19.7h0.6l-0.6,8.5v9.7c0,20.1,4.8,32.5,14.3,37.1c4.4,1.4,8.1,2,11,2
		c6.1,0,10.5-4,13.1-12l4.4-43.9c0-4.7,8.7-16.1,26.1-34.4c1.6-3.1,2.4-6.1,2.4-9c0-3.7-2.5-11.4-7.4-23.2h-0.7
		c0,16.4-8,30.4-24.1,41.9l-3.1,2.9v-0.7c14.5-18.6,21.7-33.1,21.7-43.4v-4.2c0-7.2-5.6-13.3-16.7-18.2c-7.8-5-11.8-12.5-11.8-22.4
		v-3.5c0-8.8,2.5-13.2,7.4-13.2l-1.8-27.2c-3.9,3.2-8.5,4.8-13.6,4.8c-12,0-20.5-8.6-25.6-25.9v-8.3c2-11.6,6.7-17.5,14.3-17.5h0.6
		c4.7,0.7,7,3.7,7,9c0,6-2.9,10-8.8,12h-2.4c-1.4,0-2.8-0.7-4.4-2.2h-0.6v7c0,7.5,4.1,11.2,12.3,11.2c13.1,0,22-8.6,26.7-25.9
		l1.3-5.5c-3.9,3.7-7.2,5.5-9.9,5.5c-5.4,0-8.1-5.1-8.1-15.3c0-8.6,2.9-14.4,8.8-17.5c2.5,0.6,3.7,1.3,3.7,2v2.8l-3.1,3.5h-1.3
		l-2.4-2c-1.2,2.3-1.8,4.7-1.8,7v0.7c0,4.2,2.3,6.3,6.8,6.3c7.4,0,11-5.8,11-17.5c2.8-30.8,6.7-49.6,11.8-56.6
		C370.4,59.1,373.3,54.8,376.7,51.9z M308.4,397.6h1.8l1.1,1.5v2.8l-1.1,1.5h-1.8l-1.3-1.5v-2.8L308.4,397.6z M314.5,253.4h1.3
		l1.8,2l-0.6,3.7h-3.7l-0.7-2.9L314.5,253.4z M315.2,366.9h2.4l1.3,1.3v2.8l-1.3,1.5h-1.8l-1.8-2v-2.2L315.2,366.9z M319.5,164.6
		l1.3,2v2.2l-1.8,2l-2.6-0.7v-4.8L319.5,164.6z M318.9,191.1c1.6,0.7,2.4,1.5,2.4,2.2v2l-1.8,2.2h-1.1l-2-2.2v-2l0.7-0.7l1.8-0.7
		V191.1z M327,343.7c4.9,0,7.6,3.3,8.1,9.7c-0.9,7.5-4.2,11.2-9.9,11.2c-5.4-1.1-8.1-3.7-8.1-7.7v-2
		C318.2,347.5,321.5,343.7,327,343.7z M322.6,237.4h1.8l1.3,1.3v0.7l-0.6,3.5h-2.6l-1.3-1.5v-2.8L322.6,237.4z M332.5,366.1
		c4.8,0,7.7,3,8.6,9c0,6.9-3.7,10.8-11,12c-5-1.3-7.5-4.2-7.5-8.5v-1.3C323.8,369.9,327.1,366.1,332.5,366.1z M328.8,199.5h0.6v0.7
		l-1.1,6.3l0.6,3.5h1.8c1.7-1,2.6-2.1,2.6-3.5h0.6v2.8c-0.7,4.7-2.4,7-5,7c-2.5-1.1-3.7-2.7-3.7-4.8L328.8,199.5z M328.3,165.3h1.8
		l1.1,1.3v2.8l-1.8,2.2c-1.6-0.7-2.4-1.5-2.4-2.2v-2.8L328.3,165.3z M329.4,280.1h2.6l0.6,3.5v0.7l-1.3,1.3h-1.8
		c-0.6,0-1.2-0.9-1.8-2.8L329.4,280.1z M330.1,333.2c1.6,0.7,2.4,1.4,2.4,2v2.2l-1.8,2h-1.3l-1.8-2.8c0-1.8,0.9-2.8,2.6-2.8V333.2z
		 M330.1,156.2h3.1l1.1,1.5v2l-1.8,2.2h-1.3c-0.9,0-1.5-1.2-1.8-3.7L330.1,156.2z M330.1,196.8h0.6v2l-0.6,0.7h-0.7v-0.7
		L330.1,196.8z M335.1,224h1.8l1.3,1.5v2.8l-2,2h-0.6l-1.8-2v-2.8L335.1,224z M335.6,389.1h1.3c0.9,0,1.5,1.2,1.8,3.5
		c-0.4,2-1.6,2.9-3.7,2.9l-1.3-2.2v-2L335.6,389.1z M337.5,165.3l1.3,1.3v0.7l-1.3,1.5l-1.3-1.5v-0.7L337.5,165.3z M339.3,196.8
		l2.6,2v2.8l-1.3,1.5h-1.8l-1.3-1.5v-2.8L339.3,196.8z M343.7,331.2v0.6c-1.7,3.1-2.6,6.6-2.6,10.5c0,1.5,0.7,2.9,2,4.2
		c2.5-1.1,3.7-2.7,3.7-4.8h0.6v2c0,4-1.4,7.1-4.2,9.2h-2.6c-2.1-1.5-3.1-3.4-3.1-5.7C339.6,338.1,341.7,332.8,343.7,331.2z
		 M340.1,251.4h1.1l2,2v2l-2.6,2.2l-2.4-2.2v-2L340.1,251.4z M340.6,266.1l1.8,0.6v4.2l-1.3,1.5h-1.8l-1.1-1.5v-2.8L340.6,266.1z
		 M339.3,156.2h3.1l1.3,1.5v2.8l-1.8,2c-2.1-0.2-3.1-1.7-3.1-4.2L339.3,156.2z M338.8,324.8h1.3l1.1,1.5l-1.1,1.3h-1.3V324.8z
		 M342.4,362.7h3.1l0.6,2.8c-0.6,1.8-1.2,2.8-1.8,2.8h-1.1l-2-2v-2.2L342.4,362.7z M346.1,221.2c-1.6,2.5-2.4,5-2.4,7.7v5.5
		c0,5.9,6.8,12.4,20.4,19.7c-3.8-8.8-6.9-14.6-9.2-17.5h-0.7v3.5l-1.8,2h-1.3c-2.5-1.6-3.7-4.3-3.7-8.3v-2.2c3.3,0,5-0.7,5-2v-1.5
		C351.4,223.6,349.3,221.2,346.1,221.2z M346.9,298.8h1.8l1.3,1.5v4.2l-1.8,0.7l-2.6-2.2v-2.8L346.9,298.8z M352.4,268.1l-2.4,10.5
		c0.7,2.8,1.5,4.2,2.4,4.2c2.5-1.1,3.7-2.8,3.7-5h0.7v1.5c-1.5,7-3.1,10.5-5,10.5h-0.7c-2.8,0-4.2-1.7-4.2-5
		C346.9,279.1,348.7,273.5,352.4,268.1z M348.1,327h3.7l0.6,3.5l-0.6,2h-2.6l-1.8-2.8L348.1,327z M355.5,192.6h1.3
		c0.9,0,1.5,1.2,1.8,3.5l-1.8,2v0.7c-2.1-0.2-3.1-1.7-3.1-4.2L355.5,192.6z M356.1,243.7h1.3v2.8h-1.3L355,245L356.1,243.7z
		 M360.5,265.4l1.8,0.7v4l-1.3,1.5h-1.8c-0.6,0-1.2-0.9-1.8-2.8C357.7,266.5,358.8,265.4,360.5,265.4z M364.9,169.4v0.7
		c-2.1,3.4-3.1,7.4-3.1,12v1.3l1.8,2.2h0.6c2.1-1.5,3.1-3.1,3.1-5h0.6v2.2c0,4-1.4,7.1-4.2,9H361l-2.4-2.8v-2
		C358.6,180.7,360.7,174.8,364.9,169.4z M361,212.2h1.8l1.3,1.3v2.8l-1.8,2.2c-2.1-0.4-3.1-1.8-3.1-4.2L361,212.2z M361,384.4h2.6
		l0.6,3.5l-0.6,2H361l-1.8-2v-1.5L361,384.4z M361.8,368.9h1.1l2,2v2.2l-2.6,2c-1.6-0.6-2.4-1.3-2.4-2v-2.2L361.8,368.9z
		 M363.6,310.1h1.3l1.8,2.2v3.5l-2.6,0.7c-1.6-0.5-2.4-1.7-2.4-3.5L363.6,310.1z M362.9,397.6h3.1l0.7,3.5l-0.7,2.2h-3.1l-1.1-1.5
		v-2.8L362.9,397.6z M370.4,188.3v0.7c-2.1,3.8-3.1,7.8-3.1,12v1.3l1.8,2.2h0.7c2-1.3,2.9-2.8,2.9-4.2h0.7v2
		c-0.9,6.1-2.9,9.2-6.3,9.2c-2.1-1.2-3.1-3.1-3.1-5.7v-1.3C364.1,200.3,366.2,195,370.4,188.3z M366.7,155.4h1.8l1.3,1.5v3.5
		l-1.3,1.5h-1.8l-0.7-0.7l-0.6-2.2h-0.6C365.4,156.6,366,155.4,366.7,155.4z M369.8,349.2l1.8,2.2c0,2.3-0.9,3.7-2.6,4.2
		c-1.6-0.7-2.4-1.5-2.4-2.2V350L369.8,349.2z M369.1,170.9l1.3,1.5v1.3h-2.6v-1.3L369.1,170.9z M369.8,373.9
		c0.4,8.3,1.6,12.5,3.7,12.5h0.6c1.7-0.5,2.6-2.8,2.6-7h0.6l1.3,7.7l-1.3,5.5h-3.1c-3.7,0-5.5-4.2-5.5-12.5v-5L369.8,373.9z
		 M372.2,229.7c1.7,0.6,2.6,1.3,2.6,2v2.2c0,1.4-0.9,2-2.6,2c-1.2-0.4-2-1.3-2.4-2.8C370.3,231,371.1,229.8,372.2,229.7z M371,298.3
		h4.4l0.6,2.8l-1.8,2.8l-3.1-0.7V298.3z M372.8,218.5h1.3v2.8h-1.3l-1.1-1.5L372.8,218.5z M373.5,400.4l0.6,0.7v2.2h-2.4v-2.2
		L373.5,400.4z M374.1,186.3h1.8l1.3,1.3v2.9l-1.3,1.3h-1.8c-0.6,0-1.2-0.9-1.8-2.8L374.1,186.3z M376.7,116.2
		c0.7,2.1,1.5,3.2,2.4,3.5h2.6c2.8,0,4.2-1.4,4.2-4.2c-0.7-2.1-1.5-3.2-2.4-3.5H379C377.4,113,376.7,114.4,376.7,116.2z
		 M380.9,312.3h0.7V324c0,18.9,4.5,31,13.6,36.4c4.4,2.8,12.1,5.9,23,9.2l8.1,14v0.7l-4.4,0.7h-0.6c-29.1,0-43.6-15.6-43.6-46.9
		C377.8,330.1,378.8,321.5,380.9,312.3z M379,370.9h1.8l1.3,1.5v2.8l-1.3,1.5H379l-1.3-1.5v-2.8L379,370.9z M389.7,206.5
		c2,0,7.7,26.1,17.3,78.3l5.5,24.6l-1.8-0.7c-2.3,0-5,1.2-8.1,3.5c-4-28.2-9.2-55-15.4-80.5l-0.6-0.7h-0.7c-3.3,7.4-5,12.3-5,14.7
		h-1.1l-0.7-6.3C381.4,217.5,384.9,206.5,389.7,206.5z M379.8,397.6h3.7l0.6,3.5l-1.8,2.2h-1.3l-1.8-2.2L379.8,397.6z M382.2,201
		l1.8,0.6v4.2l-1.3,1.5h-1.8l-1.1-1.5V203C379.8,201.9,380.6,201.3,382.2,201z M382.2,251.4h1.8l1.3,1.3v2.8l-1.3,1.5h-1.8l-1.3-1.5
		v-2.8L382.2,251.4z M383.5,147.7v4.2c0,1.1,1,1.8,3.1,2.2l2.4-2.2v-4.2l-1.8-2C384.7,145.9,383.5,146.6,383.5,147.7z M384,261.9
		h2.6v2h-1.3l-1.3-1.3V261.9z M388.4,190.5l1.8,0.6v3.5l-1.8,2.2h-0.7l-1.8-2.2v-2C385.8,191.8,386.7,191.2,388.4,190.5z
		 M387.7,270.9l3.1,0.7v3.5c0,0.7-0.8,1.4-2.4,2c-1.7-0.4-2.6-1.7-2.6-4L387.7,270.9z M387.7,324l3.1,0.7v3.5l-1.8,2.2
		c-2.1-0.4-3.1-1.8-3.1-4.2L387.7,324z M392.1,163.1v0.7c-1.6,3.9-2.4,7.7-2.4,11.2v0.7c0,1.4,0.8,2,2.4,2c2.1-0.7,3.1-2.1,3.1-4.2
		h0.6v2.2c0,3.8-1.4,6.8-4.2,9h-0.7c-2.8,0-4.2-2.1-4.2-6.3C386.6,173.8,388.4,168.7,392.1,163.1z M389.7,383.6h2.9l1.3,1.5v2.8
		l-1.3,1.3h-1.8c-0.9,0-1.5-1.2-1.8-3.5L389.7,383.6z M392.1,285.6v1.5l-1.3,1.3l-1.1-2l0.6-0.7H392.1z M392.1,296.1h1.8l1.8,2.2v2
		l-1.8,2l-2.4-0.6v-2.2L392.1,296.1z M391.5,341h1.8v2l-1.3,1.5l-0.6-0.7V341z M393.9,198.8h2.6l1.1,1.5v2.8l-1.1,1.5h-1.8l-2-2.2
		v-2L393.9,198.8z M395.2,312.3h1.8l1.3,1.3v2.9l-1.3,1.3h-3.1l-0.6-3.5L395.2,312.3z M397.1,397.6h1.8l1.3,1.5v2.8l-1.3,1.5h-1.8
		l-1.3-1.5v-2.8L397.1,397.6z M398.4,210h2.4l1.3,1.5v2l-1.8,2.2h-2.6l-0.6-3.5v-0.7L398.4,210z M398.4,351.4h1.8l1.8,2v2.2
		l-1.3,1.3h-2.4l-1.3-1.3v-2.8L398.4,351.4z M398.9,156.2h3.1l1.3,1.5v2.8l-1.3,1.5h-1.8l-1.8-2.2L398.9,156.2z M398.9,387.8h2.6v2
		h-2.6V387.8z M402.6,184.8l1.8,0.7v4.2l-1.1,1.3h-2.6l-0.6-3.5V187L402.6,184.8z M400.2,338.2h1.8v2.8h-1.8V338.2z M411.4,310.1
		c4.7,0,7.3,3.3,7.9,9.9v0.6c0,5.5-3.5,9.1-10.5,10.7c-4.7,0-7.4-3.3-8.1-9.9v-0.7C400.7,315.5,404.3,312,411.4,310.1z M403.3,222.7
		h1.8l1.3,1.3v2.8l-1.3,1.5H402l-0.6-3.5L403.3,222.7z M442.3,156.2h3.1c3.9,0,6,3.1,6.3,9.2c-1.8,3.7-3.9,5.5-6.3,5.5l1.3-4.2v-0.7
		l-1.3-1.3h-1.8c-2.1,1-3.1,3.6-3.1,7.7c0,2.2,2.5,7.3,7.5,15.3c1.2,2.3,1.8,5.4,1.8,9.2c0,3.4-0.6,7.6-1.8,12.5h-0.7
		c-1.2-4.7-2.6-7-4.2-7c-2.6,7.8-6.9,15.1-13.1,21.7c-8.6,6.6-17.7,11.8-27.4,15.4c13.7-9.8,23.5-18.2,29.2-25.2
		c2.9-3.4,5.8-7.7,8.6-12.7V201c-4.5,0-6.8-1.9-6.8-5.7V194c0.4-1.5,1.8-2.6,4.4-3.5c3.8,0,6.7,3,8.6,9h0.6v-1.5
		c0-4.4-2.7-9.5-8.1-15.3c-1.2-2.5-1.8-4.8-1.8-7v-7C437.3,162.6,439,158.4,442.3,156.2z M405.7,389.1h1.8l1.3,1.5v2.8l-1.3,1.5
		h-2.4l-0.7-3.5v-0.7L405.7,389.1z M407,240.9h1.8l1.8,2c0,2.8-1.2,4.2-3.7,4.2l-1.3-2.2v-2.8L407,240.9z M411.4,158.9v0.7l-1.3,6.3
		v5l1.3,1.5h1.1l3.9-4.2v0.7c0,6-2.1,9.5-6.3,10.5c-2.5,0-3.7-1.7-3.7-5v-1.5C406.4,169.1,408.1,164.4,411.4,158.9z M408.8,254.9
		c1.7,0.6,2.6,1.3,2.6,2v3.5l-2.6,0.7c-1.6-0.5-2.4-1.7-2.4-3.5C406.7,256.2,407.5,255.3,408.8,254.9z M418.2,327.5
		c6.7,21.7,14.2,35.7,22.3,42.1c8.3,9.8,25.7,14.7,52,14.7h3.1l0.7,4.8v14.2H487c-37.3,0-61.5-15.6-72.6-46.9
		c-4.9-12.7-7.4-20.7-7.4-23.9h3.7C412.9,332.5,415.4,330.8,418.2,327.5z M410.1,201.6c1.2,0,1.8,1,1.8,2.9h0.6
		c-0.5,2.3-1.1,3.5-1.8,3.5h-1.8l-1.3-1.5v-4.2L410.1,201.6z M407.5,357h3.1l1.3,1.5v2.8l-1.3,1.5h-3.1V357z M412,276.6h1.3l0.6,0.6
		l0.6,2.2h0.7c-0.6,2.1-1.5,3.2-2.6,3.5c-1.6-0.7-2.4-1.4-2.4-2v-2.2L412,276.6z M418.2,204.5v0.6c-1.7,4.5-2.6,8.3-2.6,11.2
		c0.5,2,1.3,2.9,2.6,2.9c2.5-1.3,3.7-3,3.7-5h0.6v0.7c0,5-1.7,8.8-5,11.2h-0.6c-2.2,0-3.7-1-4.4-2.9v-4.8
		C412.5,214.8,414.4,210.2,418.2,204.5z M416.4,188.3h2.4l0.6,3.5v0.7l-1.1,1.5h-3.1v-4.2L416.4,188.3z M415.1,397.6h3.1l1.1,1.5
		v0.6l-0.6,3.7h-2.4l-1.3-1.5V397.6z M418.2,156.2h1.8l1.3,1.5v2.8l-1.3,1.5h-1.8l-1.3-1.5v-2.8L418.2,156.2z M416.9,272.4h0.6
		c0.9,3.9,9.7,16.5,26.7,37.7c4.5,8.5,6.8,16.2,6.8,23.2c-0.1,8.6-2.8,20-7.9,34.2c-1.2-0.1-4.4-3.4-9.4-9.7V357
		c7-13,10.5-22.3,10.5-28c0-3.8-5-10.3-14.9-19.5c-8.2-10.3-12.3-22.4-12.3-36.4V272.4z M420,307.3h2.4l1.3,1.5v2l-1.8,2.2H420
		l-1.3-1.5v-2.8L420,307.3z M426.9,158.2h0.6v0.7l-1.8,8.5v3.5l1.8,2c2.6-1.1,3.9-2.7,3.9-4.8h0.6v2c-1.1,6.5-2.9,9.7-5.5,9.7
		c-2.9-0.7-4.4-2.8-4.4-6.3C421.9,171,423.5,165.9,426.9,158.2z M428.1,232.5v0.7c-1.7,4.4-2.6,8.2-2.6,11.2
		c0.5,1.8,1.3,2.8,2.6,2.8c0.7,0,2.1-1.7,4.2-5v0.7c-0.9,7-2.9,10.5-6.1,10.5H425l-2.6-2.8v-3.5C422.4,243,424.3,238.1,428.1,232.5z
		 M422.4,322.8h1.3v2.8c0.9,6.1,2.1,9.2,3.7,9.2h0.7c1.6-0.7,2.4-2.9,2.4-6.4h0.7l1.1,6.4c-0.2,3.6-1,5.9-2.4,7
		c-5,0-7.5-4.2-7.5-12.7V322.8z M426.3,205.1h2.4l0.6,3.7v0.6l-1.1,1.5H425v-4.2L426.3,205.1z M426.3,392.6h1.8c0.6,0,1.2,1,1.8,2.9
		l-1.8,2.8h-1.8l-1.3-1.5v-2.8L426.3,392.6z M430.5,258.4v1.3c-1.2,2.3-1.8,5.4-1.8,9.2v1.3l1.3,1.5h1.8c1.6-1,2.4-2.4,2.4-4.2h0.7
		v2.2c0,5.4-1.9,8.4-5.7,9h-1.1l-2.6-2.8v-3.5C425.6,268.3,427.2,263.7,430.5,258.4z M428.1,185.6l2.4,2v2.9l-1.3,1.3h-1.8l-1.1-1.3
		v-2.9L428.1,185.6z M428.1,400.4l0.6,0.7v2.8h-1.3l-1.1-1.3v-1.5L428.1,400.4z M428.1,385.6h0.6l1.3,1.5v0.7l-1.3,1.3l-0.6-0.6
		V385.6z M432.4,345.7l1.8,0.7v3.5l-1.1,1.5h-2.6l-1.3-1.5v-3.5L432.4,345.7z M433.1,321.3h1.1l2,2.2v2l-2.6,2
		c-1.6-0.6-2.4-1.3-2.4-2v-2L433.1,321.3z M434.2,156.2h2l1.1,1.5v2.8l-1.1,1.5h-2l-1.1-1.5v-2.8L434.2,156.2z M434.9,182.1h1.3v2.8
		h-1.3l-1.3-1.5L434.9,182.1z M435.5,226.2h1.8l1.3,1.3v2.8l-1.8,2.2l-2.6-2.2v-2.8L435.5,226.2z M436.2,397.6h3.7l0.6,3.5l-1.8,2.2
		h-1.3l-1.8-2.2L436.2,397.6z M437.3,246.4h3.1l0.7,3.5v0.7c-0.5,1.4-1.8,2-3.9,2l-1.1-2v-2.8L437.3,246.4z M438.1,275.9h2.4
		l1.3,1.3v2.9l-1.3,1.3h-2.4l-1.3-1.3v-2.9L438.1,275.9z M446,216.3h0.7v0.7l-1.8,8.5v3.5l1.1,1.3h2c0.7,0,1.5-1.3,2.4-4h0.6v1.3
		c0,5-1.8,8.5-5.5,10.5c-2.8-0.9-4.2-2.7-4.2-5.5V231C441.2,228.9,442.8,224,446,216.3z M447.3,247.9v0.6c-1.6,3.7-2.4,6.7-2.4,9.2
		v5l1.8,0.6c2.5-1.1,3.7-2.7,3.7-4.8h0.6v2c0,5.6-2,8.9-6.1,9.7c-2.5-0.9-3.7-2.7-3.7-5.5v-0.7C441.2,259.7,443.2,254.4,447.3,247.9
		z M446.7,279.4v0.7l-1.8,8.3v3.5l1.8,2.2c2.5-1.1,3.7-2.8,3.7-5h0.6v2.2c0,5.5-2,8.8-6.1,9.7c-2.5-1-3.7-2.9-3.7-5.7v-1.3
		C441.2,289.9,443,285,446.7,279.4z M449.8,400.4h1.1v2.9h-1.1l-1.3-1.5L449.8,400.4z M449.1,177.8h2.6v2.8h-2.6V177.8z M449.1,217
		h2.6v2.2h-2.6V217z M449.1,249.9h2.6v2.8h-2.6V249.9z M450.4,281.4l1.3,1.5v1.5h-2.6v-1.5L450.4,281.4z M450.4,308l1.3,1.5v0.6
		l-1.3,1.5l-1.3-1.5v-0.6L450.4,308z M449.1,355.7h2.6v2.8h-2.6V355.7z M449.1,368.2h1.8v2.8h-1.8V368.2z M503.7,382.1l1.3,21.1
		h-4.4v-11.2l-0.6-8.5L503.7,382.1z M511.8,380.1v0.7l1.3,21h-4.4l-1.3-20.2h0.7L511.8,380.1z M519.3,377.4l1.8,21.7l-5,1.3v-0.7
		l-1.3-21L519.3,377.4z M622.9,179.9c6.1,5.6,12.1,8.5,18,8.5h9.9l-2.6,19.7h-2.4c-11.2,0-16.7,4.2-16.7,12.5l-0.7,5l0.7,40.6
		c0,22.1-7.1,35.1-21.1,39.2l-5.5,0.7h-4.4c-4.9,0-11.7-1.4-20.4-4.2v4.2c0,31.5-12,58.3-36,80.4c-5.8,4.2-11.5,7.7-17.3,10.5
		l-2.6-21.7c20.2-13.1,34.7-33.4,43.4-60.9l5-21c-5.1-7.6-10.1-19.2-14.9-34.9c-3.3-14.5-5-24.8-5-30.9c0-19.6,7.8-30.8,23.5-33.5
		l6.3-0.7c12.7,0,20.6,5.1,23.5,15.4c2.1,5.8,3.1,13.7,3.1,23.7c0,13-2.7,19.5-8.1,19.5l-0.6,0.7c-4.8,0-9.7-3-14.9-9h-0.6
		c-2.1,7.7-3.1,23.8-3.1,48.2l9.2,1.5c16.1,0,26.4-12.8,31.1-38.4l1.3-18.2l-1.8-19.7c0-7.4,2.6-12.5,7.9-15.4v-1.3
		c-2.2,0-3.8-2.6-4.8-7.7L622.9,179.9z M522.3,399.6h1.3l1.3,1.5v0.7l-1.3,1.5l-1.3-1.5V399.6z M532.2,397.6h2.6l1.3,1.5v2.8
		l-1.3,1.5h-3.1l-0.6-3.7v-0.6L532.2,397.6z M668.1,222.7h2.6c-1,15.3-1.8,23-2.6,23c-6.9,0-12.3,12.1-16.2,36.4
		c-3.7,38.5-7.8,64.9-12.3,79.1c-9.9,28.1-26.9,42.1-50.9,42.1h-3.1c-10.4,0-25.9-2.8-46.5-8.5v-0.7c14.5,0,32.1-3.2,52.8-9.7
		c9.4-5,17.1-11.6,23-19.7c11-13.7,19.1-34.9,24.3-63.6c4.2-43.4,7.7-65.1,10.5-65.1C653.6,227.1,659.8,222.7,668.1,222.7z
		 M542.1,400.4h1.8v1.5l-1.1,1.5l-0.7-0.7V400.4z M545.3,387.8h1.3v2.8h-1.3l-1.3-1.5L545.3,387.8z M553.9,165.3h2
		c4.9,1.1,7.4,3.9,7.4,8.3v2.2c-1.6,6.5-4.5,9.7-8.6,9.7h-2.6c-4.5-0.7-6.8-3.3-6.8-7.7v-2.8C547,168.6,549.9,165.3,553.9,165.3z
		 M547.1,156.2h2.6l1.8,2v1.5l-1.8,2.2h-1.3l-1.8-2.2L547.1,156.2z M549,198.8c1.7,0.5,2.6,1.7,2.6,3.5c-0.6,1.8-1.2,2.8-1.8,2.8
		h-2.6l-0.6-3.5C546.9,200.1,547.7,199.2,549,198.8z M551,254.9h1.8v3.5H551v-1.5h-0.7L551,254.9z M551.5,268.1h1.3v2.8h-1.3
		l-1.3-1.3L551.5,268.1z M551.5,280.8h1.3v2.8h-1.3l-1.3-1.5L551.5,280.8z M551,289.1h0.6c0,8.8,1.5,14.2,4.4,16.2
		c2-1.3,2.9-3.5,2.9-6.4h0.7l0.6,5v4.2c0,2.8-1.2,4.2-3.7,4.2c-3.4,0-5.5-4.2-6.3-12.7L551,289.1z M552.1,318.5h0.7v2.8H551V320
		L552.1,318.5z M552.1,333.2l0.7,0.7v2.8h-0.7l-1.1-1.5v-0.6L552.1,333.2z M554.7,273.7h1.8v2.2h-1.8V273.7z M554.7,292.6h2.4v2.2
		h-2.4V292.6z M573.2,156.2h1.8l1.8,2v2.2l-1.8,2h-0.6l0.6-0.6v-1.5h-1.3l-1.8,2.8l4.4,9.7v2.9l-0.6,4.8h-0.7
		c-0.2-2.3-0.9-3.5-1.8-3.5c0,5.4-5.1,10.8-15.4,16.2h-1.3c8.3-6,13.5-11.4,15.4-16.2c-2.1-0.6-3.1-1.3-3.1-2v-0.7l2-2
		c1.3,0,2.8,0.7,4.2,2v-0.7c-2.8-3.9-4.2-7.2-4.2-9.7v-1.5C570.8,158.8,571.6,156.8,573.2,156.2z M557,321.3h1.8v2.8H557V321.3z
		 M557.8,281.4h2.4v1.5l-1.3,1.5l-1.1-1.5V281.4z M560.2,377.4h1.8l1.3,1.3v2.9l-2.4,2l-2-0.7v-4.2L560.2,377.4z M561.5,156.2h2.4
		l0.7,3.5l-1.8,2.2h-1.3l-1.8-2.2v-1.5L561.5,156.2z M559.6,241.5v2.9c0,14.6,4.1,27.9,12.3,39.9v-17.7c0-27,2.9-40.5,8.6-40.5
		l8.1,8.3h1.8c5.9-0.7,8.8-3.5,8.8-8.3v-3.5c0-6.3-4.4-10.5-13.1-12.7h-5.7c-8.7,0-15.3,7.2-19.7,21.7L559.6,241.5z M563.3,292.6
		h2.6v1.5l-1.3,1.3l-1.3-1.3V292.6z M564.6,302.3h0.6v3.7h-0.6l-1.3-1.5v-0.7L564.6,302.3z M572.7,363.4h1.1l2,2v2l-2.6,2.2
		c-1.6-0.7-2.4-1.5-2.4-2.2v-2L572.7,363.4z M573.8,378.1h1.3l1.3,1.3l-1.3,1.5h-1.3V378.1z M576.9,342.2h2.6l0.6,3.5v0.7l-1.8,2.2
		h-1.3l-0.6-0.7l-0.6-2.2h-0.7C575.6,343.4,576.2,342.2,576.9,342.2z M580,184.1h1.8l1.3,1.5v2.8l-1.3,1.5H580l-1.3-1.5v-2.8
		L580,184.1z M581.3,155.4h0.6c0,8.8,1.5,14,4.4,15.4c1,0,2-2.1,3.1-6.3h0.6l0.6,4.8v3.5c0,2.5-0.6,3.9-1.8,4.2h-1.8
		c-3.7,0-5.5-2.8-5.5-8.3V155.4z M581.3,359.2h0.6c0,8.2,1.2,13.3,3.7,15.3h1.3c1.2,0,1.8-2.1,1.8-6.3h0.7l1.1,6.3v2.2
		c0,3.3-1,5-2.9,5c-3.3,0-5.4-2.6-6.3-7.7V359.2z M583.7,308l1.3,1.5v1.3h-2.4v-1.3L583.7,308z M584.4,260.4h1.1l1.3,1.5l-1.3,1.3
		h-1.1V260.4z M584.4,319.3h0.6c0.4,9.3,1.8,14.2,4.4,14.7c1.6,0,2.4-2.3,2.4-7h0.7l1.1,6.3v2.8c0,2.5-0.6,3.9-1.8,4.2h-3.7
		c-2.5-1.7-3.7-4.5-3.7-8.5V319.3z M587.6,277.1c1.6,0.7,2.4,1.5,2.4,2.2v2.8l-1.3,1.5h-1.8l-1.3-1.5v-4.2L587.6,277.1z
		 M587.6,156.2h1.1v2l-0.6,0.7v0.7l-1.8-0.7v-1.3L587.6,156.2z M590,350l2.6,2.2v2l-2,2.2h-1.1l-1.8-2.2v-2
		C587.6,351.4,588.4,350.7,590,350z M594.9,256.2h0.6c0,9.6,1.5,15,4.4,16.2c1.7-0.4,2.6-2.7,2.6-7h0.6l1.3,8.3c-0.4,3.3-1,5-1.8,5
		h-3.9c-2.8-1.6-4.2-5.8-4.2-12.5L594.9,256.2z M595.5,315.8h2l1.1,1.3v2.9l-1.8,2l-2.4-2v-2.9L595.5,315.8z M597.5,370.9h1.1
		l1.8,2.2v2l-1.1,1.5h-2.6l-1.3-1.5v-2L597.5,370.9z M596.2,282.8h1.3l1.1,1.5l-1.1,1.3h-1.3V282.8z M598.6,156.2h1.8l1.3,1.5v2.8
		l-1.3,1.5h-1.8l-1.1-1.5v-2.8L598.6,156.2z M614.2,156.2c2.2,0,3.4,1.2,3.7,3.5c-0.2,1.2-1.3,2.4-3.1,3.5v-0.7l0.6-2h-0.6l-1.8,2
		v1.5c0,1.2,1.5,4.2,4.4,9v1.5c0,3.4-0.7,5.3-2,5.5v-1.3h-0.6c-9,9.3-14.5,14-16.7,14c6.4-4.7,11.3-9.8,14.9-15.4
		c-2.5,0-3.7-1.2-3.7-3.5l1.8-1.3h1.8l2.4,2v-0.7c-2.8-3.9-4.2-7.7-4.2-11.2C612,158.2,613,156.2,614.2,156.2z M599.3,175.1h1.8
		c0.6,0,1.2,0.9,1.8,2.8c-0.6,1.8-1.2,2.8-1.8,2.8h-1.8l-1.3-1.3v-2.9L599.3,175.1z M603.6,328.3h1.8l1.3,1.5v2.8l-1.3,1.5h-2.9
		l-0.7-4.2L603.6,328.3z M603,165.9l1.8,0.7v1.5l-1.3,1.3h-1.1v-2l0.6-0.7V165.9z M606.7,256.9h1.8l1.8,2.8c-0.6,2-1.2,2.9-1.8,2.9
		h-1.8l-1.3-1.5v-2.8L606.7,256.9z M608,308.8h1.8l1.3,1.3v2.9l-1.8,2H608l-1.8-2v-2.2L608,308.8z M608,198.8l1.3,1.5v0.7l-1.3,1.3
		l-1.3-1.3v-0.7L608,198.8z M608,347.2l0.6,0.7v2.8h-1.8v-2L608,347.2z M608.5,232.5h0.7c0.7,10.3,2.1,15.4,4.2,15.4
		c2.1-0.9,3.1-3,3.1-6.4h0.7l1.1,7c0,3.7-1.2,5.8-3.7,6.4c-3.6,0-5.6-3.1-6.3-9.2V232.5z M612.9,357.7l1.3,2.2v2l-1.8,2h-1.3
		c-1,0-1.6-1.2-1.8-3.5C609.6,358.6,610.9,357.7,612.9,357.7z M610.4,270.9h2l0.6,2.2l-0.6,0.6h-2V270.9z M612.9,212.8h1.3l1.8,2.2
		c0,2.3-0.9,3.7-2.6,4.2c-1.6-0.5-2.4-1.9-2.4-4.2L612.9,212.8z M614.2,190.5h1.8c0.6,0,1.2,0.9,1.8,2.8l-1.8,2.8h-1.8l-1.3-1.5
		v-2.8L614.2,190.5z M613.5,231h1.3l1.3,1.5l-1.3,1.5h-1.3V231z M617.4,326.2h1.1v2.8h-2.4v-1.5L617.4,326.2z M622.3,336
		c1.6,0.7,2.4,1.5,2.4,2.2v2l-1.8,2h-1.3l-1.3-1.3v-4.2L622.3,336z M622.3,300.3h0.6c0,9.2,1.4,14.6,4.2,16.2
		c1.7-0.6,2.6-2.8,2.6-6.4c1.2,0.5,1.8,1.9,1.8,4.2v6.3l-1.8,2.2H626c-2.9-1.6-4.4-5.8-4.4-12.7L622.3,300.3z M624.7,156.2h0.6
		c0,8.2,1.3,13.4,3.9,15.4h1.1c1.2,0,1.8-1.9,1.8-5.7h1.3l0.7,5v3.5c0,2-0.9,3.6-2.6,5c-4.9,0-7.4-4.7-7.4-14L624.7,156.2z
		 M627.1,301.8h2l1.1,1.3v2.9l-1.8,2l-2.4-2v-2.9L627.1,301.8z M628.4,158.2h1.3l1.3,1.5v1.5h-2.6V158.2z M630.2,291.3
		c1.7,0.6,2.6,1.3,2.6,2v2c0,1.5-0.9,2.2-2.6,2.2l-1.8-0.7v-5L630.2,291.3z M631.5,228.2h2.6v1.5l-1.3,1.3l-1.3-1.3V228.2z
		 M635.9,274.4c1.6,0.7,2.4,1.5,2.4,2.2c0,2.3-0.8,3.7-2.4,4.2c-1.7-0.5-2.6-1.9-2.6-4.2C633.4,275.9,634.2,275.1,635.9,274.4z
		 M636.5,156.2h1.8c0.6,0,1.2,0.9,1.8,2.8l-1.8,2.9h-1.8l-1.3-1.5v-2.8L636.5,156.2z M636.5,253.4h1.8c0.6,0,1.2,0.9,1.8,2.8
		c-0.6,2-1.2,2.9-1.8,2.9h-1.8l-1.3-1.5v-2.8L636.5,253.4z M635.2,264.6h2.6v0.7l-1.3,1.3h-1.3V264.6z M637.8,236.7h1.3
		c0.9,0,1.5,1.2,1.8,3.5l-0.7,2H637l-1.1-1.3v-2.2L637.8,236.7z M635.9,288.4h1.1l1.3,1.5v0.7l-1.3,1.3h-1.1V288.4z M638.3,181.3
		h2.6v2.8h-1.3l-1.3-1.3V181.3z M641.4,220.5h1.8c0.6,0,1.2,0.9,1.8,2.8l-2.4,3.5l-2.6-0.6V222L641.4,220.5z M644.6,156.2h0.6
		c0.4,9.8,1.7,15,3.9,15.4h1.1c1,0,1.8-1.9,2.6-5.7h0.6l0.7,5v5.5l-2.6,2.9c-4.9,0-7.4-4.9-7.4-14.7L644.6,156.2z M649.5,158.9h1.3
		v2.9h-1.3l-1.3-1.5L649.5,158.9z M649.5,222h1.3v2.8h-1.3l-1.3-1.5L649.5,222z M652.7,205.8h1.3l1.1,1.5l-0.6,0.7h-1.8V205.8z
		 M658.9,184.8c0,1.1-1,1.8-3.1,2.2C655.8,185.9,656.8,185.2,658.9,184.8z M658.9,156.2h1.8l1.1,1.5v2.8l-1.1,1.5h-1.8l-1.3-1.5
		v-2.8L658.9,156.2z M658.2,172.3h2.6c0.6,0,1.2,0.9,1.8,2.8l-1.8,2.8h-2.6l-0.6-3.5L658.2,172.3z M668.8,156.2h1.1l1.3,1.5v2.8
		l-1.3,1.5h-0.6l0.6-0.7v-0.7l-0.6-0.7h-0.6l-1.3,1.5v3.5c2.5,3.1,3.7,5.6,3.7,7.7l-0.6,4h-1.3v-1.3l-9.9,9.7h-0.6l7.9-9.7
		c0-1-0.6-1.5-1.8-1.5v-3.5h2.6l2.4,2.2l-3.7-7.7v-3.5C666.3,158.5,667.1,156.9,668.8,156.2z M660.8,194.6h1.8l1.3,1.5v3.5l-1.3,1.5
		h-1.8c-1,0-1.6-1.2-1.8-3.5C659.5,195.6,660.1,194.6,660.8,194.6z M660.8,209.3l3.1,0.7v5l-2,0.7c-2-0.5-2.9-1.7-2.9-3.5
		C659.5,210.3,660.1,209.3,660.8,209.3z M668.1,185.6l2.6,2v2.9l-1.3,1.3h-1.8l-1.3-1.3v-2.9L668.1,185.6z M668.8,201.6l1.8,0.7v3.5
		l-1.8,2.2l-2.6-2.2v-2C666.3,203,667.1,202.3,668.8,201.6z"/>
</g>
<path fill="#000000" d="M273.602,481.306c-0.578-0.576-1.301-1.03-2.174-1.362c-0.873-0.331-1.885-0.497-3.039-0.497
	c-0.663,0-1.463,0.079-2.4,0.238v-6.077h-1.535v17.711c0.706,0.202,1.402,0.354,2.087,0.454s1.301,0.151,1.849,0.151
	c1.153,0,2.166-0.162,3.039-0.486s1.596-0.764,2.174-1.319c0.576-0.555,1.006-1.211,1.287-1.968s0.42-1.561,0.42-2.411
	s-0.139-1.657-0.42-2.422C274.608,482.554,274.178,481.883,273.602,481.306z M272.391,489.167c-0.852,0.829-2.17,1.243-3.958,1.243
	c-0.39,0-0.805-0.032-1.244-0.097c-0.439-0.065-0.84-0.134-1.2-0.206v-8.845c0.447-0.115,0.887-0.194,1.319-0.237
	c0.433-0.044,0.808-0.065,1.125-0.065c0.894,0,1.668,0.112,2.325,0.335c0.656,0.224,1.199,0.545,1.633,0.963
	c0.432,0.418,0.752,0.919,0.961,1.503s0.314,1.243,0.314,1.979C273.667,487.195,273.241,488.338,272.391,489.167z M247.392,479.446
	c-0.62,0-1.297,0.079-2.033,0.238c-0.735,0.158-1.485,0.433-2.249,0.821l-0.065,1.73c0.548-0.303,0.973-0.52,1.276-0.649
	s0.624-0.237,0.962-0.324c0.338-0.086,0.677-0.158,1.016-0.216s0.667-0.087,0.984-0.087c1.139,0,1.982,0.249,2.53,0.746
	s0.822,1.33,0.822,2.498v0.13c-0.332-0.044-0.732-0.087-1.2-0.13c-0.469-0.043-0.876-0.065-1.222-0.065
	c-1.831,0-3.302,0.311-4.412,0.931c-1.11,0.619-1.665,1.644-1.665,3.07c0,0.707,0.155,1.305,0.465,1.795
	c0.31,0.49,0.713,0.88,1.211,1.168s1.067,0.497,1.708,0.627c0.641,0.13,1.308,0.194,2,0.194c0.807,0,1.6-0.072,2.378-0.216
	c0.779-0.145,1.536-0.368,2.271-0.671v-7.028c0-1.585-0.397-2.742-1.189-3.471C250.189,479.811,248.992,479.446,247.392,479.446z
	 M250.636,489.892c-0.375,0.144-0.858,0.267-1.449,0.367c-0.591,0.102-1.183,0.151-1.773,0.151c-0.505,0-0.984-0.035-1.438-0.108
	c-0.454-0.071-0.84-0.197-1.157-0.378c-0.317-0.18-0.57-0.414-0.757-0.703c-0.188-0.288-0.281-0.663-0.281-1.124
	c0-0.52,0.111-0.934,0.335-1.244c0.224-0.31,0.533-0.551,0.93-0.724c0.396-0.174,0.85-0.296,1.362-0.368
	c0.511-0.072,1.041-0.108,1.589-0.108c0.476,0,0.984,0.029,1.524,0.087c0.541,0.058,0.912,0.108,1.114,0.151V489.892z
	 M258.032,479.868c-0.649,0.122-1.276,0.263-1.881,0.422v11.418h1.535v-10.186c0.202-0.072,0.563-0.147,1.082-0.228
	c0.519-0.079,1.002-0.118,1.449-0.118h1.989v-1.492H260C259.336,479.685,258.681,479.746,258.032,479.868z M-77.92,487.667
	l241.145,0.656l0.663-0.433l-0.632-0.564L-77.92,487.667z M164.994,487.825l1.95,1.95l1.95-1.95l-1.95-1.95L164.994,487.825z
	 M169.559,487.825l3.057,3.057l3.057-3.057l-3.057-3.057L169.559,487.825z M212.359,489.286l-3.395-9.602h-1.514l-3.396,9.602
	l-2.984-9.602h-1.73l3.979,12.023h1.428l3.46-9.645l3.46,9.645h1.427l3.979-12.023h-1.73L212.359,489.286z M238.418,489.589
	c-0.317,0-0.591,0.115-0.822,0.346c-0.231,0.23-0.346,0.505-0.346,0.822c0,0.316,0.115,0.591,0.346,0.821
	c0.23,0.23,0.504,0.346,0.822,0.346c0.317,0,0.591-0.115,0.822-0.346c0.23-0.23,0.346-0.505,0.346-0.821
	c0-0.317-0.116-0.592-0.346-0.822C239.009,489.704,238.735,489.589,238.418,489.589z M193.243,489.286l-3.395-9.602h-1.514
	l-3.396,9.602l-2.984-9.602h-1.73l3.979,12.023h1.428l3.46-9.645l3.46,9.645h1.427l3.979-12.023h-1.73L193.243,489.286z
	 M231.476,489.286l-3.395-9.602h-1.514l-3.396,9.602l-2.984-9.602h-1.73l3.979,12.023h1.428l3.46-9.645l3.46,9.645h1.427
	l3.979-12.023h-1.73L231.476,489.286z M382.732,480.474c-0.426-0.396-0.938-0.667-1.535-0.812c-0.598-0.144-1.271-0.216-2.021-0.216
	c-0.664,0-1.393,0.09-2.184,0.271c-0.793,0.181-1.471,0.4-2.033,0.659c-0.346-0.331-0.818-0.569-1.416-0.714
	c-0.6-0.144-1.273-0.216-2.023-0.216c-0.635,0-1.268,0.058-1.902,0.173l-2.465,0.454v11.635h1.535v-10.38
	c0.447-0.102,0.883-0.188,1.309-0.26c0.424-0.072,0.896-0.108,1.416-0.108c0.605,0,1.125,0.058,1.557,0.173
	c0.434,0.116,0.789,0.321,1.07,0.616c0.281,0.296,0.494,0.711,0.639,1.244s0.217,1.24,0.217,2.119v6.596h1.535v-7.201
	c0-0.663-0.055-1.243-0.162-1.741c-0.109-0.497-0.213-0.861-0.314-1.092c0.086-0.043,0.281-0.119,0.584-0.228
	c0.303-0.107,0.602-0.197,0.898-0.27c0.295-0.072,0.586-0.126,0.875-0.162s0.547-0.055,0.779-0.055c0.59,0,1.102,0.058,1.535,0.173
	c0.432,0.116,0.781,0.317,1.049,0.605c0.266,0.289,0.471,0.703,0.615,1.244c0.145,0.54,0.217,1.251,0.217,2.13v6.596h1.535v-7.201
	c0-0.995-0.111-1.816-0.336-2.466C383.482,481.393,383.158,480.87,382.732,480.474z M280.1,474.581
	c-0.785,0.648-1.18,1.729-1.18,3.243v1.86h-2.551v1.492h2.551v10.531h1.537v-10.531h4.973v-1.492h-4.973v-1.471
	c0-0.635,0.045-1.149,0.141-1.546c0.094-0.396,0.24-0.707,0.443-0.931c0.201-0.223,0.475-0.385,0.82-0.486
	c0.346-0.101,0.779-0.151,1.299-0.151h2.422v-1.492h-2.271C281.956,473.607,280.885,473.932,280.1,474.581z M398.273,487.825
	l3.057,3.057l3.057-3.057l-3.057-3.057L398.273,487.825z M343.322,482.322c0.389-0.418,0.854-0.749,1.395-0.994
	s1.135-0.368,1.783-0.368c0.736,0,1.373,0.076,1.914,0.228s1.121,0.414,1.74,0.789l0.715-1.405c-0.707-0.39-1.393-0.674-2.055-0.854
	c-0.664-0.181-1.436-0.271-2.314-0.271c-0.85,0-1.639,0.155-2.367,0.465c-0.729,0.311-1.367,0.746-1.914,1.309
	c-0.549,0.563-0.98,1.222-1.297,1.979c-0.317,0.757-0.476,1.59-0.476,2.498s0.158,1.74,0.476,2.497
	c0.316,0.757,0.748,1.413,1.297,1.969c0.547,0.555,1.186,0.987,1.914,1.297c0.729,0.311,1.518,0.465,2.367,0.465
	c0.879,0,1.65-0.09,2.314-0.27c0.662-0.181,1.348-0.466,2.055-0.854l-0.715-1.406c-0.619,0.375-1.199,0.639-1.74,0.79
	s-1.178,0.227-1.914,0.227c-0.648,0-1.242-0.119-1.783-0.356c-0.541-0.238-1.006-0.565-1.395-0.984
	c-0.391-0.418-0.693-0.915-0.908-1.492c-0.217-0.576-0.324-1.203-0.324-1.881s0.107-1.305,0.324-1.882
	C342.628,483.238,342.931,482.741,343.322,482.322z M404.387,487.825l1.949,1.95l1.951-1.95l-1.951-1.95L404.387,487.825z
	 M410.701,487.326l-0.664,0.433l0.633,0.564l241.176-0.341L410.701,487.326z M362.611,481.295c-0.549-0.569-1.193-1.02-1.936-1.352
	c-0.742-0.331-1.547-0.497-2.412-0.497c-0.863,0-1.668,0.166-2.41,0.497c-0.742,0.332-1.389,0.782-1.936,1.352
	c-0.549,0.57-0.977,1.229-1.287,1.979c-0.311,0.749-0.465,1.557-0.465,2.422s0.154,1.672,0.465,2.422s0.738,1.409,1.287,1.979
	c0.547,0.569,1.193,1.017,1.936,1.341s1.547,0.486,2.41,0.486c0.865,0,1.67-0.162,2.412-0.486s1.387-0.771,1.936-1.341
	c0.547-0.569,0.977-1.229,1.287-1.979c0.309-0.75,0.465-1.557,0.465-2.422s-0.156-1.673-0.465-2.422
	C363.587,482.524,363.158,481.865,362.611,481.295z M362.394,487.523c-0.217,0.569-0.52,1.067-0.908,1.492
	c-0.389,0.426-0.857,0.765-1.406,1.017c-0.547,0.252-1.152,0.378-1.816,0.378c-0.662,0-1.268-0.126-1.816-0.378
	c-0.547-0.252-1.016-0.591-1.404-1.017c-0.391-0.425-0.693-0.923-0.908-1.492c-0.217-0.569-0.324-1.179-0.324-1.827
	c0-0.649,0.107-1.262,0.324-1.839c0.215-0.576,0.518-1.077,0.908-1.503c0.389-0.425,0.857-0.764,1.404-1.016
	c0.549-0.252,1.154-0.379,1.816-0.379c0.664,0,1.27,0.127,1.816,0.379c0.549,0.252,1.018,0.591,1.406,1.016
	c0.389,0.426,0.691,0.927,0.908,1.503c0.217,0.577,0.324,1.189,0.324,1.839C362.718,486.345,362.611,486.954,362.394,487.523z
	 M296.221,481.295c-0.547-0.569-1.191-1.02-1.936-1.352c-0.742-0.331-1.545-0.497-2.41-0.497s-1.67,0.166-2.412,0.497
	c-0.742,0.332-1.387,0.782-1.936,1.352c-0.547,0.57-0.977,1.229-1.285,1.979c-0.311,0.749-0.465,1.557-0.465,2.422
	s0.154,1.672,0.465,2.422c0.309,0.75,0.738,1.409,1.285,1.979c0.549,0.569,1.193,1.017,1.936,1.341s1.547,0.486,2.412,0.486
	s1.668-0.162,2.41-0.486c0.744-0.324,1.389-0.771,1.936-1.341c0.549-0.569,0.977-1.229,1.287-1.979s0.465-1.557,0.465-2.422
	s-0.154-1.673-0.465-2.422C297.198,482.524,296.77,481.865,296.221,481.295z M296.006,487.523c-0.217,0.569-0.52,1.067-0.908,1.492
	c-0.391,0.426-0.859,0.765-1.406,1.017c-0.549,0.252-1.154,0.378-1.816,0.378c-0.664,0-1.27-0.126-1.816-0.378
	c-0.549-0.252-1.018-0.591-1.406-1.017c-0.389-0.425-0.691-0.923-0.908-1.492s-0.324-1.179-0.324-1.827
	c0-0.649,0.107-1.262,0.324-1.839c0.217-0.576,0.52-1.077,0.908-1.503c0.389-0.425,0.857-0.764,1.406-1.016
	c0.547-0.252,1.152-0.379,1.816-0.379c0.662,0,1.268,0.127,1.816,0.379c0.547,0.252,1.016,0.591,1.406,1.016
	c0.389,0.426,0.691,0.927,0.908,1.503c0.215,0.577,0.324,1.189,0.324,1.839C296.331,486.345,296.221,486.954,296.006,487.523z
	 M309.381,480.463c-0.455-0.39-0.996-0.656-1.623-0.801c-0.627-0.144-1.309-0.216-2.043-0.216c-0.707,0-1.465,0.047-2.271,0.141
	s-1.701,0.234-2.682,0.422v11.699h1.535v-10.402c1.184-0.23,2.293-0.346,3.33-0.346c0.592,0,1.111,0.062,1.559,0.184
	c0.445,0.123,0.818,0.332,1.113,0.628c0.295,0.295,0.525,0.713,0.691,1.254s0.25,1.251,0.25,2.13v6.553h1.535v-7.201
	c0-0.995-0.119-1.82-0.357-2.477C310.18,481.375,309.834,480.852,309.381,480.463z M318.516,490.054
	c-0.346-0.108-0.619-0.277-0.82-0.509c-0.203-0.23-0.35-0.547-0.443-0.951c-0.096-0.403-0.141-0.922-0.141-1.557v-5.86h4.973v-1.492
	h-4.973v-4.347h-1.537v4.347h-2.551v1.492h2.551v6.466c0,0.764,0.109,1.405,0.326,1.925c0.215,0.519,0.525,0.937,0.93,1.254
	c0.402,0.317,0.867,0.544,1.395,0.682c0.525,0.137,1.105,0.205,1.74,0.205h2.271v-1.492h-2.422
	C319.295,490.216,318.862,490.162,318.516,490.054z M337.784,489.589c-0.316,0-0.59,0.115-0.82,0.346s-0.346,0.505-0.346,0.822
	c0,0.316,0.115,0.591,0.346,0.821s0.504,0.346,0.82,0.346c0.318,0,0.592-0.115,0.822-0.346s0.346-0.505,0.346-0.821
	c0-0.317-0.115-0.592-0.346-0.822S338.102,489.589,337.784,489.589z M333.178,486.106c-0.346-0.303-0.785-0.565-1.318-0.789
	c-0.533-0.223-1.182-0.422-1.947-0.595l-0.799-0.173c-1.053-0.216-1.781-0.461-2.184-0.735c-0.404-0.273-0.607-0.678-0.607-1.211
	c0-0.504,0.238-0.904,0.715-1.2c0.475-0.295,1.174-0.443,2.098-0.443c0.793,0,1.477,0.076,2.055,0.228
	c0.576,0.151,1.217,0.421,1.924,0.811l0.691-1.405c-1.412-0.765-2.969-1.146-4.67-1.146c-0.635,0-1.223,0.076-1.764,0.228
	c-0.539,0.151-1.008,0.364-1.404,0.638s-0.711,0.605-0.941,0.994c-0.23,0.39-0.346,0.815-0.346,1.276
	c0,0.462,0.072,0.88,0.217,1.254c0.143,0.375,0.381,0.707,0.713,0.995s0.758,0.537,1.275,0.746c0.52,0.209,1.146,0.4,1.883,0.573
	l0.908,0.194c1.008,0.217,1.729,0.49,2.162,0.822c0.432,0.331,0.648,0.771,0.648,1.318c0,0.39-0.086,0.707-0.26,0.952
	c-0.172,0.245-0.414,0.436-0.725,0.573c-0.311,0.137-0.678,0.237-1.102,0.303c-0.426,0.064-0.877,0.097-1.352,0.097
	c-0.592,0-1.223-0.09-1.893-0.271c-0.67-0.18-1.352-0.479-2.045-0.897l-0.734,1.471c0.779,0.433,1.539,0.742,2.281,0.93
	s1.539,0.281,2.391,0.281c0.748,0,1.434-0.072,2.053-0.216c0.621-0.145,1.158-0.36,1.611-0.648c0.455-0.289,0.805-0.649,1.049-1.082
	c0.246-0.433,0.369-0.93,0.369-1.492c0-0.476-0.072-0.915-0.217-1.318C333.77,486.763,333.526,486.41,333.178,486.106z"/>
</svg>

