<?xml version="1.0" encoding="utf-8"?>
<!-- Generator: Adobe Illustrator 22.1.0, SVG Export Plug-In . SVG Version: 6.00 Build 0)  -->
<svg version="1.1" id="Layer_1" xmlns="http://www.w3.org/2000/svg" xmlns:xlink="http://www.w3.org/1999/xlink" x="0px" y="0px"
	 viewBox="0 0 800 500" style="enable-background:new 0 0 800 500;" xml:space="preserve">
<g>
	<path fill="#000000" d="M266.4,158.7v0.6l0.6,10.7h-0.6c-9.2,4.2-14.3,7.1-15.4,8.6c0.6,3.6,3,5.3,7.2,5.3l59-4.2l0.6-0.6v3.7l0.6,3.9l6.3-0.6h1.5
		v-7.5l21.7-1.1l1.1,10.1c-32.4,3.9-65.9,6.8-100.6,8.6c-8.6,14-12.9,26.3-12.9,37v4.8c0,6.9,2.1,10.3,6.3,10.3
		c1.7,0,2.8-0.7,3.1-2.2c0-1.1-0.7-2.7-2.2-4.8l1.7-11.8h0.6c2.3,2.7,3.5,6.1,3.5,10.1c-1.6,14.7-4,22.1-7.2,22.1l-3.7-1.1v0.6
		c-2.1,4.9-3.1,10.1-3.1,15.4v7.5l0.6,3.7c12.4-9.4,21.2-19.8,26.5-31.1l0.6-0.6l-0.6-0.6c-5.5-1.7-8.3-3.8-8.3-6.3
		c0-5.4,1.9-9.9,5.7-13.4h2c2.1,0,3.6,4.8,4.6,14.3c2.1,0.7,3.1,2.2,3.1,4.4v5.3l-4.6-3.3c-1.2,6.3-8,15.8-20.2,28.5
		c-4.8,3.2-7.2,5.3-7.2,6.4c3.1,8,8.4,13.9,16,17.7c7.5,2.8,14.4,4.2,20.8,4.2l1.5-0.6v0.6l0.6,8.1c6.6-1.8,9.9-3.1,9.9-3.9v-7.9
		c16.3-7,31.1-16.5,44.5-28.5c-4.2-19.2-7.3-29.9-9.4-32l4.2-15.1c8.1,8.2,12.6,13.9,13.4,17.1l-0.6,0.6h-0.6l-6.3-2.2v0.6
		c3.2,7.7,4.8,15.1,4.8,22.1c0,9.1-3.5,17.5-10.5,25.2c-22.6,20-41.7,30-57.4,30c-3.4,0-6.1,6.4-7.9,19.3v2.2
		c0,8.5,3.7,13.4,11,14.9h0.9c6.7,0,17.1-9.8,31.1-29.4c11.3-12.1,20.5-19.1,27.6-21c7-4.2,17.3-8.5,31.1-12.9
		c-1.1-3.8-1.7-7-1.7-9.6c0-8.8,3.1-17.8,9.4-26.8l4.2-1.7h0.4c3.9,0,6.7,2.3,8.3,7c1.8,4.9,2.8,9.6,2.8,14
		c0,10.7-4.2,19.2-12.5,25.7v0.6c1.8,4.3,4.8,6.4,8.8,6.4c7.2,0,14.2-3.1,20.8-9.2l-1.7-71.7l7.4-2.2v0.6l0.9,47.6
		c0,21.6-2.8,35-8.3,40.3c-2.9,4.4-9,7.8-18.2,10.1c-3.1,0-4.6,1.1-4.6,3.3c-1.7,2.2-2.6,4.5-2.6,7c0.7,1.7,1.8,2.6,3.1,2.6
		c0.4-1.7,0.9-2.6,1.5-2.6l0.6,0.6h0.6c-1,4.3-2.7,6.4-5.1,6.4h-1.1c-1.4-0.4-2-2.4-2-6.1c0-3.2,1.7-7.1,5.1-11.8v-0.6
		c-1.6,0-4-2-7.2-5.9c-4.2,5.3-6.3,10.8-6.3,16.7v1.5c0,9.6,3.2,15.3,9.7,17.3h1.7c4.4,0,11.5-5.9,21.1-17.7
		c12.7-13.7,21.1-20.9,25-21.5c11-6.7,18.9-10.1,23.7-10.1l0.6,3.1v3.3h0.6l10.3-2.2v-8.1c8.9-1.6,13.4-3,13.4-4.2
		c3.2-11.2,9.6-28.1,19.3-50.9l0.9,1.1l0.6,32.7c-1.8,11.2-5.3,19.6-10.3,25.2l-1.7,1.5h0.6c7.2,0,20-3.6,38.4-10.7
		c5.8-3.6,9.6-5.3,11.4-5.3h1.5v0.6c-2.5,4.3-3.7,7-3.7,8.1c0,4.3,3.3,6.4,9.9,6.4c7.2,0,14.6-6.6,22.3-19.9l3.1-1.7l1.1,2.2
		l-2.6,6.4v0.9c0,3.4,2.4,5.4,7.2,5.9c2.6,0,5-0.5,7.2-1.5l-2-9.2l2.6-9h0.6c2.1,3.7,3.1,6.5,3.1,8.5v3.3c0,6.1-2.1,12.9-6.3,20.2
		c-2.5,2.2-5,3.3-7.7,3.3c-7.2-1.6-10.8-5.3-10.8-11.2h-1.7c-3.4,10.3-10,15.4-19.7,15.4h-1.5c-7-1.1-10.5-5.6-10.5-13.4V311h-0.4
		c-10.7,5.6-17.8,8.5-21.3,8.5l1.7,8.1c-1.1,15.7-4.4,23.5-9.9,23.5h-1.5c-7,0-13.1-5.3-18.2-16l-2-8.6l-5.3-0.6l1.1-8.1
		c-22.3,5.5-37,10.7-43.9,15.6c-7.5,3.7-18,14.2-31.6,31.6c-5.1,4.7-9.3,7-12.5,7h-2c-3.2,0-6.3-3.1-9.4-9.2
		c-2,0.9-4.9,7.3-8.8,19.3v1.1h-0.6c-1.4-0.7-2-1.8-2-3.1c2.5-7,5.4-13.6,8.8-19.9h0.6c-2.5-4.5-3.7-9.7-3.7-15.6
		c0-7.5,2.5-15.1,7.4-23l-3.1-8.6c-24,7.7-42.7,17.9-56.1,30.5c-8,8-12,13-12,15.1c-1.4,5.6-2,10.5-2,14.5v4.8
		c1,11.3,4.3,18.1,9.9,20.4h0.6c5-1,10.8-8.7,17.5-23.2c8.3-9.6,14.9-14.3,19.7-14.3h0.6c2.3,0,3.9,2.3,4.8,6.8
		c5.1,15.1,12.7,22.6,22.8,22.6h3.1c6.3,0,12-2.5,17.1-7.5l11.4-14.5h1.5l-1.1,6.4c1.6,7.6,7,11.4,16.2,11.4c4.8,0,9.9-2.1,15.4-6.4
		c-2.2-3.3-5-5-8.3-5h-8.3c-6.3-1-9.4-4.2-9.4-9.6c3.4-14.7,8.5-22.1,15.1-22.1c3.4,0,7.2,3.1,11.4,9.2c3.1,5.5,4.6,12.1,4.6,19.9
		c0,7.2-2.9,14.3-8.8,21.3l-2.6,10.8h0.6c11.6-10.8,19.6-19.2,23.9-25.2l-0.6-1.7l-3.1-52l-0.6-0.6l9.4-2.6l1.1,27.2
		c0,25.1-2.8,40.5-8.3,46.2c-5.4,7-12.9,14.7-22.4,23v0.6c0.9,7.8,4,11.8,9.4,11.8c6.7,0,16.1-8.9,28-26.7
		c8.8-11.8,15.3-19.7,19.3-23.7c9.7-9.6,20-14.3,31.1-14.3c6.6,0,11.1,3.7,13.4,11.2v5.3c-0.6,7.8-1.8,11.8-3.7,11.8H524
		c0-5.9-2.8-10.2-8.5-12.9l-6.1-1.1c-10.9,0-24.9,12.9-42.1,38.6c-11.9,15.1-19.6,22.6-23.2,22.6h-2.8c-6.9,0-12.4-5.2-16.5-15.6
		l-0.9-4.2h-0.6c-16.4,13.2-31.3,19.9-44.5,19.9c-13.4,0-22.2-7.7-26.5-23.2c-1.4-5.6-2-12.6-2-20.8h0.4c2.8,1.5,4.2,3.3,4.2,5.3
		c0,11.8,5.7,19.4,17.1,23l8.3,1.1c12.6,0,27-6.4,43-19.3l3.1-13.4H426c-3.1,1.6-7.2,3-12.5,4.2c-9.9-1.2-14.9-5.6-14.9-13.2
		l-0.6-0.6h-1.1c-9.1,12.1-16.3,18.2-21.7,18.2l-5.1,1.1c-13.7,0-22.7-8.8-27-26.3c-0.9-2.6-2.1-3.9-3.7-3.9
		c-3.7,0.5-8.3,3.4-14,8.6l-14.9,25.2c-1.8,1.5-3.4,2.2-4.8,2.2c-7,0-11.8-8.9-14.5-26.8l-0.6-7l1.1-12.9
		c-8.1,7.8-13.1,11.8-15.1,11.8l-2.6,0.6c-6.4,0-11.7-5-16-14.9c-1-3.8-1.5-7-1.5-9.7v-3.1c0-2.9,1.7-9.6,5.1-19.9v-0.6
		c-6.3-0.6-13-4.2-20.2-10.7c-6.5-7.5-10-14.6-10.5-21.5h-0.9c-3.1,2.6-5.1,3.9-6.3,3.9v-1.1c1.5-2.1,3.6-4,6.3-5.9l-0.6-9.7
		c0-7.7,1.5-15.9,4.6-24.6c-3.1-5.1-4.6-10.5-4.6-16c0-15.8,5.3-31.2,16-46.2c-3.1-4.2-4.6-7.4-4.6-9.6v-2.8
		C243.9,174.2,252.4,166,266.4,158.7z M245.6,324.2h0.6v0.6c-2.5,5.9-3.7,9.8-3.7,11.8c0,1,0.6,1.9,1.7,2.8c1.3-0.4,2-1.3,2-2.8h1.1
		v2.2c0,2.1-1,3.9-3.1,5.3H243c-1.1,0-2-2.1-2.6-6.4v-2C240.4,331.9,242.2,328.2,245.6,324.2z M258.6,207.5c1.6,0.6,2.8,1.7,3.7,3.3
		l-0.6,2.6h-1.1c0-1-0.9-1.5-2.6-1.5h-0.6l-1.5,1.5v11.2l-1.1,1.1c-0.5-2.1-2.2-4.7-5.1-7.9v1.5h-1.7c-1.7-1.6-2.6-3.6-2.6-5.9
		c0.7-1.6,1.5-2.5,2.2-2.6c2,1.5,4,4.5,6.1,9h0.6v-8.5C254.4,208.7,255.8,207.5,258.6,207.5z M256.6,281.9h0.4
		c-3.1,7.2-4.6,11.9-4.6,14c0.7,2.2,1.4,3.3,2,3.3l3.1-3.3h0.6v0.6c0,3.7-1.2,6.4-3.7,8.1h-1.5c-1.4,0-2.4-3.1-3.1-9.2
		C252.1,286.4,254.4,281.9,256.6,281.9z M258.1,241.3l-1.5,2v1.7c0.2,1.1,2.3,2.6,6.1,4.4v-0.6C262.1,243.8,260.5,241.3,258.1,241.3
		z M305.2,250.3c2.1,0.2,3.1,0.8,3.1,1.7v0.6c0,2.9-1.7,6.9-5.1,11.8l10.8,5.9l-5.1,10.7l-13.4-5.9c5.9-10.1,8.8-16.3,8.8-18.8
		l-0.6-0.6c-12.4,9.3-23.4,14-33.1,14h-2.2l0.6,3.9v2.6l-0.9,4.8h-0.6c0-7.7-1.4-12.1-4.2-13.2l1.1-5c3.2,1.1,6.1,1.7,8.8,1.7
		c6.3,0,16.6-4.7,31.1-14H305.2z M271,133c0.7,0,2.8,5.6,6.3,16.7h0.6l-2,3.1l1.5,28h-3.1l-5.1,0.4c-1-19.6-2-31.6-3.1-35.9L271,133
		z M277.8,195.7c2.8,32.4,4.2,54,4.2,64.9c-1.4,0.7-3.2,1.1-5.7,1.1h-2.6l-4.2-65.5h7.2l0.6-0.6H277.8z M282.9,269.6l1.1,48.2
		l-7.7,1.7v-0.6l-1.7-47.6L282.9,269.6z M283.5,325.9v0.6c0,12.5-2.9,22.3-8.8,29.4v-0.6l1.1-18.2v-7.9
		C275.7,328.6,278.3,327.5,283.5,325.9z M299.5,118.1h1.1c4,0.2,6.6,5.8,7.7,16.5c-0.9,13.6-2.2,20.4-4,20.4h-0.6l1.1-7.5v-1.1
		c0-10.1-1.9-15.1-5.7-15.1c-2.3,1.2-5.6,6.6-9.9,16.2c-3.8,6.4-7.8,11.3-12,14.9l-0.6-10.7c4.2-3.6,8-8,11.4-13.4
		c5.5-11.6,8.6-17.7,9.4-18.2L299.5,118.1z M281.4,374.1v0.6l-2,10.3v0.6c0,1.8,0.7,3.1,2,3.7l1.5-3.1h1.1v3.1
		c-0.7,3.2-1.6,4.8-2.6,4.8h-0.6c-1.5,0-2.9-2.6-4.2-7.9C278,378,279.6,374.1,281.4,374.1z M288.6,118.1c-3.4,4.8-5.1,8.3-5.1,10.7
		v1.7l1.1,0.9h1.5c0.2-1.3,0.8-2,1.7-2h0.4v0.6c-0.9,4.3-2.6,6.4-5.1,6.4c-1,0-1.7-2.1-2-6.4c0-4.4,2.4-8.5,7.2-12.3L288.6,118.1z
		 M336.8,119c11,16.9,16.5,37.8,16.5,62.7c0,19.4,3.8,29.1,11.4,29.1h0.6c6.3,0,11.3-2.3,15.1-7l-1.5-16.2h7.7
		c-1.4,18.1-3.4,28.2-6.3,30.2c-2.9,4.9-7.4,7.4-13.4,7.4h-2.6c-7.7,0-12.6-8-14.5-24.1l-0.6-4.2h-0.6c-0.9,6.6-4.3,13.4-10.3,20.4
		c-16.7,18.5-29.7,27.8-39,27.8H298c-7.5,0-12-7.3-13.4-21.9v-2.2c0-14.2,2.8-23,8.3-26.3h0.6c-3.6,7.5-5.3,13.9-5.3,19.3
		c0,11.2,3.5,16.7,10.5,16.7c10.5,0,23.3-8.9,38.2-26.8c6.3-9.7,9.9-14.5,10.8-14.5l2.2-0.6l-0.6-6.4v-5.9l-4.6-0.6v-0.6
		c0-7.7-3.7-22.2-11-43.4L336.8,119z M291.7,324.2h0.6c3.8,0.7,5.7,2.6,5.7,5.5v0.9c0,3.3-1.4,5-4.2,5h-2.6l-1.5-1.7v-1.1
		L291.7,324.2z M294.3,160.4h1.7c1,0.2,1.5,1.7,1.5,4.2v3.3c0,3.4-2.4,7.2-7.2,11.2V178c3.4-5,5.1-8.4,5.1-10.1v-1.7l-1.1-1.7
		l-3.7,2.8v-0.6C292,162.5,293.2,160.4,294.3,160.4z M292.8,328.1l-1.1,1.7v0.6l1.7,1.5l2.6-0.6v-0.6L292.8,328.1z M299.1,285.8
		c1.3,1.6,2,4,2,7.4c-2,6.5-3.7,9.7-5.1,9.7v-1.1c2.1-3.7,3.1-6.6,3.1-8.6v-1.5l-1.7-1.7c-0.7,0-1.1,0.6-1.1,1.7l-0.4,0.6h-1.1
		C295.2,287.9,296.6,285.8,299.1,285.8z M304.2,199v0.6c-3.2,6.6-4.8,11-4.8,13.2l1.1,3.3h1.5l2.8-2.8h0.4v1.1
		c0,3.3-1.2,5.8-3.5,7.5H300c-1.4,0-2.4-3.2-3.1-9.7C299,203.4,301.4,199,304.2,199z M341.9,325.9h1.1c5.5,5.4,8.3,10.8,8.3,16.2
		v1.5c0,2-0.7,3.3-2,3.9h-1.1l-6.6-2.8c-8.3,9.8-16.8,17.2-25.4,22.1c-6.7,3.6-11.8,5.3-15.1,5.3c13.5-8.7,25.4-17.3,35.7-25.7
		l1.7-2.8l-3.1-5.3c1-2.5,2.7-5,5.1-7.5l-0.6-0.4v-0.6C340.8,327.2,341.5,325.9,341.9,325.9z M319.7,87.9c3.2,0,4.8,12.4,4.8,37.1
		v59.4l-5.3,1.1v-5.3c-0.5-50-2-75-4.6-75v-0.6L319.7,87.9z M323.4,336.2c-3.1,5.1-4.6,8.7-4.6,10.7v1.7l0.9,0.9h0.6
		c0.7,0,1.1-0.5,1.1-1.5l0.6-0.6h0.9c0,3.1-1.2,5.4-3.7,7h-0.4c-1,0-1.7-1.5-2.2-4.4v-4.2C318.7,339.4,320.9,336.2,323.4,336.2z
		 M339,290l0.9,2.8l-0.6,3.7h0.6l1.1,1.1l-1.7,1.7l-1.5-0.6c-6.5,9.2-12.8,13.8-18.8,13.8c6.5-4.3,12.2-8.9,17.1-13.8v-0.6
		c-1.7,0-2.6-0.6-2.6-1.7C334.8,292.2,336.5,290,339,290z M325.9,192.6l3.7,18.2l-6.8,6.4l-3.1-24.6h0.6l5.7-0.6V192.6z
		 M330.2,386.4h0.4l8.8,10.3l-5.1,14l6.8,7.4c-2.8,8.6-4.5,12.9-5.1,12.9c0-0.7-2.1-2.9-6.3-6.4l-2.6-3.7l4.6-13.4
		c-4.5-4.2-6.8-7.2-6.8-9C327.7,390.9,329.4,386.9,330.2,386.4z M396.9,81.5h3.7c18.8,0,34,7.2,45.6,21.5
		c7.2,11.8,10.8,26.1,10.8,42.8v0.6c0,19.2-5.3,40.5-16,63.8h2l-2,7.5c0,3.1,2.4,6.3,7.2,9.6h1.1c3.7-10.5,11.8-22.7,24.3-36.4
		c4.7-3.2,8.3-4.8,10.8-4.8h1.1c8.6,0,16.4,5,23.4,14.9l0.9,5.3v2.2c0,4.3-3.1,10.4-9.2,18.2v0.6c10.7-4.5,18.8-12.6,24.3-24.1
		c2.5-6.1,4.3-9.7,5.7-10.7l2,0.6c2.8-6.5,6.3-9.7,10.5-9.7h2.6c5.4,0,8.5,8.2,9.4,24.6c-3.1,7.8-5.9,11.8-8.5,11.8
		c-5.6,0-12.3-3.7-20-11.2c-6.4,14.6-13.7,23.7-21.9,27.4l-2.6,13.8c0,11.9,5.2,17.8,15.6,17.8l13.4-2.2v1.1l0.6,11.8
		c-4.7,1.8-9.1,3.1-13.4,3.7c-13.2-2.2-19.9-11.1-19.9-26.7l2.2-17.8c-9.9,6.9-22.2,10.3-36.8,10.3c-13.6,0-21.9-4.7-25-14
		c-1-2.5-1.7-5.6-2-9.6l-28,16.5h-0.6v-9.2l-9.4,3.3v9l-7.7,4.4c-2.5,3.7-3.7,7.2-3.7,10.7c0.1,2,1,3.6,2.8,4.8
		c1.7-0.6,2.6-1.5,2.6-2.6h0.9v0.9c0,4.3-1.5,6.4-4.6,6.4c-2.5-1-3.7-2.8-3.7-5.3v-1.5c0-4.7,1.2-9.1,3.7-13.4
		c-8.1,2.1-15.2,3.1-21.3,3.1c-17.7,0-30.8-7.1-39.4-21.3v-0.6l6.8-6.4c8.7,9.3,19.6,14,32.5,14c19.4,0,42.4-8.3,69-24.8
		c3.2,0,7.8-14.5,14-43.4l1.1-12.3v-2l0.6-0.6l-0.6-0.6v-3.7c0-26.5-12.4-44.4-37.3-53.7l-13.4-1.7c-9,0-15.7,1.7-20.2,5l5.1,73.9
		l-7.7,1.1v-0.6l-4.8-63.3c0-8.5,4.5-17.4,13.6-26.8C390.5,82.2,393.7,81.5,396.9,81.5z M334.2,151.7h0.6l-3.7,10.7v1.7l0.6,2.8h1.1
		l2.6-2.8h0.6v0.6c0,4.7-1.6,7-4.8,7c-1.1,0-2-2.7-2.6-8.1C328.5,159.3,330.4,155.4,334.2,151.7z M336.2,91.2l14.5,5.9l-4,12.9
		l-14.5-4.8v-1.1C332.2,102.5,333.5,98.2,336.2,91.2z M335.9,294.8l1.5,1.1h0.6v-2.8h-0.6L335.9,294.8z M343.6,252h0.6l9.2,10.7
		l-5.1,11.4c1.1,0.5,3.4,3.1,6.8,7.9c-2.8,8.6-4.5,12.9-5.1,12.9l-8.8-11.2l3.7-12.3l-6.3-8.1C341.4,255.8,343.1,252.1,343.6,252z
		 M339.4,336.5c0.5,1.6,1.3,2.7,2.6,3.3l1.7-3.7l-0.6-0.6h-2.6L339.4,336.5z M345.6,341l2.6,2.6h0.6l-1.1-5.3L345.6,341z
		 M364.7,103.6h0.6c2.8,6.9,4.2,11.3,4.2,13.4v0.6c-1,3.6-2.2,5.3-3.7,5.3l-5.1-3.3c0,5-1.9,7.5-5.7,7.5c-2.5,0-3.9-3.7-4.2-11.2
		c-0.5,0-0.8-1.2-0.9-3.7l2-2.8c1,0,1.7,3.6,2,10.7l1.7,1.1h0.9c1.1-0.2,2-1.5,2.6-3.7c-1.4-3.2-2-5.5-2-7V110c0-2,0.7-3.2,2-3.7
		c1.8,7.8,4.5,11.8,7.9,11.8c0-1.6-1-4.7-3.1-9.2L364.7,103.6z M399.5,95.5l10.5,38.1l-0.6,0.6c-1.1-0.1-3-2.5-5.7-7l-0.6,1.7
		l4.6,97.5l-9.2,3.3V229l-1.7-50.4l-0.6-1.7H396l-3.7,10.3l-6.3-0.6h-12l-19.1,0.6l-0.6,0.4v-0.9l0.6-10.3
		c5.9-0.7,14.3-1.1,25.4-1.1h3.1l12.9,0.6l-2-62.2l-1.5-7.4l6.1-10.8H399.5z M383,78.4V82c-2.6,2.9-11.7,9.7-27.4,20.4H355v-1.7
		c0-3.2,1.9-5.5,5.7-6.8C374.7,83.6,382.1,78.4,383,78.4z M362.7,143.3h0.6l-4.2,9.6v2.8c0.2,2.1,0.8,3.1,1.7,3.1l3.1-3.1h0.6v0.9
		c0,4.2-1.6,6.5-4.8,7H359c-1,0-2-2.6-2.9-7.9C357.5,149.2,359.7,145.1,362.7,143.3z M365.3,282.5l2.2,15.6c7.1-2.8,10.7-5,10.8-6.4
		v-2.2c0-6.7-2.6-10.7-7.9-11.8C369,277.7,367.3,279.3,365.3,282.5z M400.1,400.4l-0.6,2.8v2.6c-14.7,9.3-22.6,14-23.7,14v-0.6
		c0-3.8,1.9-6.1,5.7-7L400.1,400.4z M391.2,215c1.1,0.2,1.7,1.7,1.7,4.2v1.7c0,3.7-2.3,7.6-6.8,11.8l-1.5,0.6v-0.6
		c3.6-4.5,5.6-8.3,6.1-11.2c-0.5-1.5-1-2.2-1.5-2.2l-2.6,2.2h-0.6C386.8,217.1,388.5,215,391.2,215z M392.3,287.8
		c2.6,1.3,4.1,2.6,4.6,3.9c0,5.1-2.4,8.2-7.2,9c-1.2,0-2.1-1.4-2.6-4.2C388.8,290.7,390.5,287.8,392.3,287.8z M390.7,292.2l-0.4,2.6
		v1.7h0.4c1.2,0,2.5-0.6,3.7-1.7C393.9,293.1,392.6,292.2,390.7,292.2z M417.2,125.4v2.2c-2.8,11-4.2,18.9-4.2,23.5
		c0,9.4,2.3,17.2,6.8,23.2c5.1,4.9,12.9,7.4,23.4,7.4l3.7-0.6c-2.3,10.1-3.9,15.1-4.8,15.1h-0.6c-10.3,0-18.2-3.2-23.7-9.6
		c-6.3-7.2-9.4-16-9.4-26.3v-1.1c0-12.6,2.6-23.7,7.7-33.3l0.6-0.6H417.2z M415.1,194v0.6c-2.1,4.2-3.1,7.1-3.1,8.6v2.2l0.9,0.9
		c1.1,0,1.7-0.7,1.7-2h1.1v0.6c0,2.7-0.9,4.5-2.8,5.3H412c-1.1,0-1.8-2.3-2-7C411.7,197.1,413.4,194,415.1,194z M419.2,245.5v0.6
		l-3.1,8.6v3.1l1.7,1.7l1.5-2.8h1.1v0.6c0,3.3-1,5.5-3.1,6.4h-1.1c-1,0-1.8-2.5-2.6-7.5C415.6,249.1,417.5,245.5,419.2,245.5z
		 M420.3,276.6v0.6c-2.8,6-4.2,10.1-4.2,12.3v0.6c0,1.5,0.7,2.5,2.2,3.1l2.6-3.1h0.6v0.6c-0.5,5-2.1,7.5-4.8,7.5
		c-1.3,0-2.4-2.9-3.1-8.6C415.3,280.9,417.6,276.6,420.3,276.6z M414.6,358.6v1.1c0,1.4,2.1,2.4,6.3,3.1l3.1-0.6h3.5
		c-2-3.9-4.7-5.9-8.3-5.9C416.6,356.4,415.1,357.1,414.6,358.6z M421.8,426.1h0.6c-1.7,5-2.6,8.6-2.6,10.7l1.1,3.9h0.9
		c1.1,0,1.7-0.9,1.7-2.8h1.5c-0.2,5-1.1,7.5-2.6,7.5h-1.5c-1.2,0-2.3-2.5-3.1-7.5v-0.6C417.7,432,419.1,428.3,421.8,426.1z
		 M424.9,101.9c0.9,0,4.8,12.9,12,38.6v0.6h-1.5c-3.2-3.8-4.8-6.3-4.8-7.5H430l-0.4,0.6h-0.6l2,45.6l-7.7-3.9
		c-1.6-40.3-2.8-60.5-3.7-60.5l-0.6-0.6L424.9,101.9z M423.4,193.5h0.6c2.6,1.8,5.1,3.1,7.7,3.9v1.7l0.6,14.3l-8.3,5v-6.1
		L423.4,193.5z M432.8,228.4l0.4,19.9v24.1c0,23.5-3.1,37.6-9.2,42.3v-0.6l2.6-22.4l-2.6-57.4L432.8,228.4z M435.7,331.8l12,6.4
		l-4.6,12.3l-12-7C431.1,342.2,432.7,338.3,435.7,331.8z M443.1,137.4v0.4l-3.1,10.8v3.1c0.2,2.2,0.7,3.3,1.5,3.3h1.1
		c0.6,0,1.3-1.1,2-3.3h1.1v0.6c0,4.4-1.2,7.5-3.7,9.2c-2.3,0-4-3.2-5.1-9.7v-0.6C436.8,146.2,438.9,141.6,443.1,137.4z M447.7,245
		c1.1,0,3.7,7.7,7.9,23.2c2.3,5.9,3.5,9.8,3.5,11.8l-0.6,0.6h-0.4c-2.7-4.4-4.6-6.9-5.7-7.5l0.4,2l1.7,38.6l-7.7,2.2l-1.7-54.6
		l-2-3.9L447.7,245z M466.4,87.9c1.3,0,3.1,1.1,5.1,3.3l-0.6,3.7h-0.6c-1.2-1-2.4-1.5-3.5-1.5h-1.1c-1.5,0-2.3,5-2.6,14.9h-1.1
		c-1.8-4.2-4.2-7.2-7.2-9c0,1.4-0.7,2-2.2,2c-3.1-1.3-4.6-4-4.6-7.9c0-1,0.9-1.9,2.6-2.8c2.6,1,6.2,4,10.8,9.2v-8.6
		C462.9,89,464.5,87.9,466.4,87.9z M494.9,99.3h0.6l12.9,14.3v2.2h-0.6l-4.6-2.2v0.6c4.4,10.7,6.6,17.1,6.6,19.3l1.1,7.5
		c0,14-7.6,25.6-22.8,34.8c-15.8,10.3-28.7,16.7-38.8,19.3v-0.6c2.2-10.3,4.6-15.4,7.2-15.4c10.2-2.9,22.4-9.6,36.8-19.9
		c7.6-6.7,12-11.2,13.1-13.4v-0.6c-2.5-4.2-6.4-14.3-12-30.5c-1.4-1.2-2-2.6-2-4.2L494.9,99.3z M451.9,229.5v0.6
		c5.3,1.7,10.4,2.6,15.4,2.6c8.5,0,19.4-4.5,32.7-13.4c1.7-1.8,2.6-3.2,2.6-4.2c0-2.8-4.2-7.5-12.5-14l-6.6-2
		C473.7,199,463.2,209.2,451.9,229.5z M488.7,97.1v0.6c0,3.3-1.9,5.8-5.7,7.5c-5.8,3.8-13.7,10.5-23.9,20.2v-3.7
		C475,106.1,484.9,97.9,488.7,97.1z M467.9,376.3h0.6v1.1c-3.8,4.9-5.7,8.5-5.7,10.7l1.5,2.8c1.1,0,1.7-0.6,1.7-1.7l0.6-0.6h1.5v0.6
		c0,2.2-1.2,4.2-3.7,5.9h-1.5c-1.2,0-2.1-2.5-2.6-7.5C460.9,383.8,463.5,380.1,467.9,376.3z M469.9,152.8h0.6c1,0,1.7,1.8,2.2,5.3
		v3.9c0,4.7-2.8,9.1-8.5,13.2v-0.9c3.8-5.8,5.7-9.9,5.7-12.3v-2.2l-1.5-1.7l-3.1,2.8h-0.6v-0.6C465.5,155.4,467.2,152.8,469.9,152.8
		z M467.9,261.7c5.5,1.4,8.3,3.6,8.3,6.8v1.1c-0.5,5.4-2.4,8.1-5.7,8.1H467c-1.8-1-2.8-2.4-2.8-4.2L467.9,261.7z M472.1,355.3
		c1.5,0,5.6,2.9,12.3,8.6c-3.2,7.1-5.1,10.7-5.7,10.7l-12.9-7.9C469.3,359.2,471.4,355.4,472.1,355.3z M467.9,267.6l-0.6,2
		c0,1,0.9,1.9,2.6,2.8l3.7-1.1c-1.5-2.5-3.2-3.7-5.1-3.7H467.9z M497.5,401.5c0,5.3-2.3,9.6-6.8,12.9
		c-13.2,13.2-20.7,19.9-22.3,19.9v-3.3c0-2.1,4.7-7,14-14.9L497.5,401.5z M475.3,127.7c1.2,0,6.1,2.3,14.5,7l-4.2,12.3
		c-9.3-3.3-14.3-5.6-15.1-7v-0.6L475.3,127.7z M481,205.4h0.9v1.5c-4.8,3.1-7.2,6.7-7.2,10.8l1.5,1.5h1.1l2.6-2h0.6v1.1
		c0,2.2-1.4,4.2-4.2,5.9h-2c-1.4-0.6-2-1.9-2-3.9v-2C472.1,213.9,475.1,209.6,481,205.4z M483.5,279.4c-6.3,11.9-9.4,19.7-9.4,23.5
		c6.6-2.5,9.9-5.1,9.9-8.1l0.4-9.6v-3.3l-0.4-2.6H483.5z M477.3,325.9v0.6c5.8,7.8,11.1,11.8,16,11.8c2.5,0,3.7-1.2,3.7-3.7
		c-4.9-5.8-10.6-8.6-17.1-8.6H477.3z M502.7,279.9l1.1,0.9c-2.5,4.5-3.7,8.3-3.7,11.4l2,3.1c1.7-0.6,2.6-1.7,2.6-3.1h1.7v0.6
		c0,3.3-1.4,6.1-4.2,8.5h-2c-1.7-0.7-2.6-2.5-2.6-5.3v-2.8C497.5,288.4,499.2,284,502.7,279.9z M503.8,349.4c3.1,1.1,4.6,2.8,4.6,5
		v0.9c-0.4,4-1.8,6.1-4.2,6.1c-2.7-0.6-4-1.7-4-3.3C501.1,352.3,502.3,349.4,503.8,349.4z M503.2,353.3l-1.1,1.7c0.5,1.3,1,2,1.7,2
		l2.6-0.6v-0.6L503.2,353.3z M512.6,163l14.9,8.6c0,1.2-2.2,5.1-6.6,11.8c-9.7-4.2-14.5-7.2-14.5-9L512.6,163z M526,225.7h0.6
		l0.9,1.1v4.2l-0.6,0.6v0.6l2.2,0.6l-1.7,2.8l-0.6-0.6H526c-7.1,9.3-13.5,14-19.1,14c8-5.5,13.7-10.2,17.1-14v-0.6
		c-1.5,0-2.4-0.7-2.8-2.2C523.1,227.8,524.7,225.7,526,225.7z M514.6,390.2v0.6c-2.8,6-4.2,9.7-4.2,11.2v3.1l1.7,1.7l3.1-3.1
		l0.4,1.5c-1.1,4.7-2.3,7-3.5,7h-1.1c-2.1-1.6-3.1-3.9-3.1-7v-2.6C509.8,394.3,512,390.2,514.6,390.2z M515.5,330.7l13.1,9.2
		l-5.7,11.8l-13.4-9C513,334.8,515,330.8,515.5,330.7z M525.5,242.9l1.5,2.6l-0.9,3.9l-2.6-2.2l-2.2,2.2v0.9c0,1.1,2.8,1.7,8.5,1.7
		h0.9v0.6c-0.7,1.8-3.9,3.4-9.4,4.8l-2.9,2.2h-1.1v-0.6l3.7-4.2c-1.5,0-2.2-0.6-2.2-1.7v-2.2C520,245.6,522.3,242.9,525.5,242.9z
		 M533.7,131h2.6c2.8,1.8,4.2,3.4,4.2,4.8c-0.4,2.1-0.9,3.1-1.7,3.1c-0.9-1.7-2.2-2.6-4-2.6h-0.6c-1.7,0.6-2.6,2.6-2.6,5.9l0.6,11.2
		c-0.5,1.8-1,2.8-1.7,2.8c-1.4-3.8-3.7-7.6-7.2-11.4c0,1.5-0.4,2.2-1.1,2.2h-1.1c-2.3-1.6-3.5-4.7-3.5-9.2c0.6-1.6,1.3-2.5,2-2.6
		h1.1l9.2,12.9l-0.4-9.2v-0.6C529.7,133.4,531,131,533.7,131z M524,230.1v0.6l0.9,0.9h1.1v-1.5l-1.1-1.1L524,230.1z M535.8,218.7
		l9.9,29.6l-0.6,1.5H544c-2.3-2.7-3.5-4.7-3.5-5.9H540l-1.1,1.1l3.1,63.8l-5.7,1.1l-1.5-0.6c-2.1-50.6-3.7-78-4.8-82
		C533.2,221.7,535.1,218.8,535.8,218.7z M554.5,156.5v1.1c0,3.7-2.1,6.6-6.3,8.6c-6.3,5.6-11.8,10.1-16.5,13.4l-0.6-2.8v-1.7
		C534.1,172,541.9,165.7,554.5,156.5z M543.7,325.3v28.5c0,20.8-3.3,33.8-9.9,39h-0.6c1.7-6.7,2.6-13.1,2.6-19.1l-0.6-46.2h0.6
		L543.7,325.3z M533.7,197.9c3.8,3.9,7.8,6.7,12,8.5V206c-0.7-7.2-3-10.8-6.8-10.8H538C536,195.1,534.6,196.1,533.7,197.9z
		 M563.3,182.8l11.4,10.7v2.2h-0.6l-3.7-0.6c5.9,11.5,8.8,19.1,8.8,22.6v7.9c0,13.9-12.4,30-37.3,48.4h-0.6l-0.6-12.9
		c11-7.6,21.9-17.3,32.7-29.1l1.1-2c-1.1-7.5-5.3-17.7-12.5-30.5l-2.6-1.7L563.3,182.8z M560.2,327.5c-3.8,8.5-5.7,13.8-5.7,16v1.1
		c0,3.2,0.9,4.8,2.6,4.8c0.6,0,1.7-1.2,3.1-3.7l1.5-0.6v0.6c-0.9,7.5-2.9,11.2-6.3,11.2c-3.1-1.5-4.6-5.6-4.6-12.3
		c0-5.8,2.8-11.6,8.3-17.7h1.1V327.5z M557.6,216.7h0.4l-4,11.8v2.6l1.5,1.7h0.6l2.6-2.6h0.6c0,3.6-1.2,6.2-3.7,7.9h-0.9
		c-2.1-1.2-3.1-4-3.1-8.5V229C553.5,220.8,555.6,216.7,557.6,216.7z M564.8,267l10.8,7.9c2.2-4.9,3.8-7.5,4.8-7.9l10.3,7.4v1.1
		l-4.6,11.8l-12-7.4h-1.1c0,0.9-1.7,3.3-5.1,7.4c-6.7-5-10.4-8-10.8-9C561,271.5,563.6,267.8,564.8,267z M571.1,253.1l9.7,7.5
		l-5.7,10.1c-5.9-3.3-9.3-6-10.3-8.1C564.8,261.3,566.9,258.1,571.1,253.1z"/>
</g>
<path fill="#000000" d="M273.602,481.306c-0.578-0.576-1.301-1.03-2.174-1.362c-0.873-0.331-1.885-0.497-3.039-0.497
	c-0.663,0-1.463,0.079-2.4,0.238v-6.077h-1.535v17.711c0.706,0.202,1.402,0.354,2.087,0.454s1.301,0.151,1.849,0.151
	c1.153,0,2.166-0.162,3.039-0.486s1.596-0.764,2.174-1.319c0.576-0.555,1.006-1.211,1.287-1.968s0.42-1.561,0.42-2.411
	s-0.139-1.657-0.42-2.422C274.608,482.554,274.178,481.883,273.602,481.306z M272.391,489.167c-0.852,0.829-2.17,1.243-3.958,1.243
	c-0.39,0-0.805-0.032-1.244-0.097c-0.439-0.065-0.84-0.134-1.2-0.206v-8.845c0.447-0.115,0.887-0.194,1.319-0.237
	c0.433-0.044,0.808-0.065,1.125-0.065c0.894,0,1.668,0.112,2.325,0.335c0.656,0.224,1.199,0.545,1.633,0.963
	c0.432,0.418,0.752,0.919,0.961,1.503s0.314,1.243,0.314,1.979C273.667,487.195,273.241,488.338,272.391,489.167z M247.392,479.446
	c-0.62,0-1.297,0.079-2.033,0.238c-0.735,0.158-1.485,0.433-2.249,0.821l-0.065,1.73c0.548-0.303,0.973-0.52,1.276-0.649
	s0.624-0.237,0.962-0.324c0.338-0.086,0.677-0.158,1.016-0.216s0.667-0.087,0.984-0.087c1.139,0,1.982,0.249,2.53,0.746
	s0.822,1.33,0.822,2.498v0.13c-0.332-0.044-0.732-0.087-1.2-0.13c-0.469-0.043-0.876-0.065-1.222-0.065
	c-1.831,0-3.302,0.311-4.412,0.931c-1.11,0.619-1.665,1.644-1.665,3.07c0,0.707,0.155,1.305,0.465,1.795
	c0.31,0.49,0.713,0.88,1.211,1.168s1.067,0.497,1.708,0.627c0.641,0.13,1.308,0.194,2,0.194c0.807,0,1.6-0.072,2.378-0.216
	c0.779-0.145,1.536-0.368,2.271-0.671v-7.028c0-1.585-0.397-2.742-1.189-3.471C250.189,479.811,248.992,479.446,247.392,479.446z
	 M250.636,489.892c-0.375,0.144-0.858,0.267-1.449,0.367c-0.591,0.102-1.183,0.151-1.773,0.151c-0.505,0-0.984-0.035-1.438-0.108
	c-0.454-0.071-0.84-0.197-1.157-0.378c-0.317-0.18-0.57-0.414-0.757-0.703c-0.188-0.288-0.281-0.663-0.281-1.124
	c0-0.52,0.111-0.934,0.335-1.244c0.224-0.31,0.533-0.551,0.93-0.724c0.396-0.174,0.85-0.296,1.362-0.368
	c0.511-0.072,1.041-0.108,1.589-0.108c0.476,0,0.984,0.029,1.524,0.087c0.541,0.058,0.912,0.108,1.114,0.151V489.892z
	 M258.032,479.868c-0.649,0.122-1.276,0.263-1.881,0.422v11.418h1.535v-10.186c0.202-0.072,0.563-0.147,1.082-0.228
	c0.519-0.079,1.002-0.118,1.449-0.118h1.989v-1.492H260C259.336,479.685,258.681,479.746,258.032,479.868z M-77.92,487.667
	l241.145,0.656l0.663-0.433l-0.632-0.564L-77.92,487.667z M164.994,487.825l1.95,1.95l1.95-1.95l-1.95-1.95L164.994,487.825z
	 M169.559,487.825l3.057,3.057l3.057-3.057l-3.057-3.057L169.559,487.825z M212.359,489.286l-3.395-9.602h-1.514l-3.396,9.602
	l-2.984-9.602h-1.73l3.979,12.023h1.428l3.46-9.645l3.46,9.645h1.427l3.979-12.023h-1.73L212.359,489.286z M238.418,489.589
	c-0.317,0-0.591,0.115-0.822,0.346c-0.231,0.23-0.346,0.505-0.346,0.822c0,0.316,0.115,0.591,0.346,0.821
	c0.23,0.23,0.504,0.346,0.822,0.346c0.317,0,0.591-0.115,0.822-0.346c0.23-0.23,0.346-0.505,0.346-0.821
	c0-0.317-0.116-0.592-0.346-0.822C239.009,489.704,238.735,489.589,238.418,489.589z M193.243,489.286l-3.395-9.602h-1.514
	l-3.396,9.602l-2.984-9.602h-1.73l3.979,12.023h1.428l3.46-9.645l3.46,9.645h1.427l3.979-12.023h-1.73L193.243,489.286z
	 M231.476,489.286l-3.395-9.602h-1.514l-3.396,9.602l-2.984-9.602h-1.73l3.979,12.023h1.428l3.46-9.645l3.46,9.645h1.427
	l3.979-12.023h-1.73L231.476,489.286z M382.732,480.474c-0.426-0.396-0.938-0.667-1.535-0.812c-0.598-0.144-1.271-0.216-2.021-0.216
	c-0.664,0-1.393,0.09-2.184,0.271c-0.793,0.181-1.471,0.4-2.033,0.659c-0.346-0.331-0.818-0.569-1.416-0.714
	c-0.6-0.144-1.273-0.216-2.023-0.216c-0.635,0-1.268,0.058-1.902,0.173l-2.465,0.454v11.635h1.535v-10.38
	c0.447-0.102,0.883-0.188,1.309-0.26c0.424-0.072,0.896-0.108,1.416-0.108c0.605,0,1.125,0.058,1.557,0.173
	c0.434,0.116,0.789,0.321,1.07,0.616c0.281,0.296,0.494,0.711,0.639,1.244s0.217,1.24,0.217,2.119v6.596h1.535v-7.201
	c0-0.663-0.055-1.243-0.162-1.741c-0.109-0.497-0.213-0.861-0.314-1.092c0.086-0.043,0.281-0.119,0.584-0.228
	c0.303-0.107,0.602-0.197,0.898-0.27c0.295-0.072,0.586-0.126,0.875-0.162s0.547-0.055,0.779-0.055c0.59,0,1.102,0.058,1.535,0.173
	c0.432,0.116,0.781,0.317,1.049,0.605c0.266,0.289,0.471,0.703,0.615,1.244c0.145,0.54,0.217,1.251,0.217,2.13v6.596h1.535v-7.201
	c0-0.995-0.111-1.816-0.336-2.466C383.482,481.393,383.158,480.87,382.732,480.474z M280.1,474.581
	c-0.785,0.648-1.18,1.729-1.18,3.243v1.86h-2.551v1.492h2.551v10.531h1.537v-10.531h4.973v-1.492h-4.973v-1.471
	c0-0.635,0.045-1.149,0.141-1.546c0.094-0.396,0.24-0.707,0.443-0.931c0.201-0.223,0.475-0.385,0.82-0.486
	c0.346-0.101,0.779-0.151,1.299-0.151h2.422v-1.492h-2.271C281.956,473.607,280.885,473.932,280.1,474.581z M398.273,487.825
	l3.057,3.057l3.057-3.057l-3.057-3.057L398.273,487.825z M343.322,482.322c0.389-0.418,0.854-0.749,1.395-0.994
	s1.135-0.368,1.783-0.368c0.736,0,1.373,0.076,1.914,0.228s1.121,0.414,1.74,0.789l0.715-1.405c-0.707-0.39-1.393-0.674-2.055-0.854
	c-0.664-0.181-1.436-0.271-2.314-0.271c-0.85,0-1.639,0.155-2.367,0.465c-0.729,0.311-1.367,0.746-1.914,1.309
	c-0.549,0.563-0.98,1.222-1.297,1.979c-0.317,0.757-0.476,1.59-0.476,2.498s0.158,1.74,0.476,2.497
	c0.316,0.757,0.748,1.413,1.297,1.969c0.547,0.555,1.186,0.987,1.914,1.297c0.729,0.311,1.518,0.465,2.367,0.465
	c0.879,0,1.65-0.09,2.314-0.27c0.662-0.181,1.348-0.466,2.055-0.854l-0.715-1.406c-0.619,0.375-1.199,0.639-1.74,0.79
	s-1.178,0.227-1.914,0.227c-0.648,0-1.242-0.119-1.783-0.356c-0.541-0.238-1.006-0.565-1.395-0.984
	c-0.391-0.418-0.693-0.915-0.908-1.492c-0.217-0.576-0.324-1.203-0.324-1.881s0.107-1.305,0.324-1.882
	C342.628,483.238,342.931,482.741,343.322,482.322z M404.387,487.825l1.949,1.95l1.951-1.95l-1.951-1.95L404.387,487.825z
	 M410.701,487.326l-0.664,0.433l0.633,0.564l241.176-0.341L410.701,487.326z M362.611,481.295c-0.549-0.569-1.193-1.02-1.936-1.352
	c-0.742-0.331-1.547-0.497-2.412-0.497c-0.863,0-1.668,0.166-2.41,0.497c-0.742,0.332-1.389,0.782-1.936,1.352
	c-0.549,0.57-0.977,1.229-1.287,1.979c-0.311,0.749-0.465,1.557-0.465,2.422s0.154,1.672,0.465,2.422s0.738,1.409,1.287,1.979
	c0.547,0.569,1.193,1.017,1.936,1.341s1.547,0.486,2.41,0.486c0.865,0,1.67-0.162,2.412-0.486s1.387-0.771,1.936-1.341
	c0.547-0.569,0.977-1.229,1.287-1.979c0.309-0.75,0.465-1.557,0.465-2.422s-0.156-1.673-0.465-2.422
	C363.587,482.524,363.158,481.865,362.611,481.295z M362.394,487.523c-0.217,0.569-0.52,1.067-0.908,1.492
	c-0.389,0.426-0.857,0.765-1.406,1.017c-0.547,0.252-1.152,0.378-1.816,0.378c-0.662,0-1.268-0.126-1.816-0.378
	c-0.547-0.252-1.016-0.591-1.404-1.017c-0.391-0.425-0.693-0.923-0.908-1.492c-0.217-0.569-0.324-1.179-0.324-1.827
	c0-0.649,0.107-1.262,0.324-1.839c0.215-0.576,0.518-1.077,0.908-1.503c0.389-0.425,0.857-0.764,1.404-1.016
	c0.549-0.252,1.154-0.379,1.816-0.379c0.664,0,1.27,0.127,1.816,0.379c0.549,0.252,1.018,0.591,1.406,1.016
	c0.389,0.426,0.691,0.927,0.908,1.503c0.217,0.577,0.324,1.189,0.324,1.839C362.718,486.345,362.611,486.954,362.394,487.523z
	 M296.221,481.295c-0.547-0.569-1.191-1.02-1.936-1.352c-0.742-0.331-1.545-0.497-2.41-0.497s-1.67,0.166-2.412,0.497
	c-0.742,0.332-1.387,0.782-1.936,1.352c-0.547,0.57-0.977,1.229-1.285,1.979c-0.311,0.749-0.465,1.557-0.465,2.422
	s0.154,1.672,0.465,2.422c0.309,0.75,0.738,1.409,1.285,1.979c0.549,0.569,1.193,1.017,1.936,1.341s1.547,0.486,2.412,0.486
	s1.668-0.162,2.41-0.486c0.744-0.324,1.389-0.771,1.936-1.341c0.549-0.569,0.977-1.229,1.287-1.979s0.465-1.557,0.465-2.422
	s-0.154-1.673-0.465-2.422C297.198,482.524,296.77,481.865,296.221,481.295z M296.006,487.523c-0.217,0.569-0.52,1.067-0.908,1.492
	c-0.391,0.426-0.859,0.765-1.406,1.017c-0.549,0.252-1.154,0.378-1.816,0.378c-0.664,0-1.27-0.126-1.816-0.378
	c-0.549-0.252-1.018-0.591-1.406-1.017c-0.389-0.425-0.691-0.923-0.908-1.492s-0.324-1.179-0.324-1.827
	c0-0.649,0.107-1.262,0.324-1.839c0.217-0.576,0.52-1.077,0.908-1.503c0.389-0.425,0.857-0.764,1.406-1.016
	c0.547-0.252,1.152-0.379,1.816-0.379c0.662,0,1.268,0.127,1.816,0.379c0.547,0.252,1.016,0.591,1.406,1.016
	c0.389,0.426,0.691,0.927,0.908,1.503c0.215,0.577,0.324,1.189,0.324,1.839C296.331,486.345,296.221,486.954,296.006,487.523z
	 M309.381,480.463c-0.455-0.39-0.996-0.656-1.623-0.801c-0.627-0.144-1.309-0.216-2.043-0.216c-0.707,0-1.465,0.047-2.271,0.141
	s-1.701,0.234-2.682,0.422v11.699h1.535v-10.402c1.184-0.23,2.293-0.346,3.33-0.346c0.592,0,1.111,0.062,1.559,0.184
	c0.445,0.123,0.818,0.332,1.113,0.628c0.295,0.295,0.525,0.713,0.691,1.254s0.25,1.251,0.25,2.13v6.553h1.535v-7.201
	c0-0.995-0.119-1.82-0.357-2.477C310.18,481.375,309.834,480.852,309.381,480.463z M318.516,490.054
	c-0.346-0.108-0.619-0.277-0.82-0.509c-0.203-0.23-0.35-0.547-0.443-0.951c-0.096-0.403-0.141-0.922-0.141-1.557v-5.86h4.973v-1.492
	h-4.973v-4.347h-1.537v4.347h-2.551v1.492h2.551v6.466c0,0.764,0.109,1.405,0.326,1.925c0.215,0.519,0.525,0.937,0.93,1.254
	c0.402,0.317,0.867,0.544,1.395,0.682c0.525,0.137,1.105,0.205,1.74,0.205h2.271v-1.492h-2.422
	C319.295,490.216,318.862,490.162,318.516,490.054z M337.784,489.589c-0.316,0-0.59,0.115-0.82,0.346s-0.346,0.505-0.346,0.822
	c0,0.316,0.115,0.591,0.346,0.821s0.504,0.346,0.82,0.346c0.318,0,0.592-0.115,0.822-0.346s0.346-0.505,0.346-0.821
	c0-0.317-0.115-0.592-0.346-0.822S338.102,489.589,337.784,489.589z M333.178,486.106c-0.346-0.303-0.785-0.565-1.318-0.789
	c-0.533-0.223-1.182-0.422-1.947-0.595l-0.799-0.173c-1.053-0.216-1.781-0.461-2.184-0.735c-0.404-0.273-0.607-0.678-0.607-1.211
	c0-0.504,0.238-0.904,0.715-1.2c0.475-0.295,1.174-0.443,2.098-0.443c0.793,0,1.477,0.076,2.055,0.228
	c0.576,0.151,1.217,0.421,1.924,0.811l0.691-1.405c-1.412-0.765-2.969-1.146-4.67-1.146c-0.635,0-1.223,0.076-1.764,0.228
	c-0.539,0.151-1.008,0.364-1.404,0.638s-0.711,0.605-0.941,0.994c-0.23,0.39-0.346,0.815-0.346,1.276
	c0,0.462,0.072,0.88,0.217,1.254c0.143,0.375,0.381,0.707,0.713,0.995s0.758,0.537,1.275,0.746c0.52,0.209,1.146,0.4,1.883,0.573
	l0.908,0.194c1.008,0.217,1.729,0.49,2.162,0.822c0.432,0.331,0.648,0.771,0.648,1.318c0,0.39-0.086,0.707-0.26,0.952
	c-0.172,0.245-0.414,0.436-0.725,0.573c-0.311,0.137-0.678,0.237-1.102,0.303c-0.426,0.064-0.877,0.097-1.352,0.097
	c-0.592,0-1.223-0.09-1.893-0.271c-0.67-0.18-1.352-0.479-2.045-0.897l-0.734,1.471c0.779,0.433,1.539,0.742,2.281,0.93
	s1.539,0.281,2.391,0.281c0.748,0,1.434-0.072,2.053-0.216c0.621-0.145,1.158-0.36,1.611-0.648c0.455-0.289,0.805-0.649,1.049-1.082
	c0.246-0.433,0.369-0.93,0.369-1.492c0-0.476-0.072-0.915-0.217-1.318C333.77,486.763,333.526,486.41,333.178,486.106z"/>
</svg>

