<?xml version="1.0" encoding="utf-8"?>
<!-- Generator: Adobe Illustrator 22.1.0, SVG Export Plug-In . SVG Version: 6.00 Build 0)  -->
<svg version="1.1" id="Layer_1" xmlns="http://www.w3.org/2000/svg" xmlns:xlink="http://www.w3.org/1999/xlink" x="0px" y="0px"
	 viewBox="0 0 800 500" style="enable-background:new 0 0 800 500;" xml:space="preserve">
<g>
	<path fill="#000000" d="M245.8,162.8h0.6c8.6,25.1,23.2,47.3,43.8,66.6v-0.6c-10.3-14.2-16.4-26.3-18.4-36.2l0.4-3.5h2.4c1.8,0.9,4,6.2,6.4,16
		c3.4,8.3,8.4,16.9,14.9,25.7c19.4,20.4,45.1,30.5,77,30.5h2.4c13.7,0,22.7-1.2,26.8-3.5v0.7l1.3,7.5c-19.6,12.5-41.6,18.8-66,18.8
		c-7.1,1.2-17.5,8.2-31.1,21H306v1.3c22.8,18.1,34.2,39.5,34.2,64v4c0,16.5-5.3,27.7-15.8,33.5l-4.6,0.6c-10.1,0-19.9-7.6-29.6-22.8
		c-6.7-13.6-10.1-26.1-10.1-37.5h-0.4c-4.2,2.2-9.3,8.7-15.3,19.5c-3.3,8.3-7.1,12.5-11.2,12.5h-6.4c-8.1,0-13.2-3.5-15.3-10.5
		c-5.4-8.9-10.6-23.5-15.6-43.8c-1.1-5.5-6.2-15.7-15.3-30.5c-4.4-7.7-12.4-13.5-24.1-17.5l-7.9-1.3h-1.3c-11.3,0-19,8.8-23.2,26.3
		c-1,5-1.5,10.1-1.5,15.3c0,17.4,5.4,34.1,16.2,50c3.6,4.2,7.3,6.3,11.2,6.3h2.8c7.7,0,13.7-5.8,18-17.3c1.2-3.3,1.8-7.5,1.8-12.5
		v-4.8c-1.1-14.8-4.5-22.3-10.1-22.3l-4.2-1.5l-11.6,2.8c-3.7,0-5.5-1.8-5.5-5.5v-1.3c0-5.1,2.6-8.2,7.9-9.2h3.7
		c8.1,0,14.8,7.2,20.2,21.5c1.6,5,2.4,10.8,2.4,17.5v0.7c0,17.9-5.9,29.7-17.7,35.3l-5,0.7H171c-13.9,0-25.6-11.6-35.1-34.8
		c-4.7-12.9-7-26-7-39.5c0-25.6,6.5-42.5,19.5-50.8c1.8-1.3,5.2-2.5,10.1-3.5c11.6,0,24.6,8.8,38.8,26.5c2.7,3.4,7.2,10.8,13.4,22.3
		c-1-8.5-1.5-16.1-1.5-23v-2.8c0-13,4-22,12.1-27l5.9-1.5c9.3,1.2,14,6.3,14,15.3c-5.5,2.2-8.3,8-8.3,17.5v6.3
		c0.9,20.1,6.6,44.6,17.1,73.6c1.5,2.6,2.2,4.4,2.2,5.5h1.8c0.5,0,1.6-3.2,3.3-9.7c10.3-28.1,22.4-45.7,36.4-52.8l9.4,3.5
		c3.6-5.5,10-13.4,19.3-23.5c-6.5,0-19.2-5.1-38.2-15.3c-10.1-7-17.6-14.9-22.6-23.7c-10.5-20.1-15.8-44.1-15.8-72.1V162.8z
		 M197.3,174.5h0.6c7.5,0,12.9,7.8,16.2,23.5l-3.3-0.6h-0.6c-4.5,0-7.9,4.2-10.1,12.5l-0.4,3.3v3.5l0.4,5h-0.4
		c-3.8-2-8.2-6.4-13.1-13.2h-0.4c-2.5,9.7-5.7,14.5-9.7,14.5c-2-6-4.7-9-8.3-9h-3.7l-4.2,1.5v-0.7c-1.2-4-1.8-8.5-1.8-13.2
		c0-9.2,2-15.9,6.1-20c1.6-1.8,3.2-2.8,5-2.8h3.3c4,0,7.7,3.7,11,11v0.7h0.9C187.4,179.9,191.5,174.5,197.3,174.5z M401.2,271.8
		l18.4,78.3c2.7,8.2,7.5,16.4,14.3,24.5l-3.1,1.3c-4.4,0-8.3-3.7-11.6-11h-0.6c0,7.4-4.6,13.4-13.8,18h-2.4
		c-8.2,0-16.7-6.3-25.4-18.8c-0.6,10.3-4.2,23.2-10.7,38.8c-12.1,23.7-25.6,35.5-40.3,35.5h-0.4c-8,0-18.5-6-31.4-18
		c-7.4-6-12.9-9-16.5-9h-2.4c-8.6,3.7-13.7,5.5-15.3,5.5h-2.4c-2.1-1.6-3.1-3.4-3.1-5.5c0-6.1,4.5-9.6,13.4-10.5
		c6.5,0,18,6.3,34.6,18.8c6,2.8,10.1,4.2,12.1,4.2c8.9,0,17.7-8.6,26.3-25.7c6-15.1,9.3-27.3,9.7-36.8c4.5-26.5,6.8-43.1,6.8-50h0.6
		c2.2,4,7.1,16.1,14.7,36c5.3,10.2,10.8,15.3,16.7,15.3h5.1c1.5,0,2.5-4.6,3.1-13.8c0-13.5-4.5-36.4-13.4-68.8v-1.5
		C386.2,278.6,391.8,276.4,401.2,271.8z M270.8,87.7c6,8.2,12.7,13.3,20.2,15.3h0.6v-0.7c-2.5-0.7-5.1-3.2-7.9-7.5V92h0.6
		c7.5,9.8,14.1,14.9,19.9,15.3l3.1,0.7h1.5l0.4,0.6l0.6-0.6h2.8c8,0,15.5-6.1,22.6-18.2v-0.6h0.6v1.3c-2.7,10.1-7.5,17.9-14.3,23.5
		c-6.6,5.6-13.4,8.5-20.4,8.5h-2.2c-13.6,0-22.6-9-26.8-27L270.8,87.7z M324.4,125.3c7.7,8.5,11.6,18.6,11.6,30.5
		c0,7.7-2.5,14.5-7.4,20.2c-4.4-1-7.8-2.9-10.1-5.7h-0.6c-5.1,8-9.1,12-12,12c-9.3-6.4-14-16.1-14-29.2v-3.5c0-8.9,2.3-15.6,7-20
		v6.8c0,12.5,3.6,21.6,10.7,27.2c1.2-0.2,3.9-4.4,7.9-12.5c4.4,4.2,7.7,6.3,9.7,6.3h1.3l0.6-5v-4.8
		C329.1,142.4,327.5,134.9,324.4,125.3z M299.5,333.6l-0.6,2.8c0,17.8,5.9,31.2,17.7,40.3h2.2c3.1-0.6,4.6-2.7,4.6-6.3v-1.5
		c0-11.3-6-22.4-18-33.3l-5.9-2.8V333.6z M376.8,186.3h3.1c6.1,0,11.1,5.8,14.9,17.5v2l-2.9-1.5c-2,0-3.2,4.7-3.7,14
		c0,5,2.6,16.4,7.9,34l0.6,2.8v1.5l-13.4,2c-4.2,0-7-2.8-8.5-8.3c-2.3-6.1-5.4-16.5-9.2-31.3c-4-11.8-8.8-19.4-14.3-23l-3.1-1.3V194
		c0-2.8,0.9-4.2,2.8-4.2h0.4c4,0,8.1,5.8,12.1,17.5h0.4c0-9.7,3.1-16.2,9.2-19.5L376.8,186.3z M370.1,130.8
		c11.3,9.6,20.7,32,28.3,67.3l1.8,8.5h0.4c0-16.7,6.6-28.3,19.9-34.8l5.5-0.7h3.9c11,0,18.9,9.7,23.5,29.2v4.8h-0.6
		c0-3.3-3.9-7.2-11.6-11.8h-5c-7.5,0-11.8,11.3-13.1,34v4.2c0,30.5,11.9,79.1,35.7,145.8v0.6l-4.6,2.9h-2.8
		c-6.5,0-14.3-11.2-23.5-33.5c-4-9.7-11.2-35.8-21.3-78.3c-3.1-13.2-6-35.2-8.8-66c-1.5-9.2-5.5-21.3-12-36.2
		c-2.8-6-7.5-13.9-14-23.5c-3.1-3.6-4.6-6.6-4.6-9v-1.5C367.4,132.1,368.3,131.4,370.1,130.8z M514.9,216.8
		c21.2,0,37,17.4,47.3,52.2c2.7,12.6,4,24.2,4,34.6v7.7c0,18.4-4.2,35.3-12.5,50.8v1.3c3.7,3.3,6.9,5,9.7,5c9.3-3.4,14-14.8,14-34
		c0-20.8-5-47.3-14.9-79.3l-2.8-7.5l4.2-0.7c12.4,0,19.9,6.4,22.6,19.3c5.5,25.3,8.3,50.8,8.3,76.5v3.5c0,5.3,2.9,11,8.8,17.3
		l3.7,1.5h1.8c0.7,0,1.3-2.1,1.8-6.3c0-2.7-4.3-21.9-12.9-57.7c-4-19.5-6.1-34.1-6.1-43.8v-1.3c2.5-6.5,9.9-9.7,22.3-9.7v0.7
		l-0.9,13.8c0,23.5,4.9,51.3,14.7,83.3l3.3,17.5c2.1,2.7,3.7,4,5,4c1.7-0.5,3.3-2.3,4.8-5.5c-2.1-15-7.1-39.5-14.9-73.6
		c-1.2-8.2-2.1-17.7-2.8-28.5c2.5-9.2,6.9-13.8,13.4-13.8h0.9c7.8,0,14.3,5.1,19.3,15.3l-5,4c-2.8,4.9-4.2,10.2-4.2,16v3.5
		c0,24.8,7.2,54.2,21.7,88.3l4.2,6.8H673c-2.5,0-5.2-2.3-8.3-6.8h-0.6c-2.6,6.9-7.1,10.3-13.4,10.3h-1.3c-5.6,0-11.8-3.7-18.6-11
		h-0.4c-2.5,8.8-6,13.2-10.7,13.2H618c-8.3,0-17.1-7.7-26.3-23c-4.2,13-11.3,19.5-21.3,19.5c-6.9,0-13.2-4.4-18.9-13.2
		c-6.1,9.3-11.4,14-15.8,14c-9.3,0-18.1-9.1-26.3-27.2c-7.1,35.3-16.5,57.8-28.1,67.5c-6.4,5.5-12.1,8.3-17.1,8.3h-3.7
		c-5.6,0-12.3-5.1-20-15.3c-9.7-10.2-17-15.3-22.1-15.3h-1.5c-2.8,0-8.6,2.3-17.5,7l-3.3,0.6c-2.2,0-3.9-1.3-5.1-4
		c0-7.1,5-11.3,14.9-12.5h2.8c6.9,0,16.5,5.1,29.1,15.3c6.3,3.7,11.5,5.5,15.8,5.5c11.6,0,23-16.9,34.2-50.8
		c4.3-18.4,6.4-34.3,6.4-47.8v-5.5h0.6c2.8,3.6,8.5,13.5,17.1,29.8c9.9,14.8,18.2,22.3,24.8,22.3c3.1-0.7,4.6-1.7,4.6-2.8
		c-15.1-19.7-22.6-38.1-22.6-55v-4c0-11.9,3.6-21.1,10.7-27.8c3.3-1.5,6.1-2.2,8.3-2.2c6.7,0,14,6,21.9,18c-2.2-11.8-6.9-21-14-27.8
		c-6.1-5-11-7.5-14.7-7.5h-2.8c-4.9,0-8.5,3.2-10.7,9.7c-4.3,9.2-6.4,20.5-6.4,34v4c0,7.4,0.3,12.3,0.9,14.7h-0.6
		c-6.1,0-13.1-6.7-20.8-20.2c-4-8.9-6.1-18.2-6.1-27.8c0-11.9,3.9-22.7,11.6-32.5c5.5-6,10.3-9.3,14.3-9.7v-0.7h-2.8
		c-7.1,0-15.9,5.3-26.3,16h-0.9c-1.2-0.5-1.8-1.9-1.8-4.2c0-6.5,9.5-11.8,28.5-16H514.9z M466.9,207.3h0.4
		c-7.5,15.3-16.4,27.8-26.8,37.3l-12.9,9.7v-0.6l-0.4-2.9v-4c7.5-1.3,16.9-9.3,28.1-23.7L466.9,207.3z M509.9,137.8l20.8,1.3
		c0.9,3.1,1.3,6.3,1.3,9.7v3.5c0,14.6-5.1,25-15.3,31.3l-4,0.7h-1.8l-3.3-0.7l7.9-8.3l1.3-5.5h-4c-7.8,0-14.5,3.7-19.9,11
		c-2.2-6.6-3.3-12.6-3.3-18c0-10.9,4-18.6,12-23C502.5,138.9,505.4,138.3,509.9,137.8z M539,320.4c0,8.7,2.6,18.2,7.9,28.5
		c5.5-7.8,8.3-15,8.3-21.5v-4.2c0-8.1-2.6-13.2-7.9-15.3h-0.9C541.8,307.9,539.3,312,539,320.4z M561.2,88.5
		c6.4,7.8,13,12.7,19.9,14.5h0.4v-0.7c-5.3-3.1-7.9-6.3-7.9-9.7V92h0.9c7.6,11,15.6,16.5,24.1,16.5c10.1,0,19-6.3,26.8-18.8v0.7
		c-1.5,7.7-5.8,15.4-12.9,23c-7.5,6-14.9,9-22.3,9h-1.5c-13.2,0-22.1-8.6-26.7-25.7L561.2,88.5z M615.6,175.3
		c7,0,12.1,7.2,15.3,21.5l0.6,2.8l-2.4-0.7h-1.3c-5.4,0-9,5.8-10.7,17.5l0.9,6.8c-3.3-1.1-7.2-4.5-11.6-10.3l-1.5-2.2V210h-0.9
		c-1.8,7.1-4.6,12-8.3,14.5l-1.8,0.7c0-4.8-2.9-8-8.8-9.7h-2.8l-4.6,1.3v-0.6c-0.9-4.9-1.3-9.6-1.3-14c1.1-15.3,5.4-23,12.9-23
		c5,0,9.2,4.2,12.5,12.5v0.7h0.4C604.9,181,609.4,175.3,615.6,175.3z M599.1,139.8h1.8c6.7,1.7,10.1,7.7,10.1,18v5
		c0,8.5-3.6,15-10.7,19.5h-0.9c-2.9-12.1-6.3-18.2-10.1-18.2h-1.8l-3.3,1.5v-0.7C586,148.1,591,139.8,599.1,139.8z"/>
</g>
<path fill="#000000" d="M273.602,481.306c-0.578-0.576-1.301-1.03-2.174-1.362c-0.873-0.331-1.885-0.497-3.039-0.497
	c-0.663,0-1.463,0.079-2.4,0.238v-6.077h-1.535v17.711c0.706,0.202,1.402,0.354,2.087,0.454s1.301,0.151,1.849,0.151
	c1.153,0,2.166-0.162,3.039-0.486s1.596-0.764,2.174-1.319c0.576-0.555,1.006-1.211,1.287-1.968s0.42-1.561,0.42-2.411
	s-0.139-1.657-0.42-2.422C274.608,482.554,274.178,481.883,273.602,481.306z M272.391,489.167c-0.852,0.829-2.17,1.243-3.958,1.243
	c-0.39,0-0.805-0.032-1.244-0.097c-0.439-0.065-0.84-0.134-1.2-0.206v-8.845c0.447-0.115,0.887-0.194,1.319-0.237
	c0.433-0.044,0.808-0.065,1.125-0.065c0.894,0,1.668,0.112,2.325,0.335c0.656,0.224,1.199,0.545,1.633,0.963
	c0.432,0.418,0.752,0.919,0.961,1.503s0.314,1.243,0.314,1.979C273.667,487.195,273.241,488.338,272.391,489.167z M247.392,479.446
	c-0.62,0-1.297,0.079-2.033,0.238c-0.735,0.158-1.485,0.433-2.249,0.821l-0.065,1.73c0.548-0.303,0.973-0.52,1.276-0.649
	s0.624-0.237,0.962-0.324c0.338-0.086,0.677-0.158,1.016-0.216s0.667-0.087,0.984-0.087c1.139,0,1.982,0.249,2.53,0.746
	s0.822,1.33,0.822,2.498v0.13c-0.332-0.044-0.732-0.087-1.2-0.13c-0.469-0.043-0.876-0.065-1.222-0.065
	c-1.831,0-3.302,0.311-4.412,0.931c-1.11,0.619-1.665,1.644-1.665,3.07c0,0.707,0.155,1.305,0.465,1.795
	c0.31,0.49,0.713,0.88,1.211,1.168s1.067,0.497,1.708,0.627c0.641,0.13,1.308,0.194,2,0.194c0.807,0,1.6-0.072,2.378-0.216
	c0.779-0.145,1.536-0.368,2.271-0.671v-7.028c0-1.585-0.397-2.742-1.189-3.471C250.189,479.811,248.992,479.446,247.392,479.446z
	 M250.636,489.892c-0.375,0.144-0.858,0.267-1.449,0.367c-0.591,0.102-1.183,0.151-1.773,0.151c-0.505,0-0.984-0.035-1.438-0.108
	c-0.454-0.071-0.84-0.197-1.157-0.378c-0.317-0.18-0.57-0.414-0.757-0.703c-0.188-0.288-0.281-0.663-0.281-1.124
	c0-0.52,0.111-0.934,0.335-1.244c0.224-0.31,0.533-0.551,0.93-0.724c0.396-0.174,0.85-0.296,1.362-0.368
	c0.511-0.072,1.041-0.108,1.589-0.108c0.476,0,0.984,0.029,1.524,0.087c0.541,0.058,0.912,0.108,1.114,0.151V489.892z
	 M258.032,479.868c-0.649,0.122-1.276,0.263-1.881,0.422v11.418h1.535v-10.186c0.202-0.072,0.563-0.147,1.082-0.228
	c0.519-0.079,1.002-0.118,1.449-0.118h1.989v-1.492H260C259.336,479.685,258.681,479.746,258.032,479.868z M-77.92,487.667
	l241.145,0.656l0.663-0.433l-0.632-0.564L-77.92,487.667z M164.994,487.825l1.95,1.95l1.95-1.95l-1.95-1.95L164.994,487.825z
	 M169.559,487.825l3.057,3.057l3.057-3.057l-3.057-3.057L169.559,487.825z M212.359,489.286l-3.395-9.602h-1.514l-3.396,9.602
	l-2.984-9.602h-1.73l3.979,12.023h1.428l3.46-9.645l3.46,9.645h1.427l3.979-12.023h-1.73L212.359,489.286z M238.418,489.589
	c-0.317,0-0.591,0.115-0.822,0.346c-0.231,0.23-0.346,0.505-0.346,0.822c0,0.316,0.115,0.591,0.346,0.821
	c0.23,0.23,0.504,0.346,0.822,0.346c0.317,0,0.591-0.115,0.822-0.346c0.23-0.23,0.346-0.505,0.346-0.821
	c0-0.317-0.116-0.592-0.346-0.822C239.009,489.704,238.735,489.589,238.418,489.589z M193.243,489.286l-3.395-9.602h-1.514
	l-3.396,9.602l-2.984-9.602h-1.73l3.979,12.023h1.428l3.46-9.645l3.46,9.645h1.427l3.979-12.023h-1.73L193.243,489.286z
	 M231.476,489.286l-3.395-9.602h-1.514l-3.396,9.602l-2.984-9.602h-1.73l3.979,12.023h1.428l3.46-9.645l3.46,9.645h1.427
	l3.979-12.023h-1.73L231.476,489.286z M382.732,480.474c-0.426-0.396-0.938-0.667-1.535-0.812c-0.598-0.144-1.271-0.216-2.021-0.216
	c-0.664,0-1.393,0.09-2.184,0.271c-0.793,0.181-1.471,0.4-2.033,0.659c-0.346-0.331-0.818-0.569-1.416-0.714
	c-0.6-0.144-1.273-0.216-2.023-0.216c-0.635,0-1.268,0.058-1.902,0.173l-2.465,0.454v11.635h1.535v-10.38
	c0.447-0.102,0.883-0.188,1.309-0.26c0.424-0.072,0.896-0.108,1.416-0.108c0.605,0,1.125,0.058,1.557,0.173
	c0.434,0.116,0.789,0.321,1.07,0.616c0.281,0.296,0.494,0.711,0.639,1.244s0.217,1.24,0.217,2.119v6.596h1.535v-7.201
	c0-0.663-0.055-1.243-0.162-1.741c-0.109-0.497-0.213-0.861-0.314-1.092c0.086-0.043,0.281-0.119,0.584-0.228
	c0.303-0.107,0.602-0.197,0.898-0.27c0.295-0.072,0.586-0.126,0.875-0.162s0.547-0.055,0.779-0.055c0.59,0,1.102,0.058,1.535,0.173
	c0.432,0.116,0.781,0.317,1.049,0.605c0.266,0.289,0.471,0.703,0.615,1.244c0.145,0.54,0.217,1.251,0.217,2.13v6.596h1.535v-7.201
	c0-0.995-0.111-1.816-0.336-2.466C383.482,481.393,383.158,480.87,382.732,480.474z M280.1,474.581
	c-0.785,0.648-1.18,1.729-1.18,3.243v1.86h-2.551v1.492h2.551v10.531h1.537v-10.531h4.973v-1.492h-4.973v-1.471
	c0-0.635,0.045-1.149,0.141-1.546c0.094-0.396,0.24-0.707,0.443-0.931c0.201-0.223,0.475-0.385,0.82-0.486
	c0.346-0.101,0.779-0.151,1.299-0.151h2.422v-1.492h-2.271C281.956,473.607,280.885,473.932,280.1,474.581z M398.273,487.825
	l3.057,3.057l3.057-3.057l-3.057-3.057L398.273,487.825z M343.322,482.322c0.389-0.418,0.854-0.749,1.395-0.994
	s1.135-0.368,1.783-0.368c0.736,0,1.373,0.076,1.914,0.228s1.121,0.414,1.74,0.789l0.715-1.405c-0.707-0.39-1.393-0.674-2.055-0.854
	c-0.664-0.181-1.436-0.271-2.314-0.271c-0.85,0-1.639,0.155-2.367,0.465c-0.729,0.311-1.367,0.746-1.914,1.309
	c-0.549,0.563-0.98,1.222-1.297,1.979c-0.317,0.757-0.476,1.59-0.476,2.498s0.158,1.74,0.476,2.497
	c0.316,0.757,0.748,1.413,1.297,1.969c0.547,0.555,1.186,0.987,1.914,1.297c0.729,0.311,1.518,0.465,2.367,0.465
	c0.879,0,1.65-0.09,2.314-0.27c0.662-0.181,1.348-0.466,2.055-0.854l-0.715-1.406c-0.619,0.375-1.199,0.639-1.74,0.79
	s-1.178,0.227-1.914,0.227c-0.648,0-1.242-0.119-1.783-0.356c-0.541-0.238-1.006-0.565-1.395-0.984
	c-0.391-0.418-0.693-0.915-0.908-1.492c-0.217-0.576-0.324-1.203-0.324-1.881s0.107-1.305,0.324-1.882
	C342.628,483.238,342.931,482.741,343.322,482.322z M404.387,487.825l1.949,1.95l1.951-1.95l-1.951-1.95L404.387,487.825z
	 M410.701,487.326l-0.664,0.433l0.633,0.564l241.176-0.341L410.701,487.326z M362.611,481.295c-0.549-0.569-1.193-1.02-1.936-1.352
	c-0.742-0.331-1.547-0.497-2.412-0.497c-0.863,0-1.668,0.166-2.41,0.497c-0.742,0.332-1.389,0.782-1.936,1.352
	c-0.549,0.57-0.977,1.229-1.287,1.979c-0.311,0.749-0.465,1.557-0.465,2.422s0.154,1.672,0.465,2.422s0.738,1.409,1.287,1.979
	c0.547,0.569,1.193,1.017,1.936,1.341s1.547,0.486,2.41,0.486c0.865,0,1.67-0.162,2.412-0.486s1.387-0.771,1.936-1.341
	c0.547-0.569,0.977-1.229,1.287-1.979c0.309-0.75,0.465-1.557,0.465-2.422s-0.156-1.673-0.465-2.422
	C363.587,482.524,363.158,481.865,362.611,481.295z M362.394,487.523c-0.217,0.569-0.52,1.067-0.908,1.492
	c-0.389,0.426-0.857,0.765-1.406,1.017c-0.547,0.252-1.152,0.378-1.816,0.378c-0.662,0-1.268-0.126-1.816-0.378
	c-0.547-0.252-1.016-0.591-1.404-1.017c-0.391-0.425-0.693-0.923-0.908-1.492c-0.217-0.569-0.324-1.179-0.324-1.827
	c0-0.649,0.107-1.262,0.324-1.839c0.215-0.576,0.518-1.077,0.908-1.503c0.389-0.425,0.857-0.764,1.404-1.016
	c0.549-0.252,1.154-0.379,1.816-0.379c0.664,0,1.27,0.127,1.816,0.379c0.549,0.252,1.018,0.591,1.406,1.016
	c0.389,0.426,0.691,0.927,0.908,1.503c0.217,0.577,0.324,1.189,0.324,1.839C362.718,486.345,362.611,486.954,362.394,487.523z
	 M296.221,481.295c-0.547-0.569-1.191-1.02-1.936-1.352c-0.742-0.331-1.545-0.497-2.41-0.497s-1.67,0.166-2.412,0.497
	c-0.742,0.332-1.387,0.782-1.936,1.352c-0.547,0.57-0.977,1.229-1.285,1.979c-0.311,0.749-0.465,1.557-0.465,2.422
	s0.154,1.672,0.465,2.422c0.309,0.75,0.738,1.409,1.285,1.979c0.549,0.569,1.193,1.017,1.936,1.341s1.547,0.486,2.412,0.486
	s1.668-0.162,2.41-0.486c0.744-0.324,1.389-0.771,1.936-1.341c0.549-0.569,0.977-1.229,1.287-1.979s0.465-1.557,0.465-2.422
	s-0.154-1.673-0.465-2.422C297.198,482.524,296.77,481.865,296.221,481.295z M296.006,487.523c-0.217,0.569-0.52,1.067-0.908,1.492
	c-0.391,0.426-0.859,0.765-1.406,1.017c-0.549,0.252-1.154,0.378-1.816,0.378c-0.664,0-1.27-0.126-1.816-0.378
	c-0.549-0.252-1.018-0.591-1.406-1.017c-0.389-0.425-0.691-0.923-0.908-1.492s-0.324-1.179-0.324-1.827
	c0-0.649,0.107-1.262,0.324-1.839c0.217-0.576,0.52-1.077,0.908-1.503c0.389-0.425,0.857-0.764,1.406-1.016
	c0.547-0.252,1.152-0.379,1.816-0.379c0.662,0,1.268,0.127,1.816,0.379c0.547,0.252,1.016,0.591,1.406,1.016
	c0.389,0.426,0.691,0.927,0.908,1.503c0.215,0.577,0.324,1.189,0.324,1.839C296.331,486.345,296.221,486.954,296.006,487.523z
	 M309.381,480.463c-0.455-0.39-0.996-0.656-1.623-0.801c-0.627-0.144-1.309-0.216-2.043-0.216c-0.707,0-1.465,0.047-2.271,0.141
	s-1.701,0.234-2.682,0.422v11.699h1.535v-10.402c1.184-0.23,2.293-0.346,3.33-0.346c0.592,0,1.111,0.062,1.559,0.184
	c0.445,0.123,0.818,0.332,1.113,0.628c0.295,0.295,0.525,0.713,0.691,1.254s0.25,1.251,0.25,2.13v6.553h1.535v-7.201
	c0-0.995-0.119-1.82-0.357-2.477C310.18,481.375,309.834,480.852,309.381,480.463z M318.516,490.054
	c-0.346-0.108-0.619-0.277-0.82-0.509c-0.203-0.23-0.35-0.547-0.443-0.951c-0.096-0.403-0.141-0.922-0.141-1.557v-5.86h4.973v-1.492
	h-4.973v-4.347h-1.537v4.347h-2.551v1.492h2.551v6.466c0,0.764,0.109,1.405,0.326,1.925c0.215,0.519,0.525,0.937,0.93,1.254
	c0.402,0.317,0.867,0.544,1.395,0.682c0.525,0.137,1.105,0.205,1.74,0.205h2.271v-1.492h-2.422
	C319.295,490.216,318.862,490.162,318.516,490.054z M337.784,489.589c-0.316,0-0.59,0.115-0.82,0.346s-0.346,0.505-0.346,0.822
	c0,0.316,0.115,0.591,0.346,0.821s0.504,0.346,0.82,0.346c0.318,0,0.592-0.115,0.822-0.346s0.346-0.505,0.346-0.821
	c0-0.317-0.115-0.592-0.346-0.822S338.102,489.589,337.784,489.589z M333.178,486.106c-0.346-0.303-0.785-0.565-1.318-0.789
	c-0.533-0.223-1.182-0.422-1.947-0.595l-0.799-0.173c-1.053-0.216-1.781-0.461-2.184-0.735c-0.404-0.273-0.607-0.678-0.607-1.211
	c0-0.504,0.238-0.904,0.715-1.2c0.475-0.295,1.174-0.443,2.098-0.443c0.793,0,1.477,0.076,2.055,0.228
	c0.576,0.151,1.217,0.421,1.924,0.811l0.691-1.405c-1.412-0.765-2.969-1.146-4.67-1.146c-0.635,0-1.223,0.076-1.764,0.228
	c-0.539,0.151-1.008,0.364-1.404,0.638s-0.711,0.605-0.941,0.994c-0.23,0.39-0.346,0.815-0.346,1.276
	c0,0.462,0.072,0.88,0.217,1.254c0.143,0.375,0.381,0.707,0.713,0.995s0.758,0.537,1.275,0.746c0.52,0.209,1.146,0.4,1.883,0.573
	l0.908,0.194c1.008,0.217,1.729,0.49,2.162,0.822c0.432,0.331,0.648,0.771,0.648,1.318c0,0.39-0.086,0.707-0.26,0.952
	c-0.172,0.245-0.414,0.436-0.725,0.573c-0.311,0.137-0.678,0.237-1.102,0.303c-0.426,0.064-0.877,0.097-1.352,0.097
	c-0.592,0-1.223-0.09-1.893-0.271c-0.67-0.18-1.352-0.479-2.045-0.897l-0.734,1.471c0.779,0.433,1.539,0.742,2.281,0.93
	s1.539,0.281,2.391,0.281c0.748,0,1.434-0.072,2.053-0.216c0.621-0.145,1.158-0.36,1.611-0.648c0.455-0.289,0.805-0.649,1.049-1.082
	c0.246-0.433,0.369-0.93,0.369-1.492c0-0.476-0.072-0.915-0.217-1.318C333.77,486.763,333.526,486.41,333.178,486.106z"/>
</svg>

