<?xml version="1.0" encoding="utf-8"?>
<!-- Generator: Adobe Illustrator 22.1.0, SVG Export Plug-In . SVG Version: 6.00 Build 0)  -->
<svg version="1.1" id="Layer_1" xmlns="http://www.w3.org/2000/svg" xmlns:xlink="http://www.w3.org/1999/xlink" x="0px" y="0px"
	 viewBox="0 0 800 500" style="enable-background:new 0 0 800 500;" xml:space="preserve">
<g>
	<path fill="#000000" d="M212.9,166.8l32.2,10.1c4.8,23.7,7.2,43.8,7.2,60.5c0,15.1-1.6,30.8-4.8,47.1c-2.9,10.3-7.7,15.4-14.2,15.4
		c-7.1,0-14.7-4.5-22.8-13.4c-3.3,23.3-8.6,34.9-15.8,34.9c-10.7,0-18.9-18.4-24.8-55.2l-0.7-6.1h-0.4
		c-7.8,15.2-13.8,30.7-17.8,46.5c-1.5,8.5-3.2,12.7-5.1,12.7c-3.9,0-7.5-20.2-10.8-60.5v-0.7h0.4c0,3.2,1.5,6.8,4.4,10.8l1.3,0.7
		c2.5,0,7-6.1,13.8-18.2c8.3-12.3,16.4-25.9,24.3-41c3.4-6.4,6.1-12.9,8.1-19.5c3.2-4.5,5-6.8,5.5-6.8l2-0.7h0.7
		c2.8,0.6,6.4,4.9,10.7,12.9c5.1,10.4,7.7,26.5,7.7,48.4c0,8.2-0.3,17-0.9,26.3c2.8,2.7,5.3,4,7.5,4h1.3c3.7,0,6.2-3.6,7.5-10.8
		l0.7-8.1v-2.6c0-20.2-5.8-48.9-17.5-86.1L212.9,166.8z M164.7,152.6c2.2,2.1,3.3,3.4,3.3,4v2c0,7.8-0.9,12.8-2.8,14.9h-0.6
		c-1.8-0.7-2.8-2.6-2.8-5.5h-0.4c-3.2,9.7-4.8,21.8-4.8,36.4l0.4,5.3l-1.5,6.8c-1,0-2.3-6.5-4-19.5c-2.3-10.3-5.1-17.7-8.5-22.3
		l-0.7,9.4h-0.4c-3.4-9.3-5.1-14.7-5.1-16.2l2.4-4c3.4,0,7.7,5.4,12.7,16.2l1.7,8.1h0.7c1.6-14.2,4.2-25.2,7.9-32.9L164.7,152.6z
		 M207.3,109.6c2.1,5.1,3.1,10.1,3.1,14.9c-0.6,7.6-2.6,11.4-5.9,11.4c-2.7,0-4.7-2.9-6.1-8.8h-0.4v0.7l0.7,5.3
		c0,2.8-1.7,4.4-5.1,4.8c-4.7,0-7.8-8.5-9.6-25.6h0.4l4-0.7v0.7c1,11.2,2.2,16.7,3.7,16.7h0.7l1.1-2v-2.6c0-3.4-0.9-8-2.8-13.6v-0.6
		l5.1,0.6h0.9c2.2,11.3,4.2,16.9,5.9,16.9c1.3-1,2-2.8,2-5.3v-0.7c0-3.3-0.8-6.7-2.4-10.1L207.3,109.6z M184.2,259.6
		c0,14.8,1.9,24.9,5.7,30.2l1.5,0.7h0.6c4,0,7.4-12.1,9.9-36.2l0.4-12.9c-0.6-15.7-2.5-23.5-5.7-23.5H195c-4.8,0-8.2,9-10.3,26.8
		L184.2,259.6z M216,129.1v1.5c0,6.3-3.3,13.2-9.9,20.8c-3.9,3.2-7.6,4.8-11,4.8c-5.1,0-8-2.3-8.5-6.8l-1.8-5.3h0.4
		c2.2,2.2,4.6,3.3,7.2,3.3h3.1C201.5,147.3,208.4,141.2,216,129.1z M229.2,311.3h3.9c3.7,0,6.1,4,7.2,12.1v1.5
		c0,4.3-2.2,8.5-6.6,12.7c-1.6,1.4-3.6,2.3-6.1,2.8c-1.8-0.2-4.1-1.6-6.8-4c-2.8,3.4-5.9,5.5-9.4,6.1c-5.6-1.7-8.5-5.6-8.5-11.6
		v-2.6c1.7-9.9,5.3-14.9,10.8-14.9h2.2c2,0,4,1.2,6.1,3.5C225,313.3,227.4,311.4,229.2,311.3z M303.1,146.5
		c4.4,4.4,12.1,17.7,23.2,39.7c12.3,27.1,20.6,55.3,25,84.8l0.7,12.7v5.5c0,17.2-3.7,29.1-11,35.7l-4.4,1.3h-3.1
		c-9.6,0-22.1-15.9-37.5-47.8c-1.7,20.7-6.4,44.1-14.2,70.1c-2.2,7.2-7.3,18.6-15.3,34.2c-2.7,4-6.4,6.1-11,6.1
		c-8.3,0-19.7-5.8-34.2-17.5v-0.7c11.5,0,25.9-13.9,43.2-41.7c7-14.1,11.5-26.8,13.6-38.2l3.1-16.7l-1.5-41.7l17.5-13.4
		c1.7,14.3,5.9,29.1,12.7,44.3c5.8,9.4,10.4,14.2,14,14.2c3.9,0,5.9-4.7,5.9-14.2c0-15-6.7-34.4-20.2-58.5
		c-9.3-15.3-17.8-27-25.6-34.9l-5.1-4.8v-1.3L303.1,146.5z M373.2,51.1c4,4.4,10.8,14,20.2,28.9c1.5,2,3.5,5.8,6.1,11.4
		c-10.2,12.6-21.7,22.7-34.6,30.3c-16.7,8.5-31.6,12.7-44.7,12.7c-27.6,0-51.1-13.4-70.4-40.3h0.4c15.9,11.2,32,16.7,48.2,16.7
		c27,0,49.2-14.1,66.6-42.3C368.2,62.7,371,56.9,373.2,51.1z M251.5,148h5.5c6.1,9.7,9.2,22.4,9.2,38.2c0,9.4-1.4,16.6-4,21.5
		l0.2-3.3v-10.8c0-20-3.6-34.8-10.8-44.3V148z M310.9,330.8c1.6,1.1,2.4,2,2.4,2.8v0.7c-0.1,6.3-0.7,9.4-1.7,9.4h-1.3
		c-0.5,0-0.7-0.9-0.7-2.8c-1.4,0-2.5,6.7-3.5,20.2v8.8l-0.9,2l-2.8-14.9c-2.1-7.6-3.9-11.4-5.5-11.4v5.3l-3.7-9.4l1.7-3.3
		c2.5,0,5.2,3.6,8.3,10.7l0.9,4.8h0.4C305.9,341.9,308,334.2,310.9,330.8z M364.6,149.3c2.1,0.7,3.1,1.7,3.1,2.8v1.3
		c0,7.1-1,10.7-3.1,10.7c-0.9,0-1.3-1.3-1.3-4c-2.7,6.5-4,16.6-4,30.3v4l-0.7,1.3h-0.4c-0.5,0-1.5-5.6-3.1-16.7
		c-2.2-7.7-4.1-12.2-5.7-13.4l-0.4,0.6v5.5h-0.7l-3.7-10.8l2-3.3c3.6,0,7,5.4,10.3,16.2l0.2,2h0.4c0.5-6.7,2.3-14.8,5.5-24.3
		L364.6,149.3z M359.8,315.3h0.4v0.7c-3.4,12.8-5.1,22.2-5.1,28.3v0.6c0,1,0.4,1.5,1.1,1.5c1.8-0.6,3.6-2.6,5.1-6.1l0.9,4.6
		c-2.1,8.6-4.4,12.9-6.8,12.9c-2.2,0-3.3-4.3-3.3-12.9C352.1,335.6,354.6,325.8,359.8,315.3z M460.7,122.4c2,3.6,4.2,12.9,6.8,28.1
		c2.3,15.1,3.5,29.7,3.5,43.8v6.8c0,41.3-8.9,78-26.7,110.1C430.5,335.1,416.7,347,403,347c-16.4,0-29.7-15-39.7-45.1
		c-3.4-13.6-5.1-26.4-5.1-38.2v-2.8c0-29.7,6.4-50.3,19.1-61.8c3.6-3.2,7.2-4.8,11-4.8h2.8c13,0,23.2,9,30.7,26.8
		c1.6,4.8,2.7,9.9,3.3,15.4h-0.2c-8.7-10.7-16.8-16-24.3-16h-1.1c-9.9,0-17.5,7.6-22.6,22.8c-1.8,6.3-2.8,12.1-2.8,17.5
		c0,21.6,6.7,37.7,20.2,48.4c2.9,1.4,5.5,2,7.5,2c23.3,0,41.7-30.9,55.3-92.7c2.9-16.7,4.4-34,4.4-51.9v-12.7
		C461.7,143.9,461.3,133.4,460.7,122.4z M408,242.2c7.6,0,12.3,5.8,14.2,17.5v4c-2,11.2-6.6,16.7-13.8,16.7H407
		c-9.3-1.8-14-8.3-14-19.5C394.4,248.4,399.4,242.2,408,242.2z M419.4,100.2h0.4v0.7c-4.4,15.8-6.6,27.6-6.6,35.5l0.4,0.7h1.5
		c1.7,0,3.5-2.2,5.3-6.6l1.5,5.3c-2.3,9.8-5.1,14.7-8.3,14.7c-2.5,0-3.7-4.5-3.7-13.4C409.8,124.9,413,112.6,419.4,100.2z M448,54.4
		h0.4c6.5,0,11,3.6,13.6,10.8v1.3c-1.1-1.3-2.2-2-3.3-2h-1.5c-4.9,0-7.8,14.8-8.8,44.3l-0.4,10.1c0,34.4,1.5,71.5,4.4,111.1
		c-4.7,19.5-8.5,31.6-11.6,36.2h-0.4c-5.6-31.9-8.5-71.5-8.5-119v-0.7c0-46.1,1.9-73.7,5.7-82.7C440.2,57.5,443.6,54.4,448,54.4z
		 M453.6,333.5h0.4c1.6,0,2.4,1.6,2.4,4.8c0,5.4-0.9,8.1-2.8,8.1c-1-0.5-1.5-1.7-1.5-3.5c-2.2,5.5-3.3,13.2-3.3,23v6.6L448,374h-0.7
		c-1.7-13.7-4-22.5-6.8-26.3h-0.7v3.3l-0.6,1.3l-3.1-7.9v-0.7l1.7-3.3c3.2,1.7,5.7,5.1,7.5,10.1l1.5,5.3l3.3-15.4L453.6,333.5z
		 M551.6,163.4c11,0,19.2,12.1,24.6,36.2c1.3,8.3,2,16.2,2,23.5c0,21-4.3,43.2-12.9,66.6v0.7c11.2,0,22.7-7.2,34.8-21.5
		c5.5-8.2,8.9-15.6,10.3-22.3h-0.7c-2.1,1.3-4,2-5.7,2h-2c-5.6,0-9.4-5.6-11.4-16.7c-0.6-4.7-0.9-9.4-0.9-14.2v-6.1
		c0-19.2,5.5-32.5,16.4-39.7l5.9-1.3c14.3,0,21.5,16.6,21.5,49.8c0,33.7-8.8,61-26.3,82c-5.1,6.3-12.8,12.3-23,18.2
		c-12.8,5.3-23.6,7.9-32.5,7.9h-1.3c-13.1,0-22.7-5.6-28.7-16.7l-2.4,18.8c-8,7.5-13.5,12.2-16.7,14.2l4-45.6
		c-6.4-14.1-10.8-26.9-13.4-38.4h-0.2c0,30.4-3.4,50.6-10.3,60.5c-3.2,4-5.9,6.1-8.3,6.1c-6.4,0-14-7.8-22.8-23.5
		c4.2-8.5,7.8-17.4,10.8-26.8c3.4,9.4,6.3,14.2,8.6,14.2c2.5,0,4.8-8.3,7.2-25c1.3-16.4,2-34.1,2-53.1v-3.3c2.6-3.8,7.9-8.7,16-14.7
		c4.3,28.6,9.7,49.4,16.2,62.5h0.2c4.9-33.3,9.8-56.7,14.7-70.1C533.4,171.5,541.5,163.4,551.6,163.4z M476,69.9
		c8.1,13.4,12.1,30,12.1,49.8v3.3c0,12.5-1.7,21.7-5.1,27.6l0.4-15.4c0-29.5-5.1-50.8-15.4-63.8v-0.7L476,69.9z M510.2,125
		c7.5,0,12.3,5.8,14.3,17.5v3.5c0,5.6-2.7,11-8.1,16l-5.5,1.5h-2c-6.1,0-10.5-4.7-13.1-14.2l-0.4-2.8v-3.3c0-8.9,3.9-14.8,11.8-17.5
		L510.2,125z M563.9,47c3.1,2.2,4.7,3.8,4.8,4.8v7.9c0,9.2-1.5,14.4-4.4,15.6h-0.9c-1.8,0-2.8-2.3-2.8-6.8h-0.7
		c-4.5,13.6-6.8,30.6-6.8,51.1l0.4,6.8c-0.6,5.8-1.2,8.6-1.8,8.6H551c-1.1,0-2.6-7.8-4.6-23.5c-5.5-22.4-9.7-33.7-12.5-33.7
		l-1.1,12.9h-0.4l-7.5-21l3.9-7.4c4.5,1.1,9.6,6.9,15.3,17.5c2.8,8,4.4,13.8,4.8,17.5c0.4,0,1.5-6.7,3.5-20
		c2.6-13.7,6.3-23.8,11.2-30.3H563.9z M524.9,279.1c7.6,8.5,13.5,12.7,17.8,12.7h1.3c4.5,0,7.8-3.6,9.7-10.7
		c4.9-13,7.4-28.5,7.4-46.5c0-15.1-2.8-24.9-8.5-29.4l-4.4-1.5c-4.5,0-9.9,11.5-16.2,34.4C527.3,261.5,524.9,275.2,524.9,279.1z
		 M683.2,48.3h0.4v0.7c-15.3,41.9-36,71.3-62,88.1c-14.1,8.6-26.6,12.9-37.5,12.9h-12.7l-3.1-16.9h4.6c28.2,0,59-19.7,92.5-59.2
		L683.2,48.3z M676.1,201.1l7.5,1.3v0.7c-7.1,4.8-12,12.6-14.7,23.5c-3.1,12.5-7.5,34.7-13.2,66.6c-5.4,20.8-15.3,36.5-29.8,47.1
		c-9.3,5.4-18.1,8.1-26.3,8.1c-6.7-0.5-11.5-1.4-14.3-2.8v-0.7c6.1-0.5,14.9-5.6,26.3-15.4c14.1-14.1,26-45.1,35.9-92.9
		C652.4,213,662,201.1,676.1,201.1z M670.2,131.1v0.7c-3.6,13-5.3,22.9-5.3,29.6v1.3h1.3c1.5,0,3.1-1.8,4.8-5.3c0.4,2.7,0.7,4,1.1,4
		c-2.3,8.9-4.6,13.4-6.8,13.4c-2.3,0-3.5-4.3-3.5-12.9C661.7,151.4,664.5,141.1,670.2,131.1z"/>
</g>
<path fill="#000000" d="M273.602,481.306c-0.578-0.576-1.301-1.03-2.174-1.362c-0.873-0.331-1.885-0.497-3.039-0.497
	c-0.663,0-1.463,0.079-2.4,0.238v-6.077h-1.535v17.711c0.706,0.202,1.402,0.354,2.087,0.454s1.301,0.151,1.849,0.151
	c1.153,0,2.166-0.162,3.039-0.486s1.596-0.764,2.174-1.319c0.576-0.555,1.006-1.211,1.287-1.968s0.42-1.561,0.42-2.411
	s-0.139-1.657-0.42-2.422C274.608,482.554,274.178,481.883,273.602,481.306z M272.391,489.167c-0.852,0.829-2.17,1.243-3.958,1.243
	c-0.39,0-0.805-0.032-1.244-0.097c-0.439-0.065-0.84-0.134-1.2-0.206v-8.845c0.447-0.115,0.887-0.194,1.319-0.237
	c0.433-0.044,0.808-0.065,1.125-0.065c0.894,0,1.668,0.112,2.325,0.335c0.656,0.224,1.199,0.545,1.633,0.963
	c0.432,0.418,0.752,0.919,0.961,1.503s0.314,1.243,0.314,1.979C273.667,487.195,273.241,488.338,272.391,489.167z M247.392,479.446
	c-0.62,0-1.297,0.079-2.033,0.238c-0.735,0.158-1.485,0.433-2.249,0.821l-0.065,1.73c0.548-0.303,0.973-0.52,1.276-0.649
	s0.624-0.237,0.962-0.324c0.338-0.086,0.677-0.158,1.016-0.216s0.667-0.087,0.984-0.087c1.139,0,1.982,0.249,2.53,0.746
	s0.822,1.33,0.822,2.498v0.13c-0.332-0.044-0.732-0.087-1.2-0.13c-0.469-0.043-0.876-0.065-1.222-0.065
	c-1.831,0-3.302,0.311-4.412,0.931c-1.11,0.619-1.665,1.644-1.665,3.07c0,0.707,0.155,1.305,0.465,1.795
	c0.31,0.49,0.713,0.88,1.211,1.168s1.067,0.497,1.708,0.627c0.641,0.13,1.308,0.194,2,0.194c0.807,0,1.6-0.072,2.378-0.216
	c0.779-0.145,1.536-0.368,2.271-0.671v-7.028c0-1.585-0.397-2.742-1.189-3.471C250.189,479.811,248.992,479.446,247.392,479.446z
	 M250.636,489.892c-0.375,0.144-0.858,0.267-1.449,0.367c-0.591,0.102-1.183,0.151-1.773,0.151c-0.505,0-0.984-0.035-1.438-0.108
	c-0.454-0.071-0.84-0.197-1.157-0.378c-0.317-0.18-0.57-0.414-0.757-0.703c-0.188-0.288-0.281-0.663-0.281-1.124
	c0-0.52,0.111-0.934,0.335-1.244c0.224-0.31,0.533-0.551,0.93-0.724c0.396-0.174,0.85-0.296,1.362-0.368
	c0.511-0.072,1.041-0.108,1.589-0.108c0.476,0,0.984,0.029,1.524,0.087c0.541,0.058,0.912,0.108,1.114,0.151V489.892z
	 M258.032,479.868c-0.649,0.122-1.276,0.263-1.881,0.422v11.418h1.535v-10.186c0.202-0.072,0.563-0.147,1.082-0.228
	c0.519-0.079,1.002-0.118,1.449-0.118h1.989v-1.492H260C259.336,479.685,258.681,479.746,258.032,479.868z M-77.92,487.667
	l241.145,0.656l0.663-0.433l-0.632-0.564L-77.92,487.667z M164.994,487.825l1.95,1.95l1.95-1.95l-1.95-1.95L164.994,487.825z
	 M169.559,487.825l3.057,3.057l3.057-3.057l-3.057-3.057L169.559,487.825z M212.359,489.286l-3.395-9.602h-1.514l-3.396,9.602
	l-2.984-9.602h-1.73l3.979,12.023h1.428l3.46-9.645l3.46,9.645h1.427l3.979-12.023h-1.73L212.359,489.286z M238.418,489.589
	c-0.317,0-0.591,0.115-0.822,0.346c-0.231,0.23-0.346,0.505-0.346,0.822c0,0.316,0.115,0.591,0.346,0.821
	c0.23,0.23,0.504,0.346,0.822,0.346c0.317,0,0.591-0.115,0.822-0.346c0.23-0.23,0.346-0.505,0.346-0.821
	c0-0.317-0.116-0.592-0.346-0.822C239.009,489.704,238.735,489.589,238.418,489.589z M193.243,489.286l-3.395-9.602h-1.514
	l-3.396,9.602l-2.984-9.602h-1.73l3.979,12.023h1.428l3.46-9.645l3.46,9.645h1.427l3.979-12.023h-1.73L193.243,489.286z
	 M231.476,489.286l-3.395-9.602h-1.514l-3.396,9.602l-2.984-9.602h-1.73l3.979,12.023h1.428l3.46-9.645l3.46,9.645h1.427
	l3.979-12.023h-1.73L231.476,489.286z M382.732,480.474c-0.426-0.396-0.938-0.667-1.535-0.812c-0.598-0.144-1.271-0.216-2.021-0.216
	c-0.664,0-1.393,0.09-2.184,0.271c-0.793,0.181-1.471,0.4-2.033,0.659c-0.346-0.331-0.818-0.569-1.416-0.714
	c-0.6-0.144-1.273-0.216-2.023-0.216c-0.635,0-1.268,0.058-1.902,0.173l-2.465,0.454v11.635h1.535v-10.38
	c0.447-0.102,0.883-0.188,1.309-0.26c0.424-0.072,0.896-0.108,1.416-0.108c0.605,0,1.125,0.058,1.557,0.173
	c0.434,0.116,0.789,0.321,1.07,0.616c0.281,0.296,0.494,0.711,0.639,1.244s0.217,1.24,0.217,2.119v6.596h1.535v-7.201
	c0-0.663-0.055-1.243-0.162-1.741c-0.109-0.497-0.213-0.861-0.314-1.092c0.086-0.043,0.281-0.119,0.584-0.228
	c0.303-0.107,0.602-0.197,0.898-0.27c0.295-0.072,0.586-0.126,0.875-0.162s0.547-0.055,0.779-0.055c0.59,0,1.102,0.058,1.535,0.173
	c0.432,0.116,0.781,0.317,1.049,0.605c0.266,0.289,0.471,0.703,0.615,1.244c0.145,0.54,0.217,1.251,0.217,2.13v6.596h1.535v-7.201
	c0-0.995-0.111-1.816-0.336-2.466C383.482,481.393,383.158,480.87,382.732,480.474z M280.1,474.581
	c-0.785,0.648-1.18,1.729-1.18,3.243v1.86h-2.551v1.492h2.551v10.531h1.537v-10.531h4.973v-1.492h-4.973v-1.471
	c0-0.635,0.045-1.149,0.141-1.546c0.094-0.396,0.24-0.707,0.443-0.931c0.201-0.223,0.475-0.385,0.82-0.486
	c0.346-0.101,0.779-0.151,1.299-0.151h2.422v-1.492h-2.271C281.956,473.607,280.885,473.932,280.1,474.581z M398.273,487.825
	l3.057,3.057l3.057-3.057l-3.057-3.057L398.273,487.825z M343.322,482.322c0.389-0.418,0.854-0.749,1.395-0.994
	s1.135-0.368,1.783-0.368c0.736,0,1.373,0.076,1.914,0.228s1.121,0.414,1.74,0.789l0.715-1.405c-0.707-0.39-1.393-0.674-2.055-0.854
	c-0.664-0.181-1.436-0.271-2.314-0.271c-0.85,0-1.639,0.155-2.367,0.465c-0.729,0.311-1.367,0.746-1.914,1.309
	c-0.549,0.563-0.98,1.222-1.297,1.979c-0.317,0.757-0.476,1.59-0.476,2.498s0.158,1.74,0.476,2.497
	c0.316,0.757,0.748,1.413,1.297,1.969c0.547,0.555,1.186,0.987,1.914,1.297c0.729,0.311,1.518,0.465,2.367,0.465
	c0.879,0,1.65-0.09,2.314-0.27c0.662-0.181,1.348-0.466,2.055-0.854l-0.715-1.406c-0.619,0.375-1.199,0.639-1.74,0.79
	s-1.178,0.227-1.914,0.227c-0.648,0-1.242-0.119-1.783-0.356c-0.541-0.238-1.006-0.565-1.395-0.984
	c-0.391-0.418-0.693-0.915-0.908-1.492c-0.217-0.576-0.324-1.203-0.324-1.881s0.107-1.305,0.324-1.882
	C342.628,483.238,342.931,482.741,343.322,482.322z M404.387,487.825l1.949,1.95l1.951-1.95l-1.951-1.95L404.387,487.825z
	 M410.701,487.326l-0.664,0.433l0.633,0.564l241.176-0.341L410.701,487.326z M362.611,481.295c-0.549-0.569-1.193-1.02-1.936-1.352
	c-0.742-0.331-1.547-0.497-2.412-0.497c-0.863,0-1.668,0.166-2.41,0.497c-0.742,0.332-1.389,0.782-1.936,1.352
	c-0.549,0.57-0.977,1.229-1.287,1.979c-0.311,0.749-0.465,1.557-0.465,2.422s0.154,1.672,0.465,2.422s0.738,1.409,1.287,1.979
	c0.547,0.569,1.193,1.017,1.936,1.341s1.547,0.486,2.41,0.486c0.865,0,1.67-0.162,2.412-0.486s1.387-0.771,1.936-1.341
	c0.547-0.569,0.977-1.229,1.287-1.979c0.309-0.75,0.465-1.557,0.465-2.422s-0.156-1.673-0.465-2.422
	C363.587,482.524,363.158,481.865,362.611,481.295z M362.394,487.523c-0.217,0.569-0.52,1.067-0.908,1.492
	c-0.389,0.426-0.857,0.765-1.406,1.017c-0.547,0.252-1.152,0.378-1.816,0.378c-0.662,0-1.268-0.126-1.816-0.378
	c-0.547-0.252-1.016-0.591-1.404-1.017c-0.391-0.425-0.693-0.923-0.908-1.492c-0.217-0.569-0.324-1.179-0.324-1.827
	c0-0.649,0.107-1.262,0.324-1.839c0.215-0.576,0.518-1.077,0.908-1.503c0.389-0.425,0.857-0.764,1.404-1.016
	c0.549-0.252,1.154-0.379,1.816-0.379c0.664,0,1.27,0.127,1.816,0.379c0.549,0.252,1.018,0.591,1.406,1.016
	c0.389,0.426,0.691,0.927,0.908,1.503c0.217,0.577,0.324,1.189,0.324,1.839C362.718,486.345,362.611,486.954,362.394,487.523z
	 M296.221,481.295c-0.547-0.569-1.191-1.02-1.936-1.352c-0.742-0.331-1.545-0.497-2.41-0.497s-1.67,0.166-2.412,0.497
	c-0.742,0.332-1.387,0.782-1.936,1.352c-0.547,0.57-0.977,1.229-1.285,1.979c-0.311,0.749-0.465,1.557-0.465,2.422
	s0.154,1.672,0.465,2.422c0.309,0.75,0.738,1.409,1.285,1.979c0.549,0.569,1.193,1.017,1.936,1.341s1.547,0.486,2.412,0.486
	s1.668-0.162,2.41-0.486c0.744-0.324,1.389-0.771,1.936-1.341c0.549-0.569,0.977-1.229,1.287-1.979s0.465-1.557,0.465-2.422
	s-0.154-1.673-0.465-2.422C297.198,482.524,296.77,481.865,296.221,481.295z M296.006,487.523c-0.217,0.569-0.52,1.067-0.908,1.492
	c-0.391,0.426-0.859,0.765-1.406,1.017c-0.549,0.252-1.154,0.378-1.816,0.378c-0.664,0-1.27-0.126-1.816-0.378
	c-0.549-0.252-1.018-0.591-1.406-1.017c-0.389-0.425-0.691-0.923-0.908-1.492s-0.324-1.179-0.324-1.827
	c0-0.649,0.107-1.262,0.324-1.839c0.217-0.576,0.52-1.077,0.908-1.503c0.389-0.425,0.857-0.764,1.406-1.016
	c0.547-0.252,1.152-0.379,1.816-0.379c0.662,0,1.268,0.127,1.816,0.379c0.547,0.252,1.016,0.591,1.406,1.016
	c0.389,0.426,0.691,0.927,0.908,1.503c0.215,0.577,0.324,1.189,0.324,1.839C296.331,486.345,296.221,486.954,296.006,487.523z
	 M309.381,480.463c-0.455-0.39-0.996-0.656-1.623-0.801c-0.627-0.144-1.309-0.216-2.043-0.216c-0.707,0-1.465,0.047-2.271,0.141
	s-1.701,0.234-2.682,0.422v11.699h1.535v-10.402c1.184-0.23,2.293-0.346,3.33-0.346c0.592,0,1.111,0.062,1.559,0.184
	c0.445,0.123,0.818,0.332,1.113,0.628c0.295,0.295,0.525,0.713,0.691,1.254s0.25,1.251,0.25,2.13v6.553h1.535v-7.201
	c0-0.995-0.119-1.82-0.357-2.477C310.18,481.375,309.834,480.852,309.381,480.463z M318.516,490.054
	c-0.346-0.108-0.619-0.277-0.82-0.509c-0.203-0.23-0.35-0.547-0.443-0.951c-0.096-0.403-0.141-0.922-0.141-1.557v-5.86h4.973v-1.492
	h-4.973v-4.347h-1.537v4.347h-2.551v1.492h2.551v6.466c0,0.764,0.109,1.405,0.326,1.925c0.215,0.519,0.525,0.937,0.93,1.254
	c0.402,0.317,0.867,0.544,1.395,0.682c0.525,0.137,1.105,0.205,1.74,0.205h2.271v-1.492h-2.422
	C319.295,490.216,318.862,490.162,318.516,490.054z M337.784,489.589c-0.316,0-0.59,0.115-0.82,0.346s-0.346,0.505-0.346,0.822
	c0,0.316,0.115,0.591,0.346,0.821s0.504,0.346,0.82,0.346c0.318,0,0.592-0.115,0.822-0.346s0.346-0.505,0.346-0.821
	c0-0.317-0.115-0.592-0.346-0.822S338.102,489.589,337.784,489.589z M333.178,486.106c-0.346-0.303-0.785-0.565-1.318-0.789
	c-0.533-0.223-1.182-0.422-1.947-0.595l-0.799-0.173c-1.053-0.216-1.781-0.461-2.184-0.735c-0.404-0.273-0.607-0.678-0.607-1.211
	c0-0.504,0.238-0.904,0.715-1.2c0.475-0.295,1.174-0.443,2.098-0.443c0.793,0,1.477,0.076,2.055,0.228
	c0.576,0.151,1.217,0.421,1.924,0.811l0.691-1.405c-1.412-0.765-2.969-1.146-4.67-1.146c-0.635,0-1.223,0.076-1.764,0.228
	c-0.539,0.151-1.008,0.364-1.404,0.638s-0.711,0.605-0.941,0.994c-0.23,0.39-0.346,0.815-0.346,1.276
	c0,0.462,0.072,0.88,0.217,1.254c0.143,0.375,0.381,0.707,0.713,0.995s0.758,0.537,1.275,0.746c0.52,0.209,1.146,0.4,1.883,0.573
	l0.908,0.194c1.008,0.217,1.729,0.49,2.162,0.822c0.432,0.331,0.648,0.771,0.648,1.318c0,0.39-0.086,0.707-0.26,0.952
	c-0.172,0.245-0.414,0.436-0.725,0.573c-0.311,0.137-0.678,0.237-1.102,0.303c-0.426,0.064-0.877,0.097-1.352,0.097
	c-0.592,0-1.223-0.09-1.893-0.271c-0.67-0.18-1.352-0.479-2.045-0.897l-0.734,1.471c0.779,0.433,1.539,0.742,2.281,0.93
	s1.539,0.281,2.391,0.281c0.748,0,1.434-0.072,2.053-0.216c0.621-0.145,1.158-0.36,1.611-0.648c0.455-0.289,0.805-0.649,1.049-1.082
	c0.246-0.433,0.369-0.93,0.369-1.492c0-0.476-0.072-0.915-0.217-1.318C333.77,486.763,333.526,486.41,333.178,486.106z"/>
</svg>

