<?xml version="1.0" encoding="utf-8"?>
<!-- Generator: Adobe Illustrator 22.1.0, SVG Export Plug-In . SVG Version: 6.00 Build 0)  -->
<svg version="1.1" id="Layer_1" xmlns="http://www.w3.org/2000/svg" xmlns:xlink="http://www.w3.org/1999/xlink" x="0px" y="0px"
	 viewBox="0 0 800 500" style="enable-background:new 0 0 800 500;" xml:space="preserve">
<g>
	<path fill="#000000" d="M232.6,187.1h0.5c1.9,1.6,2.8,3.6,2.8,6.1v0.9c0,3.4-1.1,7.3-3.3,11.7l-0.9,9.8l-0.5,0.9h-0.5c-0.6,0-0.9-4.2-0.9-12.6
		c0-6.2,0.6-11.7,1.9-16.3L232.6,187.1z M239.2,205.3v5.1c0,2.2,1.2,4.2,3.5,6.1c2.3,1.9,3.5,3.1,3.5,3.7v0.5c0,2.2-1.1,3.3-3.3,3.3
		c-2.2,0-3.6,0.6-4.2,1.9c-0.3,1.9-0.5,4.2-0.7,7c-0.2,2.8-0.2,6.1-0.2,9.8v0.9c-0.3,0.3-0.6,0.5-0.9,0.5h-0.5
		c-0.6,0-1.1-3.4-1.4-10.3v-5.1C235,218.3,236.4,210.6,239.2,205.3z M249.9,216.5c1.9,3.4,2.8,6.8,2.8,10.3v2.3
		c-0.6,4.3-2.6,10.1-5.8,17.2c-3.3,7.1-5.2,14.3-5.8,21.4l-0.5,7.9h-0.5c-2.2-4.4-3.3-9.3-3.3-14.9c0-3.4,0.5-7,1.6-10.7
		c1.1-3.7,2.3-7.2,3.7-10.3c1.4-3.1,3.3-6.8,5.8-11.2c1.2-2.8,1.9-5.9,1.9-9.3v-0.9V216.5z M245.7,259.8c5.3,2.8,8.5,5.7,9.6,8.6
		c1.1,2.9,1.6,6.6,1.6,11c0,5-1.2,12-3.7,21c-0.6,0-0.9-0.2-0.9-0.5c0.9-5,1.4-9.2,1.4-12.6v-1.9c0-9.9-3.3-15.7-9.8-17.2
		C244.8,262.6,245.4,259.8,245.7,259.8z M260.1,228.6c1.6,2.2,2.3,3.7,2.3,4.7c0,0.6-0.8,1.2-2.3,1.9c-0.6,1.2-1.6,3.6-2.8,7
		c-1.2,3.4-3,7.9-5.1,13.5c-0.3,0.3-0.8,0.5-1.4,0.5H249c3.4-7.8,6-13.9,7.7-18.4C258.3,233.2,259.5,230.1,260.1,228.6z
		 M307.2,171.7c2.5,0,4.2,1.2,5.1,3.7l0.5,2.3c0,3.1-1.2,5.3-3.5,6.5c-2.3,1.2-3.5,2-3.5,2.3c-2.5,10.9-3.7,17.9-3.7,21
		c0,5.3,2,10,6.1,14.2c4,4.2,9.6,6.3,16.8,6.3c5.3,0,10.9-1.6,16.8-4.7v0.5c-1.2,2.8-3.3,4.9-6.3,6.3c-3,1.4-6.8,2.4-11.4,3h-1.4
		c-5.3,0-11.3-2-18.2-6.1l-2.3-1.9c-0.9,4.3-1.8,8-2.6,11c-0.8,2.9-1.6,5.6-2.6,7.9c-0.9,2.3-2.2,4.5-3.7,6.5
		c-1.6,2-3.4,4.1-5.6,6.3v0.5c0.9,1.6,4,5.4,9.3,11.4c5.3,6.1,10.9,12.5,16.8,19.3c5.9,6.8,11.3,13.2,16.1,19.1
		c4.8,5.9,7.4,9.5,7.7,10.7c0.9,4.7,1.4,7.9,1.4,9.8v0.5c0,1.6-0.8,3.8-2.3,6.8c-1.6,2.9-3.2,6.1-4.9,9.3c-1.7,3.3-3.3,6.3-4.9,9.1
		c-1.6,2.8-2.3,4.7-2.3,5.6c-0.3,0.6-0.5,2-0.5,4.2c0,0.6,0.7,3.4,2.1,8.4c1.4,5,2.1,11.7,2.1,20v1.4c0,5-0.9,9.2-2.6,12.8
		c-1.7,3.6-4,6.8-6.8,9.8c-2.8,2.9-5.8,5.8-9.1,8.6c-3.3,2.8-6.5,6.1-9.6,9.8c-4.7,5.6-8.7,10.1-12.1,13.5c-3.4,3.4-5.9,6.1-7.5,7.9
		h-0.5c-0.3,0-0.5-0.5-0.5-1.4v-0.5c0-3.1,6.7-13.7,20-31.7c5-5.9,8.7-10.3,11.2-13.3c2.5-3,4.1-5.1,4.9-6.5
		c0.8-1.4,1.2-2.3,1.2-2.8c0-0.5,0.2-1.3,0.5-2.6c0.9-2.8,1.4-5.9,1.4-9.3v-0.5c0-4.4-1.1-11.3-3.3-21l-0.5-4.7
		c0-5.9,5.4-16.6,16.3-32.2c0-1.6,0.2-2.8,0.5-3.7c0-1.2-1.2-3.4-3.7-6.5c0-0.6-2.6-4-7.7-10c-5.1-6.1-10.8-12.6-17-19.6
		c-6.2-7-11.9-13.3-17-18.9c-5.1-5.6-7.5-8.4-7.2-8.4c-2.5,0.9-5,1.4-7.5,1.4h-0.5c-3.4,0-6.6-1.2-9.6-3.5c-3-2.3-4.4-5.7-4.4-10
		c0-4.7,2.3-7.8,7-9.3l2.8-0.5c1.9,0,2.9,1.1,3.3,3.3v0.5c0,0.9-0.5,1.9-1.6,3c-1.1,1.1-1.6,2.6-1.6,4.4c0,2.5,2,3.7,6.1,3.7
		c3.7,0,7.1-1.1,10-3.3c2.9-2.2,5.4-5.9,7.5-11.2c2-5.3,3.5-12.4,4.4-21.2s1.4-20.1,1.4-33.8c0-3.1,1-6.2,3-9.3
		C301.5,173.3,304.1,171.7,307.2,171.7z M258.3,259.8c0.3,0.3,0.7,1.2,1.2,2.8c0.5,1.6,1.2,2.8,2.1,3.7h0.5c1.9,0,2.8,0.6,2.8,1.9
		l-0.9,2.3h-1.4c-2.5,0-4.2-2.5-5.1-7.5v-0.9C257.3,260.6,257.7,259.8,258.3,259.8z M271.8,272.4h0.5c2.5,0,5,1.4,7.5,4.2v1.9
		c0,0.6-0.5,1.9-1.4,4c-0.9,2-2,4.3-3.3,7c-1.2,2.6-2.3,5-3.3,7.2c-0.9,2.2-1.4,3.4-1.4,3.7v1.4c0,3.1,1.4,5.6,4.2,7.5l1.9,0.5
		c0.6,0,1.6-0.9,3-2.8c1.4-1.9,3-2.8,4.9-2.8c1.2,0,2.3,1,3.3,3c0.9,2,1.8,4.2,2.6,6.5c0.8,2.3,1.3,4.6,1.6,6.8
		c0.3,2.2,0.5,3.4,0.5,3.7v0.9c0,2.5-1,5.7-3,9.6c-2,3.9-3,7.2-3,10c0.6,5.3,2.8,9.7,6.5,13.3c3.7,3.6,6.8,6.6,9.3,9.1l12.6,11.7
		c0.6,0,1.1,3.4,1.4,10.3h-0.5c-0.6-0.3-3-1.6-7-4c-4-2.3-8.5-5.6-13.5-9.8c-5-4.2-9.4-9.1-13.3-14.7c-3.9-5.6-5.8-11.7-5.8-18.2
		v-0.5c0-4.4,1.1-8.9,3.3-13.5v-0.5c-1.9-0.3-3.9-1.6-6.1-3.7c-2.2-2.2-4.2-4.7-6.1-7.7c-1.9-3-3.4-6.1-4.7-9.3
		c-1.2-3.3-1.9-6.5-1.9-9.6c0,0.3,0.2-0.9,0.7-3.5c0.5-2.6,1.2-5.6,2.1-8.9s2.1-6.2,3.5-8.9C268.3,273.7,269.9,272.4,271.8,272.4z
		 M282.5,271.9c2.5,0,5.4,2.8,8.9,8.4l0.9,1.9c-2.5-1.9-4.5-3.2-6.1-4c-1.6-0.8-2.8-2.7-3.7-5.8V271.9z M287.2,285.9
		c1.2,0.3,1.9,1.1,1.9,2.3c0,2.5-0.9,4.2-2.8,5.1h-1.4c-0.9,0-1.6-0.6-1.9-1.9V291c0-2.2,1.1-3.7,3.3-4.7L287.2,285.9z M302.1,304.6
		c2.8,0.3,4.9,0.6,6.3,0.9c1.4,0.3,2.3,0.7,2.8,1.2c0.5,0.5,0.6,1.2,0.5,2.1c-0.2,0.9-0.2,2-0.2,3.3c0,2.5-0.2,4.5-0.5,6.1h2.3
		c5.6,0,8.4,0.5,8.4,1.6c0,1.1,0,2.9,0,5.4c-0.3,3.4-0.6,5.7-0.9,7c-0.3,1.2-0.8,2-1.4,2.3c-0.6,0.3-1.4,0.3-2.3,0
		c-0.9-0.3-1.9-0.5-2.8-0.5c-5.3,0-7.9-0.8-7.9-2.3v-11.2h-2.8c-5.3,0-7.9-0.5-7.9-1.4v-12.6C297.7,305.2,299.9,304.6,302.1,304.6z
		 M304.4,392.2l2.8,4.2l0.5,1.4c0,2.2-1.1,3.7-3.3,4.7c-1.2,0-2-0.9-2.3-2.8v-0.5c0-0.6,0.4-1.2,1.2-1.6c0.8-0.5,1.2-1.9,1.2-4.4
		V392.2z M310.9,259.8c6.8,0.6,19.3,8.5,37.3,23.8l0.9,0.9c-0.6,2.5-1.7,5-3.3,7.5c-0.9-0.6-2.6-1.9-5.1-4c-2.5-2-5.3-4.2-8.4-6.5
		c-3.1-2.3-6.1-4.4-9.1-6.3c-3-1.9-5.2-3-6.8-3.3c-1.6,0-2.5,0.6-2.8,1.9c-0.3,1.2-0.6,1.9-0.9,1.9c-1.6-0.6-3.1-1.9-4.7-4
		c-1.6-2-2.3-4.1-2.3-6.3c0-2.8,1.4-4.7,4.2-5.6H310.9z M320.3,284.1c2.2,1.9,6.4,6.1,12.6,12.6l2.8,3.3c0.9,1.9,1.4,3.1,1.4,3.7
		c-0.3,0-2.8-2.3-7.5-7c-4.4-3.4-7.5-5.1-9.3-5.1v-5.1V284.1z M338.9,361c1.6,0,2.3,0.5,2.3,1.4c0,1.6-0.5,2.3-1.4,2.1
		c-0.9-0.2-1.7,0.1-2.3,0.7v0.9c0,0.6,0.7,1.5,2.1,2.6c1.4,1.1,2.8,2.4,4.2,4c1.4,1.6,2.7,3.1,4,4.7c1.2,1.6,1.9,2.9,1.9,4.2v7.5
		c0,4-0.8,6.1-2.3,6.1c-0.6,0-0.9-0.9-0.9-2.8v-3.3c0-3.4-1.4-5.1-4.2-5.1h-0.9l-6.5,1.4c-0.6-0.6-0.9-1.1-0.9-1.4v-0.5
		c0-1.6,1.5-2.7,4.4-3.5c2.9-0.8,4.4-1.5,4.4-2.1c-2.2-1.2-4-2.5-5.6-3.7c-1.6-1.2-2.9-2.6-4-4c-1.1-1.4-1.6-2.9-1.6-4.4
		c0-2.2,1.9-3.7,5.6-4.7H338.9z M332.8,392.7c11.5,5,20.6,8.9,27.3,11.9c6.7,2.9,12.8,5.7,18.4,8.4c5.6,2.6,8.4,4.3,8.4,4.9
		c-2.5,0-6.3-0.6-11.4-1.9c-5.1-1.2-10.4-2.8-15.8-4.7c-5.4-1.9-10.6-3.9-15.6-6.1c-5-2.2-8.7-4-11.2-5.6v-6.5V392.7z M354.8,236.5
		c5,2.5,8.3,6.4,10,11.7c1.7,5.3,2.6,10.4,2.6,15.4c0,3.4-0.9,7.5-2.8,12.1c-1.9,4.7-3.8,9.7-5.8,15.1c-2,5.4-4,11.4-5.8,17.9
		c-1.9,6.5-2.8,13.4-2.8,20.5c0,6.2,0.9,13,2.6,20.5c1.7,7.5,7.2,17.1,16.5,28.9c8.1,10.6,16.4,17.4,24.9,20.5
		c8.5,3.1,17.9,4.7,28.2,4.7c2.2,0,4.9-0.3,8.2-0.9c3.3-0.6,7.1-1.9,11.4-3.7l11.2-4.7c3.4-2.2,6.4-4.2,9.1-6.1
		c2.6-1.9,5.2-4,7.7-6.5c2.5-2.5,5.3-5.4,8.4-8.9c3.1-3.4,7-7.9,11.7-13.5c9.6,3.1,14.4,5,14.4,5.6c-1.9,4-5,8.5-9.3,13.5
		c-4.4,5-9.1,9.8-14.2,14.4c-5.1,4.7-9.9,8.7-14.4,12.1c-4.5,3.4-7.7,5.4-9.6,6.1c-6.2,2.5-11.1,4.3-14.7,5.6
		c-3.6,1.2-6.5,2.1-8.9,2.6c-2.3,0.5-4.3,0.6-5.8,0.5c-1.6-0.2-3.6-0.2-6.1-0.2c-7.5,0-14.8-1.1-22.1-3.3
		c-7.3-2.2-14.2-5.8-20.7-10.7c-6.5-5-12.7-11.7-18.4-20c-5.8-8.4-10.8-18.8-15.1-31.2c-2.8-7.8-4.2-16.6-4.2-26.6
		c0-4,1.7-12.6,5.1-25.6c0.3-1.9,4.5-12.4,12.6-31.7c1.2-2.8,1.9-6.5,1.9-11.2v-0.9c0-4.4-0.6-8.5-1.9-12.6l-4.2-9.3H354.8z
		 M344,412.7c0.3,0.3,0.9,0.5,1.9,0.5h0.5c-0.9,2.5-2.3,5.4-4.2,8.9l-0.5-0.5C342.6,415.6,343.4,412.7,344,412.7z M360.3,319.5
		c0.3,0,0.5,1.5,0.5,4.4c0,2.9,0.8,4.4,2.3,4.4h0.5c0-0.3,0.3-0.6,0.9-0.9c1.2-0.6,2.5-1.4,3.7-2.3c0.3-0.3,0.8-0.5,1.4-0.5h1.4
		c1.2,0,2.3,0.7,3.3,2.1c0.9,1.4,1.7,4.3,2.3,8.6v0.9c0,1.6-0.6,3.3-1.9,5.4c-1.2,2-3.3,3-6.1,3h-0.9c-2.5,0-4.7-1.2-6.5-3.5
		c-1.9-2.3-2.8-5.7-2.8-10v-0.9C358.5,326.8,359.1,323.2,360.3,319.5z M363.1,296.6c0.9,0.6,3.6,2.7,7.9,6.3
		c4.3,3.6,9.2,7.4,14.7,11.4c5.4,4,10.9,7.7,16.3,11c5.4,3.3,9.9,4.9,13.3,4.9h1.4c5.3,0,7.9-3.9,7.9-11.7l-1.4-14.9
		c0.6-2.5,1.2-3.9,1.9-4.2l3.7,4.2c2.5,2.5,5.1,4,7.9,4.7l3.3-0.9c1.6,2.5,2.7,4.5,3.5,6.1c0.8,1.6,1.5,3,2.1,4.4
		c0.6,1.4,0.9,2.3,0.9,2.6v0.9c0,0.6-1.2,0.9-3.7,0.9c-1.6,0-3.4-0.6-5.6-1.9c-0.6,0-1,1.3-1.2,4c-0.2,2.6-0.6,5.5-1.4,8.6
		c-0.8,3.1-1.9,6-3.5,8.6c-1.6,2.6-4,4-7.5,4h-0.9c-9.6,0-30.1-12.9-61.5-38.7l-1.9-2.3c0.6-1.6,1.2-3,1.9-4.2
		C361.9,299.1,362.5,297.9,363.1,296.6z M374.8,274.3c0.3,0,0.8,0.5,1.4,1.6c0.6,1.1,0.9,2.4,0.9,4v0.5c-1.6,0.9-2.8,1.4-3.7,1.4
		h-0.5c-1.9,0-3-0.9-3.3-2.8V278c0-0.9,1.2-2.2,3.7-3.7H374.8z M381.3,346.5c2.8,0,5.1,1.6,7,4.7v0.5c-1.9-0.6-3.1-0.9-3.7-0.9h-1.4
		c-0.3,0-0.8,0.3-1.4,0.9c0.3,0.9,0.9,1.8,1.9,2.6c0.9,0.8,1.9,1.8,3,3c1.1,1.2,2.1,2.9,3,4.9c0.9,2,1.4,4.9,1.4,8.6
		c0,0.6,0,1.4,0,2.3c0,0.9-0.2,2.2-0.5,3.7h-0.5c0-1.9-0.9-4.4-2.6-7.5c-1.7-3.1-3.8-4.7-6.3-4.7c-2.8,0.6-4.2,1.9-4.2,3.7v3.7
		c-2.2-0.9-3.3-2.5-3.3-4.7v-1.4c0-2.5,1-4,3-4.7c2-0.6,3-1.9,3-3.7c0-1.2-0.6-3.3-1.9-6.1v-1.4
		C378.1,347.7,379.1,346.5,381.3,346.5z M389.7,265.9c0,4.3-1.3,9.7-4,16.1c-2.6,6.4-4,12.2-4,17.5v0.5c-0.3,0-0.6-2.2-0.9-6.5
		l-0.5-4.2c0-1.9,0.5-4.4,1.4-7.5c0.9-3.1,1.9-6.2,3-9.3c1.1-3.1,2.6-6.8,4.4-11.2L389.7,265.9z M392.5,340.5h0.9
		c3.4,3.4,5.6,6.8,6.5,10.3h-0.5c-0.9-1.9-2.4-3.3-4.4-4.4c-2-1.1-3-2.1-3-3v-1.4C392,341.2,392.2,340.8,392.5,340.5z M396.7,286.4
		c1.6,0,3.4,0.2,5.6,0.7c2.2,0.5,4.3,1.3,6.5,2.6c2.2,1.2,4,2.7,5.4,4.4c1.4,1.7,2.1,3.8,2.1,6.3v1.4c0,3.4-1.2,7.6-3.7,12.6V312
		c0-5.3-0.9-9.1-2.6-11.4c-1.7-2.3-5.7-4.3-11.9-5.8c0-0.9-0.5-3.6-1.4-7.9h-0.5L396.7,286.4z M415.3,352.6c1.9,0,4,2.6,6.5,7.9v4.7
		c0,0.9-0.3,3-0.9,6.3c-0.6,3.3-1.5,6.7-2.6,10.3c-1.1,3.6-2.4,6.7-4,9.3c-1.6,2.6-3.1,4-4.7,4l-0.5-0.5l3.3-5.1
		c3.4-8.4,5.1-13.4,5.1-14.9v-2.3c0-3.1-0.5-5.1-1.4-6.1h-0.5c-0.3,0-1.4,1.1-3.3,3.3l-3.7,6.1c-2.5,3.4-5,5.1-7.5,5.1
		c-2.5,0-3.9-1.4-4.2-4.2v-0.9c0-1.9,0.6-3.3,1.9-4.4c1.2-1.1,2.6-2.2,4.2-3.3c1.6-1.1,3.1-2.4,4.7-4c1.6-1.6,2.6-3.7,3.3-6.5
		C412.1,354.1,413.5,352.6,415.3,352.6z M401.8,305c2.8,0.6,4.2,1.6,4.2,2.8v0.5c0,1.2-1.1,2.5-3.3,3.7l-0.9,0.5
		c-1.2,0-2.3-1.2-3.3-3.7l-0.5-0.5C398.4,306.1,399.6,305,401.8,305z M412.1,256.6h1.4c2.8,0,4.8,0.2,6.1,0.5c1.2,0.3,2,0.9,2.3,1.6
		c0.3,0.8,0.4,1.6,0.2,2.3c-0.2,0.8-0.2,1.6-0.2,2.6c-0.6,6.2-1.6,9.2-2.8,9.1c-1.2-0.2-3-0.2-5.1-0.2c-5.6,0-8.4-0.6-8.4-1.9V258
		C407.7,257,409.9,256.6,412.1,256.6z M423.7,281.3l0.5,0.5l-0.5,2.3l1.4,3.7c0,1.6-0.9,2.8-2.8,3.7c-0.9,0-1.7-1.2-2.3-3.7v-0.9
		c0-2.2,1.1-3.9,3.3-5.1L423.7,281.3z M430.7,366.1c1.6,0,3.8,0.8,6.8,2.3c2.9,1.6,4.4,3.6,4.4,6.1c-0.6,0-2.5-0.8-5.6-2.3l-1.9-0.5
		c-0.9,0.6-1.4,1.2-1.4,1.9c0.3,0.9,1.1,2.1,2.3,3.5c1.2,1.4,2.6,2.9,4,4.4c1.4,1.6,2.6,3.1,3.7,4.7c1.1,1.6,1.6,2.9,1.6,4.2
		c0,0.9-0.3,1.7-0.9,2.3c-0.6,0-2.6-1.2-6.1-3.7h-1.4c-0.9,0-2,0.6-3.3,1.9c-1.2,1.2-2.6,1.9-4.2,1.9c-0.3-0.3-0.5-0.9-0.5-1.9
		c0-0.9,0.5-2.1,1.6-3.5c1.1-1.4,2.4-2.1,4-2.1l3.3-0.5c0-0.9-0.5-1.9-1.6-2.8c-1.1-0.9-2.3-1.9-3.5-2.8c-1.2-0.9-2.4-1.9-3.5-3
		c-1.1-1.1-1.6-2.4-1.6-4v-0.9C427,368.4,428.2,366.7,430.7,366.1z M440,345.6c5.3,0,8.1,0.8,8.4,2.3c0.3,1.6,0.5,3.1,0.5,4.7
		c0,5.9-0.9,8.9-2.6,8.9c-1.7,0-3.3,0-4.9,0H440c-4.7-0.3-7-0.6-7-0.9c0-0.3-0.2-1.9-0.5-4.7c0.6-6.5,1.4-9.9,2.3-10
		C435.8,345.7,437.6,345.6,440,345.6z M608.8,215.1c2.8,13.7,4.2,26.4,4.2,38.2v5.1c0,16.5-2.1,30.8-6.3,42.9
		c-4.2,12.1-11.6,24.4-22.1,36.8c-5.9,6.8-11.7,12.1-17.2,15.8s-11,6.4-16.1,8.2c-5.1,1.7-10,2.7-14.7,3c-4.7,0.3-8.9,0.5-12.6,0.5
		h-2.8c-11.2,0-21-2.2-29.4-6.5c-8.4-4.4-15.6-9.4-21.7-15.1c-6.1-5.8-10.9-11.5-14.4-17.2c-3.6-5.8-6.1-9.9-7.7-12.4
		c-4.7-7.5-8.3-15.6-11-24.5c-2.6-8.9-3.8-15.9-3.5-21.2c0-1.2,0.3-3.8,0.9-7.7c0.6-3.9,1.4-7.9,2.3-11.9c0.9-4,2-7.6,3.3-10.7
		c1.2-3.1,2.5-4.7,3.7-4.7c2.2,0.6,5,2.3,8.4,4.9c3.4,2.6,6.8,6,10,10c3.3,4,6.1,8.5,8.6,13.5c2.5,5,3.7,10.1,3.7,15.4
		c0,6.2-1.4,12.8-4.2,19.8c-2.8,7-6.8,12.5-12.1,16.5c-0.3,0-0.9-0.7-1.6-2.1c-0.8-1.4-1.6-3-2.3-4.9c-0.8-1.9-1.6-3.7-2.3-5.6
		c-0.8-1.9-1.2-3.1-1.2-3.7c6.8-5.9,10.3-13,10.3-21.4c0-8.7-3.4-17.1-10.3-25.2l-0.5-0.5c-1.2,4-2.4,9.1-3.5,15.1
		c-1.1,6.1-1.6,11.1-1.6,15.1v2.3c0,9.3,1.9,17.6,5.6,24.9c3.7,7.3,8,13.6,12.8,18.9c4.8,5.3,9.6,9.5,14.2,12.6
		c4.7,3.1,7.9,5.1,9.8,6.1c5,2.2,9.6,3.6,13.7,4.4c4.2,0.8,8.2,1.2,11.9,1.2h1.9c6.5,0,13.1-0.8,19.8-2.3c6.7-1.6,13-4,18.9-7.2
		c5.9-3.3,11.2-7.2,15.8-11.7c4.7-4.5,7.9-9.9,9.8-16.1c13.4-21.1,20-41.8,20-62c0-1.2-0.1-3.3-0.2-6.1c-0.2-2.8-0.4-6.4-0.7-10.7
		l8.9-15.8L608.8,215.1z M455.4,352.1c2.5,0,5.4,1.1,8.9,3.3c3.4,2.2,5.1,5.3,5.1,9.3v0.5c0,5-2.6,10.6-7.9,16.8H461
		c2.5-4.4,3.7-8.9,3.7-13.5c0-1.6-0.5-2.7-1.6-3.5c-1.1-0.8-2.2-1.6-3.3-2.3c-1.1-0.8-2.2-1.6-3.3-2.3c-1.1-0.8-1.6-1.9-1.6-3.5V354
		C455,352.7,455.1,352.1,455.4,352.1z M484.3,212.3c3.7,0.6,5.6,2.5,5.6,5.6c0,1.6-0.5,2.5-1.4,2.8l-1.9,0.5c-0.3,0-1.1-0.5-2.3-1.4
		c-1.2,0-1.9,0.5-1.9,1.4c0,0.6,0.3,2.1,0.9,4.4c0.6,2.3,1.5,4.7,2.6,7.2c1.1,2.5,2.3,4.7,3.7,6.5c1.4,1.9,2.9,2.8,4.4,2.8l3.3-0.5
		c3.4,0,6.4,1.2,8.9,3.7v1.9c0,0.3-0.9,1.6-2.6,4c-1.7,2.3-3.5,5.2-5.4,8.6c0,5,3.4,9,10.3,12.1l1.9,1.4c0,5.3-0.2,7.9-0.5,7.9
		c-7.8-3.4-12.5-6.7-14.2-9.8c-1.7-3.1-2.6-6.5-2.6-10.3v-1.9c0-0.3-0.5-1.3-1.4-3c-0.9-1.7-1.9-3.5-2.8-5.4
		c-0.9-1.9-1.7-3.6-2.3-5.1c-0.6-1.6-0.6-2.3,0-2.3c-0.6-0.9-2.7-2.5-6.3-4.7c-3.6-2.2-6.3-3.3-8.2-3.3h-0.9c-1.6,0-3.4,0.5-5.6,1.4
		c-0.6-0.6-1.9-1.5-3.7-2.6c-1.9-1.1-2.8-2.4-2.8-4V230c1.2-1.2,3.4-1.9,6.5-1.9c4,0,9.2,1.6,15.4,4.7c-1.9-6.8-2.8-11.2-2.8-13.1
		v-0.5c0-2.8,0.6-4.7,1.9-5.6C481.4,212.7,482.8,212.3,484.3,212.3z M488,401c-1.6,2.2-3.7,4.1-6.5,5.8c-2.8,1.7-6.4,2.9-10.7,3.5
		c4.7-5.6,8-8.5,10-8.9C482.8,401.2,485.3,401,488,401z M476.4,355.4c0,1.2,0.9,1.9,2.8,1.9s2.8,0.6,2.8,1.9c-0.6,2.5-2,3.7-4.2,3.7
		c-2.5,0-3.7-1.1-3.7-3.3C474.4,356.8,475.2,355.4,476.4,355.4z M474.5,252.8c1.2,0.3,2.4,1.2,3.5,2.8c1.1,1.6,2,3.3,2.8,5.4
		c0.8,2,1.4,4,1.9,5.8c0.5,1.9,0.7,3.4,0.7,4.7c-0.3,0.3-0.6,0.5-0.9,0.5c-0.3,0-1.1-1.8-2.3-5.4c-1.2-3.6-3.1-6.6-5.6-9.1v-4.2
		V252.8z M482.5,323.2c2.2,0,3.4,1.6,3.7,4.7c0,1.6-1.1,2.5-3.3,2.8H482c-0.6,0-1.6-1.4-2.8-4.2V326c0-1.2,0.9-2.2,2.8-2.8H482.5z
		 M481.5,291l0.5-0.9c0,0.6,0.1,1.6,0.2,3c0.2,1.4,0.4,3.5,0.7,6.3c1.6,3.4,2.8,5.7,3.7,7c0.9,1.2,3.3,1.9,7,1.9h1.9
		c2.2,0,3.4,1,3.7,3c0.3,2,0.5,3.3,0.5,4v0.5c0,1.2-1.7,1.9-5.1,1.9c-3.4,0-6.5-1.5-9.3-4.4c-2.8-3-4.2-7.5-4.2-13.7L481.5,291z
		 M495.5,287.3c1.9,0.6,2.8,2.2,2.8,4.7c0,1.9-0.9,2.8-2.8,2.8H495c-0.9,0-1.9-1.1-2.8-3.3v-1.4
		C492.6,288.3,493.6,287.3,495.5,287.3z M496.4,390.8h0.9c0.9,0,1.6,1.1,1.9,3.3v0.5c0,1.9-1.4,3-4.2,3.3c-0.3-0.3-0.5-0.6-0.5-0.9
		c0.3-3.7,0.8-5.6,1.4-5.6L496.4,390.8z M524.4,122.8c0.6,0.6,1.2,1.8,1.6,3.5c0.5,1.7,0.7,3.2,0.7,4.4v2.8c0,8.7-5.3,23-15.8,42.9
		c-7.2,13.7-10.7,23.5-10.7,29.4l0.5,1.4l-0.5,0.5c-1.2,0-2.1-1.7-2.6-5.1c-0.5-3.4-0.7-5.9-0.7-7.5v-1.4c0-3.1,0.9-6.8,2.6-11
		c1.7-4.2,3.6-8.4,5.8-12.6c2.2-4.2,4.3-8.2,6.5-12.1c2.2-3.9,3.9-7.1,5.1-9.6c1.6-3.4,2.8-6.8,3.7-10.3c0.9-3.4,2-6.7,3.3-9.8
		L524.4,122.8z M500.6,218.8c2.8,0,4.7,1.9,5.6,5.6v2.8c-0.6-0.6-1.3-1.5-2.1-2.6c-0.8-1.1-1.8-1.6-3-1.6l-3.3,0.5
		c-0.6-0.6-0.9-1.4-0.9-2.3v-0.9C497.8,219.3,499.1,218.8,500.6,218.8z M548.2,152.6c0.9,0,1.8,0.8,2.6,2.3c0.8,1.6,1.5,3.2,2.1,4.9
		c0.6,1.7,1.1,3.2,1.4,4.4c0.3,1.2,0.5,1.6,0.5,0.9v0.5c-1.6-1.2-3.1-1.9-4.7-1.9c-8.1,0-14.4,4.4-19.1,13.3
		c-4.7,8.9-6.8,19.3-6.5,31.5l0.5,40.5c0.3,21.7-0.6,40.1-2.8,55c-2.2,14.9-5.6,28.7-10.3,41.5l-0.5,0.5c-2.8,0-7.5-0.5-14-1.4v-0.5
		c2.8-4,6.2-13.3,10.3-27.7c4-14.4,6.1-34.7,6.1-60.8l-0.9-30.3c0-9.3,0.5-18.4,1.6-27.3c1.1-8.9,3-16.6,5.8-23.3
		c2.8-6.7,6.4-12,11-16.1C535.7,154.6,541.3,152.6,548.2,152.6z M502,20.7c4.7,3.7,8.9,6.6,12.8,8.6c3.9,2,7.3,4.1,10.3,6.3
		c2.9,2.2,5.3,4.5,7,7c1.7,2.5,2.6,6.1,2.6,10.7l-0.9,4.2h-0.5c-0.9-2.5-1.7-4.4-2.3-5.8c-0.6-1.4-1.2-2.7-1.9-4
		c-0.6-1.2-1.4-1.9-2.3-1.9c-2.2,0-3,0.9-2.6,2.8c0.5,1.9-0.1,3.1-1.6,3.7c-0.9-1.2-1.4-2.5-1.4-3.7v-0.9c0-1.2,0.9-3.3,2.8-6.1
		v-0.9c0-0.6-0.8-2.1-2.3-4.4c-1.6-2.3-3.9-3.5-7-3.5c-2.5,0-3.6,0.9-3.3,2.6c0.3,1.7,0.2,2.6-0.5,2.6h-0.5c-0.9,0-1.7-1.7-2.3-5.1
		l-4.7-5.1c-0.9-1.2-1.4-3.1-1.4-5.6v-0.5V20.7z M506.7,367.5c1.6,0.6,3.7,2.2,6.5,4.7c2.8,2.5,4.2,6.4,4.2,11.7v0.9
		c0,4.7-1.4,7.6-4.2,8.9v-1.4c0-8.7-3.7-14-11.2-15.8C502,375.7,503.6,372.8,506.7,367.5z M504.8,392.2h0.5c1.2,0.3,1.9,0.9,1.9,1.9
		c-0.3,0.3-0.9,0.5-1.9,0.5h-0.5c-0.6,0-0.9-0.2-0.9-0.5v-0.9L504.8,392.2z M517.9,51c1.6,0.9,2.3,2.3,2.3,4.2v0.5
		c0,1.6-0.6,2.3-1.9,2.3c-0.6,0-0.9-0.3-0.9-0.9v-0.5L517.9,51z M523.5,60.8h0.5c1.6,0,2.6,0.8,3.3,2.3v0.5c0,1.6-1.1,2.5-3.3,2.8
		c-1.6,0-2.5-1.4-2.8-4.2C521.1,61.9,521.9,61.4,523.5,60.8z M524.4,382.4c0.6,0.6,0.9,1.2,0.9,1.9c0,0.6-0.5,0.9-1.4,0.9h-0.5
		c-0.9,0-1.4-0.2-1.4-0.5c0-0.6,0.6-1.4,1.9-2.3H524.4z M523.9,74.3c0.3,0,0.8,0.8,1.4,2.3v0.5c0,0.6-0.5,0.9-1.4,0.9
		c-0.3,0-0.8-0.3-1.4-0.9C522.5,75.3,523,74.3,523.9,74.3z M539.8,45c3.1,2.2,4.7,5.9,4.7,11.2c0,1.9-0.9,5.1-2.8,9.6
		c-1.9,4.5-3.9,9.3-6.1,14.4c-2.2,5.1-4.2,10-6.1,14.7s-2.8,8.1-2.8,10.3l-0.5,0.9c-1.2-2.2-1.9-5-1.9-8.4c0-2.5,0.8-5.8,2.3-10
		c1.6-4.2,3.3-8.4,5.1-12.6c1.9-4.2,3.6-7.9,5.1-11.2c1.6-3.3,2.3-5.4,2.3-6.3c0.6-2.5,0.9-4.5,0.9-6.1v-0.9
		C540.3,48.1,540.1,46.2,539.8,45z M527.2,372.1c1.9,0.3,3.1,1.2,3.7,2.8l0.5,0.5c0,0.6-0.5,1.6-1.4,2.8l-2.8,0.5
		c-1.2,0-2-0.5-2.3-1.4C525.5,373.8,526.3,372.1,527.2,372.1z M530.9,324.6c1.9,0.6,2.8,1.6,2.8,2.8c-0.9,2.5-2,3.7-3.3,3.7H530
		l-2.8-0.9l-0.9,3.3c-0.6-1.9-0.9-3-0.9-3.3c0-2.5,1.4-4.2,4.2-5.1L530.9,324.6z M526.7,281.7h0.5c10.9,9.9,16.3,23.5,16.3,40.5v0.9
		c-0.3-1.6-1-4-2.1-7.2c-1.1-3.3-2.4-6.6-4-10c-1.6-3.4-3.3-6.5-5.1-9.3c-1.9-2.8-3.7-4.5-5.6-5.1V281.7z M532.8,273.8
		c1.2,0,2.5,1.1,3.7,3.3l0.5,0.9c0,1.2-0.8,2.2-2.3,2.8c-1.2,0-2-2.3-2.3-7H532.8z M551,98.6c2.8,1.2,5,2.4,6.5,3.5
		c1.6,1.1,2.9,2.3,4,3.7c1.1,1.4,1.6,2.9,1.6,4.4l-0.9,12.1c0,1.6,0.5,3.7,1.6,6.3c1.1,2.6,2.9,6.4,5.6,11.2
		c2.6,4.8,6.3,11.2,11,19.1c4.7,7.9,10.7,17.8,18.2,29.6v3.3c0,4.4-2,10.7-6.1,19.1c-9.6-19.6-17.5-35-23.5-46.1
		c-6.1-11.2-10.9-19.6-14.4-25.2c-3.6-5.6-6.3-9.1-8.2-10.5c-1.9-1.4-3.3-2.3-4.2-2.6c-0.9-0.3-1.7-0.8-2.3-1.4
		c-0.6-0.6-1.6-2.8-2.8-6.5c-1.6-2.2-2.5-5.4-2.8-9.8l-0.5-1.4c2.8,1.2,5.1,1.9,7,1.9s3.3-0.5,4.2-1.6c0.9-1.1,1.8-2.3,2.6-3.7
		c0.8-1.4,1.4-2.6,1.9-3.7C549.8,99.1,550.3,98.6,551,98.6z M536.1,197.4h0.5c1.2,0,2.5,1.1,3.7,3.3l0.5,1.9c0,0.6-0.2,1.1-0.5,1.4
		h-0.5c-0.3-0.3-0.8-0.5-1.4-0.5h-2.8h-0.5c-0.6,0-1.1-0.9-1.4-2.8C534,198.5,534.8,197.4,536.1,197.4z M537.5,138.6
		c1.6,0.6,2.3,1.6,2.3,2.8v0.5c0,1.6-0.9,2.5-2.8,2.8c-1.2,0-2.2-0.8-2.8-2.3v-0.5c0-1.6,0.9-2.6,2.8-3.3H537.5z M547.2,368.9h1.4
		c-0.3,0.3-1.2,0.9-2.6,1.9c-1.4,0.9-2.8,1.9-4.2,2.8c-1.4,0.9-2.7,1.7-4,2.3c-1.2,0.6-2,0.9-2.3,0.9h-0.5
		C538.9,371.5,542.9,368.9,547.2,368.9z M558.4,176.4c0.3,1.2,0.8,2.5,1.4,3.7c0.3,1.2,0.6,2.5,0.9,3.7c0.3,1.2,0.5,2.2,0.5,2.8v0.9
		c0,1.9-1.2,6.4-3.7,13.5c-2.5,7.2-5.2,15-8.2,23.5c-3,8.5-5.7,16.7-8.2,24.5c-2.5,7.8-3.7,13.2-3.7,16.3c-1.2-2.5-1.9-5.6-1.9-9.3
		c0-3.1,1.2-8.4,3.7-15.8c2.5-7.5,5.1-15.3,7.9-23.5c2.8-8.2,5.4-15.9,7.9-23.1c2.5-7.1,3.7-12,3.7-14.4L558.4,176.4z M540.7,79.9
		c0.3,2.2,0.8,3.7,1.4,4.4c0.6,0.8,1.2,1.2,1.9,1.4c0.6,0.2,1.2,0.3,1.9,0.5c0.6,0.2,0.9,0.7,0.9,1.6v0.9c0,1.9-1.1,3-3.3,3.3
		c-2.5,0-3.9-1.6-4.2-4.7v-1.9C539.3,83.3,539.8,81.5,540.7,79.9z M544,289.2c1.2,1.6,2.4,2.8,3.5,3.7c1.1,0.9,2.3,2,3.5,3.3h-0.5
		c-0.3,0-0.6,0.1-0.9,0.2c-0.3,0.2-0.6,0.2-0.9,0.2h-0.9c-1.6,0-2.8-1.4-3.7-4.2v-2.3V289.2z M554.2,49.6c1.2,1.2,1.9,3.1,1.9,5.6
		c0,2.5-1.1,6.1-3.3,10.7l-2.3,7.9c-1.6,1.6-2.8,2.3-3.7,2.3c-0.6,0-0.9-0.8-0.9-2.3c0-0.9,0.4-2.3,1.2-4c0.8-1.7,1.6-3.6,2.6-5.8
		c0.9-2.2,1.8-4.4,2.6-6.8c0.8-2.3,1.2-4.3,1.2-5.8v-1.4L554.2,49.6z M569.6,255.6c4,0,6.4,4.7,7,14v2.8c0,14.6-4.5,26.1-13.5,34.5
		v0.5c2.5-5.9,4.3-10.3,5.4-13.3c1.1-3,1.9-5.2,2.3-6.8c0.5-1.6,0.6-2.9,0.5-4c-0.2-1.1-0.2-2.6-0.2-4.4v-0.5
		c-0.6-4.4-1.7-6.5-3.3-6.5l-5.6,5.6c-1.6,1.6-3.1,2.9-4.7,4.2c-1.6,1.2-3,2-4.2,2.3l-2.3-11.7l2.3-0.9c3.1-1.9,6-5,8.6-9.3
		C564.6,257.8,567.1,255.6,569.6,255.6z M551.4,245.8l2.8-9.3c1.2,5.6,2.1,8.9,2.6,10c0.5,1.1,0.7,1.8,0.7,2.1v0.5
		c-0.6,1.6-1.2,2.3-1.9,2.3c-1.6,0-2.8-1.2-3.7-3.7l-0.5-1.4V245.8z M556.6,150.8c0.9,0,2.3,1.1,4.2,3.3c1.9,2.2,2.8,5.1,2.8,8.9
		l-0.5,2.3l-2.8-5.6c-1.2-2.8-3.1-5.7-5.6-8.9H556.6z M558.9,67.8c5,2.5,9.2,4.8,12.6,7l0.9,1.9c-1.6,2.5-2.3,4.2-2.3,5.1v0.5
		c0,1.6,0.6,3,1.9,4.2c1.2,1.2,3.1,2.8,5.6,4.7c2.5,1.9,5.6,4.3,9.3,7.2c3.7,3,8.1,6.9,13.1,11.9c5,6.2,8.7,11.4,11.2,15.6
		c2.5,4.2,4.2,8,5.1,11.4c0.9,3.4,1.4,6.6,1.4,9.6c0,3,0,6.1,0,9.6v0.5c0,5.6-0.5,12-1.4,19.3c-0.9,7.3-2.6,14.8-4.9,22.6
		c-2.3,7.8-5.5,15.5-9.6,23.3c-4,7.8-9.2,14.9-15.4,21.4v-0.9c0-2.8,0.9-6.8,2.6-12.1c1.7-5.3,3.6-10.9,5.8-16.8
		c2.2-5.9,4.1-11.5,5.8-16.8c1.7-5.3,2.6-9.5,2.6-12.6c0.9-9.3,1.4-16.9,1.4-22.8c0-9-0.5-15.5-1.6-19.6c-1.1-4-2.4-7.8-4-11.2
		c-0.3-1.9-4.8-7.8-13.5-17.7l-10.3-10.3c-5.3-5.3-9.9-10.5-13.7-15.6c-3.9-5.1-5.8-9.6-5.8-13.3S556.7,68.1,558.9,67.8z
		 M559.4,221.1c1.6,0.9,2.3,1.7,2.3,2.3v0.9c-0.6,0.9-1.2,1.4-1.9,1.4c-1.2-0.3-1.9-1.1-1.9-2.3C558,222.8,558.4,222.1,559.4,221.1z
		 M563.1,229.5h0.9c2.2,0,4.3,0.9,6.5,2.6c2.2,1.7,4.2,3.8,6.1,6.3c1.9,2.5,3.4,5.3,4.7,8.4c1.2,3.1,1.9,6.1,1.9,8.9v0.5
		c0-3.1-0.7-5.9-2.1-8.4c-1.4-2.5-3.1-4.5-5.1-6.1c-2-1.6-4-2.8-5.8-3.7c-1.9-0.9-3.3-1.4-4.2-1.4l-3.3,0.5c-0.9,0-2-1.9-3.3-5.6
		C560.6,230.1,561.8,229.5,563.1,229.5z M565.4,316.2c0.9,0,1.4,1.4,1.4,4.2c0,2.2-0.6,3.3-1.9,3.3H564c-1.9,0-3.4-1.4-4.7-4.2V319
		c0.3,0,1.1-0.5,2.3-1.4C562.9,316.7,564.2,316.2,565.4,316.2z M573.3,222.5h0.9c0.3,0,0.6,0.2,0.9,0.5v0.5c0,1.2-0.9,2-2.8,2.3
		c-0.9,0-1.4-0.2-1.4-0.5v-0.5C571.6,223.3,572.4,222.5,573.3,222.5z M572.4,124.7h0.5c1.2,3.7,2.6,6.5,4.2,8.2
		c1.6,1.7,5.9,2.9,13,3.5c1.2,0.9,1.9,2.2,1.9,3.7v1.4c0,2.5-1.6,3.7-4.7,3.7h-0.9c-2.5,0-5.4-1.7-8.9-5.1
		c-3.4-3.4-5.1-8.4-5.1-14.9V124.7z M578.9,114.4c0.9,0,1.9,1.1,2.8,3.3v2.8h-0.5c-1.6-1.6-3.3-2.3-5.1-2.3l-1.4,0.5
		c0-1.6,1.1-2.8,3.3-3.7L578.9,114.4z M576.6,207.2c0.9,0,1.7,1.9,2.3,5.6c0,1.9-0.5,2.8-1.4,2.8c-1.9,0-2.8-1.4-2.8-4.2v-0.5
		l0.9-3.7H576.6z M583.1,271.9c0.3,0.9,0.8,1.4,1.4,1.4l3.3-0.5c0.3,0.3,0.5,1.1,0.5,2.3c-0.6,1.6-1.6,2.3-2.8,2.3
		c-2.2,0-3.3-1.2-3.3-3.7v-0.5C582.2,272.4,582.5,271.9,583.1,271.9z M587.3,81.3c1.6,0,2.5,1.6,2.8,4.7c0,2.2-1.1,3.4-3.3,3.7h-0.9
		c-2.2-0.3-3.3-1.7-3.3-4.2c0-2.2,1.2-3.6,3.7-4.2H587.3z M585.5,217.9c1.2,0.3,1.9,1.1,1.9,2.3c0,1.9-0.9,3-2.8,3.3h-0.5
		c-0.6,0-0.9-0.6-0.9-1.9v-0.5C583.1,219,583.9,217.9,585.5,217.9z M591.1,257.5c0.3,0,0.6,0.2,0.9,0.5v1.4c0,0.6-0.8,1.2-2.3,1.9
		c-0.9,0-1.4-0.2-1.4-0.5C588.3,259.2,589.2,258.1,591.1,257.5z M594.3,157.3h0.5c0.3,0.3,0.5,1.1,0.5,2.3v0.5
		c0,1.9-0.8,2.8-2.3,2.8h-1.4c2.2-1.9,3.3-3.6,3.3-5.1L594.3,157.3z M616.2,218.8h0.5c0.6,0,0.9,0.2,0.9,0.5v0.5
		c0,1.6-0.8,2.6-2.3,3.3c-0.9-0.3-1.4-0.8-1.4-1.4v-0.5C613.9,220.2,614.7,219.4,616.2,218.8z M619.5,230.9c0.6,0.6,0.9,1.4,0.9,2.3
		c-0.3,2.2-1.2,3.3-2.8,3.3h-0.9c1.9-2.2,2.8-3.9,2.8-5.1V230.9z M622.3,194.6h0.5c0.6,0,1.4,1.1,2.3,3.3v1.4
		c-0.6,2.8-1.7,4.2-3.3,4.2c-1.6,0-3-0.9-4.2-2.8v-1.4c0-0.6,0.4-1.6,1.2-2.8C619.6,195.2,620.7,194.6,622.3,194.6z M623.7,210
		c0.9,0.9,1.4,1.7,1.4,2.3v0.5c0,0.3-0.5,0.5-1.4,0.5l-0.5-0.5c-0.3,0-0.8-0.3-1.4-0.9C621.8,210.6,622.4,210,623.7,210z"/>
</g>
<path fill="#000000" d="M273.602,481.306c-0.578-0.576-1.301-1.03-2.174-1.362c-0.873-0.331-1.885-0.497-3.039-0.497
	c-0.663,0-1.463,0.079-2.4,0.238v-6.077h-1.535v17.711c0.706,0.202,1.402,0.354,2.087,0.454s1.301,0.151,1.849,0.151
	c1.153,0,2.166-0.162,3.039-0.486s1.596-0.764,2.174-1.319c0.576-0.555,1.006-1.211,1.287-1.968s0.42-1.561,0.42-2.411
	s-0.139-1.657-0.42-2.422C274.608,482.554,274.178,481.883,273.602,481.306z M272.391,489.167c-0.852,0.829-2.17,1.243-3.958,1.243
	c-0.39,0-0.805-0.032-1.244-0.097c-0.439-0.065-0.84-0.134-1.2-0.206v-8.845c0.447-0.115,0.887-0.194,1.319-0.237
	c0.433-0.044,0.808-0.065,1.125-0.065c0.894,0,1.668,0.112,2.325,0.335c0.656,0.224,1.199,0.545,1.633,0.963
	c0.432,0.418,0.752,0.919,0.961,1.503s0.314,1.243,0.314,1.979C273.667,487.195,273.241,488.338,272.391,489.167z M247.392,479.446
	c-0.62,0-1.297,0.079-2.033,0.238c-0.735,0.158-1.485,0.433-2.249,0.821l-0.065,1.73c0.548-0.303,0.973-0.52,1.276-0.649
	s0.624-0.237,0.962-0.324c0.338-0.086,0.677-0.158,1.016-0.216s0.667-0.087,0.984-0.087c1.139,0,1.982,0.249,2.53,0.746
	s0.822,1.33,0.822,2.498v0.13c-0.332-0.044-0.732-0.087-1.2-0.13c-0.469-0.043-0.876-0.065-1.222-0.065
	c-1.831,0-3.302,0.311-4.412,0.931c-1.11,0.619-1.665,1.644-1.665,3.07c0,0.707,0.155,1.305,0.465,1.795
	c0.31,0.49,0.713,0.88,1.211,1.168s1.067,0.497,1.708,0.627c0.641,0.13,1.308,0.194,2,0.194c0.807,0,1.6-0.072,2.378-0.216
	c0.779-0.145,1.536-0.368,2.271-0.671v-7.028c0-1.585-0.397-2.742-1.189-3.471C250.189,479.811,248.992,479.446,247.392,479.446z
	 M250.636,489.892c-0.375,0.144-0.858,0.267-1.449,0.367c-0.591,0.102-1.183,0.151-1.773,0.151c-0.505,0-0.984-0.035-1.438-0.108
	c-0.454-0.071-0.84-0.197-1.157-0.378c-0.317-0.18-0.57-0.414-0.757-0.703c-0.188-0.288-0.281-0.663-0.281-1.124
	c0-0.52,0.111-0.934,0.335-1.244c0.224-0.31,0.533-0.551,0.93-0.724c0.396-0.174,0.85-0.296,1.362-0.368
	c0.511-0.072,1.041-0.108,1.589-0.108c0.476,0,0.984,0.029,1.524,0.087c0.541,0.058,0.912,0.108,1.114,0.151V489.892z
	 M258.032,479.868c-0.649,0.122-1.276,0.263-1.881,0.422v11.418h1.535v-10.186c0.202-0.072,0.563-0.147,1.082-0.228
	c0.519-0.079,1.002-0.118,1.449-0.118h1.989v-1.492H260C259.336,479.685,258.681,479.746,258.032,479.868z M-77.92,487.667
	l241.145,0.656l0.663-0.433l-0.632-0.564L-77.92,487.667z M164.994,487.825l1.95,1.95l1.95-1.95l-1.95-1.95L164.994,487.825z
	 M169.559,487.825l3.057,3.057l3.057-3.057l-3.057-3.057L169.559,487.825z M212.359,489.286l-3.395-9.602h-1.514l-3.396,9.602
	l-2.984-9.602h-1.73l3.979,12.023h1.428l3.46-9.645l3.46,9.645h1.427l3.979-12.023h-1.73L212.359,489.286z M238.418,489.589
	c-0.317,0-0.591,0.115-0.822,0.346c-0.231,0.23-0.346,0.505-0.346,0.822c0,0.316,0.115,0.591,0.346,0.821
	c0.23,0.23,0.504,0.346,0.822,0.346c0.317,0,0.591-0.115,0.822-0.346c0.23-0.23,0.346-0.505,0.346-0.821
	c0-0.317-0.116-0.592-0.346-0.822C239.009,489.704,238.735,489.589,238.418,489.589z M193.243,489.286l-3.395-9.602h-1.514
	l-3.396,9.602l-2.984-9.602h-1.73l3.979,12.023h1.428l3.46-9.645l3.46,9.645h1.427l3.979-12.023h-1.73L193.243,489.286z
	 M231.476,489.286l-3.395-9.602h-1.514l-3.396,9.602l-2.984-9.602h-1.73l3.979,12.023h1.428l3.46-9.645l3.46,9.645h1.427
	l3.979-12.023h-1.73L231.476,489.286z M382.732,480.474c-0.426-0.396-0.938-0.667-1.535-0.812c-0.598-0.144-1.271-0.216-2.021-0.216
	c-0.664,0-1.393,0.09-2.184,0.271c-0.793,0.181-1.471,0.4-2.033,0.659c-0.346-0.331-0.818-0.569-1.416-0.714
	c-0.6-0.144-1.273-0.216-2.023-0.216c-0.635,0-1.268,0.058-1.902,0.173l-2.465,0.454v11.635h1.535v-10.38
	c0.447-0.102,0.883-0.188,1.309-0.26c0.424-0.072,0.896-0.108,1.416-0.108c0.605,0,1.125,0.058,1.557,0.173
	c0.434,0.116,0.789,0.321,1.07,0.616c0.281,0.296,0.494,0.711,0.639,1.244s0.217,1.24,0.217,2.119v6.596h1.535v-7.201
	c0-0.663-0.055-1.243-0.162-1.741c-0.109-0.497-0.213-0.861-0.314-1.092c0.086-0.043,0.281-0.119,0.584-0.228
	c0.303-0.107,0.602-0.197,0.898-0.27c0.295-0.072,0.586-0.126,0.875-0.162s0.547-0.055,0.779-0.055c0.59,0,1.102,0.058,1.535,0.173
	c0.432,0.116,0.781,0.317,1.049,0.605c0.266,0.289,0.471,0.703,0.615,1.244c0.145,0.54,0.217,1.251,0.217,2.13v6.596h1.535v-7.201
	c0-0.995-0.111-1.816-0.336-2.466C383.482,481.393,383.158,480.87,382.732,480.474z M280.1,474.581
	c-0.785,0.648-1.18,1.729-1.18,3.243v1.86h-2.551v1.492h2.551v10.531h1.537v-10.531h4.973v-1.492h-4.973v-1.471
	c0-0.635,0.045-1.149,0.141-1.546c0.094-0.396,0.24-0.707,0.443-0.931c0.201-0.223,0.475-0.385,0.82-0.486
	c0.346-0.101,0.779-0.151,1.299-0.151h2.422v-1.492h-2.271C281.956,473.607,280.885,473.932,280.1,474.581z M398.273,487.825
	l3.057,3.057l3.057-3.057l-3.057-3.057L398.273,487.825z M343.322,482.322c0.389-0.418,0.854-0.749,1.395-0.994
	s1.135-0.368,1.783-0.368c0.736,0,1.373,0.076,1.914,0.228s1.121,0.414,1.74,0.789l0.715-1.405c-0.707-0.39-1.393-0.674-2.055-0.854
	c-0.664-0.181-1.436-0.271-2.314-0.271c-0.85,0-1.639,0.155-2.367,0.465c-0.729,0.311-1.367,0.746-1.914,1.309
	c-0.549,0.563-0.98,1.222-1.297,1.979c-0.317,0.757-0.476,1.59-0.476,2.498s0.158,1.74,0.476,2.497
	c0.316,0.757,0.748,1.413,1.297,1.969c0.547,0.555,1.186,0.987,1.914,1.297c0.729,0.311,1.518,0.465,2.367,0.465
	c0.879,0,1.65-0.09,2.314-0.27c0.662-0.181,1.348-0.466,2.055-0.854l-0.715-1.406c-0.619,0.375-1.199,0.639-1.74,0.79
	s-1.178,0.227-1.914,0.227c-0.648,0-1.242-0.119-1.783-0.356c-0.541-0.238-1.006-0.565-1.395-0.984
	c-0.391-0.418-0.693-0.915-0.908-1.492c-0.217-0.576-0.324-1.203-0.324-1.881s0.107-1.305,0.324-1.882
	C342.628,483.238,342.931,482.741,343.322,482.322z M404.387,487.825l1.949,1.95l1.951-1.95l-1.951-1.95L404.387,487.825z
	 M410.701,487.326l-0.664,0.433l0.633,0.564l241.176-0.341L410.701,487.326z M362.611,481.295c-0.549-0.569-1.193-1.02-1.936-1.352
	c-0.742-0.331-1.547-0.497-2.412-0.497c-0.863,0-1.668,0.166-2.41,0.497c-0.742,0.332-1.389,0.782-1.936,1.352
	c-0.549,0.57-0.977,1.229-1.287,1.979c-0.311,0.749-0.465,1.557-0.465,2.422s0.154,1.672,0.465,2.422s0.738,1.409,1.287,1.979
	c0.547,0.569,1.193,1.017,1.936,1.341s1.547,0.486,2.41,0.486c0.865,0,1.67-0.162,2.412-0.486s1.387-0.771,1.936-1.341
	c0.547-0.569,0.977-1.229,1.287-1.979c0.309-0.75,0.465-1.557,0.465-2.422s-0.156-1.673-0.465-2.422
	C363.587,482.524,363.158,481.865,362.611,481.295z M362.394,487.523c-0.217,0.569-0.52,1.067-0.908,1.492
	c-0.389,0.426-0.857,0.765-1.406,1.017c-0.547,0.252-1.152,0.378-1.816,0.378c-0.662,0-1.268-0.126-1.816-0.378
	c-0.547-0.252-1.016-0.591-1.404-1.017c-0.391-0.425-0.693-0.923-0.908-1.492c-0.217-0.569-0.324-1.179-0.324-1.827
	c0-0.649,0.107-1.262,0.324-1.839c0.215-0.576,0.518-1.077,0.908-1.503c0.389-0.425,0.857-0.764,1.404-1.016
	c0.549-0.252,1.154-0.379,1.816-0.379c0.664,0,1.27,0.127,1.816,0.379c0.549,0.252,1.018,0.591,1.406,1.016
	c0.389,0.426,0.691,0.927,0.908,1.503c0.217,0.577,0.324,1.189,0.324,1.839C362.718,486.345,362.611,486.954,362.394,487.523z
	 M296.221,481.295c-0.547-0.569-1.191-1.02-1.936-1.352c-0.742-0.331-1.545-0.497-2.41-0.497s-1.67,0.166-2.412,0.497
	c-0.742,0.332-1.387,0.782-1.936,1.352c-0.547,0.57-0.977,1.229-1.285,1.979c-0.311,0.749-0.465,1.557-0.465,2.422
	s0.154,1.672,0.465,2.422c0.309,0.75,0.738,1.409,1.285,1.979c0.549,0.569,1.193,1.017,1.936,1.341s1.547,0.486,2.412,0.486
	s1.668-0.162,2.41-0.486c0.744-0.324,1.389-0.771,1.936-1.341c0.549-0.569,0.977-1.229,1.287-1.979s0.465-1.557,0.465-2.422
	s-0.154-1.673-0.465-2.422C297.198,482.524,296.77,481.865,296.221,481.295z M296.006,487.523c-0.217,0.569-0.52,1.067-0.908,1.492
	c-0.391,0.426-0.859,0.765-1.406,1.017c-0.549,0.252-1.154,0.378-1.816,0.378c-0.664,0-1.27-0.126-1.816-0.378
	c-0.549-0.252-1.018-0.591-1.406-1.017c-0.389-0.425-0.691-0.923-0.908-1.492s-0.324-1.179-0.324-1.827
	c0-0.649,0.107-1.262,0.324-1.839c0.217-0.576,0.52-1.077,0.908-1.503c0.389-0.425,0.857-0.764,1.406-1.016
	c0.547-0.252,1.152-0.379,1.816-0.379c0.662,0,1.268,0.127,1.816,0.379c0.547,0.252,1.016,0.591,1.406,1.016
	c0.389,0.426,0.691,0.927,0.908,1.503c0.215,0.577,0.324,1.189,0.324,1.839C296.331,486.345,296.221,486.954,296.006,487.523z
	 M309.381,480.463c-0.455-0.39-0.996-0.656-1.623-0.801c-0.627-0.144-1.309-0.216-2.043-0.216c-0.707,0-1.465,0.047-2.271,0.141
	s-1.701,0.234-2.682,0.422v11.699h1.535v-10.402c1.184-0.23,2.293-0.346,3.33-0.346c0.592,0,1.111,0.062,1.559,0.184
	c0.445,0.123,0.818,0.332,1.113,0.628c0.295,0.295,0.525,0.713,0.691,1.254s0.25,1.251,0.25,2.13v6.553h1.535v-7.201
	c0-0.995-0.119-1.82-0.357-2.477C310.18,481.375,309.834,480.852,309.381,480.463z M318.516,490.054
	c-0.346-0.108-0.619-0.277-0.82-0.509c-0.203-0.23-0.35-0.547-0.443-0.951c-0.096-0.403-0.141-0.922-0.141-1.557v-5.86h4.973v-1.492
	h-4.973v-4.347h-1.537v4.347h-2.551v1.492h2.551v6.466c0,0.764,0.109,1.405,0.326,1.925c0.215,0.519,0.525,0.937,0.93,1.254
	c0.402,0.317,0.867,0.544,1.395,0.682c0.525,0.137,1.105,0.205,1.74,0.205h2.271v-1.492h-2.422
	C319.295,490.216,318.862,490.162,318.516,490.054z M337.784,489.589c-0.316,0-0.59,0.115-0.82,0.346s-0.346,0.505-0.346,0.822
	c0,0.316,0.115,0.591,0.346,0.821s0.504,0.346,0.82,0.346c0.318,0,0.592-0.115,0.822-0.346s0.346-0.505,0.346-0.821
	c0-0.317-0.115-0.592-0.346-0.822S338.102,489.589,337.784,489.589z M333.178,486.106c-0.346-0.303-0.785-0.565-1.318-0.789
	c-0.533-0.223-1.182-0.422-1.947-0.595l-0.799-0.173c-1.053-0.216-1.781-0.461-2.184-0.735c-0.404-0.273-0.607-0.678-0.607-1.211
	c0-0.504,0.238-0.904,0.715-1.2c0.475-0.295,1.174-0.443,2.098-0.443c0.793,0,1.477,0.076,2.055,0.228
	c0.576,0.151,1.217,0.421,1.924,0.811l0.691-1.405c-1.412-0.765-2.969-1.146-4.67-1.146c-0.635,0-1.223,0.076-1.764,0.228
	c-0.539,0.151-1.008,0.364-1.404,0.638s-0.711,0.605-0.941,0.994c-0.23,0.39-0.346,0.815-0.346,1.276
	c0,0.462,0.072,0.88,0.217,1.254c0.143,0.375,0.381,0.707,0.713,0.995s0.758,0.537,1.275,0.746c0.52,0.209,1.146,0.4,1.883,0.573
	l0.908,0.194c1.008,0.217,1.729,0.49,2.162,0.822c0.432,0.331,0.648,0.771,0.648,1.318c0,0.39-0.086,0.707-0.26,0.952
	c-0.172,0.245-0.414,0.436-0.725,0.573c-0.311,0.137-0.678,0.237-1.102,0.303c-0.426,0.064-0.877,0.097-1.352,0.097
	c-0.592,0-1.223-0.09-1.893-0.271c-0.67-0.18-1.352-0.479-2.045-0.897l-0.734,1.471c0.779,0.433,1.539,0.742,2.281,0.93
	s1.539,0.281,2.391,0.281c0.748,0,1.434-0.072,2.053-0.216c0.621-0.145,1.158-0.36,1.611-0.648c0.455-0.289,0.805-0.649,1.049-1.082
	c0.246-0.433,0.369-0.93,0.369-1.492c0-0.476-0.072-0.915-0.217-1.318C333.77,486.763,333.526,486.41,333.178,486.106z"/>
</svg>

