<?xml version="1.0" encoding="utf-8"?>
<!-- Generator: Adobe Illustrator 22.1.0, SVG Export Plug-In . SVG Version: 6.00 Build 0)  -->
<svg version="1.1" id="Layer_1" xmlns="http://www.w3.org/2000/svg" xmlns:xlink="http://www.w3.org/1999/xlink" x="0px" y="0px"
	 viewBox="0 0 800 500" style="enable-background:new 0 0 800 500;" xml:space="preserve">
<g>
	<path fill="#000000" d="M478.6,216.6c0-0.7-0.1-0.9,0-1.6c-8.6,0-15.8-5.4-15.8-17.8c0-6.3,1.1-18,3.2-35.3c3.8-30.5,3.7-72.3,43.7-72.3
		c0.9,0,2.4,0.1,4.4,0.3c-3.5,6.5-5.2,13.4-5.2,20.3c0,11.1,6.1,17.5,14.7,17.5c4.7,0,8.7-1.7,11.8-5.1c3.1-3.5,4.7-7.7,4.7-12.7
		c0-11.6-9.2-19.5-23.1-21.5c9.5-16,27.7-26.9,51.3-26.9c15.5,0,27.5,4.1,36.2,12.3c7.3,7.1,11.1,16.2,11.1,27
		c0,7.6-1.9,14.4-5.6,20.4l0.9,0.8c4-6.3,6.4-13,7.3-20.2c0-18.3-13-42-50-42c-12.6,0-23.4,2.7-32.6,7.9c-9.1,5.2-16,12-20.7,20.3
		c-2.1-0.1-3.9-0.3-5.1-0.3c-42.9,0-42.8,43.8-46.5,74.5c-2.1,17.5-3.2,29.1-3.2,34.9C460.2,211.1,468.5,216.6,478.6,216.6z
		 M516,90.1c13.5,1.6,22,9.1,22,19.9c0,10-6.3,16.2-14.4,16.2c-7.5,0-12.8-6.3-12.8-15.9C510.8,103.2,512.6,96.5,516,90.1z"/>
	<path fill="#000000" d="M248.9,212.3c2.7,2.5,6.2,3.7,10.7,3.7c9.5,0,18-5.3,25.7-16.2c1.2-2,2.4-4.3,3.6-7.1v1.6c0,14.4,5.5,21.6,16.4,21.6
		c13.1,0,19.8-13.4,24.5-26.8c0,1.1-0.1,2.2-0.1,3.3c0,5.6,0.8,10.2,2.3,13.9c5.5,12.9,26.2,14.3,38.5,0.8
		c13-14.2,14.1-41.4,16.2-58.1c-3.7-4.1-12-8.7-21.7-8.7c-15.4-0.3-24.7,10.3-29.4,21.4c-1.8,4-3.1,8.4-4,12.6c0,0-0.1,0-0.1,0
		c-0.3,1.1-0.6,2.3-0.9,3.4c-4.3,14.6-9.7,36.2-25.4,36.2c-10.2,0-13.6-7.2-13.6-19.5c0-4.7,1-15.6,5-46.4h-2.7
		c-1.1,9.5-2,16.6-4.6,35.3c-0.4,2-1.1,4.7-2.3,7.8c-1.2,3.1-2.4,5.5-3.6,7.2c-6.9,10.4-15,15.6-23.9,15.6c-3.8,0-6.6-1-8.7-2.9
		c0,0,0,0,0,0c-3.1-2.8-5.1-7.3-5.1-13.8c0-6.3,1.1-18,3.2-35.3c3.8-30.5,3.7-72.3,43.7-72.3c0.9,0,2.4,0.1,4.4,0.3
		c-3.5,6.5-5.2,13.4-5.2,20.3c0,11.1,6.1,17.5,14.7,17.5c4.7,0,8.7-1.7,11.8-5.1c3.1-3.5,4.7-7.7,4.7-12.7
		c0-11.6-9.2-19.5-23.1-21.5c9.5-16,27.7-26.9,51.3-26.9c15.5,0,27.5,4.1,36.2,12.3c7.3,7.1,11.1,16.2,11.1,27
		c0,7.6-1.9,14.4-5.6,20.4l0.9,0.8c4-6.3,6.4-13,7.3-20.2c0-18.3-13-42-50-42c-12.6,0-23.4,2.7-32.6,7.9c-9.1,5.2-16,12-20.7,20.3
		c-2.1-0.1-3.9-0.3-5.1-0.3c-42.9,0-42.8,43.8-46.5,74.5c-2.1,17.5-3.2,29.1-3.2,34.9C243.3,204.3,245.5,209.2,248.9,212.3z
		 M335.6,169.5c1.5-4.9,3.2-9.4,5.5-13.2c4.4-7.9,13.2-14.2,24.1-14.2c7.5,0,14,2.4,19.6,7.1c-1.8,14.5-2.3,42.4-15.2,56.7
		c-10.1,11.1-30.1,12.9-35.3-1.2c-1.2-3.3-1.9-7.4-1.9-12.3c0-4.8,0.3-10,1.8-17c0.1-0.3,0.2-0.6,0.2-0.9c0,0,0,0-0.1,0
		C334.8,172.9,335.2,171.2,335.6,169.5z M299.2,90.1c13.5,1.6,22,9.1,22,19.9c0,10-6.3,16.2-14.4,16.2c-7.5,0-12.8-6.3-12.8-15.9
		C294,103.2,295.7,96.5,299.2,90.1z"/>
	<polygon points="569.3,105.5 588.8,82.6 588.1,82.1 581.7,88.2 568.6,103.8 561,88.2 556.8,82.2 556.1,82.6 567.5,105.5 	"/>
	<polygon points="433.2,128 452.7,105.1 452.1,104.5 445.7,110.7 432.6,126.2 424.9,110.7 420.8,104.6 420.1,105.1 431.5,128 	"/>
	<path fill="#000000" d="M361.2,97.3c-7.5,0-11,4.8-11,11.6c0,5.3,3.7,8.4,8.4,8.4c1.5,0,2.8-0.2,4-0.6l-5.9,8.3l1.1,0.7l9.1-11.6
		c0.3-0.3,0.5-0.6,0.7-1l0.2-0.3l0,0c1.2-1.9,1.8-4.4,1.8-7.1C369.6,100.4,365.9,97.3,361.2,97.3z M352.7,108.6
		c0-5.3,2.7-9.8,8.4-9.8c3.6,0,6.1,2.4,6.1,7.1c0,5.3-2.7,9.8-8.4,9.8C355.2,115.7,352.7,113.3,352.7,108.6z"/>
	<polygon points="595,135.6 639.7,127.4 639.3,124.7 594.9,134.4 	"/>
	<polygon points="269,144 313.7,135.7 313.3,133 268.9,142.8 	"/>
	<path fill="#000000" d="M642.4,233.5c-6,5.2-12.1,7.9-19.1,7.7c-5.4-0.1-10.7-1.7-15.9-4.7l-1,1.2c5.1,3.3,10.1,5.5,15.1,6.5
		c8.2,0.2,15.7-2.7,22.2-8.5c8.1-7.1,11-18.2,14.7-46.1h0.1l3.9-29.9h-1.6l-2.1,7.5l-3,22.4h0.1
		C652.8,214.7,650.4,226.6,642.4,233.5z"/>
	<path fill="#000000" d="M213.9,233.5c-6,5.2-12.1,7.9-19.1,7.7c-5.4-0.1-10.7-1.7-15.9-4.7l-1,1.2c5,3.3,10.1,5.5,15.1,6.5
		c8.2,0.2,15.7-2.7,22.2-8.5c8.1-7.1,11-18.2,14.7-46.1h0.1l3.9-29.9h-1.6l-2.1,7.5l-3,22.4h0.1
		C224.3,214.7,221.8,226.6,213.9,233.5z"/>
	<path fill="#000000" d="M548,125.9c0,2.5,1.3,3.9,4.1,3.9c5.7,0,6.7-4.7,6.7-9.6c0-2.5-1.3-3.9-4.1-3.9C549,116.3,548,120.9,548,125.9z"/>
	<path fill="#000000" d="M425.6,150.1c0,2.5,1.3,3.9,4.1,3.9c5.7,0,6.7-4.7,6.7-9.6c0-2.5-1.3-3.9-4.1-3.9C426.5,140.5,425.6,145.2,425.6,150.1z"/>
	<path fill="#000000" d="M288.7,224.6c0-2.5-1.3-3.9-4.1-3.9c-5.7,0-6.7,4.7-6.7,9.6c0,2.5,1.3,3.9,4.1,3.9C287.8,234.2,288.7,229.5,288.7,224.6z"
		/>
	<path fill="#000000" d="M594.8,161.7c-2.8,6.3-4.4,13.6-5.2,19.4c-0.4,2-0.9,4.1-1.6,6.4c-1.3,4.9-3.1,9.5-5.3,13.4c-4.4,7.6-13.1,13.9-23.8,14
		c0,0,0,0.1,0,0.1c-5.4,0-10.6,0-15.9,0c9.5-3.3,15.7-11.4,19.2-19.8c1.3-3,2.4-6.2,3.2-9.5h0.4c2.2-13.5,3.4-22.4,3.4-26.8
		c0-37.2-62.8-11.3-72.1,16c1.5-8.2,2.5-15.6,3.3-22.4l-1.6-1.3c-1.9,0.9-6.1,1.3-12.7,1.3l-0.1,1.3h11.6l-7.5,61c-3.5,0-8.5,0-12,0
		v1.6c18.7,0,37.5,0,56.4,0c8.4,0,16.7,0,25.2,0v0c14.7-0.3,23.7-10.6,28.2-21.4c0.3-0.6,0.5-1.2,0.8-1.9c0.1,5.2,0.9,9.5,2.3,13
		c5.5,12.9,26.2,14.3,38.5,0.8c13-14.2,14.1-41.4,16.2-58.1c-3.7-4.1-12-8.7-21.7-8.7C608.8,140.1,599.5,150.6,594.8,161.7z
		 M496.8,183.6c4.2-33.5,69.7-59.5,69.7-24.6c0,3.3-0.4,7.6-1.1,13c-0.1,0-0.1,0-0.2,0c-0.4,4.3-1.3,9.3-3,15.5
		c-1.3,4.9-3.1,9.5-5.3,13.4c-4.4,7.6-13.1,13.9-23.8,14c0,0,0,0.1,0,0.1c-13.4,0-26.7,0-40.1,0L496.8,183.6z M628.7,205.8
		c-10.1,11.1-30.1,12.9-35.3-1.2c-1.2-3.3-1.9-7.4-1.9-12.3c0-3.1,0.1-6.5,0.7-10.4c0.2-0.8,0.3-1.6,0.5-2.4c0,0-0.1,0-0.1,0
		c0.5-3,1.2-6.2,2.2-10c1.5-4.9,3.2-9.4,5.5-13.2c4.4-7.9,13.2-14.2,24.1-14.2c7.5,0,14,2.4,19.6,7.1
		C642,163.7,641.5,191.5,628.7,205.8z"/>
	<path fill="#000000" d="M393.3,165.6h11.6c-0.9,7.7-6.2,34.2-6.2,43.5c0,22.3,24.3,24.6,38.5,9.2c12.8-14,14.1-40.7,16.1-57.5c-0.7,0-1.4,0-2,0.1
		c-1.8,14.7-2.7,41.7-15.4,55.8c-10.7,11.9-34.4,14.8-34.4-7.6c0-10.9,4.7-34.2,6.2-44.9l-1.6-1.3c-1.9,0.9-6.1,1.3-12.7,1.3
		L393.3,165.6z"/>
	<path fill="#000000" d="M187.9,149.2c2.7,1.2,4,2.3,4,3.2c0,0.8-1.6,3.7-4.8,9h1.3l1.2-1.7c2.8-4.1,4.3-6.7,4.3-7.7c0-1.5-1.5-3.1-4.4-4.5
		c-7.5-3.6-9.1-5.5-9.1-9.1c0-5.2,4.7-9.2,11.8-9.2c4.7,0,9.1,1.5,13,4.4l0.8-1.1c-4.3-3.3-8.8-5.1-13.8-5.1c-4.5,0-8,1.2-10.6,3.6
		c-2.5,2.4-3.7,4.9-3.7,7.5C177.9,142.7,179.9,145.5,187.9,149.2z"/>
	<path fill="#000000" d="M138,211.1c7.3,6,16.8,9,28.3,9c30.5,0,44.1-15.7,47.8-44.9l8.7-69.6h-1.6l-1.9,7.5c0,0-7.3,58-7.7,62.4
		c-3.4,27.6-16,43-45,42.9c-11.8,0-20.8-3.1-27.4-9.1c-6.5-6-9.8-13.9-9.8-23.4c0-7.6,2.5-14,7.7-19.5c5.2-5.5,12-8.2,20.4-8.2
		c11.4,0,18.4,7.6,18.4,17.8c0,4.5-1.1,9.4-3.2,14.3l1.1,0.5c2.5-4,4.3-8.8,5.5-14.6c-0.1-5.3-2-10-5.9-13.9
		c-3.7-3.9-9-5.9-15.8-5.9c-8.7,0-16,2.9-22,8.8c-5.9,5.9-8.8,13-8.8,21.4C126.9,197.1,130.6,205.2,138,211.1z"/>
	<path fill="#000000" d="M139,337.7c-4.1,0-9.8-0.4-11.8-1.3l4.4-35.1c1.3-11.1,5.5-19.6,10.6-25.7c5.3-6.1,12-9.5,18.2-9.5
		c5.7,0,11.2,2.1,11.2,10.4c0,1.6-0.1,3.7-0.7,7.1h1.3l2.5-8.3c-1.2-7.6-5.7-11.1-13.5-11.1c-6.4,0-14,2.9-20.3,10.2
		c-3.6,4.1-6.8,9.8-9.1,17c1.2-7.1,3.1-17.6,4-25.8l-1.6-1.3c-2,0.9-8.6,1.3-12.7,1.3l-0.1,1.3h11.6l-8.6,69.5
		c-2,0.9-7.6,1.3-11.8,1.3l-0.1,1.3h26.2L139,337.7z"/>
	<path fill="#000000" d="M253.1,324.1l-1.2-0.8c-9.1,13-13,14.8-15.2,14.8c-2.3,0-3.2-1.6-3.2-4.4c0-2.9,0.5-9.6,2.5-24.9l5.5-43.3h-1.6l-1.5,5.9
		c-6.4-5.1-14-7.2-20-7.2c-31.3,0-35.4,39.8-35.4,52.1c0,17.2,7.5,24.1,19.2,24.1c10.6,0,24.6-7.6,30.9-24.6
		c-1.9,10.4-2.3,15.6-2.3,18.3c0,4.5,2.3,6.3,5.1,6.3C240.8,340.4,246.9,333.5,253.1,324.1z M202.6,338.4c-12.3,0-17-9-17-22.2
		c0-12.2,3.9-50.2,32.7-50.2c6.4,0,13.8,2.1,19.6,7.1l-4.1,32.9C231.2,326.6,215.9,338.4,202.6,338.4z"/>
	<path fill="#000000" d="M305.1,336.3c-2,0.9-7.6,1.3-11.8,1.3l-0.1,1.3h26.2l0.1-1.3c-4.1,0-9.8-0.4-11.8-1.3l4.9-39.8
		c2.5-20.7,15.6-30.3,27.1-30.3c9.8,0,12.6,5.6,12.6,12.6c0,3.5-0.7,12.2-3.1,28.1c-2.1,14.4-3.6,25.4-3.6,28.5c0,4,2,5.1,4.1,5.1
		c4.1,0,10.2-6.8,16.4-16.3l-1.2-0.8c-9.1,13-13,14.8-14.6,14.8c-1.5,0-2.1-0.8-2.1-3.1c0-3.3,1.5-13.8,3.5-27.9
		c2.1-15.5,3.3-24.2,3.3-28.3c0-9.4-4.7-14.6-15-14.6c-9.5,0-20.8,5.9-26.6,21.6c0.5-2.9,0.8-5.5,0.8-7.1c0-9.4-4.7-14.6-15-14.6
		c-9.8,0-21.5,6.3-27,23.1c0.9-6.3,2.3-14.4,3.2-21.8l-1.6-1.3c-2,0.9-8.6,1.3-12.7,1.3l-0.1,1.3h11.6l-8.6,69.5
		c-2,0.9-7.6,1.3-11.8,1.3l-0.1,1.3h26.2l0.1-1.3c-4.1,0-9.8-0.4-11.8-1.3l4.9-39.8c2.5-20.7,15.6-30.3,27.1-30.3
		c9.8,0,12.6,5.6,12.6,12.6c0,3.5-0.9,11.8-2.8,27.1L305.1,336.3z"/>
	<path fill="#000000" d="M392.1,340.4c10.6,0,24.6-7.6,30.9-24.6c-1.9,10.4-2.3,15.6-2.3,18.3c0,4.5,2.3,6.3,5.1,6.3c4.9,0,11-6.8,17.2-16.3
		l-1.2-0.8c-9.1,13-13,14.8-15.2,14.8c-2.3,0-3.2-1.6-3.2-4.4c0-2.9,0.5-9.6,2.5-24.9l5.5-43.3h-1.6l-1.5,5.9
		c-6.4-5.1-14-7.2-20-7.2c-31.3,0-35.4,39.8-35.4,52.1C372.9,333.5,380.3,340.4,392.1,340.4z M408.3,265.9c6.4,0,13.8,2.1,19.6,7.1
		l-4.1,32.9c-2.7,20.7-18,32.5-31.3,32.5c-12.3,0-17-9-17-22.2C375.5,304,379.4,265.9,408.3,265.9z"/>
	<path fill="#000000" d="M502.5,340.4c4.9,0,11-6.8,17.2-16.3l-1.2-0.8c-9.1,13-13,14.8-15.2,14.8c-2.3,0-3.2-1.6-3.2-4.4c0-2.9,0.7-9.6,2.5-24.9
		l8.8-70l-1.6-1.3c-2,0.9-8.6,1.3-12.7,1.3l-0.1,1.3h11.6l-3.5,28.1c-7.7-3.2-15.2-4-20.2-4c-31.3,0-35.4,39.8-35.4,52.1
		c0,17.2,7.5,24.1,19.2,24.1c10.6,0,24.6-7.6,30.9-24.6c-1.9,10.4-2.3,15.6-2.3,18.3C497.4,338.6,499.7,340.4,502.5,340.4z
		 M469.2,338.4c-12.3,0-17-9-17-22.2c0-12.2,3.9-50.2,32.7-50.2c5.3,0,12.4,0.7,19.9,3.7l-4.4,36.2
		C497.9,326.6,482.4,338.4,469.2,338.4z"/>
	<path fill="#000000" d="M579.2,340.4c4.9,0,11-6.8,17.2-16.3l-1.2-0.8c-9.1,13-13,14.8-15.2,14.8c-2.3,0-3.2-1.6-3.2-4.4c0-2.9,0.5-9.6,2.5-24.9
		l5.5-43.3h-1.6l-1.5,5.9c-6.4-5.1-14-7.2-20-7.2c-31.3,0-35.4,39.8-35.4,52.1c0,17.2,7.5,24.1,19.2,24.1c10.6,0,24.6-7.6,30.9-24.6
		c-1.9,10.4-2.3,15.6-2.3,18.3C574.1,338.6,576.4,340.4,579.2,340.4z M545.9,338.4c-12.3,0-17-9-17-22.2c0-12.2,3.9-50.2,32.7-50.2
		c6.4,0,13.8,2.1,19.6,7.1l-4.1,32.9C574.5,326.6,559.1,338.4,545.9,338.4z"/>
	<path fill="#000000" d="M665.1,282.8c0-12-6.4-18.6-19.4-18.6c-9.9,0-24.2,6.4-30.1,23.8c1.1-6.3,2.4-14.8,3.3-22.4l-1.6-1.3
		c-2,0.9-8.6,1.3-12.7,1.3l-0.1,1.3h11.6l-8.6,69.5c-2,0.9-7.6,1.3-11.8,1.3l-0.1,1.3h26.2l0.1-1.3c-4.1,0-9.8-0.4-11.8-1.3
		l4.9-39.8c2.5-20.7,18.6-30.3,30.1-30.3c12.4,0,17,6.9,17,16.6c0,3.5-0.7,12.3-3.2,26.7c-3.1,17.6-3.6,22.7-3.6,25.8
		c0,4,2,5.1,4.1,5.1c4.1,0,10.2-6.8,16.4-16.3l-1.2-0.8c-9.1,13-13,14.8-14.6,14.8c-1.5,0-2.1-0.8-2.1-3.1c0-3.3,0.5-7.6,3.5-25.3
		C664,295.6,665.1,286.9,665.1,282.8z"/>
	<path fill="#000000" d="M212.2,454.2c-1.5,0-2.1-0.8-2.1-3.1c0-3.3,1.5-13.8,3.5-27.9c2.1-15.5,3.3-24.2,3.3-28.3c0-9.4-4.7-14.6-15-14.6
		c-9.5,0-20.8,5.9-26.6,21.6c0.5-2.9,0.8-5.5,0.8-7.1c0-9.4-4.7-14.6-15-14.6c-9.8,0-21.5,6.3-27,23.1c0.9-6.3,2.3-14.4,3.2-21.8
		l-1.6-1.3c-2,0.9-8.6,1.3-12.7,1.3l-0.1,1.3h11.6l-8.6,69.5c-2,0.9-7.6,1.3-11.8,1.3l-0.1,1.3h26.2l0.1-1.3
		c-4.1,0-9.8-0.4-11.8-1.3l4.9-39.8c2.5-20.7,15.6-30.3,27.1-30.3c9.8,0,12.6,5.6,12.6,12.6c0,3.5-0.9,11.8-2.8,27.1l-3.7,30.5
		c-2,0.9-7.6,1.3-11.8,1.3l-0.1,1.3h26.2l0.1-1.3c-4.1,0-9.8-0.4-11.8-1.3l4.9-39.8c2.5-20.7,15.6-30.3,27.1-30.3
		c9.8,0,12.6,5.6,12.6,12.6c0,3.5-0.7,12.2-3.1,28.1c-2.1,14.4-3.6,25.4-3.6,28.5c0,4,2,5.1,4.1,5.1c4.1,0,10.2-6.8,16.4-16.3
		l-1.2-0.8C217.7,452.4,213.8,454.2,212.2,454.2z"/>
	<path fill="#000000" d="M291.4,454.2c-2.3,0-3.2-1.6-3.2-4.4c0-2.9,0.5-9.6,2.5-24.9l5.5-43.3h-1.6l-1.9,7.5l-4.1,32.9
		c-2.5,19.9-17.5,32.5-30.6,32.5c-11.9,0-15.5-6.9-15.5-16.6c0-3.5,0.8-12.3,3.2-26.7c2.7-16.3,3.9-26.6,4.3-29.5l-1.6-1.3
		c-2,0.9-8.6,1.3-12.7,1.3l-0.1,1.3h11.6c-0.5,4.5-1.7,14.3-4,27.9c-2.4,14.2-3.5,22.8-3.5,27c0,12,5.6,18.6,17.9,18.6
		c10.3,0,24.1-8.3,30.2-24.9c-1.9,10.6-2.3,15.9-2.3,18.6c0,4.5,2.3,6.3,5.1,6.3c4.9,0,11-6.8,17.2-16.3l-1.2-0.8
		C297.6,452.4,293.7,454.2,291.4,454.2z"/>
	<path fill="#000000" d="M318.1,455.3l1.6-6c6.4,5.1,14,7.2,20,7.2c31.3,0,35.4-39.8,35.4-52.1c0-17.2-7.5-24.1-19.2-24.1c-11,0-25.5,8.2-31.4,26.3
		c1.7-12.3,6-42.1,7.2-51.7l-1.6-1.3c-2,0.9-8.6,1.3-12.7,1.3l-0.1,1.3h11.5l-12.3,99H318.1z M324.3,414.8
		c2.7-20.7,18-32.5,31.3-32.5c12.3,0,17,9,17,22.2c0,12.2-3.9,50.2-32.7,50.2c-6.4,0-13.8-2.1-19.6-7.1L324.3,414.8z"/>
	<path fill="#000000" d="M438.9,456.5c4.9,0,11-6.8,17.2-16.3l-1.2-0.8c-9.1,13-13,14.8-15.2,14.8c-2.3,0-3.2-1.6-3.2-4.4c0-2.9,0.5-9.6,2.5-24.9
		l5.5-43.3h-1.6l-1.5,5.9c-6.4-5.1-14-7.2-20-7.2c-31.3,0-35.4,39.8-35.4,52.1c0,17.2,7.5,24.1,19.2,24.1c10.6,0,24.6-7.6,30.9-24.6
		c-1.9,10.4-2.3,15.6-2.3,18.3C433.9,454.8,436.1,456.5,438.9,456.5z M405.7,454.5c-12.3,0-17-9-17-22.2c0-12.2,3.9-50.2,32.7-50.2
		c6.4,0,13.8,2.1,19.6,7.1l-4.1,32.9C434.3,442.7,418.9,454.5,405.7,454.5z"/>
	<path fill="#000000" d="M481.8,453.8c-4.1,0-9.8-0.4-11.8-1.3l4.4-35.1c1.3-11.1,5.5-19.6,10.6-25.7c5.3-6.1,12-9.5,18.2-9.5
		c5.7,0,11.2,2.1,11.2,10.4c0,1.6-0.1,3.7-0.7,7.1h1.3l2.5-8.3c-1.2-7.6-5.7-11.1-13.5-11.1c-6.4,0-14,2.9-20.3,10.2
		c-3.6,4.1-6.8,9.8-9.1,17c1.2-7.1,3.1-17.6,4-25.8l-1.6-1.3c-2,0.9-8.6,1.3-12.7,1.3l-0.1,1.3h11.6l-8.6,69.5
		c-2,0.9-7.6,1.3-11.8,1.3l-0.1,1.3h26.2L481.8,453.8z"/>
	<path fill="#000000" d="M594.7,439.4c-9.1,13-13,14.8-15.2,14.8c-2.3,0-3.2-1.6-3.2-4.4c0-2.9,0.5-9.6,2.5-24.9l5.5-43.3h-1.6l-1.5,5.9
		c-6.4-5.1-14-7.2-20-7.2c-31.3,0-35.4,39.8-35.4,52.1c0,17.2,7.5,24.1,19.2,24.1c10.6,0,24.6-7.6,30.9-24.6
		c-1.9,10.4-2.3,15.6-2.3,18.3c0,4.5,2.3,6.3,5.1,6.3c4.9,0,11-6.8,17.2-16.3L594.7,439.4z M545.4,454.5c-12.3,0-17-9-17-22.2
		c0-12.2,3.9-50.2,32.7-50.2c6.4,0,13.8,2.1,19.6,7.1l-4.1,32.9C574,442.7,558.7,454.5,545.4,454.5z"/>
	<path fill="#000000" d="M658.9,454.2c-2.3,0-3.9-1.1-4-5.7l-0.7-20.3c-0.3-8.3-2.1-15-12.3-17c14.4-1.7,20.7-8.2,20.7-20.2c0-2.5-0.8-6.1-2.9-10.7
		l-1.3,0.5c1.1,4.9,1.3,7.7,1.3,10.4c0,13.5-8.8,18.7-26.2,18.7h-18.3l6.7-55l-1.6-1.3c-2,0.9-8.6,1.3-12.7,1.3l-0.1,1.3h11.6
		l-11.9,96.2c-2,0.9-7.6,1.3-11.8,1.3l-0.1,1.3h26.2l0.1-1.3c-4.1,0-9.8-0.4-11.8-1.3l5.1-40.5h18.8c16.2,0,17.6,8,17.9,16.8l0.7,21
		c0.1,5.5,3.5,6.7,5.6,6.7c4.1,0,10.4-6.8,16.7-16.3l-1.2-0.8C664.3,452.4,660.5,454.2,658.9,454.2z"/>
</g>
<path fill="#000000" d="M273.602,481.306c-0.578-0.576-1.301-1.03-2.174-1.362c-0.873-0.331-1.885-0.497-3.039-0.497
	c-0.663,0-1.463,0.079-2.4,0.238v-6.077h-1.535v17.711c0.706,0.202,1.402,0.354,2.087,0.454s1.301,0.151,1.849,0.151
	c1.153,0,2.166-0.162,3.039-0.486s1.596-0.764,2.174-1.319c0.576-0.555,1.006-1.211,1.287-1.968s0.42-1.561,0.42-2.411
	s-0.139-1.657-0.42-2.422C274.608,482.554,274.178,481.883,273.602,481.306z M272.391,489.167c-0.852,0.829-2.17,1.243-3.958,1.243
	c-0.39,0-0.805-0.032-1.244-0.097c-0.439-0.065-0.84-0.134-1.2-0.206v-8.845c0.447-0.115,0.887-0.194,1.319-0.237
	c0.433-0.044,0.808-0.065,1.125-0.065c0.894,0,1.668,0.112,2.325,0.335c0.656,0.224,1.199,0.545,1.633,0.963
	c0.432,0.418,0.752,0.919,0.961,1.503s0.314,1.243,0.314,1.979C273.667,487.195,273.241,488.338,272.391,489.167z M247.392,479.446
	c-0.62,0-1.297,0.079-2.033,0.238c-0.735,0.158-1.485,0.433-2.249,0.821l-0.065,1.73c0.548-0.303,0.973-0.52,1.276-0.649
	s0.624-0.237,0.962-0.324c0.338-0.086,0.677-0.158,1.016-0.216s0.667-0.087,0.984-0.087c1.139,0,1.982,0.249,2.53,0.746
	s0.822,1.33,0.822,2.498v0.13c-0.332-0.044-0.732-0.087-1.2-0.13c-0.469-0.043-0.876-0.065-1.222-0.065
	c-1.831,0-3.302,0.311-4.412,0.931c-1.11,0.619-1.665,1.644-1.665,3.07c0,0.707,0.155,1.305,0.465,1.795
	c0.31,0.49,0.713,0.88,1.211,1.168s1.067,0.497,1.708,0.627c0.641,0.13,1.308,0.194,2,0.194c0.807,0,1.6-0.072,2.378-0.216
	c0.779-0.145,1.536-0.368,2.271-0.671v-7.028c0-1.585-0.397-2.742-1.189-3.471C250.189,479.811,248.992,479.446,247.392,479.446z
	 M250.636,489.892c-0.375,0.144-0.858,0.267-1.449,0.367c-0.591,0.102-1.183,0.151-1.773,0.151c-0.505,0-0.984-0.035-1.438-0.108
	c-0.454-0.071-0.84-0.197-1.157-0.378c-0.317-0.18-0.57-0.414-0.757-0.703c-0.188-0.288-0.281-0.663-0.281-1.124
	c0-0.52,0.111-0.934,0.335-1.244c0.224-0.31,0.533-0.551,0.93-0.724c0.396-0.174,0.85-0.296,1.362-0.368
	c0.511-0.072,1.041-0.108,1.589-0.108c0.476,0,0.984,0.029,1.524,0.087c0.541,0.058,0.912,0.108,1.114,0.151V489.892z
	 M258.032,479.868c-0.649,0.122-1.276,0.263-1.881,0.422v11.418h1.535v-10.186c0.202-0.072,0.563-0.147,1.082-0.228
	c0.519-0.079,1.002-0.118,1.449-0.118h1.989v-1.492H260C259.336,479.685,258.681,479.746,258.032,479.868z M-77.92,487.667
	l241.145,0.656l0.663-0.433l-0.632-0.564L-77.92,487.667z M164.994,487.825l1.95,1.95l1.95-1.95l-1.95-1.95L164.994,487.825z
	 M169.559,487.825l3.057,3.057l3.057-3.057l-3.057-3.057L169.559,487.825z M212.359,489.286l-3.395-9.602h-1.514l-3.396,9.602
	l-2.984-9.602h-1.73l3.979,12.023h1.428l3.46-9.645l3.46,9.645h1.427l3.979-12.023h-1.73L212.359,489.286z M238.418,489.589
	c-0.317,0-0.591,0.115-0.822,0.346c-0.231,0.23-0.346,0.505-0.346,0.822c0,0.316,0.115,0.591,0.346,0.821
	c0.23,0.23,0.504,0.346,0.822,0.346c0.317,0,0.591-0.115,0.822-0.346c0.23-0.23,0.346-0.505,0.346-0.821
	c0-0.317-0.116-0.592-0.346-0.822C239.009,489.704,238.735,489.589,238.418,489.589z M193.243,489.286l-3.395-9.602h-1.514
	l-3.396,9.602l-2.984-9.602h-1.73l3.979,12.023h1.428l3.46-9.645l3.46,9.645h1.427l3.979-12.023h-1.73L193.243,489.286z
	 M231.476,489.286l-3.395-9.602h-1.514l-3.396,9.602l-2.984-9.602h-1.73l3.979,12.023h1.428l3.46-9.645l3.46,9.645h1.427
	l3.979-12.023h-1.73L231.476,489.286z M382.732,480.474c-0.426-0.396-0.938-0.667-1.535-0.812c-0.598-0.144-1.271-0.216-2.021-0.216
	c-0.664,0-1.393,0.09-2.184,0.271c-0.793,0.181-1.471,0.4-2.033,0.659c-0.346-0.331-0.818-0.569-1.416-0.714
	c-0.6-0.144-1.273-0.216-2.023-0.216c-0.635,0-1.268,0.058-1.902,0.173l-2.465,0.454v11.635h1.535v-10.38
	c0.447-0.102,0.883-0.188,1.309-0.26c0.424-0.072,0.896-0.108,1.416-0.108c0.605,0,1.125,0.058,1.557,0.173
	c0.434,0.116,0.789,0.321,1.07,0.616c0.281,0.296,0.494,0.711,0.639,1.244s0.217,1.24,0.217,2.119v6.596h1.535v-7.201
	c0-0.663-0.055-1.243-0.162-1.741c-0.109-0.497-0.213-0.861-0.314-1.092c0.086-0.043,0.281-0.119,0.584-0.228
	c0.303-0.107,0.602-0.197,0.898-0.27c0.295-0.072,0.586-0.126,0.875-0.162s0.547-0.055,0.779-0.055c0.59,0,1.102,0.058,1.535,0.173
	c0.432,0.116,0.781,0.317,1.049,0.605c0.266,0.289,0.471,0.703,0.615,1.244c0.145,0.54,0.217,1.251,0.217,2.13v6.596h1.535v-7.201
	c0-0.995-0.111-1.816-0.336-2.466C383.482,481.393,383.158,480.87,382.732,480.474z M280.1,474.581
	c-0.785,0.648-1.18,1.729-1.18,3.243v1.86h-2.551v1.492h2.551v10.531h1.537v-10.531h4.973v-1.492h-4.973v-1.471
	c0-0.635,0.045-1.149,0.141-1.546c0.094-0.396,0.24-0.707,0.443-0.931c0.201-0.223,0.475-0.385,0.82-0.486
	c0.346-0.101,0.779-0.151,1.299-0.151h2.422v-1.492h-2.271C281.956,473.607,280.885,473.932,280.1,474.581z M398.273,487.825
	l3.057,3.057l3.057-3.057l-3.057-3.057L398.273,487.825z M343.322,482.322c0.389-0.418,0.854-0.749,1.395-0.994
	s1.135-0.368,1.783-0.368c0.736,0,1.373,0.076,1.914,0.228s1.121,0.414,1.74,0.789l0.715-1.405c-0.707-0.39-1.393-0.674-2.055-0.854
	c-0.664-0.181-1.436-0.271-2.314-0.271c-0.85,0-1.639,0.155-2.367,0.465c-0.729,0.311-1.367,0.746-1.914,1.309
	c-0.549,0.563-0.98,1.222-1.297,1.979c-0.317,0.757-0.476,1.59-0.476,2.498s0.158,1.74,0.476,2.497
	c0.316,0.757,0.748,1.413,1.297,1.969c0.547,0.555,1.186,0.987,1.914,1.297c0.729,0.311,1.518,0.465,2.367,0.465
	c0.879,0,1.65-0.09,2.314-0.27c0.662-0.181,1.348-0.466,2.055-0.854l-0.715-1.406c-0.619,0.375-1.199,0.639-1.74,0.79
	s-1.178,0.227-1.914,0.227c-0.648,0-1.242-0.119-1.783-0.356c-0.541-0.238-1.006-0.565-1.395-0.984
	c-0.391-0.418-0.693-0.915-0.908-1.492c-0.217-0.576-0.324-1.203-0.324-1.881s0.107-1.305,0.324-1.882
	C342.628,483.238,342.931,482.741,343.322,482.322z M404.387,487.825l1.949,1.95l1.951-1.95l-1.951-1.95L404.387,487.825z
	 M410.701,487.326l-0.664,0.433l0.633,0.564l241.176-0.341L410.701,487.326z M362.611,481.295c-0.549-0.569-1.193-1.02-1.936-1.352
	c-0.742-0.331-1.547-0.497-2.412-0.497c-0.863,0-1.668,0.166-2.41,0.497c-0.742,0.332-1.389,0.782-1.936,1.352
	c-0.549,0.57-0.977,1.229-1.287,1.979c-0.311,0.749-0.465,1.557-0.465,2.422s0.154,1.672,0.465,2.422s0.738,1.409,1.287,1.979
	c0.547,0.569,1.193,1.017,1.936,1.341s1.547,0.486,2.41,0.486c0.865,0,1.67-0.162,2.412-0.486s1.387-0.771,1.936-1.341
	c0.547-0.569,0.977-1.229,1.287-1.979c0.309-0.75,0.465-1.557,0.465-2.422s-0.156-1.673-0.465-2.422
	C363.587,482.524,363.158,481.865,362.611,481.295z M362.394,487.523c-0.217,0.569-0.52,1.067-0.908,1.492
	c-0.389,0.426-0.857,0.765-1.406,1.017c-0.547,0.252-1.152,0.378-1.816,0.378c-0.662,0-1.268-0.126-1.816-0.378
	c-0.547-0.252-1.016-0.591-1.404-1.017c-0.391-0.425-0.693-0.923-0.908-1.492c-0.217-0.569-0.324-1.179-0.324-1.827
	c0-0.649,0.107-1.262,0.324-1.839c0.215-0.576,0.518-1.077,0.908-1.503c0.389-0.425,0.857-0.764,1.404-1.016
	c0.549-0.252,1.154-0.379,1.816-0.379c0.664,0,1.27,0.127,1.816,0.379c0.549,0.252,1.018,0.591,1.406,1.016
	c0.389,0.426,0.691,0.927,0.908,1.503c0.217,0.577,0.324,1.189,0.324,1.839C362.718,486.345,362.611,486.954,362.394,487.523z
	 M296.221,481.295c-0.547-0.569-1.191-1.02-1.936-1.352c-0.742-0.331-1.545-0.497-2.41-0.497s-1.67,0.166-2.412,0.497
	c-0.742,0.332-1.387,0.782-1.936,1.352c-0.547,0.57-0.977,1.229-1.285,1.979c-0.311,0.749-0.465,1.557-0.465,2.422
	s0.154,1.672,0.465,2.422c0.309,0.75,0.738,1.409,1.285,1.979c0.549,0.569,1.193,1.017,1.936,1.341s1.547,0.486,2.412,0.486
	s1.668-0.162,2.41-0.486c0.744-0.324,1.389-0.771,1.936-1.341c0.549-0.569,0.977-1.229,1.287-1.979s0.465-1.557,0.465-2.422
	s-0.154-1.673-0.465-2.422C297.198,482.524,296.77,481.865,296.221,481.295z M296.006,487.523c-0.217,0.569-0.52,1.067-0.908,1.492
	c-0.391,0.426-0.859,0.765-1.406,1.017c-0.549,0.252-1.154,0.378-1.816,0.378c-0.664,0-1.27-0.126-1.816-0.378
	c-0.549-0.252-1.018-0.591-1.406-1.017c-0.389-0.425-0.691-0.923-0.908-1.492s-0.324-1.179-0.324-1.827
	c0-0.649,0.107-1.262,0.324-1.839c0.217-0.576,0.52-1.077,0.908-1.503c0.389-0.425,0.857-0.764,1.406-1.016
	c0.547-0.252,1.152-0.379,1.816-0.379c0.662,0,1.268,0.127,1.816,0.379c0.547,0.252,1.016,0.591,1.406,1.016
	c0.389,0.426,0.691,0.927,0.908,1.503c0.215,0.577,0.324,1.189,0.324,1.839C296.331,486.345,296.221,486.954,296.006,487.523z
	 M309.381,480.463c-0.455-0.39-0.996-0.656-1.623-0.801c-0.627-0.144-1.309-0.216-2.043-0.216c-0.707,0-1.465,0.047-2.271,0.141
	s-1.701,0.234-2.682,0.422v11.699h1.535v-10.402c1.184-0.23,2.293-0.346,3.33-0.346c0.592,0,1.111,0.062,1.559,0.184
	c0.445,0.123,0.818,0.332,1.113,0.628c0.295,0.295,0.525,0.713,0.691,1.254s0.25,1.251,0.25,2.13v6.553h1.535v-7.201
	c0-0.995-0.119-1.82-0.357-2.477C310.18,481.375,309.834,480.852,309.381,480.463z M318.516,490.054
	c-0.346-0.108-0.619-0.277-0.82-0.509c-0.203-0.23-0.35-0.547-0.443-0.951c-0.096-0.403-0.141-0.922-0.141-1.557v-5.86h4.973v-1.492
	h-4.973v-4.347h-1.537v4.347h-2.551v1.492h2.551v6.466c0,0.764,0.109,1.405,0.326,1.925c0.215,0.519,0.525,0.937,0.93,1.254
	c0.402,0.317,0.867,0.544,1.395,0.682c0.525,0.137,1.105,0.205,1.74,0.205h2.271v-1.492h-2.422
	C319.295,490.216,318.862,490.162,318.516,490.054z M337.784,489.589c-0.316,0-0.59,0.115-0.82,0.346s-0.346,0.505-0.346,0.822
	c0,0.316,0.115,0.591,0.346,0.821s0.504,0.346,0.82,0.346c0.318,0,0.592-0.115,0.822-0.346s0.346-0.505,0.346-0.821
	c0-0.317-0.115-0.592-0.346-0.822S338.102,489.589,337.784,489.589z M333.178,486.106c-0.346-0.303-0.785-0.565-1.318-0.789
	c-0.533-0.223-1.182-0.422-1.947-0.595l-0.799-0.173c-1.053-0.216-1.781-0.461-2.184-0.735c-0.404-0.273-0.607-0.678-0.607-1.211
	c0-0.504,0.238-0.904,0.715-1.2c0.475-0.295,1.174-0.443,2.098-0.443c0.793,0,1.477,0.076,2.055,0.228
	c0.576,0.151,1.217,0.421,1.924,0.811l0.691-1.405c-1.412-0.765-2.969-1.146-4.67-1.146c-0.635,0-1.223,0.076-1.764,0.228
	c-0.539,0.151-1.008,0.364-1.404,0.638s-0.711,0.605-0.941,0.994c-0.23,0.39-0.346,0.815-0.346,1.276
	c0,0.462,0.072,0.88,0.217,1.254c0.143,0.375,0.381,0.707,0.713,0.995s0.758,0.537,1.275,0.746c0.52,0.209,1.146,0.4,1.883,0.573
	l0.908,0.194c1.008,0.217,1.729,0.49,2.162,0.822c0.432,0.331,0.648,0.771,0.648,1.318c0,0.39-0.086,0.707-0.26,0.952
	c-0.172,0.245-0.414,0.436-0.725,0.573c-0.311,0.137-0.678,0.237-1.102,0.303c-0.426,0.064-0.877,0.097-1.352,0.097
	c-0.592,0-1.223-0.09-1.893-0.271c-0.67-0.18-1.352-0.479-2.045-0.897l-0.734,1.471c0.779,0.433,1.539,0.742,2.281,0.93
	s1.539,0.281,2.391,0.281c0.748,0,1.434-0.072,2.053-0.216c0.621-0.145,1.158-0.36,1.611-0.648c0.455-0.289,0.805-0.649,1.049-1.082
	c0.246-0.433,0.369-0.93,0.369-1.492c0-0.476-0.072-0.915-0.217-1.318C333.77,486.763,333.526,486.41,333.178,486.106z"/>
</svg>

