<?xml version="1.0" encoding="utf-8"?>
<!-- Generator: Adobe Illustrator 22.1.0, SVG Export Plug-In . SVG Version: 6.00 Build 0)  -->
<svg version="1.1" id="Layer_1" xmlns="http://www.w3.org/2000/svg" xmlns:xlink="http://www.w3.org/1999/xlink" x="0px" y="0px"
	 viewBox="0 0 800 500" style="enable-background:new 0 0 800 500;" xml:space="preserve">
<g>
	<path fill="#000000" d="M567.2,211.5c1.1,0.8,2.6,0.8,4,0.8c12.7,0,25.3,0,38,0c3.2,0,6.4,0,9.3-1.3c-0.2-2.7-3.7-3.5-6.4-3.5
		c-15.1-0.1-30.3,0-45.4,0.4C565.6,208.8,566.1,210.7,567.2,211.5z"/>
	<path fill="#000000" d="M642.9,207.5c-3,0-6.1,0.1-8.9,1.3c0.1,2.7,3.7,3.5,6.4,3.5c13.5,0,27,0,40.5,0c1.4,0,2.8,0,4-0.8c1.1-0.7,1.7-2.5,0.8-3.5
		C671.4,207.6,657.1,207.4,642.9,207.5z"/>
	<path fill="#000000" d="M331.3,220.2c2.6-0.5,4.6-2.7,6.4-4.7c12.1-13.9,24-28,35.7-42.2c15.9-19.4,20.6-4.6,16.4,8.4
		c-5.7,17.8-13.7,34.7-21.7,51.5c-12.4,26.1-24.7,52.3-37.1,78.4c87,0.1,173.9,0.2,260.9,0.3c2.2,0,4.5,0,6.3-1.1
		c1.9-1.1,3-3.1,4.1-5.1c5.7-10.7,11-21.5,15.9-32.6c4.5-10.2,8.5-22.4,2.8-32c-6.8-11.4-23.4-11.8-35.9-7.5
		c-17.6,6.1-32.8,19.1-41.5,35.5c-6.3,12-8.7,28.2,0.7,37.9c-14.4,0-28.8,0-43.2,0c10.1-6.5,19.2-15,23.9-26
		c4.7-11,4.2-24.7-3.5-33.9c-5.4-6.5-13.8-10.1-22.1-11.5c-27.7-4.9-54.6,10.4-77.7,26.4c3.6-7.5,7.2-15.1,10.7-22.6
		c0.6-1.3,1.2-3,0.1-4c-4.6-4.3-12.4-3.2-17.4,0.7c-5,3.9-7.8,9.9-10.4,15.6c-7.4,16.2-14.8,32.3-22.3,48.5
		c-2.2,4.7-7.5,7.4-12.7,7.8c-5.2,0.4-10.4-1-15.4-2.4c18.7-34.5,35.2-70.3,49.1-107.1c2.4-6.2,4.7-12.6,4.8-19.3
		c0.2-17.6-17.1-30.1-37.8-10.1c-15.7,15.1-24.6,38.2-44.6,46.9C325.4,218.6,328.6,220.7,331.3,220.2z M555,297.4
		c0.8-11,5.9-21.2,11.6-30.6c6.1-9.9,13.3-19.5,22.9-25.9c4.5-3,11.2-4.9,14.6-0.7c1.2,1.5,1.6,3.4,1.8,5.3
		c0.7,7.8-2.8,15.2-6.1,22.3c-5.5,11.6-11.1,23.2-16.6,34.7c-0.7,1.4-1.4,2.9-2.7,3.8c-1.5,1.1-3.6,1.1-5.4,1.1
		c-3.9,0-7.8,0-11.7-0.1c-1.8,0-3.8,0-5.3-1C555.2,304.5,554.7,300.6,555,297.4z M432.9,259.6c5.7-4.1,12-7.3,18.4-10.2
		c11.6-5.4,23.9-9.8,36.6-10.2c4-0.1,8.2,0.2,11.8,1.9c8.1,3.7,12,13.7,11.2,22.6c-0.8,8.9-5.2,17.1-9.7,24.8
		c-3.6,6.1-7.5,12.3-13.7,15.6c-5.9,3.2-13,3.3-19.7,3.2c-21.9-0.1-43.7-0.2-65.6-0.2C405.9,288.1,417.1,270.8,432.9,259.6z"/>
	<path fill="#000000" d="M478.2,182.7c-1.4-2.1-4.4-2.4-6.9-2.4c-14.9-0.1-29.8,0-44.7,0.4c-0.9,1-0.3,2.8,0.9,3.5s2.6,0.8,4,0.8
		c13.1,0,26.3,0.1,39.4,0.1C473.6,185.1,476.7,184.9,478.2,182.7z"/>
	<path fill="#000000" d="M146.7,366.6c13.6,7.4,30.9,6.8,44.7-0.3s24.1-20.2,29.1-34.9c4-11.6,4.9-24.8-0.2-36c-7.3-15.9-27.2-24.8-43.9-19.7
		c-16.8,5.2-28.2,23.7-25.3,41c0.7,4.4,2.4,8.8,5.7,11.8c3.3,3,8.5,4.2,12.3,1.9c4.7-2.8,5.2-10.5,1-13.9c-4.2-3.4-11.6-1.2-13.3,4
		c-4.3-12.8,1-28.2,12.2-35.8c11.2-7.5,27.5-6.6,37.7,2.2c13.6,11.6,14.6,33.1,7.4,49.4c-6.2,14.1-18.4,26.1-33.4,29.2
		c-20.1,4.1-41.2-9.4-49.8-28c-8.7-18.6-6.6-40.9,1.1-59.9c16.5-40.6,59.4-68.9,103.2-68c18.2,0.4,36,5.3,53.3,11.2
		c3-0.6,3.8-4.9,2.1-7.4c-1.7-2.5-4.8-3.6-7.7-4.6c-16-5.3-32.2-10.6-49-11.3c-25.7-1.1-51.4,8.8-70.9,25.7
		c-19.4,16.9-32.8,40.3-39.2,65.2c-3.6,14.2-5.1,29.2-1.8,43.5C125.3,346.1,133.9,359.6,146.7,366.6z"/>
	<path fill="#000000" d="M307.5,233.7c4.8,0.4,9.8-2.3,12.2-6.5c3.7-6.4,0.4-15.8-6.5-18.4c-6.9-2.7-15.6,2-17.3,9.2
		C294.3,225.2,300.2,233.2,307.5,233.7z"/>
	<path fill="#000000" d="M448.6,197c-5.9,3.3-8.2,11.7-4.8,17.6c3.4,5.9,11.8,8.1,17.6,4.7c5.8-3.4,8-11.8,4.6-17.6
		C462.6,195.9,454.4,193.7,448.6,197z"/>
	<path fill="#000000" d="M659.8,232.5c-4.6,0.6-9.1,3.2-10.9,7.4c-10.9,26.8-23.6,52.8-37.9,77.9c-6.9,12-15.9,25.1-29.7,26.8
		c-1.8,0.2-2.1,3-0.7,4.2c1.3,1.2,3.3,1.2,5.1,1c16.1-1.6,30.5-11.5,40.8-24c10.3-12.5,17.2-27.4,24-42.1c7.7-16.7,15.3-33.3,23-50
		C669,232.9,664.3,231.9,659.8,232.5z"/>
	<path fill="#000000" d="M281,324.4c-3.4,2.6-7.4,4.6-11.7,4.6c-4.3,0-8.7-2.3-10.2-6.3c-1.2-3.3-0.3-6.9,0.8-10.2c6.8-21.3,18.6-40.6,27.5-61.2
		c0.3-0.8,0.7-1.7,0.3-2.5c-0.4-0.9-1.6-1.2-2.6-1.4c-7.1-1.3-16.3-1.5-19.4,4.9c-6.3,13-12.6,26.1-18.7,39.2
		c-4.7,10.1-9.2,22.3-3.4,31.7c3.5,5.6,9.9,8.8,16.4,10c16.8,3.1,34-5.3,45.8-17.6c11.8-12.3,19.2-28,26.4-43.5
		c3.6-7.6,7.1-15.3,10.7-22.9c0.5-1,0.9-2.1,0.5-3.1c-0.5-1.1-1.8-1.4-3-1.6c-6.9-1.2-15.9-1.4-18.8,4.9
		c-7,15.2-13.9,30.4-20.9,45.5C295.9,305.9,290.5,317.2,281,324.4z"/>
	<path fill="#000000" d="M436.2,159.7c22.2,9.5,47.2,10.1,71.3,8.9c-9,19.6-18.1,39.2-27.1,58.8c4.9,4.8,13.4,3.7,18.7-0.5
		c5.4-4.2,8.4-10.7,11.2-16.9c6-13.2,12-26.4,18-39.6c1.6-3.6,3.7-7.6,7.5-8.6c17.5-4.7,32.5-17.5,39.9-34c1.8-4.1,3.2-8.6,2.2-13
		c-1.9-8.4-12.3-12.7-20.7-10.7c-8.4,2-15,8.4-20.6,15.1c-9.2,11.1-16.7,23.5-22.2,36.8c-2,4.9-8.3,6.1-13.6,6.5
		c-30.9,2.4-65.8-1.4-86.1-24.8c-10.3-11.9-15.6-28.1-13.6-43.7c2-15.6,11.5-30.2,25.2-37.9c11.5-6.4,25.3-7.8,38.3-5.7
		c17.5,2.9,34.9,13.6,40.5,30.5c5.1,15.4-1.5,33.8-15.3,42.5c-13.7,8.6-33.2,6.6-44.9-4.7c6.7-2.5,12.9-10,9.8-16.4
		c-2.8-5.6-11.7-6.1-16-1.5c-4.3,4.6-4.1,12.2-0.9,17.5c3.3,5.4,9,8.8,14.8,11.1c13.3,5,28.8,4.6,41.1-2.4
		c12.3-7,20.9-20.7,20.6-34.9c-0.5-19-16.1-34.8-33.8-41.8c-19.3-7.7-42.2-6.8-60,3.9C403.1,64.6,391.3,85.3,393,106
		C394.9,130.1,414,150.2,436.2,159.7z M536.9,153c5.7-13.1,13.1-25.4,21.9-36.6c1.6-2,3.3-4.1,5.5-5.3c2.3-1.2,5.3-1.4,7.3,0.2
		c-0.3,20.3-15.1,39.5-34.7,44.9C536,155.4,536.4,154.1,536.9,153z"/>
	<path fill="#000000" d="M421.2,475.3c6.4,4.1,16.2,0.9,18.9-6.2c2.7-7.1-2.5-16-10-17.2c-7.5-1.2-15.2,5.7-14.8,13.3
		C415.5,469.2,417.8,473.1,421.2,475.3z"/>
	<path fill="#000000" d="M535,438.8c2.2-1.2,3.5-3.7,4.7-6c5.8-11.7,11.2-23.5,16.3-35.5c3.4-8,6.7-17.1,3.5-25.2c-4.4-11.5-19.6-15-31.7-12.5
		c-19.6,3.9-35.9,18.4-46,35.7c-7.1,12.2-11,29.3-0.9,39.2c-11.5,0.9-23,0.8-34.4-0.2c11.3-24,22.6-48,33.9-72
		c-9.3-1.6-21.6-1.8-25.3,7c-5.5,12.9-10.9,25.8-16.4,38.7c-3.2,7.6-6.6,15.4-12.5,21.1s-15.1,9-22.6,5.6
		c17.9-38.5,36-76.9,54.3-115.2c-5.7-4.2-14.2-2.5-19.7,2c-5.5,4.5-8.6,11.2-11.6,17.7c-15.5,33.3-31,66.7-46.4,100
		c49.6,0.2,99.1,0.4,148.7,0.6C531,439.9,533.2,439.9,535,438.8z M514.6,435c-5,0-9.9,0-14.9,0c-2,0-4.3-0.1-5.8-1.5
		c-1.5-1.3-1.8-3.4-1.9-5.4c-0.5-11.4,4.8-22.2,10.6-32c6.8-11.4,14.8-22.6,26.4-29.2c2.2-1.2,4.6-2.3,7.1-1.9
		c3.1,0.5,5.4,3.2,6.3,6.2c0.8,3,0.4,6.2-0.3,9.2c-1.7,6.9-4.8,13.4-7.9,19.9c-4.8,9.9-9.5,19.8-14.3,29.7
		C518.8,432.4,517.2,435,514.6,435z"/>
	<path fill="#000000" d="M249.2,414.8c-3.9,9.6-7.7,20.9-2.6,30c3.8,6.7,11.6,10.2,19.2,11.1c16.6,1.9,33-6.9,44.4-19.1
		c11.4-12.3,18.6-27.7,25.7-42.9c10.3-22.1,20.6-44.1,30.9-66.2c-4.6-4.7-12.8-3.7-18,0.3c-5.2,4-8.1,10.2-10.9,16.1
		c-11.4,24.7-22.9,49.3-34.3,74c-6.5,14-14.9,29.6-29.9,33.1c-5.5,1.3-10.8-4.2-11.5-9.8c-0.7-5.6,1.8-11.1,4.2-16.3
		c3.8-8.1,7.6-16.3,11.4-24.4c1.9-4-3.4-7.9-7.8-7.7C259.3,393.4,253.2,404.9,249.2,414.8z"/>
	<path fill="#000000" d="M344.2,459.7c10.8-11.3,17.8-25.6,24.5-39.7c9.3-19.5,18.6-38.9,27.9-58.4c-4.5-0.9-9.1-1.9-13.7-1.3
		c-4.6,0.6-9.1,3-11.1,7.2c-7.5,16.3-14.9,32.5-22.4,48.8c-9.5,20.7-20.1,42.7-39.7,54.4c-2.7,1.6-5.7,3.1-7.5,5.7
		C317.7,478.8,333.4,471,344.2,459.7z"/>
	<path fill="#000000" d="M260.8,371.9c-0.9,0.7-1.2,2.3-0.2,2.9c7.1,0,14.1,0.1,21.2,0.1c1.3,0,2.8,0,3.8-0.8c1-0.8,1.3-2.7,0.1-3.3
		c-4.9-2.5-6.5-9.6-3.6-14.3c2.9-4.7,9.3-6.7,14.5-5.1c0-1.1,0-2.1,0-3.2c-2.9-2.1-6.9-2.1-10.3-0.9c-8.9,3.3-13.1,15.4-8.2,23.5
		c-4.7,0.1-9.4,0.2-14.1,0.3C262.9,371.1,261.7,371.2,260.8,371.9z"/>
	<path fill="#000000" d="M513.8,345.2c-0.8,1.8,2,3,4,3.1c7,0.2,13.9,0.3,20.9,0.5c5.6,0.1,11.5,0.2,16.3-2.7c5.6-3.5,8.3-11,6.2-17.3
		c-2.2-6.2-9-10.5-15.6-9.7c-6.6,0.8-12.2,6.6-12.8,13.2c-0.4,3.9,0.9,7.9,2.3,11.5c-6.1,0.1-12.2,0.1-18.3,0.2
		C515.7,343.9,514.3,344.1,513.8,345.2z M542.4,324.5c4.9-2.5,11.8-0.2,14.1,4.9c2.1,4.5,0.3,10.5-3.9,13.1
		c-4.7,2.9-11.7,1.1-14.5-3.7C535.4,333.9,537.5,327,542.4,324.5z"/>
	<path fill="#000000" d="M491.2,248.9c0.7-1.5,1.3-3.2,0.5-4.6c-4.5-0.4-9.1-0.2-13.6,0.4c-2,0.3-4,0.7-5.6,1.8c-1.9,1.3-2.9,3.5-3.9,5.5
		c-7,14.6-14,29.2-21,43.9c-1,2.1-2,4.5-1.1,6.6c5.1,0,10.2,0,15.4,0c1.4,0,2.8,0,4-0.8c1.1-0.7,1.7-1.9,2.2-3.1
		C475.8,282,483.5,265.5,491.2,248.9z"/>
</g>
<path fill="#000000" d="M273.602,481.306c-0.578-0.576-1.301-1.03-2.174-1.362c-0.873-0.331-1.885-0.497-3.039-0.497
	c-0.663,0-1.463,0.079-2.4,0.238v-6.077h-1.535v17.711c0.706,0.202,1.402,0.354,2.087,0.454s1.301,0.151,1.849,0.151
	c1.153,0,2.166-0.162,3.039-0.486s1.596-0.764,2.174-1.319c0.576-0.555,1.006-1.211,1.287-1.968s0.42-1.561,0.42-2.411
	s-0.139-1.657-0.42-2.422C274.608,482.554,274.178,481.883,273.602,481.306z M272.391,489.167c-0.852,0.829-2.17,1.243-3.958,1.243
	c-0.39,0-0.805-0.032-1.244-0.097c-0.439-0.065-0.84-0.134-1.2-0.206v-8.845c0.447-0.115,0.887-0.194,1.319-0.237
	c0.433-0.044,0.808-0.065,1.125-0.065c0.894,0,1.668,0.112,2.325,0.335c0.656,0.224,1.199,0.545,1.633,0.963
	c0.432,0.418,0.752,0.919,0.961,1.503s0.314,1.243,0.314,1.979C273.667,487.195,273.241,488.338,272.391,489.167z M247.392,479.446
	c-0.62,0-1.297,0.079-2.033,0.238c-0.735,0.158-1.485,0.433-2.249,0.821l-0.065,1.73c0.548-0.303,0.973-0.52,1.276-0.649
	s0.624-0.237,0.962-0.324c0.338-0.086,0.677-0.158,1.016-0.216s0.667-0.087,0.984-0.087c1.139,0,1.982,0.249,2.53,0.746
	s0.822,1.33,0.822,2.498v0.13c-0.332-0.044-0.732-0.087-1.2-0.13c-0.469-0.043-0.876-0.065-1.222-0.065
	c-1.831,0-3.302,0.311-4.412,0.931c-1.11,0.619-1.665,1.644-1.665,3.07c0,0.707,0.155,1.305,0.465,1.795
	c0.31,0.49,0.713,0.88,1.211,1.168s1.067,0.497,1.708,0.627c0.641,0.13,1.308,0.194,2,0.194c0.807,0,1.6-0.072,2.378-0.216
	c0.779-0.145,1.536-0.368,2.271-0.671v-7.028c0-1.585-0.397-2.742-1.189-3.471C250.189,479.811,248.992,479.446,247.392,479.446z
	 M250.636,489.892c-0.375,0.144-0.858,0.267-1.449,0.367c-0.591,0.102-1.183,0.151-1.773,0.151c-0.505,0-0.984-0.035-1.438-0.108
	c-0.454-0.071-0.84-0.197-1.157-0.378c-0.317-0.18-0.57-0.414-0.757-0.703c-0.188-0.288-0.281-0.663-0.281-1.124
	c0-0.52,0.111-0.934,0.335-1.244c0.224-0.31,0.533-0.551,0.93-0.724c0.396-0.174,0.85-0.296,1.362-0.368
	c0.511-0.072,1.041-0.108,1.589-0.108c0.476,0,0.984,0.029,1.524,0.087c0.541,0.058,0.912,0.108,1.114,0.151V489.892z
	 M258.032,479.868c-0.649,0.122-1.276,0.263-1.881,0.422v11.418h1.535v-10.186c0.202-0.072,0.563-0.147,1.082-0.228
	c0.519-0.079,1.002-0.118,1.449-0.118h1.989v-1.492H260C259.336,479.685,258.681,479.746,258.032,479.868z M-77.92,487.667
	l241.145,0.656l0.663-0.433l-0.632-0.564L-77.92,487.667z M164.994,487.825l1.95,1.95l1.95-1.95l-1.95-1.95L164.994,487.825z
	 M169.559,487.825l3.057,3.057l3.057-3.057l-3.057-3.057L169.559,487.825z M212.359,489.286l-3.395-9.602h-1.514l-3.396,9.602
	l-2.984-9.602h-1.73l3.979,12.023h1.428l3.46-9.645l3.46,9.645h1.427l3.979-12.023h-1.73L212.359,489.286z M238.418,489.589
	c-0.317,0-0.591,0.115-0.822,0.346c-0.231,0.23-0.346,0.505-0.346,0.822c0,0.316,0.115,0.591,0.346,0.821
	c0.23,0.23,0.504,0.346,0.822,0.346c0.317,0,0.591-0.115,0.822-0.346c0.23-0.23,0.346-0.505,0.346-0.821
	c0-0.317-0.116-0.592-0.346-0.822C239.009,489.704,238.735,489.589,238.418,489.589z M193.243,489.286l-3.395-9.602h-1.514
	l-3.396,9.602l-2.984-9.602h-1.73l3.979,12.023h1.428l3.46-9.645l3.46,9.645h1.427l3.979-12.023h-1.73L193.243,489.286z
	 M231.476,489.286l-3.395-9.602h-1.514l-3.396,9.602l-2.984-9.602h-1.73l3.979,12.023h1.428l3.46-9.645l3.46,9.645h1.427
	l3.979-12.023h-1.73L231.476,489.286z M382.732,480.474c-0.426-0.396-0.938-0.667-1.535-0.812c-0.598-0.144-1.271-0.216-2.021-0.216
	c-0.664,0-1.393,0.09-2.184,0.271c-0.793,0.181-1.471,0.4-2.033,0.659c-0.346-0.331-0.818-0.569-1.416-0.714
	c-0.6-0.144-1.273-0.216-2.023-0.216c-0.635,0-1.268,0.058-1.902,0.173l-2.465,0.454v11.635h1.535v-10.38
	c0.447-0.102,0.883-0.188,1.309-0.26c0.424-0.072,0.896-0.108,1.416-0.108c0.605,0,1.125,0.058,1.557,0.173
	c0.434,0.116,0.789,0.321,1.07,0.616c0.281,0.296,0.494,0.711,0.639,1.244s0.217,1.24,0.217,2.119v6.596h1.535v-7.201
	c0-0.663-0.055-1.243-0.162-1.741c-0.109-0.497-0.213-0.861-0.314-1.092c0.086-0.043,0.281-0.119,0.584-0.228
	c0.303-0.107,0.602-0.197,0.898-0.27c0.295-0.072,0.586-0.126,0.875-0.162s0.547-0.055,0.779-0.055c0.59,0,1.102,0.058,1.535,0.173
	c0.432,0.116,0.781,0.317,1.049,0.605c0.266,0.289,0.471,0.703,0.615,1.244c0.145,0.54,0.217,1.251,0.217,2.13v6.596h1.535v-7.201
	c0-0.995-0.111-1.816-0.336-2.466C383.482,481.393,383.158,480.87,382.732,480.474z M280.1,474.581
	c-0.785,0.648-1.18,1.729-1.18,3.243v1.86h-2.551v1.492h2.551v10.531h1.537v-10.531h4.973v-1.492h-4.973v-1.471
	c0-0.635,0.045-1.149,0.141-1.546c0.094-0.396,0.24-0.707,0.443-0.931c0.201-0.223,0.475-0.385,0.82-0.486
	c0.346-0.101,0.779-0.151,1.299-0.151h2.422v-1.492h-2.271C281.956,473.607,280.885,473.932,280.1,474.581z M398.273,487.825
	l3.057,3.057l3.057-3.057l-3.057-3.057L398.273,487.825z M343.322,482.322c0.389-0.418,0.854-0.749,1.395-0.994
	s1.135-0.368,1.783-0.368c0.736,0,1.373,0.076,1.914,0.228s1.121,0.414,1.74,0.789l0.715-1.405c-0.707-0.39-1.393-0.674-2.055-0.854
	c-0.664-0.181-1.436-0.271-2.314-0.271c-0.85,0-1.639,0.155-2.367,0.465c-0.729,0.311-1.367,0.746-1.914,1.309
	c-0.549,0.563-0.98,1.222-1.297,1.979c-0.317,0.757-0.476,1.59-0.476,2.498s0.158,1.74,0.476,2.497
	c0.316,0.757,0.748,1.413,1.297,1.969c0.547,0.555,1.186,0.987,1.914,1.297c0.729,0.311,1.518,0.465,2.367,0.465
	c0.879,0,1.65-0.09,2.314-0.27c0.662-0.181,1.348-0.466,2.055-0.854l-0.715-1.406c-0.619,0.375-1.199,0.639-1.74,0.79
	s-1.178,0.227-1.914,0.227c-0.648,0-1.242-0.119-1.783-0.356c-0.541-0.238-1.006-0.565-1.395-0.984
	c-0.391-0.418-0.693-0.915-0.908-1.492c-0.217-0.576-0.324-1.203-0.324-1.881s0.107-1.305,0.324-1.882
	C342.628,483.238,342.931,482.741,343.322,482.322z M404.387,487.825l1.949,1.95l1.951-1.95l-1.951-1.95L404.387,487.825z
	 M410.701,487.326l-0.664,0.433l0.633,0.564l241.176-0.341L410.701,487.326z M362.611,481.295c-0.549-0.569-1.193-1.02-1.936-1.352
	c-0.742-0.331-1.547-0.497-2.412-0.497c-0.863,0-1.668,0.166-2.41,0.497c-0.742,0.332-1.389,0.782-1.936,1.352
	c-0.549,0.57-0.977,1.229-1.287,1.979c-0.311,0.749-0.465,1.557-0.465,2.422s0.154,1.672,0.465,2.422s0.738,1.409,1.287,1.979
	c0.547,0.569,1.193,1.017,1.936,1.341s1.547,0.486,2.41,0.486c0.865,0,1.67-0.162,2.412-0.486s1.387-0.771,1.936-1.341
	c0.547-0.569,0.977-1.229,1.287-1.979c0.309-0.75,0.465-1.557,0.465-2.422s-0.156-1.673-0.465-2.422
	C363.587,482.524,363.158,481.865,362.611,481.295z M362.394,487.523c-0.217,0.569-0.52,1.067-0.908,1.492
	c-0.389,0.426-0.857,0.765-1.406,1.017c-0.547,0.252-1.152,0.378-1.816,0.378c-0.662,0-1.268-0.126-1.816-0.378
	c-0.547-0.252-1.016-0.591-1.404-1.017c-0.391-0.425-0.693-0.923-0.908-1.492c-0.217-0.569-0.324-1.179-0.324-1.827
	c0-0.649,0.107-1.262,0.324-1.839c0.215-0.576,0.518-1.077,0.908-1.503c0.389-0.425,0.857-0.764,1.404-1.016
	c0.549-0.252,1.154-0.379,1.816-0.379c0.664,0,1.27,0.127,1.816,0.379c0.549,0.252,1.018,0.591,1.406,1.016
	c0.389,0.426,0.691,0.927,0.908,1.503c0.217,0.577,0.324,1.189,0.324,1.839C362.718,486.345,362.611,486.954,362.394,487.523z
	 M296.221,481.295c-0.547-0.569-1.191-1.02-1.936-1.352c-0.742-0.331-1.545-0.497-2.41-0.497s-1.67,0.166-2.412,0.497
	c-0.742,0.332-1.387,0.782-1.936,1.352c-0.547,0.57-0.977,1.229-1.285,1.979c-0.311,0.749-0.465,1.557-0.465,2.422
	s0.154,1.672,0.465,2.422c0.309,0.75,0.738,1.409,1.285,1.979c0.549,0.569,1.193,1.017,1.936,1.341s1.547,0.486,2.412,0.486
	s1.668-0.162,2.41-0.486c0.744-0.324,1.389-0.771,1.936-1.341c0.549-0.569,0.977-1.229,1.287-1.979s0.465-1.557,0.465-2.422
	s-0.154-1.673-0.465-2.422C297.198,482.524,296.77,481.865,296.221,481.295z M296.006,487.523c-0.217,0.569-0.52,1.067-0.908,1.492
	c-0.391,0.426-0.859,0.765-1.406,1.017c-0.549,0.252-1.154,0.378-1.816,0.378c-0.664,0-1.27-0.126-1.816-0.378
	c-0.549-0.252-1.018-0.591-1.406-1.017c-0.389-0.425-0.691-0.923-0.908-1.492s-0.324-1.179-0.324-1.827
	c0-0.649,0.107-1.262,0.324-1.839c0.217-0.576,0.52-1.077,0.908-1.503c0.389-0.425,0.857-0.764,1.406-1.016
	c0.547-0.252,1.152-0.379,1.816-0.379c0.662,0,1.268,0.127,1.816,0.379c0.547,0.252,1.016,0.591,1.406,1.016
	c0.389,0.426,0.691,0.927,0.908,1.503c0.215,0.577,0.324,1.189,0.324,1.839C296.331,486.345,296.221,486.954,296.006,487.523z
	 M309.381,480.463c-0.455-0.39-0.996-0.656-1.623-0.801c-0.627-0.144-1.309-0.216-2.043-0.216c-0.707,0-1.465,0.047-2.271,0.141
	s-1.701,0.234-2.682,0.422v11.699h1.535v-10.402c1.184-0.23,2.293-0.346,3.33-0.346c0.592,0,1.111,0.062,1.559,0.184
	c0.445,0.123,0.818,0.332,1.113,0.628c0.295,0.295,0.525,0.713,0.691,1.254s0.25,1.251,0.25,2.13v6.553h1.535v-7.201
	c0-0.995-0.119-1.82-0.357-2.477C310.18,481.375,309.834,480.852,309.381,480.463z M318.516,490.054
	c-0.346-0.108-0.619-0.277-0.82-0.509c-0.203-0.23-0.35-0.547-0.443-0.951c-0.096-0.403-0.141-0.922-0.141-1.557v-5.86h4.973v-1.492
	h-4.973v-4.347h-1.537v4.347h-2.551v1.492h2.551v6.466c0,0.764,0.109,1.405,0.326,1.925c0.215,0.519,0.525,0.937,0.93,1.254
	c0.402,0.317,0.867,0.544,1.395,0.682c0.525,0.137,1.105,0.205,1.74,0.205h2.271v-1.492h-2.422
	C319.295,490.216,318.862,490.162,318.516,490.054z M337.784,489.589c-0.316,0-0.59,0.115-0.82,0.346s-0.346,0.505-0.346,0.822
	c0,0.316,0.115,0.591,0.346,0.821s0.504,0.346,0.82,0.346c0.318,0,0.592-0.115,0.822-0.346s0.346-0.505,0.346-0.821
	c0-0.317-0.115-0.592-0.346-0.822S338.102,489.589,337.784,489.589z M333.178,486.106c-0.346-0.303-0.785-0.565-1.318-0.789
	c-0.533-0.223-1.182-0.422-1.947-0.595l-0.799-0.173c-1.053-0.216-1.781-0.461-2.184-0.735c-0.404-0.273-0.607-0.678-0.607-1.211
	c0-0.504,0.238-0.904,0.715-1.2c0.475-0.295,1.174-0.443,2.098-0.443c0.793,0,1.477,0.076,2.055,0.228
	c0.576,0.151,1.217,0.421,1.924,0.811l0.691-1.405c-1.412-0.765-2.969-1.146-4.67-1.146c-0.635,0-1.223,0.076-1.764,0.228
	c-0.539,0.151-1.008,0.364-1.404,0.638s-0.711,0.605-0.941,0.994c-0.23,0.39-0.346,0.815-0.346,1.276
	c0,0.462,0.072,0.88,0.217,1.254c0.143,0.375,0.381,0.707,0.713,0.995s0.758,0.537,1.275,0.746c0.52,0.209,1.146,0.4,1.883,0.573
	l0.908,0.194c1.008,0.217,1.729,0.49,2.162,0.822c0.432,0.331,0.648,0.771,0.648,1.318c0,0.39-0.086,0.707-0.26,0.952
	c-0.172,0.245-0.414,0.436-0.725,0.573c-0.311,0.137-0.678,0.237-1.102,0.303c-0.426,0.064-0.877,0.097-1.352,0.097
	c-0.592,0-1.223-0.09-1.893-0.271c-0.67-0.18-1.352-0.479-2.045-0.897l-0.734,1.471c0.779,0.433,1.539,0.742,2.281,0.93
	s1.539,0.281,2.391,0.281c0.748,0,1.434-0.072,2.053-0.216c0.621-0.145,1.158-0.36,1.611-0.648c0.455-0.289,0.805-0.649,1.049-1.082
	c0.246-0.433,0.369-0.93,0.369-1.492c0-0.476-0.072-0.915-0.217-1.318C333.77,486.763,333.526,486.41,333.178,486.106z"/>
</svg>

