<?xml version="1.0" encoding="utf-8"?>
<!-- Generator: Adobe Illustrator 22.1.0, SVG Export Plug-In . SVG Version: 6.00 Build 0)  -->
<svg version="1.1" id="Layer_1" xmlns="http://www.w3.org/2000/svg" xmlns:xlink="http://www.w3.org/1999/xlink" x="0px" y="0px"
	 viewBox="0 0 800 500" style="enable-background:new 0 0 800 500;" xml:space="preserve">
<g>
	<polygon points="553.3,185.4 553.3,187.5 553.6,187.7 554.2,186.5 553.6,185.2 	"/>
	<polygon points="555.7,186.4 555.7,186.7 555.9,187.7 557.1,188.4 557.4,187.9 557.4,185.4 556.5,185.4 	"/>
	<polygon points="404.7,210 404.7,211 405.9,211 405.7,210.2 	"/>
	<path fill="#000000" d="M484.5,275.9l0.6,3l0.6,0.4l0.6,2.7l1.1,0.9l1.3,2.8l0.6,0.4l0.6,1.3l1.1,0.9l0.8,1.3l0.9,0.2l1.5,1.7l4.4,3.8l2.5,1.5
		l1.7,1.5l3.2,0.9l1,0.8l1.7,0.2l1,0.8l3,0.2l5.9,0.8h5.3l5.9-0.8l5.7-1.3l0.6-0.4l2.8-0.4l0.9-0.9l1.9-0.6l0.6-0.6l1.9-0.6l1.1-0.9
		l1.3-0.4l0.4-0.6l1.3-0.8l0.4-0.6l1.3-0.6l4-3.8l4.6-4.6l3.6-4.6h0.4V279l2.3-2.3l0.9-2.1l1.1-1.1l0.2-1l0.9-1.3l2.7-5.5l0.2-3
		l3-4.9l2.3-5.9l2.3-5.5l1.9-6.1l1.5-2.7l1.7-3.8l2.3-4.6v-0.8l1.3-2.7l0.2-1.3l1.3-2.5l1.5-5.7l1.9-3l1.7-5.7l0.6-0.4l1.3-3.8h0.4
		l0.6-2.1l1-2.1l0.1-0.1l0.4-0.8l8.2-17.5l2.5-5.3l0.8-3.2l1.1-2.7l1.1-0.9l0.2-1.1l0.8-0.2l1-2.1l0.2-2.3l0.6-0.4l0.4-2.1l1-0.9
		l0.8-4.2l0.9-0.9l0.2-1.3l1-1.3l1.9-5.7l-0.2-1.5l-1.5-2.3l-2.8-1.3l-3.2-0.4l-3.4,0.2l-2.3,0.9l-3.6,3l-0.8,1.9l-2.7,5.5l-0.2,1.5
		l-0.6,0.4l-1.3,3.8l-2.5,5.7l-2.1,5.1l-2.1,5.5l-5.9,12.6c-0.2-0.1-0.3-0.1-0.5-0.1l-0.3,1.4l-0.9,1.1l-0.7,2.7l-3.1,6.5l-1.3,4.2
		l-0.6,0.4l0,0c0.2,0,0.4,0,0.6,0l-0.4,0.8l-0.2,1.3l-1.1,1.1l-0.2,2.3h-0.4l-0.4,0.9l-2.3,5.5h-0.4v0.8l-1.1,2.1l-0.8,2.7l-0.8,1.3
		l-1.7,4.7l-0.8,2.8l-1.9,5.7l-1.9,2.7l-1.1,2.3l-0.8,2.8l-2.1,4.7l-1.3,5.1h-0.4v0.9h-0.6v0.8l-0.8,1.3v0.8H557v0.9h-0.6l-0.2,1.1
		l-0.6,0.6l-0.4,2.1l-1.1,0.9l-0.2,0.8l-1,0.9v0.8h-0.4l-0.2,1.1l-0.6,0.6l-0.4,1.3l-2.1,2.8l-0.2,1.1l-3.8,3.8l-4,4.4l-1.3,0.4
		l-0.8,0.9l-1.5,0.6l-1.1,1.3l-5.1,2.3l-5.7,1.7l-3.2,0.2l-6.6-0.4l-2.3-0.6l-5.9-1.7l-4.2-4.4l-1.3-0.2l-3-4.6l-1.3-5.1h-0.4v-1.3
		l-0.4-6.6l0.6-5.5l0.8-1.1l0.2-1.1l1.5-2.7h0.4v-0.9l1.7-1.3l0.4-1.3l0.9-0.9l2.5-1.5l1.1-1.5l3-1.5l3-1l6.3-1.5l0.9-0.8l0.2-1.1
		l1-0.4v-0.8l0.4-5.7l-0.4-0.4V230l-1.3-2.1l-2.1-1.7h-2.1l-5.9,1.1l-4.9,1.3l-0.4,0.6l-2.7,1.1l-2.7,1.7h-0.8l-0.8,1.1l-1.1,0.4
		l-0.2,0.8l-2.3,2.1l-4.6,4.4l-0.9,2.1l-1.7,1.7l-2.7,3.8l-0.8,3.6l-0.6,0.4l-0.9,5.9l-0.4,6.5l0.6,5.7L484.5,275.9z"/>
	<path fill="#000000" d="M245.2,357.9l1.7,2.5l4.4,4.6l2.3,1.5l4.6,0.8l2.7,0.9l5.9,0.4l6.3-1.1l0.4-0.6h0.8l3.8-2.3l1.1-0.2l1.7-1.5l1.3-0.2v-0.4
		h0.8l0.6-0.9h0.4l2.1-1.7l1.1-0.2l1.5-1.7l4.2-4.6l3.2-4.2l1.1-0.9l0.8-1.5l0.6-0.2l0.2-1.1l1.3-2.1l0.6-0.2v-0.9l1.1-1.1l0.8-1.9
		l1.7-2.3l1.5-2.8V333h0.6v-0.9h0.4l0.8-3h0.6l0.8-3l2.1-5.7l1-3.3c0.2,0,0.5,0,0.7,0l0-0.1l0.6-2.4l0.7,0l0.7-1.7l1.5-5.6l0.4-0.2
		l0.5-2.9l0.9-1l0-0.8l0.7-0.4l0.5-1.9l0.6-0.6l1.1-6.1l-0.4-1.3l-2.1-1.6l-2.5-0.1l-3,0.7l-5.9,0.4l-1.9,1.2l-1.3,1.8l-1.9,5.8
		l-0.6,0l-0.2,0.8l-0.7,0.7l-0.1,2.3l-0.4,0l-0.4,1l-2.1,5.6l-0.4,0l0,0.8l-0.9,1.9l0,0l0,0l-0.1,0.2l-0.7,2.7l-0.2,0.4
		c0.1,0,0.3,0,0.4,0l-0.4,2.8l-0.6,0.4l-0.2,0.9l-0.8,0.9l-0.9,3l-1.7,2.5l-0.4,1.3l-0.9,1.3l-2.8,5.5l-0.4,1.3l-1.7,2.1l-0.2,0.9
		l-3.2,4.2l-3.8,4.7l-0.2,0.4l-3.2,3.6l-2.1,1.5l-2.5,1.1l-2.8,0.8h-3.8l-0.2-0.4l-0.8-0.2l-0.4-0.8h-0.8l-1.7-2.1l-1.1-3L257,344
		l0.2-1.3l1.3-6.3l0.3-4.2l1.1-2.9l0.4-2.9l0.1-0.3l1.2-1.9l0.4-1.3l1.3-1.1l0.6-0.9l0.4-2.1v-3.2l0.4-0.2l2.3-4.4v-2.3l0.8-3
		l0.4-0.2l1.5-5.9v-3l0.4-5.9v-6.3l-0.8-2.7l-2.5-5.7l-1.7-2.5l-4.4-4.6l-2.3-1.5l-4.6-0.8l-2.7-1l-5.9-0.4l-6.3,1.1l-0.4,0.6h-0.8
		l-3.8,2.3l-1.1,0.2l-1.7,1.5l-1.3,0.2v0.4h-0.8l-0.6,0.9h-0.4l-2.1,1.7l-1.1,0.2l-1.5,1.7l-4.2,4.6l-3.2,4.2l-1.1,0.9l-0.8,1.5
		l-0.6,0.2l-0.2,1.1l-1.3,2.1l-0.6,0.2v0.9l-1.1,1.1l-0.8,1.9l-1.7,2.3l-1.5,2.8v0.8h-0.6v0.9h-0.4l-0.8,3H204l-0.8,3l-1,2.8h-0.7
		l-0.4,1h-0.4v0.8l-1.1,2.1l-0.8,2.7l-0.8,1.3l-1.7,4.7l-0.8,2.8l-1.9,5.7l-1.9,2.7l-1.1,2.3l-0.8,2.8l-2.1,4.7l-1.3,5.1h-0.4v0.9
		h-0.6v0.8l-0.8,1.3v0.8h-0.4v0.9h-0.6l-0.2,1.1l-0.6,0.6l-0.4,2.1l-1.1,0.9l-0.2,0.8l-0.9,0.9v0.8H180l-0.2,1.1l-0.6,0.6l-0.4,1.3
		l-2.1,2.8l-0.2,1.1l-3.8,3.8l-4,4.4l-1.3,0.4l-0.8,1l-1.5,0.6l-1.1,1.3l-5.1,2.3l-5.7,1.7l-3.2,0.2l-6.6-0.4l-2.3-0.6l-5.9-1.7
		l-4.2-4.4l-1.3-0.2l-3-4.6l-1.3-5.1H125v-1.3l-0.4-6.6l0.6-5.5l0.8-1.1l0.2-1.1l1.5-2.7h0.4v-0.9l1.7-1.3l0.4-1.3l0.9-0.9l2.5-1.5
		l1.1-1.5l3-1.5l3-0.9l6.3-1.5l0.9-0.8l0.2-1.1l0.9-0.4v-0.8l0.4-5.7l-0.4-0.4v-1.3l-1.3-2.1l-2.1-1.7h-2.1l-5.9,1.1l-4.9,1.3
		l-0.4,0.6l-2.7,1.1l-2.7,1.7h-0.8l-0.8,1.1l-1.1,0.4l-0.2,0.8l-2.3,2.1l-4.6,4.4l-1,2.1l-1.7,1.7l-2.7,3.8l-0.8,3.6l-0.6,0.4
		l-0.9,5.9l-0.4,6.5l0.6,5.7l1.9,5.5l0.6,3l0.6,0.4l0.6,2.7l1.1,0.9l1.3,2.8l0.6,0.4l0.6,1.3l1.1,0.9l0.8,1.3l0.9,0.2l1.5,1.7
		l4.4,3.8l2.5,1.5l1.7,1.5l3.2,1l0.9,0.8l1.7,0.2l0.9,0.8l3,0.2l5.9,0.8h5.3l5.9-0.8l5.7-1.3l0.6-0.4l2.8-0.4l0.9-1l1.9-0.6l0.6-0.6
		l1.9-0.6l1.1-0.9l1.3-0.4l0.4-0.6l1.3-0.8l0.4-0.6l1.3-0.6l4-3.8l4.6-4.6l3.6-4.6h0.4v-0.9l2.3-2.3l0.9-2.1l1.1-1.1l0.2-0.9
		l0.9-1.3l2.7-5.5l0.2-3l0.1-0.2l0.3,1.2l1.1,0.8l0.6,1.5l1.1,1.1l5.1,3.6l1.3,0.2l0.8,0.9h1.3l0.4,0.4h2.3l0.4,0.4l3-0.4l5.9,0.4
		l2.7-1.1l4.7-1.3l1.3-0.9h0.8l4.7-3.4l1.1-0.2l0.9-1.3l1.1-0.4l1.1-0.9l3.6-3.9L245.2,357.9z M235.8,341.6l0.1,0.2l-1,1.9l-3.6,5.3
		l-2.3,1.9l-4.6,4l-1.1,0.2l-0.4,0.8l-3.8,0.9l-2.3-0.4l-2.8-1.1l-2.3-1.9v-0.9l-1-1.9l-0.6-3v-6.8l0.6-2.7l0.8-6.3l0.4-0.4l1.1-5.2
		l0.1-0.3v-0.1l1.8-3.9l0.9-1.1l0.6-3.9l0.6-2.3l0.3-0.2l0.2-0.9l0.8-0.9l0.5-1.5l0.2-0.2H219l0.4-1.3l1.7-2.5l0.4-1.3l0.9-1.3
		l2.8-5.5l0.4-1.3l1.7-2.1l0.2-0.9l3.2-4.2l3.8-4.7l0.2-0.4l3.2-3.6l2.1-1.5l2.5-1.1l2.8-0.8h3.8l0.2,0.4l0.8,0.2l0.4,0.8h0.8
		l1.7,2.1l1.1,3l0.8,5.3l-0.2,1.3l-1.3,6.3l-0.4,5.9l-0.6,0.6l-0.6,3l-0.9,2.7h-0.4l-0.9,3.6l-1,2.7c0,0.1,0,0.2,0,0.3
		c-0.2,0.7-0.5,1.3-0.8,2l-0.2,0.6l0,0c-0.4,0.9-0.8,1.7-1.2,2.6c-0.2,0-0.3,0-0.5,0l-0.8,1.5v1.1
		C242.3,329.8,239.6,336.4,235.8,341.6z"/>
	<path fill="#000000" d="M708.7,176.6l-0.6-3l-0.6-0.4l-0.6-2.7l-1.1-0.9l-1.3-2.8l-0.6-0.4l-0.6-1.3l-1.1-0.9l-0.8-1.3l-0.9-0.2l-1.5-1.7l-4.4-3.8
		l-2.5-1.5l-1.7-1.5l-3.2-0.9l-1-0.8l-1.7-0.2l-1-0.8l-3-0.2l-5.9-0.8h-5.3l-5.9,0.8l-5.7,1.3l-0.6,0.4l-2.8,0.4l-0.9,0.9l-1.9,0.6
		l-0.6,0.6l-1.9,0.6l-1.1,0.9l-1.3,0.4l-0.4,0.6l-1.3,0.8l-0.4,0.6l-1.3,0.6l-4,3.8l-4.6,4.6l-3.6,4.6h-0.4v0.9l-2.3,2.3l-0.9,2.1
		l-1.1,1.1l-0.2,1l-0.9,1.3l-2.7,5.5l-0.2,3l-3,4.9l-2.3,5.9l-2.3,5.5l-1.9,6.1l-1.5,2.7l-1.7,3.8l-2.3,4.6v0.8l-1.3,2.7l-0.2,1.3
		l-1.3,2.5l-1.5,5.7l-1.9,3l-1.7,5.7l-0.6,0.4l-1.3,3.8h-0.4l-0.6,2.1l-1,2.1l-0.1,0.1l-0.4,0.8l-8.2,17.5l-2.5,5.3l-0.8,3.2
		l-1.1,2.7l-1.1,0.9l-0.2,1.1l-0.8,0.2l-1,2.1l-0.2,2.3l-0.6,0.4l-0.4,2.1l-1,0.9l-0.8,4.2l-0.9,0.9l-0.2,1.3l-1,1.3l-1.9,5.7
		l0.2,1.5l1.5,2.3l2.8,1.3l0.1,0l0.1,0.1l1.2,0.5l0.2,0.5l5.4,1.8l0.7,0.3l0.7-0.7l1.1,0.3l1.1-0.6l3.8-5.2l2-2.4l2.6-2.2l1.8-0.5
		l2.3-1.7l1.2-0.5l1.4,0.2l1.9-1.1l0.9,0.4l0.1-0.4l3-0.4l1.1,0.3l1.3-0.3l5.3,1.6l6,2.9l1.2,0.5l-0.1,0.4l4.2,3.2l3.1,4.5l-0.3,1.3
		l2.5,5.5l-0.7,6.1l-0.3,2.3l-2.2,6.3l-1.4,2.9l-3.7,4.6l-4.1,3.9l-1.7,0.6l-1.1,1.2l-1.2,0.3l-0.9,1.1l-5.6,2l-5,2.1l-1.1-0.3
		l-3.4,0.8l-1.4-0.2l-0.7,0.3l-1.1-0.3l-0.1,0.3l-0.7-0.3l-1.2,0.5l-0.8-0.1l-1.3,0.7l-2.1-0.4l-0.7,0.3l-1.1-0.3l-0.2,0.5l-0.9-0.4
		l-0.1,0.4l-0.7-0.3l-1.5,0.2l-0.7-0.3l-0.2,0.5l-0.9-0.4l-0.1,0.3l-5.2-0.7l-5.2,0.1l-2.9-0.4l-2.5,0.2l-3.2,0.7l-6-0.4l-2.9-0.4
		l-5-0.2l-1.5,0.2l-2.7-0.3l-2.4,0.3l-0.7-0.3l-0.1,0.4l-6,0l-1,0l-0.1,0.3l-2.2-0.7l-1.5,0.6l-1.3-0.3l-0.9,0.1
		c0.1-0.2,0.1-0.4,0.2-0.6l0,0l-0.6,0.4l-4.4-0.4l-7.2,0.4l-2.8-0.4l-1.4,0.4l-1.5-0.3c0,0.2,0,0.3,0,0.5l-13.9,0.7l-5.9-0.2
		l-46.5,0l-75.8,0.1c-0.9,0-1.8,0-2.7,0l-2.7-0.1l-0.6,0.4l-1.5-0.4l-6.1,0.4l-1.5,0c0-0.1,0-0.2-0.1-0.2l-0.1,0l-5.9,1.6l-0.2-0.4
		l-1.4,0.2l-0.4-0.8h-0.8l-1.6-1.4l-1.4-1.7l-0.8-5.3l0.2-1.3l1.3-6.3l0.4-5.9l0.6-0.6l0.6-3l0.9-2.7h0.4l0.1-0.5
		c-0.3,0-0.5,0-0.8,0l1.2-2.5l0-0.8l1.2-2.7l0.1-1.3l1.2-2.5l0.6-2.4l0.7,0l0.7-1.7l1.5-5.6l0.4-0.2l0.5-2.9l0.9-1l0-0.8l0.7-0.4
		l0.5-1.9l0.6-0.6l1.1-6.1l-0.4-1.3l-2.1-1.6l-2.5-0.1l-3,0.7l-5.9,0.4l-1.9,1.2l-1.3,1.8l-1.9,5.8l-0.6,0l-0.2,0.8l-0.7,0.7
		l-0.1,2.3l-0.4,0l-0.4,1l-2.1,5.6l-0.4,0l0,0.8l-1.1,2.1l-0.7,2.7l-0.7,1.4l-1.6,4.8l-0.7,2.9l-1.7,5.8l-1.8,2.7l-1.1,2.3l-0.7,2.9
		l-1.9,4.8l-1.2,5.2l-0.4,0l0,0.9l-0.6,0l0,0.8l-0.7,1.4l0,0.8l-0.4,0l0,0.9l-0.6,0l-0.2,1.1l-0.6,0.6l-0.3,2.1l-1.1,1l-0.2,0.8
		l-0.9,1l0,0.8l-0.4,0l-0.2,1.1l-0.5,0.6l-0.3,1.3l-2,2.9l-0.2,1.1l-3.7,3.9l-3.8,4.5l-1.3,0.4l-0.7,1l-1.5,0.6l-1.1,1.4l-4.9,2.4
		c0,0,0,0,0-0.1l-0.4,0.2l-0.6,0.2l-0.2-0.2l-0.3,0.3l-0.5,0.2l-0.1-0.1l-0.1,0.2l-0.6,0.2l-0.1-0.1l-0.1,0.1l-2.4,0.8l-1.1,0.1
		l-0.3,0.1l-2.1,0.2l-1.9,0c0,0.2,0,0.5,0,0.7l-1.5,0.3l-2.3,0.2l-6.3,0.1l-2.8,0.8l-0.9,1l0,0.5l-0.9,1.2l0.3,1.6l-0.6,1l0.3,0.8
		L270,393l0.2,2.5l0.6,0.5l-0.4,1l1.8,2l3,1.2l3,0.2l5.9-0.2l5.9-0.7l1.2-0.7l1.3,0.2l1.3-0.6l2.4-0.1l2-1l2-0.7l0,0l0,0l0.9-0.3
		c0,0,0-0.1-0.1-0.1l2.6-0.4l0.9-1l1.9-0.6l0.6-0.6l1.9-0.6l1.1-1l1.3-0.4l0.4-0.6l1.3-0.8l0.4-0.6l1.3-0.6l3.9-3.9l4.4-4.7l3.5-4.7
		l0.4,0l0-0.9l2.2-2.3l0.9-2.1l1.1-1.2l0.2-1l0.9-1.4l1.5-3.4l0,0l4.4,4.6l2.3,1.5l4.6,0.8l2.7,0.9l5.9,0.4l0.2,0l2.9,0.2l1.6-0.4
		l1.3,0.3l1.2-0.5l4.2,0.9l1.2-0.5l2.1,0.4l0.6-0.4l2.2,0.7l73.2-0.1l0.5-0.6l1.1,0.3l1.3-0.7l43.8,0l3.3,0.5l5.9-0.3l19.3-1l0.9,0
		l0.2,0l2.3-0.1l2.2,0.2l0.1-0.4l4,0.2l0.6-0.4l5.9,0.6l3.5-0.6l5.8,0.8l2.8-0.3l1.3,0.3l3-0.2l0.7,0.3l5.1-0.4l4.2-0.1l3-0.4
		l6.3,0.6l6,0l6.3,0.1l5.7-0.9l2.9,1l6.1-0.4l1.6-0.4l1,0.2l1.5-0.6l2.3-0.1l3-1.2l0.9,0.4l0.1-0.3l5.6-1.6l5.9-2.5l5-2.2l1-1
		l0.7-0.1l1.2-0.9l0.7-0.1l0.9-1.1l1.3-0.7l1.2-1.5l0.7-0.3l1.2-1.5l1.2-0.5l1.4-2.5l0.6-0.4l3.4-4.8l2.9-5.2l2-4.9l1.5-5.7l1-2.9
		l-0.3-1.2l0.5-1.6l-0.3-1.2l0.3-3.3l-0.8-2.2l-0.5-2.9l-1.9-5.5l-1-2.1l0.2-1l-0.9-1.2l-0.4-1.4l-1-1l-0.1-0.7l-2.1-2.3l-0.4-1.4
		l-2.2-1.5l-0.1-0.7l-2.6-1.7l-4.4-3.8l-5.1-2.7l-6.1-2.1l-5.8-1.4l-0.6,0.4l-3.6-0.7l-4.5,1l-2.2,0.9l-2.3,0.1l-0.8,0.4l1.2-2.9
		l2.1-5.5l5.9-12.6c0.2,0.1,0.3,0.1,0.5,0.1l0.3-1.4l0.9-1.1l0.7-2.7l3.1-6.5l1.3-4.2l0.6-0.4l0,0c-0.2,0-0.4,0-0.6,0l0.4-0.8
		l0.2-1.3l1.1-1.1l0.2-2.3h0.4l0.4-0.9l2.3-5.5h0.4v-0.8l1.1-2.1l0.8-2.7l0.8-1.3l1.7-4.7l0.8-2.8l1.9-5.7l1.9-2.7l1.1-2.3l0.8-2.8
		l2.1-4.7l1.3-5.1h0.4v-0.9h0.6V198l0.8-1.3v-0.8h0.4V195h0.6l0.2-1.1l0.6-0.6l0.4-2.1l1.1-0.9l0.2-0.8l1-0.9v-0.8h0.4l0.2-1.1
		l0.6-0.6l0.4-1.3l2.1-2.8l0.2-1.1l3.8-3.8l4-4.4l1.3-0.4l0.8-0.9l1.5-0.6l1.1-1.3l5.1-2.3l5.7-1.7l3.2-0.2l6.6,0.4l2.3,0.6l5.9,1.7
		l4.2,4.4l1.3,0.2l3,4.6l1.3,5.1h0.4v1.3l0.4,6.6l-0.6,5.5l-0.8,1.1l-0.2,1.1l-1.5,2.7h-0.4v0.9l-1.7,1.3l-0.4,1.3l-0.9,0.9
		l-2.5,1.5l-1.1,1.5l-3,1.5l-3,1l-6.3,1.5l-0.9,0.8l-0.2,1.1l-1,0.4v0.8l-0.4,5.7l0.4,0.4v1.3l1.3,2.1l2.1,1.7h2.1l5.9-1.1l4.9-1.3
		l0.4-0.6l2.7-1.1l2.7-1.7h0.8l0.8-1.1l1.1-0.4l0.2-0.8l2.3-2.1l4.6-4.4l0.9-2.1l1.7-1.7l2.7-3.8l0.8-3.6l0.6-0.4l0.9-5.9l0.4-6.5
		l-0.6-5.7L708.7,176.6z"/>
	<path fill="#000000" d="M461.7,211.1l0.4-0.8l0.2,0l2.1,2.2l2.3,1.5l4.6,0.8l2.7,0.9l5.9,0.4l6.3-1.1l0.4-0.6h0.8l3.8-2.3l1.1-0.2l1.7-1.5l1.3-0.2
		v-0.4h0.8l0.6-0.9h0.4l2.1-1.7l1.1-0.2l1.5-1.7l3-3.2l0.2,0.5l0.4,2.7l0.9,0.9l0.6,2.1l1.1,0.8l0.6,1.5l1.1,1.1l5.1,3.6l1.3,0.2
		l0.8,0.9h1.3l0.4,0.4h2.3l0.4,0.4l3-0.4l5.9,0.4l2.7-1.1l4.7-1.3l1.3-1h0.8l4.7-3.4l1.1-0.2l0.9-1.3l1.1-0.4l1.1-0.9l4.6-4.9
		l3.8-4.7l0.6-0.2c1.4-3,3.7-5.6,4.9-8.7c1.2-2.9,2.3-5.6,4-8.1l1.3-3.4l0.4-3l1.3-2.1l0.4-1.3l1.3-1.1l0.6-0.9l0.4-2.1v-3.2
		l0.4-0.2l2.3-4.4v-2.3l0.8-3l0.4-0.2l1.5-5.9v-3l0.4-5.9v-6.3l-0.8-2.7l-2.5-5.7l-1.7-2.5l-4.4-4.6l-2.3-1.5l-4.6-0.8l-2.7-0.9
		l-5.9-0.4l-6.3,1.1l-0.4,0.6h-0.8l-3.8,2.3l-1.1,0.2L539,119l-1.3,0.2v0.4h-0.8l-0.6,0.9H536l-2.1,1.7l-1.1,0.2l-1.5,1.7l-4.2,4.6
		l-3.2,4.2l-1.1,0.9l-0.8,1.5l-0.6,0.2l-0.2,1.1l-1.3,2.1l-0.6,0.2v0.9l-1.1,1.1l-0.8,1.9l-1.7,2.3l-1.5,2.8v0.8h-0.6v0.9h-0.4
		l-0.8,3h-0.6l-0.8,3l-1.4,3.8l-0.8,1l-0.4,2.8l-1.1,3.7l-0.6,1.4l-0.3,0.4l-0.4,1.2l-1,2.3l0,0.1l-1.3,1.8l-0.4,1.3l-0.9,1.3
		l-2.8,5.5l-0.4,1.3l-1.7,2.1l-0.2,0.9l-3.2,4.2l-3.8,4.7l-0.2,0.4l-3.2,3.6l-2.1,1.5l-2.5,1.1l-2.8,0.8h-3.8l-0.2-0.4l-0.8-0.2
		l-0.4-0.8h-0.8l-1-1.2l0.6-0.9h0.4v-0.8h0.6v-0.9l2.1-2.1v-0.8l2.1-2.3l0.2-0.9l1.1-1.1l0.2-1.3l0.8-1.3l1.7-5.7l1.9-5.7l0.6-2.8
		l0.4-6.1l-0.4-6.1l-0.4-5.9h-0.4l-0.9-3.2l-1.5-5.7l-0.9-1.3l-0.4-1.3l-0.9-1.1v-0.8l-0.9-0.6l-1.7-4.4l-0.8-0.4v-0.9l-0.9-0.4
		l-0.4-1.3l-2.5-1.9l-0.4-1.1l-1.1-1.3l-2.5-1.5v-0.6h-0.9v-0.4h-0.8v-0.4l-1.1-0.2l-3.2-3.2l-4.7-3.4l-2.7-0.9h-1.5l-2.7-0.8
		l-1.3-1h-0.8l-2.7-1.1l-3.2-0.4l-4.7-0.9l-5.9,0.2l-6.3,0.4l-5.7,0.6v0.4h-0.8l-1.3,0.9l-1.1,0.2l-0.6,0.6h-1.3l-1.1,1.1l-2.3,0.8
		l-0.4,0.8l-2.7,1.5l-5.5,1.9l-1.7,1.5l-4.2,4l-4.4,4.2l-0.2,1.1l-0.8,0.4l-1.7,2.7v0.8h-0.4v0.9H389v0.8h-0.4v0.9h-0.4v0.8l-3.2,4
		l-0.1,0.7l-0.5,0.4l-0.8,1.9l-2.7,5.5l-0.2,1.5l-0.6,0.4l-1.3,3.8l-2.5,5.7l-2.1,5.1l-2.1,5.5l-5.9,12.6c-0.2-0.1-0.3-0.1-0.5-0.1
		l-0.3,1.4l-0.9,1.1l-0.7,2.7l-3.1,6.5l-0.7,2.3l-0.2-0.1l-0.4-0.8h-0.8L357,201l-1.1-3l-0.8-5.3l0.2-1.3l1.3-6.3l0.3-4.8l0.3-1.4
		l0.3-0.3l0.2-1h0.4l0.8-3l0.5-1.5c-0.1,0-0.2,0-0.3,0l0,0l0.1-0.2h0.3l0.1-0.5c0,0,0,0,0,0l0.4-0.6l1.8-5.7l-0.2-1.5l-1.4-2.3
		l-2.7-1.3l-3-0.4l-3.2,0.2l-2.1,0.9l-3.4,3l-0.7,1.9l-2.5,5.5l-0.2,1.3h0.1l-1.5,2.1l-0.4,1.3l-0.9,1.3l-2.8,5.5l-0.4,1.3l-1.7,2.1
		l-0.2,0.9l-3.2,4.2l-3.8,4.7l-0.2,0.4l-3.2,3.6l-2.1,1.5l-2.5,1.1l-2.8,0.8H313l-0.2-0.4l-0.8-0.2l-0.4-0.8h-0.8l-1.7-2.1l-1.1-3
		l-0.8-5.3l0.2-1.3l1.3-6.3l0.4-5.9l0.6-0.6l0.6-3l0.8-2.1h1l0,0l0.2-2.1l0.9-0.9l1.1-3l4.6-11.4l2.5-5.3l0.4-1.5l1.5-2.5l0.2-1.1
		l0.8-1.3l0.2-1.3l1.3-1.7l0.6-2.8l1.1-1.9l0.4-2.1l0.9-1.9l2.3-5.1l0.2-1.5l2.5-5.7l1.1-1.1l0.9-1.7l0.6-4.4h0.6l1.1-3.4l0.6-0.4
		l1.9-5.9l2.3-5.7l2.5-5.7l2.1-5.5l0.6-3l-0.2-0.4l-0.9-1.1l-2.3-1.7l-3-0.6l-6.3,0.4l-2.8,1.1l-1.3,1.5l-0.2,1.1h-0.4l-1.7,3.4
		l-2.5,5.7l-1.7,5.9l-2.5,5.1l-1.1,6.1l-0.6,0.9v0.8h-0.4v0.9h-0.4v0.8l-1.1,0.8l-0.6,1.5h-0.4v0.8l-0.9,0.9l-0.6,1.3l-1.3,4
		l-0.6,0.6l-0.4,1.5l-2.1,5.7l-2.7,5.5l-2.1,5.9l-1.9,5.5l-1.5,3.4l-1.3,4.4l-1,1.3l-0.8,2.8l-2.8,5.3l-0.8,2.8l-2.1,5.5l-0.6,0.6
		h1.1v0.4l-0.8,3l-0.4,0.2l-1.5,5.9v3l-0.4,5.9v6.3l0.8,2.7l2.5,5.7l1.7,2.5l4.4,4.6l2.3,1.5l4.6,0.8l2.7,1l5.9,0.4l6.3-1.1l0.4-0.6
		h0.8l3.8-2.3l1.1-0.2l1.7-1.5l1.3-0.2v-0.4h0.8l0.6-0.9h0.4l2.1-1.7l1.1-0.2l1.5-1.7l3-3.3l1.5,3.5l1.7,2.5l4.4,4.6l2.3,1.5
		l3.9,0.6l-0.2,0.4h1.6l1.9,0.7l3.3,0.2l0.5,0.3l0.5-0.2h0.2l1.4,0.1l0.5-0.1h13l5.5,0.4l0.3-0.4l4.3,0.4l2.7-0.6l2.1,0.2l5.1,0.4
		l5.5,0.2l5.1-0.4h5.3l5.5,0.2l5.5-0.4l5.1,0.2l6.2,0.4l5.5-0.2l0.2-0.1h1.2l5.9-1.1l0.5-0.1c0,0.2,0.1,0.3,0.1,0.5l0.6-0.2l2-1
		l1.8-0.5l0.4-0.6l0.3-0.1c0,0,0-0.1,0-0.1l5.4-2.6L461.7,211.1z M553.6,187.7l-0.4-0.2v-2.1l0.4-0.2l0.6,1.3L553.6,187.7z
		 M557.4,187.9l-0.4,0.6l-1.1-0.8l-0.2-0.9v-0.4l0.8-0.9h1V187.9z M529.4,153.5l0.9-1.3l2.8-5.5l0.4-1.3l1.7-2.1l0.2-0.9l3.2-4.2
		l3.8-4.7l0.2-0.4l3.2-3.6l2.1-1.5l2.5-1.1l2.8-0.8h3.8l0.2,0.4l0.8,0.2l0.4,0.8h0.8l1.7,2.1l1.1,3l0.8,5.3l-0.2,1.3l-1.3,6.3
		l-0.4,5.9l-0.6,0.6l-0.6,3l-0.9,2.7h-0.4l-0.9,3.6l-1,2.7c0,0.1,0,0.2,0,0.3c-0.2,0.7-0.5,1.3-0.8,2l-0.2,0.6l0,0
		c-0.7,1.5-1.4,3-2.1,4.4c-2.8,5.9-5.5,12.8-9.5,18.3l0.1,0.2l-1,1.9l-3.6,5.3l-2.3,1.9l-4.6,4l-1.1,0.2l-0.4,0.8l-3.8,0.9l-2.3-0.4
		l-2.8-1.1l-2.3-1.9v-0.9l-1-1.9l-0.6-3v-6.8l0.6-2.7l0.8-6.3l0.4-0.4l0.6-2.8h0.4l0.8-3l1.4-3.8l0.8-1l0.4-2.8l1.1-3.7l0.6-1.4
		l0.3-0.4l0.4-1.2l0.9-2.1h-0.1l1.5-2.2L529.4,153.5z M404.7,211v-1l1,0.2l0.2,0.8H404.7z M456.4,194.6l-0.8,1.1l-1.3,0.4l-0.8,1.3
		L452,198l-0.4,1l-5,2.5c0,0,0,0,0,0.1l-0.3,0.1l-6.3,1.5l-0.9,0.8l-0.2,1l-1.2,0.2l-2.7-0.2l-5.5-0.6l-5.3,0.2h-5.5l-5.5-0.2
		l-5.5,0.8l-5.7-0.4H397l-6,1.3l-5.1-0.6l-4.8-0.4h-3.6l0.1-0.4l1-2.1l0.1-0.1l0.4-0.8l8.2-17.5l2.5-5.3l0.8-3.2l1.1-2.7l1.1-0.9
		l0.2-1.1l0.8-0.2l1-2.1l0.2-2.3l0.6-0.4l0.4-2.1l1-0.9l0.8-4.2l0.9-0.9l0.2-1.3l0.5-0.7c0.1,0.1,0.2,0.1,0.3,0.2l0.8-2.8l0.2-0.6
		l3-5l3.8-4.7l4.2-4.6l1.3-0.6l0.8-1.1l2.3-0.6l1.1-1.1l2.3-0.6l1.7-1.3l1.5-0.4l5.9-1h5.9l6.5,0.8l5.1,1.3l4.7,1.7l0.4,0.8l1.3,0.2
		l2.1,1.9l4.4,4.2l4,4.6v0.8l0.9,0.8l0.4,1.3h0.4l0.4,1.9h0.4v0.8h0.4v0.9l1.5,4.2l1.5,12.1l-1.5,6.3l-1.5,4v1.3l-0.4,0.4l-0.8,4.4
		l-2.8,3.6l-3.6,4.6L456.4,194.6z"/>
	<polygon points="631.9,111.5 634.1,110.6 637.4,107.6 638.1,105.1 637.6,103 634.5,101.1 633,101.1 632.6,100.7 628.5,100.7 
		622.6,101.1 616.1,100.5 610.2,100.1 604.4,100.7 598.3,100.1 592.6,101.7 591.4,102.6 589.7,104.9 589.2,108.5 589.9,110.8 
		590.5,111 590.7,111.2 592.6,112.1 595.8,112.5 601.9,112.3 608,111.9 613.6,112.3 616.7,111.7 619.5,111.9 625.4,112.3 	"/>
	<polygon points="559.5,84.6 559.2,84.2 555,84.2 549.1,84.6 542.6,84 536.8,83.6 530.9,84.2 524.8,83.6 519.1,85.2 518,86.1 
		516.3,88.4 515.7,92 516.5,94.3 517,94.5 517.2,94.6 519.1,95.6 522.3,96 528.4,95.8 534.5,95.4 540.2,95.8 543.2,95.2 546.1,95.4 
		551.9,95.8 558.4,95 560.7,94.1 563.9,91 564.7,88.6 564.1,86.5 561,84.6 	"/>
	<polygon points="455.8,66.4 458.1,65.4 461.3,62.4 462.1,59.9 461.5,57.8 458.5,55.9 457,55.9 456.6,55.6 452.4,55.6 446.5,55.9 
		440.1,55.4 434.2,55 428.3,55.6 422.2,55 416.5,56.5 415.4,57.5 413.7,59.7 413.1,63.3 413.9,65.6 414.4,65.8 414.6,66 416.5,67 
		419.8,67.3 425.8,67.1 431.9,66.8 437.6,67.1 440.6,66.6 443.5,66.8 449.4,67.1 	"/>
	<polygon points="676.6,123.5 670.7,124 664.6,123.5 658.9,125 657.8,125.9 656.1,128.2 655.5,131.8 656.3,134.1 656.8,134.3 
		657,134.5 658.9,135.4 662.1,135.8 668.2,135.6 674.3,135.2 680,135.6 683,135 685.9,135.2 691.7,135.6 698.2,134.8 700.5,133.9 
		703.7,130.9 704.5,128.4 703.9,126.3 700.8,124.4 699.3,124.4 699,124 694.8,124 688.9,124.4 682.4,123.8 	"/>
	<polygon points="311.8,412.8 310.3,412.8 309.9,412.4 305.7,412.4 299.9,412.8 293.4,412.2 287.5,411.8 281.6,412.4 275.6,411.8 
		269.9,413.3 268.7,414.3 267,416.6 266.5,420.2 267.2,422.4 267.8,422.6 268,422.8 269.9,423.8 273.1,424.1 279.2,424 285.3,423.6 
		290.9,424 294,423.4 296.8,423.6 302.7,424 309.2,423.2 311.4,422.2 314.7,419.2 315.4,416.7 314.9,414.7 	"/>
	<path fill="#000000" d="M280.4,260.7l1.7,2.7h0.8l2.7,2.5l3,0.6l0.4,0.4h1.1l6.1,1.3l2.8-0.4l2.8-0.9h1.3l0.8-0.9h0.9l0.4-0.8l1.3-0.4l2.8-1.9
		l2.5-2.3l2.3-5.1l1.3-5.9l-0.2-2.8l-1.5-6.3l-1.3-4.2l-0.8-0.4l-0.4-1.3l-3.6-2.5l-5.5-3.6l-1.7-0.8l-5.9-0.4l-0.6,0.4h-0.4
		l-5.3,0.6l-2.1,1.1l-1,1.1l-0.9,0.4l-5.1,3.8l-0.6,1.1l-0.6,0.4l-1.5,2.7l-0.8,2.8l-0.9,6.3l1.1,4.9l1.5,3l0.4,2.3l1.1,0.8v0.9
		L280.4,260.7z M287.6,242.6l1.1-0.8l0.8-2.1l1.1-0.9l0.2-0.2l1.9-0.8l5.9,1.1l0.6,0.6l1.3,0.4l2.1,2.3l1.3,2.1l0.4,1.7v3.2
		l-1.1,2.8l-2.1,2.1l-2.7,1.7l-2.8,0.9h-2.8l-2.5-0.9l-2.8-3.6l-0.8-2.8l-0.4-3.4L287.6,242.6z"/>
	<polygon points="257,112.3 259.3,113.6 261.6,113.8 264.3,113.2 266.9,111.7 272,107.9 272,107.6 273.7,106.8 278.1,102.4 
		279.4,101.9 280.2,100.7 281.5,100.3 282.5,99.4 283.8,99 284.6,97.7 286.5,96.2 290.6,93.3 295.8,89.3 296.7,87.8 296.5,85.9 
		295.8,85 292.9,83.8 289.5,83.6 287.2,84.2 284.9,85.7 284.2,85.7 281.5,88.2 276.6,92 275.5,92.4 274.1,94.1 272.6,94.5 
		271.5,95.4 270.3,95.6 269.9,96.5 269.2,96.5 265.2,99 263.7,99 262.5,98.4 260.5,96.4 257,91.8 256.7,90.5 256.1,90.1 255.1,87.2 
		252.1,84.6 249.4,83.8 246.6,84.6 245.1,85.7 245.1,86.3 245.5,90.7 247.2,96 247.7,96.7 249.6,100 252.1,104.7 252.3,105.8 
		252.9,105.8 252.9,106.8 253.6,107.2 253.6,107.6 	"/>
	<polygon points="351.9,271.3 354.2,272.6 356.5,272.8 359.1,272.3 361.8,270.8 366.9,267 366.9,266.6 368.6,265.8 373,261.5 
		374.3,260.9 375.1,259.7 376.4,259.4 377.4,258.4 378.7,258 379.4,256.7 381.3,255.2 385.5,252.3 390.6,248.4 391.6,246.8 
		391.4,244.9 390.6,244 387.8,242.9 384.4,242.7 382.1,243.2 379.8,244.8 379.1,244.8 376.4,247.2 371.5,251 370.3,251.4 369,253.1 
		367.5,253.5 366.4,254.4 365.2,254.6 364.8,255.6 364.1,255.6 360.1,258 358.6,258 357.4,257.5 355.3,255.4 351.9,250.8 
		351.5,249.5 351,249.1 350,246.3 347,243.6 344.3,242.9 341.5,243.6 340,244.8 340,245.3 340.3,249.7 342.1,255 342.6,255.8 
		344.5,259 347,263.7 347.2,264.9 347.7,264.9 347.7,265.8 348.5,266.2 348.5,266.6 	"/>
	<polygon points="428.3,92.2 429.1,95 430,95.6 432.1,98.4 434.4,99.8 436.5,100.1 439.7,100 439.7,99.6 441.8,99.2 445.4,96 
		447.7,92.4 448,90.9 448,87.8 447.1,84.8 445.4,82.5 442.9,80.4 441.8,79.8 436.7,79.5 436.3,79.8 435.7,79.8 432.5,80.2 
		429.8,82.7 428.1,85 427.2,87.8 427.7,89.5 427.7,91.2 	"/>
	<polygon points="226.7,146.1 227.5,148.9 228.4,149.5 230.5,152.3 232.8,153.7 234.9,154.1 238.1,153.9 238.1,153.5 240.2,153.1 
		243.8,149.9 246.1,146.3 246.5,144.8 246.5,141.7 245.5,138.7 243.8,136.4 241.3,134.3 240.2,133.7 235.1,133.4 234.7,133.7 
		234.1,133.7 230.9,134.1 228.2,136.6 226.5,138.9 225.6,141.7 226.1,143.4 226.1,145.1 	"/>
	<polygon points="260.2,383.9 257.7,381.8 256.6,381.2 251.5,380.8 251.1,381.2 250.5,381.2 247.3,381.6 244.6,384.1 242.9,386.3 
		242,389.2 242.5,390.9 242.5,392.6 243.1,393.5 243.9,396.4 244.8,397 246.9,399.8 249.2,401.1 251.3,401.5 254.5,401.3 
		254.5,400.9 256.6,400.6 260.2,397.3 262.5,393.7 262.8,392.2 262.8,389.2 261.9,386.1 	"/>
	<polygon points="232.5,383.9 230,381.8 228.9,381.2 223.8,380.8 223.4,381.2 222.8,381.2 219.6,381.6 217,384.1 215.2,386.3 
		214.3,389.2 214.9,390.9 214.9,392.6 215.4,393.5 216.2,396.4 217.1,397 219.2,399.8 221.5,401.1 223.6,401.5 226.8,401.3 
		226.8,400.9 228.9,400.6 232.5,397.3 234.8,393.7 235.2,392.2 235.2,389.2 234.2,386.1 	"/>
	<polygon points="176.4,219.7 176.9,222.7 177.5,223.1 178.1,225.8 179.2,226.7 180.5,229.6 181.1,229.9 181.7,231.3 182.8,232.2 
		183.6,233.6 184.5,233.7 186,235.5 190.4,239.2 192.9,240.8 194.6,242.3 197.8,243.2 198.8,244 200.5,244.2 201.4,244.9 
		204.5,245.1 210.3,245.9 215.7,245.9 221.5,245.1 227.2,243.8 227.8,243.4 230.6,243 231.6,242.1 233.5,241.5 234.1,241 236,240.4 
		237.1,239.4 238.4,239.1 238.8,238.5 240.1,237.7 240.5,237.2 241.8,236.6 245.8,232.8 250.4,228.2 254,223.7 254.4,223.7 
		254.4,222.7 256.6,220.5 257.6,218.4 258.7,217.2 258.9,216.3 259.9,215 262.5,209.5 262.7,206.4 265.8,201.5 268,195.6 
		270.3,190.1 272.2,184 273.7,181.4 275.4,177.6 277.7,173 277.7,172.3 279,169.6 279.2,168.3 280.6,165.8 281.2,163.4 281.9,163.4 
		282.6,161.7 284.3,156.2 284.7,156 285.3,153.1 286.2,152.2 286.2,151.4 287,151.1 287.5,149.2 288.1,148.6 289.4,142.5 
		289.1,141.2 287,139.5 284.5,139.3 281.5,139.9 275.6,140 273.7,141.2 272.4,142.9 270.3,148.6 269.7,148.6 269.5,149.4 
		268.8,150.1 268.6,152.3 268.2,152.3 267.8,153.3 265.6,158.8 265.2,158.8 265.2,159.5 264,161.6 263.3,164.3 262.5,165.6 
		260.8,170.4 260.1,173.2 258.2,178.9 256.3,181.6 255.1,183.8 254.4,186.7 252.3,191.4 250.9,196.5 250.6,196.5 250.6,197.5 
		250,197.5 250,198.3 249.2,199.6 249.2,200.3 248.9,200.3 248.9,201.3 248.3,201.3 248.1,202.4 247.5,203 247.2,205.1 246,206 
		245.8,206.8 244.9,207.7 244.9,208.5 244.5,208.5 244.3,209.6 243.7,210.2 243.4,211.5 241.3,214.4 241.1,215.5 237.3,219.3 
		233.3,223.7 232,224.1 231.2,225 229.7,225.6 228.6,226.9 223.4,229.2 217.7,230.9 214.5,231.1 207.9,230.7 205.6,230.1 
		199.7,228.4 195.5,224.1 194.2,223.9 191.2,219.3 189.8,214.2 189.5,214.2 189.5,212.9 189.1,206.2 189.7,200.7 190.4,199.6 
		190.6,198.4 192.1,195.8 192.5,195.8 192.5,194.8 194.2,193.5 194.6,192.2 195.5,191.2 198,189.7 199.1,188.2 202.2,186.7 
		205.2,185.7 211.5,184.2 212.4,183.5 212.6,182.3 213.6,181.9 213.6,181.2 213.9,175.5 213.6,175.1 213.6,173.8 212.2,171.7 
		210.1,170 208.1,170 202.2,171.1 197.2,172.4 196.9,173 194.2,174.2 191.6,175.9 190.8,175.9 190,177 188.9,177.4 188.7,178.1 
		186.4,180.2 181.9,184.6 180.9,186.7 179.2,188.4 176.6,192.2 175.8,195.8 175.2,196.2 174.3,202.1 173.9,208.5 174.5,214.2 	"/>
</g>
<path fill="#000000" d="M273.602,481.306c-0.578-0.576-1.301-1.03-2.174-1.362c-0.873-0.331-1.885-0.497-3.039-0.497
	c-0.663,0-1.463,0.079-2.4,0.238v-6.077h-1.535v17.711c0.706,0.202,1.402,0.354,2.087,0.454s1.301,0.151,1.849,0.151
	c1.153,0,2.166-0.162,3.039-0.486s1.596-0.764,2.174-1.319c0.576-0.555,1.006-1.211,1.287-1.968s0.42-1.561,0.42-2.411
	s-0.139-1.657-0.42-2.422C274.608,482.554,274.178,481.883,273.602,481.306z M272.391,489.167c-0.852,0.829-2.17,1.243-3.958,1.243
	c-0.39,0-0.805-0.032-1.244-0.097c-0.439-0.065-0.84-0.134-1.2-0.206v-8.845c0.447-0.115,0.887-0.194,1.319-0.237
	c0.433-0.044,0.808-0.065,1.125-0.065c0.894,0,1.668,0.112,2.325,0.335c0.656,0.224,1.199,0.545,1.633,0.963
	c0.432,0.418,0.752,0.919,0.961,1.503s0.314,1.243,0.314,1.979C273.667,487.195,273.241,488.338,272.391,489.167z M247.392,479.446
	c-0.62,0-1.297,0.079-2.033,0.238c-0.735,0.158-1.485,0.433-2.249,0.821l-0.065,1.73c0.548-0.303,0.973-0.52,1.276-0.649
	s0.624-0.237,0.962-0.324c0.338-0.086,0.677-0.158,1.016-0.216s0.667-0.087,0.984-0.087c1.139,0,1.982,0.249,2.53,0.746
	s0.822,1.33,0.822,2.498v0.13c-0.332-0.044-0.732-0.087-1.2-0.13c-0.469-0.043-0.876-0.065-1.222-0.065
	c-1.831,0-3.302,0.311-4.412,0.931c-1.11,0.619-1.665,1.644-1.665,3.07c0,0.707,0.155,1.305,0.465,1.795
	c0.31,0.49,0.713,0.88,1.211,1.168s1.067,0.497,1.708,0.627c0.641,0.13,1.308,0.194,2,0.194c0.807,0,1.6-0.072,2.378-0.216
	c0.779-0.145,1.536-0.368,2.271-0.671v-7.028c0-1.585-0.397-2.742-1.189-3.471C250.189,479.811,248.992,479.446,247.392,479.446z
	 M250.636,489.892c-0.375,0.144-0.858,0.267-1.449,0.367c-0.591,0.102-1.183,0.151-1.773,0.151c-0.505,0-0.984-0.035-1.438-0.108
	c-0.454-0.071-0.84-0.197-1.157-0.378c-0.317-0.18-0.57-0.414-0.757-0.703c-0.188-0.288-0.281-0.663-0.281-1.124
	c0-0.52,0.111-0.934,0.335-1.244c0.224-0.31,0.533-0.551,0.93-0.724c0.396-0.174,0.85-0.296,1.362-0.368
	c0.511-0.072,1.041-0.108,1.589-0.108c0.476,0,0.984,0.029,1.524,0.087c0.541,0.058,0.912,0.108,1.114,0.151V489.892z
	 M258.032,479.868c-0.649,0.122-1.276,0.263-1.881,0.422v11.418h1.535v-10.186c0.202-0.072,0.563-0.147,1.082-0.228
	c0.519-0.079,1.002-0.118,1.449-0.118h1.989v-1.492H260C259.336,479.685,258.681,479.746,258.032,479.868z M-77.92,487.667
	l241.145,0.656l0.663-0.433l-0.632-0.564L-77.92,487.667z M164.994,487.825l1.95,1.95l1.95-1.95l-1.95-1.95L164.994,487.825z
	 M169.559,487.825l3.057,3.057l3.057-3.057l-3.057-3.057L169.559,487.825z M212.359,489.286l-3.395-9.602h-1.514l-3.396,9.602
	l-2.984-9.602h-1.73l3.979,12.023h1.428l3.46-9.645l3.46,9.645h1.427l3.979-12.023h-1.73L212.359,489.286z M238.418,489.589
	c-0.317,0-0.591,0.115-0.822,0.346c-0.231,0.23-0.346,0.505-0.346,0.822c0,0.316,0.115,0.591,0.346,0.821
	c0.23,0.23,0.504,0.346,0.822,0.346c0.317,0,0.591-0.115,0.822-0.346c0.23-0.23,0.346-0.505,0.346-0.821
	c0-0.317-0.116-0.592-0.346-0.822C239.009,489.704,238.735,489.589,238.418,489.589z M193.243,489.286l-3.395-9.602h-1.514
	l-3.396,9.602l-2.984-9.602h-1.73l3.979,12.023h1.428l3.46-9.645l3.46,9.645h1.427l3.979-12.023h-1.73L193.243,489.286z
	 M231.476,489.286l-3.395-9.602h-1.514l-3.396,9.602l-2.984-9.602h-1.73l3.979,12.023h1.428l3.46-9.645l3.46,9.645h1.427
	l3.979-12.023h-1.73L231.476,489.286z M382.732,480.474c-0.426-0.396-0.938-0.667-1.535-0.812c-0.598-0.144-1.271-0.216-2.021-0.216
	c-0.664,0-1.393,0.09-2.184,0.271c-0.793,0.181-1.471,0.4-2.033,0.659c-0.346-0.331-0.818-0.569-1.416-0.714
	c-0.6-0.144-1.273-0.216-2.023-0.216c-0.635,0-1.268,0.058-1.902,0.173l-2.465,0.454v11.635h1.535v-10.38
	c0.447-0.102,0.883-0.188,1.309-0.26c0.424-0.072,0.896-0.108,1.416-0.108c0.605,0,1.125,0.058,1.557,0.173
	c0.434,0.116,0.789,0.321,1.07,0.616c0.281,0.296,0.494,0.711,0.639,1.244s0.217,1.24,0.217,2.119v6.596h1.535v-7.201
	c0-0.663-0.055-1.243-0.162-1.741c-0.109-0.497-0.213-0.861-0.314-1.092c0.086-0.043,0.281-0.119,0.584-0.228
	c0.303-0.107,0.602-0.197,0.898-0.27c0.295-0.072,0.586-0.126,0.875-0.162s0.547-0.055,0.779-0.055c0.59,0,1.102,0.058,1.535,0.173
	c0.432,0.116,0.781,0.317,1.049,0.605c0.266,0.289,0.471,0.703,0.615,1.244c0.145,0.54,0.217,1.251,0.217,2.13v6.596h1.535v-7.201
	c0-0.995-0.111-1.816-0.336-2.466C383.482,481.393,383.158,480.87,382.732,480.474z M280.1,474.581
	c-0.785,0.648-1.18,1.729-1.18,3.243v1.86h-2.551v1.492h2.551v10.531h1.537v-10.531h4.973v-1.492h-4.973v-1.471
	c0-0.635,0.045-1.149,0.141-1.546c0.094-0.396,0.24-0.707,0.443-0.931c0.201-0.223,0.475-0.385,0.82-0.486
	c0.346-0.101,0.779-0.151,1.299-0.151h2.422v-1.492h-2.271C281.956,473.607,280.885,473.932,280.1,474.581z M398.273,487.825
	l3.057,3.057l3.057-3.057l-3.057-3.057L398.273,487.825z M343.322,482.322c0.389-0.418,0.854-0.749,1.395-0.994
	s1.135-0.368,1.783-0.368c0.736,0,1.373,0.076,1.914,0.228s1.121,0.414,1.74,0.789l0.715-1.405c-0.707-0.39-1.393-0.674-2.055-0.854
	c-0.664-0.181-1.436-0.271-2.314-0.271c-0.85,0-1.639,0.155-2.367,0.465c-0.729,0.311-1.367,0.746-1.914,1.309
	c-0.549,0.563-0.98,1.222-1.297,1.979c-0.317,0.757-0.476,1.59-0.476,2.498s0.158,1.74,0.476,2.497
	c0.316,0.757,0.748,1.413,1.297,1.969c0.547,0.555,1.186,0.987,1.914,1.297c0.729,0.311,1.518,0.465,2.367,0.465
	c0.879,0,1.65-0.09,2.314-0.27c0.662-0.181,1.348-0.466,2.055-0.854l-0.715-1.406c-0.619,0.375-1.199,0.639-1.74,0.79
	s-1.178,0.227-1.914,0.227c-0.648,0-1.242-0.119-1.783-0.356c-0.541-0.238-1.006-0.565-1.395-0.984
	c-0.391-0.418-0.693-0.915-0.908-1.492c-0.217-0.576-0.324-1.203-0.324-1.881s0.107-1.305,0.324-1.882
	C342.628,483.238,342.931,482.741,343.322,482.322z M404.387,487.825l1.949,1.95l1.951-1.95l-1.951-1.95L404.387,487.825z
	 M410.701,487.326l-0.664,0.433l0.633,0.564l241.176-0.341L410.701,487.326z M362.611,481.295c-0.549-0.569-1.193-1.02-1.936-1.352
	c-0.742-0.331-1.547-0.497-2.412-0.497c-0.863,0-1.668,0.166-2.41,0.497c-0.742,0.332-1.389,0.782-1.936,1.352
	c-0.549,0.57-0.977,1.229-1.287,1.979c-0.311,0.749-0.465,1.557-0.465,2.422s0.154,1.672,0.465,2.422s0.738,1.409,1.287,1.979
	c0.547,0.569,1.193,1.017,1.936,1.341s1.547,0.486,2.41,0.486c0.865,0,1.67-0.162,2.412-0.486s1.387-0.771,1.936-1.341
	c0.547-0.569,0.977-1.229,1.287-1.979c0.309-0.75,0.465-1.557,0.465-2.422s-0.156-1.673-0.465-2.422
	C363.587,482.524,363.158,481.865,362.611,481.295z M362.394,487.523c-0.217,0.569-0.52,1.067-0.908,1.492
	c-0.389,0.426-0.857,0.765-1.406,1.017c-0.547,0.252-1.152,0.378-1.816,0.378c-0.662,0-1.268-0.126-1.816-0.378
	c-0.547-0.252-1.016-0.591-1.404-1.017c-0.391-0.425-0.693-0.923-0.908-1.492c-0.217-0.569-0.324-1.179-0.324-1.827
	c0-0.649,0.107-1.262,0.324-1.839c0.215-0.576,0.518-1.077,0.908-1.503c0.389-0.425,0.857-0.764,1.404-1.016
	c0.549-0.252,1.154-0.379,1.816-0.379c0.664,0,1.27,0.127,1.816,0.379c0.549,0.252,1.018,0.591,1.406,1.016
	c0.389,0.426,0.691,0.927,0.908,1.503c0.217,0.577,0.324,1.189,0.324,1.839C362.718,486.345,362.611,486.954,362.394,487.523z
	 M296.221,481.295c-0.547-0.569-1.191-1.02-1.936-1.352c-0.742-0.331-1.545-0.497-2.41-0.497s-1.67,0.166-2.412,0.497
	c-0.742,0.332-1.387,0.782-1.936,1.352c-0.547,0.57-0.977,1.229-1.285,1.979c-0.311,0.749-0.465,1.557-0.465,2.422
	s0.154,1.672,0.465,2.422c0.309,0.75,0.738,1.409,1.285,1.979c0.549,0.569,1.193,1.017,1.936,1.341s1.547,0.486,2.412,0.486
	s1.668-0.162,2.41-0.486c0.744-0.324,1.389-0.771,1.936-1.341c0.549-0.569,0.977-1.229,1.287-1.979s0.465-1.557,0.465-2.422
	s-0.154-1.673-0.465-2.422C297.198,482.524,296.77,481.865,296.221,481.295z M296.006,487.523c-0.217,0.569-0.52,1.067-0.908,1.492
	c-0.391,0.426-0.859,0.765-1.406,1.017c-0.549,0.252-1.154,0.378-1.816,0.378c-0.664,0-1.27-0.126-1.816-0.378
	c-0.549-0.252-1.018-0.591-1.406-1.017c-0.389-0.425-0.691-0.923-0.908-1.492s-0.324-1.179-0.324-1.827
	c0-0.649,0.107-1.262,0.324-1.839c0.217-0.576,0.52-1.077,0.908-1.503c0.389-0.425,0.857-0.764,1.406-1.016
	c0.547-0.252,1.152-0.379,1.816-0.379c0.662,0,1.268,0.127,1.816,0.379c0.547,0.252,1.016,0.591,1.406,1.016
	c0.389,0.426,0.691,0.927,0.908,1.503c0.215,0.577,0.324,1.189,0.324,1.839C296.331,486.345,296.221,486.954,296.006,487.523z
	 M309.381,480.463c-0.455-0.39-0.996-0.656-1.623-0.801c-0.627-0.144-1.309-0.216-2.043-0.216c-0.707,0-1.465,0.047-2.271,0.141
	s-1.701,0.234-2.682,0.422v11.699h1.535v-10.402c1.184-0.23,2.293-0.346,3.33-0.346c0.592,0,1.111,0.062,1.559,0.184
	c0.445,0.123,0.818,0.332,1.113,0.628c0.295,0.295,0.525,0.713,0.691,1.254s0.25,1.251,0.25,2.13v6.553h1.535v-7.201
	c0-0.995-0.119-1.82-0.357-2.477C310.18,481.375,309.834,480.852,309.381,480.463z M318.516,490.054
	c-0.346-0.108-0.619-0.277-0.82-0.509c-0.203-0.23-0.35-0.547-0.443-0.951c-0.096-0.403-0.141-0.922-0.141-1.557v-5.86h4.973v-1.492
	h-4.973v-4.347h-1.537v4.347h-2.551v1.492h2.551v6.466c0,0.764,0.109,1.405,0.326,1.925c0.215,0.519,0.525,0.937,0.93,1.254
	c0.402,0.317,0.867,0.544,1.395,0.682c0.525,0.137,1.105,0.205,1.74,0.205h2.271v-1.492h-2.422
	C319.295,490.216,318.862,490.162,318.516,490.054z M337.784,489.589c-0.316,0-0.59,0.115-0.82,0.346s-0.346,0.505-0.346,0.822
	c0,0.316,0.115,0.591,0.346,0.821s0.504,0.346,0.82,0.346c0.318,0,0.592-0.115,0.822-0.346s0.346-0.505,0.346-0.821
	c0-0.317-0.115-0.592-0.346-0.822S338.102,489.589,337.784,489.589z M333.178,486.106c-0.346-0.303-0.785-0.565-1.318-0.789
	c-0.533-0.223-1.182-0.422-1.947-0.595l-0.799-0.173c-1.053-0.216-1.781-0.461-2.184-0.735c-0.404-0.273-0.607-0.678-0.607-1.211
	c0-0.504,0.238-0.904,0.715-1.2c0.475-0.295,1.174-0.443,2.098-0.443c0.793,0,1.477,0.076,2.055,0.228
	c0.576,0.151,1.217,0.421,1.924,0.811l0.691-1.405c-1.412-0.765-2.969-1.146-4.67-1.146c-0.635,0-1.223,0.076-1.764,0.228
	c-0.539,0.151-1.008,0.364-1.404,0.638s-0.711,0.605-0.941,0.994c-0.23,0.39-0.346,0.815-0.346,1.276
	c0,0.462,0.072,0.88,0.217,1.254c0.143,0.375,0.381,0.707,0.713,0.995s0.758,0.537,1.275,0.746c0.52,0.209,1.146,0.4,1.883,0.573
	l0.908,0.194c1.008,0.217,1.729,0.49,2.162,0.822c0.432,0.331,0.648,0.771,0.648,1.318c0,0.39-0.086,0.707-0.26,0.952
	c-0.172,0.245-0.414,0.436-0.725,0.573c-0.311,0.137-0.678,0.237-1.102,0.303c-0.426,0.064-0.877,0.097-1.352,0.097
	c-0.592,0-1.223-0.09-1.893-0.271c-0.67-0.18-1.352-0.479-2.045-0.897l-0.734,1.471c0.779,0.433,1.539,0.742,2.281,0.93
	s1.539,0.281,2.391,0.281c0.748,0,1.434-0.072,2.053-0.216c0.621-0.145,1.158-0.36,1.611-0.648c0.455-0.289,0.805-0.649,1.049-1.082
	c0.246-0.433,0.369-0.93,0.369-1.492c0-0.476-0.072-0.915-0.217-1.318C333.77,486.763,333.526,486.41,333.178,486.106z"/>
</svg>

