<?xml version="1.0" encoding="utf-8"?>
<!-- Generator: Adobe Illustrator 22.1.0, SVG Export Plug-In . SVG Version: 6.00 Build 0)  -->
<svg version="1.1" id="Layer_1" xmlns="http://www.w3.org/2000/svg" xmlns:xlink="http://www.w3.org/1999/xlink" x="0px" y="0px"
	 viewBox="0 0 800 500" style="enable-background:new 0 0 800 500;" xml:space="preserve">
<style type="text/css">
	.st0{fill:#010101;}
</style>
<g>
	<path fill="#000000" class="st0" d="M693.5,198.2h-27.2c-0.9,0-1.5,0.7-1.5,1.5c0,0.9,0.6,1.5,1.5,1.5h5.2v70.3c-1.6,0.5-3.5,0.8-5.3,0.8
		c-9.9,0-18.2-7.7-18.9-17.5c-0.1-0.9-0.8-1.5-1.6-1.5h-0.1c-0.8,0-1.5,0.7-1.5,1.5v0.2c0.9,11.6,10.4,20.5,22.2,20.5
		c12.3,0,22.2-10.2,22.2-22.7v-51.6h5.1c0.9,0,1.5-0.7,1.5-1.5C695,198.8,694.4,198.2,693.5,198.2z"/>
	<path fill="#000000" class="st0" d="M424.9,196.8h-27.4c-0.9,0-1.7,0.5-1.7,1.4c0,0.9,0.9,1.6,1.7,1.6h5v68c-3.7,1.9-7.9,3-12.3,3
		c-4.4,0-8.7-1.1-12.3-3v-68h5c0.9,0,1.5-0.6,1.5-1.5c0-0.9-0.7-1.5-1.5-1.5h-28c-0.9,0-1.5,0.6-1.5,1.5c0,0.9,0.6,1.5,1.5,1.5h5.1
		V244c0,16.7,13.6,30.2,30.3,30.2c16.7,0,30.3-13.5,30.3-30.2v-44.2h4.4c0.8,0,1.5-0.7,1.5-1.6C426.4,197.4,425.7,196.8,424.9,196.8
		z"/>
	<path fill="#000000" class="st0" d="M205.8,196.8h-27.4c-0.9,0-1.7,0.5-1.7,1.4c0,0.9,0.9,1.6,1.7,1.6h5v68c-3.7,1.9-7.9,3.2-12.3,3.2h-14.7V227
		c0-0.6,0-1.2-0.1-1.9c0-0.3,0-0.5-0.1-0.8c-0.1-1.6-0.4-3.1-0.8-4.6c-0.5-2.2-1.3-4.3-2.3-6.2c0-0.1-0.1-0.1-0.1-0.2
		c0,0,0-0.1-0.1-0.1c-2.1-4.2-5.3-7.7-9-10.5c-0.7-0.6-1.5-1.1-2.3-1.6c0,0-0.1,0-0.1-0.1c0,0,0,0-0.1,0c-0.3-0.1-0.5-0.3-0.8-0.4
		c-0.5-0.3-1-0.5-1.5-0.8c-1.6-0.8-3.3-1.4-5.1-1.9c-0.2-0.1-0.4-0.1-0.6-0.2c-0.5-0.1-0.9-0.2-1.4-0.3c0,0-0.1,0-0.1,0
		c-2-0.4-4-0.6-6.1-0.6c-8.3,0-15.8,3.3-21.3,8.8c-0.8,0.7-1.5,1.5-2.2,2.4c-1.4,1.7-2.6,3.5-3.5,5.5c-2.1,4.1-3.2,8.7-3.2,13.5
		v44.1H78.7c-0.9,0-1.5,0.7-1.5,1.5c0,0.9,0.6,1.5,1.5,1.5h92.5c16.7,0,30.3-13.5,30.3-30.2v-44.1h4.4c0.8,0,1.5-0.8,1.5-1.6
		C207.4,197.4,206.6,196.8,205.8,196.8z M138.5,271.1h-24.7v-68c3.7-1.9,7.9-3,12.3-3c4.4,0,8.6,1.1,12.2,3c0,0,0,0,0.1,0
		c0,0,0.1,0,0.1,0V271.1z"/>
	<path fill="#000000" class="st0" d="M636.2,272.5c0-0.9-0.7-1.5-1.5-1.5h-2.3v-44.1c0-0.9,0-1.8-0.1-2.7c-0.3-3.9-1.4-7.5-3.1-10.8
		c-0.1-0.1-0.1-0.2-0.1-0.3c-2.6-5-6.5-9.2-11.3-12.1c-0.1,0-0.1-0.1-0.1-0.1c-2.4-1.5-5.1-2.6-7.9-3.3c-0.5-0.1-0.9-0.2-1.4-0.3
		c-2-0.4-4.1-0.7-6.2-0.7c-8.3,0-15.8,3.3-21.3,8.8c-0.8,0.7-1.5,1.5-2.2,2.4c-1.4,1.7-2.6,3.5-3.5,5.5c-2.1,4.1-3.2,8.7-3.2,13.5
		v44.1h-24.3v-44.1c0-0.9,0-1.8-0.1-2.7c-0.3-3.9-1.4-7.5-3.1-10.8c-0.1-0.1-0.1-0.2-0.1-0.3c-2.6-5-6.5-9.2-11.3-12.1
		c-0.1,0-0.1-0.1-0.1-0.1c-2.4-1.5-5.1-2.6-7.9-3.3c-0.5-0.1-0.9-0.2-1.4-0.3c-2-0.4-4.1-0.7-6.2-0.7c-8.3,0-15.8,3.3-21.3,8.8
		c-0.8,0.7-1.5,1.5-2.2,2.4c-1.4,1.7-2.6,3.5-3.5,5.5c-2.1,4.1-3.2,8.7-3.2,13.5v44.1h-13c-4.4,0-8.7-1.1-12.3-3v-68h5
		c0.9,0,1.5-0.6,1.5-1.5c0-0.9-0.7-1.5-1.5-1.5h-28c-0.9,0-1.5,0.6-1.5,1.5c0,0.9,0.7,1.5,1.5,1.5h5.1V244c0,15,11,27.4,25.4,29.7
		c0.2,0.1,0.5,0.2,0.8,0.2h0.8c1.1,0.1,2.3,0.2,3.4,0.2L488,274h146.6C635.5,274,636.2,273.3,636.2,272.5z M529.5,270.9h-24.7v-68
		c3.7-1.9,7.9-3,12.3-3c4.4,0,8.6,1.1,12.2,3c0,0,0.1,0,0.1,0.1V270.9z M614.4,270.9h-24.7v-68c3.7-1.9,7.9-3,12.3-3
		c4.4,0,8.6,1.1,12.2,3c0,0,0.1,0,0.1,0.1V270.9z"/>
	<path fill="#000000" class="st0" d="M333.3,194.2c0-0.9-0.6-1.5-1.5-1.5h-62c-0.9,0-1.5,0.6-1.5,1.5c0,0.9,0.6,1.5,1.5,1.5h6.9l-7.9,9.8
		c-0.2,0.2-0.3,0.5-0.3,0.9c0,0.3,0.1,0.7,0.3,1L309,271h-27.6c-0.2,0-0.4,0.1-0.5,0.1v-0.1h-14.2c-4.4,0-8.7-1.1-12.3-3l-3.2-1.9
		c-0.2-0.1-0.4-0.3-0.6-0.4c0.1-0.2,0.2-0.3,0.3-0.5c0.1-0.1,0.1-0.2,0.2-0.4c0.4-0.6,0.7-1.2,1-1.9c1.3-2.8,2.1-6,2.2-9.3
		c0-0.2,0-0.5,0-0.7v-51.6h5.1c0.9,0,1.5-0.6,1.5-1.5v-0.1c0-0.9-0.7-1.5-1.5-1.5h-27.2c-0.6,0-1.1,0.3-1.3,0.8
		c-0.1,0.2-0.2,0.5-0.2,0.7c0,0.9,0.6,1.5,1.5,1.5h5.2v70.3c-1.6,0.5-3.5,0.7-5.3,0.7c-9.9,0-18.2-7.7-18.9-17.5
		c-0.1-0.9-0.8-1.5-1.6-1.5h-0.1c-0.8,0-1.5,0.7-1.5,1.5v0.2c0.9,11.6,10.4,20.6,22.2,20.6c6.5,0,12.4-2.9,16.4-7.4
		c5.1,3.8,11.3,6,18.1,6L281,274v-0.1c0.2,0.1,0.3,0.1,0.5,0.1h50.2c0.9,0,1.6-0.7,1.6-1.5c0-0.9-0.7-1.5-1.6-1.5h-3L281,195.7h50.8
		C332.6,195.7,333.3,195,333.3,194.2z"/>
	<path fill="#000000" class="st0" d="M517.3,190.5c5.5,0,10-4.5,10-10c0-5.5-4.5-10-10-10c-5.5,0-10,4.5-10,10C507.3,186,511.7,190.5,517.3,190.5z"
		/>
	<path fill="#000000" class="st0" d="M392.4,190.5c5.5,0,10-4.5,10-10c0-5.5-4.5-10-10-10c-5.5,0-10,4.5-10,10C382.4,186,386.9,190.5,392.4,190.5z"
		/>
	<path fill="#000000" class="st0" d="M179.2,301.2c5.5,0,10-4.5,10-10c0-5.5-4.5-10-10-10c-5.5,0-10,4.5-10,10C169.2,296.7,173.7,301.2,179.2,301.2
		z"/>
	<path fill="#000000" class="st0" d="M166.1,291.2c0-5.5-4.5-10-10-10c-5.5,0-10,4.5-10,10c0,5.5,4.5,10,10,10C161.6,301.2,166.1,296.7,166.1,291.2
		z"/>
	<path fill="#000000" class="st0" d="M103.9,346.7H102v-7.1c0-2.7-1.7-4.9-4.1-5.7c2.5-1.3,4.3-4,4.3-7.1c0-5.1-3.4-8-8.2-8H80.4
		c-0.4,0-0.6,0.2-0.6,0.5c0,0.4,0.2,0.6,0.6,0.6h1.9v26.8h-2.2c-0.3,0-0.6,0.3-0.6,0.6c0,0.3,0.3,0.6,0.6,0.6h10
		c0.4,0,0.6-0.3,0.6-0.6c0-0.3-0.2-0.6-0.6-0.6h-1.3v-11.9h6.6v12.5c0,0.4,0.3,0.6,0.6,0.6h7.9c0.3,0,0.6-0.2,0.6-0.6
		C104.5,346.9,104.2,346.7,103.9,346.7z M95.4,333.5c-0.3,0.1-0.7,0.1-1,0.1h-5.6v-13.7H94c0.5,0,0.9,0,1.4,0.1V333.5z"/>
	<path fill="#000000" class="st0" d="M147.3,346.7h-1.7l-8.4-27.4c-0.1-0.4-0.4-0.5-0.7-0.5h-9.1c-0.3,0-0.5,0.3-0.5,0.6s0.3,0.6,0.5,0.6h2.4
		l-8.6,26.7h-2.3c-0.3,0-0.5,0.3-0.5,0.6c0,0.3,0.2,0.6,0.5,0.6h6.4c0.3,0,0.5-0.3,0.5-0.6c0-0.3-0.3-0.6-0.5-0.6h-2.8l2.3-7.1h12
		l2.2,7.1h-2.3c-0.3,0-0.5,0.3-0.5,0.6c0,0.3,0.3,0.6,0.5,0.6h10.7c0.3,0,0.5-0.3,0.5-0.6C147.9,347,147.6,346.7,147.3,346.7z
		 M125.1,338.4l5.8-17.9l5.5,17.9H125.1z"/>
	<path fill="#000000" class="st0" d="M198.2,346.7h-2.3v-26.7h1.9c0.4,0,0.6-0.3,0.6-0.6c0-0.3-0.2-0.6-0.6-0.6H190c-0.3,0-0.6,0.1-0.7,0.5
		l-7.6,20.1l-9.4-20.1c-0.1-0.3-0.4-0.5-0.7-0.5h-8.6c-0.3,0-0.6,0.3-0.6,0.6s0.3,0.6,0.6,0.6h2.3v26.7h-2.9c-0.4,0-0.6,0.3-0.6,0.6
		c0,0.3,0.2,0.6,0.6,0.6h7.6c0.4,0,0.6-0.3,0.6-0.6c0-0.3-0.2-0.6-0.6-0.6h-3.5v-24.5l12.1,25.9c0.1,0.2,0.3,0.4,0.5,0.4
		c0.2,0,0.4-0.1,0.5-0.4l9.8-25.7l0-0.3v24.7h-1.8c-0.4,0-0.6,0.3-0.6,0.6c0,0.3,0.2,0.6,0.6,0.6h10.5c0.4,0,0.6-0.3,0.6-0.6
		C198.8,347,198.6,346.7,198.2,346.7z"/>
	<path fill="#000000" class="st0" d="M242.7,346.7H241l-8.4-27.4c-0.1-0.4-0.4-0.5-0.7-0.5h-9.1c-0.3,0-0.5,0.3-0.5,0.6s0.3,0.6,0.5,0.6h2.4
		l-8.6,26.7h-2.3c-0.3,0-0.5,0.3-0.5,0.6c0,0.3,0.3,0.6,0.5,0.6h6.4c0.3,0,0.5-0.3,0.5-0.6c0-0.3-0.3-0.6-0.5-0.6h-2.8l2.3-7.1h12
		l2.2,7.1h-2.3c-0.3,0-0.5,0.3-0.5,0.6c0,0.3,0.2,0.6,0.5,0.6h10.7c0.3,0,0.5-0.3,0.5-0.6C243.3,347,243,346.7,242.7,346.7z
		 M220.5,338.4l5.8-17.9l5.5,17.9H220.5z"/>
	<path fill="#000000" class="st0" d="M270.9,318.8h-11.7c-0.3,0-0.6,0.3-0.6,0.6s0.3,0.6,0.6,0.6h2v26.7h-2.3c-0.3,0-0.6,0.3-0.6,0.6
		c0,0.4,0.3,0.6,0.6,0.6h12c8.7,0,14.5-5.8,14.5-14.6C285.4,324.5,279.6,318.8,270.9,318.8z M278.2,344.8c-2,1.3-4.5,1.9-7.3,1.9
		h-3.3v-26.7h3.3c2.8,0,5.3,0.7,7.3,1.9V344.8z"/>
	<path fill="#000000" class="st0" d="M329.8,346.7h-2.1v-26.7h1.9c0.3,0,0.6-0.3,0.6-0.6s-0.3-0.6-0.6-0.6h-10.1c-0.3,0-0.6,0.3-0.6,0.6
		s0.3,0.6,0.6,0.6h1.7v12.2h-10.5v-12.2h2c0.3,0,0.6-0.3,0.6-0.6s-0.3-0.6-0.6-0.6h-10.3c-0.4,0-0.7,0.3-0.7,0.6s0.2,0.6,0.7,0.6
		h1.8v26.7H302c-0.3,0-0.6,0.3-0.6,0.6c0,0.4,0.2,0.6,0.6,0.6h11.2c0.3,0,0.6-0.2,0.6-0.6c0-0.3-0.2-0.6-0.6-0.6h-2.5v-13.4h10.5
		v13.4h-2.4c-0.3,0-0.6,0.3-0.6,0.6c0,0.3,0.3,0.6,0.6,0.6h10.9c0.3,0,0.6-0.3,0.6-0.6C330.4,346.9,330.1,346.7,329.8,346.7z"/>
	<path fill="#000000" class="st0" d="M374.3,346.7h-1.7l-8.4-27.4c-0.1-0.4-0.4-0.5-0.7-0.5h-9.1c-0.3,0-0.5,0.3-0.5,0.6s0.3,0.6,0.5,0.6h2.4
		l-8.6,26.7h-2.3c-0.3,0-0.5,0.3-0.5,0.6c0,0.3,0.2,0.6,0.5,0.6h6.4c0.3,0,0.5-0.3,0.5-0.6c0-0.3-0.3-0.6-0.5-0.6h-2.8l2.3-7.1h12
		l2.2,7.1h-2.3c-0.3,0-0.5,0.3-0.5,0.6c0,0.3,0.3,0.6,0.5,0.6h10.7c0.3,0,0.5-0.3,0.5-0.6C374.8,347,374.6,346.7,374.3,346.7z
		 M352.1,338.4l5.8-17.9l5.5,17.9H352.1z"/>
	<path fill="#000000" class="st0" d="M415.5,318.8h-6.8c-0.4,0-0.6,0.3-0.6,0.6s0.2,0.6,0.6,0.6h2.7v17.1l-12.5-18.1c-0.1-0.1-0.3-0.2-0.4-0.2h-8.9
		c-0.3,0-0.5,0.2-0.5,0.6c0,0.3,0.3,0.6,0.5,0.6h2.3v26.7h-2.6c-0.3,0-0.6,0.3-0.6,0.6c0,0.4,0.3,0.6,0.6,0.6h7.6
		c0.3,0,0.6-0.2,0.6-0.6c0-0.3-0.3-0.6-0.6-0.6h-3.8V322l17.8,25.7c0.4,0.5,0.7,0.8,1.1,0.8c0.4,0,0.6-0.5,0.6-1.2v-27.3h2.8
		c0.3,0,0.6-0.3,0.6-0.6S415.8,318.8,415.5,318.8z"/>
	<path fill="#000000" class="st0" d="M467.9,346.7H466v-26.7h1.7c0.3,0,0.6-0.3,0.6-0.6s-0.3-0.6-0.6-0.6h-10c-0.3,0-0.6,0.3-0.6,0.6
		s0.3,0.6,0.6,0.6h1.7v26.7h-2.1c-0.3,0-0.6,0.3-0.6,0.6c0,0.3,0.3,0.6,0.6,0.6h10.5c0.3,0,0.6-0.3,0.6-0.6
		C468.5,346.9,468.2,346.7,467.9,346.7z"/>
	<path fill="#000000" class="st0" d="M483.9,346.7h-1.2l-11.5-18.2l6.6-8.5h3c0.3,0,0.6-0.3,0.6-0.6s-0.3-0.6-0.6-0.6h-7.2c-0.3,0-0.6,0.3-0.6,0.6
		s0.3,0.6,0.6,0.6h2.7l-9.7,12.4c-0.1,0.1-0.1,0.2-0.1,0.3c0,0.1,0.1,0.2,0.1,0.4l8.6,13.6h-2c-0.3,0-0.6,0.3-0.6,0.6
		c0,0.3,0.3,0.6,0.6,0.6h10.7c0.3,0,0.6-0.3,0.6-0.6C484.5,346.9,484.2,346.7,483.9,346.7z"/>
	<path fill="#000000" class="st0" d="M526.3,346.7h-1.7l-8.4-27.4c-0.1-0.4-0.4-0.5-0.7-0.5h-9.1c-0.3,0-0.5,0.3-0.5,0.6s0.2,0.6,0.5,0.6h2.4
		l-8.6,26.7h-2.3c-0.3,0-0.5,0.3-0.5,0.6c0,0.3,0.3,0.6,0.5,0.6h6.4c0.3,0,0.5-0.3,0.5-0.6c0-0.3-0.2-0.6-0.5-0.6h-2.8l2.3-7.1h12
		l2.2,7.1h-2.3c-0.3,0-0.5,0.3-0.5,0.6c0,0.3,0.2,0.6,0.5,0.6h10.7c0.3,0,0.5-0.3,0.5-0.6C526.8,347,526.6,346.7,526.3,346.7z
		 M504.1,338.4l5.8-17.9l5.5,17.9H504.1z"/>
	<path fill="#000000" class="st0" d="M566.1,346.7h-1.9v-7.1c0-2.7-1.7-4.9-4.1-5.7c2.5-1.3,4.3-4,4.3-7.1c0-5.1-3.4-8-8.2-8h-13.6
		c-0.4,0-0.6,0.2-0.6,0.5c0,0.4,0.2,0.6,0.6,0.6h1.9v26.8h-2.2c-0.3,0-0.6,0.3-0.6,0.6c0,0.3,0.3,0.6,0.6,0.6h10
		c0.4,0,0.6-0.3,0.6-0.6c0-0.3-0.2-0.6-0.6-0.6h-1.3v-11.9h6.6v12.5c0,0.4,0.3,0.6,0.6,0.6h7.9c0.3,0,0.6-0.2,0.6-0.6
		C566.8,346.9,566.5,346.7,566.1,346.7z M557.6,333.5c-0.3,0.1-0.7,0.1-1,0.1h-5.6v-13.7h5.2c0.5,0,0.9,0,1.4,0.1V333.5z"/>
	<path fill="#000000" class="st0" d="M602.1,341.3c-0.3,0-0.6,0.2-0.6,0.6v4.8h-9.7v-13.4h8.3v2.1c0,0.4,0.3,0.6,0.7,0.6c0.3,0,0.6-0.2,0.6-0.6
		v-5.6c0-0.4-0.3-0.6-0.6-0.6c-0.3,0-0.6,0.2-0.6,0.6v2.3h-8.3v-12.2h9.5v4.1c0,0.4,0.3,0.6,0.6,0.6c0.3,0,0.6-0.2,0.6-0.6v-4.7
		c0-0.3-0.3-0.6-0.6-0.6h-18.3c-0.4,0-0.6,0.3-0.6,0.6c0,0.3,0.2,0.6,0.6,0.6h1.7v26.7h-1.9c-0.4,0-0.6,0.3-0.6,0.6
		c0,0.3,0.2,0.6,0.6,0.6h18.8c0.3,0,0.6-0.3,0.6-0.6v-5.3C602.8,341.5,602.4,341.3,602.1,341.3z"/>
	<path fill="#000000" class="st0" d="M638.6,341.3c-0.3,0-0.6,0.2-0.6,0.6v4.8h-9.8v-13.4h8.3v2.1c0,0.4,0.3,0.6,0.7,0.6c0.3,0,0.6-0.2,0.6-0.6
		v-5.6c0-0.4-0.3-0.6-0.6-0.6c-0.3,0-0.6,0.2-0.6,0.6v2.3h-8.3v-12.2h9.5v4.1c0,0.4,0.3,0.6,0.6,0.6s0.6-0.2,0.6-0.6v-4.7
		c0-0.3-0.3-0.6-0.6-0.6h-18.3c-0.4,0-0.6,0.3-0.6,0.6c0,0.3,0.2,0.6,0.6,0.6h1.7v26.7h-1.9c-0.4,0-0.6,0.3-0.6,0.6
		c0,0.3,0.2,0.6,0.6,0.6h18.8c0.3,0,0.6-0.3,0.6-0.6v-5.3C639.2,341.5,638.8,341.3,638.6,341.3z"/>
	<path fill="#000000" class="st0" d="M690.9,346.7h-2.3v-26.7h1.9c0.4,0,0.6-0.3,0.6-0.6c0-0.3-0.2-0.6-0.6-0.6h-7.8c-0.3,0-0.6,0.1-0.7,0.5
		l-7.6,20.1l-9.4-20.1c-0.1-0.3-0.4-0.5-0.7-0.5h-8.6c-0.3,0-0.6,0.3-0.6,0.6s0.3,0.6,0.6,0.6h2.3v26.7H655c-0.4,0-0.6,0.3-0.6,0.6
		c0,0.3,0.2,0.6,0.6,0.6h7.6c0.4,0,0.6-0.3,0.6-0.6c0-0.3-0.2-0.6-0.6-0.6h-3.4v-24.5l12.1,25.9c0.1,0.2,0.3,0.4,0.5,0.4
		c0.2,0,0.4-0.1,0.5-0.4l9.7-25.7l0-0.3v24.7h-1.8c-0.4,0-0.6,0.3-0.6,0.6c0,0.3,0.2,0.6,0.6,0.6h10.5c0.4,0,0.6-0.3,0.6-0.6
		C691.5,347,691.3,346.7,690.9,346.7z"/>
</g>
<path fill="#000000" d="M273.602,481.306c-0.578-0.576-1.301-1.03-2.174-1.362c-0.873-0.331-1.885-0.497-3.039-0.497
	c-0.663,0-1.463,0.079-2.4,0.238v-6.077h-1.535v17.711c0.706,0.202,1.402,0.354,2.087,0.454s1.301,0.151,1.849,0.151
	c1.153,0,2.166-0.162,3.039-0.486s1.596-0.764,2.174-1.319c0.576-0.555,1.006-1.211,1.287-1.968s0.42-1.561,0.42-2.411
	s-0.139-1.657-0.42-2.422C274.608,482.554,274.178,481.883,273.602,481.306z M272.391,489.167c-0.852,0.829-2.17,1.243-3.958,1.243
	c-0.39,0-0.805-0.032-1.244-0.097c-0.439-0.065-0.84-0.134-1.2-0.206v-8.845c0.447-0.115,0.887-0.194,1.319-0.237
	c0.433-0.044,0.808-0.065,1.125-0.065c0.894,0,1.668,0.112,2.325,0.335c0.656,0.224,1.199,0.545,1.633,0.963
	c0.432,0.418,0.752,0.919,0.961,1.503s0.314,1.243,0.314,1.979C273.667,487.195,273.241,488.338,272.391,489.167z M247.392,479.446
	c-0.62,0-1.297,0.079-2.033,0.238c-0.735,0.158-1.485,0.433-2.249,0.821l-0.065,1.73c0.548-0.303,0.973-0.52,1.276-0.649
	s0.624-0.237,0.962-0.324c0.338-0.086,0.677-0.158,1.016-0.216s0.667-0.087,0.984-0.087c1.139,0,1.982,0.249,2.53,0.746
	s0.822,1.33,0.822,2.498v0.13c-0.332-0.044-0.732-0.087-1.2-0.13c-0.469-0.043-0.876-0.065-1.222-0.065
	c-1.831,0-3.302,0.311-4.412,0.931c-1.11,0.619-1.665,1.644-1.665,3.07c0,0.707,0.155,1.305,0.465,1.795
	c0.31,0.49,0.713,0.88,1.211,1.168s1.067,0.497,1.708,0.627c0.641,0.13,1.308,0.194,2,0.194c0.807,0,1.6-0.072,2.378-0.216
	c0.779-0.145,1.536-0.368,2.271-0.671v-7.028c0-1.585-0.397-2.742-1.189-3.471C250.189,479.811,248.992,479.446,247.392,479.446z
	 M250.636,489.892c-0.375,0.144-0.858,0.267-1.449,0.367c-0.591,0.102-1.183,0.151-1.773,0.151c-0.505,0-0.984-0.035-1.438-0.108
	c-0.454-0.071-0.84-0.197-1.157-0.378c-0.317-0.18-0.57-0.414-0.757-0.703c-0.188-0.288-0.281-0.663-0.281-1.124
	c0-0.52,0.111-0.934,0.335-1.244c0.224-0.31,0.533-0.551,0.93-0.724c0.396-0.174,0.85-0.296,1.362-0.368
	c0.511-0.072,1.041-0.108,1.589-0.108c0.476,0,0.984,0.029,1.524,0.087c0.541,0.058,0.912,0.108,1.114,0.151V489.892z
	 M258.032,479.868c-0.649,0.122-1.276,0.263-1.881,0.422v11.418h1.535v-10.186c0.202-0.072,0.563-0.147,1.082-0.228
	c0.519-0.079,1.002-0.118,1.449-0.118h1.989v-1.492H260C259.336,479.685,258.681,479.746,258.032,479.868z M-77.92,487.667
	l241.145,0.656l0.663-0.433l-0.632-0.564L-77.92,487.667z M164.994,487.825l1.95,1.95l1.95-1.95l-1.95-1.95L164.994,487.825z
	 M169.559,487.825l3.057,3.057l3.057-3.057l-3.057-3.057L169.559,487.825z M212.359,489.286l-3.395-9.602h-1.514l-3.396,9.602
	l-2.984-9.602h-1.73l3.979,12.023h1.428l3.46-9.645l3.46,9.645h1.427l3.979-12.023h-1.73L212.359,489.286z M238.418,489.589
	c-0.317,0-0.591,0.115-0.822,0.346c-0.231,0.23-0.346,0.505-0.346,0.822c0,0.316,0.115,0.591,0.346,0.821
	c0.23,0.23,0.504,0.346,0.822,0.346c0.317,0,0.591-0.115,0.822-0.346c0.23-0.23,0.346-0.505,0.346-0.821
	c0-0.317-0.116-0.592-0.346-0.822C239.009,489.704,238.735,489.589,238.418,489.589z M193.243,489.286l-3.395-9.602h-1.514
	l-3.396,9.602l-2.984-9.602h-1.73l3.979,12.023h1.428l3.46-9.645l3.46,9.645h1.427l3.979-12.023h-1.73L193.243,489.286z
	 M231.476,489.286l-3.395-9.602h-1.514l-3.396,9.602l-2.984-9.602h-1.73l3.979,12.023h1.428l3.46-9.645l3.46,9.645h1.427
	l3.979-12.023h-1.73L231.476,489.286z M382.732,480.474c-0.426-0.396-0.938-0.667-1.535-0.812c-0.598-0.144-1.271-0.216-2.021-0.216
	c-0.664,0-1.393,0.09-2.184,0.271c-0.793,0.181-1.471,0.4-2.033,0.659c-0.346-0.331-0.818-0.569-1.416-0.714
	c-0.6-0.144-1.273-0.216-2.023-0.216c-0.635,0-1.268,0.058-1.902,0.173l-2.465,0.454v11.635h1.535v-10.38
	c0.447-0.102,0.883-0.188,1.309-0.26c0.424-0.072,0.896-0.108,1.416-0.108c0.605,0,1.125,0.058,1.557,0.173
	c0.434,0.116,0.789,0.321,1.07,0.616c0.281,0.296,0.494,0.711,0.639,1.244s0.217,1.24,0.217,2.119v6.596h1.535v-7.201
	c0-0.663-0.055-1.243-0.162-1.741c-0.109-0.497-0.213-0.861-0.314-1.092c0.086-0.043,0.281-0.119,0.584-0.228
	c0.303-0.107,0.602-0.197,0.898-0.27c0.295-0.072,0.586-0.126,0.875-0.162s0.547-0.055,0.779-0.055c0.59,0,1.102,0.058,1.535,0.173
	c0.432,0.116,0.781,0.317,1.049,0.605c0.266,0.289,0.471,0.703,0.615,1.244c0.145,0.54,0.217,1.251,0.217,2.13v6.596h1.535v-7.201
	c0-0.995-0.111-1.816-0.336-2.466C383.482,481.393,383.158,480.87,382.732,480.474z M280.1,474.581
	c-0.785,0.648-1.18,1.729-1.18,3.243v1.86h-2.551v1.492h2.551v10.531h1.537v-10.531h4.973v-1.492h-4.973v-1.471
	c0-0.635,0.045-1.149,0.141-1.546c0.094-0.396,0.24-0.707,0.443-0.931c0.201-0.223,0.475-0.385,0.82-0.486
	c0.346-0.101,0.779-0.151,1.299-0.151h2.422v-1.492h-2.271C281.956,473.607,280.885,473.932,280.1,474.581z M398.273,487.825
	l3.057,3.057l3.057-3.057l-3.057-3.057L398.273,487.825z M343.322,482.322c0.389-0.418,0.854-0.749,1.395-0.994
	s1.135-0.368,1.783-0.368c0.736,0,1.373,0.076,1.914,0.228s1.121,0.414,1.74,0.789l0.715-1.405c-0.707-0.39-1.393-0.674-2.055-0.854
	c-0.664-0.181-1.436-0.271-2.314-0.271c-0.85,0-1.639,0.155-2.367,0.465c-0.729,0.311-1.367,0.746-1.914,1.309
	c-0.549,0.563-0.98,1.222-1.297,1.979c-0.317,0.757-0.476,1.59-0.476,2.498s0.158,1.74,0.476,2.497
	c0.316,0.757,0.748,1.413,1.297,1.969c0.547,0.555,1.186,0.987,1.914,1.297c0.729,0.311,1.518,0.465,2.367,0.465
	c0.879,0,1.65-0.09,2.314-0.27c0.662-0.181,1.348-0.466,2.055-0.854l-0.715-1.406c-0.619,0.375-1.199,0.639-1.74,0.79
	s-1.178,0.227-1.914,0.227c-0.648,0-1.242-0.119-1.783-0.356c-0.541-0.238-1.006-0.565-1.395-0.984
	c-0.391-0.418-0.693-0.915-0.908-1.492c-0.217-0.576-0.324-1.203-0.324-1.881s0.107-1.305,0.324-1.882
	C342.628,483.238,342.931,482.741,343.322,482.322z M404.387,487.825l1.949,1.95l1.951-1.95l-1.951-1.95L404.387,487.825z
	 M410.701,487.326l-0.664,0.433l0.633,0.564l241.176-0.341L410.701,487.326z M362.611,481.295c-0.549-0.569-1.193-1.02-1.936-1.352
	c-0.742-0.331-1.547-0.497-2.412-0.497c-0.863,0-1.668,0.166-2.41,0.497c-0.742,0.332-1.389,0.782-1.936,1.352
	c-0.549,0.57-0.977,1.229-1.287,1.979c-0.311,0.749-0.465,1.557-0.465,2.422s0.154,1.672,0.465,2.422s0.738,1.409,1.287,1.979
	c0.547,0.569,1.193,1.017,1.936,1.341s1.547,0.486,2.41,0.486c0.865,0,1.67-0.162,2.412-0.486s1.387-0.771,1.936-1.341
	c0.547-0.569,0.977-1.229,1.287-1.979c0.309-0.75,0.465-1.557,0.465-2.422s-0.156-1.673-0.465-2.422
	C363.587,482.524,363.158,481.865,362.611,481.295z M362.394,487.523c-0.217,0.569-0.52,1.067-0.908,1.492
	c-0.389,0.426-0.857,0.765-1.406,1.017c-0.547,0.252-1.152,0.378-1.816,0.378c-0.662,0-1.268-0.126-1.816-0.378
	c-0.547-0.252-1.016-0.591-1.404-1.017c-0.391-0.425-0.693-0.923-0.908-1.492c-0.217-0.569-0.324-1.179-0.324-1.827
	c0-0.649,0.107-1.262,0.324-1.839c0.215-0.576,0.518-1.077,0.908-1.503c0.389-0.425,0.857-0.764,1.404-1.016
	c0.549-0.252,1.154-0.379,1.816-0.379c0.664,0,1.27,0.127,1.816,0.379c0.549,0.252,1.018,0.591,1.406,1.016
	c0.389,0.426,0.691,0.927,0.908,1.503c0.217,0.577,0.324,1.189,0.324,1.839C362.718,486.345,362.611,486.954,362.394,487.523z
	 M296.221,481.295c-0.547-0.569-1.191-1.02-1.936-1.352c-0.742-0.331-1.545-0.497-2.41-0.497s-1.67,0.166-2.412,0.497
	c-0.742,0.332-1.387,0.782-1.936,1.352c-0.547,0.57-0.977,1.229-1.285,1.979c-0.311,0.749-0.465,1.557-0.465,2.422
	s0.154,1.672,0.465,2.422c0.309,0.75,0.738,1.409,1.285,1.979c0.549,0.569,1.193,1.017,1.936,1.341s1.547,0.486,2.412,0.486
	s1.668-0.162,2.41-0.486c0.744-0.324,1.389-0.771,1.936-1.341c0.549-0.569,0.977-1.229,1.287-1.979s0.465-1.557,0.465-2.422
	s-0.154-1.673-0.465-2.422C297.198,482.524,296.77,481.865,296.221,481.295z M296.006,487.523c-0.217,0.569-0.52,1.067-0.908,1.492
	c-0.391,0.426-0.859,0.765-1.406,1.017c-0.549,0.252-1.154,0.378-1.816,0.378c-0.664,0-1.27-0.126-1.816-0.378
	c-0.549-0.252-1.018-0.591-1.406-1.017c-0.389-0.425-0.691-0.923-0.908-1.492s-0.324-1.179-0.324-1.827
	c0-0.649,0.107-1.262,0.324-1.839c0.217-0.576,0.52-1.077,0.908-1.503c0.389-0.425,0.857-0.764,1.406-1.016
	c0.547-0.252,1.152-0.379,1.816-0.379c0.662,0,1.268,0.127,1.816,0.379c0.547,0.252,1.016,0.591,1.406,1.016
	c0.389,0.426,0.691,0.927,0.908,1.503c0.215,0.577,0.324,1.189,0.324,1.839C296.331,486.345,296.221,486.954,296.006,487.523z
	 M309.381,480.463c-0.455-0.39-0.996-0.656-1.623-0.801c-0.627-0.144-1.309-0.216-2.043-0.216c-0.707,0-1.465,0.047-2.271,0.141
	s-1.701,0.234-2.682,0.422v11.699h1.535v-10.402c1.184-0.23,2.293-0.346,3.33-0.346c0.592,0,1.111,0.062,1.559,0.184
	c0.445,0.123,0.818,0.332,1.113,0.628c0.295,0.295,0.525,0.713,0.691,1.254s0.25,1.251,0.25,2.13v6.553h1.535v-7.201
	c0-0.995-0.119-1.82-0.357-2.477C310.18,481.375,309.834,480.852,309.381,480.463z M318.516,490.054
	c-0.346-0.108-0.619-0.277-0.82-0.509c-0.203-0.23-0.35-0.547-0.443-0.951c-0.096-0.403-0.141-0.922-0.141-1.557v-5.86h4.973v-1.492
	h-4.973v-4.347h-1.537v4.347h-2.551v1.492h2.551v6.466c0,0.764,0.109,1.405,0.326,1.925c0.215,0.519,0.525,0.937,0.93,1.254
	c0.402,0.317,0.867,0.544,1.395,0.682c0.525,0.137,1.105,0.205,1.74,0.205h2.271v-1.492h-2.422
	C319.295,490.216,318.862,490.162,318.516,490.054z M337.784,489.589c-0.316,0-0.59,0.115-0.82,0.346s-0.346,0.505-0.346,0.822
	c0,0.316,0.115,0.591,0.346,0.821s0.504,0.346,0.82,0.346c0.318,0,0.592-0.115,0.822-0.346s0.346-0.505,0.346-0.821
	c0-0.317-0.115-0.592-0.346-0.822S338.102,489.589,337.784,489.589z M333.178,486.106c-0.346-0.303-0.785-0.565-1.318-0.789
	c-0.533-0.223-1.182-0.422-1.947-0.595l-0.799-0.173c-1.053-0.216-1.781-0.461-2.184-0.735c-0.404-0.273-0.607-0.678-0.607-1.211
	c0-0.504,0.238-0.904,0.715-1.2c0.475-0.295,1.174-0.443,2.098-0.443c0.793,0,1.477,0.076,2.055,0.228
	c0.576,0.151,1.217,0.421,1.924,0.811l0.691-1.405c-1.412-0.765-2.969-1.146-4.67-1.146c-0.635,0-1.223,0.076-1.764,0.228
	c-0.539,0.151-1.008,0.364-1.404,0.638s-0.711,0.605-0.941,0.994c-0.23,0.39-0.346,0.815-0.346,1.276
	c0,0.462,0.072,0.88,0.217,1.254c0.143,0.375,0.381,0.707,0.713,0.995s0.758,0.537,1.275,0.746c0.52,0.209,1.146,0.4,1.883,0.573
	l0.908,0.194c1.008,0.217,1.729,0.49,2.162,0.822c0.432,0.331,0.648,0.771,0.648,1.318c0,0.39-0.086,0.707-0.26,0.952
	c-0.172,0.245-0.414,0.436-0.725,0.573c-0.311,0.137-0.678,0.237-1.102,0.303c-0.426,0.064-0.877,0.097-1.352,0.097
	c-0.592,0-1.223-0.09-1.893-0.271c-0.67-0.18-1.352-0.479-2.045-0.897l-0.734,1.471c0.779,0.433,1.539,0.742,2.281,0.93
	s1.539,0.281,2.391,0.281c0.748,0,1.434-0.072,2.053-0.216c0.621-0.145,1.158-0.36,1.611-0.648c0.455-0.289,0.805-0.649,1.049-1.082
	c0.246-0.433,0.369-0.93,0.369-1.492c0-0.476-0.072-0.915-0.217-1.318C333.77,486.763,333.526,486.41,333.178,486.106z"/>
</svg>

