<?xml version="1.0" encoding="utf-8"?>
<!-- Generator: Adobe Illustrator 22.1.0, SVG Export Plug-In . SVG Version: 6.00 Build 0)  -->
<svg version="1.1" id="Layer_1" xmlns="http://www.w3.org/2000/svg" xmlns:xlink="http://www.w3.org/1999/xlink" x="0px" y="0px"
	 viewBox="0 0 800 500" style="enable-background:new 0 0 800 500;" xml:space="preserve">
<style type="text/css">
	.st0{fill:#010101;}
</style>
<g>
	<g>
		<path fill="#000000" class="st0" d="M750.5,196.6h-27.7c-0.9,0-1.5,0.7-1.5,1.6c0,0.9,0.6,1.5,1.5,1.5h5.3v71.7c-1.6,0.6-3.5,0.8-5.4,0.8
			c-10.1,0-18.5-7.8-19.3-17.9c-0.1-0.9-0.8-1.6-1.6-1.6h-0.1c-0.8,0-1.6,0.7-1.6,1.6v0.2c0.9,11.8,10.6,20.9,22.6,20.9
			c12.6,0,22.6-10.4,22.6-23.1v-52.6h5.2c0.9,0,1.5-0.7,1.5-1.5C752,197.3,751.4,196.6,750.5,196.6z M742,252.3
			c0,7.7-4.3,14.4-10.6,17.8v-70.3H742V252.3z"/>
		<path fill="#000000" class="st0" d="M213.5,196.6h-27.7c-0.9,0-1.5,0.7-1.5,1.6c0,0.9,0.6,1.5,1.5,1.5h5.3v71.7c-1.6,0.6-3.5,0.8-5.4,0.8
			c-10.1,0-18.5-7.8-19.3-17.9c-0.1-0.9-0.8-1.6-1.6-1.6h-0.1c-0.8,0-1.6,0.7-1.6,1.6v0.2c0.9,11.8,10.6,20.9,22.6,20.9
			c12.6,0,22.6-10.4,22.6-23.1v-52.6h5.2c0.9,0,1.5-0.7,1.5-1.5C215.1,197.3,214.4,196.6,213.5,196.6z M205.1,252.3
			c0,7.7-4.3,14.4-10.6,17.8v-70.3h10.6V252.3z"/>
		<path fill="#000000" class="st0" d="M476.8,195.2h-27.9c-0.9,0-1.8,0.5-1.8,1.4s0.9,1.6,1.8,1.6h5.1v69.3c-3.8,2-8.1,3.1-12.6,3.1
			c-4.5,0-8.8-1.1-12.6-3.1v-69.3h5.1c0.9,0,1.5-0.6,1.5-1.5c0-0.9-0.7-1.5-1.5-1.5h-28.6c-0.9,0-1.5,0.6-1.5,1.5
			c0,0.9,0.6,1.5,1.5,1.5h5.2v45c0,17,13.9,30.7,30.9,30.7c17,0,30.9-13.8,30.9-30.7v-45h4.5c0.8,0,1.5-0.8,1.5-1.6
			S477.5,195.2,476.8,195.2z M425.5,265.7c-7.1-4.9-11.7-13.1-11.7-22.4v-45h11.7V265.7z M469,243.3c0,9.2-4.6,17.4-11.7,22.4v-67.4
			H469V243.3z"/>
		<path fill="#000000" class="st0" d="M690.5,270.7h-2.4v-45c0-0.9,0-1.8-0.1-2.7c-0.3-3.9-1.4-7.7-3.2-11c-0.1-0.1-0.1-0.2-0.1-0.3
			c-2.6-5.1-6.7-9.3-11.5-12.3c-0.1,0-0.1-0.1-0.1-0.1c-2.5-1.5-5.2-2.6-8.1-3.4c-0.5-0.1-0.9-0.2-1.4-0.3c-2-0.4-4.2-0.7-6.3-0.7
			c-8.5,0-16.1,3.4-21.7,9c-0.8,0.8-1.5,1.6-2.2,2.4c-1.4,1.7-2.6,3.6-3.6,5.6c-2.1,4.2-3.3,8.8-3.3,13.8v45h-24.8v-45
			c0-0.9,0-1.8-0.1-2.7c-0.3-3.9-1.4-7.7-3.2-11c-0.1-0.1-0.1-0.2-0.1-0.3c-2.6-5.1-6.7-9.3-11.5-12.3c-0.1,0-0.1-0.1-0.1-0.1
			c-2.5-1.5-5.2-2.6-8.1-3.4c-0.5-0.1-0.9-0.2-1.4-0.3c-2-0.4-4.2-0.7-6.3-0.7c-8.5,0-16.1,3.4-21.7,9c-0.8,0.8-1.5,1.6-2.2,2.4
			c-1.4,1.7-2.6,3.6-3.6,5.6c-2.1,4.2-3.3,8.8-3.3,13.8v45h-13.3c-4.5,0-8.8-1.1-12.6-3.1v-69.3h5.1c0.9,0,1.6-0.6,1.6-1.5
			c0-0.9-0.7-1.5-1.6-1.5h-28.6c-0.9,0-1.5,0.6-1.5,1.5c0,0.9,0.7,1.5,1.5,1.5h5.2v45c0,15.3,11.2,27.9,25.8,30.3
			c0.2,0.1,0.5,0.2,0.8,0.2h0.8c1.1,0.1,2.3,0.2,3.5,0.2l14.4-0.2h149.4c0.9,0,1.5-0.7,1.5-1.6C692.1,271.4,691.4,270.7,690.5,270.7
			z M510.8,265.7c-7.1-4.9-11.7-13.1-11.7-22.4v-45h11.7V265.7z M554.9,270.7h-11.7v-45c0-6.4,2.2-12.2,5.8-16.8
			c0.7-0.9,1.4-1.7,2.2-2.5c1.1-1.1,2.3-2.1,3.6-3V270.7z M583.4,270.7h-25.1v-69.3c3.8-2,8.1-3.1,12.6-3.1c4.5,0,8.7,1.1,12.5,3
			c0,0,0.1,0,0.1,0.1V270.7z M598.4,270.7h-11.7v-67.4c0,0,0,0,0,0c6.4,4.5,10.8,11.6,11.5,19.8c0.1,0.8,0.1,1.7,0.1,2.6V270.7z
			 M641.4,270.7h-11.7v-45c0-6.4,2.2-12.2,5.8-16.8c0.7-0.9,1.4-1.7,2.2-2.5c1.1-1.1,2.3-2.1,3.6-3V270.7z M669.9,270.7h-25.1v-69.3
			c3.8-2,8.1-3.1,12.6-3.1c4.5,0,8.7,1.1,12.5,3c0,0,0.1,0,0.1,0.1V270.7z M684.9,270.7h-11.7v-67.4c0,0,0,0,0,0
			c6.4,4.5,10.8,11.6,11.5,19.8c0.1,0.8,0.1,1.7,0.1,2.6V270.7z"/>
		<path fill="#000000" class="st0" d="M383.6,270.7h-2.4v-45c0-0.9,0-1.8-0.1-2.7c-0.3-3.9-1.4-7.7-3.2-11c-0.1-0.1-0.1-0.2-0.1-0.3
			c-2.6-5.1-6.7-9.3-11.5-12.3c-0.1,0-0.1-0.1-0.1-0.1c-2.5-1.5-5.2-2.6-8.1-3.4c-0.5-0.1-0.9-0.2-1.4-0.3c-2-0.4-4.2-0.7-6.3-0.7
			c-8.5,0-16.1,3.4-21.7,9c-0.8,0.8-1.5,1.6-2.2,2.4c-1.4,1.7-2.6,3.6-3.6,5.6c-2.1,4.2-3.3,8.8-3.3,13.8v45h-57.7
			c-4.5,0-8.8-1.1-12.6-3.1v-69.3h5.1c0.9,0,1.6-0.6,1.6-1.5c0-0.9-0.7-1.5-1.6-1.5h-28.5c-0.9,0-1.6,0.6-1.6,1.5
			c0,0.9,0.7,1.5,1.6,1.5h5.2v45c0,15.3,11.2,27.9,25.8,30.3c0.2,0.1,0.5,0.2,0.8,0.2h0.8c1.1,0.1,2.3,0.2,3.4,0.2l14.4-0.2h107.4
			c0.9,0,1.5-0.7,1.5-1.6C385.1,271.4,384.5,270.7,383.6,270.7z M245.9,265.7c-7-4.9-11.7-13.1-11.7-22.4v-45h11.7V265.7z
			 M334.5,270.7h-11.7v-45c0-6.4,2.2-12.2,5.8-16.8c0.7-0.9,1.4-1.7,2.2-2.5c1.1-1.1,2.3-2.1,3.6-3V270.7z M363,270.7h-25.1v-69.3
			c3.8-2,8.1-3.1,12.6-3.1c4.5,0,8.7,1.1,12.5,3c0,0,0.1,0,0.1,0.1V270.7z M377.9,270.7h-11.7v-67.4c0,0,0,0,0,0
			c6.4,4.5,10.8,11.6,11.5,19.8c0.1,0.8,0.1,1.7,0.1,2.6V270.7z"/>
		<path fill="#000000" class="st0" d="M570.9,168.4c-5.6,0-10.2,4.6-10.2,10.2c0,5.6,4.6,10.2,10.2,10.2c5.6,0,10.2-4.6,10.2-10.2
			C581.1,173,576.5,168.4,570.9,168.4z M570.9,185.8c-4,0-7.2-3.2-7.2-7.2s3.2-7.2,7.2-7.2c4,0,7.2,3.2,7.2,7.2
			S574.9,185.8,570.9,185.8z"/>
		<path fill="#000000" class="st0" d="M268.5,282.4c-5.6,0-10.2,4.6-10.2,10.2s4.6,10.2,10.2,10.2c5.6,0,10.2-4.6,10.2-10.2
			S274.1,282.4,268.5,282.4z M268.5,299.8c-4,0-7.2-3.2-7.2-7.2s3.2-7.2,7.2-7.2c4,0,7.2,3.2,7.2,7.2S272.5,299.8,268.5,299.8z"/>
		<path fill="#000000" class="st0" d="M443.6,168.4c-5.6,0-10.2,4.6-10.2,10.2c0,5.6,4.6,10.2,10.2,10.2c5.6,0,10.2-4.6,10.2-10.2
			C453.8,173,449.2,168.4,443.6,168.4z M443.6,185.8c-4,0-7.2-3.2-7.2-7.2s3.2-7.2,7.2-7.2c4,0,7.2,3.2,7.2,7.2
			S447.6,185.8,443.6,185.8z"/>
	</g>
	<g>
		<path fill="#000000" class="st0" d="M100.9,350.4c0,0.4-0.3,0.6-0.6,0.6h-8c-0.4,0-0.6-0.3-0.6-0.6v-12.6h-6.6v12.1h1.3c0.4,0,0.6,0.3,0.6,0.6
			c0,0.3-0.2,0.6-0.6,0.6H76.3c-0.3,0-0.6-0.3-0.6-0.6c0-0.3,0.3-0.6,0.6-0.6h2.2v-27.1h-2c-0.4,0-0.6-0.3-0.6-0.6
			c0-0.3,0.2-0.5,0.6-0.5h13.8c4.8,0,8.3,2.9,8.3,8.1c0,3.2-1.8,5.9-4.3,7.2c2.4,0.8,4.2,3.1,4.2,5.8v7.1h1.9
			C100.6,349.8,100.9,350.1,100.9,350.4z M83.8,349.8v-27.1h-4v27.1H83.8z M91.7,336.5v-13.6c-0.5,0-0.9-0.1-1.4-0.1h-5.2v13.8h5.6
			C91,336.6,91.4,336.5,91.7,336.5z M93,323.1v13c2.6-1,4.4-3.5,4.4-6.5C97.3,326.2,95.6,324,93,323.1z M93,349.8h4.2v-7.1
			c0-2.4-1.8-4.6-4.2-4.9V349.8z"/>
		<path fill="#000000" class="st0" d="M144.8,350.4c0,0.3-0.3,0.6-0.5,0.6h-10.8c-0.3,0-0.5-0.3-0.5-0.6c0-0.3,0.3-0.6,0.5-0.6h2.3l-2.2-7.1h-12.2
			l-2.3,7.1h2.8c0.3,0,0.5,0.3,0.5,0.6c0,0.3-0.3,0.6-0.5,0.6h-6.5c-0.3,0-0.5-0.3-0.5-0.6c0-0.3,0.3-0.6,0.5-0.6h2.4l8.7-27h-2.4
			c-0.3,0-0.5-0.3-0.5-0.6s0.3-0.6,0.5-0.6h9.2c0.3,0,0.6,0.2,0.7,0.5l8.5,27.7h1.7C144.5,349.8,144.8,350.1,144.8,350.4z
			 M133.2,341.5l-5.6-18.1l-5.9,18.1H133.2z M137.1,349.8h4.1l-8.3-27h-4.1L137.1,349.8z"/>
		<path fill="#000000" class="st0" d="M196.3,350.4c0,0.3-0.2,0.6-0.6,0.6H185c-0.4,0-0.6-0.3-0.6-0.6c0-0.3,0.2-0.6,0.6-0.6h1.8v-24.9l0,0.3
			l-9.9,26c-0.1,0.3-0.3,0.4-0.5,0.4c-0.2,0-0.4-0.1-0.5-0.4l-12.3-26.2v24.8h3.5c0.4,0,0.6,0.3,0.6,0.6c0,0.3-0.2,0.6-0.6,0.6h-7.7
			c-0.4,0-0.6-0.3-0.6-0.6c0-0.3,0.2-0.6,0.6-0.6h3v-27H160c-0.3,0-0.6-0.3-0.6-0.6s0.3-0.6,0.6-0.6h8.7c0.3,0,0.6,0.2,0.7,0.5
			l9.5,20.4l7.7-20.3c0.1-0.4,0.4-0.5,0.7-0.5h7.9c0.4,0,0.6,0.3,0.6,0.6c0,0.3-0.2,0.6-0.6,0.6h-1.9v27h2.4
			C196.1,349.8,196.3,350.1,196.3,350.4z M178.3,344l-9.9-21.2h-4.4l12.4,26.5L178.3,344z M188.1,349.8h4v-27h-4V349.8z"/>
		<path fill="#000000" class="st0" d="M241.2,350.4c0,0.3-0.3,0.6-0.5,0.6h-10.8c-0.3,0-0.5-0.3-0.5-0.6c0-0.3,0.3-0.6,0.5-0.6h2.3l-2.2-7.1h-12.2
			l-2.3,7.1h2.8c0.3,0,0.5,0.3,0.5,0.6c0,0.3-0.3,0.6-0.5,0.6h-6.5c-0.3,0-0.5-0.3-0.5-0.6c0-0.3,0.3-0.6,0.5-0.6h2.4l8.7-27h-2.4
			c-0.3,0-0.5-0.3-0.5-0.6s0.3-0.6,0.5-0.6h9.2c0.3,0,0.6,0.2,0.7,0.5l8.5,27.7h1.7C240.9,349.8,241.2,350.1,241.2,350.4z
			 M229.6,341.5l-5.6-18.1l-5.9,18.1H229.6z M233.5,349.8h4.1l-8.3-27h-4.1L233.5,349.8z"/>
		<path fill="#000000" class="st0" d="M283.8,336.3c0,8.9-5.9,14.7-14.7,14.7h-12.2c-0.3,0-0.6-0.2-0.6-0.6c0-0.3,0.3-0.6,0.6-0.6h2.3v-27h-2
			c-0.3,0-0.6-0.3-0.6-0.6s0.3-0.6,0.6-0.6h11.9C277.9,321.6,283.8,327.5,283.8,336.3z M260.5,349.8h4v-27h-4V349.8z M269.1,349.8
			c2.9,0,5.4-0.7,7.4-1.9v-23.2c-2.1-1.3-4.6-1.9-7.4-1.9h-3.3v27H269.1z M282.5,336.3c0-4.6-1.8-8.3-4.7-10.7V347
			C280.7,344.6,282.5,340.9,282.5,336.3z"/>
		<path fill="#000000" class="st0" d="M329.2,350.4c0,0.3-0.3,0.6-0.6,0.6h-11c-0.3,0-0.6-0.3-0.6-0.6c0-0.3,0.3-0.6,0.6-0.6h2.4v-13.6h-10.7v13.6
			h2.5c0.3,0,0.6,0.3,0.6,0.6c0,0.4-0.3,0.6-0.6,0.6h-11.3c-0.3,0-0.6-0.2-0.6-0.6c0-0.3,0.3-0.6,0.6-0.6h2.3v-27h-1.8
			c-0.4,0-0.7-0.3-0.7-0.6s0.3-0.6,0.7-0.6h10.4c0.3,0,0.6,0.3,0.6,0.6s-0.3,0.6-0.6,0.6h-2.1v12.3H320v-12.3h-1.7
			c-0.3,0-0.6-0.3-0.6-0.6s0.3-0.6,0.6-0.6h10.2c0.3,0,0.6,0.3,0.6,0.6s-0.3,0.6-0.6,0.6h-1.9v27h2.1
			C329,349.8,329.2,350.1,329.2,350.4z M308.1,349.8v-27h-4v27H308.1z M321.2,349.8h4v-27h-4V349.8z"/>
		<path fill="#000000" class="st0" d="M374.1,350.4c0,0.3-0.3,0.6-0.5,0.6h-10.8c-0.3,0-0.5-0.3-0.5-0.6c0-0.3,0.3-0.6,0.5-0.6h2.3l-2.2-7.1h-12.2
			l-2.3,7.1h2.8c0.3,0,0.5,0.3,0.5,0.6c0,0.3-0.3,0.6-0.5,0.6h-6.5c-0.3,0-0.5-0.3-0.5-0.6c0-0.3,0.3-0.6,0.5-0.6h2.4l8.7-27h-2.4
			c-0.3,0-0.5-0.3-0.5-0.6s0.3-0.6,0.5-0.6h9.2c0.3,0,0.6,0.2,0.7,0.5l8.5,27.7h1.7C373.9,349.8,374.1,350.1,374.1,350.4z
			 M362.6,341.5l-5.6-18.1l-5.9,18.1H362.6z M366.5,349.8h4.1l-8.3-27h-4.1L366.5,349.8z"/>
		<path fill="#000000" class="st0" d="M415.8,322.2c0,0.3-0.3,0.6-0.6,0.6h-2.9v27.6c0,0.8-0.2,1.3-0.6,1.3s-0.8-0.3-1.1-0.8l-18-26v25h3.8
			c0.3,0,0.6,0.3,0.6,0.6c0,0.4-0.3,0.6-0.6,0.6h-7.7c-0.3,0-0.6-0.2-0.6-0.6c0-0.3,0.3-0.6,0.6-0.6h2.6v-27H389
			c-0.3,0-0.5-0.3-0.5-0.6c0-0.4,0.3-0.6,0.5-0.6h9c0.1,0,0.3,0,0.4,0.2l12.7,18.3v-17.3h-2.8c-0.4,0-0.6-0.3-0.6-0.6
			s0.3-0.6,0.6-0.6h6.9C415.5,321.6,415.8,321.9,415.8,322.2z M411.1,349.3v-7l-13.5-19.5h-4.9L411.1,349.3z"/>
		<path fill="#000000" class="st0" d="M493.3,350.4c0,0.3-0.2,0.6-0.6,0.6h-10.7c-0.4,0-0.6-0.3-0.6-0.6c0-0.3,0.2-0.6,0.6-0.6h1.8v-24.9l0,0.3
			l-9.9,26c-0.1,0.3-0.3,0.4-0.5,0.4c-0.2,0-0.4-0.1-0.5-0.4l-12.3-26.2v24.8h3.5c0.4,0,0.6,0.3,0.6,0.6c0,0.3-0.2,0.6-0.6,0.6h-7.7
			c-0.4,0-0.6-0.3-0.6-0.6c0-0.3,0.2-0.6,0.6-0.6h3v-27H457c-0.3,0-0.6-0.3-0.6-0.6s0.3-0.6,0.6-0.6h8.7c0.3,0,0.6,0.2,0.7,0.5
			l9.5,20.4l7.7-20.3c0.1-0.4,0.4-0.5,0.7-0.5h7.9c0.4,0,0.6,0.3,0.6,0.6c0,0.3-0.2,0.6-0.6,0.6h-1.9v27h2.4
			C493.1,349.8,493.3,350.1,493.3,350.4z M475.3,344l-9.9-21.2H461l12.4,26.5L475.3,344z M485.1,349.8h4v-27h-4V349.8z"/>
		<path fill="#000000" class="st0" d="M539.9,336.3c0,9.1-6.1,15.3-15.2,15.3c-9.1,0-15.2-6.2-15.2-15.3c0-9.2,6.1-15.4,15.2-15.4
			C533.8,321,539.9,327.1,539.9,336.3z M515.9,347.8v-23c-3.3,2.5-5.2,6.5-5.2,11.5C510.7,341.3,512.6,345.3,515.9,347.8z
			 M524.7,350.5c2.9,0,5.4-0.7,7.5-1.8V324c-2.1-1.2-4.6-1.8-7.5-1.8c-2.9,0-5.4,0.7-7.5,1.8v24.6
			C519.3,349.8,521.8,350.5,524.7,350.5z M538.7,336.3c0-5-1.9-9.1-5.2-11.5v23C536.7,345.3,538.7,341.3,538.7,336.3z"/>
		<path fill="#000000" class="st0" d="M571.8,351h-15.1c-0.4,0-0.6-0.3-0.6-0.6c0-0.3,0.2-0.6,0.6-0.6h2.3v-27H557c-0.4,0-0.6-0.3-0.6-0.6
			s0.2-0.6,0.6-0.6h14.7c3.9,0,7.1,3.2,7.1,7.1c0,2.9-1.8,5.4-4.2,6.5c3.1,1.1,5.2,4.1,5.2,7.5C579.8,347.3,576.2,351,571.8,351z
			 M560.2,349.8h4v-27h-4V349.8z M571.7,322.8h-6.2v11.9h6.2c0.3,0,0.5,0,0.8,0v-11.8C572.2,322.9,572,322.8,571.7,322.8z
			 M571.7,349.8c0.3,0,0.5,0,0.8,0v-13.8c-0.3,0-0.5,0-0.8,0h-6.2v13.9H571.7z M573.8,323.2v11.1c2.2-0.8,3.8-3,3.8-5.5
			C577.6,326.3,576,324.1,573.8,323.2z M578.5,342.8c0-3.1-2-5.7-4.7-6.5v13.3C576.6,348.6,578.5,345.9,578.5,342.8z"/>
		<path fill="#000000" class="st0" d="M624.5,350.4c0,0.3-0.3,0.6-0.5,0.6h-10.8c-0.3,0-0.5-0.3-0.5-0.6c0-0.3,0.3-0.6,0.5-0.6h2.3l-2.2-7.1h-12.2
			l-2.3,7.1h2.8c0.3,0,0.5,0.3,0.5,0.6c0,0.3-0.3,0.6-0.5,0.6h-6.5c-0.3,0-0.5-0.3-0.5-0.6c0-0.3,0.3-0.6,0.5-0.6h2.4l8.7-27h-2.4
			c-0.3,0-0.5-0.3-0.5-0.6s0.3-0.6,0.5-0.6h9.2c0.3,0,0.6,0.2,0.7,0.5l8.5,27.7h1.7C624.2,349.8,624.5,350.1,624.5,350.4z
			 M612.9,341.5l-5.6-18.1l-5.9,18.1H612.9z M616.8,349.8h4.1l-8.3-27h-4.1L616.8,349.8z"/>
		<path fill="#000000" class="st0" d="M664.8,350.4c0,0.4-0.3,0.6-0.6,0.6h-8c-0.4,0-0.6-0.3-0.6-0.6v-12.6H649v12.1h1.3c0.4,0,0.6,0.3,0.6,0.6
			c0,0.3-0.2,0.6-0.6,0.6h-10.1c-0.3,0-0.6-0.3-0.6-0.6c0-0.3,0.3-0.6,0.6-0.6h2.2v-27.1h-2c-0.4,0-0.6-0.3-0.6-0.6
			c0-0.3,0.2-0.5,0.6-0.5h13.8c4.8,0,8.3,2.9,8.3,8.1c0,3.2-1.8,5.9-4.3,7.2c2.4,0.8,4.2,3.1,4.2,5.8v7.1h1.9
			C664.6,349.8,664.8,350.1,664.8,350.4z M647.7,349.8v-27.1h-4v27.1H647.7z M655.6,336.5v-13.6c-0.5,0-0.9-0.1-1.4-0.1H649v13.8
			h5.6C654.9,336.6,655.3,336.5,655.6,336.5z M656.9,323.1v13c2.6-1,4.4-3.5,4.4-6.5C661.2,326.2,659.6,324,656.9,323.1z
			 M656.9,349.8h4.2v-7.1c0-2.4-1.8-4.6-4.2-4.9V349.8z"/>
		<path fill="#000000" class="st0" d="M708.7,350.4c0,0.3-0.3,0.6-0.5,0.6h-10.8c-0.3,0-0.5-0.3-0.5-0.6c0-0.3,0.3-0.6,0.5-0.6h2.3l-2.2-7.1h-12.2
			l-2.3,7.1h2.8c0.3,0,0.5,0.3,0.5,0.6c0,0.3-0.3,0.6-0.5,0.6h-6.5c-0.3,0-0.5-0.3-0.5-0.6c0-0.3,0.3-0.6,0.5-0.6h2.4l8.7-27H688
			c-0.3,0-0.5-0.3-0.5-0.6s0.3-0.6,0.5-0.6h9.2c0.3,0,0.6,0.2,0.7,0.5l8.5,27.7h1.7C708.4,349.8,708.7,350.1,708.7,350.4z
			 M697.2,341.5l-5.6-18.1l-5.9,18.1H697.2z M701,349.8h4.1l-8.3-27h-4.1L701,349.8z"/>
		<path fill="#000000" class="st0" d="M735.7,350.4c0,0.3-0.3,0.6-0.6,0.6h-10.6c-0.3,0-0.6-0.3-0.6-0.6c0-0.3,0.3-0.6,0.6-0.6h2.1v-27h-1.8
			c-0.3,0-0.6-0.3-0.6-0.6s0.3-0.6,0.6-0.6h10.1c0.3,0,0.6,0.3,0.6,0.6s-0.3,0.6-0.6,0.6h-1.8v27h2
			C735.4,349.8,735.7,350.1,735.7,350.4z M727.8,349.8h4v-27h-4V349.8z M751.9,350.4c0,0.3-0.3,0.6-0.6,0.6h-10.8
			c-0.3,0-0.6-0.3-0.6-0.6c0-0.3,0.3-0.6,0.6-0.6h2.1l-8.7-13.8c-0.1-0.1-0.1-0.3-0.1-0.4s0-0.3,0.1-0.3l9.8-12.5h-2.7
			c-0.3,0-0.6-0.3-0.6-0.6s0.3-0.6,0.6-0.6h7.3c0.3,0,0.6,0.3,0.6,0.6s-0.3,0.6-0.6,0.6h-3.1l-6.7,8.6l11.7,18.4h1.2
			C751.6,349.8,751.9,350.1,751.9,350.4z M744,349.8h4.7l-11-17.4l-2.6,3.4L744,349.8z"/>
	</g>
	<path fill="#000000" class="st0" d="M306.3,195.3h-27.7c-0.6,0-1.1,0.3-1.4,0.8c-0.1,0.2-0.2,0.5-0.2,0.7c0,0.9,0.6,1.5,1.5,1.5h5.3V270
		c-1,0.3-2.2,0.6-3.3,0.6c-0.7,0.1-1.4,0.1-2.1,0.1c-0.7,0-1.4,0.5-2,0.4h-10c2.4,1.5,5.2,2.1,8.2,2.6c1.3,0.2,2.5-0.2,3.9-0.2
		c1.3,0,2.6,0.4,3.9,0.2c2.9-0.5,5.6-1.6,8-3.1c1.8-1.1,3.4-2.5,4.8-4.1l2-2.6c0.1-0.2,0.2-0.3,0.4-0.5c0.1-0.1,0.1-0.2,0.2-0.4
		c0.4-0.6,0.7-1.3,1.1-1.9c1.4-2.9,2.1-6.1,2.2-9.5c0-0.2,0-0.5,0-0.7v-52.6h5.2c0.9,0,1.5-0.6,1.6-1.5v-0.1
		C307.8,195.9,307.1,195.3,306.3,195.3z M297.8,250.9c0,3.7-1,7.2-2.7,10.2c-0.6,1-1.2,1.9-1.9,2.8c-1.6,2-3.7,3.6-5.9,4.8v-70.3
		h10.6V250.9z"/>
	<path fill="#000000" class="st0" d="M160.8,270.6h-3.1l-44.8-70.8l-2-3.1h-3.8l2,3.1l44.8,70.8h-12.2L100.1,205l4-5.2l2.4-3.1h-3.2
		c-0.4,0-0.8,0.2-1.1,0.4c-0.1,0.1-0.1,0.1-0.2,0.2l-5.3,6.5c-0.2,0.2-0.3,0.6-0.3,0.9c0,0.3,0.1,0.7,0.3,1l41.1,64.8h-28.1
		c-0.2,0-0.4,0-0.5,0.1v-0.1H82.6v3.3h12l14.4-0.2v-0.1c0.2,0.1,0.4,0.1,0.5,0.1h51.1c0.9,0,1.6-0.7,1.6-1.6
		C162.4,271.3,161.6,270.6,160.8,270.6z"/>
	<path fill="#000000" class="st0" d="M161.1,198.3c0,0.9-0.6,1.5-1.5,1.5h-56.4c-0.9,0-1.5-0.7-1.5-1.5c0-0.3,0.1-0.6,0.3-0.9
		c0-0.1,0.1-0.1,0.2-0.2c0.3-0.3,0.6-0.4,1.1-0.4h56.4C160.4,196.7,161.1,197.4,161.1,198.3z"/>
	<path fill="#000000" class="st0" d="M99.6,246.5H88v-1.7c0-0.3-0.2-0.5-0.5-0.5c-0.3,0-0.5,0.2-0.5,0.5v0.3c0.1,1.2,0.4,2.4,1,3.3v-0.9h11.6
		c2.5,0,4.6,1.4,5.7,3.4h-15c0.9,0.6,2,1,3.2,1.1h12.2c0.2,0.5,0.2,1.1,0.2,1.7c0,3.3-2.5,6-5.7,6.2c-0.3,0-0.5,0.2-0.5,0.5v0
		c0,0.3,0.2,0.5,0.5,0.5h0.1c3.8-0.3,6.7-3.4,6.7-7.3C107.1,249.7,103.8,246.5,99.6,246.5z"/>
	<path fill="#000000" class="st0" d="M101.3,236.9c-0.3,0-0.5,0.2-0.5,0.5v0.1h-6.4c-4.1,0-7.4,3.2-7.4,7.2c0,0.1,0,0.2,0,0.4
		c0.1,1.2,0.4,2.4,1,3.3c0.6,1,1.4,1.8,2.4,2.5c0.9,0.6,2,1,3.2,1.1c0.1,0,0.1,0,0.1,0h0.1c0,0,0.1,0,0.1,0c0.2-0.1,0.4-0.3,0.4-0.5
		v0c0-0.3-0.2-0.5-0.5-0.5c-0.1,0-0.2,0-0.3,0c-2.1-0.3-3.9-1.6-4.8-3.4c-0.2-0.3-0.3-0.7-0.4-1.1c-0.1-0.5-0.2-1.1-0.2-1.7
		s0.1-1.2,0.2-1.7h12.5v0.1c0,0.3,0.2,0.5,0.5,0.5c0.3,0,0.5-0.2,0.5-0.5v-5.7C101.8,237.1,101.6,236.9,101.3,236.9z M100.8,241.9
		H88.7c1.1-2,3.2-3.4,5.7-3.4h6.4V241.9z"/>
</g>
<path fill="#000000" d="M273.602,481.306c-0.578-0.576-1.301-1.03-2.174-1.362c-0.873-0.331-1.885-0.497-3.039-0.497
	c-0.663,0-1.463,0.079-2.4,0.238v-6.077h-1.535v17.711c0.706,0.202,1.402,0.354,2.087,0.454s1.301,0.151,1.849,0.151
	c1.153,0,2.166-0.162,3.039-0.486s1.596-0.764,2.174-1.319c0.576-0.555,1.006-1.211,1.287-1.968s0.42-1.561,0.42-2.411
	s-0.139-1.657-0.42-2.422C274.608,482.554,274.178,481.883,273.602,481.306z M272.391,489.167c-0.852,0.829-2.17,1.243-3.958,1.243
	c-0.39,0-0.805-0.032-1.244-0.097c-0.439-0.065-0.84-0.134-1.2-0.206v-8.845c0.447-0.115,0.887-0.194,1.319-0.237
	c0.433-0.044,0.808-0.065,1.125-0.065c0.894,0,1.668,0.112,2.325,0.335c0.656,0.224,1.199,0.545,1.633,0.963
	c0.432,0.418,0.752,0.919,0.961,1.503s0.314,1.243,0.314,1.979C273.667,487.195,273.241,488.338,272.391,489.167z M247.392,479.446
	c-0.62,0-1.297,0.079-2.033,0.238c-0.735,0.158-1.485,0.433-2.249,0.821l-0.065,1.73c0.548-0.303,0.973-0.52,1.276-0.649
	s0.624-0.237,0.962-0.324c0.338-0.086,0.677-0.158,1.016-0.216s0.667-0.087,0.984-0.087c1.139,0,1.982,0.249,2.53,0.746
	s0.822,1.33,0.822,2.498v0.13c-0.332-0.044-0.732-0.087-1.2-0.13c-0.469-0.043-0.876-0.065-1.222-0.065
	c-1.831,0-3.302,0.311-4.412,0.931c-1.11,0.619-1.665,1.644-1.665,3.07c0,0.707,0.155,1.305,0.465,1.795
	c0.31,0.49,0.713,0.88,1.211,1.168s1.067,0.497,1.708,0.627c0.641,0.13,1.308,0.194,2,0.194c0.807,0,1.6-0.072,2.378-0.216
	c0.779-0.145,1.536-0.368,2.271-0.671v-7.028c0-1.585-0.397-2.742-1.189-3.471C250.189,479.811,248.992,479.446,247.392,479.446z
	 M250.636,489.892c-0.375,0.144-0.858,0.267-1.449,0.367c-0.591,0.102-1.183,0.151-1.773,0.151c-0.505,0-0.984-0.035-1.438-0.108
	c-0.454-0.071-0.84-0.197-1.157-0.378c-0.317-0.18-0.57-0.414-0.757-0.703c-0.188-0.288-0.281-0.663-0.281-1.124
	c0-0.52,0.111-0.934,0.335-1.244c0.224-0.31,0.533-0.551,0.93-0.724c0.396-0.174,0.85-0.296,1.362-0.368
	c0.511-0.072,1.041-0.108,1.589-0.108c0.476,0,0.984,0.029,1.524,0.087c0.541,0.058,0.912,0.108,1.114,0.151V489.892z
	 M258.032,479.868c-0.649,0.122-1.276,0.263-1.881,0.422v11.418h1.535v-10.186c0.202-0.072,0.563-0.147,1.082-0.228
	c0.519-0.079,1.002-0.118,1.449-0.118h1.989v-1.492H260C259.336,479.685,258.681,479.746,258.032,479.868z M-77.92,487.667
	l241.145,0.656l0.663-0.433l-0.632-0.564L-77.92,487.667z M164.994,487.825l1.95,1.95l1.95-1.95l-1.95-1.95L164.994,487.825z
	 M169.559,487.825l3.057,3.057l3.057-3.057l-3.057-3.057L169.559,487.825z M212.359,489.286l-3.395-9.602h-1.514l-3.396,9.602
	l-2.984-9.602h-1.73l3.979,12.023h1.428l3.46-9.645l3.46,9.645h1.427l3.979-12.023h-1.73L212.359,489.286z M238.418,489.589
	c-0.317,0-0.591,0.115-0.822,0.346c-0.231,0.23-0.346,0.505-0.346,0.822c0,0.316,0.115,0.591,0.346,0.821
	c0.23,0.23,0.504,0.346,0.822,0.346c0.317,0,0.591-0.115,0.822-0.346c0.23-0.23,0.346-0.505,0.346-0.821
	c0-0.317-0.116-0.592-0.346-0.822C239.009,489.704,238.735,489.589,238.418,489.589z M193.243,489.286l-3.395-9.602h-1.514
	l-3.396,9.602l-2.984-9.602h-1.73l3.979,12.023h1.428l3.46-9.645l3.46,9.645h1.427l3.979-12.023h-1.73L193.243,489.286z
	 M231.476,489.286l-3.395-9.602h-1.514l-3.396,9.602l-2.984-9.602h-1.73l3.979,12.023h1.428l3.46-9.645l3.46,9.645h1.427
	l3.979-12.023h-1.73L231.476,489.286z M382.732,480.474c-0.426-0.396-0.938-0.667-1.535-0.812c-0.598-0.144-1.271-0.216-2.021-0.216
	c-0.664,0-1.393,0.09-2.184,0.271c-0.793,0.181-1.471,0.4-2.033,0.659c-0.346-0.331-0.818-0.569-1.416-0.714
	c-0.6-0.144-1.273-0.216-2.023-0.216c-0.635,0-1.268,0.058-1.902,0.173l-2.465,0.454v11.635h1.535v-10.38
	c0.447-0.102,0.883-0.188,1.309-0.26c0.424-0.072,0.896-0.108,1.416-0.108c0.605,0,1.125,0.058,1.557,0.173
	c0.434,0.116,0.789,0.321,1.07,0.616c0.281,0.296,0.494,0.711,0.639,1.244s0.217,1.24,0.217,2.119v6.596h1.535v-7.201
	c0-0.663-0.055-1.243-0.162-1.741c-0.109-0.497-0.213-0.861-0.314-1.092c0.086-0.043,0.281-0.119,0.584-0.228
	c0.303-0.107,0.602-0.197,0.898-0.27c0.295-0.072,0.586-0.126,0.875-0.162s0.547-0.055,0.779-0.055c0.59,0,1.102,0.058,1.535,0.173
	c0.432,0.116,0.781,0.317,1.049,0.605c0.266,0.289,0.471,0.703,0.615,1.244c0.145,0.54,0.217,1.251,0.217,2.13v6.596h1.535v-7.201
	c0-0.995-0.111-1.816-0.336-2.466C383.482,481.393,383.158,480.87,382.732,480.474z M280.1,474.581
	c-0.785,0.648-1.18,1.729-1.18,3.243v1.86h-2.551v1.492h2.551v10.531h1.537v-10.531h4.973v-1.492h-4.973v-1.471
	c0-0.635,0.045-1.149,0.141-1.546c0.094-0.396,0.24-0.707,0.443-0.931c0.201-0.223,0.475-0.385,0.82-0.486
	c0.346-0.101,0.779-0.151,1.299-0.151h2.422v-1.492h-2.271C281.956,473.607,280.885,473.932,280.1,474.581z M398.273,487.825
	l3.057,3.057l3.057-3.057l-3.057-3.057L398.273,487.825z M343.322,482.322c0.389-0.418,0.854-0.749,1.395-0.994
	s1.135-0.368,1.783-0.368c0.736,0,1.373,0.076,1.914,0.228s1.121,0.414,1.74,0.789l0.715-1.405c-0.707-0.39-1.393-0.674-2.055-0.854
	c-0.664-0.181-1.436-0.271-2.314-0.271c-0.85,0-1.639,0.155-2.367,0.465c-0.729,0.311-1.367,0.746-1.914,1.309
	c-0.549,0.563-0.98,1.222-1.297,1.979c-0.317,0.757-0.476,1.59-0.476,2.498s0.158,1.74,0.476,2.497
	c0.316,0.757,0.748,1.413,1.297,1.969c0.547,0.555,1.186,0.987,1.914,1.297c0.729,0.311,1.518,0.465,2.367,0.465
	c0.879,0,1.65-0.09,2.314-0.27c0.662-0.181,1.348-0.466,2.055-0.854l-0.715-1.406c-0.619,0.375-1.199,0.639-1.74,0.79
	s-1.178,0.227-1.914,0.227c-0.648,0-1.242-0.119-1.783-0.356c-0.541-0.238-1.006-0.565-1.395-0.984
	c-0.391-0.418-0.693-0.915-0.908-1.492c-0.217-0.576-0.324-1.203-0.324-1.881s0.107-1.305,0.324-1.882
	C342.628,483.238,342.931,482.741,343.322,482.322z M404.387,487.825l1.949,1.95l1.951-1.95l-1.951-1.95L404.387,487.825z
	 M410.701,487.326l-0.664,0.433l0.633,0.564l241.176-0.341L410.701,487.326z M362.611,481.295c-0.549-0.569-1.193-1.02-1.936-1.352
	c-0.742-0.331-1.547-0.497-2.412-0.497c-0.863,0-1.668,0.166-2.41,0.497c-0.742,0.332-1.389,0.782-1.936,1.352
	c-0.549,0.57-0.977,1.229-1.287,1.979c-0.311,0.749-0.465,1.557-0.465,2.422s0.154,1.672,0.465,2.422s0.738,1.409,1.287,1.979
	c0.547,0.569,1.193,1.017,1.936,1.341s1.547,0.486,2.41,0.486c0.865,0,1.67-0.162,2.412-0.486s1.387-0.771,1.936-1.341
	c0.547-0.569,0.977-1.229,1.287-1.979c0.309-0.75,0.465-1.557,0.465-2.422s-0.156-1.673-0.465-2.422
	C363.587,482.524,363.158,481.865,362.611,481.295z M362.394,487.523c-0.217,0.569-0.52,1.067-0.908,1.492
	c-0.389,0.426-0.857,0.765-1.406,1.017c-0.547,0.252-1.152,0.378-1.816,0.378c-0.662,0-1.268-0.126-1.816-0.378
	c-0.547-0.252-1.016-0.591-1.404-1.017c-0.391-0.425-0.693-0.923-0.908-1.492c-0.217-0.569-0.324-1.179-0.324-1.827
	c0-0.649,0.107-1.262,0.324-1.839c0.215-0.576,0.518-1.077,0.908-1.503c0.389-0.425,0.857-0.764,1.404-1.016
	c0.549-0.252,1.154-0.379,1.816-0.379c0.664,0,1.27,0.127,1.816,0.379c0.549,0.252,1.018,0.591,1.406,1.016
	c0.389,0.426,0.691,0.927,0.908,1.503c0.217,0.577,0.324,1.189,0.324,1.839C362.718,486.345,362.611,486.954,362.394,487.523z
	 M296.221,481.295c-0.547-0.569-1.191-1.02-1.936-1.352c-0.742-0.331-1.545-0.497-2.41-0.497s-1.67,0.166-2.412,0.497
	c-0.742,0.332-1.387,0.782-1.936,1.352c-0.547,0.57-0.977,1.229-1.285,1.979c-0.311,0.749-0.465,1.557-0.465,2.422
	s0.154,1.672,0.465,2.422c0.309,0.75,0.738,1.409,1.285,1.979c0.549,0.569,1.193,1.017,1.936,1.341s1.547,0.486,2.412,0.486
	s1.668-0.162,2.41-0.486c0.744-0.324,1.389-0.771,1.936-1.341c0.549-0.569,0.977-1.229,1.287-1.979s0.465-1.557,0.465-2.422
	s-0.154-1.673-0.465-2.422C297.198,482.524,296.77,481.865,296.221,481.295z M296.006,487.523c-0.217,0.569-0.52,1.067-0.908,1.492
	c-0.391,0.426-0.859,0.765-1.406,1.017c-0.549,0.252-1.154,0.378-1.816,0.378c-0.664,0-1.27-0.126-1.816-0.378
	c-0.549-0.252-1.018-0.591-1.406-1.017c-0.389-0.425-0.691-0.923-0.908-1.492s-0.324-1.179-0.324-1.827
	c0-0.649,0.107-1.262,0.324-1.839c0.217-0.576,0.52-1.077,0.908-1.503c0.389-0.425,0.857-0.764,1.406-1.016
	c0.547-0.252,1.152-0.379,1.816-0.379c0.662,0,1.268,0.127,1.816,0.379c0.547,0.252,1.016,0.591,1.406,1.016
	c0.389,0.426,0.691,0.927,0.908,1.503c0.215,0.577,0.324,1.189,0.324,1.839C296.331,486.345,296.221,486.954,296.006,487.523z
	 M309.381,480.463c-0.455-0.39-0.996-0.656-1.623-0.801c-0.627-0.144-1.309-0.216-2.043-0.216c-0.707,0-1.465,0.047-2.271,0.141
	s-1.701,0.234-2.682,0.422v11.699h1.535v-10.402c1.184-0.23,2.293-0.346,3.33-0.346c0.592,0,1.111,0.062,1.559,0.184
	c0.445,0.123,0.818,0.332,1.113,0.628c0.295,0.295,0.525,0.713,0.691,1.254s0.25,1.251,0.25,2.13v6.553h1.535v-7.201
	c0-0.995-0.119-1.82-0.357-2.477C310.18,481.375,309.834,480.852,309.381,480.463z M318.516,490.054
	c-0.346-0.108-0.619-0.277-0.82-0.509c-0.203-0.23-0.35-0.547-0.443-0.951c-0.096-0.403-0.141-0.922-0.141-1.557v-5.86h4.973v-1.492
	h-4.973v-4.347h-1.537v4.347h-2.551v1.492h2.551v6.466c0,0.764,0.109,1.405,0.326,1.925c0.215,0.519,0.525,0.937,0.93,1.254
	c0.402,0.317,0.867,0.544,1.395,0.682c0.525,0.137,1.105,0.205,1.74,0.205h2.271v-1.492h-2.422
	C319.295,490.216,318.862,490.162,318.516,490.054z M337.784,489.589c-0.316,0-0.59,0.115-0.82,0.346s-0.346,0.505-0.346,0.822
	c0,0.316,0.115,0.591,0.346,0.821s0.504,0.346,0.82,0.346c0.318,0,0.592-0.115,0.822-0.346s0.346-0.505,0.346-0.821
	c0-0.317-0.115-0.592-0.346-0.822S338.102,489.589,337.784,489.589z M333.178,486.106c-0.346-0.303-0.785-0.565-1.318-0.789
	c-0.533-0.223-1.182-0.422-1.947-0.595l-0.799-0.173c-1.053-0.216-1.781-0.461-2.184-0.735c-0.404-0.273-0.607-0.678-0.607-1.211
	c0-0.504,0.238-0.904,0.715-1.2c0.475-0.295,1.174-0.443,2.098-0.443c0.793,0,1.477,0.076,2.055,0.228
	c0.576,0.151,1.217,0.421,1.924,0.811l0.691-1.405c-1.412-0.765-2.969-1.146-4.67-1.146c-0.635,0-1.223,0.076-1.764,0.228
	c-0.539,0.151-1.008,0.364-1.404,0.638s-0.711,0.605-0.941,0.994c-0.23,0.39-0.346,0.815-0.346,1.276
	c0,0.462,0.072,0.88,0.217,1.254c0.143,0.375,0.381,0.707,0.713,0.995s0.758,0.537,1.275,0.746c0.52,0.209,1.146,0.4,1.883,0.573
	l0.908,0.194c1.008,0.217,1.729,0.49,2.162,0.822c0.432,0.331,0.648,0.771,0.648,1.318c0,0.39-0.086,0.707-0.26,0.952
	c-0.172,0.245-0.414,0.436-0.725,0.573c-0.311,0.137-0.678,0.237-1.102,0.303c-0.426,0.064-0.877,0.097-1.352,0.097
	c-0.592,0-1.223-0.09-1.893-0.271c-0.67-0.18-1.352-0.479-2.045-0.897l-0.734,1.471c0.779,0.433,1.539,0.742,2.281,0.93
	s1.539,0.281,2.391,0.281c0.748,0,1.434-0.072,2.053-0.216c0.621-0.145,1.158-0.36,1.611-0.648c0.455-0.289,0.805-0.649,1.049-1.082
	c0.246-0.433,0.369-0.93,0.369-1.492c0-0.476-0.072-0.915-0.217-1.318C333.77,486.763,333.526,486.41,333.178,486.106z"/>
</svg>

