<?xml version="1.0" encoding="utf-8"?>
<!-- Generator: Adobe Illustrator 21.0.0, SVG Export Plug-In . SVG Version: 6.00 Build 0)  -->
<svg version="1.1" id="Layer_1" xmlns="http://www.w3.org/2000/svg" xmlns:xlink="http://www.w3.org/1999/xlink" x="0px" y="0px"
	 viewBox="0 0 800 500" style="enable-background:new 0 0 800 500;" xml:space="preserve">
<style type="text/css">
	.st0{fill:#FFFFFF;}
</style>
<g id="XMLID_360_">
	<path fill="#000000" id="XMLID_13595_" d="M575.4,184.7"/>
	<g id="XMLID_13588_">
		<circle id="XMLID_13594_" cx="415.4" cy="223.2" r="23.1"/>
		<circle id="XMLID_13593_" cx="375.3" cy="225.2" r="23.1"/>
		<circle id="XMLID_13592_" cx="308.4" cy="447.8" r="23.1"/>
		<circle id="XMLID_13591_" cx="270.3" cy="447.9" r="23.1"/>
		<path fill="#000000" id="XMLID_13590_" d="M734.1,315.7c0.5-8.4-4.6-17-11.4-22.2c-7.3-5.6-16.7-8-25.9-8c-6.7,0-13.4,1.3-20.1,1.7
			c-12,0.7-21.5-5.8-33.2-6.6c-1.9-0.1-17.5-0.9-17.5,1.9c0,0.1-0.1,15.6-0.2,47.6c-0.1,32.1-1.2,46-16.1,45.9
			c-14.9-0.1-5.7-54.2-5.6-78c0.1-23.8-11.8-21.2-11.8-21.2l-29.7-0.1l-0.4,79.1c0,0,1.4,21.6-13.9,21.8l0-0.2
			c-14.9-0.1-5.7-54.2-5.6-78c0.1-23.8-11.8-21.2-11.8-21.2l-29.7-0.1l-0.3,79c0,0,1.3,34.1-14.1,34.1h-0.1
			c-8.3-9.2-21.7-17.1-40.8-21.6c-55.2-12.9-58.5-65-39.1-84.2c18.4-18.2,47.7-6.8,54.9,14.8c-1.6-0.4-3.3-0.6-5-0.6
			c-12.1,0-21.9,9.6-22.3,21.6c-0.6,5.2,1.1,10,4.2,13.9c4.1,5.6,10.6,9.2,18,9.2c7.7,0,14.6-4,18.6-9.9c1-1.2,2-2.5,2.9-4
			c16.7-27.3-0.7-87-78.3-80.1c-77.6,6.9-80.6,137.1,13.1,121.8c0,0-25.8,21-54.7,16.5c-29-4.5-39.4-73-34.3-111.2l0.1-2.6
			l-29.7-0.9c0,0-11.8-3-12.5,20.8c-0.7,23.8,6.5,78.3-8.3,77.8c-14.9-0.4-15.4-14.4-14.5-46.4c1-32.1,1.4-47.6,1.4-47.6
			s-17-6.8-37.1,1.5c-20.1,8.3-46.1-16.6-67.2,14.2c-3.5,5.1-5.1,9.8-5.2,14v0.1c-0.1,0.7-0.1,1.3-0.1,2c0,11,8.9,19.9,19.9,19.9
			c2,0,4-0.3,5.9-0.9c0,0,0,0,0,0c3.6-1.1,6.8-3.3,9.2-6.1c2.9-3.5,4.7-8,4.7-12.9c0-8.6-5.4-15.9-13-18.7
			c5.6-2.4,13.9-4.1,25.3-1.9c25,4.7,27.8,73.9,15.5,86.5c0,0-42.2-27.1-83.1-18.7c-40.9,8.3-55.3,77-13.1,93.8
			c42.1,16.8,52.7-15.6,45.7-24.4c-0.7-0.9-1.5-1.6-2.4-2.1c-2.3-2-5.3-3.2-8.5-3.2c-7.1,0-12.9,5.8-12.9,12.9
			c0,3.8,1.6,7.1,4.2,9.5c-3.7,1.6-9.2,2.3-14.8-2.5c-10-8.6-11.6-53.9,36.6-38.9c48.2,15.1,80.1,31.6,87.9-7.9
			c0,0,3.8,25.6,30.6,25.4c26.8-0.2,25.5-23,25.5-23s14.5,35.2,46.4,29.5c31.9-5.6,69.7-41.2,99.8-31c30.1,10.2,21.8,33.4,21.8,33.4
			s-0.5-1.2-1.6-2.5c-2.3-3.6-6.3-6-10.9-6c-6.3,0-11.6,4.6-12.7,10.6c-2.5,9.9,10.3,23.2,28.4,10.2c7.8-5.6,12.1-14,12.3-23.2
			c16.8,1.8,47.2,2.1,50.4-18.8l-0.1,15.9c39.6,7.9,50.3-15.1,50.3-15.1c38.5,38.9,67.1-2,67.3-52.3c0.1-13.1-0.1-28,5.8-40.1
			c6.9-13.9,22.4-14.8,35.4-9.4c-7.6,2.9-13,10.3-13,18.9c0,5.8,2.4,10.9,6.3,14.6c0.7,1,1.5,1.9,2.5,2.7c1.9,1.4,4.1,2.1,6.4,2.3
			c1.6,0.4,3.3,0.7,5.1,0.7c11.2,0,20.3-9.1,20.3-20.3C734.1,316.2,734.1,316,734.1,315.7z"/>
		<path fill="#000000" id="XMLID_13589_" d="M550.9,148c-55.5-11.2-60.5-63.1-41.6-83c18-19,48.1-8,55.6,13.8c-1.9-0.5-3.9-0.8-6-0.8
			c-12.3,0-22.3,10-22.3,22.3s10,22.3,22.3,22.3c4.9,0,9.5-1.6,13.2-4.3c3.7-2.2,7.1-5.7,9.9-10.6c15.9-27.8-3.3-86.9-80.7-77.7
			C424,39.2,425,169.5,518.2,151.3c0,0-25.1,21.8-54.2,18.2c-29.1-3.6-41.6-71.7-37.7-110.1v-2.6h-29.7c0,0-11.9-2.6-11.9,21.2
			s8.9,78-5.9,78S362.8,142,362.8,110s0-47.6,0-47.6s-17.2-6.3-37,2.6C306,73.9,279.2,49.8,259,81.2c-1.4,2.2-2.4,4.2-3.2,6.2
			c-1.6,3-2.5,6.3-2.5,9.9c0,11.6,9.4,21,21,21c11.6,0,21-9.4,21-21c0-9.2-5.9-16.9-14.1-19.8c5.5-2.4,13.5-4,24.3-2.3
			c25.1,4,30.1,73.1,18.2,85.9c0,0-43-25.8-83.6-16.2c-40.7,9.6-52.9,78.7-10.2,94.2c35.2,12.8,47.9-7.2,47.1-19.5
			c0-0.1,0-0.3,0-0.4c0-7.1-5.8-12.9-12.9-12.9s-12.9,5.8-12.9,12.9c0,4.6,2.4,8.6,6,10.9c-3.6,2.1-9.8,4.1-16.4-1.3
			c-10.2-8.3-13.2-53.5,35.4-40c48.6,13.6,81,29.1,87.6-10.6c0,0,4.6,25.5,31.4,24.5C422,201.8,420,179,420,179s15.5,34.7,47.3,28.1
			s68.4-43.3,98.8-34c30.4,9.3,22.8,32.7,22.8,32.7s-0.9-1.9-2.9-3.7c-2.4-2.8-5.9-4.7-9.9-4.7c-7.1,0-12.9,5.8-12.9,12.9
			c0,4.7,2.5,8.7,6.2,11c5.2,3.6,13.5,4.1,23.2-3.3C615,200.9,606.5,159.2,550.9,148z"/>
	</g>
	<path fill="#000000" id="XMLID_13587_" d="M474.1,124.6c-0.7,0-1.4-0.4-1.8-1.1c-9.5-18.6-11.6-35.7-6-50.7c8.5-23,31.5-32.6,32.5-33
		c1-0.4,2.2,0.1,2.6,1.1c0.4,1-0.1,2.2-1.1,2.6c-0.2,0.1-22.4,9.4-30.3,30.8c-5.1,13.9-3.2,29.9,5.9,47.5c0.5,1,0.1,2.2-0.9,2.7
		C474.7,124.5,474.4,124.6,474.1,124.6z"/>
	<path fill="#000000" id="XMLID_13586_" d="M386.8,172.6c-1.7,0-3.4-0.4-5.3-1.1c-1-0.4-1.5-1.5-1.1-2.6c0.4-1,1.5-1.5,2.6-1.1
		c3.3,1.3,5.9,1,8.1-0.7c13.2-10.5,8.4-68.9,5.4-90.5c-0.1-1.1,0.6-2.1,1.7-2.2c1.1-0.2,2.1,0.6,2.2,1.7c0.5,3.3,10.8,80.2-6.9,94.2
		C391.5,171.8,389.3,172.6,386.8,172.6z"/>
	<path fill="#000000" id="XMLID_13585_" d="M266.4,108.2c-0.8,0-1.5-0.5-1.8-1.2c-3.3-8.3-3.7-14.7-1.1-19c2.6-4.3,7.1-4.7,7.2-4.8
		c1.1-0.1,2.1,0.7,2.2,1.8c0.1,1.1-0.7,2.1-1.8,2.2c-0.1,0-2.8,0.4-4.3,2.9c-1.9,3.2-1.4,8.5,1.4,15.4c0.4,1-0.1,2.2-1.1,2.6
		C266.9,108.2,266.6,108.2,266.4,108.2z"/>
	<path fill="#000000" id="XMLID_13584_" d="M220.1,212.3c-0.8,0-1.6-0.5-1.9-1.4c-12.9-40.1,34.1-56.8,34.6-57c1-0.4,2.2,0.2,2.5,1.2
		c0.4,1-0.2,2.2-1.2,2.5c-1.8,0.6-43.7,15.6-32.1,52c0.3,1-0.2,2.2-1.3,2.5C220.5,212.3,220.3,212.3,220.1,212.3z"/>
	<path fill="#000000" id="XMLID_13583_" d="M331.5,172.6c-0.4,0-0.9-0.1-1.3-0.5c-0.8-0.7-1-1.9-0.3-2.8c22-26.6,5.4-83.1,5.2-83.6
		c-0.3-1,0.3-2.2,1.3-2.5c1-0.3,2.2,0.3,2.5,1.3c0.7,2.4,17.4,59.1-5.9,87.3C332.6,172.4,332.1,172.6,331.5,172.6z"/>
	<path fill="#000000" id="XMLID_13582_" d="M546.8,102.2c-0.3,0-0.7-0.1-1-0.3c-0.9-0.6-1.3-1.8-0.7-2.7c7.5-12.6,17.8-11.9,18.2-11.8
		c1.1,0.1,1.9,1.1,1.8,2.1c-0.1,1.1-1,1.9-2.1,1.8c-0.4,0-8.3-0.5-14.5,9.9C548.2,101.9,547.5,102.2,546.8,102.2z"/>
	<path fill="#000000" id="XMLID_13581_" d="M467.7,185.4c-3.5,0-6.9-0.4-10.1-1.2c-12.8-3.3-17.5-12.2-17.7-12.6c-0.5-1-0.1-2.2,0.9-2.7
		c1-0.5,2.2-0.1,2.7,0.9l0,0c0.2,0.3,4.2,7.8,15.3,10.6c10.2,2.6,28.6,1.5,58.2-18.2c0.9-0.6,2.1-0.4,2.8,0.6
		c0.6,0.9,0.4,2.1-0.6,2.8C499.3,178.7,482,185.4,467.7,185.4z"/>
	<path fill="#000000" id="XMLID_13580_" d="M366.3,349c-0.7,0-1.4-0.4-1.8-1.1c-9.5-18.6-11.6-35.7-6-50.7c8.5-23,31.5-32.6,32.5-33
		c1-0.4,2.2,0.1,2.6,1.1c0.4,1-0.1,2.2-1.1,2.6c-0.2,0.1-22.4,9.4-30.3,30.8c-5.1,13.9-3.2,29.9,5.8,47.5c0.5,1,0.1,2.2-0.9,2.7
		C366.9,348.9,366.6,349,366.3,349z"/>
	<path fill="#000000" id="XMLID_13579_" d="M281.5,383.5c-1.7,0-3.4-0.4-5.3-1.1c-1-0.4-1.5-1.5-1.1-2.6s1.5-1.5,2.6-1.1c3.3,1.3,5.9,1,8.1-0.7
		c13.2-10.5,8.4-68.9,5.4-90.5c-0.1-1.1,0.6-2.1,1.7-2.2c1.1-0.2,2.1,0.6,2.2,1.7c0.5,3.3,10.8,80.2-6.9,94.2
		C286.2,382.7,284,383.5,281.5,383.5z"/>
	<path fill="#000000" id="XMLID_13578_" d="M161.1,319c-0.8,0-1.5-0.5-1.8-1.2c-3.3-8.3-3.7-14.7-1.1-19c2.6-4.3,7.1-4.7,7.2-4.8
		c1.1-0.1,2.1,0.7,2.2,1.8c0.1,1.1-0.7,2.1-1.8,2.2c-0.2,0-2.8,0.4-4.3,2.9c-1.9,3.2-1.4,8.5,1.4,15.4c0.4,1-0.1,2.2-1.1,2.6
		C161.6,319,161.3,319,161.1,319z"/>
	<path fill="#000000" id="XMLID_13577_" d="M114.8,423.1c-0.8,0-1.6-0.5-1.9-1.4c-12.9-40.1,34.1-56.8,34.6-57c1-0.4,2.2,0.2,2.5,1.2
		c0.4,1-0.2,2.2-1.2,2.5c-1.8,0.6-43.7,15.6-32.1,52c0.3,1-0.2,2.2-1.3,2.5C115.2,423.1,115,423.1,114.8,423.1z"/>
	<path fill="#000000" id="XMLID_13576_" d="M226.2,383.4c-0.4,0-0.9-0.1-1.3-0.5c-0.8-0.7-1-1.9-0.3-2.8c22-26.6,5.4-83.1,5.2-83.6
		c-0.3-1,0.3-2.2,1.3-2.5c1-0.3,2.2,0.3,2.5,1.3c0.7,2.4,17.4,59.1-5.9,87.3C227.3,383.2,226.8,383.4,226.2,383.4z"/>
	<g id="XMLID_13573_">
		<path fill="#000000" id="XMLID_13575_" d="M457.9,311.6c0,0-9.4-0.8-16.3,10.9"/>
		<path fill="#000000" id="XMLID_13574_" d="M441.5,324.5c-0.3,0-0.7-0.1-1-0.3c-0.9-0.6-1.3-1.8-0.7-2.7c7.5-12.6,17.8-11.9,18.2-11.8
			c1.1,0.1,1.9,1.1,1.8,2.1c-0.1,1.1-1,1.9-2.1,1.8c-0.4,0-8.3-0.5-14.5,9.9C442.9,324.1,442.2,324.5,441.5,324.5z"/>
	</g>
	<path fill="#000000" id="XMLID_13572_" d="M362.4,403.1c-3.5,0-6.9-0.4-10.1-1.2c-12.8-3.3-17.5-12.2-17.7-12.6c-0.5-1-0.1-2.2,0.9-2.7
		c1-0.5,2.2-0.1,2.7,0.9l0,0c0.2,0.3,4.2,7.8,15.3,10.6c10.2,2.6,28.6,1.5,58.2-18.2c0.9-0.6,2.1-0.4,2.8,0.6
		c0.6,0.9,0.4,2.1-0.6,2.8C393.9,396.4,376.7,403.1,362.4,403.1z"/>
	<path fill="#000000" id="XMLID_13571_" d="M508.1,395.9c-1.1,0-2-0.9-2-2c0-1.1,0.9-2,2-2c2.7,0,4.7-0.8,6.1-2.5c3.1-3.8,2.4-11.4,1.9-14l0-0.4
		v-79c0-1.1,0.9-2,2-2s2,0.9,2,2v78.8c0.3,1.6,1.9,11.4-2.7,17.1C515.2,394.5,512.1,395.9,508.1,395.9z"/>
	<path fill="#000000" id="XMLID_13570_" d="M558.9,393.3c-1.1,0-2-0.9-2-2c0-1.1,0.9-2,2-2c4.7,0,8.3-1.3,10.7-4c4.3-4.7,3.8-12.1,3.8-12.1l0-81.7
		c0-1.1,0.9-2,2-2c1.1,0,2,0.9,2,2V373c0,0.2,0.7,9-4.8,15C569.3,391.5,564.7,393.3,558.9,393.3z"/>
	<path fill="#000000" id="XMLID_13549_" d="M610.3,393.3c-1.1,0-2-0.9-2-2c0-1.1,0.9-2,2-2c27.4,0,28.7-21.8,28.8-22.7l0-75.1c0-1.1,0.9-2,2-2
		s2,0.9,2,2v75.2C643,367,641.6,393.3,610.3,393.3z"/>
	<path fill="#000000" id="XMLID_13548_" d="M708.5,330.4c-0.7,0-1.3-0.3-1.7-0.9c-3.2-5.1-4.2-10.1-2.9-14.9c2.1-8.4,10.2-13,10.5-13.2
		c1-0.5,2.2-0.2,2.7,0.7c0.5,1,0.2,2.2-0.7,2.7l0,0c-0.1,0-6.9,4-8.6,10.8c-0.9,3.7-0.1,7.7,2.5,11.8c0.6,0.9,0.3,2.2-0.6,2.7
		C709.2,330.3,708.8,330.4,708.5,330.4z"/>
	<g id="XMLID_13547_">
		<path fill="#000000" d="M482.4,130"/>
	</g>
	<g id="XMLID_13546_">
		<path fill="#000000" d="M370.3,163.8"/>
	</g>
	<g id="XMLID_13545_">
		<path fill="#000000" d="M325.7,181.6"/>
	</g>
	<g id="XMLID_13544_">
		<path fill="#000000" d="M376.3,352.2"/>
	</g>
	<g id="XMLID_13543_">
		<path fill="#000000" d="M158.1,365.1"/>
	</g>
	<g id="XMLID_13542_">
		<path fill="#000000" d="M213.6,385.9"/>
	</g>
	<g id="XMLID_13540_">
		<path fill="#000000" d="M264.2,378"/>
	</g>
	<g id="XMLID_13539_">
		<path fill="#000000" d="M326.7,379.9"/>
	</g>
	<g id="XMLID_13538_">
		<path fill="#000000" d="M496.3,394.8"/>
	</g>
	<g id="XMLID_13537_">
		<path fill="#000000" d="M548.8,391.8"/>
	</g>
	<g id="XMLID_13536_">
		<path fill="#000000" d="M598.4,392.8"/>
	</g>
	<g id="XMLID_13535_">
		<path fill="#000000" d="M264.2,154.8"/>
	</g>
	<g id="XMLID_13534_">
		<path fill="#000000" d="M280.1,108.2"/>
	</g>
	<path fill="#000000" id="XMLID_13533_" d="M296.6,458.8c-1.1,0-2-0.9-2-2c0-24.5,13.2-24.8,13.8-24.8c1.1,0,2,0.9,2,2c0,1.1-0.9,2-2,2
		c-0.5,0-9.9,0.6-9.9,20.8C298.5,457.9,297.7,458.8,296.6,458.8z"/>
	<path fill="#000000" id="XMLID_13532_" d="M260.2,458.8c-0.9,0-1.7-0.6-1.9-1.5c-1.9-8.1-1.2-14.5,2.1-19.1c3.9-5.5,10.1-6.1,10.3-6.2
		c1.1-0.1,2.1,0.7,2.2,1.8c0.1,1.1-0.7,2.1-1.8,2.2l0,0c0,0-4.7,0.6-7.5,4.6c-2.6,3.6-3,8.9-1.4,15.8c0.2,1.1-0.4,2.1-1.5,2.4
		C260.5,458.8,260.4,458.8,260.2,458.8z"/>
	<path fill="#000000" id="XMLID_13531_" d="M401,236.6c-1.1,0-2-0.9-2-2c0-24.5,13.2-24.8,13.8-24.8c1.1,0,2,0.9,2,2c0,1.1-0.9,2-2,2
		c-0.5,0-9.9,0.6-9.9,20.8C402.9,235.7,402,236.6,401,236.6z"/>
	<path fill="#000000" id="XMLID_13530_" d="M364.6,236.6c-0.9,0-1.7-0.6-1.9-1.5c-1.9-8.1-1.2-14.5,2.1-19.1c3.9-5.5,10.1-6.1,10.3-6.2
		c1.1-0.1,2.1,0.7,2.2,1.8c0.1,1.1-0.7,2.1-1.8,2.2l0,0c0,0-4.7,0.6-7.5,4.6c-2.6,3.6-3,8.9-1.4,15.8c0.2,1.1-0.4,2.1-1.5,2.4
		C364.9,236.6,364.8,236.6,364.6,236.6z"/>
	<g id="XMLID_208_">
		<path fill="#000000" id="XMLID_13529_" d="M220.1,261c-0.5,0-1-0.1-1.5-0.3c-0.7-0.3-74.4-30.7-52.9-111.5c0.6-2.1,2.7-3.4,4.9-2.8
			c2.1,0.6,3.4,2.7,2.8,4.9c-8.3,31.1-2.7,57.7,16.6,79.1c14.5,16,31.4,22.9,31.6,23c2,0.8,3,3.1,2.2,5.2
			C223.1,260,221.6,261,220.1,261z"/>
		<path fill="#000000" id="XMLID_13528_" d="M105,328.2c-2.2,0-4-1.8-4-4c0-18,6-33,17.7-44.4c26.3-25.7,72.2-25,74.2-25c2.2,0,3.9,1.9,3.9,4.1
			c0,2.2-1.8,3.9-4,3.9c-0.1,0,0.1,0-0.6,0c-5.1,0-45.5,0.7-67.9,22.7c-10.2,9.9-15.3,23-15.3,38.7C109,326.4,107.2,328.2,105,328.2
			z"/>
		<path fill="#000000" id="XMLID_13527_" d="M476.6,240.5c-15.8,0-25.5-8.3-26.1-8.8c-1.6-1.5-1.8-4-0.3-5.6c1.4-1.6,3.9-1.8,5.6-0.4
			c0.8,0.7,18.3,15.3,45-0.4c12.5-7.4,22.8-15.2,32-22.2c12.9-9.8,22.2-16.9,30.5-16.9c2.2,0,4,1.8,4,4s-1.8,4-4,4
			c-5.6,0-15,7.1-25.7,15.3c-8.8,6.7-19.8,15.1-32.7,22.7C494,238.4,484.5,240.5,476.6,240.5z"/>
		<path fill="#000000" id="XMLID_13526_" d="M539.4,261c-1.7,0-3.3-1.1-3.8-2.8c-0.6-2.1,0.5-4.3,2.6-5c44.8-13.8,69.7-31.6,74-52.9
			c5.1-24.9-20.6-46.9-20.9-47.1c-1.7-1.4-1.9-3.9-0.5-5.6c1.4-1.7,3.9-1.9,5.6-0.5c1.2,1,29.5,25.2,23.5,54.7
			c-4.9,24.4-31.7,44.2-79.5,58.9C540.2,260.9,539.8,261,539.4,261z"/>
		<path fill="#000000" id="XMLID_13525_" d="M685.2,277.9c-1.2,0-2.4-0.6-3.2-1.6c-32.4-43.6-75.8-24.8-76.2-24.6c-2,0.9-4.3,0-5.2-2
			c-0.9-2,0-4.3,2-5.2c0.5-0.2,49.7-21.5,85.8,27.1c1.3,1.8,0.9,4.2-0.8,5.6C686.8,277.7,686,277.9,685.2,277.9z"/>
		<path fill="#000000" id="XMLID_13524_" d="M337.1,273.1c-2,0-3.7-1.5-3.9-3.5c-0.8-7.1-0.4-25.8-0.2-34.3c-18.2-0.7-39.8-22-42.4-24.7
			c-1.5-1.6-1.5-4.1,0-5.6c1.6-1.5,4.1-1.5,5.6,0c6.9,7,27.5,24.5,40.1,22.1l4.9-1l-0.2,5c0,0.3-1,29,0,37.6
			c0.2,2.2-1.3,4.1-3.5,4.4C337.4,273.1,337.2,273.1,337.1,273.1z"/>
		<path fill="#000000" id="XMLID_13523_" d="M351,451.8c-2,0-3.8-1.6-3.9-3.6c-0.2-2.2,1.4-4.1,3.6-4.3c0.3,0,25.8-2.3,51.3-14.7
			c8.9-4.3,16.2-9.1,22.7-13.3c13-8.5,23.2-15.2,31.5-5.5c1.4,1.7,1.2,4.2-0.4,5.6c-1.7,1.4-4.2,1.2-5.6-0.4c-3.5-4-8.3-1.4-21.1,7
			c-6.3,4.1-14.2,9.3-23.5,13.8c-27,13.1-53,15.4-54.1,15.5C351.2,451.8,351.1,451.8,351,451.8z"/>
		<path fill="#000000" id="XMLID_13522_" d="M495.7,459.3c-0.6,0-1.3-0.2-1.9-0.5c-1.9-1.1-2.6-3.5-1.6-5.4c0.5-1,13.4-23.6,41.2-23.6
			c4.3,0,10.4,0.3,17.6,0.7c34.3,1.8,105.7,5.6,115.5-22.2c0.7-2.1,3-3.2,5.1-2.4c2.1,0.7,3.1,3,2.4,5.1
			c-11.8,33.3-84.4,29.5-123.4,27.4c-7.1-0.4-13.2-0.7-17.2-0.7c-23.2,0-34.1,19.3-34.2,19.5C498.5,458.6,497.1,459.3,495.7,459.3z"
			/>
		<path fill="#000000" id="XMLID_13521_" d="M158.6,242.7c-0.6,0-1.1-0.1-1.7-0.4l-66.8-30.9c-2-0.9-2.9-3.3-1.9-5.3c0.9-2,3.3-2.9,5.3-1.9
			l66.8,30.9c2,0.9,2.9,3.3,1.9,5.3C161.5,241.8,160.1,242.7,158.6,242.7z"/>
		<path fill="#000000" id="XMLID_359_" d="M631.9,217.3c-1.4,0-2.8-0.8-3.5-2.2c-1-1.9-0.2-4.3,1.7-5.3l48.9-25.1c1.9-1,4.3-0.2,5.3,1.7
			c1,1.9,0.2,4.3-1.7,5.3l-48.9,25.1C633.2,217.1,632.5,217.3,631.9,217.3z"/>
		<g id="XMLID_220_">
			<path fill="#000000" d="M177,131.7"/>
			<g>
				<path fill="#000000" class="st0" d="M177,134.2c3.2,0,3.2-5,0-5C173.7,129.2,173.7,134.2,177,134.2L177,134.2z"/>
			</g>
		</g>
		<g id="XMLID_219_">
			<path fill="#000000" d="M183.6,113.2"/>
			<g>
				<path fill="#000000" class="st0" d="M183.6,115.7c3.2,0,3.2-5,0-5C180.3,110.7,180.3,115.7,183.6,115.7L183.6,115.7z"/>
			</g>
		</g>
		<g id="XMLID_218_">
			<path fill="#000000" d="M79.1,195.2"/>
			<g>
				<path fill="#000000" class="st0" d="M79.1,197.7c3.2,0,3.2-5,0-5C75.9,192.7,75.9,197.7,79.1,197.7L79.1,197.7z"/>
			</g>
		</g>
		<g id="XMLID_217_">
			<path fill="#000000" d="M65.9,184.6"/>
			<g>
				<path fill="#000000" class="st0" d="M65.9,187.1c3.2,0,3.2-5,0-5C62.7,182.1,62.7,187.1,65.9,187.1L65.9,187.1z"/>
			</g>
		</g>
		<g id="XMLID_216_">
			<path fill="#000000" d="M97.6,340.6"/>
			<g>
				<path fill="#000000" class="st0" d="M97.6,343.1c3.2,0,3.2-5,0-5C94.4,338.1,94.4,343.1,97.6,343.1L97.6,343.1z"/>
			</g>
		</g>
		<g id="XMLID_215_">
			<path fill="#000000" d="M96.3,355.1"/>
			<g>
				<path fill="#000000" class="st0" d="M96.3,357.6c3.2,0,3.2-5,0-5C93.1,352.6,93.1,357.6,96.3,357.6L96.3,357.6z"/>
			</g>
		</g>
		<g id="XMLID_214_">
			<path fill="#000000" d="M695.3,176.6"/>
			<g>
				<path fill="#000000" class="st0" d="M695.3,179.1c3.2,0,3.2-5,0-5C692,174.1,692,179.1,695.3,179.1L695.3,179.1z"/>
			</g>
		</g>
		<g id="XMLID_213_">
			<path fill="#000000" d="M709.8,176.6"/>
			<g>
				<path fill="#000000" class="st0" d="M709.8,179.1c3.2,0,3.2-5,0-5C706.6,174.1,706.6,179.1,709.8,179.1L709.8,179.1z"/>
			</g>
		</g>
		<g id="XMLID_212_">
			<path fill="#000000" d="M588.2,137"/>
			<g>
				<path fill="#000000" class="st0" d="M588.2,139.5c3.2,0,3.2-5,0-5C584.9,134.5,584.9,139.5,588.2,139.5L588.2,139.5z"/>
			</g>
		</g>
		<g id="XMLID_211_">
			<path fill="#000000" d="M578.9,127.7"/>
			<g>
				<path fill="#000000" class="st0" d="M578.9,130.2c3.2,0,3.2-5,0-5C575.7,125.2,575.7,130.2,578.9,130.2L578.9,130.2z"/>
			</g>
		</g>
		<g id="XMLID_210_">
			<path fill="#000000" d="M679.4,397.5"/>
			<g>
				<path fill="#000000" class="st0" d="M679.4,400c3.2,0,3.2-5,0-5C676.2,395,676.2,400,679.4,400L679.4,400z"/>
			</g>
		</g>
		<g id="XMLID_209_">
			<path fill="#000000" d="M682,380.3"/>
			<g>
				<path fill="#000000" class="st0" d="M682,382.8c3.2,0,3.2-5,0-5C678.8,377.8,678.8,382.8,682,382.8L682,382.8z"/>
			</g>
		</g>
	</g>
</g>
<path fill="#000000" d="M273.602,481.306c-0.578-0.576-1.301-1.03-2.174-1.362c-0.873-0.331-1.885-0.497-3.039-0.497
	c-0.663,0-1.463,0.079-2.4,0.238v-6.077h-1.535v17.711c0.706,0.202,1.402,0.354,2.087,0.454s1.301,0.151,1.849,0.151
	c1.153,0,2.166-0.162,3.039-0.486s1.596-0.764,2.174-1.319c0.576-0.555,1.006-1.211,1.287-1.968s0.42-1.561,0.42-2.411
	s-0.139-1.657-0.42-2.422C274.608,482.554,274.178,481.883,273.602,481.306z M272.391,489.167c-0.852,0.829-2.17,1.243-3.958,1.243
	c-0.39,0-0.805-0.032-1.244-0.097c-0.439-0.065-0.84-0.134-1.2-0.206v-8.845c0.447-0.115,0.887-0.194,1.319-0.237
	c0.433-0.044,0.808-0.065,1.125-0.065c0.894,0,1.668,0.112,2.325,0.335c0.656,0.224,1.199,0.545,1.633,0.963
	c0.432,0.418,0.752,0.919,0.961,1.503s0.314,1.243,0.314,1.979C273.667,487.195,273.241,488.338,272.391,489.167z M247.392,479.446
	c-0.62,0-1.297,0.079-2.033,0.238c-0.735,0.158-1.485,0.433-2.249,0.821l-0.065,1.73c0.548-0.303,0.973-0.52,1.276-0.649
	s0.624-0.237,0.962-0.324c0.338-0.086,0.677-0.158,1.016-0.216s0.667-0.087,0.984-0.087c1.139,0,1.982,0.249,2.53,0.746
	s0.822,1.33,0.822,2.498v0.13c-0.332-0.044-0.732-0.087-1.2-0.13c-0.469-0.043-0.876-0.065-1.222-0.065
	c-1.831,0-3.302,0.311-4.412,0.931c-1.11,0.619-1.665,1.644-1.665,3.07c0,0.707,0.155,1.305,0.465,1.795
	c0.31,0.49,0.713,0.88,1.211,1.168s1.067,0.497,1.708,0.627c0.641,0.13,1.308,0.194,2,0.194c0.807,0,1.6-0.072,2.378-0.216
	c0.779-0.145,1.536-0.368,2.271-0.671v-7.028c0-1.585-0.397-2.742-1.189-3.471C250.189,479.811,248.992,479.446,247.392,479.446z
	 M250.636,489.892c-0.375,0.144-0.858,0.267-1.449,0.367c-0.591,0.102-1.183,0.151-1.773,0.151c-0.505,0-0.984-0.035-1.438-0.108
	c-0.454-0.071-0.84-0.197-1.157-0.378c-0.317-0.18-0.57-0.414-0.757-0.703c-0.188-0.288-0.281-0.663-0.281-1.124
	c0-0.52,0.111-0.934,0.335-1.244c0.224-0.31,0.533-0.551,0.93-0.724c0.396-0.174,0.85-0.296,1.362-0.368
	c0.511-0.072,1.041-0.108,1.589-0.108c0.476,0,0.984,0.029,1.524,0.087c0.541,0.058,0.912,0.108,1.114,0.151V489.892z
	 M258.032,479.868c-0.649,0.122-1.276,0.263-1.881,0.422v11.418h1.535v-10.186c0.202-0.072,0.563-0.147,1.082-0.228
	c0.519-0.079,1.002-0.118,1.449-0.118h1.989v-1.492H260C259.336,479.685,258.681,479.746,258.032,479.868z M-77.92,487.667
	l241.145,0.656l0.663-0.433l-0.632-0.564L-77.92,487.667z M164.994,487.825l1.95,1.95l1.95-1.95l-1.95-1.95L164.994,487.825z
	 M169.559,487.825l3.057,3.057l3.057-3.057l-3.057-3.057L169.559,487.825z M212.359,489.286l-3.395-9.602h-1.514l-3.396,9.602
	l-2.984-9.602h-1.73l3.979,12.023h1.428l3.46-9.645l3.46,9.645h1.427l3.979-12.023h-1.73L212.359,489.286z M238.418,489.589
	c-0.317,0-0.591,0.115-0.822,0.346c-0.231,0.23-0.346,0.505-0.346,0.822c0,0.316,0.115,0.591,0.346,0.821
	c0.23,0.23,0.504,0.346,0.822,0.346c0.317,0,0.591-0.115,0.822-0.346c0.23-0.23,0.346-0.505,0.346-0.821
	c0-0.317-0.116-0.592-0.346-0.822C239.009,489.704,238.735,489.589,238.418,489.589z M193.243,489.286l-3.395-9.602h-1.514
	l-3.396,9.602l-2.984-9.602h-1.73l3.979,12.023h1.428l3.46-9.645l3.46,9.645h1.427l3.979-12.023h-1.73L193.243,489.286z
	 M231.476,489.286l-3.395-9.602h-1.514l-3.396,9.602l-2.984-9.602h-1.73l3.979,12.023h1.428l3.46-9.645l3.46,9.645h1.427
	l3.979-12.023h-1.73L231.476,489.286z M382.732,480.474c-0.426-0.396-0.938-0.667-1.535-0.812c-0.598-0.144-1.271-0.216-2.021-0.216
	c-0.664,0-1.393,0.09-2.184,0.271c-0.793,0.181-1.471,0.4-2.033,0.659c-0.346-0.331-0.818-0.569-1.416-0.714
	c-0.6-0.144-1.273-0.216-2.023-0.216c-0.635,0-1.268,0.058-1.902,0.173l-2.465,0.454v11.635h1.535v-10.38
	c0.447-0.102,0.883-0.188,1.309-0.26c0.424-0.072,0.896-0.108,1.416-0.108c0.605,0,1.125,0.058,1.557,0.173
	c0.434,0.116,0.789,0.321,1.07,0.616c0.281,0.296,0.494,0.711,0.639,1.244s0.217,1.24,0.217,2.119v6.596h1.535v-7.201
	c0-0.663-0.055-1.243-0.162-1.741c-0.109-0.497-0.213-0.861-0.314-1.092c0.086-0.043,0.281-0.119,0.584-0.228
	c0.303-0.107,0.602-0.197,0.898-0.27c0.295-0.072,0.586-0.126,0.875-0.162s0.547-0.055,0.779-0.055c0.59,0,1.102,0.058,1.535,0.173
	c0.432,0.116,0.781,0.317,1.049,0.605c0.266,0.289,0.471,0.703,0.615,1.244c0.145,0.54,0.217,1.251,0.217,2.13v6.596h1.535v-7.201
	c0-0.995-0.111-1.816-0.336-2.466C383.482,481.393,383.158,480.87,382.732,480.474z M280.1,474.581
	c-0.785,0.648-1.18,1.729-1.18,3.243v1.86h-2.551v1.492h2.551v10.531h1.537v-10.531h4.973v-1.492h-4.973v-1.471
	c0-0.635,0.045-1.149,0.141-1.546c0.094-0.396,0.24-0.707,0.443-0.931c0.201-0.223,0.475-0.385,0.82-0.486
	c0.346-0.101,0.779-0.151,1.299-0.151h2.422v-1.492h-2.271C281.956,473.607,280.885,473.932,280.1,474.581z M398.273,487.825
	l3.057,3.057l3.057-3.057l-3.057-3.057L398.273,487.825z M343.322,482.322c0.389-0.418,0.854-0.749,1.395-0.994
	s1.135-0.368,1.783-0.368c0.736,0,1.373,0.076,1.914,0.228s1.121,0.414,1.74,0.789l0.715-1.405c-0.707-0.39-1.393-0.674-2.055-0.854
	c-0.664-0.181-1.436-0.271-2.314-0.271c-0.85,0-1.639,0.155-2.367,0.465c-0.729,0.311-1.367,0.746-1.914,1.309
	c-0.549,0.563-0.98,1.222-1.297,1.979c-0.317,0.757-0.476,1.59-0.476,2.498s0.158,1.74,0.476,2.497
	c0.316,0.757,0.748,1.413,1.297,1.969c0.547,0.555,1.186,0.987,1.914,1.297c0.729,0.311,1.518,0.465,2.367,0.465
	c0.879,0,1.65-0.09,2.314-0.27c0.662-0.181,1.348-0.466,2.055-0.854l-0.715-1.406c-0.619,0.375-1.199,0.639-1.74,0.79
	s-1.178,0.227-1.914,0.227c-0.648,0-1.242-0.119-1.783-0.356c-0.541-0.238-1.006-0.565-1.395-0.984
	c-0.391-0.418-0.693-0.915-0.908-1.492c-0.217-0.576-0.324-1.203-0.324-1.881s0.107-1.305,0.324-1.882
	C342.628,483.238,342.931,482.741,343.322,482.322z M404.387,487.825l1.949,1.95l1.951-1.95l-1.951-1.95L404.387,487.825z
	 M410.701,487.326l-0.664,0.433l0.633,0.564l241.176-0.341L410.701,487.326z M362.611,481.295c-0.549-0.569-1.193-1.02-1.936-1.352
	c-0.742-0.331-1.547-0.497-2.412-0.497c-0.863,0-1.668,0.166-2.41,0.497c-0.742,0.332-1.389,0.782-1.936,1.352
	c-0.549,0.57-0.977,1.229-1.287,1.979c-0.311,0.749-0.465,1.557-0.465,2.422s0.154,1.672,0.465,2.422s0.738,1.409,1.287,1.979
	c0.547,0.569,1.193,1.017,1.936,1.341s1.547,0.486,2.41,0.486c0.865,0,1.67-0.162,2.412-0.486s1.387-0.771,1.936-1.341
	c0.547-0.569,0.977-1.229,1.287-1.979c0.309-0.75,0.465-1.557,0.465-2.422s-0.156-1.673-0.465-2.422
	C363.587,482.524,363.158,481.865,362.611,481.295z M362.394,487.523c-0.217,0.569-0.52,1.067-0.908,1.492
	c-0.389,0.426-0.857,0.765-1.406,1.017c-0.547,0.252-1.152,0.378-1.816,0.378c-0.662,0-1.268-0.126-1.816-0.378
	c-0.547-0.252-1.016-0.591-1.404-1.017c-0.391-0.425-0.693-0.923-0.908-1.492c-0.217-0.569-0.324-1.179-0.324-1.827
	c0-0.649,0.107-1.262,0.324-1.839c0.215-0.576,0.518-1.077,0.908-1.503c0.389-0.425,0.857-0.764,1.404-1.016
	c0.549-0.252,1.154-0.379,1.816-0.379c0.664,0,1.27,0.127,1.816,0.379c0.549,0.252,1.018,0.591,1.406,1.016
	c0.389,0.426,0.691,0.927,0.908,1.503c0.217,0.577,0.324,1.189,0.324,1.839C362.718,486.345,362.611,486.954,362.394,487.523z
	 M296.221,481.295c-0.547-0.569-1.191-1.02-1.936-1.352c-0.742-0.331-1.545-0.497-2.41-0.497s-1.67,0.166-2.412,0.497
	c-0.742,0.332-1.387,0.782-1.936,1.352c-0.547,0.57-0.977,1.229-1.285,1.979c-0.311,0.749-0.465,1.557-0.465,2.422
	s0.154,1.672,0.465,2.422c0.309,0.75,0.738,1.409,1.285,1.979c0.549,0.569,1.193,1.017,1.936,1.341s1.547,0.486,2.412,0.486
	s1.668-0.162,2.41-0.486c0.744-0.324,1.389-0.771,1.936-1.341c0.549-0.569,0.977-1.229,1.287-1.979s0.465-1.557,0.465-2.422
	s-0.154-1.673-0.465-2.422C297.198,482.524,296.77,481.865,296.221,481.295z M296.006,487.523c-0.217,0.569-0.52,1.067-0.908,1.492
	c-0.391,0.426-0.859,0.765-1.406,1.017c-0.549,0.252-1.154,0.378-1.816,0.378c-0.664,0-1.27-0.126-1.816-0.378
	c-0.549-0.252-1.018-0.591-1.406-1.017c-0.389-0.425-0.691-0.923-0.908-1.492s-0.324-1.179-0.324-1.827
	c0-0.649,0.107-1.262,0.324-1.839c0.217-0.576,0.52-1.077,0.908-1.503c0.389-0.425,0.857-0.764,1.406-1.016
	c0.547-0.252,1.152-0.379,1.816-0.379c0.662,0,1.268,0.127,1.816,0.379c0.547,0.252,1.016,0.591,1.406,1.016
	c0.389,0.426,0.691,0.927,0.908,1.503c0.215,0.577,0.324,1.189,0.324,1.839C296.331,486.345,296.221,486.954,296.006,487.523z
	 M309.381,480.463c-0.455-0.39-0.996-0.656-1.623-0.801c-0.627-0.144-1.309-0.216-2.043-0.216c-0.707,0-1.465,0.047-2.271,0.141
	s-1.701,0.234-2.682,0.422v11.699h1.535v-10.402c1.184-0.23,2.293-0.346,3.33-0.346c0.592,0,1.111,0.062,1.559,0.184
	c0.445,0.123,0.818,0.332,1.113,0.628c0.295,0.295,0.525,0.713,0.691,1.254s0.25,1.251,0.25,2.13v6.553h1.535v-7.201
	c0-0.995-0.119-1.82-0.357-2.477C310.18,481.375,309.834,480.852,309.381,480.463z M318.516,490.054
	c-0.346-0.108-0.619-0.277-0.82-0.509c-0.203-0.23-0.35-0.547-0.443-0.951c-0.096-0.403-0.141-0.922-0.141-1.557v-5.86h4.973v-1.492
	h-4.973v-4.347h-1.537v4.347h-2.551v1.492h2.551v6.466c0,0.764,0.109,1.405,0.326,1.925c0.215,0.519,0.525,0.937,0.93,1.254
	c0.402,0.317,0.867,0.544,1.395,0.682c0.525,0.137,1.105,0.205,1.74,0.205h2.271v-1.492h-2.422
	C319.295,490.216,318.862,490.162,318.516,490.054z M337.784,489.589c-0.316,0-0.59,0.115-0.82,0.346s-0.346,0.505-0.346,0.822
	c0,0.316,0.115,0.591,0.346,0.821s0.504,0.346,0.82,0.346c0.318,0,0.592-0.115,0.822-0.346s0.346-0.505,0.346-0.821
	c0-0.317-0.115-0.592-0.346-0.822S338.102,489.589,337.784,489.589z M333.178,486.106c-0.346-0.303-0.785-0.565-1.318-0.789
	c-0.533-0.223-1.182-0.422-1.947-0.595l-0.799-0.173c-1.053-0.216-1.781-0.461-2.184-0.735c-0.404-0.273-0.607-0.678-0.607-1.211
	c0-0.504,0.238-0.904,0.715-1.2c0.475-0.295,1.174-0.443,2.098-0.443c0.793,0,1.477,0.076,2.055,0.228
	c0.576,0.151,1.217,0.421,1.924,0.811l0.691-1.405c-1.412-0.765-2.969-1.146-4.67-1.146c-0.635,0-1.223,0.076-1.764,0.228
	c-0.539,0.151-1.008,0.364-1.404,0.638s-0.711,0.605-0.941,0.994c-0.23,0.39-0.346,0.815-0.346,1.276
	c0,0.462,0.072,0.88,0.217,1.254c0.143,0.375,0.381,0.707,0.713,0.995s0.758,0.537,1.275,0.746c0.52,0.209,1.146,0.4,1.883,0.573
	l0.908,0.194c1.008,0.217,1.729,0.49,2.162,0.822c0.432,0.331,0.648,0.771,0.648,1.318c0,0.39-0.086,0.707-0.26,0.952
	c-0.172,0.245-0.414,0.436-0.725,0.573c-0.311,0.137-0.678,0.237-1.102,0.303c-0.426,0.064-0.877,0.097-1.352,0.097
	c-0.592,0-1.223-0.09-1.893-0.271c-0.67-0.18-1.352-0.479-2.045-0.897l-0.734,1.471c0.779,0.433,1.539,0.742,2.281,0.93
	s1.539,0.281,2.391,0.281c0.748,0,1.434-0.072,2.053-0.216c0.621-0.145,1.158-0.36,1.611-0.648c0.455-0.289,0.805-0.649,1.049-1.082
	c0.246-0.433,0.369-0.93,0.369-1.492c0-0.476-0.072-0.915-0.217-1.318C333.77,486.763,333.526,486.41,333.178,486.106z"/>
</svg>

