<?xml version="1.0" encoding="utf-8"?>
<!-- Generator: Adobe Illustrator 21.0.0, SVG Export Plug-In . SVG Version: 6.00 Build 0)  -->
<svg version="1.1" id="Layer_1" xmlns="http://www.w3.org/2000/svg" xmlns:xlink="http://www.w3.org/1999/xlink" x="0px" y="0px"
	 viewBox="0 0 800 500" style="enable-background:new 0 0 800 500;" xml:space="preserve">
<path fill="#000000" d="M31.7,149.5c0.4,20.6,24.1,46.7,43.5,47.4c11.9,0.4,13.1-15.7,9.9-27.1c10-4.8,7.4-26.6,1.2-34.6c-3.5,9-4.2,22-15.8,23.3
	c-9.1,1-17.5-8.6-21.6-16.6c-0.8-1.6-1.4-3.1-1.9-4.6c5.1-5.2,12.6-8.5,20.7-9.3c27.7-2.7,50.4,18.9,72.2,35.3
	c7.9,5.9,16.4,11.2,25.8,14.4c9.8,3.4,20.3,6.2,30.8,6.9c10.9,0.7,21.8-3.1,32.6-0.8c-32.9-7.6-67.4-21.1-95.2-40.5
	c-18.8-13.1-37.7-29.2-60.6-29.7c-9.3-0.2-19.4,2.6-27.3,8.2c2.9-11.3,14.1-18.8,26.9-20c27.7-2.6,50.4,18.9,72.2,35.3
	c7.9,5.9,16.5,11.2,25.8,14.4c9.8,3.4,20.3,6.2,30.7,6.9c10.9,0.7,21.8-3,32.7-0.8c-32.9-7.6-67.5-21.1-95.2-40.5
	C120.3,104,101.4,88,78.4,87.5c-19.3-0.5-42.1,12-41.6,35.8c0.1,2.2,0.3,4.4,0.9,6.7C33.9,135.2,31.5,141.8,31.7,149.5L31.7,149.5z
	 M240.9,151c-9.9-6.1-19.3-22.2-12.8-34.6c11.1-21.2,42.6-11.2,51.6,6.2c8.8,17-2.8,33.8-12.3,47.1c23-11.5,44.4-24.1,63.5-42.6
	c16.5-16,32.7-34.7,55.2-38.8c18.9-3.5,43.4,5.3,46.7,28.8c2.8,20.4-16.4,50-35.5,53.6c-15.1,2.9-17-24-11.5-34
	c4.9,8.3,7.7,21,19.3,20.5c9.1-0.4,15.9-11.3,18.7-19.8c7.5-23.4-10.4-36.9-29.9-35.7c-13.8,0.8-25.9,7.8-36.3,16.5
	c-9.9,8.2-22.5,19.1-28.9,30.2c-11.3,19.5,12,45.5,30.6,49.9c12.1,2.9,26.4,5.8,38.4,0.8c11.3-4.7,17.7-15.8,23.9-25.7
	c-6.9,11-6.1,26.8-16.4,35.7c-10.8,9.3-29.9,9.1-42.4,3.7c-11.8-5-22.5-16.6-31.2-25.7c-3.7-3.9-7.2-8-9.4-13
	c-1-2.3-5.1-14.9-2.7-16.7c-7.3,5.7-11.8,10.5-20.7,12.8c-9.7,2.5-18.5,6-28.6,6.4c-15.5,0.6-30.8-2.8-45.9-6.1
	c12.1,2,26.1,4.2,37.1-3.5c8.9-6.3,15.1-20.1,10.9-31.4c-4.2-11.6-33.4-21.5-32.6-2.1c0.6,14.7,11.1,9.1,17,1.8
	C256.4,147.1,253.2,158.6,240.9,151L240.9,151z M100.8,239.6c19.5,1.7,43-12.9,46.9-26.3c-18.4-7.3-37.7-0.3-50.7,7.2l0.6,0.2
	c-1.5,5.3-5.8,9.8-1.4,16.1c1.5-6.9,20.3-13.5,29.4-13C121.5,229.5,109.4,238.1,100.8,239.6L100.8,239.6z M174.8,372.6
	c-26.7,6.6-54.8,2-81.8,7.7c3.1,10.1,8.6,23,14.7,31.7c6.7-10.8,22.7-18.4,33.5-19.8c14.8-1.8,31.5,0.6,46.1,6.3
	C181.4,396.1,175.4,380.3,174.8,372.6L174.8,372.6z M186.4,324.8c-11.2-11.6-17.7-25.3-22.7-39.1c-5.2-14.5-0.9-36,3.1-49.3
	c4.4-14.3,13-28.8,28.3-36.6c1.3-0.7,2.6-1.3,3.9-1.8c29.1-11.7,59,11.3,71.6,35.4c5.1,9.9,13.8,30.2,10.1,40.1
	c-5.6,15.3-18,28.5-28.6,41.4c11.8-14.2,13.7-38.9,2.8-53.6c-9.7-13.2-30.5-28.7-47.9-22.5c-42.3,15-31,79,6.1,93.1
	c19.9,7.5,50,5.4,66.5-8.9c0.1-0.1,0.2-0.1,0.3-0.2c0,0.3,0,0.6,0,0.9c0.3,3.2,0.6,6.5,0.8,9.8c2,11.8,7.7,25.7,12.8,32.3
	c-25.7,3.9-52.5,5-78.1-0.1c-28.3-5.6-45.5-21.6-69.9-34.7c3.1,1.9,1.9,38.6,8.3,37.8c-14.3,1.7-26.8-0.9-40.6-2.9
	c3.6-19-2.7-44.8-8.7-63c-2.8-8.6-10.8-17.9-11-27c0.4,20.2,7.5,39.8,8,60.3c0.2,10.2,0.9,20.4,1.3,30.5c-9.7-1.3-21.8-1.3-31.6-0.4
	c-15.8,1.5-21.3,2.5-31.9-11.6c-6.3-8.5-14.3-27.5-11.5-39.5c-3.2,14.9,14.7,35,30.1,28.2c19.2-8.6,13.6-67.6,12.5-84.5
	c-0.2-3.2-7.9-38.1-14.8-34.7c7.8-3.7,18.5-1.8,25.4-7.8c-0.7,0.5,5.9,19.6,6.4,21.6c2.2,8.4,4.3,16.8,7.1,25
	c5.3,16.1,13.1,29.6,27.3,39.6c-5.7-9.4-7.9-22.1-10.8-32.6c-1.9-6.9-3.4-16.8-10.5-20.3c5.8,0.4,11.7,0.2,17.3-1.8
	c7.2-2.6,18.8,29.8,21.2,34.3C149.1,302.1,166.4,316.1,186.4,324.8L186.4,324.8z M457.8,280.8c-0.1-1.2-6-38.5-6.9-37.8
	c-6.2,5-15.7,3.3-22.8,6.4c6.2-2.7,13.1,26,13.2,28.6c1,13.9,6.1,62.4-11.2,69.4c-4.9,2-10,1.2-14.4-1.1c-0.1-1.7-0.2-3.5-0.2-5.3
	c-0.7-22.3-10.1-43.3-12.4-65.4c-0.1-1.3-6.4-41.5-7.4-40.7c-6.7,5.3-16.9,3.6-24.4,6.9c6.6-3,14,28,14.2,30.7
	c1.1,15,6.4,67.3-12,74.8c-7.3,3-15.2,0.1-21-5.1c0-0.6,0-1.3-0.1-1.9c-0.7-22.3-10.2-43.3-12.5-65.4c-0.2-1.3-6.4-41.5-7.4-40.8
	c-6.7,5.3-16.9,3.6-24.5,7c6.6-3,14,27.9,14.2,30.8c1.1,14.9,6.4,67.2-12,74.8c-14.8,6.1-32-11.8-28.9-24.9
	c-2.7,10.6,5,27.4,11.1,35c10.2,12.5,15.6,11.6,30.7,10.2c9.5-0.8,21-0.8,30.4,0.4c-0.2-4.6-0.5-9.1-0.6-13.7
	c0.9,1.4,1.8,2.7,2.6,3.8c10.2,12.5,15.5,11.6,30.7,10.2c9.5-0.8,21.1-0.8,30.4,0.4c-0.1-2.6-0.2-5.3-0.3-8
	c7.8,8.2,13.1,7.5,25.8,6.3c8.8-0.7,19.7-0.7,28.4,0.4c-0.3-8.3-0.9-16.7-1.1-25.1C468.8,320.8,459.9,301.3,457.8,280.8L457.8,280.8
	z M513.1,289.4c-5.4,10.2-20.9,20.7-33.7,15.1c-22-9.7-14.1-41.8,2.7-51.9c16.4-9.9,33.9,0.6,47.8,9.1c-13-22.2-27-42.7-46.7-60.6
	c-17-15.4-36.8-30.1-42.5-52.5c-4.7-18.6,2.4-43.7,25.6-48.6c20.1-4.1,51,13,55.9,31.9l0,0c3.9,14.9-22.8,18.6-33.2,13.7
	c8-5.5,20.5-9,19.2-20.6c-1.1-9-12.4-15.2-21-17.3c-23.9-5.9-36.2,12.9-33.7,32.3c3.6,27.6,29.7,44.9,50.5,62.5
	c17.9,15.1,30.2,33.4,32.6,55.8c1.7,15.4-0.7,30.9-2.9,46.2c1.1-12.2,2.4-26.4-6-36.8c-6.9-8.5-21.1-13.6-32.1-8.8
	c-11.3,5-19.2,34.8,0.2,32.7c14.6-1.6,8.3-11.7,0.6-17C508.2,274.2,520,276.5,513.1,289.4L513.1,289.4z M571.3,196.2L571.3,196.2
	c15.4,0.5,13.1-26.4,6-35.4c-3.6,9-4.2,22-15.9,23.3c-9.1,1-17.6-8.6-21.6-16.6c-11.2-21.9,4.5-38.2,23.9-40
	c27.7-2.6,50.4,18.9,72.2,35.3c18.7,14.1,39.3,22,61.7,19.3c15.4-1.8,30-7.6,44.3-13.2c-11.6,3.8-25.2,8.3-37.2,2.4
	c-9.8-4.7-18-17.5-15.7-29.3c2.3-12.1,29.6-26.5,31.9-7.2c1.7,14.6-9.5,10.7-16.5,4.4c2.2,11.6,7.1,22.6,18.1,13
	c8.8-7.6,15.6-25,7.2-36.2c-14.3-19.2-43.8-4.4-50,14.2c-6,18.1,8.1,33,19.6,44.6c-24.6-7.8-47.7-16.8-69.4-32.1
	c-18.8-13.1-37.7-29.2-60.7-29.7c-19.2-0.4-42.1,12.1-41.6,35.8C528.2,169.4,551.9,195.6,571.3,196.2L571.3,196.2z M580.4,240.3
	c19.5,1.7,43.1-12.9,46.9-26.3c-18.4-7.3-37.7-0.3-50.7,7.2l0.6,0.2c-1.5,5.3-5.7,9.8-1.4,16.1c1.4-7,20.3-13.5,29.4-12.9
	C601,230.1,588.9,238.7,580.4,240.3L580.4,240.3z M654.4,373.2c-26.7,6.6-54.8,2-81.8,7.7c3.2,10.1,8.7,23,14.7,31.6
	c6.7-10.8,22.7-18.4,33.6-19.8c14.7-1.8,31.4,0.6,46,6.3C660.9,396.8,655,381,654.4,373.2L654.4,373.2z M760.3,334
	c-0.3-3.3-0.5-6.5-0.8-9.8c0-0.2,0-0.6,0-0.8c-0.1,0.1-0.2,0.1-0.2,0.2c-16.5,14.4-46.7,16.5-66.5,9c-37.1-14.1-48.4-78.1-6.1-93.1
	c17.4-6.2,38.1,9.4,47.9,22.5c10.9,14.7,9,39.4-2.7,53.6c10.6-12.9,22.9-26.1,28.6-41.4c3.6-9.9-5-30.2-10.2-40.1
	c-12.5-24.1-42.5-47-71.6-35.4c-1.4,0.5-2.7,1.1-3.9,1.8c-15.3,7.8-24,22.3-28.3,36.6c-4.1,13.3-8.4,34.8-3.2,49.3
	c5,13.8,11.5,27.5,22.8,39.1c-20-8.7-37.3-22.8-47.7-42.7c-2.3-4.5-14-36.9-21.2-34.3c-5.6,2-11.4,2.2-17.3,1.8
	c7.1,3.6,8.5,13.5,10.4,20.4c2.9,10.5,5.2,23.2,10.8,32.6c-14.1-10-21.9-23.5-27.3-39.6c-2.7-8.3-4.8-16.7-7-25
	c-0.6-2-7.1-21.1-6.5-21.7c-6.9,6-17.6,4.1-25.4,7.8c6.9-3.4,14.6,31.6,14.8,34.7c1.1,16.9,6.7,75.9-12.5,84.5
	c-15.3,6.8-33.3-13.3-30-28.2c-2.8,12,5.2,31,11.5,39.5c10.6,14.1,16.1,13.1,31.9,11.6c9.8-0.9,21.9-0.9,31.6,0.4
	c-0.3-10.1-1-20.2-1.2-30.5c-0.6-20.5-7.6-40.1-8-60.3c0.2,9.1,8.1,18.4,11,27c6.1,18.2,12.3,44,8.7,63c13.9,1.9,26.4,4.6,40.6,2.8
	c-6.4,0.8-5.1-35.9-8.3-37.8c24.4,13.1,41.6,29.1,69.9,34.7c25.6,5.1,52.4,4,78.1,0.1C767.9,359.8,762.3,345.8,760.3,334L760.3,334z
	 M42.9,142.7L42.9,142.7c7.9,14,22.3,26.2,35.4,27.8c-2.1,6.9-4.9,13.3-13,14.2c-9,1-17.5-8.6-21.6-16.6
	C38.8,158.2,39.1,149.5,42.9,142.7z"/>
<path fill="#000000" d="M273.602,481.306c-0.578-0.576-1.301-1.03-2.174-1.362c-0.873-0.331-1.885-0.497-3.039-0.497
	c-0.663,0-1.463,0.079-2.4,0.238v-6.077h-1.535v17.711c0.706,0.202,1.402,0.354,2.087,0.454s1.301,0.151,1.849,0.151
	c1.153,0,2.166-0.162,3.039-0.486s1.596-0.764,2.174-1.319c0.576-0.555,1.006-1.211,1.287-1.968s0.42-1.561,0.42-2.411
	s-0.139-1.657-0.42-2.422C274.608,482.554,274.178,481.883,273.602,481.306z M272.391,489.167c-0.852,0.829-2.17,1.243-3.958,1.243
	c-0.39,0-0.805-0.032-1.244-0.097c-0.439-0.065-0.84-0.134-1.2-0.206v-8.845c0.447-0.115,0.887-0.194,1.319-0.237
	c0.433-0.044,0.808-0.065,1.125-0.065c0.894,0,1.668,0.112,2.325,0.335c0.656,0.224,1.199,0.545,1.633,0.963
	c0.432,0.418,0.752,0.919,0.961,1.503s0.314,1.243,0.314,1.979C273.667,487.195,273.241,488.338,272.391,489.167z M247.392,479.446
	c-0.62,0-1.297,0.079-2.033,0.238c-0.735,0.158-1.485,0.433-2.249,0.821l-0.065,1.73c0.548-0.303,0.973-0.52,1.276-0.649
	s0.624-0.237,0.962-0.324c0.338-0.086,0.677-0.158,1.016-0.216s0.667-0.087,0.984-0.087c1.139,0,1.982,0.249,2.53,0.746
	s0.822,1.33,0.822,2.498v0.13c-0.332-0.044-0.732-0.087-1.2-0.13c-0.469-0.043-0.876-0.065-1.222-0.065
	c-1.831,0-3.302,0.311-4.412,0.931c-1.11,0.619-1.665,1.644-1.665,3.07c0,0.707,0.155,1.305,0.465,1.795
	c0.31,0.49,0.713,0.88,1.211,1.168s1.067,0.497,1.708,0.627c0.641,0.13,1.308,0.194,2,0.194c0.807,0,1.6-0.072,2.378-0.216
	c0.779-0.145,1.536-0.368,2.271-0.671v-7.028c0-1.585-0.397-2.742-1.189-3.471C250.189,479.811,248.992,479.446,247.392,479.446z
	 M250.636,489.892c-0.375,0.144-0.858,0.267-1.449,0.367c-0.591,0.102-1.183,0.151-1.773,0.151c-0.505,0-0.984-0.035-1.438-0.108
	c-0.454-0.071-0.84-0.197-1.157-0.378c-0.317-0.18-0.57-0.414-0.757-0.703c-0.188-0.288-0.281-0.663-0.281-1.124
	c0-0.52,0.111-0.934,0.335-1.244c0.224-0.31,0.533-0.551,0.93-0.724c0.396-0.174,0.85-0.296,1.362-0.368
	c0.511-0.072,1.041-0.108,1.589-0.108c0.476,0,0.984,0.029,1.524,0.087c0.541,0.058,0.912,0.108,1.114,0.151V489.892z
	 M258.032,479.868c-0.649,0.122-1.276,0.263-1.881,0.422v11.418h1.535v-10.186c0.202-0.072,0.563-0.147,1.082-0.228
	c0.519-0.079,1.002-0.118,1.449-0.118h1.989v-1.492H260C259.336,479.685,258.681,479.746,258.032,479.868z M-77.92,487.667
	l241.145,0.656l0.663-0.433l-0.632-0.564L-77.92,487.667z M164.994,487.825l1.95,1.95l1.95-1.95l-1.95-1.95L164.994,487.825z
	 M169.559,487.825l3.057,3.057l3.057-3.057l-3.057-3.057L169.559,487.825z M212.359,489.286l-3.395-9.602h-1.514l-3.396,9.602
	l-2.984-9.602h-1.73l3.979,12.023h1.428l3.46-9.645l3.46,9.645h1.427l3.979-12.023h-1.73L212.359,489.286z M238.418,489.589
	c-0.317,0-0.591,0.115-0.822,0.346c-0.231,0.23-0.346,0.505-0.346,0.822c0,0.316,0.115,0.591,0.346,0.821
	c0.23,0.23,0.504,0.346,0.822,0.346c0.317,0,0.591-0.115,0.822-0.346c0.23-0.23,0.346-0.505,0.346-0.821
	c0-0.317-0.116-0.592-0.346-0.822C239.009,489.704,238.735,489.589,238.418,489.589z M193.243,489.286l-3.395-9.602h-1.514
	l-3.396,9.602l-2.984-9.602h-1.73l3.979,12.023h1.428l3.46-9.645l3.46,9.645h1.427l3.979-12.023h-1.73L193.243,489.286z
	 M231.476,489.286l-3.395-9.602h-1.514l-3.396,9.602l-2.984-9.602h-1.73l3.979,12.023h1.428l3.46-9.645l3.46,9.645h1.427
	l3.979-12.023h-1.73L231.476,489.286z M382.732,480.474c-0.426-0.396-0.938-0.667-1.535-0.812c-0.598-0.144-1.271-0.216-2.021-0.216
	c-0.664,0-1.393,0.09-2.184,0.271c-0.793,0.181-1.471,0.4-2.033,0.659c-0.346-0.331-0.818-0.569-1.416-0.714
	c-0.6-0.144-1.273-0.216-2.023-0.216c-0.635,0-1.268,0.058-1.902,0.173l-2.465,0.454v11.635h1.535v-10.38
	c0.447-0.102,0.883-0.188,1.309-0.26c0.424-0.072,0.896-0.108,1.416-0.108c0.605,0,1.125,0.058,1.557,0.173
	c0.434,0.116,0.789,0.321,1.07,0.616c0.281,0.296,0.494,0.711,0.639,1.244s0.217,1.24,0.217,2.119v6.596h1.535v-7.201
	c0-0.663-0.055-1.243-0.162-1.741c-0.109-0.497-0.213-0.861-0.314-1.092c0.086-0.043,0.281-0.119,0.584-0.228
	c0.303-0.107,0.602-0.197,0.898-0.27c0.295-0.072,0.586-0.126,0.875-0.162s0.547-0.055,0.779-0.055c0.59,0,1.102,0.058,1.535,0.173
	c0.432,0.116,0.781,0.317,1.049,0.605c0.266,0.289,0.471,0.703,0.615,1.244c0.145,0.54,0.217,1.251,0.217,2.13v6.596h1.535v-7.201
	c0-0.995-0.111-1.816-0.336-2.466C383.482,481.393,383.158,480.87,382.732,480.474z M280.1,474.581
	c-0.785,0.648-1.18,1.729-1.18,3.243v1.86h-2.551v1.492h2.551v10.531h1.537v-10.531h4.973v-1.492h-4.973v-1.471
	c0-0.635,0.045-1.149,0.141-1.546c0.094-0.396,0.24-0.707,0.443-0.931c0.201-0.223,0.475-0.385,0.82-0.486
	c0.346-0.101,0.779-0.151,1.299-0.151h2.422v-1.492h-2.271C281.956,473.607,280.885,473.932,280.1,474.581z M398.273,487.825
	l3.057,3.057l3.057-3.057l-3.057-3.057L398.273,487.825z M343.322,482.322c0.389-0.418,0.854-0.749,1.395-0.994
	s1.135-0.368,1.783-0.368c0.736,0,1.373,0.076,1.914,0.228s1.121,0.414,1.74,0.789l0.715-1.405c-0.707-0.39-1.393-0.674-2.055-0.854
	c-0.664-0.181-1.436-0.271-2.314-0.271c-0.85,0-1.639,0.155-2.367,0.465c-0.729,0.311-1.367,0.746-1.914,1.309
	c-0.549,0.563-0.98,1.222-1.297,1.979c-0.317,0.757-0.476,1.59-0.476,2.498s0.158,1.74,0.476,2.497
	c0.316,0.757,0.748,1.413,1.297,1.969c0.547,0.555,1.186,0.987,1.914,1.297c0.729,0.311,1.518,0.465,2.367,0.465
	c0.879,0,1.65-0.09,2.314-0.27c0.662-0.181,1.348-0.466,2.055-0.854l-0.715-1.406c-0.619,0.375-1.199,0.639-1.74,0.79
	s-1.178,0.227-1.914,0.227c-0.648,0-1.242-0.119-1.783-0.356c-0.541-0.238-1.006-0.565-1.395-0.984
	c-0.391-0.418-0.693-0.915-0.908-1.492c-0.217-0.576-0.324-1.203-0.324-1.881s0.107-1.305,0.324-1.882
	C342.628,483.238,342.931,482.741,343.322,482.322z M404.387,487.825l1.949,1.95l1.951-1.95l-1.951-1.95L404.387,487.825z
	 M410.701,487.326l-0.664,0.433l0.633,0.564l241.176-0.341L410.701,487.326z M362.611,481.295c-0.549-0.569-1.193-1.02-1.936-1.352
	c-0.742-0.331-1.547-0.497-2.412-0.497c-0.863,0-1.668,0.166-2.41,0.497c-0.742,0.332-1.389,0.782-1.936,1.352
	c-0.549,0.57-0.977,1.229-1.287,1.979c-0.311,0.749-0.465,1.557-0.465,2.422s0.154,1.672,0.465,2.422s0.738,1.409,1.287,1.979
	c0.547,0.569,1.193,1.017,1.936,1.341s1.547,0.486,2.41,0.486c0.865,0,1.67-0.162,2.412-0.486s1.387-0.771,1.936-1.341
	c0.547-0.569,0.977-1.229,1.287-1.979c0.309-0.75,0.465-1.557,0.465-2.422s-0.156-1.673-0.465-2.422
	C363.587,482.524,363.158,481.865,362.611,481.295z M362.394,487.523c-0.217,0.569-0.52,1.067-0.908,1.492
	c-0.389,0.426-0.857,0.765-1.406,1.017c-0.547,0.252-1.152,0.378-1.816,0.378c-0.662,0-1.268-0.126-1.816-0.378
	c-0.547-0.252-1.016-0.591-1.404-1.017c-0.391-0.425-0.693-0.923-0.908-1.492c-0.217-0.569-0.324-1.179-0.324-1.827
	c0-0.649,0.107-1.262,0.324-1.839c0.215-0.576,0.518-1.077,0.908-1.503c0.389-0.425,0.857-0.764,1.404-1.016
	c0.549-0.252,1.154-0.379,1.816-0.379c0.664,0,1.27,0.127,1.816,0.379c0.549,0.252,1.018,0.591,1.406,1.016
	c0.389,0.426,0.691,0.927,0.908,1.503c0.217,0.577,0.324,1.189,0.324,1.839C362.718,486.345,362.611,486.954,362.394,487.523z
	 M296.221,481.295c-0.547-0.569-1.191-1.02-1.936-1.352c-0.742-0.331-1.545-0.497-2.41-0.497s-1.67,0.166-2.412,0.497
	c-0.742,0.332-1.387,0.782-1.936,1.352c-0.547,0.57-0.977,1.229-1.285,1.979c-0.311,0.749-0.465,1.557-0.465,2.422
	s0.154,1.672,0.465,2.422c0.309,0.75,0.738,1.409,1.285,1.979c0.549,0.569,1.193,1.017,1.936,1.341s1.547,0.486,2.412,0.486
	s1.668-0.162,2.41-0.486c0.744-0.324,1.389-0.771,1.936-1.341c0.549-0.569,0.977-1.229,1.287-1.979s0.465-1.557,0.465-2.422
	s-0.154-1.673-0.465-2.422C297.198,482.524,296.77,481.865,296.221,481.295z M296.006,487.523c-0.217,0.569-0.52,1.067-0.908,1.492
	c-0.391,0.426-0.859,0.765-1.406,1.017c-0.549,0.252-1.154,0.378-1.816,0.378c-0.664,0-1.27-0.126-1.816-0.378
	c-0.549-0.252-1.018-0.591-1.406-1.017c-0.389-0.425-0.691-0.923-0.908-1.492s-0.324-1.179-0.324-1.827
	c0-0.649,0.107-1.262,0.324-1.839c0.217-0.576,0.52-1.077,0.908-1.503c0.389-0.425,0.857-0.764,1.406-1.016
	c0.547-0.252,1.152-0.379,1.816-0.379c0.662,0,1.268,0.127,1.816,0.379c0.547,0.252,1.016,0.591,1.406,1.016
	c0.389,0.426,0.691,0.927,0.908,1.503c0.215,0.577,0.324,1.189,0.324,1.839C296.331,486.345,296.221,486.954,296.006,487.523z
	 M309.381,480.463c-0.455-0.39-0.996-0.656-1.623-0.801c-0.627-0.144-1.309-0.216-2.043-0.216c-0.707,0-1.465,0.047-2.271,0.141
	s-1.701,0.234-2.682,0.422v11.699h1.535v-10.402c1.184-0.23,2.293-0.346,3.33-0.346c0.592,0,1.111,0.062,1.559,0.184
	c0.445,0.123,0.818,0.332,1.113,0.628c0.295,0.295,0.525,0.713,0.691,1.254s0.25,1.251,0.25,2.13v6.553h1.535v-7.201
	c0-0.995-0.119-1.82-0.357-2.477C310.18,481.375,309.834,480.852,309.381,480.463z M318.516,490.054
	c-0.346-0.108-0.619-0.277-0.82-0.509c-0.203-0.23-0.35-0.547-0.443-0.951c-0.096-0.403-0.141-0.922-0.141-1.557v-5.86h4.973v-1.492
	h-4.973v-4.347h-1.537v4.347h-2.551v1.492h2.551v6.466c0,0.764,0.109,1.405,0.326,1.925c0.215,0.519,0.525,0.937,0.93,1.254
	c0.402,0.317,0.867,0.544,1.395,0.682c0.525,0.137,1.105,0.205,1.74,0.205h2.271v-1.492h-2.422
	C319.295,490.216,318.862,490.162,318.516,490.054z M337.784,489.589c-0.316,0-0.59,0.115-0.82,0.346s-0.346,0.505-0.346,0.822
	c0,0.316,0.115,0.591,0.346,0.821s0.504,0.346,0.82,0.346c0.318,0,0.592-0.115,0.822-0.346s0.346-0.505,0.346-0.821
	c0-0.317-0.115-0.592-0.346-0.822S338.102,489.589,337.784,489.589z M333.178,486.106c-0.346-0.303-0.785-0.565-1.318-0.789
	c-0.533-0.223-1.182-0.422-1.947-0.595l-0.799-0.173c-1.053-0.216-1.781-0.461-2.184-0.735c-0.404-0.273-0.607-0.678-0.607-1.211
	c0-0.504,0.238-0.904,0.715-1.2c0.475-0.295,1.174-0.443,2.098-0.443c0.793,0,1.477,0.076,2.055,0.228
	c0.576,0.151,1.217,0.421,1.924,0.811l0.691-1.405c-1.412-0.765-2.969-1.146-4.67-1.146c-0.635,0-1.223,0.076-1.764,0.228
	c-0.539,0.151-1.008,0.364-1.404,0.638s-0.711,0.605-0.941,0.994c-0.23,0.39-0.346,0.815-0.346,1.276
	c0,0.462,0.072,0.88,0.217,1.254c0.143,0.375,0.381,0.707,0.713,0.995s0.758,0.537,1.275,0.746c0.52,0.209,1.146,0.4,1.883,0.573
	l0.908,0.194c1.008,0.217,1.729,0.49,2.162,0.822c0.432,0.331,0.648,0.771,0.648,1.318c0,0.39-0.086,0.707-0.26,0.952
	c-0.172,0.245-0.414,0.436-0.725,0.573c-0.311,0.137-0.678,0.237-1.102,0.303c-0.426,0.064-0.877,0.097-1.352,0.097
	c-0.592,0-1.223-0.09-1.893-0.271c-0.67-0.18-1.352-0.479-2.045-0.897l-0.734,1.471c0.779,0.433,1.539,0.742,2.281,0.93
	s1.539,0.281,2.391,0.281c0.748,0,1.434-0.072,2.053-0.216c0.621-0.145,1.158-0.36,1.611-0.648c0.455-0.289,0.805-0.649,1.049-1.082
	c0.246-0.433,0.369-0.93,0.369-1.492c0-0.476-0.072-0.915-0.217-1.318C333.77,486.763,333.526,486.41,333.178,486.106z"/>
</svg>

