<?xml version="1.0" encoding="utf-8"?>
<!-- Generator: Adobe Illustrator 21.0.0, SVG Export Plug-In . SVG Version: 6.00 Build 0)  -->
<svg version="1.1" id="Layer_1" xmlns="http://www.w3.org/2000/svg" xmlns:xlink="http://www.w3.org/1999/xlink" x="0px" y="0px"
	 viewBox="0 0 800 500" style="enable-background:new 0 0 800 500;" xml:space="preserve">
<style type="text/css">
	.st0{opacity:0.7;}
</style>
<g>
	<g>
		<path fill="#000000" d="M390.1,158.3h1.6h0.5h2.2h0.8h3.7c1.2,0,2.4-0.4,3.5-1.3c1.1-0.9,1.8-1.9,2.1-3.1l1.8-6.7l3-11.1h-3.7h-0.8h-2.2h-0.5
			h-1.6H399h-3.6c-0.2,0-0.3,0-0.5,0c-1.1,0.1-2.1,0.5-3,1.3c-1.1,0.9-1.8,1.9-2.1,3.1l-1.8,6.7l-3,11.1h3.6H390.1z"/>
		<path fill="#000000" d="M384.9,320.7h-3.7h-0.8h-4.3h-1.5h-3.6c-0.2,0-0.3,0-0.5,0c-1.1,0.1-2.1,0.5-3,1.3c-1.1,0.9-1.8,1.9-2.1,3.1l-1.8,6.7
			l-3,11.1h3.6h1.5h4.3h0.8h3.7h0c1.2,0,2.4-0.4,3.5-1.3c1.1-0.9,1.8-1.9,2.1-3.1L384.9,320.7L384.9,320.7z"/>
		<path fill="#000000" d="M381.4,312.2h1.9h3.9h0c3.6,0,7-1.3,10.2-3.8c3.2-2.5,5.3-5.6,6.3-9.2l14-52.1h0h-3.6h-0.3h-6.5c-3.6,0-7,1.3-10.2,3.8
			c-3.2,2.5-5.3,5.6-6.3,9.2l-8.2,31.4l-8.6,0l0,0h0l11.7-44.5h0h-2.3h-1.6h-5.2c-3.6,0-7,1.3-10.2,3.8c-3.2,2.5-5.3,5.6-6.3,9.2
			l-8.4,31.3l-26,0.1c-3.7,0-7.2,1.2-10.5,3.7c-3.3,2.5-5.4,5.5-6.3,8.9l-2.1,8.3c0,0,0.1,0,0.2,0c0.7,0,3.1,0,6.6,0v0
			c17.8-0.1,64.4-0.3,67.6-0.3C381.3,312.2,381.4,312.2,381.4,312.2"/>
		<path fill="#000000" d="M312.3,278.5c3.6,0,7-1.3,10.2-3.8c3.2-2.5,5.3-5.6,6.3-9.2l14-52.1h-0.3h-9.3h-0.3c-3.6,0-7,1.3-10.2,3.8
			c-3.2,2.5-5.3,5.6-6.3,9.2l-8.4,32.4l-38.7,0v0h0.3l11.9-45.4h-0.3H273h-0.3c-3.6,0-7,1.3-10.2,3.8c-3.2,2.5-5.3,5.6-6.3,9.2
			l-17.3,65.2l-7.4,0l0,0h0.3l14.5-54.7h-0.3h-1.4h-1.8h-4h-0.3c-3.6,0-7,1.3-10.2,3.8c-3.2,2.5-5.3,5.6-6.3,9.2l-16.6,62.2h0.2
			l-0.1,0.2l0.3,0l0,0h0l35.6-0.2c3.6,0,7-1.3,10.2-3.8c3.2-2.5,5.3-5.6,6.3-9.2l5.4-20.3L312.3,278.5z"/>
		<path fill="#000000" d="M377.7,232.1h3.1c3.6,0,7-1.3,10.2-3.8c3.2-2.5,5.3-5.6,6.3-9.2l8.6-32l4.1,0l0,0l3.1,0l-5.4,20h0.1h7.2h28.6h3.1
			c3.6,0,7-1.3,10.2-3.8c3.2-2.5,5.3-5.6,6.3-9.2l13.9-52.1h-3.1h-28.6h-7.3c-3.6,0-7,1.3-10.2,3.8c-3.2,2.5-5.3,5.6-6.3,9.2
			l-3.2,12l-15.9,0c-3.6,0-7,1.3-10.2,3.8c-0.4,0.3-0.7,0.6-1.1,0.9c-0.1,0.1-0.2,0.2-0.3,0.3c-0.2,0.2-0.4,0.4-0.6,0.6
			c-0.1,0.1-0.3,0.3-0.4,0.4c-0.2,0.2-0.3,0.4-0.5,0.5c-0.1,0.2-0.3,0.3-0.4,0.5c-0.1,0.1-0.1,0.2-0.2,0.3c-0.4,0.5-0.7,1-1,1.5
			c0,0-0.1,0.1-0.1,0.1c-0.2,0.3-0.3,0.6-0.5,0.9c0,0,0,0.1-0.1,0.1c-0.5,1-0.9,2-1.2,3.1l-8.3,31.1h-7.2l11.8-44.1h-0.2h-2.9H375
			c-3.6,0-7,1.3-10.2,3.8c-3.2,2.5-5.3,5.6-6.3,9.2l-14,52.1h7.3H377.7z M438.4,174.6l7-26.1h10.4l-7,26.1l-7,26h-10.4L438.4,174.6z
			"/>
		<path fill="#000000" d="M596.6,214.6h-0.9h-7.3c-3.6,0-7,1.3-10.2,3.8c-3.2,2.5-5.3,5.6-6.3,9.2l-22.7,84.6h7.3h0.9h3.1c3.6,0,7-1.3,10.2-3.8
			c3.2-2.5,5.3-5.6,6.3-9.2l22.7-84.6H596.6z"/>
		<path fill="#000000" d="M563.3,214.6h-0.9h-7c-3.6,0-7,1.3-10.2,3.8c-3.2,2.5-5.3,5.6-6.3,9.2l-17.4,64l-53.7,0l12.3-44.4h24.8l-8,30.5h6h1.9h2
			c2.6-0.5,5-1.7,7.3-3.5c3.2-2.5,5.3-5.6,6.3-9.2l3.5-13l1.7-6.5l0.8-3.2l3.5-13h-3.9h-43.5h-7.9c-3.6,0-7,1.3-10.2,3.8
			c-3.2,2.5-5.3,5.6-6.3,9.2l-9.5,35.4h0l-4,14h-8.1l20.9-77h-1.7h-2.2h-5.6c-3.6,0-7,1.3-10.2,3.8c-3.2,2.5-5.3,5.6-6.3,9.2
			l-22.7,84.6h7.9h106.7h3.9c3.6,0,7-1.3,10.2-3.8c3.2-2.5,5.3-5.6,6.3-9.2l22.7-84.6H563.3z"/>
		<path fill="#000000" d="M401.7,320.7h-2.2H399h-1.6h-1.5h-3.6c-1.2,0-2.4,0.4-3.5,1.3c-1.1,0.9-1.8,1.9-2.1,3.1l-1.8,6.7l-3,11.1h3.6h1.5h1.6h0.5
			h2.2h0.8h3.7c0.2,0,0.3,0,0.5,0c1.1-0.1,2.1-0.5,3-1.3c1.1-0.9,1.8-1.9,2.1-3.1l1.8-6.7l3-11.1h-3.7H401.7z"/>
		<path fill="#000000" d="M233.2,229.2h1.5h1.6h0.5h2.2h0.8h0h3.7c1.2,0,2.4-0.4,3.5-1.3c1.1-0.9,1.8-1.9,2.1-3.1l1.8-6.7l3-11.1h-3.7h-0.8h-2.2
			h-0.5h-1.6h-1.5h-3.6c-1.2,0-2.4,0.4-3.5,1.3c-1.1,0.9-1.8,1.9-2.1,3.1l-1.8,6.7l-3,11.1H233.2L233.2,229.2z"/>
		<path fill="#000000" d="M301.2,289.7L301.2,289.7l-2.2,0h-0.5h-1.6h-1.5h-3.6c-1.2,0-2.4,0.4-3.5,1.3c-1.1,0.9-1.8,1.9-2.1,3.1l-1.8,6.7l-3,11.1
			h3.6h1.5h1.6h0.5h3h3.7c0.2,0,0.3,0,0.5,0c1.1-0.1,2.1-0.5,3.1-1.3c1.1-0.9,1.8-1.9,2.1-3.1l1.8-6.7l3-11.1H302H301.2z"/>
		<path fill="#000000" d="M284.4,289.7h-3.7h-0.8v0h-2.2h-0.5h-1.6H274h-3.6c-1.2,0-2.4,0.4-3.5,1.3c-1.1,0.9-1.8,1.9-2.1,3.1l-1.8,6.7l-3,11.1h3.6
			h1.5h1.6h0.5h3h3.7c0.3,0,0.6,0,0.9-0.1c0.9-0.2,1.8-0.6,2.6-1.2c1.1-0.9,1.8-1.9,2.1-3.1l1.8-6.7L284.4,289.7z"/>
		<path fill="#000000" d="M391.4,158.3h0.5h3h3.7c1.2,0,2.4-0.4,3.5-1.3c1.1-0.9,1.8-1.9,2.1-3.1l1.8-6.7l3-11.1h-3.7h-3h-0.5h-3.1h-3.6
			c-1.2,0-2.4,0.4-3.5,1.3c-1.1,0.9-1.8,1.9-2.1,3.1l-1.8,6.7l-3,11.1h3.6H391.4z"/>
		<path fill="#000000" d="M405.4,136h-0.8l-3,11.1l-1.8,6.7c-0.3,1.2-1,2.3-2.1,3.1c-1.1,0.9-2.3,1.3-3.5,1.3h0.8h3.7c1.2,0,2.4-0.4,3.5-1.3
			c1.1-0.9,1.8-1.9,2.1-3.1l1.8-6.7l3-11.1H405.4z"/>
		<path fill="#000000" d="M384.8,320.7h-13.9c-1.2,0-2.4,0.4-3.5,1.3c-1.1,0.9-1.8,1.9-2.1,3.1l-4.8,17.8h13.9c1.2,0,2.4-0.4,3.5-1.3
			c1.1-0.9,1.8-1.9,2.1-3.1L384.8,320.7z"/>
		<path fill="#000000" d="M399.3,320.7h-0.5h-3.1h-3.6c-1.2,0-2.4,0.4-3.5,1.3c-1.1,0.9-1.8,1.9-2.1,3.1l-1.8,6.7l-3,11.1h3.6h3.1h0.5h3h3.7
			c1.2,0,2.4-0.4,3.5-1.3c1.1-0.9,1.8-1.9,2.1-3.1l1.8-6.7l3-11.1h-3.7H399.3z"/>
		<path fill="#000000" d="M588.2,214.6c-3.6,0-7,1.3-10.2,3.8c-3.2,2.5-5.3,5.6-6.3,9.2L549,312.2h11.4c3.6,0,7-1.3,10.2-3.8
			c3.2-2.5,5.3-5.6,6.3-9.2l22.7-84.6H588.2z"/>
		<g class="st0">
			<g>
				<path fill="#000000" d="M585.3,218.5c3.2-2.5,6.6-3.8,10.2-3.8h-7.3c-3.6,0-7,1.3-10.2,3.8c-3.2,2.5-5.3,5.6-6.3,9.2L549,312.2h7.3l22.7-84.6
					C580,224,582.1,221,585.3,218.5"/>
			</g>
		</g>
		<path fill="#000000" d="M417.4,247.2H407c-3.6,0-7,1.3-10.2,3.8c-3.2,2.5-5.3,5.6-6.3,9.2l-8.2,31.4l-8.6,0l11.7-44.5h-9.1c-3.6,0-7,1.3-10.2,3.8
			c-3.2,2.5-5.3,5.6-6.3,9.2l-8.4,31.3l-26,0.1c-3.7,0-7.2,1.2-10.5,3.7c-3.3,2.5-5.4,5.5-6.3,8.9l-2.1,8.3c0,0,74.5-0.3,74.7-0.3
			h5.8c3.6,0,7-1.3,10.2-3.8c3.2-2.5,5.3-5.6,6.3-9.2L417.4,247.2z"/>
		<g class="st0">
			<g>
				<path fill="#000000" d="M382.4,291.6l-1.8,0l0,0l8.6,0l8.2-31.4c0.9-3.6,3-6.6,6.3-9.2c3.2-2.5,6.6-3.8,10.2-3.8H407c-3.6,0-7,1.3-10.2,3.8
					c-3.2,2.5-5.3,5.6-6.3,9.2L382.4,291.6z"/>
				<path fill="#000000" d="M315.4,304.3c0.9-3.5,3-6.4,6.3-8.9c3.3-2.5,6.8-3.7,10.5-3.7l26-0.1l8.4-31.3c1-3.6,3.1-6.6,6.3-9.2
					c3.2-2.5,6.6-3.8,10.2-3.8h-6.8c-3.6,0-7,1.3-10.2,3.8c-3.2,2.5-5.3,5.6-6.3,9.2l-8.4,31.3l-26,0.1c-3.7,0-7.2,1.2-10.5,3.7
					c-3.3,2.5-5.4,5.5-6.3,8.9l-2.1,8.3c0,0,2.6,0,6.8,0L315.4,304.3z"/>
			</g>
		</g>
		<path fill="#000000" d="M332.6,213.5c-3.6,0-7,1.3-10.2,3.8c-3.2,2.5-5.3,5.6-6.3,9.2l-8.4,32.4l-38.7,0l11.9-45.4h-8.4c-3.6,0-7,1.3-10.2,3.8
			c-3.2,2.5-5.3,5.6-6.3,9.2l-17.3,65.2l-7.4,0l14.5-54.7h-7.5c-3.6,0-7,1.3-10.2,3.8c-3.2,2.5-5.3,5.6-6.3,9.2L205,312.1h0.2
			l-0.1,0.2l35.6-0.2c3.6,0,7-1.3,10.2-3.8c3.2-2.5,5.3-5.6,6.3-9.2l5.4-20.3l49-0.3c3.6,0,7-1.3,10.2-3.8c3.2-2.5,5.3-5.6,6.3-9.2
			l14-52.1H332.6z"/>
		<g class="st0">
			<g>
				<path fill="#000000" d="M313.8,258.9l8.4-32.4c1-3.6,3-6.6,6.3-9.2c3.2-2.5,6.6-3.8,10.2-3.8h-5.8c-3.6,0-7,1.3-10.2,3.8
					c-3.2,2.5-5.3,5.6-6.3,9.2l-8.4,32.4H313.8z"/>
				<path fill="#000000" d="M244.7,291.6l17.3-65.2c1-3.6,3.1-6.6,6.3-9.2c3.2-2.5,6.6-3.8,10.2-3.8h-5.8c-3.6,0-7,1.3-10.2,3.8
					c-3.2,2.5-5.3,5.6-6.3,9.2l-17.3,65.2H244.7z"/>
				<path fill="#000000" d="M211.2,312.3l0-0.2h-0.2l16.6-62.2c1-3.6,3.1-6.6,6.3-9.2c3.2-2.5,6.6-3.8,10.2-3.8h-5.8c-3.6,0-7,1.3-10.2,3.8
					c-3.2,2.5-5.3,5.6-6.3,9.2l-16.6,62.2h0.2l-0.1,0.2L211.2,312.3z"/>
			</g>
		</g>
		<path fill="#000000" d="M339,213.5l-14,52.1c-0.9,3.6-3,6.6-6.3,9.2c-3.2,2.5-6.6,3.8-10.2,3.8l-49,0.3l-5.4,20.3c-0.9,3.6-3,6.6-6.3,9.2
			c-3.2,2.5-6.6,3.8-10.2,3.8l-32.1,0.2l0,0l35.6-0.2c3.6,0,7-1.3,10.2-3.8c3.2-2.5,5.3-5.6,6.3-9.2l5.4-20.3l49-0.3
			c3.6,0,7-1.3,10.2-3.8c3.2-2.5,5.3-5.6,6.3-9.2l14-52.1H339z"/>
		<polygon points="269.3,258.9 281.2,213.5 277.7,213.5 265.8,258.9 		"/>
		<polygon points="231.5,291.6 246,237 242.4,237 228,291.6 		"/>
		<path fill="#000000" d="M381.2,312.2h-3.9C377.1,312.2,381.1,312.2,381.2,312.2"/>
		<polygon points="373.8,291.6 385.5,247.2 381.5,247.2 369.9,291.6 		"/>
		<path fill="#000000" d="M413.5,247.2l-14,52.1c-0.9,3.6-3,6.6-6.3,9.2c-3.2,2.5-6.6,3.8-10.2,3.8h3.9c3.6,0,7-1.3,10.2-3.8
			c3.2-2.5,5.3-5.6,6.3-9.2l14-52.1H413.5z"/>
		<path fill="#000000" d="M380.6,232.1c3.6,0,7-1.3,10.2-3.8c3.2-2.5,5.3-5.6,6.3-9.2l8.6-32l7.2,0l-5.4,20h39.1c3.6,0,7-1.3,10.2-3.8
			c3.2-2.5,5.3-5.6,6.3-9.2l13.9-52.1h-39.1c-3.6,0-7,1.3-10.2,3.8c-3.2,2.5-5.3,5.6-6.3,9.2l-3.2,12l-15.9,0c-3.6,0-7,1.3-10.2,3.8
			c-3.2,2.5-5.3,5.6-6.3,9.2l-8.3,31.1h-7.2l11.8-44.1h-7.6c-3.6,0-7,1.3-10.2,3.8c-3.2,2.5-5.3,5.6-6.3,9.2l-14,52.1H380.6z
			 M438.2,174.6l7-26.1h10.4l-7,26.1l-7,26h-10.4L438.2,174.6z"/>
		<g class="st0">
			<g>
				<path fill="#000000" d="M377.9,211.1h7.2l8.3-31.1c0.9-3.6,3-6.6,6.3-9.2c3.2-2.5,6.6-3.8,10.2-3.8l15.8,0l3.2-12c0.9-3.6,3-6.6,6.3-9.2
					c3.2-2.5,6.6-3.8,10.2-3.8h-7.3c-3.6,0-7,1.3-10.2,3.8c-3.2,2.5-5.3,5.6-6.3,9.2l-3.2,12l-15.9,0c-3.6,0-7,1.3-10.2,3.8
					c-2.5,2-4.4,4.3-5.5,7L377.9,211.1z"/>
				<polygon points="455.9,174.6 462.9,148.5 455.6,148.5 448.6,174.6 441.6,200.6 449,200.6 				"/>
				<polygon points="413.1,187 407.7,207.1 414.9,207.1 420.3,187 				"/>
				<path fill="#000000" d="M371.9,170.8c3.2-2.5,6.6-3.8,10.2-3.8h-7.3c-3.6,0-7,1.3-10.2,3.8c-3.2,2.5-5.3,5.6-6.3,9.2l-14,52.1h7.3l14-52.1
					C366.6,176.4,368.6,173.4,371.9,170.8"/>
			</g>
		</g>
		<polygon points="435.1,174.6 428.1,200.6 431.2,200.6 438.2,174.6 445.2,148.5 442.1,148.5 		"/>
		<polygon points="370.5,211.1 382.3,167 379.2,167 367.4,211.1 		"/>
		<path fill="#000000" d="M474,142l-13.9,52.1c-1,3.6-3.1,6.6-6.3,9.2c-3.2,2.5-6.6,3.8-10.2,3.8h3.1c3.6,0,7-1.3,10.2-3.8c3.2-2.5,5.3-5.6,6.3-9.2
			l13.9-52.1H474z"/>
		<path fill="#000000" d="M409.9,187L409.9,187l-7.2,0l-8.6,32c-0.9,3.6-3,6.6-6.3,9.2c-3.2,2.5-6.6,3.8-10.2,3.8h3.1c3.6,0,7-1.3,10.2-3.8
			c3.2-2.5,5.3-5.6,6.3-9.2l8.6-32L409.9,187z"/>
		<path fill="#000000" d="M555.2,214.6c-3.6,0-7,1.3-10.2,3.8c-3.2,2.5-5.3,5.6-6.3,9.2l-17.4,64l-53.7,0l12.3-44.4h24.8l-8,30.5h9.9
			c2.6-0.5,5-1.7,7.3-3.5c3.2-2.5,5.3-5.6,6.3-9.2l3.5-13l1.7-6.5l0.8-3.2l3.5-13h-55.3c-3.6,0-7,1.3-10.2,3.8
			c-3.2,2.5-5.3,5.6-6.3,9.2l-9.5,35.4h0l-4,14h-8.1l20.9-77h-9.6c-3.6,0-7,1.3-10.2,3.8c-3.2,2.5-5.3,5.6-6.3,9.2l-22.7,84.6h118.5
			c3.6,0,7-1.3,10.2-3.8c3.2-2.5,5.3-5.6,6.3-9.2l22.7-84.6H555.2z"/>
		<g class="st0">
			<g>
				<path fill="#000000" d="M475.5,291.6L475.5,291.6l53.7,0l17.4-64c0.9-3.6,3-6.7,6.3-9.2c3.2-2.5,6.6-3.8,10.2-3.8h-7.9c-3.6,0-7,1.3-10.2,3.8
					c-3.2,2.5-5.3,5.6-6.3,9.2l-17.4,64L475.5,291.6z"/>
				<polygon points="512.5,247.2 504.7,247.2 496.6,277.6 504.5,277.6 				"/>
				<path fill="#000000" d="M457.9,242.2l-9.5,35.4h0l-4,14h7.9l4-14h0l9.5-35.4c0.9-3.6,3-6.7,6.3-9.2c3.2-2.5,6.6-3.8,10.2-3.8h-7.9
					c-3.6,0-7,1.3-10.2,3.8C460.9,235.5,458.8,238.6,457.9,242.2"/>
				<path fill="#000000" d="M445.2,218.5c3.2-2.5,6.6-3.8,10.2-3.8h-7.9c-3.6,0-7,1.3-10.2,3.8c-3.2,2.5-5.3,5.6-6.3,9.2l-22.7,84.6h7.9l22.7-84.6
					C439.9,224,442,221,445.2,218.5"/>
			</g>
		</g>
		<path fill="#000000" d="M596.4,214.6l-22.7,84.6c-1,3.6-3,6.6-6.3,9.2c-3.2,2.5-6.6,3.8-10.2,3.8h3.1c3.6,0,7-1.3,10.2-3.8
			c3.2-2.5,5.3-5.6,6.3-9.2l22.7-84.6H596.4z"/>
		<path fill="#000000" d="M521.4,245.4l-1.7,6.5l-3.5,13c-1,3.6-3.1,6.6-6.3,9.2c-2.3,1.8-4.7,3-7.3,3.5h3.9c2.6-0.5,5-1.7,7.3-3.5
			c3.2-2.5,5.3-5.6,6.3-9.2l3.5-13l1.7-6.5l0.8-3.2l3.5-13h-3.9l-3.5,13L521.4,245.4z"/>
		<path fill="#000000" d="M562.2,214.6l-22.7,84.6c-0.9,3.6-3,6.6-6.3,9.2c-3.2,2.5-6.6,3.8-10.2,3.8h3.9c3.6,0,7-1.3,10.2-3.8
			c3.2-2.5,5.3-5.6,6.3-9.2l22.7-84.6H562.2z"/>
		<polygon points="467.6,291.6 479.9,247.2 475.9,247.2 463.7,291.6 		"/>
		<polygon points="436.2,291.6 457.1,214.6 453.2,214.6 432.3,291.6 		"/>
		<path fill="#000000" d="M402.4,320.7h-0.8l-3,11.1l-1.8,6.7c-0.3,1.2-1,2.3-2.1,3.1c-1.1,0.9-2.3,1.3-3.5,1.3h0.8h3.7c1.2,0,2.4-0.4,3.5-1.3
			c1.1-0.9,1.8-1.9,2.1-3.1l1.8-6.7l3-11.1H402.4z"/>
		<path fill="#000000" d="M381.1,320.7h-0.8l-3,11.1l-1.8,6.7c-0.3,1.2-1,2.3-2.1,3.1c-1.1,0.9-2.3,1.3-3.5,1.3h0.8h3.7c1.2,0,2.4-0.4,3.5-1.3
			c1.1-0.9,1.8-1.9,2.1-3.1l1.8-6.7l3-11.1H381.1z"/>
		<path fill="#000000" d="M284.2,289.7h-3.7h-3h-0.5h-3.1h-3.6c-1.2,0-2.4,0.4-3.5,1.3c-1.1,0.9-1.8,1.9-2.1,3.1l-1.8,6.7l-3,11.1h3.6h3.1h0.5h3
			h3.7c1.2,0,2.4-0.4,3.5-1.3c1.1-0.9,1.8-1.9,2.1-3.1l1.8-6.7L284.2,289.7z"/>
		<path fill="#000000" d="M236.1,229.2h0.5h3h3.7c1.2,0,2.4-0.4,3.5-1.3c1.1-0.9,1.8-1.9,2.1-3.1l1.8-6.7l3-11.1h-3.7h-3h-0.5h-3.1h-3.6
			c-1.2,0-2.4,0.4-3.5,1.3c-1.1,0.9-1.8,1.9-2.1,3.1l-1.8,6.7l-3,11.1h3.6H236.1z"/>
		<path fill="#000000" d="M298.7,289.7h-0.5h-3.1h-3.6c-1.2,0-2.4,0.4-3.5,1.3c-1.1,0.9-1.8,1.9-2.1,3.1l-1.8,6.7l-3,11.1h3.6h3.1h0.5h3h3.7
			c1.2,0,2.4-0.4,3.5-1.3c1.1-0.9,1.8-1.9,2.1-3.1l1.8-6.7l3-11.1h-3.7H298.7z"/>
		<path fill="#000000" d="M301.8,289.7H301l-3,11.1l-1.8,6.7c-0.3,1.2-1,2.3-2.1,3.1c-1.1,0.9-2.3,1.3-3.5,1.3h0.8h3.7c1.2,0,2.4-0.4,3.5-1.3
			c1.1-0.9,1.8-1.9,2.1-3.1l1.8-6.7l3-11.1H301.8z"/>
		<path fill="#000000" d="M280.5,289.7h-0.8l-3,11.1l-1.8,6.7c-0.3,1.2-1,2.3-2.1,3.1s-2.3,1.3-3.5,1.3h0.8h3.7c1.2,0,2.4-0.4,3.5-1.3
			c1.1-0.9,1.8-1.9,2.1-3.1l1.8-6.7l3-11.1H280.5z"/>
		<g class="st0">
			<g>
				<path fill="#000000" d="M370.3,325.1c0.3-1.2,1-2.3,2.1-3.1c1.1-0.9,2.3-1.3,3.5-1.3h-1.5h-3.6c-1.2,0-2.4,0.4-3.5,1.3
					c-1.1,0.9-1.8,1.9-2.1,3.1l-1.8,6.7l-3,11.1h3.6h1.5l3-11.1L370.3,325.1z"/>
			</g>
		</g>
		<path fill="#000000" d="M333.3,97.2c-10.6,0-19.3-8.7-19.3-19.3c0-10.6,8.7-19.3,19.3-19.3c10.6,0,19.3,8.6,19.3,19.3
			C352.6,88.5,343.9,97.2,333.3,97.2 M333.3,68.6c-5.1,0-9.3,4.2-9.3,9.3c0,5.1,4.2,9.3,9.3,9.3c5.1,0,9.3-4.2,9.3-9.3
			C342.6,72.8,338.4,68.6,333.3,68.6"/>
		<path fill="#000000" d="M566.2,180.2c-7.3,0-13.2-5.9-13.2-13.2c0-7.3,5.9-13.2,13.2-13.2c7.3,0,13.2,5.9,13.2,13.2
			C579.4,174.3,573.5,180.2,566.2,180.2 M566.2,160.6c-3.5,0-6.4,2.9-6.4,6.4c0,3.5,2.9,6.4,6.4,6.4c3.5,0,6.4-2.9,6.4-6.4
			C572.6,163.5,569.7,160.6,566.2,160.6"/>
		<path fill="#000000" d="M569.9,74.5c-4.6,0-8.3-3.7-8.3-8.3c0-4.6,3.7-8.3,8.3-8.3c4.6,0,8.3,3.7,8.3,8.3C578.2,70.7,574.5,74.5,569.9,74.5
			 M569.9,62.2c-2.2,0-4,1.8-4,4c0,2.2,1.8,4,4,4c2.2,0,4-1.8,4-4C573.9,64,572.1,62.2,569.9,62.2"/>
		<path fill="#000000" d="M303,478.5c-7.8,0-14.2-6.4-14.2-14.2c0-7.8,6.4-14.2,14.2-14.2c7.8,0,14.2,6.4,14.2,14.2
			C317.2,472.1,310.8,478.5,303,478.5 M303,457.4c-3.8,0-6.8,3.1-6.8,6.8c0,3.8,3.1,6.9,6.8,6.9c3.8,0,6.8-3.1,6.8-6.9
			C309.8,460.5,306.7,457.4,303,457.4"/>
		<path fill="#000000" d="M302.8,148.5c0-5.1,4.2-9.3,9.3-9.3c5.2,0,9.3,4.2,9.3,9.3c0,5.1-4.2,9.3-9.3,9.3C307,157.8,302.8,153.6,302.8,148.5"/>
		<path fill="#000000" d="M445.3,98.8c0-5.1,4.2-9.3,9.3-9.3s9.3,4.2,9.3,9.3c0,5.1-4.2,9.3-9.3,9.3S445.3,104,445.3,98.8"/>
		<path fill="#000000" d="M389.6,23.3c0-5.1,4.2-9.3,9.3-9.3c5.1,0,9.3,4.2,9.3,9.3c0,5.1-4.2,9.3-9.3,9.3C393.8,32.6,389.6,28.5,389.6,23.3"/>
		<path fill="#000000" d="M450.1,385.4c0-5.1,4.2-9.3,9.3-9.3c5.2,0,9.3,4.2,9.3,9.3c0,5.1-4.2,9.3-9.3,9.3C454.3,394.7,450.1,390.6,450.1,385.4"/>
		<path fill="#000000" d="M391.7,481.8c0-3.8,3.1-6.9,6.9-6.9c3.8,0,6.9,3.1,6.9,6.9c0,3.8-3.1,6.9-6.9,6.9C394.8,488.7,391.7,485.6,391.7,481.8"/>
		<path fill="#000000" d="M157.5,331.8c0-3.8,3.1-6.9,6.9-6.9c3.8,0,6.9,3.1,6.9,6.9c0,3.8-3.1,6.9-6.9,6.9C160.6,338.7,157.5,335.6,157.5,331.8"/>
		<polygon points="287.4,119.5 287.4,119.5 284.7,116.7 284.7,116.7 278.4,118.3 280,112 280,112 277.3,109.3 277.3,109.3 
			271,110.8 272.6,104.5 272.6,104.5 269.9,101.8 269.9,101.8 263.6,103.4 265.2,97.1 265.2,97.1 262.5,94.4 262.5,94.3 256.2,95.9 
			257.8,89.6 257.8,89.6 255.1,86.9 255.1,86.9 245.1,89.4 247.8,92.1 254.2,90.5 252.6,96.8 252.5,96.8 252.6,96.9 255.2,99.6 
			255.3,99.6 255.3,99.6 261.6,98 260,104.3 259.9,104.3 260,104.3 262.6,107 262.7,107.1 262.7,107 269,105.4 267.4,111.7 
			267.3,111.8 267.3,111.8 270,114.5 270,114.5 270.1,114.5 276.4,112.9 274.7,119.2 274.7,119.2 274.7,119.2 277.4,121.9 
			277.4,122 277.4,121.9 283.8,120.4 282.1,126.7 284.8,129.4 		"/>
		<polygon points="511.9,116.9 511.9,116.9 514.6,114.2 514.6,114.2 520.9,115.8 519.3,109.5 519.3,109.5 522,106.7 522,106.7 
			528.3,108.3 526.7,102 526.7,102 529.4,99.3 529.4,99.3 535.7,100.9 534.1,94.5 534.1,94.5 536.8,91.8 536.8,91.8 543.1,93.4 
			541.5,87.1 541.5,87.1 544.2,84.4 544.2,84.4 554.2,86.8 551.5,89.6 545.1,88 546.7,94.3 546.8,94.3 546.8,94.3 544.1,97 
			544.1,97.1 544,97 537.7,95.4 539.4,101.8 539.4,101.8 539.4,101.8 536.7,104.5 536.7,104.5 536.7,104.5 530.3,102.9 532,109.2 
			532,109.2 532,109.3 529.3,112 529.3,112 529.3,111.9 522.9,110.4 524.6,116.7 524.6,116.7 524.6,116.7 521.9,119.4 521.9,119.4 
			521.9,119.4 515.5,117.8 517.2,124.2 514.5,126.9 		"/>
		<polygon points="396,98.8 396,98.8 396,96 396,96 400,93.6 395.9,91.2 395.9,88.4 395.9,88.4 399.9,86 395.9,83.6 395.8,80.9 
			399.9,78.4 395.8,76.1 395.8,73.3 395.8,73.3 399.8,70.9 395.7,68.5 395.7,68.5 395.7,65.7 395.7,65.7 402.1,61.9 402.1,64.6 
			398,67.1 402.1,69.5 402.1,69.5 402.1,69.5 402.1,72.2 402.1,72.2 402.1,72.2 398.1,74.7 402.2,77 402.2,77 402.2,77 402.2,79.8 
			402.2,79.8 402.2,79.8 398.2,82.2 402.2,84.6 402.2,84.6 402.2,84.6 402.3,87.3 402.3,87.4 402.2,87.4 398.2,89.8 402.3,92.2 
			402.3,92.2 402.3,92.2 402.3,94.9 402.3,94.9 402.3,94.9 398.3,97.4 402.4,99.7 402.4,102.5 		"/>
		<polygon points="630.7,336.3 630.7,336.3 628.1,335.3 628.1,335.3 627.4,330.6 623.7,333.5 623.7,333.5 621.1,332.4 620.4,327.8 
			616.6,330.6 614.1,329.6 613.3,325 609.6,327.8 609.6,327.8 607,326.8 606.3,322.2 602.6,325 602.6,325 600,324 600,324 
			598.9,316.7 601.4,317.7 602.2,322.4 605.9,319.5 605.9,319.5 605.9,319.5 608.5,320.5 608.5,320.5 608.5,320.5 609.2,325.2 
			612.9,322.3 612.9,322.3 612.9,322.3 615.5,323.3 615.5,323.3 615.5,323.3 616.2,328 619.9,325.1 619.9,325.1 620,325.1 
			622.5,326.1 622.5,326.1 622.5,326.2 623.2,330.8 627,327.9 627,327.9 627,327.9 629.5,328.9 629.6,329 629.5,329 630.3,333.6 
			634,330.7 636.6,331.8 		"/>
		<polygon points="236.6,387.8 236.6,387.8 240,384.3 240,384.3 248,386.3 245.9,378.4 245.9,378.4 249.3,375 249.3,375 
			257.3,376.9 255.2,369 255.2,369 258.6,365.6 258.6,365.6 266.5,367.6 264.5,359.6 264.5,359.6 267.9,356.2 267.9,356.2 
			275.8,358.2 273.8,350.3 273.8,350.3 277.2,346.9 277.2,346.9 289.7,350 286.3,353.4 278.3,351.4 280.4,359.3 280.4,359.4 
			280.4,359.4 277,362.8 277,362.8 277,362.8 269,360.8 271.1,368.7 271.1,368.7 271.1,368.8 267.8,372.1 267.7,372.2 267.7,372.1 
			259.8,370.1 261.8,378.1 261.9,378.1 261.8,378.1 258.5,381.5 258.4,381.5 258.4,381.5 250.5,379.5 252.5,387.4 252.6,387.5 
			252.6,387.5 249.2,390.9 249.2,390.9 249.2,390.9 241.2,388.9 243.3,396.9 239.9,400.3 		"/>
		<polygon points="402.8,439.6 402.7,439.6 402.7,435.7 402.7,435.7 397,432.5 402.6,429.1 402.5,425.2 402.5,425.2 396.8,422 
			402.4,418.6 402.4,418.6 402.3,414.7 402.3,414.7 396.7,411.5 402.2,408.1 402.2,408.1 402.1,404.2 402.1,404.2 396.5,401 
			402,397.6 402,397.6 402,393.7 401.9,393.7 393,388.6 393.1,392.4 398.8,395.7 393.2,399.1 393.2,399.1 393.2,399.1 393.3,402.9 
			393.3,403 393.3,403 398.9,406.2 393.4,409.6 393.4,409.6 393.4,409.7 393.4,413.4 393.4,413.5 393.5,413.5 399.1,416.7 
			393.6,420.1 393.6,420.1 393.6,420.2 393.6,423.9 393.6,424 393.7,424 399.3,427.2 393.8,430.6 393.7,430.6 393.7,430.7 
			393.8,434.4 393.8,434.5 393.8,434.5 399.5,437.7 393.9,441.2 394,445 		"/>
		<polygon points="582.4,412.6 582.4,412.6 579.1,409.1 579.1,409.1 571.2,410.9 573.4,403.1 573.4,403.1 570.1,399.6 570.1,399.6 
			562.2,401.5 564.4,393.6 564.4,393.6 561.1,390.2 553.2,392 555.3,384.2 555.3,384.2 552,380.7 552,380.7 544.1,382.5 
			546.3,374.7 546.3,374.7 543,371.2 543,371.2 530.5,374.1 533.8,377.6 541.7,375.7 539.6,383.6 539.5,383.6 539.6,383.6 
			542.8,387 542.9,387.1 542.9,387 550.8,385.2 548.6,393 548.6,393.1 548.6,393.1 551.9,396.5 551.9,396.5 551.9,396.5 
			559.8,394.7 557.6,402.5 557.6,402.5 557.6,402.6 560.9,406 560.9,406 560.9,406 568.9,404.1 566.7,412 566.6,412 566.7,412 
			569.9,415.4 570,415.5 570,415.4 577.9,413.6 575.7,421.5 579,424.9 		"/>
		<polygon points="238.1,162.1 231.1,167.6 231.7,176.5 224.3,171.6 216,175 218.4,166.4 212.6,159.6 221.6,159.2 226.3,151.6 
			229.4,159.9 		"/>
		<polygon points="683,269.1 675.2,264.9 667.3,269 668.9,260.2 662.5,253.9 671.4,252.7 675.4,244.7 679.3,252.8 688.1,254.2 
			681.6,260.3 		"/>
		<polygon points="361.7,120.4 358.9,126.8 362.5,132.8 355.5,132.1 351,137.4 349.5,130.5 343,127.8 349.1,124.3 349.7,117.3 
			354.9,122 		"/>
		<polygon points="499,37.1 488,41.6 485.5,53.1 477.9,44.1 466.1,45.3 472.3,35.2 467.6,24.4 479.1,27.2 487.9,19.3 488.8,31.1 		
			"/>
		<polygon points="484,424.3 481.3,429.5 484.1,434.8 478.2,433.8 474.1,438.1 473.2,432.2 467.9,429.6 473.2,426.9 474,421.1 
			478.2,425.3 		"/>
		<path fill="#000000" d="M188.5,244.1l-6.4-3.4l-6.5,3.3l1.3-7.1l-5.2-5.1l7.2-1l3.3-6.5l3.2,6.5l7.2,1.1l-5.2,5L188.5,244.1z M182.1,238.7
			l4.1,2.2l-0.7-4.5l3.3-3.2l-4.6-0.7l-2-4.1l-2.1,4.1l-4.6,0.6l3.3,3.2l-0.8,4.5L182.1,238.7z"/>
		<polygon points="223.6,411.9 221.7,417.5 225.2,422.2 219.3,422.2 215.9,427 214.1,421.3 208.5,419.6 213.3,416.2 213.2,410.2 
			218,413.8 		"/>
		<path fill="#000000" d="M508,198.5l1.1-8.5l-6.4-5.8l8.4-1.6l3.5-7.8l4.1,7.6l8.5,0.9l-5.9,6.2l1.8,8.4l-7.7-3.7L508,198.5z M510.4,186.4l2.4,2.2
			l-0.4,3.2l2.8-1.6l3,1.4l-0.7-3.2l2.3-2.4l-3.3-0.3l-1.6-2.9l-1.3,3L510.4,186.4z"/>
		<path fill="#000000" d="M515.4,361.2l-4.2-6l-7.3,0.1l4.4-5.8l-2.3-6.9l6.9,2.4l5.8-4.3l-0.1,7.3l5.9,4.2l-6.9,2.1L515.4,361.2z M512.2,353.5
			l2.6,3.8l1.4-4.4l4.4-1.3l-3.7-2.7l0.1-4.6l-3.7,2.7l-4.4-1.5l1.5,4.4l-2.8,3.7L512.2,353.5z"/>
		<path fill="#000000" d="M334.1,421.3l-8.7-10.3l-13.4,1.3l7.1-11.5l-5.4-12.3l13.1,3.2l10.1-9l1,13.4l11.6,6.8l-12.5,5.1L334.1,421.3z
			 M326.9,407.3l5.3,6.2l1.7-8l7.6-3.1l-7.1-4.1l-0.6-8.2l-6.1,5.4l-7.9-2l3.3,7.5l-4.3,6.9L326.9,407.3z"/>
	</g>
</g>
<path fill="#000000" d="M273.602,481.306c-0.578-0.576-1.301-1.03-2.174-1.362c-0.873-0.331-1.885-0.497-3.039-0.497
	c-0.663,0-1.463,0.079-2.4,0.238v-6.077h-1.535v17.711c0.706,0.202,1.402,0.354,2.087,0.454s1.301,0.151,1.849,0.151
	c1.153,0,2.166-0.162,3.039-0.486s1.596-0.764,2.174-1.319c0.576-0.555,1.006-1.211,1.287-1.968s0.42-1.561,0.42-2.411
	s-0.139-1.657-0.42-2.422C274.608,482.554,274.178,481.883,273.602,481.306z M272.391,489.167c-0.852,0.829-2.17,1.243-3.958,1.243
	c-0.39,0-0.805-0.032-1.244-0.097c-0.439-0.065-0.84-0.134-1.2-0.206v-8.845c0.447-0.115,0.887-0.194,1.319-0.237
	c0.433-0.044,0.808-0.065,1.125-0.065c0.894,0,1.668,0.112,2.325,0.335c0.656,0.224,1.199,0.545,1.633,0.963
	c0.432,0.418,0.752,0.919,0.961,1.503s0.314,1.243,0.314,1.979C273.667,487.195,273.241,488.338,272.391,489.167z M247.392,479.446
	c-0.62,0-1.297,0.079-2.033,0.238c-0.735,0.158-1.485,0.433-2.249,0.821l-0.065,1.73c0.548-0.303,0.973-0.52,1.276-0.649
	s0.624-0.237,0.962-0.324c0.338-0.086,0.677-0.158,1.016-0.216s0.667-0.087,0.984-0.087c1.139,0,1.982,0.249,2.53,0.746
	s0.822,1.33,0.822,2.498v0.13c-0.332-0.044-0.732-0.087-1.2-0.13c-0.469-0.043-0.876-0.065-1.222-0.065
	c-1.831,0-3.302,0.311-4.412,0.931c-1.11,0.619-1.665,1.644-1.665,3.07c0,0.707,0.155,1.305,0.465,1.795
	c0.31,0.49,0.713,0.88,1.211,1.168s1.067,0.497,1.708,0.627c0.641,0.13,1.308,0.194,2,0.194c0.807,0,1.6-0.072,2.378-0.216
	c0.779-0.145,1.536-0.368,2.271-0.671v-7.028c0-1.585-0.397-2.742-1.189-3.471C250.189,479.811,248.992,479.446,247.392,479.446z
	 M250.636,489.892c-0.375,0.144-0.858,0.267-1.449,0.367c-0.591,0.102-1.183,0.151-1.773,0.151c-0.505,0-0.984-0.035-1.438-0.108
	c-0.454-0.071-0.84-0.197-1.157-0.378c-0.317-0.18-0.57-0.414-0.757-0.703c-0.188-0.288-0.281-0.663-0.281-1.124
	c0-0.52,0.111-0.934,0.335-1.244c0.224-0.31,0.533-0.551,0.93-0.724c0.396-0.174,0.85-0.296,1.362-0.368
	c0.511-0.072,1.041-0.108,1.589-0.108c0.476,0,0.984,0.029,1.524,0.087c0.541,0.058,0.912,0.108,1.114,0.151V489.892z
	 M258.032,479.868c-0.649,0.122-1.276,0.263-1.881,0.422v11.418h1.535v-10.186c0.202-0.072,0.563-0.147,1.082-0.228
	c0.519-0.079,1.002-0.118,1.449-0.118h1.989v-1.492H260C259.336,479.685,258.681,479.746,258.032,479.868z M-77.92,487.667
	l241.145,0.656l0.663-0.433l-0.632-0.564L-77.92,487.667z M164.994,487.825l1.95,1.95l1.95-1.95l-1.95-1.95L164.994,487.825z
	 M169.559,487.825l3.057,3.057l3.057-3.057l-3.057-3.057L169.559,487.825z M212.359,489.286l-3.395-9.602h-1.514l-3.396,9.602
	l-2.984-9.602h-1.73l3.979,12.023h1.428l3.46-9.645l3.46,9.645h1.427l3.979-12.023h-1.73L212.359,489.286z M238.418,489.589
	c-0.317,0-0.591,0.115-0.822,0.346c-0.231,0.23-0.346,0.505-0.346,0.822c0,0.316,0.115,0.591,0.346,0.821
	c0.23,0.23,0.504,0.346,0.822,0.346c0.317,0,0.591-0.115,0.822-0.346c0.23-0.23,0.346-0.505,0.346-0.821
	c0-0.317-0.116-0.592-0.346-0.822C239.009,489.704,238.735,489.589,238.418,489.589z M193.243,489.286l-3.395-9.602h-1.514
	l-3.396,9.602l-2.984-9.602h-1.73l3.979,12.023h1.428l3.46-9.645l3.46,9.645h1.427l3.979-12.023h-1.73L193.243,489.286z
	 M231.476,489.286l-3.395-9.602h-1.514l-3.396,9.602l-2.984-9.602h-1.73l3.979,12.023h1.428l3.46-9.645l3.46,9.645h1.427
	l3.979-12.023h-1.73L231.476,489.286z M382.732,480.474c-0.426-0.396-0.938-0.667-1.535-0.812c-0.598-0.144-1.271-0.216-2.021-0.216
	c-0.664,0-1.393,0.09-2.184,0.271c-0.793,0.181-1.471,0.4-2.033,0.659c-0.346-0.331-0.818-0.569-1.416-0.714
	c-0.6-0.144-1.273-0.216-2.023-0.216c-0.635,0-1.268,0.058-1.902,0.173l-2.465,0.454v11.635h1.535v-10.38
	c0.447-0.102,0.883-0.188,1.309-0.26c0.424-0.072,0.896-0.108,1.416-0.108c0.605,0,1.125,0.058,1.557,0.173
	c0.434,0.116,0.789,0.321,1.07,0.616c0.281,0.296,0.494,0.711,0.639,1.244s0.217,1.24,0.217,2.119v6.596h1.535v-7.201
	c0-0.663-0.055-1.243-0.162-1.741c-0.109-0.497-0.213-0.861-0.314-1.092c0.086-0.043,0.281-0.119,0.584-0.228
	c0.303-0.107,0.602-0.197,0.898-0.27c0.295-0.072,0.586-0.126,0.875-0.162s0.547-0.055,0.779-0.055c0.59,0,1.102,0.058,1.535,0.173
	c0.432,0.116,0.781,0.317,1.049,0.605c0.266,0.289,0.471,0.703,0.615,1.244c0.145,0.54,0.217,1.251,0.217,2.13v6.596h1.535v-7.201
	c0-0.995-0.111-1.816-0.336-2.466C383.482,481.393,383.158,480.87,382.732,480.474z M280.1,474.581
	c-0.785,0.648-1.18,1.729-1.18,3.243v1.86h-2.551v1.492h2.551v10.531h1.537v-10.531h4.973v-1.492h-4.973v-1.471
	c0-0.635,0.045-1.149,0.141-1.546c0.094-0.396,0.24-0.707,0.443-0.931c0.201-0.223,0.475-0.385,0.82-0.486
	c0.346-0.101,0.779-0.151,1.299-0.151h2.422v-1.492h-2.271C281.956,473.607,280.885,473.932,280.1,474.581z M398.273,487.825
	l3.057,3.057l3.057-3.057l-3.057-3.057L398.273,487.825z M343.322,482.322c0.389-0.418,0.854-0.749,1.395-0.994
	s1.135-0.368,1.783-0.368c0.736,0,1.373,0.076,1.914,0.228s1.121,0.414,1.74,0.789l0.715-1.405c-0.707-0.39-1.393-0.674-2.055-0.854
	c-0.664-0.181-1.436-0.271-2.314-0.271c-0.85,0-1.639,0.155-2.367,0.465c-0.729,0.311-1.367,0.746-1.914,1.309
	c-0.549,0.563-0.98,1.222-1.297,1.979c-0.317,0.757-0.476,1.59-0.476,2.498s0.158,1.74,0.476,2.497
	c0.316,0.757,0.748,1.413,1.297,1.969c0.547,0.555,1.186,0.987,1.914,1.297c0.729,0.311,1.518,0.465,2.367,0.465
	c0.879,0,1.65-0.09,2.314-0.27c0.662-0.181,1.348-0.466,2.055-0.854l-0.715-1.406c-0.619,0.375-1.199,0.639-1.74,0.79
	s-1.178,0.227-1.914,0.227c-0.648,0-1.242-0.119-1.783-0.356c-0.541-0.238-1.006-0.565-1.395-0.984
	c-0.391-0.418-0.693-0.915-0.908-1.492c-0.217-0.576-0.324-1.203-0.324-1.881s0.107-1.305,0.324-1.882
	C342.628,483.238,342.931,482.741,343.322,482.322z M404.387,487.825l1.949,1.95l1.951-1.95l-1.951-1.95L404.387,487.825z
	 M410.701,487.326l-0.664,0.433l0.633,0.564l241.176-0.341L410.701,487.326z M362.611,481.295c-0.549-0.569-1.193-1.02-1.936-1.352
	c-0.742-0.331-1.547-0.497-2.412-0.497c-0.863,0-1.668,0.166-2.41,0.497c-0.742,0.332-1.389,0.782-1.936,1.352
	c-0.549,0.57-0.977,1.229-1.287,1.979c-0.311,0.749-0.465,1.557-0.465,2.422s0.154,1.672,0.465,2.422s0.738,1.409,1.287,1.979
	c0.547,0.569,1.193,1.017,1.936,1.341s1.547,0.486,2.41,0.486c0.865,0,1.67-0.162,2.412-0.486s1.387-0.771,1.936-1.341
	c0.547-0.569,0.977-1.229,1.287-1.979c0.309-0.75,0.465-1.557,0.465-2.422s-0.156-1.673-0.465-2.422
	C363.587,482.524,363.158,481.865,362.611,481.295z M362.394,487.523c-0.217,0.569-0.52,1.067-0.908,1.492
	c-0.389,0.426-0.857,0.765-1.406,1.017c-0.547,0.252-1.152,0.378-1.816,0.378c-0.662,0-1.268-0.126-1.816-0.378
	c-0.547-0.252-1.016-0.591-1.404-1.017c-0.391-0.425-0.693-0.923-0.908-1.492c-0.217-0.569-0.324-1.179-0.324-1.827
	c0-0.649,0.107-1.262,0.324-1.839c0.215-0.576,0.518-1.077,0.908-1.503c0.389-0.425,0.857-0.764,1.404-1.016
	c0.549-0.252,1.154-0.379,1.816-0.379c0.664,0,1.27,0.127,1.816,0.379c0.549,0.252,1.018,0.591,1.406,1.016
	c0.389,0.426,0.691,0.927,0.908,1.503c0.217,0.577,0.324,1.189,0.324,1.839C362.718,486.345,362.611,486.954,362.394,487.523z
	 M296.221,481.295c-0.547-0.569-1.191-1.02-1.936-1.352c-0.742-0.331-1.545-0.497-2.41-0.497s-1.67,0.166-2.412,0.497
	c-0.742,0.332-1.387,0.782-1.936,1.352c-0.547,0.57-0.977,1.229-1.285,1.979c-0.311,0.749-0.465,1.557-0.465,2.422
	s0.154,1.672,0.465,2.422c0.309,0.75,0.738,1.409,1.285,1.979c0.549,0.569,1.193,1.017,1.936,1.341s1.547,0.486,2.412,0.486
	s1.668-0.162,2.41-0.486c0.744-0.324,1.389-0.771,1.936-1.341c0.549-0.569,0.977-1.229,1.287-1.979s0.465-1.557,0.465-2.422
	s-0.154-1.673-0.465-2.422C297.198,482.524,296.77,481.865,296.221,481.295z M296.006,487.523c-0.217,0.569-0.52,1.067-0.908,1.492
	c-0.391,0.426-0.859,0.765-1.406,1.017c-0.549,0.252-1.154,0.378-1.816,0.378c-0.664,0-1.27-0.126-1.816-0.378
	c-0.549-0.252-1.018-0.591-1.406-1.017c-0.389-0.425-0.691-0.923-0.908-1.492s-0.324-1.179-0.324-1.827
	c0-0.649,0.107-1.262,0.324-1.839c0.217-0.576,0.52-1.077,0.908-1.503c0.389-0.425,0.857-0.764,1.406-1.016
	c0.547-0.252,1.152-0.379,1.816-0.379c0.662,0,1.268,0.127,1.816,0.379c0.547,0.252,1.016,0.591,1.406,1.016
	c0.389,0.426,0.691,0.927,0.908,1.503c0.215,0.577,0.324,1.189,0.324,1.839C296.331,486.345,296.221,486.954,296.006,487.523z
	 M309.381,480.463c-0.455-0.39-0.996-0.656-1.623-0.801c-0.627-0.144-1.309-0.216-2.043-0.216c-0.707,0-1.465,0.047-2.271,0.141
	s-1.701,0.234-2.682,0.422v11.699h1.535v-10.402c1.184-0.23,2.293-0.346,3.33-0.346c0.592,0,1.111,0.062,1.559,0.184
	c0.445,0.123,0.818,0.332,1.113,0.628c0.295,0.295,0.525,0.713,0.691,1.254s0.25,1.251,0.25,2.13v6.553h1.535v-7.201
	c0-0.995-0.119-1.82-0.357-2.477C310.18,481.375,309.834,480.852,309.381,480.463z M318.516,490.054
	c-0.346-0.108-0.619-0.277-0.82-0.509c-0.203-0.23-0.35-0.547-0.443-0.951c-0.096-0.403-0.141-0.922-0.141-1.557v-5.86h4.973v-1.492
	h-4.973v-4.347h-1.537v4.347h-2.551v1.492h2.551v6.466c0,0.764,0.109,1.405,0.326,1.925c0.215,0.519,0.525,0.937,0.93,1.254
	c0.402,0.317,0.867,0.544,1.395,0.682c0.525,0.137,1.105,0.205,1.74,0.205h2.271v-1.492h-2.422
	C319.295,490.216,318.862,490.162,318.516,490.054z M337.784,489.589c-0.316,0-0.59,0.115-0.82,0.346s-0.346,0.505-0.346,0.822
	c0,0.316,0.115,0.591,0.346,0.821s0.504,0.346,0.82,0.346c0.318,0,0.592-0.115,0.822-0.346s0.346-0.505,0.346-0.821
	c0-0.317-0.115-0.592-0.346-0.822S338.102,489.589,337.784,489.589z M333.178,486.106c-0.346-0.303-0.785-0.565-1.318-0.789
	c-0.533-0.223-1.182-0.422-1.947-0.595l-0.799-0.173c-1.053-0.216-1.781-0.461-2.184-0.735c-0.404-0.273-0.607-0.678-0.607-1.211
	c0-0.504,0.238-0.904,0.715-1.2c0.475-0.295,1.174-0.443,2.098-0.443c0.793,0,1.477,0.076,2.055,0.228
	c0.576,0.151,1.217,0.421,1.924,0.811l0.691-1.405c-1.412-0.765-2.969-1.146-4.67-1.146c-0.635,0-1.223,0.076-1.764,0.228
	c-0.539,0.151-1.008,0.364-1.404,0.638s-0.711,0.605-0.941,0.994c-0.23,0.39-0.346,0.815-0.346,1.276
	c0,0.462,0.072,0.88,0.217,1.254c0.143,0.375,0.381,0.707,0.713,0.995s0.758,0.537,1.275,0.746c0.52,0.209,1.146,0.4,1.883,0.573
	l0.908,0.194c1.008,0.217,1.729,0.49,2.162,0.822c0.432,0.331,0.648,0.771,0.648,1.318c0,0.39-0.086,0.707-0.26,0.952
	c-0.172,0.245-0.414,0.436-0.725,0.573c-0.311,0.137-0.678,0.237-1.102,0.303c-0.426,0.064-0.877,0.097-1.352,0.097
	c-0.592,0-1.223-0.09-1.893-0.271c-0.67-0.18-1.352-0.479-2.045-0.897l-0.734,1.471c0.779,0.433,1.539,0.742,2.281,0.93
	s1.539,0.281,2.391,0.281c0.748,0,1.434-0.072,2.053-0.216c0.621-0.145,1.158-0.36,1.611-0.648c0.455-0.289,0.805-0.649,1.049-1.082
	c0.246-0.433,0.369-0.93,0.369-1.492c0-0.476-0.072-0.915-0.217-1.318C333.77,486.763,333.526,486.41,333.178,486.106z"/>
</svg>

