<?xml version="1.0" encoding="utf-8"?>
<!-- Generator: Adobe Illustrator 21.0.0, SVG Export Plug-In . SVG Version: 6.00 Build 0)  -->
<svg version="1.1" id="Layer_1" xmlns="http://www.w3.org/2000/svg" xmlns:xlink="http://www.w3.org/1999/xlink" x="0px" y="0px"
	 viewBox="0 0 800 500" style="enable-background:new 0 0 800 500;" xml:space="preserve">
<g>
	<polygon points="252,91.9 266.3,106.1 280.5,91.9 266.3,77.7 280.5,63.5 266.3,49.2 252,63.5 266.2,77.7 	"/>
	<polygon points="217.8,358.2 212.8,377.7 232.3,382.7 237.3,363.3 256.8,368.3 261.8,348.8 242.3,343.7 237.3,363.2 	"/>
	<rect x="299.1" y="285.3" transform="matrix(0.7071 -0.7071 0.7071 0.7071 -117.6272 303.5308)" width="17" height="17"/>
	<rect x="393.3" y="361.1" transform="matrix(0.7071 -0.7071 0.7071 0.7071 -143.644 392.3824)" width="17" height="17"/>
	<rect x="281.9" y="228.3" transform="matrix(0.7071 -0.7071 0.7071 0.7071 -82.4236 274.6854)" width="17" height="17"/>
	<g>
		<path fill="#000000" d="M372.7,278.4c-0.4,0.3-1.8,1.4-0.2,0.2c-0.5,0.3-0.9,0.7-1.4,1c-1,0.7,1.7-1.1,0.7-0.5c-0.1,0-0.2,0.1-0.2,0.1
			c-0.7,0.5-0.3,0.2,1.3-0.8c-0.2,0.1-0.4,0.3-0.7,0.4c0.6-0.3,1.2-0.7,1.7-1c-0.1,0.1-0.3,0.2-0.4,0.2c0.6-0.3,1.2-0.6,1.8-1
			c-0.1,0.1-0.3,0.2-0.4,0.2c2.9-1.5,1.8-0.9,1.1-0.6c-1,0.5,1.9-0.8,0.9-0.4c-0.2,0.1-0.4,0.2-0.6,0.3c-0.9,0.4,1.5-0.5,0.5-0.2
			c-0.2,0.1-0.4,0.2-0.6,0.2c-0.4,0.1-0.8,0.3-1.3,0.4c-1,0.3,0.7-0.2-0.3,0.1c-0.4,0.1-0.8,0.2-1.2,0.2c-0.8,0.1-1.6,0.2-2.4,0.3
			c-1.5,0.1-3,0-4.5-0.3c0.1,0,0.3,0.1,0.4,0.1c-5.9-1.1-10.7-5.1-13.4-10.4c-3.1-6-3.4-13.1-1.7-19.5c0.3-1.3,0.8-2.6,1.3-3.9
			c-0.1,0.1-0.1,0.3-0.2,0.4c1.7-4.2,4.2-8,7.2-11.4c0.4-0.4,0.8-0.8,1.1-1.2c0.2-0.2,0.4-0.4,0.6-0.6c0.3-0.3,0.3-0.3-0.1,0.1
			c0.1-0.1,0.3-0.3,0.4-0.4c1-0.9,2.1-1.8,3.1-2.7c0.9-0.7-1.2,0.9-0.2,0.2c0.3-0.2,0.7-0.5,1-0.7c0.3-0.2,0.5-0.4,0.8-0.5
			c-2.2,1.5-0.8,0.5-0.3,0.2c0.1-0.1,0.2-0.1,0.3-0.2c0.7-0.5,0.4-0.2-1.1,0.7c0.2-0.1,0.4-0.2,0.6-0.3c0.8-0.5,0.4-0.2-1.3,0.8
			c0.3-0.2,0.6-0.3,0.9-0.5c1.3-0.7-2.6,1.4-0.7,0.4c-2.1,0.7-4.3,1.4-6.4,2.1c-1.4,2.2-1.8,4.9-2,7.4c-0.4,3.7-0.4,7.4-0.3,11.1
			c0.2,9.4,0.8,18.8,0.8,28.2c0,9.3-0.2,19.4-3.7,28.2c0.1-0.1,0.1-0.3,0.2-0.4c-1.2,3-2.9,5.5-5.1,7.9c-0.9,1.1-1.9,2.1-2.9,3.1
			c-0.5,0.5-1,1-1.5,1.5c-0.3,0.3-0.5,0.5-0.8,0.8c-0.2,0.2-0.7,0.7,0.2-0.2c-0.2,0.2-0.4,0.3-0.5,0.5c-2.5,2.3-5,4.5-7.6,6.7
			c-1.4,1.2-2.9,2.3-4.3,3.5c-0.7,0.6-1.4,1.1-2.2,1.7c-0.4,0.3-0.7,0.6-1.1,0.8c1.8-1.4,0.1-0.1-0.3,0.2c-3.3,2.5-6.7,4.9-10,7.2
			c-1.8,1.2-3.6,2.5-5.4,3.7c-0.5,0.3-1.5,1,0.7-0.5c-0.2,0.1-0.4,0.3-0.7,0.4c-0.4,0.3-0.9,0.6-1.3,0.9c-1,0.6-2,1.3-2.9,1.9
			c-3.9,2.5-7.8,5-11.7,7.5c-1,0.6-1.9,1.2-2.9,1.8c-1.2,0.7,2.1-1.3,1-0.6c-0.2,0.2-0.5,0.3-0.7,0.5c-0.6,0.4-1.1,0.7-1.7,1.1
			c-2.1,1.3-4.1,2.5-6.2,3.8c-4.2,2.5-8.5,5-12.7,7.5c-1,0.6-2.1,1.2-3.1,1.8c-0.3,0.1-0.5,0.3-0.8,0.4c-0.1,0-0.2,0.1-0.3,0.1
			c-0.8,0.5-0.3,0.2,1.4-0.8c-0.6,0.3-1.2,0.7-1.8,1c-2.2,1.2-4.3,2.5-6.5,3.7c-8.5,4.8-17.1,9.5-25.8,14.2c-1,0.5-2,1.1-3,1.6
			c0.6-0.3,1.1-0.6,1.7-0.9c-0.2,0.1-0.3,0.2-0.5,0.3c-0.3,0.1-0.5,0.3-0.8,0.4c-0.6,0.3-1.2,0.6-1.8,0.9c-2.1,1.1-4.1,2.2-6.2,3.3
			c-4,2.1-8,4.2-12,6.3c-7.2,3.7-14.4,7.4-21.7,11.1c-3.1,1.6-6.2,3.1-9.4,4.7c-1.4,0.7-2.8,1.4-4.2,2.1c-0.3,0.2-0.6,0.3-1,0.5
			c-0.2,0.1-0.3,0.2-0.5,0.2c3.1-1.5,2.1-1,1.4-0.7c-0.7,0.3-1.3,0.7-2,1c-3.9,1.9-7.9,3.9-11.9,5.8c-0.1,0.1-0.2,0.1-0.3,0.2
			c-3.8,1.9-7.9,3.9-11.2,6.6c0,0-1.7,1.3-0.4,1.2c1.4-0.2,2.9-1,4.1-1.6c10.3-5,20.5-10.1,30.7-15.2c16-8.1,32-16.4,47.8-24.9
			c18-9.6,35.8-19.6,53.4-30.1c16.7-9.9,33.2-20.3,48.9-31.7c6.3-4.6,12.5-9.4,18.3-14.6c2.5-2.2,4.9-4.5,7.2-7
			c2-2.1,3.9-4.2,5.4-6.7c4.2-7.1,5-16.1,5.4-24.2c0.4-9.6-0.1-19.3-0.4-28.9c-0.2-4.6-0.3-9.3-0.2-13.9c0.1-3.3,0.3-6.7,1.5-9.8
			c-0.1,0.1-0.1,0.3-0.2,0.4c0.2-0.5,0.4-1,0.7-1.4c0.6-0.9-1-0.3-1.2-0.2c-1.8,0.6-3.5,1.5-5.2,2.3c-11.3,5.8-23.3,13-29.8,24.3
			c-3.7,6.3-5.5,13.9-4.3,21.1c1,6,4.1,11.7,9.3,15c5.8,3.8,13.1,3.5,19.4,1.1c5-1.8,9.6-4.3,14.2-7c3.6-2.1,7-4.4,10.2-6.9
			c0,0,1.7-1.3,0.4-1.2c-1.4,0.2-2.9,1-4.1,1.6C380,273.6,376,275.7,372.7,278.4L372.7,278.4z"/>
	</g>
	<g>
		<path fill="#000000" d="M313.5,122c0,6.9,0,13.8,0,20.7c0,14.9,0,29.7,0,44.6c0,14.1,0,28.2,0,42.3c0,7.7-0.2,15.4-0.1,23
			c0.2,19.5,3.3,41.6,17.4,56.4c1.8,1.8,3.7,3.5,5.7,5c0.5,0.4,2.4-1.3,2.5-1.4c1.8-1.4,3.4-2.9,5-4.4c0.4-0.4,6.9-6.8,6.1-7.3
			c-17.1-12.4-21.9-34.9-23-54.8c-0.4-8.6-0.1-17.3-0.1-25.9c0-13.4,0-26.8,0-40.3c0-15.2,0-30.5,0-45.7c0-8.3,0-16.6,0-24.9
			c0-0.1,0-0.2,0-0.4c0-0.4-2.8,1.6-2.5,1.4c-1.8,1.4-3.4,2.9-5,4.4c-1.6,1.6-3.2,3.2-4.6,4.9C314.5,120.2,313.5,121.2,313.5,122
			L313.5,122z"/>
	</g>
	<g>
		<path fill="#000000" d="M239.4,62.9L239.4,62.9C239.4,62.9,239.4,62.9,239.4,62.9z"/>
		<path fill="#000000" d="M408.6,216.6c-1.1-1.9-2.6-3.6-4.4-4.9c-1.1-0.8-2.3-1-3.6-1c-2.9,0-5.8,0-8.7,0c-12.6,0-25.2,0-37.8,0
			c-15.7,0-31.3,0-47,0c-4.9,0-9.9,0-14.8,0c0,0,0-0.1,0-0.1c-6.5-2-13.4-5-17.5-10.6c-2.1-2.9-3.1-6.3-2.7-9.8
			c5.9,2.9,12.3,4.9,18.6,6.4c11,2.6,22.3,3.7,33.6,3.4c7-0.2,14-1.1,20.8-2.8c5.9-1.5,11.6-3.6,17-6.1c3.2,3.2,6.4,6.4,9.6,9.6
			c0.5,0.5,2.5-0.6,2.8-0.7c2.1-0.9,4.1-1.9,6-3c0.4-0.2,8.4-4.9,7.8-5.5c-3.4-3.4-6.8-6.8-10.1-10.1c-0.5-0.5-2.5,0.6-2.8,0.7
			c-2.1,0.9-4.1,1.9-6,3c0,0,0,0-0.1,0c-0.5,0.2-1,0.4-1.6,0.7c0,0-0.1,0-0.1,0.1c-0.2,0.1-0.4,0.1-0.6,0.2
			c-0.6,0.2-1.2,0.4-1.8,0.6c-1.2,0.4-2.5,0.8-3.7,1.1c-0.2,0.1-0.4,0.1-0.6,0.2c0,0-0.6,0.1-0.6,0.2c-0.6,0.2-1.3,0.3-1.9,0.4
			c-1.3,0.3-2.6,0.5-3.9,0.8c-2.7,0.5-5.4,0.8-8.1,1.1c-10.9,1-22,0.4-32.8-1.6c-11-2-22.5-5.3-31.8-11.8c-0.5-0.1-0.9-0.1-1.4,0.2
			c-1.1,0.4-2.1,0.8-3.2,1.3c-3.5,1.6-6.8,3.5-10,5.7c-6.3,4.3-13,11-11.4,19.3c0.4,2.2,1.3,4.1,2.5,5.8c-3.3-0.9-6.5-2.3-9.2-4.5
			c-3.7-3-5.8-7.5-6.5-12.1c-0.5-3-0.4-6.2-0.4-9.2c0-11.2,0-22.4,0-33.7c0-15.6,0-31.3,0-46.9c0-11.7,0-23.4,0-35.2
			c0-1.8,0-3.6,0-5.4c0-0.4-2.6,0.6-2.8,0.7c-2.9,1.1-5.6,2.6-8.3,4.1c-3.6,2-7.2,4.1-10.8,6.1c-1.6,0.9-3.3,1.9-4.8,3.1
			c0,0-1.7,1.3-0.5,1.2c1.4-0.2,2.9-0.9,4.1-1.5c2.1-1,4.2-2.1,6.3-3.2c0,6.3,0,12.5,0,18.8c0,14.8,0,29.5,0,44.3
			c0,14.4,0,28.8,0,43.3c0,4.5,0,9,0,13.5c0,3.2-0.1,6.5,0.5,9.7c0.8,4.6,3.1,8.8,6.8,11.8c3.5,2.8,7.8,4.1,12.1,5
			c3.1,0.6,6,0.8,9.1,0.8c7.2,0,14.4,0,21.6,0c0.1,0,0.1,0,0.2,0.1c0.3,0.1,0.7,0.1,1.2-0.1c2.7,0,5.4,0,8.1,0c15.5,0,31,0,46.5,0
			c13.5,0,27,0,40.4,0c3.3,0,6.6,0,10,0c1.2,0,2.6-0.1,3.8,0c2.2,0.6,4,2.8,5.3,4.6c0.9,1.3,2.8,3.9,2.2,5.6
			c-0.1,0.4,3.1-0.8,2.8-0.7c2.1-0.8,4.1-1.8,6.1-2.9c2-1,3.9-2.2,5.8-3.4c0.7-0.5,1.8-1.1,2.1-2
			C410.6,219.7,409.3,217.7,408.6,216.6z M369.7,184.8c0,0,0.1,0,0.1-0.1C370.8,184.3,370.2,184.6,369.7,184.8z"/>
	</g>
	<g>
		<path fill="#000000" d="M256.3,277.9C256.3,277.9,256.3,277.9,256.3,277.9C256.3,277.9,256.3,277.9,256.3,277.9z"/>
		<path fill="#000000" d="M383.3,299.2C383.3,299.2,383.3,299.2,383.3,299.2C383.3,299.2,383.3,299.2,383.3,299.2z"/>
		<path fill="#000000" d="M388.4,325.4c-1.6-4.2-3.4-8.3-5.2-12.5c-1.3-3.1-2.4-6.4-1.2-9.7c0.6-1.4,1.5-2.6,2.6-3.7c0.8-0.9-1.1-0.3-1.2-0.2
			c-1.8,0.6-3.5,1.5-5.2,2.3c-2.2,1.1-4.3,2.3-6.3,3.6c-1.2,0.8-2.5,1.6-3.5,2.7c-2.6,2.7-3.9,6-3.1,9.7c0.8,3.9,2.9,7.5,4.3,11.2
			c0.6,1.6,1.3,3.2,1.9,4.9c-2.4,0-4.7,0-7.1,0c-6.9,0-13.8,0-20.7,0c-7.9-1.9-15.3-5.1-22.2-9.6c-9.3-5.9-17.5-13.4-25.7-20.7
			c-5.3-4.7-10.5-9.5-15.8-14.2c-0.5-0.4-2.5,0.6-2.8,0.7c-2.1,0.9-4.1,1.9-6,3c-0.4,0.2-8.3,5-7.8,5.5c9.8,8.7,19.5,17.8,29.7,26.1
			c4,3.3,8.1,6.4,12.5,9.1c-6.6,0-13.2,0-19.9,0c-2,0-4-0.1-6-0.5c-4.1-0.8-8-2.4-11.3-5c-3.8-3-6.4-7.1-7.9-11.7
			c-2-6.5-1.4-13.8-1.4-20.5c0-6.3,0-12.5,0-18.8c0-0.4-2.6,0.6-2.8,0.7c-2.1,0.9-4.1,1.9-6,3c-8.3,4.7-16.6,9.4-25,14.1
			c-1.9,1.1-3.9,2.2-5.7,3.5c-0.4,0.3-2.1,1.3-2.1,2c0,14,0.8,28.5-3.7,42c-0.3,0.9-0.6,1.7-0.9,2.6c-2.6,6.4-6.5,12-11.4,16.8
			c0,0,0,0,0,0c-0.1,0.1-0.2,0.2-0.3,0.3c-0.3,0.3-0.6,0.6-0.9,0.9c-0.7,0.6-1.4,1.2-2.1,1.8c-0.3,0.3-0.7,0.6-1,0.8
			c-0.1,0.1-0.2,0.1-0.3,0.2c-0.7,0.5-1.4,1.1-2.2,1.6c-0.2,0.2-0.5,0.3-0.7,0.5c-0.1,0.1-0.2,0.1-0.2,0.2c-0.4,0.3-0.8,0.5-1.2,0.8
			c0,0-0.1,0.1-0.1,0.1c-0.7,0.4-1.3,0.8-2,1.2c-0.4,0.2-0.8,0.5-1.2,0.7c-0.3,0.2-0.7,0.4-1.1,0.6c-0.8,0.4-1.7,0.9-2.5,1.3
			c-0.9,0.5-1.9,1-2.8,1.4c-0.1,0.1-0.2,0.1-0.3,0.2c-0.4,0.2-0.7,0.4-1.1,0.5c-4.6,2.2-9.2,4.4-13.8,6.5
			c-11.2,5.2-22.3,10.3-33.4,15.6c-3.8,1.8-7.9,3.9-11.2,6.6c0,0-1.7,1.3-0.4,1.2c1.4-0.2,2.9-1,4.1-1.6c11.7-5.6,23.5-11,35.3-16.5
			c10.3-4.8,20.5-9.6,30.3-15.2c14.8-8.5,30.3-18.3,37-34.8c5.7-14.1,5-29.4,5-44.3c0,0,0,0,0-0.1c2.8-1.6,5.6-3.2,8.4-4.7
			c0,5.4,0,10.8,0,16.2c0,6.6-0.6,13.7,1,20.1c1.1,4.8,3.6,9.2,7.3,12.5c3.2,2.9,7.2,4.7,11.3,5.6c3.8,0.9,7.6,0.8,11.4,0.8
			c13.3,0,26.7,0,40,0c4.8,0,9.6,0,14.3,0c2.6,0.6,5.2,1,7.9,1.3c0.3-0.1,0.6-0.2,1-0.2c0.9-0.3,1.8-0.7,2.6-1.1
			c5.8,0,11.6,0,17.4,0c2.7,0,5.6-0.3,8.3,0.1c2.5,0.5,4.7,1.8,6.2,3.9c0.9,1.2,1.9,3.1,1.3,4.6c0.5,0.1,0.9,0.1,1.4-0.2
			c1.8-0.6,3.5-1.5,5.2-2.3c2.2-1.1,4.3-2.3,6.3-3.6c1.1-0.7,2.6-1.6,3.5-2.7C393,337.5,390.5,331,388.4,325.4z M194.5,367.5
			C194.9,367.3,194.8,367.4,194.5,367.5L194.5,367.5z M201.3,362C201.2,362.2,201.1,362.2,201.3,362L201.3,362z"/>
	</g>
	<path fill="#000000" d="M660,309.7c-15.1-16.2-36.9-22.7-58.4-23.9c-25.1-1.4-50,4.7-72.8,14.9c-23,10.3-44.1,24.7-63.8,40.3
		c-18.6,14.7-36,30.8-53.4,46.8c-3,2.7-21.4,18.4-22.7,19.6c-0.4,0.3-0.8,0.7-1,0.9c-0.6,0.6-1.3,1.1-2,1.7c-0.6,0.6-1.3,1.1-2,1.6
		c-0.3,0.3-0.6,0.5-0.9,0.7c-0.1,0.1-0.1,0.1-0.2,0.2c-2.7,2.2-5.4,4.3-8.2,6.3c-0.3,0.2-0.7,0.5-1,0.7c0,0,0,0,0,0c0,0,0,0-0.1,0
		c-0.7,0.5-1.3,0.9-2,1.4c-1.4,1-2.8,2-4.3,2.9c-2.7,1.8-5.5,3.6-8.2,5.3c-2.9,1.8-5,3-7.7,4.4c-5.4,2.9-10.8,5.6-16.4,7.9
		c-15.6,6.7-32.3,11.1-49.2,12.5c-19,1.5-38.3-0.9-55.9-8.1c-16-6.6-30.2-17.2-40.6-31c-9.9-13.1-16.1-28.6-18.7-44.7
		c-1.7-10.4-1.8-21.1-0.6-31.6c2.4-19.7,9.5-38.5,19.7-55.4c0,0,0-0.1,0.1-0.1c0,0,0.1-0.1,0.1-0.2c0.2-0.3,0.3-0.6,0.5-0.8
		c0.3-0.6,0.7-1.1,1.1-1.7c0.8-1.2,1.6-2.4,2.4-3.6c1.6-2.3,3.2-4.6,4.9-6.9c0.4-0.6,0.8-1.1,1.2-1.6c0,0,0,0,0.1-0.1
		c0.2-0.2,0.3-0.4,0.5-0.7c0.9-1.2,1.9-2.4,2.9-3.5c0.5-0.5,0.9-1.1,1.4-1.6c0.1-0.2,0.4-0.5,0.7-0.8c0.9-1.1,1.9-2.1,2.8-3.1
		c0.3-0.3,0.5-0.6,0.8-0.9c0.3-0.3,0.7-0.7,0.9-0.9c0.5-0.5,1-1.1,1.6-1.6c0.1-0.1,0.3-0.3,0.4-0.4c1-0.9,1.9-1.9,2.9-2.8
		c0.1-0.1,0.3-0.2,0.4-0.4c0.7-0.6,1.3-1.2,2-1.8c0.2-0.2,0.5-0.5,0.8-0.7c0.4-0.4,0.9-0.8,1.3-1.1c1.3-1.1,2.5-2.2,3.8-3.2
		c0.3-0.2,0.5-0.4,0.8-0.7c0.6-0.5,1.3-1,1.9-1.5c0.5-0.4,1.1-0.8,1.6-1.2c-2.8,3.5-5.3,7.2-7.2,11.2c-1.8,3.7-2.8,7.9-2.6,12
		c0.2,6.2,3.6,11.2,5.7,16.8c0.7,1.8,1.1,3.7,1,5.7c-0.1,0.5-0.2,0.9-0.3,1.3c-0.2,0.4-0.1,0.6,0.4,0.4c1.3-0.5,2.5-1.7,3.6-2.6
		c4.9-4.2,9.7-8.7,13.7-13.8c2.1-2.7,4.1-5.5,5.4-8.7c1.9-4.5,2.5-9.5,2-14.4c-0.3-3.2-1-6.4-2-9.4c1.6,0,3.2,0,4.8-0.1
		c1.8,6.4,3.2,12.8,4.9,19.3c1.4,5.2,2.9,10.6,5.6,15.3c2.1,3.6,5.1,6.4,9.4,6.9c2.7,0.4,5.5,0.1,8.2,0.1c1.8,0,3.6,0,5.4,0
		c1.1,0,2.3,0,3.4,0.1c2,0.5,2.2,2.1,1.6,3.8c0,0,0,0.1,0,0.1c-0.4,0.9,0.7,0.4,1.2,0.2c1.8-0.6,3.5-1.5,5.2-2.3
		c2.2-1.1,4.3-2.3,6.3-3.6c1.2-0.8,2.5-1.6,3.5-2.7c2.6-2.7,1.5-7.3,0.7-10.5c-1.5-6-3.8-11.7-5.6-17.6c-0.3-0.9-8.3,3.4-8.8,3.7
		c-2,1.1-3.9,2.2-5.7,3.5c-0.2,0.1-2.2,1.4-2.1,2c1.4,4.7,3.1,9.2,4.5,13.9c-0.8,0-1.7,0-2.5-0.2c-6.5-1.4-9.4-8.6-11.4-14.2
		c-3.1-8.8-4.8-18.1-7.3-27.1c-0.1,0-0.3-0.1-0.4-0.1c-7.7,0.1-15.4,0.2-23,0.3c-0.3,0-0.6,0.1-0.9,0.1c-0.3-0.9-0.5-1.8-0.6-2.8
		c-0.1-0.4-0.1-0.8,0-1.1c0-0.1,0-0.2,0.1-0.2c0.1-0.2,0.2-0.3,0.3-0.5c0.1-0.2,0.2-0.3,0.3-0.5c0.5-1.1-1.3,0.1-1.2,0.1
		c-0.8,0.5-1.5,1.1-2.2,1.6c-12.3,9-23.8,19.1-34.5,30c-9.3,9.4-17.9,19.6-25.3,30.6c-11.4,17-19.9,36-23.5,56.2
		c-3,17.3-2.5,35.2,2.4,52.1c4.5,15.6,12.8,30.1,24.4,41.6c12.6,12.5,28.6,21.2,45.7,25.7c19.2,5.1,39.6,5,59.1,1.2
		c23.5-4.6,45.7-14.7,65.7-27.8c15.1-9.9,28.9-21.5,41.9-33.9c1.6-1.5,33.4-31.7,47.8-44.2c18.9-16.3,38.7-31.8,60.4-44.3
		c21.7-12.5,45.5-21.9,70.5-24.8c23.1-2.6,48.4-0.2,68.3,12.6c15,9.6,25.5,25,29.2,42.4c3.2,14.9,1.5,31.6-6.6,44.7
		c-0.8,1.3-1.7,2.6-2.7,3.8c-0.5,0.6-1,1.3-1.4,1.7c-0.1,0.1-0.2,0.2-0.3,0.3c0,0-0.3,0.3-0.3,0.3c0,0-0.2,0.2-0.3,0.3
		c-0.1,0.1-0.2,0.2-0.3,0.3c-0.1,0.1-1.8,1.7-1.6,1.9c0.2,0.2,1.9-1.4,2-1.6c5.5-5.3,9.8-11.6,12.6-18.7c2.8-7.1,4-14.8,4-22.4
		C678,338.7,671.5,322,660,309.7z M231.4,248.2c0.1-0.4,0.1-0.8,0.2-1.2c0.2,0.7,0.5,1.4,0.7,2.1c1.8,5.3,3.3,10.7,3.4,16.2
		c-0.3-0.6-0.5-1.1-0.8-1.6C232.6,258.7,230.8,253.7,231.4,248.2z M200.2,268.1C200.4,267.9,200.6,267.6,200.2,268.1L200.2,268.1z"
		/>
	<path fill="#000000" d="M505.1,320.6c-8.9-5.5-19.5-7.3-29.8-7.2c-11.3,0-22.4,2.6-32.9,6.7c-14.4,5.7-27.5,14.2-39.8,23.7
		c-5.8,4.5-43.9,37.3-44.6,37.9c-0.3,0.3-0.6,0.5-0.9,0.7c-0.1,0.1-0.1,0.1-0.2,0.2c-2.7,2.2-5.4,4.3-8.2,6.3
		c-0.3,0.2-0.7,0.5-1,0.7c0,0,0,0,0,0c0,0,0,0-0.1,0c-0.7,0.5-1.3,0.9-2,1.4c-1.4,1-2.8,2-4.3,2.9c-2.7,1.8-5.5,3.6-8.2,5.3
		c-2.9,1.8-5,3-7.7,4.4c-5.4,2.9-10.8,5.6-16.4,7.9c-15.6,6.7-32.3,11.1-49.2,12.5c-19,1.5-38.3-0.9-55.9-8.1
		c-16-6.6-30.2-17.2-40.6-31c-9.9-13.1-16.1-28.6-18.7-44.7c-1.7-10.4-1.8-21.1-0.6-31.6c2.4-19.7,9.5-38.5,19.7-55.4
		c0,0,0-0.1,0.1-0.1c0,0,0.1-0.1,0.1-0.2c0.2-0.3,0.3-0.6,0.5-0.8c0.3-0.6,0.7-1.1,1.1-1.7c0.8-1.2,1.6-2.4,2.4-3.6
		c1.6-2.3,3.2-4.6,4.9-6.9c0.4-0.6,0.8-1.1,1.3-1.6c0,0,0-0.1,0.1-0.1c0.2-0.2,0.3-0.4,0.5-0.6c0.9-1.2,1.9-2.4,2.9-3.5
		c0.5-0.5,0.9-1.1,1.4-1.6c0.1-0.2,0.4-0.5,0.7-0.8c0.9-1.1,1.9-2.1,2.8-3.1c0.3-0.3,0.5-0.6,0.8-0.9c0.3-0.3,0.7-0.7,0.9-0.9
		c0.5-0.5,1-1.1,1.6-1.6c0.1-0.1,0.3-0.3,0.4-0.4c1-0.9,1.9-1.9,2.9-2.8c0.1-0.1,0.3-0.2,0.4-0.4c0.7-0.6,1.3-1.2,2-1.8
		c0.2-0.2,0.5-0.5,0.8-0.7c0.4-0.4,0.9-0.8,1.3-1.1c1.3-1.1,2.5-2.2,3.8-3.2c0.3-0.2,0.5-0.4,0.8-0.7c0.6-0.5,1.3-1,1.9-1.5
		c0.5-0.4,1.1-0.8,1.6-1.2c-2.8,3.5-5.3,7.2-7.2,11.2c-1.8,3.7-2.8,7.9-2.6,12c0.2,6.2,3.6,11.2,5.7,16.8c0.7,1.8,1.1,3.7,1,5.7
		c-0.1,0.5-0.2,0.9-0.3,1.3c-0.2,0.4-0.1,0.6,0.4,0.4c1.3-0.5,2.5-1.7,3.6-2.6c4.9-4.2,9.7-8.7,13.7-13.8c2.1-2.7,4.1-5.5,5.4-8.7
		c1.9-4.5,2.5-9.5,2-14.4c-0.4-4.2-1.6-8.4-2.9-12.4c-1-2.9-2.3-5.8-2.7-8.8c-0.1-0.4-0.1-0.8,0-1.1c0-0.1,0-0.2,0.1-0.2
		c0.1-0.2,0.2-0.3,0.3-0.5c0.1-0.2,0.2-0.3,0.3-0.5c0.5-1.1-1.3,0.1-1.2,0.1c-0.8,0.5-1.5,1.1-2.2,1.6c-12.3,9-23.8,19.1-34.5,30
		c-9.3,9.4-17.9,19.6-25.3,30.6c-11.4,17-19.9,36-23.5,56.2c-3,17.3-2.5,35.2,2.4,52.1c4.5,15.6,12.8,30.1,24.4,41.6
		c12.6,12.5,28.6,21.2,45.7,25.7c19.2,5.1,39.6,5,59.1,1.2c23.5-4.6,45.7-14.7,65.7-27.8c15.1-9.9,28.9-21.5,41.9-33.9
		c1.6-1.5,25.1-23.5,36-31.4c18.3-13.3,39.6-24.2,62.6-25c10.5-0.4,21.3,1.1,30.6,6.2c7.2,4,13,10.2,16.6,17.6
		c3.2,6.5,4.6,14,3.9,21.2c-0.3,3.3-1.1,6.5-2.4,9.5c-0.6,1.4-1.3,2.7-2.1,3.9c-0.4,0.6-0.7,1-1.1,1.5c0,0,0,0-0.1,0.1
		c0,0-0.1,0.1-0.1,0.1c-7.7,6.5-18.6,8.1-27.8,4.4c-3.5-1.4-7-3.7-9.8-6.5c0.2-0.5,0.4-1.1,0.5-1.6c0.4-1.9,0.3-3.8-0.1-5.7
		c-0.3-1.5-0.9-3.1-2.2-4c-1.4-1-3,0.2-4.1,1.1c-0.7,0.6-1.3,1.2-1.9,1.8c-0.3,0.3-1.4,1.2-1.3,1.7c0.2,1,0.4,2,0.8,2.9
		c0.7,2,1.9,3.9,3.2,5.6c0.5,0.6,1,1.1,1.5,1.7c-0.1,0.2-0.2,0.4-0.2,0.5c-0.2,0.3-0.8,1.1-0.1,0.3c-0.1,0.1-1.3,1.6-1,1.5
		c0.7-0.3,1.4-1,2-1.6c2.8,2.7,6.1,4.8,9.7,6.2c5.1,2,10.7,2.3,16,1.1c5.8-1.4,11.1-4.8,15.4-8.9c5-4.8,7.9-10.8,8.8-17.6
		C525.8,344.4,518.2,328.8,505.1,320.6z M209,233.8c-2.3-4.9-4.1-9.9-3.6-15.4c0.1-0.4,0.1-0.8,0.2-1.2c0.2,0.7,0.5,1.4,0.7,2.1
		c1.8,5.3,3.3,10.7,3.4,16.2C209.6,234.9,209.3,234.3,209,233.8z M174.3,238.3C174.5,238,174.7,237.8,174.3,238.3L174.3,238.3z
		 M473.6,370.6c-0.5-0.9-1-1.9-1.4-2.9C473,368.5,473.4,369.7,473.6,370.6z M514.6,377.1L514.6,377.1L514.6,377.1
		C514.6,377.1,514.6,377.1,514.6,377.1z"/>
	<path fill="#000000" d="M369.9,147c-2.1-2.8-5.5-4.5-8.4-6.2c-5-2.9-10-5.8-14.8-9.1c-0.7-0.5-1.3-1.1-2.1-1.1c-0.4,0-0.7,0-1.1,0
		c-1.4,0-2.8,0-4.3,0c-5.2,0-10.3,0-15.5,0c-15.1,0-30.3,0-45.4,0c-10.7,0-21.4,0-32,0c2.8-1.2,5.6-2.5,8.4-3.8
		c13.4-6.4,26.1-14.2,37.8-23.3c11.6-9,22.1-19.3,31.6-30.6c0.3-0.1,0.5-0.2,0.4-0.1c2.1-0.8,4.1-1.8,6.1-2.9c2-1,3.9-2.2,5.8-3.4
		c0.7-0.5,1.7-1.1,2.1-2c4.4-10.5,8.8-21,13.2-31.5c0.1-0.2,0.2-0.4,0.3-0.6c-0.5-0.2-0.9-0.1-1.4,0.1c-1.8,0.6-3.5,1.4-5.2,2.2
		c-2.2,1.1-4.3,2.2-6.4,3.5c-0.9,0.6-3,1.6-3.6,2.6c-10.5,19.1-23.6,36.9-38.9,52.5c-2.1,2.1-4.2,4.2-6.3,6.2
		c-0.3,0.2-0.5,0.5-0.8,0.7c-0.1,0.1-0.1,0.1-0.2,0.2c0,0-0.1,0.1-0.2,0.1c-0.5,0.5-1,1-1.6,1.4c-1.1,1-2.3,2-3.5,3
		c-2.3,1.9-4.6,3.8-6.9,5.6c-1.1,0.9-2.2,1.7-3.4,2.6c-0.3,0.2-0.6,0.4-0.8,0.6c-0.7,0.5-1.4,1-2,1.4c-1.1,0.8-2.3,1.6-3.4,2.3
		c-0.2,0.1-0.4,0.2-0.6,0.4c-0.7,0.4-1.4,0.9-2.1,1.3c-0.2,0.1-0.3,0.2-0.5,0.3c-0.5,0.3-1,0.6-1.6,0.9c-0.1,0.1-0.2,0.1-0.4,0.2
		c-0.6,0.3-1.1,0.6-1.7,0.9c0,0-0.1,0-0.1,0.1c-0.6,0.3-1.1,0.5-1.7,0.8c-0.1,0.1-0.3,0.1-0.4,0.2c-0.7,0.3-1.5,0.7-2.2,1
		c-0.2,0.1-0.4,0.2-0.6,0.2c-0.7,0.3-1.3,0.5-2,0.8s-1.3,0.5-2,0.8c-0.1,0-0.2,0.1-0.3,0.1c-0.2,0.1-0.8,0.3-1,0.3
		c-6.5,2.3-11.8,3.6-18.4,4.7c-1.4,0.2-2.8,0.9-4.1,1.5c-2.2,1-4.4,2.1-6.5,3.3c-1.6,0.9-3.3,1.9-4.8,3.1c-0.2,0.1-1.6,1.2-0.5,1.2
		c7.3,0,14.7,0,22,0c15.2,0,30.4,0,45.6,0c12.8,0,25.6,0,38.4,0c2.2,0,4.4,0,6.6,0c3.8,2.6,7.7,5.1,11.7,7.4c3,1.7,6,3.4,8.8,5.3
		c1.8,1.2,3.6,2.6,4.6,4.5c0.9,1.7,0.7,3.7,0,5.4c-0.1,0.1-0.1,0.3-0.2,0.4c-0.3,0-0.6,0-0.8,0c-4.2,0-8.5,0-12.7,0
		c-14.3,0-28.5,0-42.8,0c-14.8,0-29.6,0-44.3,0c-4.9,0-9.8,0-14.6,0c-2.1,0-4.2,0.1-6.3-0.1c-1.6-0.2-3.3-0.4-4.9-0.7
		c-4.2-0.9-8.3-2.4-11.6-5.1c-3.7-3-5.8-7.5-6.5-12.1c-0.2-1.1-0.3-2.3-0.4-3.5c0-1.7,0-3.3,0-5c0-1.5,0-3,0-4.5c0,0,0,0,0,0
		c0-14.5,0-29,0-43.5c0-3.1,0-6.1,0-9.2c0-0.5-3,0.7-2.8,0.7c-2.1,0.8-4.1,1.8-6.1,2.9c-2,1-3.9,2.2-5.8,3.4c-0.4,0.3-2.1,1.2-2.1,2
		c0,8.9,0,17.7,0,26.6c0,9.1,0,18.1,0,27.2c0,2.4-0.1,4.9,0,7.3c0,3.6,0,7.1,0,10.7c0,12,0.5,24-2.7,35.7c-0.7,2.6-1.4,5.2-2.6,7.5
		c-11.6,22.9-27,25.1-38.9,18.7c-5.1-2.8-8.1-8.3-8.6-14.1c-0.5-5.9,1.9-11.6,5.8-15.9c1.1-1.3,2.4-2.4,3.8-3.4
		c0.6-0.5,1.2-0.8,1.8-1.2c0,0,0.5-0.3,0.4-0.3c0,0,0.1,0,0.1-0.1c0,0,0.1-0.1,0.2-0.1c0.2-0.1,0.4-0.2,0.8-0.4
		c2.9-1.4,6.2-2.6,9.4-3.4c-1.1,1.6-0.9,3.8,1.6,3.8c4,0,6.4-5.6,6.6-6.3c0,0,0.1-0.1,0-0.1c-14.7,2-35.3,11-34.9,28.7
		c0.1,5.8,2.8,11.6,7.8,14.5c12.6,7.6,31-0.1,33-1.1c6.7-3.4,13.2-7.6,18.4-13.1c3.6-3.8,6.4-8.3,8.6-13.1c3.7-8.1,5.6-17,6-26
		c1.4,0.4,2.8,0.6,4.1,0.9c2.9,0.5,5.6,0.6,8.5,0.6c11.2,0,22.5,0,33.7,0c15.6,0,31.2,0,46.9,0c11.3,0,22.7,0,34,0
		c2,0,4.1-0.2,6,0.1c1.6,0.4,2.9,1.5,2.1,3.3c0.5,0.2,0.9,0.1,1.4-0.1c1.8-0.6,3.5-1.4,5.2-2.2c2.2-1.1,4.3-2.2,6.4-3.5
		c1.2-0.8,2.6-1.5,3.6-2.6c3.5-3.7,7.3-7.6,9.5-12.2C371.3,152,371.7,149.4,369.9,147z M255.9,123.7
		C255.5,123.9,254.8,124.1,255.9,123.7L255.9,123.7z"/>
</g>
<path fill="#000000" d="M273.602,481.306c-0.578-0.576-1.301-1.03-2.174-1.362c-0.873-0.331-1.885-0.497-3.039-0.497
	c-0.663,0-1.463,0.079-2.4,0.238v-6.077h-1.535v17.711c0.706,0.202,1.402,0.354,2.087,0.454s1.301,0.151,1.849,0.151
	c1.153,0,2.166-0.162,3.039-0.486s1.596-0.764,2.174-1.319c0.576-0.555,1.006-1.211,1.287-1.968s0.42-1.561,0.42-2.411
	s-0.139-1.657-0.42-2.422C274.608,482.554,274.178,481.883,273.602,481.306z M272.391,489.167c-0.852,0.829-2.17,1.243-3.958,1.243
	c-0.39,0-0.805-0.032-1.244-0.097c-0.439-0.065-0.84-0.134-1.2-0.206v-8.845c0.447-0.115,0.887-0.194,1.319-0.237
	c0.433-0.044,0.808-0.065,1.125-0.065c0.894,0,1.668,0.112,2.325,0.335c0.656,0.224,1.199,0.545,1.633,0.963
	c0.432,0.418,0.752,0.919,0.961,1.503s0.314,1.243,0.314,1.979C273.667,487.195,273.241,488.338,272.391,489.167z M247.392,479.446
	c-0.62,0-1.297,0.079-2.033,0.238c-0.735,0.158-1.485,0.433-2.249,0.821l-0.065,1.73c0.548-0.303,0.973-0.52,1.276-0.649
	s0.624-0.237,0.962-0.324c0.338-0.086,0.677-0.158,1.016-0.216s0.667-0.087,0.984-0.087c1.139,0,1.982,0.249,2.53,0.746
	s0.822,1.33,0.822,2.498v0.13c-0.332-0.044-0.732-0.087-1.2-0.13c-0.469-0.043-0.876-0.065-1.222-0.065
	c-1.831,0-3.302,0.311-4.412,0.931c-1.11,0.619-1.665,1.644-1.665,3.07c0,0.707,0.155,1.305,0.465,1.795
	c0.31,0.49,0.713,0.88,1.211,1.168s1.067,0.497,1.708,0.627c0.641,0.13,1.308,0.194,2,0.194c0.807,0,1.6-0.072,2.378-0.216
	c0.779-0.145,1.536-0.368,2.271-0.671v-7.028c0-1.585-0.397-2.742-1.189-3.471C250.189,479.811,248.992,479.446,247.392,479.446z
	 M250.636,489.892c-0.375,0.144-0.858,0.267-1.449,0.367c-0.591,0.102-1.183,0.151-1.773,0.151c-0.505,0-0.984-0.035-1.438-0.108
	c-0.454-0.071-0.84-0.197-1.157-0.378c-0.317-0.18-0.57-0.414-0.757-0.703c-0.188-0.288-0.281-0.663-0.281-1.124
	c0-0.52,0.111-0.934,0.335-1.244c0.224-0.31,0.533-0.551,0.93-0.724c0.396-0.174,0.85-0.296,1.362-0.368
	c0.511-0.072,1.041-0.108,1.589-0.108c0.476,0,0.984,0.029,1.524,0.087c0.541,0.058,0.912,0.108,1.114,0.151V489.892z
	 M258.032,479.868c-0.649,0.122-1.276,0.263-1.881,0.422v11.418h1.535v-10.186c0.202-0.072,0.563-0.147,1.082-0.228
	c0.519-0.079,1.002-0.118,1.449-0.118h1.989v-1.492H260C259.336,479.685,258.681,479.746,258.032,479.868z M-77.92,487.667
	l241.145,0.656l0.663-0.433l-0.632-0.564L-77.92,487.667z M164.994,487.825l1.95,1.95l1.95-1.95l-1.95-1.95L164.994,487.825z
	 M169.559,487.825l3.057,3.057l3.057-3.057l-3.057-3.057L169.559,487.825z M212.359,489.286l-3.395-9.602h-1.514l-3.396,9.602
	l-2.984-9.602h-1.73l3.979,12.023h1.428l3.46-9.645l3.46,9.645h1.427l3.979-12.023h-1.73L212.359,489.286z M238.418,489.589
	c-0.317,0-0.591,0.115-0.822,0.346c-0.231,0.23-0.346,0.505-0.346,0.822c0,0.316,0.115,0.591,0.346,0.821
	c0.23,0.23,0.504,0.346,0.822,0.346c0.317,0,0.591-0.115,0.822-0.346c0.23-0.23,0.346-0.505,0.346-0.821
	c0-0.317-0.116-0.592-0.346-0.822C239.009,489.704,238.735,489.589,238.418,489.589z M193.243,489.286l-3.395-9.602h-1.514
	l-3.396,9.602l-2.984-9.602h-1.73l3.979,12.023h1.428l3.46-9.645l3.46,9.645h1.427l3.979-12.023h-1.73L193.243,489.286z
	 M231.476,489.286l-3.395-9.602h-1.514l-3.396,9.602l-2.984-9.602h-1.73l3.979,12.023h1.428l3.46-9.645l3.46,9.645h1.427
	l3.979-12.023h-1.73L231.476,489.286z M382.732,480.474c-0.426-0.396-0.938-0.667-1.535-0.812c-0.598-0.144-1.271-0.216-2.021-0.216
	c-0.664,0-1.393,0.09-2.184,0.271c-0.793,0.181-1.471,0.4-2.033,0.659c-0.346-0.331-0.818-0.569-1.416-0.714
	c-0.6-0.144-1.273-0.216-2.023-0.216c-0.635,0-1.268,0.058-1.902,0.173l-2.465,0.454v11.635h1.535v-10.38
	c0.447-0.102,0.883-0.188,1.309-0.26c0.424-0.072,0.896-0.108,1.416-0.108c0.605,0,1.125,0.058,1.557,0.173
	c0.434,0.116,0.789,0.321,1.07,0.616c0.281,0.296,0.494,0.711,0.639,1.244s0.217,1.24,0.217,2.119v6.596h1.535v-7.201
	c0-0.663-0.055-1.243-0.162-1.741c-0.109-0.497-0.213-0.861-0.314-1.092c0.086-0.043,0.281-0.119,0.584-0.228
	c0.303-0.107,0.602-0.197,0.898-0.27c0.295-0.072,0.586-0.126,0.875-0.162s0.547-0.055,0.779-0.055c0.59,0,1.102,0.058,1.535,0.173
	c0.432,0.116,0.781,0.317,1.049,0.605c0.266,0.289,0.471,0.703,0.615,1.244c0.145,0.54,0.217,1.251,0.217,2.13v6.596h1.535v-7.201
	c0-0.995-0.111-1.816-0.336-2.466C383.482,481.393,383.158,480.87,382.732,480.474z M280.1,474.581
	c-0.785,0.648-1.18,1.729-1.18,3.243v1.86h-2.551v1.492h2.551v10.531h1.537v-10.531h4.973v-1.492h-4.973v-1.471
	c0-0.635,0.045-1.149,0.141-1.546c0.094-0.396,0.24-0.707,0.443-0.931c0.201-0.223,0.475-0.385,0.82-0.486
	c0.346-0.101,0.779-0.151,1.299-0.151h2.422v-1.492h-2.271C281.956,473.607,280.885,473.932,280.1,474.581z M398.273,487.825
	l3.057,3.057l3.057-3.057l-3.057-3.057L398.273,487.825z M343.322,482.322c0.389-0.418,0.854-0.749,1.395-0.994
	s1.135-0.368,1.783-0.368c0.736,0,1.373,0.076,1.914,0.228s1.121,0.414,1.74,0.789l0.715-1.405c-0.707-0.39-1.393-0.674-2.055-0.854
	c-0.664-0.181-1.436-0.271-2.314-0.271c-0.85,0-1.639,0.155-2.367,0.465c-0.729,0.311-1.367,0.746-1.914,1.309
	c-0.549,0.563-0.98,1.222-1.297,1.979c-0.317,0.757-0.476,1.59-0.476,2.498s0.158,1.74,0.476,2.497
	c0.316,0.757,0.748,1.413,1.297,1.969c0.547,0.555,1.186,0.987,1.914,1.297c0.729,0.311,1.518,0.465,2.367,0.465
	c0.879,0,1.65-0.09,2.314-0.27c0.662-0.181,1.348-0.466,2.055-0.854l-0.715-1.406c-0.619,0.375-1.199,0.639-1.74,0.79
	s-1.178,0.227-1.914,0.227c-0.648,0-1.242-0.119-1.783-0.356c-0.541-0.238-1.006-0.565-1.395-0.984
	c-0.391-0.418-0.693-0.915-0.908-1.492c-0.217-0.576-0.324-1.203-0.324-1.881s0.107-1.305,0.324-1.882
	C342.628,483.238,342.931,482.741,343.322,482.322z M404.387,487.825l1.949,1.95l1.951-1.95l-1.951-1.95L404.387,487.825z
	 M410.701,487.326l-0.664,0.433l0.633,0.564l241.176-0.341L410.701,487.326z M362.611,481.295c-0.549-0.569-1.193-1.02-1.936-1.352
	c-0.742-0.331-1.547-0.497-2.412-0.497c-0.863,0-1.668,0.166-2.41,0.497c-0.742,0.332-1.389,0.782-1.936,1.352
	c-0.549,0.57-0.977,1.229-1.287,1.979c-0.311,0.749-0.465,1.557-0.465,2.422s0.154,1.672,0.465,2.422s0.738,1.409,1.287,1.979
	c0.547,0.569,1.193,1.017,1.936,1.341s1.547,0.486,2.41,0.486c0.865,0,1.67-0.162,2.412-0.486s1.387-0.771,1.936-1.341
	c0.547-0.569,0.977-1.229,1.287-1.979c0.309-0.75,0.465-1.557,0.465-2.422s-0.156-1.673-0.465-2.422
	C363.587,482.524,363.158,481.865,362.611,481.295z M362.394,487.523c-0.217,0.569-0.52,1.067-0.908,1.492
	c-0.389,0.426-0.857,0.765-1.406,1.017c-0.547,0.252-1.152,0.378-1.816,0.378c-0.662,0-1.268-0.126-1.816-0.378
	c-0.547-0.252-1.016-0.591-1.404-1.017c-0.391-0.425-0.693-0.923-0.908-1.492c-0.217-0.569-0.324-1.179-0.324-1.827
	c0-0.649,0.107-1.262,0.324-1.839c0.215-0.576,0.518-1.077,0.908-1.503c0.389-0.425,0.857-0.764,1.404-1.016
	c0.549-0.252,1.154-0.379,1.816-0.379c0.664,0,1.27,0.127,1.816,0.379c0.549,0.252,1.018,0.591,1.406,1.016
	c0.389,0.426,0.691,0.927,0.908,1.503c0.217,0.577,0.324,1.189,0.324,1.839C362.718,486.345,362.611,486.954,362.394,487.523z
	 M296.221,481.295c-0.547-0.569-1.191-1.02-1.936-1.352c-0.742-0.331-1.545-0.497-2.41-0.497s-1.67,0.166-2.412,0.497
	c-0.742,0.332-1.387,0.782-1.936,1.352c-0.547,0.57-0.977,1.229-1.285,1.979c-0.311,0.749-0.465,1.557-0.465,2.422
	s0.154,1.672,0.465,2.422c0.309,0.75,0.738,1.409,1.285,1.979c0.549,0.569,1.193,1.017,1.936,1.341s1.547,0.486,2.412,0.486
	s1.668-0.162,2.41-0.486c0.744-0.324,1.389-0.771,1.936-1.341c0.549-0.569,0.977-1.229,1.287-1.979s0.465-1.557,0.465-2.422
	s-0.154-1.673-0.465-2.422C297.198,482.524,296.77,481.865,296.221,481.295z M296.006,487.523c-0.217,0.569-0.52,1.067-0.908,1.492
	c-0.391,0.426-0.859,0.765-1.406,1.017c-0.549,0.252-1.154,0.378-1.816,0.378c-0.664,0-1.27-0.126-1.816-0.378
	c-0.549-0.252-1.018-0.591-1.406-1.017c-0.389-0.425-0.691-0.923-0.908-1.492s-0.324-1.179-0.324-1.827
	c0-0.649,0.107-1.262,0.324-1.839c0.217-0.576,0.52-1.077,0.908-1.503c0.389-0.425,0.857-0.764,1.406-1.016
	c0.547-0.252,1.152-0.379,1.816-0.379c0.662,0,1.268,0.127,1.816,0.379c0.547,0.252,1.016,0.591,1.406,1.016
	c0.389,0.426,0.691,0.927,0.908,1.503c0.215,0.577,0.324,1.189,0.324,1.839C296.331,486.345,296.221,486.954,296.006,487.523z
	 M309.381,480.463c-0.455-0.39-0.996-0.656-1.623-0.801c-0.627-0.144-1.309-0.216-2.043-0.216c-0.707,0-1.465,0.047-2.271,0.141
	s-1.701,0.234-2.682,0.422v11.699h1.535v-10.402c1.184-0.23,2.293-0.346,3.33-0.346c0.592,0,1.111,0.062,1.559,0.184
	c0.445,0.123,0.818,0.332,1.113,0.628c0.295,0.295,0.525,0.713,0.691,1.254s0.25,1.251,0.25,2.13v6.553h1.535v-7.201
	c0-0.995-0.119-1.82-0.357-2.477C310.18,481.375,309.834,480.852,309.381,480.463z M318.516,490.054
	c-0.346-0.108-0.619-0.277-0.82-0.509c-0.203-0.23-0.35-0.547-0.443-0.951c-0.096-0.403-0.141-0.922-0.141-1.557v-5.86h4.973v-1.492
	h-4.973v-4.347h-1.537v4.347h-2.551v1.492h2.551v6.466c0,0.764,0.109,1.405,0.326,1.925c0.215,0.519,0.525,0.937,0.93,1.254
	c0.402,0.317,0.867,0.544,1.395,0.682c0.525,0.137,1.105,0.205,1.74,0.205h2.271v-1.492h-2.422
	C319.295,490.216,318.862,490.162,318.516,490.054z M337.784,489.589c-0.316,0-0.59,0.115-0.82,0.346s-0.346,0.505-0.346,0.822
	c0,0.316,0.115,0.591,0.346,0.821s0.504,0.346,0.82,0.346c0.318,0,0.592-0.115,0.822-0.346s0.346-0.505,0.346-0.821
	c0-0.317-0.115-0.592-0.346-0.822S338.102,489.589,337.784,489.589z M333.178,486.106c-0.346-0.303-0.785-0.565-1.318-0.789
	c-0.533-0.223-1.182-0.422-1.947-0.595l-0.799-0.173c-1.053-0.216-1.781-0.461-2.184-0.735c-0.404-0.273-0.607-0.678-0.607-1.211
	c0-0.504,0.238-0.904,0.715-1.2c0.475-0.295,1.174-0.443,2.098-0.443c0.793,0,1.477,0.076,2.055,0.228
	c0.576,0.151,1.217,0.421,1.924,0.811l0.691-1.405c-1.412-0.765-2.969-1.146-4.67-1.146c-0.635,0-1.223,0.076-1.764,0.228
	c-0.539,0.151-1.008,0.364-1.404,0.638s-0.711,0.605-0.941,0.994c-0.23,0.39-0.346,0.815-0.346,1.276
	c0,0.462,0.072,0.88,0.217,1.254c0.143,0.375,0.381,0.707,0.713,0.995s0.758,0.537,1.275,0.746c0.52,0.209,1.146,0.4,1.883,0.573
	l0.908,0.194c1.008,0.217,1.729,0.49,2.162,0.822c0.432,0.331,0.648,0.771,0.648,1.318c0,0.39-0.086,0.707-0.26,0.952
	c-0.172,0.245-0.414,0.436-0.725,0.573c-0.311,0.137-0.678,0.237-1.102,0.303c-0.426,0.064-0.877,0.097-1.352,0.097
	c-0.592,0-1.223-0.09-1.893-0.271c-0.67-0.18-1.352-0.479-2.045-0.897l-0.734,1.471c0.779,0.433,1.539,0.742,2.281,0.93
	s1.539,0.281,2.391,0.281c0.748,0,1.434-0.072,2.053-0.216c0.621-0.145,1.158-0.36,1.611-0.648c0.455-0.289,0.805-0.649,1.049-1.082
	c0.246-0.433,0.369-0.93,0.369-1.492c0-0.476-0.072-0.915-0.217-1.318C333.77,486.763,333.526,486.41,333.178,486.106z"/>
</svg>

