<?xml version="1.0" encoding="utf-8"?>
<!-- Generator: Adobe Illustrator 21.0.0, SVG Export Plug-In . SVG Version: 6.00 Build 0)  -->
<svg version="1.1" id="Layer_1" xmlns="http://www.w3.org/2000/svg" xmlns:xlink="http://www.w3.org/1999/xlink" x="0px" y="0px"
	 viewBox="0 0 800 500" style="enable-background:new 0 0 800 500;" xml:space="preserve">
<g>
	<g>
		<polygon points="650.8,106.4 665.4,121 680.5,106 665.4,90.9 650.8,105.5 636.3,90.9 621.2,106 636.3,121 		"/>
		<polygon points="579,121 593.6,135.6 608.7,120.6 593.6,105.5 579,120.1 564.4,105.5 549.4,120.6 564.4,135.6 		"/>
		<rect x="459.4" y="254.3" transform="matrix(0.7071 -0.7071 0.7071 0.7071 -51.5378 414.4385)" width="30.3" height="30.3"/>
		<path fill="#000000" d="M211.7,202.4l-42.8-53.8h-36.3c-7.1,0-13,5.8-13,13v66.2c0,7.1,5.8,13,13,13h163.9v-17h-84.8V202.4z M194.7,223.8h-58.2
			v-58.2h24.2l34.1,42.7V223.8z"/>
		<path fill="#000000" d="M281.9,196.6h-38.4v-79.8h-17v84.6c0,6.7,5.4,12.1,12.1,12.1h48c6.7,0,12.1-5.4,12.1-12.1V79h-16.9V196.6z"/>
		<path fill="#000000" d="M656.6,223.8h-37V162c0-7.5-6.1-13.6-13.6-13.6h-65c-7.5,0-13.6,6.1-13.6,13.6v61.8h-18.9V123h-17v100.8h-32.1V68h-17
			v155.6h-18c-14.2,0-27.6-5.6-37.8-15.7c-10.1-10.1-15.7-23.6-15.7-37.8v-21.2h-17v21.2c0,38.8,31.6,70.4,70.4,70.4h21.2
			c0.9,0,1.7-0.1,2.5-0.2v0.4h213.4v-1.4h11.9V123.7h-17V223.8z M602.7,223.6h-58.2v-58.2h58.2V223.6z"/>
		<rect x="316.6" y="123.2" width="17" height="141.2"/>
		<path fill="#000000" d="M489,109.8c0.6,0,1.2-0.2,1.7-0.4l15.1-0.2c0.5,0.2,1.1,0.4,1.8,0.3c0.6,0,1.2-0.2,1.7-0.4l15.1-0.2
			c0.5,0.2,1.1,0.4,1.7,0.4c2,0,3.6-1.3,3.6-2.8l-0.3-26.7h-7.1l0.2,23.6l-11.4,0.1l-0.2-23.7h-7.2l0.2,23.8l-11.4,0.1l-0.2-23.9
			h-7.2l0.3,27.1C485.4,108.6,487,109.8,489,109.8"/>
		<path fill="#000000" d="M205.8,109.8c0.6,0,1.2-0.2,1.7-0.4l15.1-0.2c0.5,0.2,1.1,0.4,1.7,0.3c0.6,0,1.2-0.2,1.7-0.4l15.1-0.2
			c0.5,0.2,1.1,0.4,1.8,0.4c2,0,3.6-1.3,3.5-2.8l-0.3-26.7h-7.1l0.2,23.6l-11.4,0.1l-0.2-23.7h-7.2l0.2,23.8l-11.4,0.1l-0.2-23.9
			H202l0.3,27.1C202.2,108.6,203.9,109.8,205.8,109.8"/>
		<path fill="#000000" d="M473.7,316.1c0,0.1,0,0.1,0.1,0.1h11.3c0.2,0,0.5-0.2,0.7-0.4c0.2-0.1,0.5-0.3,0.5-0.4c0.3-0.3,0.9-0.8,0.9-1.3v-9.8
			c0-0.4-0.9,0.3-0.9,0.4c-0.3,0.3-0.9,0.9-0.9,1.4v8.2h-5.3c0.3-0.3,0.8-0.8,0.8-1.2v-7c0-0.4-0.9,0.3-0.9,0.4
			c-0.3,0.3-0.9,0.9-0.9,1.4v6.5h-3.7c0,0,0,0,0,0v-7.9c0-0.4-0.9,0.3-0.9,0.4c-0.3,0.3-0.9,0.9-0.9,1.4v8
			C473.5,316.1,473.6,316.1,473.7,316.1"/>
		<rect x="494.6" y="324.4" transform="matrix(0.7071 -0.7071 0.7071 0.7071 -87.014 450.8554)" width="12.2" height="12.2"/>
		<path fill="#000000" d="M452.9,352.3h137.8v-0.1h11.6c2.6,0,4.7-2.1,4.7-4.7v-14.4l-15.7-16.6h-15.3c-2.6,0-4.8,2.1-4.8,4.7v25.1H560v-28.4h-5.9
			v28.4H452.9v-39.5H447v47.4h5.9V352.3z M577.3,322.4h11.6l12.3,13.1v10.8h-23.9V322.4z"/>
		<polygon points="345,308.2 339.1,302.2 333.1,308.2 339.1,314.2 		"/>
		<path fill="#000000" d="M405,352.4h18.4l-11.1,10l4,4.4L436,349v-11.3l-16.8-21.1H405c-2.6,0-4.8,2.1-4.8,4.7v26.3
			C400.3,350.3,402.4,352.4,405,352.4 M406.2,322.5h10.2l13.7,17.2v6.6l-0.7,0.7v-0.5h-23.2V322.5z"/>
		<path fill="#000000" d="M390.4,316.6h-26.3c-2.6,0-4.7,2.1-4.7,4.8v25.1h-8.3V318h-5.9v28.4h-12.4v-25.1c0-2.6-2.1-4.8-4.7-4.8h-49l16-19
			l-4.5-3.8l-27.4,32.5l4.5,3.8l6.3-7.5h52.8v23.9H255v-25.1c0-2.6-2.1-4.8-4.8-4.8H224c-2.6,0-4.8,2.1-4.8,4.8v44.1h5.9v-42.9h23.9
			v23.9h-5.5v0.1h-10.4v5.9h145.6v-0.1h11.6c2.6,0,4.8-2.1,4.8-4.7v-26.3C395.2,318.7,393,316.6,390.4,316.6 M389.2,346.4h-23.9
			v-23.9h23.9V346.4z"/>
		<path fill="#000000" d="M246.3,409.6h-5.9c-4.8,0-9.3-1.9-12.7-5.3c-3.4-3.4-5.3-7.9-5.3-12.7v-7.1h-5.9v7.1c0,13.2,10.7,23.9,23.9,23.9h7.1
			c2.6,0,4.7-2.1,4.7-4.8v-44.1h-5.9V409.6z"/>
		<path fill="#000000" d="M351.4,387V375c0-2.3-1.9-4.2-4.2-4.2h-6.7h0c-0.4,0-4.3,0.1-8.2,2.4c-3.8,2.2-8.3,6.7-8.3,15.9v20h5.9v-20
			c0-5,1.7-8.6,5.1-10.6c2.6-1.5,5.3-1.7,5.5-1.7h4.9V387H351.4z"/>
		<path fill="#000000" d="M306.1,396l-15.7-16.6h-15.3c-2.6,0-4.8,2.1-4.8,4.7v25.1H264v-42.8H258v42.8h-0.1v5.9h93.6v-5.9h-45.4V396z M276.3,385.3
			h11.6l12.3,13v10.8h-23.9V385.3z"/>
		<path fill="#000000" d="M491.2,409.7h-20.9v-22.6h10.8v-5.9h-50.5v5.9h33.8v23.8c0,2.6,2.1,4.7,4.8,4.7h23.3c2.6,0,4.7-2.1,4.7-4.7v-45.7h-5.9
			V409.7z"/>
		<path fill="#000000" d="M602.9,380.8h-61.7l-0.1,0c-0.3,0-5.3,0.5-10,3.9v-7.7h-5.9v14.8c0,0.1-0.1,0.1-0.1,0.2l0.1,0v17.6h-10.6v-45.6h-5.9v51.4
			h3v0.1h90.1v-0.1h1.2c2.3,0,4.2-1.9,4.2-4.2v-26.3C607.1,382.7,605.2,380.8,602.9,380.8 M531.1,393.4c1.4-2.3,3.4-4.1,6-5.3
			c2.1-1,4-1.3,4.4-1.3h59.7v22.9h-41.9v0.1h-28.2V393.4z"/>
		<path fill="#000000" d="M443.2,411.5v-2.8c0-8,6.5-14.6,14.6-14.6v-5.9c-11.3,0-20.5,9.2-20.5,20.5v2.8c0,11.3,9.2,20.5,20.5,20.5h19.9v-5.9
			h-19.9C449.8,426.1,443.2,419.5,443.2,411.5"/>
		<path fill="#000000" d="M411.4,370.9l-4.1-4.3l-20.5,19.3l-28.4-25.6l-4,4.4l28,25.3l-27,25.3h64l-28.2-25.4L411.4,370.9z M403.9,409.4h-33.5
			l16.4-15.4L403.9,409.4z"/>
		<rect x="418.6" y="373.5" width="5.9" height="34.5"/>
		<path fill="#000000" d="M383.9,374.9c-2.9,0-5.2-2.3-5.2-5.2v-1c0-2.9,2.3-5.2,5.2-5.2v-2.1c-4.1,0-7.4,3.3-7.4,7.3v1c0,2,0.8,3.9,2.2,5.2h-4v2h8
			c0.4,0.1,0.8,0.1,1.1,0.1h5.9v-0.1v-2H383.9z"/>
		<rect x="275.2" y="368.7" width="29" height="3.2"/>
		<rect x="542" y="368.7" width="45.5" height="3.2"/>
	</g>
</g>
<path fill="#000000" d="M273.602,481.306c-0.578-0.576-1.301-1.03-2.174-1.362c-0.873-0.331-1.885-0.497-3.039-0.497
	c-0.663,0-1.463,0.079-2.4,0.238v-6.077h-1.535v17.711c0.706,0.202,1.402,0.354,2.087,0.454s1.301,0.151,1.849,0.151
	c1.153,0,2.166-0.162,3.039-0.486s1.596-0.764,2.174-1.319c0.576-0.555,1.006-1.211,1.287-1.968s0.42-1.561,0.42-2.411
	s-0.139-1.657-0.42-2.422C274.608,482.554,274.178,481.883,273.602,481.306z M272.391,489.167c-0.852,0.829-2.17,1.243-3.958,1.243
	c-0.39,0-0.805-0.032-1.244-0.097c-0.439-0.065-0.84-0.134-1.2-0.206v-8.845c0.447-0.115,0.887-0.194,1.319-0.237
	c0.433-0.044,0.808-0.065,1.125-0.065c0.894,0,1.668,0.112,2.325,0.335c0.656,0.224,1.199,0.545,1.633,0.963
	c0.432,0.418,0.752,0.919,0.961,1.503s0.314,1.243,0.314,1.979C273.667,487.195,273.241,488.338,272.391,489.167z M247.392,479.446
	c-0.62,0-1.297,0.079-2.033,0.238c-0.735,0.158-1.485,0.433-2.249,0.821l-0.065,1.73c0.548-0.303,0.973-0.52,1.276-0.649
	s0.624-0.237,0.962-0.324c0.338-0.086,0.677-0.158,1.016-0.216s0.667-0.087,0.984-0.087c1.139,0,1.982,0.249,2.53,0.746
	s0.822,1.33,0.822,2.498v0.13c-0.332-0.044-0.732-0.087-1.2-0.13c-0.469-0.043-0.876-0.065-1.222-0.065
	c-1.831,0-3.302,0.311-4.412,0.931c-1.11,0.619-1.665,1.644-1.665,3.07c0,0.707,0.155,1.305,0.465,1.795
	c0.31,0.49,0.713,0.88,1.211,1.168s1.067,0.497,1.708,0.627c0.641,0.13,1.308,0.194,2,0.194c0.807,0,1.6-0.072,2.378-0.216
	c0.779-0.145,1.536-0.368,2.271-0.671v-7.028c0-1.585-0.397-2.742-1.189-3.471C250.189,479.811,248.992,479.446,247.392,479.446z
	 M250.636,489.892c-0.375,0.144-0.858,0.267-1.449,0.367c-0.591,0.102-1.183,0.151-1.773,0.151c-0.505,0-0.984-0.035-1.438-0.108
	c-0.454-0.071-0.84-0.197-1.157-0.378c-0.317-0.18-0.57-0.414-0.757-0.703c-0.188-0.288-0.281-0.663-0.281-1.124
	c0-0.52,0.111-0.934,0.335-1.244c0.224-0.31,0.533-0.551,0.93-0.724c0.396-0.174,0.85-0.296,1.362-0.368
	c0.511-0.072,1.041-0.108,1.589-0.108c0.476,0,0.984,0.029,1.524,0.087c0.541,0.058,0.912,0.108,1.114,0.151V489.892z
	 M258.032,479.868c-0.649,0.122-1.276,0.263-1.881,0.422v11.418h1.535v-10.186c0.202-0.072,0.563-0.147,1.082-0.228
	c0.519-0.079,1.002-0.118,1.449-0.118h1.989v-1.492H260C259.336,479.685,258.681,479.746,258.032,479.868z M-77.92,487.667
	l241.145,0.656l0.663-0.433l-0.632-0.564L-77.92,487.667z M164.994,487.825l1.95,1.95l1.95-1.95l-1.95-1.95L164.994,487.825z
	 M169.559,487.825l3.057,3.057l3.057-3.057l-3.057-3.057L169.559,487.825z M212.359,489.286l-3.395-9.602h-1.514l-3.396,9.602
	l-2.984-9.602h-1.73l3.979,12.023h1.428l3.46-9.645l3.46,9.645h1.427l3.979-12.023h-1.73L212.359,489.286z M238.418,489.589
	c-0.317,0-0.591,0.115-0.822,0.346c-0.231,0.23-0.346,0.505-0.346,0.822c0,0.316,0.115,0.591,0.346,0.821
	c0.23,0.23,0.504,0.346,0.822,0.346c0.317,0,0.591-0.115,0.822-0.346c0.23-0.23,0.346-0.505,0.346-0.821
	c0-0.317-0.116-0.592-0.346-0.822C239.009,489.704,238.735,489.589,238.418,489.589z M193.243,489.286l-3.395-9.602h-1.514
	l-3.396,9.602l-2.984-9.602h-1.73l3.979,12.023h1.428l3.46-9.645l3.46,9.645h1.427l3.979-12.023h-1.73L193.243,489.286z
	 M231.476,489.286l-3.395-9.602h-1.514l-3.396,9.602l-2.984-9.602h-1.73l3.979,12.023h1.428l3.46-9.645l3.46,9.645h1.427
	l3.979-12.023h-1.73L231.476,489.286z M382.732,480.474c-0.426-0.396-0.938-0.667-1.535-0.812c-0.598-0.144-1.271-0.216-2.021-0.216
	c-0.664,0-1.393,0.09-2.184,0.271c-0.793,0.181-1.471,0.4-2.033,0.659c-0.346-0.331-0.818-0.569-1.416-0.714
	c-0.6-0.144-1.273-0.216-2.023-0.216c-0.635,0-1.268,0.058-1.902,0.173l-2.465,0.454v11.635h1.535v-10.38
	c0.447-0.102,0.883-0.188,1.309-0.26c0.424-0.072,0.896-0.108,1.416-0.108c0.605,0,1.125,0.058,1.557,0.173
	c0.434,0.116,0.789,0.321,1.07,0.616c0.281,0.296,0.494,0.711,0.639,1.244s0.217,1.24,0.217,2.119v6.596h1.535v-7.201
	c0-0.663-0.055-1.243-0.162-1.741c-0.109-0.497-0.213-0.861-0.314-1.092c0.086-0.043,0.281-0.119,0.584-0.228
	c0.303-0.107,0.602-0.197,0.898-0.27c0.295-0.072,0.586-0.126,0.875-0.162s0.547-0.055,0.779-0.055c0.59,0,1.102,0.058,1.535,0.173
	c0.432,0.116,0.781,0.317,1.049,0.605c0.266,0.289,0.471,0.703,0.615,1.244c0.145,0.54,0.217,1.251,0.217,2.13v6.596h1.535v-7.201
	c0-0.995-0.111-1.816-0.336-2.466C383.482,481.393,383.158,480.87,382.732,480.474z M280.1,474.581
	c-0.785,0.648-1.18,1.729-1.18,3.243v1.86h-2.551v1.492h2.551v10.531h1.537v-10.531h4.973v-1.492h-4.973v-1.471
	c0-0.635,0.045-1.149,0.141-1.546c0.094-0.396,0.24-0.707,0.443-0.931c0.201-0.223,0.475-0.385,0.82-0.486
	c0.346-0.101,0.779-0.151,1.299-0.151h2.422v-1.492h-2.271C281.956,473.607,280.885,473.932,280.1,474.581z M398.273,487.825
	l3.057,3.057l3.057-3.057l-3.057-3.057L398.273,487.825z M343.322,482.322c0.389-0.418,0.854-0.749,1.395-0.994
	s1.135-0.368,1.783-0.368c0.736,0,1.373,0.076,1.914,0.228s1.121,0.414,1.74,0.789l0.715-1.405c-0.707-0.39-1.393-0.674-2.055-0.854
	c-0.664-0.181-1.436-0.271-2.314-0.271c-0.85,0-1.639,0.155-2.367,0.465c-0.729,0.311-1.367,0.746-1.914,1.309
	c-0.549,0.563-0.98,1.222-1.297,1.979c-0.317,0.757-0.476,1.59-0.476,2.498s0.158,1.74,0.476,2.497
	c0.316,0.757,0.748,1.413,1.297,1.969c0.547,0.555,1.186,0.987,1.914,1.297c0.729,0.311,1.518,0.465,2.367,0.465
	c0.879,0,1.65-0.09,2.314-0.27c0.662-0.181,1.348-0.466,2.055-0.854l-0.715-1.406c-0.619,0.375-1.199,0.639-1.74,0.79
	s-1.178,0.227-1.914,0.227c-0.648,0-1.242-0.119-1.783-0.356c-0.541-0.238-1.006-0.565-1.395-0.984
	c-0.391-0.418-0.693-0.915-0.908-1.492c-0.217-0.576-0.324-1.203-0.324-1.881s0.107-1.305,0.324-1.882
	C342.628,483.238,342.931,482.741,343.322,482.322z M404.387,487.825l1.949,1.95l1.951-1.95l-1.951-1.95L404.387,487.825z
	 M410.701,487.326l-0.664,0.433l0.633,0.564l241.176-0.341L410.701,487.326z M362.611,481.295c-0.549-0.569-1.193-1.02-1.936-1.352
	c-0.742-0.331-1.547-0.497-2.412-0.497c-0.863,0-1.668,0.166-2.41,0.497c-0.742,0.332-1.389,0.782-1.936,1.352
	c-0.549,0.57-0.977,1.229-1.287,1.979c-0.311,0.749-0.465,1.557-0.465,2.422s0.154,1.672,0.465,2.422s0.738,1.409,1.287,1.979
	c0.547,0.569,1.193,1.017,1.936,1.341s1.547,0.486,2.41,0.486c0.865,0,1.67-0.162,2.412-0.486s1.387-0.771,1.936-1.341
	c0.547-0.569,0.977-1.229,1.287-1.979c0.309-0.75,0.465-1.557,0.465-2.422s-0.156-1.673-0.465-2.422
	C363.587,482.524,363.158,481.865,362.611,481.295z M362.394,487.523c-0.217,0.569-0.52,1.067-0.908,1.492
	c-0.389,0.426-0.857,0.765-1.406,1.017c-0.547,0.252-1.152,0.378-1.816,0.378c-0.662,0-1.268-0.126-1.816-0.378
	c-0.547-0.252-1.016-0.591-1.404-1.017c-0.391-0.425-0.693-0.923-0.908-1.492c-0.217-0.569-0.324-1.179-0.324-1.827
	c0-0.649,0.107-1.262,0.324-1.839c0.215-0.576,0.518-1.077,0.908-1.503c0.389-0.425,0.857-0.764,1.404-1.016
	c0.549-0.252,1.154-0.379,1.816-0.379c0.664,0,1.27,0.127,1.816,0.379c0.549,0.252,1.018,0.591,1.406,1.016
	c0.389,0.426,0.691,0.927,0.908,1.503c0.217,0.577,0.324,1.189,0.324,1.839C362.718,486.345,362.611,486.954,362.394,487.523z
	 M296.221,481.295c-0.547-0.569-1.191-1.02-1.936-1.352c-0.742-0.331-1.545-0.497-2.41-0.497s-1.67,0.166-2.412,0.497
	c-0.742,0.332-1.387,0.782-1.936,1.352c-0.547,0.57-0.977,1.229-1.285,1.979c-0.311,0.749-0.465,1.557-0.465,2.422
	s0.154,1.672,0.465,2.422c0.309,0.75,0.738,1.409,1.285,1.979c0.549,0.569,1.193,1.017,1.936,1.341s1.547,0.486,2.412,0.486
	s1.668-0.162,2.41-0.486c0.744-0.324,1.389-0.771,1.936-1.341c0.549-0.569,0.977-1.229,1.287-1.979s0.465-1.557,0.465-2.422
	s-0.154-1.673-0.465-2.422C297.198,482.524,296.77,481.865,296.221,481.295z M296.006,487.523c-0.217,0.569-0.52,1.067-0.908,1.492
	c-0.391,0.426-0.859,0.765-1.406,1.017c-0.549,0.252-1.154,0.378-1.816,0.378c-0.664,0-1.27-0.126-1.816-0.378
	c-0.549-0.252-1.018-0.591-1.406-1.017c-0.389-0.425-0.691-0.923-0.908-1.492s-0.324-1.179-0.324-1.827
	c0-0.649,0.107-1.262,0.324-1.839c0.217-0.576,0.52-1.077,0.908-1.503c0.389-0.425,0.857-0.764,1.406-1.016
	c0.547-0.252,1.152-0.379,1.816-0.379c0.662,0,1.268,0.127,1.816,0.379c0.547,0.252,1.016,0.591,1.406,1.016
	c0.389,0.426,0.691,0.927,0.908,1.503c0.215,0.577,0.324,1.189,0.324,1.839C296.331,486.345,296.221,486.954,296.006,487.523z
	 M309.381,480.463c-0.455-0.39-0.996-0.656-1.623-0.801c-0.627-0.144-1.309-0.216-2.043-0.216c-0.707,0-1.465,0.047-2.271,0.141
	s-1.701,0.234-2.682,0.422v11.699h1.535v-10.402c1.184-0.23,2.293-0.346,3.33-0.346c0.592,0,1.111,0.062,1.559,0.184
	c0.445,0.123,0.818,0.332,1.113,0.628c0.295,0.295,0.525,0.713,0.691,1.254s0.25,1.251,0.25,2.13v6.553h1.535v-7.201
	c0-0.995-0.119-1.82-0.357-2.477C310.18,481.375,309.834,480.852,309.381,480.463z M318.516,490.054
	c-0.346-0.108-0.619-0.277-0.82-0.509c-0.203-0.23-0.35-0.547-0.443-0.951c-0.096-0.403-0.141-0.922-0.141-1.557v-5.86h4.973v-1.492
	h-4.973v-4.347h-1.537v4.347h-2.551v1.492h2.551v6.466c0,0.764,0.109,1.405,0.326,1.925c0.215,0.519,0.525,0.937,0.93,1.254
	c0.402,0.317,0.867,0.544,1.395,0.682c0.525,0.137,1.105,0.205,1.74,0.205h2.271v-1.492h-2.422
	C319.295,490.216,318.862,490.162,318.516,490.054z M337.784,489.589c-0.316,0-0.59,0.115-0.82,0.346s-0.346,0.505-0.346,0.822
	c0,0.316,0.115,0.591,0.346,0.821s0.504,0.346,0.82,0.346c0.318,0,0.592-0.115,0.822-0.346s0.346-0.505,0.346-0.821
	c0-0.317-0.115-0.592-0.346-0.822S338.102,489.589,337.784,489.589z M333.178,486.106c-0.346-0.303-0.785-0.565-1.318-0.789
	c-0.533-0.223-1.182-0.422-1.947-0.595l-0.799-0.173c-1.053-0.216-1.781-0.461-2.184-0.735c-0.404-0.273-0.607-0.678-0.607-1.211
	c0-0.504,0.238-0.904,0.715-1.2c0.475-0.295,1.174-0.443,2.098-0.443c0.793,0,1.477,0.076,2.055,0.228
	c0.576,0.151,1.217,0.421,1.924,0.811l0.691-1.405c-1.412-0.765-2.969-1.146-4.67-1.146c-0.635,0-1.223,0.076-1.764,0.228
	c-0.539,0.151-1.008,0.364-1.404,0.638s-0.711,0.605-0.941,0.994c-0.23,0.39-0.346,0.815-0.346,1.276
	c0,0.462,0.072,0.88,0.217,1.254c0.143,0.375,0.381,0.707,0.713,0.995s0.758,0.537,1.275,0.746c0.52,0.209,1.146,0.4,1.883,0.573
	l0.908,0.194c1.008,0.217,1.729,0.49,2.162,0.822c0.432,0.331,0.648,0.771,0.648,1.318c0,0.39-0.086,0.707-0.26,0.952
	c-0.172,0.245-0.414,0.436-0.725,0.573c-0.311,0.137-0.678,0.237-1.102,0.303c-0.426,0.064-0.877,0.097-1.352,0.097
	c-0.592,0-1.223-0.09-1.893-0.271c-0.67-0.18-1.352-0.479-2.045-0.897l-0.734,1.471c0.779,0.433,1.539,0.742,2.281,0.93
	s1.539,0.281,2.391,0.281c0.748,0,1.434-0.072,2.053-0.216c0.621-0.145,1.158-0.36,1.611-0.648c0.455-0.289,0.805-0.649,1.049-1.082
	c0.246-0.433,0.369-0.93,0.369-1.492c0-0.476-0.072-0.915-0.217-1.318C333.77,486.763,333.526,486.41,333.178,486.106z"/>
</svg>

