<?xml version="1.0" encoding="utf-8"?>
<!-- Generator: Adobe Illustrator 21.0.0, SVG Export Plug-In . SVG Version: 6.00 Build 0)  -->
<svg version="1.1" id="Layer_1" xmlns="http://www.w3.org/2000/svg" xmlns:xlink="http://www.w3.org/1999/xlink" x="0px" y="0px"
	 viewBox="0 0 800 500" style="enable-background:new 0 0 800 500;" xml:space="preserve">
<g>
	<g>
		<path fill="#000000" d="M499.8,382c-2,2.4-4.1,4.9-6.1,7.3H451c0-0.1-0.1-0.2-0.2-0.2c-11.6-1.7-23-2.5-33.4-8.4c-9.8-5.5-17.3-15.9-16.2-27.4
			c1.1-11.2,16.3-12.4,25.5-12.6c5.9-0.1,11.7,0.7,17.3,2.7c2.5,0.9,4.4,2.4,6.3,4.2c0.6,0.6,1.2,1.3,1.7,2.1
			c-1.8,1.4-3.4,3.7-4.5,5.2c-0.2,0.2-3.8,5.9-1.8,5.4c6.7-1.6,12.8-8.6,15.8-14.5c3.9-7.6-3.6-12.9-10.4-15
			c-14.6-4.6-33.2-2.3-44.7,8.2c-12.2,11.1-20.4,26.7-10.7,42c2.1,3.3,4.6,6,7.4,8.2h-21V254.5c0-0.5-0.2-0.7-0.7-0.6h-11.1
			c-2.4,0-5.7,4.8-6.9,6.4c-0.4,0.5-3.9,5.4-1.8,5.4h7h3.7c-0.4,0-0.3,8.1-0.3,9.3v42.1v79.2c-1,1.4-3.1,4.8-1.3,4.8h1.3
			c0,0.7,0.7,0.5,1.6,0h61.2H469h15.7c3.9,0,6-2.9,8.4-5.7c3.1-3.7,6.2-7.5,9.4-11.2c0.6-0.7,4.9-5.8,3.5-6.9
			C504.6,376.1,500.4,381.3,499.8,382"/>
		<path fill="#000000" d="M375.9,202.3c1.7-1.8,5-5.2,5-7.9V66.1c0-2.1-4.8,2.5-5,2.7c-1.7,1.8-5,5.2-5,7.9v128.3
			C370.9,207.2,375.6,202.6,375.9,202.3"/>
		<path fill="#000000" d="M285,193.2v6.4c0,0,0,0.1-0.1,0.1c-0.3,0.5-3.9,5.4-1.8,5.4h60.1c2.4,0,5.7-4.8,6.9-6.4c0.3-0.4,2.4-3.4,2.4-4.7
			c0.3-0.7,0.5-1.4,0.5-2.1V107c0-2.1-4.8,2.5-5,2.7c-1.7,1.8-5,5.2-5,7.9v75.6h-18.8c0-0.1,0-0.3,0-0.4V104c0-2.1-4.8,2.5-5,2.7
			c-1.7,1.8-5,5.2-5,7.9v78.7h-19.5c0.2-0.5,0.3-1,0.3-1.4v-78.3c0-0.3-0.1-0.5-0.3-0.5c4.6-7.4,8-15.4,8.5-24.1
			c0.8-14.7-11.3-26-24.6-29.4c-3.9-1-10.2,11.5-9.7,11.7c16.4,4.3,27.7,18.6,23.1,35.8c-2.4,9.2-9,16.4-15.3,23.1
			c-6.5,7-13.2,13.8-19.1,21.4c-9.3,11.8-21.6,30.1-9.9,44.2C257.8,208.1,274.1,201.3,285,193.2 M261.2,152.3
			c5.4-6.9,11.8-13.1,17.8-19.6c2-2.2,4-4.4,6-6.7V187c-5.3,3-11.4,4.5-17.4,3.1c-6.7-1.5-12-6.4-14.2-12.8
			C250.4,168.5,256,159,261.2,152.3"/>
		<path fill="#000000" d="M235.4,238.4c15,1.9,33.8,3.4,48.9,4c26.1,1.1,52.9-1.1,78.8-3.7c24.3-2.4,46.3-6,69.6-13.3c9.2-2.9,20.8-6.5,29-11.7
			c0.5-0.3,1-0.7,1.5-1.1v25.9c0,2.1,4.8-2.5,5-2.7c0.1-0.1,0.1-0.1,0.2-0.2h122.4v1.1c0,1.3,1.8,0.1,3.2-1.1H657
			c2.4,0,5.7-4.8,6.9-6.4c0.1-0.2,0.7-1,1.3-2c1.8-1.9,4-4.6,4-6.8c-0.1-7.3-3-13.8-6.3-20.2c-4.1-8-8.3-16-12.2-24.2
			c-3.9-8-7.7-16-11.2-24.1c-3.4-7.8-6.3-17.7-2.7-26c1-2.4,0.4-3.3-1.9-1.5c-2.7,2-5.5,5.1-6.8,8.2c-7.1,16.2,1.8,31.7,8.7,46.3
			c4.1,8.8,8.5,17.5,12.9,26.2c3.1,6.1,6.8,12.1,8.5,18.7H601v-75.7c0.9-1.3,1.6-2.7,1.7-4c0.6-9.6-24.3,3.8-28,5.6
			c-12,5.9-23.1,12.4-29.9,24.3c-6.9,12.3,5.6,23.7,13.5,31.4c6.7,6.5,13.7,12.6,21.1,18.4h-59.9c1.7-1.9,3.7-4.4,3.7-6.5v-78.7
			c0.1-0.4,0.2-0.8,0.2-1.1c-1.1-5.3-6.5-5.9-11-6.1c-1,0-2.4,1.5-3,2c-1.4,1.3-2.7,2.8-3.9,4.4c-0.4,0.5-3.9,5.3-1.8,5.4
			c3.4,0.1,8.2,0.6,9.5,4.4c0,0.1,0,0.1,0,0.2v76H475c-0.5,0-1.1,0.2-1.7,0.6V79.8c0-0.4-0.2-0.6-0.5-0.5c-0.6-1.3-1.6-2.3-3-3.1
			c-1.9-1.1-4.7-2.1-6.9-1.7c-1.1,0.2-2.2,1.3-3,2c-1.4,1.3-2.7,2.8-3.9,4.4c-0.2,0.3-3.8,5.8-1.8,5.4c1.8-0.4,3.7,0.5,5.3,1.2
			c1.7,0.7,3.4,2,3.7,3.9c0,0,0,0,0,0.1v111.6c-13.2,9-36.4,15.5-54.7,18.8c-25.4,4.5-48.6,7.4-74.3,8.5c-28.6,1.2-61.1-0.3-89.6-4
			c-28-3.6-62.6-14.8-88.2-27c-8.9-4.2-21.5-10.5-21.6-15.6c-0.1-2.8-6.8,18.3-5,19.6c19.8,14.3,40.7,21.3,64.3,27.3
			C208.3,234.3,220.8,236.5,235.4,238.4 M556.3,180.7c-1.5-2.2-2.5-4.7-3-7.3c-0.2-1.1-0.3-2.2-0.2-3.4c0.2-0.7,0.3-1.2,0.4-1.6
			c3.9-2.7,8.5-4.8,12.6-6.9c4.6-2.3,9.3-4.5,14-6.4c1.7-0.7,8-3.9,11-3c-0.1,0.3-0.1,0.6-0.1,1v60.3c-4.6-3.6-9.1-7.3-13.5-11.1
			C570,195.8,561.9,188.9,556.3,180.7"/>
		<path fill="#000000" d="M670.5,397.4c-2.8-17.1-11.1-33.2-24.6-44.3c-12.6-10.5-30-13.3-45.9-11.6c-8.2,0.9-16.2,3.4-23.7,6.9c0,0,0-0.1,0.1-0.1
			c1.7-1.8,5-5.2,5-7.9V255c0-2.1-4.8,2.5-5,2.7c-1.7,1.8-5,5.2-5,7.9v85.1c-6.1,3.2-11.9,6.9-17.4,10.9
			c-10.3,7.5-20.9,16.6-28,27.6h-0.4c-0.5,0-1.1,0.2-1.7,0.6V259.6c0-0.4-0.2-0.6-0.5-0.5c-0.6-1.3-1.6-2.3-3-3.1
			c-1.9-1.1-4.7-2.1-6.9-1.7c-1.1,0.2-2.2,1.3-3,2c-1.4,1.3-2.7,2.8-3.9,4.4c-0.2,0.3-3.8,5.8-1.8,5.4c1.8-0.4,3.7,0.5,5.3,1.2
			c1.7,0.7,3.4,2,3.7,3.9c0,0,0,0,0,0.1v134.8c0,2.1,4.8-2.5,5-2.7c0.5-0.5,1.1-1.1,1.7-1.8c0.3,0,0.7-0.2,1.2-0.4H657
			c0.6,0,1.2-0.3,1.8-0.7c0.7,2.5,1.2,5,1.7,7.6c0.3,2.1,4.6-2.3,5-2.7C666.9,403.8,670.9,399.9,670.5,397.4 M530.9,389.3
			c2.6-5.2,7-8.8,11.4-12.5c5.8-4.9,12-9.2,18.5-12.9c12.8-7.3,27.1-11.4,41.9-11c24,0.6,42.7,15.9,52.1,36.5H530.9z"/>
		<path fill="#000000" d="M346.8,341c-2.6-7.1-5.7-14.4-7.4-21.8c-0.6-2.9-0.9-5.9-1.2-8.9c-0.1-1.4-0.1-2.8,0-4.2c0.1-1.8,1.3-3.6,0.6-3
			c1.6-1.8,3.2-3.9,3.2-5.9c0-2.1-4.8,2.5-5,2.7c-4.8,5.4-8.6,10.9-9,18.3c-0.4,7.3,1.9,14.5,4.2,21.3c5.8,16.7,12.4,33.2,18.2,49.9
			h-28.3c2-2.6,3.5-5.4,3.9-8.7c0.6-4.5-1-10.1-2-14.5c-1-4.4-2.5-8.7-4.1-12.9c-7-17.7-20.6-32.1-37.9-40c-8-3.6-16.7-5.4-25.4-5.7
			c-2.1-0.1-4.5,0.5-3.8-2c1.2-1,2.5-1.9,3.7-2.8c4.4-3.3,8.9-6.6,13.3-9.8c16.6-12.1,33.5-23.8,50.7-35c2.9-1.9,5.3-4.7,7.1-7.6
			c0.4-0.6,2.7-5.4-0.1-3.6c-16.5,10.7-32.6,21.8-48.5,33.3c-7.9,5.7-16.4,11.2-23.7,17.7c-6,5.4-12.6,12.7-13,21.1
			c0,0.5,0.2,0.7,0.7,0.6c21.8-0.8,42.1,9.3,55.7,26.1c7,8.6,11.8,19,14.6,29.7c1.2,4.6,2,9.4,2.3,14.1h-83.5
			c8.2-8.3,14-19.7,15.9-29.8c4.2-22.2-6.4-46.5-29-53.5c-3.1-1-6.4-1.4-9.7-1.6c-0.1,0-0.2-0.1-0.3-0.1c-0.2,0-0.5,0-0.7,0
			c-0.3,0-0.5,0-0.8,0c-0.2,0-0.3,0-0.5,0.1c-26,1.3-48.7,23.8-52.1,49.5c-0.1,0.5,0.2,0.6,0.6,0.5c-0.5,0.9-0.8,1.7-0.8,2.6V440
			c0,2.1,4.8-2.5,5-2.7c1.7-1.8,5-5.2,5-7.9v-82.9c0-0.5-0.3-0.6-0.7-0.5c0.4-0.8,0.7-1.7,0.9-2.5c0.7-5,2-9.6,4.3-14.1
			c2.1-4.1,7-6,10.6-8.4c5.5-3.7,12.8-4.5,19.3-4.6c19.1,0.5,34.1,14.4,38.6,32.6c2.4,9.5,1.4,19.7-2.1,28.7
			c-3.1,8-10.8,11.3-19.4,11.3c-14.7,0-26.7-12.1-30.8-25.5c-1.9-6.4-2.2-13.4-0.6-19.9c1.7-6.8,4.8-9.5,11.2-12.4
			c2.9-1.3,5.5-5,7.1-7.6c0.6-0.9,2.8-4.9-0.1-3.6c-16.9,7.8-30.1,26.3-29.2,45.3c0.8,16.9,12.7,32.4,29.8,35.1
			c2.1,0.3,4.1,0.4,6.1,0.3c0,0.3,0.2,0.6,0.7,0.6h97.3c0.2,0.1,0.5,0.1,0.9,0h34.7c2.4,0,5.7-4.8,6.9-6.4c0.2-0.2,1.2-1.6,1.8-3
			c2.8-1.3,9.9-8,9-10.7C356.8,367.6,351.7,354.3,346.8,341"/>
		<path fill="#000000" d="M523,87.2h-38.1c-0.9,0-2,1.7-2.4,2.3c-0.1,0.2-1.4,1.9-0.6,1.9h38.1c0.9,0,2-1.7,2.4-2.3C522.5,88.9,523.8,87.2,523,87.2
			"/>
		<path fill="#000000" d="M652.1,308.7h-52.7c-1.2,0-2.8,2.3-3.4,3.1c-0.2,0.2-1.9,2.6-0.9,2.6h52.7c1.2,0,2.8-2.3,3.4-3.1
			C651.4,311.1,653.1,308.7,652.1,308.7"/>
		<path fill="#000000" d="M478,297.4h-69.7c-1.2,0-2.8,2.3-3.4,3.1c-0.2,0.2-1.9,2.7-0.9,2.7h69.7c1.2,0,2.8-2.3,3.4-3.1
			C477.3,299.8,479,297.4,478,297.4"/>
		<path fill="#000000" d="M350.1,414.6h-69.7c-1.2,0-2.8,2.3-3.4,3.1c-0.2,0.2-1.9,2.7-0.9,2.7h69.7c1.2,0,2.8-2.3,3.4-3.1
			C349.4,417,351.2,414.6,350.1,414.6"/>
		<path fill="#000000" d="M508.4,100.4c-0.6,0.6-1.7,1.8-1.7,2.7v12h-6.3v-15c0-0.7-1.6,0.9-1.7,0.9c-0.6,0.6-1.7,1.8-1.7,2.7v11.9h-7.3V101
			c0-0.7-1.6,0.9-1.7,0.9c-0.6,0.6-1.7,1.8-1.7,2.7v15.1c0,0.3,0.2,0.2,0.6,0h10.8c0.3,0,0.7-0.3,1.1-0.6h8.3c0.8,0,1.9-1.6,2.4-2.2
			c0.1-0.1,1.1-1.5,0.8-1.8c0.1-0.2,0.1-0.4,0.1-0.7V99.4C510.1,98.7,508.5,100.3,508.4,100.4"/>
		<path fill="#000000" d="M336.6,77.1c-0.6,0.6-1.7,1.8-1.7,2.7v12h-6.3v-15c0-0.7-1.6,0.9-1.7,0.9c-0.6,0.6-1.7,1.8-1.7,2.7v11.9h-7.3V77.7
			c0-0.7-1.6,0.9-1.7,0.9c-0.6,0.6-1.7,1.8-1.7,2.7v15.1c0,0.3,0.2,0.2,0.6,0h10.8c0.3,0,0.7-0.3,1.1-0.6h8.3c0.8,0,1.9-1.6,2.4-2.2
			c0.1-0.1,1.1-1.5,0.8-1.8c0.1-0.2,0.1-0.4,0.1-0.6V76.1C338.3,75.4,336.7,77,336.6,77.1"/>
		<path fill="#000000" d="M637.1,275.6c-1.2,1.5-1.8,3.7-2.1,5.6c0.3-2.1-0.1-0.5-1.1,0.3c-0.9,0.7-2.1,0.8-3.2,0.8c-2.2,0-3.4-1.6-4.2-3.5
			c-1.9-4.8-0.1-9.7,1.6-14.3c0.5-1.4,1.6-3.9,0.9-5.3c-0.5-1.1-2,2.4-2.1,2.6c-3,7.9-7,18.3-2.8,26.5c1.6,3.2,5.9,2.8,8.4,1
			c3.4-2.5,4.7-7.8,5.3-11.7C638,277,638.3,274.2,637.1,275.6"/>
		<path fill="#000000" d="M437.2,158.4c-1.5,1.9-2.3,4.8-2.7,7.2c0.4-2.6-0.1-0.6-1.4,0.3c-1.2,0.9-2.7,1-4.2,1c-2.8,0-4.4-2.1-5.3-4.5
			c-2.4-6.2-0.1-12.5,2.1-18.3c0.7-1.7,2-4.9,1.2-6.8c-0.6-1.4-2.5,3-2.6,3.3c-3.8,10.1-9,23.5-3.6,33.9c2.1,4.1,7.5,3.6,10.7,1.3
			c4.3-3.2,6-10,6.8-15C438.4,160.2,438.7,156.5,437.2,158.4"/>
		<path fill="#000000" d="M502.2,174.4c-1.5,1.9-2.3,4.8-2.7,7.2c0.4-2.6-0.1-0.6-1.4,0.3c-1.2,0.9-2.7,1-4.2,1c-2.8,0-4.4-2.1-5.3-4.5
			c-2.4-6.2-0.1-12.5,2.1-18.3c0.7-1.7,2-4.9,1.2-6.8c-0.6-1.4-2.6,3-2.6,3.3c-3.8,10.1-9,23.5-3.6,33.9c2.1,4.1,7.5,3.6,10.7,1.3
			c4.3-3.1,6-10,6.8-15C503.3,176.2,503.6,172.5,502.2,174.4"/>
		<path fill="#000000" d="M558.1,303.3c-1.5,1.9-2.3,4.8-2.7,7.2c0.4-2.6-0.1-0.6-1.4,0.3c-1.2,0.9-2.7,1-4.2,1c-2.8,0-4.4-2.1-5.3-4.5
			c-2.4-6.2-0.1-12.5,2.1-18.3c0.7-1.7,2-4.9,1.2-6.8c-0.6-1.4-2.6,3-2.6,3.3c-3.8,10.1-9,23.5-3.6,33.9c2.1,4.1,7.5,3.6,10.7,1.3
			c4.3-3.2,6-10,6.8-15C559.2,305.1,559.6,301.4,558.1,303.3"/>
		<path fill="#000000" d="M210.9,105.2c-1.4,1.8-2.2,4.5-2.5,6.7c0.4-2.5-0.1-0.6-1.3,0.3c-1.1,0.8-2.5,1-3.9,1c-2.6,0-4.1-2-5-4.2
			c-2.3-5.8-0.1-11.7,2-17.1c0.6-1.6,1.8-4.6,1.1-6.4c-0.5-1.4-2.4,2.8-2.5,3.1c-3.6,9.4-8.4,22-3.4,31.8c2,3.9,7.1,3.4,10,1.2
			c4-3,5.7-9.4,6.4-14C212,106.9,212.3,103.4,210.9,105.2"/>
		<path fill="#000000" d="M440.6,266.3c-1.5,1.9-2.3,4.8-2.7,7.2c0.4-2.6-0.1-0.6-1.4,0.3c-1.2,0.9-2.7,1-4.2,1c-2.8,0-4.4-2.1-5.3-4.5
			c-2.4-6.2-0.1-12.5,2.1-18.3c0.7-1.7,2-4.9,1.2-6.8c-0.6-1.4-2.6,3-2.6,3.3c-3.8,10.1-9,23.5-3.6,33.9c2.1,4.1,7.5,3.6,10.7,1.3
			c4.3-3.2,6-10,6.8-15C441.7,268.1,442,264.4,440.6,266.3"/>
		<rect x="603.6" y="97.1" transform="matrix(0.7069 -0.7073 0.7073 0.7069 105.7392 461.5183)" width="12.2" height="12.2"/>
		<rect x="620.6" y="97.1" transform="matrix(0.7071 -0.7071 0.7071 0.7071 110.5899 473.3525)" width="12.1" height="12.1"/>
		<rect x="556.7" y="97.1" transform="matrix(0.7069 -0.7073 0.7073 0.7069 91.9779 428.3116)" width="12.1" height="12.1"/>
		<rect x="573.7" y="97.1" transform="matrix(0.7071 -0.7071 0.7071 0.7071 96.8402 440.1577)" width="12.2" height="12.2"/>
		<polygon points="314.7,275.7 306.1,284.3 314.7,292.9 323.3,284.3 		"/>
		<rect x="322.6" y="278.2" transform="matrix(0.7071 -0.7071 0.7071 0.7071 -104.7574 315.6953)" width="12.2" height="12.2"/>
		<rect x="467.4" y="247.6" transform="matrix(0.7071 -0.7071 0.7071 0.7071 -42.3338 413.1288)" width="20.2" height="20.2"/>
		<path fill="#000000" d="M218.1,261.7c0-0.5-0.1-0.8-0.6-0.8h-31c-2.3,0-5.3,4.5-6.5,6c-0.3,0.4-3.7,5.1-1.7,5.1h25.3c-2.5,1.4-4.9,2.8-7.3,4.2
			c-2.7,1.6-5,4.5-6.7,7.1c-0.4,0.6-2.6,5,0.1,3.4c8.3-5,17.1-9.6,24.1-16.4c2.2-2.2,4.8-4.8,5.8-7.9
			C220.1,260.8,219.1,261.1,218.1,261.7"/>
		<path fill="#000000" d="M220.8,142.3c-1.8,1-3.1,2.9-4.3,4.5c-3.3,4.9-5.1,10.9-7.2,16.5c-0.9,2.3-1.7,4.7-2.6,7c-0.5-5.1-1.2-10.2-2.1-15.3
			c-1.1-6.2-3.1-11.4-8.7-14.8c-0.1-0.1-0.2-0.1-0.3-0.1c-0.1,0-0.1-0.1-0.2-0.1c-2.6-0.1-5.1-0.2-7.7-0.2c-0.6,0-1.4,0.9-1.8,1.2
			c-0.9,0.8-1.6,1.7-2.3,2.6c-0.2,0.3-2.3,3.3-1.1,3.2c2.5,0,5,0,7.5,0.1c0,0,0,0,0,0c5.8,3.5,7.5,8.9,8.7,15.3
			c1.2,7,2,14.2,2.4,21.3c0.1,1.4,4.8-3.9,5.2-4.4c3.2-4.8,4.7-10.9,6.7-16.3c1.2-3.2,2.3-6.3,3.5-9.5c1.2-3.1,2.2-6.5,4.1-9.3
			C221.2,144,222.5,141.4,220.8,142.3"/>
	</g>
</g>
<path fill="#000000" d="M273.602,481.306c-0.578-0.576-1.301-1.03-2.174-1.362c-0.873-0.331-1.885-0.497-3.039-0.497
	c-0.663,0-1.463,0.079-2.4,0.238v-6.077h-1.535v17.711c0.706,0.202,1.402,0.354,2.087,0.454s1.301,0.151,1.849,0.151
	c1.153,0,2.166-0.162,3.039-0.486s1.596-0.764,2.174-1.319c0.576-0.555,1.006-1.211,1.287-1.968s0.42-1.561,0.42-2.411
	s-0.139-1.657-0.42-2.422C274.608,482.554,274.178,481.883,273.602,481.306z M272.391,489.167c-0.852,0.829-2.17,1.243-3.958,1.243
	c-0.39,0-0.805-0.032-1.244-0.097c-0.439-0.065-0.84-0.134-1.2-0.206v-8.845c0.447-0.115,0.887-0.194,1.319-0.237
	c0.433-0.044,0.808-0.065,1.125-0.065c0.894,0,1.668,0.112,2.325,0.335c0.656,0.224,1.199,0.545,1.633,0.963
	c0.432,0.418,0.752,0.919,0.961,1.503s0.314,1.243,0.314,1.979C273.667,487.195,273.241,488.338,272.391,489.167z M247.392,479.446
	c-0.62,0-1.297,0.079-2.033,0.238c-0.735,0.158-1.485,0.433-2.249,0.821l-0.065,1.73c0.548-0.303,0.973-0.52,1.276-0.649
	s0.624-0.237,0.962-0.324c0.338-0.086,0.677-0.158,1.016-0.216s0.667-0.087,0.984-0.087c1.139,0,1.982,0.249,2.53,0.746
	s0.822,1.33,0.822,2.498v0.13c-0.332-0.044-0.732-0.087-1.2-0.13c-0.469-0.043-0.876-0.065-1.222-0.065
	c-1.831,0-3.302,0.311-4.412,0.931c-1.11,0.619-1.665,1.644-1.665,3.07c0,0.707,0.155,1.305,0.465,1.795
	c0.31,0.49,0.713,0.88,1.211,1.168s1.067,0.497,1.708,0.627c0.641,0.13,1.308,0.194,2,0.194c0.807,0,1.6-0.072,2.378-0.216
	c0.779-0.145,1.536-0.368,2.271-0.671v-7.028c0-1.585-0.397-2.742-1.189-3.471C250.189,479.811,248.992,479.446,247.392,479.446z
	 M250.636,489.892c-0.375,0.144-0.858,0.267-1.449,0.367c-0.591,0.102-1.183,0.151-1.773,0.151c-0.505,0-0.984-0.035-1.438-0.108
	c-0.454-0.071-0.84-0.197-1.157-0.378c-0.317-0.18-0.57-0.414-0.757-0.703c-0.188-0.288-0.281-0.663-0.281-1.124
	c0-0.52,0.111-0.934,0.335-1.244c0.224-0.31,0.533-0.551,0.93-0.724c0.396-0.174,0.85-0.296,1.362-0.368
	c0.511-0.072,1.041-0.108,1.589-0.108c0.476,0,0.984,0.029,1.524,0.087c0.541,0.058,0.912,0.108,1.114,0.151V489.892z
	 M258.032,479.868c-0.649,0.122-1.276,0.263-1.881,0.422v11.418h1.535v-10.186c0.202-0.072,0.563-0.147,1.082-0.228
	c0.519-0.079,1.002-0.118,1.449-0.118h1.989v-1.492H260C259.336,479.685,258.681,479.746,258.032,479.868z M-77.92,487.667
	l241.145,0.656l0.663-0.433l-0.632-0.564L-77.92,487.667z M164.994,487.825l1.95,1.95l1.95-1.95l-1.95-1.95L164.994,487.825z
	 M169.559,487.825l3.057,3.057l3.057-3.057l-3.057-3.057L169.559,487.825z M212.359,489.286l-3.395-9.602h-1.514l-3.396,9.602
	l-2.984-9.602h-1.73l3.979,12.023h1.428l3.46-9.645l3.46,9.645h1.427l3.979-12.023h-1.73L212.359,489.286z M238.418,489.589
	c-0.317,0-0.591,0.115-0.822,0.346c-0.231,0.23-0.346,0.505-0.346,0.822c0,0.316,0.115,0.591,0.346,0.821
	c0.23,0.23,0.504,0.346,0.822,0.346c0.317,0,0.591-0.115,0.822-0.346c0.23-0.23,0.346-0.505,0.346-0.821
	c0-0.317-0.116-0.592-0.346-0.822C239.009,489.704,238.735,489.589,238.418,489.589z M193.243,489.286l-3.395-9.602h-1.514
	l-3.396,9.602l-2.984-9.602h-1.73l3.979,12.023h1.428l3.46-9.645l3.46,9.645h1.427l3.979-12.023h-1.73L193.243,489.286z
	 M231.476,489.286l-3.395-9.602h-1.514l-3.396,9.602l-2.984-9.602h-1.73l3.979,12.023h1.428l3.46-9.645l3.46,9.645h1.427
	l3.979-12.023h-1.73L231.476,489.286z M382.732,480.474c-0.426-0.396-0.938-0.667-1.535-0.812c-0.598-0.144-1.271-0.216-2.021-0.216
	c-0.664,0-1.393,0.09-2.184,0.271c-0.793,0.181-1.471,0.4-2.033,0.659c-0.346-0.331-0.818-0.569-1.416-0.714
	c-0.6-0.144-1.273-0.216-2.023-0.216c-0.635,0-1.268,0.058-1.902,0.173l-2.465,0.454v11.635h1.535v-10.38
	c0.447-0.102,0.883-0.188,1.309-0.26c0.424-0.072,0.896-0.108,1.416-0.108c0.605,0,1.125,0.058,1.557,0.173
	c0.434,0.116,0.789,0.321,1.07,0.616c0.281,0.296,0.494,0.711,0.639,1.244s0.217,1.24,0.217,2.119v6.596h1.535v-7.201
	c0-0.663-0.055-1.243-0.162-1.741c-0.109-0.497-0.213-0.861-0.314-1.092c0.086-0.043,0.281-0.119,0.584-0.228
	c0.303-0.107,0.602-0.197,0.898-0.27c0.295-0.072,0.586-0.126,0.875-0.162s0.547-0.055,0.779-0.055c0.59,0,1.102,0.058,1.535,0.173
	c0.432,0.116,0.781,0.317,1.049,0.605c0.266,0.289,0.471,0.703,0.615,1.244c0.145,0.54,0.217,1.251,0.217,2.13v6.596h1.535v-7.201
	c0-0.995-0.111-1.816-0.336-2.466C383.482,481.393,383.158,480.87,382.732,480.474z M280.1,474.581
	c-0.785,0.648-1.18,1.729-1.18,3.243v1.86h-2.551v1.492h2.551v10.531h1.537v-10.531h4.973v-1.492h-4.973v-1.471
	c0-0.635,0.045-1.149,0.141-1.546c0.094-0.396,0.24-0.707,0.443-0.931c0.201-0.223,0.475-0.385,0.82-0.486
	c0.346-0.101,0.779-0.151,1.299-0.151h2.422v-1.492h-2.271C281.956,473.607,280.885,473.932,280.1,474.581z M398.273,487.825
	l3.057,3.057l3.057-3.057l-3.057-3.057L398.273,487.825z M343.322,482.322c0.389-0.418,0.854-0.749,1.395-0.994
	s1.135-0.368,1.783-0.368c0.736,0,1.373,0.076,1.914,0.228s1.121,0.414,1.74,0.789l0.715-1.405c-0.707-0.39-1.393-0.674-2.055-0.854
	c-0.664-0.181-1.436-0.271-2.314-0.271c-0.85,0-1.639,0.155-2.367,0.465c-0.729,0.311-1.367,0.746-1.914,1.309
	c-0.549,0.563-0.98,1.222-1.297,1.979c-0.317,0.757-0.476,1.59-0.476,2.498s0.158,1.74,0.476,2.497
	c0.316,0.757,0.748,1.413,1.297,1.969c0.547,0.555,1.186,0.987,1.914,1.297c0.729,0.311,1.518,0.465,2.367,0.465
	c0.879,0,1.65-0.09,2.314-0.27c0.662-0.181,1.348-0.466,2.055-0.854l-0.715-1.406c-0.619,0.375-1.199,0.639-1.74,0.79
	s-1.178,0.227-1.914,0.227c-0.648,0-1.242-0.119-1.783-0.356c-0.541-0.238-1.006-0.565-1.395-0.984
	c-0.391-0.418-0.693-0.915-0.908-1.492c-0.217-0.576-0.324-1.203-0.324-1.881s0.107-1.305,0.324-1.882
	C342.628,483.238,342.931,482.741,343.322,482.322z M404.387,487.825l1.949,1.95l1.951-1.95l-1.951-1.95L404.387,487.825z
	 M410.701,487.326l-0.664,0.433l0.633,0.564l241.176-0.341L410.701,487.326z M362.611,481.295c-0.549-0.569-1.193-1.02-1.936-1.352
	c-0.742-0.331-1.547-0.497-2.412-0.497c-0.863,0-1.668,0.166-2.41,0.497c-0.742,0.332-1.389,0.782-1.936,1.352
	c-0.549,0.57-0.977,1.229-1.287,1.979c-0.311,0.749-0.465,1.557-0.465,2.422s0.154,1.672,0.465,2.422s0.738,1.409,1.287,1.979
	c0.547,0.569,1.193,1.017,1.936,1.341s1.547,0.486,2.41,0.486c0.865,0,1.67-0.162,2.412-0.486s1.387-0.771,1.936-1.341
	c0.547-0.569,0.977-1.229,1.287-1.979c0.309-0.75,0.465-1.557,0.465-2.422s-0.156-1.673-0.465-2.422
	C363.587,482.524,363.158,481.865,362.611,481.295z M362.394,487.523c-0.217,0.569-0.52,1.067-0.908,1.492
	c-0.389,0.426-0.857,0.765-1.406,1.017c-0.547,0.252-1.152,0.378-1.816,0.378c-0.662,0-1.268-0.126-1.816-0.378
	c-0.547-0.252-1.016-0.591-1.404-1.017c-0.391-0.425-0.693-0.923-0.908-1.492c-0.217-0.569-0.324-1.179-0.324-1.827
	c0-0.649,0.107-1.262,0.324-1.839c0.215-0.576,0.518-1.077,0.908-1.503c0.389-0.425,0.857-0.764,1.404-1.016
	c0.549-0.252,1.154-0.379,1.816-0.379c0.664,0,1.27,0.127,1.816,0.379c0.549,0.252,1.018,0.591,1.406,1.016
	c0.389,0.426,0.691,0.927,0.908,1.503c0.217,0.577,0.324,1.189,0.324,1.839C362.718,486.345,362.611,486.954,362.394,487.523z
	 M296.221,481.295c-0.547-0.569-1.191-1.02-1.936-1.352c-0.742-0.331-1.545-0.497-2.41-0.497s-1.67,0.166-2.412,0.497
	c-0.742,0.332-1.387,0.782-1.936,1.352c-0.547,0.57-0.977,1.229-1.285,1.979c-0.311,0.749-0.465,1.557-0.465,2.422
	s0.154,1.672,0.465,2.422c0.309,0.75,0.738,1.409,1.285,1.979c0.549,0.569,1.193,1.017,1.936,1.341s1.547,0.486,2.412,0.486
	s1.668-0.162,2.41-0.486c0.744-0.324,1.389-0.771,1.936-1.341c0.549-0.569,0.977-1.229,1.287-1.979s0.465-1.557,0.465-2.422
	s-0.154-1.673-0.465-2.422C297.198,482.524,296.77,481.865,296.221,481.295z M296.006,487.523c-0.217,0.569-0.52,1.067-0.908,1.492
	c-0.391,0.426-0.859,0.765-1.406,1.017c-0.549,0.252-1.154,0.378-1.816,0.378c-0.664,0-1.27-0.126-1.816-0.378
	c-0.549-0.252-1.018-0.591-1.406-1.017c-0.389-0.425-0.691-0.923-0.908-1.492s-0.324-1.179-0.324-1.827
	c0-0.649,0.107-1.262,0.324-1.839c0.217-0.576,0.52-1.077,0.908-1.503c0.389-0.425,0.857-0.764,1.406-1.016
	c0.547-0.252,1.152-0.379,1.816-0.379c0.662,0,1.268,0.127,1.816,0.379c0.547,0.252,1.016,0.591,1.406,1.016
	c0.389,0.426,0.691,0.927,0.908,1.503c0.215,0.577,0.324,1.189,0.324,1.839C296.331,486.345,296.221,486.954,296.006,487.523z
	 M309.381,480.463c-0.455-0.39-0.996-0.656-1.623-0.801c-0.627-0.144-1.309-0.216-2.043-0.216c-0.707,0-1.465,0.047-2.271,0.141
	s-1.701,0.234-2.682,0.422v11.699h1.535v-10.402c1.184-0.23,2.293-0.346,3.33-0.346c0.592,0,1.111,0.062,1.559,0.184
	c0.445,0.123,0.818,0.332,1.113,0.628c0.295,0.295,0.525,0.713,0.691,1.254s0.25,1.251,0.25,2.13v6.553h1.535v-7.201
	c0-0.995-0.119-1.82-0.357-2.477C310.18,481.375,309.834,480.852,309.381,480.463z M318.516,490.054
	c-0.346-0.108-0.619-0.277-0.82-0.509c-0.203-0.23-0.35-0.547-0.443-0.951c-0.096-0.403-0.141-0.922-0.141-1.557v-5.86h4.973v-1.492
	h-4.973v-4.347h-1.537v4.347h-2.551v1.492h2.551v6.466c0,0.764,0.109,1.405,0.326,1.925c0.215,0.519,0.525,0.937,0.93,1.254
	c0.402,0.317,0.867,0.544,1.395,0.682c0.525,0.137,1.105,0.205,1.74,0.205h2.271v-1.492h-2.422
	C319.295,490.216,318.862,490.162,318.516,490.054z M337.784,489.589c-0.316,0-0.59,0.115-0.82,0.346s-0.346,0.505-0.346,0.822
	c0,0.316,0.115,0.591,0.346,0.821s0.504,0.346,0.82,0.346c0.318,0,0.592-0.115,0.822-0.346s0.346-0.505,0.346-0.821
	c0-0.317-0.115-0.592-0.346-0.822S338.102,489.589,337.784,489.589z M333.178,486.106c-0.346-0.303-0.785-0.565-1.318-0.789
	c-0.533-0.223-1.182-0.422-1.947-0.595l-0.799-0.173c-1.053-0.216-1.781-0.461-2.184-0.735c-0.404-0.273-0.607-0.678-0.607-1.211
	c0-0.504,0.238-0.904,0.715-1.2c0.475-0.295,1.174-0.443,2.098-0.443c0.793,0,1.477,0.076,2.055,0.228
	c0.576,0.151,1.217,0.421,1.924,0.811l0.691-1.405c-1.412-0.765-2.969-1.146-4.67-1.146c-0.635,0-1.223,0.076-1.764,0.228
	c-0.539,0.151-1.008,0.364-1.404,0.638s-0.711,0.605-0.941,0.994c-0.23,0.39-0.346,0.815-0.346,1.276
	c0,0.462,0.072,0.88,0.217,1.254c0.143,0.375,0.381,0.707,0.713,0.995s0.758,0.537,1.275,0.746c0.52,0.209,1.146,0.4,1.883,0.573
	l0.908,0.194c1.008,0.217,1.729,0.49,2.162,0.822c0.432,0.331,0.648,0.771,0.648,1.318c0,0.39-0.086,0.707-0.26,0.952
	c-0.172,0.245-0.414,0.436-0.725,0.573c-0.311,0.137-0.678,0.237-1.102,0.303c-0.426,0.064-0.877,0.097-1.352,0.097
	c-0.592,0-1.223-0.09-1.893-0.271c-0.67-0.18-1.352-0.479-2.045-0.897l-0.734,1.471c0.779,0.433,1.539,0.742,2.281,0.93
	s1.539,0.281,2.391,0.281c0.748,0,1.434-0.072,2.053-0.216c0.621-0.145,1.158-0.36,1.611-0.648c0.455-0.289,0.805-0.649,1.049-1.082
	c0.246-0.433,0.369-0.93,0.369-1.492c0-0.476-0.072-0.915-0.217-1.318C333.77,486.763,333.526,486.41,333.178,486.106z"/>
</svg>

