<?xml version="1.0" encoding="utf-8"?>
<!-- Generator: Adobe Illustrator 23.0.0, SVG Export Plug-In . SVG Version: 6.00 Build 0)  -->
<svg version="1.1" id="Layer_1" xmlns="http://www.w3.org/2000/svg" xmlns:xlink="http://www.w3.org/1999/xlink" x="0px" y="0px"
	 viewBox="0 0 1200 800" style="enable-background:new 0 0 1200 800;" xml:space="preserve">
<style type="text/css">
	.st0{fill:#231F20;}
	.st1{clip-path:url(#SVGID_2_);fill:#231F20;}
</style>
<g>
	<g>
		<g>
			<path fill="#000000" class="st0" d="M915.53,553.47c-0.95,2.11-2.07,4.16-3.23,6.17c-1.15,2.01-2.38,4-3.73,5.89c-0.16,0.21-1.92,2.5-2.04,2.15
				c-10.77-30.31-29.14-57.57-53.05-78.82l6.61-9.07l-10.45,5.72c-7.34-6.18-15.15-11.82-23.41-16.82
				c-14.85-9-30.83-16.1-47.46-21.12c-7.73-2.34-15.69-3.84-23.58-5.54c-22.76-4.93-45.77-10.42-66.91-20.44
				c-21.65-10.26-41.43-25.78-47.35-50.06c-3.67-15.04-3.37-30.66,1.55-45.39c2.52-7.56,6.06-14.96,10.27-21.83
				c1.26-2.06,1.02,2.36-1.36,6.06c0.29-0.39,0.48-0.66,0.61-0.85c0.01-0.01,0.01-0.01,0.01-0.01c0.01-0.01,0.01-0.01,0.01-0.02
				c0.12-0.2,0.3-0.49,0.54-0.88c-0.03,0.06-0.06,0.12-0.08,0.16c-0.05,0.07-0.08,0.13-0.09,0.15c0.01-0.01,0.04-0.06,0.09-0.15
				c0.06-0.09,0.14-0.23,0.26-0.43c-0.03,0.04-0.06,0.08-0.08,0.12c0.03-0.06,0.07-0.12,0.11-0.19c0.02-0.02,0.03-0.05,0.04-0.07
				c0,0,0.01,0,0.01-0.01c0.01-0.01,0.02-0.02,0.02-0.03c0.14-0.24,0.33-0.54,0.54-0.93c-0.1,0.15,0.31-0.57,0.59-1.09
				c0.04-0.05,0.06-0.1,0.08-0.14c0.03-0.04,0.05-0.08,0.07-0.11c0.05-0.12,0.11-0.23,0.17-0.34c0-0.01,0-0.02,0-0.02
				c0.01-0.01,0.01-0.02,0.02-0.03v-0.01c0.01-0.02,0.02-0.04,0.03-0.05c0-0.02,0.01-0.04,0.02-0.05c0,0.01,0,0.02-0.01,0.04
				c0.01-0.02,0.02-0.04,0.02-0.05c0-0.02,0.01-0.04,0.02-0.05c0,0.01-0.01,0.02-0.01,0.04c0.06-0.1,0.04-0.05-0.12,0.28
				c0,0.01,0,0.02-0.01,0.03c0,0,0,0.01-0.01,0.01c-0.01,0.03-0.02,0.05-0.02,0.06c-0.02,0.03-0.03,0.06-0.04,0.07
				c-0.01,0.01-0.01,0.02-0.01,0.03c-0.03,0.06-0.06,0.12-0.09,0.19c-0.73,1.62-0.64,1.35-1.38,3.38
				c-2.93,8.04-4.42,16.68-4.4,25.24c0.06,17.98,5.67,35.45,18.35,48.43c16.84,17.25,40.56,26.55,63.27,33.2
				c10.82,3.16,21.77,5.75,32.78,8.15c7.96,1.72,16.03,3.19,23.87,5.44c31.27,8.95,60.71,25.59,83.89,48.49
				c20.54,20.27,36.24,45.04,45.91,72.23C916.65,551.39,915.8,552.87,915.53,553.47z"/>
		</g>
	</g>
	<g>
		<g>
			<path fill="#000000" class="st0" d="M959.93,454.54c0.35,0.02-10.89,16.42-10.89,16.42s-44.37-8.93-80.1,4.96
				c-18.42,7.16-37.04,20.26-53.03,31.79c-21.67,15.63-40.42,35.05-62.81,49.66c-28.24,18.42-62.31,35.37-95.86,39.68
				c-32.83,4.23-68.72-3.01-96.19-25.5c-12.85-10.52-20.15-22.94-24.28-34.28C553.9,565.83,584.55,574,584.55,574
				c-33.78-18.34-46.8-42.68-51.66-59.28c-1.05-3.58-0.99-8.48,0.43-3.45c3.35,11.89,13.82,34.46,46.32,51.67
				c23.85,12.62,38.11,13.03,64.81,13.41c34.2,0.48,68.07-16.32,98.29-32.03c14.74-7.67,28.8-16.77,41.54-27.47
				c9.72-8.17,19.29-16.53,29.21-24.47c17.43-13.97,31.29-21.46,51.5-31.36C904.28,441.77,954.75,453.69,959.93,454.54z"/>
		</g>
	</g>
	<g>
		<path fill="#000000" class="st0" d="M898.06,525.92c-13.59-10.77-30.29-12.4-46.22-6.23c-16.04,6.22-29.36,18.47-42.63,29.05
			c-12.13,9.67-24.15,19.47-36.54,28.82c-14.54,10.97-36.86,28.58-65.22,41.3c-16.46,6.78-33.54,12.37-50.73,14.48
			c-0.97,0.12-1.94,0.21-2.91,0.31c-5.59,0.55-11.19,0.75-16.77,0.46c-26.67-1.38-43.99-4.35-68.28-16.07
			c-39.46-19.05-41.56-61.36-41.56-61.36s-0.03,0.1-0.08,0.29c-0.61,2.46-0.76,5-0.45,7.52c1.91,15.55,11.23,48.52,55,67.84
			c0,0-38.7-7.1-54.26-44.86c2.89,12.71,9.88,27.54,25.45,40.75c27.07,22.98,63.2,30.07,96.18,27.08l0,0l0,0
			c0.07-0.01,0.14-0.02,0.21-0.03c17.12-1.57,34.5-6.4,51.24-13.04c3.89-1.51,7.68-3.12,11.35-4.81c0.17-0.08,0.35-0.15,0.52-0.23v0
			l0,0c27.68-12.89,48.34-30.2,72.07-49.15c10.82-8.64,21.5-17.48,32.51-25.87c11.43-8.71,24.31-21.47,38.95-22.91
			c14.31-1.41,27.8-1.19,37.68,8.72c5.96,5.97,9.56,13.17,13.11,20.75c4.22-3.92,8.43-9.44,12.52-13.5
			c-3.92-9.41-6.26-16.04-13.1-28.16C904.86,524.88,900.16,527.58,898.06,525.92z"/>
	</g>
	<g>
		<g>
			<path fill="#000000" class="st0" d="M1083.39,473.09c0.74-1.45,1.25-2.9,1.09-4.04c-2.29-15.38-13.52-28.19-28.04-33.41
				c-14.81-5.31-31.27-0.01-42.22,10.71c-7.55,7.41-13.24,17.43-17.41,27.06c-3.2,7.39-4.36,14.99-3.35,22.99
				c0.98,7.75,4.34,15.13,9.13,21.26c3.98,5.09,9.08,8.43,14.58,11.62c1.71,1,3.42,2.01,5.16,2.94c1.53,0.8,10.96-16.49,9.86-17.07
				c-10.36-5.46-19.31-11.7-24.76-22.45c-3.33-6.57-4.79-13.99-4.35-21.32c0.14-2.48,0.54-5.03,1.28-7.45
				c1.08-1.22,2.32-2.33,3.56-3.4c11.41-9.83,27.3-12.56,41.22-6.86c13.33,5.47,23.37,18.2,25.48,32.42
				c0.05,0.31,1.93-2.03,2.05-2.15c1.36-1.88,2.57-3.88,3.73-5.89c0.22-0.39,0.51-0.85,0.84-1.36c-1.9-19.84-14.8-26.48-15.66-26.91
				C1077.29,453.94,1081.73,464.81,1083.39,473.09z M1003.26,465.23C1002.59,466.29,1002.4,466.31,1003.26,465.23L1003.26,465.23z"
				/>
		</g>
	</g>
	<g>
		<path fill="#000000" class="st0" d="M986.32,242.63c-0.03,1.13-0.04,1.73-0.04,1.73l-0.07-0.01c-0.16,2.09-0.39,4.18-0.67,6.26
			c-2.47,17.84-6.88,34.66-15.36,50.47c-8.54,15.93-19.98,30.96-33.13,43.45c-25.81,24.53-61.37,37.99-96.66,40.79
			c-75.87,6.05-144.72-33.32-198.37-83.65c-1.09-1.03,3.35-8.29,3.82-9.16c0,0,0.01-0.01,0.01-0.02
			c34.22,34.74,69.13,49.31,71.15,50.14c-30.71-15.66-53.27-36.91-68.42-54.72c1.26-2.02,2.55-3.9,2.83-3.63
			c1.08,1.01,2.16,2.02,3.24,3.02c53.93,49.6,123.95,88.52,199.54,80.22c35.46-3.9,71.39-24.94,92.97-53.67
			c7.07-9.43,24.85-35.36,27.25-75.12c0.06-1,0.58-8.05,0.34-12.37c-0.08-1.59-0.17-3.28-0.28-5.06c-0.1-3.57-0.62-7.49-1.03-11.77
			c-0.64-4.25-1.26-8.87-2.33-13.73c-2.02-9.73-5.14-20.58-9.87-31.91c-0.3-0.71-0.58-1.43-0.88-2.14c-0.3-0.72-0.65-1.42-0.97-2.13
			c-0.66-1.42-1.33-2.85-2-4.3c-0.64-1.47-1.44-2.87-2.18-4.32c-0.75-1.44-1.52-2.89-2.3-4.36c-0.84-1.43-1.67-2.87-2.53-4.32
			c-0.42-0.73-0.85-1.46-1.28-2.19c-0.44-0.72-0.92-1.43-1.38-2.15c-0.94-1.43-1.88-2.88-2.82-4.33c-0.97-1.45-2.03-2.84-3.04-4.28
			c-2-2.91-4.31-5.64-6.53-8.49c-1.13-1.41-2.38-2.74-3.57-4.13c-0.6-0.68-1.2-1.38-1.81-2.07c-0.6-0.7-1.28-1.34-1.91-2.01
			c-1.28-1.34-2.57-2.67-3.87-4.02c-1.35-1.3-2.72-2.57-4.1-3.88c-0.69-0.64-1.37-1.31-2.07-1.94c-0.72-0.61-1.45-1.23-2.17-1.86
			c-0.72-0.61-1.45-1.23-2.18-1.86c-0.73-0.62-1.44-1.28-2.21-1.85c-1.52-1.17-3.05-2.36-4.59-3.54c-0.38-0.3-0.76-0.6-1.15-0.89
			l-1.19-0.84c-0.81-0.56-1.6-1.11-2.41-1.67c-0.8-0.56-1.6-1.12-2.41-1.68c-0.81-0.56-1.65-1.05-2.49-1.58
			c-1.67-1.04-3.34-2.11-5.03-3.13c-6.86-3.99-14.09-7.52-21.59-10.59c-7.55-2.96-15.38-5.37-23.37-7.24
			c-2.02-0.41-4.03-0.82-6.05-1.22l-1.51-0.3c-0.51-0.1-1.01-0.15-1.51-0.23l-3.03-0.45c-2.02-0.3-4.02-0.63-6.14-0.78l-6.21-0.58
			c-8.24-0.45-16.53-0.39-24.74,0.32c-8.2,0.83-16.32,2.19-24.24,4.15c-7.9,2.07-15.59,4.64-22.99,7.73
			c-1.84,0.8-3.64,1.65-5.46,2.47c-0.91,0.42-1.83,0.8-2.7,1.26c-0.89,0.46-1.77,0.92-2.64,1.37c-0.88,0.46-1.76,0.91-2.63,1.37
			l-1.32,0.67c-0.43,0.23-0.85,0.5-1.28,0.74c-1.7,0.98-3.4,1.97-5.08,2.95c-0.86,0.47-1.65,1.03-2.47,1.55
			c-0.82,0.53-1.63,1.06-2.44,1.58c-0.82,0.53-1.62,1.05-2.43,1.58c-0.8,0.54-1.57,1.11-2.35,1.67c-1.55,1.12-3.11,2.22-4.64,3.36
			c-1.48,1.18-2.96,2.36-4.44,3.53c-0.72,0.59-1.49,1.14-2.17,1.78c-0.7,0.61-1.41,1.23-2.11,1.85c-1.38,1.23-2.82,2.42-4.14,3.68
			c-2.63,2.57-5.32,5.03-7.72,7.69c-1.21,1.32-2.48,2.58-3.64,3.92c-1.14,1.35-2.29,2.67-3.43,4c-0.56,0.67-1.14,1.32-1.68,1.99
			c-0.53,0.68-1.05,1.37-1.58,2.04c-1.06,1.36-2.1,2.7-3.14,4.04c-0.97,1.38-1.94,2.74-2.9,4.1c-0.95,1.37-1.95,2.68-2.8,4.08
			c-0.88,1.38-1.74,2.74-2.6,4.09c-0.42,0.68-0.87,1.34-1.27,2.03c-0.4,0.68-0.79,1.37-1.17,2.05
			c-6.33,10.86-10.96,21.47-14.33,31.12c-1.74,4.81-3,9.43-4.22,13.68c-1,4.32-2.05,8.25-2.64,11.89c-0.35,1.81-0.66,3.52-0.97,5.12
			c-0.22,1.62-0.43,3.14-0.63,4.56c-0.19,1.42-0.38,2.72-0.54,3.93c-0.14,1.2-0.21,2.3-0.31,3.29c-0.36,3.93-0.54,6.02-0.54,6.02
			s0.13-2.1,0.41-6.03c0.07-0.99,0.12-2.09,0.23-3.3c0.14-1.2,0.3-2.52,0.46-3.94c0.16-1.43,0.34-2.96,0.53-4.58
			c0.27-1.62,0.55-3.35,0.86-5.16c0.51-3.65,1.48-7.62,2.39-11.98c1.13-4.31,2.3-8.98,3.94-13.85c3.18-9.79,7.61-20.58,13.75-31.69
			c0.38-0.69,0.75-1.4,1.14-2.1c0.38-0.7,0.82-1.38,1.24-2.07c0.84-1.39,1.68-2.79,2.54-4.19c0.83-1.44,1.81-2.79,2.73-4.19
			c0.94-1.4,1.89-2.8,2.85-4.22c1.02-1.37,2.05-2.76,3.09-4.15c0.52-0.7,1.04-1.4,1.56-2.11c0.53-0.69,1.1-1.36,1.66-2.05
			c1.12-1.37,2.24-2.74,3.39-4.14c1.15-1.38,2.4-2.68,3.61-4.05c2.38-2.77,5.05-5.32,7.67-7.99c1.33-1.33,2.76-2.55,4.13-3.85
			c0.7-0.64,1.4-1.29,2.1-1.93c0.69-0.65,1.46-1.23,2.18-1.86c1.48-1.22,2.96-2.46,4.45-3.7c1.53-1.18,3.09-2.34,4.65-3.52
			c0.79-0.59,1.56-1.19,2.36-1.77c0.82-0.55,1.63-1.11,2.45-1.66c0.82-0.56,1.63-1.11,2.46-1.67c0.83-0.55,1.62-1.14,2.49-1.64
			c1.7-1.04,3.41-2.09,5.12-3.13c0.44-0.27,0.86-0.53,1.3-0.79l1.33-0.72c0.89-0.49,1.78-0.97,2.66-1.46
			c0.9-0.48,1.79-0.97,2.68-1.46c0.89-0.49,1.83-0.9,2.73-1.35c1.85-0.89,3.68-1.8,5.55-2.66c7.52-3.34,15.38-6.15,23.47-8.47
			c8.12-2.2,16.47-3.8,24.93-4.83c8.48-0.93,17.05-1.18,25.62-0.9l6.38,0.45c2.08,0.1,4.24,0.41,6.39,0.66l3.21,0.4
			c0.54,0.08,1.08,0.13,1.61,0.21l1.58,0.29c2.1,0.38,4.21,0.74,6.32,1.12c8.37,1.78,16.59,4.11,24.54,7.03
			c7.91,3.03,15.55,6.55,22.83,10.58c1.81,1.03,3.57,2.11,5.35,3.16c0.89,0.53,1.79,1.03,2.64,1.6c0.86,0.57,1.71,1.14,2.57,1.7
			c0.85,0.57,1.7,1.13,2.55,1.7l1.28,0.85c0.42,0.3,0.83,0.6,1.23,0.9c1.64,1.21,3.28,2.42,4.9,3.62c0.83,0.58,1.58,1.24,2.37,1.88
			c0.78,0.63,1.56,1.28,2.34,1.91c0.78,0.63,1.55,1.27,2.32,1.9c0.76,0.64,1.49,1.33,2.22,1.99c1.48,1.33,2.96,2.64,4.4,3.98
			c1.4,1.38,2.79,2.77,4.16,4.13c0.68,0.69,1.41,1.35,2.05,2.07c0.65,0.71,1.31,1.43,1.95,2.13c1.29,1.44,2.62,2.82,3.85,4.27
			c2.42,2.94,4.9,5.78,7.07,8.79c1.11,1.49,2.25,2.93,3.31,4.43c1.03,1.52,2.05,3.02,3.07,4.51c0.5,0.74,1.03,1.48,1.5,2.23
			c0.47,0.77,0.94,1.52,1.41,2.28c0.93,1.51,1.85,3.01,2.77,4.5c0.85,1.53,1.69,3.05,2.52,4.55c0.82,1.51,1.69,2.97,2.41,4.5
			c0.74,1.52,1.48,3.02,2.21,4.5c0.36,0.74,0.74,1.48,1.07,2.22c0.33,0.76,0.65,1.5,0.98,2.24c5.27,11.87,8.83,23.28,11.19,33.57
			c1.25,5.14,2.02,10.03,2.79,14.53c0.55,4.54,1.18,8.7,1.39,12.5c0.14,1.89,0.28,3.68,0.41,5.37c0.03,1,0.05,1.96,0.08,2.88
			C986.59,233.38,986.6,238.01,986.32,242.63z"/>
	</g>
	<g>
		<g>
			<path fill="#000000" class="st0" d="M836.79,552.95c0.29,8.56,2.97,16.5,9.06,22.67c5.11,5.18,12.04,8.32,19.04,9.96
				c6.79,1.6,13.53,1.53,20.21-0.57c12.89-4.04,21.35-14.76,28.06-25.92c0.92-1.53,1.87-3.07,2.58-4.71
				c-0.04,0.09,0.84-1.83-0.08-1.13c-2.75,2.06-4.83,6.01-6.55,8.88c0.71-1.19,3.1-4.02,1.1-1.82c-0.79,0.88-1.66,1.67-2.54,2.45
				c-1.79,1.57-3.78,2.9-5.82,4.11c-4.33,2.57-9.24,4.15-14.23,4.72c-5.16,0.58-10.56-0.29-15.52-1.69
				c-14.62-4.15-24.92-15.69-25.45-31.16c-0.03-0.9-0.79,0.07-1.07,0.38c-1.21,1.31-2.26,2.79-3.27,4.26
				c-1.31,1.89-2.56,3.83-3.7,5.83C838.14,550.01,836.75,551.91,836.79,552.95L836.79,552.95z"/>
		</g>
	</g>
	<g>
		<path fill="#000000" class="st0" d="M1108.17,489.72c-11.56,4.12-25.5,11.15-37.11,15.33c-29.39,9.9-60.33,15.54-91.46,14.22
			c-7.43-0.32-15.14-0.9-22.31-2.98c-7.9-2.3-15.02-6.91-20.74-12.76c-5.44-5.57-9.27-12.42-10.4-20.15
			c-0.53-3.58,1.38-10.21,3.73-13.33c1.52-2.02,2.68-4.3,3.88-6.53c0.93-1.72,1.87-3.49,2.55-5.33c0.03-0.07,0.8-1.93-0.16-1.24
			c-3.04,2.17-5.45,4.94-7.6,7.98c-3.93,5.55-7.43,11.64-9.98,17.96c-2.74,6.76-3.26,13.91-1.62,21
			c3.61,15.66,19.35,27.12,34.32,30.45c16.54,3.69,34.62,2.43,51.31,0.69c15.73-1.64,31.18-4.28,46.35-8.84
			c5.52-1.66,10.98-3.52,16.41-5.47c12.96-4.44,21.58-9.02,32.82-13.63c2.45-1.01,4.68-6.11,5.88-8.18
			c1.18-2.04,2.32-4.13,3.29-6.28C1107.18,492.92,1108.5,489.6,1108.17,489.72z"/>
	</g>
	<g>
		<path fill="#000000" class="st0" d="M530.34,498.46l-0.23-0.4C530.08,495.18,530.5,494.94,530.34,498.46z"/>
	</g>
	<g>
		<g>
			<path fill="#000000" class="st0" d="M521.02,432.5c0.35,0.02-10.89,16.43-10.89,16.43s-44.36-8.94-80.09,4.95
				c-18.43,7.16-37.04,20.26-53.04,31.8c-21.66,15.62-40.41,35.04-62.8,49.65c-28.24,18.42-62.31,35.37-95.86,39.69
				c-32.85,4.22-67.79-4.19-96.19-25.51c-13.62-10.22-24.55-27.02-28.61-43.93c-1.57-6.51-2.2-13.38-1.43-20.06
				c3.54,30.63,34.65,49.63,35.67,50.24c-42.7-38.71-28.86-70.34-22.92-79.97c0.02-0.04,0.04-0.07,0.06-0.1
				c0.56-0.81,1.12-1.6,1.69-2.39c1.15-1.59,2.29-3.22,3.63-4.66c-0.07,0.08,1.48-1.64,1.18-0.41c-0.74,3.07-3.04,6.28-5.03,8.98
				c-0.1,0.23-0.2,0.47-0.31,0.7c-0.62,1.53-1.18,3.08-1.6,4.68c-0.86,3.23-1.46,6.53-1.64,9.87c-0.39,6.97,0.48,14,2.7,20.62
				c4.37,13.06,12.89,28.08,23.75,36.43c21.4,16.43,48.87,23.75,75.58,24.12c34.21,0.48,68.73-15.65,98.95-31.38
				c14.74-7.67,28.8-16.76,41.54-27.47c9.72-8.16,43.49-37.12,80.71-52.89C467.11,424.54,517.72,431.96,521.02,432.5z"/>
		</g>
	</g>
	<g>
		<g>
			<path fill="#000000" class="st0" d="M766.7,474.36c-8.72,11.01-11.34,23.53-25.77,25.2c-10.35,1.19-24.51-4.32-25.9-16.98
				c-0.48,0.16-0.85,0.48-1.1,0.99c-1.25,1.63-2.31,3.46-3.34,5.25c-2.07,3.63-5.99,8.8-7.59,9.86c-3.77,2.5-8.12,3.65-12.5,3.89
				c-8.51,0.48-17.21-3.61-22.65-10.63c-0.41-0.53-5.53,8.21-5.78,8.67c-0.58,1.08-5.12,8.37-4.07,9.73
				c7.75,9.98,21.05,13.17,32.16,8.39c5.37-2.31,9.69-6.45,13.09-11.42c4.94-7.23,9.55-15.56,11.84-24.25
				c-3.3,5.97-6.6,11.95-9.9,17.92c1.49,13.55,16.86,18.49,27.58,16.76c20.14-3.27,34.31-35.11,36.29-39.35
				C769.31,477.78,769.18,471.22,766.7,474.36L766.7,474.36z"/>
		</g>
	</g>
	<g>
		<g>
			<path fill="#000000" class="st0" d="M670.08,486.72c-8.42,9.37-17.23,18.82-29.65,21.12c-11.01,2.04-20.95-5.99-23.25-17.57
				c-0.08-0.42-2.5,2.91-2.28,2.59c-1.51,2.27-2.87,4.66-4.17,7.08c-1.27,2.37-5.14,7.87-4.54,10.85
				c2.4,12.08,12.14,18.94,23.25,17.57c12.55-1.54,22.25-12.3,30.55-21.54c3.1-3.45,5.33-8.02,7.43-12.21
				c1.04-2.07,2.09-4.19,2.85-6.41C670.12,488.6,671.16,485.52,670.08,486.72L670.08,486.72z"/>
		</g>
	</g>
	<g>
		<path fill="#000000" class="st0" d="M644.73,471.71c-11.5,4.12-25.39,11.15-36.94,15.33c-12.63,4.27-25.54,7.74-38.63,10.21
			c-0.01-0.04-0.03-0.07-0.06-0.09c-10.32-5.46-19.22-11.7-24.65-22.46c-3.32-6.57-4.76-13.98-4.33-21.32
			c0.14-2.48,0.54-5.03,1.27-7.45c1.08-1.21,2.31-2.32,3.55-3.39c11.36-9.84,27.18-12.57,41.04-6.86
			c13.26,5.47,23.26,18.19,25.37,32.42c0.04,0.31,1.91-2.03,2.03-2.15c1.35-1.89,2.56-3.88,3.71-5.89c0.15-0.27,0.34-0.57,0.55-0.9
			c-2.07-19.42-14.74-25.95-15.61-26.37c11.51,4.07,16,14.65,17.72,22.89c0.9-1.64,1.59-3.35,1.4-4.65
			c-2.28-15.38-13.46-28.19-27.91-33.4c-14.74-5.31-31.14-0.01-42.03,10.71c-7.53,7.4-13.19,17.43-17.35,27.05
			c-3.18,7.4-4.33,15-3.33,22.99c0.97,7.76,4.32,15.13,9.09,21.26c0.33,0.44,0.69,0.86,1.04,1.27c-7.95,0.54-15.93,0.67-23.93,0.33
			c-7.4-0.32-15.07-0.9-22.21-2.98c-7.86-2.3-14.95-6.91-20.65-12.76c-5.42-5.57-9.23-12.42-10.36-20.15
			c-0.52-3.58,1.14-9.02,3.71-13.33c1.29-2.17,2.67-4.3,3.86-6.53c0.93-1.72,1.86-3.49,2.54-5.33c0.03-0.07,0.8-1.93-0.16-1.24
			c-3.03,2.17-5.42,4.94-7.56,7.98c-3.91,5.55-7.39,11.64-9.94,17.96c-2.72,6.76-3.24,13.91-1.62,21
			c3.59,15.66,19.26,27.12,34.16,30.45c16.47,3.69,34.47,2.43,51.08,0.69c15.66-1.64,31.04-4.28,46.14-8.84
			c5.5-1.66,10.93-3.52,16.34-5.47c12.9-4.44,21.48-9.02,32.67-13.63c2.44-1.01,4.66-6.11,5.85-8.18c1.17-2.04,2.31-4.13,3.27-6.28
			C643.75,474.91,645.06,471.6,644.73,471.71z M540.29,447.22C539.62,448.29,539.44,448.31,540.29,447.22L540.29,447.22z"/>
	</g>
	<g>
		<g>
			<path fill="#000000" class="st0" d="M232.89,497.15v0.01c-0.05,0.12-0.1,0.24-0.15,0.37c-1.7,3.99-4.06,7.9-6.59,11.42
				c-0.01,0.01-1.49,2.29-1.94,2.04c-0.05-0.03-0.08-0.09-0.08-0.17c-0.04-0.27,0.12-0.77,0.31-1.26c0.03-0.08,0.06-0.16,0.1-0.24
				c0.11-0.28,0.23-0.55,0.32-0.73c0.03-0.08,0.06-0.14,0.08-0.18c0.04-0.07,0.06-0.11,0.06-0.11c1.45-3.4,2.09-6.88,2.09-10.38
				c0-0.37-0.01-0.72-0.02-1.09c-0.01-0.24-0.02-0.5-0.04-0.75c-0.02-0.3-0.04-0.61-0.07-0.91c-0.01-0.2-0.04-0.41-0.06-0.61
				c-0.02-0.25-0.05-0.5-0.09-0.74c-0.02-0.16-0.04-0.31-0.07-0.48c-0.26-1.83-0.7-3.65-1.25-5.45c-0.19-0.6-0.39-1.19-0.6-1.77
				c-0.3-0.86-0.64-1.71-1-2.57c-0.39-0.9-0.8-1.79-1.24-2.68c-0.13-0.28-0.27-0.57-0.43-0.85c-0.15-0.28-0.29-0.57-0.45-0.84
				c-0.29-0.56-0.61-1.13-0.93-1.67c-0.15-0.27-0.31-0.55-0.49-0.82c-0.15-0.27-0.32-0.55-0.5-0.82c-0.67-1.08-1.37-2.14-2.09-3.17
				c-0.36-0.52-0.72-1.02-1.1-1.52c-0.18-0.25-0.38-0.51-0.56-0.75c-1.33-1.76-2.72-3.44-4.11-5c-4.39-4.92-9.2-9.34-14.2-13.54
				c-0.99-0.84-2.01-1.67-3.02-2.49c-1.98-1.61-3.99-3.2-6-4.79c-0.05-0.04-0.1-0.08-0.15-0.12c-0.98-0.77,3.46-7.85,3.85-8.54
				c0.07-0.13,0.47-0.8,1.01-1.69c0.47,0.24,0.92,0.49,1.38,0.74c1.82,0.97,3.56,2,5.22,3.05c0.38,0.23,0.74,0.47,1.1,0.71
				c1.2,0.78,2.35,1.58,3.46,2.4c1.6,1.18,3.1,2.37,4.51,3.6c0.44,0.37,0.86,0.75,1.28,1.13c1.76,1.6,3.37,3.24,4.79,4.86
				c0.02,0.02,0.04,0.03,0.04,0.05c0.45,0.52,0.88,1.03,1.29,1.54c0.21,0.26,0.42,0.53,0.62,0.79c1.42,1.85,2.6,3.66,3.5,5.43
				c-0.1-0.4-0.22-0.79-0.36-1.19c-0.09-0.3-0.2-0.61-0.32-0.91c-0.1-0.28-0.21-0.57-0.35-0.84c-0.03-0.08-0.06-0.16-0.1-0.24
				c-4.4-10.09-16.15-19.63-23.58-24.93c0.91-1.33,1.73-2.31,2-2.1c9.18,7.2,18.31,14.53,25.69,23.66
				c4.82,5.93,8.88,12.46,11.04,19.85C237.3,480.7,236.44,488.73,232.89,497.15z"/>
		</g>
		<g>
			<path fill="#000000" class="st0" d="M232.89,497.15v0.01c-0.05,0.12-0.1,0.24-0.15,0.37c-1.7,3.99-4.06,7.9-6.59,11.42
				c-0.01,0.01-1.49,2.29-1.94,2.04c-0.05-0.03-0.08-0.09-0.08-0.17c-0.04-0.27,0.12-0.77,0.31-1.26c0.03-0.08,0.06-0.16,0.1-0.24
				c0.11-0.28,0.23-0.55,0.32-0.73c0.03-0.08,0.06-0.14,0.08-0.18c0.04-0.07,0.06-0.11,0.06-0.11c1.45-3.4,2.09-6.88,2.09-10.38
				c0-0.37-0.01-0.72-0.02-1.09c-0.01-0.24-0.02-0.5-0.04-0.75c-0.02-0.3-0.04-0.61-0.07-0.91c-0.01-0.2-0.04-0.41-0.06-0.61
				c-0.02-0.25-0.05-0.5-0.09-0.74c-0.02-0.16-0.04-0.31-0.07-0.48c-0.26-1.83-0.7-3.65-1.25-5.45c-0.19-0.6-0.39-1.19-0.6-1.77
				c-0.3-0.86-0.64-1.71-1-2.57c-0.39-0.9-0.8-1.79-1.24-2.68c-0.13-0.28-0.27-0.57-0.43-0.85c-0.15-0.28-0.29-0.57-0.45-0.84
				c-0.29-0.56-0.61-1.13-0.93-1.67c-0.15-0.27-0.31-0.55-0.49-0.82c-0.15-0.27-0.32-0.55-0.5-0.82c-0.67-1.08-1.37-2.14-2.09-3.17
				c-0.36-0.52-0.72-1.02-1.1-1.52c-0.18-0.25-0.38-0.51-0.56-0.75c-1.33-1.76-2.72-3.44-4.11-5c-4.39-4.92-9.2-9.34-14.2-13.54
				c-0.99-0.84-2.01-1.67-3.02-2.49c-1.98-1.61-3.99-3.2-6-4.79c-0.05-0.04-0.1-0.08-0.15-0.12c-0.98-0.77,3.46-7.85,3.85-8.54
				c0.07-0.13,0.47-0.8,1.01-1.69c0.47,0.24,0.92,0.49,1.38,0.74c1.82,0.97,3.56,2,5.22,3.05c0.38,0.23,0.74,0.47,1.1,0.71
				c1.2,0.78,2.35,1.58,3.46,2.4c1.6,1.18,3.1,2.37,4.51,3.6c0.44,0.37,0.86,0.75,1.28,1.13c1.76,1.6,3.37,3.24,4.79,4.86
				c0.02,0.02,0.04,0.03,0.04,0.05c0.45,0.52,0.88,1.03,1.29,1.54c0.21,0.26,0.42,0.53,0.62,0.79c1.42,1.85,2.6,3.66,3.5,5.43
				c-0.1-0.4-0.22-0.79-0.36-1.19c-0.09-0.3-0.2-0.61-0.32-0.91c-0.1-0.28-0.21-0.57-0.35-0.84c-0.03-0.08-0.06-0.16-0.1-0.24
				c-4.4-10.09-16.15-19.63-23.58-24.93c0.91-1.33,1.73-2.31,2-2.1c9.18,7.2,18.31,14.53,25.69,23.66
				c4.82,5.93,8.88,12.46,11.04,19.85C237.3,480.7,236.44,488.73,232.89,497.15z"/>
		</g>
		<g>
			<path fill="#000000" class="st0" d="M232.89,497.15v0.01c-0.05,0.12-0.1,0.24-0.15,0.37c-1.7,3.99-4.06,7.9-6.59,11.42
				c-0.01,0.01-1.49,2.29-1.94,2.04c-0.05-0.03-0.08-0.09-0.08-0.17c-0.04-0.27,0.12-0.77,0.31-1.26c0.03-0.08,0.06-0.16,0.1-0.24
				c0.11-0.28,0.23-0.55,0.32-0.73c0.03-0.08,0.06-0.14,0.08-0.18c0.04-0.07,0.06-0.11,0.06-0.11c1.45-3.4,2.09-6.88,2.09-10.38
				c0-0.37-0.01-0.72-0.02-1.09c-0.01-0.24-0.02-0.5-0.04-0.75c-0.02-0.3-0.04-0.61-0.07-0.91c-0.01-0.2-0.04-0.41-0.06-0.61
				c-0.02-0.25-0.05-0.5-0.09-0.74c-0.02-0.16-0.04-0.31-0.07-0.48c-0.26-1.83-0.7-3.65-1.25-5.45c-0.19-0.6-0.39-1.19-0.6-1.77
				c-0.3-0.86-0.64-1.71-1-2.57c-0.39-0.9-0.8-1.79-1.24-2.68c-0.13-0.28-0.27-0.57-0.43-0.85c-0.15-0.28-0.29-0.57-0.45-0.84
				c-0.29-0.56-0.61-1.13-0.93-1.67c-0.15-0.27-0.31-0.55-0.49-0.82c-0.15-0.27-0.32-0.55-0.5-0.82c-0.67-1.08-1.37-2.14-2.09-3.17
				c-0.36-0.52-0.72-1.02-1.1-1.52c-0.18-0.25-0.38-0.51-0.56-0.75c-1.33-1.76-2.72-3.44-4.11-5c-4.39-4.92-9.2-9.34-14.2-13.54
				c-1-0.84-2.01-1.67-3.02-2.49c-1.98-1.61-3.99-3.2-6-4.79c-0.05-0.04-0.1-0.08-0.15-0.12c-0.98-0.77,3.46-7.85,3.85-8.54
				c0.07-0.13,0.47-0.8,1.01-1.69c0.47,0.24,0.92,0.49,1.38,0.74c1.82,0.97,3.56,2,5.22,3.05c0.38,0.23,0.74,0.47,1.1,0.71
				c1.2,0.78,2.35,1.58,3.46,2.4c1.6,1.18,3.1,2.37,4.51,3.6c0.44,0.37,0.86,0.75,1.28,1.13c1.76,1.6,3.37,3.24,4.79,4.86
				c0.02,0.02,0.04,0.03,0.04,0.05c0.45,0.52,0.88,1.03,1.29,1.54c0.21,0.26,0.42,0.53,0.62,0.79c1.42,1.85,2.6,3.66,3.5,5.43
				c-0.1-0.4-0.22-0.79-0.36-1.19c-0.09-0.3-0.2-0.61-0.32-0.91c-0.1-0.28-0.22-0.56-0.35-0.84c-0.03-0.08-0.06-0.16-0.1-0.24
				c0.71,0.81,1.4,1.63,2.08,2.46c1.35,1.66,2.63,3.37,3.83,5.13l0,0c0.03,0.05,0.06,0.09,0.09,0.14c0.33,0.48,0.66,0.97,0.97,1.46
				c0.4,0.61,0.78,1.23,1.15,1.85c0.36,0.59,0.7,1.18,1.02,1.78c0.27,0.5,0.54,1,0.8,1.51c0.36,0.71,0.7,1.43,1.02,2.16
				c0.12,0.26,0.23,0.52,0.34,0.78c0.17,0.39,0.32,0.78,0.48,1.18c0.15,0.37,0.29,0.74,0.43,1.12c0.13,0.33,0.24,0.67,0.36,1.01
				c0.07,0.2,0.14,0.41,0.2,0.61c0.12,0.37,0.23,0.73,0.35,1.11C234.67,484.47,234.62,490.77,232.89,497.15z"/>
		</g>
	</g>
	<g>
		<g>
			<g>
				<g>
					<path fill="#000000" class="st0" d="M446.71,532.74c-2,2.49-4.07,4.92-6.17,7.33c-0.25,0.29-2.56,2.7-4.82,5.07c-1.8-2.35-4.6-5.35-8.35-7.35
						c0,0,4.74,3.97,7.38,8.36c-1.9,2-3.53,3.71-3.53,3.75c-2.54-4.55-6.34-7.59-10.64-10.39c-3.67-2.39-7.2-4.79-9.46-8.65
						c-0.22-0.38,2.35-3.3,2.3-3.25c1.16-1.44,2.34-2.86,3.54-4.27c0.85-1,1.7-1.98,2.56-2.97c0.01-0.02,0.03-0.03,0.05-0.06
						c0.01-0.01,0.01-0.02,0.03-0.03c0.01-0.02,0.04-0.04,0.07-0.08c0.06-0.07,0.15-0.17,0.27-0.29c0.19-0.2,0.43-0.47,0.73-0.78
						c0.12-0.13,0.25-0.27,0.38-0.41c1.41-1.5,3.58-3.78,5.28-5.57c0.17-0.19,0.35-0.37,0.51-0.54c0.32-0.34,0.61-0.64,0.88-0.92
						c0.08-0.08,0.16-0.17,0.23-0.24c0.07-0.08,0.14-0.15,0.21-0.22c0.13-0.14,0.24-0.26,0.34-0.36c0.1-0.1,0.18-0.2,0.25-0.27
						c0.06-0.07,0.1-0.12,0.13-0.14c0.01-0.01,0.01-0.02,0.01-0.02c0.3,0.51,0.62,1,0.96,1.46c0.34,0.46,0.7,0.9,1.08,1.32
						c0.19,0.21,0.38,0.42,0.58,0.61c0.19,0.2,0.39,0.4,0.6,0.59c0,0,0,0,0.01,0c0.4,0.39,0.82,0.76,1.26,1.12h0.01
						c0.43,0.36,0.87,0.71,1.33,1.04c0.24,0.17,0.49,0.35,0.73,0.53c0.22,0.15,0.43,0.31,0.66,0.45c0.71,0.49,1.42,0.96,2.14,1.45
						c0.24,0.15,0.48,0.31,0.72,0.47c0.33,0.22,0.66,0.43,0.98,0.66c0.93,0.63,1.82,1.29,2.68,1.98c0.34,0.28,0.67,0.56,0.99,0.84
						c0.29,0.25,0.57,0.5,0.85,0.77c0.28,0.26,0.55,0.52,0.82,0.8c0.27,0.27,0.52,0.54,0.78,0.83c1.11,1.24,2.1,2.58,2.95,4.11
						C449.24,529.88,446.68,532.77,446.71,532.74z"/>
				</g>
			</g>
			<g>
				<g>
					<path fill="#000000" class="st0" d="M446.07,525.38l-11.29,12.27c0,0-6.06-7.07-9.81-7.79c-2.56-0.49-6.05-4.19-8.01-6.51
						c0.87-1.03,1.75-2.04,2.63-3.06c0.49-0.56,9.31-9.81,9.31-9.84c2.41,4.09,6.22,6.5,10.08,9.05
						C441.63,521.25,444.04,523.11,446.07,525.38z"/>
				</g>
			</g>
		</g>
	</g>
	<g>
		<g>
			<g>
				<g>
					<path fill="#000000" class="st0" d="M410.75,532.74c-2,2.49-4.07,4.92-6.17,7.33c-0.25,0.29-2.56,2.7-4.82,5.07c-1.8-2.35-4.6-5.35-8.35-7.35
						c0,0,4.74,3.97,7.38,8.36c-1.9,2-3.53,3.71-3.53,3.75c-2.54-4.55-6.34-7.59-10.64-10.39c-3.67-2.39-7.2-4.79-9.46-8.65
						c-0.22-0.38,2.35-3.3,2.3-3.25c1.16-1.44,2.34-2.86,3.54-4.27c0.85-1,1.7-1.98,2.56-2.97c0.01-0.02,0.03-0.03,0.05-0.06
						c0.01-0.01,0.01-0.02,0.03-0.03c0.01-0.02,0.04-0.04,0.07-0.08c0.06-0.07,0.15-0.17,0.27-0.29c0.19-0.2,0.43-0.47,0.73-0.78
						c0.12-0.13,0.25-0.27,0.38-0.41c1.41-1.5,3.58-3.78,5.28-5.57c0.17-0.19,0.35-0.37,0.51-0.54c0.32-0.34,0.61-0.64,0.88-0.92
						c0.08-0.08,0.16-0.17,0.23-0.24c0.07-0.08,0.14-0.15,0.21-0.22c0.13-0.14,0.24-0.26,0.34-0.36c0.1-0.1,0.18-0.2,0.25-0.27
						c0.06-0.07,0.1-0.12,0.13-0.14c0.01-0.01,0.01-0.02,0.01-0.02c0.3,0.51,0.62,1,0.96,1.46c0.34,0.46,0.7,0.9,1.08,1.32
						c0.19,0.21,0.38,0.42,0.58,0.61c0.19,0.2,0.39,0.4,0.6,0.59c0,0,0,0,0.01,0c0.4,0.39,0.82,0.76,1.26,1.12h0.01
						c0.43,0.36,0.87,0.71,1.33,1.04c0.24,0.17,0.49,0.35,0.73,0.53c0.22,0.15,0.43,0.31,0.66,0.45c0.71,0.49,1.42,0.96,2.14,1.45
						c0.24,0.15,0.48,0.31,0.72,0.47c0.33,0.22,0.66,0.43,0.98,0.66c0.93,0.63,1.82,1.29,2.68,1.98c0.34,0.28,0.67,0.56,0.99,0.84
						c0.29,0.25,0.57,0.5,0.85,0.77c0.28,0.26,0.55,0.52,0.82,0.8c0.27,0.27,0.52,0.54,0.78,0.83c1.11,1.24,2.1,2.58,2.95,4.11
						C413.28,529.88,410.72,532.77,410.75,532.74z"/>
				</g>
			</g>
			<g>
				<g>
					<path fill="#000000" class="st0" d="M410.11,525.38l-11.29,12.27c0,0-6.06-7.07-9.81-7.79c-2.56-0.49-6.05-4.19-8.01-6.51
						c0.87-1.03,1.75-2.04,2.63-3.06c0.49-0.56,9.31-9.81,9.31-9.84c2.41,4.09,6.22,6.5,10.08,9.05
						C405.67,521.25,408.09,523.11,410.11,525.38z"/>
				</g>
			</g>
		</g>
	</g>
	<g>
		<g>
			<g>
				<g>
					<g>
						<path fill="#000000" class="st0" d="M1006.51,575.74c-2,2.49-4.07,4.92-6.17,7.33c-0.25,0.29-2.56,2.7-4.82,5.07
							c-1.8-2.35-4.6-5.35-8.35-7.35c0,0,4.74,3.97,7.38,8.36c-1.9,2-3.53,3.71-3.53,3.75c-2.54-4.55-6.34-7.59-10.64-10.39
							c-3.67-2.39-7.2-4.79-9.46-8.65c-0.22-0.38,2.35-3.3,2.3-3.25c1.16-1.44,2.34-2.86,3.54-4.27c0.85-1,1.7-1.98,2.56-2.97
							c0.01-0.02,0.03-0.03,0.05-0.06c0.01-0.01,0.01-0.02,0.03-0.03c0.01-0.02,0.04-0.04,0.07-0.08c0.06-0.07,0.15-0.17,0.27-0.29
							c0.19-0.2,0.43-0.47,0.73-0.78c0.12-0.13,0.25-0.27,0.38-0.41c1.41-1.5,3.58-3.78,5.28-5.57c0.17-0.19,0.35-0.37,0.51-0.54
							c0.32-0.34,0.61-0.64,0.88-0.92c0.08-0.08,0.16-0.17,0.23-0.24c0.07-0.08,0.14-0.15,0.21-0.22c0.13-0.14,0.24-0.26,0.34-0.36
							s0.18-0.2,0.25-0.27c0.06-0.07,0.1-0.12,0.13-0.14c0.01-0.01,0.01-0.02,0.01-0.02c0.3,0.51,0.62,1,0.96,1.46
							c0.34,0.46,0.7,0.9,1.08,1.32c0.19,0.21,0.38,0.42,0.58,0.61c0.19,0.2,0.39,0.4,0.6,0.59c0,0,0,0,0.01,0
							c0.4,0.39,0.82,0.76,1.26,1.12h0.01c0.43,0.36,0.87,0.71,1.33,1.04c0.24,0.17,0.49,0.35,0.73,0.53
							c0.22,0.15,0.43,0.31,0.66,0.45c0.71,0.49,1.42,0.96,2.14,1.45c0.24,0.15,0.48,0.31,0.72,0.47c0.33,0.22,0.66,0.43,0.98,0.66
							c0.93,0.63,1.82,1.29,2.68,1.98c0.34,0.28,0.67,0.56,0.99,0.84c0.29,0.25,0.57,0.5,0.85,0.77c0.28,0.26,0.55,0.52,0.82,0.8
							c0.27,0.27,0.52,0.54,0.78,0.83c1.11,1.24,2.1,2.58,2.95,4.11C1009.04,572.88,1006.48,575.78,1006.51,575.74z"/>
					</g>
				</g>
				<g>
					<g>
						<path fill="#000000" class="st0" d="M1005.87,568.38l-11.29,12.27c0,0-6.06-7.07-9.81-7.79c-2.56-0.49-6.05-4.19-8.01-6.51
							c0.87-1.03,1.75-2.04,2.63-3.06c0.49-0.56,9.31-9.81,9.31-9.84c2.41,4.09,6.22,6.5,10.08,9.05
							C1001.43,564.25,1003.84,566.11,1005.87,568.38z"/>
					</g>
				</g>
			</g>
		</g>
		<g>
			<g>
				<g>
					<g>
						<path fill="#000000" class="st0" d="M970.55,575.74c-2,2.49-4.07,4.92-6.17,7.33c-0.25,0.29-2.56,2.7-4.82,5.07c-1.8-2.35-4.6-5.35-8.35-7.35
							c0,0,4.74,3.97,7.38,8.36c-1.9,2-3.53,3.71-3.53,3.75c-2.54-4.55-6.34-7.59-10.64-10.39c-3.67-2.39-7.2-4.79-9.46-8.65
							c-0.22-0.38,2.35-3.3,2.3-3.25c1.16-1.44,2.34-2.86,3.54-4.27c0.85-1,1.7-1.98,2.56-2.97c0.01-0.02,0.03-0.03,0.05-0.06
							c0.01-0.01,0.01-0.02,0.03-0.03c0.01-0.02,0.04-0.04,0.07-0.08c0.06-0.07,0.15-0.17,0.27-0.29c0.19-0.2,0.43-0.47,0.73-0.78
							c0.12-0.13,0.25-0.27,0.38-0.41c1.41-1.5,3.58-3.78,5.28-5.57c0.17-0.19,0.35-0.37,0.51-0.54c0.32-0.34,0.61-0.64,0.88-0.92
							c0.08-0.08,0.16-0.17,0.23-0.24c0.07-0.08,0.14-0.15,0.21-0.22c0.13-0.14,0.24-0.26,0.34-0.36c0.1-0.1,0.18-0.2,0.25-0.27
							c0.06-0.07,0.1-0.12,0.13-0.14c0.01-0.01,0.01-0.02,0.01-0.02c0.3,0.51,0.62,1,0.96,1.46c0.34,0.46,0.7,0.9,1.08,1.32
							c0.19,0.21,0.38,0.42,0.58,0.61c0.19,0.2,0.39,0.4,0.6,0.59c0,0,0,0,0.01,0c0.4,0.39,0.82,0.76,1.26,1.12h0.01
							c0.43,0.36,0.87,0.71,1.33,1.04c0.24,0.17,0.49,0.35,0.73,0.53c0.22,0.15,0.43,0.31,0.66,0.45c0.71,0.49,1.42,0.96,2.14,1.45
							c0.24,0.15,0.48,0.31,0.72,0.47c0.33,0.22,0.66,0.43,0.98,0.66c0.93,0.63,1.82,1.29,2.68,1.98c0.34,0.28,0.67,0.56,0.99,0.84
							c0.29,0.25,0.57,0.5,0.85,0.77c0.28,0.26,0.55,0.52,0.82,0.8c0.27,0.27,0.52,0.54,0.78,0.83c1.11,1.24,2.1,2.58,2.95,4.11
							C973.08,572.88,970.52,575.78,970.55,575.74z"/>
					</g>
				</g>
				<g>
					<g>
						<path fill="#000000" class="st0" d="M969.91,568.38l-11.29,12.27c0,0-6.06-7.07-9.81-7.79c-2.56-0.49-6.05-4.19-8.01-6.51
							c0.87-1.03,1.75-2.04,2.63-3.06c0.49-0.56,9.31-9.81,9.31-9.84c2.41,4.09,6.22,6.5,10.08,9.05
							C965.47,564.25,967.88,566.11,969.91,568.38z"/>
					</g>
				</g>
			</g>
		</g>
	</g>
	<g>
		<g>
			<g>
				<g>
					<path fill="#000000" class="st0" d="M655.06,227.66c-0.89,1.11-1.81,2.19-2.74,3.26c-0.12,0.13-1.26,1.33-2.32,2.44
						c-0.8-1.01-1.99-2.21-3.53-3.03c0,0,1.93,1.62,3.12,3.46c-0.78,0.82-1.42,1.49-1.42,1.51c-1.13-2.03-2.82-3.37-4.73-4.62
						c-1.63-1.06-3.2-2.13-4.21-3.85c-0.1-0.17,1.04-1.47,1.03-1.44c0.52-0.64,1.04-1.27,1.57-1.9c0.38-0.44,0.75-0.88,1.14-1.32
						c0.01-0.01,0.02-0.02,0.02-0.02c0,0,0.01-0.01,0.01-0.01c0.04-0.05,0.22-0.24,0.48-0.51c0.05-0.06,0.11-0.12,0.17-0.18
						c0.03-0.03,0.06-0.06,0.09-0.1c0.1-0.11,0.21-0.22,0.32-0.34c1.23-1.3,3.08-3.25,3.08-3.25c0.07,0.11,0.14,0.22,0.21,0.33
						c0.06,0.09,0.12,0.18,0.19,0.27c0.02,0.03,0.05,0.07,0.07,0.1c0.07,0.09,0.13,0.17,0.2,0.25c0.06,0.07,0.12,0.15,0.18,0.21
						c0.03,0.04,0.07,0.07,0.1,0.11c0.07,0.08,0.15,0.16,0.22,0.24c0.08,0.09,0.18,0.18,0.27,0.26c0.18,0.17,0.37,0.34,0.56,0.5
						c0.19,0.16,0.39,0.31,0.59,0.46c0.1,0.07,0.21,0.15,0.31,0.22c0.1,0.07,0.21,0.15,0.31,0.22c0.21,0.15,0.42,0.29,0.63,0.43
						c0.21,0.14,0.43,0.28,0.64,0.42c0.15,0.1,0.29,0.2,0.43,0.3c0.14,0.1,0.29,0.2,0.43,0.3c0.14,0.1,0.28,0.2,0.41,0.31
						c0.14,0.1,0.27,0.21,0.4,0.31c0.13,0.11,0.25,0.21,0.38,0.32c0.01,0.01,0.02,0.02,0.04,0.03c0.12,0.1,0.24,0.21,0.35,0.32
						c0.12,0.11,0.25,0.23,0.36,0.35c0.12,0.12,0.23,0.24,0.34,0.37c0.49,0.55,0.93,1.15,1.31,1.83
						C656.18,226.39,655.05,227.67,655.06,227.66z"/>
				</g>
			</g>
			<g>
				<g>
					<path fill="#000000" class="st0" d="M654.77,224.39l-5.02,5.46c0,0-2.69-3.14-4.36-3.46c-1.14-0.22-2.69-1.86-3.56-2.89
						c0.39-0.46,0.78-0.91,1.17-1.36c0.22-0.25,4.14-4.36,4.14-4.38c1.07,1.82,2.77,2.89,4.48,4.03
						C652.8,222.55,653.87,223.38,654.77,224.39z"/>
				</g>
			</g>
			<g>
				<g>
					<defs>
						<path fill="#000000" id="SVGID_1_" d="M654.77,224.39l-5.02,5.46c0,0-2.18-2.31-4.36-3.46c-0.62-0.33-1.54-0.79-2.29-1.52
							c-0.76-0.73-0.81-1.93-0.12-2.72c0,0,0.01-0.01,0.01-0.01c0.22-0.25,4.15-4.37,4.15-4.38c1.07,1.82,2.77,2.89,4.48,4.03
							C652.8,222.55,653.87,223.38,654.77,224.39z"/>
					</defs>
					<use xlink:href="#SVGID_1_"  style="overflow:visible;fill:#231F20;"/>
					<clipPath id="SVGID_2_">
						<use xlink:href="#SVGID_1_"  style="overflow:visible;"/>
					</clipPath>
					<polygon class="st1" points="646.47,229.84 650.54,217.75 653.33,217.75 654.77,218.23 654.77,229.84 					"/>
					<polygon class="st1" points="646.43,229.84 650.5,217.75 650.54,217.75 646.47,229.84 					"/>
					<polygon class="st1" points="646.38,229.84 650.45,217.75 650.5,217.75 646.43,229.84 					"/>
					<polygon class="st1" points="646.33,229.84 650.4,217.75 650.45,217.75 646.38,229.84 					"/>
					<polygon class="st1" points="646.28,229.84 650.36,217.75 650.4,217.75 646.33,229.84 					"/>
					<polygon class="st1" points="646.24,229.84 650.31,217.75 650.36,217.75 646.28,229.84 					"/>
					<polygon class="st1" points="646.19,229.84 650.26,217.75 650.31,217.75 646.24,229.84 					"/>
					<polygon class="st1" points="646.14,229.84 650.22,217.75 650.26,217.75 646.19,229.84 					"/>
					<polygon class="st1" points="646.1,229.84 650.17,217.75 650.22,217.75 646.14,229.84 					"/>
					<polygon class="st1" points="646.05,229.84 650.12,217.75 650.17,217.75 646.1,229.84 					"/>
					<polygon class="st1" points="646,229.84 650.08,217.75 650.12,217.75 646.05,229.84 					"/>
					<polygon class="st1" points="645.96,229.84 650.03,217.75 650.08,217.75 646,229.84 					"/>
					<polygon class="st1" points="645.91,229.84 649.98,217.75 650.03,217.75 645.96,229.84 					"/>
					<polygon class="st1" points="645.86,229.84 649.94,217.75 649.98,217.75 645.91,229.84 					"/>
					<polygon class="st1" points="645.82,229.84 649.89,217.75 649.94,217.75 645.86,229.84 					"/>
					<polygon class="st1" points="645.77,229.84 649.84,217.75 649.89,217.75 645.82,229.84 					"/>
					<polygon class="st1" points="645.72,229.84 649.8,217.75 649.84,217.75 645.77,229.84 					"/>
					<polygon class="st1" points="645.68,229.84 649.75,217.75 649.8,217.75 645.72,229.84 					"/>
					<polygon class="st1" points="645.63,229.84 649.7,217.75 649.75,217.75 645.68,229.84 					"/>
					<polygon class="st1" points="645.58,229.84 649.66,217.75 649.7,217.75 645.63,229.84 					"/>
					<polygon class="st1" points="645.54,229.84 649.61,217.75 649.66,217.75 645.58,229.84 					"/>
					<polygon class="st1" points="645.49,229.84 649.56,217.75 649.61,217.75 645.54,229.84 					"/>
					<polygon class="st1" points="645.44,229.84 649.52,217.75 649.56,217.75 645.49,229.84 					"/>
					<polygon class="st1" points="645.4,229.84 649.47,217.75 649.52,217.75 645.44,229.84 					"/>
					<polygon class="st1" points="645.35,229.84 649.42,217.75 649.47,217.75 645.4,229.84 					"/>
					<polygon class="st1" points="645.3,229.84 649.38,217.75 649.42,217.75 645.35,229.84 					"/>
					<polygon class="st1" points="645.26,229.84 649.33,217.75 649.38,217.75 645.3,229.84 					"/>
					<polygon class="st1" points="645.21,229.84 649.28,217.75 649.33,217.75 645.26,229.84 					"/>
					<polygon class="st1" points="645.16,229.84 649.23,217.75 649.28,217.75 645.21,229.84 					"/>
					<polygon class="st1" points="645.12,229.84 649.19,217.75 649.23,217.75 645.16,229.84 					"/>
					<polygon class="st1" points="645.07,229.84 649.14,217.75 649.19,217.75 645.12,229.84 					"/>
					<polygon class="st1" points="645.02,229.84 649.09,217.75 649.14,217.75 645.07,229.84 					"/>
					<polygon class="st1" points="644.98,229.84 649.05,217.75 649.09,217.75 645.02,229.84 					"/>
					<polygon class="st1" points="644.93,229.84 649,217.75 649.05,217.75 644.98,229.84 					"/>
					<polygon class="st1" points="644.88,229.84 648.95,217.75 649,217.75 644.93,229.84 					"/>
					<polygon class="st1" points="644.83,229.84 648.91,217.75 648.95,217.75 644.88,229.84 					"/>
					<polygon class="st1" points="644.79,229.84 648.86,217.75 648.91,217.75 644.83,229.84 					"/>
					<polygon class="st1" points="644.74,229.84 648.81,217.75 648.86,217.75 644.79,229.84 					"/>
					<polygon class="st1" points="644.69,229.84 648.77,217.75 648.81,217.75 644.74,229.84 					"/>
					<polygon class="st1" points="644.65,229.84 648.72,217.75 648.77,217.75 644.69,229.84 					"/>
					<polygon class="st1" points="644.6,229.84 648.67,217.75 648.72,217.75 644.65,229.84 					"/>
					<polygon class="st1" points="644.55,229.84 648.63,217.75 648.67,217.75 644.6,229.84 					"/>
					<polygon class="st1" points="644.51,229.84 648.58,217.75 648.63,217.75 644.55,229.84 					"/>
					<polygon class="st1" points="644.46,229.84 648.53,217.75 648.58,217.75 644.51,229.84 					"/>
					<polygon class="st1" points="644.41,229.84 648.49,217.75 648.53,217.75 644.46,229.84 					"/>
					<polygon class="st1" points="644.37,229.84 648.44,217.75 648.49,217.75 644.41,229.84 					"/>
					<polygon class="st1" points="644.32,229.84 648.39,217.75 648.44,217.75 644.37,229.84 					"/>
					<polygon class="st1" points="644.27,229.84 648.35,217.75 648.39,217.75 644.32,229.84 					"/>
					<polygon class="st1" points="644.23,229.84 648.3,217.75 648.35,217.75 644.27,229.84 					"/>
					<polygon class="st1" points="644.18,229.84 648.25,217.75 648.3,217.75 644.23,229.84 					"/>
					<polygon class="st1" points="644.13,229.84 648.21,217.75 648.25,217.75 644.18,229.84 					"/>
					<polygon class="st1" points="644.09,229.84 648.16,217.75 648.21,217.75 644.13,229.84 					"/>
					<polygon class="st1" points="644.04,229.84 648.11,217.75 648.16,217.75 644.09,229.84 					"/>
					<polygon class="st1" points="643.99,229.84 648.07,217.75 648.11,217.75 644.04,229.84 					"/>
					<polygon class="st1" points="643.95,229.84 648.02,217.75 648.07,217.75 643.99,229.84 					"/>
					<polygon class="st1" points="643.9,229.84 647.97,217.75 648.02,217.75 643.95,229.84 					"/>
					<polygon class="st1" points="643.85,229.84 647.92,217.75 647.97,217.75 643.9,229.84 					"/>
					<polygon class="st1" points="643.81,229.84 647.88,217.75 647.92,217.75 643.85,229.84 					"/>
					<polygon class="st1" points="643.76,229.84 647.83,217.75 647.88,217.75 643.81,229.84 					"/>
					<polygon class="st1" points="643.71,229.84 647.78,217.75 647.83,217.75 643.76,229.84 					"/>
					<polygon class="st1" points="643.67,229.84 647.74,217.75 647.78,217.75 643.71,229.84 					"/>
					<polygon class="st1" points="643.62,229.84 647.69,217.75 647.74,217.75 643.67,229.84 					"/>
					<polygon class="st1" points="643.57,229.84 647.64,217.75 647.69,217.75 643.62,229.84 					"/>
					<polygon class="st1" points="643.56,229.84 643.53,229.83 647.6,217.75 647.64,217.75 643.57,229.84 					"/>
					<polygon class="st1" points="643.53,229.83 643.49,229.82 647.55,217.75 647.6,217.75 					"/>
					<polygon class="st1" points="643.49,229.82 643.44,229.81 647.5,217.75 647.55,217.75 					"/>
					<polygon class="st1" points="643.44,229.81 643.4,229.79 647.46,217.75 647.5,217.75 					"/>
					<polygon class="st1" points="643.4,229.79 643.36,229.78 647.41,217.75 647.46,217.75 					"/>
					<polygon class="st1" points="643.36,229.78 643.32,229.76 647.36,217.75 647.41,217.75 					"/>
					<polygon class="st1" points="643.32,229.76 643.28,229.75 647.32,217.75 647.36,217.75 					"/>
					<polygon class="st1" points="643.28,229.75 643.23,229.73 647.27,217.75 647.32,217.75 					"/>
					<polygon class="st1" points="643.23,229.73 643.19,229.72 647.22,217.75 647.27,217.75 					"/>
					<polygon class="st1" points="643.19,229.72 643.15,229.71 647.18,217.75 647.22,217.75 					"/>
					<polygon class="st1" points="643.15,229.71 643.11,229.69 647.13,217.75 647.18,217.75 					"/>
					<polygon class="st1" points="643.11,229.69 643.07,229.68 647.08,217.75 647.13,217.75 					"/>
					<polygon class="st1" points="643.07,229.68 643.02,229.66 647.04,217.75 647.08,217.75 					"/>
					<polygon class="st1" points="643.02,229.66 642.98,229.65 646.99,217.75 647.04,217.75 					"/>
					<polygon class="st1" points="642.98,229.65 642.94,229.64 646.94,217.75 646.99,217.75 					"/>
					<polygon class="st1" points="642.94,229.64 642.9,229.62 646.9,217.75 646.94,217.75 					"/>
					<polygon class="st1" points="642.9,229.62 642.86,229.61 646.85,217.75 646.9,217.75 					"/>
					<polygon class="st1" points="642.86,229.61 642.81,229.59 646.8,217.75 646.85,217.75 					"/>
					<polygon class="st1" points="642.81,229.59 642.77,229.58 646.76,217.75 646.8,217.75 					"/>
					<polygon class="st1" points="642.77,229.58 642.73,229.56 646.71,217.75 646.76,217.75 					"/>
					<polygon class="st1" points="642.73,229.56 642.69,229.55 646.66,217.75 646.71,217.75 					"/>
					<polygon class="st1" points="642.69,229.55 642.65,229.54 646.62,217.75 646.66,217.75 					"/>
					<polygon class="st1" points="642.65,229.54 642.6,229.52 646.57,217.75 646.62,217.75 					"/>
					<polygon class="st1" points="642.6,229.52 642.56,229.51 646.52,217.75 646.57,217.75 					"/>
					<polygon class="st1" points="642.56,229.51 642.52,229.49 646.48,217.75 646.52,217.75 					"/>
					<polygon class="st1" points="642.52,229.49 642.48,229.48 646.43,217.75 646.48,217.75 					"/>
					<polygon class="st1" points="642.48,229.48 642.44,229.47 646.38,217.75 646.43,217.75 					"/>
					<polygon class="st1" points="642.44,229.47 642.39,229.45 646.33,217.75 646.38,217.75 					"/>
					<polygon class="st1" points="642.39,229.45 642.35,229.44 646.29,217.75 646.33,217.75 					"/>
					<polygon class="st1" points="642.35,229.44 642.31,229.42 646.24,217.75 646.29,217.75 					"/>
					<polygon class="st1" points="642.31,229.42 642.29,229.42 642.29,229.33 646.19,217.75 646.24,217.75 					"/>
					<polygon class="st1" points="642.29,229.19 646.15,217.75 646.19,217.75 642.29,229.33 					"/>
					<polygon class="st1" points="642.29,229.05 646.1,217.75 646.15,217.75 642.29,229.19 					"/>
					<polygon class="st1" points="642.29,228.91 646.05,217.75 646.1,217.75 642.29,229.05 					"/>
					<polygon class="st1" points="642.29,228.77 646.01,217.75 646.05,217.75 642.29,228.91 					"/>
					<polygon class="st1" points="642.29,228.64 645.96,217.75 646.01,217.75 642.29,228.77 					"/>
					<polygon class="st1" points="642.29,228.5 645.91,217.75 645.96,217.75 642.29,228.64 					"/>
					<polygon class="st1" points="642.29,228.36 645.87,217.75 645.91,217.75 642.29,228.5 					"/>
					<polygon class="st1" points="642.29,228.22 645.82,217.75 645.87,217.75 642.29,228.36 					"/>
					<polygon class="st1" points="642.29,228.08 645.77,217.75 645.82,217.75 642.29,228.22 					"/>
					<polygon class="st1" points="642.29,227.94 645.73,217.75 645.77,217.75 642.29,228.08 					"/>
					<polygon class="st1" points="642.29,227.8 645.68,217.75 645.73,217.75 642.29,227.94 					"/>
					<polygon class="st1" points="642.29,227.66 645.63,217.75 645.68,217.75 642.29,227.8 					"/>
					<polygon class="st1" points="642.29,227.52 645.59,217.75 645.63,217.75 642.29,227.66 					"/>
					<polygon class="st1" points="642.29,227.39 645.54,217.75 645.59,217.75 642.29,227.52 					"/>
					<polygon class="st1" points="642.29,227.25 645.49,217.75 645.54,217.75 642.29,227.39 					"/>
					<polygon class="st1" points="642.29,227.11 645.45,217.75 645.49,217.75 642.29,227.25 					"/>
					<polygon class="st1" points="642.29,226.97 645.4,217.75 645.45,217.75 642.29,227.11 					"/>
					<polygon class="st1" points="642.29,226.83 645.35,217.75 645.4,217.75 642.29,226.97 					"/>
					<polygon class="st1" points="642.29,226.69 645.31,217.75 645.35,217.75 642.29,226.83 					"/>
					<polygon class="st1" points="642.29,226.55 645.26,217.75 645.31,217.75 642.29,226.69 					"/>
					<polygon class="st1" points="642.29,226.41 645.21,217.75 645.26,217.75 642.29,226.55 					"/>
					<polygon class="st1" points="642.29,226.27 645.17,217.75 645.21,217.75 642.29,226.41 					"/>
					<polygon class="st1" points="642.29,226.14 645.12,217.75 645.17,217.75 642.29,226.27 					"/>
					<polygon class="st1" points="642.29,226 645.07,217.75 645.12,217.75 642.29,226.14 					"/>
					<polygon class="st1" points="642.29,225.86 645.03,217.75 645.07,217.75 642.29,226 					"/>
					<polygon class="st1" points="642.29,225.72 644.98,217.75 645.03,217.75 642.29,225.86 					"/>
					<polygon class="st1" points="642.29,225.58 644.93,217.75 644.98,217.75 642.29,225.72 					"/>
					<polygon class="st1" points="642.29,225.44 644.88,217.75 644.93,217.75 642.29,225.58 					"/>
					<polygon class="st1" points="642.29,225.3 644.84,217.75 644.88,217.75 642.29,225.44 					"/>
					<polygon class="st1" points="642.29,225.16 644.79,217.75 644.84,217.75 642.29,225.3 					"/>
					<polygon class="st1" points="642.29,225.02 644.74,217.75 644.79,217.75 642.29,225.16 					"/>
					<polygon class="st1" points="642.29,224.89 644.7,217.75 644.74,217.75 642.29,225.02 					"/>
					<polygon class="st1" points="642.29,224.75 644.65,217.75 644.7,217.75 642.29,224.89 					"/>
					<polygon class="st1" points="642.29,224.61 644.6,217.75 644.65,217.75 642.29,224.75 					"/>
					<polygon class="st1" points="642.29,224.47 644.56,217.75 644.6,217.75 642.29,224.61 					"/>
					<polygon class="st1" points="642.29,224.33 644.51,217.75 644.56,217.75 642.29,224.47 					"/>
					<polygon class="st1" points="642.29,224.19 644.46,217.75 644.51,217.75 642.29,224.33 					"/>
					<polygon class="st1" points="642.29,224.05 644.42,217.75 644.46,217.75 642.29,224.19 					"/>
					<polygon class="st1" points="642.29,223.91 644.37,217.75 644.42,217.75 642.29,224.05 					"/>
					<polygon class="st1" points="642.29,223.77 644.32,217.75 644.37,217.75 642.29,223.91 					"/>
					<polygon class="st1" points="642.29,223.64 644.28,217.75 644.32,217.75 642.29,223.77 					"/>
					<polygon class="st1" points="642.29,223.5 644.23,217.75 644.28,217.75 642.29,223.64 					"/>
					<polygon class="st1" points="642.29,223.36 644.18,217.75 644.23,217.75 642.29,223.5 					"/>
					<polygon class="st1" points="642.29,223.22 644.14,217.75 644.18,217.75 642.29,223.36 					"/>
					<polygon class="st1" points="642.29,223.08 644.09,217.75 644.14,217.75 642.29,223.22 					"/>
					<polygon class="st1" points="642.29,222.94 644.04,217.75 644.09,217.75 642.29,223.08 					"/>
					<polygon class="st1" points="642.29,222.8 644,217.75 644.04,217.75 642.29,222.94 					"/>
					<polygon class="st1" points="642.29,222.66 643.95,217.75 644,217.75 642.29,222.8 					"/>
					<polygon class="st1" points="642.29,222.52 643.9,217.75 643.95,217.75 642.29,222.66 					"/>
					<polygon class="st1" points="642.29,222.38 643.86,217.75 643.9,217.75 642.29,222.52 					"/>
					<polygon class="st1" points="642.29,222.25 643.81,217.75 643.86,217.75 642.29,222.38 					"/>
					<polygon class="st1" points="642.29,222.11 643.76,217.75 643.81,217.75 642.29,222.25 					"/>
					<polygon class="st1" points="642.29,221.97 643.72,217.75 643.76,217.75 642.29,222.11 					"/>
					<polygon class="st1" points="642.29,221.83 643.67,217.75 643.72,217.75 642.29,221.97 					"/>
					<polygon class="st1" points="642.29,221.69 643.62,217.75 643.67,217.75 642.29,221.83 					"/>
					<polygon class="st1" points="642.29,221.55 643.58,217.75 643.62,217.75 642.29,221.69 					"/>
					<polygon class="st1" points="642.29,221.41 643.53,217.75 643.58,217.75 642.29,221.55 					"/>
					<polygon class="st1" points="642.29,221.27 643.48,217.75 643.53,217.75 642.29,221.41 					"/>
					<polygon class="st1" points="642.29,221.13 643.43,217.75 643.48,217.75 642.29,221.27 					"/>
					<polygon class="st1" points="642.29,221 643.39,217.75 643.43,217.75 642.29,221.13 					"/>
					<polygon class="st1" points="642.29,220.86 643.34,217.75 643.39,217.75 642.29,221 					"/>
					<polygon class="st1" points="642.29,220.72 643.29,217.75 643.34,217.75 642.29,220.86 					"/>
					<polygon class="st1" points="642.29,220.58 643.25,217.75 643.29,217.75 642.29,220.72 					"/>
					<polygon class="st1" points="642.29,220.44 643.2,217.75 643.25,217.75 642.29,220.58 					"/>
					<polygon class="st1" points="642.29,220.3 643.15,217.75 643.2,217.75 642.29,220.44 					"/>
					<polygon class="st1" points="642.29,220.16 643.11,217.75 643.15,217.75 642.29,220.3 					"/>
					<polygon class="st1" points="642.29,220.02 643.06,217.75 643.11,217.75 642.29,220.16 					"/>
					<polygon class="st1" points="642.29,219.88 643.01,217.75 643.06,217.75 642.29,220.02 					"/>
					<polygon class="st1" points="642.29,219.75 642.97,217.75 643.01,217.75 642.29,219.88 					"/>
					<polygon class="st1" points="642.29,219.61 642.92,217.75 642.97,217.75 642.29,219.75 					"/>
					<polygon class="st1" points="642.29,219.47 642.87,217.75 642.92,217.75 642.29,219.61 					"/>
					<polygon class="st1" points="642.29,219.33 642.83,217.75 642.87,217.75 642.29,219.47 					"/>
					<polygon class="st1" points="642.29,219.19 642.78,217.75 642.83,217.75 642.29,219.33 					"/>
					<polygon class="st1" points="642.29,219.05 642.73,217.75 642.78,217.75 642.29,219.19 					"/>
					<polygon class="st1" points="642.29,218.91 642.69,217.75 642.73,217.75 642.29,219.05 					"/>
					<polygon class="st1" points="642.29,218.77 642.64,217.75 642.69,217.75 642.29,218.91 					"/>
					<polygon class="st1" points="642.29,218.63 642.59,217.75 642.64,217.75 642.29,218.77 					"/>
					<polygon class="st1" points="642.29,218.5 642.55,217.75 642.59,217.75 642.29,218.63 					"/>
					<polygon class="st1" points="642.29,218.36 642.5,217.75 642.55,217.75 642.29,218.5 					"/>
					<polygon class="st1" points="642.29,218.22 642.45,217.75 642.5,217.75 642.29,218.36 					"/>
					<polygon class="st1" points="642.29,218.08 642.41,217.75 642.45,217.75 642.29,218.22 					"/>
					<polygon class="st1" points="642.29,217.94 642.36,217.75 642.41,217.75 642.29,218.08 					"/>
					<polygon class="st1" points="642.29,217.8 642.31,217.75 642.36,217.75 642.29,217.94 					"/>
					<polygon class="st1" points="642.31,217.75 642.29,217.8 642.29,217.75 					"/>
				</g>
			</g>
		</g>
	</g>
	<g>
		<g>
			<path fill="#000000" class="st0" d="M521.16,418.2c-3.14-6.28-10.37-10.43-15.82-14.45c-6.61-4.88-13.23-9.77-19.84-14.66
				c-0.13-0.1-0.87,0.78-1.83,2.13c6.81,5.69,15.98,14.01,16.48,14.47l-18.19-11.96c-2.26,3.45-4.63,7.65-3.88,8.21
				c9,6.65,18.07,13.21,26.99,19.97c3.85,2.92,7.2,6.2,9.37,10.56c0.69,1.38,0.97,2.93,1.07,4.47c-1.28,1.82-2.32,4.28-3.08,5.68
				c-0.25,0.45-2.4,5.52-1.8,4.94c3.2-3.09,7.46-8.81,10.6-14.81C523.73,427.95,523.59,423.06,521.16,418.2z M517.72,434.8
				C519.29,432.82,520.43,433.2,517.72,434.8L517.72,434.8z"/>
		</g>
	</g>
	<g>
		<g>
			<path fill="#000000" class="st0" d="M960.74,438.96c-3.14-6.28-10.37-10.43-15.82-14.45c-6.61-4.88-13.23-9.77-19.84-14.66
				c-0.14-0.1-0.98,0.92-2.06,2.43c6.71,5.65,15.23,13.39,15.72,13.84l-17.35-11.41c-2.21,3.4-4.46,7.43-3.73,7.98
				c9,6.65,18.07,13.21,26.99,19.97c3.85,2.92,7.2,6.2,9.37,10.56c0.69,1.38,0.97,2.93,1.07,4.47c-1.28,1.82-2.32,4.28-3.08,5.68
				c-0.25,0.45-2.33,5.58-1.8,4.94c2.25-2.71,5.89-5.99,10.6-14.81C963.36,448.74,963.18,443.82,960.74,438.96z M957.3,455.56
				C958.88,453.58,960.01,453.96,957.3,455.56L957.3,455.56z"/>
		</g>
	</g>
</g>
<path fill="#000000" d="M273.602,481.306c-0.578-0.576-1.301-1.03-2.174-1.362c-0.873-0.331-1.885-0.497-3.039-0.497
	c-0.663,0-1.463,0.079-2.4,0.238v-6.077h-1.535v17.711c0.706,0.202,1.402,0.354,2.087,0.454s1.301,0.151,1.849,0.151
	c1.153,0,2.166-0.162,3.039-0.486s1.596-0.764,2.174-1.319c0.576-0.555,1.006-1.211,1.287-1.968s0.42-1.561,0.42-2.411
	s-0.139-1.657-0.42-2.422C274.608,482.554,274.178,481.883,273.602,481.306z M272.391,489.167c-0.852,0.829-2.17,1.243-3.958,1.243
	c-0.39,0-0.805-0.032-1.244-0.097c-0.439-0.065-0.84-0.134-1.2-0.206v-8.845c0.447-0.115,0.887-0.194,1.319-0.237
	c0.433-0.044,0.808-0.065,1.125-0.065c0.894,0,1.668,0.112,2.325,0.335c0.656,0.224,1.199,0.545,1.633,0.963
	c0.432,0.418,0.752,0.919,0.961,1.503s0.314,1.243,0.314,1.979C273.667,487.195,273.241,488.338,272.391,489.167z M247.392,479.446
	c-0.62,0-1.297,0.079-2.033,0.238c-0.735,0.158-1.485,0.433-2.249,0.821l-0.065,1.73c0.548-0.303,0.973-0.52,1.276-0.649
	s0.624-0.237,0.962-0.324c0.338-0.086,0.677-0.158,1.016-0.216s0.667-0.087,0.984-0.087c1.139,0,1.982,0.249,2.53,0.746
	s0.822,1.33,0.822,2.498v0.13c-0.332-0.044-0.732-0.087-1.2-0.13c-0.469-0.043-0.876-0.065-1.222-0.065
	c-1.831,0-3.302,0.311-4.412,0.931c-1.11,0.619-1.665,1.644-1.665,3.07c0,0.707,0.155,1.305,0.465,1.795
	c0.31,0.49,0.713,0.88,1.211,1.168s1.067,0.497,1.708,0.627c0.641,0.13,1.308,0.194,2,0.194c0.807,0,1.6-0.072,2.378-0.216
	c0.779-0.145,1.536-0.368,2.271-0.671v-7.028c0-1.585-0.397-2.742-1.189-3.471C250.189,479.811,248.992,479.446,247.392,479.446z
	 M250.636,489.892c-0.375,0.144-0.858,0.267-1.449,0.367c-0.591,0.102-1.183,0.151-1.773,0.151c-0.505,0-0.984-0.035-1.438-0.108
	c-0.454-0.071-0.84-0.197-1.157-0.378c-0.317-0.18-0.57-0.414-0.757-0.703c-0.188-0.288-0.281-0.663-0.281-1.124
	c0-0.52,0.111-0.934,0.335-1.244c0.224-0.31,0.533-0.551,0.93-0.724c0.396-0.174,0.85-0.296,1.362-0.368
	c0.511-0.072,1.041-0.108,1.589-0.108c0.476,0,0.984,0.029,1.524,0.087c0.541,0.058,0.912,0.108,1.114,0.151V489.892z
	 M258.032,479.868c-0.649,0.122-1.276,0.263-1.881,0.422v11.418h1.535v-10.186c0.202-0.072,0.563-0.147,1.082-0.228
	c0.519-0.079,1.002-0.118,1.449-0.118h1.989v-1.492H260C259.336,479.685,258.681,479.746,258.032,479.868z M-77.92,487.667
	l241.145,0.656l0.663-0.433l-0.632-0.564L-77.92,487.667z M164.994,487.825l1.95,1.95l1.95-1.95l-1.95-1.95L164.994,487.825z
	 M169.559,487.825l3.057,3.057l3.057-3.057l-3.057-3.057L169.559,487.825z M212.359,489.286l-3.395-9.602h-1.514l-3.396,9.602
	l-2.984-9.602h-1.73l3.979,12.023h1.428l3.46-9.645l3.46,9.645h1.427l3.979-12.023h-1.73L212.359,489.286z M238.418,489.589
	c-0.317,0-0.591,0.115-0.822,0.346c-0.231,0.23-0.346,0.505-0.346,0.822c0,0.316,0.115,0.591,0.346,0.821
	c0.23,0.23,0.504,0.346,0.822,0.346c0.317,0,0.591-0.115,0.822-0.346c0.23-0.23,0.346-0.505,0.346-0.821
	c0-0.317-0.116-0.592-0.346-0.822C239.009,489.704,238.735,489.589,238.418,489.589z M193.243,489.286l-3.395-9.602h-1.514
	l-3.396,9.602l-2.984-9.602h-1.73l3.979,12.023h1.428l3.46-9.645l3.46,9.645h1.427l3.979-12.023h-1.73L193.243,489.286z
	 M231.476,489.286l-3.395-9.602h-1.514l-3.396,9.602l-2.984-9.602h-1.73l3.979,12.023h1.428l3.46-9.645l3.46,9.645h1.427
	l3.979-12.023h-1.73L231.476,489.286z M382.732,480.474c-0.426-0.396-0.938-0.667-1.535-0.812c-0.598-0.144-1.271-0.216-2.021-0.216
	c-0.664,0-1.393,0.09-2.184,0.271c-0.793,0.181-1.471,0.4-2.033,0.659c-0.346-0.331-0.818-0.569-1.416-0.714
	c-0.6-0.144-1.273-0.216-2.023-0.216c-0.635,0-1.268,0.058-1.902,0.173l-2.465,0.454v11.635h1.535v-10.38
	c0.447-0.102,0.883-0.188,1.309-0.26c0.424-0.072,0.896-0.108,1.416-0.108c0.605,0,1.125,0.058,1.557,0.173
	c0.434,0.116,0.789,0.321,1.07,0.616c0.281,0.296,0.494,0.711,0.639,1.244s0.217,1.24,0.217,2.119v6.596h1.535v-7.201
	c0-0.663-0.055-1.243-0.162-1.741c-0.109-0.497-0.213-0.861-0.314-1.092c0.086-0.043,0.281-0.119,0.584-0.228
	c0.303-0.107,0.602-0.197,0.898-0.27c0.295-0.072,0.586-0.126,0.875-0.162s0.547-0.055,0.779-0.055c0.59,0,1.102,0.058,1.535,0.173
	c0.432,0.116,0.781,0.317,1.049,0.605c0.266,0.289,0.471,0.703,0.615,1.244c0.145,0.54,0.217,1.251,0.217,2.13v6.596h1.535v-7.201
	c0-0.995-0.111-1.816-0.336-2.466C383.482,481.393,383.158,480.87,382.732,480.474z M280.1,474.581
	c-0.785,0.648-1.18,1.729-1.18,3.243v1.86h-2.551v1.492h2.551v10.531h1.537v-10.531h4.973v-1.492h-4.973v-1.471
	c0-0.635,0.045-1.149,0.141-1.546c0.094-0.396,0.24-0.707,0.443-0.931c0.201-0.223,0.475-0.385,0.82-0.486
	c0.346-0.101,0.779-0.151,1.299-0.151h2.422v-1.492h-2.271C281.956,473.607,280.885,473.932,280.1,474.581z M398.273,487.825
	l3.057,3.057l3.057-3.057l-3.057-3.057L398.273,487.825z M343.322,482.322c0.389-0.418,0.854-0.749,1.395-0.994
	s1.135-0.368,1.783-0.368c0.736,0,1.373,0.076,1.914,0.228s1.121,0.414,1.74,0.789l0.715-1.405c-0.707-0.39-1.393-0.674-2.055-0.854
	c-0.664-0.181-1.436-0.271-2.314-0.271c-0.85,0-1.639,0.155-2.367,0.465c-0.729,0.311-1.367,0.746-1.914,1.309
	c-0.549,0.563-0.98,1.222-1.297,1.979c-0.317,0.757-0.476,1.59-0.476,2.498s0.158,1.74,0.476,2.497
	c0.316,0.757,0.748,1.413,1.297,1.969c0.547,0.555,1.186,0.987,1.914,1.297c0.729,0.311,1.518,0.465,2.367,0.465
	c0.879,0,1.65-0.09,2.314-0.27c0.662-0.181,1.348-0.466,2.055-0.854l-0.715-1.406c-0.619,0.375-1.199,0.639-1.74,0.79
	s-1.178,0.227-1.914,0.227c-0.648,0-1.242-0.119-1.783-0.356c-0.541-0.238-1.006-0.565-1.395-0.984
	c-0.391-0.418-0.693-0.915-0.908-1.492c-0.217-0.576-0.324-1.203-0.324-1.881s0.107-1.305,0.324-1.882
	C342.628,483.238,342.931,482.741,343.322,482.322z M404.387,487.825l1.949,1.95l1.951-1.95l-1.951-1.95L404.387,487.825z
	 M410.701,487.326l-0.664,0.433l0.633,0.564l241.176-0.341L410.701,487.326z M362.611,481.295c-0.549-0.569-1.193-1.02-1.936-1.352
	c-0.742-0.331-1.547-0.497-2.412-0.497c-0.863,0-1.668,0.166-2.41,0.497c-0.742,0.332-1.389,0.782-1.936,1.352
	c-0.549,0.57-0.977,1.229-1.287,1.979c-0.311,0.749-0.465,1.557-0.465,2.422s0.154,1.672,0.465,2.422s0.738,1.409,1.287,1.979
	c0.547,0.569,1.193,1.017,1.936,1.341s1.547,0.486,2.41,0.486c0.865,0,1.67-0.162,2.412-0.486s1.387-0.771,1.936-1.341
	c0.547-0.569,0.977-1.229,1.287-1.979c0.309-0.75,0.465-1.557,0.465-2.422s-0.156-1.673-0.465-2.422
	C363.587,482.524,363.158,481.865,362.611,481.295z M362.394,487.523c-0.217,0.569-0.52,1.067-0.908,1.492
	c-0.389,0.426-0.857,0.765-1.406,1.017c-0.547,0.252-1.152,0.378-1.816,0.378c-0.662,0-1.268-0.126-1.816-0.378
	c-0.547-0.252-1.016-0.591-1.404-1.017c-0.391-0.425-0.693-0.923-0.908-1.492c-0.217-0.569-0.324-1.179-0.324-1.827
	c0-0.649,0.107-1.262,0.324-1.839c0.215-0.576,0.518-1.077,0.908-1.503c0.389-0.425,0.857-0.764,1.404-1.016
	c0.549-0.252,1.154-0.379,1.816-0.379c0.664,0,1.27,0.127,1.816,0.379c0.549,0.252,1.018,0.591,1.406,1.016
	c0.389,0.426,0.691,0.927,0.908,1.503c0.217,0.577,0.324,1.189,0.324,1.839C362.718,486.345,362.611,486.954,362.394,487.523z
	 M296.221,481.295c-0.547-0.569-1.191-1.02-1.936-1.352c-0.742-0.331-1.545-0.497-2.41-0.497s-1.67,0.166-2.412,0.497
	c-0.742,0.332-1.387,0.782-1.936,1.352c-0.547,0.57-0.977,1.229-1.285,1.979c-0.311,0.749-0.465,1.557-0.465,2.422
	s0.154,1.672,0.465,2.422c0.309,0.75,0.738,1.409,1.285,1.979c0.549,0.569,1.193,1.017,1.936,1.341s1.547,0.486,2.412,0.486
	s1.668-0.162,2.41-0.486c0.744-0.324,1.389-0.771,1.936-1.341c0.549-0.569,0.977-1.229,1.287-1.979s0.465-1.557,0.465-2.422
	s-0.154-1.673-0.465-2.422C297.198,482.524,296.77,481.865,296.221,481.295z M296.006,487.523c-0.217,0.569-0.52,1.067-0.908,1.492
	c-0.391,0.426-0.859,0.765-1.406,1.017c-0.549,0.252-1.154,0.378-1.816,0.378c-0.664,0-1.27-0.126-1.816-0.378
	c-0.549-0.252-1.018-0.591-1.406-1.017c-0.389-0.425-0.691-0.923-0.908-1.492s-0.324-1.179-0.324-1.827
	c0-0.649,0.107-1.262,0.324-1.839c0.217-0.576,0.52-1.077,0.908-1.503c0.389-0.425,0.857-0.764,1.406-1.016
	c0.547-0.252,1.152-0.379,1.816-0.379c0.662,0,1.268,0.127,1.816,0.379c0.547,0.252,1.016,0.591,1.406,1.016
	c0.389,0.426,0.691,0.927,0.908,1.503c0.215,0.577,0.324,1.189,0.324,1.839C296.331,486.345,296.221,486.954,296.006,487.523z
	 M309.381,480.463c-0.455-0.39-0.996-0.656-1.623-0.801c-0.627-0.144-1.309-0.216-2.043-0.216c-0.707,0-1.465,0.047-2.271,0.141
	s-1.701,0.234-2.682,0.422v11.699h1.535v-10.402c1.184-0.23,2.293-0.346,3.33-0.346c0.592,0,1.111,0.062,1.559,0.184
	c0.445,0.123,0.818,0.332,1.113,0.628c0.295,0.295,0.525,0.713,0.691,1.254s0.25,1.251,0.25,2.13v6.553h1.535v-7.201
	c0-0.995-0.119-1.82-0.357-2.477C310.18,481.375,309.834,480.852,309.381,480.463z M318.516,490.054
	c-0.346-0.108-0.619-0.277-0.82-0.509c-0.203-0.23-0.35-0.547-0.443-0.951c-0.096-0.403-0.141-0.922-0.141-1.557v-5.86h4.973v-1.492
	h-4.973v-4.347h-1.537v4.347h-2.551v1.492h2.551v6.466c0,0.764,0.109,1.405,0.326,1.925c0.215,0.519,0.525,0.937,0.93,1.254
	c0.402,0.317,0.867,0.544,1.395,0.682c0.525,0.137,1.105,0.205,1.74,0.205h2.271v-1.492h-2.422
	C319.295,490.216,318.862,490.162,318.516,490.054z M337.784,489.589c-0.316,0-0.59,0.115-0.82,0.346s-0.346,0.505-0.346,0.822
	c0,0.316,0.115,0.591,0.346,0.821s0.504,0.346,0.82,0.346c0.318,0,0.592-0.115,0.822-0.346s0.346-0.505,0.346-0.821
	c0-0.317-0.115-0.592-0.346-0.822S338.102,489.589,337.784,489.589z M333.178,486.106c-0.346-0.303-0.785-0.565-1.318-0.789
	c-0.533-0.223-1.182-0.422-1.947-0.595l-0.799-0.173c-1.053-0.216-1.781-0.461-2.184-0.735c-0.404-0.273-0.607-0.678-0.607-1.211
	c0-0.504,0.238-0.904,0.715-1.2c0.475-0.295,1.174-0.443,2.098-0.443c0.793,0,1.477,0.076,2.055,0.228
	c0.576,0.151,1.217,0.421,1.924,0.811l0.691-1.405c-1.412-0.765-2.969-1.146-4.67-1.146c-0.635,0-1.223,0.076-1.764,0.228
	c-0.539,0.151-1.008,0.364-1.404,0.638s-0.711,0.605-0.941,0.994c-0.23,0.39-0.346,0.815-0.346,1.276
	c0,0.462,0.072,0.88,0.217,1.254c0.143,0.375,0.381,0.707,0.713,0.995s0.758,0.537,1.275,0.746c0.52,0.209,1.146,0.4,1.883,0.573
	l0.908,0.194c1.008,0.217,1.729,0.49,2.162,0.822c0.432,0.331,0.648,0.771,0.648,1.318c0,0.39-0.086,0.707-0.26,0.952
	c-0.172,0.245-0.414,0.436-0.725,0.573c-0.311,0.137-0.678,0.237-1.102,0.303c-0.426,0.064-0.877,0.097-1.352,0.097
	c-0.592,0-1.223-0.09-1.893-0.271c-0.67-0.18-1.352-0.479-2.045-0.897l-0.734,1.471c0.779,0.433,1.539,0.742,2.281,0.93
	s1.539,0.281,2.391,0.281c0.748,0,1.434-0.072,2.053-0.216c0.621-0.145,1.158-0.36,1.611-0.648c0.455-0.289,0.805-0.649,1.049-1.082
	c0.246-0.433,0.369-0.93,0.369-1.492c0-0.476-0.072-0.915-0.217-1.318C333.77,486.763,333.526,486.41,333.178,486.106z"/>
</svg>

