<?xml version="1.0" encoding="utf-8"?>
<!-- Generator: Adobe Illustrator 21.0.0, SVG Export Plug-In . SVG Version: 6.00 Build 0)  -->
<svg version="1.1" id="Layer_1" xmlns="http://www.w3.org/2000/svg" xmlns:xlink="http://www.w3.org/1999/xlink" x="0px" y="0px"
	 viewBox="0 0 800 500" style="enable-background:new 0 0 800 500;" xml:space="preserve">
<style type="text/css">
	.st0{fill-rule:evenodd;clip-rule:evenodd;}
</style>
<path fill="#000000" class="st0" d="M483.3,186.9c-0.2-5.1-1.2-9.4-3-12.9c-0.1-2.2,1.1-6.7,3.6-13.6c0.3-0.9,0.6-1.3,0.9-1.3
	c0.3,0,0.7,0.5,1.1,1.4c0.9,1.9,3.1,6.9,6.6,15.2c3.6,8.6,5.7,13.9,6.4,16c0.5,1.5,0.7,2.7,0.8,3.4c0.1,2.4-2.2,1-6.8-4.3
	c-0.5-0.6-0.7-0.2-0.6,1.1c0.1,1.6,1.2,11.9,3.3,30.9c2.1,19,3.3,29.9,3.4,32.7c0.6,12.7-0.8,23.7-4,33.1c-0.7,2-1.3,3.5-1.7,4.4
	l0,0c-0.6,1.1-1.1,1.2-1.3,0.3c-0.2-1-0.2-3,0-6c0.3-3.9,0.3-9,0-15.3c-0.1-2.8-1.5-16.4-4.2-40.9C485,206.8,483.5,192,483.3,186.9
	L483.3,186.9z M349.9,150.4c-6.8,5.2-15.6,12.6-26.3,22.2c-10.1,9.1-18,15.7-23.6,19.9c-5.7,4.2-13.3,8.7-23,13.4
	c-9.6,4.7-17.7,8.1-24.2,10c-5.3,1.4-7.9,2.6-7.9,3.5c0,0.5,0.8,0.8,2.5,1c3.7,0.3,9.1-0.2,16.2-1.5c21.1-4.1,38.9-12.4,53.3-24.8
	c6.5-5.7,13-11.4,19.3-17.1c8.9-7.8,15.6-13.4,20.1-16.7c10.1-7.6,31.8-24.7,46.2-11.9c4.9,4.4,7.9,6.9,8.7,7.5
	c12.7,8.3,21.9,5.7,34.5,0.3c14.1-6.1,22.7-9.7,26-10.7c13.5-4.5,29.5-5.9,48.2-4.4c0.9,0.1,1.6-0.5,2.3-1.6l5.9-11
	c0.3-0.6,0.5-1.1,0.5-1.4c0-0.7-1.6-1.2-4.8-1.4c-12.2-1-28.5-3.7-48.8-7.9c-9.1-2-16.3-3.6-21.4-4.8c10.8-6.7,18.5-16.4,26.1-26.5
	c6.2-8.5,10.9-12.3,14-11.6c1.9,0.5,3.7,2.4,5.3,5.9c1.7,3.8,2.4,7.8,2.1,12.1c-0.3,3.5,0.2,5.5,1.3,5.7c0.9,0.2,1.7-1.1,2.6-4.1
	c1.3-4.2,2.1-8.5,2.4-12.7c0.5-6.6-0.4-12.2-2.7-16.8c-1.9-3.8-3.9-6-6.2-6.5c-3.2-0.8-8.5,3.1-15.8,11.7c-9.4,11-16.3,18-20.7,20.9
	c-14.5,9.5-29.9,15.2-44.2,17.5c-2.4-0.2-7.1,9.1-7.1,11.5c0,1.7,51.8,11.2,56.3,12.3c-17,8-40.6,21.7-58.3,4.3
	c-9.4-9.2-18.8-10.5-29.7-5.7C372.3,134.3,362.6,140.7,349.9,150.4L349.9,150.4z M374.8,438.7c0,1.4-0.3,2.8-0.9,4.3
	c-0.8,1.9-1.8,2.9-3.1,2.9c-2,0-3.4-1.4-4.3-4.2c-1,3.5-2.7,5.3-5.3,5.3c-1,0-1.8-0.5-2.5-1.4c-0.8-1.2-1.2-2.7-1.2-4.5v-4.3
	c0-0.4-0.2-0.6-0.7-0.8c-0.5-0.1-0.7-0.5-0.7-1.1c0-1,0.4-1.9,1.2-2.8c0.7-0.8,1.3-1.2,1.7-1.2c0.5,0,0.8,1,0.8,2.9
	c0,1-0.1,1.8-0.2,2.5c-0.2,0.7-0.2,1.3-0.2,1.7c0,1,0.2,2,0.6,3c0.5,1.1,1.1,1.7,1.9,1.7c1,0,1.8-0.4,2.7-1.3c0.9-0.9,1.3-1.9,1.3-3
	c0-0.7-0.2-1.9-0.6-3.5c-0.4-1.6-0.6-2.6-0.6-3c0-0.3,0.2-0.9,0.5-1.7c0.4-0.8,0.6-1.2,0.8-1.2c0.3,0,0.7,1.1,1.2,3.2
	c0.5,2.2,0.8,3.8,0.8,4.8c0,3,1.1,4.5,3.5,4.5c1,0,1.6-0.5,1.8-1.5c-2-3.5-3-6.1-3-8c0-1,0.3-2,0.8-2.8c0.3-0.6,0.6-0.9,0.7-0.9
	c0.2,0,0.3,0.4,0.3,1.1c0.1,1,0.3,1.8,0.5,2.4c0,0.1,0.5,1.3,1.4,3.7C374.5,436.9,374.8,438,374.8,438.7L374.8,438.7z M451.7,180.6
	c-0.2-0.2-0.2-0.5,0-1.1l5.8-11.8c0.3-0.7,0.7-1.1,1.2-1.1c0.6,0,3.2,1.6,7.7,4.7c4.5,3.1,6.8,4.9,6.8,5.5c0,2.1-2,6.3-6,12.7
	c-0.5,0.9-1,1.1-1.5,0.6C461.1,186.8,456.5,183.6,451.7,180.6L451.7,180.6z M418.6,79.8c-0.2-0.2-0.2-0.5,0-1.1l5.8-11.8
	c0.3-0.7,0.7-1.1,1.2-1.1c0.6,0,3.1,1.5,7.7,4.6c4.5,3.1,6.8,4.9,6.8,5.5c0,2-2,6.3-6,12.7c-0.5,0.8-1,1.1-1.5,0.6
	C428,86,423.3,82.8,418.6,79.8L418.6,79.8z M507.1,106.6c-0.2-0.2-0.2-0.5,0-1.1l5.7-11.8c0.4-0.7,0.8-1.1,1.2-1.1
	c0.6,0,3.2,1.6,7.7,4.6c4.5,3.1,6.8,5,6.8,5.5c0,2-2,6.3-6,12.7c-0.5,0.9-1,1.1-1.5,0.7C516.6,112.9,511.9,109.6,507.1,106.6
	L507.1,106.6z M517.7,321.6c-2.3-0.2-5.1,0.9-8.5,3.1c-4,2.6-7.3,6-9.7,10.3c-0.8,1.5-1.3,2.7-1.3,3.7c0,2.2,2.6,3.4,7.7,3.8
	c1.3,0.1,3.7,0,7.1-0.3c3.3-0.3,12.7-1.8,13.8-1.8c5.2,0.4,8.1,1.5,8.7,3.6c-18.7,4-41.7,3.7-55,1.1c-2.2-0.4-4.1-0.7-5.8-1
	c0.9,0.1,1.6,0.1,2.3,0.1c1.7,0,2.6-0.3,2.6-0.9c0-0.8-1.7-2.3-5-4.5l-8.7-5.7c2.5-0.7,3.9-1,4.1-1c2.7-0.1,12.1-5,28.1-14.8
	c18.2-10.8,31-20.4,38.3-28.8c6.4-7.5,9.8-17.8,10-31.1c0.1-6.9-1.8-14.1-5.9-21.6c-4.7-8.6-10-12.8-16-12.6
	c-4.5,0.2-8.9,2.8-13.2,7.9c-4.6,5.5-7,11.7-7.1,18.7c-0.2,9,6.4,13.3,19.8,12.8c6.2-0.2,10.5,0.3,13,1.5c1.6,0.8,3,2.3,4.3,4.6
	c0,2.2-3.3,5.9-9.8,11c-8.6,7-21.1,15.2-37.5,24.6c-9.6,5.5-21.3,11.4-34.9,17.8c-0.1-1.2-0.1-2.3-0.2-3.4
	c-0.2-4.9-0.5-9.7-0.8-14.5c6-4,10.5-8.1,13.6-12.4c2.2,1.3,3.7,2.5,4.4,3.6c2.1-3,3.1-5.2,3.2-6.6c-0.7-1.1-2.2-2.2-4.5-3.6
	c1.1-3.4,1.7-6.5,1.7-9.2c0-3.8-1.2-5.6-3.6-5.6c-2.5,0-5,1.4-7.4,4.2c-2.4,2.8-3.6,5.5-3.6,8.1c0,2.7,2.4,5.3,7.2,7.8
	c-2.8,2.9-6.5,5.9-11.1,8.9c-0.9-13.4-1.9-26.4-3-39.2c7.7-1.7,14.4-5.3,18.2-11.1c3.9-6,5.9-13.8,5.9-23.4c0-5.5-0.9-10.2-2.5-14.2
	c-0.9-2.2-2.9-5.5-6-10.2c-0.8-1.3-1.6-1.3-2.2,0c-2,4.2-3,8.5-3,12.7c0,0.8,0.2,1.4,0.6,2c5.3,8.5,8,13.9,8,16.4
	c-3.4,6.4-11.3,9.8-20.4,10.9c-0.7-6.5-1.4-13-2.2-19.4c-2.3-18-5.2-32.7-8.8-44.3c-0.3-1.2-0.7-1.8-1.1-1.8c-0.3,0-0.7,0.6-1.2,1.6
	c-0.6,1.6-1.5,6.4-2.8,14.3c1.6,9.2,3.2,19.7,4.8,31.7c0.7,6.3,1.4,12.4,2.1,18.4c-13.2-0.2-26.5-3.9-31.2-8.7
	c-1.9-2-4.2-5.6-6.7-10.9c-1.9-3.9-3.6-5.8-5.1-5.7c-4.4,0.2-9,3.8-13.8,10.8c-5.4,7.9-8.3,16.9-8.7,27c-0.1,2.6,0.6,5.8,2.2,9.8
	c0.1,0.1,0.2,0.2,0.3,0.2c0,0.1,0,0.2,0,0.2c0.9,2.5,1.6,4.2,2.1,5.1c-3.6,0.2-9.1,2.3-16.4,6.5c-3.7,2.1-7.4,4.4-11.1,7
	c-0.5-7.3-1-14-1.6-20.1c-1.7-19.7-4.3-37.6-8-53.8c-4-17.7-7.8-26.6-11.4-26.6c-2.3,0-4.7,2.8-7.1,8.4c-2.3,5.4-3.7,11.3-4.4,17.6
	c-0.2,1.7,0,2.5,0.5,2.5c0.4,0,0.9-0.7,1.4-2.1c3.1-8.2,5.3-12.4,6.7-12.4c1.5,1.2,3.5,6.4,5.9,15.5c3,11.3,5.4,25.1,7.5,41.4
	c1,8.4,2.1,20,3,34.8c-3.9,3.1-7.8,6.5-11.7,10.1c-6.4,6.2-12.8,12.3-19.2,18.5c-5.3,4.3-11,6.7-17.1,7c-3.8,0.2-6.8-1-9.1-3.6
	c-2.2-2.5-3.4-6-3.7-10.3c-0.3-5.7,1.1-13.5,4.2-23.3c3.1-9.9,4.6-15.6,4.5-17.3c0-0.5-0.1-0.7-0.4-0.7c-0.5,0-1.2,0.9-2,2.6
	c-7.5,16.6-10.9,30-10.4,40.2c0.4,7.3,2.8,13.4,7.2,18.1c4.4,4.8,9.4,7,14.8,6.7c5-0.3,10.5-2.9,16.5-7.9c8-7.3,16.1-14.7,24.1-22
	c1-0.9,2-1.8,3-2.6c0.7,11.9,1.3,25.4,1.9,40.5c-1.7,1.2-3.4,2.5-5.1,3.8c-4.2,3.2-10.7,9.3-19.5,18.1c-8.9,8.8-15.4,14.9-19.8,18.3
	c-7.1,5.5-13.2,8.3-18.4,8.3c-3.5,0-6.4-1.3-8.4-4c-1.9-2.5-2.8-5.7-2.8-9.7c0-5.3,1.7-12.5,5.1-21.7c3.4-9.1,5.1-14.5,5.1-16.1
	c0-0.3-0.1-0.6-0.3-0.6c-0.5,0-1.1,0.8-1.9,2.4c-7.8,15.3-11.8,27.8-11.8,37.3c0,6.9,2,12.7,6.1,17.6c3.8,4.6,8.3,6.9,13.4,6.9
	c4.8,0,10.3-2.5,16.6-7.7c3-2.4,9.5-8.6,19.5-18.6c8.5-8.6,16.1-15.6,22.9-21.1c1.4,27.4,3.5,44,6.2,49.9
	c2.6,5.6,6.2,10.1,10.7,13.5c7.8,5.7,15.3,8.6,24.8,8.6c9.8,0,19.6-2.8,29.4-8.3c5.6-3.1,12.8-8.4,21.6-15.7
	c2.3-4.4,4.1-8.3,5.2-11.7c0.7-1.5,0.6-2.3-0.2-2.3c-0.5,0.1-1.3,0.6-2.5,1.6c-5.6,4.8-11.6,9.1-18.1,12.9c-8,4.6-14.6,6.9-19.6,6.9
	c-9.7,0-17.6-4.3-23.9-13c-5.1-7.1-7.7-14.3-7.7-21.7c3.3-2.9,8.5-5.4,15.7-7.5c7.1-2,14.1-3.1,20.9-3.1c4.6,0,10,1.1,15.9,3.3
	c1.5,0.5,2.7,0.8,3.4,0.8c0.6,0,0.9-0.2,0.9-0.5c0-0.5-0.8-1.3-2.2-2.5c-8.9-7.5-19.1-11.2-30.4-11.2c-8.5,0-15.7,2.5-21.5,7.6
	c-6.7,5.9-10.1,14.4-10.1,25.4c0,6.1,2.2,12.4,6.8,18.9c-7-4.7-11.5-10.7-13.5-18.2c-1.5-5.7-2.8-18.9-3.8-39.4
	c4.6-2.9,10.3-6,17.2-9.2c6.9-3.2,12.2-5.4,16-6.7c1.1,3.6,2,5.4,2.9,5.4c1.2,0,1.7-2.4,1.4-7.1c8.3-2.6,15.4-4.8,21.2-6.6
	c1.6-3.8,2.9-8,3.9-12.3c0-3.4-3.6-7.5-10.8-12.4c-7-4.7-12.3-7.1-16-7.1c-4.7,0-8.3,1.7-10.7,5c-1.9,2.7-2.9,6.1-2.9,10.1
	c0,2.5,0.4,4.7,1.1,6.4c1.8,3.6,3.1,6.2,3.9,7.8c-9,3-18.3,7.7-27.9,13.9c-0.7-15.1-1.5-28.7-2.2-41c11.4-8.4,21.6-12.8,30.7-13.3
	c8.5-0.4,15.9,0.8,21.9,3.9c2.3,1.1,3.5,1,3.6-0.2l1.4-10.9c0.2-2.3-0.9-3.9-3.2-4.6c-5.4-1.5-10.6-3.6-15.3-6.6
	c-3.7-2.4-6.1-4.4-7.1-6c-0.1,0-0.3-0.1-0.5-0.1c0-0.1,0-0.2,0-0.3c-2.8-2.8-4.2-5.5-4.4-8.3c-0.2-3.2,1.8-7.2,6-12
	c3.8-4.5,6.8-6.7,8.8-6.9c1.4-0.1,3.1,1.8,5.1,5.7c2.6,5,5.1,8.7,7.5,10.9c7.4,6.5,21.5,10.3,34.8,9.7c1.6,15.6,2.9,30,3.8,43.1
	c-0.3,0.2-0.6,0.3-0.9,0.5c-13.3,7.5-20.7,11.7-22.1,12.6c-1.4,0.9-2.1,1.5-2.1,1.8c0.1,0.1,0.2,0.2,0.3,0.2c0.3,0,1.2-0.2,2.5-0.7
	c8.7-3.1,16.2-6.4,22.6-9.7c0.2,2.5,0.3,4.9,0.5,7.3c0.2,3.1,0.4,6.3,0.5,9.6c-22.3,10.3-34.6,16-36.6,17c-6.3,3.1-9.4,4.8-9.4,5.1
	c0.1,0.2,0.4,0.3,0.8,0.3c1,0,3.8-0.5,8.3-1.3c4.2-0.9,14.7-3.6,31.4-8.3c2.1-0.6,4.1-1.2,6-1.7c0.7,19.4,1.1,41.9,1.1,67.6
	c0,7.7-3.6,14.4-10.7,20.4c-9,7.3-19.6,13.8-31.9,19.2c-14.1,6.2-26.9,9.2-38.3,9.2c-13.4,0-23.5-3.1-30.4-9.4
	c-5-4.5-7.6-9.4-7.6-14.6c0-4.5,0.6-8.8,2-12.8c1.2-3.2,2.4-6.4,3.6-9.5c0.8-2.3,1.2-3.9,1.2-4.8c0-0.5-0.1-0.6-0.4-0.6
	c-0.5,0-1.6,1.3-3.1,4.1c-4.9,8.9-7.4,18.4-7.4,28.6c0,8.7,2.3,16.2,6.9,22.3c6.8,8.9,17.7,13.3,32.7,13.3
	c13.3,0,28.2-4.2,44.9-12.8c14-7.2,24.7-14.7,32-22.3c3.2-3.4,5.9-9.2,8-17.4c0.7,15.8,2.7,26.7,6.1,32.7c3.6,6.4,9.6,9.5,17.9,9.5
	V459c12.1,0,24.1-2.9,35.9-8.6c12.4-6.1,20.7-13.4,25-22.1c1.7-3.4,2.5-7.3,2.5-11.4c0-5.6-1.4-10.3-4.3-14.4
	c-3.2-4.6-12.9-13.2-28.9-25.7c-14.3-11.1-25.2-20.5-32.8-28.1c1.6,0.8,3.4,1.2,5.5,1.3c5.5,0.4,34.3,3.2,53.5-1.1
	c0.5-0.1,1.2-0.9,1.9-2.5c0.8-1.5,1.1-3,1.1-4.5c0-0.9-0.2-1.7-0.5-2.4c-1.2-2.6-4.1-4.1-8.6-4.4c-0.8-0.1-9.9,1.5-13.2,1.8
	c-3.3,0.3-6.1,0.4-8.5,0.3c-3.5-0.2-5.2-0.8-5.2-1.6c0-0.3,0.2-0.6,0.5-1c1.7-1.8,4.2-3.6,7.5-5.5c3.1-1.7,5.2-2.5,6.2-2.5
	c0.9,0.1,1.6,0.4,2.1,0.9c0.5,0.5,0.8,0.8,0.9,0.8c0.5,0,1.1-1.1,1.8-3.4C521.4,323,520.3,321.8,517.7,321.6L517.7,321.6z
	 M374,180.5c1.2,1.7,1.5,3.6,1.1,5.6c-0.4,2-1.5,3.6-3.2,4.8c-1.7,1.2-3.6,1.5-5.6,1.2c-2-0.4-3.6-1.5-4.8-3.2
	c-1.2-1.7-1.5-3.6-1.2-5.7c0.4-2.1,1.4-3.7,3.2-4.8c1.7-1.2,3.6-1.6,5.7-1.2C371.3,177.7,372.9,178.7,374,180.5L374,180.5z
	 M389.6,166.4c1.1,1.7,1.5,3.6,1.1,5.6c-0.4,2-1.5,3.6-3.2,4.8c-1.7,1.2-3.6,1.5-5.7,1.2c-2.1-0.4-3.7-1.4-4.8-3.2
	c-1.2-1.7-1.6-3.6-1.1-5.7c0.4-2.1,1.4-3.7,3.2-4.8c1.7-1.2,3.6-1.5,5.7-1.1C386.9,163.6,388.5,164.7,389.6,166.4L389.6,166.4z
	 M404.2,181c1.2,1.7,1.5,3.6,1.2,5.6c-0.4,2-1.5,3.6-3.2,4.8c-1.7,1.2-3.6,1.6-5.6,1.2c-2.1-0.4-3.7-1.4-4.8-3.2
	c-1.2-1.7-1.5-3.6-1.1-5.7c0.4-2.1,1.5-3.7,3.2-4.9c1.7-1.1,3.6-1.5,5.7-1.1C401.5,178.2,403.1,179.3,404.2,181L404.2,181z
	 M388.6,195c1.2,1.7,1.5,3.6,1.1,5.7c-0.4,2-1.5,3.6-3.2,4.8c-1.7,1.2-3.6,1.5-5.6,1.2c-2-0.4-3.6-1.5-4.8-3.2
	c-1.2-1.7-1.6-3.6-1.2-5.6c0.4-2.1,1.4-3.7,3.1-4.8c1.7-1.1,3.6-1.5,5.7-1.1C385.9,192.3,387.5,193.3,388.6,195L388.6,195z
	 M532,153.8c-0.6,2.1-1,3.3-1.3,3.6c-6.2,2.5-13.7,5.8-22.5,9.9c-2.6,1.5-3.9,2.8-3.8,3.6c0.1,0.8,2.2,1.9,6.3,3.1
	c0.4,0.1,0.7,0.9,0.9,2.4c0.2,1.3,0.2,2,0.1,2.3c-0.1,0.2-0.5,0.3-1.3,0.1c-5.1-0.8-7.7-2.5-8.1-5.1c-0.2-1.4,0.3-3.3,1.3-5.6
	c1.1-2.3,2.3-3.9,3.7-4.9c1.2-0.9,5.3-2.8,12.3-5.6c3.7-1.5,7.5-3,11.2-4.4c0.7-0.3,1.1-0.4,1.2-0.4
	C532.2,152.8,532.2,153.1,532,153.8L532,153.8z M328.1,401.7c-0.3,2-0.7,3.4-1.1,4.2c-0.2,0.3-8.5,5.4-24.8,15.2
	c-4.9,2.9-12.8,7.9-23.7,14.9c0.1-1.8,0.5-3.9,1-6.2c2-1.6,17.7-11.1,46.9-28.7c0.9-0.5,1.4-0.7,1.6-0.7
	C328.2,400.5,328.2,400.9,328.1,401.7L328.1,401.7z M326.7,413.5c-0.3,2-0.7,3.4-1.1,4.1c-0.2,0.3-8.5,5.4-24.8,15.2
	c-4.9,2.9-12.8,7.9-23.7,14.9c0.1-1.8,0.4-3.9,1-6.2c2-1.6,17.6-11.1,46.9-28.7c0.9-0.5,1.4-0.7,1.6-0.7
	C326.8,412.3,326.8,412.7,326.7,413.5L326.7,413.5z M532.7,184.8c-0.8,2.1-1.6,3.4-2.4,4c-3,1.4-9.7,4.7-20,9.9
	c-0.4,0.2-1,0.5-1.5,0.8c-0.1,0-0.2-0.3-0.2-0.6l0.9-3.2c0.3-0.8,2-2.2,5.3-4.1c-3.5-1.8-5.1-3.7-4.9-5.7c0.3-2.2,1.6-4.4,3.8-6.5
	c4.4-4.1,7.8-5.9,10.3-5.6c2.3,0.3,3.2,1.7,2.9,4.2c-0.2,1.5-1,3.1-2.5,4.9c-0.3,0.5-0.6,0.3-0.8-0.3c-0.5-1.6-1.3-2.5-2.5-2.6
	c-1-0.1-2.1,0.2-3.4,0.9c-1.4,0.7-2.1,1.4-2.2,2c-0.1,0.8,0.6,1.7,2,2.7c1.4,1,2.6,1.6,3.5,1.7c0.9,0.1,2.4-0.3,4.7-1.3
	c1.6-0.8,3.2-1.6,4.8-2.3c1.3-0.5,2.1-0.7,2.3-0.6C533.1,183.3,533,183.9,532.7,184.8L532.7,184.8z M388.6,86.5
	c0,7.5-8.3,18.4-14.2,22.5c-3,2.1-21,8.9-24.9,7.9c4.5-3.5,18.1-12.5,27-17.3c0.2-0.2,0.3-0.4,0.3-0.6c-0.2-1.5-20.7,0.2-23.4,2.4
	c-2.8,0.6-4.1,0.3-2.5-2.4c3.1-5.5,3.7-12.1,10.5-13.5C366.2,84.5,388.6,84.1,388.6,86.5L388.6,86.5z M372.1,226.2
	c-0.6,0.8-1.5,1.5-3,2.3c-1.4,0.8-2.7,1.2-3.8,1.2c-1.2,0-1.8-0.7-1.8-2c0-2.1,0.7-4.4,2-7C370,223.2,372.1,225,372.1,226.2
	L372.1,226.2z M368.9,206.3c0.6-1.1,1.3-1.6,2-1.6c0.5,0,0.7,0.2,0.7,0.6c0,0.2,0,0.4-0.1,0.5c-1.4,3.1-2.6,6.1-3.6,9.2
	c4.4,3.2,6.5,6.5,6.2,9.7c-0.3,3.5-0.8,5.7-1.5,6.6c-1.9,2.6-4.3,3.9-7.2,3.9c-2.8,0-4.2-1.7-4.2-5.1c0-2.6,1-6.7,2.9-12.2
	C365.7,213.1,367.3,209.2,368.9,206.3L368.9,206.3z M427,212.1c-0.6,0.8-1.7,1.7-3.3,2.5c-1.6,0.9-3,1.3-4.2,1.3
	c-1.4,0-2.1-0.7-2.1-2.2c0-2.3,0.8-4.9,2.3-7.8C424.5,208.7,427,210.8,427,212.1L427,212.1z M423.3,189.8c0.6-1.2,1.4-1.8,2.3-1.8
	c0.5,0,0.8,0.2,0.8,0.7c0,0.2,0,0.4-0.1,0.6c-1.6,3.4-2.9,6.9-4,10.3c4.9,3.6,7.2,7.2,6.9,10.9c-0.4,3.9-0.9,6.4-1.7,7.3
	c-2.1,2.9-4.9,4.4-8.1,4.4c-3.1,0-4.7-1.9-4.7-5.7c0-2.9,1.1-7.5,3.2-13.6C419.7,197.5,421.5,193.1,423.3,189.8L423.3,189.8z
	 M314.9,359.4c0.1-0.2,0.2-0.4,0.2-0.5c0.1-0.1,0.1-0.1,0.2,0c0.1,0.1,0.1,0.3,0.1,0.5c0.1,2-0.5,7.8-1.2,9.5
	c-0.7,1.7-1.6,2.7-2.8,2.9c-1.3,0.2-2.4-0.2-3.3-1.3c-0.9-1.1-1.6-2.7-2-4.7c-0.4-2.5-0.1-6.4,0.9-11.6c0.9-4.6,1.8-7.9,2.8-9.9
	c0.4-0.9,0.7-1.4,0.9-1.4c0.1,0.1,0,0.6-0.2,1.5c-1.7,6.2-2.1,11-2,14.7C308.8,365.2,312,367.9,314.9,359.4L314.9,359.4z
	 M434.3,288.4c0.1-0.3,0.2-0.4,0.2-0.5c0.1-0.1,0.1-0.1,0.2,0c0.1,0.1,0.1,0.3,0.1,0.5c0.2,2-0.5,7.8-1.2,9.5
	c-0.7,1.7-1.6,2.7-2.8,2.9c-1.3,0.3-2.4-0.2-3.3-1.2c-0.9-1.1-1.6-2.7-2-4.7c-0.4-2.5-0.1-6.4,0.9-11.6c0.9-4.6,1.8-7.9,2.8-9.9
	c0.4-0.9,0.7-1.4,0.9-1.4c0.1,0.1,0,0.6-0.2,1.5c-1.7,6.2-2.1,11-2,14.7C428.1,294.3,431.4,296.9,434.3,288.4L434.3,288.4z
	 M495,409.6c0.1-0.4,0.2-0.6,0.3-0.8c0.1-0.1,0.2-0.1,0.3,0c0.1,0.1,0.1,0.4,0.2,0.7c0.2,3-0.8,11.5-1.8,14c-1,2.5-2.4,3.9-4.1,4.2
	c-1.9,0.4-3.5-0.2-4.9-1.9c-1.4-1.6-2.4-3.9-2.9-6.9c-0.6-3.7-0.2-9.4,1.3-17.1c1.3-6.7,2.7-11.6,4.1-14.5c0.6-1.3,1.1-2,1.4-2.1
	c0.1,0.2,0,0.9-0.3,2.2c-2.5,9.2-3.1,16.2-2.9,21.6C486,418.2,490.7,422.1,495,409.6L495,409.6z M314.4,253.9
	c-0.7-3.1-1.7-6.7-3-10.6c-1.5-4.9-2.6-7.4-3.2-7.4c-0.5,0-0.8,0.1-0.9,0.4c-0.1,0.3-0.5,0.4-1.1,0.4c-0.7,0-1.6-0.5-2.8-1.5
	c-1.1-1.1-1.7-1.9-1.7-2.6c0-0.3,0.5-1.2,1.4-2.8c1-1.6,1.6-2.4,1.8-2.4c2.4,0,4.5,1.4,6.3,4.2c1.9,2.8,3.2,6.4,3.9,10.9
	c0.1,0.5,0.1,0.7,0.1,0.8c0.1,0.1,0.1,0.1,0.2,0c0-0.1,0.1-0.3,0.3-0.8c0.4-2.7,1.3-6.7,2.8-12c1.6-3.8,3.3-5.7,5.2-5.7
	c1,0,1.9,0.7,2.9,2c0.8,1.1,1.3,2,1.3,2.8c0,0.5-0.2,1.2-0.5,2.1c-0.4,1.2-0.8,1.8-1.3,1.8c-0.2,0-0.7-0.4-1.4-1.3
	c-0.7-0.9-1.4-1.4-2.2-1.4c-1.7,0-3.2,4-4.6,11.9c-0.6,3.3-1.3,7.1-2.1,11.1c1.3,0.1,3.1,1.1,5.3,2.8c2.2,1.7,3.3,3.2,3.5,4.5
	c0,0.3-0.2,1.2-0.9,2.6c-0.6,1.4-1.1,2.2-1.3,2.2c-2.1,0.6-4.1,1.1-6.2,1.7c-2.6,0.8-4.3,1.8-5.3,3c0.8,2.6,1.7,7.2,2.7,14
	c1.1,7.5,1.6,13.7,1.6,18.6c0,2.8-0.3,5.4-0.8,8c-0.2,0.9-0.4,1.4-0.5,1.4c-0.3,0-0.4-1.5-0.4-4.4c0-4.9-0.7-12-2.1-21.3
	c-1.4-9.4-2.1-14.5-2.1-15.6c0-3.4,0.9-5.9,2.9-7.5c0.9-0.7,2.7-1.5,5.2-2.2c-1.1-1.1-2.1-1.6-3-1.6c-0.5,0-1.1,0.6-1.9,1.6
	c-0.8,1.1-1.3,1.6-1.4,1.6c-0.2,0-0.3-0.5-0.2-1.4C311.2,257.4,312.5,254.8,314.4,253.9L314.4,253.9z M541.9,380.4
	c-1.8,2.7-3.2,4.4-4.1,5c-0.8,0.6-1.1,0.2-1-1.1c0.3-1.2,0.9-2.9,2-5.1c1.1-2.2,2.7-6.2,5-12.1c5.6-20.5,0.4-39.3-15.5-56.4
	c-1-1.1-0.9-2.3,0.2-3.8l7-9.1c0.6-0.8,1.3-0.8,2.2,0c15.2,13.4,20.4,31.7,15.7,54.9C551.3,363,547.5,372.1,541.9,380.4L541.9,380.4
	z M472.1,283.7c-3.8-1.9-5.7-3.4-5.7-4.6c0-0.5,0.5-1,1.5-1.6c1-0.6,1.7-0.8,2.3-0.8c1.1,0,1.9,0.8,2.2,2.5
	C472.6,280.7,472.5,282.2,472.1,283.7L472.1,283.7z M399.5,63.4c17.9-10.5,36.5-21.4,56-32.9c0.8-0.5,1.2-0.7,1.4-0.6
	c0.2,0.1,0.3,0.5,0.1,1.3c-0.5,2.4-1,3.9-1.5,4.4C439.2,45.3,420,57,398.1,70.7C398.3,68.5,398.8,66.1,399.5,63.4L399.5,63.4z
	 M398.3,397.7c13.9-6.3,28.6-13,44.2-20.1c0.8-0.4,1.3-0.5,1.4-0.4c0.2,0.1,0.2,0.6-0.1,1.3c-0.7,2.3-1.4,3.7-1.9,4.3
	c-13.1,5.9-28.3,13.3-45.7,22.2C396.6,402.7,397.3,400.3,398.3,397.7L398.3,397.7z M502.7,213.8c13.1-7.7,27.1-15.9,41.8-24.6
	c0.8-0.5,1.2-0.6,1.4-0.6c0.2,0.1,0.3,0.5,0.1,1.3c-0.5,2.4-1,3.9-1.4,4.4c-12.4,7.2-26.8,16.1-43.2,26.7
	C501.5,219,501.9,216.6,502.7,213.8L502.7,213.8z M531.4,245.8c-2.8,0.6-5.5,1-8,1.1c-6.9,0.3-10.3-1.2-10.2-4.3
	c0-2.7,2.5-4.2,7.5-4.3C523.9,238.1,527.5,240.7,531.4,245.8L531.4,245.8z M460.3,346.6c6.5,9.4,14.9,18.6,25.4,27.6
	c3.4,3,12.5,10.1,27.1,21.3c10.1,7.7,17.3,14.2,21.4,19.3c2,2.5,3,4.2,3,5.2c0,0.6-0.3,1.1-0.8,1.6c-5.4,5.5-12.6,10.2-21.4,14.1
	c-11.5,5.2-23.8,7.8-36.8,7.8v-0.3c-3.7,0-6.5-0.7-8.4-2.3c-2.9-2.3-4.9-6.5-6.1-12.8c-0.9-4.1-1.5-16.8-2.1-37.9
	C461.2,373.7,460.7,359.2,460.3,346.6L460.3,346.6z M405.7,319.9c-2,1-6.5,2.6-13.4,4.9c-2.7-5.3-4.5-9-5.3-11.2
	c-0.3-0.8,0.4-1.1,2.2-1.1c2.7,0,6.1,0.9,10.3,2.8C403.6,317.3,405.7,318.8,405.7,319.9z"/>
<path fill="#000000" d="M273.602,481.306c-0.578-0.576-1.301-1.03-2.174-1.362c-0.873-0.331-1.885-0.497-3.039-0.497
	c-0.663,0-1.463,0.079-2.4,0.238v-6.077h-1.535v17.711c0.706,0.202,1.402,0.354,2.087,0.454s1.301,0.151,1.849,0.151
	c1.153,0,2.166-0.162,3.039-0.486s1.596-0.764,2.174-1.319c0.576-0.555,1.006-1.211,1.287-1.968s0.42-1.561,0.42-2.411
	s-0.139-1.657-0.42-2.422C274.608,482.554,274.178,481.883,273.602,481.306z M272.391,489.167c-0.852,0.829-2.17,1.243-3.958,1.243
	c-0.39,0-0.805-0.032-1.244-0.097c-0.439-0.065-0.84-0.134-1.2-0.206v-8.845c0.447-0.115,0.887-0.194,1.319-0.237
	c0.433-0.044,0.808-0.065,1.125-0.065c0.894,0,1.668,0.112,2.325,0.335c0.656,0.224,1.199,0.545,1.633,0.963
	c0.432,0.418,0.752,0.919,0.961,1.503s0.314,1.243,0.314,1.979C273.667,487.195,273.241,488.338,272.391,489.167z M247.392,479.446
	c-0.62,0-1.297,0.079-2.033,0.238c-0.735,0.158-1.485,0.433-2.249,0.821l-0.065,1.73c0.548-0.303,0.973-0.52,1.276-0.649
	s0.624-0.237,0.962-0.324c0.338-0.086,0.677-0.158,1.016-0.216s0.667-0.087,0.984-0.087c1.139,0,1.982,0.249,2.53,0.746
	s0.822,1.33,0.822,2.498v0.13c-0.332-0.044-0.732-0.087-1.2-0.13c-0.469-0.043-0.876-0.065-1.222-0.065
	c-1.831,0-3.302,0.311-4.412,0.931c-1.11,0.619-1.665,1.644-1.665,3.07c0,0.707,0.155,1.305,0.465,1.795
	c0.31,0.49,0.713,0.88,1.211,1.168s1.067,0.497,1.708,0.627c0.641,0.13,1.308,0.194,2,0.194c0.807,0,1.6-0.072,2.378-0.216
	c0.779-0.145,1.536-0.368,2.271-0.671v-7.028c0-1.585-0.397-2.742-1.189-3.471C250.189,479.811,248.992,479.446,247.392,479.446z
	 M250.636,489.892c-0.375,0.144-0.858,0.267-1.449,0.367c-0.591,0.102-1.183,0.151-1.773,0.151c-0.505,0-0.984-0.035-1.438-0.108
	c-0.454-0.071-0.84-0.197-1.157-0.378c-0.317-0.18-0.57-0.414-0.757-0.703c-0.188-0.288-0.281-0.663-0.281-1.124
	c0-0.52,0.111-0.934,0.335-1.244c0.224-0.31,0.533-0.551,0.93-0.724c0.396-0.174,0.85-0.296,1.362-0.368
	c0.511-0.072,1.041-0.108,1.589-0.108c0.476,0,0.984,0.029,1.524,0.087c0.541,0.058,0.912,0.108,1.114,0.151V489.892z
	 M258.032,479.868c-0.649,0.122-1.276,0.263-1.881,0.422v11.418h1.535v-10.186c0.202-0.072,0.563-0.147,1.082-0.228
	c0.519-0.079,1.002-0.118,1.449-0.118h1.989v-1.492H260C259.336,479.685,258.681,479.746,258.032,479.868z M-77.92,487.667
	l241.145,0.656l0.663-0.433l-0.632-0.564L-77.92,487.667z M164.994,487.825l1.95,1.95l1.95-1.95l-1.95-1.95L164.994,487.825z
	 M169.559,487.825l3.057,3.057l3.057-3.057l-3.057-3.057L169.559,487.825z M212.359,489.286l-3.395-9.602h-1.514l-3.396,9.602
	l-2.984-9.602h-1.73l3.979,12.023h1.428l3.46-9.645l3.46,9.645h1.427l3.979-12.023h-1.73L212.359,489.286z M238.418,489.589
	c-0.317,0-0.591,0.115-0.822,0.346c-0.231,0.23-0.346,0.505-0.346,0.822c0,0.316,0.115,0.591,0.346,0.821
	c0.23,0.23,0.504,0.346,0.822,0.346c0.317,0,0.591-0.115,0.822-0.346c0.23-0.23,0.346-0.505,0.346-0.821
	c0-0.317-0.116-0.592-0.346-0.822C239.009,489.704,238.735,489.589,238.418,489.589z M193.243,489.286l-3.395-9.602h-1.514
	l-3.396,9.602l-2.984-9.602h-1.73l3.979,12.023h1.428l3.46-9.645l3.46,9.645h1.427l3.979-12.023h-1.73L193.243,489.286z
	 M231.476,489.286l-3.395-9.602h-1.514l-3.396,9.602l-2.984-9.602h-1.73l3.979,12.023h1.428l3.46-9.645l3.46,9.645h1.427
	l3.979-12.023h-1.73L231.476,489.286z M382.732,480.474c-0.426-0.396-0.938-0.667-1.535-0.812c-0.598-0.144-1.271-0.216-2.021-0.216
	c-0.664,0-1.393,0.09-2.184,0.271c-0.793,0.181-1.471,0.4-2.033,0.659c-0.346-0.331-0.818-0.569-1.416-0.714
	c-0.6-0.144-1.273-0.216-2.023-0.216c-0.635,0-1.268,0.058-1.902,0.173l-2.465,0.454v11.635h1.535v-10.38
	c0.447-0.102,0.883-0.188,1.309-0.26c0.424-0.072,0.896-0.108,1.416-0.108c0.605,0,1.125,0.058,1.557,0.173
	c0.434,0.116,0.789,0.321,1.07,0.616c0.281,0.296,0.494,0.711,0.639,1.244s0.217,1.24,0.217,2.119v6.596h1.535v-7.201
	c0-0.663-0.055-1.243-0.162-1.741c-0.109-0.497-0.213-0.861-0.314-1.092c0.086-0.043,0.281-0.119,0.584-0.228
	c0.303-0.107,0.602-0.197,0.898-0.27c0.295-0.072,0.586-0.126,0.875-0.162s0.547-0.055,0.779-0.055c0.59,0,1.102,0.058,1.535,0.173
	c0.432,0.116,0.781,0.317,1.049,0.605c0.266,0.289,0.471,0.703,0.615,1.244c0.145,0.54,0.217,1.251,0.217,2.13v6.596h1.535v-7.201
	c0-0.995-0.111-1.816-0.336-2.466C383.482,481.393,383.158,480.87,382.732,480.474z M280.1,474.581
	c-0.785,0.648-1.18,1.729-1.18,3.243v1.86h-2.551v1.492h2.551v10.531h1.537v-10.531h4.973v-1.492h-4.973v-1.471
	c0-0.635,0.045-1.149,0.141-1.546c0.094-0.396,0.24-0.707,0.443-0.931c0.201-0.223,0.475-0.385,0.82-0.486
	c0.346-0.101,0.779-0.151,1.299-0.151h2.422v-1.492h-2.271C281.956,473.607,280.885,473.932,280.1,474.581z M398.273,487.825
	l3.057,3.057l3.057-3.057l-3.057-3.057L398.273,487.825z M343.322,482.322c0.389-0.418,0.854-0.749,1.395-0.994
	s1.135-0.368,1.783-0.368c0.736,0,1.373,0.076,1.914,0.228s1.121,0.414,1.74,0.789l0.715-1.405c-0.707-0.39-1.393-0.674-2.055-0.854
	c-0.664-0.181-1.436-0.271-2.314-0.271c-0.85,0-1.639,0.155-2.367,0.465c-0.729,0.311-1.367,0.746-1.914,1.309
	c-0.549,0.563-0.98,1.222-1.297,1.979c-0.317,0.757-0.476,1.59-0.476,2.498s0.158,1.74,0.476,2.497
	c0.316,0.757,0.748,1.413,1.297,1.969c0.547,0.555,1.186,0.987,1.914,1.297c0.729,0.311,1.518,0.465,2.367,0.465
	c0.879,0,1.65-0.09,2.314-0.27c0.662-0.181,1.348-0.466,2.055-0.854l-0.715-1.406c-0.619,0.375-1.199,0.639-1.74,0.79
	s-1.178,0.227-1.914,0.227c-0.648,0-1.242-0.119-1.783-0.356c-0.541-0.238-1.006-0.565-1.395-0.984
	c-0.391-0.418-0.693-0.915-0.908-1.492c-0.217-0.576-0.324-1.203-0.324-1.881s0.107-1.305,0.324-1.882
	C342.628,483.238,342.931,482.741,343.322,482.322z M404.387,487.825l1.949,1.95l1.951-1.95l-1.951-1.95L404.387,487.825z
	 M410.701,487.326l-0.664,0.433l0.633,0.564l241.176-0.341L410.701,487.326z M362.611,481.295c-0.549-0.569-1.193-1.02-1.936-1.352
	c-0.742-0.331-1.547-0.497-2.412-0.497c-0.863,0-1.668,0.166-2.41,0.497c-0.742,0.332-1.389,0.782-1.936,1.352
	c-0.549,0.57-0.977,1.229-1.287,1.979c-0.311,0.749-0.465,1.557-0.465,2.422s0.154,1.672,0.465,2.422s0.738,1.409,1.287,1.979
	c0.547,0.569,1.193,1.017,1.936,1.341s1.547,0.486,2.41,0.486c0.865,0,1.67-0.162,2.412-0.486s1.387-0.771,1.936-1.341
	c0.547-0.569,0.977-1.229,1.287-1.979c0.309-0.75,0.465-1.557,0.465-2.422s-0.156-1.673-0.465-2.422
	C363.587,482.524,363.158,481.865,362.611,481.295z M362.394,487.523c-0.217,0.569-0.52,1.067-0.908,1.492
	c-0.389,0.426-0.857,0.765-1.406,1.017c-0.547,0.252-1.152,0.378-1.816,0.378c-0.662,0-1.268-0.126-1.816-0.378
	c-0.547-0.252-1.016-0.591-1.404-1.017c-0.391-0.425-0.693-0.923-0.908-1.492c-0.217-0.569-0.324-1.179-0.324-1.827
	c0-0.649,0.107-1.262,0.324-1.839c0.215-0.576,0.518-1.077,0.908-1.503c0.389-0.425,0.857-0.764,1.404-1.016
	c0.549-0.252,1.154-0.379,1.816-0.379c0.664,0,1.27,0.127,1.816,0.379c0.549,0.252,1.018,0.591,1.406,1.016
	c0.389,0.426,0.691,0.927,0.908,1.503c0.217,0.577,0.324,1.189,0.324,1.839C362.718,486.345,362.611,486.954,362.394,487.523z
	 M296.221,481.295c-0.547-0.569-1.191-1.02-1.936-1.352c-0.742-0.331-1.545-0.497-2.41-0.497s-1.67,0.166-2.412,0.497
	c-0.742,0.332-1.387,0.782-1.936,1.352c-0.547,0.57-0.977,1.229-1.285,1.979c-0.311,0.749-0.465,1.557-0.465,2.422
	s0.154,1.672,0.465,2.422c0.309,0.75,0.738,1.409,1.285,1.979c0.549,0.569,1.193,1.017,1.936,1.341s1.547,0.486,2.412,0.486
	s1.668-0.162,2.41-0.486c0.744-0.324,1.389-0.771,1.936-1.341c0.549-0.569,0.977-1.229,1.287-1.979s0.465-1.557,0.465-2.422
	s-0.154-1.673-0.465-2.422C297.198,482.524,296.77,481.865,296.221,481.295z M296.006,487.523c-0.217,0.569-0.52,1.067-0.908,1.492
	c-0.391,0.426-0.859,0.765-1.406,1.017c-0.549,0.252-1.154,0.378-1.816,0.378c-0.664,0-1.27-0.126-1.816-0.378
	c-0.549-0.252-1.018-0.591-1.406-1.017c-0.389-0.425-0.691-0.923-0.908-1.492s-0.324-1.179-0.324-1.827
	c0-0.649,0.107-1.262,0.324-1.839c0.217-0.576,0.52-1.077,0.908-1.503c0.389-0.425,0.857-0.764,1.406-1.016
	c0.547-0.252,1.152-0.379,1.816-0.379c0.662,0,1.268,0.127,1.816,0.379c0.547,0.252,1.016,0.591,1.406,1.016
	c0.389,0.426,0.691,0.927,0.908,1.503c0.215,0.577,0.324,1.189,0.324,1.839C296.331,486.345,296.221,486.954,296.006,487.523z
	 M309.381,480.463c-0.455-0.39-0.996-0.656-1.623-0.801c-0.627-0.144-1.309-0.216-2.043-0.216c-0.707,0-1.465,0.047-2.271,0.141
	s-1.701,0.234-2.682,0.422v11.699h1.535v-10.402c1.184-0.23,2.293-0.346,3.33-0.346c0.592,0,1.111,0.062,1.559,0.184
	c0.445,0.123,0.818,0.332,1.113,0.628c0.295,0.295,0.525,0.713,0.691,1.254s0.25,1.251,0.25,2.13v6.553h1.535v-7.201
	c0-0.995-0.119-1.82-0.357-2.477C310.18,481.375,309.834,480.852,309.381,480.463z M318.516,490.054
	c-0.346-0.108-0.619-0.277-0.82-0.509c-0.203-0.23-0.35-0.547-0.443-0.951c-0.096-0.403-0.141-0.922-0.141-1.557v-5.86h4.973v-1.492
	h-4.973v-4.347h-1.537v4.347h-2.551v1.492h2.551v6.466c0,0.764,0.109,1.405,0.326,1.925c0.215,0.519,0.525,0.937,0.93,1.254
	c0.402,0.317,0.867,0.544,1.395,0.682c0.525,0.137,1.105,0.205,1.74,0.205h2.271v-1.492h-2.422
	C319.295,490.216,318.862,490.162,318.516,490.054z M337.784,489.589c-0.316,0-0.59,0.115-0.82,0.346s-0.346,0.505-0.346,0.822
	c0,0.316,0.115,0.591,0.346,0.821s0.504,0.346,0.82,0.346c0.318,0,0.592-0.115,0.822-0.346s0.346-0.505,0.346-0.821
	c0-0.317-0.115-0.592-0.346-0.822S338.102,489.589,337.784,489.589z M333.178,486.106c-0.346-0.303-0.785-0.565-1.318-0.789
	c-0.533-0.223-1.182-0.422-1.947-0.595l-0.799-0.173c-1.053-0.216-1.781-0.461-2.184-0.735c-0.404-0.273-0.607-0.678-0.607-1.211
	c0-0.504,0.238-0.904,0.715-1.2c0.475-0.295,1.174-0.443,2.098-0.443c0.793,0,1.477,0.076,2.055,0.228
	c0.576,0.151,1.217,0.421,1.924,0.811l0.691-1.405c-1.412-0.765-2.969-1.146-4.67-1.146c-0.635,0-1.223,0.076-1.764,0.228
	c-0.539,0.151-1.008,0.364-1.404,0.638s-0.711,0.605-0.941,0.994c-0.23,0.39-0.346,0.815-0.346,1.276
	c0,0.462,0.072,0.88,0.217,1.254c0.143,0.375,0.381,0.707,0.713,0.995s0.758,0.537,1.275,0.746c0.52,0.209,1.146,0.4,1.883,0.573
	l0.908,0.194c1.008,0.217,1.729,0.49,2.162,0.822c0.432,0.331,0.648,0.771,0.648,1.318c0,0.39-0.086,0.707-0.26,0.952
	c-0.172,0.245-0.414,0.436-0.725,0.573c-0.311,0.137-0.678,0.237-1.102,0.303c-0.426,0.064-0.877,0.097-1.352,0.097
	c-0.592,0-1.223-0.09-1.893-0.271c-0.67-0.18-1.352-0.479-2.045-0.897l-0.734,1.471c0.779,0.433,1.539,0.742,2.281,0.93
	s1.539,0.281,2.391,0.281c0.748,0,1.434-0.072,2.053-0.216c0.621-0.145,1.158-0.36,1.611-0.648c0.455-0.289,0.805-0.649,1.049-1.082
	c0.246-0.433,0.369-0.93,0.369-1.492c0-0.476-0.072-0.915-0.217-1.318C333.77,486.763,333.526,486.41,333.178,486.106z"/>
</svg>

