<?xml version="1.0" encoding="utf-8"?>
<!-- Generator: Adobe Illustrator 21.0.0, SVG Export Plug-In . SVG Version: 6.00 Build 0)  -->
<svg version="1.1" id="Layer_1" xmlns="http://www.w3.org/2000/svg" xmlns:xlink="http://www.w3.org/1999/xlink" x="0px" y="0px"
	 viewBox="0 0 800 500" style="enable-background:new 0 0 800 500;" xml:space="preserve">
<style type="text/css">
	.st0{fill-rule:evenodd;clip-rule:evenodd;}
</style>
<path fill="#000000" class="st0" d="M76.5,145.2h-1.9c0-9.6-7.5-26-15.4-26c-2.9,0-6.7,7.4-6.7,7.7c0,4.1,3.6,7.7,6.7,7.7c2.6,0,2.6-0.4,5.4-1.2
	l9.1,23.3c-4.2,6.3-5.8,4.8-5.8,16.4c3.4-2.3,2.6-4.8,5.8-4.8h0.9c2.7,0,2.3,0.7,2.9,2.8c-6.7,0.6-12.5,6.4-12.5,13.5
	c0,9.4,3.5,20,4.8,28.9c0.9,5.4,2,27.2,3.7,29.8l2-14.4c1.2-7.9-5.3-38.4-7.7-43.3c5.2-3.4,12.3-7,20.2-7.7c0.7-3,2.9-5.6,2.9-7.7
	c0-4.9-9.3-12-14.4-12.5c1.2-5,6.9-32.7,10.6-32.7c3,0,4.1,1.3,4.8,3.9c3.3-0.3,4.8-1.5,4.8-4.8c0-3.5-3.9-9.6-6.7-9.6
	C81.8,114.4,76.5,136.2,76.5,145.2L76.5,145.2z M598.5,365.4c3.3-0.9,3.3-1.9,6.7-1.9h1c2.6,0,3.8,2.5,3.8,4.8
	c0,5.5-15.3,19.2-16.3,23.1c8.2-4.3,22.1-17.9,22.1-29.8v-3.8c0-2.7-4-5.8-6.7-5.8C602.7,351.9,599.1,359.3,598.5,365.4L598.5,365.4
	z M322.6,351.1c-1.9,8-16.3,14.1-16.3,26.8v1c0,16,31.6,5.9,37.5-2.9c-7.7,0.6-12.9,3.9-23,3.9h-2c-4.1,0-5.2-1.1-8.6-2v-3.8
	c0-4.9,19.2-17.2,19.2-27c0-4-10.8-4.7-13.7-4.1c-7.3,1.4-6.6,3.7-9.4,7.9L322.6,351.1L322.6,351.1z M383.1,372.1
	c0-10.1-0.7-9.6,1.8-19.4c1.3-5.3,4.6-13.7,5-18.1c-6.4,7.3-12.5,25.6-12.5,39.4c0,4.3,2.5,11.5,6.7,11.5h2.9c5,0,9.5-13.4,9.6-19.3
	c-2.9,2.1-4.5,8.7-8.7,8.7C385.7,375,385.1,373.4,383.1,372.1L383.1,372.1z M439.9,377.8c0,3.3-0.7,3.8-1,6.8
	c7-1.9,5.5-20.5,3.5-27.5c-2.4-8.4-8.9-16.5-15-20.6l-4.8,6.8c5.1,7.6,17.3,15.3,17.3,28.8V377.8L439.9,377.8z M253.4,391.3
	c6.1-1.6,7.1-23.6,12.5-31.7l6.7,4.9c1-2,2-2.9,2-5.8c0-4.1-3-7.7-6.8-7.7c-6.1,0-11.3,20.5-11.5,27.9c-4.7-7.5-3.3-22.9-17.3-24
	c-1,3.8-3.8,5-3.8,9.6c0,1.7,4.5,4.8,6.7,4.8c2.1,0,1.3-0.4,3.9-1L253.4,391.3L253.4,391.3z M214,346.1l-8.7-4.8
	c0.2-0.2,1.7-0.9,2.9-0.9h1C212.3,340.4,213.7,343.1,214,346.1L214,346.1z M132.2,385.6c26-2.2,62.1-17.2,67.3-39.5
	c2.2,1.5,8.4,7.7,11.5,7.7h1.9c3.6,0,4.8-5.9,4.8-9.6v-2.9c0-4.8-3.4-9.6-8.6-9.6c-3.5,0-12.8,14.2-14.7,18
	c-2.6,5.1-13,11.8-18,14.7C169.9,368.2,134.3,382.7,132.2,385.6L132.2,385.6z M101.5,333.6c0-9.8,5.6-17.1,5.8-25
	c-5.5,6.4-10.6,22.5-10.6,34.6c0,3.6,2.2,9.6,5.8,9.6h1c6.6,0,9.6-9.5,9.6-16.4c-1.9,2.2-4.1,7.7-7.7,7.7c-1.9,0-3.8-4-3.8-6.8
	V333.6L101.5,333.6z M131.1,329c4.7-6.4,18.4-12.2,18.4-26.2V299c0-3.1-2.8-3.7-4.8-4.8c-6.3,1.4-9.5,3.9-9.6,11.5
	c2.6-0.6,3.9-1.9,5.7-1.9c0.3,0,1.8,0.6,2.9,1c0.6,2.7,1,1.6,1,3.8c0,1.6-5.6,9.1-6.7,10.6c-0.6,0.8-7.9,8.5-7.9,8.8L131.1,329
	L131.1,329z M488.9,308.7C487.2,307,490.7,310.3,488.9,308.7L488.9,308.7z M262,299c12.2-1,34.5-7.7,47-10.7
	c7.2-1.9,16.1-4,23.5-5.4c7.9-1.5,16.5-7.5,20.9-7.9l1.6,26.9l-50.5,6.8l-0.1-1C294,308.9,268.7,304.8,262,299L262,299z
	 M681.2,315.4c-11.7,5.2-25.4,8.6-42.3,8.6c-18,0-19-26.7-19.2-45.2c-0.3-19.4-2.5-42.6-2.9-61.5h1.9c5.9,22.2,91.3,61.5,91.3,75
	C710.1,296.8,686.4,313.1,681.2,315.4L681.2,315.4z M386.1,235.5c0-8,6.4-37.5,11.5-37.5h7.7c6.4,0,16.4,2.9,16.4,8.6
	C421.7,213.1,392.1,233.9,386.1,235.5L386.1,235.5z M386.1,171.2c0-2.6,5.5-3.8,8.6-3.8c6.1,0,12.2,5.4,13.4,10.6h-14.4
	C389.3,177.9,386.1,175.8,386.1,171.2L386.1,171.2z M552.4,154.8l-19.2,5.8c-1-4.5-10-16.4-3.9-16.4
	C537.7,144.2,548.9,149.7,552.4,154.8L552.4,154.8z M637.6,130c-1,2.2-0.6-0.4-0.6,1.7c0,7.4-6.8-1.9-6.8-2c0-1.2,2-2.8,3.9-2.8h1.9
	L637.6,130L637.6,130z M744.7,183.7c0-20.1,31.7-45.7,31.7-51.9v-2.9c-21.5-5-67.8,17.5-85.2,26.3c-12.8,6.5-70.8,33.3-73.4,42.9
	c6.5,1.5,26.7,8.7,26.9,16.4h-10.5c14.3,21.4,69.2,35.7,80.4,63.8c14.4,36.2-38.2,67-72.7,67h-2.8c-28.6,0-22.9-29.7-28.9-36.5
	c0,15.4-6.7,24.5-15.1,32c-7.5,6.8-17.7,15.5-26,21.1c-15.5,10.3-40.9,28.7-65.6,28.7c-31,0-44.2-24.7-44.2-55.8v-2
	c0-7.4,1-16,2.5-22.5c2.6-11.7,0.9-7.4-0.6-19.8c-1.6-13.4-3.8-34-3.8-43.3v-17.3c-8.4,2.3-28.6,39.5-49.1,39.5h-0.9
	c-7.9,0-18.6-7.6-20.6-14.1l-21.9,12.1l1.7,30.8l0.6,0.8l40.1-15.2c-0.5,2.2-1,2.2-1,4.8v6.7c0,7.1,7.1,9.6,14.4,9.6h1.9
	c4.4,0,14.5-2.5,14.5-5.8c0-7.5-5.8-11-5.8-15.4c0-5.2,3.7-13.3,4.8-18.3c5.5,1.5,8.6,14.5,8.6,22.1v5.8c0,14.9-8.7,32.7-23,32.7
	h-2.9c-11.3,0-21.2-7.2-21.2-18.3v-2.8c-0.4,0.1-29.4,11.8-30.7,12.5c-4,2.1-5.7,26.6-12.6,31.7l1-27.9c-7.3,3.5-31.9,7.7-43.3,7.7
	h-7.7c-14.6,0-30.9-1.7-40.4-6.8c0,10.5-0.5,15.7-4.8,22.1c-26.5-6.2-25.4-38.5-33.6-38.5h-7.7c-55,0-81.9,82.7-118.2,82.7h-4.8
	c-11.7,0-23.1-17.7-23.1-30.8v-4.8c0-8.6,4.9-24.9,7.7-30.8c-24.1,5.6-38.4,11.7-51.8-11.7c-3.5-6.2-7.1-21.2-5.4-30.9
	c1.1-6.2,1.1-11.5,2.2-17c0.9-4.3,4-12.6,4-15.3c0-0.7-5.8-4.5-5.8-14.4V225c0-18.5,12.5-33.4,12.5-51.9v-3.9
	c0-22.4-21.1-42-21.1-43.2c0-3,4.1-10.6,5.7-10.6c10.8,0,22.1,33,22.1,45.2v6.7c0,18.3-13.4,38.1-13.4,52.8v2.9
	c0,4.9,1.9,10.6,6.7,10.6c6.2,0,6.9-8.5,11.6-11.5c-2.2,9.6-3.8,24.1-14.4,25c-1.9,8-4.8,18.4-4.8,27.9v1.9
	c0,14.2,11.7,29.8,26,29.8c17.6,0,38.5-12.1,49.8-19.4c6.2-4.1,37.7-26.5,37.7-32.5v-2.9c0-16.3-11.5-34-11.5-39.4v-1
	c0-4.7,3.1-15.3,5.7-17.3c6.1,4.5,2.7,14.4,16.3,14.4h2c20.7,0,12.3-34.6,19.2-34.6c20.9,0,5.7,75,34.6,75h4.8
	c11,0,43.1-15.1,49.1-20.6l-71.2-9.2c9.5-18,5.5-15.8,24.6-25.3c11.3-5.7,20.7-13.3,29.9-21.1c12-10.1,35.9-55.5,45.5-55.5
	c6.1,0,11.5,14.6,11.5,22.1v6.8c0,6.8-0.9,16.4-4.8,19.2c-3.1-5.8-1.8-26-10.6-26h-1c-8.3,0-20.3,26-24.6,33.1
	c-4.1,6.8-7.1,11.1-11.8,17.1c-3.5,4.5-12.4,10.9-14.6,14.3c12.6,0.2,35.2,5.1,49.9,6.8c17.2,2,32.5,3.8,52,3.8l4.5,0.3l-10.3,19.9
	c-56.6,0-65.4,14.3-103.2,30.5c-63.1,27-37.4-55.6-54.5-67c-2.7,5-3.8,15.8-6.7,22.1c-4.2,9.2-8.4,9.6-18.3,9.6
	c0,46.9-11.6,55.4-39,75.3c-5.3,3.9-11.1,7.8-17.1,10.9c-9.3,4.8-7.7,7.4-11.1,17.7c-4.5,13.6-7.6,38.3,11.4,38.3
	c36.5,0,72.6-86.5,125.9-86.5h11.6c2.6,0,2.6,0.5,4.8,1c0.6-1.2,1.3-3.8,2.8-3.8c0.9,0,17.8,12.7,20,14l94.4-40.9
	c0-17.8-5.2-110.8-9.9-119.3l6.9-18.6l1,0.4c3.6,2.7,17.3,40.1,16.8,48.6l-9.4-8.2l6.4,90l17.9-9.3v-5.8c0-16.9,6.9-24.7,9.6-36.5
	c-8.4-0.7-15.4-6.2-15.4-15.4v-2.9c0-13.6,12.2-30.8,25-30.8c14.6,0,27.8,27.2,27.8,43.2v4.8c0,12-4.8,27.3-10.8,33.4
	c-4,4.1-23,20.1-23.8,21.4c2.1,0.5,2.2,1,4.8,1h5.8c14.7,0,45.3-33.4,51.9-43.2c-1.7-20-1.7-37.2-5.8-54.8
	c-7.5,2-6.1,16.9-12.5,19.2c0-11.3,8.1-38.5,16.3-38.5h2.9c2.6,9.7,5.2,14,6.6,27c1.1,10.3,2,20.8,2,31.7v5.8
	c1.6-0.4,22.7-15.8,27.5-18.7c6.2-3.8,24.5-14.4,32.1-15c-0.6-7.6-6.7-11.2-6.7-20.2c0-11.5,7.3-21.2,19.2-21.2
	c9.6,0,36.5,17.4,36.5,26.9c0,4.2-1.9,8.3-3.3,12.2c-2.3,7.1-2,5-8.4,6.9c-6.8,2.1-17.4,4.9-22.3,7.9l-0.6,8.6
	c-5.3-0.4-3.7-2.5-5.8-6.7c-17.7,4.1-58.7,27.6-67.3,40.4c0,31.4,0.9,76.3,22.1,87.5c-1.9-7.2-7.6-8.5-7.6-23v-1
	c0-25.7,13.7-38.6,33.8-44.1c12.2-3.3,20.3-2.7,31.2-8.2c8.9-4.4,17.2-16.6,22.5-17c2.9,12.5-17.7,31.4-27.9,36.5
	c-9.1,4.6-49,9.8-49,18.3c0,21.5,18.9,45.2,40.4,45.2h4.8c21.9,0,49-28.4,54.8-28.9c-2.1,24.7-46.8,51.9-75,51.9h-7.7
	c-8.6,0-19.1-5.9-25.3-9.2c-9.9-5.4-12.6-14.1-18-17.7l-1.9,15.4c-1.3,9.8,5.7,26.4,10.4,31.1c7.2,7.3,15,12.2,29.1,12.2
	c22.1,0,51.6-16,64.6-25.8c16.6-12.5,39.3-22.3,39.3-51.1v-27.8l1-0.1l-6.8-94.3l-13.3,5.2l-0.5-0.9l12.9-8c-0.2-9-9.3-46,2.4-49.1
	l8.2,41.4c5.6-0.5,19.5-11.5,22.1-15.4c-2.5-1.4-8.7-5.3-8.7-8.7c0-9.9,6.8-13.1,13.4-16.3c2.2,1.1,5.5,2.5,5.2,6.8l-2.1,12.2
	l5.9,4.2l-5.3,7.8l-4.6-4c-3.7,5.6-16.9,17.5-24.3,19.3l2.2,20.1c19.2-22.1,45-31,72.5-44.8c14.6-7.4,69.1-31.1,87.1-31.1h3.8
	c5.8,0,7.7,3.9,7.7,9.6v1.9c0,12.9-12.3,25.6-18.4,33.5c-4,5.1-8.1,8.9-12,14C753.3,170.8,746.2,182.6,744.7,183.7L744.7,183.7z
	 M642.8,296.1c0,17,16.4,13.9,16.4-5.8c-1.3,1.4-4.8,7.7-6.8,7.7c-3.1,0-4.8-3.5-4.8-6.8v-1.9c0-11.5,5.1-17.8,5.8-26
	C648.5,267,642.8,286.6,642.8,296.1L642.8,296.1z M56.3,294.3c1.1-1.5,30.3-19.2,34.6-22.2c24.4-16.2,11.6-14.8,6.7-35.5
	c-4,0.3-2.1,1-5.8,1c-1.3,0-4.9-4.6-5.9-5.8l4.9-8.6c15.6,3.7,11.6,17.5,17.3,24c0-8.7,4.5-27.9,12.5-27.9c1.3,0,5.8,5.3,5.8,6.7
	c0,3.4-0.9,5.3-2.9,6.8c-3-2.2-1.5-3.8-4.8-3.8c-5.7,0-7.2,17.7-8.6,23.1c-1.9,7.1-6.6,15.7-11.3,20.4
	C91.4,279.8,69.1,293.2,56.3,294.3L56.3,294.3z M171.7,264.5c1.3-2.5,6.7-11.8,6.7-14.5c0-1.8-15.2-11.8-18.3-12.5l-7.7,16.4
	l14.3,9.8l-6.8,16c4.7,1.3,15.3,10.7,17.5,10.7c2.6,0,7.9-11.9,8.7-15.4L171.7,264.5L171.7,264.5z M538,306.7
	c1.4-6.1,3.5-10.6,5.2-18.8c1.4-6.8,2.3-13.1,7.3-15.8l6.3,5.3c1.2-2.2,2.4-4.8,2.4-7.2c0-2.9-3.9-7.7-6.7-7.7h-1
	c-7.2,0-12.5,21.3-12.5,29.8H537c0-9.9-7.8-25.9-16.4-25.9c-1.6,0-5.8,7.6-5.8,10.6c0,1.5,5.8,5.8,7.7,5.8c0.5,0,2.1-1.4,2.8-2
	C532,285.5,534,305.7,538,306.7L538,306.7z M56.3,259.6c1.7-1,3.1-1.9,5.8-1.9c1.6,0,2.2,2.6,2.9,3.8L51.7,280
	c6.3-2,18.1-15.8,18.1-24.2c0-3.4-2.1-6.7-5.7-6.7C58.9,249.1,56.3,254,56.3,259.6L56.3,259.6z M248.6,278.8
	c11-5.3,24.3-9.9,36.2-14.7c6.1-2.4,12-4.7,18.2-6.8c7-2.4,13.2-3.2,13.8-11.2c-4.6,0.4-31.9,10.8-37.8,13.2
	C265.5,264.8,251.9,264.5,248.6,278.8L248.6,278.8z M585,257.7c0-12.7,8.7-20.7,8.7-35.6v-6.8c0-9.7-7.9-28.8-14.5-28.8
	c-1.5,0-3.9,5.2-3.9,6.8c0,0.5,14.4,14.9,14.4,30.8c0,12.5-8.7,22.7-8.7,35.6v4.8c0,4.3,1.9,9.6,5.8,9.6h1.9c5,0,7.5-11.6,8.6-16.4
	c-3.1,2.1-5.1,7.7-8.6,7.7c-1.9,0-3.9-4-3.9-6.7V257.7L585,257.7z M480.3,237.5c9.6-5.1,22.4-9.8,32.7-14.4
	c8.7-4,27.9-7.3,28.8-18.3c-8.1,1.9-25.5,9.5-34,13.2C495.8,223.2,483.3,224.6,480.3,237.5L480.3,237.5z M665.8,186.5
	c4.9-2.3,12-3.8,19.3-3.8h6.7c3.2,0,4.7,3.6,5.8,5.8c2.6-1.8,6.8-3.6,6.8-7.7c0-1.8-4.6-4.8-7.7-4.8H687c-8.9,0-28.8,8.1-28.8,15.4
	c0,10.8,37.2,13.6,38.5,27.9c-5.9-0.5-23-7.4-29-9.5c-4.7-1.6-9.4-3.6-13.2-6.1c-3-1.9-8.8-7.7-10.7-8.5c0,14.7,8.7,18.5,19.6,22.7
	c6.3,2.5,26.1,9.9,31.5,6.4C723.7,205.8,672.5,196.5,665.8,186.5L665.8,186.5z M483.2,224.1c4.9-0.4,26.6-11.4,33.1-14.1
	c10.3-4.2,25.7-6.1,28.4-17.7c-6.1,0.5-27.1,10.3-34,13.1c-5.9,2.4-10.6,4.2-16.2,6.8C483.8,217.2,488,214,483.2,224.1L483.2,224.1z
	 M103.4,194.3c0-7.5,5.2-17.5,5.8-24.1c-4.8,5.6-9.6,19.5-9.6,29.8c0,5,1.9,10.6,6.7,10.6c5.6,0,6.8-10.6,8.7-14.4
	c-3.6,1.4-4,5.8-7.7,5.8C105,201.9,103.4,196.9,103.4,194.3L103.4,194.3z M338.8,187.9c-4.2-2.2-15.2-11-18.1-11
	c-2.1,0-5.7,9.5-6.8,11.6l-17.6-11.6l-0.6,1c-1,4.2-6.8,12.8-6.8,15.4c0,1.2,15.9,11.8,18.2,12.5l6.1-12.4l17.2,11.5L338.8,187.9
	L338.8,187.9z M270.7,185.6c0-7.2,4.3-17.5,5.7-24c-4.5,3.3-9.6,20.2-9.6,28.8v1c0,5.3,1.3,9.6,6.7,9.6c5.7,0,6.8-10.5,8.6-14.4
	l-7.1,7.3C272.4,191.4,270.7,189.7,270.7,185.6L270.7,185.6z M240.6,159l-0.1-1.2l-18.1-12.7l-0.4,1.2l-8,16.2l18.1,12L240.6,159
	L240.6,159z M320.7,127.9c1.2-0.7,3.2-1.9,4.8-1.9c1.3,0,2.3,2,3.4,3.3l-10.1,13l-2.6-0.8l-7.8,15.9l17.1,11.9l0.9,0.4l8.5-15.5
	l-0.2-1l-13.9-9.9c3-4.6,11.5-10.9,11.5-18.3c0-2.9-0.9-5.8-3.8-5.8h-1.9C322.6,119.2,321,124.1,320.7,127.9L320.7,127.9z
	 M182.2,159.6c3.5,7.3,16.4,13.3,16.4,6.7v-2.8c0-3.4-8.5-6.1-11.6-6.8c0.6-7.3,33.7-17.6,41.7-20.8c7.7-3.2,15.5-6.1,22.9-8.8
	c10.1-3.7,15.6-2.7,18.1-13.5c-11.3,2.6-37,12.8-48.8,17.6C196.1,141.2,193.8,135.5,182.2,159.6L182.2,159.6z M116.9,140.4h28.8
	c4.6,0,7,1.1,10.6,1.9c-2,7.7-34.6,17.2-37.5,25c8.5-2,29.5-7.7,35.2-11.9c4.5-3.4,20.6-21.5,20.6-27.5c0-5.2-11.6-6.8-17.4-6.8h-23
	C126.3,121.2,117.4,134.4,116.9,140.4L116.9,140.4z M378.3,133.7v1.9c0,3.3,3.9,5.1,6.8,5.8v1.9c-4.8,1.2-6.3,5-6.8,10.6
	c6.3-3.4,11.5-7.7,17.3-11.5c6.1-4.1,13.2-5.6,13.4-15.4c-2.2,1.1-13.2,7.7-14.4,7.7c-5.4,0-7.5-1.6-9.6-4.8
	c1.3-1.9,4.7-4.8,7.7-4.8c0.7,0,3.6,3.1,4.8,3.9c1-1.9,1.9-2.8,1.9-5.7v-3.9c0-2.2-0.6-2.9-2.8-2.9h-2
	C389.2,116.4,378.3,127.9,378.3,133.7L378.3,133.7z M489.9,156.8H488c0-9.2-7-25-15.3-25h-2.9c-0.8,3.1-3.8,5.8-3.8,8.6
	c0,3.3,4.4,5.5,6.7,6.7l5.7-0.9c1.6,6.9,7.7,13.7,7.7,22.1v2.8c9.2-1,5.2-27.8,15.5-34.7l6.6,4.9c0.8-1.7,1.9-4.3,1.9-6.8
	c0-2.9-3.9-7.7-6.7-7.7h-0.9C495.2,127,489.9,148.2,489.9,156.8L489.9,156.8z M417.8,134.6c0,2.5,15,12.2,18.3,12.5
	c1-3.8,6.8-10.9,6.8-14.4c0-4-13.7-11.6-17.3-13.5C424,121.5,417.8,131.9,417.8,134.6z"/>
<path fill="#000000" d="M273.602,481.306c-0.578-0.576-1.301-1.03-2.174-1.362c-0.873-0.331-1.885-0.497-3.039-0.497
	c-0.663,0-1.463,0.079-2.4,0.238v-6.077h-1.535v17.711c0.706,0.202,1.402,0.354,2.087,0.454s1.301,0.151,1.849,0.151
	c1.153,0,2.166-0.162,3.039-0.486s1.596-0.764,2.174-1.319c0.576-0.555,1.006-1.211,1.287-1.968s0.42-1.561,0.42-2.411
	s-0.139-1.657-0.42-2.422C274.608,482.554,274.178,481.883,273.602,481.306z M272.391,489.167c-0.852,0.829-2.17,1.243-3.958,1.243
	c-0.39,0-0.805-0.032-1.244-0.097c-0.439-0.065-0.84-0.134-1.2-0.206v-8.845c0.447-0.115,0.887-0.194,1.319-0.237
	c0.433-0.044,0.808-0.065,1.125-0.065c0.894,0,1.668,0.112,2.325,0.335c0.656,0.224,1.199,0.545,1.633,0.963
	c0.432,0.418,0.752,0.919,0.961,1.503s0.314,1.243,0.314,1.979C273.667,487.195,273.241,488.338,272.391,489.167z M247.392,479.446
	c-0.62,0-1.297,0.079-2.033,0.238c-0.735,0.158-1.485,0.433-2.249,0.821l-0.065,1.73c0.548-0.303,0.973-0.52,1.276-0.649
	s0.624-0.237,0.962-0.324c0.338-0.086,0.677-0.158,1.016-0.216s0.667-0.087,0.984-0.087c1.139,0,1.982,0.249,2.53,0.746
	s0.822,1.33,0.822,2.498v0.13c-0.332-0.044-0.732-0.087-1.2-0.13c-0.469-0.043-0.876-0.065-1.222-0.065
	c-1.831,0-3.302,0.311-4.412,0.931c-1.11,0.619-1.665,1.644-1.665,3.07c0,0.707,0.155,1.305,0.465,1.795
	c0.31,0.49,0.713,0.88,1.211,1.168s1.067,0.497,1.708,0.627c0.641,0.13,1.308,0.194,2,0.194c0.807,0,1.6-0.072,2.378-0.216
	c0.779-0.145,1.536-0.368,2.271-0.671v-7.028c0-1.585-0.397-2.742-1.189-3.471C250.189,479.811,248.992,479.446,247.392,479.446z
	 M250.636,489.892c-0.375,0.144-0.858,0.267-1.449,0.367c-0.591,0.102-1.183,0.151-1.773,0.151c-0.505,0-0.984-0.035-1.438-0.108
	c-0.454-0.071-0.84-0.197-1.157-0.378c-0.317-0.18-0.57-0.414-0.757-0.703c-0.188-0.288-0.281-0.663-0.281-1.124
	c0-0.52,0.111-0.934,0.335-1.244c0.224-0.31,0.533-0.551,0.93-0.724c0.396-0.174,0.85-0.296,1.362-0.368
	c0.511-0.072,1.041-0.108,1.589-0.108c0.476,0,0.984,0.029,1.524,0.087c0.541,0.058,0.912,0.108,1.114,0.151V489.892z
	 M258.032,479.868c-0.649,0.122-1.276,0.263-1.881,0.422v11.418h1.535v-10.186c0.202-0.072,0.563-0.147,1.082-0.228
	c0.519-0.079,1.002-0.118,1.449-0.118h1.989v-1.492H260C259.336,479.685,258.681,479.746,258.032,479.868z M-77.92,487.667
	l241.145,0.656l0.663-0.433l-0.632-0.564L-77.92,487.667z M164.994,487.825l1.95,1.95l1.95-1.95l-1.95-1.95L164.994,487.825z
	 M169.559,487.825l3.057,3.057l3.057-3.057l-3.057-3.057L169.559,487.825z M212.359,489.286l-3.395-9.602h-1.514l-3.396,9.602
	l-2.984-9.602h-1.73l3.979,12.023h1.428l3.46-9.645l3.46,9.645h1.427l3.979-12.023h-1.73L212.359,489.286z M238.418,489.589
	c-0.317,0-0.591,0.115-0.822,0.346c-0.231,0.23-0.346,0.505-0.346,0.822c0,0.316,0.115,0.591,0.346,0.821
	c0.23,0.23,0.504,0.346,0.822,0.346c0.317,0,0.591-0.115,0.822-0.346c0.23-0.23,0.346-0.505,0.346-0.821
	c0-0.317-0.116-0.592-0.346-0.822C239.009,489.704,238.735,489.589,238.418,489.589z M193.243,489.286l-3.395-9.602h-1.514
	l-3.396,9.602l-2.984-9.602h-1.73l3.979,12.023h1.428l3.46-9.645l3.46,9.645h1.427l3.979-12.023h-1.73L193.243,489.286z
	 M231.476,489.286l-3.395-9.602h-1.514l-3.396,9.602l-2.984-9.602h-1.73l3.979,12.023h1.428l3.46-9.645l3.46,9.645h1.427
	l3.979-12.023h-1.73L231.476,489.286z M382.732,480.474c-0.426-0.396-0.938-0.667-1.535-0.812c-0.598-0.144-1.271-0.216-2.021-0.216
	c-0.664,0-1.393,0.09-2.184,0.271c-0.793,0.181-1.471,0.4-2.033,0.659c-0.346-0.331-0.818-0.569-1.416-0.714
	c-0.6-0.144-1.273-0.216-2.023-0.216c-0.635,0-1.268,0.058-1.902,0.173l-2.465,0.454v11.635h1.535v-10.38
	c0.447-0.102,0.883-0.188,1.309-0.26c0.424-0.072,0.896-0.108,1.416-0.108c0.605,0,1.125,0.058,1.557,0.173
	c0.434,0.116,0.789,0.321,1.07,0.616c0.281,0.296,0.494,0.711,0.639,1.244s0.217,1.24,0.217,2.119v6.596h1.535v-7.201
	c0-0.663-0.055-1.243-0.162-1.741c-0.109-0.497-0.213-0.861-0.314-1.092c0.086-0.043,0.281-0.119,0.584-0.228
	c0.303-0.107,0.602-0.197,0.898-0.27c0.295-0.072,0.586-0.126,0.875-0.162s0.547-0.055,0.779-0.055c0.59,0,1.102,0.058,1.535,0.173
	c0.432,0.116,0.781,0.317,1.049,0.605c0.266,0.289,0.471,0.703,0.615,1.244c0.145,0.54,0.217,1.251,0.217,2.13v6.596h1.535v-7.201
	c0-0.995-0.111-1.816-0.336-2.466C383.482,481.393,383.158,480.87,382.732,480.474z M280.1,474.581
	c-0.785,0.648-1.18,1.729-1.18,3.243v1.86h-2.551v1.492h2.551v10.531h1.537v-10.531h4.973v-1.492h-4.973v-1.471
	c0-0.635,0.045-1.149,0.141-1.546c0.094-0.396,0.24-0.707,0.443-0.931c0.201-0.223,0.475-0.385,0.82-0.486
	c0.346-0.101,0.779-0.151,1.299-0.151h2.422v-1.492h-2.271C281.956,473.607,280.885,473.932,280.1,474.581z M398.273,487.825
	l3.057,3.057l3.057-3.057l-3.057-3.057L398.273,487.825z M343.322,482.322c0.389-0.418,0.854-0.749,1.395-0.994
	s1.135-0.368,1.783-0.368c0.736,0,1.373,0.076,1.914,0.228s1.121,0.414,1.74,0.789l0.715-1.405c-0.707-0.39-1.393-0.674-2.055-0.854
	c-0.664-0.181-1.436-0.271-2.314-0.271c-0.85,0-1.639,0.155-2.367,0.465c-0.729,0.311-1.367,0.746-1.914,1.309
	c-0.549,0.563-0.98,1.222-1.297,1.979c-0.317,0.757-0.476,1.59-0.476,2.498s0.158,1.74,0.476,2.497
	c0.316,0.757,0.748,1.413,1.297,1.969c0.547,0.555,1.186,0.987,1.914,1.297c0.729,0.311,1.518,0.465,2.367,0.465
	c0.879,0,1.65-0.09,2.314-0.27c0.662-0.181,1.348-0.466,2.055-0.854l-0.715-1.406c-0.619,0.375-1.199,0.639-1.74,0.79
	s-1.178,0.227-1.914,0.227c-0.648,0-1.242-0.119-1.783-0.356c-0.541-0.238-1.006-0.565-1.395-0.984
	c-0.391-0.418-0.693-0.915-0.908-1.492c-0.217-0.576-0.324-1.203-0.324-1.881s0.107-1.305,0.324-1.882
	C342.628,483.238,342.931,482.741,343.322,482.322z M404.387,487.825l1.949,1.95l1.951-1.95l-1.951-1.95L404.387,487.825z
	 M410.701,487.326l-0.664,0.433l0.633,0.564l241.176-0.341L410.701,487.326z M362.611,481.295c-0.549-0.569-1.193-1.02-1.936-1.352
	c-0.742-0.331-1.547-0.497-2.412-0.497c-0.863,0-1.668,0.166-2.41,0.497c-0.742,0.332-1.389,0.782-1.936,1.352
	c-0.549,0.57-0.977,1.229-1.287,1.979c-0.311,0.749-0.465,1.557-0.465,2.422s0.154,1.672,0.465,2.422s0.738,1.409,1.287,1.979
	c0.547,0.569,1.193,1.017,1.936,1.341s1.547,0.486,2.41,0.486c0.865,0,1.67-0.162,2.412-0.486s1.387-0.771,1.936-1.341
	c0.547-0.569,0.977-1.229,1.287-1.979c0.309-0.75,0.465-1.557,0.465-2.422s-0.156-1.673-0.465-2.422
	C363.587,482.524,363.158,481.865,362.611,481.295z M362.394,487.523c-0.217,0.569-0.52,1.067-0.908,1.492
	c-0.389,0.426-0.857,0.765-1.406,1.017c-0.547,0.252-1.152,0.378-1.816,0.378c-0.662,0-1.268-0.126-1.816-0.378
	c-0.547-0.252-1.016-0.591-1.404-1.017c-0.391-0.425-0.693-0.923-0.908-1.492c-0.217-0.569-0.324-1.179-0.324-1.827
	c0-0.649,0.107-1.262,0.324-1.839c0.215-0.576,0.518-1.077,0.908-1.503c0.389-0.425,0.857-0.764,1.404-1.016
	c0.549-0.252,1.154-0.379,1.816-0.379c0.664,0,1.27,0.127,1.816,0.379c0.549,0.252,1.018,0.591,1.406,1.016
	c0.389,0.426,0.691,0.927,0.908,1.503c0.217,0.577,0.324,1.189,0.324,1.839C362.718,486.345,362.611,486.954,362.394,487.523z
	 M296.221,481.295c-0.547-0.569-1.191-1.02-1.936-1.352c-0.742-0.331-1.545-0.497-2.41-0.497s-1.67,0.166-2.412,0.497
	c-0.742,0.332-1.387,0.782-1.936,1.352c-0.547,0.57-0.977,1.229-1.285,1.979c-0.311,0.749-0.465,1.557-0.465,2.422
	s0.154,1.672,0.465,2.422c0.309,0.75,0.738,1.409,1.285,1.979c0.549,0.569,1.193,1.017,1.936,1.341s1.547,0.486,2.412,0.486
	s1.668-0.162,2.41-0.486c0.744-0.324,1.389-0.771,1.936-1.341c0.549-0.569,0.977-1.229,1.287-1.979s0.465-1.557,0.465-2.422
	s-0.154-1.673-0.465-2.422C297.198,482.524,296.77,481.865,296.221,481.295z M296.006,487.523c-0.217,0.569-0.52,1.067-0.908,1.492
	c-0.391,0.426-0.859,0.765-1.406,1.017c-0.549,0.252-1.154,0.378-1.816,0.378c-0.664,0-1.27-0.126-1.816-0.378
	c-0.549-0.252-1.018-0.591-1.406-1.017c-0.389-0.425-0.691-0.923-0.908-1.492s-0.324-1.179-0.324-1.827
	c0-0.649,0.107-1.262,0.324-1.839c0.217-0.576,0.52-1.077,0.908-1.503c0.389-0.425,0.857-0.764,1.406-1.016
	c0.547-0.252,1.152-0.379,1.816-0.379c0.662,0,1.268,0.127,1.816,0.379c0.547,0.252,1.016,0.591,1.406,1.016
	c0.389,0.426,0.691,0.927,0.908,1.503c0.215,0.577,0.324,1.189,0.324,1.839C296.331,486.345,296.221,486.954,296.006,487.523z
	 M309.381,480.463c-0.455-0.39-0.996-0.656-1.623-0.801c-0.627-0.144-1.309-0.216-2.043-0.216c-0.707,0-1.465,0.047-2.271,0.141
	s-1.701,0.234-2.682,0.422v11.699h1.535v-10.402c1.184-0.23,2.293-0.346,3.33-0.346c0.592,0,1.111,0.062,1.559,0.184
	c0.445,0.123,0.818,0.332,1.113,0.628c0.295,0.295,0.525,0.713,0.691,1.254s0.25,1.251,0.25,2.13v6.553h1.535v-7.201
	c0-0.995-0.119-1.82-0.357-2.477C310.18,481.375,309.834,480.852,309.381,480.463z M318.516,490.054
	c-0.346-0.108-0.619-0.277-0.82-0.509c-0.203-0.23-0.35-0.547-0.443-0.951c-0.096-0.403-0.141-0.922-0.141-1.557v-5.86h4.973v-1.492
	h-4.973v-4.347h-1.537v4.347h-2.551v1.492h2.551v6.466c0,0.764,0.109,1.405,0.326,1.925c0.215,0.519,0.525,0.937,0.93,1.254
	c0.402,0.317,0.867,0.544,1.395,0.682c0.525,0.137,1.105,0.205,1.74,0.205h2.271v-1.492h-2.422
	C319.295,490.216,318.862,490.162,318.516,490.054z M337.784,489.589c-0.316,0-0.59,0.115-0.82,0.346s-0.346,0.505-0.346,0.822
	c0,0.316,0.115,0.591,0.346,0.821s0.504,0.346,0.82,0.346c0.318,0,0.592-0.115,0.822-0.346s0.346-0.505,0.346-0.821
	c0-0.317-0.115-0.592-0.346-0.822S338.102,489.589,337.784,489.589z M333.178,486.106c-0.346-0.303-0.785-0.565-1.318-0.789
	c-0.533-0.223-1.182-0.422-1.947-0.595l-0.799-0.173c-1.053-0.216-1.781-0.461-2.184-0.735c-0.404-0.273-0.607-0.678-0.607-1.211
	c0-0.504,0.238-0.904,0.715-1.2c0.475-0.295,1.174-0.443,2.098-0.443c0.793,0,1.477,0.076,2.055,0.228
	c0.576,0.151,1.217,0.421,1.924,0.811l0.691-1.405c-1.412-0.765-2.969-1.146-4.67-1.146c-0.635,0-1.223,0.076-1.764,0.228
	c-0.539,0.151-1.008,0.364-1.404,0.638s-0.711,0.605-0.941,0.994c-0.23,0.39-0.346,0.815-0.346,1.276
	c0,0.462,0.072,0.88,0.217,1.254c0.143,0.375,0.381,0.707,0.713,0.995s0.758,0.537,1.275,0.746c0.52,0.209,1.146,0.4,1.883,0.573
	l0.908,0.194c1.008,0.217,1.729,0.49,2.162,0.822c0.432,0.331,0.648,0.771,0.648,1.318c0,0.39-0.086,0.707-0.26,0.952
	c-0.172,0.245-0.414,0.436-0.725,0.573c-0.311,0.137-0.678,0.237-1.102,0.303c-0.426,0.064-0.877,0.097-1.352,0.097
	c-0.592,0-1.223-0.09-1.893-0.271c-0.67-0.18-1.352-0.479-2.045-0.897l-0.734,1.471c0.779,0.433,1.539,0.742,2.281,0.93
	s1.539,0.281,2.391,0.281c0.748,0,1.434-0.072,2.053-0.216c0.621-0.145,1.158-0.36,1.611-0.648c0.455-0.289,0.805-0.649,1.049-1.082
	c0.246-0.433,0.369-0.93,0.369-1.492c0-0.476-0.072-0.915-0.217-1.318C333.77,486.763,333.526,486.41,333.178,486.106z"/>
</svg>

