<?xml version="1.0" encoding="utf-8"?>
<!-- Generator: Adobe Illustrator 21.0.0, SVG Export Plug-In . SVG Version: 6.00 Build 0)  -->
<svg version="1.1" id="Layer_1" xmlns="http://www.w3.org/2000/svg" xmlns:xlink="http://www.w3.org/1999/xlink" x="0px" y="0px"
	 viewBox="0 0 800 500" style="enable-background:new 0 0 800 500;" xml:space="preserve">
<style type="text/css">
	.st0{fill-rule:evenodd;clip-rule:evenodd;}
</style>
<path fill="#000000" class="st0" d="M239.1,128v5.8c1.7,0.1,1.9,0.5,3.7,0.5h5.3c9.1,0,18.8-10.1,31.9-10.1h1.6c1.3,0,4.2,1.2,4.2,2.1
	c0,2.2-20,11.9-23.2,13.5c-8.1,4.1-17.4,7.3-29.4,7.3c1.4,2.1,6.8,6.4,10.1,6.4h0.5c9.2,0,18.7-4.8,25-8c4.4-2.3,19.1-8.4,19.1-13.8
	l0.1-4.3l-0.7-6.9c-1.7-1.2-4.7-3.7-7.4-3.7h-3.7c-10.1,0-18.6,10.1-29.2,10.1c-2.4,0-3.8-0.8-5.3-1.6c1.8-7.8,10.7-17.9,16.5-21.9
	l6.4,0.6c0.3-1.2,0.5-1.2,0.5-2.7l0-5.8l-4.2-0.6c-3.6-0.6-12.8,9.9-14.7,12.5C242.9,112,239.1,120.5,239.1,128L239.1,128z
	 M552.6,476.5c1.2-5.1,6.2-8.7,6.4-15.4c-3.6-1-12.1-10.1-16.5-10.1c-1.4,0-4.5,8.8-8,11.2l-14.7-10.9c-1.1,0.9-8.2,12.2-8.2,13.6
	c0,5,12.9,10.5,17,13.3l6.9-11.5l0.6,0.4C540.3,469.2,547.4,476.4,552.6,476.5L552.6,476.5z M574.3,306c0-1.4,7-5.8,9.1-5.8
	c8.8,0,12.4,5.8,15.9,11.1c-1.4,0.7-3.2,1.1-5.3,1.1h-1.6c-6,0-9.7-2.1-14.9-2.1C576.7,308.9,574.3,307.4,574.3,306L574.3,306z
	 M176.4,139.7c0-8.8,7.1-14.8,11.8-19.5c5.2-5.3,10.1-10.1,15.4-15.4c8.8-8.7,23.2-21.6,33.1-29c5.9-4.4,11.4-9.7,17.5-13.8
	c5.4-3.6,13.1-8.9,17.9-12.9c3.5-2.9,35.2-23,38.7-23h3.7c3.7,0,5.4,2,6.9,4.2l0.6,7.5l-0.1,5.8c0,9.2-7.3,24.2-10.6,30.8
	c-2.3,4.6-4.3,9.1-6.7,14c-1.3,2.5-5,14.1-5.5,14.7c0-11.1,3.5-22.3,7.3-29.9c2.1-4.2,4-8.4,5.7-12.9c1.4-3.5,3.4-11,4.6-13.5
	c-0.9-1.4-1.9-2.6-4.2-2.6c-11.9,0-63.7,39.4-71.9,47.7c-9.6,9.8-58.5,49.4-59.4,60.2c9.7,2.3,22.2,2.7,29.2,7.4
	c-2.4,3.6-5.8,2.5-9.6,4.2c5.1,7.6,44.8,16.8,57.1,20.9c17.7,5.9,41.7,13.8,41.7,36.5v10.1c0,10.2-25,30.9-32.9,35.1
	c3.3,4.9,19.2,7.1,24.4,14.8l-1.1,18.6l-14.2-2.6l-3.8,0.4c-11,0-26.1,8.3-32,13.7c-4,3.7-21.1,18.9-21.1,24.1v1
	c0,7.8,6.5,16.4,11.3,19.6c7.3,4.8,11.3,7,23.3,7h10.1c9.4,0,23.9-6.3,30.7-9.7c5.2-2.6,21.6-12.6,24.1-16.3
	c-1.5-18.2-18.6-32.4-18.6-53.1v-1.6c0-4.3,1.7-9.4,3.2-12.2c4.5,3.1,13.5,20.5,15.9,26.7c2.4,6.1,10.2,25.1,10.7,31.3
	c6-4,26.8-26.5,29.4-33.8c3-8.1-10.6-42.3-13-49c-5.4-15.3-9.8-32.6-15.9-47.4c-3-7.2-5.5-15.6-8-23.3c-1.2-3.7-2.9-8-3.7-12.2
	c-0.8-3.9-4.7-4.8-4.7-10.7v-5.3c0-4.3,1.5-6.9,1.6-10.6c3.4,2.3,26.8,34.8,28.2,39.8h-2.7c-1.5,0-5.2-3.5-6.4-4.2l-1.5,1.2
	C340,204,365,248.5,365,281.6v17c0,9.3-7.8,17.5-8,22.9c-0.3,10.1-2.1,19.3-2.1,28.1v3.8c0,13.2,4.6,30.8,16.5,30.8h1.1
	c12.6,0,24.1-16.5,28.7-25.5c1.9-3.7,18.6-34.3,18.6-35.1v-3.7c0-6.1-16.2-53.4-19.1-62.2c-3.6-11.1-5.9-19.6-10.9-29.5
	c-2.8-5.6-13.1-21.7-13.1-27.3v-1.6c0-4.3,1.3-7.1,2.1-10.6c8.8,5.9,23.8,43,28.2,56.3c3.4,10.2,6.7,21.6,9.6,32.4
	c2.8,10.2,7.7,22.2,10,32c3.1-2,16.3-18.6,20.9-23.2c5.7-5.7,18.1-14.5,29.1-14.5h2.7c9.8,0,17.9,9.1,17,19.1l-0.6,8.5
	c-4-1.1-6.1-7.4-17.4-7.4h-2.7c-9,0-20.5,10.1-25.4,15c-8.2,8.2-10.8,13.2-17.1,22.7c2,8.4,5.5,21.3,8.4,28.8
	c1.4,3.7,4.3,9.2,6.8,11.8c2,2,7.4,7.3,10.8,7.3h4.3c12.5,0,22.3-9.3,28.8-15.8c4.4-4.4,16.5-20.5,17.9-26.7h2.7v3.7
	c0,6.1,6.9,15.9,12.2,15.9h1.6c7.6,0,19.4-6.4,23.5-10.5c7.8-7.7,8.4-10.3,11.9-22.2c2.8-9.8,2.8-18.3,7.1-26.9
	c1.9-3.8,3.8-7.2,6.8-10.2c1.4-1.4,8.2-6.2,10.2-6.2h1.1c14.1,0,25,20.7,25,34.5v5.8c0,4.4-2,10-4.1,12.4
	c-1.4,1.5-10.8,2.6-13.9,2.6c-2.7,0-11.9-1.2-14.8-1.8c-3.6-0.7-9.7-3.4-12.9-3.6c-0.2,7.9-6.8,23.8-10.3,29
	c-3.9,5.9-13.3,16.7-22.1,16.7h-5.3c-11.4,0-13.2-10.6-17.5-17c-4.7,3.1-11.2,12.4-11.2,20.2v14.3c0,5.6,4,11.5,7.5,13.8
	c2.1-1.4,4.5-3.6,4.8-6.9c0.8,0.6,1.1,0.1,1.1,1.6v5.9c0,2.9-3,8-5.8,8c-5.4,0-9.6-13.1-9.6-19.7v-3.7l0.6-12.2
	c-3.6,2.4-7.6,8.6-13.3,12.3c-4.6,3-11.4,6.8-18.7,6.8H466c-14.8,0-21.6-10.4-26.6-20.2c-2.5-5-4.6-11.3-6.5-16.9
	c-1.5-4.7-5.4-13.3-6.3-17.1c-3.8,1-12.6,22.1-15.1,26.9c-4.8,9.5-9.7,17.9-18.6,23.4c-22,13.3-41.8-10-41.8-33.3v-13.3l2.6-21.3
	c-1.1,0.3-10.1,9.4-11.7,11c-2.7,2.8-9.4,8.2-9.4,12.9v1.6c0,3.6,1.7,5.8,3.2,7.9c0,7.9,3.9,26.9,5.9,33.4
	c3.6,11.4,6,17.3,13.1,25.7c6.1,7.2,13.4,12.9,24.6,14.7c11.3,1.8,22,3.8,35,3.8h14.9c30,0,50.8-5.4,75.1-10.9
	c9-2.1,24.3-7.1,32.6-10.5c5.3-2.2,10.1-3.8,15.3-5.9c4.5-1.8,10.8-5.1,15.1-6.2V416c0,6.6,3.9,11.1,8,13.8l10.6,0.6l6.4-0.1
	c6.8,0,24.7-4.7,27.1-8c-5.3-1.2-18.7-14.7-21.8-19.1c-4.8-6.9-10.6-18.1-10.6-29.8v-4.8c0-20,23-38.3,42.5-38.3h5.8
	c14.5,0,38.8,10.2,44.1,18.1l-22.3-4l-11.2,0.3c-12.1,0-50.5,8-50.5,16.5v1.6c0,8.8,13.2,24.6,18.2,29.7
	c6.1,6.1,19.2,16.6,30.7,16.6c10.4,0,13.1-1,20.2-4.2c5.5-2.5,11.1-4.8,16.8-7.1c9.8-4,24.1-11.8,34.2-14.1c-0.1,4.6-5,14-7.2,17.2
	c-4.3,6.4-8.9,5.2-15.4,8.5c-10.8,5.4-22.7,9.7-33.6,14.7c-13.8,6.2-53.9,26-70.1,26h-6.9c-8.9,0-13.3-3.1-17.4-8.1
	c-1.7-2-3.4-5.8-4.3-8.4c-0.8-2-0.2-9.5-2.7-9.5h-1.1c-2.2,0-25.3,9.9-30,11.5c-10.6,3.5-19.9,6.5-31.1,9.9
	c-18.2,5.6-47.7,11.1-71.3,11.1h-17c-24.5,0-44.7-6.7-57-19c-8.3-8.3-10.6-10.9-14.8-23.5c-1.4-4-6.2-26.9-6.3-31.4
	c-1.4,0.9-4.6,11.3-6.3,13.9c-2.9,4.7-4.9,7.6-8.2,11.9c-5.5,7.2-13.5,13.6-20.8,19.1c-11.4,8.5-36.5,25.2-55.1,25.2h-4.8
	c-13,0-20.7-13.1-20.7-26v-3.7c0-11.8,8.9-39,13.8-44.6c-0.2,8.3-10.1,23.4-10.1,34.5v1.1c0,12.5,6.5,19.7,19.1,19.7
	c20.5,0,41.4-12.6,53.7-21.2c8-5.7,35.1-28.5,35.1-39.3c0-3.2-1.7-15.9-4.2-15.9c-0.9,0-31.9,26-60.6,26h-0.5
	c-15.9,0-22.9-4.5-31-12.6c-6.2-6.2-13.1-17.8-13.1-29.9l-1.2-1c-1.2,0.7-19.1,25.5-21.2,28.6c-2.8,4.2-18.5,26.2-21.2,28.2
	c-13,9.1-25.8,3.5-33.6-6.8c-7.3-9.6-8.9-23.9-8.9-40.5c0-8.3,4.2-16.9,4.2-26c0-0.2-4.8-6.2-4.8-10.6V306c0-13.3,1.6-19,5-29
	c2.1-6.4,7.3-18.8,10.9-23c-3.1,13.2-10.1,24.8-10.1,40.9c0,5.6,1.7,15.9,6.4,15.9h1.1c6.1,0,8.9-7.9,11.7-11.1
	c-0.1,2.4-3.1,13.3-4,15.6c-2.1,5.2-4,8.7-10.9,8.8c-3.7,0-2.8,3.1-3.2,6.9c-0.2,2.7-0.7,5.4-1.1,8.5c-0.7,5.7-1.6,10.6-1.6,17.6
	v1.6c0,11.7,5.6,28.7,16,28.7h3.2c16.6,0,37.4-39.3,45.6-51.6c6.7-10,13.5-18.3,20.7-27.6c2.3-2.9,9.2-9.6,12.2-12.3
	c2.2-2,12.7-9.5,13.4-10.5l-8-2c2.9-12.5-2.7-17.1,8.3-22.7c7.2-3.6,12.4-7.1,18.6-11.7c4.3-3.2,31.6-26.2,31.6-29.5
	c0-8.7-45.7-20.8-55.3-23.8c-11.9-3.7-48-18.1-53-25.6c-5.2,0-7.5-4-8.3-8.7c-0.4-2.4-1.8-13.2-1.8-14.7V139.7L176.4,139.7z
	 M641.8,457.9c4-2.1,12.1-4.6,16.9-6.5c5.9-2.4,10.9-4.7,16.8-7.1c5.9-2.3,11.3-4.7,17.2-6.7c6.2-2,13.7-2.3,13.9-10
	c-4.3,0.4-29.1,10.2-35,12.3c-5.8,2.1-12,4.1-17.7,6.2C646.9,448.8,642.6,448.8,641.8,457.9L641.8,457.9z M319.3,429.2v2.1
	c0,1.3,2.4,3.7,3.7,3.7h0.5c2.2,0,3.3-3.9,3.7-5.8c-0.7,0.5-2.3,2.1-2.7,2.1c-2.2,0-3.2-3.5-3.2-5.8v-1.1c0-4,1.8-7.3,2.1-10.6
	C321.8,416.3,319.3,424.8,319.3,429.2L319.3,429.2z M403.3,409.1v3.2c0,14.2,29.2,17.9,29.2-3.2c0-8.1-6.6-14.9-14.4-14.9
	C409.1,394.2,403.3,399.9,403.3,409.1L403.3,409.1z M245,409.1v3.2c0,3.2,1.1,5.3,4.2,5.3c5.1,0,4.3-5.5,6.5-8.6l-0.6-0.4
	c-0.1-0.1-0.2,0.2-0.2,0.3c0,0.3-0.3,0.5-0.4,0.6c-0.2,0.2-0.6,0.6-0.8,0.8c-0.8,0.8-1.1,1.4-2.3,1.4c-2.3,0-4.2-4.1-4.2-6.9v-2.2
	c0-5.2,2.8-9.1,3.2-13.8C247.4,392.1,245,402.7,245,409.1L245,409.1z M189.2,396.8c0,5.5,0.1,10.1,5.9,10.1h2.1
	c3.6,0,6.4-8.2,6.4-12.7c-1.3,0.9-3.8,5.3-5.3,5.3c-2.2,0-5.3-2.6-5.3-4.3v-8c0-6.2,4-15.2,5.3-20.7
	C194.3,371,189.2,387.8,189.2,396.8L189.2,396.8z M638.1,372.4v4.8c0,5.2,4.1,18.6,8,18.6h2.6c4.4,0,4.3-8.9,4.3-13.8
	c-1.4,1.6-3,5.3-5.8,5.3c-4.2,0-6.9-11.8-6.9-17l-0.1-3.2l0.7-10.1C638.5,359.6,638.1,367.4,638.1,372.4L638.1,372.4z M574.3,359.1
	h-0.5c-1.3,0-1.7,0.8-2.1,1.6l5.3,1.1C576.7,360.4,576,359.1,574.3,359.1L574.3,359.1z M531.3,402.7l0.5,0.5
	c0.3,0.3,10.8-6,11.9-6.7c3.6-2.4,8.1-5.1,11.1-8c3.1-3.1,6.1-6.4,8.4-10.2c1-1.6,5.5-13.3,5.9-13.3c3.1,0,3.6,2.6,6.9,2.6l2.8,0
	l0.9-8.5c-0.9-1.3-3.6-5.8-5.3-5.8h-1c-4.6,0-6.1,11.1-7.8,15c-2.2,5.1-5.9,9.6-9.6,13.3c-4,4-8.2,6.8-12.2,10.6
	C541.7,394.1,533.1,401.5,531.3,402.7L531.3,402.7z M387.9,313.9v20.2c-3.1-0.8-7.9-17.5-18.6-17.5h-0.5c-1.4,0-1.5,0.3-2.7,0.5
	c-0.2,2.6-1.6,4.9-1.6,6.9c0,2.8,4,4.3,6.9,4.3c2,0,2.6-0.8,3.7-1.6l0.5-0.4l14.9,18.9l-0.4-24.9c0-2.1,1.9-5.5,2.6-6.9l6.8,1.6
	l0.7-4.3c-1.3-2-3.2-5.3-6.4-5.3C391.5,305.4,387.9,311.5,387.9,313.9L387.9,313.9z M452.2,333.6v1.6c5.2-0.1,16.8-5.9,23.9-5.9h2.1
	c1.4,0,1.5,0.8,2.2,1.6l-20.8,22.3c11.9-1,30.8-22.7,30.8-36.7V315c-1.2-0.3-4.1-1.1-5.3-1.1c-7.6,0-16.5,1.8-22,4.1
	c-4.5,1.9-5.5,1.1-8.1,5.2C453.8,325.1,452.2,330.6,452.2,333.6L452.2,333.6z M178.5,227.9l-1.6-1.1c0-9.8-9.3-28.1-17-28.1
	c-2.7,0-6.9,7-6.9,10.1v1.1c0,2,5.5,5.8,8,5.8h0.5c1.6,0,2.1-0.5,3.2-1.1c3.6,2.4,11.8,21.2,12.2,27.1c-5,1.3-6.4,9.4-6.4,15.9
	c1.5-1,4.1-4.8,5.8-4.8c2.6,0,4.3,2.1,5.3,3.7c-6.5,3.1-14.3,4.9-14.3,14.9v4.8c0,6.6,3.6,22.5,5,29.5c2,10.1,2.9,20.3,2.9,32.1
	l0.5,0l1.1-13.3v-8.5c0-13.3-3.3-33.8-7.4-42.5c5.1-7.6,19-4.8,24.3-12.4c6.1-8.8-7.5-17.9-14.2-19.5c0.1-2.1,3.6-16.7,4.4-20.6
	c0.7-3.5,5.1-16.6,8.4-16.6c3.3,0,4.8,2.9,6.9,4.3c1-1.5,2.1-1.8,2.1-4.3v-4.2c0-2-5.1-6.9-7.5-6.9c-4.1,0-8.7,10.7-10.3,14.7
	C181.2,214.1,181.2,222.4,178.5,227.9L178.5,227.9z M256.1,327.2v4.8c9.9,0.8,16.7-6.9,24.4-6.9h1.1c2.1,0,3.8,0.9,4.2,2.7
	c-2.3,0.5-11.8,6.4-14.9,8c-4.4,2.2-12,4.8-18.6,4.8c7.8,11.7,35.6-8.9,35.6-11.2v-2.1c0-3.3-1.5-6.9-4.8-6.9h-1.6
	c-7.1,0-12.4,5.8-20.2,5.8h-2.7c-5.6,0,8.5-14,9-14.9c1.4,0.4,1,0.5,2.1,0.5c1.7,0,2.7-1.9,2.7-3.7V306H271
	C265.2,306,256.1,319.6,256.1,327.2L256.1,327.2z M325.7,278.9v1.6c0,6,2.5,20.7,6.9,20.7h1.6c3.9,0,5.3-5.1,5.3-9.1v-2.6
	c0-1.5-0.2-1-1.1-1.6c0,2.5-1.9,6.4-3.7,6.4c-3,0-5.8-6.6-6.5-9.9c-0.9-4.3-0.4-10.9-0.4-16.1C326.2,270.6,325.7,275,325.7,278.9
	L325.7,278.9z M377.1,266.7l0.1,2.2c0,6.6,2.4,17,8,17c4.9,0,5.3-7.9,5.5-13.2l-5,6.1l-0.5-0.4c-5.9-4-6.9-13-6.9-22.9h-0.4
	L377.1,266.7L377.1,266.7z M515.1,259.7c0.1,2,1.4,12,1.8,13.5c1.4,5.7,3.4,5.3,7.6,7.3c4.6-3.1,4.2-6.9,4.2-14.3h-0.5v3.2
	c-1.3,0.9-2.9,3.2-4.2,3.2h-0.5c-6.8,0-5.8-20-5.8-28.2l-0.6-0.1L515.1,259.7L515.1,259.7z M548.3,255c0,2.6,4.5,4.2,7.4,4.2v-3.7
	c0-1.5-2.2-3.2-3.7-3.2C550.3,252.3,548.3,253.3,548.3,255L548.3,255z M543,258.2v1.6c0,5.6,7.3,9.1,11.7,10.1
	c-0.9,10.5-34.9,38-36.7,44.6c9.1-6.1,15.7-10.8,23.5-18.4c3.3-3.3,6.9-7.7,9.7-11.5c1.4-1.9,3-4.4,4.1-6.5c0.7-1.5,2.7-6.5,4.1-6.5
	h0.5c3.2,0,4,1,6.9,1c0.1-2.8,1-3.7,1-6.4c0-1.2-0.2-0.6-0.5-2.1h-2.6c-9.2,0,0.6-21.3-10.1-21.3h-1.6
	C550,242.8,543,252.5,543,258.2L543,258.2z M448.7,240.6l0.3,6.4c0,5.5,2.1,6.4,3.3,10c1.1,3.2,1.8,7,6.3,7c5.4,0,5.3-8.1,5.3-13.8
	c-1.2,1.8-2.4,5.3-5.3,5.3c-3.4,0-7.4-9.7-7.4-13.8l-0.2-1.1l1.3-17.5h-1L448.7,240.6L448.7,240.6z M307.1,219.4v6.9
	c0,9.2,3.2,26,11.7,26h2.1c6,0,5.8-14.2,5.8-21.3h-0.5c0,4.1-3.7,10.6-6.9,10.6h-0.5c-4.7,0-9.4-14.8-9.2-21.3l1.3-21.2
	C309.2,201.1,307.1,215.2,307.1,219.4L307.1,219.4z M573.4,229.4l0.4,2.2c0,6.7,3.4,21.2,9,21.2c4.5,0,6.4-6.3,6.4-10.6v-3.7
	c-2.6,0.9-2,5.8-5.3,5.8h-0.5c-3.6,0-7.4-8.9-7.4-13.8l-0.1-10.1l0.7-7.9l-0.7-0.1L573.4,229.4L573.4,229.4z M416.2,236.1l-0.5,8.1
	l94.2-68.4l1.1-7L416.2,236.1L416.2,236.1z M228.5,215.1H228c-1.3,0-2.1,0.9-2.1,2.1v1c0,2.5,4.5,3.8,7.4,3.8v-3.2
	C233.3,217.2,230.5,215.1,228.5,215.1L228.5,215.1z M219.4,222.1c0,5.1,8.3,9.6,12.8,10.6c-1.7,7.1-30.7,36.1-37.3,43.6l0.6,0.4
	c0.4,0.4,11.3-7.9,12.4-8.9c4-3.6,7.3-6.3,11.2-10.1c8.4-8.4,12.2-13.7,18-24.6l6.3,2.2c0.2-2.9,1.6-3.9,1.6-6.9v-1.6h-3.2
	c-5.1,0-4.8-11.2-4.8-17c-1.3-1.9-2.2-4.2-5.3-4.2h-2.1C226.2,205.6,219.4,217.4,219.4,222.1L219.4,222.1z M381.5,148.7v2.7
	c0,3.7,7.7,6.9,10.8,8.9c4.4,2.9,7.2,5.1,10.9,8.7c5.3,5.3,11.8,17.3,11.8,27.5l1,0l0.6-4.8v-3.2c0-10.7-6.1-21.6-10.5-28.3
	c-1.8-2.8-6.7-8.3-9.3-10.3c-2-1.5-3.4-2.5-5.8-3.7c-2.7-1.3-5.2-1.8-7.2-2.8C382.9,144.7,381.5,147,381.5,148.7L381.5,148.7z
	 M355.4,195.5l0.1,9c0,6.3,1.6,16,7.4,16h1.6c3.6,0,4.3-9.3,4.3-13.8c-1.2,1.4-2.2,6.9-5.3,6.9c-2.4,0-5.4-7.3-6-9.9
	c-1.2-4.4-0.9-9.7-0.9-15.1l-0.4,0L355.4,195.5L355.4,195.5z M438.6,171c-0.7,6.1,3.9,21.8,10.4,21.8h0.5c4.9,0,4.8-9,4.8-14.3
	c-1.1,1.5-3,5.8-5.3,5.8h-1.1c-2.9,0-6.4-9.8-6.4-13.8l-0.1-5.3l0.7-13.3l-0.3,0.1L438.6,171L438.6,171z M295.4,180.6
	c3.4-7.2-4.2-21.4,5.8-28.2c2.8,0.7,7.4,3.2,7.4,6.4c0,0.4-1,1.2-1.1,3.7c-3-0.3-3.9-2.1-5.3-2.1c-2.5,0-4.2,7.1-4.6,10.3
	c-0.3,2.2,0.9,9.2,0.9,13.1v4.2c0,1.8-0.4,2-0.5,3.7c-1.9-1.3-5-7.3-6.8-9.7c-2.3-3.1-5.5-5.3-7.5-8.4c-1.1,0.7-1.4,1.6-2.7,1.6
	h-2.1c-2.3,0-5.8-1-5.8-3.2V170c0-2.2,1.2-6.4,3.2-6.4h1.1c5.3,0,7.9,4,10.8,6.8C291,173.3,293.6,179.4,295.4,180.6L295.4,180.6z
	 M491.5,236.9v3.2c0,4.1,3.2,6.4,7.4,6.4h6.4c1.2,0,1.6-0.4,1.6-1.6v-1.6c0-8.7-13,0.4-13.8-9c0.5-0.1,30.3-24.1,34.5-27.1
	c4.9-3.4,13.7-9.1,17.9-12.9c4.3-3.7,16.1-7.9,16.1-14.7v-3.2c-3.6,1-33.7,23-38.7,26.7c-6.2,4.8-12.4,9.1-18.6,13.8
	c-1.2,0.9-8.8,6.8-9.1,7.3C494.1,226,491.5,233.9,491.5,236.9L491.5,236.9z M346.4,85.5c-1.1-0.8-5.8-9.3-8.7-12.1
	c-2.8-2.8-8.7-7.6-13.7-7.6c-1.9,0-3.2,7.9-3.2,10.6c0,0.9,5.2,3.7,6.9,3.7c2,0,1.2-1.6,3.2-1.6c3.8,0,15.9,15.1,15.9,18.6v1
	c0,3.1-2,5.5-1.7,8.5l0.7,5.8c2.9-0.8,2.3-4.8,5.8-4.8c1.6,0,2.6,1.2,3.2,2.1c-2.3,4.3-8,2.7-8,12.7v4.2c0,1.2,9.8,21.9,11.2,24.4
	c2,3.9,8.9,24.2,10.1,25.5c0-10.5-4.4-20.2-7.4-27.7c-1.5-4-11.2-22.7-11.2-23.8c0-4.1,17.5-7.6,17.5-15.9v-2.7
	c0-1.9-5.4-5.3-7.1-6.2c-3.3-1.7-9.9-1.4-9.9-3.9V66.9c0-1.8,0.9-3.7,2.6-3.7c3.7,0,4.3,1.9,7.5,2.1v-5.8c0-2.1-5-5.3-7.5-5.3h-0.5
	c-3.5,0-5.3,8.6-5.3,13.3C347,73.3,347.6,80.6,346.4,85.5z"/>
<path fill="#000000" d="M273.602,481.306c-0.578-0.576-1.301-1.03-2.174-1.362c-0.873-0.331-1.885-0.497-3.039-0.497
	c-0.663,0-1.463,0.079-2.4,0.238v-6.077h-1.535v17.711c0.706,0.202,1.402,0.354,2.087,0.454s1.301,0.151,1.849,0.151
	c1.153,0,2.166-0.162,3.039-0.486s1.596-0.764,2.174-1.319c0.576-0.555,1.006-1.211,1.287-1.968s0.42-1.561,0.42-2.411
	s-0.139-1.657-0.42-2.422C274.608,482.554,274.178,481.883,273.602,481.306z M272.391,489.167c-0.852,0.829-2.17,1.243-3.958,1.243
	c-0.39,0-0.805-0.032-1.244-0.097c-0.439-0.065-0.84-0.134-1.2-0.206v-8.845c0.447-0.115,0.887-0.194,1.319-0.237
	c0.433-0.044,0.808-0.065,1.125-0.065c0.894,0,1.668,0.112,2.325,0.335c0.656,0.224,1.199,0.545,1.633,0.963
	c0.432,0.418,0.752,0.919,0.961,1.503s0.314,1.243,0.314,1.979C273.667,487.195,273.241,488.338,272.391,489.167z M247.392,479.446
	c-0.62,0-1.297,0.079-2.033,0.238c-0.735,0.158-1.485,0.433-2.249,0.821l-0.065,1.73c0.548-0.303,0.973-0.52,1.276-0.649
	s0.624-0.237,0.962-0.324c0.338-0.086,0.677-0.158,1.016-0.216s0.667-0.087,0.984-0.087c1.139,0,1.982,0.249,2.53,0.746
	s0.822,1.33,0.822,2.498v0.13c-0.332-0.044-0.732-0.087-1.2-0.13c-0.469-0.043-0.876-0.065-1.222-0.065
	c-1.831,0-3.302,0.311-4.412,0.931c-1.11,0.619-1.665,1.644-1.665,3.07c0,0.707,0.155,1.305,0.465,1.795
	c0.31,0.49,0.713,0.88,1.211,1.168s1.067,0.497,1.708,0.627c0.641,0.13,1.308,0.194,2,0.194c0.807,0,1.6-0.072,2.378-0.216
	c0.779-0.145,1.536-0.368,2.271-0.671v-7.028c0-1.585-0.397-2.742-1.189-3.471C250.189,479.811,248.992,479.446,247.392,479.446z
	 M250.636,489.892c-0.375,0.144-0.858,0.267-1.449,0.367c-0.591,0.102-1.183,0.151-1.773,0.151c-0.505,0-0.984-0.035-1.438-0.108
	c-0.454-0.071-0.84-0.197-1.157-0.378c-0.317-0.18-0.57-0.414-0.757-0.703c-0.188-0.288-0.281-0.663-0.281-1.124
	c0-0.52,0.111-0.934,0.335-1.244c0.224-0.31,0.533-0.551,0.93-0.724c0.396-0.174,0.85-0.296,1.362-0.368
	c0.511-0.072,1.041-0.108,1.589-0.108c0.476,0,0.984,0.029,1.524,0.087c0.541,0.058,0.912,0.108,1.114,0.151V489.892z
	 M258.032,479.868c-0.649,0.122-1.276,0.263-1.881,0.422v11.418h1.535v-10.186c0.202-0.072,0.563-0.147,1.082-0.228
	c0.519-0.079,1.002-0.118,1.449-0.118h1.989v-1.492H260C259.336,479.685,258.681,479.746,258.032,479.868z M-77.92,487.667
	l241.145,0.656l0.663-0.433l-0.632-0.564L-77.92,487.667z M164.994,487.825l1.95,1.95l1.95-1.95l-1.95-1.95L164.994,487.825z
	 M169.559,487.825l3.057,3.057l3.057-3.057l-3.057-3.057L169.559,487.825z M212.359,489.286l-3.395-9.602h-1.514l-3.396,9.602
	l-2.984-9.602h-1.73l3.979,12.023h1.428l3.46-9.645l3.46,9.645h1.427l3.979-12.023h-1.73L212.359,489.286z M238.418,489.589
	c-0.317,0-0.591,0.115-0.822,0.346c-0.231,0.23-0.346,0.505-0.346,0.822c0,0.316,0.115,0.591,0.346,0.821
	c0.23,0.23,0.504,0.346,0.822,0.346c0.317,0,0.591-0.115,0.822-0.346c0.23-0.23,0.346-0.505,0.346-0.821
	c0-0.317-0.116-0.592-0.346-0.822C239.009,489.704,238.735,489.589,238.418,489.589z M193.243,489.286l-3.395-9.602h-1.514
	l-3.396,9.602l-2.984-9.602h-1.73l3.979,12.023h1.428l3.46-9.645l3.46,9.645h1.427l3.979-12.023h-1.73L193.243,489.286z
	 M231.476,489.286l-3.395-9.602h-1.514l-3.396,9.602l-2.984-9.602h-1.73l3.979,12.023h1.428l3.46-9.645l3.46,9.645h1.427
	l3.979-12.023h-1.73L231.476,489.286z M382.732,480.474c-0.426-0.396-0.938-0.667-1.535-0.812c-0.598-0.144-1.271-0.216-2.021-0.216
	c-0.664,0-1.393,0.09-2.184,0.271c-0.793,0.181-1.471,0.4-2.033,0.659c-0.346-0.331-0.818-0.569-1.416-0.714
	c-0.6-0.144-1.273-0.216-2.023-0.216c-0.635,0-1.268,0.058-1.902,0.173l-2.465,0.454v11.635h1.535v-10.38
	c0.447-0.102,0.883-0.188,1.309-0.26c0.424-0.072,0.896-0.108,1.416-0.108c0.605,0,1.125,0.058,1.557,0.173
	c0.434,0.116,0.789,0.321,1.07,0.616c0.281,0.296,0.494,0.711,0.639,1.244s0.217,1.24,0.217,2.119v6.596h1.535v-7.201
	c0-0.663-0.055-1.243-0.162-1.741c-0.109-0.497-0.213-0.861-0.314-1.092c0.086-0.043,0.281-0.119,0.584-0.228
	c0.303-0.107,0.602-0.197,0.898-0.27c0.295-0.072,0.586-0.126,0.875-0.162s0.547-0.055,0.779-0.055c0.59,0,1.102,0.058,1.535,0.173
	c0.432,0.116,0.781,0.317,1.049,0.605c0.266,0.289,0.471,0.703,0.615,1.244c0.145,0.54,0.217,1.251,0.217,2.13v6.596h1.535v-7.201
	c0-0.995-0.111-1.816-0.336-2.466C383.482,481.393,383.158,480.87,382.732,480.474z M280.1,474.581
	c-0.785,0.648-1.18,1.729-1.18,3.243v1.86h-2.551v1.492h2.551v10.531h1.537v-10.531h4.973v-1.492h-4.973v-1.471
	c0-0.635,0.045-1.149,0.141-1.546c0.094-0.396,0.24-0.707,0.443-0.931c0.201-0.223,0.475-0.385,0.82-0.486
	c0.346-0.101,0.779-0.151,1.299-0.151h2.422v-1.492h-2.271C281.956,473.607,280.885,473.932,280.1,474.581z M398.273,487.825
	l3.057,3.057l3.057-3.057l-3.057-3.057L398.273,487.825z M343.322,482.322c0.389-0.418,0.854-0.749,1.395-0.994
	s1.135-0.368,1.783-0.368c0.736,0,1.373,0.076,1.914,0.228s1.121,0.414,1.74,0.789l0.715-1.405c-0.707-0.39-1.393-0.674-2.055-0.854
	c-0.664-0.181-1.436-0.271-2.314-0.271c-0.85,0-1.639,0.155-2.367,0.465c-0.729,0.311-1.367,0.746-1.914,1.309
	c-0.549,0.563-0.98,1.222-1.297,1.979c-0.317,0.757-0.476,1.59-0.476,2.498s0.158,1.74,0.476,2.497
	c0.316,0.757,0.748,1.413,1.297,1.969c0.547,0.555,1.186,0.987,1.914,1.297c0.729,0.311,1.518,0.465,2.367,0.465
	c0.879,0,1.65-0.09,2.314-0.27c0.662-0.181,1.348-0.466,2.055-0.854l-0.715-1.406c-0.619,0.375-1.199,0.639-1.74,0.79
	s-1.178,0.227-1.914,0.227c-0.648,0-1.242-0.119-1.783-0.356c-0.541-0.238-1.006-0.565-1.395-0.984
	c-0.391-0.418-0.693-0.915-0.908-1.492c-0.217-0.576-0.324-1.203-0.324-1.881s0.107-1.305,0.324-1.882
	C342.628,483.238,342.931,482.741,343.322,482.322z M404.387,487.825l1.949,1.95l1.951-1.95l-1.951-1.95L404.387,487.825z
	 M410.701,487.326l-0.664,0.433l0.633,0.564l241.176-0.341L410.701,487.326z M362.611,481.295c-0.549-0.569-1.193-1.02-1.936-1.352
	c-0.742-0.331-1.547-0.497-2.412-0.497c-0.863,0-1.668,0.166-2.41,0.497c-0.742,0.332-1.389,0.782-1.936,1.352
	c-0.549,0.57-0.977,1.229-1.287,1.979c-0.311,0.749-0.465,1.557-0.465,2.422s0.154,1.672,0.465,2.422s0.738,1.409,1.287,1.979
	c0.547,0.569,1.193,1.017,1.936,1.341s1.547,0.486,2.41,0.486c0.865,0,1.67-0.162,2.412-0.486s1.387-0.771,1.936-1.341
	c0.547-0.569,0.977-1.229,1.287-1.979c0.309-0.75,0.465-1.557,0.465-2.422s-0.156-1.673-0.465-2.422
	C363.587,482.524,363.158,481.865,362.611,481.295z M362.394,487.523c-0.217,0.569-0.52,1.067-0.908,1.492
	c-0.389,0.426-0.857,0.765-1.406,1.017c-0.547,0.252-1.152,0.378-1.816,0.378c-0.662,0-1.268-0.126-1.816-0.378
	c-0.547-0.252-1.016-0.591-1.404-1.017c-0.391-0.425-0.693-0.923-0.908-1.492c-0.217-0.569-0.324-1.179-0.324-1.827
	c0-0.649,0.107-1.262,0.324-1.839c0.215-0.576,0.518-1.077,0.908-1.503c0.389-0.425,0.857-0.764,1.404-1.016
	c0.549-0.252,1.154-0.379,1.816-0.379c0.664,0,1.27,0.127,1.816,0.379c0.549,0.252,1.018,0.591,1.406,1.016
	c0.389,0.426,0.691,0.927,0.908,1.503c0.217,0.577,0.324,1.189,0.324,1.839C362.718,486.345,362.611,486.954,362.394,487.523z
	 M296.221,481.295c-0.547-0.569-1.191-1.02-1.936-1.352c-0.742-0.331-1.545-0.497-2.41-0.497s-1.67,0.166-2.412,0.497
	c-0.742,0.332-1.387,0.782-1.936,1.352c-0.547,0.57-0.977,1.229-1.285,1.979c-0.311,0.749-0.465,1.557-0.465,2.422
	s0.154,1.672,0.465,2.422c0.309,0.75,0.738,1.409,1.285,1.979c0.549,0.569,1.193,1.017,1.936,1.341s1.547,0.486,2.412,0.486
	s1.668-0.162,2.41-0.486c0.744-0.324,1.389-0.771,1.936-1.341c0.549-0.569,0.977-1.229,1.287-1.979s0.465-1.557,0.465-2.422
	s-0.154-1.673-0.465-2.422C297.198,482.524,296.77,481.865,296.221,481.295z M296.006,487.523c-0.217,0.569-0.52,1.067-0.908,1.492
	c-0.391,0.426-0.859,0.765-1.406,1.017c-0.549,0.252-1.154,0.378-1.816,0.378c-0.664,0-1.27-0.126-1.816-0.378
	c-0.549-0.252-1.018-0.591-1.406-1.017c-0.389-0.425-0.691-0.923-0.908-1.492s-0.324-1.179-0.324-1.827
	c0-0.649,0.107-1.262,0.324-1.839c0.217-0.576,0.52-1.077,0.908-1.503c0.389-0.425,0.857-0.764,1.406-1.016
	c0.547-0.252,1.152-0.379,1.816-0.379c0.662,0,1.268,0.127,1.816,0.379c0.547,0.252,1.016,0.591,1.406,1.016
	c0.389,0.426,0.691,0.927,0.908,1.503c0.215,0.577,0.324,1.189,0.324,1.839C296.331,486.345,296.221,486.954,296.006,487.523z
	 M309.381,480.463c-0.455-0.39-0.996-0.656-1.623-0.801c-0.627-0.144-1.309-0.216-2.043-0.216c-0.707,0-1.465,0.047-2.271,0.141
	s-1.701,0.234-2.682,0.422v11.699h1.535v-10.402c1.184-0.23,2.293-0.346,3.33-0.346c0.592,0,1.111,0.062,1.559,0.184
	c0.445,0.123,0.818,0.332,1.113,0.628c0.295,0.295,0.525,0.713,0.691,1.254s0.25,1.251,0.25,2.13v6.553h1.535v-7.201
	c0-0.995-0.119-1.82-0.357-2.477C310.18,481.375,309.834,480.852,309.381,480.463z M318.516,490.054
	c-0.346-0.108-0.619-0.277-0.82-0.509c-0.203-0.23-0.35-0.547-0.443-0.951c-0.096-0.403-0.141-0.922-0.141-1.557v-5.86h4.973v-1.492
	h-4.973v-4.347h-1.537v4.347h-2.551v1.492h2.551v6.466c0,0.764,0.109,1.405,0.326,1.925c0.215,0.519,0.525,0.937,0.93,1.254
	c0.402,0.317,0.867,0.544,1.395,0.682c0.525,0.137,1.105,0.205,1.74,0.205h2.271v-1.492h-2.422
	C319.295,490.216,318.862,490.162,318.516,490.054z M337.784,489.589c-0.316,0-0.59,0.115-0.82,0.346s-0.346,0.505-0.346,0.822
	c0,0.316,0.115,0.591,0.346,0.821s0.504,0.346,0.82,0.346c0.318,0,0.592-0.115,0.822-0.346s0.346-0.505,0.346-0.821
	c0-0.317-0.115-0.592-0.346-0.822S338.102,489.589,337.784,489.589z M333.178,486.106c-0.346-0.303-0.785-0.565-1.318-0.789
	c-0.533-0.223-1.182-0.422-1.947-0.595l-0.799-0.173c-1.053-0.216-1.781-0.461-2.184-0.735c-0.404-0.273-0.607-0.678-0.607-1.211
	c0-0.504,0.238-0.904,0.715-1.2c0.475-0.295,1.174-0.443,2.098-0.443c0.793,0,1.477,0.076,2.055,0.228
	c0.576,0.151,1.217,0.421,1.924,0.811l0.691-1.405c-1.412-0.765-2.969-1.146-4.67-1.146c-0.635,0-1.223,0.076-1.764,0.228
	c-0.539,0.151-1.008,0.364-1.404,0.638s-0.711,0.605-0.941,0.994c-0.23,0.39-0.346,0.815-0.346,1.276
	c0,0.462,0.072,0.88,0.217,1.254c0.143,0.375,0.381,0.707,0.713,0.995s0.758,0.537,1.275,0.746c0.52,0.209,1.146,0.4,1.883,0.573
	l0.908,0.194c1.008,0.217,1.729,0.49,2.162,0.822c0.432,0.331,0.648,0.771,0.648,1.318c0,0.39-0.086,0.707-0.26,0.952
	c-0.172,0.245-0.414,0.436-0.725,0.573c-0.311,0.137-0.678,0.237-1.102,0.303c-0.426,0.064-0.877,0.097-1.352,0.097
	c-0.592,0-1.223-0.09-1.893-0.271c-0.67-0.18-1.352-0.479-2.045-0.897l-0.734,1.471c0.779,0.433,1.539,0.742,2.281,0.93
	s1.539,0.281,2.391,0.281c0.748,0,1.434-0.072,2.053-0.216c0.621-0.145,1.158-0.36,1.611-0.648c0.455-0.289,0.805-0.649,1.049-1.082
	c0.246-0.433,0.369-0.93,0.369-1.492c0-0.476-0.072-0.915-0.217-1.318C333.77,486.763,333.526,486.41,333.178,486.106z"/>
</svg>

