<?xml version="1.0" encoding="utf-8"?>
<!-- Generator: Adobe Illustrator 21.0.0, SVG Export Plug-In . SVG Version: 6.00 Build 0)  -->
<svg version="1.1" id="Layer_1" xmlns="http://www.w3.org/2000/svg" xmlns:xlink="http://www.w3.org/1999/xlink" x="0px" y="0px"
	 viewBox="0 0 800 500" style="enable-background:new 0 0 800 500;" xml:space="preserve">
<style type="text/css">
	.st0{fill-rule:evenodd;clip-rule:evenodd;}
</style>
<path fill="#000000" class="st0" d="M375.6,99c0,5.2,3.1,9.6,3.1,16.6v3.1c0,2.8-0.5,2.9-1,5.2c-3.8-2.8-6.8-20.7-21.7-20.7c-3.1,0-4.1,3-4.1,6.2v1
	c0,3.4,8.5,6,11.4,6.2v-2.1c6,1.6,11.4,12,11.4,20.7c5.9-1.4,7.2-7.5,7.2-14.5v-5.2c0-14.1-7.5-15,3.2-20.8l8,4.2l1.3-6.2
	c-1.6-3.1-3.5-5.1-8.2-5.1h-2.1C379.2,87.7,375.6,94.2,375.6,99L375.6,99z M352.4,360.3c7.3-9.7,22.3-37.5,27.1-45.3
	c-6.1,25.9-6.6,25.4-16.9,46.2c-4.1,8.3-6.8,11.7-9.9,21.2c-2.3,6.8-2.3,9.9-2.7,12.8c-20.5,21.2-76.8,42.4-91.7,1.2
	c3.3-1.2,17.7-8.9,21.9-11.9C300.2,388.1,330.5,389.4,352.4,360.3L352.4,360.3z M190.3,325.3c0-32,23.1-53.7,49.6-60l-2.5,57.9
	l2.4,53.8C211,377,190.3,354.1,190.3,325.3L190.3,325.3z M290.6,255.4c-14.5,5.5-28.3,7.5-42.4,9.1c-4.7,41.8-4,74.4,2,111.6l1-0.1
	c18.9-0.4,40-26.3,47.2-40.7c6-11.9,8.1-18.5,5.1-35.4c-1.9-10.9-7.3-30-7.9-36.6c-1.6,7.2-4,28.8-16.6,39.3
	C285.7,288.6,294.4,271.1,290.6,255.4L290.6,255.4z M270.9,302.5c0-4.8,2.8-9,7.2-10.6c6.4-2.5,5.5-5.3,1.7-10
	c-7.4-9.2-16.1,23.2-16.1,26.8c0,7.9,14.6,6.2,20.7,6.2c-0.9,11.1-22.2,17.1-33.3,19.7c17.3,7.5,39.5-5.3,39.5-20.7
	c0-3.9,0.4-8.3-5.2-8.3C280.6,305.6,271.3,310,270.9,302.5L270.9,302.5z M274.2,176.6c-13.4-6.8-13.3,17.6,2.9,13.3l5.4,26
	c-5.9-10.9-25-26-25-39.5C257.5,162.9,276.8,174,274.2,176.6L274.2,176.6z M473.5,197.1c0.3-0.1,3.9-1,4.1-1c4.9,0,7.3,2.2,9.3,5.2
	c-4.8,0.4-7.2,2.1-7.2,7.2c0,6.8,5,8.3,12.4,8.3l5.2,17.6c-6.4-4.3-24.8-19.6-24.8-28.9v-3.1C472.5,199.5,473,199.4,473.5,197.1
	L473.5,197.1z M360.1,435.6c2.6,2.2,14.1,8.5,18.4,8.5c22.1,0,32-21.8,40.3-36.1c12.2-21.1,15.5-26.8,34.8-41.6
	c12.2-9.4,35.3-19.3,49.9-26.6c19.6-9.7,28.9-17.1,28.9-46.5l-10.4,2c0.6-2.3,1-2.3,1-5.1v-9.3c0-32.8-27.9-61.5-27.9-101.3v-3.1
	c-5.2,1.4-6.2,6.8-6.2,13.4c-5.7-0.5-5.3-3.1-10.4-3.1c-9,0-11.4,11.4-11.4,20.7c0,20.6,35.1,30,35.1,56.8c0,10.4-6.2,17.3-6.2,26.9
	c5.5-6.4,9.3-20,9.3-32.1c2.9,4.2,13.1,31.7,11.5,36.3c-5.3,14.3-21.1-5.1-21.8,27.8c-4.5,1.2-33.3,16.7-38,19.9
	c-12.2,8.1-19.2,17.4-27.9,28.9c-13.4,17.7-28.8,56.7-57,56.7h-4.1c-8,0-10.8-7.8-13.5-13.5c4-7.4,14-16.5,20.1-26.4
	c4.8-7.8,12.5-22.8,19.2-27.3c3.1,6.6,2.2,19.6,13.4,19.6c28.4,0,17.9-64.1,50.7-64.1l14.5,1.9c1.8-3.3,4.1-7.1,4.1-12.2
	c0-12.1-14.1-16.9-23-20.2c-3.1-1.2-6.2-3.6-8-4.6c-1.7,20.6-7.5,28.1-12.8,44c-3.5,10.7-10.2,34.5-22.3,34.5h-1.1
	c-13.5,0-6.7-22.7-11.3-22.7c-8.4,0-26.9,41.6-40.3,50.6c1.5-5.7,12.4-24.5,15.4-32.2c5-12.9,14.2-31.6,7-45.1
	c3.9-7.4,25.8-53.4,33.6-27.9c2.5-5.2,5.8-35.9-6.2-29.8c-33.7,17.1-39.7,81.3-77.3,106.5c-15.1,10.1-33.6,17.3-44.9,18.1
	c3.9-5.1,11.2-15.7,14.8-24.4c2.8-6.7,16.1-12.1,22.4-15.9c15.9-9.4,31-20.5,31-45.5V287l-1.2-9.3l5.3-1.1l7,4.5
	c1.6-3.1,1.3,0.5,1.3-3.5v-2.1c0-2.8-0.5-2.8-1-5.2c-3.3-0.8-6.4-2.1-10.3-2.1c-1.2,0-6.5,6.8-6.2,8.3l3.1,16.3l-3.1,0.2
	c-1.4-5.2-11.8-13.4-18.6-13.4c-1.4,0-2,1.4-2,3.1v4.2c0,4.3,6.6,7.1,11.4,7.2v-2.1c5.6,1.5,9.8,9.8,8.2,15.3
	c-1.5,4.9-7.7,10.9-11.6,14.4c-5.5,4.8-23.2,20.3-30.7,20.9c12.7-26.4,2.5-64.7-0.9-92c21.3-5,60.7-31,69.1-48.5
	c-13,11.3-54.4,37.6-71.6,40.6c-2-6.7-4.9-17.6-5.9-24c19.2-4.5,38.2-12,38.2-35.2v-6.2c0-7.5-4.1-9.2-4.1-14.5v-1
	c0-2.4,1.7-4.1,4.1-4.1c2,0,3.4,1.4,6.2,2.1c0.5-2.3,1-2.3,1-5.2c0-1.7-1.4-3.9-2.1-5.2c-6.2,0.5-12.4,3.7-12.4,10.3v2.1
	c0,6.9,4.5,11.6,5.2,19.6c-6.3-1.7-6.4-14.5-20.7-14.5v6.2c0,5.6,8.6,5.1,11,6.5c2.1,1.3,7.6,9.6,7.6,12.1
	c0,9.8-23.3,22.7-36.2,22.7c-0.6-7.1-16.1-44.9-8.4-63.3c-4.8,6.1-6.7,13.8-6.9,15.8c-16.5-13.3-25-1.6-25,14.4
	c0,19.3,35.4,37.7,36,64.9c-8.1,3.5-34.5,6-40.2,6.1c2.2-14.7-4.7-65.1-17.9-81.9c-16.9-21.7-55.2,43-51.3,51.3
	c3.3-5.3,9.7-15.9,14.2-21c20.1-22.1,31.7-15.3,39.4,12.9c2,7.2,6.4,33.3,6.4,41.2c0,0.7-18.7,8.7-21.5,10.5
	c-6.6,4.3-11.9,9.2-16.5,15.5c-7.6,10.1-17.7,28.2-17.7,45.3v10.3c0,30.7,20.6,55.7,47.9,60.6c11.4,2,11.3,1.3,12.8,1.2
	c17.4,60.2,77.7,43.6,104.7,20.8C353.1,426.9,353.5,430.1,360.1,435.6L360.1,435.6z M497.3,436.9c-0.6-1.2-3.3-6.8-3.2-8.3l1.2-11.4
	c8.1-1.9,38.2-21.7,38.3-21.7c4.2,0,2.8,10.9,1.9,16.4c-1,6-5.8,7.8-10.2,10.5C519.1,426,504.1,435.3,497.3,436.9L497.3,436.9z
	 M458.8,393.7l-6.7,21.6l-20.9-7.6l-1.2-0.2l8.5-20.8L458.8,393.7L458.8,393.7z M533.5,374.9c13,0,10.7,4.4,19.4-4.4
	c4.9-4.9,7-8,10.8-14c4.7-7.3,12.9-24.7,15.9-33.7c2.6-7.6,11.6-29.3,15.5-35.2c5.5-8.3,5.3-6.7,12.3-12.6
	c5.3-4.5,0.7-14.9,3.7-21.1l-2.3-1.9c-11.2,5.8-16.7,17.8-21.8,30.5c-3.6,9-21.6,17.9-33.8,17.9h-1c-3.2,0-5.9-1.9-8.3-3.1
	c0.8-9.5,15.2-25.8,23.8-25.8c3,0,2.8,2,7.2,2c2.3,0,3.1-5.5,3.1-8.3v-1c0-3.7-4.1-4.1-7.2-4.1c-14.9,0-31,23.5-31,40.3
	c0,8,4.2,11.4,12.4,11.4c9.7,0,18.4-6.5,25.9-8.3c-2.9,12.5-22.6,48-34.1,50.7V347l0.2-9.3c-10.5,2.7-10.7,31-29.2,31
	c-5.8,0-5.2-17.8-9.3-21.7c-10.5,7-17.9,26.8-22.9,40.2c-5,13.7-14.8,27.9-24.4,37.6c-10.4,10.4-23.3,18-40.5,21.5
	c-21.2,4.3-37.9,4.2-56.9-1.1c18.2,20.5,81.5,15.6,95.9,1.8c13.5-12.9,16.6-19.2,25.4-36.6c6.8-13.4,10.5-30.6,22.4-38.6
	c1.8,7.8,4.2,19.7,13.5,19.7C523.1,391.4,532.1,380.8,533.5,374.9L533.5,374.9z M200.6,318.1c0,9.5,5.5,6.7,11.9,9.7
	c6,2.8,5.3,9,7.7,14c1.5-1,2.8-1.3,3.1-3.3v0c1.5-11.1,1.2-21.4-1.1-30.9c2.8-4.3,5.6-0.6,8.4-1l1.1-7.2c-1.3-0.7-3.4-2.1-5.2-2.1
	c-4.9,0-7.3,2.4-7.3,7.2v4.1c0,5.5,0.8,11.5,1.4,18.6c-4.1-6.8-12.1-13.3-18.9-13.4C201,316.7,200.6,315.9,200.6,318.1L200.6,318.1z
	 M388.8,333.5c-4.8-9.9,13.1-18.5,19.6-21.7c5.8-2.8,24.5-18.5,24.8-18.6c1.3,2.7,1-0.8,1,3.2v1c0,7.7-15.2,16.7-21.1,20.3
	C409.4,319.9,389.7,333.3,388.8,333.5L388.8,333.5z M321.6,268.4c-2.6-12.5,16.3-19.9,25.2-25.4c3.9-2.4,31.7-17.8,33.7-18
	c-0.3,12.8-18.7,18.7-28.3,23.4C337.3,256,333.4,260.5,321.6,268.4L321.6,268.4z M545.9,252.9c-1.4,0.8-5.5,3.1-7.2,3.1
	c-3.2,0-4.9-2.2-6-4.1l1.1-4.1l3.9-0.1C542.2,247.7,544,250.2,545.9,252.9L545.9,252.9z M528.3,255c0-7.6,7.3-21.9,12.4-23.8
	l-3.1,7.2c5.2,2.5,12.4,2.6,12.4,10.4c0,7.8-3.6,15.5-11.4,15.5h-2.1C531,264.3,528.3,260.5,528.3,255L528.3,255z M395,141.8
	c0-3.7,5.8-11.4,9.3-11.4c5.2,0,13.5,8.8,13.5,12.4v2c0,2.8-0.5,2.9-1.1,5.2c-11.1,2.6-16.9,0.6-22.7,9.3c3.3,6.9,10.3,42,10.3,52.7
	v1c0,29.1-13.5,43.4-43.4,43.4c5.9-5.2,19.2-4.4,26.6-11.6c5.8-5.7,12.6-14.6,12.6-25.6v-5.2c0-16.7-10.3-41.2-10.3-52.7v-3.1
	c0-13,14.9-13,17.6-16.5l-4-3.3c-2.3,2.1-3.9,5.3-6.3,5.3C396.1,143.8,395,142.7,395,141.8L395,141.8z M450.4,212.5
	c2.6-0.5,5.7,5.7,6.7,8.2c-3.4-1.1-8.5-0.6-9.2-4.6C447.8,215.3,449.6,212.7,450.4,212.5L450.4,212.5z M442.7,222.3
	c-1.2-6.3,2-17.2,7.2-18.1l2-0.4c5.9-1.1,9.5,11.7,10.9,19l5.8,3.1c-1,3.7,1.1,6.1-3,6.8c-1.4,0.3-0.7-1-4.4-1.3
	c-0.8,16.7-25.9,44.4-38.4,54.3c0.7-8.9,35.5-39.4,33.8-56.6C452.5,229,443.5,226.7,442.7,222.3L442.7,222.3z M193.7,222.2
	c15.6,3.6,17.1-1.8,29.8-1.8h2.7c0.9,10.8-4.2,20-9,28c-2.5,4.1-5.7,6.2-11.4,7.6c-4.6,1.1-11.5,4.1-14.8,4.2
	c1.6-5.8,18.6-14,22.5-19.9l-15.3,2.1l-1.8-0.3c-3.9,0-4.9-1.1-8.1-1.8L193.7,222.2L193.7,222.2z M562.3,194.1
	c0,13.9,6.4,10.5,3.1,24.8c-4.8-3.5-5.6-14.5-17.6-14.5c-2.4,0-3.1,0.7-3.1,3.1v3.1c0,3.5,6.1,5.9,9.3,6.2v-2
	c4.9,1.3,8.8,8.5,9.3,14.5h2.1c1.4-5.4,4.1-7.2,4.1-15.5c0-7.4-4.1-17.3-4.1-17.6c0-2.4,0.3-1.2,1-4.1c5.9-1.4,8.3,1.4,8.3-8.3h-3.1
	C565.9,183.8,562.3,188.4,562.3,194.1L562.3,194.1z M432.2,178.5c0-5.9,0.4-12.4,8.2-12.4c2.6,0,8.3,2.9,8.3,6.2
	c0,2.8-0.5,2.8-1,5.2c-2.4-1.2-12.4-7.4-12.4,0c0,0.1,3.7,18.8,4.1,20.7c-0.2,20.5-10.1-1.1-14.5-4.1c-2.1-1.7-6.5-3.5-10.3-1
	c-1.2-5.4-2.2-7.8,2.1-11.5c6.5-4.2,18.9,17.6,19.6,17.6C436.3,190.2,432.2,185.3,432.2,178.5L432.2,178.5z M585.1,119.6
	c1.2-4.3,0.5-2.2,4.1-4.2l3,1.2l0.1,1.9L585.1,119.6L585.1,119.6z M494.2,164c65.6,0,78.9-88.4,120.9-110.6c2.2,1.2,5.2,1.8,5.2,5.2
	v5.2c0,2.8-0.5,2.8-1.1,5.2c-11.9,0-19.4,9.3-25,16.3c-3.8,4.9-15,19.3-12.2,26c2.9-2,4.3-4.2,9.3-4.2c1,0,5.2,4,5.2,6.2v7.2
	c0,3.3-4.4,7.2-8.3,7.2h-5.1c0,12.1,7.6,18.6,12.4,25.8c-11.2-3-17.6-24.7-17.6-40.3c-9.2,3.3-28.8,59.9-76.5,59.9h-6.3
	c-8.6,0-23.6-8.5-28.9-12.4c-7.2-5.3-13.4-14.5-13.4-26.9c0-9.8,6.1-25.8,15.5-25.8h1c3.3,0,7.2,4.4,7.2,8.3v2.1
	c0,6.6-2.5,13.4-9.3,13.4h-1c-2.4,0-6.5-3.9-8.3-5.2c-0.4,4.2-1,2.3-1,6.2C457,148.9,477.5,164,494.2,164L494.2,164z M326.7,105.1
	c1.3-0.5,3.5-1.1,5.2-1.1c0.1,0,2.1,1,2.1,1.1c-1.2,1.6-2.4,3.1-5.2,3.1C327,108.2,327.1,106.7,326.7,105.1L326.7,105.1z
	 M198.6,122.7c0,11.2,8.9,17.5,15.8,22.4c11.2,7.8,13.3,7.2,26.5,6.5c19.8-1,39.2-15.4,48.7-26.8c12.6-15.1,20.6-26.4,31.4-44.2
	c10.4-17.2,17.8-30.2,35.8-39.7c2.2,1.2,5.2,1.8,5.2,5.2v5.2c0,2.8-0.5,2.8-1,5.2c-11.6,0-19.2,8.9-24.4,15.9
	c-5.1,6.8-13.7,16.3-13.9,26.5c4.1-1.1,3.4-3.1,8.3-3.1h2c3.3,0,5.2,3.8,5.2,7.2v5.2c0,2.9-4.6,8.3-8.3,8.3c-2.7,0-1-0.7-5.2-1
	c0,14.4,7,20.1,15.5,25.8c-1.4,2.9-0.5,5.2-4.2,5.2c-2.2,0-1.4-0.4-4.1-1.1l1-6.2c-8.2-5.6-13.4-21-13.4-35.2V101
	c-9.4,3.4-28.8,61-78.5,61h-6.2c-4.6,0-21.1-8.2-24.6-10.5c-7.7-5.1-11.5-9.5-15-19.1c-3.5-9.7-0.1-21.2,3.4-28.3
	c5-10.2,18.6-9,18.6-1v3.1c0,22.5-12.6,10.9-18.6,9.3V122.7z"/>
<path fill="#000000" d="M273.602,481.306c-0.578-0.576-1.301-1.03-2.174-1.362c-0.873-0.331-1.885-0.497-3.039-0.497
	c-0.663,0-1.463,0.079-2.4,0.238v-6.077h-1.535v17.711c0.706,0.202,1.402,0.354,2.087,0.454s1.301,0.151,1.849,0.151
	c1.153,0,2.166-0.162,3.039-0.486s1.596-0.764,2.174-1.319c0.576-0.555,1.006-1.211,1.287-1.968s0.42-1.561,0.42-2.411
	s-0.139-1.657-0.42-2.422C274.608,482.554,274.178,481.883,273.602,481.306z M272.391,489.167c-0.852,0.829-2.17,1.243-3.958,1.243
	c-0.39,0-0.805-0.032-1.244-0.097c-0.439-0.065-0.84-0.134-1.2-0.206v-8.845c0.447-0.115,0.887-0.194,1.319-0.237
	c0.433-0.044,0.808-0.065,1.125-0.065c0.894,0,1.668,0.112,2.325,0.335c0.656,0.224,1.199,0.545,1.633,0.963
	c0.432,0.418,0.752,0.919,0.961,1.503s0.314,1.243,0.314,1.979C273.667,487.195,273.241,488.338,272.391,489.167z M247.392,479.446
	c-0.62,0-1.297,0.079-2.033,0.238c-0.735,0.158-1.485,0.433-2.249,0.821l-0.065,1.73c0.548-0.303,0.973-0.52,1.276-0.649
	s0.624-0.237,0.962-0.324c0.338-0.086,0.677-0.158,1.016-0.216s0.667-0.087,0.984-0.087c1.139,0,1.982,0.249,2.53,0.746
	s0.822,1.33,0.822,2.498v0.13c-0.332-0.044-0.732-0.087-1.2-0.13c-0.469-0.043-0.876-0.065-1.222-0.065
	c-1.831,0-3.302,0.311-4.412,0.931c-1.11,0.619-1.665,1.644-1.665,3.07c0,0.707,0.155,1.305,0.465,1.795
	c0.31,0.49,0.713,0.88,1.211,1.168s1.067,0.497,1.708,0.627c0.641,0.13,1.308,0.194,2,0.194c0.807,0,1.6-0.072,2.378-0.216
	c0.779-0.145,1.536-0.368,2.271-0.671v-7.028c0-1.585-0.397-2.742-1.189-3.471C250.189,479.811,248.992,479.446,247.392,479.446z
	 M250.636,489.892c-0.375,0.144-0.858,0.267-1.449,0.367c-0.591,0.102-1.183,0.151-1.773,0.151c-0.505,0-0.984-0.035-1.438-0.108
	c-0.454-0.071-0.84-0.197-1.157-0.378c-0.317-0.18-0.57-0.414-0.757-0.703c-0.188-0.288-0.281-0.663-0.281-1.124
	c0-0.52,0.111-0.934,0.335-1.244c0.224-0.31,0.533-0.551,0.93-0.724c0.396-0.174,0.85-0.296,1.362-0.368
	c0.511-0.072,1.041-0.108,1.589-0.108c0.476,0,0.984,0.029,1.524,0.087c0.541,0.058,0.912,0.108,1.114,0.151V489.892z
	 M258.032,479.868c-0.649,0.122-1.276,0.263-1.881,0.422v11.418h1.535v-10.186c0.202-0.072,0.563-0.147,1.082-0.228
	c0.519-0.079,1.002-0.118,1.449-0.118h1.989v-1.492H260C259.336,479.685,258.681,479.746,258.032,479.868z M-77.92,487.667
	l241.145,0.656l0.663-0.433l-0.632-0.564L-77.92,487.667z M164.994,487.825l1.95,1.95l1.95-1.95l-1.95-1.95L164.994,487.825z
	 M169.559,487.825l3.057,3.057l3.057-3.057l-3.057-3.057L169.559,487.825z M212.359,489.286l-3.395-9.602h-1.514l-3.396,9.602
	l-2.984-9.602h-1.73l3.979,12.023h1.428l3.46-9.645l3.46,9.645h1.427l3.979-12.023h-1.73L212.359,489.286z M238.418,489.589
	c-0.317,0-0.591,0.115-0.822,0.346c-0.231,0.23-0.346,0.505-0.346,0.822c0,0.316,0.115,0.591,0.346,0.821
	c0.23,0.23,0.504,0.346,0.822,0.346c0.317,0,0.591-0.115,0.822-0.346c0.23-0.23,0.346-0.505,0.346-0.821
	c0-0.317-0.116-0.592-0.346-0.822C239.009,489.704,238.735,489.589,238.418,489.589z M193.243,489.286l-3.395-9.602h-1.514
	l-3.396,9.602l-2.984-9.602h-1.73l3.979,12.023h1.428l3.46-9.645l3.46,9.645h1.427l3.979-12.023h-1.73L193.243,489.286z
	 M231.476,489.286l-3.395-9.602h-1.514l-3.396,9.602l-2.984-9.602h-1.73l3.979,12.023h1.428l3.46-9.645l3.46,9.645h1.427
	l3.979-12.023h-1.73L231.476,489.286z M382.732,480.474c-0.426-0.396-0.938-0.667-1.535-0.812c-0.598-0.144-1.271-0.216-2.021-0.216
	c-0.664,0-1.393,0.09-2.184,0.271c-0.793,0.181-1.471,0.4-2.033,0.659c-0.346-0.331-0.818-0.569-1.416-0.714
	c-0.6-0.144-1.273-0.216-2.023-0.216c-0.635,0-1.268,0.058-1.902,0.173l-2.465,0.454v11.635h1.535v-10.38
	c0.447-0.102,0.883-0.188,1.309-0.26c0.424-0.072,0.896-0.108,1.416-0.108c0.605,0,1.125,0.058,1.557,0.173
	c0.434,0.116,0.789,0.321,1.07,0.616c0.281,0.296,0.494,0.711,0.639,1.244s0.217,1.24,0.217,2.119v6.596h1.535v-7.201
	c0-0.663-0.055-1.243-0.162-1.741c-0.109-0.497-0.213-0.861-0.314-1.092c0.086-0.043,0.281-0.119,0.584-0.228
	c0.303-0.107,0.602-0.197,0.898-0.27c0.295-0.072,0.586-0.126,0.875-0.162s0.547-0.055,0.779-0.055c0.59,0,1.102,0.058,1.535,0.173
	c0.432,0.116,0.781,0.317,1.049,0.605c0.266,0.289,0.471,0.703,0.615,1.244c0.145,0.54,0.217,1.251,0.217,2.13v6.596h1.535v-7.201
	c0-0.995-0.111-1.816-0.336-2.466C383.482,481.393,383.158,480.87,382.732,480.474z M280.1,474.581
	c-0.785,0.648-1.18,1.729-1.18,3.243v1.86h-2.551v1.492h2.551v10.531h1.537v-10.531h4.973v-1.492h-4.973v-1.471
	c0-0.635,0.045-1.149,0.141-1.546c0.094-0.396,0.24-0.707,0.443-0.931c0.201-0.223,0.475-0.385,0.82-0.486
	c0.346-0.101,0.779-0.151,1.299-0.151h2.422v-1.492h-2.271C281.956,473.607,280.885,473.932,280.1,474.581z M398.273,487.825
	l3.057,3.057l3.057-3.057l-3.057-3.057L398.273,487.825z M343.322,482.322c0.389-0.418,0.854-0.749,1.395-0.994
	s1.135-0.368,1.783-0.368c0.736,0,1.373,0.076,1.914,0.228s1.121,0.414,1.74,0.789l0.715-1.405c-0.707-0.39-1.393-0.674-2.055-0.854
	c-0.664-0.181-1.436-0.271-2.314-0.271c-0.85,0-1.639,0.155-2.367,0.465c-0.729,0.311-1.367,0.746-1.914,1.309
	c-0.549,0.563-0.98,1.222-1.297,1.979c-0.317,0.757-0.476,1.59-0.476,2.498s0.158,1.74,0.476,2.497
	c0.316,0.757,0.748,1.413,1.297,1.969c0.547,0.555,1.186,0.987,1.914,1.297c0.729,0.311,1.518,0.465,2.367,0.465
	c0.879,0,1.65-0.09,2.314-0.27c0.662-0.181,1.348-0.466,2.055-0.854l-0.715-1.406c-0.619,0.375-1.199,0.639-1.74,0.79
	s-1.178,0.227-1.914,0.227c-0.648,0-1.242-0.119-1.783-0.356c-0.541-0.238-1.006-0.565-1.395-0.984
	c-0.391-0.418-0.693-0.915-0.908-1.492c-0.217-0.576-0.324-1.203-0.324-1.881s0.107-1.305,0.324-1.882
	C342.628,483.238,342.931,482.741,343.322,482.322z M404.387,487.825l1.949,1.95l1.951-1.95l-1.951-1.95L404.387,487.825z
	 M410.701,487.326l-0.664,0.433l0.633,0.564l241.176-0.341L410.701,487.326z M362.611,481.295c-0.549-0.569-1.193-1.02-1.936-1.352
	c-0.742-0.331-1.547-0.497-2.412-0.497c-0.863,0-1.668,0.166-2.41,0.497c-0.742,0.332-1.389,0.782-1.936,1.352
	c-0.549,0.57-0.977,1.229-1.287,1.979c-0.311,0.749-0.465,1.557-0.465,2.422s0.154,1.672,0.465,2.422s0.738,1.409,1.287,1.979
	c0.547,0.569,1.193,1.017,1.936,1.341s1.547,0.486,2.41,0.486c0.865,0,1.67-0.162,2.412-0.486s1.387-0.771,1.936-1.341
	c0.547-0.569,0.977-1.229,1.287-1.979c0.309-0.75,0.465-1.557,0.465-2.422s-0.156-1.673-0.465-2.422
	C363.587,482.524,363.158,481.865,362.611,481.295z M362.394,487.523c-0.217,0.569-0.52,1.067-0.908,1.492
	c-0.389,0.426-0.857,0.765-1.406,1.017c-0.547,0.252-1.152,0.378-1.816,0.378c-0.662,0-1.268-0.126-1.816-0.378
	c-0.547-0.252-1.016-0.591-1.404-1.017c-0.391-0.425-0.693-0.923-0.908-1.492c-0.217-0.569-0.324-1.179-0.324-1.827
	c0-0.649,0.107-1.262,0.324-1.839c0.215-0.576,0.518-1.077,0.908-1.503c0.389-0.425,0.857-0.764,1.404-1.016
	c0.549-0.252,1.154-0.379,1.816-0.379c0.664,0,1.27,0.127,1.816,0.379c0.549,0.252,1.018,0.591,1.406,1.016
	c0.389,0.426,0.691,0.927,0.908,1.503c0.217,0.577,0.324,1.189,0.324,1.839C362.718,486.345,362.611,486.954,362.394,487.523z
	 M296.221,481.295c-0.547-0.569-1.191-1.02-1.936-1.352c-0.742-0.331-1.545-0.497-2.41-0.497s-1.67,0.166-2.412,0.497
	c-0.742,0.332-1.387,0.782-1.936,1.352c-0.547,0.57-0.977,1.229-1.285,1.979c-0.311,0.749-0.465,1.557-0.465,2.422
	s0.154,1.672,0.465,2.422c0.309,0.75,0.738,1.409,1.285,1.979c0.549,0.569,1.193,1.017,1.936,1.341s1.547,0.486,2.412,0.486
	s1.668-0.162,2.41-0.486c0.744-0.324,1.389-0.771,1.936-1.341c0.549-0.569,0.977-1.229,1.287-1.979s0.465-1.557,0.465-2.422
	s-0.154-1.673-0.465-2.422C297.198,482.524,296.77,481.865,296.221,481.295z M296.006,487.523c-0.217,0.569-0.52,1.067-0.908,1.492
	c-0.391,0.426-0.859,0.765-1.406,1.017c-0.549,0.252-1.154,0.378-1.816,0.378c-0.664,0-1.27-0.126-1.816-0.378
	c-0.549-0.252-1.018-0.591-1.406-1.017c-0.389-0.425-0.691-0.923-0.908-1.492s-0.324-1.179-0.324-1.827
	c0-0.649,0.107-1.262,0.324-1.839c0.217-0.576,0.52-1.077,0.908-1.503c0.389-0.425,0.857-0.764,1.406-1.016
	c0.547-0.252,1.152-0.379,1.816-0.379c0.662,0,1.268,0.127,1.816,0.379c0.547,0.252,1.016,0.591,1.406,1.016
	c0.389,0.426,0.691,0.927,0.908,1.503c0.215,0.577,0.324,1.189,0.324,1.839C296.331,486.345,296.221,486.954,296.006,487.523z
	 M309.381,480.463c-0.455-0.39-0.996-0.656-1.623-0.801c-0.627-0.144-1.309-0.216-2.043-0.216c-0.707,0-1.465,0.047-2.271,0.141
	s-1.701,0.234-2.682,0.422v11.699h1.535v-10.402c1.184-0.23,2.293-0.346,3.33-0.346c0.592,0,1.111,0.062,1.559,0.184
	c0.445,0.123,0.818,0.332,1.113,0.628c0.295,0.295,0.525,0.713,0.691,1.254s0.25,1.251,0.25,2.13v6.553h1.535v-7.201
	c0-0.995-0.119-1.82-0.357-2.477C310.18,481.375,309.834,480.852,309.381,480.463z M318.516,490.054
	c-0.346-0.108-0.619-0.277-0.82-0.509c-0.203-0.23-0.35-0.547-0.443-0.951c-0.096-0.403-0.141-0.922-0.141-1.557v-5.86h4.973v-1.492
	h-4.973v-4.347h-1.537v4.347h-2.551v1.492h2.551v6.466c0,0.764,0.109,1.405,0.326,1.925c0.215,0.519,0.525,0.937,0.93,1.254
	c0.402,0.317,0.867,0.544,1.395,0.682c0.525,0.137,1.105,0.205,1.74,0.205h2.271v-1.492h-2.422
	C319.295,490.216,318.862,490.162,318.516,490.054z M337.784,489.589c-0.316,0-0.59,0.115-0.82,0.346s-0.346,0.505-0.346,0.822
	c0,0.316,0.115,0.591,0.346,0.821s0.504,0.346,0.82,0.346c0.318,0,0.592-0.115,0.822-0.346s0.346-0.505,0.346-0.821
	c0-0.317-0.115-0.592-0.346-0.822S338.102,489.589,337.784,489.589z M333.178,486.106c-0.346-0.303-0.785-0.565-1.318-0.789
	c-0.533-0.223-1.182-0.422-1.947-0.595l-0.799-0.173c-1.053-0.216-1.781-0.461-2.184-0.735c-0.404-0.273-0.607-0.678-0.607-1.211
	c0-0.504,0.238-0.904,0.715-1.2c0.475-0.295,1.174-0.443,2.098-0.443c0.793,0,1.477,0.076,2.055,0.228
	c0.576,0.151,1.217,0.421,1.924,0.811l0.691-1.405c-1.412-0.765-2.969-1.146-4.67-1.146c-0.635,0-1.223,0.076-1.764,0.228
	c-0.539,0.151-1.008,0.364-1.404,0.638s-0.711,0.605-0.941,0.994c-0.23,0.39-0.346,0.815-0.346,1.276
	c0,0.462,0.072,0.88,0.217,1.254c0.143,0.375,0.381,0.707,0.713,0.995s0.758,0.537,1.275,0.746c0.52,0.209,1.146,0.4,1.883,0.573
	l0.908,0.194c1.008,0.217,1.729,0.49,2.162,0.822c0.432,0.331,0.648,0.771,0.648,1.318c0,0.39-0.086,0.707-0.26,0.952
	c-0.172,0.245-0.414,0.436-0.725,0.573c-0.311,0.137-0.678,0.237-1.102,0.303c-0.426,0.064-0.877,0.097-1.352,0.097
	c-0.592,0-1.223-0.09-1.893-0.271c-0.67-0.18-1.352-0.479-2.045-0.897l-0.734,1.471c0.779,0.433,1.539,0.742,2.281,0.93
	s1.539,0.281,2.391,0.281c0.748,0,1.434-0.072,2.053-0.216c0.621-0.145,1.158-0.36,1.611-0.648c0.455-0.289,0.805-0.649,1.049-1.082
	c0.246-0.433,0.369-0.93,0.369-1.492c0-0.476-0.072-0.915-0.217-1.318C333.77,486.763,333.526,486.41,333.178,486.106z"/>
</svg>

