<?xml version="1.0" encoding="utf-8"?>
<!-- Generator: Adobe Illustrator 21.0.0, SVG Export Plug-In . SVG Version: 6.00 Build 0)  -->
<svg version="1.1" id="Layer_1" xmlns="http://www.w3.org/2000/svg" xmlns:xlink="http://www.w3.org/1999/xlink" x="0px" y="0px"
	 viewBox="0 0 800 500" style="enable-background:new 0 0 800 500;" xml:space="preserve">
<g>
	<g id="s0_0_0_0_2_" transform="matrix(0.072, 0, 0, 0.072, 341.53,343)">
		<path fill="#000000" id="g978_4" d="M145.9,374.5c40.8-5.8,72.8-106.7,21.5-106.1c-10.1,0.2-30.7,6.1-35,15.1c-1.8,3.7-4.3,25.3-1.1,20.8
			c4.1-6,56-25.9,52.4,5.6c-2,16.5-22.4,38.2-40,41.1c-32.1,5.2-36.2-38.9-31.6-60.6c0.5-2.4,2-7.9,4.1-14
			c12.5,4.9,28.4-2.3,29.6-22.1c1.4-25.6-17.4-16.6-30.5,11.8c-4-2.3-7.8-6.4-10.5-12.4c-1.7-3.7-3.8-4.6-3.4,0.6
			c0.9,9.5,5,16.2,10.5,19.8c-1.8,5.2-3.7,10.8-5,16.8C100.6,318.2,105.6,380.3,145.9,374.5 M139.6,261.1c-5.8,6-13.1,8.5-20,6.7
			C125.8,253.7,134,241.9,139.6,261.1"/>
	</g>
	<g id="s0_0_0_1_4_" transform="matrix(0.072, 0, 0, 0.072, 358.51,358)">
		<path fill="#000000" id="g26_4" d="M205.4,110.8c-0.2-3.5-0.8-3.4-2.4-0.8c-2.9,5.2-3.8,18.9-4,22.4c-10.1-14-29-5.2-28.5,18.2
			c0.8,49.1,58,96.5,58,126.8c0,17.4-10.8,32.2-20.5,45.6c-2.4,3.5,3.1,1.1,5.2-0.5c10.7-8.9,19.7-24.7,21.5-39.1
			c20.1,67.2-26.6,106.5-88.1,118.9c-12.5,2.4-1.4,4-0.6,4.1c81.5,4.4,109.7-49.8,99.2-123C236.8,224.7,208.8,170.4,205.4,110.8
			 M224.2,245c-16-28.4-48.2-67.2-49.1-99.8c-0.5-15.4,24-11.1,24,0.9c0,4.4-7.3,1.4-9.5,1.4c-3.4,0-1.8,7.9,0.2,9.8
			c2.6,2.4,9.3,2.7,12.1,0.2C206.3,187.2,215.3,216.3,224.2,245"/>
	</g>
	<path fill="#000000" d="M358.5,218c-18.2,0-14.2,48.8-45.5,48.7c-8.2,0-17.4-2.9-17.6-9.3c-0.2-8.1,19.8-14,31.6-5c0.9,0.6,3.4-3.5,3.4-7.5
		c0.2-13.9-42.6-12.2-42.1,16.5c0.3,14,25.9,18.6,38.2,11.4c-3.8,7.6-10.2,20.1-18.9,31.6c-11.4-18.2-34.2-14.5-34.8,16.2
		c-0.5,27.2,22,18.6,33,7c6.4,40.4-48.5,67.2-80.6,73.9c-7.8,1.5-5.5,5.8,1.7,5.2c13.3-1.1,52.8-6.9,63.6-13.9
		c19.2-12.4,26.9-49.6,22.7-72.8l0,0c13-19.5,38.8-80.6,47-80.4c2.3,0,2.7,2,3.7,0.6C366.6,236.5,368,218,358.5,218z"/>
	<path fill="#000000" d="M462.1,256.8c-7.9-0.9-20.9,0.5-27.3-4.6c-1.8-1.7-3.4-2.9-4.3,0.5c-1.2,5.5-1.2,14.7-0.5,20.5c-3.2,12.5-4,27.8-17.6,34.5
		l0,0c-6.7,3.8-13.4,4.7-18.1-2.8c-2.1-3.4-4.3-3.5-4.4,1.5c-0.2,2.4-2.4,15.6-1.7,16.9c7.3,11.1,13,14.7,12.5,28.5
		c-1.4,34.5-60,48.7-63.3-2.7c-1.8-27.2,24.4-46.7,24.9-78.5c0-9.6-3.4-0.5-4,3.2c-3.7,24.7-27.9,46.7-27.8,80.4
		c0,21.8,8.7,54,36.3,52.5c32.5-1.8,47.5-49.1,40.6-76c1.4-0.3,2.7-0.6,5-1.7v0c21.1-9.3,16.3-43.5,27.8-49.6
		c3.8-2.1,18.6-0.2,21.2-2.7C464.3,273.9,465,257.2,462.1,256.8z"/>
	<path fill="#000000" d="M560.7,289.1c-0.6,0-9.5,13.4-24,5.3c4.7-9.2,16.3-11.8,24.3-20.8c9.9-11.3,10.1-31.6,8.1-45.5
		c-3.8-25.9-13.7-49.9-15.3-76.5c-0.2-2.3-0.6-2.9-2-0.9c-3.2,4.1-4.4,20.3-4.6,23.4c-10.1-14-29.8-5.2-28.5,18
		c1.1,16.8,31.3,14.8,34.3,30.7c2.1,11.1-9,26.4-18.8,40c-2.4,3.5,3.2,1.1,5.2-0.6c10.1-8.1,16.5-20.5,19.1-34c1.7,5,6,19.1,3.2,24
		c-5.6,9.8-30.2,19.8-32.7,42.3l0.1,0.1c-2,8.5-2,17.2-1,25.7c-60.3,20.5-62.9,70.7-90.5,71.1c-6.3,0.2-12.7-3.4-12.7-10.2
		c0-21.1,13.4-37.4,24.9-53.6c4.6-6.6-0.9-5.6-3.5-2.7c-13.9,14.7-25,33.1-26.9,53.6c0,15.6,7,28.4,24.3,28.4
		c15.3,0,24.6-21.7,33.3-31.7c23.4-27.3,26.3-25.3,56.2-38.8c16.8-7.6,30.2-20.6,30.5-40.1C563.8,294.5,563.3,289.1,560.7,289.1z
		 M523.5,186.9c0.2-15.6,24-11.1,24,0.9c0,4.4-7.3,1.2-9.6,1.2c-3.4,0-1.8,7.9,0.2,9.8c2.7,2.6,9.5,2.9,12.1,0.3
		c1.1,4.7,1.2,4.9,2.6,9.8C545.9,203.8,523.3,196.6,523.5,186.9z"/>
	<path fill="#000000" d="M675,264.1c-16.3-0.6-11.3,41.5-42.4,41.4c-8.2-0.2-17.6-3.1-17.6-9.3c-0.2-8.2,19.7-14.2,31.6-5c0.8,0.6,3.4-3.7,3.4-7.6
		c0-13.9-42.7-12.2-42.1,16.5c0.3,14,25.8,18.6,38.2,11.4c-8.1,20.1-30.2,54.5-54.6,53.6l0,0c-1.2-0.3-0.9,0-1.8-0.3
		c2.4-12.2,0.9-25.3-1.4-25.3c-5,0.2,0.8,18-8.2,20.8c-9.6,3.1-2.1-12.2-6.3-12.1c-6.7,0.3-0.6,22.1-15.3,22.6
		c-13.4,0.5-12.1-13.7-16.5-13.3c-7.2,0.6-3.1,25.5-23.5,25.6c-18.8-0.9-19.7-36.2-20.8-49.6c-1.8-23.8-2.1-47.9-8.2-71.1
		c-0.8-2.9-6-21.1-7.6-13.7c-1.4,6.3-4.1,16.6-2.7,20.3c10.1,27.8,10.4,58.5,12.7,87.3c1.4,16.2,3.7,51.3,26.7,50.7c0,0,0,0,0,0
		c16.2-0.9,18.9-26.3,23.7-25.6c3.7,0.5,2.7,14,16.3,13.4c6.9-0.5,12.1-7.2,12.8-13.6c8.7,2.4,13.1-2,15.6-7.5
		c0.5,0.2,1.2,0.5,1.8,0.6l0,0c61.4,3.8,68.4-88.5,88.1-88.5c2.3,0,2.7,2.1,3.7,0.8C683.2,282.7,684.4,264.5,675,264.1z"/>
	<path fill="#000000" id="g6459_4" d="M682.5,367.2c-0.2,0-1.2,2.4-1.4,2.7c-0.2,0.5-0.8,1.4-0.2,1.5c0.9,0.5,3.5,1.8,4.4,2.4
		c0.5,0.3,0.5,0.2,0.6-0.2c0.6-1.1,1.8-3.7,1.8-3.8C687.7,369.7,683,367.1,682.5,367.2"/>
	<path fill="#000000" id="g6459_4_1_" d="M671.2,370.7c-0.2,0-1.2,2.4-1.4,2.7c-0.2,0.5-0.8,1.4-0.2,1.5c0.9,0.5,3.5,1.8,4.4,2.4
		c0.5,0.3,0.5,0.2,0.6-0.2c0.6-1.1,1.8-3.7,1.8-3.8C676.4,373.2,671.6,370.6,671.2,370.7"/>
	<path fill="#000000" id="g6459_4_2_" d="M685.3,360.1c-0.2,0-1.2,2.4-1.4,2.7c-0.2,0.5-0.8,1.4-0.2,1.5c0.9,0.5,3.5,1.8,4.4,2.4
		c0.5,0.3,0.5,0.2,0.6-0.2c0.6-1.1,1.8-3.7,1.8-3.8C690.5,362.6,685.7,360,685.3,360.1"/>
	<path fill="#000000" id="g6459_4_3_" d="M570.2,300.1c-0.2,0-1.2,2.4-1.4,2.7c-0.2,0.5-0.8,1.4-0.2,1.5c0.9,0.5,3.5,1.8,4.4,2.4
		c0.5,0.3,0.5,0.2,0.6-0.2c0.6-1.1,1.8-3.7,1.8-3.8C575.4,302.6,570.6,300,570.2,300.1"/>
	<path fill="#000000" id="g6459_4_4_" d="M572.3,328.3c-0.2,0-1.2,2.4-1.4,2.7c-0.2,0.5-0.8,1.4-0.2,1.5c0.9,0.5,3.5,1.8,4.4,2.4
		c0.5,0.3,0.5,0.2,0.6-0.2c0.6-1.1,1.8-3.7,1.8-3.8C577.5,330.8,572.8,328.2,572.3,328.3"/>
	<path fill="#000000" id="g6459_4_5_" d="M599.8,378.9c-0.2,0-1.2,2.4-1.4,2.7c-0.2,0.5-0.8,1.4-0.2,1.5c0.9,0.5,3.5,1.8,4.4,2.4
		c0.5,0.3,0.5,0.2,0.6-0.2c0.6-1.1,1.8-3.7,1.8-3.8C605,381.4,600.2,378.8,599.8,378.9"/>
	<path fill="#000000" id="g6388_4" d="M146.6,340.9c4.4-2,13.4-11.1,18.5-17.1c3.4-3.8,9.5-13.3,3.7-17.2c-5.2-3.4-13.4,2.7-16.5,6.7
		c-1.7,2.6-0.6,2.7,0.9,1.7c2.1-1.4,5.5-3.8,8.1-2.3c2.7,1.5,2.9,5.8,1.7,8.9c-2,4.1-12.5,14-16.5,17.7
		C145.1,340.6,145.4,341.4,146.6,340.9"/>
	<path fill="#000000" id="g6459_4_6_" d="M207.8,363.4c-0.2,0-1.2,2.4-1.4,2.7c-0.2,0.5-0.8,1.4-0.2,1.5c0.9,0.5,3.5,1.8,4.4,2.4
		c0.5,0.3,0.5,0.2,0.6-0.2c0.6-1.1,1.8-3.7,1.8-3.8C213,365.8,208.2,363.2,207.8,363.4"/>
	<path fill="#000000" id="g6459_4_7_" d="M292.8,342.8c-0.2,0-1.2,2.4-1.4,2.7c-0.2,0.5-0.8,1.4-0.2,1.5c0.9,0.5,3.5,1.8,4.4,2.4
		c0.5,0.3,0.5,0.2,0.6-0.2c0.6-1.1,1.8-3.7,1.8-3.8C298,345.2,293.3,342.6,292.8,342.8"/>
	<path fill="#000000" id="g6459_4_8_" d="M393.4,242.3c-0.2,0-1.2,2.4-1.4,2.7c-0.2,0.5-0.8,1.4-0.2,1.5c0.9,0.5,3.5,1.8,4.4,2.4
		c0.5,0.3,0.5,0.2,0.6-0.2c0.6-1.1,1.8-3.7,1.8-3.8C398.6,244.8,393.9,242.2,393.4,242.3"/>
	<path fill="#000000" id="g6459_4_9_" d="M255.3,251.1c-0.2,0-1.2,2.4-1.4,2.7c-0.2,0.5-0.8,1.4-0.2,1.5c0.9,0.5,3.5,1.8,4.4,2.4
		c0.5,0.3,0.5,0.2,0.6-0.2c0.6-1.1,1.8-3.7,1.8-3.8C260.5,253.5,255.7,250.9,255.3,251.1"/>
	<path fill="#000000" id="g6459_4_10_" d="M153.9,250.6c-0.2,0-1.2,2.4-1.4,2.7c-0.2,0.5-0.8,1.4-0.2,1.5c0.9,0.5,3.5,1.8,4.4,2.4
		c0.5,0.3,0.5,0.2,0.6-0.2c0.6-1.1,1.8-3.7,1.8-3.8C159.1,253.1,154.4,250.5,153.9,250.6"/>
	<path fill="#000000" id="g6459_4_11_" d="M192.1,264.7c-0.2,0-1.2,2.4-1.4,2.7c-0.2,0.5-0.8,1.4-0.2,1.5c0.9,0.5,3.5,1.8,4.4,2.4
		c0.5,0.3,0.5,0.2,0.6-0.2c0.6-1.1,1.8-3.7,1.8-3.8C197.3,267.2,192.6,264.6,192.1,264.7"/>
	<path fill="#000000" id="g6459_4_12_" d="M214.8,262.6c-0.2,0-1.2,2.4-1.4,2.7c-0.2,0.5-0.8,1.4-0.2,1.5c0.9,0.5,3.5,1.8,4.4,2.4
		c0.5,0.3,0.5,0.2,0.6-0.2c0.6-1.1,1.8-3.7,1.8-3.8C220,265.1,215.2,262.5,214.8,262.6"/>
	<path fill="#000000" id="g6459_4_13_" d="M178.7,255.6c-0.2,0-1.2,2.4-1.4,2.7c-0.2,0.5-0.8,1.4-0.2,1.5c0.9,0.5,3.5,1.8,4.4,2.4
		c0.5,0.3,0.5,0.2,0.6-0.2c0.6-1.1,1.8-3.7,1.8-3.8C183.9,258.1,179.2,255.5,178.7,255.6"/>
	<path fill="#000000" id="g6459_4_14_" d="M166.7,255.6c-0.2,0-1.2,2.4-1.4,2.7c-0.2,0.5-0.8,1.4-0.2,1.5c0.9,0.5,3.5,1.8,4.4,2.4
		c0.5,0.3,0.5,0.2,0.6-0.2c0.6-1.1,1.8-3.7,1.8-3.8C171.9,258.1,167.1,255.5,166.7,255.6"/>
	<path fill="#000000" id="g6459_4_15_" d="M157.5,242.2c-0.2,0-1.2,2.4-1.4,2.7c-0.2,0.5-0.8,1.4-0.2,1.5c0.9,0.5,3.5,1.8,4.4,2.4
		c0.5,0.3,0.5,0.2,0.6-0.2c0.6-1.1,1.8-3.7,1.8-3.8C162.7,244.6,158,242,157.5,242.2"/>
	<path fill="#000000" id="g6459_4_16_" d="M170.3,242.2c-0.2,0-1.2,2.4-1.4,2.7c-0.2,0.5-0.8,1.4-0.2,1.5c0.9,0.5,3.5,1.8,4.4,2.4
		c0.5,0.3,0.5,0.2,0.6-0.2c0.6-1.1,1.8-3.7,1.8-3.8C175.5,244.6,170.7,242,170.3,242.2"/>
	<path fill="#000000" id="g6459_4_17_" d="M181.5,246.4c-0.2,0-1.2,2.4-1.4,2.7c-0.2,0.5-0.8,1.4-0.2,1.5c0.9,0.5,3.5,1.8,4.4,2.4
		c0.5,0.3,0.5,0.2,0.6-0.2c0.6-1.1,1.8-3.7,1.8-3.8C186.7,248.8,182,246.2,181.5,246.4"/>
	<path fill="#000000" id="g6459_4_18_" d="M189.3,255.6c-0.2,0-1.2,2.4-1.4,2.7c-0.2,0.5-0.8,1.4-0.2,1.5c0.9,0.5,3.5,1.8,4.4,2.4
		c0.5,0.3,0.5,0.2,0.6-0.2c0.6-1.1,1.8-3.7,1.8-3.8C194.5,258.1,189.8,255.5,189.3,255.6"/>
	<path fill="#000000" id="g6459_4_19_" d="M199.2,245.7c-0.2,0-1.2,2.4-1.4,2.7c-0.2,0.5-0.8,1.4-0.2,1.5c0.9,0.5,3.5,1.8,4.4,2.4
		c0.5,0.3,0.5,0.2,0.6-0.2c0.6-1.1,1.8-3.7,1.8-3.8C204.4,248.1,199.7,245.5,199.2,245.7"/>
	<path fill="#000000" id="g6459_4_20_" d="M604.7,274c-0.2,0-1.2,2.4-1.4,2.7c-0.2,0.5-0.8,1.4-0.2,1.5c0.9,0.5,3.5,1.8,4.4,2.4
		c0.5,0.3,0.5,0.2,0.6-0.2c0.6-1.1,1.8-3.7,1.8-3.8C609.9,276.4,605.2,273.8,604.7,274"/>
	<path fill="#000000" id="g6459_4_21_" d="M634.4,262.6c-0.2,0-1.2,2.4-1.4,2.7c-0.2,0.5-0.8,1.4-0.2,1.5c0.9,0.5,3.5,1.8,4.4,2.4
		c0.5,0.3,0.5,0.2,0.6-0.2c0.6-1.1,1.8-3.7,1.8-3.8C639.6,265.1,634.9,262.5,634.4,262.6"/>
	<path fill="#000000" id="g6459_4_22_" d="M670.4,242.9c-0.2,0-1.2,2.4-1.4,2.7c-0.2,0.5-0.8,1.4-0.2,1.5c0.9,0.5,3.5,1.8,4.4,2.4
		c0.5,0.3,0.5,0.2,0.6-0.2c0.6-1.1,1.8-3.7,1.8-3.8C675.6,245.3,670.9,242.8,670.4,242.9"/>
	<path fill="#000000" id="g6459_4_23_" d="M509,242.9c-0.1,0-1.2,2.4-1.4,2.7c-0.2,0.5-0.8,1.4-0.2,1.5c0.9,0.5,3.5,1.8,4.4,2.4
		c0.5,0.3,0.5,0.2,0.6-0.2c0.6-1.1,1.8-3.7,1.8-3.8C514.2,245.3,509.4,242.8,509,242.9"/>
	<path fill="#000000" id="g6360_4" d="M360.8,342.7c0,5.2,4.3,9.3,9.3,9.3c5,0,9.3-4.1,9.3-9.3c0-5-4.3-9.2-9.3-9.2
		C365,333.5,360.8,337.7,360.8,342.7"/>
	<path fill="#000000" id="g6459_4_24_" d="M517.8,254.9c-0.2,0-1.2,2.4-1.4,2.7c-0.2,0.5-0.8,1.4-0.2,1.5c0.9,0.5,3.5,1.8,4.4,2.4
		c0.5,0.3,0.5,0.2,0.6-0.2c0.6-1.1,1.8-3.7,1.8-3.8C523,257.3,518.3,254.7,517.8,254.9"/>
	<path fill="#000000" id="g6459_4_25_" d="M497.5,273.1c-0.2,0-1.2,2.4-1.4,2.7c-0.2,0.5-0.8,1.4-0.2,1.5c0.9,0.5,3.5,1.8,4.4,2.4
		c0.5,0.3,0.5,0.2,0.6-0.2c0.6-1.1,1.8-3.7,1.8-3.8C502.7,275.6,498,273,497.5,273.1"/>
	<path fill="#000000" id="g6459_4_26_" d="M476.9,294.4c-0.2,0-1.2,2.4-1.4,2.7c-0.2,0.5-0.8,1.4-0.2,1.5c0.9,0.5,3.5,1.8,4.4,2.4
		c0.5,0.3,0.5,0.2,0.6-0.2c0.6-1.1,1.8-3.7,1.8-3.8C482.1,296.9,477.4,294.3,476.9,294.4"/>
	<path fill="#000000" id="g6459_4_27_" d="M392.9,288.8c-0.2,0-1.2,2.4-1.4,2.7c-0.2,0.5-0.8,1.4-0.2,1.5c0.9,0.5,3.5,1.8,4.4,2.4
		c0.5,0.3,0.5,0.2,0.6-0.2c0.6-1.1,1.8-3.7,1.8-3.8C398,291.2,393.3,288.6,392.9,288.8"/>
	<path fill="#000000" id="g6459_4_28_" d="M202.1,299.4c-0.2,0-1.2,2.4-1.4,2.7c-0.2,0.5-0.8,1.4-0.2,1.5c0.9,0.5,3.5,1.8,4.4,2.4
		c0.5,0.3,0.5,0.2,0.6-0.2c0.6-1.1,1.8-3.7,1.8-3.8C207.3,301.8,202.5,299.2,202.1,299.4"/>
	<path fill="#000000" id="g6459_4_29_" d="M185.7,342.5c-0.2,0-1.2,2.4-1.4,2.7c-0.2,0.5-0.8,1.4-0.2,1.5c0.9,0.5,3.5,1.8,4.4,2.4
		c0.5,0.3,0.5,0.2,0.6-0.2c0.6-1.1,1.8-3.7,1.8-3.8C190.9,345,186.2,342.4,185.7,342.5"/>
	<path fill="#000000" id="g6459_4_30_" d="M178,375c-0.2,0-1.2,2.4-1.4,2.7c-0.2,0.5-0.8,1.4-0.2,1.5c0.9,0.5,3.5,1.8,4.4,2.4
		c0.5,0.3,0.5,0.2,0.6-0.2c0.6-1.1,1.8-3.7,1.8-3.8C183.2,377.4,178.5,374.8,178,375"/>
	<path fill="#000000" id="g6459_4_31_" d="M175.1,360.9c-0.2,0-1.2,2.4-1.4,2.7c-0.2,0.5-0.8,1.4-0.2,1.5c0.9,0.5,3.5,1.8,4.4,2.4
		c0.5,0.3,0.5,0.2,0.6-0.2c0.6-1.1,1.8-3.7,1.8-3.8C180.3,363.3,175.6,360.7,175.1,360.9"/>
	<path fill="#000000" id="g6459_4_32_" d="M159.7,384.2c-0.2,0-1.2,2.4-1.4,2.7c-0.2,0.5-0.8,1.4-0.2,1.5c0.9,0.5,3.5,1.8,4.4,2.4
		c0.5,0.3,0.5,0.2,0.6-0.2c0.6-1.1,1.8-3.7,1.8-3.8C164.9,386.6,160.1,384,159.7,384.2"/>
	<path fill="#000000" id="g6459_4_33_" d="M186.5,372.9c-0.2,0-1.2,2.4-1.4,2.7c-0.2,0.5-0.8,1.4-0.2,1.5c0.9,0.5,3.5,1.8,4.4,2.4
		c0.5,0.3,0.5,0.2,0.6-0.2c0.6-1.1,1.8-3.7,1.8-3.8C191.7,375.3,186.9,372.7,186.5,372.9"/>
	<path fill="#000000" id="g6459_4_34_" d="M152.6,375.7c-0.2,0-1.2,2.4-1.4,2.7c-0.2,0.5-0.8,1.4-0.2,1.5c0.9,0.5,3.5,1.8,4.4,2.4
		c0.5,0.3,0.5,0.2,0.6-0.2c0.6-1.1,1.8-3.7,1.8-3.8C157.8,378.2,153,375.6,152.6,375.7"/>
	<path fill="#000000" id="g6459_4_35_" d="M146.2,387.1c-0.2,0-1.2,2.4-1.4,2.7c-0.2,0.5-0.8,1.4-0.2,1.5c0.9,0.5,3.5,1.8,4.4,2.4
		c0.5,0.3,0.5,0.2,0.6-0.2c0.6-1.1,1.8-3.7,1.8-3.8C151.4,389.5,146.7,386.9,146.2,387.1"/>
	<path fill="#000000" id="g6459_4_36_" d="M164.5,377.8c-0.2,0-1.2,2.4-1.4,2.7c-0.2,0.5-0.8,1.4-0.2,1.5c0.9,0.5,3.5,1.8,4.4,2.4
		c0.5,0.3,0.5,0.2,0.6-0.2c0.6-1.1,1.8-3.7,1.8-3.8C169.7,380.3,165,377.7,164.5,377.8"/>
	<path fill="#000000" id="g6459_4_37_" d="M187.2,360.9c-0.2,0-1.2,2.4-1.4,2.7c-0.2,0.5-0.8,1.4-0.2,1.5c0.9,0.5,3.5,1.8,4.4,2.4
		c0.5,0.3,0.5,0.2,0.6-0.2c0.6-1.1,1.8-3.7,1.8-3.8C192.4,363.3,187.7,360.7,187.2,360.9"/>
	<path fill="#000000" id="g6459_4_38_" d="M211.9,298c-0.2,0-1.2,2.4-1.4,2.7c-0.2,0.5-0.8,1.4-0.2,1.5c0.9,0.5,3.5,1.8,4.4,2.4
		c0.5,0.3,0.5,0.2,0.6-0.2c0.6-1.1,1.8-3.7,1.8-3.8C217.1,300.5,212.4,297.9,211.9,298"/>
	<path fill="#000000" id="g6459_4_39_" d="M210.5,333.3c-0.2,0-1.2,2.4-1.4,2.7c-0.2,0.5-0.8,1.4-0.2,1.5c0.9,0.5,3.5,1.8,4.4,2.4
		c0.5,0.3,0.5,0.2,0.6-0.2c0.6-1.1,1.8-3.7,1.8-3.8C215.7,335.8,211,333.2,210.5,333.3"/>
	<path fill="#000000" id="g6459_4_40_" d="M229.6,312.1c-0.2,0-1.2,2.4-1.4,2.7c-0.2,0.5-0.8,1.4-0.2,1.5c0.9,0.5,3.5,1.8,4.4,2.4
		c0.5,0.3,0.5,0.1,0.6-0.2c0.6-1.1,1.8-3.7,1.8-3.8C234.8,314.6,230.1,312,229.6,312.1"/>
	<path fill="#000000" id="g6459_4_41_" d="M219,324.8c-0.2,0-1.2,2.4-1.4,2.7c-0.2,0.5-0.8,1.4-0.2,1.5c0.9,0.5,3.5,1.8,4.4,2.4
		c0.5,0.3,0.5,0.2,0.6-0.2c0.6-1.1,1.8-3.7,1.8-3.8C224.2,327.3,219.5,324.7,219,324.8"/>
	<path fill="#000000" id="g6459_4_42_" d="M219.7,346c-0.2,0-1.2,2.4-1.4,2.7c-0.2,0.5-0.8,1.4-0.2,1.5c0.9,0.5,3.5,1.8,4.4,2.4
		c0.5,0.3,0.5,0.2,0.6-0.2c0.6-1.1,1.8-3.7,1.8-3.8C224.9,348.5,220.1,345.9,219.7,346"/>
	<path fill="#000000" id="g6459_4_43_" d="M229.6,333.3c-0.2,0-1.2,2.4-1.4,2.7c-0.2,0.5-0.8,1.4-0.2,1.5c0.9,0.5,3.5,1.8,4.4,2.4
		c0.5,0.3,0.5,0.2,0.6-0.2c0.6-1.1,1.8-3.7,1.8-3.8C234.8,335.8,230.1,333.2,229.6,333.3"/>
	<path fill="#000000" id="g6459_4_44_" d="M249.3,346.8c-0.2,0-1.2,2.4-1.4,2.7c-0.2,0.5-0.8,1.4-0.2,1.5c0.9,0.5,3.5,1.8,4.4,2.4
		c0.5,0.3,0.5,0.2,0.6-0.2c0.6-1.1,1.8-3.7,1.8-3.8C254.5,349.2,249.8,346.6,249.3,346.8"/>
	<path fill="#000000" id="g6459_4_45_" d="M253.6,322.7c-0.2,0-1.2,2.4-1.4,2.7c-0.2,0.5-0.8,1.4-0.2,1.5c0.9,0.5,3.5,1.8,4.4,2.4
		c0.5,0.3,0.5,0.2,0.6-0.2c0.6-1.1,1.8-3.7,1.8-3.8C258.8,325.2,254,322.6,253.6,322.7"/>
	<path fill="#000000" id="g6459_4_46_" d="M231,387.7c-0.2,0-1.2,2.4-1.4,2.7c-0.2,0.5-0.8,1.4-0.2,1.5c0.9,0.5,3.5,1.8,4.4,2.4
		c0.5,0.3,0.5,0.2,0.6-0.2c0.6-1.1,1.8-3.7,1.8-3.8C236.2,390.1,231.5,387.5,231,387.7"/>
	<path fill="#000000" id="g6459_4_47_" d="M215.4,389.8c-0.2,0-1.2,2.4-1.4,2.7c-0.2,0.5-0.8,1.4-0.2,1.5c0.9,0.5,3.5,1.8,4.4,2.4
		c0.5,0.3,0.5,0.2,0.6-0.2c0.6-1.1,1.8-3.7,1.8-3.8C220.6,392.3,215.9,389.7,215.4,389.8"/>
	<path fill="#000000" id="g6459_4_48_" d="M255.1,376.5c-0.2,0-1.2,2.4-1.4,2.7c-0.2,0.5-0.8,1.4-0.2,1.5c0.9,0.5,3.5,1.8,4.4,2.4
		c0.5,0.3,0.5,0.2,0.6-0.2c0.6-1.1,1.8-3.7,1.8-3.8C260.3,378.9,255.5,376.3,255.1,376.5"/>
	<path fill="#000000" id="g6459_4_49_" d="M237.4,380.7c-0.2,0-1.2,2.4-1.4,2.7c-0.2,0.5-0.8,1.4-0.2,1.5c0.9,0.5,3.5,1.8,4.4,2.4
		c0.5,0.3,0.5,0.2,0.6-0.2c0.6-1.1,1.8-3.7,1.8-3.8C242.6,383.1,237.8,380.5,237.4,380.7"/>
	<path fill="#000000" id="g6459_4_50_" d="M243.7,365.1c-0.2,0-1.2,2.4-1.4,2.7c-0.2,0.5-0.8,1.4-0.2,1.5c0.9,0.5,3.5,1.8,4.4,2.4
		c0.5,0.3,0.5,0.2,0.6-0.2c0.6-1.1,1.8-3.7,1.8-3.8C248.9,367.6,244.2,365,243.7,365.1"/>
	<path fill="#000000" id="g6459_4_51_" d="M264.2,240.8c-0.2,0-1.2,2.4-1.4,2.7c-0.2,0.5-0.8,1.4-0.2,1.5c0.9,0.5,3.5,1.8,4.4,2.4
		c0.5,0.3,0.5,0.2,0.6-0.2c0.6-1.1,1.8-3.7,1.8-3.8C269.4,243.2,264.6,240.6,264.2,240.8"/>
	<path fill="#000000" id="g6459_4_52_" d="M598.4,336.3c-0.2,0-1.2,2.4-1.4,2.7c-0.2,0.5-0.8,1.4-0.2,1.5c0.9,0.5,3.5,1.8,4.4,2.4
		c0.5,0.3,0.5,0.2,0.6-0.2c0.6-1.1,1.8-3.7,1.8-3.8C603.6,338.8,598.8,336.2,598.4,336.3"/>
	<path fill="#000000" id="g6459_4_53_" d="M254.3,268.3c-0.2,0-1.2,2.4-1.4,2.7c-0.2,0.5-0.8,1.4-0.2,1.5c0.9,0.5,3.5,1.8,4.4,2.4
		c0.5,0.3,0.5,0.2,0.6-0.2c0.6-1.1,1.8-3.7,1.8-3.8C259.5,270.8,254.8,268.2,254.3,268.3"/>
	<path fill="#000000" id="g6459_4_54_" d="M255.7,311.4c-0.2,0-1.2,2.4-1.4,2.7c-0.2,0.5-0.8,1.4-0.2,1.5c0.9,0.5,3.5,1.8,4.4,2.4
		c0.5,0.3,0.5,0.2,0.6-0.2c0.6-1.1,1.8-3.7,1.8-3.8C260.9,313.8,256.2,311.2,255.7,311.4"/>
	<path fill="#000000" id="g6459_4_55_" d="M263.5,303.6c-0.2,0-1.2,2.4-1.4,2.7c-0.2,0.5-0.8,1.4-0.2,1.5c0.9,0.5,3.5,1.8,4.4,2.4
		c0.5,0.3,0.5,0.2,0.6-0.2c0.6-1.1,1.8-3.7,1.8-3.8C268.7,306.1,264,303.5,263.5,303.6"/>
	<path fill="#000000" id="g6459_4_56_" d="M267.8,295.2c-0.2,0-1.2,2.4-1.4,2.7c-0.2,0.5-0.8,1.4-0.2,1.5c0.9,0.5,3.5,1.8,4.4,2.4
		c0.5,0.3,0.5,0.2,0.6-0.2c0.6-1.1,1.8-3.7,1.8-3.8C273,297.6,268.2,295,267.8,295.2"/>
	<path fill="#000000" id="g6459_4_57_" d="M424.7,242.2c-0.2,0-1.2,2.4-1.4,2.7c-0.2,0.5-0.8,1.4-0.2,1.5c0.9,0.5,3.5,1.8,4.4,2.4
		c0.5,0.3,0.5,0.2,0.6-0.2c0.6-1.1,1.8-3.7,1.8-3.8C429.8,244.6,425.1,242,424.7,242.2"/>
	<path fill="#000000" id="g6459_4_58_" d="M355.3,252c-0.2,0-1.2,2.4-1.4,2.7c-0.2,0.5-0.8,1.4-0.2,1.5c0.9,0.5,3.5,1.8,4.4,2.4
		c0.5,0.3,0.5,0.2,0.6-0.2c0.6-1.1,1.8-3.7,1.8-3.8C360.5,254.5,355.8,251.9,355.3,252"/>
	<path fill="#000000" id="g6459_4_59_" d="M358.9,242.2c-0.2,0-1.2,2.4-1.4,2.7c-0.2,0.5-0.8,1.4-0.2,1.5c0.9,0.5,3.5,1.8,4.4,2.4
		c0.5,0.3,0.5,0.2,0.6-0.2c0.6-1.1,1.8-3.7,1.8-3.8C364.1,244.6,359.4,242,358.9,242.2"/>
	<path fill="#000000" id="g6459_4_60_" d="M365.3,250.6c-0.2,0-1.2,2.4-1.4,2.7c-0.2,0.5-0.8,1.4-0.2,1.5c0.9,0.5,3.5,1.8,4.4,2.4
		c0.5,0.3,0.5,0.2,0.6-0.2c0.6-1.1,1.8-3.7,1.8-3.8C370.5,253.1,365.8,250.5,365.3,250.6"/>
	<path fill="#000000" id="g6459_4_61_" d="M370.9,240.8c-0.2,0-1.2,2.4-1.4,2.7c-0.2,0.5-0.8,1.4-0.2,1.5c0.9,0.5,3.5,1.8,4.4,2.4
		c0.5,0.3,0.5,0.2,0.6-0.2c0.6-1.1,1.8-3.7,1.8-3.8C376.1,243.2,371.4,240.6,370.9,240.8"/>
	<path fill="#000000" id="g6459_4_62_" d="M309,255.7c-0.2,0-1.2,2.4-1.4,2.7c-0.2,0.5-0.8,1.4-0.2,1.5c0.9,0.5,3.5,1.8,4.4,2.4
		c0.5,0.3,0.5,0.2,0.6-0.2c0.6-1.1,1.8-3.7,1.8-3.8C314.2,258.2,309.5,255.6,309,255.7"/>
	<path fill="#000000" id="g6459_4_63_" d="M291.1,278.2c-0.2,0-1.2,2.4-1.4,2.7c-0.2,0.5-0.8,1.4-0.2,1.5c0.9,0.5,3.5,1.8,4.4,2.4
		c0.5,0.3,0.5,0.2,0.6-0.2c0.6-1.1,1.8-3.7,1.8-3.8C296.3,280.6,291.6,278,291.1,278.2"/>
	<path fill="#000000" id="g6459_4_64_" d="M308.1,280.3c-0.2,0-1.2,2.4-1.4,2.7c-0.2,0.5-0.8,1.4-0.2,1.5c0.9,0.5,3.5,1.8,4.4,2.4
		c0.5,0.3,0.5,0.2,0.6-0.2c0.6-1.1,1.8-3.7,1.8-3.8C313.2,282.8,308.5,280.2,308.1,280.3"/>
	<path fill="#000000" id="g6459_4_65_" d="M375.2,320.6c-0.2,0-1.2,2.4-1.4,2.7c-0.2,0.5-0.8,1.4-0.2,1.5c0.9,0.5,3.5,1.8,4.4,2.4
		c0.5,0.3,0.5,0.2,0.6-0.2c0.6-1.1,1.8-3.7,1.8-3.8C380.3,323,375.6,320.4,375.2,320.6"/>
	<path fill="#000000" id="g6459_4_66_" d="M344.1,343.2c-0.2,0-1.2,2.4-1.4,2.7c-0.2,0.5-0.8,1.4-0.2,1.5c0.9,0.5,3.5,1.8,4.4,2.4
		c0.5,0.3,0.5,0.2,0.6-0.2c0.6-1.1,1.8-3.7,1.8-3.8C349.3,345.6,344.6,343,344.1,343.2"/>
	<path fill="#000000" id="g6459_4_67_" d="M348.3,329.8c-0.2,0-1.2,2.4-1.4,2.7c-0.2,0.5-0.8,1.4-0.2,1.5c0.9,0.5,3.5,1.8,4.4,2.4
		c0.5,0.3,0.5,0.2,0.6-0.2c0.6-1.1,1.8-3.7,1.8-3.8C353.5,332.3,348.8,329.7,348.3,329.8"/>
	<path fill="#000000" id="g6459_4_68_" d="M348.4,317.2c-0.2,0-1.2,2.4-1.4,2.7c-0.2,0.5-0.8,1.4-0.2,1.5c0.9,0.5,3.5,1.8,4.4,2.4
		c0.5,0.3,0.5,0.2,0.6-0.2c0.6-1.1,1.8-3.7,1.8-3.8C353.6,319.6,348.9,317.1,348.4,317.2"/>
	<path fill="#000000" id="g6459_4_69_" d="M390.7,340.4c-0.2,0-1.2,2.4-1.4,2.7c-0.2,0.5-0.8,1.4-0.2,1.5c0.9,0.5,3.5,1.8,4.4,2.4
		c0.5,0.3,0.5,0.2,0.6-0.2c0.6-1.1,1.8-3.7,1.8-3.8C395.9,342.9,391.2,340.3,390.7,340.4"/>
	<path fill="#000000" id="g6459_4_70_" d="M376.5,368c-0.2,0-1.2,2.4-1.4,2.7c-0.2,0.5-0.8,1.4-0.2,1.5c0.9,0.5,3.5,1.8,4.4,2.4
		c0.5,0.3,0.5,0.2,0.6-0.2c0.6-1.1,1.8-3.7,1.8-3.8C381.7,370.4,377,367.8,376.5,368"/>
	<path fill="#000000" id="g6459_4_71_" d="M385.7,355.3c-0.2,0-1.2,2.4-1.4,2.7c-0.2,0.5-0.8,1.4-0.2,1.5c0.9,0.5,3.5,1.8,4.4,2.4
		c0.5,0.3,0.5,0.2,0.6-0.2c0.6-1.1,1.8-3.7,1.8-3.8C390.9,357.7,386.2,355.1,385.7,355.3"/>
	<path fill="#000000" id="g6459_4_72_" d="M364.6,370.7c-0.2,0-1.2,2.4-1.4,2.7c-0.2,0.5-0.8,1.4-0.2,1.5c0.9,0.5,3.5,1.8,4.4,2.4
		c0.5,0.3,0.5,0.2,0.6-0.2c0.6-1.1,1.8-3.7,1.8-3.8C369.7,373.2,365,370.6,364.6,370.7"/>
	<path fill="#000000" id="g6459_4_73_" d="M363.2,359.5c-0.2,0-1.2,2.4-1.4,2.7c-0.2,0.5-0.8,1.4-0.2,1.5c0.9,0.5,3.5,1.8,4.4,2.4
		c0.5,0.3,0.5,0.2,0.6-0.2c0.6-1.1,1.8-3.7,1.8-3.8C368.4,361.9,363.6,359.3,363.2,359.5"/>
	<path fill="#000000" id="g6459_4_74_" d="M351.1,354.5c-0.2,0-1.2,2.4-1.4,2.7c-0.2,0.5-0.8,1.4-0.2,1.5c0.9,0.5,3.5,1.8,4.4,2.4
		c0.5,0.3,0.5,0.2,0.6-0.2c0.6-1.1,1.8-3.7,1.8-3.8C356.3,357,351.5,354.4,351.1,354.5"/>
	<path fill="#000000" id="g6459_4_75_" d="M415.4,290.2c-0.2,0-1.2,2.4-1.4,2.7c-0.2,0.5-0.8,1.4-0.2,1.5c0.9,0.5,3.5,1.8,4.4,2.4
		c0.5,0.3,0.5,0.2,0.6-0.2c0.6-1.1,1.8-3.7,1.8-3.8C420.6,292.6,415.9,290,415.4,290.2"/>
	<path fill="#000000" id="g6459_4_76_" d="M432.4,378.6c-0.2,0-1.2,2.4-1.4,2.7c-0.2,0.5-0.8,1.4-0.2,1.5c0.9,0.5,3.5,1.8,4.4,2.4
		c0.5,0.3,0.5,0.2,0.6-0.2c0.6-1.1,1.8-3.7,1.8-3.8C437.6,381,432.8,378.4,432.4,378.6"/>
	<path fill="#000000" id="g6459_4_77_" d="M433.8,365.1c-0.2,0-1.2,2.4-1.4,2.7c-0.2,0.5-0.8,1.4-0.2,1.5c0.9,0.5,3.5,1.8,4.4,2.4
		c0.5,0.3,0.5,0.2,0.6-0.2c0.6-1.1,1.8-3.7,1.8-3.8C439,367.6,434.2,365,433.8,365.1"/>
	<path fill="#000000" id="g6459_4_78_" d="M442.2,355.3c-0.2,0-1.2,2.4-1.4,2.7c-0.1,0.5-0.8,1.4-0.1,1.5c0.9,0.5,3.5,1.8,4.4,2.4
		c0.5,0.3,0.5,0.2,0.6-0.2c0.6-1.1,1.8-3.7,1.8-3.8C447.4,357.7,442.7,355.1,442.2,355.3"/>
	<path fill="#000000" id="g6459_4_79_" d="M457.8,327c-0.2,0-1.2,2.4-1.4,2.7c-0.2,0.5-0.8,1.4-0.2,1.5c0.9,0.5,3.5,1.8,4.4,2.4
		c0.5,0.3,0.5,0.2,0.6-0.2c0.6-1.1,1.8-3.7,1.8-3.8C463,329.4,458.3,326.8,457.8,327"/>
	<path fill="#000000" id="g6459_4_80_" d="M272.7,365.9c-0.2,0-1.2,2.4-1.4,2.7c-0.2,0.5-0.8,1.4-0.2,1.5c0.9,0.5,3.5,1.8,4.4,2.4
		c0.5,0.3,0.5,0.2,0.6-0.2c0.6-1.1,1.8-3.7,1.8-3.8C277.8,368.3,273.1,365.7,272.7,365.9"/>
	<path fill="#000000" id="g6459_4_81_" d="M276.9,348.2c-0.2,0-1.2,2.4-1.4,2.7c-0.2,0.5-0.8,1.4-0.2,1.5c0.9,0.5,3.5,1.8,4.4,2.4
		c0.5,0.3,0.5,0.2,0.6-0.2c0.6-1.1,1.8-3.7,1.8-3.8C282.1,350.6,277.4,348,276.9,348.2"/>
	<path fill="#000000" id="g6459_4_82_" d="M281.1,397.7c-0.2,0-1.2,2.4-1.4,2.7c-0.2,0.5-0.8,1.4-0.2,1.5c0.9,0.5,3.5,1.8,4.4,2.4
		c0.5,0.3,0.5,0.2,0.6-0.2c0.6-1.1,1.8-3.7,1.8-3.8C286.3,400.1,281.6,397.5,281.1,397.7"/>
	<path fill="#000000" id="g6459_4_83_" d="M343.4,399c-0.2,0-1.2,2.4-1.4,2.7c-0.2,0.5-0.8,1.4-0.2,1.5c0.9,0.5,3.5,1.8,4.4,2.4
		c0.5,0.3,0.5,0.1,0.6-0.2c0.6-1.1,1.8-3.7,1.8-3.8C348.5,401.5,343.8,398.9,343.4,399"/>
	<path fill="#000000" id="g6459_4_84_" d="M328.5,394.8c-0.2,0-1.2,2.4-1.4,2.7c-0.2,0.5-0.8,1.4-0.2,1.5c0.9,0.5,3.5,1.8,4.4,2.4
		c0.5,0.3,0.5,0.2,0.6-0.2c0.6-1.1,1.8-3.7,1.8-3.8C333.7,397.2,329,394.6,328.5,394.8"/>
	<path fill="#000000" id="g6459_4_85_" d="M296.7,394c-0.2,0-1.2,2.4-1.4,2.7c-0.2,0.5-0.8,1.4-0.2,1.5c0.9,0.5,3.5,1.8,4.4,2.4
		c0.5,0.3,0.5,0.2,0.6-0.2c0.6-1.1,1.8-3.7,1.8-3.8C301.9,396.5,297.2,393.9,296.7,394"/>
	<path fill="#000000" id="g6459_4_86_" d="M323.7,369.5c-0.2,0-1.2,2.4-1.4,2.7c-0.2,0.5-0.8,1.4-0.2,1.5c0.9,0.5,3.5,1.8,4.4,2.4
		c0.5,0.3,0.5,0.2,0.6-0.2c0.6-1.1,1.8-3.7,1.8-3.8C328.9,371.9,324.2,369.3,323.7,369.5"/>
	<path fill="#000000" id="g6459_4_87_" d="M322.2,344.7c-0.2,0-1.2,2.4-1.4,2.7c-0.2,0.5-0.8,1.4-0.2,1.5c0.9,0.5,3.5,1.8,4.4,2.4
		c0.5,0.3,0.5,0.2,0.6-0.2c0.6-1.1,1.8-3.7,1.8-3.8C327.3,347.1,322.6,344.5,322.2,344.7"/>
	<path fill="#000000" id="g6459_4_88_" d="M320.8,333.3c-0.2,0-1.2,2.4-1.4,2.7c-0.2,0.5-0.8,1.4-0.2,1.5c0.9,0.5,3.5,1.8,4.4,2.4
		c0.5,0.3,0.5,0.2,0.6-0.2c0.6-1.1,1.8-3.7,1.8-3.8C326,335.8,321.2,333.2,320.8,333.3"/>
	<path fill="#000000" id="g6459_4_89_" d="M324.3,317.1c-0.2,0-1.2,2.4-1.4,2.7c-0.2,0.5-0.8,1.4-0.2,1.5c0.9,0.5,3.5,1.8,4.4,2.4
		c0.5,0.3,0.5,0.2,0.6-0.2c0.6-1.1,1.8-3.7,1.8-3.8C329.5,319.5,324.7,316.9,324.3,317.1"/>
	<path fill="#000000" id="g6459_4_90_" d="M326.4,305.8c-0.2,0-1.2,2.4-1.4,2.7c-0.2,0.5-0.8,1.4-0.2,1.5c0.9,0.5,3.5,1.8,4.4,2.4
		c0.5,0.3,0.5,0.2,0.6-0.2c0.6-1.1,1.8-3.7,1.8-3.8C331.6,308.2,326.9,305.6,326.4,305.8"/>
	<path fill="#000000" id="g6459_4_91_" d="M334.1,311.4c-0.2,0-1.2,2.4-1.4,2.7c-0.2,0.5-0.8,1.4-0.2,1.5c0.9,0.5,3.5,1.8,4.4,2.4
		c0.5,0.3,0.5,0.2,0.6-0.2c0.6-1.1,1.8-3.7,1.8-3.8C339.3,313.8,334.6,311.2,334.1,311.4"/>
	<path fill="#000000" id="g6459_4_92_" d="M335.6,300.1c-0.2,0-1.2,2.4-1.4,2.7c-0.2,0.5-0.8,1.4-0.2,1.5c0.9,0.5,3.5,1.8,4.4,2.4
		c0.5,0.3,0.5,0.2,0.6-0.2c0.6-1.1,1.8-3.7,1.8-3.8C340.8,302.6,336.1,300,335.6,300.1"/>
	<path fill="#000000" id="g6459_4_93_" d="M334.4,286c-0.2,0-1.2,2.4-1.4,2.7c-0.2,0.5-0.8,1.4-0.2,1.5c0.9,0.5,3.5,1.8,4.4,2.4
		c0.5,0.3,0.5,0.2,0.6-0.2c0.6-1.1,1.8-3.7,1.8-3.8C339.6,288.5,334.9,285.9,334.4,286"/>
	<path fill="#000000" id="g6459_4_94_" d="M347.6,278.9c-0.2,0-1.2,2.4-1.4,2.7c-0.2,0.5-0.8,1.4-0.2,1.5c0.9,0.5,3.5,1.8,4.4,2.4
		c0.5,0.3,0.5,0.2,0.6-0.2c0.6-1.1,1.8-3.7,1.8-3.8C352.8,281.4,348.1,278.8,347.6,278.9"/>
	<path fill="#000000" id="g6459_4_95_" d="M347.6,266.2c-0.2,0-1.2,2.4-1.4,2.7c-0.2,0.5-0.8,1.4-0.2,1.5c0.9,0.5,3.5,1.8,4.4,2.4
		c0.5,0.3,0.5,0.2,0.6-0.2c0.6-1.1,1.8-3.7,1.8-3.8C352.8,268.7,348.1,266.1,347.6,266.2"/>
	<path fill="#000000" id="g6459_4_96_" d="M371.7,312.9c-0.2,0-1.2,2.4-1.4,2.7c-0.2,0.5-0.8,1.4-0.2,1.5c0.9,0.5,3.5,1.8,4.4,2.4
		c0.5,0.3,0.5,0.2,0.6-0.2c0.6-1.1,1.8-3.7,1.8-3.8C376.8,315.3,372.1,312.7,371.7,312.9"/>
	<path fill="#000000" id="g6459_4_97_" d="M380.1,310.7c-0.2,0-1.2,2.4-1.4,2.7c-0.2,0.5-0.8,1.4-0.2,1.5c0.9,0.5,3.5,1.8,4.4,2.4
		c0.5,0.3,0.5,0.2,0.6-0.2c0.6-1.1,1.8-3.7,1.8-3.8C385.3,313.2,380.6,310.6,380.1,310.7"/>
	<path fill="#000000" id="g6459_4_98_" d="M361.7,302.3c-0.2,0-1.2,2.4-1.4,2.7c-0.2,0.5-0.8,1.4-0.2,1.5c0.9,0.5,3.5,1.8,4.4,2.4
		c0.5,0.3,0.5,0.2,0.6-0.2c0.6-1.1,1.8-3.7,1.8-3.8C366.9,304.7,362.1,302.1,361.7,302.3"/>
	<path fill="#000000" id="g6459_4_99_" d="M373,299.4c-0.2,0-1.2,2.4-1.4,2.7c-0.2,0.5-0.8,1.4-0.2,1.5c0.9,0.5,3.5,1.8,4.4,2.4
		c0.5,0.3,0.5,0.2,0.6-0.2c0.6-1.1,1.8-3.7,1.8-3.8C378.2,301.8,373.5,299.2,373,299.4"/>
	<path fill="#000000" id="g6459_4_100_" d="M377.3,289.5c-0.2,0-1.2,2.4-1.4,2.7c-0.2,0.5-0.8,1.4-0.2,1.5c0.9,0.5,3.5,1.8,4.4,2.4
		c0.5,0.3,0.5,0.2,0.6-0.2c0.6-1.1,1.8-3.7,1.8-3.8C382.5,292,377.7,289.4,377.3,289.5"/>
	<path fill="#000000" id="g6459_4_101_" d="M394.2,278.9c-0.2,0-1.2,2.4-1.4,2.7c-0.2,0.5-0.8,1.4-0.2,1.5c0.9,0.5,3.5,1.8,4.4,2.4
		c0.5,0.3,0.5,0.2,0.6-0.2c0.6-1.1,1.8-3.7,1.8-3.8C399.4,281.4,394.7,278.8,394.2,278.9"/>
	<path fill="#000000" id="g6459_4_102_" d="M399.8,269c-0.2,0-1.2,2.4-1.4,2.7c-0.2,0.5-0.8,1.4-0.2,1.5c0.9,0.5,3.5,1.8,4.4,2.4
		c0.5,0.3,0.5,0.2,0.6-0.2c0.6-1.1,1.8-3.7,1.8-3.8C405,271.4,400.3,268.8,399.8,269"/>
	<path fill="#000000" id="g6459_4_103_" d="M396.3,252c-0.2,0-1.2,2.4-1.4,2.7c-0.2,0.5-0.8,1.4-0.2,1.5c0.9,0.5,3.5,1.8,4.4,2.4
		c0.5,0.3,0.5,0.2,0.6-0.2c0.6-1.1,1.8-3.7,1.8-3.8C401.5,254.5,396.8,251.9,396.3,252"/>
	<path fill="#000000" id="g6459_4_104_" d="M422.5,260.5c-0.2,0-1.2,2.4-1.4,2.7c-0.2,0.5-0.8,1.4-0.2,1.5c0.9,0.5,3.5,1.8,4.4,2.4
		c0.5,0.3,0.5,0.2,0.6-0.2c0.6-1.1,1.8-3.7,1.8-3.8C427.7,262.9,423,260.3,422.5,260.5"/>
	<path fill="#000000" id="g6459_4_105_" d="M456.4,243.5c-0.2,0-1.2,2.4-1.4,2.7c-0.2,0.5-0.8,1.4-0.2,1.5c0.9,0.5,3.5,1.8,4.4,2.4
		c0.5,0.3,0.5,0.2,0.6-0.2c0.6-1.1,1.8-3.7,1.8-3.8C461.6,246,456.9,243.4,456.4,243.5"/>
	<path fill="#000000" id="g6459_4_106_" d="M471.2,248.5c-0.2,0-1.2,2.4-1.4,2.7c-0.2,0.5-0.8,1.4-0.2,1.5c0.9,0.5,3.5,1.8,4.4,2.4
		c0.5,0.3,0.5,0.2,0.6-0.2c0.6-1.1,1.8-3.7,1.8-3.8C476.4,251,471.6,248.4,471.2,248.5"/>
	<path fill="#000000" id="g6459_4_107_" d="M438.7,290.9c-0.2,0-1.2,2.4-1.4,2.7c-0.2,0.5-0.8,1.4-0.2,1.5c0.9,0.5,3.5,1.8,4.4,2.4
		c0.5,0.3,0.5,0.2,0.6-0.2c0.6-1.1,1.8-3.7,1.8-3.8C443.9,293.4,439.2,290.8,438.7,290.9"/>
	<path fill="#000000" id="g6459_4_108_" d="M402.7,395.5c-0.2,0-1.2,2.4-1.4,2.7c-0.2,0.5-0.8,1.4-0.2,1.5c0.9,0.5,3.5,1.8,4.4,2.4
		c0.5,0.3,0.5,0.2,0.6-0.2c0.6-1.1,1.8-3.7,1.8-3.8C407.9,398,403.2,395.4,402.7,395.5"/>
	<path fill="#000000" id="g6459_4_109_" d="M416.8,393.4c-0.2,0-1.2,2.4-1.4,2.7c-0.2,0.5-0.8,1.4-0.2,1.5c0.9,0.5,3.5,1.8,4.4,2.4
		c0.5,0.3,0.5,0.2,0.6-0.2c0.6-1.1,1.8-3.7,1.8-3.8C422,395.9,417.3,393.3,416.8,393.4"/>
	<path fill="#000000" id="g6459_4_110_" d="M406.2,385.6c-0.2,0-1.2,2.4-1.4,2.7c-0.2,0.5-0.8,1.4-0.2,1.5c0.9,0.5,3.5,1.8,4.4,2.4
		c0.5,0.3,0.5,0.2,0.6-0.2c0.6-1.1,1.8-3.7,1.8-3.8C411.4,388,406.7,385.4,406.2,385.6"/>
	<path fill="#000000" id="g6459_4_111_" d="M413.3,370.1c-0.2,0-1.2,2.4-1.4,2.7c-0.2,0.5-0.8,1.4-0.2,1.5c0.9,0.5,3.5,1.8,4.4,2.4
		c0.5,0.3,0.5,0.2,0.6-0.2c0.6-1.1,1.8-3.7,1.8-3.8C418.5,372.5,413.8,369.9,413.3,370.1"/>
	<path fill="#000000" id="g6459_4_112_" d="M416.8,352.4c-0.2,0-1.2,2.4-1.4,2.7c-0.2,0.5-0.8,1.4-0.2,1.5c0.9,0.5,3.5,1.8,4.4,2.4
		c0.5,0.3,0.5,0.2,0.6-0.2c0.6-1.1,1.8-3.7,1.8-3.8C422,354.8,417.3,352.2,416.8,352.4"/>
	<path fill="#000000" id="g6459_4_113_" d="M416.8,342.5c-0.2,0-1.2,2.4-1.4,2.7c-0.2,0.5-0.8,1.4-0.2,1.5c0.9,0.5,3.5,1.8,4.4,2.4
		c0.5,0.3,0.5,0.2,0.6-0.2c0.6-1.1,1.8-3.7,1.8-3.8C422,345,417.3,342.4,416.8,342.5"/>
	<path fill="#000000" id="g6459_4_114_" d="M461.3,307.1c-0.2,0-1.2,2.4-1.4,2.7c-0.2,0.5-0.8,1.4-0.2,1.5c0.9,0.5,3.5,1.8,4.4,2.4
		c0.5,0.3,0.5,0.2,0.6-0.2c0.6-1.1,1.8-3.7,1.8-3.8C466.5,309.6,461.8,307,461.3,307.1"/>
	<path fill="#000000" id="g6459_4_115_" d="M474,336.8c-0.2,0-1.2,2.4-1.4,2.7c-0.2,0.5-0.8,1.4-0.2,1.5c0.9,0.5,3.5,1.8,4.4,2.4
		c0.5,0.3,0.5,0.2,0.6-0.2c0.6-1.1,1.8-3.7,1.8-3.8C479.2,339.3,474.5,336.7,474,336.8"/>
	<path fill="#000000" id="g6459_4_116_" d="M485.4,368.6c-0.2,0-1.2,2.4-1.4,2.7c-0.2,0.5-0.8,1.4-0.2,1.5c0.9,0.5,3.5,1.8,4.4,2.4
		c0.5,0.3,0.5,0.2,0.6-0.2c0.6-1.1,1.8-3.7,1.8-3.8C490.6,371.1,485.8,368.5,485.4,368.6"/>
	<path fill="#000000" id="g6459_4_117_" d="M465.6,396.2c-0.2,0-1.2,2.4-1.4,2.7c-0.2,0.5-0.8,1.4-0.2,1.5c0.9,0.5,3.5,1.8,4.4,2.4
		c0.5,0.3,0.5,0.2,0.6-0.2c0.6-1.1,1.8-3.7,1.8-3.8C470.8,398.6,466,396,465.6,396.2"/>
	<path fill="#000000" id="g6459_4_118_" d="M488.1,397.7c-0.2,0-1.2,2.4-1.4,2.7c-0.2,0.5-0.8,1.4-0.2,1.5c0.9,0.5,3.5,1.8,4.4,2.4
		c0.5,0.3,0.5,0.2,0.6-0.2c0.6-1.1,1.8-3.7,1.8-3.8C493.3,400.1,488.6,397.5,488.1,397.7"/>
	<path fill="#000000" id="g6459_4_119_" d="M481.1,381.3c-0.2,0-1.2,2.4-1.4,2.7c-0.2,0.5-0.8,1.4-0.2,1.5c0.9,0.5,3.5,1.8,4.4,2.4
		c0.5,0.3,0.5,0.2,0.6-0.2c0.6-1.1,1.8-3.7,1.8-3.8C486.3,383.8,481.6,381.2,481.1,381.3"/>
	<path fill="#000000" id="g6459_4_120_" d="M474.8,392.7c-0.2,0-1.2,2.4-1.4,2.7c-0.2,0.5-0.8,1.4-0.2,1.5c0.9,0.5,3.5,1.8,4.4,2.4
		c0.5,0.3,0.5,0.2,0.6-0.2c0.6-1.1,1.8-3.7,1.8-3.8C480,395.1,475.2,392.5,474.8,392.7"/>
	<path fill="#000000" id="g6459_4_121_" d="M489.6,386.3c-0.2,0-1.2,2.4-1.4,2.7c-0.2,0.5-0.8,1.4-0.2,1.5c0.9,0.5,3.5,1.8,4.4,2.4
		c0.5,0.3,0.5,0.2,0.6-0.2c0.6-1.1,1.8-3.7,1.8-3.8C494.8,388.8,490.1,386.2,489.6,386.3"/>
	<path fill="#000000" id="g6459_4_122_" d="M426,331.2c-0.2,0-1.2,2.4-1.4,2.7c-0.2,0.5-0.8,1.4-0.2,1.5c0.9,0.5,3.5,1.8,4.4,2.4
		c0.5,0.3,0.5,0.2,0.6-0.2c0.6-1.1,1.8-3.7,1.8-3.8C431.2,333.6,426.5,331,426,331.2"/>
	<path fill="#000000" id="g6459_4_123_" d="M448,288.1c-0.2,0-1.2,2.4-1.4,2.7c-0.2,0.5-0.8,1.4-0.2,1.5c0.9,0.5,3.5,1.8,4.4,2.4
		c0.5,0.3,0.5,0.2,0.6-0.2c0.6-1.1,1.8-3.7,1.8-3.8C453.2,290.5,448.4,287.9,448,288.1"/>
	<path fill="#000000" id="g6459_4_124_" d="M455,279.6c-0.2,0-1.2,2.4-1.4,2.7c-0.2,0.5-0.8,1.4-0.2,1.5c0.9,0.5,3.5,1.8,4.4,2.4
		c0.5,0.3,0.5,0.2,0.6-0.2c0.6-1.1,1.8-3.7,1.8-3.8C460.2,282,455.4,279.4,455,279.6"/>
	<path fill="#000000" id="g6459_4_125_" d="M474,273.2c-0.2,0-1.2,2.4-1.4,2.7c-0.2,0.5-0.8,1.4-0.2,1.5c0.9,0.5,3.5,1.8,4.4,2.4
		c0.5,0.3,0.5,0.2,0.6-0.2c0.6-1.1,1.8-3.7,1.8-3.8C479.2,275.7,474.5,273.1,474,273.2"/>
	<path fill="#000000" id="g6459_4_126_" d="M474,327c-0.2,0-1.2,2.4-1.4,2.7c-0.2,0.5-0.8,1.4-0.2,1.5c0.9,0.5,3.5,1.8,4.4,2.4
		c0.5,0.3,0.5,0.2,0.6-0.2c0.6-1.1,1.8-3.7,1.8-3.8C479.2,329.4,474.5,326.8,474,327"/>
	<path fill="#000000" id="g6459_4_127_" d="M464.2,322c-0.2,0-1.2,2.4-1.4,2.7c-0.2,0.5-0.8,1.4-0.2,1.5c0.9,0.5,3.5,1.8,4.4,2.4
		c0.5,0.3,0.5,0.2,0.6-0.2c0.6-1.1,1.8-3.7,1.8-3.8C469.4,324.4,464.6,321.8,464.2,322"/>
	<path fill="#000000" id="g6459_4_128_" d="M474,310c-0.2,0-1.2,2.4-1.4,2.7c-0.2,0.5-0.8,1.4-0.2,1.5c0.9,0.5,3.5,1.8,4.4,2.4
		c0.5,0.3,0.5,0.2,0.6-0.2c0.6-1.1,1.8-3.7,1.8-3.8C479.2,312.4,474.5,309.8,474,310"/>
	<path fill="#000000" id="g6459_4_129_" d="M535.5,242.9c-0.2,0-1.2,2.4-1.4,2.7c-0.2,0.5-0.8,1.4-0.2,1.5c0.9,0.5,3.5,1.8,4.4,2.4
		c0.5,0.3,0.5,0.2,0.6-0.2c0.6-1.1,1.8-3.7,1.8-3.8C540.7,245.3,536,242.8,535.5,242.9"/>
	<path fill="#000000" id="g6459_4_130_" d="M577.2,242.7c-0.2,0-1.2,2.4-1.4,2.7c-0.2,0.5-0.8,1.4-0.2,1.5c0.9,0.5,3.5,1.8,4.4,2.4
		c0.5,0.3,0.5,0.2,0.6-0.2c0.6-1.1,1.8-3.7,1.8-3.8C582.4,245.1,577.6,242.5,577.2,242.7"/>
	<path fill="#000000" id="g6459_4_131_" d="M577.9,257c-0.2,0-1.2,2.4-1.4,2.7c-0.1,0.5-0.8,1.4-0.1,1.5c0.9,0.5,3.5,1.8,4.4,2.4
		c0.5,0.3,0.5,0.2,0.6-0.2c0.6-1.1,1.8-3.7,1.8-3.8C583.1,259.4,578.4,256.8,577.9,257"/>
	<path fill="#000000" id="g6459_4_132_" d="M604.7,242.9c-0.2,0-1.2,2.4-1.4,2.7c-0.2,0.5-0.8,1.4-0.2,1.5c0.9,0.5,3.5,1.8,4.4,2.4
		c0.5,0.3,0.5,0.2,0.6-0.2c0.6-1.1,1.8-3.7,1.8-3.8C609.9,245.3,605.2,242.8,604.7,242.9"/>
	<path fill="#000000" id="g6459_4_133_" d="M588,248.9c-0.2,0-1.2,2.4-1.4,2.7c-0.2,0.5-0.8,1.4-0.2,1.5c0.9,0.5,3.5,1.8,4.4,2.4
		c0.5,0.3,0.5,0.2,0.6-0.2c0.6-1.1,1.8-3.7,1.8-3.8C593.2,251.3,588.4,248.8,588,248.9"/>
	<path fill="#000000" id="g6459_4_134_" d="M562.3,276.8c-0.2,0-1.2,2.4-1.4,2.7c-0.2,0.5-0.8,1.4-0.2,1.5c0.9,0.5,3.5,1.8,4.4,2.4
		c0.5,0.3,0.5,0.2,0.6-0.2c0.6-1.1,1.8-3.7,1.8-3.8C567.5,279.3,562.8,276.7,562.3,276.8"/>
	<path fill="#000000" id="g6459_4_135_" d="M517.8,295.2c-0.2,0-1.2,2.4-1.4,2.7c-0.2,0.5-0.8,1.4-0.2,1.5c0.9,0.5,3.5,1.8,4.4,2.4
		c0.5,0.3,0.5,0.2,0.6-0.2c0.6-1.1,1.8-3.7,1.8-3.8C523,297.6,518.3,295,517.8,295.2"/>
	<path fill="#000000" id="g6459_4_136_" d="M504.5,315c-0.2,0-1.2,2.4-1.4,2.7c-0.2,0.5-0.8,1.4-0.2,1.5c0.9,0.5,3.5,1.8,4.4,2.4
		c0.5,0.3,0.5,0.2,0.6-0.2c0.6-1.1,1.8-3.7,1.8-3.8C509.7,317.4,504.9,314.8,504.5,315"/>
	<path fill="#000000" id="g6459_4_137_" d="M518.6,281.7c-0.2,0-1.2,2.4-1.4,2.7c-0.2,0.5-0.8,1.4-0.2,1.5c0.9,0.5,3.5,1.8,4.4,2.4
		c0.5,0.3,0.5,0.2,0.6-0.2c0.6-1.1,1.8-3.7,1.8-3.8C523.7,284.1,519,281.5,518.6,281.7"/>
	<path fill="#000000" id="g6459_4_138_" d="M520.7,247.8c-0.2,0-1.2,2.4-1.4,2.7c-0.2,0.5-0.8,1.4-0.2,1.5c0.9,0.5,3.5,1.8,4.4,2.4
		c0.5,0.3,0.5,0.2,0.6-0.2c0.6-1.1,1.8-3.7,1.8-3.8C525.9,250.2,521.1,247.6,520.7,247.8"/>
	<path fill="#000000" id="g6459_4_139_" d="M522.1,268.3c-0.2,0-1.2,2.4-1.4,2.7c-0.2,0.5-0.8,1.4-0.2,1.5c0.9,0.5,3.5,1.8,4.4,2.4
		c0.5,0.3,0.5,0.2,0.6-0.2c0.6-1.1,1.8-3.7,1.8-3.8C527.2,270.8,522.5,268.2,522.1,268.3"/>
	<path fill="#000000" id="g6459_4_140_" d="M506.6,303.6c-0.2,0-1.2,2.4-1.4,2.7c-0.2,0.5-0.8,1.4-0.2,1.5c0.9,0.5,3.5,1.8,4.4,2.4
		c0.5,0.3,0.5,0.2,0.6-0.2c0.6-1.1,1.8-3.7,1.8-3.8C511.8,306.1,507,303.5,506.6,303.6"/>
	<path fill="#000000" id="g6459_4_141_" d="M515.1,312.1c-0.2,0-1.2,2.4-1.4,2.7c-0.2,0.5-0.8,1.4-0.2,1.5c0.9,0.5,3.5,1.8,4.4,2.4
		c0.5,0.3,0.5,0.1,0.6-0.2c0.6-1.1,1.8-3.7,1.8-3.8C520.3,314.6,515.5,312,515.1,312.1"/>
	<path fill="#000000" id="g6459_4_142_" d="M518.6,363c-0.2,0-1.2,2.4-1.4,2.7c-0.2,0.5-0.8,1.4-0.2,1.5c0.9,0.5,3.5,1.8,4.4,2.4
		c0.5,0.3,0.5,0.2,0.6-0.2c0.6-1.1,1.8-3.7,1.8-3.8C523.7,365.4,519,362.8,518.6,363"/>
	<path fill="#000000" id="g6459_4_143_" d="M510.8,351c-0.2,0-1.2,2.4-1.4,2.7c-0.2,0.5-0.8,1.4-0.2,1.5c0.9,0.5,3.5,1.8,4.4,2.4
		c0.5,0.3,0.5,0.2,0.6-0.2c0.6-1.1,1.8-3.7,1.8-3.8C516,353.5,511.3,350.9,510.8,351"/>
	<path fill="#000000" id="g6459_4_144_" d="M529.2,353.1c-0.2,0-1.2,2.4-1.4,2.7c-0.1,0.5-0.8,1.4-0.1,1.5c0.9,0.5,3.5,1.8,4.4,2.4
		c0.5,0.3,0.5,0.2,0.6-0.2c0.6-1.1,1.8-3.7,1.8-3.8C534.3,355.6,529.6,353,529.2,353.1"/>
	<path fill="#000000" id="g6459_4_145_" d="M537.6,336.2c-0.2,0-1.2,2.4-1.4,2.7c-0.2,0.5-0.8,1.4-0.2,1.5c0.9,0.5,3.5,1.8,4.4,2.4
		c0.5,0.3,0.5,0.2,0.6-0.2c0.6-1.1,1.8-3.7,1.8-3.8C542.8,338.6,538.1,336,537.6,336.2"/>
	<path fill="#000000" id="g6459_4_146_" d="M556.7,343.9c-0.2,0-1.2,2.4-1.4,2.7c-0.2,0.5-0.8,1.4-0.2,1.5c0.9,0.5,3.5,1.8,4.4,2.4
		c0.5,0.3,0.5,0.2,0.6-0.2c0.6-1.1,1.8-3.7,1.8-3.8C561.9,346.4,557.2,343.8,556.7,343.9"/>
	<path fill="#000000" id="g6459_4_147_" d="M579.3,300.8c-0.2,0-1.2,2.4-1.4,2.7c-0.2,0.5-0.8,1.4-0.2,1.5c0.9,0.5,3.5,1.8,4.4,2.4
		c0.5,0.3,0.5,0.2,0.6-0.2c0.6-1.1,1.8-3.7,1.8-3.8C584.5,303.2,579.8,300.6,579.3,300.8"/>
	<path fill="#000000" id="g6459_4_148_" d="M591.4,285.9c-0.2,0-1.2,2.4-1.4,2.7c-0.2,0.5-0.8,1.4-0.2,1.5c0.9,0.5,3.5,1.8,4.4,2.4
		c0.5,0.3,0.5,0.2,0.6-0.2c0.6-1.1,1.8-3.7,1.8-3.8C596.6,288.4,591.8,285.8,591.4,285.9"/>
	<path fill="#000000" id="g6459_4_149_" d="M589.3,326.2c-0.2,0-1.2,2.4-1.4,2.7c-0.2,0.5-0.8,1.4-0.2,1.5c0.9,0.5,3.5,1.8,4.4,2.4
		c0.5,0.3,0.5,0.2,0.6-0.2c0.6-1.1,1.8-3.7,1.8-3.8C594.4,328.7,589.7,326.1,589.3,326.2"/>
	<path fill="#000000" id="g6459_4_150_" d="M609,324.1c-0.2,0-1.2,2.4-1.4,2.7c-0.2,0.5-0.8,1.4-0.2,1.5c0.9,0.5,3.5,1.8,4.4,2.4
		c0.5,0.3,0.5,0.2,0.6-0.2c0.6-1.1,1.8-3.7,1.8-3.8C614.2,326.5,609.4,323.9,609,324.1"/>
	<path fill="#000000" id="g6459_4_151_" d="M605.5,310.7c-0.2,0-1.2,2.4-1.4,2.7c-0.2,0.5-0.8,1.4-0.2,1.5c0.9,0.5,3.5,1.8,4.4,2.4
		c0.5,0.3,0.5,0.2,0.6-0.2c0.6-1.1,1.8-3.7,1.8-3.8C610.7,313.2,605.9,310.6,605.5,310.7"/>
	<path fill="#000000" id="g6459_4_152_" d="M618.9,334.1c-0.2,0-1.2,2.4-1.4,2.7c-0.2,0.5-0.8,1.4-0.2,1.5c0.9,0.5,3.5,1.8,4.4,2.4
		c0.5,0.3,0.5,0.2,0.6-0.2c0.6-1.1,1.8-3.7,1.8-3.8C624.1,336.5,619.4,333.9,618.9,334.1"/>
	<path fill="#000000" id="g6459_4_153_" d="M617.4,325.6c-0.2,0-1.2,2.4-1.4,2.7c-0.2,0.5-0.8,1.4-0.2,1.5c0.9,0.5,3.5,1.8,4.4,2.4
		c0.5,0.3,0.5,0.2,0.6-0.2c0.6-1.1,1.8-3.7,1.8-3.8C622.6,328,617.9,325.4,617.4,325.6"/>
	<path fill="#000000" id="g6459_4_154_" d="M632.3,317.1c-0.2,0-1.2,2.4-1.4,2.7c-0.2,0.5-0.8,1.4-0.2,1.5c0.9,0.5,3.5,1.8,4.4,2.4
		c0.5,0.3,0.5,0.2,0.6-0.2c0.6-1.1,1.8-3.7,1.8-3.8C637.5,319.5,632.7,316.9,632.3,317.1"/>
	<path fill="#000000" id="g6459_4_155_" d="M633,288.8c-0.2,0-1.2,2.4-1.4,2.7c-0.2,0.5-0.8,1.4-0.2,1.5c0.9,0.5,3.5,1.8,4.4,2.4
		c0.5,0.3,0.5,0.2,0.6-0.2c0.6-1.1,1.8-3.7,1.8-3.8C638.2,291.2,633.5,288.6,633,288.8"/>
	<path fill="#000000" id="g6459_4_156_" d="M643.6,257c-0.2,0-1.2,2.4-1.4,2.7c-0.2,0.5-0.8,1.4-0.2,1.5c0.9,0.5,3.5,1.8,4.4,2.4
		c0.5,0.3,0.5,0.2,0.6-0.2c0.6-1.1,1.8-3.7,1.8-3.8C648.8,259.4,644.1,256.8,643.6,257"/>
	<path fill="#000000" id="g6459_4_157_" d="M658.5,255.6c-0.2,0-1.2,2.4-1.4,2.7c-0.2,0.5-0.8,1.4-0.2,1.5c0.9,0.5,3.5,1.8,4.4,2.4
		c0.5,0.3,0.5,0.2,0.6-0.2c0.6-1.1,1.8-3.7,1.8-3.8C663.7,258.1,658.9,255.5,658.5,255.6"/>
	<path fill="#000000" id="g6459_4_158_" d="M666.2,305c-0.2,0-1.2,2.4-1.4,2.7c-0.2,0.5-0.8,1.4-0.2,1.5c0.9,0.5,3.5,1.8,4.4,2.4
		c0.5,0.3,0.5,0.2,0.6-0.2c0.6-1.1,1.8-3.7,1.8-3.8C671.4,307.5,666.7,304.9,666.2,305"/>
	<path fill="#000000" id="g6459_4_159_" d="M676.8,293.8c-0.2,0-1.2,2.4-1.4,2.7c-0.2,0.5-0.8,1.4-0.2,1.5c0.9,0.5,3.5,1.8,4.4,2.4
		c0.5,0.3,0.5,0.2,0.6-0.2c0.6-1.1,1.8-3.7,1.8-3.8C682,296.2,677.3,293.6,676.8,293.8"/>
	<path fill="#000000" id="g6459_4_160_" d="M676.2,310c-0.2,0-1.2,2.4-1.4,2.7c-0.2,0.5-0.8,1.4-0.2,1.5c0.9,0.5,3.5,1.8,4.4,2.4
		c0.5,0.3,0.5,0.2,0.6-0.2c0.6-1.1,1.8-3.7,1.8-3.8C681.4,312.4,676.6,309.8,676.2,310"/>
	<path fill="#000000" id="g6459_4_161_" d="M684.6,338.3c-0.2,0-1.2,2.4-1.4,2.7c-0.2,0.5-0.8,1.4-0.2,1.5c0.9,0.5,3.5,1.8,4.4,2.4
		c0.5,0.3,0.5,0.2,0.6-0.2c0.6-1.1,1.8-3.7,1.8-3.8C689.8,340.7,685.1,338.1,684.6,338.3"/>
	<path fill="#000000" id="g6459_4_162_" d="M665.6,363.7c-0.2,0-1.2,2.4-1.4,2.7c-0.2,0.5-0.8,1.4-0.2,1.5c0.9,0.5,3.5,1.8,4.4,2.4
		c0.5,0.3,0.5,0.2,0.6-0.2c0.6-1.1,1.8-3.7,1.8-3.8C670.8,366.2,666,363.6,665.6,363.7"/>
	<path fill="#000000" id="g6459_4_163_" d="M638.6,378.6c-0.2,0-1.2,2.4-1.4,2.7c-0.2,0.5-0.8,1.4-0.2,1.5c0.9,0.5,3.5,1.8,4.4,2.4
		c0.5,0.3,0.5,0.2,0.6-0.2c0.6-1.1,1.8-3.7,1.8-3.8C643.8,381,639.1,378.4,638.6,378.6"/>
	<path fill="#000000" id="g6459_4_164_" d="M645,348.9c-0.2,0-1.2,2.4-1.4,2.7c-0.2,0.5-0.8,1.4-0.2,1.5c0.9,0.5,3.5,1.8,4.4,2.4
		c0.5,0.3,0.5,0.2,0.6-0.2c0.6-1.1,1.8-3.7,1.8-3.8C650.2,351.3,645.5,348.7,645,348.9"/>
	<path fill="#000000" id="g6459_4_165_" d="M650.9,398.2c-0.2,0-1.2,2.4-1.4,2.7c-0.2,0.5-0.8,1.4-0.2,1.5c0.9,0.5,3.5,1.8,4.4,2.4
		c0.5,0.3,0.5,0.2,0.6-0.2c0.6-1.1,1.8-3.7,1.8-3.8C656.1,400.7,651.4,398.1,650.9,398.2"/>
	<path fill="#000000" id="g6459_4_167_" d="M547.2,398.5c-0.2,0-1.2,2.4-1.4,2.7c-0.2,0.5-0.8,1.4-0.2,1.5c0.9,0.5,3.5,1.8,4.4,2.4
		c0.5,0.3,0.5,0.2,0.6-0.2c0.6-1.1,1.8-3.7,1.8-3.8C552.4,400.9,547.6,398.3,547.2,398.5"/>
	<path fill="#000000" id="g6459_4_168_" d="M585.5,380.8c-0.2,0-1.2,2.4-1.4,2.7c-0.2,0.5-0.8,1.4-0.2,1.5c0.9,0.5,3.5,1.8,4.4,2.4
		c0.5,0.3,0.5,0.2,0.6-0.2c0.6-1.1,1.8-3.7,1.8-3.8C590.7,383.2,586,380.6,585.5,380.8"/>
	<path fill="#000000" id="g6459_4_169_" d="M566.5,393.5c-0.2,0-1.2,2.4-1.4,2.7c-0.2,0.5-0.8,1.4-0.2,1.5c0.9,0.5,3.5,1.8,4.4,2.4
		c0.5,0.3,0.5,0.2,0.6-0.2c0.6-1.1,1.8-3.7,1.8-3.8C571.7,396,566.9,393.4,566.5,393.5"/>
	<path fill="#000000" id="g6459_4_170_" d="M602.3,343.7c-0.2,0-1.2,2.4-1.4,2.7c-0.2,0.5-0.8,1.4-0.2,1.5c0.9,0.5,3.5,1.8,4.4,2.4
		c0.5,0.3,0.5,0.2,0.6-0.2c0.6-1.1,1.8-3.7,1.8-3.8C607.5,346.1,602.8,343.5,602.3,343.7"/>
	<path fill="#000000" id="g6459_4_171_" d="M608.8,385.1c-0.2,0-1.2,2.4-1.4,2.7c-0.2,0.5-0.8,1.4-0.2,1.5c0.9,0.5,3.5,1.8,4.4,2.4
		c0.5,0.3,0.5,0.2,0.6-0.2c0.6-1.1,1.8-3.7,1.8-3.8C614,387.6,609.3,385,608.8,385.1"/>
	<path fill="#000000" id="g6459_4_172_" d="M614,375.5c-0.2,0-1.2,2.4-1.4,2.7c-0.2,0.5-0.8,1.4-0.2,1.5c0.9,0.5,3.5,1.8,4.4,2.4
		c0.5,0.3,0.5,0.2,0.6-0.2c0.6-1.1,1.8-3.7,1.8-3.8C619.1,377.9,614.4,375.3,614,375.5"/>
	<path fill="#000000" id="g6459_4_173_" d="M604.4,392.5c-0.2,0-1.2,2.4-1.4,2.7c-0.2,0.5-0.8,1.4-0.2,1.5c0.9,0.5,3.5,1.8,4.4,2.4
		c0.5,0.3,0.5,0.2,0.6-0.2c0.6-1.1,1.8-3.7,1.8-3.8C609.6,394.9,604.9,392.3,604.4,392.5"/>
	<path fill="#000000" id="g6459_4_174_" d="M589.6,395.6c-0.2,0-1.2,2.4-1.4,2.7c-0.2,0.5-0.8,1.4-0.2,1.5c0.9,0.5,3.5,1.8,4.4,2.4
		c0.5,0.3,0.5,0.2,0.6-0.2c0.6-1.1,1.8-3.7,1.8-3.8C594.8,398.1,590,395.5,589.6,395.6"/>
	<path fill="#000000" id="g6388_4_1_" d="M441.6,380.5c4.4-2,13.4-11.1,18.5-17.1c3.4-3.8,9.5-13.3,3.7-17.2c-5.2-3.4-13.4,2.7-16.5,6.7
		c-1.7,2.6-0.6,2.7,0.9,1.7c2.1-1.4,5.5-3.8,8.1-2.3c2.7,1.5,2.9,5.8,1.7,8.9c-2,4.1-12.5,14-16.5,17.7
		C440.1,380.2,440.4,381,441.6,380.5"/>
	<path fill="#000000" id="g6386_4" d="M207.5,253.8c-2.9,4-6,16.3-7.5,24.1c-0.9,5-1.5,16.2,5.5,16.6c6.3,0.3,10.2-9,10.8-14
		c0.3-3.1-0.6-2.6-1.5-0.9c-1.1,2.3-2.9,6-5.8,6c-3.2,0-5.5-3.5-6-6.7c-0.5-4.6,3.8-18.5,5.3-23.5
		C209,253.2,208.2,252.7,207.5,253.8"/>
	<path fill="#000000" id="g6386_4_1_" d="M200.1,323.9c-2.9,4-6,16.3-7.5,24.1c-0.9,5-1.5,16.2,5.5,16.6c6.3,0.3,10.2-9,10.8-14
		c0.3-3.1-0.6-2.6-1.5-0.9c-1.1,2.3-2.9,6-5.8,6c-3.2,0-5.5-3.5-6-6.7c-0.5-4.6,3.8-18.5,5.3-23.5
		C201.6,323.2,200.8,322.8,200.1,323.9"/>
	<path fill="#000000" id="g6386_4_2_" d="M263.8,325.6c-2.9,4-6,16.3-7.5,24.1c-0.9,5-1.5,16.2,5.5,16.6c6.3,0.3,10.2-9,10.8-14
		c0.3-3.1-0.6-2.6-1.5-0.9c-1.1,2.3-2.9,6-5.8,6c-3.2,0-5.5-3.5-6-6.7c-0.5-4.6,3.8-18.5,5.3-23.5
		C265.3,324.9,264.6,324.5,263.8,325.6"/>
	<path fill="#000000" id="g6386_4_3_" d="M316.6,362c-2.9,4-6,16.3-7.5,24.1c-0.9,5-1.5,16.2,5.5,16.6c6.3,0.3,10.2-9,10.8-14
		c0.3-3.1-0.6-2.6-1.5-0.9c-1.1,2.3-2.9,6-5.8,6c-3.2,0-5.5-3.5-6-6.7c-0.5-4.6,3.8-18.5,5.3-23.5
		C318.2,361.4,317.4,360.9,316.6,362"/>
	<path fill="#000000" id="g6394_4" d="M383.5,111.7c0-2,1.8-8.9,3.7-8.9c2.9,0,7.9,7.6,8.9,6.6c1.4-1.5,2.3-6.4,2.3-7.9c0.2-2.4-3.4-6.1-7.8-8.4
		c-7.6-4-12.5,17.4-11.3,22.6c0,4.9,15.6,33,11,37.5c-10.7-27-24.9-21.7-22.7-9.8c0.5,2.3,9.2,10.5,11.3,6c5.8,2,8.5,9.2,9.8,13.9
		c-3.1,4-4.7,9.5-4.7,14.5c0,2.4,2,1.1,2.6,0c4-6.6,5.6-7.6,12.2-4.6c-13.7,5.3-16.5,8.9-16.5,23.7c0,17.7,29.6,28.8,29.6,67.5
		c0,12.1-3.7,20.6-7.8,31.7c-0.9,2,0.6,2.3,1.5,0.6c6.3-11.6,8.9-20.3,8.9-33.7c0-38.9-28.7-65.8-28.7-67.5c0-9.8,18.3-13,25.2-15
		c1.7-0.5,1.7-6.6,2.1-10.4c0.2-2,0-1.8-1.7-2.1c-6.1-1.5-12.7-7.2-17.4-7.8C399.7,137.8,383.5,118.5,383.5,111.7"/>
	<path fill="#000000" id="g6383_4" d="M236,209.7c0.6,0.8,13,17.1,9.8,35c-0.5,2.4,0,5.2,1.7,1.5c3.4-7.3,3.1-22.7,0-30.2c-1.5-4.1-6.3-13.4-9-13.6
		C237.3,202.2,236.1,207.7,236,209.7"/>
	<path fill="#000000" id="g6378_4" d="M257.9,289.4c0,7.3,10.2,6.9,12.5,1.2c3.2,1.8,6.4,1.4,8.9-1.7c3.8-5,4-14.7,2.4-14.7c-3.7,0-0.2,9.3-6,9.2
		c-4.4-0.2-0.9-7.9-3.5-7.6c-2.7,0.5-0.6,11.4-6.9,11.1c-2.9,0-3.7-1.5-3.2-4.3c0.3-1.7,0.9-4.1-0.2-4.1
		C259.7,278.5,257.9,287.4,257.9,289.4"/>
	<path fill="#000000" id="g6368_4" d="M597.2,304.6c0.5-1.7,0.6-4-1.2-1.2c-11,15.1-38.5,13.1-38.5,33.3c0,2,0.9,0.6,1.7-0.3
		C570.6,321.1,591.4,324.9,597.2,304.6"/>
	<path fill="#000000" id="g6386_4_4_" d="M634.2,366.7c-2.9,4-6,16.3-7.5,24.1c-0.9,5-1.5,16.2,5.5,16.6c6.3,0.3,10.2-9,10.8-14
		c0.3-3.1-0.6-2.6-1.5-0.9c-1.1,2.3-2.9,6-5.8,6c-3.2,0-5.5-3.5-6-6.7c-0.5-4.6,3.8-18.5,5.3-23.5
		C635.7,366.1,634.9,365.6,634.2,366.7"/>
	<path fill="#000000" id="g6383_4_1_" d="M495.8,252.8c0.6,0.8,13,17.1,9.8,35c-0.5,2.4,0,5.2,1.7,1.5c3.4-7.3,3.1-22.7,0-30.2
		c-1.5-4.1-6.3-13.4-9-13.6C497.2,245.3,496,250.8,495.8,252.8"/>
	<path fill="#000000" id="g6376_4" d="M272.2,256.5c6.1-4.9,16.6-14.2,23.2-24.6c2.3,1.2,4.7,3.1,6.1,4.3c1.5,1.1,2.9-6.9,3.1-8.2
		c0.3-1.8-1.4-2.6-4.6-5c3.7-8.7,1.7-20.3-3.1-22.7c-7.8-4.3-17.7,12.2-17.1,18.8c0.3,4.7,6.1,7,11.8,11.1
		c-15.6,19.4-43.5,37.4-44.3,39.2C245.4,273.8,266.7,261,272.2,256.5 M286.6,213.5c0.2-7.9,11.9-5.3,9.2,7
		C293.6,218.7,286.4,215,286.6,213.5"/>
	<path fill="#000000" id="g6380_4" d="M385.4,246.4c1.7-2.9-0.5-4-1.1-2.9c-4.9,7.9-16.3,25.5-15.6,33.4c1.4,13.6,22.7,8.9,20.8-12.1
		c-0.3-2.9-3.2-6.1-9-9.3C382.2,252.5,383.6,249.5,385.4,246.4 M385.1,272.5c-5.6,6.6-16.2,3.4-8.7-8.5
		C378.3,264.4,384.7,269.3,385.1,272.5"/>
	<path fill="#000000" id="g6368_4_1_" d="M473.7,288.7c0.5-1.7,0.6-4-1.2-1.2c-11,15.1-38.5,13.1-38.5,33.3c0,2,0.9,0.6,1.7-0.3
		C447.2,305.2,467.9,309,473.7,288.7"/>
	<path fill="#000000" id="g6399_4" d="M685.9,329c1.2-2.1,2.3-5.5,2.3-7.9c-0.2-1.1-0.5-1.8-1.2-0.9c-5.8,6.6-11.9,12.4-21.4,12.5
		c-1.5,0-8.2-0.5-8.2-3.8c0-2.4,4.9-3.7,6.6-3.7c4.6,0,5.8,1.2,6.4,2c0.8,0,1.7-2.4,1.7-3.1c0-2.9-4.4-3.7-6-3.7
		c-6.1,0-11.8,3.5-11.8,9.9c0,3.1,4.3,7,12.2,6.3c-9,8.4-15.9,17.6-17.4,30.2c-1.5,13.4,4.1,30.5,20.1,29.6
		c13.9-0.9,29-14.3,29.3-31.3c0.5-18.2-22.7-14.2-35-16.8c-2.6-0.6-0.8,1.4,0.2,2c9.9,6.7,30.8,0.3,31.9,15.7
		c0.8,11.1-15.6,21.5-25.3,21.5c-10.4,0.2-18.8-7-18.5-17.9C652.5,348.9,673.4,341.4,685.9,329"/>
	<path fill="#000000" id="g6374_4" d="M677,219.8c0.9-3.5,1.4-8.1-2.6-2.6c-22,30.2-101.5,36.9-101.5,77.2c0,4.1,1.8,1.4,3.2-0.5
		C599.2,263.4,665.2,260.4,677,219.8"/>
</g>
<path fill="#000000" d="M273.602,481.306c-0.578-0.576-1.301-1.03-2.174-1.362c-0.873-0.331-1.885-0.497-3.039-0.497
	c-0.663,0-1.463,0.079-2.4,0.238v-6.077h-1.535v17.711c0.706,0.202,1.402,0.354,2.087,0.454s1.301,0.151,1.849,0.151
	c1.153,0,2.166-0.162,3.039-0.486s1.596-0.764,2.174-1.319c0.576-0.555,1.006-1.211,1.287-1.968s0.42-1.561,0.42-2.411
	s-0.139-1.657-0.42-2.422C274.608,482.554,274.178,481.883,273.602,481.306z M272.391,489.167c-0.852,0.829-2.17,1.243-3.958,1.243
	c-0.39,0-0.805-0.032-1.244-0.097c-0.439-0.065-0.84-0.134-1.2-0.206v-8.845c0.447-0.115,0.887-0.194,1.319-0.237
	c0.433-0.044,0.808-0.065,1.125-0.065c0.894,0,1.668,0.112,2.325,0.335c0.656,0.224,1.199,0.545,1.633,0.963
	c0.432,0.418,0.752,0.919,0.961,1.503s0.314,1.243,0.314,1.979C273.667,487.195,273.241,488.338,272.391,489.167z M247.392,479.446
	c-0.62,0-1.297,0.079-2.033,0.238c-0.735,0.158-1.485,0.433-2.249,0.821l-0.065,1.73c0.548-0.303,0.973-0.52,1.276-0.649
	s0.624-0.237,0.962-0.324c0.338-0.086,0.677-0.158,1.016-0.216s0.667-0.087,0.984-0.087c1.139,0,1.982,0.249,2.53,0.746
	s0.822,1.33,0.822,2.498v0.13c-0.332-0.044-0.732-0.087-1.2-0.13c-0.469-0.043-0.876-0.065-1.222-0.065
	c-1.831,0-3.302,0.311-4.412,0.931c-1.11,0.619-1.665,1.644-1.665,3.07c0,0.707,0.155,1.305,0.465,1.795
	c0.31,0.49,0.713,0.88,1.211,1.168s1.067,0.497,1.708,0.627c0.641,0.13,1.308,0.194,2,0.194c0.807,0,1.6-0.072,2.378-0.216
	c0.779-0.145,1.536-0.368,2.271-0.671v-7.028c0-1.585-0.397-2.742-1.189-3.471C250.189,479.811,248.992,479.446,247.392,479.446z
	 M250.636,489.892c-0.375,0.144-0.858,0.267-1.449,0.367c-0.591,0.102-1.183,0.151-1.773,0.151c-0.505,0-0.984-0.035-1.438-0.108
	c-0.454-0.071-0.84-0.197-1.157-0.378c-0.317-0.18-0.57-0.414-0.757-0.703c-0.188-0.288-0.281-0.663-0.281-1.124
	c0-0.52,0.111-0.934,0.335-1.244c0.224-0.31,0.533-0.551,0.93-0.724c0.396-0.174,0.85-0.296,1.362-0.368
	c0.511-0.072,1.041-0.108,1.589-0.108c0.476,0,0.984,0.029,1.524,0.087c0.541,0.058,0.912,0.108,1.114,0.151V489.892z
	 M258.032,479.868c-0.649,0.122-1.276,0.263-1.881,0.422v11.418h1.535v-10.186c0.202-0.072,0.563-0.147,1.082-0.228
	c0.519-0.079,1.002-0.118,1.449-0.118h1.989v-1.492H260C259.336,479.685,258.681,479.746,258.032,479.868z M-77.92,487.667
	l241.145,0.656l0.663-0.433l-0.632-0.564L-77.92,487.667z M164.994,487.825l1.95,1.95l1.95-1.95l-1.95-1.95L164.994,487.825z
	 M169.559,487.825l3.057,3.057l3.057-3.057l-3.057-3.057L169.559,487.825z M212.359,489.286l-3.395-9.602h-1.514l-3.396,9.602
	l-2.984-9.602h-1.73l3.979,12.023h1.428l3.46-9.645l3.46,9.645h1.427l3.979-12.023h-1.73L212.359,489.286z M238.418,489.589
	c-0.317,0-0.591,0.115-0.822,0.346c-0.231,0.23-0.346,0.505-0.346,0.822c0,0.316,0.115,0.591,0.346,0.821
	c0.23,0.23,0.504,0.346,0.822,0.346c0.317,0,0.591-0.115,0.822-0.346c0.23-0.23,0.346-0.505,0.346-0.821
	c0-0.317-0.116-0.592-0.346-0.822C239.009,489.704,238.735,489.589,238.418,489.589z M193.243,489.286l-3.395-9.602h-1.514
	l-3.396,9.602l-2.984-9.602h-1.73l3.979,12.023h1.428l3.46-9.645l3.46,9.645h1.427l3.979-12.023h-1.73L193.243,489.286z
	 M231.476,489.286l-3.395-9.602h-1.514l-3.396,9.602l-2.984-9.602h-1.73l3.979,12.023h1.428l3.46-9.645l3.46,9.645h1.427
	l3.979-12.023h-1.73L231.476,489.286z M382.732,480.474c-0.426-0.396-0.938-0.667-1.535-0.812c-0.598-0.144-1.271-0.216-2.021-0.216
	c-0.664,0-1.393,0.09-2.184,0.271c-0.793,0.181-1.471,0.4-2.033,0.659c-0.346-0.331-0.818-0.569-1.416-0.714
	c-0.6-0.144-1.273-0.216-2.023-0.216c-0.635,0-1.268,0.058-1.902,0.173l-2.465,0.454v11.635h1.535v-10.38
	c0.447-0.102,0.883-0.188,1.309-0.26c0.424-0.072,0.896-0.108,1.416-0.108c0.605,0,1.125,0.058,1.557,0.173
	c0.434,0.116,0.789,0.321,1.07,0.616c0.281,0.296,0.494,0.711,0.639,1.244s0.217,1.24,0.217,2.119v6.596h1.535v-7.201
	c0-0.663-0.055-1.243-0.162-1.741c-0.109-0.497-0.213-0.861-0.314-1.092c0.086-0.043,0.281-0.119,0.584-0.228
	c0.303-0.107,0.602-0.197,0.898-0.27c0.295-0.072,0.586-0.126,0.875-0.162s0.547-0.055,0.779-0.055c0.59,0,1.102,0.058,1.535,0.173
	c0.432,0.116,0.781,0.317,1.049,0.605c0.266,0.289,0.471,0.703,0.615,1.244c0.145,0.54,0.217,1.251,0.217,2.13v6.596h1.535v-7.201
	c0-0.995-0.111-1.816-0.336-2.466C383.482,481.393,383.158,480.87,382.732,480.474z M280.1,474.581
	c-0.785,0.648-1.18,1.729-1.18,3.243v1.86h-2.551v1.492h2.551v10.531h1.537v-10.531h4.973v-1.492h-4.973v-1.471
	c0-0.635,0.045-1.149,0.141-1.546c0.094-0.396,0.24-0.707,0.443-0.931c0.201-0.223,0.475-0.385,0.82-0.486
	c0.346-0.101,0.779-0.151,1.299-0.151h2.422v-1.492h-2.271C281.956,473.607,280.885,473.932,280.1,474.581z M398.273,487.825
	l3.057,3.057l3.057-3.057l-3.057-3.057L398.273,487.825z M343.322,482.322c0.389-0.418,0.854-0.749,1.395-0.994
	s1.135-0.368,1.783-0.368c0.736,0,1.373,0.076,1.914,0.228s1.121,0.414,1.74,0.789l0.715-1.405c-0.707-0.39-1.393-0.674-2.055-0.854
	c-0.664-0.181-1.436-0.271-2.314-0.271c-0.85,0-1.639,0.155-2.367,0.465c-0.729,0.311-1.367,0.746-1.914,1.309
	c-0.549,0.563-0.98,1.222-1.297,1.979c-0.317,0.757-0.476,1.59-0.476,2.498s0.158,1.74,0.476,2.497
	c0.316,0.757,0.748,1.413,1.297,1.969c0.547,0.555,1.186,0.987,1.914,1.297c0.729,0.311,1.518,0.465,2.367,0.465
	c0.879,0,1.65-0.09,2.314-0.27c0.662-0.181,1.348-0.466,2.055-0.854l-0.715-1.406c-0.619,0.375-1.199,0.639-1.74,0.79
	s-1.178,0.227-1.914,0.227c-0.648,0-1.242-0.119-1.783-0.356c-0.541-0.238-1.006-0.565-1.395-0.984
	c-0.391-0.418-0.693-0.915-0.908-1.492c-0.217-0.576-0.324-1.203-0.324-1.881s0.107-1.305,0.324-1.882
	C342.628,483.238,342.931,482.741,343.322,482.322z M404.387,487.825l1.949,1.95l1.951-1.95l-1.951-1.95L404.387,487.825z
	 M410.701,487.326l-0.664,0.433l0.633,0.564l241.176-0.341L410.701,487.326z M362.611,481.295c-0.549-0.569-1.193-1.02-1.936-1.352
	c-0.742-0.331-1.547-0.497-2.412-0.497c-0.863,0-1.668,0.166-2.41,0.497c-0.742,0.332-1.389,0.782-1.936,1.352
	c-0.549,0.57-0.977,1.229-1.287,1.979c-0.311,0.749-0.465,1.557-0.465,2.422s0.154,1.672,0.465,2.422s0.738,1.409,1.287,1.979
	c0.547,0.569,1.193,1.017,1.936,1.341s1.547,0.486,2.41,0.486c0.865,0,1.67-0.162,2.412-0.486s1.387-0.771,1.936-1.341
	c0.547-0.569,0.977-1.229,1.287-1.979c0.309-0.75,0.465-1.557,0.465-2.422s-0.156-1.673-0.465-2.422
	C363.587,482.524,363.158,481.865,362.611,481.295z M362.394,487.523c-0.217,0.569-0.52,1.067-0.908,1.492
	c-0.389,0.426-0.857,0.765-1.406,1.017c-0.547,0.252-1.152,0.378-1.816,0.378c-0.662,0-1.268-0.126-1.816-0.378
	c-0.547-0.252-1.016-0.591-1.404-1.017c-0.391-0.425-0.693-0.923-0.908-1.492c-0.217-0.569-0.324-1.179-0.324-1.827
	c0-0.649,0.107-1.262,0.324-1.839c0.215-0.576,0.518-1.077,0.908-1.503c0.389-0.425,0.857-0.764,1.404-1.016
	c0.549-0.252,1.154-0.379,1.816-0.379c0.664,0,1.27,0.127,1.816,0.379c0.549,0.252,1.018,0.591,1.406,1.016
	c0.389,0.426,0.691,0.927,0.908,1.503c0.217,0.577,0.324,1.189,0.324,1.839C362.718,486.345,362.611,486.954,362.394,487.523z
	 M296.221,481.295c-0.547-0.569-1.191-1.02-1.936-1.352c-0.742-0.331-1.545-0.497-2.41-0.497s-1.67,0.166-2.412,0.497
	c-0.742,0.332-1.387,0.782-1.936,1.352c-0.547,0.57-0.977,1.229-1.285,1.979c-0.311,0.749-0.465,1.557-0.465,2.422
	s0.154,1.672,0.465,2.422c0.309,0.75,0.738,1.409,1.285,1.979c0.549,0.569,1.193,1.017,1.936,1.341s1.547,0.486,2.412,0.486
	s1.668-0.162,2.41-0.486c0.744-0.324,1.389-0.771,1.936-1.341c0.549-0.569,0.977-1.229,1.287-1.979s0.465-1.557,0.465-2.422
	s-0.154-1.673-0.465-2.422C297.198,482.524,296.77,481.865,296.221,481.295z M296.006,487.523c-0.217,0.569-0.52,1.067-0.908,1.492
	c-0.391,0.426-0.859,0.765-1.406,1.017c-0.549,0.252-1.154,0.378-1.816,0.378c-0.664,0-1.27-0.126-1.816-0.378
	c-0.549-0.252-1.018-0.591-1.406-1.017c-0.389-0.425-0.691-0.923-0.908-1.492s-0.324-1.179-0.324-1.827
	c0-0.649,0.107-1.262,0.324-1.839c0.217-0.576,0.52-1.077,0.908-1.503c0.389-0.425,0.857-0.764,1.406-1.016
	c0.547-0.252,1.152-0.379,1.816-0.379c0.662,0,1.268,0.127,1.816,0.379c0.547,0.252,1.016,0.591,1.406,1.016
	c0.389,0.426,0.691,0.927,0.908,1.503c0.215,0.577,0.324,1.189,0.324,1.839C296.331,486.345,296.221,486.954,296.006,487.523z
	 M309.381,480.463c-0.455-0.39-0.996-0.656-1.623-0.801c-0.627-0.144-1.309-0.216-2.043-0.216c-0.707,0-1.465,0.047-2.271,0.141
	s-1.701,0.234-2.682,0.422v11.699h1.535v-10.402c1.184-0.23,2.293-0.346,3.33-0.346c0.592,0,1.111,0.062,1.559,0.184
	c0.445,0.123,0.818,0.332,1.113,0.628c0.295,0.295,0.525,0.713,0.691,1.254s0.25,1.251,0.25,2.13v6.553h1.535v-7.201
	c0-0.995-0.119-1.82-0.357-2.477C310.18,481.375,309.834,480.852,309.381,480.463z M318.516,490.054
	c-0.346-0.108-0.619-0.277-0.82-0.509c-0.203-0.23-0.35-0.547-0.443-0.951c-0.096-0.403-0.141-0.922-0.141-1.557v-5.86h4.973v-1.492
	h-4.973v-4.347h-1.537v4.347h-2.551v1.492h2.551v6.466c0,0.764,0.109,1.405,0.326,1.925c0.215,0.519,0.525,0.937,0.93,1.254
	c0.402,0.317,0.867,0.544,1.395,0.682c0.525,0.137,1.105,0.205,1.74,0.205h2.271v-1.492h-2.422
	C319.295,490.216,318.862,490.162,318.516,490.054z M337.784,489.589c-0.316,0-0.59,0.115-0.82,0.346s-0.346,0.505-0.346,0.822
	c0,0.316,0.115,0.591,0.346,0.821s0.504,0.346,0.82,0.346c0.318,0,0.592-0.115,0.822-0.346s0.346-0.505,0.346-0.821
	c0-0.317-0.115-0.592-0.346-0.822S338.102,489.589,337.784,489.589z M333.178,486.106c-0.346-0.303-0.785-0.565-1.318-0.789
	c-0.533-0.223-1.182-0.422-1.947-0.595l-0.799-0.173c-1.053-0.216-1.781-0.461-2.184-0.735c-0.404-0.273-0.607-0.678-0.607-1.211
	c0-0.504,0.238-0.904,0.715-1.2c0.475-0.295,1.174-0.443,2.098-0.443c0.793,0,1.477,0.076,2.055,0.228
	c0.576,0.151,1.217,0.421,1.924,0.811l0.691-1.405c-1.412-0.765-2.969-1.146-4.67-1.146c-0.635,0-1.223,0.076-1.764,0.228
	c-0.539,0.151-1.008,0.364-1.404,0.638s-0.711,0.605-0.941,0.994c-0.23,0.39-0.346,0.815-0.346,1.276
	c0,0.462,0.072,0.88,0.217,1.254c0.143,0.375,0.381,0.707,0.713,0.995s0.758,0.537,1.275,0.746c0.52,0.209,1.146,0.4,1.883,0.573
	l0.908,0.194c1.008,0.217,1.729,0.49,2.162,0.822c0.432,0.331,0.648,0.771,0.648,1.318c0,0.39-0.086,0.707-0.26,0.952
	c-0.172,0.245-0.414,0.436-0.725,0.573c-0.311,0.137-0.678,0.237-1.102,0.303c-0.426,0.064-0.877,0.097-1.352,0.097
	c-0.592,0-1.223-0.09-1.893-0.271c-0.67-0.18-1.352-0.479-2.045-0.897l-0.734,1.471c0.779,0.433,1.539,0.742,2.281,0.93
	s1.539,0.281,2.391,0.281c0.748,0,1.434-0.072,2.053-0.216c0.621-0.145,1.158-0.36,1.611-0.648c0.455-0.289,0.805-0.649,1.049-1.082
	c0.246-0.433,0.369-0.93,0.369-1.492c0-0.476-0.072-0.915-0.217-1.318C333.77,486.763,333.526,486.41,333.178,486.106z"/>
</svg>

