<?xml version="1.0" encoding="utf-8"?>
<!-- Generator: Adobe Illustrator 21.0.0, SVG Export Plug-In . SVG Version: 6.00 Build 0)  -->
<svg version="1.1" id="Layer_1" xmlns="http://www.w3.org/2000/svg" xmlns:xlink="http://www.w3.org/1999/xlink" x="0px" y="0px"
	 viewBox="0 0 800 500" style="enable-background:new 0 0 800 500;" xml:space="preserve">
<g>
	<path fill="#000000" d="M192.5,178.7C192.8,178.5,192.6,178.6,192.5,178.7L192.5,178.7z"/>
	<path fill="#000000" d="M192.5,178.6C192.6,178.5,192.7,178.5,192.5,178.6L192.5,178.6z"/>
	<path fill="#000000" d="M389.8,171.6c-1.3,2-3.4,3.3-5,3.7c-1.7-0.2-3.9-1.4-5.3-3.3c-1.7-2.2-1.9-5.5,0.6-6.7c2.5-1.3,4.3,0.6,4.3,0.6
		s1.6-2,4.3-1C391.3,166,391.4,169.3,389.8,171.6z"/>
	<path fill="#000000" d="M289,176.7c-0.1,2.2-1.2,4.3-2.3,5.4c-1.5,0.6-3.8,0.7-5.9-0.1c-2.4-1-4.1-3.6-2.7-5.8c1.4-2.2,3.8-1.5,3.8-1.5
		s0.4-2.4,3-2.8C287.5,171.4,289.1,174.1,289,176.7z"/>
	<path fill="#000000" d="M285.8,99.2c-1,1-3,1.7-4.9,1.7c-2.3,0-4.5-1.7-4-3.9c0.5-2.3,2.7-2.4,2.7-2.4s-0.4-2.1,1.6-3.3c2-1.1,4.2,0.6,4.9,2.7
		C286.7,95.9,286.5,97.9,285.8,99.2z"/>
	<path fill="#000000" d="M281.7,69.8c-1,1-3,1.7-4.9,1.7c-2.3,0-4.5-1.7-4-3.9c0.5-2.3,2.7-2.5,2.7-2.5s-0.4-2.1,1.6-3.3c2-1.1,4.2,0.6,4.9,2.7
		C282.6,66.5,282.4,68.5,281.7,69.8z"/>
	<path fill="#000000" d="M219.8,208.7c0,1.8-0.8,3.5-1.8,4.4c-1.2,0.5-3.1,0.6-4.8,0c-2-0.7-3.5-2.8-2.3-4.6c1.1-1.8,3.1-1.3,3.1-1.3s0.3-2,2.4-2.4
		S219.8,206.6,219.8,208.7z"/>
	<path fill="#000000" d="M211.5,155c0,1.7-0.6,3.4-1.5,4.4c-1.1,0.6-2.9,0.8-4.6,0.3c-1.9-0.6-3.5-2.5-2.5-4.3c1-1.8,2.9-1.5,2.9-1.5
		s0.1-1.9,2.2-2.4C209.9,151,211.4,153,211.5,155z"/>
	<path fill="#000000" d="M318.5,133.8c0,1.7-0.6,3.4-1.5,4.4c-1.1,0.6-2.9,0.8-4.6,0.3c-1.9-0.6-3.5-2.5-2.5-4.3c1-1.8,2.9-1.4,2.9-1.4
		s0.1-1.9,2.2-2.4C317,129.8,318.5,131.8,318.5,133.8z"/>
	<path fill="#000000" d="M358.1,83c-0.8-0.7-1.7-1.3-2.6-1.9c-0.2-0.1-0.4-0.2-0.6-0.3c-0.4-0.3-0.8-0.6-1.2-0.8c-0.6-0.4-1.2-0.7-1.8-1.1
		c-9.6-5.2-21.6-7.5-31.6-3.6c-7,2.7-13.9,8.3-16.8,15.4c-2.3,5.8-1.8,12.4,2.3,17.3c3.9,4.5,10,6.4,15.7,4.2c2.9-1.1,5.8-3,7.2-5.9
		c1.6-3.4,1.2-6.9-0.6-10.1c-1.7-3,2.4-5.4,4.1-2.2c3.6,6.3,1.5,14.7-4.5,19.2c-5.1,3.8-12.3,5.1-18.2,2.4
		c-5.4-2.5-9.4-7.4-10.8-13.2c-1.6-6.7,0.5-13.8,4.8-19.1c4.8-6,11.3-10.6,18.7-12.6c0.3-0.1,0.7-0.2,1-0.3
		c-0.9-0.1-1.8-0.1-2.7-0.1c-16.7-0.5-34.7,5.5-46.3,17.8c-10.8,11.5-16,33.4-1.5,44.2c5.4,4,12.5,6,19.2,4.4
		c7.2-1.7,11.6-7.8,12.8-14.5c0.8-4.6,6.1-2.7,5,1.8c-2,8.4-8.7,15.6-17.3,17.3c-14.5,2.8-30-8-32.2-22.8c-0.5-3.8-0.5-7.4,0.1-10.9
		c-2.3,2-4.9,3.7-8,4.3c-3.3,0.7-6.7,0.4-9.6-1.3c-6.1-3.7-7.3-14-0.6-17.9c3.7-2.1,8.9-2.6,12.2,0.4c2.5,2.2,4.1,6.2,1.8,9.1
		c-1.7,2.2-5-0.4-3.4-2.6c0,0,0.1-0.1,0.1-0.1c0-0.1,0.1-0.1,0.1-0.2c-0.1,0.2,0-0.6,0.1-0.4c0-0.1,0-0.3,0-0.4
		c0-0.1-0.1-0.3-0.1-0.3c-0.1-0.2-0.2-0.5-0.3-0.7c0,0,0-0.1,0-0.1c0,0-0.1-0.1-0.1-0.2c-0.1-0.1-0.2-0.3-0.3-0.4
		c0,0-0.2-0.2-0.2-0.3c-0.1-0.1-0.2-0.2-0.3-0.3c-0.1-0.1-0.3-0.2-0.5-0.3c0,0-0.3-0.2-0.3-0.2c-0.3-0.2-0.6-0.3-1-0.4
		c0,0-0.5-0.1-0.6-0.1c-0.2,0-0.5-0.1-0.7-0.1c-0.3,0-0.8,0-1.2,0.1c-0.9,0.1-1.9,0.4-2.7,0.8c0,0-0.4,0.3-0.5,0.3
		c-0.1,0.1-0.3,0.2-0.5,0.3c-0.1,0.1-0.2,0.2-0.3,0.3c0,0-0.2,0.2-0.2,0.3c-0.2,0.2-0.4,0.5-0.6,0.8c0,0.1-0.2,0.3-0.2,0.3
		c-0.1,0.2-0.2,0.3-0.2,0.5c-0.1,0.2-0.2,0.4-0.2,0.6c0,0.1-0.1,0.3-0.1,0.3c-0.1,0.4-0.1,0.7-0.2,1.1c0,0,0,0.4,0,0.4
		c0,0.1,0,0.3,0,0.4c0,0.4,0.1,0.7,0.1,1.1c0,0.1,0,0.2,0.1,0.3c0,0,0,0,0,0.1c0,0.2,0.1,0.4,0.2,0.5c0.1,0.3,0.3,0.7,0.4,1
		c0,0.1,0,0.1,0.1,0.1c0,0,0,0,0,0c0.1,0.2,0.2,0.3,0.3,0.5c0.2,0.3,0.5,0.6,0.7,0.9c0,0,0,0,0,0c0.1,0.1,0.2,0.2,0.3,0.3
		c0.1,0.1,0.3,0.3,0.5,0.4c0.2,0.1,0.3,0.2,0.5,0.3c0.1,0,0.1,0.1,0.2,0.1c0,0,0,0,0.1,0c0.4,0.2,0.8,0.4,1.1,0.5
		c0.4,0.2,0.4,0.2,1,0.3c1.9,0.3,4,0.1,5.9-0.6c4-1.6,7-5.1,9.3-8.7c0.5-0.8,2-3.3,3.6-5.8c0.4-0.7,0.9-1.4,1.4-2.1
		c0.8-1.1,1.5-2.1,2.1-2.8c0,0,0,0,0,0c4-4.9,9-9,14.5-12.2c14.6-8.4,32.2-11.3,48.7-7.8c7.9,1.7,16.8,3.8,23.7,8.3
		c1.5,0.9,3,1.9,4.4,2.9C364.8,82.4,362.1,86.4,358.1,83z"/>
	<path fill="#000000" d="M309.5,291.2c-0.5,2.3,1.7,3.9,4,3.9c1.9,0,3.9-0.7,4.9-1.7c0.6-1.3,0.8-3.3,0.3-5.2c-0.7-2.2-2.9-3.9-4.9-2.7
		c-2,1.1-1.6,3.3-1.6,3.3S310,289,309.5,291.2z"/>
	<path fill="#000000" d="M283.1,334.1c-0.5,2.3,1.7,3.9,4,3.9c1.9,0,3.9-0.7,4.9-1.7c0.6-1.3,0.8-3.3,0.3-5.2c-0.7-2.2-2.9-3.9-4.9-2.7
		c-2,1.1-1.6,3.3-1.6,3.3S283.6,331.8,283.1,334.1z"/>
	<path fill="#000000" d="M347.6,324.6c-2,0.5-2.1,2.4-2.1,2.4s-1.9-0.4-2.9,1.4c-1,1.8,0.5,3.7,2.5,4.3c1.7,0.5,3.5,0.3,4.6-0.3
		c0.8-0.9,1.5-2.6,1.5-4.4C351,326.1,349.6,324.1,347.6,324.6z"/>
	<path fill="#000000" d="M225.1,372.9C225.3,372.8,225.2,372.8,225.1,372.9L225.1,372.9z"/>
	<path fill="#000000" d="M225.1,372.9C225.2,372.8,225.2,372.7,225.1,372.9L225.1,372.9z"/>
	<path fill="#000000" d="M447.1,299.5c0-2.3-2.6-3.4-4.8-2.9c-1.9,0.4-3.6,1.6-4.4,2.8c-0.3,1.4,0,3.4,0.9,5.1c1.2,2,3.7,3.1,5.4,1.5
		c1.7-1.6,0.8-3.5,0.8-3.5S447.1,301.9,447.1,299.5z"/>
	<path fill="#000000" d="M447.1,234.6c0-2.3-2.6-3.4-4.8-2.9c-1.9,0.4-3.6,1.6-4.4,2.8c-0.3,1.4,0,3.4,0.9,5.1c1.2,2,3.7,3.1,5.4,1.5
		c1.7-1.6,0.8-3.5,0.8-3.5S447.1,236.9,447.1,234.6z"/>
	<path fill="#000000" d="M402.3,276c1.8-0.9,1.5-2.8,1.5-2.8s1.9-0.1,2.5-2.1c0.5-2-1.4-3.5-3.4-3.6c-1.7-0.1-3.4,0.5-4.4,1.4
		c-0.6,1.1-0.8,2.9-0.4,4.6C398.6,275.3,400.5,276.9,402.3,276z"/>
	<path fill="#000000" d="M469.8,291.2c1.1-2.5-2.7-4.2-3.9-1.7c-1.6,3.4,0.9,6.9,3.9,8.5c4,2.1,8.9,0.4,12-2.5c5.6-5.3,2.1-15.1-4.8-17.2
		c-3.2-1-6.7-0.5-9.7,0.9c-2.8,1.4-5,3.6-6.8,6.1c-0.3-3.6-1.1-7.1-2.5-10.7c-5.6-13.9-23.1-20.9-36.6-14.7
		c-8,3.6-12.9,12.2-12.8,20.8c0,4.6,5.6,5.2,5.3,0.5c-0.4-6.8,2.5-13.8,9.1-17.1c6.1-3.1,13.5-2.8,19.7-0.2
		c16.7,7.2,16.7,29.7,8.8,43.4c-8.4,14.7-24.6,24.7-40.9,28.1c-0.9,0.2-1.8,0.3-2.7,0.5c0.3-0.2,0.6-0.3,1-0.5
		c6.8-3.6,12.1-9.6,15.3-16.6c2.9-6.2,3.3-13.5,0.2-19.7c-2.7-5.3-7.7-9.1-13.6-10.3c-6.4-1.3-13,1.7-17.1,6.5
		c-4.8,5.7-4.8,14.3,0.1,19.7c2.5,2.7,5.9-0.5,3.5-3.1c-2.5-2.7-3.7-6-2.9-9.7c0.6-3.1,3-5.7,5.6-7.4c5-3.4,11.4-3,16.2,0.4
		c5.2,3.7,7.2,10.1,6.3,16.3c-1.2,7.6-6.6,14.6-12.8,18.9c-8.8,6.2-21,6.7-31.6,3.9c-0.7-0.2-1.3-0.4-2-0.6
		c-0.5-0.1-0.9-0.3-1.4-0.5c-0.2-0.1-0.4-0.1-0.6-0.1c-1-0.4-2-0.7-3-1.2c-4.6-2.4-6.4,2.2-1.8,4.3c1.6,0.7,3.2,1.3,4.9,1.8
		c7.7,2.8,16.8,2.8,24.9,2.6c16.9-0.4,33.4-7.3,45.6-18.9c4.6-4.4,8.5-9.5,11.2-15.2c0,0,0,0,0,0c0.4-0.8,0.9-2,1.4-3.2
		c0.3-0.8,0.6-1.6,0.9-2.4c1-2.8,1.8-5.6,2.1-6.5c1.4-4,3.5-8.1,7-10.6c1.7-1.2,3.6-1.9,5.6-2c0.6,0,0.5,0,1,0
		c0.4,0,0.8,0.1,1.2,0.2c0,0,0.1,0,0.1,0c0,0,0.1,0,0.2,0.1c0.2,0.1,0.4,0.1,0.6,0.2c0.2,0.1,0.4,0.2,0.5,0.3
		c0.1,0.1,0.2,0.1,0.3,0.2c0,0,0,0,0,0c0.3,0.2,0.6,0.5,0.9,0.7c0.1,0.1,0.3,0.3,0.4,0.4c0,0,0,0,0,0c0,0,0,0.1,0.1,0.1
		c0.2,0.3,0.5,0.6,0.7,0.9c0.1,0.2,0.2,0.3,0.3,0.5c0,0,0,0,0,0.1c0,0.1,0.1,0.2,0.1,0.3c0.2,0.3,0.3,0.7,0.4,1
		c0,0.1,0.1,0.3,0.1,0.4c0-0.1,0.1,0.3,0.1,0.3c0.1,0.4,0.1,0.7,0.1,1.1c0,0,0,0.2,0,0.3c0,0.2,0,0.4-0.1,0.6c0,0.2-0.1,0.4-0.1,0.5
		c0,0-0.1,0.2-0.1,0.3c-0.1,0.3-0.2,0.6-0.4,0.9c0,0-0.2,0.3-0.2,0.3c-0.1,0.1-0.1,0.2-0.2,0.3c-0.1,0.2-0.2,0.3-0.4,0.4
		c0,0-0.4,0.4-0.4,0.4c-0.7,0.6-1.6,1.1-2.5,1.4c-0.4,0.2-0.8,0.3-1.2,0.3c-0.2,0-0.5,0.1-0.7,0.1c-0.1,0-0.7,0-0.6,0
		c-0.3,0-0.7-0.1-1-0.2c0.1,0-0.3-0.1-0.4-0.1c-0.2-0.1-0.4-0.1-0.5-0.2c-0.1-0.1-0.3-0.1-0.4-0.2c0.2,0.1-0.2-0.1-0.3-0.2
		c-0.1-0.1-0.3-0.2-0.4-0.3c-0.1-0.1-0.1-0.1-0.2-0.1c0,0,0,0-0.1-0.1c-0.2-0.2-0.3-0.4-0.4-0.6c0,0-0.1-0.2-0.1-0.3
		c-0.1-0.1-0.1-0.3-0.1-0.4c0.1,0.2,0-0.6,0-0.4c0-0.1,0-0.1,0-0.2C469.8,291.3,469.8,291.3,469.8,291.2z"/>
	<path fill="#000000" d="M377.1,93.2c-1.5,0.4-3.2,0.2-4.2-0.4c-0.8-0.9-1.3-2.5-1.2-4c0.1-1.8,1.5-3.6,3.3-3.1c1.8,0.5,1.9,2.3,1.9,2.3
		s1.7-0.3,2.6,1.4S378.9,92.7,377.1,93.2z"/>
	<path fill="#000000" d="M388.2,62.7c-1.5,0.4-3.2,0.2-4.2-0.4c-0.8-0.9-1.3-2.4-1.2-4c0.1-1.8,1.5-3.6,3.3-3.1c1.8,0.5,1.9,2.2,1.9,2.2
		s1.7-0.3,2.6,1.4C391.4,60.5,390,62.2,388.2,62.7z"/>
	<path fill="#000000" d="M270.3,217.6c-1.6,0.9-2.9-0.3-2.9-0.3s-1,1.4-2.8,0.8c-1.8-0.6-2-2.8-1.1-4.4c0.8-1.4,2.1-2.4,3.2-2.7
		c1.1,0.1,2.7,0.8,3.7,2C271.7,214.5,271.9,216.7,270.3,217.6z"/>
	<path fill="#000000" d="M375.6,310.1c1.8,0.6,2.8-0.8,2.8-0.8s1.3,1.2,2.9,0.2c1.6-0.9,1.4-3.2,0.1-4.5c-1.1-1.2-2.6-1.9-3.7-2
		c-1.1,0.3-2.4,1.3-3.2,2.7C373.6,307.3,373.8,309.5,375.6,310.1z"/>
	<path fill="#000000" d="M282.1,250.1c-1.6,0.9-2.9-0.2-2.9-0.2s-1,1.4-2.8,0.8c-1.8-0.6-2-2.8-1.1-4.4c0.8-1.4,2.1-2.4,3.2-2.7
		c1.2,0.1,2.7,0.8,3.7,2C283.5,246.9,283.8,249.1,282.1,250.1z"/>
	<path fill="#000000" d="M620.9,252.3C620.9,252.3,620.9,252.2,620.9,252.3C620.9,252.3,620.9,252.3,620.9,252.3z"/>
	<rect x="522.1" y="316.4" transform="matrix(0.7071 -0.7071 0.7071 0.7071 -74.7066 471.3185)" width="18.9" height="18.9"/>
	<rect x="495.6" y="322.9" transform="matrix(0.7071 -0.7071 0.7071 0.7071 -87.1063 454.4464)" width="18.9" height="18.9"/>
	<rect x="406.5" y="234.9" transform="matrix(0.7071 -0.7071 0.7071 0.7071 -50.9452 365.6505)" width="18.9" height="18.9"/>
	<rect x="379.9" y="241.4" transform="matrix(0.7071 -0.7071 0.7071 0.7071 -63.3442 348.781)" width="18.9" height="18.9"/>
	<path fill="#000000" d="M617.5,156.4c-1.3-6.2-2.4-13-6.1-18.3c-5-7.2-13.2-6.4-20.4-3.1c-13,5.9-25,13.4-39,22.8c-4.3,2.9-8.7,5.9-12.9,8.8
		c-5.7,3.9-11.5,7.9-17.4,11.8c-1.8-15.3-5.6-30.3-11.3-44.3c-8.3-20.5-21-39.8-36.6-55.6c-15.7-15.9-34.8-28.9-55.2-37.5
		c-20.4-8.7-43.1-13.4-65.6-13.5c-0.4,0-0.8,0-1.2,0c-22.1,0-44.5,4.4-64.8,12.6c-20.8,8.4-40.2,21.2-56.3,37
		c-16.1,15.8-29.2,35.2-38,55.9c-8.8,20.7-13.5,43.7-13.7,66.4c-0.2,22.8,4.2,45.9,12.7,66.8c8.5,21,21.5,40.7,37.5,57
		c16,16.3,35.6,29.6,56.6,38.4c20.9,8.9,44.2,13.7,67.2,13.9c0.4,0,0.8,0,1.3,0c22.6,0,45.5-4.5,66.3-12.9c20.3-8.2,40-21.3,57-37.8
		c6.4-6,10.2-10.6,12.6-15.6c3.7-7.5,6.6-14,8.9-20.7l0.2-0.7c0-0.1,0-0.1,0.1-0.2l-0.9-0.3l0.9,0.3c0,0,0-0.1,0.1-0.2
		c0.4,1.2,0.7,2.5,1,3.8c0.2,0.7,0.3,1.4,0.5,2.1c0.4,1.5,0.7,2.9,1.1,4.4c0.8,3.1,1.5,6.3,2.5,9.4c1.4,4.1,3.2,6.5,5.6,7.1
		c2.1,0.6,5.1,0.1,7.4-5.4c1.6-3.9,2.4-8.1,3.1-12.2c4.3,7.6,10.5,10.7,17.8,9.1c6.5-1.4,10.5-7,13.7-12.4c2.1-3.6,4.1-7.3,6-10.8
		c1.2-2.1,2.3-4.3,3.5-6.4c12.1-21.8,25.9-44.1,49-55.6c0.9-0.4,1.3-2.8,1.4-3.8c0.6-2.6,1-5.2,1.5-7.6c0.1-0.3,0.2-1.5,0.5-3.6
		c0.3-2,0.6-4.5,0.8-5.9l0.5-2.7l-1.4,0.2c-10.5,1.6-20.6,6.8-30.9,15.9c-2.9,2.6-5.9,5.5-9.4,9.3c0.3-7.6,0.2-15-0.4-22.2
		c-0.3-3.3-0.7-6.7-1.2-9.9c0-0.1-0.1-0.3-0.1-0.7c-0.8-6-0.9-6.4-1.9-6.5c-0.8-0.1-1.3,0.3-5,5.1c-0.3,0.4-0.5,0.7-0.6,0.8l-16,19
		c-0.8,0.9-1.6,1.9-2.4,2.8c-4.2,4.8-8.5,9.8-10.6,15.9c-1.3,3.6-1.9,7.4-2.6,11.1c-0.1,0.6-0.2,1.2-0.3,1.8
		c-0.2,0.9-0.3,1.7-0.5,2.6c-0.8,3.9-1.5,8-1.4,12c0.3,6,3.6,12.3,10.6,13c5.6,0.6,11.5-2.4,18.2-9.2c1.4-1.4,2.8-2.9,4.2-4.4
		c0,0,0,0,0,0c-1.2,2.2-2.4,4.3-3.6,6.5c-1.8,3.3-3.7,6.8-5.6,10.1c-3,5.3-6.6,10.3-12.1,11.8c-6.2,1.7-12-2.3-15.1-6.2
		c-2.1-2.7-3.3-5.8-3.8-9.1c-0.9-4.9-2.3-9.6-4.2-14.3c0,0-9.1,22.7-1.6,37.1c-0.7,0.8-1.9,1.5-3.4,0.9c-1.3-0.5-2.3-1.7-3.2-3.5
		l-2.8-9.9c-0.4-1.5-0.8-2.9-1.2-4.4l-2.9-10.6c0-0.1,0-0.3-0.1-0.4l-0.3-0.5l-0.1,0l-2.2-2.9l-0.5,2.2c-7.5,34.6-46,62.9-46.4,63.3
		c-12.1,10.1-25.5,18.2-39.9,24.3c-9.6,4.1-19.7,7.2-30,9.3c-0.1-0.1-0.2-0.2-0.3-0.3c-11.2-10.6-26.2-16.8-41.5-17.2
		c-13.2-0.4-26.7,4.5-34.7,14.9c-5.8-1.6-11.6-3.6-17.1-5.8c-12.5-5.1-24.4-11.8-35.4-19.9c0.2-3.1,0.6-6.2,1.3-9.3
		c0.9-3.8,2.5-7.5,5.4-9.8c0.8-0.6,1-0.8,1.9-1.1c0.1-0.1,0.8-0.3,0.8-0.3c0.4-0.1,0.8-0.2,1.2-0.2c0.1,0,0.2,0,0.4,0
		c0,0,0.3,0,0.3,0c0.4,0,0.7,0.1,1,0.2c0,0,0,0,0,0c0,0,0,0,0.1,0c0.2,0.1,0.3,0.1,0.5,0.2c0.2,0.1,0.3,0.1,0.5,0.2
		c0,0,0.3,0.2,0.4,0.2c0.4,0.3,0.8,0.6,1.2,0.9l0.1,0.1c0.1,0.1,0.2,0.2,0.3,0.3c0.2,0.3,0.4,0.5,0.6,0.8c0.1,0.1,0.1,0.2,0.2,0.3
		c0,0,0,0,0,0.1c0,0,0,0,0,0c0.1,0.3,0.3,0.5,0.4,0.8c0.1,0.3,0.2,0.6,0.3,0.8c0,0,0,0.1,0,0.1c0,0,0,0,0,0.1c0,0.2,0.1,0.4,0.1,0.5
		c0.4,2.5-0.6,4.8-2.6,7c-0.8,0.9-0.5,2.3,0.4,3c1,0.7,2.2,0.5,3-0.4c2.6-2.8,4-6.6,3.4-10.4c-0.6-3.4-2.8-6.3-5.8-7.9
		c-3.3-1.8-7.1-1.2-10.2,0.6c-3.7,2.1-5.9,6.2-7.2,10.1c-1.1,3.3-1.7,6.7-2,10.2c-4.8-3.7-9.3-7.7-13.6-11.9
		c-7-6.9-13.4-14.5-19.1-22.5c5.4,0.5,10.9,0.9,16.2,0.9h1.3c12.1,0,24.3-1.3,36.2-3.8c-4.2,4.6-2.7,13,2.7,16.2
		c2.9,1.8,6.3,2,9.6,1.3c3.1-0.7,5.7-2.3,8-4.3c-0.6,3.5-0.6,7.2-0.1,10.9c2.2,14.8,17.6,25.7,32.2,22.8c8.6-1.7,15.3-8.8,17.3-17.3
		c1.1-4.5-4.2-6.4-5-1.8c-1.2,6.7-5.6,12.8-12.8,14.5c-6.7,1.5-13.8-0.4-19.2-4.4c-14.5-10.8-9.3-32.8,1.5-44.3
		c11.6-12.3,29.6-18.3,46.3-17.8c0.9,0,1.8,0.1,2.7,0.1c-0.4,0.1-0.7,0.2-1.1,0.3c-7.4,2-14,6.6-18.7,12.6
		c-4.2,5.3-6.4,12.4-4.8,19.1c1.4,5.8,5.4,10.7,10.8,13.2c5.9,2.7,13.1,1.4,18.2-2.4c6-4.4,8-12.8,4.5-19.1
		c-1.8-3.2-5.8-0.9-4.1,2.2c1.8,3.2,2.2,6.7,0.6,10.1c-1.4,2.9-4.3,4.8-7.2,5.9c-5.6,2.2-11.8,0.3-15.7-4.2
		c-4.2-4.8-4.7-11.5-2.3-17.3c2.9-7.1,9.8-12.7,16.8-15.4c10-3.9,22-1.6,31.6,3.6c0.6,0.3,1.2,0.7,1.8,1.1c0.4,0.3,0.8,0.5,1.2,0.8
		c0.2,0.1,0.4,0.2,0.6,0.3c0.9,0.6,1.8,1.2,2.6,1.9c4,3.4,6.7-0.6,2.8-3.8c-1.4-1.1-2.9-2-4.4-2.9c-6.9-4.5-15.7-6.7-23.7-8.3
		c-10.5-2.2-21.5-1.9-31.8,0.9c8.6-5.8,16.8-12.4,24.5-19.6c5.6-5,11.2-10.6,14.5-17.3c3.6-7.3,6.4-13.7,8.7-20.2l0.1-0.2
		c0-0.1,0.1-0.2,0.1-0.3l0.3-0.8c0,0,0-0.1,0-0.2c0,0,0,0,0,0c0,0,0-0.1,0.1-0.3c0.4,1.2,0.7,2.6,1,3.9c0.2,0.7,0.3,1.5,0.5,2.1
		c0.4,1.5,0.7,2.9,1.1,4.4c0.8,3.1,1.5,6.3,2.5,9.4c1.3,4.1,3.2,6.5,5.6,7.1c2.1,0.6,5.1,0.1,7.4-5.4c1.6-3.9,2.4-8.1,3.1-12.2
		c4.4,7.6,10.5,10.7,17.8,9.1c6.5-1.4,10.5-7.1,13.7-12.4c1.9-3.3,3.8-6.6,5.5-9.9c0.7,2.4,1.5,4.9,2.6,7.2
		c4.2,8.1,12.7,13.4,22.7,14.6c-9.9,10.8-15.1,26.1-9.4,40.4c5.1,12.7,21,19,33.3,13.4c7.3-3.3,11.7-11.1,11.7-19
		c0-4.2-5.1-4.8-4.8-0.5c0.4,6.2-2.3,12.6-8.3,15.6c-5.6,2.8-12.3,2.6-18,0.2c-15.2-6.5-15.2-27.1-8.1-39.5c2.2-3.8,4.9-7.2,8-10.2
		c0.3,0,0.5,0,0.8,0c6.2-0.2,12.1-1.6,18-3.8c-0.7,1.1-1.3,2.3-1.9,3.5c-2.6,5.6-3,12.3-0.2,17.9c2.5,4.9,7,8.3,12.4,9.4
		c5.8,1.2,11.9-1.5,15.6-6c4.4-5.2,4.4-13.1-0.1-17.9c-2.3-2.4-5.4,0.5-3.2,2.8c2.3,2.5,3.4,5.5,2.7,8.8c-0.6,2.8-2.8,5.2-5.1,6.8
		c-4.6,3.1-10.4,2.8-14.8-0.4c-4.7-3.4-6.6-9.2-5.7-14.8c0.7-4.7,3.3-9.2,6.6-12.9c5-2.3,10-5.1,15.2-8.1c0.4-0.2,0.8-0.5,1.2-0.7
		c5.7-1,11.8-0.5,17.4,1c0.6,0.2,1.2,0.4,1.8,0.6c0.4,0.1,0.8,0.3,1.2,0.4c0.2,0.1,0.4,0.1,0.6,0.1c0.9,0.3,1.9,0.7,2.7,1.1
		c4.2,2.1,5.8-2,1.7-3.9c-1.4-0.7-2.9-1.2-4.5-1.7c-4.1-1.5-8.5-2.1-13-2.3c9-5.6,17.8-11.7,26.3-17.5c11.3-7.8,23.1-15.9,35.2-22.9
		l2-1.1c5.9-3.4,12-7,18.3-9c3.6-1.2,6.6-1.2,9-0.2c3.6,1.6,3.9,5.2,5.4,8.2c0.2,0.3,0.5,0.9,0.5,1.1h2.1
		C618,159.5,617.9,158,617.5,156.4z M558,238.4c-5.4,4.3-10.2,5.9-14.2,4.8c-1.6-0.5-6.2-2.3-4.4-4.5c1.8-2.2,3.6-4.4,5.5-6.6
		l19.4-23.1c0.2-0.2,0.3-0.4,0.5-0.7c0.2-0.3,0.4-0.6,0.6-0.8c0,0.1,0,0.1,0,0.2c0.7,4.3,1.3,8.6,1.7,12.9c0.2,2.5,0.4,5.1,0.5,7.8
		l-0.4,0.5C564.4,232.3,561.4,235.7,558,238.4z M353.1,360.8c-0.7,0-1.5,0-2.2,0c5.6-4.1,13.6-5.1,20.3-3.9c2.1,0.4,4.1,1,6,1.9
		C369.2,360,361.1,360.7,353.1,360.8z M329.3,344.8c14.9-4,31.8-0.1,44.4,8.3c0.7,0.4,1.4,0.9,2,1.4c-0.3-0.1-0.6-0.2-0.9-0.3
		c-6.7-2-14-1.6-20.5,0.8c-3.3,1.2-6.3,3.1-8.6,5.6c-11.3-0.4-22.7-2.1-33.7-4.9C316.6,350.5,323,346.5,329.3,344.8z M465.3,76
		c-0.9,0-1.9,0-2.8-0.2c-6.9-1.1-13.3-6-17.2-11.6c-1.2-1.7-2.1-3.5-2.8-5.4C450.6,63.9,458.3,69.7,465.3,76z M440.8,63.4
		c3.3,6.2,8.8,11,15.1,14c4,1.9,8.6,2.6,12.9,1.8c0.7,0.7,1.5,1.4,2.2,2.1c7.6,7.5,14.5,15.8,20.6,24.7c-8.3,2.1-18.1,0.4-25.2-3.7
		C453,94.6,443.9,79.8,440.8,65c-0.2-0.8-0.3-1.6-0.4-2.4C440.5,62.9,440.6,63.1,440.8,63.4z M416.7,45.6c6.6,2.7,13.1,5.8,19.4,9.4
		c0.5,15.2,6.7,30.1,17.2,41.2c10.3,10.9,25.7,17.3,40.4,12.8c1.1,1.7,2.1,3.3,3.1,5l-0.5,0.1c-10.5,1.6-20.6,6.8-30.9,15.9
		c-2.9,2.6-5.9,5.5-9.4,9.3c0.4-7.6,0.2-15-0.4-22.1c-0.3-3.3-0.7-6.7-1.2-9.9c0-0.1,0-0.3-0.1-0.7c-0.8-6-0.9-6.4-1.9-6.5
		c-0.8-0.1-1.3,0.3-4.9,5.1c-0.3,0.4-0.5,0.7-0.6,0.8l-16,19c-0.8,0.9-1.6,1.9-2.4,2.8c-2.1,2.4-4.2,4.8-6.1,7.4
		c1-3.6,1.4-7.4,1.2-11.2c-0.5-7.3-3.8-14.3-8.8-19.6c-1.6-1.7-3.4-3.2-5.3-4.5c2.1-0.5,4.1-1.5,5.8-3c2.5-2.3-0.5-5.4-2.8-3.2
		c-2.5,2.3-5.5,3.4-8.8,2.7c-2.9-0.6-5.2-2.8-6.8-5.1c-3.1-4.5-2.8-10.4,0.4-14.8c3.4-4.7,9.2-6.6,14.8-5.7
		c6.9,1.1,13.3,6,17.2,11.6c5.6,8,6.1,19.1,3.5,28.8c-0.2,0.6-0.4,1.2-0.6,1.8c-0.1,0.4-0.3,0.8-0.5,1.2c-0.1,0.2-0.1,0.4-0.1,0.6
		c-0.3,0.9-0.7,1.9-1.1,2.7c-2.1,4.2,2,5.8,3.9,1.7c0.7-1.4,1.2-3,1.7-4.5c2.6-7,2.6-15.3,2.4-22.7c-0.4-15.4-6.6-30.4-17.2-41.6
		c-1.8-1.9-3.7-3.6-5.8-5.2C415.9,45.3,416.3,45.5,416.7,45.6z M450.1,145.7l-0.4,0.5c-2.9,3.3-5.9,6.7-9.3,9.5
		c-5.4,4.3-10.1,5.9-14.2,4.8c-1.5-0.4-4.4-1.6-4.8-3.3c-0.2-1.1,1.2-2.1,1.8-2.9c1.3-1.6,2.7-3.3,4-4.9l19.4-23.1
		c0.2-0.2,0.3-0.4,0.5-0.7c0.2-0.3,0.4-0.6,0.6-0.8c0,0.1,0,0.2,0,0.2c0.7,4.3,1.3,8.6,1.7,12.9C449.8,140.4,450,143,450.1,145.7z
		 M323,36.5c-1.2,2.1-2.8,4-4.8,5.4c-5.6,4.1-13.7,5.1-20.4,3.9c-1.3-0.2-2.6-0.6-3.8-1C303.3,41.2,313.1,38.4,323,36.5z
		 M294.1,48.6c6.7,2,14,1.6,20.6-0.8c5.6-2,10.5-6.3,12.6-12c8.5-1.4,17.2-2.2,25.9-2.3c0.4,0,0.8,0,1.2,0c3,0,5.9,0.1,8.9,0.3
		c-1.3,11.5-12.6,21.2-23.6,24.2c-14.9,4-31.8,0.1-44.5-8.3c-0.7-0.4-1.4-0.9-2-1.4C293.5,48.4,293.8,48.5,294.1,48.6z M235.3,278
		c-8.6,0.1-17.3-0.6-25.9-1.9c-2.6-4.7-5-9.6-7-14.5c-8-18.9-12.5-39.9-12.9-60.7c1.3,4,3.2,7.7,5.6,11
		c8.5,12.1,24.9,19.4,39.6,17.1c1.8-0.3,3.5-0.7,5.2-1.3c-3.4,2.3-5.8,6.1-5.9,10.3c-0.1,3.3,4.1,3.4,4.3,0.3
		c0.1-3.4,1.5-6.2,4.3-8.1c2.4-1.6,5.6-1.7,8.4-1.2c5.4,1,9.3,5.4,10.2,10.8c0.9,5.7-1.9,11.2-6.4,14.5c-5.6,4.1-13.7,5.1-20.4,3.9
		c-9.7-1.7-17.8-9.3-22.8-17.9c-0.3-0.5-0.6-1.1-0.9-1.7c-0.2-0.4-0.4-0.8-0.6-1.2c-0.1-0.2-0.2-0.4-0.3-0.5
		c-0.4-0.9-0.8-1.8-1.2-2.7c-1.5-4.5-5.5-2.7-3.9,1.6c0.5,1.5,1.2,2.9,2,4.4c3.2,6.8,9,12.7,14.4,17.8
		c11.2,10.6,26.2,16.8,41.6,17.2c0.3,0,0.5,0,0.8,0C254,277,244.7,277.9,235.3,278z M302.3,282.2
		C302.2,282.2,302.2,282.2,302.3,282.2c-0.6,0.7-1.4,1.7-2.1,2.8c-0.5,0.7-1,1.4-1.4,2.1c-1.6,2.5-3.1,5-3.6,5.8
		c-2.3,3.6-5.3,7.1-9.3,8.7c-1.9,0.8-3.9,1-5.9,0.6c-0.6-0.1-0.5-0.1-1-0.3c-0.4-0.1-0.8-0.3-1.1-0.5c0,0-0.1,0-0.1,0
		c0,0-0.1,0-0.1-0.1c-0.2-0.1-0.3-0.2-0.5-0.3c-0.2-0.1-0.3-0.2-0.5-0.4c-0.1-0.1-0.2-0.2-0.3-0.3c0,0,0,0,0,0
		c-0.3-0.3-0.5-0.6-0.7-0.9c-0.1-0.1-0.2-0.3-0.3-0.5c0,0,0,0,0,0c0,0,0-0.1-0.1-0.1c-0.2-0.3-0.3-0.7-0.4-1
		c-0.1-0.2-0.1-0.4-0.2-0.5c0,0,0,0,0-0.1c0-0.1,0-0.2-0.1-0.3c-0.1-0.4-0.1-0.7-0.1-1.1c0-0.1,0-0.3,0-0.4c0,0,0-0.3,0-0.4
		c0-0.4,0.1-0.7,0.2-1.1c0,0,0.1-0.2,0.1-0.3c0.1-0.2,0.1-0.4,0.2-0.6c0.1-0.2,0.2-0.3,0.2-0.5c0,0,0.1-0.2,0.2-0.3
		c0.2-0.3,0.4-0.5,0.6-0.8c0,0,0.2-0.2,0.2-0.3c0.1-0.1,0.2-0.2,0.3-0.3c0.2-0.1,0.3-0.2,0.5-0.4c0,0,0.5-0.3,0.5-0.3
		c0.9-0.4,1.8-0.7,2.7-0.8c0.5-0.1,0.9-0.1,1.2-0.1c0.2,0,0.5,0,0.7,0.1c0.1,0,0.6,0.1,0.6,0.1c0.3,0.1,0.6,0.2,1,0.4
		c0,0,0.3,0.2,0.3,0.2c0.2,0.1,0.3,0.2,0.5,0.3c0.1,0.1,0.2,0.2,0.3,0.3c0,0,0.2,0.2,0.2,0.3c0.1,0.1,0.2,0.3,0.3,0.4
		c0.1,0.1,0.1,0.1,0.1,0.2c0,0,0,0,0,0.1c0.1,0.2,0.2,0.5,0.3,0.7c0,0.1,0.1,0.2,0.1,0.3c0,0.1,0,0.3,0,0.4c0-0.2-0.1,0.5-0.1,0.4
		c0,0.1,0,0.1-0.1,0.2c0,0-0.1,0.1-0.1,0.1c-1.7,2.2,1.7,4.7,3.4,2.6c2.3-3,0.7-6.9-1.8-9.2c-0.8-0.7-1.7-1.2-2.6-1.5
		c6.3-1.8,12.5-3.9,18.5-6.3c1-0.4,1.9-0.8,2.8-1.2C304.5,279.6,303.3,280.9,302.3,282.2z M331.2,244.9c-0.2,0.4-0.5,0.7-0.7,1.1
		c-10.4,7.8-21.7,14.3-33.5,19.3c-2.9,1.2-5.8,2.4-8.8,3.4c5.7-3.6,10.4-8.7,13.3-15.3c5.4-12.5-1.4-28.3-14.1-33.1
		c-7.5-2.8-16.1-0.5-21.7,5.2c-2.9,3,0.2,7,3.1,3.8c4.1-4.7,10.5-7.3,16.9-5.1c5.9,2,10.5,6.9,12.8,12.6
		c6.1,15.4-8.4,29.9-22.3,33.7c-14.9,4-31.8,0.1-44.5-8.3c-0.7-0.5-1.4-0.9-2-1.4c0.3,0.1,0.6,0.2,0.9,0.3c6.7,2,14,1.5,20.5-0.8
		c5.8-2.1,10.8-6.6,12.8-12.6c1.7-5.2,0.9-10.8-2.1-15.4c-3.3-4.9-9.5-7.3-15.3-6.8c-0.7,0.1-1.4,0.2-2.1,0.4
		c7.6-4.2,13.2-11.7,14.8-20.4c1.1-6-0.3-12.5-4.3-17.2c-4.6-5.3-12.9-6.7-19.1-4.1c-8.2,3.4-11.9,12.9-9.1,20.8
		c1.3,3.6,6,1.8,5.2-0.6c-1.1-3.6-1.4-7.5,0.3-11c1.4-2.7,4-4.8,6.9-5.8c6.9-2.3,13.5,1.7,15.7,8.5c3.5,10.6-4,22.2-13.3,26.9
		c-13.3,6.7-30.8,0.8-40.5-9.5c-7.3-7.7-10.8-18.8-9.9-29.3c0.1-1.4,0.2-2.3,0.5-3.3c0.1,0.5,0.3,1,0.5,1.5c1.5,4.4,3.9,8.6,7.1,12
		c4.6,4.8,11.8,7.1,17.7,3c6-4.2,8.1-13.7,2-18.7c-2.9-2.3-7.6-3.6-11-1.9c-3.4,1.7-1.4,5.4,1.1,4.8c3.9-0.9,8.3-0.3,9.4,4.1
		c0.9,3.4-1.1,6.6-3.8,8.6c-6.1,4.5-13-1.9-16-6.9c-1.3-2.1-2.3-4.4-3.1-6.7c-0.4-1.2-0.7-2.5-1.3-3.7c-0.6-1.1-1.8-2.2-3.2-1.8
		c0,0-0.1,0-0.2,0.1c0.4-2.6,0.8-5.2,1.3-7.8c1.5,1.4,3.4,2.5,5.4,3c7.7,2.1,14.9-4.5,18.7-10.4c2.2-3.3,3.7-7,4.7-10.9
		c3.5,10.7,11.1,20,22.1,23.7c12.3,4.2,31-3.2,29.9-18.3c-0.8-10.3-13-21.5-23.4-15.5c-3.6,2.1-2,7.1,2.6,4.1
		c4.3-2.7,9.1-0.8,12.4,2.5c3.7,3.6,5.4,9.1,3.8,14.1c-2.1,6.5-9.9,10.2-16.2,10.6c-7.6,0.5-14.6-3.3-19.7-8.6
		c-6-6.2-9.1-14.4-9.8-22.8c-0.1-4.4,0.3-8.8,1.3-13.3c0.9-3.8,2.5-7.5,5.4-9.8c0.8-0.6,1-0.8,1.9-1.1c0.1-0.1,0.8-0.3,0.8-0.3
		c0.4-0.1,0.8-0.1,1.2-0.2c0.1,0,0.2,0,0.4,0c0,0,0.3,0,0.3,0c0.4,0,0.7,0.1,1,0.2c0,0,0,0,0,0c0,0,0,0,0.1,0c0.2,0,0.3,0.1,0.5,0.2
		c0.2,0.1,0.3,0.1,0.5,0.2c0.1,0,0.3,0.2,0.4,0.2c0.4,0.3,0.8,0.6,1.2,0.9c0,0,0,0,0.1,0.1c0.1,0.1,0.2,0.2,0.3,0.3
		c0.2,0.3,0.4,0.5,0.6,0.8c0.1,0.1,0.1,0.2,0.2,0.3c0,0,0,0.1,0,0.1c0,0,0,0,0,0c0.1,0.3,0.3,0.5,0.4,0.8c0.1,0.3,0.2,0.6,0.3,0.8
		c0,0,0,0.1,0,0.1c0,0,0,0,0,0.1c0,0.2,0.1,0.4,0.1,0.5c0.4,2.5-0.6,4.8-2.6,7c-0.8,0.9-0.5,2.3,0.4,3c1,0.7,2.2,0.5,3-0.4
		c2.6-2.8,4-6.6,3.3-10.4c-0.6-3.4-2.8-6.3-5.8-8c-3.3-1.8-7.1-1.1-10.2,0.6c-3.7,2.1-5.9,6.2-7.2,10.1c-1.3,4-1.9,8.3-2.1,12.5l0,0
		c0,0.1,0,0.3,0,0.5c0,0.5,0,1,0,1.4c0,1.5,0,3,0,4.5c-0.4,3.7-1.3,7.4-2.5,10.8c-2.3,6.4-7.5,14.5-14.9,15.3
		c-3.6,0.4-6.5-1.7-8-4.5c0.8-3.8,1.8-7.7,3-11.4c0.5-0.2,1-0.4,1.6-0.5c3.6-0.8,2.7-4,0.1-4.7c1-3.2,2.2-6.3,3.4-9.3
		c8-19.8,20.2-38.3,35.2-53.6C251,68.2,268.3,56.2,287,47.8c10.9,9.3,24.9,14.7,39.1,15c15.8,0.4,32.3-6.7,38.8-22
		c1-2.3,1.5-4.6,1.7-7c6.3,0.5,12.6,1.3,18.8,2.5c-2.4,0.4-4.8,1-7.2,2c-12.7,5.1-19,21-13.4,33.3c3.3,7.3,11.1,11.7,19,11.7
		c4.2,0,4.8-5.1,0.5-4.8c-6.2,0.4-12.6-2.3-15.6-8.3c-2.8-5.6-2.6-12.3-0.2-18c6.5-15.2,27.1-15.2,39.5-8.1
		c13.4,7.7,22.5,22.4,25.6,37.3c0.2,0.8,0.3,1.6,0.5,2.4c-0.2-0.3-0.3-0.6-0.5-0.9c-3.3-6.2-8.8-11-15.1-14
		c-5.6-2.6-12.3-3-17.9-0.2c-4.9,2.5-8.3,7-9.4,12.4c-0.9,4.5,0.5,9.1,3.2,12.7c-7.1-1-14.4,0.3-21,4c-7.7,4.3-13,11.4-15.4,19.8
		c-1.5,5-1.9,10.3-1.9,15.6c-2.1-6.2-5.4-12.4-11-15.9c-4-2.5-9.1-2.8-13.3-0.6c-3.8,1.9-6.8,5.2-7.6,9.4c-1,5.5,0.4,11.5,6.1,13.4
		c4.6,1.5,6.5-3.4,3.1-4.8c-4.1-1.7-6.4-5.7-4.5-9.9c1.6-3.5,5.5-6,9.4-5.7c6.6,0.4,10.7,6.9,13,12.4c3.6,8.5,5,17.9,4.3,27
		c-0.5,7.4-2.4,14.6-5.2,21.5c0.8-8-0.5-16-5.1-23.4c-4-6.4-10.3-11.2-17.5-13.2c-7.8-2.2-16,0-22.6,4.3c-9,5.9-12.7,18-7.9,28
		c2,4.2,5.5,7.5,10.3,9c5.4,1.7,11.6,0.4,16.1-2.8c3.6-2.5,1-7.4-3.5-4.6c-3.3,2-10.4,4.8-15.2,0.6c-4.3-3.7-6.2-9.8-5.4-15.3
		c1.1-7.4,7.2-12.3,13.8-14.8c7.1-2.6,15-1.4,21.1,2.9c7.5,5.3,11.7,14.1,12.4,23.1c0.6,7.8-1.6,15.1-5.4,22
		c-1.6,2.8-3.6,5.5-5.4,7.8c-3.2,4-7,7.4-11.3,10.2c-4.1,2.7-8.7,4.9-13.5,5.1c-3.2,0.1-6.6-1.1-9.2-3.1c-1.4-1.1-2.2-1.9-3.3-3.4
		c-0.6-0.9-0.6-0.9-1-1.8c-0.3-0.8-0.6-1.5-0.8-2.3c0-0.1-0.1-0.4-0.1-0.4c0-0.2-0.1-0.4-0.1-0.6c-0.1-0.4-0.1-0.8-0.1-1.2
		c-0.1-1,0-1.3,0.1-2.3c0.2-1.6,0.8-3.2,1.5-4.5c1.9-3.2,4.6-5.4,8-6.6c2.9-1,6.1-0.7,8.6,1.2c0.8,0.5,1.4,1.2,2,1.9
		c0.6,0.7,1,1.4,1.3,1.9c0.2,0.3,0.3,0.6,0.4,1c0,0,0.1,0.2,0.1,0.3c0,0.2,0.1,0.3,0.1,0.5c0,0.2,0,0.4,0.1,0.6v0.3
		c0,0.3-0.1,0.6-0.1,0.9c0,0.1,0,0.2-0.1,0.3c0,0,0,0,0,0c0,0,0,0.1,0,0.1c-0.1,0.3-0.3,0.7-0.4,1c-0.1,0.1-0.1,0.2-0.2,0.3
		c0,0,0,0,0,0c0,0,0,0-0.1,0.1c-0.2,0.3-0.4,0.6-0.6,0.8c0,0.1-0.3,0.4-0.4,0.5c-0.2,0.2-0.4,0.4-0.7,0.6c-0.2,0.2-0.5,0.3-0.7,0.5
		c0,0-0.5,0.3-0.7,0.3c-0.2,0.1-0.5,0.2-0.8,0.3c0,0,0,0,0,0c0,0,0,0,0,0c-0.2,0-0.3,0.1-0.5,0.1c-0.2,0-0.4,0-0.6,0
		c0,0-0.6,0-0.7-0.1c-0.1,0-0.1,0-0.2,0c0,0-0.1,0-0.2-0.1c-0.1,0-0.6-0.3-0.7-0.3c-0.2-0.2-0.5-0.3-0.7-0.5c0,0,0,0,0,0
		c0,0,0,0-0.1-0.1c-0.1-0.1-0.2-0.3-0.4-0.4c-1.6-2.2-5,0.4-3.4,2.5c4.6,6.1,13.5,2.7,15.8-3.7c1.4-3.9,0.1-7.8-2.5-10.8
		c-3-3.4-7.3-5.3-11.8-4.8c-7.9,0.8-14.9,8-15.7,15.9c-0.7,7.6,4.2,14.6,11,17.7c9.3,4.2,19.2-0.6,26.7-6.2c0.1-0.1,0.2-0.2,0.4-0.3
		c1.6,2.9,4.2,7.9,4.6,9.2C336.8,231.2,334.8,239.1,331.2,244.9z M357.8,210.5c-0.7,5.8-2.5,11.4-5.2,16.6
		c-7.8,7.8-14.3,12.7-15.5,13.6l-0.1,0c1.3-3.5,2-7.1,2.1-10.8c0.1-4.5-2.9-12.4-5.8-17c1.2-1,2.3-2.1,3.3-3.2c0,0,0.1-0.1,0.1-0.1
		c2.3-2.3,5.3-5.6,6.9-8.5c3.2-4.5,5.9-9.5,8.2-14.4C356.7,193.4,358.8,202.7,357.8,210.5z M442.5,177.2c-1.8,3.3-3.7,6.8-5.6,10.1
		c-3,5.3-6.6,10.3-12.1,11.8c-6.2,1.7-12-2.3-15.1-6.1c-2.2-2.8-3.2-6.4-3.9-9.8c-0.6-3-1.3-5.9-2.3-8.7c-0.4-1.1-2-3.7-1.8-4.9
		c0,0-9.8,17.5-1.6,37.1c0,0.2-0.3,0.3-0.4,0.5c-0.9,0.7-2,0.9-3,0.5c-2-0.8-3-2.8-3.5-4.8c-0.5-1.7-1-3.5-1.5-5.2
		c-0.3-1.1-0.7-2.3-1-3.4c-0.4-1.5-0.8-2.9-1.2-4.4l-2.9-10.6c0-0.1,0-0.3-0.1-0.4l-0.3-0.5l-0.1,0l-2.2-2.9l-0.5,2.2
		c-3.5,16.4-14,31.3-24.1,42.6c4-12.6,3-26.8-5.7-37.2c3.7-8.8,5.8-18.1,6-27.5c0-0.1,0.1-0.3,0.1-0.4c1.5-16.2-3.3-35.7,9.3-48.7
		c5.6-5.8,13.8-9.2,21.9-9c7.3,0.2,14.2,3.3,19.6,8.1c5.4,4.9,8.8,11.7,9.3,18.9c0.7,8.5-3,17.3-8.8,23.4c-5.1,5.4-12.5,7.6-19.7,6
		c-6.3-1.4-12-5.8-14.5-11.8c-3.7-8.7,1.2-20.5,11.2-21.4c3.4-0.3,7.1,0.9,9.2,3.7c2.7,3.8,0.9,9.6-2,11.8c-2,1.5,0.5,6.8,4.8,3.5
		c5.8-4.5,5.8-14.1,1.1-18.9c-4.7-4.8-11.2-4.8-16.6-3.4c-6.8,1.8-11.1,8.2-12.4,14.8c-1.3,6.8,1.3,13.6,6,18.5
		c4.8,4.9,11.5,7.5,18.4,7.5c7.8,0,14.9-4.3,19.6-10.3c0.3-0.4,0.6-0.8,0.8-1.1c-0.7,2.6-1.2,5.3-1.6,7.9c-0.1,0.6-0.2,1.2-0.3,1.8
		c-0.2,0.9-0.3,1.7-0.5,2.6c-0.7,3.9-1.5,8-1.3,12c0.3,6,3.6,12.3,10.6,13c5.6,0.6,11.5-2.4,18.2-9.2c1.4-1.4,2.8-2.9,4.1-4.4
		C444.8,172.8,443.6,175,442.5,177.2z M442.9,195.2c0.4-0.7,0.8-1.4,1.2-2.1c12.1-21.8,25.9-44.1,49-55.6c0.9-0.4,1.3-2.8,1.4-3.8
		c0.6-2.6,1-5.2,1.5-7.6c0-0.3,0.2-1.5,0.5-3.5c0.3-2,0.6-4.6,0.8-6l0.3-1.4c3.8,6.5,7.3,13.2,10.2,20.1c0.4,0.9,0.7,1.8,1.1,2.7
		c-12,2.2-23.3,7.8-32.2,16.2c-11.5,10.9-18.1,27.5-11.9,43c1,2.4,2.3,4.5,3.9,6.4C459.7,204.3,449.5,202.5,442.9,195.2z M475,202.5
		c-0.7,0.2-1.5,0.3-2.3,0.5c-9.2-8.7-8.3-25.1-2.2-35.7c7.7-13.4,22.4-22.5,37.3-25.6c0.7-0.2,1.5-0.3,2.3-0.4c0,0,0,0,0,0
		c-0.3,0.1-0.5,0.2-0.7,0.4c-6.2,3.3-11,8.8-14,15.1c-2.6,5.6-3,12.3-0.2,17.9c2.5,4.9,7,8.3,12.4,9.4c1.8,0.4,3.6,0.4,5.3,0.1
		C501.4,191.3,488.6,199.1,475,202.5z M517.5,178.6c-4.5,3.1-10.4,2.8-14.8-0.4c-4.7-3.4-6.6-9.2-5.7-14.8c1-6.9,6-13.3,11.6-17.2
		c0.9-0.6,1.8-1.1,2.7-1.6c3.7,10.5,6.4,21.5,8,32.6C518.6,177.7,518.1,178.2,517.5,178.6z"/>
	<path fill="#000000" d="M352.5,442.8c-0.5,0-1,0.5-1,1v2.3c0,0.5,0.5,1,1,1c0.5,0,1-0.5,1-1v-2.3C353.5,443.3,353,442.8,352.5,442.8z"/>
	<path fill="#000000" d="M358.1,446.1v-2.3c0-0.5-0.5-1-1-1c-0.5,0-1,0.5-1,1v2.3c0,0.5,0.5,1,1,1C357.5,447.1,358.1,446.6,358.1,446.1z"/>
	<path fill="#000000" d="M405.7,422c-0.5,0-1,0.5-1,1v11.3c0,1.7-1.3,3-3,3c-1.7,0-3-1.3-3-3V423c0-0.5-0.5-1-1-1s-1,0.5-1,1v11.3c0,1.7-1.3,3-3,3
		c-1.7,0-3-1.3-3-3V423c0-0.5-0.5-1-1-1s-1,0.5-1,1v10.8c0,1.7-1.3,3-3,3h-10.4l3.6-3.3c0.8-0.6,1.3-1.7,1.3-2.9v-5.3
		c0-1.3-1.1-2.5-2.5-2.5h-9c-0.7,0-1.3-0.3-1.5-0.8c-0.3-0.4-0.8-0.9-1.4-0.6c-0.5,0.3-0.8,0.8-0.5,1.5c0.3,0.5,0.8,1,1.4,1.4v6.3
		c0,1.2,0.6,2.3,1.3,2.9l3.6,3.3h-10.9c-1.7,0-3-1.3-3-3v-10.8c0-0.5-0.5-1-1-1c-0.5,0-1,0.5-1,1v10.8c0,1.7-1.3,3-3,3h-8.2v-7.7
		c0-3.9-2.9-7.1-6.7-7.1c-3.8,0-6.7,3.3-6.7,7.1v1.5c0,0.5,0.5,1,1,1s1-0.6,1-1v-1.8c0-2.8,2.1-5,4.7-5c2.6,0,4.7,2.2,4.7,5v8H331
		c-0.5,0-1,0.5-1,1s0.5,1,1,1h21.5c1.6,0,3.1-0.8,4-2c0.9,1.2,2.4,2,4,2h25.1c1.5,0,2.9-0.7,3.8-1.8c0.9,1.4,2.5,2.3,4.2,2.3
		c1.6,0,3.1-0.8,4-2.1c0.9,1.2,2.4,2.1,4,2.1c2.7,0,5.1-2.3,5.1-5.1V423C406.8,422.5,406.2,422,405.7,422z M369.3,432
		c-0.4-0.3-0.6-0.8-0.6-1.4v-5.7h8.5c0.5,0,0.8,0.3,0.8,0.8v4.9c0,0.7-0.3,1.1-0.6,1.4l-4,3.8L369.3,432z"/>
	<path fill="#000000" d="M442.2,446.1v-2.3c0-0.5-0.5-1-1-1c-0.5,0-1,0.5-1,1v2.3c0,0.5,0.5,1,1,1C441.7,447.1,442.2,446.6,442.2,446.1z"/>
	<path fill="#000000" d="M446.8,446.1v-2.3c0-0.5-0.5-1-1-1c-0.5,0-1,0.5-1,1v2.3c0,0.5,0.5,1,1,1C446.2,447.1,446.8,446.6,446.8,446.1z"/>
	<path fill="#000000" d="M470.1,437.8c0-0.5-0.5-1-1-1H457v-7.7c0-2.8,2.1-5,4.7-5c2.6,0,4.6,2.2,4.6,5v1.5c0,0.5,0.5,1,1,1c0.5,0,1-0.5,1-1v-1.5
		c0-1.9-0.7-3.7-1.9-5c-1.2-1.3-3-2.1-4.8-2.1c-1.8,0-3.6,0.8-4.8,2.1c-1.2,1.3-1.9,3.1-1.9,5v7.7h-3.4h-2.1h-0.2c-1.7,0-3-1.3-3-3
		v-10.8c0-0.5-0.5-1-1-1c-0.5,0-1,0.5-1,1v10.8c0,1.7-1.3,3-3,3h-3.5h-2.1H433v-7.7c0-3.8-2.9-7.1-6.7-7.1c-3.7,0-6.7,3.3-6.7,7.1
		v1.5c0,0.5,0.5,1,1,1c0.5,0,1-0.5,1-1v-1.8c0-2.8,2.1-5,4.7-5c2.6,0,4.7,2.2,4.7,5v8h-11.3c-0.5,0-1,0.5-1,1c0,0.5,0.5,1,1,1h15.9
		h2.1h3.5c1.6,0,3.1-0.8,4-2c0.9,1.2,2.4,2,4,2h0.2h2.1H469C469.6,438.9,470.1,438.3,470.1,437.8z"/>
	<path fill="#000000" d="M334.5,453.3h8.6l0.1-2.1c-2.8-0.2-6.1-0.2-9.2-0.2c-2.5,0-4.1,1.4-4.1,3.7v14c0,2.3,1.6,3.7,4.1,3.7c3.1,0,6.3,0,9.2-0.2
		l-0.1-2.1h-8.6c-1.3,0-1.9-0.6-1.9-2.1v-5.8h9.2V460h-9.2v-4.6C332.7,453.9,333.2,453.3,334.5,453.3z"/>
	<rect x="347.4" y="451" width="2.7" height="21.3"/>
	<path fill="#000000" d="M363.1,450.7c-2.9,0-5.4,0.1-7.6,0.3v21.3c2.2,0.2,4.7,0.3,7.6,0.3c6.1,0,8.3-2.7,8.3-11
		C371.5,453.4,369.3,450.7,363.1,450.7z M363.1,470.2c-1.8,0-3.5,0-4.9-0.1v-17c1.5,0,3-0.1,4.9-0.1c4.1,0,5.5,2.1,5.5,8.6
		S367.2,470.2,363.1,470.2z"/>
	<path fill="#000000" d="M391.7,460.9l-4.3-1.1c-1.9-0.5-2.7-1.1-2.7-3.5c0-3.2,1.2-3.2,4.3-3.2c2,0,4.2,0.1,6,0.2l0.2-2c-2.1-0.5-4.3-0.6-6.3-0.6
		c-4.8,0-6.9,0.6-6.9,5.6c0,3.2,1.1,5.2,4.2,5.9l4.4,1.1c1.9,0.5,2.7,1.1,2.7,3.5c0,2.9-1,3.4-4.3,3.4c-1.8,0-2.9,0-6.5-0.2l-0.2,2
		c2.9,0.5,5.2,0.6,6.6,0.6c5,0,7.1-0.9,7.1-5.8C396,463.6,395,461.7,391.7,460.9z"/>
	<path fill="#000000" d="M409.7,451.8c-0.1-0.5-0.5-0.7-1-0.7h-2.8c-0.5,0-0.9,0.3-1,0.7l-6.9,20.6h2.8l2.1-6.7h8.8l2.1,6.7h2.8L409.7,451.8z
		 M403.6,463.3l2.7-8.5l0.5-1.7h0.9c0.2,0.6,0.3,1.2,0.5,1.7l2.7,8.5H403.6z"/>
	<path fill="#000000" d="M423.9,453.3h8.6l0.1-2.1c-2.8-0.2-6.1-0.2-9.2-0.2c-2.5,0-4.1,1.4-4.1,3.7v14c0,2.3,1.6,3.7,4.1,3.7c3.1,0,6.3,0,9.2-0.2
		l-0.1-2.1h-8.6c-1.3,0-1.9-0.6-1.9-2.1v-5.8h9.2V460h-9.2v-4.6C422.1,453.9,422.6,453.3,423.9,453.3z"/>
	<path fill="#000000" d="M441.2,453.3h8.6l0.1-2.1c-2.8-0.2-6.1-0.2-9.2-0.2c-2.5,0-4.1,1.4-4.1,3.7v14c0,2.3,1.6,3.7,4.1,3.7c3.1,0,6.3,0,9.2-0.2
		l-0.1-2.1h-8.6c-1.3,0-1.9-0.6-1.9-2.1v-5.8h9.2V460h-9.2v-4.6C439.4,453.9,440,453.3,441.2,453.3z"/>
	<path fill="#000000" d="M461.8,450.7c-2.9,0-5.4,0.1-7.6,0.3v21.3c2.2,0.2,4.7,0.3,7.6,0.3c6.1,0,8.3-2.7,8.3-11
		C470.1,453.4,467.9,450.7,461.8,450.7z M461.8,470.2c-1.8,0-3.5,0-4.9-0.1v-17c1.5,0,3-0.1,4.9-0.1c4.1,0,5.5,2.1,5.5,8.6
		S465.8,470.2,461.8,470.2z"/>
</g>
<path fill="#000000" d="M273.602,481.306c-0.578-0.576-1.301-1.03-2.174-1.362c-0.873-0.331-1.885-0.497-3.039-0.497
	c-0.663,0-1.463,0.079-2.4,0.238v-6.077h-1.535v17.711c0.706,0.202,1.402,0.354,2.087,0.454s1.301,0.151,1.849,0.151
	c1.153,0,2.166-0.162,3.039-0.486s1.596-0.764,2.174-1.319c0.576-0.555,1.006-1.211,1.287-1.968s0.42-1.561,0.42-2.411
	s-0.139-1.657-0.42-2.422C274.608,482.554,274.178,481.883,273.602,481.306z M272.391,489.167c-0.852,0.829-2.17,1.243-3.958,1.243
	c-0.39,0-0.805-0.032-1.244-0.097c-0.439-0.065-0.84-0.134-1.2-0.206v-8.845c0.447-0.115,0.887-0.194,1.319-0.237
	c0.433-0.044,0.808-0.065,1.125-0.065c0.894,0,1.668,0.112,2.325,0.335c0.656,0.224,1.199,0.545,1.633,0.963
	c0.432,0.418,0.752,0.919,0.961,1.503s0.314,1.243,0.314,1.979C273.667,487.195,273.241,488.338,272.391,489.167z M247.392,479.446
	c-0.62,0-1.297,0.079-2.033,0.238c-0.735,0.158-1.485,0.433-2.249,0.821l-0.065,1.73c0.548-0.303,0.973-0.52,1.276-0.649
	s0.624-0.237,0.962-0.324c0.338-0.086,0.677-0.158,1.016-0.216s0.667-0.087,0.984-0.087c1.139,0,1.982,0.249,2.53,0.746
	s0.822,1.33,0.822,2.498v0.13c-0.332-0.044-0.732-0.087-1.2-0.13c-0.469-0.043-0.876-0.065-1.222-0.065
	c-1.831,0-3.302,0.311-4.412,0.931c-1.11,0.619-1.665,1.644-1.665,3.07c0,0.707,0.155,1.305,0.465,1.795
	c0.31,0.49,0.713,0.88,1.211,1.168s1.067,0.497,1.708,0.627c0.641,0.13,1.308,0.194,2,0.194c0.807,0,1.6-0.072,2.378-0.216
	c0.779-0.145,1.536-0.368,2.271-0.671v-7.028c0-1.585-0.397-2.742-1.189-3.471C250.189,479.811,248.992,479.446,247.392,479.446z
	 M250.636,489.892c-0.375,0.144-0.858,0.267-1.449,0.367c-0.591,0.102-1.183,0.151-1.773,0.151c-0.505,0-0.984-0.035-1.438-0.108
	c-0.454-0.071-0.84-0.197-1.157-0.378c-0.317-0.18-0.57-0.414-0.757-0.703c-0.188-0.288-0.281-0.663-0.281-1.124
	c0-0.52,0.111-0.934,0.335-1.244c0.224-0.31,0.533-0.551,0.93-0.724c0.396-0.174,0.85-0.296,1.362-0.368
	c0.511-0.072,1.041-0.108,1.589-0.108c0.476,0,0.984,0.029,1.524,0.087c0.541,0.058,0.912,0.108,1.114,0.151V489.892z
	 M258.032,479.868c-0.649,0.122-1.276,0.263-1.881,0.422v11.418h1.535v-10.186c0.202-0.072,0.563-0.147,1.082-0.228
	c0.519-0.079,1.002-0.118,1.449-0.118h1.989v-1.492H260C259.336,479.685,258.681,479.746,258.032,479.868z M-77.92,487.667
	l241.145,0.656l0.663-0.433l-0.632-0.564L-77.92,487.667z M164.994,487.825l1.95,1.95l1.95-1.95l-1.95-1.95L164.994,487.825z
	 M169.559,487.825l3.057,3.057l3.057-3.057l-3.057-3.057L169.559,487.825z M212.359,489.286l-3.395-9.602h-1.514l-3.396,9.602
	l-2.984-9.602h-1.73l3.979,12.023h1.428l3.46-9.645l3.46,9.645h1.427l3.979-12.023h-1.73L212.359,489.286z M238.418,489.589
	c-0.317,0-0.591,0.115-0.822,0.346c-0.231,0.23-0.346,0.505-0.346,0.822c0,0.316,0.115,0.591,0.346,0.821
	c0.23,0.23,0.504,0.346,0.822,0.346c0.317,0,0.591-0.115,0.822-0.346c0.23-0.23,0.346-0.505,0.346-0.821
	c0-0.317-0.116-0.592-0.346-0.822C239.009,489.704,238.735,489.589,238.418,489.589z M193.243,489.286l-3.395-9.602h-1.514
	l-3.396,9.602l-2.984-9.602h-1.73l3.979,12.023h1.428l3.46-9.645l3.46,9.645h1.427l3.979-12.023h-1.73L193.243,489.286z
	 M231.476,489.286l-3.395-9.602h-1.514l-3.396,9.602l-2.984-9.602h-1.73l3.979,12.023h1.428l3.46-9.645l3.46,9.645h1.427
	l3.979-12.023h-1.73L231.476,489.286z M382.732,480.474c-0.426-0.396-0.938-0.667-1.535-0.812c-0.598-0.144-1.271-0.216-2.021-0.216
	c-0.664,0-1.393,0.09-2.184,0.271c-0.793,0.181-1.471,0.4-2.033,0.659c-0.346-0.331-0.818-0.569-1.416-0.714
	c-0.6-0.144-1.273-0.216-2.023-0.216c-0.635,0-1.268,0.058-1.902,0.173l-2.465,0.454v11.635h1.535v-10.38
	c0.447-0.102,0.883-0.188,1.309-0.26c0.424-0.072,0.896-0.108,1.416-0.108c0.605,0,1.125,0.058,1.557,0.173
	c0.434,0.116,0.789,0.321,1.07,0.616c0.281,0.296,0.494,0.711,0.639,1.244s0.217,1.24,0.217,2.119v6.596h1.535v-7.201
	c0-0.663-0.055-1.243-0.162-1.741c-0.109-0.497-0.213-0.861-0.314-1.092c0.086-0.043,0.281-0.119,0.584-0.228
	c0.303-0.107,0.602-0.197,0.898-0.27c0.295-0.072,0.586-0.126,0.875-0.162s0.547-0.055,0.779-0.055c0.59,0,1.102,0.058,1.535,0.173
	c0.432,0.116,0.781,0.317,1.049,0.605c0.266,0.289,0.471,0.703,0.615,1.244c0.145,0.54,0.217,1.251,0.217,2.13v6.596h1.535v-7.201
	c0-0.995-0.111-1.816-0.336-2.466C383.482,481.393,383.158,480.87,382.732,480.474z M280.1,474.581
	c-0.785,0.648-1.18,1.729-1.18,3.243v1.86h-2.551v1.492h2.551v10.531h1.537v-10.531h4.973v-1.492h-4.973v-1.471
	c0-0.635,0.045-1.149,0.141-1.546c0.094-0.396,0.24-0.707,0.443-0.931c0.201-0.223,0.475-0.385,0.82-0.486
	c0.346-0.101,0.779-0.151,1.299-0.151h2.422v-1.492h-2.271C281.956,473.607,280.885,473.932,280.1,474.581z M398.273,487.825
	l3.057,3.057l3.057-3.057l-3.057-3.057L398.273,487.825z M343.322,482.322c0.389-0.418,0.854-0.749,1.395-0.994
	s1.135-0.368,1.783-0.368c0.736,0,1.373,0.076,1.914,0.228s1.121,0.414,1.74,0.789l0.715-1.405c-0.707-0.39-1.393-0.674-2.055-0.854
	c-0.664-0.181-1.436-0.271-2.314-0.271c-0.85,0-1.639,0.155-2.367,0.465c-0.729,0.311-1.367,0.746-1.914,1.309
	c-0.549,0.563-0.98,1.222-1.297,1.979c-0.317,0.757-0.476,1.59-0.476,2.498s0.158,1.74,0.476,2.497
	c0.316,0.757,0.748,1.413,1.297,1.969c0.547,0.555,1.186,0.987,1.914,1.297c0.729,0.311,1.518,0.465,2.367,0.465
	c0.879,0,1.65-0.09,2.314-0.27c0.662-0.181,1.348-0.466,2.055-0.854l-0.715-1.406c-0.619,0.375-1.199,0.639-1.74,0.79
	s-1.178,0.227-1.914,0.227c-0.648,0-1.242-0.119-1.783-0.356c-0.541-0.238-1.006-0.565-1.395-0.984
	c-0.391-0.418-0.693-0.915-0.908-1.492c-0.217-0.576-0.324-1.203-0.324-1.881s0.107-1.305,0.324-1.882
	C342.628,483.238,342.931,482.741,343.322,482.322z M404.387,487.825l1.949,1.95l1.951-1.95l-1.951-1.95L404.387,487.825z
	 M410.701,487.326l-0.664,0.433l0.633,0.564l241.176-0.341L410.701,487.326z M362.611,481.295c-0.549-0.569-1.193-1.02-1.936-1.352
	c-0.742-0.331-1.547-0.497-2.412-0.497c-0.863,0-1.668,0.166-2.41,0.497c-0.742,0.332-1.389,0.782-1.936,1.352
	c-0.549,0.57-0.977,1.229-1.287,1.979c-0.311,0.749-0.465,1.557-0.465,2.422s0.154,1.672,0.465,2.422s0.738,1.409,1.287,1.979
	c0.547,0.569,1.193,1.017,1.936,1.341s1.547,0.486,2.41,0.486c0.865,0,1.67-0.162,2.412-0.486s1.387-0.771,1.936-1.341
	c0.547-0.569,0.977-1.229,1.287-1.979c0.309-0.75,0.465-1.557,0.465-2.422s-0.156-1.673-0.465-2.422
	C363.587,482.524,363.158,481.865,362.611,481.295z M362.394,487.523c-0.217,0.569-0.52,1.067-0.908,1.492
	c-0.389,0.426-0.857,0.765-1.406,1.017c-0.547,0.252-1.152,0.378-1.816,0.378c-0.662,0-1.268-0.126-1.816-0.378
	c-0.547-0.252-1.016-0.591-1.404-1.017c-0.391-0.425-0.693-0.923-0.908-1.492c-0.217-0.569-0.324-1.179-0.324-1.827
	c0-0.649,0.107-1.262,0.324-1.839c0.215-0.576,0.518-1.077,0.908-1.503c0.389-0.425,0.857-0.764,1.404-1.016
	c0.549-0.252,1.154-0.379,1.816-0.379c0.664,0,1.27,0.127,1.816,0.379c0.549,0.252,1.018,0.591,1.406,1.016
	c0.389,0.426,0.691,0.927,0.908,1.503c0.217,0.577,0.324,1.189,0.324,1.839C362.718,486.345,362.611,486.954,362.394,487.523z
	 M296.221,481.295c-0.547-0.569-1.191-1.02-1.936-1.352c-0.742-0.331-1.545-0.497-2.41-0.497s-1.67,0.166-2.412,0.497
	c-0.742,0.332-1.387,0.782-1.936,1.352c-0.547,0.57-0.977,1.229-1.285,1.979c-0.311,0.749-0.465,1.557-0.465,2.422
	s0.154,1.672,0.465,2.422c0.309,0.75,0.738,1.409,1.285,1.979c0.549,0.569,1.193,1.017,1.936,1.341s1.547,0.486,2.412,0.486
	s1.668-0.162,2.41-0.486c0.744-0.324,1.389-0.771,1.936-1.341c0.549-0.569,0.977-1.229,1.287-1.979s0.465-1.557,0.465-2.422
	s-0.154-1.673-0.465-2.422C297.198,482.524,296.77,481.865,296.221,481.295z M296.006,487.523c-0.217,0.569-0.52,1.067-0.908,1.492
	c-0.391,0.426-0.859,0.765-1.406,1.017c-0.549,0.252-1.154,0.378-1.816,0.378c-0.664,0-1.27-0.126-1.816-0.378
	c-0.549-0.252-1.018-0.591-1.406-1.017c-0.389-0.425-0.691-0.923-0.908-1.492s-0.324-1.179-0.324-1.827
	c0-0.649,0.107-1.262,0.324-1.839c0.217-0.576,0.52-1.077,0.908-1.503c0.389-0.425,0.857-0.764,1.406-1.016
	c0.547-0.252,1.152-0.379,1.816-0.379c0.662,0,1.268,0.127,1.816,0.379c0.547,0.252,1.016,0.591,1.406,1.016
	c0.389,0.426,0.691,0.927,0.908,1.503c0.215,0.577,0.324,1.189,0.324,1.839C296.331,486.345,296.221,486.954,296.006,487.523z
	 M309.381,480.463c-0.455-0.39-0.996-0.656-1.623-0.801c-0.627-0.144-1.309-0.216-2.043-0.216c-0.707,0-1.465,0.047-2.271,0.141
	s-1.701,0.234-2.682,0.422v11.699h1.535v-10.402c1.184-0.23,2.293-0.346,3.33-0.346c0.592,0,1.111,0.062,1.559,0.184
	c0.445,0.123,0.818,0.332,1.113,0.628c0.295,0.295,0.525,0.713,0.691,1.254s0.25,1.251,0.25,2.13v6.553h1.535v-7.201
	c0-0.995-0.119-1.82-0.357-2.477C310.18,481.375,309.834,480.852,309.381,480.463z M318.516,490.054
	c-0.346-0.108-0.619-0.277-0.82-0.509c-0.203-0.23-0.35-0.547-0.443-0.951c-0.096-0.403-0.141-0.922-0.141-1.557v-5.86h4.973v-1.492
	h-4.973v-4.347h-1.537v4.347h-2.551v1.492h2.551v6.466c0,0.764,0.109,1.405,0.326,1.925c0.215,0.519,0.525,0.937,0.93,1.254
	c0.402,0.317,0.867,0.544,1.395,0.682c0.525,0.137,1.105,0.205,1.74,0.205h2.271v-1.492h-2.422
	C319.295,490.216,318.862,490.162,318.516,490.054z M337.784,489.589c-0.316,0-0.59,0.115-0.82,0.346s-0.346,0.505-0.346,0.822
	c0,0.316,0.115,0.591,0.346,0.821s0.504,0.346,0.82,0.346c0.318,0,0.592-0.115,0.822-0.346s0.346-0.505,0.346-0.821
	c0-0.317-0.115-0.592-0.346-0.822S338.102,489.589,337.784,489.589z M333.178,486.106c-0.346-0.303-0.785-0.565-1.318-0.789
	c-0.533-0.223-1.182-0.422-1.947-0.595l-0.799-0.173c-1.053-0.216-1.781-0.461-2.184-0.735c-0.404-0.273-0.607-0.678-0.607-1.211
	c0-0.504,0.238-0.904,0.715-1.2c0.475-0.295,1.174-0.443,2.098-0.443c0.793,0,1.477,0.076,2.055,0.228
	c0.576,0.151,1.217,0.421,1.924,0.811l0.691-1.405c-1.412-0.765-2.969-1.146-4.67-1.146c-0.635,0-1.223,0.076-1.764,0.228
	c-0.539,0.151-1.008,0.364-1.404,0.638s-0.711,0.605-0.941,0.994c-0.23,0.39-0.346,0.815-0.346,1.276
	c0,0.462,0.072,0.88,0.217,1.254c0.143,0.375,0.381,0.707,0.713,0.995s0.758,0.537,1.275,0.746c0.52,0.209,1.146,0.4,1.883,0.573
	l0.908,0.194c1.008,0.217,1.729,0.49,2.162,0.822c0.432,0.331,0.648,0.771,0.648,1.318c0,0.39-0.086,0.707-0.26,0.952
	c-0.172,0.245-0.414,0.436-0.725,0.573c-0.311,0.137-0.678,0.237-1.102,0.303c-0.426,0.064-0.877,0.097-1.352,0.097
	c-0.592,0-1.223-0.09-1.893-0.271c-0.67-0.18-1.352-0.479-2.045-0.897l-0.734,1.471c0.779,0.433,1.539,0.742,2.281,0.93
	s1.539,0.281,2.391,0.281c0.748,0,1.434-0.072,2.053-0.216c0.621-0.145,1.158-0.36,1.611-0.648c0.455-0.289,0.805-0.649,1.049-1.082
	c0.246-0.433,0.369-0.93,0.369-1.492c0-0.476-0.072-0.915-0.217-1.318C333.77,486.763,333.526,486.41,333.178,486.106z"/>
</svg>

