<?xml version="1.0" encoding="utf-8"?>
<!-- Generator: Adobe Illustrator 21.0.0, SVG Export Plug-In . SVG Version: 6.00 Build 0)  -->
<svg version="1.1" id="Layer_1" xmlns="http://www.w3.org/2000/svg" xmlns:xlink="http://www.w3.org/1999/xlink" x="0px" y="0px"
	 viewBox="0 0 800 500" style="enable-background:new 0 0 800 500;" xml:space="preserve">
<g>
	<path fill="#000000" d="M542.2,321.1c-5.9-2.1-11.8-4.2-17.7-6.3c-0.6-0.2-3.9,16.7-4.1,18.1c-0.3,1.6-3.9,17.8-2.3,18.4
		c5.4,1.9,10.7,3.9,16.1,5.8c2.8,1,10.1,2.3,10.6,6.3c0.2,2,1.1-1.9,1-1.7c1-3.5,1.7-7.2,2.3-10.8c0.9-4.7,1.7-9.4,2.4-14.1
		c0.4-2.7,1.2-5.8,0.9-8.5C550.9,323.4,546.1,322.5,542.2,321.1z"/>
	<path fill="#000000" d="M307.1,372.2c0.2,2,1.1-1.9,1-1.7c1-3.5,1.7-7.2,2.3-10.8c0.9-4.7,1.7-9.4,2.4-14.1c0.4-2.7,1.2-5.8,0.9-8.5
		c-0.5-4.8-5.4-5.7-9.3-7.1c-5.9-2.1-11.8-4.2-17.7-6.3c-0.6-0.2-3.9,16.7-4.1,18.1c-0.3,1.6-3.9,17.8-2.3,18.4
		c5.4,1.9,10.7,3.9,16.1,5.8C299.3,367,306.6,368.3,307.1,372.2z"/>
	<path fill="#000000" d="M576,354.6c-5.9-2.1-11.8-4.2-17.7-6.3c-0.6-0.2-3.9,16.7-4.1,18.1c-0.3,1.6-3.9,17.8-2.3,18.4c5.4,1.9,10.7,3.9,16.1,5.8
		c2.8,1,10.1,2.3,10.6,6.3c0.2,2,1.1-1.9,1-1.7c1-3.5,1.7-7.2,2.3-10.8c0.9-4.7,1.7-9.4,2.4-14.1c0.4-2.7,1.2-5.8,0.9-8.5
		C584.8,356.9,579.9,356,576,354.6z"/>
	<path fill="#000000" d="M767.4,205.2c-23.3-1-47.2-1.9-69.9,4.4c-6.1,1.7-12,4-17.7,6.5c0.5-5.7,1-11.3,1.3-17c0.4-6.9,0.7-13.9,0.7-20.8
		c0-1.9,0.3-4.9-2.4-4.9c-2.9,0.1-6.6,2.8-9.1,4.1c-11.3,5.9-22,13-32.2,20.7c-6.2,4.6-12.6,9.3-18,15
		c-11.1,11.7-17.3,28.3-16.9,44.4c0.1,3.9,0.6,7.9,1.5,11.6c1.6,6,7.8,7.4,13.3,6.5c7.6-1.2,14.5-5.6,21.2-9.2
		c8.5-4.6,16.8-9.5,25.4-13.9c-7.3,7.1-14.9,13.8-22.4,20.6c-7.2,6.6-14.2,13.8-22.4,19c-13.6,8.5-32.8,11.5-47,2.5
		c-3.1-2-5.9-4.5-7.7-7.8c-0.5-1-1-2.1-1.5-3.2c3.6-2.3,7-4.7,10.1-7.4c3.3-2.8,6.3-5.9,8.8-9.5c18.8-22.1,11.6-54.1,11.6-54.1
		c0-0.3-0.1-0.6-0.2-1c-1.1-5.7-4.1-10.4-8.1-14.5c-8.8-8.9-20.2-15.2-30.7-21.9c-11.4-7.2-22.9-15-31.3-25.7
		c-2.8-3.6-5.2-7.6-7.1-11.8c-1.3-3.6-2.2-7.3-2.8-10.8c44.2-22.8,90.9-45.1,141.2-46.4c27.7-0.7,61.6,8.9,72.8,37.3
		c0.1,0.3,0.9,3,1.1,1.4c0.2-2-1.2-5.6-1.6-7.3c-1.9-7.1-3.8-14.4-6.5-21.2c-21-53-89.5-44.3-133.1-30.8
		c-43.6,13.5-83.1,36.6-123.8,56.8c-3.7-4.9-7.8-9.6-12.2-13.9c-7.7-7.6-16.2-14.3-24.1-21.7c-8.7-8.1-16.7-17-21.6-28
		c0,0-1.4,4.6-1.4,4.6c-0.9,3.7-1.6,7.5-2.2,11.2c-0.7,3.8-1.3,7.5-1.8,11.3c-0.2,1.3-0.8,3.5-0.3,4.8c8.1,18.3,24.4,30.4,38.9,43.4
		c-11.8,5.3-25.9,12.8-39.2,8.8c-6.4-1.9-12.1-6.1-15.7-11.7c-4.3-6.7-5.3-15-8.3-22.3c-0.2-0.5-1.7-3.1-1.5-3.5
		c-0.1,0.2-0.1,0.5-0.1,0.8c-1.6,9.2,0.9,18.4,3.8,27c2.8,8.3,5.3,17.2,10.4,24.5c6.9,10,17.7,18.2,30.4,17.4
		c13.1-0.8,26-8.1,37.6-13.6c1.7-0.8,3.3-1.6,4.9-2.3c6.9,10,12.3,21,16,32.8c3,9.7,4.8,19.7,5.3,29.8c-9.8-1.4-19.8-1.7-29.6-0.8
		c-9.8,0.9-19,4-25.9,10.6c0,0-0.1,0.1-0.1,0.1c-1.5,1.4-2.8,3-4,4.7c-1,1.4-1.8,2.8-2.6,4.2c-16,26.7-12.3,66.6-12.3,66.6h0
		c0.4,5.7,1.5,11.3,3.4,16.9c3.9,11.4,10.8,21.3,19.3,29.8c17.5,17.7,40.3,28.5,61,41.9c22,14.3,44.3,34.2,47.7,61.8
		c0.2,1.7,0.9-1.6,0.9-1.5c0.9-3.1,1.5-6.3,2-9.5c0.8-4.1,1.5-8.2,2.1-12.3c0.3-2.3,1.1-5.1,0.8-7.4c-6.1-48.7-58.8-66.1-93-91.3
		c-11.6-8.5-22.4-18.9-29.6-31.3c-16-30.5,1.3-43.2,5.9-45.9c4.2-2.3,8.8-3.9,13.7-4.7c-1,5-1.8,10-2.5,14.9
		c-1.7,11.3-2,22.3,3.4,32.8c5,9.6,13.7,16.3,24.4,18.2c12.3,2.3,25-1,36.8-4.5c12.5-3.7,24.8-8.4,36.6-13.9
		c2.5-1.2,5.1-2.4,7.6-3.7c0.3,5.2,1.3,10.3,3.1,15.2c3.1,8.3,8.6,15.8,16.4,20.2c7.9,4.5,17.3,5.5,26.2,4.1
		c21-3.3,35.6-20.5,50.6-34.1c7.9-7.3,16-14.4,23-22.5c-1.2,5.6-2.2,11.3-3,16.9c-0.3,2.2-1.2,5.2-0.8,7.4c0.3,1.6,0.8-1.3,0.9-1.5
		c2.3-8.9,4.3-17.8,6.2-26.8c5.8-7.1,11.4-14.2,19-19.5c20.8-14.3,47.1-14.4,71.3-14.2c1.3,0,3.4-14.4,3.6-15.8
		C765.6,220.1,768,205.2,767.4,205.2z M558.5,257.8c0-0.9-0.1-1.9-0.1-2.8c-0.2-7.3-0.1-15,1-22.3c0.3-1.9,0.5-3.7,0.7-5.6
		c0.2-1.4,0-2,0-2c0-0.1,0-0.2-0.1-0.2c0,0-0.1,0.1-0.2,0.5c-0.9,2-1.7,4.9-2.4,8.3c-0.5,2-1.1,4.3-1.7,6.8c-1.7,7-3.1,14-4.3,21.1
		c-8.8,4.3-17.8,8.2-27,11.5c-11.5,4.1-23.6,8.1-35.8,9.4c-12.1,1.3-24.6-0.8-33.4-9.9c-3.6-3.8-6.4-8.4-8.2-13.3
		c-1-2.7-1.7-5.5-2.1-8.3c-0.1-1-0.2-2.1-0.3-3.1c26.5-3.7,55,3,78.5,15.3c0.3,0,3.2-13.3,3.2-13.7c1-5.7,2.5-11.8,2.5-17.6
		c0.1-10-4.3-19.8-12.3-25.9c-8.1-6.1-18.8-7.6-28.3-4.5c0.4-2.6,0.7-5.2,0.7-7.8c0.2-16.7-3-33.4-9.3-48.8
		c5.3-2.7,10.6-5.4,15.9-8.1c4-2.1,8-4.1,12-6.2c-0.1,0.6-0.1,1-0.2,1.1c-1.4,9.8-1.9,19.7,0.6,29.3c2.8,11,9,20.5,17.1,28.3
		c8.5,8.2,18.5,14.4,28.4,20.6c9.8,6.2,20.7,12.3,28.4,21.2c0,0,4.3,6.5-0.7,11.9C574.5,249,566.4,253.5,558.5,257.8z M676.2,215.4
		c-0.1,1.3-0.2,2.5-0.4,2.5c-13.4,6.4-26,14.3-39.3,21c-5,2.5-14.5,6.8-20.7,4.8c1.6-1.6,3.3-3.1,5.1-4.5
		c8.5-7.1,17.5-13.7,26.7-19.8c4.8-3.1,9.7-6.1,14.7-8.8c2.3-1.3,11.2-7.4,13.4-4.5C677.6,208.8,676.4,212.4,676.2,215.4z"/>
	<path fill="#000000" d="M395.8,173.2c-7.1-2.6-12.7,2.1-13.2,6c-0.5,3.9,2.7,6.5,5.6,6.3c3-0.2,5.3-2.2,5-5.2c-0.2-3-2-3.1-2-3.1
		c6.5-1.7,11.8,5.2,9,9.8c-2.8,4.7-9.2,6.6-17,3.8c-7.8-2.8-13.6-2.5-17.8,3c-2.9,3.8-2.5,7.1-2.5,7.1c8-8.7,13.6-6.7,22-3.7
		c8.4,3.1,17,0.7,19.1-7.3C406.1,181.8,402.9,175.8,395.8,173.2z"/>
	<path fill="#000000" d="M65.6,198.8c2.1,8.7,8.8,14.5,16.6,11.9c7.8-2.6,11.1-8.6,9.3-16c-1.8-7.4-8.8-9.5-12.3-7.7c-3.5,1.7-3.9,5.8-2.1,8.2
		c1.8,2.3,4.7,3.2,7.1,1.3c2.4-1.9,1.5-3.4,1.5-3.4c5,4.5,2.2,12.7-3.2,12.9c-5.4,0.3-10.6-4-12.5-12.1c-2-8-5.5-12.7-12.3-13.2
		c-4.7-0.3-7.3,1.8-7.3,1.8C62,184.3,63.5,190.1,65.6,198.8z"/>
	<path fill="#000000" d="M228.3,112.3c-0.9,2.8,0.7,2.7,1.7,0.5c6.7-15,8.4-32.6-2.2-49.9c-0.6,1.9-2.7,6.4-3.5,8.6
		C231.5,84.3,232.4,99.7,228.3,112.3z"/>
	<path fill="#000000" d="M442.7,173.1c-0.3-0.2-0.7-0.5-1-0.7c-1.6,2.2-3.5,4.2-4.8,6.5c-3.8,6.6-7.9,13.1-10.8,20.1c-3.2,7.9,1.6,14.6,9.9,14.9
		c7.3,0.2,12-2.7,14.7-9.5c3.8-9.4,3.2-12.8-3.3-18.8c-8-7.3-6.5-7.4-11.7,2.1c-0.1,0.2,0,0.5,0,0.6c4.3,4.4,9.8,7.5,12.2,14
		c-1.7,0.6-3,1.2-4.4,1.5c-4.3,0.9-9,1-11.7-2.8c-2.6-3.6-1.3-7.8,1-11.6C436.1,184,439.4,178.6,442.7,173.1z"/>
	<path fill="#000000" d="M386.3,54.3c0,0-10.4-1.6-16.6-0.7c-7.4,1.1-7.1,2.5-8.6,6.6c-1.4,4.1-1.2,7.3-1.2,7.3c4.8-4.1,7.9-3.2,7.9-3.2l12-0.2
		c0,0,1.2-2.9-0.5,1.2c-1.8,4.1-19.5,14.6-19.5,14.6l-0.9,1.8c0,0,14.8-5.7,18.9-9.6C387.4,63,386.3,54.3,386.3,54.3z"/>
	<path fill="#000000" d="M387.5,284.2c-2.8-0.2-6.3,4.9-6.9,8.5c-0.6,3.6-1.8,12.5-5.1,16.9c-3.3,4.4-13.4,17.2-19.8,23c0,0-23.8,22.5-23.8,22.8
		c0.4-0.1,19.3-11.7,27.5-20.2c5.3-5.5,18-17.2,21-31.4c0.2-1,0.4-1.9,0.6-2.7c1.6-0.3,4.2-0.5,6.8-0.1c3.8,0.6,7.3-2,7.1-6.6
		C394.8,289.6,390.3,284.4,387.5,284.2z M389.6,294c-2.1,3.1-5.3,1.6-6.7,0.7c1.6-4,2.7-2.9,2.7-2.9S390.9,292,389.6,294z"/>
	<path fill="#000000" d="M626.6,130c-4.3-1.6-7.7-0.9-9.5,4c-4.6,12.7-6.5,23.8-6.7,38c-0.4,3.8-1.2,2.7-2,0.4c-4.6-14-14.3-27.7-25.8-34.9
		c-4.6-2.9-5.5-3.5-6.4,2l-1.1,6.8c-0.5,4.3-0.3,4.5,1.7,6.9c0.6,0.7,3.2,3,5.2,4.2c5.3,3.2,2.3,0.8,6.3-0.1
		c1.3-0.3,4.5,3.8,9.7,12.7c4.6,8.3,7.2,14.2,8.4,17.5c2.3,5.8,4.6,3.5,5.2-0.8c0.3-1.7,0.6-3.7,0.9-5.8c1.5-10.4,1.3-20.8,3.3-31.1
		c1.2-5.9,5.3-10.3,10.3-5.7c2.3,2.1,4.4,3.2,5.8-1.7c0.3-1,0.6-3.1,0.9-5c0.4-2.7,1.1-4.8-1.8-5.8L626.6,130z"/>
	<path fill="#000000" d="M62.2,159c2.2,1.3,0.9,0.3,2.5,0c0.5-0.1,1.8,1.5,3.9,5.1c1.9,3.4,2.9,5.8,3.4,7.1c0.9,2.4,1.9,1.4,2.1-0.3
		c0.1-0.7,0.2-1.5,0.3-2.3c0.6-4.2,0.5-8.4,1.3-12.6c0.5-2.4,2.1-4.2,4.2-2.3c0.9,0.8,1.8,1.3,2.3-0.7c0.1-0.4,0.2-1.3,0.4-2
		c0.2-1.1,0.4-1.9-0.7-2.4l-1.8-0.7c-1.7-0.7-3.1-0.4-3.8,1.6c-1.9,5.2-2.7,9.6-2.7,15.4c-0.1,1.5-0.5,1.1-0.8,0.2
		c-1.9-5.7-5.8-11.2-10.5-14.2c-1.9-1.2-2.2-1.4-2.6,0.8l-0.4,2.8c-0.2,1.7-0.1,1.8,0.7,2.8C60.4,157.6,61.4,158.5,62.2,159z"/>
	<path fill="#000000" d="M301.9,418h21.5c1.6,0,2.8-0.4,3.6-1.1c0.8-0.8,1.1-2,1.1-3.7v-20.6c0-0.3-0.2-0.5-0.5-0.5h-1.6c-0.3,0-0.5,0.2-0.5,0.5
		v20.6c0,0.9-0.2,1.5-0.5,1.9c-0.3,0.3-0.9,0.5-1.7,0.5h-22.1c-0.8,0-1.3-0.2-1.6-0.5c-0.3-0.4-0.5-1-0.5-1.8v-9.9
		c0-0.3-0.2-0.5-0.5-0.5h-1.6c-0.3,0-0.5,0.2-0.5,0.5v9.9c0,1.8,0.4,3.1,1.2,3.8C298.7,417.7,300,418,301.9,418z"/>
	<path fill="#000000" d="M314.2,407.2c-0.1,0.1-0.3,0.2-0.7,0.2h-4.8c-0.3,0-0.5,0.2-0.5,0.5v0.8c0,0.3,0.2,0.4,0.5,0.4h4.8c1,0,1.6-0.2,2-0.5
		c0.4-0.3,0.6-1,0.6-2v-2.1c0-0.7-0.2-1.2-0.5-1.6c-0.3-0.4-0.9-0.6-1.8-0.6h-1l2.5-2.9c0.2-0.2,0.3-0.5,0-0.7l-0.7-0.6
		c-0.2-0.2-0.5-0.2-0.7,0.1l-3.6,4.2c-0.1,0.2-0.2,0.3-0.2,0.5v0.6c0,0.3,0.2,0.4,0.5,0.4h2.5c0.4,0,0.7,0.1,0.9,0.2
		c0.2,0.2,0.3,0.5,0.3,1v1.2C314.4,406.8,314.3,407,314.2,407.2z"/>
	<path fill="#000000" d="M338.7,396.5h-1.6c-0.3,0-0.5,0.1-0.5,0.4v20.2c0,1.3-0.3,2.3-1,2.9c-0.6,0.6-1.6,0.9-2.8,0.9h-1c-0.3,0-0.5,0.1-0.5,0.4
		v1.6c0,0.3,0.2,0.4,0.5,0.4h0.8c2.3,0,3.9-0.6,5-1.7c1-1.1,1.6-2.8,1.6-4.9V397C339.2,396.7,339,396.5,338.7,396.5z"/>
	<path fill="#000000" d="M370.2,424.8v-2.7c0-0.3-0.2-0.4-0.5-0.4h-2.3c-0.3,0-0.5,0.1-0.5,0.4v2.7c0,0.3,0.1,0.5,0.5,0.5h2.3
		C370.1,425.2,370.2,425.1,370.2,424.8z"/>
	<path fill="#000000" d="M394.9,401.5c-1.3-1.6-3.3-2.4-5.9-2.4c-5.3,0-7.9,3.4-7.9,10c0,0.4,0,0.8,0,1.2c0,0.4,0,0.8,0.1,1.1
		c0,0.8-0.1,1.4-0.3,1.9s-0.4,0.9-0.7,1.2c-0.3,0.3-0.6,0.5-0.9,0.6c-0.3,0.1-0.7,0.2-1,0.2h-4.2c-1.3,0-2.4-0.3-3.2-0.8
		c-0.8-0.6-1.2-1.4-1.2-2.5v-11.8c0-0.3-0.1-0.4-0.5-0.4h-1.6c-0.3,0-0.4,0.1-0.4,0.4v11.4c0,0.6,0,1.2-0.1,1.7
		c0,0.5-0.1,0.9-0.3,1.2c-0.1,0.3-0.4,0.5-0.7,0.7c-0.3,0.2-0.8,0.2-1.3,0.2h-14.4c-0.8,0-1.3-0.2-1.7-0.5c-0.4-0.3-0.6-1-0.6-1.9
		v-20.6c0-0.3-0.1-0.5-0.5-0.5h-1.6c-0.3,0-0.5,0.2-0.5,0.5v20.6c0,1.7,0.4,3,1.2,3.8c0.8,0.8,2.2,1.1,4.1,1.1h14.2
		c1.1,0,2-0.2,2.6-0.6c0.6-0.4,1.1-1,1.4-1.7c0.4,1,1.1,1.7,2,2c0.9,0.3,2,0.4,3.2,0.4c0,0,0,0,0,0h4.2c0.8,0,1.6-0.1,2.3-0.4
		c0.7-0.2,1.4-0.8,1.9-1.8c0.7,0.9,1.5,1.5,2.6,1.9c1.1,0.4,2.3,0.6,3.6,0.6c2.6,0,4.6-0.8,5.9-2.3c1.3-1.6,2-4,2-7.3
		C396.9,405.5,396.2,403.1,394.9,401.5z M393.1,414.1c-0.9,1.2-2.2,1.7-4.1,1.7s-3.2-0.6-4.1-1.7c-0.8-1.1-1.3-2.9-1.3-5.3
		c0-2.3,0.4-4,1.3-5.3c0.8-1.3,2.2-1.9,4.1-1.9s3.3,0.7,4.1,1.9c0.8,1.3,1.3,3,1.3,5.3C394.4,411.2,394,412.9,393.1,414.1z"/>
	<path fill="#000000" d="M445.1,425.4c0.3,0,0.5-0.2,0.5-0.5v-2.7c0-0.3-0.2-0.4-0.5-0.4h-2.3c-0.3,0-0.5,0.1-0.5,0.4v2.7c0,0.3,0.2,0.5,0.5,0.5
		H445.1z"/>
	<path fill="#000000" d="M450.9,425.4c0.3,0,0.5-0.2,0.5-0.5v-2.7c0-0.3-0.2-0.4-0.5-0.4h-2.3c-0.3,0-0.5,0.1-0.5,0.4v2.7c0,0.3,0.1,0.5,0.5,0.5
		H450.9z"/>
	<path fill="#000000" d="M476.9,415.5h-9.7c-0.3-0.1-0.7-0.2-1.3-0.5c-0.6-0.3-1.1-0.7-1.7-1.3c-0.6-0.6-1.1-1.3-1.5-2.2c-0.4-0.9-0.6-2-0.6-3.3
		c0-0.9,0.1-1.7,0.4-2.5c0.2-0.8,0.6-1.5,1.1-2.1c0.5-0.6,1.2-1.1,2-1.4c0.8-0.3,1.8-0.5,2.9-0.5c2.1,0,3.9,0.8,5.2,2.5
		c0.2,0.2,0.4,0.2,0.6,0l1.4-1c0.2-0.2,0.3-0.4,0.1-0.6c-0.8-1.1-1.8-1.9-2.9-2.5c-1.2-0.6-2.6-0.9-4.3-0.9c-2,0-3.6,0.3-4.8,1
		c-1.2,0.7-2.1,1.5-2.8,2.4c-0.6,0.9-1.1,2-1.3,3c-0.2,1.1-0.3,2-0.3,2.7c0,1.6,0.3,3.1,0.8,4.3c0.6,1.2,1.2,2.2,2,2.9h-8.9h-0.3
		c-1.3,0-2.4-0.3-3.2-0.8c-0.8-0.6-1.2-1.4-1.2-2.5v-11.8c0-0.3-0.2-0.4-0.5-0.4h-1.6c-0.3,0-0.5,0.1-0.5,0.4v11.4
		c0,0.6,0,1.2-0.1,1.7c0,0.5-0.1,0.9-0.3,1.2c-0.2,0.3-0.4,0.5-0.7,0.7c-0.3,0.2-0.8,0.2-1.4,0.2H430h-0.3c-1.3,0-2.4-0.3-3.2-0.9
		c-0.8-0.6-1.2-1.4-1.2-2.6v-5.4c0-1.3-0.2-2.5-0.5-3.5c-0.4-1-0.9-1.7-1.5-2.4c-0.7-0.6-1.5-1.1-2.4-1.4c-0.9-0.3-2-0.5-3.1-0.5h-6
		c-0.3,0-0.5,0.2-0.5,0.5v1.6c0,0.3,0.1,0.4,0.5,0.4h5.3c2,0,3.4,0.4,4.3,1.2c0.9,0.8,1.4,2.1,1.4,3.8v4.4c0,0.9,0,1.6-0.1,2.2
		c-0.1,0.6-0.3,1-0.6,1.4c-0.3,0.3-0.7,0.6-1.3,0.7c-0.6,0.2-1.3,0.2-2.2,0.2h-9c-0.3,0-0.5,0.1-0.5,0.4v1.6c0,0.3,0.2,0.4,0.5,0.4
		h9.9c1.4,0,2.4-0.2,3.3-0.6c0.8-0.4,1.5-1.1,1.9-2c0.4,1.1,1,1.8,2,2.1c1,0.3,2.1,0.5,3.4,0.5h14.1c1.1,0,2-0.2,2.6-0.7
		c0.6-0.4,1.1-1,1.4-1.7c0.4,1,1.1,1.7,2,2c0.9,0.3,2,0.4,3.2,0.4h23.5c0.3,0,0.5-0.1,0.5-0.4V416
		C477.3,415.7,477.2,415.5,476.9,415.5z"/>
	<polygon points="299.1,440.6 308.3,440.6 308.3,438.6 299.1,438.6 299.1,432.4 308.8,432.4 308.8,430.5 296.7,430.5 296.7,449 
		309,449 309,447.1 299.1,447.1 	"/>
	<rect x="313" y="430.5" width="2.4" height="18.5"/>
	<path fill="#000000" d="M326.9,430.5h-6.7V449h6.7c6.1,0,9.2-3.3,9.2-9.8C336.1,433.4,333,430.5,326.9,430.5z M326.9,447.1h-4.3v-14.6h4.3
		c4.5,0,6.8,2.3,6.8,6.8C333.7,444.5,331.5,447.1,326.9,447.1z"/>
	<polygon points="355.9,445.9 349.1,430.5 346.1,430.5 346.1,449 348.2,449 348.2,433.8 354.9,449 356.8,449 363.4,433.8 363.4,449 
		365.5,449 365.5,430.5 362.6,430.5 	"/>
	<path fill="#000000" d="M382.8,441.9c0,3.6-1.8,5.3-5.3,5.3c-3.5,0-5.3-1.8-5.3-5.3v-11.4h-2.4v11.4c0,4.9,2.6,7.3,7.7,7.3s7.7-2.4,7.7-7.3v-11.4
		h-2.4V441.9z"/>
	<path fill="#000000" d="M399.2,439.3c2.3-0.9,3.4-2.4,3.4-4.5c0-2.9-1.8-4.3-5.3-4.3h-7.9V449h7.6c3.9,0,5.8-1.8,5.8-5.5
		C402.9,441.2,401.7,439.8,399.2,439.3z M397,447.1h-5.1v-14.6h5.3c2,0,3,0.9,3,2.6c0,2.1-1.8,3.4-5.3,3.8v1.6h1
		c3,0,4.4,1.1,4.4,3.3C400.3,446,399.2,447.1,397,447.1z"/>
	<polygon points="412.7,430.5 404.8,449 407.3,449 413.9,432.8 417.4,441.2 412.7,441.2 412.1,443.2 418.2,443.2 420.6,449 
		423.2,449 415.3,430.5 	"/>
	<path fill="#000000" d="M439,434.9c0-3-1.8-4.4-5.3-4.4h-7.9V449h2.4v-16.5h5.3c2,0,3,0.9,3,2.6c0,2.2-1.8,3.5-5.3,4.1v1.6l5.9,8.3h3.2l-6.4-8.7
		C437.2,439.1,439,437.3,439,434.9z"/>
	<polygon points="448.7,430.5 440.8,449 443.3,449 449.9,432.8 453.4,441.2 448.7,441.2 448,443.2 454.2,443.2 456.6,449 459.2,449 
		451.3,430.5 	"/>
	<rect x="461.7" y="430.5" width="2.4" height="18.5"/>
	<polygon points="477.2,430.5 474.1,430.5 466.5,438.6 466.5,440.1 474,449 477.3,449 468.8,439.2 	"/>
	<path fill="#000000" d="M766.3,254.7c-1.4,0.4-2.8,0.8-4.1,1.3c-17.3,7.5-34.7,15-51.9,22.6c-4,1.8-8.1,3.9-11.4,6.7c-1.8,1.5-2.9,5-2.5,7.3
		c0.3,2,3.3,3.5,5,5.3c0.6-0.6,1.2-1.1,1.8-1.7c-1.6-2.1-3.2-4.2-5.3-7.1c3.3-1.9,6.4-4.2,9.8-5.7c18-7.9,36.1-15.6,54.1-23.5
		c2.1-0.9,3.9-2.4,5.8-3.7C767.1,255.8,766.7,255.3,766.3,254.7z"/>
	<path fill="#000000" d="M471.9,90.7c0.6-0.6,1.2-1.1,1.8-1.7c-1.6-2.1-3.2-4.2-5.3-7.1c3.3-1.9,6.4-4.2,9.8-5.7c18-7.9,36.1-15.6,54.1-23.5
		c2.1-0.9,3.9-2.4,5.8-3.7c-0.4-0.6-0.8-1.1-1.2-1.7c-1.4,0.4-2.8,0.8-4.1,1.3c-17.3,7.5-34.7,15-51.9,22.6c-4,1.8-8.1,3.9-11.4,6.7
		c-1.8,1.5-2.9,5-2.5,7.3C467.2,87.4,470.1,89,471.9,90.7z"/>
	<path fill="#000000" d="M402.7,217.6c-6.7,0.6-13.2,2.9-19.8,3.8c-6.9,1-13.8,0-20.5-1.7c-10.1-2.7-19.5-7.7-27.2-14.8c-0.1-0.2-1.2,3.9-1.4,4.6
		c0,0,0,0,0,0.1v0c0,0,0,0,0,0c-0.9,3.7-1.5,7.5-2.2,11.2c-0.7,3.8-1.3,7.5-1.8,11.3c-0.1,0.9-0.9,4.2-0.3,4.8
		c6.8,6.3,15,10.9,23.7,13.8c-3.1,4.2-6,8.5-8.8,12.8c-7,10.8-15.8,19.5-29,21.6c-5.9,0.9-12.2,0.3-16.2-4.6
		c-4.3-5.2-4.4-12.1-3.5-18.5c0-0.3,0.6-6.1-0.1-4.2c-5.2,14.4-11.2,29.9-25.9,36.9c-14.9,7.1-34,8.2-46.3-4.3
		c-2.4-2.4-4.3-5.1-6-7.9c15.6-11.3,30.6-23.7,45.8-35.4c12.4-9.6,24.8-19.2,37.2-28.7c10.2-7.9,21.5-18.8,35.4-17.8
		c1.2,0.1,3.5-14.8,3.7-16.2c0.2-1.2,2.7-16.4,2.1-16.5c-11.5-0.8-21,6.7-29.6,13.3c-10.7,8.2-21.3,16.5-32,24.7
		c-20.8,16-41.2,32.7-62.5,47.9c-1.6,1.2-3.3,2.3-4.9,3.4l-0.2-20.7c19.7-13.1,38-28.6,56.7-43.1c12.4-9.6,24.8-19.2,37.2-28.7
		c9.8-7.6,21.4-19.3,35-17.7c2.6-0.1,3.7-13.9,4.1-16.3c0.1-0.5,0.5-3.3,1-6.4c1-5.8,1.9-11.7,2.6-17.5c0.8-6.8,1.7-14,0.8-20.9
		c-0.7-5.4-2.5-10.9-7.3-14.1c-4.7-3.1-10.9-3.2-16.1-1.7c-6.7,1.9-12.5,6-18.3,9.6c-6.3,4-12.6,7.9-18.9,11.9
		c-12.6,8-25,16.1-37.5,24.3c-12.4,8.2-24.8,16.4-37.1,24.8c-1,0.7-2.1,1.4-3.1,2.1l-0.7-76.9l-3.5-5.3c0-1.7-0.8,1-0.9,1.5
		c0,0,0,0,0,0c0,0,0,0,0,0c-0.8,3.1-1.4,6.3-2,9.4c-1.2,6.4-2.9,13.2-2.9,19.7c0,10.1,0,34.3,0.1,58.4c-7.3,5.1-14.6,10.1-22.1,14.8
		c-10.8,6.7-22.7,12.2-35.6,12.6c-5.9,0.2-11.9-0.7-17.5-2.9c-7.3-2.9-13.8-7.6-15.4-15.7c-1.4-7,1.9-13.4,6.9-18.2
		c2.6-2.5,5.6-4.7,8.8-6.5c3.3-1.9,6.8-3.5,10.4-4.8c0.6-0.2,1.4-4.6,1.4-4.6c0.9-3.7,1.6-7.5,2.2-11.3c0.6-3.8,1.3-7.5,1.8-11.3
		c0.1-0.5,0.3-4.8,0.3-4.8c-10.1,3.8-19.6,9.8-26.6,18.1c0,0-0.1,0.1-0.3,0.4c-0.5,0.6-1,1.3-1.5,1.9c-0.7,1-1.4,2-2,3
		c-6.8,10.5-19.6,35.5-10.3,65.6c1.5,4.8,3.9,9.2,7.6,12.9c8.3,8.4,20.7,11.1,32.1,10c13-1.3,24.8-7.5,35.5-14.5
		c8.3-5.4,16.4-11,24.5-16.6c0,12.6,0,23.2,0,29.1v7c-33.9,18.8-73.7,29.3-111.9,21.1c-12-2.6-24-7.6-32.7-16.5
		c-3.9-4-7.1-8.6-9.4-13.7c-1-2.3-2-4.8-2.5-7.4c-0.4-2.3-0.3-7.2-0.1-10.2c0.1-0.8,0.2-1.7,0.1-2.5c0,0,0,0,0,0
		c0-0.6-0.1-1.1-0.2-1.7c-0.3-1.6-0.9,1.3-0.9,1.5c-0.9,3.2-1.5,6.5-2.1,9.7c-2.8,14.6-6.3,29.7,0.2,43.7
		c4.6,10,12.7,17.7,22.4,22.8c21.1,11.1,47.7,11,70.7,7.3c23.5-3.8,46-12.5,66.4-24.7c0,6.9,0.1,13.8,0.3,20.7
		c-35.2,21-77.5,33.3-118,24.6c-12-2.6-24-7.6-32.7-16.5c-3.9-4-7.1-8.6-9.4-13.7c-0.6-1.3-1.1-2.6-1.5-4c-0.1-0.5-1.6-6.4-1.2-14.8
		c0.1-0.8,0.2-1.5,0.1-2.2c0,0,0,0,0,0c0-0.3,0-0.5-0.1-0.8c-0.3-1.6-0.9,1.3-0.9,1.5c-0.9,3.2-1.5,6.5-2.1,9.7
		c-2.8,14.6-6.3,29.7,0.2,43.7c4.6,10,12.7,17.7,22.4,22.8c21.1,11.1,47.8,11,70.7,7.3c24.4-3.9,47.7-13.2,68.7-26.1
		c2-1.3,4-2.5,6-3.9c1.7,9.7,4.7,19.1,10.5,26.8c4.7,6.2,11.1,11,18.7,12.7c8.5,1.9,17.8,0.3,26-2.6c17.1-6,24.6-21.5,30.4-37.4
		c-1,8.7-0.9,18.6,6.7,23.7c8.3,5.6,20.9,1.2,28.4-3.9c8.8-5.9,13.6-15.4,19.4-24c5.9-8.8,12.8-17.2,21.1-23.9
		c4.3-3.4,9-6.7,14.2-8.8c5.7-2.3,11.9-2.6,17.6-4.9c0.6-0.3,1.4-4.5,1.4-4.6c0.9-3.7,1.6-7.5,2.2-11.3
		C400.9,232.6,402.8,217.6,402.7,217.6z M211.8,170.7c0.5-0.3,0.9-0.6,1.4-0.9c25.1-16.9,50.4-33.5,75.9-49.7
		c6.9-4.4,13.8-8.9,20.9-13.1c6-3.5,12.7-6.7,19.8-5.8c6.8,0.8,12.7,6.1,13.8,12.9c-0.1-0.8-6.7,1.8-7.4,2.1
		c-6.7,2.7-12.5,6.9-18.3,11.3c-10.6,8.2-21.3,16.5-32,24.7c-20.8,16-41.2,32.7-62.5,47.9c-3.6,2.6-7.4,5.1-11.3,7.5L211.8,170.7z"
		/>
</g>
<path fill="#000000" d="M273.602,481.306c-0.578-0.576-1.301-1.03-2.174-1.362c-0.873-0.331-1.885-0.497-3.039-0.497
	c-0.663,0-1.463,0.079-2.4,0.238v-6.077h-1.535v17.711c0.706,0.202,1.402,0.354,2.087,0.454s1.301,0.151,1.849,0.151
	c1.153,0,2.166-0.162,3.039-0.486s1.596-0.764,2.174-1.319c0.576-0.555,1.006-1.211,1.287-1.968s0.42-1.561,0.42-2.411
	s-0.139-1.657-0.42-2.422C274.608,482.554,274.178,481.883,273.602,481.306z M272.391,489.167c-0.852,0.829-2.17,1.243-3.958,1.243
	c-0.39,0-0.805-0.032-1.244-0.097c-0.439-0.065-0.84-0.134-1.2-0.206v-8.845c0.447-0.115,0.887-0.194,1.319-0.237
	c0.433-0.044,0.808-0.065,1.125-0.065c0.894,0,1.668,0.112,2.325,0.335c0.656,0.224,1.199,0.545,1.633,0.963
	c0.432,0.418,0.752,0.919,0.961,1.503s0.314,1.243,0.314,1.979C273.667,487.195,273.241,488.338,272.391,489.167z M247.392,479.446
	c-0.62,0-1.297,0.079-2.033,0.238c-0.735,0.158-1.485,0.433-2.249,0.821l-0.065,1.73c0.548-0.303,0.973-0.52,1.276-0.649
	s0.624-0.237,0.962-0.324c0.338-0.086,0.677-0.158,1.016-0.216s0.667-0.087,0.984-0.087c1.139,0,1.982,0.249,2.53,0.746
	s0.822,1.33,0.822,2.498v0.13c-0.332-0.044-0.732-0.087-1.2-0.13c-0.469-0.043-0.876-0.065-1.222-0.065
	c-1.831,0-3.302,0.311-4.412,0.931c-1.11,0.619-1.665,1.644-1.665,3.07c0,0.707,0.155,1.305,0.465,1.795
	c0.31,0.49,0.713,0.88,1.211,1.168s1.067,0.497,1.708,0.627c0.641,0.13,1.308,0.194,2,0.194c0.807,0,1.6-0.072,2.378-0.216
	c0.779-0.145,1.536-0.368,2.271-0.671v-7.028c0-1.585-0.397-2.742-1.189-3.471C250.189,479.811,248.992,479.446,247.392,479.446z
	 M250.636,489.892c-0.375,0.144-0.858,0.267-1.449,0.367c-0.591,0.102-1.183,0.151-1.773,0.151c-0.505,0-0.984-0.035-1.438-0.108
	c-0.454-0.071-0.84-0.197-1.157-0.378c-0.317-0.18-0.57-0.414-0.757-0.703c-0.188-0.288-0.281-0.663-0.281-1.124
	c0-0.52,0.111-0.934,0.335-1.244c0.224-0.31,0.533-0.551,0.93-0.724c0.396-0.174,0.85-0.296,1.362-0.368
	c0.511-0.072,1.041-0.108,1.589-0.108c0.476,0,0.984,0.029,1.524,0.087c0.541,0.058,0.912,0.108,1.114,0.151V489.892z
	 M258.032,479.868c-0.649,0.122-1.276,0.263-1.881,0.422v11.418h1.535v-10.186c0.202-0.072,0.563-0.147,1.082-0.228
	c0.519-0.079,1.002-0.118,1.449-0.118h1.989v-1.492H260C259.336,479.685,258.681,479.746,258.032,479.868z M-77.92,487.667
	l241.145,0.656l0.663-0.433l-0.632-0.564L-77.92,487.667z M164.994,487.825l1.95,1.95l1.95-1.95l-1.95-1.95L164.994,487.825z
	 M169.559,487.825l3.057,3.057l3.057-3.057l-3.057-3.057L169.559,487.825z M212.359,489.286l-3.395-9.602h-1.514l-3.396,9.602
	l-2.984-9.602h-1.73l3.979,12.023h1.428l3.46-9.645l3.46,9.645h1.427l3.979-12.023h-1.73L212.359,489.286z M238.418,489.589
	c-0.317,0-0.591,0.115-0.822,0.346c-0.231,0.23-0.346,0.505-0.346,0.822c0,0.316,0.115,0.591,0.346,0.821
	c0.23,0.23,0.504,0.346,0.822,0.346c0.317,0,0.591-0.115,0.822-0.346c0.23-0.23,0.346-0.505,0.346-0.821
	c0-0.317-0.116-0.592-0.346-0.822C239.009,489.704,238.735,489.589,238.418,489.589z M193.243,489.286l-3.395-9.602h-1.514
	l-3.396,9.602l-2.984-9.602h-1.73l3.979,12.023h1.428l3.46-9.645l3.46,9.645h1.427l3.979-12.023h-1.73L193.243,489.286z
	 M231.476,489.286l-3.395-9.602h-1.514l-3.396,9.602l-2.984-9.602h-1.73l3.979,12.023h1.428l3.46-9.645l3.46,9.645h1.427
	l3.979-12.023h-1.73L231.476,489.286z M382.732,480.474c-0.426-0.396-0.938-0.667-1.535-0.812c-0.598-0.144-1.271-0.216-2.021-0.216
	c-0.664,0-1.393,0.09-2.184,0.271c-0.793,0.181-1.471,0.4-2.033,0.659c-0.346-0.331-0.818-0.569-1.416-0.714
	c-0.6-0.144-1.273-0.216-2.023-0.216c-0.635,0-1.268,0.058-1.902,0.173l-2.465,0.454v11.635h1.535v-10.38
	c0.447-0.102,0.883-0.188,1.309-0.26c0.424-0.072,0.896-0.108,1.416-0.108c0.605,0,1.125,0.058,1.557,0.173
	c0.434,0.116,0.789,0.321,1.07,0.616c0.281,0.296,0.494,0.711,0.639,1.244s0.217,1.24,0.217,2.119v6.596h1.535v-7.201
	c0-0.663-0.055-1.243-0.162-1.741c-0.109-0.497-0.213-0.861-0.314-1.092c0.086-0.043,0.281-0.119,0.584-0.228
	c0.303-0.107,0.602-0.197,0.898-0.27c0.295-0.072,0.586-0.126,0.875-0.162s0.547-0.055,0.779-0.055c0.59,0,1.102,0.058,1.535,0.173
	c0.432,0.116,0.781,0.317,1.049,0.605c0.266,0.289,0.471,0.703,0.615,1.244c0.145,0.54,0.217,1.251,0.217,2.13v6.596h1.535v-7.201
	c0-0.995-0.111-1.816-0.336-2.466C383.482,481.393,383.158,480.87,382.732,480.474z M280.1,474.581
	c-0.785,0.648-1.18,1.729-1.18,3.243v1.86h-2.551v1.492h2.551v10.531h1.537v-10.531h4.973v-1.492h-4.973v-1.471
	c0-0.635,0.045-1.149,0.141-1.546c0.094-0.396,0.24-0.707,0.443-0.931c0.201-0.223,0.475-0.385,0.82-0.486
	c0.346-0.101,0.779-0.151,1.299-0.151h2.422v-1.492h-2.271C281.956,473.607,280.885,473.932,280.1,474.581z M398.273,487.825
	l3.057,3.057l3.057-3.057l-3.057-3.057L398.273,487.825z M343.322,482.322c0.389-0.418,0.854-0.749,1.395-0.994
	s1.135-0.368,1.783-0.368c0.736,0,1.373,0.076,1.914,0.228s1.121,0.414,1.74,0.789l0.715-1.405c-0.707-0.39-1.393-0.674-2.055-0.854
	c-0.664-0.181-1.436-0.271-2.314-0.271c-0.85,0-1.639,0.155-2.367,0.465c-0.729,0.311-1.367,0.746-1.914,1.309
	c-0.549,0.563-0.98,1.222-1.297,1.979c-0.317,0.757-0.476,1.59-0.476,2.498s0.158,1.74,0.476,2.497
	c0.316,0.757,0.748,1.413,1.297,1.969c0.547,0.555,1.186,0.987,1.914,1.297c0.729,0.311,1.518,0.465,2.367,0.465
	c0.879,0,1.65-0.09,2.314-0.27c0.662-0.181,1.348-0.466,2.055-0.854l-0.715-1.406c-0.619,0.375-1.199,0.639-1.74,0.79
	s-1.178,0.227-1.914,0.227c-0.648,0-1.242-0.119-1.783-0.356c-0.541-0.238-1.006-0.565-1.395-0.984
	c-0.391-0.418-0.693-0.915-0.908-1.492c-0.217-0.576-0.324-1.203-0.324-1.881s0.107-1.305,0.324-1.882
	C342.628,483.238,342.931,482.741,343.322,482.322z M404.387,487.825l1.949,1.95l1.951-1.95l-1.951-1.95L404.387,487.825z
	 M410.701,487.326l-0.664,0.433l0.633,0.564l241.176-0.341L410.701,487.326z M362.611,481.295c-0.549-0.569-1.193-1.02-1.936-1.352
	c-0.742-0.331-1.547-0.497-2.412-0.497c-0.863,0-1.668,0.166-2.41,0.497c-0.742,0.332-1.389,0.782-1.936,1.352
	c-0.549,0.57-0.977,1.229-1.287,1.979c-0.311,0.749-0.465,1.557-0.465,2.422s0.154,1.672,0.465,2.422s0.738,1.409,1.287,1.979
	c0.547,0.569,1.193,1.017,1.936,1.341s1.547,0.486,2.41,0.486c0.865,0,1.67-0.162,2.412-0.486s1.387-0.771,1.936-1.341
	c0.547-0.569,0.977-1.229,1.287-1.979c0.309-0.75,0.465-1.557,0.465-2.422s-0.156-1.673-0.465-2.422
	C363.587,482.524,363.158,481.865,362.611,481.295z M362.394,487.523c-0.217,0.569-0.52,1.067-0.908,1.492
	c-0.389,0.426-0.857,0.765-1.406,1.017c-0.547,0.252-1.152,0.378-1.816,0.378c-0.662,0-1.268-0.126-1.816-0.378
	c-0.547-0.252-1.016-0.591-1.404-1.017c-0.391-0.425-0.693-0.923-0.908-1.492c-0.217-0.569-0.324-1.179-0.324-1.827
	c0-0.649,0.107-1.262,0.324-1.839c0.215-0.576,0.518-1.077,0.908-1.503c0.389-0.425,0.857-0.764,1.404-1.016
	c0.549-0.252,1.154-0.379,1.816-0.379c0.664,0,1.27,0.127,1.816,0.379c0.549,0.252,1.018,0.591,1.406,1.016
	c0.389,0.426,0.691,0.927,0.908,1.503c0.217,0.577,0.324,1.189,0.324,1.839C362.718,486.345,362.611,486.954,362.394,487.523z
	 M296.221,481.295c-0.547-0.569-1.191-1.02-1.936-1.352c-0.742-0.331-1.545-0.497-2.41-0.497s-1.67,0.166-2.412,0.497
	c-0.742,0.332-1.387,0.782-1.936,1.352c-0.547,0.57-0.977,1.229-1.285,1.979c-0.311,0.749-0.465,1.557-0.465,2.422
	s0.154,1.672,0.465,2.422c0.309,0.75,0.738,1.409,1.285,1.979c0.549,0.569,1.193,1.017,1.936,1.341s1.547,0.486,2.412,0.486
	s1.668-0.162,2.41-0.486c0.744-0.324,1.389-0.771,1.936-1.341c0.549-0.569,0.977-1.229,1.287-1.979s0.465-1.557,0.465-2.422
	s-0.154-1.673-0.465-2.422C297.198,482.524,296.77,481.865,296.221,481.295z M296.006,487.523c-0.217,0.569-0.52,1.067-0.908,1.492
	c-0.391,0.426-0.859,0.765-1.406,1.017c-0.549,0.252-1.154,0.378-1.816,0.378c-0.664,0-1.27-0.126-1.816-0.378
	c-0.549-0.252-1.018-0.591-1.406-1.017c-0.389-0.425-0.691-0.923-0.908-1.492s-0.324-1.179-0.324-1.827
	c0-0.649,0.107-1.262,0.324-1.839c0.217-0.576,0.52-1.077,0.908-1.503c0.389-0.425,0.857-0.764,1.406-1.016
	c0.547-0.252,1.152-0.379,1.816-0.379c0.662,0,1.268,0.127,1.816,0.379c0.547,0.252,1.016,0.591,1.406,1.016
	c0.389,0.426,0.691,0.927,0.908,1.503c0.215,0.577,0.324,1.189,0.324,1.839C296.331,486.345,296.221,486.954,296.006,487.523z
	 M309.381,480.463c-0.455-0.39-0.996-0.656-1.623-0.801c-0.627-0.144-1.309-0.216-2.043-0.216c-0.707,0-1.465,0.047-2.271,0.141
	s-1.701,0.234-2.682,0.422v11.699h1.535v-10.402c1.184-0.23,2.293-0.346,3.33-0.346c0.592,0,1.111,0.062,1.559,0.184
	c0.445,0.123,0.818,0.332,1.113,0.628c0.295,0.295,0.525,0.713,0.691,1.254s0.25,1.251,0.25,2.13v6.553h1.535v-7.201
	c0-0.995-0.119-1.82-0.357-2.477C310.18,481.375,309.834,480.852,309.381,480.463z M318.516,490.054
	c-0.346-0.108-0.619-0.277-0.82-0.509c-0.203-0.23-0.35-0.547-0.443-0.951c-0.096-0.403-0.141-0.922-0.141-1.557v-5.86h4.973v-1.492
	h-4.973v-4.347h-1.537v4.347h-2.551v1.492h2.551v6.466c0,0.764,0.109,1.405,0.326,1.925c0.215,0.519,0.525,0.937,0.93,1.254
	c0.402,0.317,0.867,0.544,1.395,0.682c0.525,0.137,1.105,0.205,1.74,0.205h2.271v-1.492h-2.422
	C319.295,490.216,318.862,490.162,318.516,490.054z M337.784,489.589c-0.316,0-0.59,0.115-0.82,0.346s-0.346,0.505-0.346,0.822
	c0,0.316,0.115,0.591,0.346,0.821s0.504,0.346,0.82,0.346c0.318,0,0.592-0.115,0.822-0.346s0.346-0.505,0.346-0.821
	c0-0.317-0.115-0.592-0.346-0.822S338.102,489.589,337.784,489.589z M333.178,486.106c-0.346-0.303-0.785-0.565-1.318-0.789
	c-0.533-0.223-1.182-0.422-1.947-0.595l-0.799-0.173c-1.053-0.216-1.781-0.461-2.184-0.735c-0.404-0.273-0.607-0.678-0.607-1.211
	c0-0.504,0.238-0.904,0.715-1.2c0.475-0.295,1.174-0.443,2.098-0.443c0.793,0,1.477,0.076,2.055,0.228
	c0.576,0.151,1.217,0.421,1.924,0.811l0.691-1.405c-1.412-0.765-2.969-1.146-4.67-1.146c-0.635,0-1.223,0.076-1.764,0.228
	c-0.539,0.151-1.008,0.364-1.404,0.638s-0.711,0.605-0.941,0.994c-0.23,0.39-0.346,0.815-0.346,1.276
	c0,0.462,0.072,0.88,0.217,1.254c0.143,0.375,0.381,0.707,0.713,0.995s0.758,0.537,1.275,0.746c0.52,0.209,1.146,0.4,1.883,0.573
	l0.908,0.194c1.008,0.217,1.729,0.49,2.162,0.822c0.432,0.331,0.648,0.771,0.648,1.318c0,0.39-0.086,0.707-0.26,0.952
	c-0.172,0.245-0.414,0.436-0.725,0.573c-0.311,0.137-0.678,0.237-1.102,0.303c-0.426,0.064-0.877,0.097-1.352,0.097
	c-0.592,0-1.223-0.09-1.893-0.271c-0.67-0.18-1.352-0.479-2.045-0.897l-0.734,1.471c0.779,0.433,1.539,0.742,2.281,0.93
	s1.539,0.281,2.391,0.281c0.748,0,1.434-0.072,2.053-0.216c0.621-0.145,1.158-0.36,1.611-0.648c0.455-0.289,0.805-0.649,1.049-1.082
	c0.246-0.433,0.369-0.93,0.369-1.492c0-0.476-0.072-0.915-0.217-1.318C333.77,486.763,333.526,486.41,333.178,486.106z"/>
</svg>

