<?xml version="1.0" encoding="utf-8"?>
<!-- Generator: Adobe Illustrator 21.0.0, SVG Export Plug-In . SVG Version: 6.00 Build 0)  -->
<svg version="1.1" id="Layer_1" xmlns="http://www.w3.org/2000/svg" xmlns:xlink="http://www.w3.org/1999/xlink" x="0px" y="0px"
	 viewBox="0 0 800 500" style="enable-background:new 0 0 800 500;" xml:space="preserve">
<style type="text/css">
	.st0{fill:#020202;}
	.st1{fill:#020202;stroke:#3A3A3A;stroke-width:0.2;stroke-miterlimit:10;}
</style>
<g>
	<path fill="#000000" class="st0" d="M461.4,180.4c-22.9-0.4-33.7-17.8-33.7-39.1c0-24,13.5-41.1,33.7-41.8v6c-5,1-6.7,5.3-6.7,9.7v49.3
		c0,4.4,1.7,8.6,6.7,9.9V180.4z"/>
	<path fill="#000000" class="st0" d="M249.1,331.8c-22.9-0.4-33.7-17.8-33.7-39.1c0-24,13.5-41.1,33.7-41.8v6c-5,1-6.7,5.3-6.7,9.7v49.3
		c0,4.4,1.7,8.6,6.7,9.9V331.8z"/>
	<path fill="#000000" class="st0" d="M310.4,180.5c-3.8-0.1-11.9-4.2-14.6-4.2c-1.6,0-2.2,0.6-2.8,2c-0.6,1.4-1.4,2.2-2.8,2.2
		c-3.3,0-3.3-3.2-3.3-3.7v-24.1c0-0.5,0-3.7,3.3-3.7c2.2,0,3.4,1.8,3.8,3.7c1.8,8.4,6.7,19.2,16.3,21.8V180.5z"/>
	<path fill="#000000" class="st0" d="M466.3,99.5c9.8,1,19.5,7.5,19.5,18.2c0,6.9-5.3,12.6-12.2,12.6c-6,0-11.3-5-11.3-11.1c0-4.8,2.8-8.6,7.2-10.4
		c0.2-0.1,1-0.5,1-0.8c0-1-3.3-2.1-4.3-2.3V99.5z"/>
	<path fill="#000000" class="st0" d="M344.7,157.8c0,6.6-1.1,12.3-6.3,16.7c-5,4.3-13.1,5.9-19.5,5.9l-3.6-0.1v-6.1c4.1-1.9,4.1-5.9,4.1-9.6v-51.9
		c0-3.8,0.1-4.5-3.5-5.6c-1.4-0.4-2.3-1.4-2.3-2.8c0-3,3.4-3.2,3.8-3.2h29.4c0.4,0,3.8,0.2,3.8,3.2c0,1.5-0.9,2.4-2.3,2.8
		c-3.6,1.1-3.5,1.8-3.5,5.6V157.8z"/>
	<path fill="#000000" class="st0" d="M360.4,379.4c-3.8-0.1-11.9-4.2-14.6-4.2c-1.6,0-2.2,0.6-2.8,2c-0.6,1.4-1.4,2.2-2.8,2.2
		c-3.3,0-3.3-3.2-3.3-3.7v-24.1c0-0.5,0-3.7,3.3-3.7c2.2,0,3.4,1.8,3.8,3.7c1.8,8.4,6.7,19.2,16.3,21.8V379.4z"/>
	<path fill="#000000" class="st0" d="M394.8,356.6c0,6.6-1.1,12.3-6.3,16.7c-5,4.3-13.1,5.9-19.5,5.9l-3.6-0.1v-6.1c4.1-1.9,4.1-5.9,4.1-9.6v-99.4
		c0-3.8,0.1-4.5-3.5-5.6c-1.4-0.4-2.3-1.4-2.3-2.8c0-3,3.4-3.2,3.8-3.2h29.4c0.4,0,3.8,0.2,3.8,3.2c0,1.5-0.9,2.4-2.3,2.8
		c-3.6,1.1-3.5,1.8-3.5,5.6V356.6z"/>
	<path fill="#000000" class="st0" d="M322.7,233.9c0-3.8,0.1-4.5-3.5-5.6c-1.4-0.4-2.3-1.4-2.3-2.8c0-3,3.4-3.2,3.8-3.2h29.4c0.4,0,3.8,0.2,3.8,3.2
		c0,1.5-0.9,2.4-2.3,2.8c-3.6,1.1-3.5,1.8-3.5,5.6v86.2c0,3.8-0.1,4.5,3.5,5.6c1.4,0.4,2.3,1.4,2.3,2.8c0,3-3.4,3.2-3.8,3.2h-27.4
		V233.9z"/>
	<path fill="#000000" class="st0" d="M433.4,337.7H406c-0.4,0-3.8-0.2-3.8-3.2c0-1.5,0.9-2.4,2.3-2.8c3.6-1.1,3.5-1.8,3.5-5.6v-85.1
		c0-3.8,0.1-4.5-3.5-5.6c-1.4-0.4-2.3-1.4-2.3-2.8c0-3,3.4-3.2,3.8-3.2h29.4c0.4,0,3.8,0.2,3.8,3.2c0,1.5-0.9,2.4-2.3,2.8
		c-3.6,1.1-3.5,1.8-3.5,5.6V337.7z"/>
	<path fill="#000000" class="st0" d="M543.5,256.9c-4.9,1.8-5.3,4.9-5.3,7.5v53.9c0,2.6,0.4,5.7,5.3,7.5v6c-22-2-32.3-19.8-32.3-40.4
		s10.3-38.5,32.3-40.4V256.9z M548.2,325.7c4.9-1.8,5.3-4.9,5.3-7.5v-53.9c0-2.6-0.4-5.7-5.3-7.5v-6c22,2,32.3,19.8,32.3,40.4
		s-10.3,38.5-32.3,40.4V325.7z"/>
	<path fill="#000000" class="st0" d="M369.9,174.3c7.8-2.3,6.9-10.5,6.9-11.5v-50c0-3.8,0.1-4.5-3.5-5.6c-1.4-0.4-2.3-1.4-2.3-2.8
		c0-3,3.4-3.2,3.8-3.2h29.4c0.4,0,3.8,0.2,3.8,3.2c0,1.5-0.9,2.4-2.3,2.8c-3.6,1.1-3.5,1.8-3.5,5.6V162c0,5.2-1.2,9.1-10.6,14.3
		c-7.2,4-13.5,4.1-21.7,4.1V174.3z"/>
	<path fill="#000000" class="st0" d="M402.2,156.7c0.6,9.3,4.4,17.7,13.9,17.7v6c-6.8-0.1-19.1-6.3-20-23.5"/>
	<path fill="#000000" class="st0" d="M489,180.4h-22.9v-6H489c0.4,0,0.7,0.3,0.7,0.7v4.7C489.7,180.1,489.4,180.4,489,180.4z"/>
	<path fill="#000000" class="st0" d="M460.8,180.4h-44.8v-6h44.8c0.4,0,0.7,0.3,0.7,0.7v4.7C461.4,180.1,461.1,180.4,460.8,180.4z"/>
	<path fill="#000000" class="st0" d="M289.7,291.3c-12.7-0.2-18.7-9.9-18.7-21.7c0-13.4,7.5-22.8,18.7-23.3v3.4c-2.8,0.6-3.7,3-3.7,5.4v27.4
		c0,2.4,0.9,4.8,3.7,5.5V291.3z"/>
	<path fill="#000000" class="st0" d="M292.5,252.1c5.4,0.6,10.9,4.2,10.9,10.1c0,3.8-2.9,7-6.8,7c-3.4,0-6.3-2.8-6.3-6.2c0-2.7,1.6-4.8,4-5.8
		c0.1-0.1,0.6-0.3,0.6-0.5c0-0.6-1.9-1.2-2.4-1.3V252.1z"/>
	<path fill="#000000" class="st0" d="M305.1,291.3h-12.8V288h12.8c0.2,0,0.4,0.2,0.4,0.4v2.6C305.5,291.2,305.3,291.3,305.1,291.3z"/>
	<path fill="#000000" class="st0" d="M289.4,291.3h-24.9V288h24.9c0.2,0,0.4,0.2,0.4,0.4v2.6C289.7,291.2,289.6,291.3,289.4,291.3z"/>
	<path fill="#000000" class="st0" d="M343.5,156.7c0.6,9.3,4.4,17.7,13.9,17.7v6c-6.8-0.1-19.1-6.3-20-23.5"/>
	<path fill="#000000" class="st0" d="M376.8,180.4h-19.6v-6h19.6c0.4,0,0.7,0.3,0.7,0.7v4.7C377.5,180.1,377.2,180.4,376.8,180.4z"/>
	<path fill="#000000" class="st0" d="M462.6,325.6c7.8-2.3,6.9-10.5,6.9-11.5v-50c0-3.8,0.1-4.5-3.5-5.6c-1.4-0.4-2.3-1.4-2.3-2.8
		c0-3,3.4-3.2,3.8-3.2h29.4c0.4,0,3.8,0.2,3.8,3.2c0,1.5-0.9,2.4-2.3,2.8c-3.6,1.1-3.5,1.8-3.5,5.6v49.3c0,5.2-1.2,9.1-10.6,14.3
		c-7.2,4-13.5,4.1-21.7,4.1V325.6z"/>
	<path fill="#000000" class="st0" d="M495,308.1c0.6,9.3,4.4,17.7,13.9,17.7v6c-6.8-0.1-19.1-6.3-20-23.5"/>
	<path fill="#000000" class="st0" d="M542.8,331.8h-34.1v-6h34.1c0.4,0,0.7,0.3,0.7,0.7v4.7C543.4,331.5,543.1,331.8,542.8,331.8z"/>
	<path fill="#000000" class="st0" d="M469.6,331.8h-24.2v-6h24.2c0.4,0,0.7,0.3,0.7,0.7v4.7C470.2,331.5,469.9,331.8,469.6,331.8z"/>
	<path fill="#000000" class="st0" d="M326.1,331.8h-71.7v-6h71.7c0.4,0,0.7,0.3,0.7,0.7v4.7C326.7,331.5,326.4,331.8,326.1,331.8z"/>
	<circle class="st0" cx="396.2" cy="202.1" r="11.7"/>
	<circle class="st0" cx="366.8" cy="202.1" r="11.7"/>
	<circle class="st0" cx="470.2" cy="353.4" r="11.7"/>
	<g>
		<path fill="#000000" class="st0" d="M335.6,74.4c-1.6-8.2-7.9-15.3-15.9-17.8c-3.3-1-6.7-1.3-10.1-1.9c-3.4-0.6-6.8-1.6-9.4-3.8
			c-2.6-2.2-4.3-5.8-3.3-9.1c-2.8,3.5-3.3,9.2-0.3,12.5c-4.1-0.8-9.7,1.9-11.5,5.7c8.8-2.9,12.9,0.3,26.2,0.6
			C328,61.2,334.8,70.1,335.6,74.4z"/>
		<path fill="#000000" class="st0" d="M302.1,68.6c-3.6-0.2-2.8,6.7-6.6,6.8c4.1-0.1,6.5,5.4,10.7,1.8c-0.1,2.3,0.1,2.9,0.9,5.1
			c0.9-2.7,2-3.8,2-3.8c0.3,0.8,0.9,1.8,0.9,1.8c0.9-3.7,2.7-6.8,5.8-9c-0.4,1.1,0,2.5,1.1,3.1c1.1,0.5,2.5,0.2,3.2-0.7
			c-0.8,0.4-2-0.1-2.3-1c-0.3-0.8-0.1-1.8,0.4-2.6c1.3-2.2,5-1.8,7.2-1.5c4,0.7,7.5,3.4,9.9,6.7c-1.1-1.6-1.8-3.4-3.1-4.9
			c-0.7-0.8-1.5-1.6-2.2-2.2c-3.8-3-8.6-3.7-13.6-2.5c-6,1.3-13.4,2.3-19-0.7C298.4,66.7,300.2,67.8,302.1,68.6z M313.6,69.3
			c2.4-1.2,5-2.2,7.7-2.4c1.4-0.1,2.7,0,4.1,0.3c0.7,0.2,1.3,0.4,1.9,0.7c0.6,0.3,1.2,0.7,1.7,1.1c-2.2-1.6-5-2.1-7.6-1.8
			c-2.7,0.3-5.2,1.2-7.6,2.4c-2.4,1.2-4.7,2.5-7.2,3.6c-1.3,0.5-2.5,0.9-3.9,1.2c-1.3,0.3-2.7,0.5-4,0.6c2.7-0.4,5.3-1,7.7-2.1
			C308.9,71.8,311.2,70.5,313.6,69.3z"/>
		<path fill="#000000" class="st0" d="M302.8,62.4c4.8,0.2,9.7,0.4,14.5,0.6C312.5,64.8,307.5,64.5,302.8,62.4z"/>
		<path fill="#000000" class="st0" d="M331.8,42.4c0.8,1,1.2,2.2,1.8,3.4c1.6,2.9,4.3,5.1,7.5,6.1c2.1,0.7,4.4,0.8,6.5,0.4
			c-0.9-0.1-1.9-0.4-2.8-0.8c-2.1-1-3.6-3.3-3.6-5.6c0-2.4,1.7-4.8,3.8-5.7c-0.6-0.8-1.8-1.2-2.8-1c-1,0.2-1.7,1.2-2,2.2
			c-0.3-0.7-0.6-1.4-1.2-2c-0.6-0.5-1.5-0.8-2.1-0.4c-0.5,0.3-0.7,1.2-0.5,1.7c-1-1.1-2.4-1.8-3.8-1.9c-1.6-0.2-2.8,0.8-4.1,1.9
			C329.9,40.6,331,41.4,331.8,42.4z M335.2,43.3c0.5,0.8,0.8,1.7,1.3,2.6c-0.1-0.2-0.1-0.4-0.1-0.6c-0.1-1,0.1-2.1,0.7-2.9
			c-0.3,1-0.4,1.9-0.3,2.9c0.1,0.7,0.3,1.4,0.5,2c0.4,0.5,0.8,1,1.3,1.5c0.8,0.7,1.7,1.2,2.7,1.7c-1-0.3-2.1-0.7-2.9-1.4
			c-0.9-0.7-1.6-1.6-2.1-2.5c-0.5-1-0.9-2-1.4-2.9c-0.4-1-1-1.9-1.7-2.7C334,41.4,334.6,42.4,335.2,43.3z"/>
		<path fill="#000000" class="st0" d="M316.1,43.8c3.2,5,8.6,8.2,14.3,9.9c10.2,3.1,19.7,2.5,29.1-2.5c-5.9,3.2-13.7,3.4-20,1.6
			c-2.1-0.6-4.2-1.4-6.2-2.5c-0.9-0.5-1.7-1.1-2.5-1.8c-0.8-0.7-1.6-1.4-2.5-1.9c-0.9-0.6-2.1-0.8-3-0.4s-1.5,1.5-0.8,2.3
			c-2.7-4.1-2.8-8.6-2-13.1c0.8-4.3-1.4-8.3-4.3-6c0-0.5,0.3-1.1,0.3-1.6c0-0.9-0.8-1.6-1.7-1.1c-0.5,0.2-0.8,0.7-1,1.2
			C312.9,33,312.9,38.8,316.1,43.8z M315.2,33.5c-0.2,1.7-0.1,3.4,0.3,5c0.4,1.6,1.1,3.2,1.9,4.7c0.8,1.5,1.8,2.9,3,4.1
			c-1.3-1.1-2.4-2.5-3.2-4c-0.9-1.5-1.5-3.1-2-4.8c-0.5-1.7-0.5-3.5-0.3-5.2c0.2-1.7,0.8-3.4,1.5-4.9
			C315.8,30.2,315.3,31.8,315.2,33.5z"/>
		<path fill="#000000" class="st0" d="M326.4,53.2c-4.3-0.9-8.2-2.4-11.5-5.2c-0.6-0.5-1.1-1-1.8-1.4c-0.6-0.4-1.4-0.6-2.1-0.4
			c-0.7,0.1-1.4,0.7-1.5,1.5c-0.1,0.7,0.6,1.5,1.3,1.4c-1.4,0.1-3-0.4-3.5-1.7s-0.1-2.9,0.9-3.8c1.1-0.9,2.5-0.9,3.8-0.4
			c-0.3-0.4-0.6-0.9-0.6-1.4c0.1-2.5,2.7,1.6,3,2C317.1,47.4,321.7,52.3,326.4,53.2z"/>
		<path fill="#000000" class="st0" d="M348.8,65.5c-3.5,1.7,1,8-2.6,10.2c3.8-2.3,9.1,1.6,11.2-4.1c1.2,2.2,1.7,2.7,3.7,4.3
			c-0.6-3.1-0.2-4.7-0.2-4.7c0.7,0.6,1.8,1.2,1.8,1.2c-1.1-4-1.2-8,0.6-11.8c0.3,1.3,1.4,2.4,2.7,2.4c1.3-0.1,2.5-1.2,2.7-2.5
			c-0.5,0.8-2,1-2.8,0.4c-0.8-0.6-1-1.7-1-2.7c0-2.8,3.8-4.5,6-5.3c4.2-1.5,9.1-0.9,13.1,1c-2-0.9-3.6-2.3-5.7-3
			c-1.1-0.4-2.2-0.7-3.3-0.9c-5.3-0.8-10.2,1.2-14.4,5.1c-4.9,4.6-11.5,9.6-18.5,9.8C344.2,65.8,346.5,65.8,348.8,65.5z M360.2,59.9
			c1.7-2.4,3.6-4.8,6.1-6.5c1.2-0.8,2.6-1.5,4-1.9c0.7-0.2,1.5-0.3,2.2-0.4c0.7,0,1.5,0,2.2,0.1c-0.7-0.1-1.5-0.1-2.2,0
			c-0.7,0.1-1.5,0.3-2.2,0.5c-0.7,0.2-1.4,0.5-2,0.8c-0.7,0.3-1.3,0.7-1.9,1.2c-2.4,1.7-4.3,4-5.9,6.5c-1.7,2.4-3.1,5-4.9,7.4
			c-0.9,1.2-1.9,2.3-3,3.3c-1.1,1-2.3,1.9-3.5,2.7c2.4-1.8,4.5-3.8,6.3-6.2C357.1,64.9,358.5,62.3,360.2,59.9z"/>
		<path fill="#000000" class="st0" d="M340,60.5c-1,0.9-5,2.2-5.2,2.4c6.6,1.7,19.1-6,23.6-10c-8.6,4-18.4,5.4-27.8,4.1
			C332.6,59.4,336.8,61,340,60.5z M340.6,58.5c1.4,0,2.8-0.1,4.2-0.2c1.4-0.2,2.7-0.4,4-0.8c1.3-0.4,2.6-0.8,3.8-1.3
			c-1.2,0.6-2.4,1.2-3.7,1.6c-1.3,0.4-2.7,0.7-4.1,0.9c-1.4,0.2-2.8,0.2-4.3,0.2c-1.4-0.1-2.9-0.2-4.3-0.5
			C337.7,58.4,339.2,58.5,340.6,58.5z"/>
	</g>
	<g>
		<path fill="#000000" class="st0" d="M444.8,74.4c1.6-8.2,7.9-15.3,15.9-17.8c3.3-1,6.7-1.3,10.1-1.9c3.4-0.6,6.8-1.6,9.4-3.8s4.3-5.8,3.3-9.1
			c2.8,3.5,3.3,9.2,0.3,12.5c4.1-0.8,9.7,1.9,11.5,5.7c-8.8-2.9-12.9,0.3-26.2,0.6C452.4,61.2,445.6,70.1,444.8,74.4z"/>
		<path fill="#000000" class="st0" d="M483.3,65c-5.6,3-13.1,2-19,0.7c-5-1.1-9.8-0.5-13.6,2.5c-0.8,0.6-1.5,1.4-2.2,2.2c-1.3,1.5-2,3.3-3.1,4.9
			c2.3-3.3,5.8-6,9.9-6.7c2.2-0.4,5.9-0.8,7.2,1.5c0.5,0.8,0.7,1.7,0.4,2.6c-0.3,0.8-1.5,1.4-2.3,1c0.7,0.9,2.1,1.3,3.2,0.7
			c1.1-0.5,1.4-2,1.1-3.1c3.1,2.2,4.9,5.3,5.8,9c0,0,0.6-1,0.9-1.8c0,0,1.1,1.1,2,3.8c0.8-2.1,1-2.8,0.9-5.1
			c4.2,3.6,6.6-1.9,10.7-1.8c-3.8-0.1-3.1-7.1-6.6-6.8C480.3,67.8,482.1,66.7,483.3,65z M474,72.9c2.4,1.1,5.1,1.7,7.7,2.1
			c-1.3-0.1-2.7-0.3-4-0.6c-1.3-0.3-2.6-0.7-3.9-1.2c-2.5-1-4.8-2.4-7.2-3.6c-2.4-1.2-4.9-2.2-7.6-2.4c-2.6-0.3-5.4,0.2-7.6,1.8
			c0.5-0.4,1.1-0.8,1.7-1.1c0.6-0.3,1.3-0.5,1.9-0.7c1.3-0.3,2.7-0.4,4.1-0.3c2.7,0.2,5.3,1.2,7.7,2.4
			C469.2,70.5,471.6,71.8,474,72.9z"/>
		<path fill="#000000" class="st0" d="M477.6,62.4c-4.8,0.2-9.7,0.4-14.5,0.6C467.9,64.8,473,64.5,477.6,62.4z"/>
		<path fill="#000000" class="st0" d="M451.8,40.7c-1.2-1.1-2.5-2.1-4.1-1.9c-1.4,0.2-2.8,0.9-3.8,1.9c0.2-0.6-0.1-1.4-0.5-1.7
			c-0.7-0.4-1.6-0.2-2.1,0.4s-0.9,1.3-1.2,2c-0.3-1-0.9-2-2-2.2c-1-0.2-2.1,0.2-2.8,1c2.2,0.9,3.8,3.3,3.8,5.7
			c0,2.4-1.4,4.7-3.6,5.6c-1,0.4-1.9,0.8-2.8,0.8c2.2,0.4,4.4,0.3,6.5-0.4c3.1-1,5.9-3.3,7.5-6.1c0.6-1.1,1.1-2.3,1.8-3.4
			C449.4,41.4,450.6,40.6,451.8,40.7z M447.3,40.8c-0.7,0.8-1.3,1.7-1.7,2.7c-0.4,1-0.8,2-1.4,2.9c-0.5,1-1.2,1.9-2.1,2.5
			c-0.9,0.7-1.9,1.1-2.9,1.4c1-0.5,1.9-1,2.7-1.7c0.5-0.4,0.9-0.9,1.3-1.5c0.3-0.7,0.5-1.3,0.5-2c0.1-1,0-1.9-0.3-2.9
			c0.6,0.8,0.8,1.9,0.7,2.9c0,0.2-0.1,0.4-0.1,0.6c0.4-0.8,0.8-1.7,1.3-2.6C445.8,42.4,446.4,41.4,447.3,40.8z"/>
		<path fill="#000000" class="st0" d="M464.7,27.9c-0.3-0.5-0.5-0.9-1-1.2c-0.9-0.5-1.7,0.2-1.7,1.1c0,0.6,0.3,1.1,0.3,1.6c-2.8-2.3-5,1.7-4.3,6
			c0.8,4.5,0.7,9.1-2,13.1c0.6-0.8,0.2-1.9-0.8-2.3c-1-0.5-2.1-0.2-3,0.4c-0.9,0.6-1.7,1.3-2.5,1.9c-0.8,0.7-1.6,1.3-2.5,1.8
			c-2,1.1-4.1,1.9-6.2,2.5c-6.3,1.8-14.1,1.5-20-1.6c9.3,5,18.9,5.6,29.1,2.5c5.7-1.7,11.1-4.9,14.3-9.9
			C467.5,38.8,467.5,33,464.7,27.9z M464.1,28.5c0.7,1.6,1.2,3.2,1.5,4.9c0.2,1.7,0.2,3.5-0.3,5.2c-0.5,1.7-1.1,3.3-2,4.8
			c-0.9,1.5-1.9,2.9-3.2,4c1.2-1.2,2.2-2.6,3-4.1c0.8-1.5,1.5-3.1,1.9-4.7c0.4-1.6,0.5-3.3,0.3-5C465.1,31.8,464.7,30.2,464.1,28.5z
			"/>
		<path fill="#000000" class="st0" d="M454,53.2c4.3-0.9,8.2-2.4,11.5-5.2c0.6-0.5,1.1-1,1.8-1.4c0.6-0.4,1.4-0.6,2.1-0.4c0.7,0.1,1.4,0.7,1.5,1.5
			c0.1,0.7-0.6,1.5-1.3,1.4c1.4,0.1,3-0.4,3.5-1.7c0.5-1.3,0.1-2.9-0.9-3.8c-1.1-0.9-2.5-0.9-3.8-0.4c0.3-0.4,0.6-0.9,0.6-1.4
			c-0.1-2.5-2.7,1.6-3,2C463.3,47.4,458.7,52.3,454,53.2z"/>
		<path fill="#000000" class="st0" d="M438.3,64.8c-7-0.2-13.6-5.2-18.5-9.8c-4.2-3.8-9.1-5.9-14.4-5.1c-1.1,0.2-2.2,0.4-3.3,0.9
			c-2.1,0.8-3.7,2.1-5.7,3c4-1.9,8.9-2.5,13.1-1c2.3,0.8,6,2.5,6,5.3c0,1-0.3,2-1,2.7c-0.8,0.6-2.2,0.5-2.8-0.4
			c0.2,1.3,1.3,2.4,2.7,2.5c1.3,0.1,2.4-1.1,2.7-2.4c1.8,3.8,1.7,7.8,0.6,11.8c0,0,1.1-0.6,1.8-1.2c0,0,0.4,1.7-0.2,4.7
			c1.9-1.6,2.5-2.1,3.7-4.3c2.1,5.7,7.4,1.8,11.2,4.1c-3.6-2.2,0.9-8.4-2.6-10.2C433.9,65.8,436.2,65.8,438.3,64.8z M425.1,67.3
			c1.7,2.4,3.9,4.4,6.3,6.2c-1.2-0.8-2.4-1.7-3.5-2.7c-1.1-1-2.1-2.1-3-3.3c-1.8-2.4-3.3-5-4.9-7.4c-1.6-2.4-3.5-4.8-5.9-6.5
			c-0.6-0.4-1.2-0.8-1.9-1.2c-0.7-0.3-1.3-0.6-2-0.8c-0.7-0.2-1.4-0.4-2.2-0.5c-0.7-0.1-1.5-0.1-2.2,0c0.7-0.1,1.5-0.2,2.2-0.1
			c0.7,0.1,1.5,0.2,2.2,0.4c1.4,0.4,2.8,1.1,4,1.9c2.5,1.7,4.4,4.1,6.1,6.5C421.9,62.3,423.4,64.9,425.1,67.3z"/>
		<path fill="#000000" class="st0" d="M449.9,57c-9.4,1.3-19.2-0.1-27.8-4.1c4.5,4,17,11.6,23.6,10c-0.1-0.2-4.2-1.5-5.2-2.4
			C443.6,61,447.8,59.4,449.9,57z M444.1,58.3c-1.4,0.3-2.9,0.4-4.3,0.5c-1.4,0.1-2.9,0-4.3-0.2c-1.4-0.2-2.8-0.5-4.1-0.9
			c-1.3-0.4-2.6-0.9-3.7-1.6c1.3,0.5,2.5,1,3.8,1.3c1.3,0.4,2.7,0.6,4,0.8c1.4,0.2,2.8,0.2,4.2,0.2
			C441.3,58.5,442.7,58.4,444.1,58.3z"/>
	</g>
	<g>
		<path fill="#000000" class="st1" d="M538.9,408.7V407h-26.1h-17.4H237.5v1.6c0,6.2-5,11.2-11.2,11.2h-1.6v37h1.6c6.2,0,11.2,5,11.2,11.2v1.6
			h257.9h17.4h26.1v-1.6c0-6.2,5-11.2,11.2-11.2h1.6v-37h-1.6C543.9,419.8,538.9,414.8,538.9,408.7z M260.8,428.6h5.7v5.2
			c0,0.1,0,0.6-0.8,0.6c-0.4,0-0.6-0.3-0.7-0.6c-0.7-2.1-2-3.3-4.2-3.7V428.6z M260.8,437.1c1.1-0.3,1.6-1.3,1.8-2.2
			c0.1-0.4,0.3-0.8,0.8-0.8c0.8,0,0.7,0.9,0.7,1.1v5.5c0,0.2,0.1,1.1-0.7,1.1c-0.5,0-0.7-0.4-0.8-0.8c-0.2-1-0.7-2-1.8-2.2V437.1z
			 M259.6,447.7h-6.7c-0.1,0-0.9-0.1-0.9-0.8c0-0.4,0.2-0.6,0.6-0.7c0.9-0.3,0.9-0.4,0.9-1.4v-13.4c0-0.9,0-1.1-0.9-1.4
			c-0.3-0.1-0.6-0.3-0.6-0.7c0-0.7,0.8-0.8,0.9-0.8h6.7V447.7z M266.6,442.6v5.1h-5.9v-1.5c2.1-0.3,3.6-1.7,4.3-3.7
			c0.2-0.4,0.3-0.8,0.8-0.8C266.7,441.7,266.6,442.5,266.6,442.6z M278.7,446.2c0.3,0.1,0.6,0.3,0.6,0.7c0,0.7-0.8,0.8-0.9,0.8h-7.2
			c-0.1,0-0.9-0.1-0.9-0.8c0-0.4,0.2-0.6,0.6-0.7c0.9-0.3,0.9-0.4,0.9-1.4v-13.4c0-0.9,0-1.1-0.9-1.4c-0.3-0.1-0.6-0.3-0.6-0.7
			c0-0.7,0.8-0.8,0.9-0.8h7.2c0.1,0,0.9,0.1,0.9,0.8c0,0.4-0.2,0.6-0.6,0.7c-0.9,0.3-0.9,0.4-0.9,1.4v13.4
			C277.8,445.8,277.8,445.9,278.7,446.2z M290.4,447.7h-6.5c-0.6,0-1.2-0.1-1.2-0.8c0-0.4,0.2-0.6,0.6-0.7c0.9-0.3,0.9-0.4,0.9-1.4
			v-13.4c0-0.4,0.1-1.1-0.4-1.2c-0.5-0.2-1-0.3-1-0.9c0-0.7,0.6-0.7,1.1-0.7h6.5V447.7z M291.5,447.7v-1.5c1.6-0.2,1.6-1.7,1.6-2.6
			v-10.9c0-1-0.1-2.4-1.6-2.6v-1.5c4.3-0.1,8,3,8.3,9.5C300.1,444.2,295.8,447.7,291.5,447.7z M307.7,447.7h-2.9
			c-0.5,0-1.4,0-1.4-0.8c0-0.6,0.4-0.6,1-0.9c0.5-0.3,1.2-0.9,1.7-2.7l3.1-11.2h0.1l0.7,2.9l-2.4,8.7c-0.4,1.6-0.1,2,0.8,2.4
			c0.4,0.2,0.8,0.3,0.8,0.8C309,447.7,308.2,447.7,307.7,447.7z M319.6,447.7h-6.3c-0.5,0-1.2-0.1-1.2-0.7c0-0.4,0.2-0.5,0.5-0.7
			c0.7-0.4,0.8-0.6,0.5-1.6l-0.5-2h-3.7l0.4-1.5h3.1l-2.6-11.3l0.3-1.4h5.6l3.8,16.1c0.2,0.7,0.2,1.2,0.9,1.5
			c0.4,0.2,0.6,0.3,0.6,0.8C321,447.7,320.1,447.7,319.6,447.7z M331,447.7h-6.5c-0.6,0-1.2-0.1-1.2-0.8c0-0.4,0.2-0.6,0.6-0.7
			c0.9-0.3,0.9-0.4,0.9-1.4v-13.4c0-0.4,0.1-1.1-0.4-1.2c-0.5-0.2-1-0.3-1-0.9c0-0.7,0.6-0.7,1.1-0.7h6.5V447.7z M332.2,447.7v-1.5
			c1.6-0.2,1.6-1.7,1.6-2.6v-10.9c0-1-0.1-2.4-1.6-2.6v-1.5c4.3-0.1,8,3,8.3,9.5C340.7,444.2,336.4,447.7,332.2,447.7z M351,447.7
			h-7.2c-0.1,0-0.9-0.1-0.9-0.8c0-0.4,0.2-0.6,0.6-0.7c0.9-0.3,0.9-0.4,0.9-1.4v-13.4c0-0.9,0-1.1-0.9-1.4c-0.3-0.1-0.6-0.3-0.6-0.7
			c0-0.7,0.8-0.8,0.9-0.8h7.2c0.1,0,0.9,0.1,0.9,0.8c0,0.4-0.2,0.6-0.6,0.7c-0.9,0.3-0.9,0.4-0.9,1.4v13.4c0,0.9,0,1.1,0.9,1.4
			c0.3,0.1,0.6,0.3,0.6,0.7C351.9,447.6,351.1,447.7,351,447.7z M361,446.2c0.3,0.1,0.6,0.3,0.6,0.7c0,0.7-0.8,0.8-0.9,0.8h-7.2
			c-0.1,0-0.9-0.1-0.9-0.8c0-0.4,0.2-0.6,0.6-0.7c0.9-0.3,0.9-0.4,0.9-1.4v-6.1h-2.2v-1.5h2.2v-5.8c0-0.9,0-1.1-0.9-1.4
			c-0.3-0.1-0.6-0.3-0.6-0.7c0-0.7,0.8-0.8,0.9-0.8h7.2c0.1,0,0.9,0.1,0.9,0.8c0,0.4-0.2,0.6-0.6,0.7c-0.9,0.3-0.9,0.4-0.9,1.4v13.4
			C360.1,445.8,360.1,445.9,361,446.2z M368.4,447.7h-2.9c-0.5,0-1.4,0-1.4-0.8c0-0.6,0.4-0.6,1-0.9c0.5-0.3,1.2-0.9,1.7-2.7
			l3.1-11.2h0.1l0.7,2.9l-2.4,8.7c-0.4,1.6-0.1,2,0.8,2.4c0.4,0.2,0.8,0.3,0.8,0.8C369.7,447.7,368.9,447.7,368.4,447.7z
			 M380.3,447.7H374c-0.5,0-1.2-0.1-1.2-0.7c0-0.4,0.2-0.5,0.5-0.7c0.7-0.4,0.8-0.6,0.5-1.6l-0.5-2h-3.7l0.4-1.5h3.1l-2.6-11.3
			l0.3-1.4h5.6l3.8,16.1c0.2,0.7,0.2,1.2,0.9,1.5c0.4,0.2,0.6,0.3,0.6,0.8C381.8,447.7,380.8,447.7,380.3,447.7z M393.3,447.7h-2.9
			c-0.3,0-1.3,0.1-1.3-0.7c0-1.1,1.6-0.1,2-3.3v-8.6h0.1l1.4,4.2v4.4c0.4,3.2,2,2.2,2,3.3C394.6,447.7,393.6,447.7,393.3,447.7z
			 M396.5,447.7l-5.3-15.8c-0.1-0.4-0.3-0.8-0.5-1.1c-0.2-0.4-0.3-0.7-0.8-0.7c-0.3,0-1-0.1-1-0.7c0-0.8,0.8-0.8,1.1-0.8h6.5
			l2.7,7.8h0.1l1.1-4.2h0.1v4.6l-3.2,10.8H396.5z M408.8,446.2c0.3,0.1,0.6,0.3,0.6,0.7c0,0.7-0.8,0.8-0.9,0.8h-7.2
			c-0.1,0-0.9-0.1-0.9-0.8c0-0.4,0.2-0.6,0.6-0.7c0.9-0.3,0.9-0.4,0.9-1.4v-16.2h6.7c0.1,0,0.9,0.1,0.9,0.8c0,0.4-0.2,0.6-0.6,0.7
			c-0.9,0.3-0.9,0.4-0.9,1.4v13.4C407.9,445.8,407.9,445.9,408.8,446.2z M420.7,448.1c-2,0-3.6,0-5.3-1c-2.3-1.3-2.6-2.2-2.6-3.5
			v-12.1c0-0.9,0-1.1-0.9-1.4c-0.3-0.1-0.6-0.3-0.6-0.7c0-0.7,0.8-0.8,0.9-0.8h7.2c0.1,0,0.9,0.1,0.9,0.8c0,0.4-0.2,0.6-0.6,0.7
			c-0.9,0.3-0.9,0.4-0.9,1.4v12.3c0,0.3-0.2,2.3,1.7,2.8V448.1z M426.7,432.7v9.6c-0.2,4.2-3.2,5.7-4.9,5.8v-1.5
			c2.3-0.7,3.3-2,3.4-4.3v-9.6c-0.4-3.2-2-2.2-2-3.3c0-0.8,1-0.7,1.3-0.7h2.9c0.3,0,1.3-0.1,1.3,0.7
			C428.8,430.5,427.1,429.5,426.7,432.7z M438.8,447.7h-6.9c-0.2,0-0.8-0.1-0.8-0.8c0-0.4,0.2-0.6,0.6-0.7c0.9-0.3,0.9-0.4,0.9-1.4
			v-13.4c0-0.9,0-1.1-0.9-1.4c-0.3-0.1-0.6-0.3-0.6-0.7c0-0.7,0.6-0.8,0.8-0.8h6.9V447.7z M445.8,446.9c-1.6,0.9-3.2,0.8-5,0.8h-0.8
			v-1.5c1.7-0.1,1.9-1,1.9-2V441c0-1.2-0.3-2.3-1.9-2.4v-1.5c1.9-0.2,1.9-1.2,1.9-2.2v-2.5c0-1.1-0.4-2.1-1.9-2.2v-1.5h0.8
			c1.6,0,3.2,0,4.7,0.7c1.6,0.8,2.5,2.1,2.5,3.9c0,2.8-2.3,4.1-4.8,4.5v0.1c2.8,0.5,5.1,1.7,5.1,4.9
			C448.2,444.5,447.4,446,445.8,446.9z M453.7,447.7h-2.9c-0.5,0-1.4,0-1.4-0.8c0-0.6,0.4-0.6,1-0.9c0.5-0.3,1.2-0.9,1.7-2.7
			l3.1-11.2h0.1l0.7,2.9l-2.4,8.7c-0.4,1.6-0.1,2,0.8,2.4c0.4,0.2,0.8,0.3,0.8,0.8C455,447.7,454.2,447.7,453.7,447.7z M465.7,447.7
			h-6.3c-0.5,0-1.2-0.1-1.2-0.7c0-0.4,0.2-0.5,0.5-0.7c0.7-0.4,0.8-0.6,0.5-1.6l-0.5-2h-3.7l0.4-1.5h3.1l-2.6-11.3l0.3-1.4h5.6
			l3.8,16.1c0.2,0.7,0.2,1.2,0.9,1.5c0.4,0.2,0.6,0.3,0.6,0.8C467.1,447.7,466.1,447.7,465.7,447.7z M477.3,447.7h-7.2
			c-0.1,0-0.9-0.1-0.9-0.8c0-0.4,0.2-0.6,0.6-0.7c0.9-0.3,0.9-0.4,0.9-1.4v-13.4c0-0.9,0-1.1-0.9-1.4c-0.3-0.1-0.6-0.3-0.6-0.7
			c0-0.7,0.8-0.8,0.9-0.8h6.7v16.2c0,0.9,0,1.1,0.9,1.4c0.3,0.1,0.6,0.3,0.6,0.7C478.3,447.6,477.4,447.7,477.3,447.7z M486.3,447.2
			c-0.9,0.7-1.8,0.9-2.9,0.9c-1.1,0-2.1-0.3-2.9-1.1c-0.9-0.9-1-2-1-3.2V442c0-1.2,0-2.6-1.6-2.8v-1.5c1.4-0.1,1.6-1,1.6-2.2v-3.1
			c0-1.3-0.3-1.9-1.6-2.3v-1.5h0.1c1.7,0,3.4-0.1,4.9,0.7c1.7,0.8,2.6,2.2,2.6,4.2c0.1,2.9-1.9,4.2-4.5,4.8v0.1
			c2.3,0.3,4.4,1,4.5,3.7v2.2c0,0.2-0.1,0.7,0.3,0.7c0.4,0,0.5-0.7,1.1-0.7c0.3,0,0.7,0.4,0.7,0.7
			C487.7,445.8,486.9,446.7,486.3,447.2z M494.2,447.7h-2.9c-0.5,0-1.4,0-1.4-0.8c0-0.6,0.4-0.6,1-0.9c0.5-0.3,1.2-0.9,1.7-2.7
			l3.1-11.2h0.1l0.7,2.9l-2.4,8.7c-0.4,1.6-0.1,2,0.8,2.4c0.4,0.2,0.8,0.3,0.8,0.8C495.5,447.7,494.7,447.7,494.2,447.7z
			 M506.1,447.7h-6.3c-0.5,0-1.2-0.1-1.2-0.7c0-0.4,0.2-0.5,0.5-0.7c0.7-0.4,0.8-0.6,0.5-1.6l-0.5-2h-3.7l0.4-1.5h3.1l-2.6-11.3
			l0.3-1.4h5.6l3.8,16.1c0.2,0.7,0.2,1.2,0.9,1.5c0.4,0.2,0.6,0.3,0.6,0.8C507.5,447.7,506.6,447.7,506.1,447.7z M517.8,447.7h-7.2
			c-0.1,0-0.9-0.1-0.9-0.8c0-0.4,0.2-0.6,0.6-0.7c0.9-0.3,0.9-0.4,0.9-1.4v-13.4c0-0.9,0-1.1-0.9-1.4c-0.3-0.1-0.6-0.3-0.6-0.7
			c0-0.7,0.8-0.8,0.9-0.8h7.2c0.1,0,0.9,0.1,0.9,0.8c0,0.4-0.2,0.6-0.6,0.7c-0.9,0.3-0.9,0.4-0.9,1.4v13.4c0,0.9,0,1.1,0.9,1.4
			c0.3,0.1,0.6,0.3,0.6,0.7C518.7,447.6,517.9,447.7,517.8,447.7z M527,447.7h-6.4c-0.6,0-1.4,0-1.4-0.8c0-0.8,1-0.7,1-1.2
			c0-0.2-0.1-0.6-0.2-0.8l-1.6-4.7c-0.2-0.5-0.3-1-0.3-1.6c0-0.5,0.3-0.9,0.6-1.3l3-4.2c0.4-0.5,0.7-1,0.7-1.6c0-0.7-0.4-1-1-1.3
			c-0.4-0.2-0.8-0.3-0.8-0.8c0-0.8,0.7-0.8,1.2-0.8h4.4c0.6,0,1.4,0,1.4,0.8c0,0.6-0.5,0.8-0.9,0.9c-1.8,0.7-2.3,1.6-3.4,3.1
			l-0.5,0.7l4.1,10.8c0.2,0.6,0.3,1,0.9,1.3c0.4,0.2,0.6,0.3,0.6,0.8C528.4,447.7,527.6,447.7,527,447.7z"/>
		<path fill="#000000" class="st1" d="M550.1,416.1c-4.1,0-7.5-3.4-7.5-7.5v-5.3h-29.8h-17.4H233.7v5.3c0,4.1-3.4,7.5-7.5,7.5h-5.3v44.4h5.3
			c4.1,0,7.5,3.4,7.5,7.5v5.3h261.6h17.4h29.8v-5.3c0-4.1,3.4-7.5,7.5-7.5h5.3v-44.4H550.1z M554.6,459.8h-4.5
			c-4.6,0-8.3,3.7-8.3,8.3v4.5h-29h-17.4H234.6v-4.5c0-4.6-3.7-8.3-8.3-8.3h-4.5V417h4.5c4.6,0,8.3-3.7,8.3-8.3v-4.5h260.8h17.4h29
			v4.5c0,4.6,3.7,8.3,8.3,8.3h4.5V459.8z"/>
	</g>
	<g>
		<path fill="#000000" class="st0" d="M558.1,83.6c-6.4,0-11.6-5.2-11.6-11.6v-1.7h-45.1c-0.4,1,0.8,2,0,2.9c-0.2,0.2,0.2,0.4,0,0.5h41.8
			c0.8,6.9,6.3,12.4,13.2,13.2v145.5h3.4V83.6H558.1z"/>
		<path fill="#000000" class="st0" d="M563.6,79.8h-5.5c-4.3,0-7.8-3.5-7.8-7.8v-5.5h-49c0,0.3,0,0.6,0,0.8h48.1V72c0,4.7,3.9,8.6,8.6,8.6h4.7
			v151.8h0.8V79.8z"/>
		<path fill="#000000" class="st0" d="M237.3,73.7h41.8c-0.2-0.2,0.2-0.3,0-0.5c-0.8-0.9,0.4-1.8,0-2.9H234V72c0,6.4-5.2,11.6-11.6,11.6h-1.7v148.8
			h3.4V86.9C231,86.1,236.5,80.6,237.3,73.7z"/>
		<path fill="#000000" class="st0" d="M222.4,80.6c4.7,0,8.6-3.9,8.6-8.6v-4.7h48.1c0-0.3,0-0.6,0-0.8h-49V72c0,4.3-3.5,7.8-7.8,7.8h-5.5v152.7h0.8
			V80.6H222.4z"/>
	</g>
	<g>
		<rect x="556.4" y="345.5" class="st0" width="3.4" height="50.1"/>
		<rect x="562.8" y="345.5" class="st0" width="0.8" height="50.1"/>
		<rect x="220.7" y="345.5" class="st0" width="3.4" height="50.1"/>
		<rect x="216.8" y="345.5" class="st0" width="0.8" height="50.1"/>
	</g>
</g>
<path fill="#000000" d="M273.602,481.306c-0.578-0.576-1.301-1.03-2.174-1.362c-0.873-0.331-1.885-0.497-3.039-0.497
	c-0.663,0-1.463,0.079-2.4,0.238v-6.077h-1.535v17.711c0.706,0.202,1.402,0.354,2.087,0.454s1.301,0.151,1.849,0.151
	c1.153,0,2.166-0.162,3.039-0.486s1.596-0.764,2.174-1.319c0.576-0.555,1.006-1.211,1.287-1.968s0.42-1.561,0.42-2.411
	s-0.139-1.657-0.42-2.422C274.608,482.554,274.178,481.883,273.602,481.306z M272.391,489.167c-0.852,0.829-2.17,1.243-3.958,1.243
	c-0.39,0-0.805-0.032-1.244-0.097c-0.439-0.065-0.84-0.134-1.2-0.206v-8.845c0.447-0.115,0.887-0.194,1.319-0.237
	c0.433-0.044,0.808-0.065,1.125-0.065c0.894,0,1.668,0.112,2.325,0.335c0.656,0.224,1.199,0.545,1.633,0.963
	c0.432,0.418,0.752,0.919,0.961,1.503s0.314,1.243,0.314,1.979C273.667,487.195,273.241,488.338,272.391,489.167z M247.392,479.446
	c-0.62,0-1.297,0.079-2.033,0.238c-0.735,0.158-1.485,0.433-2.249,0.821l-0.065,1.73c0.548-0.303,0.973-0.52,1.276-0.649
	s0.624-0.237,0.962-0.324c0.338-0.086,0.677-0.158,1.016-0.216s0.667-0.087,0.984-0.087c1.139,0,1.982,0.249,2.53,0.746
	s0.822,1.33,0.822,2.498v0.13c-0.332-0.044-0.732-0.087-1.2-0.13c-0.469-0.043-0.876-0.065-1.222-0.065
	c-1.831,0-3.302,0.311-4.412,0.931c-1.11,0.619-1.665,1.644-1.665,3.07c0,0.707,0.155,1.305,0.465,1.795
	c0.31,0.49,0.713,0.88,1.211,1.168s1.067,0.497,1.708,0.627c0.641,0.13,1.308,0.194,2,0.194c0.807,0,1.6-0.072,2.378-0.216
	c0.779-0.145,1.536-0.368,2.271-0.671v-7.028c0-1.585-0.397-2.742-1.189-3.471C250.189,479.811,248.992,479.446,247.392,479.446z
	 M250.636,489.892c-0.375,0.144-0.858,0.267-1.449,0.367c-0.591,0.102-1.183,0.151-1.773,0.151c-0.505,0-0.984-0.035-1.438-0.108
	c-0.454-0.071-0.84-0.197-1.157-0.378c-0.317-0.18-0.57-0.414-0.757-0.703c-0.188-0.288-0.281-0.663-0.281-1.124
	c0-0.52,0.111-0.934,0.335-1.244c0.224-0.31,0.533-0.551,0.93-0.724c0.396-0.174,0.85-0.296,1.362-0.368
	c0.511-0.072,1.041-0.108,1.589-0.108c0.476,0,0.984,0.029,1.524,0.087c0.541,0.058,0.912,0.108,1.114,0.151V489.892z
	 M258.032,479.868c-0.649,0.122-1.276,0.263-1.881,0.422v11.418h1.535v-10.186c0.202-0.072,0.563-0.147,1.082-0.228
	c0.519-0.079,1.002-0.118,1.449-0.118h1.989v-1.492H260C259.336,479.685,258.681,479.746,258.032,479.868z M-77.92,487.667
	l241.145,0.656l0.663-0.433l-0.632-0.564L-77.92,487.667z M164.994,487.825l1.95,1.95l1.95-1.95l-1.95-1.95L164.994,487.825z
	 M169.559,487.825l3.057,3.057l3.057-3.057l-3.057-3.057L169.559,487.825z M212.359,489.286l-3.395-9.602h-1.514l-3.396,9.602
	l-2.984-9.602h-1.73l3.979,12.023h1.428l3.46-9.645l3.46,9.645h1.427l3.979-12.023h-1.73L212.359,489.286z M238.418,489.589
	c-0.317,0-0.591,0.115-0.822,0.346c-0.231,0.23-0.346,0.505-0.346,0.822c0,0.316,0.115,0.591,0.346,0.821
	c0.23,0.23,0.504,0.346,0.822,0.346c0.317,0,0.591-0.115,0.822-0.346c0.23-0.23,0.346-0.505,0.346-0.821
	c0-0.317-0.116-0.592-0.346-0.822C239.009,489.704,238.735,489.589,238.418,489.589z M193.243,489.286l-3.395-9.602h-1.514
	l-3.396,9.602l-2.984-9.602h-1.73l3.979,12.023h1.428l3.46-9.645l3.46,9.645h1.427l3.979-12.023h-1.73L193.243,489.286z
	 M231.476,489.286l-3.395-9.602h-1.514l-3.396,9.602l-2.984-9.602h-1.73l3.979,12.023h1.428l3.46-9.645l3.46,9.645h1.427
	l3.979-12.023h-1.73L231.476,489.286z M382.732,480.474c-0.426-0.396-0.938-0.667-1.535-0.812c-0.598-0.144-1.271-0.216-2.021-0.216
	c-0.664,0-1.393,0.09-2.184,0.271c-0.793,0.181-1.471,0.4-2.033,0.659c-0.346-0.331-0.818-0.569-1.416-0.714
	c-0.6-0.144-1.273-0.216-2.023-0.216c-0.635,0-1.268,0.058-1.902,0.173l-2.465,0.454v11.635h1.535v-10.38
	c0.447-0.102,0.883-0.188,1.309-0.26c0.424-0.072,0.896-0.108,1.416-0.108c0.605,0,1.125,0.058,1.557,0.173
	c0.434,0.116,0.789,0.321,1.07,0.616c0.281,0.296,0.494,0.711,0.639,1.244s0.217,1.24,0.217,2.119v6.596h1.535v-7.201
	c0-0.663-0.055-1.243-0.162-1.741c-0.109-0.497-0.213-0.861-0.314-1.092c0.086-0.043,0.281-0.119,0.584-0.228
	c0.303-0.107,0.602-0.197,0.898-0.27c0.295-0.072,0.586-0.126,0.875-0.162s0.547-0.055,0.779-0.055c0.59,0,1.102,0.058,1.535,0.173
	c0.432,0.116,0.781,0.317,1.049,0.605c0.266,0.289,0.471,0.703,0.615,1.244c0.145,0.54,0.217,1.251,0.217,2.13v6.596h1.535v-7.201
	c0-0.995-0.111-1.816-0.336-2.466C383.482,481.393,383.158,480.87,382.732,480.474z M280.1,474.581
	c-0.785,0.648-1.18,1.729-1.18,3.243v1.86h-2.551v1.492h2.551v10.531h1.537v-10.531h4.973v-1.492h-4.973v-1.471
	c0-0.635,0.045-1.149,0.141-1.546c0.094-0.396,0.24-0.707,0.443-0.931c0.201-0.223,0.475-0.385,0.82-0.486
	c0.346-0.101,0.779-0.151,1.299-0.151h2.422v-1.492h-2.271C281.956,473.607,280.885,473.932,280.1,474.581z M398.273,487.825
	l3.057,3.057l3.057-3.057l-3.057-3.057L398.273,487.825z M343.322,482.322c0.389-0.418,0.854-0.749,1.395-0.994
	s1.135-0.368,1.783-0.368c0.736,0,1.373,0.076,1.914,0.228s1.121,0.414,1.74,0.789l0.715-1.405c-0.707-0.39-1.393-0.674-2.055-0.854
	c-0.664-0.181-1.436-0.271-2.314-0.271c-0.85,0-1.639,0.155-2.367,0.465c-0.729,0.311-1.367,0.746-1.914,1.309
	c-0.549,0.563-0.98,1.222-1.297,1.979c-0.317,0.757-0.476,1.59-0.476,2.498s0.158,1.74,0.476,2.497
	c0.316,0.757,0.748,1.413,1.297,1.969c0.547,0.555,1.186,0.987,1.914,1.297c0.729,0.311,1.518,0.465,2.367,0.465
	c0.879,0,1.65-0.09,2.314-0.27c0.662-0.181,1.348-0.466,2.055-0.854l-0.715-1.406c-0.619,0.375-1.199,0.639-1.74,0.79
	s-1.178,0.227-1.914,0.227c-0.648,0-1.242-0.119-1.783-0.356c-0.541-0.238-1.006-0.565-1.395-0.984
	c-0.391-0.418-0.693-0.915-0.908-1.492c-0.217-0.576-0.324-1.203-0.324-1.881s0.107-1.305,0.324-1.882
	C342.628,483.238,342.931,482.741,343.322,482.322z M404.387,487.825l1.949,1.95l1.951-1.95l-1.951-1.95L404.387,487.825z
	 M410.701,487.326l-0.664,0.433l0.633,0.564l241.176-0.341L410.701,487.326z M362.611,481.295c-0.549-0.569-1.193-1.02-1.936-1.352
	c-0.742-0.331-1.547-0.497-2.412-0.497c-0.863,0-1.668,0.166-2.41,0.497c-0.742,0.332-1.389,0.782-1.936,1.352
	c-0.549,0.57-0.977,1.229-1.287,1.979c-0.311,0.749-0.465,1.557-0.465,2.422s0.154,1.672,0.465,2.422s0.738,1.409,1.287,1.979
	c0.547,0.569,1.193,1.017,1.936,1.341s1.547,0.486,2.41,0.486c0.865,0,1.67-0.162,2.412-0.486s1.387-0.771,1.936-1.341
	c0.547-0.569,0.977-1.229,1.287-1.979c0.309-0.75,0.465-1.557,0.465-2.422s-0.156-1.673-0.465-2.422
	C363.587,482.524,363.158,481.865,362.611,481.295z M362.394,487.523c-0.217,0.569-0.52,1.067-0.908,1.492
	c-0.389,0.426-0.857,0.765-1.406,1.017c-0.547,0.252-1.152,0.378-1.816,0.378c-0.662,0-1.268-0.126-1.816-0.378
	c-0.547-0.252-1.016-0.591-1.404-1.017c-0.391-0.425-0.693-0.923-0.908-1.492c-0.217-0.569-0.324-1.179-0.324-1.827
	c0-0.649,0.107-1.262,0.324-1.839c0.215-0.576,0.518-1.077,0.908-1.503c0.389-0.425,0.857-0.764,1.404-1.016
	c0.549-0.252,1.154-0.379,1.816-0.379c0.664,0,1.27,0.127,1.816,0.379c0.549,0.252,1.018,0.591,1.406,1.016
	c0.389,0.426,0.691,0.927,0.908,1.503c0.217,0.577,0.324,1.189,0.324,1.839C362.718,486.345,362.611,486.954,362.394,487.523z
	 M296.221,481.295c-0.547-0.569-1.191-1.02-1.936-1.352c-0.742-0.331-1.545-0.497-2.41-0.497s-1.67,0.166-2.412,0.497
	c-0.742,0.332-1.387,0.782-1.936,1.352c-0.547,0.57-0.977,1.229-1.285,1.979c-0.311,0.749-0.465,1.557-0.465,2.422
	s0.154,1.672,0.465,2.422c0.309,0.75,0.738,1.409,1.285,1.979c0.549,0.569,1.193,1.017,1.936,1.341s1.547,0.486,2.412,0.486
	s1.668-0.162,2.41-0.486c0.744-0.324,1.389-0.771,1.936-1.341c0.549-0.569,0.977-1.229,1.287-1.979s0.465-1.557,0.465-2.422
	s-0.154-1.673-0.465-2.422C297.198,482.524,296.77,481.865,296.221,481.295z M296.006,487.523c-0.217,0.569-0.52,1.067-0.908,1.492
	c-0.391,0.426-0.859,0.765-1.406,1.017c-0.549,0.252-1.154,0.378-1.816,0.378c-0.664,0-1.27-0.126-1.816-0.378
	c-0.549-0.252-1.018-0.591-1.406-1.017c-0.389-0.425-0.691-0.923-0.908-1.492s-0.324-1.179-0.324-1.827
	c0-0.649,0.107-1.262,0.324-1.839c0.217-0.576,0.52-1.077,0.908-1.503c0.389-0.425,0.857-0.764,1.406-1.016
	c0.547-0.252,1.152-0.379,1.816-0.379c0.662,0,1.268,0.127,1.816,0.379c0.547,0.252,1.016,0.591,1.406,1.016
	c0.389,0.426,0.691,0.927,0.908,1.503c0.215,0.577,0.324,1.189,0.324,1.839C296.331,486.345,296.221,486.954,296.006,487.523z
	 M309.381,480.463c-0.455-0.39-0.996-0.656-1.623-0.801c-0.627-0.144-1.309-0.216-2.043-0.216c-0.707,0-1.465,0.047-2.271,0.141
	s-1.701,0.234-2.682,0.422v11.699h1.535v-10.402c1.184-0.23,2.293-0.346,3.33-0.346c0.592,0,1.111,0.062,1.559,0.184
	c0.445,0.123,0.818,0.332,1.113,0.628c0.295,0.295,0.525,0.713,0.691,1.254s0.25,1.251,0.25,2.13v6.553h1.535v-7.201
	c0-0.995-0.119-1.82-0.357-2.477C310.18,481.375,309.834,480.852,309.381,480.463z M318.516,490.054
	c-0.346-0.108-0.619-0.277-0.82-0.509c-0.203-0.23-0.35-0.547-0.443-0.951c-0.096-0.403-0.141-0.922-0.141-1.557v-5.86h4.973v-1.492
	h-4.973v-4.347h-1.537v4.347h-2.551v1.492h2.551v6.466c0,0.764,0.109,1.405,0.326,1.925c0.215,0.519,0.525,0.937,0.93,1.254
	c0.402,0.317,0.867,0.544,1.395,0.682c0.525,0.137,1.105,0.205,1.74,0.205h2.271v-1.492h-2.422
	C319.295,490.216,318.862,490.162,318.516,490.054z M337.784,489.589c-0.316,0-0.59,0.115-0.82,0.346s-0.346,0.505-0.346,0.822
	c0,0.316,0.115,0.591,0.346,0.821s0.504,0.346,0.82,0.346c0.318,0,0.592-0.115,0.822-0.346s0.346-0.505,0.346-0.821
	c0-0.317-0.115-0.592-0.346-0.822S338.102,489.589,337.784,489.589z M333.178,486.106c-0.346-0.303-0.785-0.565-1.318-0.789
	c-0.533-0.223-1.182-0.422-1.947-0.595l-0.799-0.173c-1.053-0.216-1.781-0.461-2.184-0.735c-0.404-0.273-0.607-0.678-0.607-1.211
	c0-0.504,0.238-0.904,0.715-1.2c0.475-0.295,1.174-0.443,2.098-0.443c0.793,0,1.477,0.076,2.055,0.228
	c0.576,0.151,1.217,0.421,1.924,0.811l0.691-1.405c-1.412-0.765-2.969-1.146-4.67-1.146c-0.635,0-1.223,0.076-1.764,0.228
	c-0.539,0.151-1.008,0.364-1.404,0.638s-0.711,0.605-0.941,0.994c-0.23,0.39-0.346,0.815-0.346,1.276
	c0,0.462,0.072,0.88,0.217,1.254c0.143,0.375,0.381,0.707,0.713,0.995s0.758,0.537,1.275,0.746c0.52,0.209,1.146,0.4,1.883,0.573
	l0.908,0.194c1.008,0.217,1.729,0.49,2.162,0.822c0.432,0.331,0.648,0.771,0.648,1.318c0,0.39-0.086,0.707-0.26,0.952
	c-0.172,0.245-0.414,0.436-0.725,0.573c-0.311,0.137-0.678,0.237-1.102,0.303c-0.426,0.064-0.877,0.097-1.352,0.097
	c-0.592,0-1.223-0.09-1.893-0.271c-0.67-0.18-1.352-0.479-2.045-0.897l-0.734,1.471c0.779,0.433,1.539,0.742,2.281,0.93
	s1.539,0.281,2.391,0.281c0.748,0,1.434-0.072,2.053-0.216c0.621-0.145,1.158-0.36,1.611-0.648c0.455-0.289,0.805-0.649,1.049-1.082
	c0.246-0.433,0.369-0.93,0.369-1.492c0-0.476-0.072-0.915-0.217-1.318C333.77,486.763,333.526,486.41,333.178,486.106z"/>
</svg>

