<?xml version="1.0" encoding="utf-8"?>
<!-- Generator: Adobe Illustrator 21.0.0, SVG Export Plug-In . SVG Version: 6.00 Build 0)  -->
<svg version="1.1" id="Layer_1" xmlns="http://www.w3.org/2000/svg" xmlns:xlink="http://www.w3.org/1999/xlink" x="0px" y="0px"
	 viewBox="0 0 800 500" style="enable-background:new 0 0 800 500;" xml:space="preserve">
<style type="text/css">
	.st0{fill:#020202;}
</style>
<g>
	<g>
		<path fill="#000000" class="st0" d="M399.7,197.8c0,6.8,5.5,12.4,13.4,12.4c7.9,0,13.1-5.7,13.1-12.4c0-6.8-5.2-12.4-13.1-12.4
			C405.2,185.3,399.7,191,399.7,197.8z"/>
		<path fill="#000000" class="st0" d="M366.9,197.8c0,6.8,5.5,12.4,13.4,12.4c7.9,0,13.1-5.7,13.1-12.4c0-6.8-5.2-12.4-13.1-12.4
			C372.4,185.3,366.9,191,366.9,197.8z"/>
		<path fill="#000000" class="st0" d="M335.8,349.6c-7.9,0-13.4,5.7-13.4,12.4s5.5,12.4,13.4,12.4c7.9,0,13.1-5.7,13.1-12.4
			S343.7,349.6,335.8,349.6z"/>
		<path fill="#000000" class="st0" d="M303,349.6c-7.9,0-13.4,5.7-13.4,12.4s5.5,12.4,13.4,12.4c7.9,0,13.1-5.7,13.1-12.4S310.9,349.6,303,349.6z"
			/>
		<path fill="#000000" class="st0" d="M358.9,169.5v-1v-0.8v-4.2c4.6,4.2,9.2,6.7,18.4,6.9c10.8,0.2,18.2-4.4,23.2-11.7
			c8.2,13.1,21.7,11.7,21.7,11.7c37.5-8.3,55.7-8,90.8,2.9l-1.9-24l-40.4,2c-24.2-5.5-25.2-77.1,2-77.1c10.3,0,17.5,7.2,18.3,16.6
			c0.3,3.9,0.2,8.9-5.2,8.9c-3.9,0-2.5-11.1-11.1-11.1c-4.5,0-7.9,4.5-7.9,8.4c0,7.2,8.6,11.4,14.3,11.4c14.8,0,18.8-10.8,18.8-22.5
			c-1.5-17.1-14.1-22.7-30.4-22.7c-29.9,0-44.2,29.6-42,54.1c1.2,14.4,7.3,27.3,17.8,35.2l-21.8,1.1l0,0.1
			c-6.9,0.5-14.3-1.4-15.5-16.1c3.1-20.5-1.1-46-7.2-61.8l-14.3,2.7c-0.3-1.4,16.6,74.1-14.6,73.5c-8.4-0.2-12.7-5.8-14.8-12.9
			c-1.1-19-2.1-41.7-2.1-49.1c0-15.8-18.5-23.4-31.6-23.4c-13.9,0-30.9,8.9-30.9,24.9c0,9.2,7.4,13.9,15.6,13.9
			c7.7,0,13.9-3.2,13.9-11.4c0-4.4-3.2-7.2-7.4-7.2c-6.6,0-6.9,4.9-6.9,10.1c-3.2,0-6.7-1-6.7-5.7c0-9.1,8.1-14.5,16.1-14.5
			c21.5,0,22.5,26.2,22.5,40.5v35.3c-17.4,2.3-34.6,5.2-60.7,0.4v18.7C304.6,170.7,332,162.9,358.9,169.5z"/>
		<path fill="#000000" class="st0" d="M575.3,238.4c-7.3-0.2-21.5,0.6-26,14.4l-0.7,0.1c0-0.1,0.1,0.4,0.3,1.4c-0.6,2.3-0.9,4.9-0.9,7.9
			c0,8.5,4.1,38.6,3.6,43.2c0.1,0,0.3,0,0.4,0c-1.9,12-6.9,21.1-18,20.5c-8.2-0.4-12.4-6-14.6-12.9c3.7-20.7-0.6-47.6-6.8-64.1
			l-14.3,2.2c-0.3-1.4,16.6,74.7-14.6,73c-7.7-0.4-11.9-5.3-14.2-11.6c4.1-20.9-0.2-48.5-6.6-65.3l-14.3,2.2
			c-0.3-1.4,16.6,74.7-14.6,73c-2.4-0.1-4.4-0.2-6.3-0.1l-29.7-0.5l0.4-1.1c-27.1-0.9-29.2-78.5-1-77.5c10.3,0.3,17.5,7.8,18.3,17.3
			c0.3,3.9,0.2,8.9-5.2,8.7c-3.9-0.1-2.5-11.2-11.1-11.5c-4.5-0.2-7.9,4.3-7.9,8.1c0,7.2,8.6,11.7,14.3,11.9
			c14.8,0.5,18.8-10.1,18.8-21.9c-1.5-17.2-14.1-23.2-30.4-23.7c-29.9-1-44.2,28.1-42,52.7c1.3,14.9,7.7,28.4,18.7,36.5l-22.8-0.4
			l0,0.1c-6.9,0.3-14.3-1.8-15.5-16.6c3.1-20.4-1.1-46-7.2-62l-14.3,2.2c-0.3-1.4,16.6,74.7-14.6,73c-8.4-0.5-12.7-6.2-14.8-13.4
			c-1.1-19.1-2.1-41.7-2.1-49.2c0-15.8-18.5-24-31.6-24.4c-13.9-0.5-30.9,7.9-30.9,23.8c0,9.2,7.4,14.2,15.6,14.5
			c7.7,0.3,13.9-2.7,13.9-11c0-4.4-3.2-7.3-7.4-7.5c-6.6-0.2-6.9,4.6-6.9,9.9c-3.2-0.1-6.7-1.2-6.7-5.9c0-9.1,8.1-14.2,16.1-13.9
			c21.5,0.7,22.5,27,22.5,41.3v35.3c-17.4,1.8-34.6,4.1-60.7-1.6v18.7c25.7-0.3,53.1-7.1,80,0.3v-1V333v-4.2c4.6,4.4,9.2,7,18.4,7.5
			c10.8,0.6,18.2-3.7,23.2-10.9c8.2,13.3,21.7,12.4,21.7,12.4c37.5-7.1,57.6,3.4,92.6,3.2c11.8,0.6,19.7-4.7,24.6-13.2l1.7,2
			c6.9,7.6,11,12.2,23.5,12.9c12.3,0.7,20.3-5.1,25.2-14.2l-0.1,0.9l1.8,2.1c6.9,7.6,11,12.2,23.5,12.9c23.4,1.3,31.3-20.5,31.7-45
			l0,0v-32.3c0-9.5-6.1-22.3,8.3-21.8c5.4,0.2,10.8,3.9,10.8,10c0,3.1-2.4,3.7-4.5,3.7c0-3.5-0.2-6.7-4.6-6.9
			c-2.8-0.1-4.9,1.7-4.9,4.7c0,5.5,4.1,7.8,9.3,7.9c5.5,0.2,10.4-2.8,10.4-8.9C595.9,245,584.6,238.7,575.3,238.4z"/>
		<path fill="#000000" class="st0" d="M778.9,70.1c0,0-0.1,0-0.1,0c-0.8-0.2-1.5-0.2-2.2,0.2c-24.2,11-50.6-0.4-76.4,2.1
			c-16.5,1.6-36.1,11.6-33.9,29.9c-0.5,0.5-0.7,1.4-0.1,2.7c8.8,18.8,32.4,23.7,50.9,17.9c11.9-3.7,22.2-11.2,31.7-19
			c8.6-7,17.3-14,25.9-20.9c2.4-1.2,4.5-2.9,6.4-5.1c0.6-0.5,1.3-1,1.9-1.5C785.9,74,781.9,69.1,778.9,70.1z M732.3,102.7
			c-17.8,12.8-43.3,21.4-59.5,2.2c-0.3-28.5,43.9-25.1,62.9-22.7c5.3,0.7,11.6,2.1,18,2.8C746.5,90.9,739.7,97.3,732.3,102.7z"/>
		<path fill="#000000" class="st0" d="M669.4,131.2c-12-6.1-25.8-12.2-39.6-14.9c9.6-8.6,17.9-19.3,24.9-29.3c6.1-8.8,20.4-25.4,10.3-35.7
			c-9.5-9.6-20.6-1.6-26.8,7.1c-7.4,10.4-14.5,21.7-20.7,33.3c-3.5-10.4-10.5-20.4-17.2-26.2c-19.2-16.8-57.7-19.7-66.5,10.1
			c-6.7,22.7,16.6,45.5,39.1,34.9c7.6-3.6,15.7-14.5,6.4-21c-7.2-5-16.8-0.4-18,7.8c-0.3,2,1.5,3.7,3.6,4.4
			c-1.8,0.8-3.6,1.5-4.3,1.6c-11.2,1.6-17.3-9-16.5-18.7c1.3-15.4,16.2-24.6,30.8-23c19.5,2,38.2,25.9,34.9,45.5
			c-1.7,3.7-3.3,7.4-4.8,11.1c-0.8,1.1-1.6,2.1-2.7,3.1c-2.6,2.5,2.7,5.8,5.1,4.6c1.2,0.4,2.4,0.8,3.5,1.3c3,2.6,6.2,5.1,9.4,7.5
			c12.1,15.8,6.9,45.6-9.3,56.6c-12.2,8.3-29.7,7.3-38.1-5.7c-5.3-8.2-4.9-20.4,5.7-24.3c0.7-0.3,2.6-0.4,4.6-0.6
			c-1.5,1.6-2.3,4-1.1,5.6c4.9,6.7,15.6,6.2,19.5-1.6c5.1-10.2-7.2-16-15.5-15.5c-24.8,1.4-34.5,32.4-17.9,49.3
			c21.8,22.1,54.4,1.3,63.4-22.6c3.1-8.3,4.5-20.4,2.7-31.2c11,7.3,22.5,13.9,33.9,19.5c9.6,4.7,23.2,6.6,27-6.4
			C699.4,144,678.9,136,669.4,131.2z M619.6,108.1c3.9-6.8,7.7-13.5,11.8-20.2c3.6-5.9,7.3-11.6,11.2-17.3
			c1.9-2.8,13.6-20.2,13.1-8.1c-0.2,4-6.2,10.8-8.3,14.1c-4,6.1-8.4,12-13.2,17.6c-4.6,5.4-9.8,10.2-14.8,15.1
			C619.5,108.9,619.6,108.5,619.6,108.1z M666.6,151.3c-6.1-3.2-12.1-6.5-18.1-10c-6.8-3.9-13.4-8-20-12.2c-0.2-0.3-0.5-0.7-0.7-1
			c6.8,1.9,13.6,3.7,20.2,6.3c6.8,2.7,13.5,5.8,19.9,9.3c3.5,1.9,12,5.1,14,8.5C688.1,162.7,669.6,152.9,666.6,151.3z"/>
		<path fill="#000000" class="st0" d="M128.8,106.1c0.3-0.8,0.1-1.6-0.4-2.4c1.6-16-14.8-27.3-29.5-30.2c-12.6-2.5-26-2.1-38.7-0.9
			c-15.8,1.5-28.8,6-43.7-2c-1.1-0.6-2-0.6-2.8-0.4c-3.4-0.8-3.8,3.6-1.4,5.3c1.1,0.8,2.1,1.6,3.2,2.4c1.3,1.2,2.7,2.3,4.2,3.2
			c18,14.3,35.3,31.9,56.6,40.2C94.7,128.5,120,126.4,128.8,106.1z M38.8,85.4c4.2-0.1,8.5-0.6,12.6-1.4
			c19.1-3.5,70.8-11.5,70.5,19.3C95.3,134.5,65.7,106.1,38.8,85.4z"/>
		<path fill="#000000" class="st0" d="M226.4,198.5c16.6-16.8,6.9-47.9-17.9-49.3c-8.4-0.5-20.7,5.3-15.5,15.5c3.9,7.8,14.6,8.3,19.5,1.6
			c1.2-1.7,0.4-4-1.1-5.6c2,0.2,3.9,0.3,4.6,0.6c10.6,3.9,11,16.1,5.7,24.3c-8.4,13-25.9,14-38.1,5.7c-16.2-11-21.4-40.8-9.3-56.6
			c3.2-2.5,6.4-4.9,9.4-7.5c1.1-0.5,2.3-1,3.5-1.3c2.3,1.2,7.6-2.2,5.1-4.6c-1-1-1.9-2-2.7-3.1c-1.5-3.7-3.1-7.4-4.8-11.1
			c-3.2-19.6,15.5-43.4,34.9-45.5c14.6-1.5,29.6,7.6,30.8,23c0.8,9.7-5.4,20.3-16.5,18.7c-0.7-0.1-2.5-0.8-4.3-1.6
			c2.1-0.7,3.9-2.4,3.6-4.4c-1.2-8.2-10.8-12.8-18-7.8c-9.3,6.5-1.2,17.5,6.4,21c22.5,10.5,45.8-12.2,39.1-34.9
			c-8.8-29.8-47.3-26.9-66.5-10.1c-6.7,5.9-13.6,15.8-17.2,26.2C171,80,164,68.8,156.6,58.4c-6.2-8.7-17.3-16.7-26.8-7.1
			C119.6,61.5,133.9,78.2,140,87c7,10,15.3,20.8,24.9,29.3c-13.8,2.7-27.6,8.8-39.6,14.9c-9.6,4.8-30,12.8-25.9,26.6
			c3.8,13,17.4,11.2,27,6.4c11.5-5.7,23-12.2,33.9-19.5c-1.8,10.8-0.4,22.9,2.7,31.2C172,199.8,204.6,220.6,226.4,198.5z
			 M147.2,76.6c-2.2-3.3-8.2-10.2-8.3-14.1c-0.5-12.1,11.2,5.3,13.1,8.1c3.9,5.7,7.6,11.5,11.2,17.3c4.1,6.6,8,13.4,11.8,20.2
			c0,0.4,0.1,0.8,0.2,1.3c-5.1-4.9-10.3-9.7-14.8-15.1C155.6,88.7,151.2,82.8,147.2,76.6z M166.1,129.2c-6.6,4.1-13.2,8.3-20,12.2
			c-6,3.4-12,6.8-18.1,10c-3,1.6-21.5,11.4-15.4,0.9c2-3.4,10.6-6.6,14-8.5c6.4-3.5,13.1-6.6,19.9-9.3c6.6-2.6,13.4-4.4,20.2-6.3
			C166.6,128.5,166.4,128.8,166.1,129.2z"/>
	</g>
	<g>
		<g>
			<path fill="#000000" class="st0" d="M307.1,431.9c4.3-0.2,10-3.6,9-8.7c-0.8-4.1-5.4-5.5-8.8-3.7c-1.3,0.7,0.5,2.3,1.5,2.2
				c2.4-0.4,4.6,1.6,3.3,4c-0.8,1.4-2.3,2.2-3.8,2.8c-4.2,1.5-8.8,0-9.5-4.8c-0.7-4.8,4-9.6,7.2-12.4c6.9-5.9,15.6-9.3,24.5-10.7
				c8.7-1.4,17.6-1.1,26.3,0.3c10.6,1.7,25.4,4.7,27.2,17c-7.5-5.2-18.6-5.7-27.3-4.8c-8.2,0.8-19.5,4-20.4,13.8
				c-0.1,1.1,1.5,2.2,2.5,1.7c9.3-5,20.2-7.9,31-8.6c-0.5,0.1-1.1,0.2-1.6,0.4c-4.1,0.9-8.1,2.1-11.7,4.3c-4.5,2.8-9,9-3.3,13.1
				c0.5,0.4,1.5,0.8,2,0.2c2.9-4,6.3-7.2,10.2-9.7c-0.8,0.9-1.5,1.8-2.1,2.7c-1.5,2.5-2.1,4.7-0.6,7.3c0.8,1.3,2.4,3.6,4.2,3.5
				c0.6,0,1.1-0.3,1.1-0.9c0.2-9,10.2-15.6,17.5-19.4c0.1,0,0.2-0.1,0.3-0.1c0.5-0.2,0.4-0.6,0.2-0.9c1.4-12.6-12.5-18.4-22.5-20.7
				c-11.5-2.7-23.5-3.7-35.2-1.7c-10.9,1.9-23.6,7-29.9,16.6C293.3,422.3,296.7,432.4,307.1,431.9z M360.5,415.6
				c5.9-0.3,11.1,0.5,16.4,2c-12.2-1.3-25.6,1.5-36.6,6.7C343.5,417.6,354,415.9,360.5,415.6z M354,434.3c-0.2-1.5,0.4-3.4,1.1-4.3
				c0.9-1.1,2.4-2.1,3.7-2.9c2.1-1.3,4.4-2.3,6.7-3c0.5-0.1,1-0.3,1.5-0.4C361.9,426.3,357.5,429.9,354,434.3z M365.5,437.8
				c-0.2-0.8-0.3-1.7-0.3-1.9c-0.1-1.8,0.9-3.3,2-4.7c1.6-2,4-3.5,6.1-4.8c0,0,0.1,0,0.1,0C369.4,429.4,366.3,433.3,365.5,437.8z"/>
			<path fill="#000000" class="st0" d="M479.7,414.5c-6.4-9.6-19-14.7-29.9-16.6c-11.7-2-23.7-1-35.2,1.7c-10,2.3-23.9,8.1-22.5,20.7
				c-0.2,0.3-0.2,0.7,0.2,0.9c0.1,0,0.2,0.1,0.3,0.1c7.2,3.7,17.3,10.4,17.5,19.4c0,0.6,0.5,0.9,1.1,0.9c1.8,0,3.4-2.2,4.2-3.5
				c1.6-2.6,0.9-4.7-0.6-7.3c-0.5-0.9-1.2-1.8-2.1-2.7c3.8,2.5,7.3,5.7,10.2,9.7c0.5,0.7,1.5,0.2,2-0.2c5.7-4.2,1.2-10.3-3.3-13.1
				c-3.6-2.2-7.6-3.4-11.7-4.3c-0.5-0.1-1.1-0.2-1.6-0.4c10.8,0.7,21.8,3.6,31,8.6c1,0.5,2.6-0.6,2.5-1.7
				c-0.9-9.8-12.1-13-20.4-13.8c-8.7-0.9-19.8-0.4-27.3,4.8c1.7-12.2,16.6-15.3,27.2-17c8.7-1.4,17.6-1.7,26.3-0.3
				c8.9,1.4,17.6,4.8,24.5,10.7c3.2,2.8,8,7.6,7.2,12.4c-0.7,4.8-5.4,6.3-9.5,4.8c-1.5-0.5-3-1.3-3.8-2.8c-1.3-2.4,1-4.4,3.3-4
				c0.9,0.1,2.7-1.5,1.5-2.2c-3.4-1.8-8-0.4-8.8,3.7c-1,5.1,4.7,8.5,9,8.7C481.5,432.4,484.9,422.3,479.7,414.5z M437.9,424.3
				c-11-5.1-24.4-8-36.6-6.7c5.2-1.5,10.5-2.3,16.4-2C424.2,415.9,434.7,417.6,437.9,424.3z M411.3,423.7c0.5,0.1,1,0.3,1.5,0.4
				c2.4,0.7,4.6,1.7,6.7,3c1.3,0.8,2.8,1.8,3.7,2.9c0.7,0.9,1.3,2.8,1.1,4.3C420.7,429.9,416.3,426.3,411.3,423.7z M404.9,426.3
				C404.9,426.3,405,426.3,404.9,426.3c2.2,1.4,4.6,2.9,6.2,4.9c1.1,1.4,2.1,2.9,2,4.7c0,0.2-0.1,1.1-0.3,1.9
				C411.9,433.3,408.8,429.4,404.9,426.3z"/>
		</g>
		<g>
			<rect x="197.3" y="417.5" class="st0" width="89.6" height="2.9"/>
		</g>
		<g>
			<rect x="493.3" y="417.5" class="st0" width="89.6" height="2.9"/>
		</g>
		<path fill="#000000" class="st0" d="M582.3,419.2c3.4,3.2,8.7,4.3,13,2.7c1.9-0.7,3.8-3,2.4-4.4c-0.6-0.6-1.4-0.7-2.2-0.8
			c-4.4-0.3-8.8,0.5-12.8,2.2"/>
		<path fill="#000000" class="st0" d="M198.6,419c-3.8,1.5-7.9,2.3-12.1,2.3c-0.7,0-1.5,0-2.2-0.4c-2.3-1.2-1.3-5.1,1-6.1c2.4-1,5.1,0,7.4,1.3
			c2.3,1.2,4.6,2.7,7.2,2.7"/>
		<path fill="#000000" class="st0" d="M389.4,423.8c3.1,5.4,4,12.2,4.1,18.4c0.1,3.2-0.3,6.6-2.2,9.1c-0.6,0.8-1.5,1.6-2.6,1.6
			c-0.5,0-1-0.2-1.4-0.5c-1.1-0.6-2.1-1.2-2.9-2.1c-2.1-2.4-2.1-6-1.7-9.2c0.6-4.4,1.7-8.7,3.4-12.8
			C386.8,426.5,387.8,424.6,389.4,423.8"/>
	</g>
</g>
<path fill="#000000" d="M273.602,481.306c-0.578-0.576-1.301-1.03-2.174-1.362c-0.873-0.331-1.885-0.497-3.039-0.497
	c-0.663,0-1.463,0.079-2.4,0.238v-6.077h-1.535v17.711c0.706,0.202,1.402,0.354,2.087,0.454s1.301,0.151,1.849,0.151
	c1.153,0,2.166-0.162,3.039-0.486s1.596-0.764,2.174-1.319c0.576-0.555,1.006-1.211,1.287-1.968s0.42-1.561,0.42-2.411
	s-0.139-1.657-0.42-2.422C274.608,482.554,274.178,481.883,273.602,481.306z M272.391,489.167c-0.852,0.829-2.17,1.243-3.958,1.243
	c-0.39,0-0.805-0.032-1.244-0.097c-0.439-0.065-0.84-0.134-1.2-0.206v-8.845c0.447-0.115,0.887-0.194,1.319-0.237
	c0.433-0.044,0.808-0.065,1.125-0.065c0.894,0,1.668,0.112,2.325,0.335c0.656,0.224,1.199,0.545,1.633,0.963
	c0.432,0.418,0.752,0.919,0.961,1.503s0.314,1.243,0.314,1.979C273.667,487.195,273.241,488.338,272.391,489.167z M247.392,479.446
	c-0.62,0-1.297,0.079-2.033,0.238c-0.735,0.158-1.485,0.433-2.249,0.821l-0.065,1.73c0.548-0.303,0.973-0.52,1.276-0.649
	s0.624-0.237,0.962-0.324c0.338-0.086,0.677-0.158,1.016-0.216s0.667-0.087,0.984-0.087c1.139,0,1.982,0.249,2.53,0.746
	s0.822,1.33,0.822,2.498v0.13c-0.332-0.044-0.732-0.087-1.2-0.13c-0.469-0.043-0.876-0.065-1.222-0.065
	c-1.831,0-3.302,0.311-4.412,0.931c-1.11,0.619-1.665,1.644-1.665,3.07c0,0.707,0.155,1.305,0.465,1.795
	c0.31,0.49,0.713,0.88,1.211,1.168s1.067,0.497,1.708,0.627c0.641,0.13,1.308,0.194,2,0.194c0.807,0,1.6-0.072,2.378-0.216
	c0.779-0.145,1.536-0.368,2.271-0.671v-7.028c0-1.585-0.397-2.742-1.189-3.471C250.189,479.811,248.992,479.446,247.392,479.446z
	 M250.636,489.892c-0.375,0.144-0.858,0.267-1.449,0.367c-0.591,0.102-1.183,0.151-1.773,0.151c-0.505,0-0.984-0.035-1.438-0.108
	c-0.454-0.071-0.84-0.197-1.157-0.378c-0.317-0.18-0.57-0.414-0.757-0.703c-0.188-0.288-0.281-0.663-0.281-1.124
	c0-0.52,0.111-0.934,0.335-1.244c0.224-0.31,0.533-0.551,0.93-0.724c0.396-0.174,0.85-0.296,1.362-0.368
	c0.511-0.072,1.041-0.108,1.589-0.108c0.476,0,0.984,0.029,1.524,0.087c0.541,0.058,0.912,0.108,1.114,0.151V489.892z
	 M258.032,479.868c-0.649,0.122-1.276,0.263-1.881,0.422v11.418h1.535v-10.186c0.202-0.072,0.563-0.147,1.082-0.228
	c0.519-0.079,1.002-0.118,1.449-0.118h1.989v-1.492H260C259.336,479.685,258.681,479.746,258.032,479.868z M-77.92,487.667
	l241.145,0.656l0.663-0.433l-0.632-0.564L-77.92,487.667z M164.994,487.825l1.95,1.95l1.95-1.95l-1.95-1.95L164.994,487.825z
	 M169.559,487.825l3.057,3.057l3.057-3.057l-3.057-3.057L169.559,487.825z M212.359,489.286l-3.395-9.602h-1.514l-3.396,9.602
	l-2.984-9.602h-1.73l3.979,12.023h1.428l3.46-9.645l3.46,9.645h1.427l3.979-12.023h-1.73L212.359,489.286z M238.418,489.589
	c-0.317,0-0.591,0.115-0.822,0.346c-0.231,0.23-0.346,0.505-0.346,0.822c0,0.316,0.115,0.591,0.346,0.821
	c0.23,0.23,0.504,0.346,0.822,0.346c0.317,0,0.591-0.115,0.822-0.346c0.23-0.23,0.346-0.505,0.346-0.821
	c0-0.317-0.116-0.592-0.346-0.822C239.009,489.704,238.735,489.589,238.418,489.589z M193.243,489.286l-3.395-9.602h-1.514
	l-3.396,9.602l-2.984-9.602h-1.73l3.979,12.023h1.428l3.46-9.645l3.46,9.645h1.427l3.979-12.023h-1.73L193.243,489.286z
	 M231.476,489.286l-3.395-9.602h-1.514l-3.396,9.602l-2.984-9.602h-1.73l3.979,12.023h1.428l3.46-9.645l3.46,9.645h1.427
	l3.979-12.023h-1.73L231.476,489.286z M382.732,480.474c-0.426-0.396-0.938-0.667-1.535-0.812c-0.598-0.144-1.271-0.216-2.021-0.216
	c-0.664,0-1.393,0.09-2.184,0.271c-0.793,0.181-1.471,0.4-2.033,0.659c-0.346-0.331-0.818-0.569-1.416-0.714
	c-0.6-0.144-1.273-0.216-2.023-0.216c-0.635,0-1.268,0.058-1.902,0.173l-2.465,0.454v11.635h1.535v-10.38
	c0.447-0.102,0.883-0.188,1.309-0.26c0.424-0.072,0.896-0.108,1.416-0.108c0.605,0,1.125,0.058,1.557,0.173
	c0.434,0.116,0.789,0.321,1.07,0.616c0.281,0.296,0.494,0.711,0.639,1.244s0.217,1.24,0.217,2.119v6.596h1.535v-7.201
	c0-0.663-0.055-1.243-0.162-1.741c-0.109-0.497-0.213-0.861-0.314-1.092c0.086-0.043,0.281-0.119,0.584-0.228
	c0.303-0.107,0.602-0.197,0.898-0.27c0.295-0.072,0.586-0.126,0.875-0.162s0.547-0.055,0.779-0.055c0.59,0,1.102,0.058,1.535,0.173
	c0.432,0.116,0.781,0.317,1.049,0.605c0.266,0.289,0.471,0.703,0.615,1.244c0.145,0.54,0.217,1.251,0.217,2.13v6.596h1.535v-7.201
	c0-0.995-0.111-1.816-0.336-2.466C383.482,481.393,383.158,480.87,382.732,480.474z M280.1,474.581
	c-0.785,0.648-1.18,1.729-1.18,3.243v1.86h-2.551v1.492h2.551v10.531h1.537v-10.531h4.973v-1.492h-4.973v-1.471
	c0-0.635,0.045-1.149,0.141-1.546c0.094-0.396,0.24-0.707,0.443-0.931c0.201-0.223,0.475-0.385,0.82-0.486
	c0.346-0.101,0.779-0.151,1.299-0.151h2.422v-1.492h-2.271C281.956,473.607,280.885,473.932,280.1,474.581z M398.273,487.825
	l3.057,3.057l3.057-3.057l-3.057-3.057L398.273,487.825z M343.322,482.322c0.389-0.418,0.854-0.749,1.395-0.994
	s1.135-0.368,1.783-0.368c0.736,0,1.373,0.076,1.914,0.228s1.121,0.414,1.74,0.789l0.715-1.405c-0.707-0.39-1.393-0.674-2.055-0.854
	c-0.664-0.181-1.436-0.271-2.314-0.271c-0.85,0-1.639,0.155-2.367,0.465c-0.729,0.311-1.367,0.746-1.914,1.309
	c-0.549,0.563-0.98,1.222-1.297,1.979c-0.317,0.757-0.476,1.59-0.476,2.498s0.158,1.74,0.476,2.497
	c0.316,0.757,0.748,1.413,1.297,1.969c0.547,0.555,1.186,0.987,1.914,1.297c0.729,0.311,1.518,0.465,2.367,0.465
	c0.879,0,1.65-0.09,2.314-0.27c0.662-0.181,1.348-0.466,2.055-0.854l-0.715-1.406c-0.619,0.375-1.199,0.639-1.74,0.79
	s-1.178,0.227-1.914,0.227c-0.648,0-1.242-0.119-1.783-0.356c-0.541-0.238-1.006-0.565-1.395-0.984
	c-0.391-0.418-0.693-0.915-0.908-1.492c-0.217-0.576-0.324-1.203-0.324-1.881s0.107-1.305,0.324-1.882
	C342.628,483.238,342.931,482.741,343.322,482.322z M404.387,487.825l1.949,1.95l1.951-1.95l-1.951-1.95L404.387,487.825z
	 M410.701,487.326l-0.664,0.433l0.633,0.564l241.176-0.341L410.701,487.326z M362.611,481.295c-0.549-0.569-1.193-1.02-1.936-1.352
	c-0.742-0.331-1.547-0.497-2.412-0.497c-0.863,0-1.668,0.166-2.41,0.497c-0.742,0.332-1.389,0.782-1.936,1.352
	c-0.549,0.57-0.977,1.229-1.287,1.979c-0.311,0.749-0.465,1.557-0.465,2.422s0.154,1.672,0.465,2.422s0.738,1.409,1.287,1.979
	c0.547,0.569,1.193,1.017,1.936,1.341s1.547,0.486,2.41,0.486c0.865,0,1.67-0.162,2.412-0.486s1.387-0.771,1.936-1.341
	c0.547-0.569,0.977-1.229,1.287-1.979c0.309-0.75,0.465-1.557,0.465-2.422s-0.156-1.673-0.465-2.422
	C363.587,482.524,363.158,481.865,362.611,481.295z M362.394,487.523c-0.217,0.569-0.52,1.067-0.908,1.492
	c-0.389,0.426-0.857,0.765-1.406,1.017c-0.547,0.252-1.152,0.378-1.816,0.378c-0.662,0-1.268-0.126-1.816-0.378
	c-0.547-0.252-1.016-0.591-1.404-1.017c-0.391-0.425-0.693-0.923-0.908-1.492c-0.217-0.569-0.324-1.179-0.324-1.827
	c0-0.649,0.107-1.262,0.324-1.839c0.215-0.576,0.518-1.077,0.908-1.503c0.389-0.425,0.857-0.764,1.404-1.016
	c0.549-0.252,1.154-0.379,1.816-0.379c0.664,0,1.27,0.127,1.816,0.379c0.549,0.252,1.018,0.591,1.406,1.016
	c0.389,0.426,0.691,0.927,0.908,1.503c0.217,0.577,0.324,1.189,0.324,1.839C362.718,486.345,362.611,486.954,362.394,487.523z
	 M296.221,481.295c-0.547-0.569-1.191-1.02-1.936-1.352c-0.742-0.331-1.545-0.497-2.41-0.497s-1.67,0.166-2.412,0.497
	c-0.742,0.332-1.387,0.782-1.936,1.352c-0.547,0.57-0.977,1.229-1.285,1.979c-0.311,0.749-0.465,1.557-0.465,2.422
	s0.154,1.672,0.465,2.422c0.309,0.75,0.738,1.409,1.285,1.979c0.549,0.569,1.193,1.017,1.936,1.341s1.547,0.486,2.412,0.486
	s1.668-0.162,2.41-0.486c0.744-0.324,1.389-0.771,1.936-1.341c0.549-0.569,0.977-1.229,1.287-1.979s0.465-1.557,0.465-2.422
	s-0.154-1.673-0.465-2.422C297.198,482.524,296.77,481.865,296.221,481.295z M296.006,487.523c-0.217,0.569-0.52,1.067-0.908,1.492
	c-0.391,0.426-0.859,0.765-1.406,1.017c-0.549,0.252-1.154,0.378-1.816,0.378c-0.664,0-1.27-0.126-1.816-0.378
	c-0.549-0.252-1.018-0.591-1.406-1.017c-0.389-0.425-0.691-0.923-0.908-1.492s-0.324-1.179-0.324-1.827
	c0-0.649,0.107-1.262,0.324-1.839c0.217-0.576,0.52-1.077,0.908-1.503c0.389-0.425,0.857-0.764,1.406-1.016
	c0.547-0.252,1.152-0.379,1.816-0.379c0.662,0,1.268,0.127,1.816,0.379c0.547,0.252,1.016,0.591,1.406,1.016
	c0.389,0.426,0.691,0.927,0.908,1.503c0.215,0.577,0.324,1.189,0.324,1.839C296.331,486.345,296.221,486.954,296.006,487.523z
	 M309.381,480.463c-0.455-0.39-0.996-0.656-1.623-0.801c-0.627-0.144-1.309-0.216-2.043-0.216c-0.707,0-1.465,0.047-2.271,0.141
	s-1.701,0.234-2.682,0.422v11.699h1.535v-10.402c1.184-0.23,2.293-0.346,3.33-0.346c0.592,0,1.111,0.062,1.559,0.184
	c0.445,0.123,0.818,0.332,1.113,0.628c0.295,0.295,0.525,0.713,0.691,1.254s0.25,1.251,0.25,2.13v6.553h1.535v-7.201
	c0-0.995-0.119-1.82-0.357-2.477C310.18,481.375,309.834,480.852,309.381,480.463z M318.516,490.054
	c-0.346-0.108-0.619-0.277-0.82-0.509c-0.203-0.23-0.35-0.547-0.443-0.951c-0.096-0.403-0.141-0.922-0.141-1.557v-5.86h4.973v-1.492
	h-4.973v-4.347h-1.537v4.347h-2.551v1.492h2.551v6.466c0,0.764,0.109,1.405,0.326,1.925c0.215,0.519,0.525,0.937,0.93,1.254
	c0.402,0.317,0.867,0.544,1.395,0.682c0.525,0.137,1.105,0.205,1.74,0.205h2.271v-1.492h-2.422
	C319.295,490.216,318.862,490.162,318.516,490.054z M337.784,489.589c-0.316,0-0.59,0.115-0.82,0.346s-0.346,0.505-0.346,0.822
	c0,0.316,0.115,0.591,0.346,0.821s0.504,0.346,0.82,0.346c0.318,0,0.592-0.115,0.822-0.346s0.346-0.505,0.346-0.821
	c0-0.317-0.115-0.592-0.346-0.822S338.102,489.589,337.784,489.589z M333.178,486.106c-0.346-0.303-0.785-0.565-1.318-0.789
	c-0.533-0.223-1.182-0.422-1.947-0.595l-0.799-0.173c-1.053-0.216-1.781-0.461-2.184-0.735c-0.404-0.273-0.607-0.678-0.607-1.211
	c0-0.504,0.238-0.904,0.715-1.2c0.475-0.295,1.174-0.443,2.098-0.443c0.793,0,1.477,0.076,2.055,0.228
	c0.576,0.151,1.217,0.421,1.924,0.811l0.691-1.405c-1.412-0.765-2.969-1.146-4.67-1.146c-0.635,0-1.223,0.076-1.764,0.228
	c-0.539,0.151-1.008,0.364-1.404,0.638s-0.711,0.605-0.941,0.994c-0.23,0.39-0.346,0.815-0.346,1.276
	c0,0.462,0.072,0.88,0.217,1.254c0.143,0.375,0.381,0.707,0.713,0.995s0.758,0.537,1.275,0.746c0.52,0.209,1.146,0.4,1.883,0.573
	l0.908,0.194c1.008,0.217,1.729,0.49,2.162,0.822c0.432,0.331,0.648,0.771,0.648,1.318c0,0.39-0.086,0.707-0.26,0.952
	c-0.172,0.245-0.414,0.436-0.725,0.573c-0.311,0.137-0.678,0.237-1.102,0.303c-0.426,0.064-0.877,0.097-1.352,0.097
	c-0.592,0-1.223-0.09-1.893-0.271c-0.67-0.18-1.352-0.479-2.045-0.897l-0.734,1.471c0.779,0.433,1.539,0.742,2.281,0.93
	s1.539,0.281,2.391,0.281c0.748,0,1.434-0.072,2.053-0.216c0.621-0.145,1.158-0.36,1.611-0.648c0.455-0.289,0.805-0.649,1.049-1.082
	c0.246-0.433,0.369-0.93,0.369-1.492c0-0.476-0.072-0.915-0.217-1.318C333.77,486.763,333.526,486.41,333.178,486.106z"/>
</svg>

