<?xml version="1.0" encoding="utf-8"?>
<!-- Generator: Adobe Illustrator 21.0.0, SVG Export Plug-In . SVG Version: 6.00 Build 0)  -->
<svg version="1.1" id="Layer_1" xmlns="http://www.w3.org/2000/svg" xmlns:xlink="http://www.w3.org/1999/xlink" x="0px" y="0px"
	 viewBox="0 0 800 500" style="enable-background:new 0 0 800 500;" xml:space="preserve">
<g>
	<g>
		<g>
			<path fill="#000000" d="M449.5,62.9c-0.1,12.5,4.2,23.6,12.9,29.9c-12.2,0-18.2,0.3-30.4,0.9c0,2.2,0,3.3,0,5.5c15.2-0.6,30.2-0.9,45.4-0.7
				c0.2,0,0.5,0,0.7-0.1c0.7,0.1,1.4,0.1,2.1,0.2c0-1.1,0-1.6,0-2.7v0c0-1.1,0-1.6,0-2.7c-4.5-1.3-6.1-5.2-6.1-9.2
				c0-14.9,0-29.9,0-44.8c0-4,1.5-7.8,6.1-8.6c0-2.2,0-3.3,0-5.5C459.8,25.8,449.7,44.5,449.5,62.9z"/>
			<path fill="#000000" d="M313.9,76.2c-0.4-1.8-1.5-3.6-3.5-3.8c-3-0.3-3,2.6-3,3c0,8.8,0,13.2,0,22c0,0.5,0,3.4,3,3.8c1.3,0.2,2-0.5,2.6-1.7
				c0.6-1.2,1.1-1.7,2.6-1.5c2.5,0.2,9.7,4.5,13.2,4.8c0-2.2,0-3.3,0-5.5C320,94.4,315.5,84,313.9,76.2z"/>
			<path fill="#000000" d="M502.4,43.2c0-9.7-8.9-16.6-17.8-18c0,2.2,0,3.3,0,5.6c0.9,0.2,3.9,1.4,3.9,2.3c0,0.3-0.8,0.6-0.9,0.7
				c-4,1.4-6.5,4.8-6.5,9.1c0,5.6,4.8,10.3,10.3,10.7C497.6,54.1,502.4,49.5,502.4,43.2z"/>
			<path fill="#000000" d="M419.3,78.3c0-13.3,0-26.7,0-40c0-3.5-0.1-4.1,3.2-5.3c1.2-0.5,2.1-1.3,2.1-2.7c0-2.7-3.1-2.8-3.5-2.7
				c-10.7,0.6-16.1,1-26.8,1.7c-0.4,0-3.5,0.4-3.5,3.1c0,1.3,0.9,2.1,2.1,2.4c3.3,0.8,3.2,1.4,3.2,4.9c0,15.2,0,30.3,0,45.5
				c0,0.9,0.9,8.4-6.2,10.9c0,0,0,0.1,0,0.1c-7.3,0.4-11,0.6-18.3,0.9c0,2.2,0,3.3,0,5.5c9-0.4,13.5-0.6,22.4-1.1
				c0.2,0,0.3,0,0.5-0.1c5.3-0.5,10-1.4,15.1-4.6c3.8-2.3,6.1-4.3,7.5-6.3c4,6.5,10.6,8.8,14.8,8.7c0-2.2,0-3.3,0-5.5
				C423.4,94.2,419.9,86.7,419.3,78.3z"/>
			<path fill="#000000" d="M503.2,94.9c-7.5-0.9-11.2-1.2-18.7-1.6c0,2.2,0,3.3,0,5.5c7.5,0.4,11.2,0.7,18.7,1.6c1.5,0.2,2.7-0.9,2.7-2.4v0
				C505.9,96.4,504.7,95.1,503.2,94.9z"/>
			<path fill="#000000" d="M359.8,86.8c0.2-1.4,0.3-2.9,0.3-4.4c0-13.7,0-27.3,0-41c0-3.5-0.1-4.1,3.2-5.2c1.2-0.4,2.1-1.3,2.1-2.6
				c0-2.7-3.1-2.8-3.5-2.8c-10.7,0.3-16.1,0.3-26.8-0.1c-0.4,0-3.5,0-3.5,2.8c0,1.3,0.9,2.2,2.1,2.6c3.3,1.2,3.2,1.7,3.2,5.2
				c0,15.7,0,31.5,0,47.2c0,3.3,0,7-3.7,8.6c0,2.2,0,3.3,0,5.6c1.3,0.1,2,0.1,3.3,0.2c5.9,0.2,13.3-1.3,17.8-5.2
				c1.2-1.1,2.2-2.2,3-3.4c4,6.1,10.3,8.5,14.4,8.4c0-2.2,0-3.3,0-5.5C364.9,97.4,361.3,92.8,359.8,86.8z"/>
			<path fill="#000000" d="M413.8,109.3c-5.9,0.4-10.7,5.5-10.7,11.4c0,5.9,4.8,10.4,10.7,10c5.9-0.4,10.7-5.4,10.7-11.3
				C424.5,113.4,419.7,108.9,413.8,109.3z"/>
			<path fill="#000000" d="M387.1,110.9c-5.9,0.3-10.7,5.3-10.7,11.2c0,5.9,4.8,10.5,10.7,10.1c5.9-0.3,10.7-5.4,10.7-11.3
				C397.8,115,393,110.6,387.1,110.9z"/>
		</g>
	</g>
	<g>
		<g>
			<path fill="#000000" d="M231.8,303c0,17.2,10.5,37.8,30.7,37.9c0-2.2,0-3.3,0-5.5c-4.5-1.4-6.1-5.4-6.1-9.3c0-14.9,0-29.9,0-44.8
				c0-4,1.5-7.7,6.1-8.5c0-2.2,0-3.3,0-5.5C242.5,267.5,231.8,284.7,231.8,303z"/>
			<path fill="#000000" d="M332.1,359.4c-0.4-1.8-1.5-3.4-3.5-3.3c-3,0.1-3,3-3,3.5c0,8.8,0,13.2,0,22c0,0.5,0,3.4,3,3.3c1.3,0,2-0.8,2.6-2.1
				c0.6-1.2,1.1-1.8,2.6-1.9c2.5-0.1,9.7,3.4,13.2,3.3c0-2.2,0-3.3,0-5.5C338.2,376.7,333.8,367,332.1,359.4z"/>
			<path fill="#000000" d="M380.1,267.3c-10.7,0.5-16.1,0.8-26.8,1.2c-0.4,0-3.5,0.3-3.5,3.1c0,1.3,0.9,2.1,2.1,2.5c3.3,0.9,3.2,1.5,3.2,5
				c0,30.2,0,60.3,0,90.5c0,3.3,0,7-3.7,8.9c0,2.2,0,3.3,0,5.6c1.3,0,2,0,3.3,0c5.9-0.2,13.3-2.1,17.8-6.2c4.7-4.3,5.8-9.6,5.8-15.5
				c0-28.1,0-56.1,0-84.2c0-3.5-0.1-4.1,3.2-5.3c1.2-0.4,2.1-1.3,2.1-2.7C383.6,267.3,380.5,267.2,380.1,267.3z"/>
			<path fill="#000000" d="M331.4,338.5c0-1.3-0.9-2.2-2.1-2.5c-3.3-0.9-3.2-1.5-3.2-5c0-26.1,0-52.3,0-78.4c0-3.5-0.1-4.1,3.2-5.2
				c1.2-0.4,2.1-1.3,2.1-2.6c0-2.7-3.1-2.9-3.5-2.8c-10.7,0.3-16.1,0.3-26.8,0.3c-0.4,0-3.5,0.2-3.5,2.9c0,1.3,0.9,2.2,2.1,2.6
				c3.3,1,3.2,1.6,3.2,5.1c0,27.9,0,55.7,0,83.6c-14.3,0-21.4-0.1-35.7-0.7c0,2.2,0,3.3,0,5.5c14.3,0.6,21.4,0.7,35.7,0.7
				c0.3,0,0.5,0,0.9,0c9.6,0,14.5-0.1,24.1-0.3C328.3,341.5,331.4,341.2,331.4,338.5z"/>
			<path fill="#000000" d="M420,238.8c-10.7,0.5-16.1,0.8-26.8,1.4c-0.4,0-3.5,0.4-3.5,3.1c0,1.3,0.9,2.1,2.1,2.4c3.3,0.9,3.2,1.4,3.2,4.9
				c0,25.8,0,51.7,0,77.5c0,3.5,0.1,4.1-3.2,5.3c-1.2,0.4-2.1,1.3-2.1,2.7c0,2.7,3.1,2.8,3.5,2.8c10-0.5,15-0.8,25-1.3
				c0-29.4,0-58.7,0-88.1c0-3.5-0.1-4.1,3.2-5.3c1.2-0.4,2.1-1.3,2.1-2.7C423.5,238.9,420.4,238.8,420,238.8z"/>
			<path fill="#000000" d="M534.6,262.7c0,2.2,0,3.3,0,5.5c4.4,1.8,4.8,4.7,4.8,7.1c0,16.3,0,32.7,0,49c0,2.4-0.4,5.2-4.8,6.5c0,2.2,0,3.3,0,5.5
				c18.3-1,29.5-17.4,29.4-34.5C563.9,284.2,553.1,266,534.6,262.7z"/>
			<path fill="#000000" d="M500.9,298.5c-0.1,12.9,4.5,24.7,13.8,31.5c-10.3-0.3-15.4-0.3-25.6-0.2c-8.6,0-12.1-7.5-12.7-15.9c0-13.3,0-26.7,0-40
				c0-3.5-0.1-4.1,3.2-5.2c1.2-0.4,2.1-1.3,2.1-2.6c0-2.7-3.1-2.9-3.5-2.9c-10.7,0.2-16.1,0.3-26.8,0.7c-0.4,0-3.5,0.3-3.5,3.1
				c0,1.3,0.9,2.1,2.1,2.5c3.3,0.9,3.2,1.5,3.2,5c0,15.2,0,30.3,0,45.5c0,0.9,0.9,8.4-6.2,10.7c0,0,0,0.1,0,0.1
				c-9.1,0.3-13.6,0.6-22.6,1c0,2.2,0,3.3,0,5.5c10.7-0.5,16.1-0.8,26.8-1.1c0.2,0,0.3,0,0.5-0.1c5.3-0.3,10-1.2,15.1-4.1
				c3.8-2.2,6.1-4.1,7.5-6c3.9,6.6,10.4,9.2,14.6,9.3c0,0,0,0,0,0c15.5-0.1,23.2,0,38.7,0.7c0.4,0,0.7,0,1-0.2
				c0.6,0.1,1.2,0.2,1.8,0.3c0-2.2,0-3.3,0-5.5c-4.4-1.8-4.8-4.7-4.8-7c0-16.3,0-32.7,0-49c0-2.4,0.4-5.2,4.8-6.6c0-2.2,0-3.3,0-5.5
				C510.9,262,501.1,281.9,500.9,298.5z"/>
			<path fill="#000000" d="M285.7,266.7c-1.3,0.5-2.1,1.6-2.1,3.1c0,1.8,1.6,3.4,3.4,3.4c2.1,0,3.6-1.7,3.6-3.7c0-3.2-2.9-5.2-5.9-5.5
				c0,0.7,0,1.1,0,1.8c0.3,0.1,1.3,0.4,1.3,0.7C286,266.6,285.7,266.7,285.7,266.7z"/>
			<path fill="#000000" d="M284.6,288.2c2.5,0.1,3.7,0.1,6.2,0.1c0.5,0,0.9-0.4,0.9-0.9c0-0.5-0.4-0.9-0.9-0.9c-2.5,0-3.7-0.1-6.2-0.1
				C284.6,287.1,284.6,287.4,284.6,288.2z"/>
			<path fill="#000000" d="M282.5,288.1c0.2,0,0.4,0.1,0.7,0.1c0-0.7,0-1.1,0-1.8c-1.5-0.4-2-1.7-2-3c0-5.9,0-8.9,0-14.8c0-1.3,0.5-2.6,2-2.9
				c0-0.7,0-1.1,0-1.8c-6,0.1-10.1,5-10.1,12.2c0,4.2,1.4,7.9,4.3,10c-3.1-0.1-4.7-0.1-7.8-0.3c0,0.7,0,1.1,0,1.8
				c5.1,0.2,7.6,0.3,12.7,0.4C282.4,288.1,282.5,288.1,282.5,288.1z"/>
			<path fill="#000000" d="M453.9,345c-5.9,0.2-10.7,5.2-10.7,11.1c0,5.9,4.8,10.5,10.7,10.3c5.9-0.2,10.7-5.1,10.7-11
				C464.6,349.4,459.8,344.8,453.9,345z"/>
		</g>
	</g>
	<g>
		<g>
			<path fill="#000000" d="M561.6,112c0.2,0,0.4,0.1,0.7,0.1c0-0.4,0-0.5,0-0.9c0-0.2,0-0.3,0-0.5c0-0.4,0-0.5,0-0.9c-1.9-0.6-2.5-2.3-2.5-3.9
				c0-7.5,0-11.2,0-18.7c0-1.7,0.6-3.2,2.5-3.5c0-0.9,0-1.4,0-2.3c-7.7-0.3-12.8,6-12.8,15.1c0,5.3,1.8,10,5.4,12.9
				c-4-0.2-5.9-0.3-9.9-0.5c0,0.9,0,1.4,0,2.3c6.5,0.3,9.8,0.5,16.4,0.9C561.5,112,561.5,112,561.6,112z"/>
			<path fill="#000000" d="M567,93.4c2.6,0.2,4.6-1.8,4.6-4.4c0-4.1-3.7-6.8-7.4-7.5c0,0.9,0,1.4,0,2.3c0.4,0.1,1.6,0.6,1.6,1
				c0,0.1-0.3,0.3-0.4,0.3c-1.7,0.5-2.7,1.9-2.7,3.8C562.7,91.2,564.7,93.2,567,93.4z"/>
			<path fill="#000000" d="M564.1,112.2c3.2,0.2,4.8,0.4,8.1,0.6c0.5,0,0.9-0.3,0.9-0.8c0-0.2,0-0.3,0-0.5c0-0.5-0.4-0.9-0.9-1
				c-3.2-0.3-4.8-0.4-8.1-0.6C564.1,110.8,564.1,111.3,564.1,112.2z"/>
			<path fill="#000000" d="M201.5,183.6c0,17.2,10.5,37.6,30.7,37.6c0-2.2,0-3.3,0-5.5c-4.5-1.4-6.1-5.3-6.1-9.3c0-14.9,0-29.9,0-44.8
				c0-4,1.5-7.8,6.1-8.5c0-2.2,0-3.3,0-5.5C212.1,147.9,201.5,165.3,201.5,183.6z"/>
			<path fill="#000000" d="M471.2,128.4c5.9-0.1,10.7-4.9,10.7-10.8c0-5.9-4.8-10.6-10.7-10.5c-5.9,0.1-10.7,5-10.7,10.9
				C460.5,123.8,465.3,128.5,471.2,128.4z"/>
			<path fill="#000000" d="M346.8,171.5c0,0.5,0,3.4,2.9,3.3c2.5-0.1,3.1-1.9,3.6-3.9c2.9-12.2,10.1-18.3,17.8-19c0-2.2,0-3.3,0-5.5
				c-9.9,1.3-15,4.1-16.1,4.2c-2.8,0.1-2.6-3.4-5.6-3.3c-2.8,0.1-2.6,2.7-2.6,3.1C346.8,158.8,346.8,163,346.8,171.5z"/>
			<path fill="#000000" d="M499,142.4c-5.6,0-8.4,0-14,0.1c-9.9,0.1-21.4,10.1-22.5,10.5c-0.9,0.4-1.5,0.3-1.9,0c0-4.1,0-6.1,0-10.1
				c-10.2,0.2-15.3,0.4-25.5,0.8c-0.7,0-3,0.3-3,3c0,1.3,0.9,2.1,2.1,2.5c3.3,0.9,3.2,1.5,3.2,5c0,17.5,0,35,0,52.4
				c0,3.5,0.1,4.1-3.1,5.2c-7.1,0.3-10.7,0.4-17.8,0.7c-3.3-0.9-3.2-1.5-3.2-5c0-4.2,0-6.3,0-10.5c-0.1,0-0.1,0-0.2,0
				c0-6.3,0-9.4,0-15.7c0.2-17.1-10.4-35.4-29.1-35.5c-3.4,0.1-5,0.2-8.4,0.4c0,2.2,0,3.3,0,5.5c3.4-0.1,5-0.2,8.4-0.4
				c3.8,1.2,4.5,5,4.5,8.4c0,9.1,0,13.6,0,22.7c0,6.3,0,9.4,0,15.7s0,9.4,0,15.7c0,2.2,0,3.3,0,5.5c8.6-0.4,12.8-0.6,21.4-0.9
				c2.1-0.1,3.1-0.1,5.2-0.2c7.9-0.3,11.8-0.5,19.7-0.8c0.2,0,0.3,0,0.4,0c10.2-0.4,15.3-0.5,25.5-0.8c0-13.9,0-27.7,0-41.6
				c0.1-0.3,0.2-0.6,0.2-1c2.9-13.3,16.8-25.9,24.2-26c5.6-0.1,8.4-0.1,14-0.1c3.6,0,5.9,5.2,5.9,8.6c0,9.1,0,13.6,0,22.7
				c0,0,0,0,0,0c0,8.3,0,12.4,0,20.7c0,0.9,0.9,8.4-6.2,10.5c0,0.1,0,0.1,0,0.1c-0.1,0-0.2,0-0.3,0c-13.2,0-19.8,0.1-33,0.4
				c0,2.2,0,3.3,0,5.5c13.2-0.3,19.8-0.4,33-0.4c0.1,0,0.2,0,0.3,0c0,0,0,0,0,0c7.5,0,13.3,0,19.8-3.5c8.5-4.5,9.7-8.1,9.7-12.8
				c0-8,0-12,0-20.1C528.9,162.4,517,144,499,142.4z"/>
			<path fill="#000000" d="M333,210.8c0-4.2,0-6.3,0-10.5c-0.1,0-0.1,0-0.2,0c0-6.3,0-9.4,0-15.7c0.2-17.2-10.4-35.4-29.1-36.1
				c-3.4,0.1-5,0.1-8.4,0.1c0,0.1,0,0.1,0,0.2c-9.8,0.1-14.6,0.1-24.4,0c-0.4,0-3.5,0.2-3.5,2.9c0,1.3,0.9,2.2,2.1,2.6
				c3.3,1.1,3.2,1.6,3.2,5.1c0,19.1,0,38.2,0,57.3c-14.3-0.1-21.4-0.2-35.7-0.9c0,2.2,0,3.3,0,5.5c14.3,0.6,21.4,0.8,35.7,0.9
				c0.3,0,0.5,0,0.9,0c9.6,0.1,14.5,0,24.1-0.1c0.4,0,3.5-0.2,3.5-3c0-1.3-0.9-2.2-2.1-2.5c-3.3-1-3.2-1.6-3.2-5.1
				c0-17.4,0-34.8,0-52.2c0-3.5-0.1-4.1,3.2-5.2c0.2-0.1,0.3-0.1,0.5-0.2c1.6,0,2.5,0,4.1-0.1c3.8,1.3,4.5,5.1,4.5,8.5
				c0,9.1,0,13.6,0,22.7c0,6.3,0,9.4,0,15.7c0,6.3,0,9.4,0,15.7c0,2.2,0,3.3,0,5.5c7.7-0.2,11.5-0.2,19.2-0.5c3-0.1,4.4-0.1,7.4-0.2
				c16.2-0.6,32.5-1.2,48.7-1.9c0-2.2,0-3.3,0-5.5c-15.8,0.7-31.5,1.3-47.3,1.9C332.9,214.9,333,214.3,333,210.8z"/>
			<path fill="#000000" d="M573.8,212.1c-3.3-1.3-3.2-1.9-3.2-5.4c0-25.3,0-50.6,0-76c0-3.5-0.1-4.1,3.2-4.8c1.2-0.3,2.1-1.1,2.1-2.4
				c0-2.7-3.1-3.2-3.5-3.2c-10-0.8-15-1.2-25-1.7c0,4,0,6,0,9.9c0,0.2,0,0.4,0,0.7c0,25.3,0,50.6,0,76c0,3.5,0.1,4.1-3.2,5
				c-1.2,0.3-2.1,1.1-2.1,2.5c0,2.7,3.1,3.1,3.5,3.1c10.7,0.5,16.1,0.9,26.8,1.7c0.4,0,3.5,0.1,3.5-2.6
				C575.9,213.5,575.1,212.6,573.8,212.1z"/>
		</g>
	</g>
	<g>
		<path fill="#000000" d="M534.5,411.4c0-0.6,0-0.9,0-1.6c-10-1.4-15-1.9-25-2.7c-6.7-0.5-10-0.7-16.7-1.1c-82.9-2.2-165.4,8.4-248.1-0.6
			c0,0.6,0,0.9,0,1.6c-0.2,5.9-5.1,10.1-11,9.1c-0.6-0.1-0.9-0.2-1.6-0.3c-0.4,14.2-0.6,21.3-1,35.6c0.6,0.1,0.9,0.2,1.6,0.3
			c5.9,1,10.6,6.5,10.4,12.4c0,0.6,0,0.9,0,1.6c82.7,9,165.2-1.6,248.1,0.6c6.7,0.3,10,0.5,16.7,1.1c10,0.8,15,1.3,25,2.7
			c0-0.6,0-0.9,0-1.6c0.2-5.9,5.1-10.1,11-9.1c0.6,0.1,0.9,0.2,1.6,0.3c0.4-14.2,0.6-21.3,1-35.6c-0.6-0.1-0.9-0.2-1.6-0.3
			C539,422.8,534.3,417.3,534.5,411.4z M266.2,436.8c1-0.2,1.5-1.1,1.8-2c0.1-0.4,0.3-0.8,0.8-0.7c0.8,0.1,0.6,0.9,0.6,1.1
			c-0.1,2.1-0.1,3.2-0.2,5.3c0,0.2,0.1,1.1-0.7,1c-0.5,0-0.6-0.4-0.8-0.9c-0.2-0.9-0.6-1.9-1.6-2.3
			C266.2,437.7,266.2,437.4,266.2,436.8z M264.8,446.9c-2.6-0.2-3.9-0.3-6.5-0.6c-0.1,0-0.9-0.1-0.9-0.9c0-0.3,0.2-0.5,0.6-0.6
			c0.9-0.2,0.8-0.3,0.9-1.2c0.2-5.1,0.2-7.7,0.4-12.8c0-0.9,0.1-1.1-0.8-1.4c-0.3-0.1-0.5-0.4-0.5-0.7c0-0.7,0.8-0.7,0.9-0.7
			c2.6,0.3,3.9,0.4,6.5,0.6C265.2,435.9,265,439.5,264.8,446.9z M271.7,442.5c-0.1,2-0.1,2.9-0.1,4.9c-2.3-0.2-3.4-0.3-5.6-0.4
			c0-0.6,0-0.9,0-1.4c2-0.1,3.5-1.3,4.3-3.2c0.2-0.4,0.3-0.7,0.8-0.7C271.8,441.7,271.7,442.4,271.7,442.5z M271.8,434.1
			c0,0.1,0,0.6-0.8,0.5c-0.4,0-0.5-0.3-0.6-0.7c-0.6-2-1.8-3.3-3.9-3.9c0-0.6,0-0.9,0-1.4c2.2,0.2,3.3,0.3,5.5,0.4
			C271.9,431.1,271.8,432.1,271.8,434.1z M283.6,431.2c-0.9,0.2-0.8,0.4-0.9,1.3c-0.2,5.1-0.2,7.7-0.4,12.8c0,0.9-0.1,1.1,0.8,1.4
			c0.3,0.1,0.5,0.3,0.5,0.7c0,0.7-0.8,0.7-0.9,0.7c-2.8-0.1-4.2-0.2-6.9-0.4c-0.1,0-0.9-0.1-0.9-0.8c0-0.3,0.2-0.5,0.6-0.6
			c0.9-0.2,0.8-0.4,0.9-1.3c0.2-5.1,0.2-7.7,0.4-12.8c0-0.9,0.1-1.1-0.8-1.4c-0.3-0.1-0.5-0.4-0.5-0.7c0-0.7,0.8-0.7,0.9-0.7
			c2.8,0.2,4.2,0.3,6.9,0.4c0.1,0,0.9,0.1,0.9,0.8C284.2,430.9,283.9,431.1,283.6,431.2z M294.4,448.6c-2.5-0.1-3.7-0.1-6.2-0.2
			c-0.5,0-1.1-0.1-1.1-0.8c0-0.3,0.2-0.6,0.6-0.6c0.9-0.2,0.8-0.4,0.9-1.3c0.2-5.1,0.2-7.7,0.4-12.8c0-0.4,0.1-1-0.4-1.2
			c-0.5-0.2-0.9-0.3-0.9-0.9c0-0.6,0.6-0.7,1.1-0.7c2.5,0.1,3.8,0.2,6.3,0.2C294.7,437.6,294.6,441.3,294.4,448.6z M295.5,448.6
			c0-0.6,0-0.9,0-1.4c1.5-0.2,1.6-1.5,1.6-2.5c0.1-4.2,0.2-6.3,0.3-10.4c0-0.9,0-2.3-1.5-2.6c0-0.6,0-0.9,0-1.4
			c4.2,0.1,7.6,3,7.7,9.3C303.8,445.4,299.5,448.8,295.5,448.6z M311,448.9c-1.1,0-1.7,0-2.8,0c-0.5,0-1.4,0-1.4-0.8
			c0-0.6,0.4-0.6,1-0.8c0.5-0.3,1.2-0.8,1.7-2.6c1.3-4.3,2-6.4,3.3-10.7c0,0,0,0,0.1,0c0.2,1.1,0.3,1.7,0.6,2.8
			c-1,3.3-1.5,5-2.5,8.4c-0.4,1.5-0.1,1.9,0.7,2.3c0.4,0.2,0.7,0.3,0.7,0.8C312.3,448.9,311.5,448.9,311,448.9z M322.5,448.9
			c-2.4,0-3.7,0-6.1,0c-0.5,0-1.2,0-1.2-0.7c0-0.4,0.2-0.5,0.5-0.7c0.6-0.4,0.8-0.5,0.6-1.5c-0.2-0.8-0.3-1.1-0.4-1.9
			c-1.4,0-2.1,0-3.6,0c0.2-0.6,0.2-0.9,0.4-1.4c1.2,0,1.8,0,3,0c-0.9-4.3-1.3-6.5-2.2-10.8c0.1-0.5,0.2-0.8,0.4-1.3
			c2.2,0,3.3,0,5.4,0c1.3,6.2,1.9,9.3,3.2,15.5c0.1,0.7,0.1,1.2,0.8,1.4c0.3,0.1,0.6,0.3,0.6,0.8
			C323.8,448.9,322.9,448.9,322.5,448.9z M333.5,448.7c-2.5,0-3.7,0.1-6.2,0.1c-0.5,0-1.2,0-1.1-0.7c0-0.3,0.2-0.6,0.6-0.7
			c0.9-0.3,0.8-0.4,0.9-1.3c0.2-5.1,0.2-7.7,0.4-12.8c0-0.4,0.1-1-0.4-1.2c-0.5-0.2-0.9-0.2-0.9-0.8c0-0.6,0.6-0.7,1.1-0.7
			c2.5,0,3.8-0.1,6.3-0.1C333.8,437.7,333.7,441.4,333.5,448.7z M334.6,448.7c0-0.6,0-0.9,0-1.4c1.5-0.2,1.6-1.6,1.6-2.6
			c0.1-4.2,0.2-6.3,0.3-10.4c0-0.9,0-2.3-1.5-2.5c0-0.6,0-0.9,0-1.4c4.2-0.1,7.6,2.7,7.7,9C342.9,445.1,338.7,448.6,334.6,448.7z
			 M352.7,448.2c-2.8,0.1-4.2,0.1-6.9,0.2c-0.1,0-0.9,0-0.9-0.7c0-0.3,0.2-0.6,0.6-0.7c0.9-0.3,0.8-0.4,0.9-1.3
			c0.2-5.1,0.2-7.7,0.4-12.8c0-0.9,0.1-1.1-0.8-1.3c-0.3-0.1-0.5-0.3-0.5-0.6c0-0.7,0.8-0.8,0.9-0.8c2.8-0.1,4.2-0.1,6.9-0.2
			c0.1,0,0.9,0,0.9,0.7c0,0.3-0.2,0.6-0.6,0.7c-0.9,0.3-0.8,0.4-0.9,1.4c-0.2,5.1-0.2,7.7-0.4,12.8c0,0.9-0.1,1.1,0.8,1.3
			c0.3,0.1,0.5,0.3,0.5,0.6C353.6,448.1,352.8,448.2,352.7,448.2z M362.8,430.9c-0.9,0.3-0.8,0.4-0.9,1.4c-0.2,5.1-0.2,7.7-0.4,12.8
			c0,0.9-0.1,1.1,0.8,1.3c0.3,0.1,0.5,0.3,0.5,0.6c0,0.7-0.8,0.8-0.9,0.8c-2.8,0.1-4.2,0.2-6.9,0.3c-0.1,0-0.9,0-0.9-0.7
			c0-0.3,0.2-0.6,0.6-0.7c0.9-0.3,0.8-0.4,0.9-1.4c0.1-2.3,0.1-3.5,0.2-5.9c-0.9,0-1.3,0-2.2,0.1c0-0.6,0-0.9,0-1.4
			c0.9,0,1.3,0,2.2-0.1c0.1-2.2,0.1-3.3,0.2-5.6c0-0.9,0.1-1.1-0.8-1.3c-0.3-0.1-0.5-0.3-0.5-0.6c0-0.7,0.8-0.8,0.9-0.8
			c2.8-0.1,4.2-0.2,6.9-0.3c0.1,0,0.9,0,0.9,0.7C363.4,430.6,363.1,430.8,362.8,430.9z M369.4,447.5c-1.1,0-1.7,0.1-2.8,0.1
			c-0.5,0-1.4,0-1.4-0.7c0-0.6,0.4-0.6,1-0.9c0.5-0.3,1.2-0.9,1.7-2.6c1.3-4.4,2-6.5,3.3-10.9c0,0,0,0,0.1,0
			c0.2,1.1,0.3,1.6,0.6,2.7c-1,3.4-1.5,5.1-2.6,8.5c-0.4,1.5-0.1,1.9,0.7,2.2c0.4,0.2,0.7,0.3,0.7,0.8
			C370.7,447.5,369.9,447.5,369.4,447.5z M381,447c-2.4,0.1-3.7,0.2-6.1,0.3c-0.5,0-1.2,0-1.2-0.6c0-0.4,0.2-0.5,0.5-0.7
			c0.6-0.4,0.8-0.6,0.6-1.5c-0.2-0.7-0.3-1.1-0.4-1.9c-1.4,0.1-2.2,0.1-3.6,0.2c0.2-0.6,0.2-0.9,0.4-1.4c1.2-0.1,1.8-0.1,3-0.1
			c-0.9-4.3-1.3-6.4-2.2-10.7c0.1-0.5,0.2-0.8,0.4-1.3c2.2-0.1,3.3-0.1,5.4-0.2c1.3,6.1,1.9,9.2,3.2,15.3c0.1,0.7,0.1,1.1,0.8,1.4
			c0.3,0.1,0.6,0.3,0.6,0.7C382.3,447,381.4,447,381,447z M393.5,446.5c-1.1,0.1-1.7,0.1-2.8,0.1c-0.3,0-1.3,0.1-1.3-0.7
			c0-1.1,1.6-0.2,2.1-3.3c0.1-3.3,0.1-5,0.2-8.3c0,0,0,0,0,0c0.5,1.6,0.8,2.4,1.3,4c0,1.7-0.1,2.5-0.1,4.2c0.3,3,1.9,2,1.9,3.1
			C394.7,446.5,393.7,446.4,393.5,446.5z M396.5,446.3c-1.9-6-2.8-9-4.7-14.9c-0.1-0.4-0.2-0.7-0.4-1c-0.2-0.4-0.3-0.6-0.7-0.7
			c-0.3,0-1,0-0.9-0.6c0-0.8,0.8-0.8,1.1-0.8c2.5-0.1,3.7-0.2,6.2-0.3c1,3,1.4,4.4,2.4,7.4c0,0,0,0,0,0c0.5-1.6,0.7-2.5,1.2-4.1
			c0,0,0,0,0,0c-0.1,1.8-0.1,2.7-0.1,4.5c-1.4,4.2-2.1,6.3-3.4,10.6C397,446.3,396.8,446.3,396.5,446.3z M408.8,428.9
			c-0.9,0.3-0.8,0.5-0.9,1.4c-0.2,5.1-0.2,7.7-0.4,12.8c0,0.9-0.1,1.1,0.8,1.3c0.3,0.1,0.5,0.3,0.5,0.6c0,0.7-0.8,0.8-0.9,0.8
			c-2.8,0.1-4.2,0.2-6.9,0.3c-0.1,0-0.9,0-0.9-0.7c0-0.3,0.2-0.6,0.6-0.7c0.9-0.3,0.8-0.5,0.9-1.4c0.2-6.2,0.3-9.3,0.5-15.6
			c2.6-0.1,3.9-0.2,6.5-0.3c0.1,0,0.9,0,0.9,0.7C409.4,428.5,409.1,428.8,408.8,428.9z M419.5,428.5c-0.9,0.3-0.8,0.4-0.9,1.4
			c-0.1,4.7-0.2,7.1-0.3,11.8c0,0.2-0.3,2.2,1.5,2.7c0,0.6,0,0.9,0,1.4c-1.9,0.1-3.4,0.1-5.1-0.8c-2.2-1.1-2.4-2.1-2.4-3.3
			c0.1-4.6,0.2-7,0.3-11.6c0-0.9,0.1-1.1-0.8-1.3c-0.3-0.1-0.5-0.3-0.5-0.6c0-0.7,0.8-0.8,0.9-0.8c2.8-0.1,4.2-0.2,6.9-0.3
			c0.1,0,0.9,0,0.9,0.7C420.1,428.1,419.8,428.3,419.5,428.5z M426,430.7c-0.1,3.7-0.2,5.5-0.3,9.2c-0.3,4-3.3,5.6-4.9,5.7
			c0-0.6,0-0.9,0-1.4c2.3-0.8,3.2-2.1,3.4-4.3c0.1-3.7,0.2-5.5,0.3-9.2c-0.3-3-1.9-2-1.9-3.1c0-0.8,1-0.7,1.3-0.8
			c1.1,0,1.7-0.1,2.8-0.1c0.3,0,1.3-0.1,1.3,0.7C428.1,428.5,426.5,427.6,426,430.7z M437.2,444.8c-2.6,0.1-4,0.1-6.6,0.2
			c-0.2,0-0.8,0-0.8-0.7c0-0.3,0.2-0.6,0.6-0.7c0.9-0.3,0.8-0.4,0.9-1.3c0.2-5.1,0.2-7.7,0.4-12.8c0-0.9,0.1-1.1-0.8-1.3
			c-0.3-0.1-0.5-0.3-0.5-0.6c0-0.7,0.6-0.8,0.8-0.8c2.6-0.1,4-0.1,6.6-0.2C437.6,433.8,437.5,437.4,437.2,444.8z M446.4,439.8
			c-0.1,1.7-0.9,3.1-2.4,4c-1.6,0.9-3.1,0.9-4.9,0.9c-0.3,0-0.5,0-0.8,0c0-0.6,0-0.9,0-1.4c1.6-0.1,1.9-1,1.9-1.9
			c0-1.3,0.1-1.9,0.1-3.2c0-1.1-0.2-2.2-1.8-2.3c0-0.6,0-0.9,0-1.4c1.8-0.2,1.9-1.2,1.9-2.2c0-1,0-1.5,0.1-2.5c0-1-0.3-2-1.8-2.1
			c0-0.6,0-0.9,0-1.4c0.3,0,0.5,0,0.8,0c1.5,0,3.1-0.1,4.5,0.6c1.5,0.7,2.3,2,2.3,3.7c-0.1,2.7-2.4,4-4.8,4.4c0,0,0,0,0,0
			C444.4,435.6,446.5,436.7,446.4,439.8z M451.6,444.5c-1.1,0-1.7,0-2.8,0c-0.5,0-1.4,0-1.4-0.7c0-0.6,0.4-0.6,1-0.8
			c0.5-0.3,1.2-0.8,1.7-2.6c1.3-4.3,2-6.5,3.3-10.8c0,0,0,0,0.1,0c0.2,1.1,0.3,1.7,0.6,2.8c-1,3.4-1.5,5-2.6,8.4
			c-0.4,1.5-0.1,1.9,0.7,2.3c0.4,0.2,0.7,0.3,0.7,0.8C452.9,444.5,452.1,444.5,451.6,444.5z M463.1,444.5c-2.4,0-3.7,0-6.1,0
			c-0.5,0-1.2,0-1.2-0.7c0-0.4,0.2-0.5,0.5-0.7c0.6-0.4,0.8-0.5,0.6-1.5c-0.2-0.8-0.3-1.1-0.4-1.9c-1.4,0-2.1,0-3.6,0
			c0.2-0.6,0.2-0.9,0.4-1.4c1.2,0,1.8,0,3,0c-0.9-4.3-1.3-6.5-2.2-10.8c0.1-0.5,0.2-0.8,0.4-1.3c2.2,0,3.3,0,5.4,0
			c1.3,6.2,1.9,9.3,3.2,15.5c0.1,0.7,0.1,1.2,0.8,1.4c0.3,0.1,0.6,0.3,0.6,0.8C464.4,444.5,463.6,444.5,463.1,444.5z M474.3,444.6
			c-2.8-0.1-4.2-0.1-6.9-0.1c-0.1,0-0.9-0.1-0.9-0.8c0-0.3,0.2-0.6,0.6-0.7c0.9-0.3,0.8-0.4,0.9-1.3c0.2-5.1,0.2-7.7,0.4-12.8
			c0-0.9,0.1-1.1-0.8-1.3c-0.3-0.1-0.5-0.3-0.5-0.7c0-0.7,0.8-0.8,0.9-0.8c2.6,0,3.9,0,6.5,0.1c-0.2,6.2-0.3,9.3-0.5,15.6
			c0,0.9-0.1,1.1,0.8,1.3c0.3,0.1,0.5,0.3,0.5,0.7C475.2,444.5,474.4,444.6,474.3,444.6z M483,444.3c-0.9,0.7-1.7,0.8-2.8,0.8
			c-1.1,0-2-0.3-2.7-1.1c-0.8-0.9-0.9-2-0.9-3.1c0-0.7,0-1,0-1.7c0-1.1,0-2.5-1.4-2.7c0-0.6,0-0.9,0-1.4c1.3-0.1,1.5-0.9,1.6-2.1
			c0-1.2,0.1-1.8,0.1-3c0-1.2-0.2-1.8-1.4-2.3c0-0.6,0-0.9,0-1.4c0,0,0.1,0,0.1,0c1.6,0,3.3,0,4.7,0.8c1.6,0.8,2.4,2.2,2.4,4.1
			c0,2.8-1.9,4-4.4,4.5c0,0,0,0,0,0c2.2,0.4,4.2,1.1,4.2,3.7c0,0.9,0,1.3-0.1,2.2c0,0.2-0.1,0.7,0.2,0.7c0.4,0,0.5-0.7,1.1-0.7
			c0.3,0,0.7,0.4,0.7,0.7C484.3,443,483.5,443.9,483,444.3z M490.5,445.1c-1.1-0.1-1.7-0.1-2.8-0.1c-0.5,0-1.4-0.1-1.4-0.8
			c0-0.6,0.4-0.5,1-0.8c0.5-0.2,1.2-0.8,1.7-2.5c1.3-4.3,2-6.4,3.3-10.6c0,0,0,0,0.1,0c0.2,1.1,0.3,1.7,0.6,2.8
			c-1,3.3-1.5,5-2.5,8.3c-0.4,1.5-0.1,1.9,0.7,2.3c0.4,0.2,0.7,0.4,0.7,0.8C491.8,445.2,491,445.1,490.5,445.1z M502,445.7
			c-2.4-0.2-3.7-0.2-6.1-0.4c-0.5,0-1.2-0.1-1.2-0.8c0-0.4,0.2-0.5,0.5-0.7c0.6-0.3,0.8-0.5,0.6-1.5c-0.2-0.8-0.3-1.1-0.4-1.9
			c-1.4-0.1-2.1-0.1-3.6-0.2c0.2-0.6,0.2-0.8,0.4-1.4c1.2,0.1,1.8,0.1,3,0.1c-0.9-4.4-1.3-6.6-2.2-11c0.1-0.5,0.2-0.8,0.4-1.3
			c2.2,0.1,3.2,0.2,5.4,0.3c1.3,6.3,1.9,9.4,3.2,15.7c0.1,0.7,0.1,1.2,0.8,1.5c0.3,0.2,0.6,0.4,0.6,0.8
			C503.3,445.8,502.4,445.7,502,445.7z M513.2,446.6c-2.8-0.2-4.2-0.4-6.9-0.6c-0.1,0-0.9-0.1-0.9-0.8c0-0.3,0.2-0.5,0.6-0.6
			c0.9-0.2,0.8-0.4,0.9-1.3c0.2-5.1,0.2-7.7,0.4-12.8c0-0.9,0.1-1.1-0.8-1.4c-0.3-0.1-0.5-0.4-0.5-0.7c0-0.7,0.8-0.7,0.9-0.7
			c2.8,0.2,4.2,0.3,6.9,0.6c0.1,0,0.9,0.1,0.9,0.8c0,0.3-0.2,0.5-0.6,0.6c-0.9,0.2-0.8,0.3-0.9,1.2c-0.2,5.1-0.2,7.7-0.4,12.8
			c0,0.9-0.1,1.1,0.8,1.4c0.3,0.1,0.5,0.4,0.5,0.7C514.1,446.6,513.2,446.6,513.2,446.6z M522.1,447.5c-2.5-0.3-3.7-0.4-6.1-0.6
			c-0.6-0.1-1.3-0.1-1.3-0.9c0-0.8,1-0.6,1-1.1c0-0.2-0.1-0.6-0.2-0.8c-0.6-1.9-0.8-2.8-1.4-4.7c-0.1-0.5-0.3-1-0.3-1.5
			c0-0.5,0.3-0.8,0.6-1.2c1.2-1.5,1.8-2.3,3-3.8c0.4-0.4,0.7-0.9,0.7-1.5c0-0.7-0.3-1-0.9-1.3c-0.4-0.2-0.7-0.3-0.7-0.8
			c0-0.8,0.7-0.7,1.2-0.6c1.7,0.2,2.5,0.3,4.2,0.4c0.6,0.1,1.3,0.2,1.3,1c0,0.6-0.5,0.7-0.9,0.8c-1.7,0.5-2.3,1.3-3.4,2.6
			c-0.2,0.2-0.3,0.4-0.5,0.6c1.5,4.3,2.2,6.4,3.6,10.8c0.2,0.6,0.3,1,0.8,1.3c0.4,0.2,0.6,0.4,0.6,0.9
			C523.3,447.7,522.5,447.5,522.1,447.5z"/>
		<path fill="#000000" d="M545,420.2c-3.9-0.7-7.1-4.3-7-8.3c0.1-2.1,0.1-3.1,0.2-5.1c-11.4-1.7-17.1-2.3-28.6-3.2c-6.7-0.5-10-0.7-16.7-1.1
			c-84.1-2.2-167.7,8.7-251.6-1.1c-0.1,2.1-0.1,3.1-0.2,5.1c-0.1,4-3.4,6.7-7.4,6.1c-2-0.3-3.1-0.5-5.1-0.9
			c-0.5,17.1-0.8,25.6-1.3,42.7c2,0.4,3.1,0.5,5.1,0.9c3.9,0.7,7.1,4.3,7,8.3c-0.1,2.1-0.1,3.1-0.2,5.1
			c83.9,9.8,167.5-1.1,251.6,1.1c6.7,0.3,10,0.5,16.7,1.1c11.4,0.9,17.2,1.5,28.6,3.2c0.1-2.1,0.1-3.1,0.2-5.1
			c0.1-4,3.4-6.7,7.4-6.1c2,0.3,3.1,0.5,5.1,0.9c0.5-17.1,0.8-25.6,1.3-42.7C548.1,420.7,547.1,420.5,545,420.2z M548.1,462.8
			c-1.7-0.3-2.6-0.5-4.3-0.7c-4.4-0.7-8.1,2.3-8.2,6.7c-0.1,1.7-0.1,2.6-0.1,4.4c-11.1-1.6-16.7-2.2-27.8-3.1
			c-6.7-0.5-10-0.7-16.7-1.1c-83.8-2.2-167.2,8.6-250.8-1c0.1-1.7,0.1-2.6,0.1-4.4c0.1-4.4-3.3-8.5-7.7-9.2
			c-1.7-0.3-2.6-0.4-4.3-0.7c0.5-16.5,0.7-24.7,1.2-41.1c1.7,0.3,2.6,0.5,4.3,0.7c4.4,0.7,8-2.3,8.2-6.7c0.1-1.7,0.1-2.6,0.1-4.4
			c83.6,9.7,167-1.2,250.8,1c6.7,0.3,10,0.5,16.7,1.1c11.1,0.9,16.7,1.5,27.8,3.1c-0.1,1.7-0.1,2.6-0.1,4.4
			c-0.1,4.4,3.3,8.5,7.7,9.2c1.7,0.3,2.6,0.4,4.3,0.7C548.8,438.2,548.6,446.4,548.1,462.8z"/>
	</g>
	<g>
		<path fill="#000000" d="M275.1,91.7c0,0-33.4-50.5-17.3-56.5S275.1,91.7,275.1,91.7z"/>
		<path fill="#000000" d="M225.3,62.2c10.6-14.1,40.9,30.7,40.9,30.7S214.7,76.3,225.3,62.2z"/>
		<path fill="#000000" d="M267.4,101.9c0,0-57.8-18.1-59.1-0.9C207.1,118.2,267.4,101.9,267.4,101.9z"/>
	</g>
	<g>
		<path fill="#000000" d="M557.3,369.5c0,0,18.6,28.1,9.6,31.5C557.9,404.4,557.3,369.5,557.3,369.5z"/>
		<path fill="#000000" d="M585.1,385.9c-5.9,7.9-22.8-17.1-22.8-17.1S591,378.1,585.1,385.9z"/>
		<path fill="#000000" d="M561.6,363.8c0,0,32.2,10.1,32.9,0.5S561.6,363.8,561.6,363.8z"/>
	</g>
</g>
<path fill="#000000" d="M273.602,481.306c-0.578-0.576-1.301-1.03-2.174-1.362c-0.873-0.331-1.885-0.497-3.039-0.497
	c-0.663,0-1.463,0.079-2.4,0.238v-6.077h-1.535v17.711c0.706,0.202,1.402,0.354,2.087,0.454s1.301,0.151,1.849,0.151
	c1.153,0,2.166-0.162,3.039-0.486s1.596-0.764,2.174-1.319c0.576-0.555,1.006-1.211,1.287-1.968s0.42-1.561,0.42-2.411
	s-0.139-1.657-0.42-2.422C274.608,482.554,274.178,481.883,273.602,481.306z M272.391,489.167c-0.852,0.829-2.17,1.243-3.958,1.243
	c-0.39,0-0.805-0.032-1.244-0.097c-0.439-0.065-0.84-0.134-1.2-0.206v-8.845c0.447-0.115,0.887-0.194,1.319-0.237
	c0.433-0.044,0.808-0.065,1.125-0.065c0.894,0,1.668,0.112,2.325,0.335c0.656,0.224,1.199,0.545,1.633,0.963
	c0.432,0.418,0.752,0.919,0.961,1.503s0.314,1.243,0.314,1.979C273.667,487.195,273.241,488.338,272.391,489.167z M247.392,479.446
	c-0.62,0-1.297,0.079-2.033,0.238c-0.735,0.158-1.485,0.433-2.249,0.821l-0.065,1.73c0.548-0.303,0.973-0.52,1.276-0.649
	s0.624-0.237,0.962-0.324c0.338-0.086,0.677-0.158,1.016-0.216s0.667-0.087,0.984-0.087c1.139,0,1.982,0.249,2.53,0.746
	s0.822,1.33,0.822,2.498v0.13c-0.332-0.044-0.732-0.087-1.2-0.13c-0.469-0.043-0.876-0.065-1.222-0.065
	c-1.831,0-3.302,0.311-4.412,0.931c-1.11,0.619-1.665,1.644-1.665,3.07c0,0.707,0.155,1.305,0.465,1.795
	c0.31,0.49,0.713,0.88,1.211,1.168s1.067,0.497,1.708,0.627c0.641,0.13,1.308,0.194,2,0.194c0.807,0,1.6-0.072,2.378-0.216
	c0.779-0.145,1.536-0.368,2.271-0.671v-7.028c0-1.585-0.397-2.742-1.189-3.471C250.189,479.811,248.992,479.446,247.392,479.446z
	 M250.636,489.892c-0.375,0.144-0.858,0.267-1.449,0.367c-0.591,0.102-1.183,0.151-1.773,0.151c-0.505,0-0.984-0.035-1.438-0.108
	c-0.454-0.071-0.84-0.197-1.157-0.378c-0.317-0.18-0.57-0.414-0.757-0.703c-0.188-0.288-0.281-0.663-0.281-1.124
	c0-0.52,0.111-0.934,0.335-1.244c0.224-0.31,0.533-0.551,0.93-0.724c0.396-0.174,0.85-0.296,1.362-0.368
	c0.511-0.072,1.041-0.108,1.589-0.108c0.476,0,0.984,0.029,1.524,0.087c0.541,0.058,0.912,0.108,1.114,0.151V489.892z
	 M258.032,479.868c-0.649,0.122-1.276,0.263-1.881,0.422v11.418h1.535v-10.186c0.202-0.072,0.563-0.147,1.082-0.228
	c0.519-0.079,1.002-0.118,1.449-0.118h1.989v-1.492H260C259.336,479.685,258.681,479.746,258.032,479.868z M-77.92,487.667
	l241.145,0.656l0.663-0.433l-0.632-0.564L-77.92,487.667z M164.994,487.825l1.95,1.95l1.95-1.95l-1.95-1.95L164.994,487.825z
	 M169.559,487.825l3.057,3.057l3.057-3.057l-3.057-3.057L169.559,487.825z M212.359,489.286l-3.395-9.602h-1.514l-3.396,9.602
	l-2.984-9.602h-1.73l3.979,12.023h1.428l3.46-9.645l3.46,9.645h1.427l3.979-12.023h-1.73L212.359,489.286z M238.418,489.589
	c-0.317,0-0.591,0.115-0.822,0.346c-0.231,0.23-0.346,0.505-0.346,0.822c0,0.316,0.115,0.591,0.346,0.821
	c0.23,0.23,0.504,0.346,0.822,0.346c0.317,0,0.591-0.115,0.822-0.346c0.23-0.23,0.346-0.505,0.346-0.821
	c0-0.317-0.116-0.592-0.346-0.822C239.009,489.704,238.735,489.589,238.418,489.589z M193.243,489.286l-3.395-9.602h-1.514
	l-3.396,9.602l-2.984-9.602h-1.73l3.979,12.023h1.428l3.46-9.645l3.46,9.645h1.427l3.979-12.023h-1.73L193.243,489.286z
	 M231.476,489.286l-3.395-9.602h-1.514l-3.396,9.602l-2.984-9.602h-1.73l3.979,12.023h1.428l3.46-9.645l3.46,9.645h1.427
	l3.979-12.023h-1.73L231.476,489.286z M382.732,480.474c-0.426-0.396-0.938-0.667-1.535-0.812c-0.598-0.144-1.271-0.216-2.021-0.216
	c-0.664,0-1.393,0.09-2.184,0.271c-0.793,0.181-1.471,0.4-2.033,0.659c-0.346-0.331-0.818-0.569-1.416-0.714
	c-0.6-0.144-1.273-0.216-2.023-0.216c-0.635,0-1.268,0.058-1.902,0.173l-2.465,0.454v11.635h1.535v-10.38
	c0.447-0.102,0.883-0.188,1.309-0.26c0.424-0.072,0.896-0.108,1.416-0.108c0.605,0,1.125,0.058,1.557,0.173
	c0.434,0.116,0.789,0.321,1.07,0.616c0.281,0.296,0.494,0.711,0.639,1.244s0.217,1.24,0.217,2.119v6.596h1.535v-7.201
	c0-0.663-0.055-1.243-0.162-1.741c-0.109-0.497-0.213-0.861-0.314-1.092c0.086-0.043,0.281-0.119,0.584-0.228
	c0.303-0.107,0.602-0.197,0.898-0.27c0.295-0.072,0.586-0.126,0.875-0.162s0.547-0.055,0.779-0.055c0.59,0,1.102,0.058,1.535,0.173
	c0.432,0.116,0.781,0.317,1.049,0.605c0.266,0.289,0.471,0.703,0.615,1.244c0.145,0.54,0.217,1.251,0.217,2.13v6.596h1.535v-7.201
	c0-0.995-0.111-1.816-0.336-2.466C383.482,481.393,383.158,480.87,382.732,480.474z M280.1,474.581
	c-0.785,0.648-1.18,1.729-1.18,3.243v1.86h-2.551v1.492h2.551v10.531h1.537v-10.531h4.973v-1.492h-4.973v-1.471
	c0-0.635,0.045-1.149,0.141-1.546c0.094-0.396,0.24-0.707,0.443-0.931c0.201-0.223,0.475-0.385,0.82-0.486
	c0.346-0.101,0.779-0.151,1.299-0.151h2.422v-1.492h-2.271C281.956,473.607,280.885,473.932,280.1,474.581z M398.273,487.825
	l3.057,3.057l3.057-3.057l-3.057-3.057L398.273,487.825z M343.322,482.322c0.389-0.418,0.854-0.749,1.395-0.994
	s1.135-0.368,1.783-0.368c0.736,0,1.373,0.076,1.914,0.228s1.121,0.414,1.74,0.789l0.715-1.405c-0.707-0.39-1.393-0.674-2.055-0.854
	c-0.664-0.181-1.436-0.271-2.314-0.271c-0.85,0-1.639,0.155-2.367,0.465c-0.729,0.311-1.367,0.746-1.914,1.309
	c-0.549,0.563-0.98,1.222-1.297,1.979c-0.317,0.757-0.476,1.59-0.476,2.498s0.158,1.74,0.476,2.497
	c0.316,0.757,0.748,1.413,1.297,1.969c0.547,0.555,1.186,0.987,1.914,1.297c0.729,0.311,1.518,0.465,2.367,0.465
	c0.879,0,1.65-0.09,2.314-0.27c0.662-0.181,1.348-0.466,2.055-0.854l-0.715-1.406c-0.619,0.375-1.199,0.639-1.74,0.79
	s-1.178,0.227-1.914,0.227c-0.648,0-1.242-0.119-1.783-0.356c-0.541-0.238-1.006-0.565-1.395-0.984
	c-0.391-0.418-0.693-0.915-0.908-1.492c-0.217-0.576-0.324-1.203-0.324-1.881s0.107-1.305,0.324-1.882
	C342.628,483.238,342.931,482.741,343.322,482.322z M404.387,487.825l1.949,1.95l1.951-1.95l-1.951-1.95L404.387,487.825z
	 M410.701,487.326l-0.664,0.433l0.633,0.564l241.176-0.341L410.701,487.326z M362.611,481.295c-0.549-0.569-1.193-1.02-1.936-1.352
	c-0.742-0.331-1.547-0.497-2.412-0.497c-0.863,0-1.668,0.166-2.41,0.497c-0.742,0.332-1.389,0.782-1.936,1.352
	c-0.549,0.57-0.977,1.229-1.287,1.979c-0.311,0.749-0.465,1.557-0.465,2.422s0.154,1.672,0.465,2.422s0.738,1.409,1.287,1.979
	c0.547,0.569,1.193,1.017,1.936,1.341s1.547,0.486,2.41,0.486c0.865,0,1.67-0.162,2.412-0.486s1.387-0.771,1.936-1.341
	c0.547-0.569,0.977-1.229,1.287-1.979c0.309-0.75,0.465-1.557,0.465-2.422s-0.156-1.673-0.465-2.422
	C363.587,482.524,363.158,481.865,362.611,481.295z M362.394,487.523c-0.217,0.569-0.52,1.067-0.908,1.492
	c-0.389,0.426-0.857,0.765-1.406,1.017c-0.547,0.252-1.152,0.378-1.816,0.378c-0.662,0-1.268-0.126-1.816-0.378
	c-0.547-0.252-1.016-0.591-1.404-1.017c-0.391-0.425-0.693-0.923-0.908-1.492c-0.217-0.569-0.324-1.179-0.324-1.827
	c0-0.649,0.107-1.262,0.324-1.839c0.215-0.576,0.518-1.077,0.908-1.503c0.389-0.425,0.857-0.764,1.404-1.016
	c0.549-0.252,1.154-0.379,1.816-0.379c0.664,0,1.27,0.127,1.816,0.379c0.549,0.252,1.018,0.591,1.406,1.016
	c0.389,0.426,0.691,0.927,0.908,1.503c0.217,0.577,0.324,1.189,0.324,1.839C362.718,486.345,362.611,486.954,362.394,487.523z
	 M296.221,481.295c-0.547-0.569-1.191-1.02-1.936-1.352c-0.742-0.331-1.545-0.497-2.41-0.497s-1.67,0.166-2.412,0.497
	c-0.742,0.332-1.387,0.782-1.936,1.352c-0.547,0.57-0.977,1.229-1.285,1.979c-0.311,0.749-0.465,1.557-0.465,2.422
	s0.154,1.672,0.465,2.422c0.309,0.75,0.738,1.409,1.285,1.979c0.549,0.569,1.193,1.017,1.936,1.341s1.547,0.486,2.412,0.486
	s1.668-0.162,2.41-0.486c0.744-0.324,1.389-0.771,1.936-1.341c0.549-0.569,0.977-1.229,1.287-1.979s0.465-1.557,0.465-2.422
	s-0.154-1.673-0.465-2.422C297.198,482.524,296.77,481.865,296.221,481.295z M296.006,487.523c-0.217,0.569-0.52,1.067-0.908,1.492
	c-0.391,0.426-0.859,0.765-1.406,1.017c-0.549,0.252-1.154,0.378-1.816,0.378c-0.664,0-1.27-0.126-1.816-0.378
	c-0.549-0.252-1.018-0.591-1.406-1.017c-0.389-0.425-0.691-0.923-0.908-1.492s-0.324-1.179-0.324-1.827
	c0-0.649,0.107-1.262,0.324-1.839c0.217-0.576,0.52-1.077,0.908-1.503c0.389-0.425,0.857-0.764,1.406-1.016
	c0.547-0.252,1.152-0.379,1.816-0.379c0.662,0,1.268,0.127,1.816,0.379c0.547,0.252,1.016,0.591,1.406,1.016
	c0.389,0.426,0.691,0.927,0.908,1.503c0.215,0.577,0.324,1.189,0.324,1.839C296.331,486.345,296.221,486.954,296.006,487.523z
	 M309.381,480.463c-0.455-0.39-0.996-0.656-1.623-0.801c-0.627-0.144-1.309-0.216-2.043-0.216c-0.707,0-1.465,0.047-2.271,0.141
	s-1.701,0.234-2.682,0.422v11.699h1.535v-10.402c1.184-0.23,2.293-0.346,3.33-0.346c0.592,0,1.111,0.062,1.559,0.184
	c0.445,0.123,0.818,0.332,1.113,0.628c0.295,0.295,0.525,0.713,0.691,1.254s0.25,1.251,0.25,2.13v6.553h1.535v-7.201
	c0-0.995-0.119-1.82-0.357-2.477C310.18,481.375,309.834,480.852,309.381,480.463z M318.516,490.054
	c-0.346-0.108-0.619-0.277-0.82-0.509c-0.203-0.23-0.35-0.547-0.443-0.951c-0.096-0.403-0.141-0.922-0.141-1.557v-5.86h4.973v-1.492
	h-4.973v-4.347h-1.537v4.347h-2.551v1.492h2.551v6.466c0,0.764,0.109,1.405,0.326,1.925c0.215,0.519,0.525,0.937,0.93,1.254
	c0.402,0.317,0.867,0.544,1.395,0.682c0.525,0.137,1.105,0.205,1.74,0.205h2.271v-1.492h-2.422
	C319.295,490.216,318.862,490.162,318.516,490.054z M337.784,489.589c-0.316,0-0.59,0.115-0.82,0.346s-0.346,0.505-0.346,0.822
	c0,0.316,0.115,0.591,0.346,0.821s0.504,0.346,0.82,0.346c0.318,0,0.592-0.115,0.822-0.346s0.346-0.505,0.346-0.821
	c0-0.317-0.115-0.592-0.346-0.822S338.102,489.589,337.784,489.589z M333.178,486.106c-0.346-0.303-0.785-0.565-1.318-0.789
	c-0.533-0.223-1.182-0.422-1.947-0.595l-0.799-0.173c-1.053-0.216-1.781-0.461-2.184-0.735c-0.404-0.273-0.607-0.678-0.607-1.211
	c0-0.504,0.238-0.904,0.715-1.2c0.475-0.295,1.174-0.443,2.098-0.443c0.793,0,1.477,0.076,2.055,0.228
	c0.576,0.151,1.217,0.421,1.924,0.811l0.691-1.405c-1.412-0.765-2.969-1.146-4.67-1.146c-0.635,0-1.223,0.076-1.764,0.228
	c-0.539,0.151-1.008,0.364-1.404,0.638s-0.711,0.605-0.941,0.994c-0.23,0.39-0.346,0.815-0.346,1.276
	c0,0.462,0.072,0.88,0.217,1.254c0.143,0.375,0.381,0.707,0.713,0.995s0.758,0.537,1.275,0.746c0.52,0.209,1.146,0.4,1.883,0.573
	l0.908,0.194c1.008,0.217,1.729,0.49,2.162,0.822c0.432,0.331,0.648,0.771,0.648,1.318c0,0.39-0.086,0.707-0.26,0.952
	c-0.172,0.245-0.414,0.436-0.725,0.573c-0.311,0.137-0.678,0.237-1.102,0.303c-0.426,0.064-0.877,0.097-1.352,0.097
	c-0.592,0-1.223-0.09-1.893-0.271c-0.67-0.18-1.352-0.479-2.045-0.897l-0.734,1.471c0.779,0.433,1.539,0.742,2.281,0.93
	s1.539,0.281,2.391,0.281c0.748,0,1.434-0.072,2.053-0.216c0.621-0.145,1.158-0.36,1.611-0.648c0.455-0.289,0.805-0.649,1.049-1.082
	c0.246-0.433,0.369-0.93,0.369-1.492c0-0.476-0.072-0.915-0.217-1.318C333.77,486.763,333.526,486.41,333.178,486.106z"/>
</svg>

