<?xml version="1.0" encoding="utf-8"?>
<!-- Generator: Adobe Illustrator 21.0.0, SVG Export Plug-In . SVG Version: 6.00 Build 0)  -->
<svg version="1.1" id="Layer_1" xmlns="http://www.w3.org/2000/svg" xmlns:xlink="http://www.w3.org/1999/xlink" x="0px" y="0px"
	 viewBox="0 0 800 500" style="enable-background:new 0 0 800 500;" xml:space="preserve">
<g>
	<path fill="#000000" d="M452.1,71.1c-1.6,3-3,5.7-4.5,8.4c-0.9,1.5-1,2.8-0.3,4.5c1.3,3.3,1.3,6.7-0.4,9.9c-2.3,4.4-8,6.2-12.4,3.8
		c-3.7-2-5-6.6-2.7-10.2c1.4-2.2,3.5-3,6.1-2.7c2.4,0.3,3.9,1.6,4.7,3.8c0.7,2-0.2,4.2-1.9,5.3c-1.4,0.9-3.7,1-4.7-0.2
		c-0.6-0.7-1.1-1.9-0.9-2.8c0.1-0.7,1.3-1.4,2.1-1.6c1.7-0.4,2.5,0.8,2.1,2.5c-0.1,0.5-0.4,0.9-0.9,1.7c2.3-0.4,3-1.8,3.2-3.4
		c0.2-1.6-0.8-3.1-2.3-3.9c-2.7-1.3-6.1,0.3-7,3.2c-1.2,3.6,1.2,7.6,4.9,8.3c3.7,0.7,7.9-1.9,9.1-5.6c1.2-3.8-0.4-7.6-4.2-9.3
		c-1.1-0.5-2.4-1-3.6-1.1c-12.6-0.7-25.2-0.8-37.7,1.2c-2.8,0.4-5.3,1.7-7.3,3.7c-3.4,3.3-3.4,9,1.5,11.5c2.6,1.3,5.3,2.3,8.2,2.3
		c7.4,0.1,14.7,0.2,22.1,0.6c4.8,0.3,9.5,1,14.2,1.9c8.8,1.8,13.3,10.6,11.4,18.9c-1.7,7.4-5.9,12.1-13.4,13.7
		c-9.8,2.1-19.7,2-29.6,1.6c-7.8-0.3-15.6-0.3-23.4-0.4c-0.4,0-0.8,0.1-1.4,0.2c-0.3,1.9-0.5,3.7-0.9,5.6
		c-1.4,7.3-5.1,11.3-12.3,12.4c-3.8,0.6-7.9,0.6-11.8,0.2c-5.5-0.6-8.7-4.2-10.3-9.3c-0.9-2.9-1.5-6-1.9-9.1
		c-0.8-6-2.9-11.3-7.6-15.4c-1-0.9-1.8-2.1-2.3-3.4c-0.9-2.1-0.2-4.6,1.6-6.1c1.7-1.4,3.6-1.9,5.7-0.9c2,1,3.3,3,3.2,5.1
		c-0.1,1.8-1.4,3.3-3.1,3.6c-1.7,0.3-3.5-0.8-4-2.5c-0.2-0.6-0.2-1.3-0.1-1.9c0.2-1,1-1.8,2.1-1.5c0.6,0.2,1.5,1,1.5,1.6
		c0.1,1.2-1,1.4-2.1,1.3c-0.2,0-0.4,0.1-0.5,0.2c1,1.8,1.9,2.3,3.3,1.8c1.3-0.4,2.1-1.8,1.9-3.3c-0.3-2.4-2.7-4.4-4.9-4.1
		c-2.7,0.4-4.7,3.1-3.9,5.6c0.3,1.1,1,2.1,1.7,3c0.6,0.7,1.5,1.2,2.2,1.8c2,1.4,4.2,2.6,6,4.3c1.8,1.6,3.3,3.5,5,5.5
		c2.4-3.6,4.9-7.2,10-8.3c-0.4,0.9-0.6,1.5-0.9,2.2c-2.3,5.5-3.7,11.1-3.5,17.1c0,1.3,0.2,2.5,0.5,3.8c0.6,2.8,1.8,5.1,4.9,5.7
		c3.2,0.6,6.1-0.2,8-2.9c1.3-1.9,2.1-4.2,2.7-6.4c0.6-2.5,0.7-5.1,0.7-7.6c0.1-12.5,0.1-25-1.2-37.4c-0.8-7.9-2-15.8-5.5-23.6
		c5.6,2,8.4,5.9,10.1,11.4c1.6-4.7,3.2-8.8,8-10.9c-2.9,17.2-2.8,34.2-2.4,51.6c3.5,0.5,6.9,1.1,10.4,1.6
		c12.3,1.8,24.7,1.4,37.1,0.6c2.9-0.2,5.8-0.6,8.5-1.3c2.1-0.5,4.3-1.5,6.1-2.7c4.1-2.7,3.9-8.3-0.3-10.9c-2.7-1.7-5.8-2.2-8.9-2.4
		c-7.3-0.5-14.7-0.9-22-1.1c-5.3-0.1-10.4-0.9-15.4-2.7c-5.8-2.1-9.2-6-9.8-12.2c-0.3-2.8-0.3-5.8,0.3-8.6c1.3-6.6,5.1-11,11.9-12.8
		c6.8-1.7,13.7-1.9,20.7-1.8c5.8,0.1,11.5,0.3,17.3,0.1C442.9,72.1,447.3,71.5,452.1,71.1z"/>
	<path fill="#000000" d="M435.1,365.2c3.1,0.8,4.5,2.8,6.2,5.2c1.9-4.2,5.1-6.9,8.3-9.6c1.5-1.2,2.3-3.1,2.3-5.1c-0.1-2.4-2.2-4.3-4.7-4.3
		c-2.3,0-4.2,1.9-4.4,4.2c-0.1,1.9,0.9,3.3,2.4,3.6c1.6,0.3,2.4-0.4,3.4-3c-0.7,0.3-1,0.5-1.5,0.6c-1,0.3-1.7-0.1-1.8-1.2
		c-0.1-1.2,0.6-1.8,1.7-1.8c1.2,0,1.9,0.8,2.2,1.9c0.3,1.8-0.8,3.7-2.6,4.3c-1.7,0.5-3.7-0.5-4.4-2.3c-0.8-1.9-0.2-4.4,1.4-5.9
		c1.5-1.4,4-1.7,6-0.8c2,0.9,3.4,3.2,3.1,5.5c-0.2,1.4-0.7,2.7-1.2,4c-1.1,2.5-2.4,5-3.6,7.5c-1,2.2-1.5,4.4-1.4,6.8
		c0.1,4.9,0.2,9.8,0.1,14.7c-0.1,2.4-0.5,4.9-1,7.2c-1,3.9-3.6,6.1-7.6,6.8c-4,0.7-7.1-0.8-9.5-4c-0.8-1.1-1.4-2.3-2.1-3.5
		c-0.3,0.1-0.6,0-0.7,0.2c-6.1,6.6-13.9,9.3-22.6,9.5c-8.3,0.2-16.4-1.2-23.9-4.8c-0.2-0.1-0.4-0.1-0.6-0.1
		c-4.5,8.5-14.1,8-18.6,0.2c-0.2,1-0.3,1.6-0.4,2.3c-0.2,3.3-0.4,6.6-0.6,9.9c-0.2,3.6-1.2,6.9-2.7,10.1c-2.5,5.4-7.3,7.5-12.8,8.4
		c-1.8,0.3-3.6,0-5.4,0c0.1-0.2,0.1-0.5,0.2-0.5c4.5-0.5,6.8-3.6,8.4-7.4c2.5-6.2,3.6-12.7,4-19.4c0.7-11.2,0.5-22.4-1.6-33.7
		c3.3,0.2,4.3,2.9,5.9,5.3c1.9-3,3.6-6,6.9-7.3c0.2,0.2,0.4,0.4,0.4,0.5c-1.7,7.5-1.8,15.2-2.3,22.9c-0.2,3.3,0.9,6.3,2.4,9.2
		c0.7,1.3,1.7,2.6,3.2,2.2c1.1-0.3,2.3-1.3,2.7-2.4c0.9-2.3,1.5-4.7,1.9-7.1c0.9-6.1,1.7-12.3,0.5-18.5c-0.3-1.7-0.8-3.3-1.1-5
		c2.2,0.2,2.2,0.2,5.9,4.6c1.7-2.3,3.4-4.6,6.9-5.5c-2.6,6.8-2,13.4-2.2,20c-0.1,2.8-0.1,2.8,2.5,4c8.1,3.6,16.5,4.4,25,2.7
		c4.8-1,9.5-2.5,14-4.3c6.5-2.5,7.8-8.6,3.2-13.9c-4.5-5.1-10.4-7.8-16.9-9.1c-3.5-0.7-7-0.9-10.5-0.1c-2.6,0.6-4.8,1.8-6.4,4
		c-2.6,3.5-2.8,7.4-0.5,10.7c2.4,3.4,6.9,5,10.8,3.9c4.7-1.4,6.8-7.2,3.8-10.8c-2.2-2.7-6.6-3-8.8-0.6c-1.6,1.8-1.6,4.5,0.1,6
		c1.8,1.5,4,1.3,5.7-0.9c-0.4,0-0.7-0.1-0.9,0c-1.4,0.6-2.3,0.3-2.7-1.2c-0.3-1.2,0.2-2.2,1.3-2.6c1.2-0.5,2.3-0.1,3.1,1
		c1.2,1.9,0.3,4.6-2,5.6c-2.8,1.1-6-0.7-6.7-3.7c-0.6-2.8,0.9-5.8,3.7-6.6c2.6-0.8,5.1-0.4,7.2,1.4c2.1,1.8,2.8,4.2,2.3,6.9
		c-0.9,4.6-4.8,7.5-9.5,7.2c-4.8-0.3-8.8-3.3-10.3-7.9c-2.7-8.3,1.1-19.7,12.9-21.3c11.2-1.5,20.3,2.6,26.9,12
		c3.1,4.5,3.4,9.5,2.5,14.8c-0.4,2.5-0.5,5.1-0.5,7.6c0,1.2,0.3,2.6,0.9,3.7c1.3,2.6,3.8,2.7,5.1,0.1c0.9-2,1.5-4.2,1.8-6.4
		C438.2,383.3,438.1,374.4,435.1,365.2z"/>
	<path fill="#000000" d="M370.7,293.2c-8.2,10.1-7.8,21.1-4.4,32.4c0.6,1.9,1.7,3.7,2.9,5.3c2.8,3.7,7.1,4.6,11.1,2.3c1.9-1.1,3.8-2.6,4.9-4.5
		c5.2-8.5,6.1-17.6,2.7-27c-0.6-1.7-1.8-3.5-3.1-4.8c-4.3-4.4-11.4-3-13.7,2.7c-1.6,4.1-1.5,8.2,0.7,12c2.3,3.9,6.5,4.2,9.2,0.6
		c2.2-2.9,2.5-6,1.2-9.4c-0.8-1.9-1.6-2.4-4.1-2.5c0.4,0.7,0.8,1.3,1.1,1.9c1,1.9,0.5,3.5-1.1,4.3c-1.8,0.8-3.7,0.1-4.5-1.8
		c-1.1-2.6,0.5-5.8,3.4-6.6c2.1-0.6,4-0.3,5.6,1.4c2.6,2.8,3,6.1,2.2,9.6c-0.8,3.4-2.8,5.9-6.4,7c-3,0.9-5.5,0-7.4-2.4
		c-3.7-4.5-3.7-12.8-0.2-17.4c3.6-4.6,11.1-5,15.4-0.8c2.2,2.1,3.6,4.8,4.4,7.7c1.7,5.9,1.9,11.8,0.3,17.7
		c-1.2,4.2,0.7,7.5,2.9,10.6c1.4,1.9,3.6,1.7,4.7-0.4c1-2.2,1.9-4.6,2-7c0.1-7.6-0.2-15.1-0.6-22.7c-0.1-2.4-1-4.7-1.6-7.4
		c4,1,4.9,4.4,6.6,8.1c1.3-4.4,2.4-8.3,6.5-11c-0.3,1.9-0.6,3.1-0.6,4.5c-0.2,8.4-0.4,16.8-0.5,25.3c0,3.2,1.3,6.2,3,9
		c0.7,1.2,1.7,2.3,3.3,2.1c1.6-0.2,2.5-1.4,2.8-2.7c0.7-2.6,1.4-5.2,1.5-7.8c0.5-9.4,0.4-18.8-2.3-27.9c-0.1-0.3,0.1-0.6,0.1-1
		c2.7,0.7,4.2,2.8,5.8,5c1.7-2.5,3.2-5,6.6-5.8c-2.3,8.2-0.8,16.3-1,24.3c-0.1,3.7-0.2,7.5-0.7,11.1c-0.7,4.3-3.3,7-7.8,7.8
		c-4.4,0.8-7.7-1-10.1-4.7c-0.4-0.6-0.7-1.2-1.3-2.1c-2.5,5.2-6.3,8-11.8,7.5c-5.2-0.5-7.4-4.5-9.2-9.3c-2.4,3.8-4.7,7.3-8.5,9.3
		c-3.8,1.9-7.7,2.2-11.8,1.6c-4.4-0.7-7.7-3-10.4-6.4c-2.5-3.2-3.8-7-4.6-11.1c-0.3,0-0.5,0-0.8,0.1c-0.2,1.6-0.6,3.2-0.6,4.8
		c0.1,5.9,1.1,11.7,3.7,17.1c0.8,1.6,1.5,3.3,1.8,5.1c0.5,3.2-1.5,5.7-4.6,6.3c-2.7,0.5-5.5-1.2-6-4c-0.2-1.3,0.1-2.8,0.6-3.9
		c0.7-1.5,2.3-1.8,3.9-1.5c1.4,0.3,2.7,1.8,2.6,3.2c0,0.9-0.4,1.9-1.1,2.5c-0.4,0.4-1.6,0.3-2.3,0.1c-0.4-0.1-0.7-1.1-0.6-1.6
		c0.2-1.1,1.1-1.2,2-0.9c0.3,0.1,0.6,0.1,1.1,0.3c0.1-1.9-1-2.6-2.5-2.8c-1.3-0.2-2.6,0.9-3,2.4c-0.5,1.8,0.3,3.8,1.7,4.8
		c1.4,1,3.5,1,5.1-0.1c1.6-1,2.3-2.5,2-4.4c-0.2-1-0.7-2-1.3-2.9c-1.8-2.3-3.7-4.4-5.7-6.8c-2.5,2.5-5.3,4.1-9.1,3.2
		c1.7-3.5,1.6-7.1,1.3-10.7c-0.2-2.3,0-4.7,0.4-7c0.9-5.2,3.9-8.4,9.1-9.4c0.4-0.1,0.8-0.2,1.2-0.3c0.1,0,0.2-0.1,0.2-0.2
		C357.1,298.9,361.8,293.3,370.7,293.2z"/>
	<path fill="#000000" d="M439,187.5c3,0.1,3.9-1.7,4.4-3.9c0.5-2.3-0.3-4.2-2.1-5.7c-2.8-2.1-6.8-1.5-9.1,1.4c-2.1,2.8-2.4,5.9-1.1,9.1
		c1.3,3.2,3.9,5.1,7.4,5.3c4,0.3,7.3-1.3,9.6-4.6c3.6-5.2,3-13.2-1.2-17.9c-5.4-6-14.3-6.3-19.9-0.6c-10.1,10.1-6.8,28.4,7.3,33.9
		c2.4,0.9,4.9,1.4,7.9,2.3c-1.9,1.4-3.4,2.7-5.2,3.7c-7.6,4.3-15.6,6.4-24.3,4.3c-9.3-2.3-13.4-6-14.6-16.9
		c-0.7-7.2-0.2-14.5-0.3-21.7c-0.1-8.7-0.2-17.5-0.4-26.2c0-1.6-0.4-3.1-0.6-4.8c2.9,1,2.9,1,7.1,7.3c1.6-2,2.7-4.7,5.7-4.8
		c-0.8,6.3-1.8,12.5-2.3,18.8c-0.8,10.5-1.6,21.1,0.2,31.6c1.4,8.7,8.8,13.4,17.2,11c0.9-0.3,1.8-0.6,2.7-1c0.7-0.3,1.3-0.7,2.5-1.3
		c-1.2-0.4-2-0.8-2.8-1c-4.3-1.2-8.1-3.3-11.1-6.7c-9.2-10.3-6.1-26.5,6.4-32.5c5.8-2.8,11.9-3.3,18.1-1.7
		c9.6,2.6,14.8,13.4,10.9,22.4c-3.1,7-9,8.8-15.2,7.4c-3.9-0.8-6.3-3.7-7-7.5c-0.8-3.9-0.1-7.7,3.2-10.5c2.9-2.3,7.3-2.3,10.1-0.1
		c2.8,2.2,3.7,5.8,2.2,8.9c-1.8,3.8-6.7,4.8-9.3,1.9c-1-1.1-1.3-2.4-0.8-3.9c0.5-1.3,1.4-2.3,2.8-2.2c1,0.1,2.3,0.4,2.7,1.1
		c0.5,0.7,0.3,2,0.1,3C440.1,186.4,439.4,186.9,439,187.5z"/>
	<path fill="#000000" d="M379.6,177.2c0.6,0.9,1,1.5,1.4,2.1c0.9,1.9,0.3,3.6-1.4,4.2c-1.9,0.7-3.8-0.2-4.4-2.1c-0.5-1.7-0.3-3.4,1-4.8
		c1.5-1.6,3.3-2.3,5.5-1.7c1.8,0.5,2.9,1.7,3.8,3.2c2.4,4.3,1.2,10.3-2.6,13.4c-3.6,2.9-8.3,2.1-10.9-1.7c-3-4.4-3-11.7,0-16.1
		c3.7-5.5,12.2-5.7,16.6-0.5c3.1,3.7,4.3,8.1,4.7,12.7c0.6,6.5-0.2,12.8-3.4,18.6c-4.4,7.8-11,11.6-21.4,9
		c-5.9-1.5-9.2-5.9-11.4-11.3c-0.7-1.8-1.1-3.6-1.8-5.9c-0.4,0.8-0.8,1.3-0.8,1.8c-0.4,7.2-0.2,14.3,3.7,20.7c1.1,1.9,2.1,4,2.6,6.1
		c1.1,4.2-2,7.6-6.1,7.1c-3.4-0.4-5.6-4.6-4-7.5c0.9-1.6,2.7-2.4,4.3-1.9c1.5,0.5,2.6,2.1,2.6,3.7c-0.1,1.5-1,2.6-2.3,2.5
		c-1.2,0-1.8-0.7-1.7-1.9c0.1-1.1,0.8-1.5,1.8-1.2c0.4,0.1,0.9,0.3,1.5,0.6c-1-2.6-1.9-3.3-3.3-3.1c-1.7,0.3-2.7,1.9-2.5,3.9
		c0.2,2.4,2.3,4.2,4.5,4.1c2.8-0.2,4.9-2.6,4.4-5.2c-0.2-1.2-0.8-2.5-1.5-3.4c-2.2-2.8-4.6-5.6-7.1-8.4c-2.2,2.7-5.1,3.7-8.8,3
		c2-3.7,1.5-7.5,1.3-11.3c-0.1-2.3,0-4.7,0.5-7c1-4.5,3.7-7.6,8.4-8.6c0.6-0.1,1.2-0.3,2.2-0.6c0.2-1.1,0.4-2.3,0.7-3.6
		c0.7-3.7,2.1-7.1,4.4-10.2c2.9-3.9,6.8-6,11.7-6.5c-0.1,0.5,0,0.8-0.2,1c-5.2,6.2-6.8,13.4-6,21.2c0.3,3.1,0.8,6.2,1.6,9.1
		c0.6,2.2,1.7,4.4,3,6.3c3,4.3,7.6,5.1,12.1,2.4c2.3-1.3,3.9-3.3,5.1-5.6c3.9-7.4,4.6-15.3,2.6-23.3c-0.5-2.1-1.7-4.2-2.9-6
		c-2-3.1-5.2-4-8.7-3.4c-3.3,0.5-5.2,2.7-6.2,5.8c-1.3,3.9-1.1,7.8,1.1,11.4c2.3,3.8,6.6,3.9,9.2,0.4c2.1-2.8,2.4-5.9,1.1-9.1
		C383.1,178,382.3,177.5,379.6,177.2z"/>
	<path fill="#000000" d="M365.3,258.7c-0.1,5.2,2,7,6.4,5.8c2.6-0.7,5.1-1.5,7.7-2.3c0.1-1.1,0.3-2.2,0.6-4c0.7,1.1,1,1.7,1.4,2.2
		c1.2,1.6,2.1,3.5,3.5,4.9c3.6,3.5,10.8,3.1,12.7-3.1c0.5-1.6,1-3.3,1-5c0-3.1-0.3-6.1-0.5-9.6c-1,0.4-1.7,0.6-2.5,1
		c-3.2,1.4-6.5,2-10,1.2c-4.6-1.2-7.9-3.9-9.2-8.5c-0.8-2.6-1.1-5.5-0.9-8.2c0.7-9.2,7.4-11.1,13.8-10.7c3.1,0.2,5.6,1.8,7.9,4.1
		c1-2.2,1.9-4.3,3.1-6.8c0.7,1.9,1.1,3.2,1.5,4c1.3-1,2.4-2.1,3.7-2.8c1.3-0.8,2.8-1.2,5-2.1c-3.1,6-2.7,11.6-2.3,17.2
		c0.5,7.1,0.5,14.1-1,21c-0.3,1.5-0.7,2.9-1.2,4.3c-1.2,3.6-3.7,6-7.1,7.3c-4.8,1.8-9.7,2.2-14.3-0.2c-3.6-2-7.4-2.5-11.4-2.5
		c-1.6,0-3.2-0.1-4.8-0.4C365.1,264.8,363.9,262.4,365.3,258.7z M397.6,236.7c-0.1,0-0.2,0-0.3,0c0-1.9,0.1-3.8,0-5.8
		c-0.2-2.8-3.1-5.5-6-5.7c-3.1-0.2-5.4,1.4-6.1,4.5c-1.1,4.7-0.5,9.3,1.5,13.8c0.3,0.8,0.9,1.5,1.4,2.1c1.7,2,3.8,2.5,6,1.7
		c2.3-0.9,3.5-2.7,3.6-5.1C397.6,240.3,397.6,238.5,397.6,236.7z"/>
	<path fill="#000000" d="M329.2,264.2c1.7,1,1.4,2.3,1.4,3.3c0.1,4.3,0.2,8.5,0.2,12.8c0,27.2-0.1,54.4-0.1,81.6c0,14.6,0,29.2-0.1,43.9
		c0,4.2-0.2,8.3-0.4,12.5c-0.4,5.8,0.3,11.5,2.2,17c0.7,2.1,1.4,4.3,1.9,6.4c0.3,1.4,0.4,2.9,0.5,4.4c0.1,1.5,0,3.1-1.8,3.7
		c-1.5,0.5-2.7-0.4-3.9-2.8c1.2,0.2,2.3,0.3,3.6,0.6c1.1-6.3-2.6-11.5-3.2-17.3c-0.3,0-0.5,0-0.8,0c0,1.8-0.1,3.5,0,5.3
		c0.1,3,0.3,6,0.3,9c0,1.6-0.8,2.9-2.4,3.4c-1.6,0.5-2.9-0.1-4-1.7c-0.1-0.1,0-0.4,0.1-0.8c0.8,0.5,1.6,0.9,2.5,1.4
		c3.6-3.2,1.3-7,1.2-10.6c-0.2,0.6-0.5,1.2-0.8,1.8c-0.9,1.8-1.5,3.8-2.6,5.4c-1.5,2.1-3.3,2-5.5,0.3c1.3-0.4,2.9-0.6,4-1.5
		c1.6-1.4,2.1-3.5,2.7-6.2c-1.1,0.8-1.8,1.2-2.5,1.6c-3.5,2.3-7.1,2.1-10.5-0.1c-3.7-2.3-5.3-5.8-4.9-10.1c0.1-1.3,1-2.9,2-3.8
		c2.2-2,5.9-0.6,6.5,2.4c0.2,1.2-0.1,2.2-1.3,2.6c-1.1,0.4-1.4-0.5-1.9-1.2c-0.5-0.8-1.2-1.4-1.8-2.1c-2.4,3.4-1.9,7.7,1.1,10.2
		c3.1,2.6,7.9,2.7,10.4-0.4c1.7-2,2.8-4.5,3.7-7c1.2-3.3,1.7-6.8,2.7-10.2c1.1-3.3,1.4-6.6,1.4-10.1c-0.1-34.3-0.2-68.5-0.2-102.8
		c0-12.4,0-24.8,0.1-37.1C328.9,266.9,329.1,265.7,329.2,264.2z"/>
	<path fill="#000000" d="M466,264.5c0.2,1.2,0.4,2.4,0.4,3.6c0.1,8.3,0.1,16.6,0.1,25c0,34.1,0,68.3,0,102.4c0,5.1-0.2,10.2-0.2,15.4
		c0,1.5,0.2,3,0.5,4.4c0.9,4,2,8.1,3.1,12.1c0.7,2.8,1.5,5.6,3.6,7.7c2.5,2.5,6.2,3.2,9.1,1.7c2.9-1.5,5-5.3,4.7-8.5
		c-0.2-2-1.3-3-3.6-3.4c-0.2,1.3-0.4,2.5-0.5,3.8c-1.7-0.1-2.3-1.3-2.4-2.7c-0.2-1.5,0.9-2.4,2.1-2.8c2.5-0.9,5.1,0.4,6.1,3.2
		c1.3,3.7-0.1,8.2-3.4,10.9c-3,2.5-6.9,2.8-10.4,0.7c-1.3-0.7-2.4-1.7-3.6-2.7c0.3,5.6,2.3,8.1,6.7,7.9c-0.7,2-2.9,2.5-4.5,0.8
		c-1.3-1.4-2.2-3.3-3.1-5.1c-0.6-1.2-0.9-2.6-1.7-3.8c-0.2,2.4-0.3,4.8-0.5,7.2c-0.3,3.9,0.8,4.6,4.3,2.9c0.4,1.8-0.2,2.8-1.8,2.9
		c-1.8,0.1-3.7-1.3-4.1-3.4c-0.2-1.2-0.2-2.5-0.2-3.8c0.1-2.5,0.3-4.9,0.4-7.4c0-1-0.1-2-0.7-3c-1.2,4.3-2.3,8.6-3.5,12.9
		c-0.1,0.5-0.3,1-0.3,1.6c-0.1,1.8,0.6,2.4,2.5,2c0.4-0.1,0.8-0.1,1.3-0.2c0.2,1.7-0.5,2.7-1.9,3c-1.4,0.3-2.7-0.3-3.2-1.6
		c-0.5-1.1-0.7-2.5-0.5-3.7c0.4-2.5,0.9-5.1,1.7-7.5c2.4-6.8,3.2-13.8,2.9-21.1c-0.5-11.6-0.3-23.2-0.4-34.9
		c-0.1-26.1-0.1-52.3-0.2-78.4c0-11.6,0.1-23.3,0.1-34.9c0-1.1,0.2-2.2,0.2-3.3C465.3,264.5,465.7,264.5,466,264.5z"/>
	<path fill="#000000" d="M466.7,46c2.6-2.5,4.2-2.6,6.1-0.2c0.2,0.2,0.1,0.6,0.1,0.9c-3.2-1.5-4.7-0.6-4.7,2.9c0,2.2,0.3,4.4,0.8,6.7
		c0.3-0.8,0.6-1.7,0.9-2.5c0.7-1.6,1.2-3.2,2.2-4.6c1.6-2.4,3.2-2.5,6.3-0.5c-2.1,0.2-4.2-0.1-5.1,1.9c-0.7,1.6-1.4,3.3-1.7,5.4
		c0.7-0.5,1.4-1,2.1-1.4c3.6-2.3,7.4-2.2,11,0.4c3.4,2.5,5.2,6.9,4.2,10.7c-0.5,2.1-2.1,3.7-3.8,3.8c-1.8,0.2-3.1-0.7-4-2.1
		c-1.1-1.7-0.7-2.7,1.5-4.1c0.9,1.2,1.9,2.4,2.9,3.6c2.6-3.3,2.1-7.6-0.9-10.2c-3.3-2.8-8-2.8-10.6,0.4c-1.5,1.8-2.6,4.1-3.4,6.4
		c-1,2.6-1.2,5.4-2.1,8c-2.1,5.6-2.3,11.4-2.2,17.3c0.3,36.4,0.4,72.8,0.6,109.1c0,5.2-0.1,10.5-0.2,15.7c0,1-0.2,2-0.9,3.1
		c-0.3-0.5-0.7-0.9-0.7-1.4c-0.1-2.4-0.2-4.9-0.2-7.4c0-27,0-54,0.1-81c0-14.8,0-29.7,0.1-44.5c0-3,0.2-6,0.4-8.9
		c0.4-5.6-0.4-11-2.1-16.4c-1-3.1-1.7-6.4-2.5-9.6c-0.2-0.7-0.2-1.5-0.1-2.2c0.2-1.4,0.3-2.8,2.2-3c1.7-0.2,2.7,0.4,3.5,2.1
		C466.4,45.2,466.6,45.7,466.7,46c-1.1-0.5-2.3-1-3.5-1.5c-1.4,3.1-0.4,8.3,3.4,18.1c0-3.4,0-6.2,0-9
		C466.6,51.1,466.7,48.6,466.7,46z"/>
	<path fill="#000000" d="M329.6,217.1c-0.2-0.8-0.5-1.5-0.6-2.1c-0.1-1.7-0.1-3.4-0.1-5.1c0-39,0-77.9,0-116.9c0-0.1,0-0.2,0-0.3
		c1-9.6-0.8-18.9-3.5-28c-0.6-2-1.3-4.1-2.4-5.9c-1.8-3-5.4-4.5-8.5-3.8c-3.1,0.7-5.9,3.9-6.4,7.3c-0.4,2.7,0.3,3.9,3,5.1
		c1.9-0.8,0.6-2.6,1-3.9c2.2,1.1,2.9,2.1,2.6,3.5c-0.3,1.3-2,2.6-3.7,2.5c-2.1-0.1-3.6-1.2-4.4-3.2c-1.4-3.5-0.3-7.9,2.8-10.8
		c2.9-2.7,6.8-3.4,10.4-1.5c1.5,0.8,2.8,1.9,4.1,2.9c0.2-5.1-2-7.8-6.6-8c1.1-1.9,2.8-2.4,4.4-0.8c1.4,1.4,2.3,3.3,3.2,5
		c0.6,1.2,0.8,2.5,1.8,3.7c0.1-2.7,0.3-5.4,0.3-8.1c0-2.8-1-3.3-3.5-2c-0.3,0.1-0.6,0.2-0.9,0.3c-0.2-2.2,1-3.4,3-2.8
		c1.8,0.5,3.2,2.3,3.2,4.6c0,2.8-0.2,5.5-0.3,8.3c0,1.3,0,2.7,0.5,4.2c0.2-0.6,0.5-1.2,0.6-1.8c0.9-3.1,1.8-6.1,2.6-9.2
		c0.3-0.9,0.5-1.9,0.5-2.8c0.1-2.1-0.3-2.5-2.6-2.1c-0.3,0-0.6,0-1,0c-0.4-1.6,0.4-2.4,1.8-2.8c1.4-0.4,2.9,0.4,3.4,1.7
		c0.3,0.8,0.4,1.7,0.3,2.5c-0.3,2.2-0.4,4.5-1.2,6.6c-3,7.9-3.7,16.1-3.4,24.5c0.5,14.1,0.4,28.2,0.5,42.3c0.1,24.3,0.2,48.7,0.3,73
		c0,6.8-0.1,13.7-0.3,20.5C330.6,214.7,331,216,329.6,217.1z"/>
	<path fill="#000000" d="M438.7,283.5c1.8-3,4.1-4.9,7.4-5.2c-5.3,18.5-5.9,37.2-3.6,56.5c-1.3-0.7-2.7-1.4-4.3-2.3c-1.4,0.6-2.6,2.5-4.8,2
		c3.9-10.4,3.3-21,2.7-31.6c-0.3-5.2-1.3-10.4-2.1-15.5c-0.5-2.7-1.4-5.3-2.3-8.3C434.5,279.9,436.7,281.2,438.7,283.5z"/>
	<path fill="#000000" d="M394.5,52.4c-4.8,2.5-9.2,2.7-13.7,2.4c-2.9-0.2-5.7-0.8-8.2-2.4c-1.9-1.3-3.3-2.9-2.8-6c4.3,1.5,8.2,3.8,12.8,3.9
		c-1.6-1.3-3.3-2.3-4.5-3.7c-1.7-1.9-1.3-3.2,1.2-5.3c1,1.4,2,2.9,3.1,4.4c0.3-0.2,0.6-0.3,0.9-0.5c-0.3-2.3-0.2-4.4,2.2-5.5
		c0.3,0.2,0.6,0.3,0.6,0.4c0.9,4.4,3.9,6.9,7.5,9.1c2.5,1.5,2.9,2.9,1.7,5.5c-1.1,2.5-3.2,3.9-5.5,5.1c-3.7,1.8-7.7,2.6-11.7,3.1
		c-6.2,0.8-12.4,0.5-18.3-1.7c-3.5-1.3-6.8-3.1-9.2-6.1c-1.3-1.6-2.2-3.4-2.1-5.5c0.2-2.3,1.5-4,3.8-4.6c2.1-0.6,4.9,0.3,6.1,1.9
		c0.8,1.2,0.9,2.4,0.2,3.6c-0.7,1.1-1.7,1.3-4.4,0.6c0.7-0.4,1.2-0.7,1.6-1c1.5-0.9,1.5-1.9,0.2-2.9c-1.3-1-3.6-1.1-4.8-0.2
		c-1.3,1-1.8,2.9-0.8,4.6c0.9,1.5,2.1,2.9,3.5,4.1c4.5,4,10.1,5.5,15.9,6c6.2,0.5,12.4-0.3,18.3-2.4
		C390.8,58.2,393.4,56.6,394.5,52.4z M387.5,52.9c-5.1-1.1-10-2.1-15-3.2C377,53.5,382.1,53.9,387.5,52.9z M382.5,47.2
		c-1-1-2.1-1.9-3.1-2.9C379.4,46.4,380.8,47,382.5,47.2z"/>
	<path fill="#000000" d="M394.3,446.1c-0.7-3.5-2.9-5.2-5.5-6.1c-3.3-1.1-6.8-2-10.2-2.5c-6.1-0.8-12.1-0.6-18,1.6c-3.3,1.3-6.4,3.1-8.7,5.7
		c-0.8,0.9-1.5,2.1-2,3.2c-0.7,1.7,0,3.3,1.5,4.1c1.5,0.8,4,0.4,5-1c0.6-0.8,0.6-1.6-0.3-2.2c-0.5-0.3-1.1-0.4-1.8-0.7
		c1.6-1.3,2.7-1.3,3.8-0.3c1,1,1.1,2.6,0.3,3.8c-1.1,1.7-3.9,2.6-6.3,2c-2-0.5-3.4-2.2-3.6-4.4c-0.2-1.9,0.3-3.7,1.6-5
		c2-1.9,4-3.8,6.4-5.2c5-2.9,10.6-3.7,16.4-3.6c4.8,0.1,9.6,0.6,14.1,2.4c2.3,0.9,4.4,2.1,6.3,3.6c1.1,0.9,1.9,2.5,2.4,4
		c0.7,2.1,0.2,2.6-1.6,3.9c-1.9,1.4-3.9,2.7-5.4,4.4c-1.2,1.4-1.8,3.3-2.7,5c-2.5-0.8-2.9-1.6-2.4-5.6c-1.6,1.6-2.9,2.8-4.2,4
		c-2.3-1.7-2.7-3.2-1-5c1.4-1.5,3.3-2.6,4.9-3.9c-4.5,0.3-8.7,2.4-13.2,4.2c-0.4-2.8,0.5-4.6,2.3-5.6c2.1-1.2,4.4-2.2,6.8-2.6
		C384.7,443.4,388,443.9,394.3,446.1z M387.4,445.8c-7.8-0.9-12.8,0.4-14.5,3.2C377.4,448,382.1,447,387.4,445.8z M381.4,452.3
		c-1.4,0-2.3,0.5-2.4,2.5C380,453.7,380.7,453,381.4,452.3z"/>
	<path fill="#000000" d="M411.6,448.4c1.7,1.3,3.5,2.4,4.9,3.9c1.7,1.8,1.2,3.4-1.1,5c-1.2-1.2-2.5-2.4-4.3-4.2c0.7,3,0.5,5.1-2.4,6.2
		c-1-5.1-4.5-7.9-8.6-10.1c-1.1-0.6-1.4-1.5-1.3-2.7c0.2-2,1-3.8,2.6-5c1.4-1.1,2.9-2.2,4.6-2.8c9.1-3.4,18.5-4.2,27.9-1.3
		c4,1.2,7.7,3.2,10.4,6.5c1.3,1.6,2.1,3.4,1.9,5.6c-0.2,2.3-1.5,3.9-3.5,4.4c-2.4,0.6-5.2-0.2-6.3-2c-0.7-1.2-0.9-2.5,0.1-3.6
		c1.1-1.3,2.4-1.5,4.3-0.3c-0.5,0.3-0.7,0.5-1,0.6c-1,0.2-2.1,0.5-1.8,1.7c0.2,0.8,1.2,1.4,1.9,1.9c1.5,0.8,2.9,0.5,4.1-0.7
		c1.2-1.2,1.3-2.7,0.5-4.1c-0.8-1.3-1.8-2.7-2.9-3.7c-4-3.8-9-5.6-14.4-6.3c-6.6-0.8-13.2-0.1-19.6,1.9c-1.4,0.4-2.8,1.2-4,2
		c-1.7,1-2.8,2.5-3.3,4.6c3-0.6,5.9-1.6,8.7-1.6c3.5-0.1,7,0.4,10.4,1.2c1.7,0.4,3.3,1.9,4.6,3.2c0.9,0.9,1.5,2.3,0.6,3.7
		c-4.4-1.4-8.7-2.8-13-4.2C411.5,448.1,411.6,448.2,411.6,448.4z M422,449.1c-4.2-3.9-9.2-3.9-14.4-3.2
		C412.4,447,417.2,448.1,422,449.1z M415.7,454.8c-0.6-2.4-1.7-3-3.4-3C413.2,452.6,414.2,453.5,415.7,454.8z"/>
	<path fill="#000000" d="M440.8,50.9c-2.9,0.9-4,0.6-4.7-0.7c-0.7-1.4-0.2-3.1,1.3-4.2c2.1-1.6,5.2-1.6,7.2,0c1.7,1.4,2.5,4.4,1.1,6.7
		c-1.2,2-2.9,4-4.8,5.4c-4,3.1-8.7,4.4-13.7,4.9c-6.4,0.7-12.8,0-19-1.9c-1.9-0.6-3.7-1.6-5.5-2.6c-1.8-1.1-3.1-2.6-3.7-4.7
		c-0.7-2.4-0.4-3.1,1.7-4.4c5.1-3.2,6.2-4.6,7.9-9.5c2.6,1.1,2.9,1.6,2.6,6.2c1.5-1.9,2.7-3.3,3.7-4.6c2.7,1.6,3.1,3.3,1.4,5.3
		c-1.2,1.3-2.7,2.3-4.4,3.6c4.6-0.1,8.3-2.3,12.4-3.8c1.1,2.1,0.2,3.7-1.1,4.7c-1.8,1.3-3.8,2.5-5.9,3c-5.7,1.4-11.4,1.1-17.4-1.6
		c0.7,2.9,2.1,4.7,4.3,5.6c2.8,1.2,5.8,2.2,8.8,2.8c6.8,1.4,13.6,1.4,20.2-0.9c3.6-1.2,6.8-3.1,9.3-6c0.8-0.9,1.6-2,2-3.2
		c0.7-1.7-0.1-3.4-1.5-4.1c-1.5-0.8-4.1-0.3-5,1c-0.6,0.8-0.5,1.6,0.4,2.1C439.1,50.2,439.7,50.4,440.8,50.9z M407.7,52.8
		c4.4,1.7,11.5,0.3,14.1-3C417.1,50.8,412.2,51.8,407.7,52.8z M415.5,44.1c-1.5,1.4-2.5,2.3-3.9,3.6
		C414.5,46.6,414.5,46.6,415.5,44.1z"/>
	<path fill="#000000" d="M326.4,250.8c-0.9,0.9-1.4,1.5-2,1.8c-1.6,0.9-3.1,0-3-1.8c0-2.5,3-6.5,6.8-5.7c0.8,0.2,1.6,0.6,2.5,0.6
		c1.1,0,2.4,0,3.4-0.6c2-1.2,3.7-2.7,5.6-4.1c-1.7-1.3-3.3-2.5-4.8-3.7c-1.5-1.2-3-1.3-4.8-0.6c-4.1,1.4-7.8-0.8-8.4-5
		c-0.1-0.6,0.1-1.8,0.5-1.9c0.7-0.2,1.7-0.1,2.3,0.4c0.9,0.7,1.5,1.7,2.2,2.6c0.2-2.9,0.3-5.8,0.6-8.6c0.1-1.3,0.4-2.6,2.1-2.8
		c1.4-0.1,2.7,1,2.7,3c0,2-0.4,4-0.8,6c-0.3,1.4-0.8,2.8-1.3,4.7c3.2-0.7,5.3,0.9,7.4,2.6c1.4,1.1,3.2,1.6,4.8,2.3
		c0.9,0.4,1.9,0.7,3.1,1.1c-0.6,0.5-0.8,0.8-1.1,0.9c-3.4,0.8-6.4,2.4-8.9,4.7c-1.5,1.4-3.3,1.1-5.5,0.4c0.2,1.1,0.4,1.8,0.6,2.6
		c0.5,1.9,1.1,3.7,1.5,5.6c0.2,1,0.2,2.1,0,3.2c-0.2,1.2-0.6,2.6-2.2,2.7c-1.7,0.1-2-1.3-2.3-2.6c-0.2-0.6-0.2-1.3-0.2-1.9
		C326.8,254.8,326.6,253,326.4,250.8z M329.3,259.4c1.7-3,0.4-5.5-0.3-8C328,254,328,256.5,329.3,259.4z M328.1,231.3
		c2.3-3.2,2.4-5.4,0.8-7.9C328.6,226.4,328.4,228.9,328.1,231.3z M325.7,235.1c-0.5-1.4-0.7-2.9-2.5-3.8
		C323.3,233.3,324,234.5,325.7,235.1z M323.3,250.1c0.3,0.2,0.6,0.3,0.6,0.3c0.4-0.6,0.8-1.2,1.3-1.8c-0.2-0.1-0.3-0.2-0.5-0.3
		C324.2,248.9,323.7,249.5,323.3,250.1z"/>
	<path fill="#000000" d="M465.5,247.4c-3.2,0.7-5.1-0.7-7.1-2.3c-1.5-1.2-3.3-1.8-5-2.6c-0.9-0.4-1.9-0.7-2.8-1c0-0.2,0-0.4,0-0.7
		c1.9-0.7,3.9-1.3,5.7-2.3c1.9-1,3.4-2.6,5.3-3.5c1-0.5,2.5-0.1,4-0.1c-0.1-0.6-0.3-1.4-0.5-2.1c-0.5-1.6-1-3.3-1.4-4.9
		c-0.2-1.1-0.3-2.3-0.2-3.5c0.2-1.4,0.5-2.9,2.2-3.1c1.9-0.2,2.2,1.5,2.4,2.8c0.3,2.4,0.4,4.9,0.7,7.7c0.7-0.7,1.2-1.4,1.9-1.7
		c0.7-0.3,1.7-0.5,2.3-0.2c0.5,0.2,0.9,1.2,0.9,1.9c-0.1,2.9-3.2,6.5-6.8,5.6c-0.8-0.2-1.7-0.7-2.5-0.6c-1.3,0.1-2.8,0.3-3.9,1
		c-1.7,1-3.2,2.4-5,3.7c1.8,1.4,3.6,2.8,5.4,4.2c1.5,1.1,3,0.6,4.5,0.1c4.5-1.5,8.6,2.1,7.9,6.8c0,0.2-0.2,0.3-0.4,0.6
		c-2.3,0.4-2.9-1.6-4.6-3.4c0,2.2,0.1,3.8,0,5.4c-0.1,1.4-0.3,2.8-0.5,4.1c-0.2,1.1-0.7,2-2.1,1.9c-1.2-0.1-2.1-0.8-2.3-1.9
		c-0.2-1.6-0.2-3.2,0-4.7C464.1,252.3,464.8,250.1,465.5,247.4z M466,223.7c-1.5,2.6-0.5,5.1,0.2,8.2
		C467.3,228.8,467.3,226.3,466,223.7z M465.9,258.4c1-2.3,1.6-4.7,0.5-7.1C465.8,253.6,464.6,255.9,465.9,258.4z M471.6,251.2
		c0.2-0.1,0.4-0.3,0.6-0.4c-0.2-1.6-0.7-2.9-2.8-3.2C470.1,248.7,470.8,250,471.6,251.2z M470.4,233.8c0.2,0.1,0.4,0.2,0.6,0.4
		c0.3-0.6,0.6-1.3,0.9-1.9c-0.2-0.1-0.3-0.2-0.5-0.2C471.1,232.6,470.7,233.2,470.4,233.8z"/>
	<path fill="#000000" d="M447.9,257.3c-1.4,0.8-1.6,1.1-3.3,4.3c-0.5-1.1-0.8-2-1.3-2.8c-0.9-1.7-2-3.3-4.1-3.8c-1.5-0.4-2.8,0-3.7,1.2
		c-0.9,1.2-0.7,2.5,0.2,3.5c0.8,0.9,1.9,1.7,3,2.3c1.2,0.7,2.6,1.1,3.8,1.6c1.9,0.9,3.1,2.3,3.1,4.4c0,2.3-0.9,4.3-3,5.2
		c-1.6,0.7-3.5,0.9-5.2,1c-1.7,0.1-3.5-0.1-5-0.2c0.2-1.4,0.4-3,0.7-5.1c0.8,1.2,1.2,2.1,1.8,2.9c1.1,1.5,2.7,2.1,4.5,1.6
		c0.8-0.3,1.8-1,2-1.7c0.2-0.9-0.2-2.3-0.8-2.8c-1.4-1-3.2-1.7-4.8-2.4c-3-1.4-4.2-3-4.1-5.8c0.1-5.1,5.2-8.1,10.1-6
		C443.9,255.5,445.8,256.4,447.9,257.3z"/>
	<path fill="#000000" d="M404.3,345.4c3.5,0,6.1,2.4,6,5.6c-0.1,3-2.7,5.3-6,5.4c-3.4,0-6.1-2.4-6.2-5.5C398.1,347.7,400.7,345.4,404.3,345.4z"/>
	<path fill="#000000" d="M369.1,421.5c-3.5,0-6.2-2.4-6.2-5.5c0-3.1,2.8-5.6,6.2-5.5c3.3,0,5.9,2.4,6,5.3C375.1,419,372.6,421.4,369.1,421.5z"/>
	<path fill="#000000" d="M421.7,278c3.4-0.1,6.3,2.5,6.3,5.5c0,3-2.9,5.6-6.2,5.6c-3.2,0-5.9-2.4-6.1-5.3C415.6,280.7,418.3,278.1,421.7,278z"/>
	<path fill="#000000" d="M399.3,278.9c3.5,0,6.2,2.3,6.2,5.4c0,3.1-2.8,5.5-6.2,5.5c-3.4-0.1-6.1-2.6-6-5.7C393.3,281.2,395.9,278.9,399.3,278.9z"
		/>
	<path fill="#000000" d="M384.4,278.9c3.6,0,6.1,2.2,6.1,5.4c0,3.1-2.7,5.5-6.1,5.5c-3.3-0.1-5.9-2.4-6-5.4C378.2,281.4,380.9,278.9,384.4,278.9z"
		/>
	<path fill="#000000" d="M435.7,418.9c-3.5,0-6.1-2.4-6.1-5.5c0-3.1,2.8-5.5,6.2-5.5c3.3,0.1,5.9,2.4,5.9,5.4C441.8,416.5,439.3,418.8,435.7,418.9z
		"/>
	<path fill="#000000" d="M383.9,421.5c-3.4,0-6.2-2.5-6.1-5.6c0.1-3,3-5.5,6.3-5.4c3.3,0.1,5.9,2.5,5.9,5.5C390,419.1,387.4,421.5,383.9,421.5z"/>
	<path fill="#000000" d="M400.9,458.7c-0.3,2.1-0.4,3.5-0.8,4.8c-0.8,2.4-2.8,3.1-4.8,1.6c-1-0.8-2-2.1-2.2-3.3c-0.6-3.7,0.2-7.2,1.7-10.6
		c0.1-0.3,0.3-0.6,0.5-0.8c1.3-1.6,2.6-1.6,3.3,0.4C399.6,453.6,400.2,456.5,400.9,458.7z M397.6,452.1c-2.1,2.9-3.1,5.8-2.9,8.3
		c0.1,1.7,0.7,3.1,3,3.2C399.5,459.8,398.7,456.2,397.6,452.1z"/>
	<path fill="#000000" d="M396.9,49.6c-2.8-4.4-3.4-9.1-2.5-14c0.5-2.6,2.9-3.3,5.2-1.8c1.7,1.1,2.4,2.9,2.2,4.7c-0.3,2.9-1,5.8-1.7,8.7
		C399.6,48.4,398.8,49.4,396.9,49.6z M397.1,35.1c-1.7,3.2-1.6,8.3,0.2,11C400.8,40.8,400.8,36.9,397.1,35.1z"/>
	<path fill="#000000" d="M437,243.7c2.2,0.9,4.6,1.8,6.9,2.7c-7.6,0.8-15.2,1.3-22.7,4.7c0.4-1.1,0.7-1.8,1.1-2.6c-0.5-0.5-0.9-1-1.6-1.7
		C426.3,246.1,431.7,245.6,437,243.7z"/>
	<path fill="#000000" d="M435.6,152.2c2.2,0.9,4.7,2,7.2,3c-7.9,0.2-15.6,0.7-23.3,3.8c0.5-1,0.8-1.7,1.4-3c-0.5-0.2-1.3-0.5-2.1-0.8
		C424.8,154.2,430.3,153.8,435.6,152.2z"/>
	<path fill="#000000" d="M354.7,242.9c-0.4,2-0.8,3.3-1,4.6c-0.1,1.2,0.2,2.2,1.2,3.1c1.7,1.6,1.9,3,1,4.5c-0.8,1.3-2.6,1.9-4.2,1.5
		c-1.7-0.4-2.8-1.8-2.8-3.8C349.1,248.7,351.3,245.7,354.7,242.9z"/>
	<path fill="#000000" d="M416.1,412.7c-0.4,1.3-0.6,2.1-0.8,2.9c-0.3,1.8-0.5,3.5,1.4,4.8c1.3,0.9,1.5,2.4,0.9,3.7c-0.6,1.4-1.8,2-3.3,2.1
		c-1.5,0-2.7-0.5-3.4-1.9c-0.3-0.6-0.6-1.4-0.5-2.1C410.7,418.4,412.6,415.3,416.1,412.7z"/>
	<path fill="#000000" d="M437.6,221.4c-0.3,1-0.7,2-0.9,3c-0.3,1.5-0.1,2.8,1.2,4c1.8,1.7,2,2.9,1.1,4.4c-0.8,1.3-2.6,2-4.2,1.6
		c-1.9-0.5-2.8-1.8-2.8-4C432.1,226.4,434.4,223.6,437.6,221.4z"/>
	<path fill="#000000" d="M431.4,343.6c-0.3,1.2-0.6,2-0.7,2.8c-0.3,1.8-0.4,3.5,1.4,4.9c1.4,1.1,1.5,2.7,0.8,4c-0.9,1.4-2.2,2-3.8,1.8
		c-1.7-0.2-2.9-1.1-3.1-2.7c-0.2-1.2,0-2.6,0.3-3.8C426.9,347.7,428.6,345.5,431.4,343.6z"/>
	<path fill="#000000" d="M361.7,98.6c-1.8,0.5-2.7,1.9-3.3,3.4c-1.2,2.8-2.2,5.8-3.2,8.6c-0.2,0.6-0.3,1.2-0.7,2.5c-0.6-1.3-0.9-1.9-1.1-2.5
		c-1.1-2.9-2.1-5.8-3.2-8.6c-0.6-1.5-1.6-2.9-3.4-3.4c4.7-0.7,5.5,3.4,7.4,6.2C356.3,102,357,97.9,361.7,98.6z"/>
	<path fill="#000000" d="M354.5,269.6c-4.1,3.8-5,9.1-6.8,14.6c-0.4-0.9-0.7-1.4-0.9-1.9c-1-2.7-1.7-5.5-2.9-8.1c-0.8-1.7-2-3.1-3.1-4.7
		c4-0.1,4.8,3.7,6.7,6.3C351.5,269.9,351.5,269.9,354.5,269.6z"/>
	<path fill="#000000" d="M376.2,362.1c-1.9-4.9-2.7-10.2-6.8-13.9c2.7-0.3,3.6,0.4,6.6,6.1c2.1-2.3,2.7-6.2,7.1-6.5
		C379.1,352,378,357.1,376.2,362.1z"/>
	<path fill="#000000" d="M344.1,171.9c-0.2-1.2-0.3-1.9-0.4-2.6c3.7,0,7.3,0,11.3,0c-3,3.1-5.5,5.8-8,8.4c-0.4-0.8-0.9-1.7-1.4-2.6
		c1.5-1.6,3-3.4,4.6-5.2C347,168.8,346.8,168.8,344.1,171.9z"/>
	<path fill="#000000" d="M345.2,304.6c-0.4-0.9-0.8-2-1.3-3.1c1.5-1.4,3.2-3,5.1-4.8c-0.6-0.3-1-0.5-1.4-0.7c0-0.1,0-0.2,0-0.3
		c1.8,0.1,3.6,0.3,5.6,0.4C350.3,299.2,347.7,301.9,345.2,304.6z"/>
	<path fill="#000000" d="M419.7,263c1.2,0.1,2.5,0.2,4,0.3c-2.8,2.9-5.4,5.7-8.1,8.5c-0.1-0.5,0-1.2-0.3-1.7c-0.2-0.5-0.8-0.8-1.3-1.3
		c2-1.7,4-3.4,6-5.1C419.9,263.4,419.8,263.2,419.7,263z"/>
	<path fill="#000000" d="M372.2,272.4c2.4,2.9,1.6,5.5,0.3,8c-1.2,2.3-2.9,4.2-6.2,3.6C371.4,281.8,371.3,277.1,372.2,272.4z"/>
	<path fill="#000000" d="M463.6,238.8c2,0,4.1,1.3,4.2,2.7c0.1,1.4-1.6,2.8-3.6,2.8c-1.9,0-3.6-1.3-3.6-2.8C460.7,239.9,461.9,238.8,463.6,238.8z
		 M462,241.9c2.7,1.3,2.9,1.3,4.2-1C463.9,239.8,463.9,239.8,462,241.9z"/>
	<path fill="#000000" d="M331.6,244.3c-1.9,0-4-1.4-4.1-2.9c-0.1-1.4,1.8-2.7,3.7-2.6c1.9,0,3.4,1.4,3.4,3C334.7,243.3,333.4,244.3,331.6,244.3z
		 M328.6,240.7c1.2,2.3,2.5,2.2,3.8,1.7c0.3-0.1,0.7-0.7,0.7-0.9c-0.1-0.4-0.5-1.1-0.8-1.1C331.3,240.3,330.2,240.5,328.6,240.7z"/>
	<path fill="#000000" d="M367.6,278.4c-2.5-2.9-1.6-5.5,2.6-6.7C368.1,273.7,367,275.6,367.6,278.4z"/>
	<path fill="#000000" d="M416.8,262.8c-0.8,0.1-1.6,0.2-2.4,0.2c0,0.3-0.1,0.5,0,0.6c0.5,0.9,0.2,1.5-0.7,1.6c-0.4,0-1.3-0.7-1.3-0.9
		c0.1-0.6,0.5-1.5,1-1.6c1-0.3,2.2-0.2,3.3-0.3C416.7,262.6,416.7,262.7,416.8,262.8z"/>
	<path fill="#000000" d="M371.8,262.2c1.1-4.4-0.8-4.7-4.7-5.3c2.3-0.6,4.1-0.5,5.3,1.4C373.3,259.5,373.2,260.9,371.8,262.2z"/>
	<path fill="#000000" d="M368.1,262.6c-1-1.6-1.3-2.7,0.1-3.4c0.3-0.2,1.2,0,1.4,0.3C370.5,261.1,368.9,261.4,368.1,262.6z"/>
	<path fill="#000000" d="M343.4,298.1c-1.7-0.6-1.9-1.4-1.1-2.2c0.2-0.2,1,0,1.1,0.2C343.5,296.8,343.4,297.5,343.4,298.1z"/>
	<path fill="#000000" d="M346.3,100.6c0.3,0.5,0.5,0.8,0.7,1.1c-0.2,0.1-0.5,0.4-0.7,0.3c-0.2-0.1-0.5-0.4-0.5-0.6
		C345.8,101.3,346,101.1,346.3,100.6z"/>
	<path fill="#000000" d="M369.3,351.4c-0.6,0.2-1,0.5-1,0.4c-0.3-0.2-0.4-0.6-0.6-0.9c0.2-0.1,0.4-0.2,0.5-0.2C368.6,350.8,368.8,351.1,369.3,351.4
		z"/>
</g>
<path fill="#000000" d="M273.602,481.306c-0.578-0.576-1.301-1.03-2.174-1.362c-0.873-0.331-1.885-0.497-3.039-0.497
	c-0.663,0-1.463,0.079-2.4,0.238v-6.077h-1.535v17.711c0.706,0.202,1.402,0.354,2.087,0.454s1.301,0.151,1.849,0.151
	c1.153,0,2.166-0.162,3.039-0.486s1.596-0.764,2.174-1.319c0.576-0.555,1.006-1.211,1.287-1.968s0.42-1.561,0.42-2.411
	s-0.139-1.657-0.42-2.422C274.608,482.554,274.178,481.883,273.602,481.306z M272.391,489.167c-0.852,0.829-2.17,1.243-3.958,1.243
	c-0.39,0-0.805-0.032-1.244-0.097c-0.439-0.065-0.84-0.134-1.2-0.206v-8.845c0.447-0.115,0.887-0.194,1.319-0.237
	c0.433-0.044,0.808-0.065,1.125-0.065c0.894,0,1.668,0.112,2.325,0.335c0.656,0.224,1.199,0.545,1.633,0.963
	c0.432,0.418,0.752,0.919,0.961,1.503s0.314,1.243,0.314,1.979C273.667,487.195,273.241,488.338,272.391,489.167z M247.392,479.446
	c-0.62,0-1.297,0.079-2.033,0.238c-0.735,0.158-1.485,0.433-2.249,0.821l-0.065,1.73c0.548-0.303,0.973-0.52,1.276-0.649
	s0.624-0.237,0.962-0.324c0.338-0.086,0.677-0.158,1.016-0.216s0.667-0.087,0.984-0.087c1.139,0,1.982,0.249,2.53,0.746
	s0.822,1.33,0.822,2.498v0.13c-0.332-0.044-0.732-0.087-1.2-0.13c-0.469-0.043-0.876-0.065-1.222-0.065
	c-1.831,0-3.302,0.311-4.412,0.931c-1.11,0.619-1.665,1.644-1.665,3.07c0,0.707,0.155,1.305,0.465,1.795
	c0.31,0.49,0.713,0.88,1.211,1.168s1.067,0.497,1.708,0.627c0.641,0.13,1.308,0.194,2,0.194c0.807,0,1.6-0.072,2.378-0.216
	c0.779-0.145,1.536-0.368,2.271-0.671v-7.028c0-1.585-0.397-2.742-1.189-3.471C250.189,479.811,248.992,479.446,247.392,479.446z
	 M250.636,489.892c-0.375,0.144-0.858,0.267-1.449,0.367c-0.591,0.102-1.183,0.151-1.773,0.151c-0.505,0-0.984-0.035-1.438-0.108
	c-0.454-0.071-0.84-0.197-1.157-0.378c-0.317-0.18-0.57-0.414-0.757-0.703c-0.188-0.288-0.281-0.663-0.281-1.124
	c0-0.52,0.111-0.934,0.335-1.244c0.224-0.31,0.533-0.551,0.93-0.724c0.396-0.174,0.85-0.296,1.362-0.368
	c0.511-0.072,1.041-0.108,1.589-0.108c0.476,0,0.984,0.029,1.524,0.087c0.541,0.058,0.912,0.108,1.114,0.151V489.892z
	 M258.032,479.868c-0.649,0.122-1.276,0.263-1.881,0.422v11.418h1.535v-10.186c0.202-0.072,0.563-0.147,1.082-0.228
	c0.519-0.079,1.002-0.118,1.449-0.118h1.989v-1.492H260C259.336,479.685,258.681,479.746,258.032,479.868z M-77.92,487.667
	l241.145,0.656l0.663-0.433l-0.632-0.564L-77.92,487.667z M164.994,487.825l1.95,1.95l1.95-1.95l-1.95-1.95L164.994,487.825z
	 M169.559,487.825l3.057,3.057l3.057-3.057l-3.057-3.057L169.559,487.825z M212.359,489.286l-3.395-9.602h-1.514l-3.396,9.602
	l-2.984-9.602h-1.73l3.979,12.023h1.428l3.46-9.645l3.46,9.645h1.427l3.979-12.023h-1.73L212.359,489.286z M238.418,489.589
	c-0.317,0-0.591,0.115-0.822,0.346c-0.231,0.23-0.346,0.505-0.346,0.822c0,0.316,0.115,0.591,0.346,0.821
	c0.23,0.23,0.504,0.346,0.822,0.346c0.317,0,0.591-0.115,0.822-0.346c0.23-0.23,0.346-0.505,0.346-0.821
	c0-0.317-0.116-0.592-0.346-0.822C239.009,489.704,238.735,489.589,238.418,489.589z M193.243,489.286l-3.395-9.602h-1.514
	l-3.396,9.602l-2.984-9.602h-1.73l3.979,12.023h1.428l3.46-9.645l3.46,9.645h1.427l3.979-12.023h-1.73L193.243,489.286z
	 M231.476,489.286l-3.395-9.602h-1.514l-3.396,9.602l-2.984-9.602h-1.73l3.979,12.023h1.428l3.46-9.645l3.46,9.645h1.427
	l3.979-12.023h-1.73L231.476,489.286z M382.732,480.474c-0.426-0.396-0.938-0.667-1.535-0.812c-0.598-0.144-1.271-0.216-2.021-0.216
	c-0.664,0-1.393,0.09-2.184,0.271c-0.793,0.181-1.471,0.4-2.033,0.659c-0.346-0.331-0.818-0.569-1.416-0.714
	c-0.6-0.144-1.273-0.216-2.023-0.216c-0.635,0-1.268,0.058-1.902,0.173l-2.465,0.454v11.635h1.535v-10.38
	c0.447-0.102,0.883-0.188,1.309-0.26c0.424-0.072,0.896-0.108,1.416-0.108c0.605,0,1.125,0.058,1.557,0.173
	c0.434,0.116,0.789,0.321,1.07,0.616c0.281,0.296,0.494,0.711,0.639,1.244s0.217,1.24,0.217,2.119v6.596h1.535v-7.201
	c0-0.663-0.055-1.243-0.162-1.741c-0.109-0.497-0.213-0.861-0.314-1.092c0.086-0.043,0.281-0.119,0.584-0.228
	c0.303-0.107,0.602-0.197,0.898-0.27c0.295-0.072,0.586-0.126,0.875-0.162s0.547-0.055,0.779-0.055c0.59,0,1.102,0.058,1.535,0.173
	c0.432,0.116,0.781,0.317,1.049,0.605c0.266,0.289,0.471,0.703,0.615,1.244c0.145,0.54,0.217,1.251,0.217,2.13v6.596h1.535v-7.201
	c0-0.995-0.111-1.816-0.336-2.466C383.482,481.393,383.158,480.87,382.732,480.474z M280.1,474.581
	c-0.785,0.648-1.18,1.729-1.18,3.243v1.86h-2.551v1.492h2.551v10.531h1.537v-10.531h4.973v-1.492h-4.973v-1.471
	c0-0.635,0.045-1.149,0.141-1.546c0.094-0.396,0.24-0.707,0.443-0.931c0.201-0.223,0.475-0.385,0.82-0.486
	c0.346-0.101,0.779-0.151,1.299-0.151h2.422v-1.492h-2.271C281.956,473.607,280.885,473.932,280.1,474.581z M398.273,487.825
	l3.057,3.057l3.057-3.057l-3.057-3.057L398.273,487.825z M343.322,482.322c0.389-0.418,0.854-0.749,1.395-0.994
	s1.135-0.368,1.783-0.368c0.736,0,1.373,0.076,1.914,0.228s1.121,0.414,1.74,0.789l0.715-1.405c-0.707-0.39-1.393-0.674-2.055-0.854
	c-0.664-0.181-1.436-0.271-2.314-0.271c-0.85,0-1.639,0.155-2.367,0.465c-0.729,0.311-1.367,0.746-1.914,1.309
	c-0.549,0.563-0.98,1.222-1.297,1.979c-0.317,0.757-0.476,1.59-0.476,2.498s0.158,1.74,0.476,2.497
	c0.316,0.757,0.748,1.413,1.297,1.969c0.547,0.555,1.186,0.987,1.914,1.297c0.729,0.311,1.518,0.465,2.367,0.465
	c0.879,0,1.65-0.09,2.314-0.27c0.662-0.181,1.348-0.466,2.055-0.854l-0.715-1.406c-0.619,0.375-1.199,0.639-1.74,0.79
	s-1.178,0.227-1.914,0.227c-0.648,0-1.242-0.119-1.783-0.356c-0.541-0.238-1.006-0.565-1.395-0.984
	c-0.391-0.418-0.693-0.915-0.908-1.492c-0.217-0.576-0.324-1.203-0.324-1.881s0.107-1.305,0.324-1.882
	C342.628,483.238,342.931,482.741,343.322,482.322z M404.387,487.825l1.949,1.95l1.951-1.95l-1.951-1.95L404.387,487.825z
	 M410.701,487.326l-0.664,0.433l0.633,0.564l241.176-0.341L410.701,487.326z M362.611,481.295c-0.549-0.569-1.193-1.02-1.936-1.352
	c-0.742-0.331-1.547-0.497-2.412-0.497c-0.863,0-1.668,0.166-2.41,0.497c-0.742,0.332-1.389,0.782-1.936,1.352
	c-0.549,0.57-0.977,1.229-1.287,1.979c-0.311,0.749-0.465,1.557-0.465,2.422s0.154,1.672,0.465,2.422s0.738,1.409,1.287,1.979
	c0.547,0.569,1.193,1.017,1.936,1.341s1.547,0.486,2.41,0.486c0.865,0,1.67-0.162,2.412-0.486s1.387-0.771,1.936-1.341
	c0.547-0.569,0.977-1.229,1.287-1.979c0.309-0.75,0.465-1.557,0.465-2.422s-0.156-1.673-0.465-2.422
	C363.587,482.524,363.158,481.865,362.611,481.295z M362.394,487.523c-0.217,0.569-0.52,1.067-0.908,1.492
	c-0.389,0.426-0.857,0.765-1.406,1.017c-0.547,0.252-1.152,0.378-1.816,0.378c-0.662,0-1.268-0.126-1.816-0.378
	c-0.547-0.252-1.016-0.591-1.404-1.017c-0.391-0.425-0.693-0.923-0.908-1.492c-0.217-0.569-0.324-1.179-0.324-1.827
	c0-0.649,0.107-1.262,0.324-1.839c0.215-0.576,0.518-1.077,0.908-1.503c0.389-0.425,0.857-0.764,1.404-1.016
	c0.549-0.252,1.154-0.379,1.816-0.379c0.664,0,1.27,0.127,1.816,0.379c0.549,0.252,1.018,0.591,1.406,1.016
	c0.389,0.426,0.691,0.927,0.908,1.503c0.217,0.577,0.324,1.189,0.324,1.839C362.718,486.345,362.611,486.954,362.394,487.523z
	 M296.221,481.295c-0.547-0.569-1.191-1.02-1.936-1.352c-0.742-0.331-1.545-0.497-2.41-0.497s-1.67,0.166-2.412,0.497
	c-0.742,0.332-1.387,0.782-1.936,1.352c-0.547,0.57-0.977,1.229-1.285,1.979c-0.311,0.749-0.465,1.557-0.465,2.422
	s0.154,1.672,0.465,2.422c0.309,0.75,0.738,1.409,1.285,1.979c0.549,0.569,1.193,1.017,1.936,1.341s1.547,0.486,2.412,0.486
	s1.668-0.162,2.41-0.486c0.744-0.324,1.389-0.771,1.936-1.341c0.549-0.569,0.977-1.229,1.287-1.979s0.465-1.557,0.465-2.422
	s-0.154-1.673-0.465-2.422C297.198,482.524,296.77,481.865,296.221,481.295z M296.006,487.523c-0.217,0.569-0.52,1.067-0.908,1.492
	c-0.391,0.426-0.859,0.765-1.406,1.017c-0.549,0.252-1.154,0.378-1.816,0.378c-0.664,0-1.27-0.126-1.816-0.378
	c-0.549-0.252-1.018-0.591-1.406-1.017c-0.389-0.425-0.691-0.923-0.908-1.492s-0.324-1.179-0.324-1.827
	c0-0.649,0.107-1.262,0.324-1.839c0.217-0.576,0.52-1.077,0.908-1.503c0.389-0.425,0.857-0.764,1.406-1.016
	c0.547-0.252,1.152-0.379,1.816-0.379c0.662,0,1.268,0.127,1.816,0.379c0.547,0.252,1.016,0.591,1.406,1.016
	c0.389,0.426,0.691,0.927,0.908,1.503c0.215,0.577,0.324,1.189,0.324,1.839C296.331,486.345,296.221,486.954,296.006,487.523z
	 M309.381,480.463c-0.455-0.39-0.996-0.656-1.623-0.801c-0.627-0.144-1.309-0.216-2.043-0.216c-0.707,0-1.465,0.047-2.271,0.141
	s-1.701,0.234-2.682,0.422v11.699h1.535v-10.402c1.184-0.23,2.293-0.346,3.33-0.346c0.592,0,1.111,0.062,1.559,0.184
	c0.445,0.123,0.818,0.332,1.113,0.628c0.295,0.295,0.525,0.713,0.691,1.254s0.25,1.251,0.25,2.13v6.553h1.535v-7.201
	c0-0.995-0.119-1.82-0.357-2.477C310.18,481.375,309.834,480.852,309.381,480.463z M318.516,490.054
	c-0.346-0.108-0.619-0.277-0.82-0.509c-0.203-0.23-0.35-0.547-0.443-0.951c-0.096-0.403-0.141-0.922-0.141-1.557v-5.86h4.973v-1.492
	h-4.973v-4.347h-1.537v4.347h-2.551v1.492h2.551v6.466c0,0.764,0.109,1.405,0.326,1.925c0.215,0.519,0.525,0.937,0.93,1.254
	c0.402,0.317,0.867,0.544,1.395,0.682c0.525,0.137,1.105,0.205,1.74,0.205h2.271v-1.492h-2.422
	C319.295,490.216,318.862,490.162,318.516,490.054z M337.784,489.589c-0.316,0-0.59,0.115-0.82,0.346s-0.346,0.505-0.346,0.822
	c0,0.316,0.115,0.591,0.346,0.821s0.504,0.346,0.82,0.346c0.318,0,0.592-0.115,0.822-0.346s0.346-0.505,0.346-0.821
	c0-0.317-0.115-0.592-0.346-0.822S338.102,489.589,337.784,489.589z M333.178,486.106c-0.346-0.303-0.785-0.565-1.318-0.789
	c-0.533-0.223-1.182-0.422-1.947-0.595l-0.799-0.173c-1.053-0.216-1.781-0.461-2.184-0.735c-0.404-0.273-0.607-0.678-0.607-1.211
	c0-0.504,0.238-0.904,0.715-1.2c0.475-0.295,1.174-0.443,2.098-0.443c0.793,0,1.477,0.076,2.055,0.228
	c0.576,0.151,1.217,0.421,1.924,0.811l0.691-1.405c-1.412-0.765-2.969-1.146-4.67-1.146c-0.635,0-1.223,0.076-1.764,0.228
	c-0.539,0.151-1.008,0.364-1.404,0.638s-0.711,0.605-0.941,0.994c-0.23,0.39-0.346,0.815-0.346,1.276
	c0,0.462,0.072,0.88,0.217,1.254c0.143,0.375,0.381,0.707,0.713,0.995s0.758,0.537,1.275,0.746c0.52,0.209,1.146,0.4,1.883,0.573
	l0.908,0.194c1.008,0.217,1.729,0.49,2.162,0.822c0.432,0.331,0.648,0.771,0.648,1.318c0,0.39-0.086,0.707-0.26,0.952
	c-0.172,0.245-0.414,0.436-0.725,0.573c-0.311,0.137-0.678,0.237-1.102,0.303c-0.426,0.064-0.877,0.097-1.352,0.097
	c-0.592,0-1.223-0.09-1.893-0.271c-0.67-0.18-1.352-0.479-2.045-0.897l-0.734,1.471c0.779,0.433,1.539,0.742,2.281,0.93
	s1.539,0.281,2.391,0.281c0.748,0,1.434-0.072,2.053-0.216c0.621-0.145,1.158-0.36,1.611-0.648c0.455-0.289,0.805-0.649,1.049-1.082
	c0.246-0.433,0.369-0.93,0.369-1.492c0-0.476-0.072-0.915-0.217-1.318C333.77,486.763,333.526,486.41,333.178,486.106z"/>
</svg>

