<?xml version="1.0" encoding="utf-8"?>
<!-- Generator: Adobe Illustrator 21.0.0, SVG Export Plug-In . SVG Version: 6.00 Build 0)  -->
<svg version="1.1" id="Layer_1" xmlns="http://www.w3.org/2000/svg" xmlns:xlink="http://www.w3.org/1999/xlink" x="0px" y="0px"
	 viewBox="0 0 800 500" style="enable-background:new 0 0 800 500;" xml:space="preserve">
<g>
	<path fill="#000000" d="M356.1,187c-3.1-2.7-5.9-5-8.6-7.5c-15.5-14.2-18.6-30.6-11.2-50.4c5.9-16,17.4-27.6,31.6-36.7c12.4-7.9,26-12.5,40.9-12.3
		c17.9,0.3,32.3,8,42.7,22.4c10.2,14.2,7.2,35.4-6,45.5c-13.4,10.3-35.1,10.6-48.3,0.6c-10.5-8-11.9-22.2-2.9-31
		c5-4.9,12.8-6.2,19.1-3.2c6.1,2.9,9.8,9.8,9.1,16.8c-0.1,1.2-0.2,2.3-0.3,3.5c5.7-1.1,9.4-6.4,8.5-11.7c-1.1-6-4.8-10-10-12.8
		c-11.7-6.3-32.6-2.6-41.5,7.3c-7.7,8.5-8,20-0.9,29.7c6.3,8.8,15.2,13.2,25.5,15.4c13.9,2.9,27.9,2.7,41.9,1.2
		c10-1.1,20-2.8,29.9-4.3c0.9-0.1,1.9-0.2,2.8-0.2c8.5,0,13.1,6.4,10.1,14.4c-1.2,3.2-2.9,6.3-4.4,9.4c-0.4,0.9-0.9,1.8-1.6,3.1
		c5.8-0.1,10.5-1.9,14.1-6c4.8-5.5,5.2-11.9,3-18.4c-1-2.9-2.6-5.5-3.9-8.3c-1.7-3.6-3.5-7.2-4.8-11c-1.3-3.7-0.2-7.3,1.9-10.6
		c2.9-4.5,6.9-7.8,11.4-10.5c4.8-2.9,9.7-5.5,14.8-7.9c4.3-2.1,7.2-0.8,8.3,4c2.1,9,3.5,18.1,5.8,27c2.5,9.9,5.5,19.7,8.5,29.5
		c0.6,2.1,1.9,4,3.1,5.8c1.3,2,3.1,2,4.6,0.1c1.8-2.2,1.9-4.9,1.1-7.4c-1.8-5.7-3.9-11.3-5.9-16.9c-1.3-3.5-2.9-6.8-3.9-10.3
		c-1.1-3.7-0.6-7.4,1.6-10.7c6.2-9.1,14.4-15.4,25.2-17.8c7.5-1.7,12.6,1.5,13.9,9c1.1,6.3,1.7,12.8,2,19.3
		c0.4,8.3,0.1,16.6,0.6,24.8c0.2,3.8,1.1,7.7,2.4,11.3c1.4,4.1,3.9,4.6,7.3,1.9c4-3.1,6.5-6.9,6.4-12.3c-0.4-13.3-1.5-26.6-4-39.7
		c-0.6-3.2,0.2-5.2,2.8-6.8c5.1-3,10.1-6.2,15.2-9.1c6.8-3.9,13.7-7.8,20.6-11.6c5-2.8,8.4-1.2,9.3,4.5c1,6.9,1.6,13.8,2.4,20.7
		c0.4,3.8,1.1,7.5,1.3,11.3c0.1,1.8-0.1,3.9-1,5.3c-2.7,4.5-5.9,8.8-8.7,13.3c-0.6,1-0.9,2.3-0.9,3.5c0.8,13.5-1.3,26.3-9,37.7
		c-8.5,12.5-24.9,19.2-38.6,15.6c-3.3-0.9-6.4-2.6-9.5-4.1c-4.2-2-8.2-4.3-12.5-6.2c-3-1.4-4.4-1-6.4,1.6c-7.2,9.3-16.5,10.1-26.8,7
		c-4.7-1.4-9.3-3-13.9-4.5c-3.2-1-6.1-0.5-9,1.3c-3.4,2.1-7,4-10.6,5.8c-7.9,3.9-15.8,3.7-23.7-0.1c-0.7-0.3-1.5-0.6-2.1-1.1
		c-7.3-5-15.5-5.7-24-5.4c-13.3,0.6-26.7,0.7-39.9,1.6c-7.8,0.5-15.4,2.2-23.1,3.5c-12.9,2.1-25.9,3.9-39,3.8
		c-9.7-0.1-19.4-1-28.4-5c-4-1.8-7.7-4.3-11.2-7c-3.9-3-7.8-4.1-12.5-2.6c-4.9,1.6-9.8,3.4-14.9,4.6c-11.8,2.7-23.4,2.1-34.1-4.1
		c-2.6-1.5-5-3.5-7.4-5.5c-1.6-1.3-3-2.8-4.4-4.3c-1.9-1.8-3.9-2-6.2-0.6c-8.6,5-17.9,8.4-27.8,9.2c-4.7,0.4-9.5,0.4-14.1-0.4
		c-9.9-1.8-15.7-8.6-18.8-17.7c-3.4-9.9-3.6-20.1-3-30.4c0.2-3.1,0.7-6.3,1.6-9.3c1.9-6.4,7.2-7.7,12.2-3.4
		c13,11.1,34.7,10.5,46.3-1.3c1.2-1.2,2.3-2.6,3.1-4.1c1.2-2.1,0.7-3.5-1.7-3.7c-3.3-0.3-6.6-0.3-9.9-0.1c-4.4,0.3-8.8,1.1-13.2,1.2
		c-10.2,0.3-17.8-4.2-22.5-13.2c-4.6-8.7-5.4-18.2-5-27.8c0.1-2.9,1.4-5.2,4.4-6.1c2.8-0.9,5.2,0.3,7,2.4c1.9,2.3,3.5,4.9,5.3,7.3
		c2.1,2.8,4,5.7,6.3,8.3c4.5,4.8,10.3,4.6,16.3,4c6.5-0.6,13.1-1.6,19.5-1.2c11.3,0.7,18.5,7.3,21.8,18c2.5,7.8,2.6,16,3.3,24.1
		c0.5,6.3,1.4,12.7,2.3,19c0.2,1.5,0.8,2.9,1.4,4.2c2.1,4.8,5.8,7.1,11,7.1c5.4,0,10.5-1.1,15.4-3.2c2-0.9,3-2.1,2.1-4.4
		c-1.9-5.1-3.6-10.2-5.4-15.4c-0.6-1.6-1.1-3.3-1.4-5c-0.6-3.6,0.6-6.7,3.7-8.6c7.8-4.8,15.6-9.5,23.5-14.1c0.8-0.4,2.1,0,3.1,0.1
		c4.1,0.5,6.1,2.9,6.7,6.9c1.1,7.3,2.3,14.6,3.3,21.9c0.9,6.4,1.4,12.8,2.5,19.2c0.7,4.6,3.6,7.9,8.2,8.8c4.9,1,9.9,1.3,14.9,1.7
		C353.2,187.9,354.5,187.3,356.1,187z M440.2,104.6c-0.1-0.2-0.3-0.4-0.4-0.5c-3.5-4.5-8.2-7.5-13.4-9.7c-0.8-0.5-1.6-1.2-2.5-1.6
		c-11.7-4.5-23.5-3.5-35.1,0.4c-12,4-22.3,10.9-31,20.1c-7.6,8.1-13.2,17.2-14.9,28.4c-1.6,10.7,0.5,20.3,8.5,27.9
		c4.6,4.4,9.5,8.4,14.6,12.3c2.2,1.7,3.5,3.6,3.9,6.1c0.2,1.2-0.4,3.3-1.2,3.7c-4.7,2.1-9.4,4.6-14.4,5.5c-4.6,0.9-9.6,0.4-14.2-0.4
		c-13.7-2.2-19.5-8.5-21.6-21.6c-0.8-4.9-1-9.8-1.6-14.7c-0.6-5.8-1.2-11.7-1.8-17.5c0.9-1.4,1-2.9-0.3-4c-1.5-1.3-2.6,0-3.7,0.8
		c-4.3,3.2-8.5,6.5-12.8,9.8c-2.4,1.8-2.5,2.7-0.7,5.3c1.2,3.7,2.6,7.3,3.6,11c0.9,3.2,2.1,6.4,2,9.6c-0.1,4.4-3.1,7.5-6.9,9.5
		c-6.8,3.5-14.1,5.2-21.6,4.8c-3.6-0.2-7.3-1.3-10.5-2.9c-6.2-3.1-8.8-9-10.5-15.3c-2.6-9.8-2.3-19.9-3.4-29.9
		c-0.6-5.2-1.6-10.4-3-15.4c-1.2-4.2-4.5-6.9-8.7-8.3c-6.3-2-12.6-0.6-18.9,0.2c-6.5,0.8-13,1.4-19.3-1.2c-1.5-0.6-3-1.3-4.5-1.9
		l0,0c-0.2-0.2-0.3-0.3-0.5-0.5c-0.1-0.2-0.3-0.3-0.4-0.5c-0.1-0.2-0.3-0.3-0.4-0.5c-1.2-1.5-2.3-3-3.6-4.3
		c-1.1-1.2-2.5-1.3-3.5-0.2c-0.5,0.6-0.9,2.3-0.5,2.8c2.7,3.3,5.2,6.7,8.4,9.5c3.2,2.8,7.3,4,11.7,2.6c1.1-0.1,2.2-0.1,3.3-0.2
		c6.2-0.6,12.3-1.8,18.5-0.7c6,1.1,11.2,5.7,10.7,12.3c-0.4,4.6-2.6,8.2-5.6,11.4c-8.8,9.3-20.1,12.9-32.6,13.1
		c-6.4,0.1-12.7-1.2-18.5-4.2c-2.3-1.1-4.5-2.4-7-3.7c-0.2,2.5-0.4,4.7-0.4,6.9c0.1,4.1,0.2,8.2,0.4,12.3c0.3,5.3,1.4,10.4,4.1,15.1
		c2.5,4.3,6.3,7,11.2,7.4c11.5,1,22.2-1.6,32.2-7.3c4.4-2.5,9.1-4.5,14.1-2c2.9,1.5,5.5,3.7,7.8,6c9.1,9.2,20.2,11.4,32.4,9
		c4.1-0.8,8-2.5,12-3.6c3.8-1,7.6-2.2,11.5-2.5c4.9-0.4,9.1,1.8,13,4.7c3.2,2.3,6.3,4.9,9.8,6.4c7.5,3.3,15.6,4.2,23.7,4.3
		c5.6,0.1,11.3-0.3,16.9-0.9c7.7-0.8,15.4-1.9,23.1-3c7.7-1.1,15.3-2.6,23-3.4c6.9-0.7,14-0.8,21-1c8.7-0.3,17.5-0.5,26.2-0.5
		c5.6,0,11.1,0.8,16.1,3.7c2.6,1.5,5.3,2.8,8,4c3.1,1.4,6.5,2.5,9.8,1.2c4.3-1.6,8.7-3.4,12.5-5.8c6.3-4,12.7-5.3,19.8-3.1
		c3.8,1.2,7.4,2.6,11.2,3.8c9.4,3,13.5,2.4,18.4-3.7c3.6-4.5,8.3-6.7,14-5c4,1.2,7.8,3,11.5,4.7c4.1,1.9,8,4.8,12.3,5.9
		c9.6,2.6,21.6-1.6,28.1-11.1c7-10.2,8.5-21.6,7.3-33.6c-0.2-2-0.1-3.8,1.1-5.6c3-4.2,5.8-8.4,8.6-12.7c0.6-0.9,1-2.2,0.9-3.3
		c-0.3-3.9-0.8-7.8-1.3-11.7c-0.4-3.9-0.9-7.8-1.3-11.7c-0.1-1.2-0.6-1.5-1.6-1c-1.2,0.2-2.7,0-3.6,0.6c-6,3.6-11.9,7.4-17.8,11.2
		c-0.7,0.4-1.1,1.2-1.7,1.9c-0.8,0.5-1.6,1-2.4,1.4c-1.5,0.7-1.8,1.5-1.6,3.3c1,7.4,1.8,14.9,2.5,22.4c0.3,3,0.1,6.1,0.6,9.2
		c1.6,10.4-1.4,18.9-9.6,25.5c-3.5,2.8-7.3,4.6-12,3.7c-6-1-9.4-5.1-11.1-10.4c-1.5-4.5-2.5-9.3-2.8-14c-0.7-11.1-0.7-22.3-1.1-33.5
		c-0.1-2.4-0.6-4.8-0.7-7.2c-0.1-3.3-2.7-3.6-5.3-1.7l0,0c-0.4,0.1-0.7,0.3-1.1,0.4c-0.6,0.3-1.3,0.6-1.9,0.9
		c-5.2,2.3-9.5,5.8-13.1,10.2c-0.9,1.2-1.6,2.4-0.5,3.8c0.3,1.2,0.4,2.5,0.9,3.6c2.5,6.5,5.2,12.8,7.5,19.3c1.8,5.1,2.8,10.3,1,15.7
		c-2.2,6.4-7.3,10.2-13.9,9.9c-5.1-0.2-8.1-3.7-10.3-7.7c-2.4-4.3-4.6-8.9-5.8-13.6c-3.6-13.6-6.6-27.4-9.8-41.2
		c1.5-0.9,2.3-2,1.4-3.7c-0.9-1.7-2.3-1.4-3.7-0.9c-6.5,2.2-12,6-16.1,11.5c-0.6,0.7-0.6,1.9-0.9,2.8c0.3,1.7,0.3,3.5,1,5
		c1,2.4,2.5,4.6,3.7,6.8c4.2,7.5,6.7,15.3,5,23.9c-3.3,16.4-19.1,24.2-33.6,21.2c-3.8-0.8-5.2-2.6-5-6.5c0.1-1.3,0.4-2.7,0.9-3.9
		c2-4.4,4.1-8.7,6.2-13c0.4-0.7,0.6-1.5,1.1-2.6c-1.6,0-2.9-0.2-4.1,0c-12.4,2.9-25.1,4.1-37.8,4.9c-11.4,0.7-23,0.6-34.3-1.7
		c-11.8-2.4-22.5-6.8-30.6-16.3c-6.1-7.2-9.7-15.1-9.5-24.7c0.2-10.2,4.6-18.3,12.5-24.3c10.7-8.3,23.1-10.8,36.5-9.5
		c8.9,0.9,16.3,4.6,22.2,11.2c4.2,4.7,6.3,10.5,6,16.7c-0.5,9.3-7,16.6-16.1,18.7c-3.5,0.8-6.8,0.4-9.6-2.5
		c-3.1-3.2-2.9-6.8-2.3-10.6c0.5-3.2-0.5-6.3-2.8-7.8c-2.2-1.5-5.8-1.3-8.2,0.4c-2.9,2.1-4.3,7.6-2.8,11.2c1.3,3.2,3.7,5.5,6.7,7
		c6.7,3.4,13.8,4.8,21.3,3.3c5.6-1.1,10.8-3.1,14.8-7.3c5.7-6,6.7-13.5,5.5-21.2c-0.6-3.5-2.8-6.7-4.4-10c-0.2-0.5-1-0.8-1.6-1.2
		l0,0c-0.2-0.3-0.4-0.6-0.6-0.9l0,0C440.5,105,440.3,104.8,440.2,104.6L440.2,104.6z"/>
	<path fill="#000000" d="M442.7,374.5c-6.7-3.9-12.6-8.2-17.6-13.7c-8-8.8-11.1-19.2-10.2-31c1.2-15.6,8.2-28.4,18.6-39.7
		c12.2-13.3,26.9-22.3,44.8-25.6c20.4-3.7,37.6,2.4,51.3,17.8c12.1,13.6,11.9,42.6-12.5,52.6c-11.5,4.7-22.9,4.7-34.2-0.1
		c-9.2-4-14.1-11.6-13.7-20.7c0.4-8,5.8-15.1,13.1-17c7.8-2,15.7,1.1,19.8,8.4c1.1,2,1.3,4.5,1.7,6.7c0.2,1.4,0,2.8,0,4.2
		c5.1-1.1,8.1-6.5,6.8-11.6c-1.9-7.3-7.2-11.4-14.1-12.9c-12.8-2.9-24.6,0-34.5,8.4c-10.7,9.2-10.6,23.7-0.6,34.2
		c7.5,7.8,16.8,11.1,27.2,12.2c15.9,1.7,31.5-0.4,47-3.6c6.3-1.3,12.6-3,18.8-4.4c2-0.5,4-0.9,6-1.1c6.7-0.8,11.8,3.4,11.8,10.1
		c0,4.3-0.7,8.6-1.8,12.8c-1.8,6.8-4.3,13.4-8.4,19.2c-3.8,5.3-9.1,8.1-15.6,8.8c-15.3,1.7-30.6,3.1-45.8,5.3
		c-9.2,1.4-18.1,4-27.2,6.2c-13.2,3.2-26.4,6.1-40.1,6.7c-8.5,0.4-17.1-0.1-25.3-2.8c-3-1-5.7-2.8-8.5-4.4c-1.1-0.7-2.1-1.6-3.1-2.5
		c-2.8-2.6-5.9-3.1-9.3-1.2c-6.6,3.6-13.9,5.5-21.2,7.2c-11,2.5-21.8,2.7-32.1-2.7c-3.6-1.9-6.7-4.7-9.7-7.4c-5.2-4.6-6-5-11.4-0.5
		c-8.1,6.8-17.6,10-27.9,11.3c-16.3,2-26.2-3.9-31.5-19.4c-3.8-11.2-5.1-22.7-3.8-34.5c0.1-0.9,0.3-1.7,0.6-2.5
		c1.6-5.3,6.5-7.1,11-3.8c4.8,3.6,10.2,5.8,16,6.5c10.2,1.2,19.7-0.3,27.7-7.3c3.3-3,5.7-7.2,5.9-10.7c-3.1,0-6.3-0.2-9.3,0.1
		c-4.3,0.4-8.6,1.1-12.9,1.8c-15,2.2-26.7-5.2-30.8-19.7c-2.4-8.2-2.8-16.6-0.9-25c0.2-1.1,0.7-2.3,1.4-3.2c2-3.2,6-3.8,8.7-1.1
		c1.6,1.7,2.8,3.8,4,5.8c2.5,4,4.8,8.2,7.4,12.1c3.7,5.5,8.8,7.2,15.2,5.8c5.5-1.2,11.1-2.4,16.7-3.2c13.9-1.9,25.8,5.6,29.3,19.3
		c1.9,7.4,2.5,15.2,3.4,22.9c0.9,7.5,3.2,14.6,5.9,21.6c1.5,3.7,4.4,5.7,8.5,5.6c6.4-0.2,12.4-1.9,18.1-4.9c2-1,2.7-2.4,1.7-4.6
		c-1.6-3.5-3-7.1-4.6-10.6c-0.7-1.5-1.6-2.9-2.2-4.4c-2.6-6.1-1.7-10.9,3.4-15c5.3-4.3,10.9-8.4,16.6-12.2
		c6.6-4.4,12.9-2.3,15.1,5.2c2,7,3,14.3,4.4,21.5c1.1,5.6,2.1,11.3,3.5,16.9c1.3,5.3,4.7,8.4,10.1,9.3c5.9,0.9,11.8,1.3,17.6-0.2
		C441.5,375,441.9,374.7,442.7,374.5z M522.5,289.9c-0.1-0.2-0.3-0.4-0.4-0.6l0,0c-0.2-0.3-0.4-0.6-0.7-0.9c-3-2.5-5.9-4.9-8.9-7.4
		c-0.3-0.2-0.6-0.4-0.9-0.6l0,0c-0.2-0.1-0.4-0.2-0.6-0.3l-0.1,0.1c-0.5-0.6-1-1.3-1.6-1.7c-10.5-6-21.7-6.4-33.1-3.5
		c-10.6,2.7-19.9,7.7-28.2,14.8c-12,10.4-21.2,22.5-23.2,39c-1.5,12.3,2.5,22.2,12.1,29.7c4.2,3.3,8.8,6,13.2,9.1
		c4.9,3.4,5.7,9.1,1.4,12.8c-2.2,1.9-5.1,3.3-7.8,4.1c-6.2,2-12.5,1.8-18.9,1c-10.3-1.2-18-6-20.7-16.5c-1.9-7.5-3.1-15.2-4.6-22.8
		c-0.7-3.7-1.3-7.4-2-11.1c-0.3-1.3-0.1-3-0.9-3.8c-1.3-1.3-2.5,0.1-3.6,1c-4.3,3.3-8.7,6.5-12.9,9.9c-2.3,1.8-2.1,3.8,0.5,5.3
		c0.2,0.5,0.3,1,0.6,1.5c1.9,4.5,4.1,9,5.8,13.7c1.5,4.1,1.4,8.3-2,11.4c-2.4,2.2-5.3,4.4-8.4,5.5c-5.2,1.9-10.6,3.5-16.1,4.2
		c-7.6,1-14.6-1.2-18.5-8.2c-2.7-4.9-4.6-10.3-6.2-15.8c-1.4-4.8-1.8-9.8-2.6-14.8c-0.9-5.7-1.2-11.4-2.5-17
		c-1.8-8.3-8.3-14.5-17.5-13.6c-4.9,0.5-9.7,1.8-14.6,2.5c-4.5,0.6-9.1,1.4-13.5,0.9c-6.2-0.6-10.6-4.9-14.4-9.6
		c-1.6-2-3-4.2-4.5-6.3c-0.1,0.1-0.3,0.1-0.4,0.2c0.2,2.2,0.4,4.4,0.6,6.5c-0.2,1-1,2.3-0.6,2.9c2.9,4.2,5.8,8.5,10.5,11
		c3.1,1.6,6.3,2.5,9.8,1.2c2.7-0.4,5.4-0.7,8.1-1.1c5.7-0.7,11.3-1.8,17.1-0.7c6.7,1.3,10.7,6.5,9.3,12.4
		c-1.7,7.2-5.7,13.1-11.7,17.3c-14.6,10.2-30.3,10.7-46.4,3.7c-1.1-0.5-2.1-1-3.6-1.8c0.3,4.2,0.2,7.9,0.8,11.5
		c0.9,5.6,1.6,11.2,3.4,16.5c2.4,7.4,7.2,13.2,17.2,12.3c1.9-0.2,3.8-0.2,5.6-0.5c6.7-1.2,13.2-2.9,18.7-7.3
		c1.8-1.5,3.7-2.9,5.7-4.2c5.9-3.8,11.8-3.7,17.1,0.4c1.9,1.5,3.6,3,5.3,4.7c4.8,4.9,10.8,7,17.4,7.2c11.5,0.4,22.5-2.5,32.8-7.6
		c6.8-3.4,13.2-3,19.1,1.9c3.3,2.7,6.5,5.3,10.9,6.3c8.9,2,18,2.5,26.9,1.2c10.2-1.4,20.2-3.5,30.3-5.6c6.9-1.4,13.7-3.8,20.6-5
		c8.2-1.5,16.6-2.4,24.9-3.4c9.8-1.2,19.6-2.3,29.4-3.5c5.5-0.7,9.2-3.8,11.3-8.8c0.5-1.2,1.1-2.4,1.6-3.7
		c2.1-5.4,4.4-10.8,4.4-16.8c0-2-0.5-2.6-2.6-2.1c-8.9,2.1-17.9,4.2-26.8,6.1c-10.6,2.2-21.4,3.5-32.2,3.5c-4.9,0-9.9-0.4-14.8-0.9
		c-12.5-1.3-23.4-5.9-32-15.3c-7-7.8-10.7-16.7-9.5-27.3c1-9.2,5.5-16.6,12.6-21.9c11.8-8.8,25.2-12.5,39.8-9.6
		c11.1,2.2,19.4,8.4,23,19.7c3.3,10.7-3.3,22.3-14.2,24.9c-5.4,1.3-9.4-0.8-10.9-6.2c-0.5-2-0.5-4.2-0.5-6.3
		c-0.1-4.5-2.8-7.6-6.9-7.7c-4.6-0.1-8.1,3.1-8.3,7.5c-0.2,5.9,2.9,10.3,8.9,12.4c5.9,2.1,11.9,3.1,18.1,1.8
		c6.4-1.3,12.5-3.8,16.7-9.1c5.9-7.4,6-15.8,3-24.4c-0.4-1.3-1.6-2.3-2.5-3.5c-0.1-0.1-0.1-0.2-0.1-0.3
		C522.9,290.5,522.7,290.2,522.5,289.9L522.5,289.9z"/>
	<path fill="#000000" d="M251.2,228.6c13.4-9.7,32.1-3.2,36.5,12.7c0,0.6-0.1,1.1,0,1.7c1.2,6.6-0.3,12.7-4.4,18c-9.2,11.7-25.5,11.4-34.7,1.8
		c-8-8.4-7.9-22.1-0.4-30.9c0.4-0.5,0.7-1.2,1-1.8c0,0,0,0.1,0,0.1c0.2-0.2,0.3-0.3,0.5-0.5c0,0,0,0,0,0c0.3-0.2,0.6-0.4,0.9-0.6
		c0,0-0.1,0.1-0.1,0.1C250.8,229,251,228.8,251.2,228.6z M272.1,236.4c0-4.5-3.7-8.1-8.2-8c-4.4,0.1-7.8,3.7-7.8,8.1
		c0,4.4,3.6,7.9,8,8C268.6,244.6,272.1,240.9,272.1,236.4z"/>
	<path fill="#000000" d="M386.5,420.1C386.5,420.1,386.5,420,386.5,420.1c0.9,0.2,1.8,0.6,2.6,0.9c0,0,0-0.1,0-0.1c0.5,0.5,1,1.1,1.7,1.5
		c7.5,4.6,10.6,14.8,7.5,23c-5.1,13.4-23.1,15.4-31.4,6.1c-7.3-8.3-6.3-22.1,2.8-28.6c4.7-3.3,9.8-3.4,15.1-3.2c0,0,0,0,0,0
		C385.3,419.7,385.9,419.9,386.5,420.1z M377.6,424.3c-4.4,0-8,3.5-8,7.9c0,4.4,3.7,8.1,8.1,8.1c4.3,0,7.9-3.7,8-8
		C385.8,427.9,382.2,424.3,377.6,424.3z"/>
	<path fill="#000000" d="M384.8,419.6c-5.3-0.2-10.5-0.1-15.1,3.2c-9.1,6.4-10.1,20.3-2.8,28.6c8.2,9.3,26.3,7.3,31.4-6.1c3.1-8.2,0-18.4-7.5-23
		c-0.6-0.4-1.1-1-1.7-1.5c8,2.9,12.7,9,14.4,17.1c2.8,13.3-5.7,26-19,28.3c-9,1.6-17-1-22.7-8.5c-6.1-8-6.7-16.8-2.5-25.6
		c4.1-8.4,11-13,20.6-13C381.5,419.1,383.2,419.4,384.8,419.6z"/>
	<path fill="#000000" d="M249.2,230.1c-0.3,0.6-0.5,1.3-1,1.8c-7.5,8.9-7.6,22.5,0.4,30.9c9.1,9.7,25.5,10,34.7-1.8c4.1-5.3,5.5-11.4,4.4-18
		c-0.1-0.5,0-1.1,0-1.7c4,9,0.5,21.4-7.8,28c-10.2,8.2-25.8,7.1-34.2-2.5c-8.9-10.2-8.3-25.9,1.3-35.1
		C247.7,231.1,248.5,230.6,249.2,230.1z"/>
	<path fill="#000000" d="M302.8,260c1.3-6.3,5.9-9.6,13.3-9.4c2.2,1.4,4.8,2.4,6.7,4.2c4,3.9,3.8,10.9,0,15c-4.3,4.6-10.6,5.2-15.3,1.7
		C303.4,268.5,302.4,264.5,302.8,260z M308.9,258.1c0,2.5,1.7,4.4,4.2,4.5c2.5,0.1,4.5-1.9,4.5-4.4c0-2.5-1.9-4.4-4.3-4.4
		C310.9,253.8,308.9,255.7,308.9,258.1z"/>
	<path fill="#000000" d="M319.8,425.3c0.5-4.7,3.2-7.7,7.2-9.8c0.1,0,0.3-0.1,0.4-0.1c0,0,0,0,0,0c1.3,0,2.5,0.1,3.8,0c6.8-0.9,13.4,7,11.5,13.7
		c-1.3,4.5-5.1,8.6-9.7,9c-5.3,0.5-10-2.1-11.8-6.8C320.5,429.4,320.3,427.3,319.8,425.3z M331.4,416.7c-2.4,0-4.4,2-4.4,4.3
		c0.1,2.4,2,4.3,4.4,4.3c2.4,0,4.4-1.9,4.4-4.3C335.9,418.5,334.1,416.7,331.4,416.7z"/>
	<path fill="#000000" d="M319.8,425.3c0.4,2,0.7,4.1,1.4,6c1.8,4.7,6.5,7.3,11.8,6.8c4.6-0.5,8.5-4.5,9.7-9c1.9-6.7-4.8-14.7-11.5-13.7
		c-1.2,0.2-2.5,0-3.8,0c5.8-3.5,17.4-1.7,20,9.2c1.4,5.9-0.1,11.1-5,15c-4.8,3.8-10.2,3.9-15.5,1.3
		C321.2,438,318.2,431.1,319.8,425.3z"/>
	<path fill="#000000" d="M302.8,260c-0.4,4.6,0.7,8.5,4.6,11.5c4.7,3.5,11.1,2.9,15.3-1.7c3.8-4.1,4-11.2,0-15c-1.8-1.8-4.4-2.8-6.7-4.2
		c8-0.1,14.4,6.6,14,14.6c-0.5,8.4-7.3,14.6-15.2,13.7c-8.5-0.9-14.3-8.4-12.8-16.6C302.2,261.4,302.6,260.7,302.8,260z"/>
	<path fill="#000000" d="M398.2,232.4c-0.5-0.6-1.7-1.3-1.7-2c0-1,0.7-2.6,1.5-2.9c2.3-1,4.7-1.7,7.2-2.2c10.4-1.9,20.9-3.7,31.3-5.5
		c1.6-0.3,3.1-0.1,3.3,2c0.2,1.9-1,2.9-2.8,3c-12.7,1.1-25.2,3.4-37.4,7.3C399.4,232.2,399.1,232.2,398.2,232.4z"/>
	<path fill="#000000" d="M538.3,400.6c0.6,0,1.3,0,1.9,0c1.6-0.1,2.7,0.4,2.7,2.1c0,1.7-0.9,2.6-2.6,2.7c-3,0.2-6,0.4-8.9,0.8
		c-9.2,1.4-18.3,2.9-27.5,4.5c-1.8,0.3-3.2,0.2-3.7-1.7c-0.5-2.1,0.9-2.8,2.6-3.1c5.5-1.1,10.9-2.4,16.4-3.2
		c6.3-0.9,12.7-1.5,19-2.2C538.2,400.5,538.3,400.5,538.3,400.6z"/>
	<path fill="#000000" d="M618.4,88c-0.3,0.3-0.7,1.1-1.5,1.5c-9.4,5.5-19.4,9.7-29.6,13.5c-1.4,0.5-2.7,0.5-3.3-1.1c-0.6-1.7,0-2.8,1.7-3.6
		c9.7-4.4,19.3-8.8,28.9-13.2C616.7,84.2,618.4,85.2,618.4,88z"/>
	<path fill="#000000" d="M428.6,259.1c-5.4-1.6-8-6-6.9-11.2c0.8-3.9,5.2-6,8.6-4.2c2.5,1.3,3,3.5,1.4,5.7c-0.9,1.2-2.1,2.2-3.2,3.2
		c-0.3-0.2-0.5-0.3-0.8-0.5c0.2-0.6,0.5-1.1,0.7-1.7c0.5-1,1.4-2.2,1.3-3.1c-0.2-1-1.2-2.3-2.2-2.6c-0.8-0.3-2.3,0.4-2.9,1.1
		c-2,2.4-1.9,6.5,0,9.1c1.7,2.3,4.4,2.6,7.4,1.2c0.6-0.3,1.5-0.2,2.2-0.4c-0.4,0.6-0.8,1.2-1.2,1.8c-2.1,2.4-4.6,4.6-6.2,7.4
		c-2.3,4-0.7,8.2,3.4,10.3c3.6,1.8,7.3,0.4,9.4-3.6c0.2-0.4,0.3-0.9,0.6-1.3c0.3-0.3,0.8-0.3,1.2-0.5c0.1,0.3,0.4,0.7,0.3,1
		c-0.7,5-7.9,8.4-12.3,6c-4.8-2.6-6.5-8.1-3.9-13.2C426.5,262,427.5,260.6,428.6,259.1z"/>
	<path fill="#000000" d="M386.3,48.8c-5.5-0.7-9-8-6.1-12.8c1.8-2.9,5.7-3.9,8.4-2c2.1,1.4,2.4,3.2,1,5.3c-0.4,0.5-0.7,1.1-1.2,1.4
		c-0.8,0.6-1.8,1-2.7,1.4c0.4-0.8,0.7-1.7,1.2-2.4c1.2-1.6,0.9-3.7-0.7-4.8c-1.6-1-3.5-0.5-4.2,1.5c-0.6,1.9-1,4.1-0.7,5.9
		c0.8,4.1,4.4,5.6,8.2,3.8c0.8-0.4,1.6-0.6,2.4-1c0.1,0.2,0.3,0.4,0.4,0.6c-0.5,0.6-1.1,1.1-1.6,1.7c-2.1,2.4-4.5,4.7-6.1,7.4
		c-2,3.3-1.1,6.6,1.9,9.1c3.4,2.9,7.6,2.4,10.3-1.2c0.5-0.7,0.8-1.5,1.3-2.2c0.3-0.4,0.8-0.6,1.2-0.9c0.1,0.5,0.4,1.1,0.3,1.6
		c-1.5,4.5-6.8,7.4-10.9,6.1c-4.8-1.6-7.6-7-5.9-11.8C383.6,53.2,385.1,51.1,386.3,48.8z"/>
	<path fill="#000000" d="M158,78.6c4.1,0,8,3,8.9,6.9c0.6,2.8-2.1,9-4.7,10.7c-3.1,2-7.4,1.7-10.4-0.7c-3-2.3-4-6.3-2.6-10.5
		C150.6,80.8,153.8,78.5,158,78.6z M151.2,88.4c0,2.8,1.7,5.3,4.2,6.2c2.5,0.9,5.1,0.1,6.8-1.9c1.5-1.8,2.4-6.6,1.5-8
		c-1.6-2.7-4.4-4-7.1-3.3C153.4,82.1,151.2,85,151.2,88.4z"/>
	<path fill="#000000" d="M225.7,296.3c0-4.9,2.9-8.9,7-9.8c4.7-1,9.3,1.1,10.7,5.5c1.2,3.8-0.3,7.6-2.8,10.6c-2.1,2.6-6.2,3.2-9.6,1.8
		C227.5,303,225.7,300.2,225.7,296.3z M235,288.8c-3.7,0-7,3.4-7,7.3c0,3.5,3,6.6,6.5,6.5c3.8,0,6.8-3.9,6.8-8.7
		C241.3,291.6,237.9,288.8,235,288.8z"/>
	<path fill="#000000" d="M518.9,85.5c0.6,0.4,1.1,0.8,1.7,1.1c1.4,0.9,2.6,2.1,4.1,2.7c2.2,1,3.5,0,3.6-2.4c0-0.6,0.1-1.3,0.4-2.4
		c1.8,2.2,3.4,2.6,5.8,1.1c2.4-1.6,0.5-4,1.5-5.7c1.8,1.4,2,4.5,0.8,6.9c-1.2,2.4-2.8,2.7-6.7,1.4c-1.7,3.6-2.3,3.7-8.9,1.6
		c0,2.8,0.4,5.7-0.1,8.4c-0.7,4.4-3.9,6.3-8.5,5.7c-4.3-0.6-7.3-3.7-7-7.8c0.2-1.9,1-3.8,1.7-5.6c0.2-0.5,1-0.7,1.5-1.1
		c0,0.6,0,1.3-0.1,1.8c-0.4,1.4-1.2,2.8-1.4,4.2c-0.4,3.7,1.5,6.2,5,6.7c3.9,0.6,6.9-1.1,7.3-4.8c0.3-3-0.5-6.2-0.8-9.3
		c-0.1-0.8-0.4-1.5-0.6-2.2C518.6,85.9,518.8,85.7,518.9,85.5z"/>
	<path fill="#000000" d="M375.8,295.3c0-0.8,0.2-1.7,0-2.5c-0.3-1-0.6-2.4-1.3-2.8c-0.7-0.4-2.2-0.1-3,0.4c-3.5,2-3.7,5.9-0.6,8.3
		c1.1,0.8,2.2,1.5,3.3,2.4c3,2.4,4,5.2,2.9,7.8c-1.3,3-4.8,4.9-8.6,4.6c-3.1-0.3-5.6-2.4-6.2-5.6c-0.3-1.4-0.1-3,0-4.5
		c0-0.4,0.7-0.7,1-1c0.2,0.4,0.6,0.9,0.6,1.3c0.1,1.2-0.2,2.5,0,3.7c0.4,2.7,2.2,4.1,5.1,4.4c2.7,0.3,5.6-1.4,6.5-3.8
		c0.8-2.1,0-4-2.4-5.8c-1.4-1-2.9-1.9-4.2-3.1c-2-1.8-2.4-4.1-1.3-6.7c1.1-2.6,3.8-4.9,6.1-4.5c1.3,0.2,2.8,1.2,3.5,2.4
		c1,1.5,0.9,3.4-0.4,5C376.4,295.4,376.1,295.4,375.8,295.3z"/>
	<path fill="#000000" d="M281.5,116.2c0,2.1-0.1,3.6,0,5.1c0.2,3.1,2.7,5.1,6.1,4.9c3.5-0.2,6.2-2.8,5.7-5.6c-0.3-1.4-1.5-2.8-2.6-4
		c-1.1-1.2-2.7-1.9-4-3c-2.1-1.8-2.6-4.1-1.6-6.6c1.1-2.8,3.8-4.8,6.2-4.8c3.3,0.1,5,4,2.7,8.1c-0.3-1.3-0.4-1.9-0.6-2.6
		c-0.4-1.2-0.7-3.3-1.3-3.4c-1.3-0.2-3,0.3-4,1.2c-2.7,2.2-2.5,5.2,0.3,7.4c1.1,0.9,2.4,1.6,3.4,2.5c2.1,1.7,3.8,3.8,3.1,6.7
		c-0.7,3-2.9,4.7-5.7,5.4c-2.8,0.7-5.6,0.4-7.6-1.9c-2.1-2.4-2.3-5.3-1.6-8.2C280.2,117.1,280.7,116.9,281.5,116.2z"/>
	<path fill="#000000" d="M389.1,420.9c-0.9-0.3-1.7-0.6-2.6-1C387.4,420.3,388.2,420.6,389.1,420.9z"/>
	<path fill="#000000" d="M386.5,420.1c-0.6-0.2-1.1-0.3-1.7-0.5C385.3,419.7,385.9,419.9,386.5,420.1z"/>
	<path fill="#000000" d="M250.7,229.1c-0.3,0.2-0.6,0.4-0.9,0.6C250,229.5,250.4,229.3,250.7,229.1z"/>
	<path fill="#000000" d="M249.8,229.6c-0.2,0.2-0.3,0.3-0.5,0.5C249.4,229.9,249.6,229.8,249.8,229.6z"/>
	<path fill="#000000" d="M327.4,415.3c-0.1,0-0.3,0.1-0.4,0.1C327.1,415.3,327.3,415.3,327.4,415.3z"/>
	<path fill="#000000" d="M251.2,228.6c-0.2,0.2-0.4,0.3-0.6,0.5C250.8,229,251,228.8,251.2,228.6z"/>
	<path fill="#000000" d="M315.1,143c0.6,5.8,1.2,11.7,1.8,17.5c0.5,4.9,0.8,9.9,1.6,14.7c2.1,13.1,7.9,19.4,21.6,21.6c4.7,0.8,9.7,1.2,14.2,0.4
		c5-0.9,9.7-3.4,14.4-5.5c0.8-0.4,1.3-2.5,1.2-3.7c-0.3-2.5-1.7-4.5-3.9-6.1c-5-3.9-10-7.9-14.6-12.3c-8-7.6-10.1-17.2-8.5-27.9
		c1.7-11.2,7.3-20.3,14.9-28.4c8.7-9.2,18.9-16.1,31-20.1c11.6-3.9,23.3-4.9,35.1-0.4c0.9,0.3,1.7,1,2.5,1.6
		c-1.4-0.4-2.9-0.7-3.6,1.2c-0.5,1.5,0,2.8,1.6,3.5c0.6,0.2,1.1,0.5,1.7,0.8c4.7,2.1,8.6,5,10.9,9.7c0.7,1.5,1.8,2.3,3.4,1.5
		c1.6-0.8,1.9-2.2,1.1-3.8c-0.2-0.3-0.3-0.7-0.4-1.1c0.5,0.4,1.3,0.6,1.6,1.2c1.6,3.3,3.8,6.5,4.4,10c1.2,7.7,0.2,15.2-5.5,21.2
		c-4,4.2-9.3,6.2-14.8,7.3c-7.4,1.5-14.6,0.1-21.3-3.3c-3-1.5-5.4-3.8-6.7-7c-1.5-3.6-0.1-9.1,2.8-11.2c2.4-1.7,6-1.9,8.2-0.4
		c2.3,1.5,3.3,4.6,2.8,7.8c-0.6,3.8-0.8,7.4,2.3,10.6c2.8,2.8,6.1,3.3,9.6,2.5c9.1-2.1,15.6-9.4,16.1-18.7c0.4-6.2-1.7-12-6-16.7
		c-5.9-6.6-13.3-10.4-22.2-11.2c-13.3-1.3-25.8,1.2-36.5,9.5c-7.8,6.1-12.3,14.1-12.5,24.3c-0.2,9.6,3.4,17.5,9.5,24.7
		c8.1,9.5,18.8,13.9,30.6,16.3c11.4,2.3,22.9,2.4,34.3,1.7c12.7-0.8,25.3-2,37.8-4.9c1.2-0.3,2.5,0,4.1,0c-0.4,1.1-0.7,1.8-1.1,2.6
		c-2.1,4.3-4.2,8.6-6.2,13c-0.5,1.2-0.9,2.6-0.9,3.9c-0.2,3.9,1.2,5.7,5,6.5c14.5,3,30.4-4.9,33.6-21.2c1.7-8.6-0.9-16.5-5-23.9
		c-1.3-2.3-2.7-4.5-3.7-6.8c-0.6-1.5-0.7-3.3-1-5c2.4,2.1,3.4,2,5.4-0.5c3.7-4.5,8.3-7.7,13.9-9.2c3.2,13.7,6.3,27.5,9.8,41.2
		c1.2,4.7,3.5,9.3,5.8,13.6c2.2,4,5.2,7.5,10.3,7.7c6.5,0.3,11.7-3.5,13.9-9.9c1.8-5.4,0.8-10.6-1-15.7c-2.4-6.5-5.1-12.9-7.5-19.3
		c-0.4-1.1-0.6-2.4-0.9-3.6c1.5,0.9,3,1.2,4.2-0.4c3.8-4.9,8.6-8.1,14.4-10.1c0.8-0.3,1.6-1.5,1.8-2.4c0.1-0.7-0.6-1.8-1.3-2.2
		c-0.6-0.4-1.7-0.1-2.5-0.1c2.6-1.9,5.2-1.6,5.3,1.7c0.1,2.4,0.6,4.8,0.7,7.2c0.4,11.2,0.4,22.3,1.1,33.5c0.3,4.7,1.4,9.5,2.8,14
		c1.7,5.3,5.1,9.4,11.1,10.4c4.6,0.8,8.5-1,12-3.7c8.2-6.6,11.2-15.2,9.6-25.5c-0.5-3-0.3-6.1-0.6-9.2c-0.8-7.5-1.5-15-2.5-22.4
		c-0.2-1.8,0-2.6,1.6-3.3c0.9-0.4,1.6-0.9,2.4-1.4c1.1,3.1,2.2,3.6,5.1,1.9c5.7-3.5,11.3-7.1,16.9-10.8c2.5-1.6,2.6-2.2,1.1-4.8
		c1-0.4,1.5-0.2,1.6,1c0.4,3.9,0.8,7.8,1.3,11.7c0.4,3.9,1,7.8,1.3,11.7c0.1,1.1-0.3,2.3-0.9,3.3c-2.8,4.3-5.6,8.6-8.6,12.7
		c-1.3,1.8-1.3,3.6-1.1,5.6c1.2,12-0.3,23.4-7.3,33.6c-6.5,9.5-18.6,13.7-28.1,11.1c-4.3-1.2-8.2-4-12.3-5.9
		c-3.8-1.7-7.6-3.6-11.5-4.7c-5.7-1.7-10.3,0.5-14,5c-4.9,6.1-9.1,6.7-18.4,3.7c-3.7-1.2-7.4-2.6-11.2-3.8c-7.1-2.2-13.5-1-19.8,3.1
		c-3.8,2.5-8.2,4.2-12.5,5.8c-3.3,1.3-6.7,0.2-9.8-1.2c-2.7-1.2-5.4-2.6-8-4c-5-2.9-10.5-3.7-16.1-3.7c-8.7,0-17.5,0.2-26.2,0.5
		c-7,0.2-14,0.3-21,1c-7.7,0.8-15.3,2.3-23,3.4c-7.7,1.1-15.4,2.2-23.1,3c-5.6,0.6-11.3,1-16.9,0.9c-8.1-0.1-16.2-1-23.7-4.3
		c-3.5-1.6-6.7-4.1-9.8-6.4c-3.9-2.9-8.2-5-13-4.7c-3.9,0.3-7.7,1.5-11.5,2.5c-4,1.1-7.9,2.8-12,3.6c-12.2,2.3-23.3,0.2-32.4-9
		c-2.3-2.3-4.9-4.5-7.8-6c-5-2.6-9.6-0.6-14.1,2c-10,5.7-20.7,8.3-32.2,7.3c-4.9-0.4-8.7-3.1-11.2-7.4c-2.7-4.7-3.8-9.8-4.1-15.1
		c-0.2-4.1-0.4-8.2-0.4-12.3c0-2.2,0.2-4.4,0.4-6.9c2.5,1.4,4.8,2.6,7,3.7c5.8,2.9,12.1,4.3,18.5,4.2c12.4-0.2,23.7-3.8,32.6-13.1
		c3-3.2,5.2-6.8,5.6-11.4c0.5-6.5-4.7-11.2-10.7-12.3c-6.2-1.1-12.4,0.1-18.5,0.7c-1.1,0.1-2.2,0.1-3.3,0.2c1.6-3,0.8-4.5-2.5-4.5
		c-3.6,0-6.5-1.5-8.7-4.3c1.5,0.6,3,1.3,4.5,1.9c6.3,2.6,12.7,2,19.3,1.2c6.3-0.8,12.6-2.3,18.9-0.2c4.3,1.4,7.5,4.1,8.7,8.3
		c1.5,5,2.4,10.2,3,15.4c1.1,10,0.8,20.1,3.4,29.9c1.7,6.3,4.3,12.2,10.5,15.3c3.2,1.6,6.9,2.8,10.5,2.9c7.5,0.4,14.8-1.3,21.6-4.8
		c3.9-2,6.8-5.1,6.9-9.5c0.1-3.2-1.1-6.5-2-9.6c-1-3.7-2.4-7.3-3.6-11c1.1-0.4,2.5-0.5,3.4-1.1C305.7,150.2,310.4,146.6,315.1,143z
		 M623.9,174c0.3-2-0.1-3.7-2.4-3.8c-2.2-0.1-2.5,1.6-2.7,3.4c-0.1,2-0.4,3.9-0.8,5.8c-1.6,6.5-4.7,11.9-10.1,16.1
		c-0.7,0.6-1.1,2-1.1,3c0,0.6,1.3,1.6,1.9,1.6c1,0,2.1-0.7,2.9-1.3C619.5,192.4,623.1,183.9,623.9,174z M460,179.1c-6.1,0-12,0-18,0
		c-1.1,0-2.2,0.1-3.3,0.3c-1.6,0.3-2.9,1.1-2.8,2.9c0.1,1.9,1.4,2.7,3,2.7c7,0.1,14,0,21.1,0C460,183.1,460,181.3,460,179.1z
		 M222.4,163.1c6,0,16.5-6.9,18.3-11.7c0.3-0.9-0.2-2.5-0.9-3.2c-1.1-1.1-2.3-0.5-3.2,0.7c-3.7,4.7-8.2,8.2-14.2,9.4
		c-0.8,0.1-1.9,1.7-1.8,2.4C220.8,161.7,221.9,162.6,222.4,163.1z M194.4,191.2c1.2-0.2,2.4-0.1,3.5-0.5c0.7-0.3,1.6-1.3,1.5-1.9
		c-0.1-0.8-0.9-1.7-1.7-2.1c-0.7-0.4-1.7-0.1-2.6-0.1c-5.9,0.1-9.6-2.3-11.9-7.8c-0.6-1.5-1.5-2.4-3.3-1.7c-1.8,0.7-1.5,2.1-1,3.3
		C181.7,187.3,187.3,190.8,194.4,191.2z M390.1,195.6c3.1,0,4.5-1.3,4.6-4.1c0.1-2.9-1.4-4.4-4.2-4.4c-2.5,0-4.8,1.8-4.7,4
		C386,194,388,196,390.1,195.6z M402.8,188.4c0-1.7-1.6-3.3-3.3-3.3c-2.1,0-3.4,1.3-3.3,3.4c0,1.7,1.7,3.3,3.3,3.2
		C401.2,191.7,402.8,190.1,402.8,188.4z M467.3,176.7c-2.2,0-3.3,1-3.3,2.9c0,1.8,0.7,3.1,2.8,3c2.1,0,3.2-0.9,3.2-2.9
		C470.1,177.9,469.3,176.7,467.3,176.7z M417.6,97.5c0.4,0,0.7,0,1.1,0c0.7-0.9,1.8-1.8,2-2.8c0.4-1.6-0.8-2.7-2.4-2.8
		c-1.7-0.1-2.8,1-2.6,2.6C415.9,95.6,417,96.5,417.6,97.5z M395.9,182.5c0-0.3,0-0.7,0-1c-0.9-0.6-1.8-1.4-2.8-1.6
		c-1.6-0.4-2.5,1-2.3,2.2c0.2,0.9,1.5,2.2,2.4,2.3C394,184.5,395,183.2,395.9,182.5z"/>
	<path fill="#000000" d="M441.1,106c-0.2-0.3-0.4-0.6-0.6-0.9C440.7,105.4,440.9,105.7,441.1,106z"/>
	<path fill="#000000" d="M566.7,127.4c-0.4,0.1-0.7,0.3-1.1,0.4C566,127.7,566.4,127.6,566.7,127.4z"/>
	<path fill="#000000" d="M195.7,115c-0.2-0.2-0.3-0.3-0.5-0.5C195.4,114.7,195.6,114.9,195.7,115z"/>
	<path fill="#000000" d="M194.8,114.1c-0.1-0.2-0.3-0.3-0.4-0.5C194.5,113.7,194.7,113.9,194.8,114.1z"/>
	<path fill="#000000" d="M440.6,105.2c-0.1-0.2-0.3-0.4-0.4-0.6C440.3,104.8,440.5,105,440.6,105.2z"/>
	<path fill="#000000" d="M440.2,104.6c-0.1-0.2-0.3-0.4-0.4-0.5C439.9,104.3,440.1,104.4,440.2,104.6z"/>
	<path fill="#000000" d="M397.5,335.1c0.7,3.7,1.3,7.4,2,11.1c1.5,7.6,2.7,15.3,4.6,22.8c2.7,10.5,10.4,15.2,20.7,16.5c6.4,0.8,12.8,0.9,18.9-1
		c2.8-0.9,5.6-2.3,7.8-4.1c4.3-3.7,3.5-9.4-1.4-12.8c-4.4-3-9-5.8-13.2-9.1c-9.6-7.6-13.6-17.4-12.1-29.7c2-16.5,11.2-28.5,23.2-39
		c8.2-7.1,17.6-12.2,28.2-14.8c11.4-2.9,22.6-2.4,33.1,3.5c0.7,0.4,1.1,1.1,1.6,1.7c-0.9-0.4-1.9-0.8-2.8-1.2
		c-1.4-0.6-2.7-0.8-3.4,0.9c-0.6,1.6-0.3,3,1.4,3.7c5.6,2.2,10.2,5.5,13.1,11.1c0.3,0.6,1.7,1.3,2.3,1c0.9-0.4,1.6-1.3,2-2.2
		c0.3-0.6-0.2-1.5-0.4-2.3c0.8,1.2,2,2.2,2.5,3.5c2.9,8.6,2.8,17-3,24.4c-4.2,5.3-10.2,7.8-16.7,9.1c-6.2,1.3-12.2,0.3-18.1-1.8
		c-5.9-2.2-9.1-6.5-8.9-12.4c0.2-4.4,3.6-7.6,8.3-7.5c4.1,0.1,6.8,3.2,6.9,7.7c0,2.1,0,4.3,0.5,6.3c1.5,5.3,5.5,7.5,10.9,6.2
		c10.9-2.6,17.5-14.3,14.2-24.9c-3.6-11.3-11.9-17.5-23-19.7c-14.6-2.8-28,0.8-39.8,9.6c-7.1,5.4-11.6,12.8-12.6,21.9
		c-1.2,10.7,2.5,19.6,9.5,27.3c8.6,9.5,19.6,14,32,15.3c4.9,0.5,9.9,0.9,14.8,0.9c10.9,0,21.6-1.3,32.2-3.5c9-1.9,17.9-4,26.8-6.1
		c2.1-0.5,2.6,0.1,2.6,2.1c0,6-2.3,11.4-4.4,16.8c-0.5,1.2-1.1,2.4-1.6,3.7c-2.2,5-5.8,8.1-11.3,8.8c-9.8,1.2-19.6,2.3-29.4,3.5
		c-8.3,1-16.7,1.9-24.9,3.4c-6.9,1.3-13.7,3.6-20.6,5c-10.1,2.1-20.1,4.2-30.3,5.6c-9,1.3-18,0.9-26.9-1.2c-4.4-1-7.6-3.6-10.9-6.3
		c-6-4.9-12.3-5.3-19.1-1.9c-10.3,5.1-21.2,7.9-32.8,7.6c-6.6-0.2-12.7-2.3-17.4-7.2c-1.6-1.7-3.4-3.3-5.3-4.7
		c-5.3-4.1-11.2-4.3-17.1-0.4c-2,1.3-3.9,2.7-5.7,4.2c-5.5,4.4-12,6.1-18.7,7.3c-1.8,0.3-3.7,0.3-5.6,0.5
		c-9.9,0.9-14.8-4.9-17.2-12.3c-1.7-5.3-2.5-11-3.4-16.5c-0.6-3.6-0.5-7.3-0.8-11.5c1.6,0.8,2.6,1.3,3.6,1.8
		c16.1,7,31.8,6.5,46.4-3.7c5.9-4.2,10-10.1,11.7-17.3c1.4-5.9-2.7-11.2-9.3-12.4c-5.8-1.1-11.4,0-17.1,0.7
		c-2.7,0.3-5.4,0.7-8.1,1.1c1.4-3.2,0.7-4.4-2.7-4.5c-2.8-0.1-5.3-1-7.2-2.9c-1.9-1.9-3.7-4.1-5.4-6.2c-1.2-1.6-2.5-2.3-4.4-1.4
		c-0.2-2.2-0.4-4.4-0.6-6.5c0.1-0.1,0.3-0.1,0.4-0.2c1.5,2.1,2.9,4.3,4.5,6.3c3.8,4.7,8.2,9,14.4,9.6c4.4,0.4,9.1-0.4,13.5-0.9
		c4.9-0.6,9.7-2,14.6-2.5c9.1-0.9,15.7,5.3,17.5,13.6c1.2,5.6,1.6,11.3,2.5,17c0.7,5,1.2,10,2.6,14.8c1.6,5.4,3.4,10.9,6.2,15.8
		c3.9,7,10.9,9.2,18.5,8.2c5.5-0.7,10.9-2.3,16.1-4.2c3.1-1.1,5.9-3.3,8.4-5.5c3.4-3.1,3.5-7.3,2-11.4c-1.8-4.6-3.9-9.1-5.8-13.7
		c-0.2-0.5-0.4-1-0.6-1.5c0.9-0.5,1.8-0.9,2.6-1.5C387.9,342.5,392.7,338.8,397.5,335.1z M301,364.6c0.2-0.1,0.4-0.2,0.5-0.4
		c0.6-0.1,1.2-0.2,1.8-0.4c6.2-1.4,10.8-5.1,14.8-9.9c1.3-1.5,1.9-3.1,0.2-4.5c-1.8-1.6-3,0-4,1.3c-3.5,4.3-7.8,7.5-13.4,8.6
		c-1.4,0.3-2.6,1-2.1,2.5C299.2,362.8,300.2,363.7,301,364.6z M280.9,391.1c1.1,0,2.2,0.1,3.3,0c1.3-0.2,2.3-0.8,2-2.4
		c-0.3-1.5-1.2-2.3-2.9-2.1c-6.7,0.8-10.6-1.4-13.4-7.7c-0.6-1.4-1.5-2.3-3.1-1.7c-1.7,0.6-1.5,1.9-1,3.3
		C267.3,385.9,273.5,391.6,280.9,391.1z M548.7,359.9c0-2.5-1.2-3.5-3-3.1c-4.1,0.9-8.3,2-12.4,2.9c-1.4,0.3-2.3,1.1-2.1,2.6
		c0.3,1.6,1.4,2.6,3,2.3c4.2-0.9,8.3-1.8,12.4-2.9C547.6,361.4,548.3,360.3,548.7,359.9z M474.8,376.4c0-2.5-1.9-4.6-4.3-4.6
		c-2.4,0-4.3,2-4.3,4.6c0,2.9,1.5,4.4,4.3,4.4C473.4,380.8,474.8,379.3,474.8,376.4z M479.6,370.3c-2.1,0-3.4,1.1-3.4,3
		c0,1.8,1.7,3.8,3.4,3.5c1.7-0.2,3.1-1.1,3.2-3.1C482.9,371.6,481.7,370.4,479.6,370.3z M555.2,354.4c-2.5-0.1-4,1-3.9,2.8
		c0,1.7,0.6,3.1,2.6,3.2c2.1,0.1,3.7-1,3.6-2.8C557.4,356,556.8,354.6,555.2,354.4z M500,276.5c-1.7,0.2-2.8,1.2-2.4,2.8
		c0.3,1,1.7,2.3,2.6,2.3c0.9,0,2.2-1.4,2.4-2.4C502.9,277.5,501.7,276.5,500,276.5z M473.9,369.8c0.6-0.9,1.8-1.9,1.6-2.7
		c-0.2-0.9-1.4-2.1-2.3-2.3c-1.3-0.2-2.3,0.7-2.2,2.3C471,368.7,471.8,369.4,473.9,369.8z"/>
	<path fill="#000000" d="M512.6,281c-0.3-0.2-0.6-0.4-0.9-0.6C512,280.6,512.3,280.8,512.6,281z"/>
	<path fill="#000000" d="M522.1,289.4c-0.2-0.3-0.4-0.6-0.7-0.9C521.7,288.7,521.9,289,522.1,289.4z"/>
	<path fill="#000000" d="M523.1,290.9c-0.2-0.3-0.4-0.7-0.6-1C522.7,290.2,522.9,290.5,523.1,290.9z"/>
	<path fill="#000000" d="M511.7,280.4c-0.2-0.1-0.4-0.2-0.6-0.3C511.3,280.2,511.5,280.3,511.7,280.4z"/>
	<path fill="#000000" d="M522.5,289.9c-0.1-0.2-0.3-0.4-0.4-0.6C522.3,289.5,522.4,289.7,522.5,289.9z"/>
	<path fill="#000000" d="M194.4,191.2c-7.1-0.4-12.7-4-15.4-10.9c-0.5-1.3-0.8-2.6,1-3.3c1.8-0.7,2.6,0.2,3.3,1.7c2.3,5.5,6,7.9,11.9,7.8
		c0.9,0,1.9-0.3,2.6,0.1c0.8,0.4,1.6,1.3,1.7,2.1c0.1,0.6-0.8,1.6-1.5,1.9C196.8,191.1,195.6,191.1,194.4,191.2z"/>
	<path fill="#000000" d="M390.1,195.6c-2.1,0.5-4.2-1.6-4.3-4.5c-0.1-2.2,2.1-4,4.7-4c2.9,0,4.3,1.5,4.2,4.4C394.7,194.3,393.2,195.6,390.1,195.6z"
		/>
	<path fill="#000000" d="M402.8,188.4c0,1.7-1.6,3.3-3.3,3.3c-1.7,0-3.3-1.6-3.3-3.2c-0.1-2.1,1.3-3.4,3.3-3.4C401.2,185.2,402.8,186.8,402.8,188.4
		z"/>
	<path fill="#000000" d="M395.9,182.5c-0.9,0.7-1.9,1.9-2.8,1.9c-0.9-0.1-2.2-1.3-2.4-2.3c-0.3-1.3,0.7-2.6,2.3-2.2c1,0.2,1.9,1,2.8,1.6
		C395.9,181.9,395.9,182.2,395.9,182.5z"/>
	<path fill="#000000" d="M280.9,391.1c-7.4,0.5-13.6-5.2-15.2-10.5c-0.4-1.4-0.7-2.7,1-3.3c1.6-0.6,2.5,0.3,3.1,1.7c2.9,6.2,6.8,8.4,13.4,7.7
		c1.6-0.2,2.6,0.7,2.9,2.1c0.3,1.5-0.7,2.2-2,2.4C283.1,391.3,282,391.1,280.9,391.1z"/>
	<path fill="#000000" d="M474.8,376.4c0,3-1.4,4.4-4.2,4.4c-2.9,0-4.3-1.5-4.3-4.4c0-2.6,1.9-4.6,4.3-4.6C472.9,371.8,474.8,373.8,474.8,376.4z"/>
	<path fill="#000000" d="M479.6,370.3c2.1,0,3.3,1.3,3.2,3.4c-0.1,2-1.5,2.9-3.2,3.1c-1.7,0.2-3.4-1.7-3.4-3.5C476.2,371.4,477.5,370.3,479.6,370.3
		z"/>
	<path fill="#000000" d="M473.9,369.8c-2.1-0.4-2.9-1.1-3-2.7c-0.1-1.6,1-2.6,2.2-2.3c0.9,0.2,2.1,1.4,2.3,2.3C475.7,367.9,474.5,368.9,473.9,369.8
		z"/>
</g>
<path fill="#000000" d="M273.602,481.306c-0.578-0.576-1.301-1.03-2.174-1.362c-0.873-0.331-1.885-0.497-3.039-0.497
	c-0.663,0-1.463,0.079-2.4,0.238v-6.077h-1.535v17.711c0.706,0.202,1.402,0.354,2.087,0.454s1.301,0.151,1.849,0.151
	c1.153,0,2.166-0.162,3.039-0.486s1.596-0.764,2.174-1.319c0.576-0.555,1.006-1.211,1.287-1.968s0.42-1.561,0.42-2.411
	s-0.139-1.657-0.42-2.422C274.608,482.554,274.178,481.883,273.602,481.306z M272.391,489.167c-0.852,0.829-2.17,1.243-3.958,1.243
	c-0.39,0-0.805-0.032-1.244-0.097c-0.439-0.065-0.84-0.134-1.2-0.206v-8.845c0.447-0.115,0.887-0.194,1.319-0.237
	c0.433-0.044,0.808-0.065,1.125-0.065c0.894,0,1.668,0.112,2.325,0.335c0.656,0.224,1.199,0.545,1.633,0.963
	c0.432,0.418,0.752,0.919,0.961,1.503s0.314,1.243,0.314,1.979C273.667,487.195,273.241,488.338,272.391,489.167z M247.392,479.446
	c-0.62,0-1.297,0.079-2.033,0.238c-0.735,0.158-1.485,0.433-2.249,0.821l-0.065,1.73c0.548-0.303,0.973-0.52,1.276-0.649
	s0.624-0.237,0.962-0.324c0.338-0.086,0.677-0.158,1.016-0.216s0.667-0.087,0.984-0.087c1.139,0,1.982,0.249,2.53,0.746
	s0.822,1.33,0.822,2.498v0.13c-0.332-0.044-0.732-0.087-1.2-0.13c-0.469-0.043-0.876-0.065-1.222-0.065
	c-1.831,0-3.302,0.311-4.412,0.931c-1.11,0.619-1.665,1.644-1.665,3.07c0,0.707,0.155,1.305,0.465,1.795
	c0.31,0.49,0.713,0.88,1.211,1.168s1.067,0.497,1.708,0.627c0.641,0.13,1.308,0.194,2,0.194c0.807,0,1.6-0.072,2.378-0.216
	c0.779-0.145,1.536-0.368,2.271-0.671v-7.028c0-1.585-0.397-2.742-1.189-3.471C250.189,479.811,248.992,479.446,247.392,479.446z
	 M250.636,489.892c-0.375,0.144-0.858,0.267-1.449,0.367c-0.591,0.102-1.183,0.151-1.773,0.151c-0.505,0-0.984-0.035-1.438-0.108
	c-0.454-0.071-0.84-0.197-1.157-0.378c-0.317-0.18-0.57-0.414-0.757-0.703c-0.188-0.288-0.281-0.663-0.281-1.124
	c0-0.52,0.111-0.934,0.335-1.244c0.224-0.31,0.533-0.551,0.93-0.724c0.396-0.174,0.85-0.296,1.362-0.368
	c0.511-0.072,1.041-0.108,1.589-0.108c0.476,0,0.984,0.029,1.524,0.087c0.541,0.058,0.912,0.108,1.114,0.151V489.892z
	 M258.032,479.868c-0.649,0.122-1.276,0.263-1.881,0.422v11.418h1.535v-10.186c0.202-0.072,0.563-0.147,1.082-0.228
	c0.519-0.079,1.002-0.118,1.449-0.118h1.989v-1.492H260C259.336,479.685,258.681,479.746,258.032,479.868z M-77.92,487.667
	l241.145,0.656l0.663-0.433l-0.632-0.564L-77.92,487.667z M164.994,487.825l1.95,1.95l1.95-1.95l-1.95-1.95L164.994,487.825z
	 M169.559,487.825l3.057,3.057l3.057-3.057l-3.057-3.057L169.559,487.825z M212.359,489.286l-3.395-9.602h-1.514l-3.396,9.602
	l-2.984-9.602h-1.73l3.979,12.023h1.428l3.46-9.645l3.46,9.645h1.427l3.979-12.023h-1.73L212.359,489.286z M238.418,489.589
	c-0.317,0-0.591,0.115-0.822,0.346c-0.231,0.23-0.346,0.505-0.346,0.822c0,0.316,0.115,0.591,0.346,0.821
	c0.23,0.23,0.504,0.346,0.822,0.346c0.317,0,0.591-0.115,0.822-0.346c0.23-0.23,0.346-0.505,0.346-0.821
	c0-0.317-0.116-0.592-0.346-0.822C239.009,489.704,238.735,489.589,238.418,489.589z M193.243,489.286l-3.395-9.602h-1.514
	l-3.396,9.602l-2.984-9.602h-1.73l3.979,12.023h1.428l3.46-9.645l3.46,9.645h1.427l3.979-12.023h-1.73L193.243,489.286z
	 M231.476,489.286l-3.395-9.602h-1.514l-3.396,9.602l-2.984-9.602h-1.73l3.979,12.023h1.428l3.46-9.645l3.46,9.645h1.427
	l3.979-12.023h-1.73L231.476,489.286z M382.732,480.474c-0.426-0.396-0.938-0.667-1.535-0.812c-0.598-0.144-1.271-0.216-2.021-0.216
	c-0.664,0-1.393,0.09-2.184,0.271c-0.793,0.181-1.471,0.4-2.033,0.659c-0.346-0.331-0.818-0.569-1.416-0.714
	c-0.6-0.144-1.273-0.216-2.023-0.216c-0.635,0-1.268,0.058-1.902,0.173l-2.465,0.454v11.635h1.535v-10.38
	c0.447-0.102,0.883-0.188,1.309-0.26c0.424-0.072,0.896-0.108,1.416-0.108c0.605,0,1.125,0.058,1.557,0.173
	c0.434,0.116,0.789,0.321,1.07,0.616c0.281,0.296,0.494,0.711,0.639,1.244s0.217,1.24,0.217,2.119v6.596h1.535v-7.201
	c0-0.663-0.055-1.243-0.162-1.741c-0.109-0.497-0.213-0.861-0.314-1.092c0.086-0.043,0.281-0.119,0.584-0.228
	c0.303-0.107,0.602-0.197,0.898-0.27c0.295-0.072,0.586-0.126,0.875-0.162s0.547-0.055,0.779-0.055c0.59,0,1.102,0.058,1.535,0.173
	c0.432,0.116,0.781,0.317,1.049,0.605c0.266,0.289,0.471,0.703,0.615,1.244c0.145,0.54,0.217,1.251,0.217,2.13v6.596h1.535v-7.201
	c0-0.995-0.111-1.816-0.336-2.466C383.482,481.393,383.158,480.87,382.732,480.474z M280.1,474.581
	c-0.785,0.648-1.18,1.729-1.18,3.243v1.86h-2.551v1.492h2.551v10.531h1.537v-10.531h4.973v-1.492h-4.973v-1.471
	c0-0.635,0.045-1.149,0.141-1.546c0.094-0.396,0.24-0.707,0.443-0.931c0.201-0.223,0.475-0.385,0.82-0.486
	c0.346-0.101,0.779-0.151,1.299-0.151h2.422v-1.492h-2.271C281.956,473.607,280.885,473.932,280.1,474.581z M398.273,487.825
	l3.057,3.057l3.057-3.057l-3.057-3.057L398.273,487.825z M343.322,482.322c0.389-0.418,0.854-0.749,1.395-0.994
	s1.135-0.368,1.783-0.368c0.736,0,1.373,0.076,1.914,0.228s1.121,0.414,1.74,0.789l0.715-1.405c-0.707-0.39-1.393-0.674-2.055-0.854
	c-0.664-0.181-1.436-0.271-2.314-0.271c-0.85,0-1.639,0.155-2.367,0.465c-0.729,0.311-1.367,0.746-1.914,1.309
	c-0.549,0.563-0.98,1.222-1.297,1.979c-0.317,0.757-0.476,1.59-0.476,2.498s0.158,1.74,0.476,2.497
	c0.316,0.757,0.748,1.413,1.297,1.969c0.547,0.555,1.186,0.987,1.914,1.297c0.729,0.311,1.518,0.465,2.367,0.465
	c0.879,0,1.65-0.09,2.314-0.27c0.662-0.181,1.348-0.466,2.055-0.854l-0.715-1.406c-0.619,0.375-1.199,0.639-1.74,0.79
	s-1.178,0.227-1.914,0.227c-0.648,0-1.242-0.119-1.783-0.356c-0.541-0.238-1.006-0.565-1.395-0.984
	c-0.391-0.418-0.693-0.915-0.908-1.492c-0.217-0.576-0.324-1.203-0.324-1.881s0.107-1.305,0.324-1.882
	C342.628,483.238,342.931,482.741,343.322,482.322z M404.387,487.825l1.949,1.95l1.951-1.95l-1.951-1.95L404.387,487.825z
	 M410.701,487.326l-0.664,0.433l0.633,0.564l241.176-0.341L410.701,487.326z M362.611,481.295c-0.549-0.569-1.193-1.02-1.936-1.352
	c-0.742-0.331-1.547-0.497-2.412-0.497c-0.863,0-1.668,0.166-2.41,0.497c-0.742,0.332-1.389,0.782-1.936,1.352
	c-0.549,0.57-0.977,1.229-1.287,1.979c-0.311,0.749-0.465,1.557-0.465,2.422s0.154,1.672,0.465,2.422s0.738,1.409,1.287,1.979
	c0.547,0.569,1.193,1.017,1.936,1.341s1.547,0.486,2.41,0.486c0.865,0,1.67-0.162,2.412-0.486s1.387-0.771,1.936-1.341
	c0.547-0.569,0.977-1.229,1.287-1.979c0.309-0.75,0.465-1.557,0.465-2.422s-0.156-1.673-0.465-2.422
	C363.587,482.524,363.158,481.865,362.611,481.295z M362.394,487.523c-0.217,0.569-0.52,1.067-0.908,1.492
	c-0.389,0.426-0.857,0.765-1.406,1.017c-0.547,0.252-1.152,0.378-1.816,0.378c-0.662,0-1.268-0.126-1.816-0.378
	c-0.547-0.252-1.016-0.591-1.404-1.017c-0.391-0.425-0.693-0.923-0.908-1.492c-0.217-0.569-0.324-1.179-0.324-1.827
	c0-0.649,0.107-1.262,0.324-1.839c0.215-0.576,0.518-1.077,0.908-1.503c0.389-0.425,0.857-0.764,1.404-1.016
	c0.549-0.252,1.154-0.379,1.816-0.379c0.664,0,1.27,0.127,1.816,0.379c0.549,0.252,1.018,0.591,1.406,1.016
	c0.389,0.426,0.691,0.927,0.908,1.503c0.217,0.577,0.324,1.189,0.324,1.839C362.718,486.345,362.611,486.954,362.394,487.523z
	 M296.221,481.295c-0.547-0.569-1.191-1.02-1.936-1.352c-0.742-0.331-1.545-0.497-2.41-0.497s-1.67,0.166-2.412,0.497
	c-0.742,0.332-1.387,0.782-1.936,1.352c-0.547,0.57-0.977,1.229-1.285,1.979c-0.311,0.749-0.465,1.557-0.465,2.422
	s0.154,1.672,0.465,2.422c0.309,0.75,0.738,1.409,1.285,1.979c0.549,0.569,1.193,1.017,1.936,1.341s1.547,0.486,2.412,0.486
	s1.668-0.162,2.41-0.486c0.744-0.324,1.389-0.771,1.936-1.341c0.549-0.569,0.977-1.229,1.287-1.979s0.465-1.557,0.465-2.422
	s-0.154-1.673-0.465-2.422C297.198,482.524,296.77,481.865,296.221,481.295z M296.006,487.523c-0.217,0.569-0.52,1.067-0.908,1.492
	c-0.391,0.426-0.859,0.765-1.406,1.017c-0.549,0.252-1.154,0.378-1.816,0.378c-0.664,0-1.27-0.126-1.816-0.378
	c-0.549-0.252-1.018-0.591-1.406-1.017c-0.389-0.425-0.691-0.923-0.908-1.492s-0.324-1.179-0.324-1.827
	c0-0.649,0.107-1.262,0.324-1.839c0.217-0.576,0.52-1.077,0.908-1.503c0.389-0.425,0.857-0.764,1.406-1.016
	c0.547-0.252,1.152-0.379,1.816-0.379c0.662,0,1.268,0.127,1.816,0.379c0.547,0.252,1.016,0.591,1.406,1.016
	c0.389,0.426,0.691,0.927,0.908,1.503c0.215,0.577,0.324,1.189,0.324,1.839C296.331,486.345,296.221,486.954,296.006,487.523z
	 M309.381,480.463c-0.455-0.39-0.996-0.656-1.623-0.801c-0.627-0.144-1.309-0.216-2.043-0.216c-0.707,0-1.465,0.047-2.271,0.141
	s-1.701,0.234-2.682,0.422v11.699h1.535v-10.402c1.184-0.23,2.293-0.346,3.33-0.346c0.592,0,1.111,0.062,1.559,0.184
	c0.445,0.123,0.818,0.332,1.113,0.628c0.295,0.295,0.525,0.713,0.691,1.254s0.25,1.251,0.25,2.13v6.553h1.535v-7.201
	c0-0.995-0.119-1.82-0.357-2.477C310.18,481.375,309.834,480.852,309.381,480.463z M318.516,490.054
	c-0.346-0.108-0.619-0.277-0.82-0.509c-0.203-0.23-0.35-0.547-0.443-0.951c-0.096-0.403-0.141-0.922-0.141-1.557v-5.86h4.973v-1.492
	h-4.973v-4.347h-1.537v4.347h-2.551v1.492h2.551v6.466c0,0.764,0.109,1.405,0.326,1.925c0.215,0.519,0.525,0.937,0.93,1.254
	c0.402,0.317,0.867,0.544,1.395,0.682c0.525,0.137,1.105,0.205,1.74,0.205h2.271v-1.492h-2.422
	C319.295,490.216,318.862,490.162,318.516,490.054z M337.784,489.589c-0.316,0-0.59,0.115-0.82,0.346s-0.346,0.505-0.346,0.822
	c0,0.316,0.115,0.591,0.346,0.821s0.504,0.346,0.82,0.346c0.318,0,0.592-0.115,0.822-0.346s0.346-0.505,0.346-0.821
	c0-0.317-0.115-0.592-0.346-0.822S338.102,489.589,337.784,489.589z M333.178,486.106c-0.346-0.303-0.785-0.565-1.318-0.789
	c-0.533-0.223-1.182-0.422-1.947-0.595l-0.799-0.173c-1.053-0.216-1.781-0.461-2.184-0.735c-0.404-0.273-0.607-0.678-0.607-1.211
	c0-0.504,0.238-0.904,0.715-1.2c0.475-0.295,1.174-0.443,2.098-0.443c0.793,0,1.477,0.076,2.055,0.228
	c0.576,0.151,1.217,0.421,1.924,0.811l0.691-1.405c-1.412-0.765-2.969-1.146-4.67-1.146c-0.635,0-1.223,0.076-1.764,0.228
	c-0.539,0.151-1.008,0.364-1.404,0.638s-0.711,0.605-0.941,0.994c-0.23,0.39-0.346,0.815-0.346,1.276
	c0,0.462,0.072,0.88,0.217,1.254c0.143,0.375,0.381,0.707,0.713,0.995s0.758,0.537,1.275,0.746c0.52,0.209,1.146,0.4,1.883,0.573
	l0.908,0.194c1.008,0.217,1.729,0.49,2.162,0.822c0.432,0.331,0.648,0.771,0.648,1.318c0,0.39-0.086,0.707-0.26,0.952
	c-0.172,0.245-0.414,0.436-0.725,0.573c-0.311,0.137-0.678,0.237-1.102,0.303c-0.426,0.064-0.877,0.097-1.352,0.097
	c-0.592,0-1.223-0.09-1.893-0.271c-0.67-0.18-1.352-0.479-2.045-0.897l-0.734,1.471c0.779,0.433,1.539,0.742,2.281,0.93
	s1.539,0.281,2.391,0.281c0.748,0,1.434-0.072,2.053-0.216c0.621-0.145,1.158-0.36,1.611-0.648c0.455-0.289,0.805-0.649,1.049-1.082
	c0.246-0.433,0.369-0.93,0.369-1.492c0-0.476-0.072-0.915-0.217-1.318C333.77,486.763,333.526,486.41,333.178,486.106z"/>
</svg>

