<?xml version="1.0" encoding="utf-8"?>
<!-- Generator: Adobe Illustrator 21.0.0, SVG Export Plug-In . SVG Version: 6.00 Build 0)  -->
<svg version="1.1" id="Layer_1" xmlns="http://www.w3.org/2000/svg" xmlns:xlink="http://www.w3.org/1999/xlink" x="0px" y="0px"
	 viewBox="0 0 800 500" style="enable-background:new 0 0 800 500;" xml:space="preserve">
<g>
	<path fill="#000000" d="M360.4,159c-0.2,1.7,4.8-2.6,5-2.8c4.5-4.2,9-8.5,13.5-12.7c4.1,6.3,13,8.1,20.1,9.3c9.3,1.5,18.9,1.5,28.4,1.4
		c12.7-0.2,25.7-0.7,38.3-2c19.3-1.8,41.5-5.8,59.6,3.2c9,4.5,15.3,13.5,15.5,23.1c0.2,9.7-6.1,18.5-13.1,25.1
		c-1.9,1.8-5.3,4.9-5.7,7.6c-0.2,1.7,4.8-2.6,5-2.8c14.1-13.2,32.6-34.4,20.5-53.7c-10.5-16.9-36-17-54.1-15.7
		c-12.7,0.9-25.1,2.6-37.9,3.1c-13.3,0.5-26.5,1.4-39.7,0.2c-8.4-0.7-20.4-2.1-25.7-9.2c17.6-16.6,35.2-33.3,52.9-49.9
		c1.4-1.4,3.7-3.5,5-5.6c3.7-4,7-8.3,9.6-12.9c6.4-11.3,0.4-21.7-9-29.4c-1.6-1.3-12.1,10-10.5,11.3c7.8,6.4,14.3,15,10.2,25.1
		c-2.2,5.3-7.5,8.8-11.4,13c-0.2,0.2-0.8,0.8-1.5,1.7c-23.1,21.8-46.1,43.6-69.2,65.3C364.2,153.3,360.8,156.3,360.4,159"/>
	<path fill="#000000" d="M378.6,377.4c3.8-0.3,6.7-3.8,9.1-6.4c1.9-2.1,4-4.7,4.9-7.5c1.4-1.6,2.6-3.3,3.1-5.1c5.2-16.9-3.2-35.3-7.8-51.6
		c-2-7.2-4-14.4-5.7-21.6c-1.6-6.6-3.5-16.7,0.4-22.5c0.4-0.5,3.1-4.9,0.4-3.2c-2.8,1.7-5.4,4.7-7.1,7.4
		c-9.7,14.3-3.5,30.6,0.6,45.7c2,7.3,4,14.7,6.2,22c3.1,10.2,5.9,20.8,3.7,31.3c-3.5-1.2-7.1-6.2-9.1-8.1c-0.1-0.1-0.3-0.1-0.6,0
		h-82c-0.3,0-0.6,0.1-0.9,0.2c-5-0.1-10.1-0.6-14.9-2c-3.6-1.1-6.2-4-8.8-6.5c-1.2-1.2-11.6,9.7-9.9,11.3c3.1,3.1,5.8,5.7,10,6.9
		c4.9,1.4,10.4,1.7,15.5,1.7c0.3,0,0.6-0.1,0.9-0.2h80.8C370.2,371.7,374.1,377.8,378.6,377.4"/>
	<path fill="#000000" d="M553.4,333.7c-4.7-7.6-12.5-13.4-19.8-18.3c-8.3-5.7-17.5-10.3-27-13.5c-3.4-1.1-10.1,11.2-9.9,11.3
		c1.1,0.4,2.2,0.8,3.3,1.2c-1.8,1.8-4.4,4.5-4.4,6.6v38c-4.4-2.5-9.5-3.4-14.6-2.8c1.3-1.5,2.4-3,3.1-4.7c3.9-10.2,2-19.2-3.2-28.5
		c-5.1-9.1-12.8-19.7-11.3-30.6c0.2-1.7-4.5,2.6-4.7,2.8c-1.8,1.8-5,4.8-5.4,7.6c-2.8,20.3,21.1,34.3,15.9,54.7
		c-0.9,0.3-1.7,0.6-2.6,1c-0.4,0.2-0.8,0.4-1.2,0.7h-34.8c4.1-4.3,8-8.7,11.5-13.6c4.9-6.9,8.9-15,7.3-23.7c-0.8-4.6-4-9.2-6.2-13.3
		c-3.4-6.5-6.8-13-9.5-19.9c-2-5.2-4.6-12.4-2-17.9c1.3-2.8-2.7,0.4-3.2,0.8c-2.4,2.3-5,5-6.4,8c-4.9,10.4,2.9,24,7.5,33.2
		c2.7,5.4,5.7,10.6,8.3,16.1c3.3,6.9,1.5,14.6-2.6,20.8c-2.4,3.5-5.5,6.5-8.8,9.4h-15.5c3.6-9.2,5.7-20.3,3.7-30.1
		c-1.4-7.1-3.9-14-5.8-20.9c-2.6-9-4.8-18.1-6-27.4c-0.8-6.5-1.9-16.8,2.3-22.5c0.4-0.5,3.1-4.9,0.4-3.2c-2.9,1.8-5.2,4.7-7.2,7.4
		c-10.6,14.5-5.5,34.3-1.3,50.3c2.1,8,4.6,15.8,6.7,23.8c2.2,8.4,1.7,17.6-0.7,26.1c-1,1.2-1.8,2.3-2.3,2.9c-0.3,0.4-4,5-2.2,5h15.9
		c-3,2.9-6,5.8-8.9,8.7c-13.3,13.4-26,27.4-38.5,41.5c-0.5,0.6-5.1,5.6-4,6.5c1.1,1,5.5-4.2,6-4.7c12.5-14,25.2-27.9,38.4-41.2
		c3.7-3.7,7.5-7.2,11.3-10.8H463c0.8,0,1.7-0.6,2.7-1.5c10.3-3.6,21.1-1.1,27.4,8.4c0.4,0.5,7.4-5.2,9.5-8.9c1.5-1.6,3-3.6,3-5.1
		v-46.6c11.2,4.9,21.8,11.7,30.6,20c4.2,3.9,8,8.5,9.9,14c0.9,2.8,1.2,6.2,0.6,9.2c-0.5,0.4-1,0.8-1.5,1.3c-1,0.8-1.9,1.5-2.9,2.2
		c0.3-1.3,0.1-2.6-1-3.6c-3.2-3-11.6-2.1-15.7-2.4c-2.6-0.1-5.2-0.2-7.8-0.1c-2.3,0.1-5.6,4.7-6.8,6.3c-0.3,0.4-4,5.1-2.2,5
		c3.5-0.1,7.1,0.1,10.6,0.3c3.8,0.2,7.9,0.2,11.4,1.7c0.6,0.3,1.1,0.8,1.4,1.3c0,0.1,0.1,0.2,0.1,0.4c-0.2,0.2-0.4,0.5-0.5,0.7
		c-0.4,0.5-3,5-0.4,3.3c8.6-5.7,18-12.4,23.4-21.4C558.8,348.3,557.3,339.9,553.4,333.7"/>
	<path fill="#000000" d="M260.1,251.3c0.4,0.1,1,0,1.5-0.3h133.1c-0.6,0.6-1.1,1.2-1.6,1.7c-0.5,0.5-5.1,5.3-3.9,6.3c1.1,1,5.5-4,6-4.6
		c1-1.1,2.1-2.3,3.2-3.4h50.3c0.4,1,0.5,2,0.4,3.1c-0.2,1.6,4.5-2.5,4.7-2.7c0.1-0.1,0.2-0.2,0.4-0.3h85.3c2.2,0,5.6-4.7,6.8-6.1
		c0.3-0.4,4-4.9,2.2-4.9h-90c-2-4.4-7.8-7.8-11.3-10.2c-6.1-4.2-14.3-8-10.8-16.5c1-0.8,2-1.6,3.1-2.4c2.7-2,5.2-3.9,8.4-5.1
		c6-2.2,12.2,0.6,17.3,3.5c8.9,5,18.7,11.5,28.7,5.1c2.8-1.8,5.2-4.5,7.2-7.1c0.3-0.5,3-4.8,0.4-3.1c-12.8,8.2-25.9-8.7-38.3-10
		c-6.3-0.7-11.4,2.9-16.1,6.3c-5.5,3.9-10.7,8.2-15,13.4c-3.4,4-6.7,8.5-6.7,13.9c0,4.3,2.6,6.5,5.9,8.8c1.3,0.9,3.2,2.1,5.3,3.4
		h-29.1c3.2-4.7,5.2-9.9,4-15.3c-1.5-6.7-5-12.3-8.7-18.1c-3.4-5.3-8.8-12.7-7.4-19.1h89.7c0.2,0,0.4,0,0.6-0.1
		c0,0.3,0.1,0.4,0.5,0.4c12.4,0,33.8-1.4,41.2,10.3c0.4,0.5,12.3-8.5,10.5-11.3c-7.6-11.8-29.7-10.4-42.2-10.4c-0.2,0-0.4,0-0.6,0.1
		c0-0.3-0.1-0.4-0.5-0.4H347.1c2.7-2.7,5.2-5.6,7.5-8.5c7.4-9.8,9.3-21.6,4-32.7c-4.6-9.6-13.8-15.5-24.2-18c1.5-2.1,3-4.1,4.5-6.2
		c0.4-0.5,3.2-4.9,0.4-3.2c-3,1.7-5.6,4.7-7.6,7.4c-0.3,0.4-0.6,0.9-1,1.3c-1.4-0.2-2.8-0.4-4.2-0.5c-2.4-0.3-4.8-0.6-7.2-0.6
		c-5.8-0.1-12.2,1.4-17.7,3.3c-10.4,3.5-19,11.3-25.3,19.6c-11.4,15.1-12.5,34.4-2.8,50.6c0.3,0.4,12.3-8.4,10.5-11.3
		c-7.1-11.9-8.9-26.7-3-39.4c1.3-2.7,1.7-3.2,3.1-4.3c3.4-2.5,7.6-4,11.6-5.1c9.1-2.5,17.4-2,26.2-0.4
		c-8.9,12.1-17.8,24.2-26.6,36.3c-0.2,0.2-2.9,3.8-1.2,3.6c4.1-0.5,9.4,5.3,12.1,7.5c4.8,4,9.6,8.3,15.4,11.2c3.6,1.8,6.8,1.4,10,0
		c-0.1,0.4,0,0.7,0.5,0.7h61.7c-1.3,0.9-2.8,2.1-2.9,2.2c-2,2-4.6,4.5-5.4,7.3c-1.2,4.5,0.5,8.1,2.7,12c2.7,4.8,5.5,9.5,8.4,14.2
		c3.1,5.1,5.6,10.8,5.2,16.8h-36.6c0.4-0.5,0.7-0.9,1-1.4c3.7-5.2,5.8-10.9,5.5-17.3c-0.4-7-6.2-10.4-12.5-12.1
		c-10.4-2.8-22-1.6-32.7-1c-12.4,0.6-25.1,1.4-37.4-0.3c-9.6-1.3-20-4.6-24.4-13.6c-0.1-0.1-11.5,7.8-10,10.9
		c4.1,8.4,13.3,11.7,22.2,13.3c10.9,2,22.3,1.6,33.4,1.1c10.3-0.4,20.7-1.5,30.9-0.6c6,0.5,12.3,1.7,17,5.6
		c3.8,3.2,4.3,10.5,2.4,15.5h-90.7c-5.2-1.7-8.9-6.7-10.7-11.7c-0.3-0.9-5.8,4.5-6,4.7c-1,1.2-4.6,4.6-4,6.5
		C251.2,244.6,254.9,249.6,260.1,251.3 M338.1,176.7c-3.9,1.3-9-2.7-11.9-4.7c-4.5-3.2-8.5-6.8-12.8-10.2c-2.2-1.8-5.2-4.5-8.3-4.9
		c6.8-9.3,13.6-18.6,20.5-27.9c0.4,0.1,0.8,0.2,1.1,0.2c17.3,5.8,30.1,22.9,21.8,40.7c-0.3,0.6-0.6,1.3-1,1.9
		c-0.1,0.1-0.3,0.2-0.5,0.4C344.4,174,341.2,175.7,338.1,176.7"/>
	<path fill="#000000" d="M349.4,101.4h33.7c-6,5.5-11.9,11-18.1,16.3c-2.7,2.3-5.2,4.9-7,8c-1.3,2.2-0.6,3,1.4,1.3c10.1-8.6,19.6-18.1,29.8-26.6
		c2.7-2.2,5.2-5,7-8c1.3-2.2,0.6-3-1.4-1.3c-0.3,0.3-0.7,0.6-1,0.9c0.6-1,0.8-1.9,0.1-1.9h-35.4c-2.2,0-5.6,4.8-6.8,6.3
		C351.3,96.7,347.7,101.4,349.4,101.4"/>
	<path fill="#000000" d="M290.6,340.9h37.9c1.9,1.8,3.6,3.8,4.8,6.4c0,0,5.4-3.7,6.9-6.4h13.8c0.4,0,0.8-0.2,1.2-0.5c1.1-0.4,2.1-1,3.1-1.7
		c2.2-1.6,4.1-3.8,5.7-6c0.4-0.6,1.1-1.5,1.2-2.2c0.1-0.7-0.7-0.2-0.9-0.1c-0.7,0.5-1.4,1.1-2,1.7c-0.2,0.1-0.4,0.1-0.5,0.2
		c-0.3,0.1-0.7,0.3-1,0.5c0,0-0.1-0.1-0.2-0.1h-24.7c-2.6-2.6-5.7-4.7-8.5-7.1c-2.8-2.4-4.6-5.4-5-9.2c0-0.8,0-1.5,0.1-2.3
		c0-0.7,1.7-3.6,0.2-2.2c0.9-0.8,3-2.6,4.3-2.2c1.8,0.5,3.5,2.2,4.8,3.4c2,1.7,3.9,3.3,6,4.8c4.9,3.4,8.1,1.5,11.7-2.7
		c0.4-0.4,3.6-4,2.8-4.7c-0.4-0.3-1.2,0.3-2.1,1.1c-0.3,0.1-1,0.3-2.1-0.1c-1.2-0.3-2.2-1-3.2-1.7c-2.5-1.7-4.7-3.7-7-5.7
		c-1.2-1-3-2.8-4.7-2.7c-3.4,0.2-7.7,4.6-9.9,6.9c-6,6.4-11.6,14.7-5.2,22.9c0.4,0.5,0.8,0.9,1.2,1.4h-21.9c-1.6,0-4,3.4-4.9,4.5
		C291.9,337.6,289.3,340.9,290.6,340.9"/>
	<path fill="#000000" d="M267.9,339.1c0,0.3,0.4,0.2,1-0.3c1.3-1,2.6-2.4,3.4-3.9c2.4-4.3,3.6-8.9,4.8-13.6c0.5-2,1.1-3.9,1.7-5.9
		c0.3-1,0.6-1.9,1-2.8c0.2-0.4,0.4-0.8,0.6-1.2c0.1-0.3,0.4-0.6,0.5-0.8c-0.1,0.1-0.4,0.4-0.8,0.7c0.3-0.2,0.6-0.5,0.9-0.8
		c0.1-0.1,0.2-0.2,0.1-0.1c0.9-0.9,1.8-1.9,2.4-3c0.7-1.1,0.3-1.4-0.7-0.6c-4.2,3.4-7.1,7.9-8.7,13.1c-1,2.9-1.6,6-2.4,9
		c-1.5-9.8-4.2-22-15.5-22.3c-1.1,0-2.8,2.4-3.3,3.1c-0.2,0.2-1.9,2.4-1.1,2.4c12.8,0.3,14.2,17.3,15.7,26.8
		C267.5,339.2,267.6,339.2,267.9,339.1"/>
	<path fill="#000000" d="M258.8,133.2c0,0.2,0.2,0.2,0.4,0.2c0,0.3,0.4,0.2,1-0.3c1.3-1,2.6-2.4,3.4-3.9c2.4-4.3,3.6-8.9,4.8-13.6
		c0.5-2,1-3.9,1.6-5.9c0.3-1,0.7-1.9,1-2.8c0.2-0.4,0.4-0.8,0.5-1.2c0.2-0.3,0.4-0.6,0.5-0.8c-0.1,0.1-0.4,0.4-0.8,0.7
		c0.3-0.2,0.6-0.5,0.9-0.8c0.1-0.1,0.1-0.2,0.1-0.1c0.9-0.9,1.8-1.9,2.4-3c0.6-1.1,0.3-1.4-0.7-0.6c-4.2,3.4-7.1,7.9-8.8,13.1
		c-0.9,2.9-1.6,6-2.4,9c-1.5-9.8-4.2-22.1-15.5-22.3c-1.1,0-2.8,2.4-3.3,3.1c-0.2,0.2-1.9,2.4-1.1,2.5
		C255.9,106.7,257.3,123.8,258.8,133.2"/>
	<path fill="#000000" d="M291.1,298.6c-1.2,2-0.5,2.3,1.2,1.1c11.6-8.3,23.7-16.1,34.7-25.3c2.3-1.9,4.4-4.2,6-6.8c1-1.7,0.6-2.4-0.9-1.4
		c-0.1-0.1-0.1-0.1-0.3-0.1c-4.4,1.2-9,0.4-13.5,0.6c-5,0.2-10,0.2-15,0.2c-4.9,0-13.9,0.5-15.5-5.7c-0.2-0.7-4.9,3.8-5.1,4
		c-1,1.1-3.8,3.8-3.4,5.6c1.5,6.1,10.6,5.7,15.5,5.7c4.7,0,9.5,0,14.2-0.2c3.1-0.1,6.4,0.2,9.7,0c-7.1,5.2-14.5,10.1-21.7,15.2
		C294.8,293.5,292.6,296.1,291.1,298.6"/>
	<path fill="#000000" d="M257.6,160.9c4.3,5.4-3.3,14-6.2,18.1c-0.2,0.3-2.1,2.9-1.5,3.3c0.6,0.4,2.4-2.2,2.6-2.5c2.7-3.7,5.4-7.3,7.5-11.4
		c1.8-3.5,3.8-7.2,2.8-11.2c-1.5-6.1-9.2-4.3-12.9-1.6c-1.3,0.9-2.3,2.5-3,3.8c-0.2,0.3-1.2,2.4,0,1.5
		C249.8,158.7,255,157.6,257.6,160.9"/>
	<path fill="#000000" d="M314.1,106.6c1.2-1,2.2-2.5,2.9-3.9c0.2-0.3,1.1-2.4,0-1.5c-3,2.3-8.1,3.5-10.9,0.2c-4.4-5.2,2.9-14.1,5.8-18.2
		c0.2-0.3,2-2.9,1.5-3.3c-0.6-0.4-2.3,2.3-2.5,2.6c-2.6,3.7-5.2,7.5-7.2,11.6c-1.7,3.5-3.6,7.3-2.5,11.3
		C302.9,111.3,310.5,109.4,314.1,106.6"/>
	<path fill="#000000" d="M476,254.3c-0.5-0.4-2.1,2.1-2.3,2.4c-2.4,3.5-4.8,6.9-6.7,10.7c-1.6,3.2-3.3,6.8-2.3,10.5c1.5,5.6,8.6,3.8,12,1.2
		c1.1-0.9,2-2.4,2.7-3.6c0.1-0.3,1.1-2.3,0-1.4c-2.8,2.2-7.5,3.3-10.1,0.2c-4.1-4.9,2.7-13.1,5.4-16.9
		C474.8,257.1,476.5,254.7,476,254.3"/>
	<path fill="#000000" d="M256.3,291.1c0.6,0.4,2.4-2.2,2.6-2.5c2.7-3.7,5.4-7.3,7.5-11.4c1.8-3.5,3.8-7.2,2.8-11.2c-1.5-6.1-9.2-4.3-12.9-1.6
		c-1.3,0.9-2.3,2.5-3,3.8c-0.2,0.3-1.2,2.4,0,1.5c3.1-2.3,8.2-3.3,10.9,0c4.2,5.4-3.3,14-6.3,18.1
		C257.6,288.1,255.7,290.7,256.3,291.1"/>
	<path fill="#000000" d="M466.7,116.1c1.3,0.8,3.9,0.3,5.3,0.1c0.2,0,3.7-0.7,2.9-1.2c-5.9-3.5-5.9-11.5-1.7-16.4c1-1.2,2.4-2.1,3.8-2.8
		c0.3-0.2,0.6-0.3,1-0.4c0.1,0,0.2,0,0.4,0.1c2.9,0.7,5.5,3.1,7.2,5.4c2.8,3.9,2.9,8.9,1.1,13.2c-1.6,3.7-5.9,8.4-10.2,8.9
		c-21.9,0.4-43.8,0.8-65.7,1.2c-1.5,0-4,0-5.2,1c-0.7,0.6,2.9,0.7,3.1,0.7c21.6-0.4,43.1-0.8,64.7-1.2c0.7,0,1.6,0,2.2,0
		c0,0,0.1,0,0.1,0c1.2,0,3,0,4.3-0.5c5.7-1,11-3.5,14.1-8.7c3.7-6.1,2.8-13-2.4-17.9c-5.7-5.6-16.6-5.1-23.2-1.3
		C461.4,100.4,458.6,111.2,466.7,116.1 M477.8,95.4C476.9,95.5,477,95.3,477.8,95.4"/>
	<path fill="#000000" d="M439.8,287.8c-0.7,0.6,3,0.7,3.1,0.7c21.7-0.5,43.5-0.9,65.2-1.4c0.7,0,1.6,0,2.2,0c0,0,0.1,0,0.1,0c1.2,0,3.1,0,4.4-0.5
		c5.7-1,11-3.6,14-8.8c3.5-6.2,2.4-13.1-3-18.1c-6-5.6-17-5.1-23.5-1.3c-7.1,4.2-9.6,15.1-1.2,20c1.4,0.8,3.9,0.3,5.3,0.1
		c0.2,0,3.8-0.7,2.9-1.2c-6-3.5-6.3-11.6-2.2-16.5c1-1.2,2.4-2.1,3.7-2.8c0.3-0.2,0.6-0.3,1-0.4c0.1,0,0.2,0,0.4,0.1
		c3,0.7,5.7,3.1,7.5,5.5c3,3.9,3.2,9,1.5,13.3c-1.5,3.7-5.7,8.5-10,9c-22.1,0.5-44.2,0.9-66.3,1.4
		C443.6,286.8,441,286.8,439.8,287.8 M511.7,257.5C510.8,257.6,510.9,257.4,511.7,257.5"/>
	<polygon points="416.2,392.8 430.6,407.2 445,392.8 430.6,378.4 	"/>
	<polygon points="353.4,255.8 340.7,268.6 350.9,278.7 340.7,288.9 353.4,301.6 366.1,288.9 355.9,278.7 366.1,268.6 	"/>
	<path fill="#000000" d="M257.6,459.3c-1,0-1.6-0.8-1.6-1.8c0-1,0.7-1.8,1.7-1.8c1,0,1.7,0.7,1.7,1.8C259.4,458.6,258.7,459.3,257.6,459.3
		L257.6,459.3z M271.9,457c0,0,1.8,2,0.5,2c-1.9,0-3.2-0.8-4.1-1.9v1c0,4.4-1.7,6.8-5.9,7l-0.3-2c2.3-0.2,3.8-0.8,3.7-5.9v-8.4
		l2.5-0.9v6c0,1.5,1.4,3.1,3.2,3.1H271.9z M271.6,464.9c-0.8,0-1.4-0.6-1.4-1.4c0-0.8,0.6-1.4,1.4-1.4c0.8,0,1.4,0.6,1.4,1.4
		C273,464.3,272.5,464.9,271.6,464.9L271.6,464.9z M280.5,457c0,0,1.8,2,0.5,2c-2.2,0-3.6-1.1-4.6-2.7c-0.6,1.6-2,2.7-3.9,2.7
		l-0.9-2c1.9,0,2.8-1.6,2.8-3.7v-7.4l2.5-0.9v8.5c0,1.8,1.2,3.4,3.2,3.5H280.5z M275.5,464.9c-0.8,0-1.4-0.6-1.4-1.4
		c0-0.8,0.6-1.4,1.4-1.4c0.8,0,1.4,0.6,1.4,1.4C276.9,464.3,276.4,464.9,275.5,464.9L275.5,464.9z M286.7,457h-5.7v2h5.7V457z
		 M307.6,457c0,0,1.8,2,0.5,2h-21.5l-0.9-2H300c0.1-0.6,0.2-1.3,0.2-2.1c0-5-3-7.8-7.4-7.8c-1.6,0-2.9,0.3-3.8,0.8l-0.6-2
		c0.6-0.3,2.2-0.8,4.5-0.8c5.9,0,10,4,10,10c0,0.7-0.1,1.4-0.1,2h4.5H307.6z M293.1,441.8c-0.8,0-1.4-0.7-1.4-1.5
		c0-0.8,0.6-1.4,1.4-1.4c0.8,0,1.4,0.6,1.4,1.4C294.5,441.1,294,441.8,293.1,441.8L293.1,441.8z M307.2,457c2,0,3-1.6,3-4.2v-6.9
		l2.5-0.9v8c0,4.7-2.7,5.9-4.5,5.9L307.2,457z M311.2,464.9c-0.8,0-1.4-0.6-1.4-1.4c0-0.8,0.6-1.4,1.4-1.4c0.8,0,1.4,0.6,1.4,1.4
		C312.7,464.3,312.1,464.9,311.2,464.9L311.2,464.9z M351.7,457c0,0,1.8,2,0.5,2h-2.5c-0.6,3.5-3,5.7-6,5.7c-3.1,0-5.4-2.2-5.9-5.7
		c-0.7-0.2-1-0.2-1.6-0.2c-1.9,0-3.4,1.1-4.3,3.2c-0.3,0.7-0.7,1.6-1,2.6h-2.5c0.7-1.6,1.2-3.1,1.4-3.4c1.1-2.5,3-4.2,5.2-4.4
		c1-0.1,2.1-0.1,2.7,0.1v-0.5c0.4-3.6,2.8-6.1,6.1-6.1c3.5,0,5.8,2.6,6,6.6h1.5H351.7z M343.6,462.9c2.5,0,3.6-2.8,3.6-5.4
		c0-2.6-1.2-5.2-3.6-5.2c-2.4,0-3.7,2.6-3.7,5.4C340,460.3,341.2,462.9,343.6,462.9L343.6,462.9z M357.9,457h-5.7v2h5.7V457z
		 M363.6,457h-5.7v2h5.7V457z M362.7,441.8c-0.8,0-1.4-0.7-1.4-1.5c0-0.8,0.6-1.4,1.4-1.4c0.8,0,1.4,0.6,1.4,1.4
		C364.1,441.1,363.6,441.8,362.7,441.8L362.7,441.8z M371.5,457c0,0,1.8,2,0.5,2c-2.2,0-3.6-1.1-4.6-2.7c-0.6,1.6-2,2.7-3.8,2.7
		l-0.9-2c1.9,0,2.8-1.6,2.8-3.7v-7.4l2.5-0.9v8.5c0,1.8,1.3,3.4,3.2,3.5H371.5z M366.5,441.8c-0.8,0-1.4-0.7-1.4-1.5
		c0-0.8,0.6-1.4,1.4-1.4c0.8,0,1.3,0.6,1.3,1.4C368,441.1,367.4,441.8,366.5,441.8L366.5,441.8z M371.1,457c2,0,2.9-1.6,2.9-4.2
		v-6.9l2.5-0.9v8c0,4.7-2.7,5.9-4.5,5.9L371.1,457z M375.2,441.8c-0.8,0-1.4-0.7-1.4-1.5c0-0.8,0.6-1.4,1.4-1.4
		c0.8,0,1.4,0.6,1.4,1.4C376.6,441.1,376,441.8,375.2,441.8L375.2,441.8z M380.3,436.8h1.4c-0.1-0.2-0.3-0.8-0.3-1.1
		c0-1.4,0.9-2.5,2.5-2.5c0.5,0,1.1,0.2,1.4,0.4l-0.4,1.1c-0.3-0.2-0.7-0.3-1-0.3c-0.8,0-1.1,0.6-1.1,1.2c0,0.7,0.5,1.1,1.1,1.1h1.7
		L385,438h-4.2L380.3,436.8z M381.8,439.8l2.5-0.9V459h-2.5V439.8z M396.8,463c2.4-0.3,3.4-1.1,3.6-4c-0.8,0.2-1.7,0.3-2.8,0.3
		c-4.2,0-6.7-2.8-6.7-6.9c0-4.1,2.4-7.4,6.4-7.4c4.5,0,5.6,2.8,5.6,6.4v6.4c0,4.4-1.7,7.1-5.9,7.2L396.8,463z M393.3,452.2
		c0,3.8,2.2,5.2,4.7,5.2c1,0,1.8-0.1,2.5-0.2v-6.6c0-1.6-0.7-3.8-3.3-3.8C394.6,446.8,393.2,449.2,393.3,452.2z M440.1,457
		c-0.2-4-2.6-6.6-6-6.6c-3.3,0-5.6,2.4-6,6.1v0.5c-0.7-0.2-1.7-0.2-2.7-0.1c-2.2,0.3-4.2,2-5.2,4.4c-0.2,0.3-0.8,1.8-1.4,3.4h2.5
		c0.4-1,0.7-1.9,1-2.6c0.9-2.1,2.4-3.2,4.4-3.2c0.5,0,0.9,0,1.6,0.2c0.5,3.5,2.8,5.7,5.9,5.7c3,0,5.5-2.3,6.1-5.7
		C440,458.7,440.1,457.2,440.1,457z M433.9,462.9c-2.4,0-3.6-2.6-3.6-5.2c0-2.8,1.2-5.4,3.6-5.4c2.5,0,3.6,2.6,3.6,5.2
		C437.6,460.1,436.5,462.9,433.9,462.9L433.9,462.9z M450.1,457c0,0,1.8,2,0.5,2h-2c-1.8,0-4.7-1.2-4.7-5.9v-13.2l2.5-0.9v13.8
		c0,2.6,0.8,4.2,2.8,4.2h0.6H450.1z M456.3,457h-5.7v2h5.7V457z M462,457h-5.7v2h5.7V457z M461.2,457h4.5c-1.1-1.2-1.8-2.9-1.8-5
		c0-4.2,2.9-7.3,7.4-7.3c1.5,0,2.8,0.4,3.5,0.7l-0.6,1.9c-0.6-0.3-1.5-0.6-2.9-0.6c-3.1,0-4.8,2.3-4.8,5.2c0,3.1,2,5.1,4.6,5.1h4.5
		l-1,2H462L461.2,457z M508.9,457c0,0,1.8,2,0.5,2c-1.9,0-3-0.7-4-1.9c-0.2,5.5-3.2,7.8-7.2,7.8c-4.1-0.1-7.1-2.4-7.1-8.2v-3.4
		l2.5-0.9v4.5c0,4.2,1.8,6.1,4.6,6.1c2.8,0,4.7-1.9,4.7-6.1v-17l2.5-0.9v14.9c0.1,1.6,1.4,3.1,3.1,3.1H508.9z M515.2,457h-5.7v2h5.7
		V457z M514.3,457h9.5c0,0-1.7-4.4-2.4-6c-0.9-2.1-2.4-3.2-4.3-3.2c-0.6,0-1.1,0-1.8,0.2l6.5-8.1h3.1l-5.7,6.4
		c2.1,0.1,3.5,1.8,4.4,3.9c0.4,0.9,3.1,7.6,3.7,8.7h-12.1L514.3,457z M538.4,463c2.4-0.3,3.4-1.1,3.6-4c-0.8,0.2-1.7,0.3-2.7,0.3
		c-4.2,0-6.7-2.8-6.7-6.9c0-4.1,2.4-7.4,6.4-7.4c4.5,0,5.6,2.8,5.6,6.4v6.4c0,4.4-1.7,7.1-5.9,7.2L538.4,463z M534.9,452.2
		c0,3.8,2.2,5.2,4.7,5.2c1,0,1.8-0.1,2.5-0.2v-6.6c0-1.6-0.7-3.8-3.3-3.8C536.2,446.8,534.8,449.2,534.9,452.2z"/>
</g>
<path fill="#000000" d="M273.602,481.306c-0.578-0.576-1.301-1.03-2.174-1.362c-0.873-0.331-1.885-0.497-3.039-0.497
	c-0.663,0-1.463,0.079-2.4,0.238v-6.077h-1.535v17.711c0.706,0.202,1.402,0.354,2.087,0.454s1.301,0.151,1.849,0.151
	c1.153,0,2.166-0.162,3.039-0.486s1.596-0.764,2.174-1.319c0.576-0.555,1.006-1.211,1.287-1.968s0.42-1.561,0.42-2.411
	s-0.139-1.657-0.42-2.422C274.608,482.554,274.178,481.883,273.602,481.306z M272.391,489.167c-0.852,0.829-2.17,1.243-3.958,1.243
	c-0.39,0-0.805-0.032-1.244-0.097c-0.439-0.065-0.84-0.134-1.2-0.206v-8.845c0.447-0.115,0.887-0.194,1.319-0.237
	c0.433-0.044,0.808-0.065,1.125-0.065c0.894,0,1.668,0.112,2.325,0.335c0.656,0.224,1.199,0.545,1.633,0.963
	c0.432,0.418,0.752,0.919,0.961,1.503s0.314,1.243,0.314,1.979C273.667,487.195,273.241,488.338,272.391,489.167z M247.392,479.446
	c-0.62,0-1.297,0.079-2.033,0.238c-0.735,0.158-1.485,0.433-2.249,0.821l-0.065,1.73c0.548-0.303,0.973-0.52,1.276-0.649
	s0.624-0.237,0.962-0.324c0.338-0.086,0.677-0.158,1.016-0.216s0.667-0.087,0.984-0.087c1.139,0,1.982,0.249,2.53,0.746
	s0.822,1.33,0.822,2.498v0.13c-0.332-0.044-0.732-0.087-1.2-0.13c-0.469-0.043-0.876-0.065-1.222-0.065
	c-1.831,0-3.302,0.311-4.412,0.931c-1.11,0.619-1.665,1.644-1.665,3.07c0,0.707,0.155,1.305,0.465,1.795
	c0.31,0.49,0.713,0.88,1.211,1.168s1.067,0.497,1.708,0.627c0.641,0.13,1.308,0.194,2,0.194c0.807,0,1.6-0.072,2.378-0.216
	c0.779-0.145,1.536-0.368,2.271-0.671v-7.028c0-1.585-0.397-2.742-1.189-3.471C250.189,479.811,248.992,479.446,247.392,479.446z
	 M250.636,489.892c-0.375,0.144-0.858,0.267-1.449,0.367c-0.591,0.102-1.183,0.151-1.773,0.151c-0.505,0-0.984-0.035-1.438-0.108
	c-0.454-0.071-0.84-0.197-1.157-0.378c-0.317-0.18-0.57-0.414-0.757-0.703c-0.188-0.288-0.281-0.663-0.281-1.124
	c0-0.52,0.111-0.934,0.335-1.244c0.224-0.31,0.533-0.551,0.93-0.724c0.396-0.174,0.85-0.296,1.362-0.368
	c0.511-0.072,1.041-0.108,1.589-0.108c0.476,0,0.984,0.029,1.524,0.087c0.541,0.058,0.912,0.108,1.114,0.151V489.892z
	 M258.032,479.868c-0.649,0.122-1.276,0.263-1.881,0.422v11.418h1.535v-10.186c0.202-0.072,0.563-0.147,1.082-0.228
	c0.519-0.079,1.002-0.118,1.449-0.118h1.989v-1.492H260C259.336,479.685,258.681,479.746,258.032,479.868z M-77.92,487.667
	l241.145,0.656l0.663-0.433l-0.632-0.564L-77.92,487.667z M164.994,487.825l1.95,1.95l1.95-1.95l-1.95-1.95L164.994,487.825z
	 M169.559,487.825l3.057,3.057l3.057-3.057l-3.057-3.057L169.559,487.825z M212.359,489.286l-3.395-9.602h-1.514l-3.396,9.602
	l-2.984-9.602h-1.73l3.979,12.023h1.428l3.46-9.645l3.46,9.645h1.427l3.979-12.023h-1.73L212.359,489.286z M238.418,489.589
	c-0.317,0-0.591,0.115-0.822,0.346c-0.231,0.23-0.346,0.505-0.346,0.822c0,0.316,0.115,0.591,0.346,0.821
	c0.23,0.23,0.504,0.346,0.822,0.346c0.317,0,0.591-0.115,0.822-0.346c0.23-0.23,0.346-0.505,0.346-0.821
	c0-0.317-0.116-0.592-0.346-0.822C239.009,489.704,238.735,489.589,238.418,489.589z M193.243,489.286l-3.395-9.602h-1.514
	l-3.396,9.602l-2.984-9.602h-1.73l3.979,12.023h1.428l3.46-9.645l3.46,9.645h1.427l3.979-12.023h-1.73L193.243,489.286z
	 M231.476,489.286l-3.395-9.602h-1.514l-3.396,9.602l-2.984-9.602h-1.73l3.979,12.023h1.428l3.46-9.645l3.46,9.645h1.427
	l3.979-12.023h-1.73L231.476,489.286z M382.732,480.474c-0.426-0.396-0.938-0.667-1.535-0.812c-0.598-0.144-1.271-0.216-2.021-0.216
	c-0.664,0-1.393,0.09-2.184,0.271c-0.793,0.181-1.471,0.4-2.033,0.659c-0.346-0.331-0.818-0.569-1.416-0.714
	c-0.6-0.144-1.273-0.216-2.023-0.216c-0.635,0-1.268,0.058-1.902,0.173l-2.465,0.454v11.635h1.535v-10.38
	c0.447-0.102,0.883-0.188,1.309-0.26c0.424-0.072,0.896-0.108,1.416-0.108c0.605,0,1.125,0.058,1.557,0.173
	c0.434,0.116,0.789,0.321,1.07,0.616c0.281,0.296,0.494,0.711,0.639,1.244s0.217,1.24,0.217,2.119v6.596h1.535v-7.201
	c0-0.663-0.055-1.243-0.162-1.741c-0.109-0.497-0.213-0.861-0.314-1.092c0.086-0.043,0.281-0.119,0.584-0.228
	c0.303-0.107,0.602-0.197,0.898-0.27c0.295-0.072,0.586-0.126,0.875-0.162s0.547-0.055,0.779-0.055c0.59,0,1.102,0.058,1.535,0.173
	c0.432,0.116,0.781,0.317,1.049,0.605c0.266,0.289,0.471,0.703,0.615,1.244c0.145,0.54,0.217,1.251,0.217,2.13v6.596h1.535v-7.201
	c0-0.995-0.111-1.816-0.336-2.466C383.482,481.393,383.158,480.87,382.732,480.474z M280.1,474.581
	c-0.785,0.648-1.18,1.729-1.18,3.243v1.86h-2.551v1.492h2.551v10.531h1.537v-10.531h4.973v-1.492h-4.973v-1.471
	c0-0.635,0.045-1.149,0.141-1.546c0.094-0.396,0.24-0.707,0.443-0.931c0.201-0.223,0.475-0.385,0.82-0.486
	c0.346-0.101,0.779-0.151,1.299-0.151h2.422v-1.492h-2.271C281.956,473.607,280.885,473.932,280.1,474.581z M398.273,487.825
	l3.057,3.057l3.057-3.057l-3.057-3.057L398.273,487.825z M343.322,482.322c0.389-0.418,0.854-0.749,1.395-0.994
	s1.135-0.368,1.783-0.368c0.736,0,1.373,0.076,1.914,0.228s1.121,0.414,1.74,0.789l0.715-1.405c-0.707-0.39-1.393-0.674-2.055-0.854
	c-0.664-0.181-1.436-0.271-2.314-0.271c-0.85,0-1.639,0.155-2.367,0.465c-0.729,0.311-1.367,0.746-1.914,1.309
	c-0.549,0.563-0.98,1.222-1.297,1.979c-0.317,0.757-0.476,1.59-0.476,2.498s0.158,1.74,0.476,2.497
	c0.316,0.757,0.748,1.413,1.297,1.969c0.547,0.555,1.186,0.987,1.914,1.297c0.729,0.311,1.518,0.465,2.367,0.465
	c0.879,0,1.65-0.09,2.314-0.27c0.662-0.181,1.348-0.466,2.055-0.854l-0.715-1.406c-0.619,0.375-1.199,0.639-1.74,0.79
	s-1.178,0.227-1.914,0.227c-0.648,0-1.242-0.119-1.783-0.356c-0.541-0.238-1.006-0.565-1.395-0.984
	c-0.391-0.418-0.693-0.915-0.908-1.492c-0.217-0.576-0.324-1.203-0.324-1.881s0.107-1.305,0.324-1.882
	C342.628,483.238,342.931,482.741,343.322,482.322z M404.387,487.825l1.949,1.95l1.951-1.95l-1.951-1.95L404.387,487.825z
	 M410.701,487.326l-0.664,0.433l0.633,0.564l241.176-0.341L410.701,487.326z M362.611,481.295c-0.549-0.569-1.193-1.02-1.936-1.352
	c-0.742-0.331-1.547-0.497-2.412-0.497c-0.863,0-1.668,0.166-2.41,0.497c-0.742,0.332-1.389,0.782-1.936,1.352
	c-0.549,0.57-0.977,1.229-1.287,1.979c-0.311,0.749-0.465,1.557-0.465,2.422s0.154,1.672,0.465,2.422s0.738,1.409,1.287,1.979
	c0.547,0.569,1.193,1.017,1.936,1.341s1.547,0.486,2.41,0.486c0.865,0,1.67-0.162,2.412-0.486s1.387-0.771,1.936-1.341
	c0.547-0.569,0.977-1.229,1.287-1.979c0.309-0.75,0.465-1.557,0.465-2.422s-0.156-1.673-0.465-2.422
	C363.587,482.524,363.158,481.865,362.611,481.295z M362.394,487.523c-0.217,0.569-0.52,1.067-0.908,1.492
	c-0.389,0.426-0.857,0.765-1.406,1.017c-0.547,0.252-1.152,0.378-1.816,0.378c-0.662,0-1.268-0.126-1.816-0.378
	c-0.547-0.252-1.016-0.591-1.404-1.017c-0.391-0.425-0.693-0.923-0.908-1.492c-0.217-0.569-0.324-1.179-0.324-1.827
	c0-0.649,0.107-1.262,0.324-1.839c0.215-0.576,0.518-1.077,0.908-1.503c0.389-0.425,0.857-0.764,1.404-1.016
	c0.549-0.252,1.154-0.379,1.816-0.379c0.664,0,1.27,0.127,1.816,0.379c0.549,0.252,1.018,0.591,1.406,1.016
	c0.389,0.426,0.691,0.927,0.908,1.503c0.217,0.577,0.324,1.189,0.324,1.839C362.718,486.345,362.611,486.954,362.394,487.523z
	 M296.221,481.295c-0.547-0.569-1.191-1.02-1.936-1.352c-0.742-0.331-1.545-0.497-2.41-0.497s-1.67,0.166-2.412,0.497
	c-0.742,0.332-1.387,0.782-1.936,1.352c-0.547,0.57-0.977,1.229-1.285,1.979c-0.311,0.749-0.465,1.557-0.465,2.422
	s0.154,1.672,0.465,2.422c0.309,0.75,0.738,1.409,1.285,1.979c0.549,0.569,1.193,1.017,1.936,1.341s1.547,0.486,2.412,0.486
	s1.668-0.162,2.41-0.486c0.744-0.324,1.389-0.771,1.936-1.341c0.549-0.569,0.977-1.229,1.287-1.979s0.465-1.557,0.465-2.422
	s-0.154-1.673-0.465-2.422C297.198,482.524,296.77,481.865,296.221,481.295z M296.006,487.523c-0.217,0.569-0.52,1.067-0.908,1.492
	c-0.391,0.426-0.859,0.765-1.406,1.017c-0.549,0.252-1.154,0.378-1.816,0.378c-0.664,0-1.27-0.126-1.816-0.378
	c-0.549-0.252-1.018-0.591-1.406-1.017c-0.389-0.425-0.691-0.923-0.908-1.492s-0.324-1.179-0.324-1.827
	c0-0.649,0.107-1.262,0.324-1.839c0.217-0.576,0.52-1.077,0.908-1.503c0.389-0.425,0.857-0.764,1.406-1.016
	c0.547-0.252,1.152-0.379,1.816-0.379c0.662,0,1.268,0.127,1.816,0.379c0.547,0.252,1.016,0.591,1.406,1.016
	c0.389,0.426,0.691,0.927,0.908,1.503c0.215,0.577,0.324,1.189,0.324,1.839C296.331,486.345,296.221,486.954,296.006,487.523z
	 M309.381,480.463c-0.455-0.39-0.996-0.656-1.623-0.801c-0.627-0.144-1.309-0.216-2.043-0.216c-0.707,0-1.465,0.047-2.271,0.141
	s-1.701,0.234-2.682,0.422v11.699h1.535v-10.402c1.184-0.23,2.293-0.346,3.33-0.346c0.592,0,1.111,0.062,1.559,0.184
	c0.445,0.123,0.818,0.332,1.113,0.628c0.295,0.295,0.525,0.713,0.691,1.254s0.25,1.251,0.25,2.13v6.553h1.535v-7.201
	c0-0.995-0.119-1.82-0.357-2.477C310.18,481.375,309.834,480.852,309.381,480.463z M318.516,490.054
	c-0.346-0.108-0.619-0.277-0.82-0.509c-0.203-0.23-0.35-0.547-0.443-0.951c-0.096-0.403-0.141-0.922-0.141-1.557v-5.86h4.973v-1.492
	h-4.973v-4.347h-1.537v4.347h-2.551v1.492h2.551v6.466c0,0.764,0.109,1.405,0.326,1.925c0.215,0.519,0.525,0.937,0.93,1.254
	c0.402,0.317,0.867,0.544,1.395,0.682c0.525,0.137,1.105,0.205,1.74,0.205h2.271v-1.492h-2.422
	C319.295,490.216,318.862,490.162,318.516,490.054z M337.784,489.589c-0.316,0-0.59,0.115-0.82,0.346s-0.346,0.505-0.346,0.822
	c0,0.316,0.115,0.591,0.346,0.821s0.504,0.346,0.82,0.346c0.318,0,0.592-0.115,0.822-0.346s0.346-0.505,0.346-0.821
	c0-0.317-0.115-0.592-0.346-0.822S338.102,489.589,337.784,489.589z M333.178,486.106c-0.346-0.303-0.785-0.565-1.318-0.789
	c-0.533-0.223-1.182-0.422-1.947-0.595l-0.799-0.173c-1.053-0.216-1.781-0.461-2.184-0.735c-0.404-0.273-0.607-0.678-0.607-1.211
	c0-0.504,0.238-0.904,0.715-1.2c0.475-0.295,1.174-0.443,2.098-0.443c0.793,0,1.477,0.076,2.055,0.228
	c0.576,0.151,1.217,0.421,1.924,0.811l0.691-1.405c-1.412-0.765-2.969-1.146-4.67-1.146c-0.635,0-1.223,0.076-1.764,0.228
	c-0.539,0.151-1.008,0.364-1.404,0.638s-0.711,0.605-0.941,0.994c-0.23,0.39-0.346,0.815-0.346,1.276
	c0,0.462,0.072,0.88,0.217,1.254c0.143,0.375,0.381,0.707,0.713,0.995s0.758,0.537,1.275,0.746c0.52,0.209,1.146,0.4,1.883,0.573
	l0.908,0.194c1.008,0.217,1.729,0.49,2.162,0.822c0.432,0.331,0.648,0.771,0.648,1.318c0,0.39-0.086,0.707-0.26,0.952
	c-0.172,0.245-0.414,0.436-0.725,0.573c-0.311,0.137-0.678,0.237-1.102,0.303c-0.426,0.064-0.877,0.097-1.352,0.097
	c-0.592,0-1.223-0.09-1.893-0.271c-0.67-0.18-1.352-0.479-2.045-0.897l-0.734,1.471c0.779,0.433,1.539,0.742,2.281,0.93
	s1.539,0.281,2.391,0.281c0.748,0,1.434-0.072,2.053-0.216c0.621-0.145,1.158-0.36,1.611-0.648c0.455-0.289,0.805-0.649,1.049-1.082
	c0.246-0.433,0.369-0.93,0.369-1.492c0-0.476-0.072-0.915-0.217-1.318C333.77,486.763,333.526,486.41,333.178,486.106z"/>
</svg>

