<?xml version="1.0" encoding="utf-8"?>
<!-- Generator: Adobe Illustrator 21.0.0, SVG Export Plug-In . SVG Version: 6.00 Build 0)  -->
<svg version="1.1" id="Layer_1" xmlns="http://www.w3.org/2000/svg" xmlns:xlink="http://www.w3.org/1999/xlink" x="0px" y="0px"
	 viewBox="0 0 800 500" style="enable-background:new 0 0 800 500;" xml:space="preserve">
<style type="text/css">
	.st0{fill:#020202;}
</style>
<g>
	<g>
		<g>
			<path fill="#000000" class="st0" d="M529.5,95.2c0-1,0.8-1.8,1.8-1.8c1,0,1.8,0.8,1.8,1.8c0,0.6-0.3,1.2-0.8,1.5c-0.1,0.1-0.3,0.2-0.4,0.2
				c-0.2,0.1-0.4,0.1-0.6,0.1C530.3,97,529.5,96.2,529.5,95.2z"/>
			<path fill="#000000" class="st0" d="M529.5,81.7c0-1,0.8-1.8,1.8-1.8c1,0,1.8,0.8,1.8,1.8c0,0.6-0.3,1.2-0.8,1.5c-0.1,0.1-0.3,0.2-0.4,0.2
				c-0.2,0.1-0.4,0.1-0.6,0.1C530.3,83.6,529.5,82.7,529.5,81.7z"/>
			<path fill="#000000" class="st0" d="M529.5,68.3c0-1,0.8-1.8,1.8-1.8c1,0,1.8,0.8,1.8,1.8c0,0.6-0.3,1.2-0.8,1.5c-0.1,0.1-0.3,0.2-0.4,0.2
				c-0.2,0.1-0.4,0.1-0.6,0.1C530.3,70.1,529.5,69.3,529.5,68.3z"/>
			<path fill="#000000" class="st0" d="M529.5,54.8c0-1,0.8-1.8,1.8-1.8c1,0,1.8,0.8,1.8,1.8c0,0.6-0.3,1.2-0.8,1.5c-0.1,0.1-0.3,0.2-0.4,0.2
				c-0.2,0.1-0.4,0.1-0.6,0.1C530.3,56.6,529.5,55.8,529.5,54.8z"/>
			<path fill="#000000" class="st0" d="M529.5,41.3c0-1,0.8-1.8,1.8-1.8c1,0,1.8,0.8,1.8,1.8c0,0.6-0.3,1.2-0.8,1.5c-0.1,0.1-0.3,0.2-0.4,0.2
				c-0.2,0.1-0.4,0.1-0.6,0.1C530.3,43.1,529.5,42.3,529.5,41.3z"/>
			<path fill="#000000" class="st0" d="M529.5,28.8c0-1,0.8-1.8,1.8-1.8c1,0,1.8,0.8,1.8,1.8c0,0.6-0.3,1.2-0.8,1.5c-0.1,0.1-0.3,0.2-0.4,0.2
				c-0.2,0.1-0.4,0.1-0.6,0.1C530.3,30.6,529.5,29.8,529.5,28.8z"/>
			<path fill="#000000" class="st0" d="M529.5,15.3c0-1,0.8-1.8,1.8-1.8c1,0,1.8,0.8,1.8,1.8c0,0.6-0.3,1.2-0.8,1.5c-0.1,0.1-0.3,0.2-0.4,0.2
				c-0.2,0.1-0.4,0.1-0.6,0.1C530.3,17.1,529.5,16.3,529.5,15.3z"/>
			<path fill="#000000" class="st0" d="M529.5,1.8c0-1,0.8-1.8,1.8-1.8c1,0,1.8,0.8,1.8,1.8c0,0.6-0.3,1.2-0.8,1.5c-0.1,0.1-0.3,0.2-0.4,0.2
				c-0.2,0.1-0.4,0.1-0.6,0.1C530.3,3.7,529.5,2.8,529.5,1.8z"/>
			<g>
				<g>
					<g>
						<path fill="#000000" class="st0" d="M531.2,115.2l-0.2,0c-2.1-0.1-3.8-1.9-3.8-4c0-2.1,1.7-3.9,3.8-4v0l0.2,0h0h0.2v0c2.1,0.1,3.8,1.9,3.8,4
							c0,2.1-1.7,3.9-3.8,4v0H531.2z M531.2,107.7L531.2,107.7c-2,0-3.6,1.6-3.6,3.6c0,2,1.6,3.6,3.6,3.6h0h0c2,0,3.6-1.6,3.6-3.6
							C534.7,109.3,533.1,107.7,531.2,107.7L531.2,107.7z"/>
					</g>
					<path fill="#000000" class="st0" d="M548.3,178.1V145c0,0,2.1-0.5,2.1-2.3c0-1.8-2.4-2.2-2.4-2.2c0-5.2-2.2-9.4-7.7-12.6
						c-5.6-3.2-7.1-8.4-7.1-8.4s0.4-1.9-1.6-2.1c0.6-0.2,1-0.7,1-1.3c0-0.7-0.6-1.3-1.3-1.4v0c0,0,0,0,0,0c0,0,0,0,0,0v0
						c-0.7,0-1.3,0.6-1.3,1.4c0,0.6,0.4,1.2,1,1.3c-2,0.2-1.6,2.1-1.6,2.1s-1.5,5.2-7.1,8.4c-5.6,3.2-7.7,7.4-7.7,12.6
						c0,0-2.4,0.4-2.4,2.2c0,1.8,2.1,2.3,2.1,2.3v33.1c0,0-1.6,0.3-1.6,2.5c0,2.2,2.6,2,2.6,2v0.6h-0.7c0,0,1.5,8.2,7.7,11.4
						c6.2,3.2,8.4,5.9,8.4,8.2c0,0-1.2-0.1-0.7,0.9c0.4,0.9,1.2,1.1,1.4,1.2v0c0,0,0,0,0,0c0,0,0,0,0,0v0c0.2,0,1-0.3,1.4-1.2
						c0.5-1-0.7-0.9-0.7-0.9c0-2.2,2.2-5,8.4-8.2c6.2-3.2,7.7-11.4,7.7-11.4h-0.7v-0.6c0,0,2.6,0.1,2.6-2
						C549.9,178.4,548.3,178.1,548.3,178.1z M519,142.1c0-0.3,0.3-0.6,0.6-0.6h0.3c0.3,0,0.6,0.3,0.6,0.6v1.5c0,0.3-0.3,0.6-0.6,0.6
						h-0.3c-0.3,0-0.6-0.3-0.6-0.6V142.1z M516.2,142.1c0-0.3,0.3-0.6,0.6-0.6h0.2c0.3,0,0.6,0.3,0.6,0.6v1.5c0,0.3-0.3,0.6-0.6,0.6
						h-0.2c-0.3,0-0.6-0.3-0.6-0.6V142.1z M514,144.2c-0.3,0-0.6-0.3-0.6-0.6v-1.5c0-0.3,0.3-0.6,0.6-0.6h0.2c0.3,0,0.6,0.3,0.6,0.6
						v1.5c0,0.3-0.3,0.6-0.6,0.6H514z M515.2,179.7l-0.2,1.5c0,0.3-0.3,0.6-0.7,0.5l-0.2,0c-0.3,0-0.6-0.3-0.5-0.7l0.2-1.5
						c0-0.3,0.3-0.6,0.7-0.5l0.2,0C515,179.1,515.2,179.3,515.2,179.7z M518,180l-0.2,1.5c0,0.3-0.3,0.6-0.7,0.5l-0.2,0
						c-0.3,0-0.6-0.3-0.5-0.7l0.2-1.5c0-0.3,0.3-0.6,0.7-0.5l0.2,0C517.8,179.4,518,179.7,518,180z M520.8,180.3l-0.2,1.5
						c0,0.3-0.3,0.6-0.7,0.5l-0.2,0c-0.3,0-0.6-0.3-0.5-0.7l0.2-1.5c0-0.3,0.3-0.6,0.7-0.5l0.2,0C520.6,179.7,520.8,180,520.8,180.3
						z M521.1,176l-6-0.4v-27.5h6V176z M534.6,142.1c0-0.3,0.3-0.6,0.6-0.6h0.3c0.3,0,0.6,0.3,0.6,0.6v1.5c0,0.3-0.3,0.6-0.6,0.6
						h-0.3c-0.3,0-0.6-0.3-0.6-0.6V142.1z M531.8,142.1c0-0.3,0.3-0.6,0.6-0.6h0.3c0.3,0,0.6,0.3,0.6,0.6v1.5c0,0.3-0.3,0.6-0.6,0.6
						h-0.3c-0.3,0-0.6-0.3-0.6-0.6V142.1z M529.1,142.1c0-0.3,0.3-0.6,0.6-0.6h0.2c0.3,0,0.6,0.3,0.6,0.6v1.5c0,0.3-0.3,0.6-0.6,0.6
						h-0.2c-0.3,0-0.6-0.3-0.6-0.6V142.1z M526.3,142.1c0-0.3,0.3-0.6,0.6-0.6h0.2c0.3,0,0.6,0.3,0.6,0.6v1.5c0,0.3-0.3,0.6-0.6,0.6
						h-0.2c-0.3,0-0.6-0.3-0.6-0.6V142.1z M527.7,181.9c0,0.3-0.3,0.6-0.6,0.6h-0.2c-0.3,0-0.6-0.3-0.6-0.6v-1.5
						c0-0.3,0.3-0.6,0.6-0.6h0.2c0.3,0,0.6,0.3,0.6,0.6V181.9z M530.6,181.9c0,0.3-0.3,0.6-0.6,0.6h-0.2c-0.3,0-0.6-0.3-0.6-0.6
						v-1.5c0-0.3,0.3-0.6,0.6-0.6h0.2c0.3,0,0.6,0.3,0.6,0.6V181.9z M533.2,181.9c0,0.3-0.3,0.6-0.6,0.6h-0.3
						c-0.3,0-0.6-0.3-0.6-0.6v-1.5c0-0.3,0.3-0.6,0.6-0.6h0.3c0.3,0,0.6,0.3,0.6,0.6V181.9z M536,181.9c0,0.3-0.3,0.6-0.6,0.6h-0.3
						c-0.3,0-0.6-0.3-0.6-0.6v-1.5c0-0.3,0.3-0.6,0.6-0.6h0.3c0.3,0,0.6,0.3,0.6,0.6V181.9z M536.4,176h-5.2h0H526v-27.9h5.2h0h5.2
						V176z M547.5,142.1c0-0.3,0.3-0.6,0.6-0.6h0.2c0.3,0,0.6,0.3,0.6,0.6v1.5c0,0.3-0.3,0.6-0.6,0.6h-0.2c-0.3,0-0.6-0.3-0.6-0.6
						V142.1z M544.7,142.1c0-0.3,0.3-0.6,0.6-0.6h0.2c0.3,0,0.6,0.3,0.6,0.6v1.5c0,0.3-0.3,0.6-0.6,0.6h-0.2c-0.3,0-0.6-0.3-0.6-0.6
						V142.1z M541.9,142.1c0-0.3,0.3-0.6,0.6-0.6h0.2c0.3,0,0.6,0.3,0.6,0.6v1.5c0,0.3-0.3,0.6-0.6,0.6h-0.2c-0.3,0-0.6-0.3-0.6-0.6
						V142.1z M542.7,182.3l-0.2,0c-0.3,0-0.6-0.2-0.7-0.5l-0.2-1.5c0-0.3,0.2-0.6,0.5-0.7l0.2,0c0.3,0,0.6,0.2,0.7,0.5l0.2,1.5
						C543.2,182,543,182.3,542.7,182.3z M541.2,176v-27.9h6v27.5L541.2,176z M545.4,182l-0.2,0c-0.3,0-0.6-0.2-0.7-0.5l-0.2-1.5
						c0-0.3,0.2-0.6,0.5-0.7l0.2,0c0.3,0,0.6,0.2,0.7,0.5l0.2,1.5C546,181.7,545.8,182,545.4,182z M548.2,181.7l-0.2,0
						c-0.3,0-0.6-0.2-0.7-0.5l-0.2-1.5c0-0.3,0.2-0.6,0.5-0.7l0.2,0c0.3,0,0.6,0.2,0.7,0.5l0.2,1.5
						C548.8,181.4,548.5,181.7,548.2,181.7z"/>
					<path fill="#000000" class="st0" d="M531.2,204.7L531.2,204.7C531.2,204.7,531.2,204.7,531.2,204.7C531.2,204.7,531.2,204.7,531.2,204.7
						L531.2,204.7c-0.7,0-1.3,0.6-1.3,1.3c0,0.7,0.6,1.3,1.3,1.3v0c0,0,0,0,0,0c0,0,0,0,0,0v0c0.7,0,1.3-0.6,1.3-1.3
						C532.5,205.3,531.9,204.8,531.2,204.7z"/>
				</g>
			</g>
		</g>
	</g>
	<g>
		<path fill="#000000" class="st0" d="M504.5,321.8c-0.7,0.7-1.4,1.3-2.1,1.7c-5.8,3.8-10.5-1.5-15.6-6.9c-5.7-6-11.9,0.3-11.9,0.3L450,338.6
			l6.6,7.2c-15.2,0.7-21.5-7.5-21.5-7.5l-15.4-16.4l-12.8,10c0,0,10.3,11.7,14.3,15.7c4,4,7.8,5.6,7.8,5.6l-13,11
			c-2.3-4.4-11.2-9.9-11.2-9.9c7.8-10.3-1.3-18.9-7.1-20.4c-1.5-0.4-2.9-0.5-2.9-0.5s-25.3,0-37.4,0c-12.1,0-21.1-11.9-21.1-11.9
			l-11.8,10.5c3.5,7.3,13.1,8,13.1,8s35.1,0,41.3,0s15,12.4,15,12.4s-44.1,0-55.6,0c-11.6,0-21.7-13.7-21.7-13.7l-11.9,10.6
			c4.1,8.1,13.1,10.1,13.1,10.1s48.4,0,57.4,0s14.7,3.6,14.7,3.6l-14.7,12.6l2.7,2.1l15.3-13.5c7.2,3.2,12.8,13.5,12.8,13.5
			l28.6-24.8c0,0,40.5,0,56.1,0c15.6,0,22,11.7,22,11.7l13.3-11.9c-3.8-7.8-25-6.4-38.5-7.1C474,345,465,330.3,465,330.3l6.5-5.6
			c0,0,2.8,3.2,4.2,4.6c1.4,1.4,6.1,7.7,11.9,7.7c5.8,0,9.3-4.5,9.3-4.5l21.2-18.8l-2-2.1L504.5,321.8z"/>
		
			<rect x="392.3" y="388.5" transform="matrix(0.7071 -0.7071 0.7071 0.7071 -162.9655 398.7347)" class="st0" width="15.2" height="15.2"/>
		
			<rect x="389.4" y="410.6" transform="matrix(0.7071 -0.7071 0.7071 0.7071 -180.6658 406.0715)" class="st0" width="21" height="21"/>
		<path fill="#000000" class="st0" d="M376.1,436c0,0,24.2,24.8,32.5,33.1c8.3,8.3,16,1.9,16,1.9l9.1-7.8l2,2.1c0,0-13.1,14.8-25.5,16.8
			c-12.4,2-19.9-7.5-19.9-7.5s-18.4-19.8-26.4-27.8L376.1,436z"/>
		<path fill="#000000" class="st0" d="M500.7,250.4l-9.1,7.8c0,0-7.7,6.4-16-1.9c-8.3-8.3-32.5-33.1-32.5-33.1s-12.2-8.7-25.9,2.7
			c-13.8,11.4-83,72.1-83,72.1s3.4,3.5,8.7,3.5c5.3,0,99.9,0,99.9,0s9.9-0.2,19.3,13.5l-6,5.9c0,0-5.3-8.6-23.2-8.6
			c-17.9,0-101.7,0-101.7,0s-4.6-2.1-9.7-6.2c-7.4-5.9-15.7-15-12.6-21.2l-28.2,25c0,0-8.3,7.6-8.3,22.5c0,14.9-1.9,17.8,9.5,29.1
			c11.3,11.3,102.8,106.3,102.8,106.3H407L284.8,340.8c0,0-12-16.4,0.3-30.7c0,0-2.2,4.4,3.3,10.4c5.5,6,17.3,17.8,17.3,17.8
			s18-14.4,19.2-19.8h94.9c0,0,12.8-1.7,25.9,15.8l31.2-27.3c0,0-8-12.3-16.9-12.3c-9,0-99.8,0-99.8,0s-9.3,0.4-11.1-5.7l64.1-56.1
			c0,0,9.7-8,17.7,0c8,8,26.4,27.8,26.4,27.8s7.5,10.6,19.9,8.6c12.4-2,25.5-16.8,25.5-16.8L500.7,250.4z M302.9,315.9l-6.3-6.3
			l6.3-6.3l6.3,6.3L302.9,315.9z"/>
	</g>
	<g>
		<g>
			<g>
				<g>
					<path fill="#000000" class="st0" d="M464,420.9l-0.4,3.4h-2.2l-0.6-8.8h2.3c-0.5-0.9-0.8-2-0.8-3.5c0-4.2,2.6-6.1,5.9-6.1
						c4.1,0,5.9,2.5,5.9,6.1c0,1-0.2,2-0.4,2.8c1,0.6,2.1,0.7,3.1,0.7h0.7l0.3,2.8H477c-1.5,0-3.1-0.3-4.8-1.1c-1,0.9-2.3,1.1-4,1.1
						h-4.5L464,420.9z M471.3,412.1c0-2.4-1.2-3.5-3-3.5c-1.8,0-3,1.1-3,3.5s1.1,3.4,2.9,3.4h0.2
						C470.5,415.5,471.3,414.5,471.3,412.1z"/>
				</g>
			</g>
			<g>
				<g>
					<path fill="#000000" class="st0" d="M477.4,415.5h4.9l0.2,2.8h-4.9L477.4,415.5z"/>
				</g>
			</g>
			<g>
				<g>
					<path fill="#000000" class="st0" d="M482,415.5h8.5v-2.6c0-3.5-4.9-4.8-8.3-4.8h-0.1l8.5-10.2l3.1,1l-6.2,7.1c3,0.8,5.8,3.1,5.8,7v5.3h-11.1
						L482,415.5z"/>
				</g>
			</g>
			<g>
				<g>
					<path fill="#000000" class="st0" d="M501.1,404.8c4,0,6.3,0.7,7.1,5.3l1,5.4h4.1l0.3,2.8h-16.7l1.4-2.8h8.1l-0.9-4.6c-0.6-3.2-1.6-3.3-4.5-3.4
						L501.1,404.8z"/>
				</g>
			</g>
			<g>
				<g>
					<path fill="#000000" class="st0" d="M512.8,425v-3.3h2.5v3.3H512.8z M522.3,418.2c-1.6,0-3.2-0.3-4.8-1.2c-1,0.8-2.5,1.2-4.2,1.2l-0.2-2.8
						c2.5,0,3.3-1.2,3.3-3.7v-7.4l2.9-0.4v8.3c0,0.9-0.2,1.8-0.3,2.4c1.1,0.6,2.2,0.8,3.2,0.8h0.7l0.3,2.8H522.3z M516.8,425v-3.3
						h2.5v3.3H516.8z"/>
				</g>
			</g>
			<g>
				<g>
					<path fill="#000000" class="st0" d="M522.7,415.5h3.1c-0.7-1.1-1.1-2.6-1.1-4.5c0-5,2.8-7.2,6.4-7.2c2.1,0,3.9,0.6,5.2,3.4l-2,1.7
						c-1-2-2-2.3-3.2-2.3c-2.2,0-3.5,1.4-3.5,4.5c0,2.9,1.1,4.5,3.6,4.5h5.2l0.3,2.8h-13.8L522.7,415.5z"/>
				</g>
			</g>
			<g>
				<g>
					<path fill="#000000" class="st0" d="M462.7,459l-0.4,3.4h-2.2l-0.6-8.8h2.3c-0.5-0.9-0.8-2-0.8-3.5c0-4.2,2.6-6.1,5.9-6.1
						c4.1,0,5.9,2.5,5.9,6.1c0,1-0.2,2-0.4,2.8c1,0.6,2.1,0.7,3.1,0.7h0.7l0.3,2.8h-0.9c-1.5,0-3.1-0.3-4.8-1.1
						c-1,0.9-2.3,1.1-4,1.1h-4.5L462.7,459z M470,450.2c0-2.4-1.2-3.5-3-3.5s-3,1.1-3,3.5c0,2.4,1.1,3.4,2.9,3.4h0.2
						C469.2,453.6,470,452.6,470,450.2z"/>
				</g>
			</g>
			<g>
				<g>
					<path fill="#000000" class="st0" d="M476,453.6h8.5V451c0-3.5-4.9-4.8-8.3-4.8h-0.1l8.5-10.2l3.1,1l-6.2,7.1c3,0.8,5.8,3.1,5.8,7v5.3h-11.1
						L476,453.6z"/>
				</g>
			</g>
			<g>
				<g>
					<path fill="#000000" class="st0" d="M488.5,459.6c0.3,0,1.6,0.1,2,0.1c3,0,4.3-1.4,4.3-4.5v-9.4l2.8-0.4v10c0,4.7-2.2,7-7,7h-0.8L488.5,459.6z
						"/>
				</g>
			</g>
			<g>
				<g>
					<path fill="#000000" class="st0" d="M505.6,456.3c-1.6,0-3.7-0.5-3.7-4.3v-15.7l2.9-0.4v15.9c0,1.6,0.6,1.8,1.2,1.8h3.2l0.3,2.8H505.6z"/>
				</g>
			</g>
			<g>
				<g>
					<path fill="#000000" class="st0" d="M518.1,456.3c-1.6,0-3.2-0.3-4.8-1.2c-1,0.8-2.5,1.2-4.2,1.2l-0.2-2.8c2.5,0,3.3-1.2,3.3-3.7v-7.4l2.9-0.4
						v8.3c0,0.9-0.2,1.8-0.3,2.4c1.1,0.6,2.2,0.8,3.2,0.8h0.7l0.3,2.8H518.1z M512.6,463.2v-3.5h2.9v3.5H512.6z"/>
				</g>
			</g>
			<g>
				<g>
					<path fill="#000000" class="st0" d="M518.5,453.6h4c-0.5-0.9-0.8-2-0.8-3.5c0-4.2,2.6-6.1,5.9-6.1c4.1,0,5.9,2.5,5.9,6.1c0,4.3-2,6.2-5.9,6.2
						h-8.8L518.5,453.6z M530.6,450.2c0-2.4-1.2-3.5-3-3.5c-1.8,0-3,1.1-3,3.5c0,2.4,1.2,3.4,2.9,3.4h0.2
						C529.8,453.6,530.6,452.6,530.6,450.2z"/>
				</g>
			</g>
		</g>
	</g>
	<g>
		
			<rect x="375" y="270.5" transform="matrix(0.7071 -0.7071 0.7071 0.7071 -85.0557 353.2122)" class="st0" width="17.7" height="17.7"/>
		<path fill="#000000" class="st0" d="M364.3,177.3c-6.1,6.8,0,11.4,7.7,20.5c9.4,11-2.5,22.6-2.5,22.6L356,231.9l-1.7-2.5c0,0,3.7-2.5,9.5-8
			c5.8-5.5,1.8-12.3-0.8-14.9c-2.6-2.6-8.6-5.5-9.2-16c-0.6-10.5,17.9-23.8,17.9-23.8l2,2L364.3,177.3z"/>
		<path fill="#000000" class="st0" d="M409.1,75.2c0,0,0-27.2,0-39c0-11.8-9.9-12.7-9.9-12.7l-12-0.9l0-2.9c0,0,16.7-1.2,26.9,6.2
			c10.2,7.4,8.8,19.4,8.8,19.4s-1,18.7-1,29.9H409.1z"/>
		<path fill="#000000" class="st0" d="M389,88.6c0,0,0-27.2,0-39c0-11.8-9.9-12.7-9.9-12.7L367,36l0-2.9c0,0,15.7-1.2,25.9,6.2
			c10.2,7.4,7.8,19.4,7.8,19.4s0,18.7,0,29.9H389z"/>
		<g>
			<path fill="#000000" class="st0" d="M394.6,214.6c1.5-1.5,2.8-2.8,3.8-3.8c0.9-0.8,1.7-1.8,2.4-2.8l0-131.3H389c0,0,0,88.4,0,143.6
				C391.1,218.3,393,216.3,394.6,214.6z"/>
			<path fill="#000000" class="st0" d="M514.6,283.7c0,0-7.7-8.2-11.3-11.9c-3.6-3.7-1.2-10-1.2-10c-3.8,4.1-16.5,16.5-28.7,16.5
				c-12.2,0-21.6-9.9-21.6-9.9L421,236.2l-11.9,10.8l23.7,24.9l-7,6.3c0,0-10.9-11.1-18.1-18.9c-7.2-7.7-6.9-20.2-6.9-20.2l0-19.2
				L389,230.4c0,8.5,0,14.4,0,16.6c0,14.7,10.8,28,10.8,28l16.1,16.5l19.4-16.9c9.8,9.8,12.7,10.9,24.2,10.9
				c11.5,0,19.8-2.3,19.8-2.3c-5.4,6.7,2.4,14.7,2.4,14.7l16.8,17.1c0,0,11.3-9.1,17.7-15.4C522.7,293.3,514.6,283.7,514.6,283.7z
				 M496.9,291.5l-6.3-6.3l6.3-6.3l6.3,6.3L496.9,291.5z"/>
		</g>
		<path fill="#000000" class="st0" d="M421.9,73.7h-12.9V183c0,0,0,20.7-9.1,29.3c-2.6,2.4-6.9,7.1-11.7,11.5c-12.1,11-27.4,24.2-27.4,24.2
			l-29.3-31.2c0,0-4.9-6.3-5-14.7c-0.2-8.4,4.1-14.9,7.8-17.9c3.7-3,46.1-40.8,46.1-40.8l-2.1-2.1l-47.8,42.2
			c0,0-10.5,10.5-10.5,20.2c0,9.7,0,22.2,0,22.2s0.2,3,3.5,6.5c3.4,3.5,26.9,28.9,26.9,28.9l55.8-48.9c0,0,15.3-11.8,15.3-34.7
			C421.8,154.7,421.9,73.7,421.9,73.7z"/>
		<path fill="#000000" class="st0" d="M440.7,134l2.3,2.5l-2.3,2.9c0,0-3,5.2,1.2,9.7c4.2,4.5,10.3,12.4,10.3,12.4s9.5,15.3-1.5,26.2
			c-11,10.9-111.3,98-111.3,98s-7.6,6.8-12.8,6.7c-5.2-0.1-12.8-8.2-12.8-8.2L297,266.6l16.1,10.8c0,0,5,4,13.8,4
			c8.7,0,15.4-4.6,21-8.6c5.6-4,92.9-79.9,92.9-79.9s9.7-8.5,2.5-17c-7.2-8.6-14.3-17.3-14.3-17.3s-5.3-7.7-1.4-12.1
			C431.4,141.9,440.7,134,440.7,134z"/>
	</g>
	<path fill="#000000" class="st0" d="M286.7,270.8c0,0-1,12.8-6.1,13.7c-5.2,1-3.6-6.1-5.9-0.8c-2.4,5.3-10.2,7.6-7.2-7.4c0,0,2.1,5.9,5.4,5.4
		c3.3-0.5,5.2-7.8,5.2-7.8S282.8,285.4,286.7,270.8z"/>
	<g>
		<g>
			<g>
				<g>
					<path fill="#000000" class="st0" d="M525.1,250.7c0.2,0.3,0.6,0.9,1.3,1.9c0.5,0.8,1,1.5,1.3,2c1.7,2.8,1.7,5.5,0,8c-0.5,0.8-2.5,2.7-6,5.9
						c-2.5,2.3-3.6,4.3-3.5,6c1,1.3,3.3,3.3,6.9,6.2c3,2.5,5.1,4.7,6.3,6.8c0,0.1,0.2,0.4,0.5,1.1c0.2,0.4,0.4,0.7,0.7,0.9l-0.2,0.1
						c-1.2-1.6-3.8-3.7-7.7-6.4c-3.5-2.4-5.9-4.7-7.2-6.8c-1.4-2.4-2.2-4.5-2.1-6c0-1.3,0.5-2.7,1.6-4c1.4-1.4,2.7-2.7,4.1-4.1
						c-0.3-1-0.5-2.6-0.8-4.8l0.9-0.4c2.3-1.1,3.5-3.2,3.6-6.1L525.1,250.7z"/>
				</g>
			</g>
		</g>
	</g>
	<path fill="#000000" class="st0" d="M367.3,96.7l0.4,11.1c0,0,6.5,7,5,18.1C372.7,125.8,381.6,109,367.3,96.7z"/>
	<path fill="#000000" class="st0" d="M486.4,212.3l0.4,11.1c0,0,6.5,7,5,18.1C491.8,241.4,500.8,224.6,486.4,212.3z"/>
	<g>
		<path fill="#000000" class="st0" d="M328.6,116.7l4.7,13.6l-0.8-0.6c-0.6-1.4-1.4-3.6-2.4-6.5c-0.2,0.6-0.4,2-0.8,4.3c-0.2,1.8-0.7,3.2-1.3,4.2
			l0.2,0.4c3.3,2.2,5.8,4.2,7.7,6c4.3,4.2,6.5,8.4,6.4,12.6c-0.1,4.1-2.2,8.3-6.4,12.6c-4.5,4.6-8.4,5.3-11.7,2.1
			c-2.5-2.4-3.7-4.8-3.7-7c0-1.3,0.7-3.2,2-5.6c1.3-2.3,1.9-4.1,1.8-5.4l0.2-0.2c0.6,1.5,0.5,3.1-0.5,5c-1.5,2.9-2.2,4.4-2.3,4.6
			c-0.4,1.8,0.2,3.5,1.9,5.1c1.4,1.3,3.2,1.6,5.4,0.7c1.7-0.7,3.3-1.8,4.8-3.4c6.6-6.8,7.8-12.2,3.7-16.1c-2-1.9-4.3-3.6-6.8-5.1
			c0.7,1.3,1.7,3.1,3,5.3c1.5,2.5,2.5,4.3,3.1,5.3l-0.4,0.1c-3.6-3.8-6.5-8.8-8.8-15.1c-0.4-0.1-0.7,0-0.9,0.2
			c-0.2,0.2-0.6,0.7-1,1.4c-0.4,0.7-0.8,1.2-1.1,1.5c-0.5,0.5-1.2,1.1-2.2,1.8c-1,0.7-1.7,1.3-2.1,1.8l0-1.1
			c2.7-2.9,4.7-6.4,6.1-10.3c1.3-3.8,2-7.8,1.9-11.8L328.6,116.7z M327.9,144.1c0.2,0.5,0.4,1.3,0.6,2.4c-0.3,0.4-0.7,0.9-1,1.3
			c-0.3,0.5-0.5,1-0.5,1.5c0.4,0.5,0.8,0.4,1.2,0c0.2-0.2,0.4-0.5,0.5-1c0.2-0.5,0.3-0.8,0.5-0.9c0.1-0.2,0.3-0.3,0.5-0.3l0.3,0.3
			c0.7,0.5,1.1,1.6,1.5,3.3c0.1,0.5,0,1.2-0.4,2c-0.3,0.8-0.7,1.4-1.2,1.8c-0.2,0.2-0.5,0.4-0.9,0.7c-0.5,0.4-0.9,0.5-1,0.4
			c-0.1-0.1-0.1-0.3,0-0.7c0.2-0.2,0.4-0.5,0.7-0.9c0.9-1.3,1.4-2.7,1.6-4.2l-0.1-0.1c-0.1-0.1-0.2-0.1-0.3-0.1
			c-0.1,0.1-0.3,0.5-0.5,1.1c-0.2,0.5-0.4,0.8-0.6,1c-0.5,0.5-1,0.5-1.5,0c-0.9-0.8-1.3-2.2-1.5-4.1
			C326,146.7,326.6,145.5,327.9,144.1z"/>
	</g>
	<g>
		<g>
			<path fill="#000000" class="st0" d="M361,364.5c1.1,1.8,1.3,3.7,0.7,5.5c-0.8-0.8-1.5-1-2-0.8c-0.9,0.5-1.9,1.7-2.9,3.6c-1.1,2-1.4,3.4-1,4.2
				c0.6,1,1.4,1.3,2.5,1.1c1-0.3,2-0.6,2.9-1c1.1-0.2,2,0.2,2.6,1.2c1.6,2.8,2.4,5.9,2.4,9.3c-0.1,3.9-1.4,6.6-4.1,8.1
				c-2.5,1.5-4.9,1.9-7.3,1.2c-2.4-0.7-4.3-2.3-5.8-4.8c-1.3-2.2-2-4.6-2.1-7.1c0.1-2,0.2-4,0.3-6c0-2.2-0.4-4-1.3-5.5
				c0.6,0.5,1.1,1.1,1.4,1.7c0.8,1.4,1.1,3.7,0.8,7c-0.3,3.2,0,5.6,0.9,7c1.2,2.1,2.8,3.3,4.7,3.7c1.9,0.4,3.9,0,6-1.2
				c1.5-0.9,2.6-2.1,3.4-3.7c0.8-1.6,1.2-3.3,1-5.1c-0.7-0.5-2.1-0.5-4.1,0.1c-1.8,0.6-3,0.3-3.6-0.8c-1.4-2.4-2-5.5-1.6-9.4
				c0.4-4.2,1.7-7,4-8.3c0.3-0.2,0.7-0.3,1.2-0.4C360.4,364.1,360.8,364.2,361,364.5z M370.1,402.8c-0.5,0-1.2,0-2-0.2
				c-1-0.2-1.6-0.3-2-0.3l-1.4,4.4c-0.3-0.2-1.1-0.4-2.3-0.4c-1.1-0.1-1.8-0.3-2-0.6c-0.1-0.2,0-1.1,0.5-2.5
				c0.4-1.5,0.8-2.3,1.1-2.4c0.4-0.2,1,0,1.8,0.5c0.8,0.6,1.4,0.7,1.8,0.5c0.3-0.2,0.6-0.9,0.8-2.2c0.2-1.2,0.5-2,1-2.3
				c0.3,0.3,1,0.4,2.1,0.5c1,0.1,1.7,0.3,1.9,0.6c0.1,0.2,0,0.9-0.4,2.1C370.4,401.9,370.1,402.7,370.1,402.8z"/>
		</g>
	</g>
	<g>
		<g>
			<path fill="#000000" class="st0" d="M465.2,201.3c0.7,1.1,0.8,2.2,0.5,3.3c-0.5-0.5-0.9-0.6-1.2-0.5c-0.6,0.3-1.1,1-1.8,2.2
				c-0.7,1.2-0.9,2-0.6,2.5c0.3,0.6,0.8,0.8,1.5,0.7c0.6-0.2,1.2-0.4,1.8-0.6c0.7-0.1,1.2,0.1,1.6,0.7c1,1.7,1.5,3.6,1.4,5.6
				c0,2.3-0.9,4-2.5,4.9c-1.5,0.9-3,1.1-4.4,0.7c-1.4-0.4-2.6-1.4-3.5-2.9c-0.8-1.3-1.2-2.8-1.3-4.3c0.1-1.2,0.1-2.4,0.2-3.6
				c0-1.3-0.3-2.4-0.8-3.3c0.4,0.3,0.6,0.6,0.9,1c0.5,0.9,0.7,2.3,0.5,4.2c-0.2,2,0,3.4,0.5,4.3c0.7,1.2,1.7,2,2.8,2.2
				c1.2,0.3,2.4,0,3.6-0.7c0.9-0.5,1.6-1.3,2.1-2.3c0.5-1,0.7-2,0.6-3.1c-0.4-0.3-1.2-0.3-2.5,0.1c-1.1,0.3-1.8,0.2-2.2-0.5
				c-0.9-1.5-1.2-3.4-1-5.7c0.2-2.6,1-4.2,2.4-5.1c0.2-0.1,0.4-0.2,0.7-0.2C464.8,201,465.1,201.1,465.2,201.3z M470.7,224.5
				c-0.3,0-0.7,0-1.2-0.1c-0.6-0.1-1-0.2-1.2-0.2l-0.9,2.7c-0.2-0.1-0.7-0.2-1.4-0.3c-0.7,0-1.1-0.2-1.2-0.4c-0.1-0.1,0-0.7,0.3-1.5
				c0.3-0.9,0.5-1.4,0.7-1.5c0.2-0.1,0.6,0,1.1,0.3c0.5,0.3,0.9,0.4,1.1,0.3c0.2-0.1,0.4-0.6,0.5-1.3c0.1-0.7,0.3-1.2,0.6-1.4
				c0.2,0.2,0.6,0.3,1.3,0.3c0.6,0,1,0.2,1.1,0.4c0.1,0.1,0,0.5-0.3,1.3C470.9,224,470.7,224.4,470.7,224.5z"/>
		</g>
	</g>
	<g>
		<g>
			<path fill="#000000" class="st0" d="M533.7,314.3c0.1,0.2,0.3,0.4,0.3,0.7c0.1,0.5,0.2,1.1,0,1.8c-1.6,1.6-16.4,16.3-19.6,19.5
				c-0.3-0.1-0.4-0.3-0.5-0.6c0-0.1-0.1-0.4-0.1-0.8c0-0.3-0.1-0.6-0.2-0.9C515.5,332.5,530.4,317.7,533.7,314.3z"/>
			<path fill="#000000" class="st0" d="M514.7,337l-0.4-0.1c-0.4-0.2-0.7-0.5-0.9-1c0-0.1-0.1-0.3-0.1-1c0-0.2-0.1-0.4-0.2-0.6l-0.2-0.4l0.4-0.3
				c1.8-1.5,16.6-16.3,20-19.7l0.5-0.5l0.4,0.6c0.2,0.3,0.3,0.6,0.4,0.9c0.2,0.6,0.2,1.3,0.1,2.1l0,0.2l-0.1,0.1
				c-1.7,1.7-16.5,16.5-19.6,19.5L514.7,337z M514.5,334.2c0.1,0.2,0.1,0.4,0.1,0.6c0,0.2,0,0.4,0,0.5c4-4,16.9-16.8,18.9-18.9
				c0-0.4,0-0.8,0-1.1C529.4,319.5,517.1,331.8,514.5,334.2z"/>
		</g>
	</g>
	<g>
		<g>
			<path fill="#000000" class="st0" d="M330.1,246.1c0.1,0.2,0.3,0.4,0.3,0.7c0.1,0.5,0.2,1.1,0,1.8c-1.6,1.6-16.4,16.3-19.6,19.5
				c-0.3-0.1-0.4-0.3-0.5-0.6c0-0.1-0.1-0.4-0.1-0.8c0-0.3-0.1-0.6-0.2-0.9C311.9,264.3,326.8,249.5,330.1,246.1z"/>
			<path fill="#000000" class="st0" d="M311,268.8l-0.4-0.1c-0.4-0.2-0.7-0.5-0.9-1c0-0.1-0.1-0.3-0.1-1c0-0.2-0.1-0.4-0.2-0.6l-0.2-0.4l0.4-0.3
				c1.8-1.5,16.6-16.3,20-19.7l0.5-0.5l0.4,0.6c0.2,0.3,0.3,0.6,0.4,0.9c0.2,0.6,0.2,1.3,0.1,2.1l0,0.2l-0.1,0.1
				c-1.7,1.7-16.5,16.5-19.6,19.5L311,268.8z M310.8,266c0.1,0.2,0.1,0.4,0.1,0.6c0,0.2,0,0.4,0,0.5c4-4,16.9-16.8,18.9-18.9
				c0-0.4,0-0.8,0-1.1C325.8,251.3,313.4,263.6,310.8,266z"/>
		</g>
	</g>
	<g>
		<path fill="#000000" class="st0" d="M339,371.7c0.1,3-1.2,4.6-4,4.7c-1.3,0-2-0.8-2.1-2.4c-0.1-1.9,0.5-3.8,1.6-5.6c0.3-1.1,0.6-1.6,0.7-1.6
			c0.2,0,0.2,0.1,0.1,0.4c-0.2,0.4-0.3,0.8-0.2,1.2C337.7,369.7,338.9,370.8,339,371.7z M337.8,372.7c0-0.2-0.5-0.6-1.4-1.2
			c-1-0.6-1.5-1-1.6-1c-0.1,0-0.2,0.3-0.5,1c-0.2,0.7-0.3,1.1-0.3,1.4c0,0.7,0.4,1,1.2,1c0.3,0,0.8-0.2,1.5-0.5
			C337.5,373.2,337.8,372.9,337.8,372.7z"/>
	</g>
	<g>
		<path fill="#000000" class="st0" d="M438.8,287.9c0.1,3-1.2,4.6-4,4.7c-1.3,0-2-0.8-2.1-2.4c-0.1-1.9,0.5-3.8,1.6-5.6c0.3-1.1,0.6-1.6,0.8-1.6
			c0.2,0,0.2,0.1,0.1,0.4c-0.2,0.4-0.3,0.8-0.2,1.2C437.5,285.9,438.8,287,438.8,287.9z M437.6,288.9c0-0.2-0.5-0.6-1.4-1.2
			c-1-0.6-1.5-1-1.6-1c-0.1,0-0.2,0.3-0.5,1c-0.2,0.7-0.3,1.1-0.3,1.4c0,0.7,0.4,1,1.2,1c0.3,0,0.8-0.2,1.5-0.5
			C437.3,289.4,437.7,289.1,437.6,288.9z"/>
	</g>
	<g>
		<path fill="#000000" class="st0" d="M380.7,180.9c0.1,4.1-1.7,6.3-5.4,6.4c-1.8,0.1-2.7-1-2.8-3.3c-0.1-2.6,0.6-5.1,2.2-7.6
			c0.4-1.4,0.8-2.2,1-2.2c0.3,0,0.3,0.2,0.1,0.5c-0.2,0.6-0.3,1.2-0.3,1.6C378.9,178.2,380.6,179.7,380.7,180.9z M379.1,182.3
			c0-0.2-0.7-0.8-2-1.6c-1.3-0.9-2-1.3-2.1-1.3c-0.1,0-0.3,0.5-0.6,1.4c-0.3,0.9-0.4,1.6-0.4,2c0,0.9,0.6,1.3,1.6,1.3
			c0.4,0,1.1-0.2,2.1-0.6C378.6,183,379.1,182.6,379.1,182.3z"/>
	</g>
	<g>
		<g>
			<g>
				<g>
					<path fill="#000000" class="st0" d="M450.9,360.2c0.1,0.5,0.1,1.1,0,1.8c-0.1,0.6-0.2,1.2-0.3,1.8c-0.1,0.1-1.2,0.9-3.1,2.3
						c0.1,0.7,0,1.8-0.1,3.3l-0.2,0.1c-0.3-0.9-0.5-1.8-0.5-2.7c-1.2,0.5-2.4,1.4-3.6,2.8c-1.4,1.5-2,2.8-1.7,3.9
						c0.6,2.1,2,3.9,4.4,5.2c1.4,0.8,3.6,1.6,6.6,2.5c-2.4,0.6-4.8,0.3-7.2-0.7c-2.6-1.1-4.1-2.9-4.8-5.2c-0.7-2.8-0.2-5.4,1.7-8.1
						c-1.2-0.2-2.3-0.6-3.4-1.2c-0.1-1.6,0.3-3.1,1.1-4.6c0.9-1.6,2-2.6,3.5-3c0.9-0.2,1.6-0.2,2.4,0.1c0.8,0.3,1.3,0.9,1.5,1.7
						c0.1,0.4,0.1,0.8,0.1,1.4c0,0.5,0,0.9,0,1.4c0.5-0.2,1.1-0.6,1.8-1.3C450,360.8,450.5,360.4,450.9,360.2z M443.1,361.3
						c-1.2,0.3-2,0.9-2.4,1.8c0.8,0.5,2.1,0.7,3.8,0.6c0.5,0,0.8,0,0.8,0c1-0.3,1.5-0.6,1.4-1c-0.2-0.6-0.7-1.1-1.5-1.3
						C444.4,361.2,443.7,361.2,443.1,361.3z"/>
				</g>
			</g>
		</g>
	</g>
	<g>
		<path fill="#000000" class="st0" d="M427.7,230.4c1.1,0.5,2.1,1.3,3.2,2.3c8,7.9,26.5,27.6,26.5,27.6s2,2.8,5.7,5.3c2.8-1.3,4.3-1,5.7,0.5
			c0.6,0.6,1.3,1.6,2.2,2.7c0.1,0,0.1,0,0.2,0c7.8-4.2,15.8-7.9,23.3-11.1c-0.6-0.4-1.1-0.7-1.6-1.1l-1.3,1.1c0,0-2.8,2.4-6.9,2.4
			c-2.6,0-5.8-1-9.1-4.2c-7.4-7.3-27-27.1-31.7-31.9c-4,0.7-8.5,2.1-13.2,4.7C429.7,229.2,428.7,229.8,427.7,230.4z"/>
		<path fill="#000000" class="st0" d="M477.3,306.6c0,0-3.4-5.3-8.3-8.9c0.3,5,1.6,9.4,3.6,13L477.3,306.6z"/>
		<path fill="#000000" class="st0" d="M492,235.6c0.7-0.5,1.4-1.1,2.1-1.6c0-0.1,0-0.3,0.1-0.4c-0.9-0.4-1.7-0.7-2.6-1.1
			C491.7,233.6,491.9,234.6,492,235.6z"/>
		<path fill="#000000" class="st0" d="M470,224c0.2,0,0.4,0,0.5,0c0.1,0,0.1,0,0.2,0c0,0,0.1-0.4,0.4-1.1c-0.1,0-0.1-0.1-0.2-0.1
			C470.6,223.3,470.3,223.7,470,224z"/>
		<path fill="#000000" class="st0" d="M452.3,268.4c-0.1-0.1-0.2-0.2-0.2-0.2l-31-32L409.3,247l8.4,8.7c4,2.4,8.2,5,13.3,7.8
			C439.1,267.9,446.6,268.8,452.3,268.4z"/>
		<path fill="#000000" class="st0" d="M486.4,211.8l0.4,11.1c0,0,1,1.1,2.2,3.1c1.8,0.8,3.7,1.6,5.6,2.4C494.4,223,492.5,217,486.4,211.8z"/>
		<path fill="#000000" class="st0" d="M479.5,282.8c-5.4,6.7,2.5,14.6,2.5,14.6l8.2,8.2c0.4-9.8,9.2-15,27.1-18.9c-1.1-2.2-2.4-3.6-2.4-3.6
			s-7.7-8.2-11.4-11.9c-3.3-3.4-1.7-8.8-1.3-9.8c0,0-0.1,0-0.1,0c-3.8,4.1-15.7,15.7-27.4,16.5c-1.5,2-2.8,4.2-3.8,6.6
			C476.3,283.7,479.5,282.8,479.5,282.8z M497.1,278.3l6.3,6.3l-6.3,6.3l-6.3-6.3L497.1,278.3z"/>
		<path fill="#000000" class="st0" d="M493.9,323.6c0.6,0,1.2,0,1.8-0.1c-2.8-1.4-5.5-4.3-8.3-7.3c-1.9-1.9-3.8-2.6-5.5-2.6c-2.5,0-4.6,1.4-5.7,2.3
			C480.7,320.8,487,323.6,493.9,323.6z"/>
		<path fill="#000000" class="st0" d="M401.3,243.7c-3.5,0.8-7.5,1.3-12.2,1.4c0,0.9,0,1.5,0,2c0,0.2,0,0.3,0,0.5c5.2,0,9.5,0.6,13.3,1.5
			C401.8,247.1,401.5,245.2,401.3,243.7z"/>
		<path fill="#000000" class="st0" d="M517.1,265.7c-1.1,1.3-1.6,2.7-1.6,4c0,1.6,0.7,3.6,2.2,6c1.3,2.1,3.7,4.4,7.2,6.8c0.8,0.5,1.5,1,2.1,1.5
			c0.7-0.2,1.4-0.5,2-0.8c-1-1.1-2.2-2.2-3.7-3.3c-3.6-2.8-5.9-4.9-6.9-6.1c-0.2-1.8,1-3.8,3.4-6c2.7-2.5,4.5-4.2,5.4-5.3
			c-2.7,0.8-5.5,1.3-8.5,1.4C518.2,264.5,517.7,265.1,517.1,265.7z"/>
		<path fill="#000000" class="st0" d="M371.6,279.4l12.6,12.4l1.3-1.3c-2.6-1.4-4.5-5.2-4.6-8.1c0-3.7,2-8.5,6.9-11.9l-3.7-3.7L371.6,279.4z"/>
		<path fill="#000000" class="st0" d="M433.3,276.5c-0.9-0.8-1.8-1.6-2.7-2.4l-3.2,2.9c0.9,0.8,1.8,1.6,2.7,2.4L433.3,276.5z"/>
		<path fill="#000000" class="st0" d="M392.6,299.5c1.2-1.9,1.9-3.4,2.4-4.7c-18.9,0.1-34.6,0.2-34.6,0.2s-0.1,0-0.3,0c-1.6,0-9.2-0.2-10.8-5.7
			l40.4-35.7c1.1,5.3,3.2,10.1,5.3,13.8c2.4-0.6,5-0.9,8.1-0.9c5.7,0,11.2,1.9,16.3,4.8c-3.6-3.7-8-8.2-11.5-11.9
			c-1-1.1-1.8-2.2-2.6-3.4c-5.5-3-11-5.3-16.2-6.8c0,0.2,0,0.5,0.1,0.7c-21.9,19.2-48.6,42.9-53.9,47.5c-0.1,0.5-0.1,1-0.1,1.5
			c1.3,1,4.1,2.8,7.9,2.8c2.5,0,24.8-0.1,47.7-0.2C391.6,300.9,392.2,300.2,392.6,299.5z"/>
		<path fill="#000000" class="st0" d="M437.2,339.6c-1-0.9-1.4-1.5-1.4-1.5l-6.3-6.7c-5.6,2.4-10,5.9-13.1,10.1c2.2,2.4,4.3,4.6,5.6,5.9
			c4,4,7.9,5.6,7.9,5.6l-12.9,11.1c-1.1-2-3.4-4.1-5.7-5.9c0.1,4.1,1.4,8.6,3.7,12.7l16.8-14.7C429.2,350.5,431.5,343.8,437.2,339.6
			z"/>
		<path fill="#000000" class="st0" d="M494,345.4c-2.1,0-4-0.1-5.9-0.1c-13.5-0.6-22.7-15.3-22.7-15.3l0.7-0.6c-1.5-0.3-3-0.6-4.4-0.8l-7.7,6.7
			c7.5,0.3,14,2.5,26.4,11.3c3.1,2.2,6.4,4.2,9.9,6.1c0.3,0,0.7,0,1,0c9.9-0.1,16.1,4.6,19.3,8c1.8,0.5,3.5,0.9,5.3,1.2l5.8-5.3
			C511.1,354.8,502,350.9,494,345.4z"/>
		<path fill="#000000" class="st0" d="M442.9,366.8c-1.8,2.7-2.4,5.4-1.7,8.1c0.6,2.3,2.2,4,4.8,5.1c1.6,0.7,3.1,1,4.6,1c0.9,0,1.7-0.1,2.5-0.3
			c-3-0.9-5.2-1.7-6.6-2.5c-2.4-1.3-3.8-3.1-4.4-5.2c-0.3-1,0.3-2.3,1.7-3.9c1.2-1.4,2.4-2.3,3.6-2.8c0.1,0.9,0.2,1.9,0.5,2.7
			l0.2-0.1c0.1-1.5,0.1-2.5,0-3.3c0.6-0.4,1.1-0.8,1.5-1.1c-3.8,0.5-7,0.6-10.1-0.7c-0.1,0.6-0.1,1.1-0.1,1.7
			C440.6,366.2,441.7,366.6,442.9,366.8z"/>
		<path fill="#000000" class="st0" d="M425.9,470.8c0,0-2.8,2.4-6.9,2.4c-2.6,0-5.8-1-9.1-4.2c-4.4-4.4-13.2-13.2-20.6-20.7l-3.5-3.6
			c-0.4,0.4-0.8,0.9-1.2,1.3c-2.5,3-1.6,3.4,0.9,4.6c2.5,1.1,9.6,3.8,13.3,10.7c3.7,6.9,7.9,12.6,18.4,12.5c6.2,0,13.7-3.4,18.6-10
			L435,463L425.9,470.8z"/>
		<path fill="#000000" class="st0" d="M342.6,315.6c0.1-1.1,0.6-2.1,1.3-3.1c-2.8,0-5.2,0-7.2,0c0.8,1.9,1.7,3,2.5,4
			C341.1,318.7,342.3,318.1,342.6,315.6z"/>
		<path fill="#000000" class="st0" d="M280.8,331.2c-2.7-2.3-5-5.1-6.8-8.1c-0.7,2.5-1.2,5.4-1.3,8.6c3.4,2.8,7,5,10.6,6.4
			C282.5,336.3,281.5,334,280.8,331.2z"/>
		<path fill="#000000" class="st0" d="M411.5,396l-10.8-10.7l-0.3,0.3c1.1,5.5,2.7,11.2,4.6,16.9L411.5,396z"/>
		<path fill="#000000" class="st0" d="M415.7,421l-5.5-5.5c1.1,2.5,2.3,5,3.6,7.4L415.7,421z"/>
		<path fill="#000000" class="st0" d="M441.1,328.1c1.7,1.7,3.4,3.6,5.1,5.9l7.3-6.5C449.1,327.4,444.9,327.6,441.1,328.1z"/>
		<path fill="#000000" class="st0" d="M430.5,320.6c1.8,0.8,3.7,1.9,5.7,3.4c6.7-1.5,13.7-1.3,20.5,0.8l9.6-8.5c-2-2.7-3.9-5.4-5.9-8.3
			c-3.2-4.7-6.7-9.2-10.3-13.5c-2,0-4.2,0-6.5,0c2.2,2.9,4.3,5.8,6.2,8.7c3.5,1.8,8,5.1,12.4,11.5l-2.8,2.8c0.6,0.9,1.2,1.6,1.8,2.3
			c-1.2-0.2-2.4-0.4-3.5-0.5l-1.4,1.4c0,0-0.4-0.7-1.5-1.7C445.6,317.9,437.5,318.6,430.5,320.6z"/>
		<path fill="#000000" class="st0" d="M472,324.3c0,0,2.8,3.2,4.2,4.5c0.1,0.1,0.2,0.2,0.4,0.4c-2.2-2.5-4.4-5.2-6.5-8l-7,6.2
			c1.1,0.6,2.2,1.2,3.2,1.9L472,324.3z"/>
		<path fill="#000000" class="st0" d="M425.9,327.7l-3.7-3.9c-5.1,2.6-9.3,6.1-12.8,10.1c1,1.1,2.2,2.5,3.6,4C416.6,333.8,421,330.3,425.9,327.7z"
			/>
		<path fill="#000000" class="st0" d="M356.7,265.7c-3.3,3.5-3.9,6.6-4.1,8.9c5.8-5.1,13.1-11.5,21.1-18.6c-3.6,1.1-9.9,4.2-14.1,7.3
			C358.6,264.1,357.6,264.9,356.7,265.7z"/>
		<path fill="#000000" class="st0" d="M362.9,206.7c2.6,2.6,6.7,9.3,0.9,14.9c-2.9,2.8-5.3,4.8-6.9,6.1c0.6,0.6,1.3,1.2,2.2,1.8l10.5-9
			c0,0,11.8-11.6,2.4-22.6c-4.2-4.8-7.9-8.4-9.5-11.7c-0.6,0-1.3,0-1.9,0.1c-2.1,0.1-4.2,0-6.1-0.3c-0.6,1.6-0.9,3.2-0.8,4.7
			C354.3,201.2,360.3,204,362.9,206.7z"/>
		<path fill="#000000" class="st0" d="M313.3,277.7l-16.1-10.7l15,15.6c2.8-0.4,5.4-1,7.8-1.9C315.7,279.6,313.3,277.7,313.3,277.7z"/>
		<path fill="#000000" class="st0" d="M453.4,164.3c-0.9-2-1.6-3.2-1.6-3.2s-1.5-1.9-3.5-4.4c-10.3-0.8-17-6.9-18.4-13.5c-1.1,1-2,2-2.8,2.9
			c-3.9,4.4,1.4,12.1,1.4,12.1s1.2,1.4,3,3.7C437.7,164,445.1,164.9,453.4,164.3z"/>
		<path fill="#000000" class="st0" d="M455.6,172.9c-0.2-1.9-0.6-3.7-1-5.4c-5.8,1.7-11.9,1.9-17.7,0.9c1.3,1.6,2.8,3.3,4.2,5
			C445.6,173.7,450.5,173.6,455.6,172.9z"/>
		<path fill="#000000" class="st0" d="M405.8,354.3c-0.1-0.1-0.2-0.1-0.2-0.1c0.1-0.1,0.2-0.2,0.3-0.4c0.5-3,1.4-5.9,2.7-8.6
			c-0.2-2.4-1.3-4.6-2.7-6.3c-5.1,8.2-7.6,18-7.6,28.2c5,4.3,8.5,10.7,8.5,10.7l1.9-1.6c-2-4.5-3.3-10-3.3-16.7
			C405.4,357.7,405.5,356,405.8,354.3z"/>
		<path fill="#000000" class="st0" d="M537.4,128.2c-2.8-0.1-5.7-0.2-8.5-0.2c-3.1,0-6.3,0.3-9.4,0.7c-2.8,2.1-4.4,4.6-5.1,7.4
			c5.8-1.5,12.2-2.4,19.3-2.4C535.1,131.8,536.1,130,537.4,128.2z"/>
		<path fill="#000000" class="st0" d="M450.4,187.3c2.1-2.1,3.5-4.4,4.3-6.6c-1.4,2.1-2.8,4.4-4.4,6.8C450.3,187.4,450.4,187.4,450.4,187.3z"/>
		<path fill="#000000" class="st0" d="M414.3,43.5c-2.7-1.4-4.7-2.9-6.2-4.5c0,3.7,0,8.3,0.1,12.9c2.1-1,4.1-2.4,6.1-4
			C416.2,46.3,417.1,44.9,414.3,43.5z"/>
		<path fill="#000000" class="st0" d="M401.1,24.3c1.8,0.7,3.9,2.1,5.4,4.8c1.2-2,3.3-3.4,5.9-3.8c-2.5-1.7-5.4-2.9-8.3-3.7
			C403,22.3,402,23.3,401.1,24.3z"/>
		<path fill="#000000" class="st0" d="M388.2,223.8c-4.7,4.3-9.8,9-14.4,13c0.7,0.2,1.2,0.3,1.6,0.3c0.9,0.1,1.7,0.2,2.2,0.4l14.8-13.1
			c-1.3-0.4-2.4-0.9-3.4-1.5C388.8,223.3,388.5,223.6,388.2,223.8z"/>
		<path fill="#000000" class="st0" d="M408.3,77.2l0.2,36.7c3.4-6.4,8.3-10.4,12.7-12.9c0-12.5-0.1-22.4-0.1-26h0c0-7.9,0.4-19.6,0.6-25.7
			c-1.3,4-3.4,8.5-6.2,13.5C412.9,67.4,410.4,72.2,408.3,77.2z"/>
		<path fill="#000000" class="st0" d="M410,135c0,8.8,4.2,16.5,11.5,21.8c0-13.3-0.1-29.7-0.2-44.3C413.7,118.2,409.9,127.3,410,135z"/>
		<path fill="#000000" class="st0" d="M335.2,183.6c1.4-1.2,3.7-3.3,6.7-5.9c0-0.1,0-0.1,0-0.2c-0.2-1.9-1-2.7-2.3-1.9l-1,0.9
			c0,0.1-0.1,0.1-0.1,0.2C337.3,177.9,336,179.6,335.2,183.6z"/>
		<path fill="#000000" class="st0" d="M374.9,187.4c0,0,0.1,0,0.1,0c1.1,0,2-0.3,2.7-0.6c-1.6-0.2-3.3-0.4-5-0.5C373.2,187,373.9,187.4,374.9,187.4
			z"/>
		<path fill="#000000" class="st0" d="M439.1,288.6C439.1,288.6,439.1,288.7,439.1,288.6C439.1,288.7,439.1,288.7,439.1,288.6c0-0.3,0.1-0.6,0-1
			c0-0.9-1.3-2-3.8-3.3c0-0.3,0.1-0.7,0.2-1.2c0.1-0.2,0.1-0.4-0.1-0.4c0,0,0,0,0,0c-0.2,0-0.4,0.4-0.6,1.2c0.9,0.9,1.7,1.8,2.5,2.8
			C438.6,287.5,439,288,439.1,288.6z"/>
		<path fill="#000000" class="st0" d="M368.7,241.4c-4.6,4-7.7,6.7-7.7,6.7l-13.5-14.2c-3.4-2.2-6.7-5-9.7-8.4c-5.3-6.1-10.8-10.3-17.7-12.7
			c0,7.1,0.1,13.4,0.1,13.4s0.2,3,3.6,6.5c2.7,2.8,18.3,19.4,24.5,26.1c4-2.6,8.2-4.5,12.1-5.7l13.4-11.9
			C372.3,241.4,370.6,241.5,368.7,241.4z"/>
		<path fill="#000000" class="st0" d="M417,225.8c-2.7,2.3-7.7,6.6-13.9,11.9c8.2-4.3,16.6-10.3,24.8-17.5C424.6,220.9,420.9,222.6,417,225.8z"/>
		<path fill="#000000" class="st0" d="M330.7,246l-0.4-0.5l-0.5,0.5c-3.3,3.5-18.1,18.3-19.9,19.8l-0.4,0.3l0.2,0.4c0.1,0.1,0.1,0.4,0.2,0.6
			c0,0.6,0.1,0.9,0.1,1c0.1,0.5,0.4,0.8,0.9,1l0.4,0.1l0.3-0.3c3.1-3,17.8-17.9,19.5-19.6l0.1-0.1l0-0.2c0.1-0.8,0.1-1.5-0.1-2.1
			C331,246.6,330.9,246.3,330.7,246z"/>
		<path fill="#000000" class="st0" d="M378.5,246.8c-1.8,1.6-3.6,3.2-5.4,4.7c1.4,0.2,2.7,0.5,3.6,1c0.2,0.1,0.4,0.2,0.5,0.3
			c1.8-1.6,3.7-3.3,5.6-4.9c-0.3,0-0.5-0.1-0.8-0.1C380.5,247.5,378.9,247.7,378.5,246.8z"/>
		<path fill="#000000" class="st0" d="M400.9,231.9c2.4-2.2,4.9-4.3,7.3-6.4c-1.7,0.3-3.4,0.5-5.2,0.6c-0.2,0-0.4,0-0.6,0c-0.5,0.4-1,0.9-1.5,1.3
			l0-1.3c-2.2-0.1-4.1-0.4-5.9-0.8l-5.9,5.2c0,2.7,0,5.1,0,7.2c-2.9,2.5-5.8,5-8.6,7.5c0.5,0,1.1-0.1,1.6-0.2c1.7-0.2,3.4-0.6,5.1-1
			c0.6-0.5,1.2-1.1,1.8-1.6c0,0.4,0,0.8,0,1.1c3.8-1.1,7.8-2.7,11.8-4.7L400.9,231.9z"/>
		<path fill="#000000" class="st0" d="M408.7,149.3l0,9.3c3.5,4,7.7,7.3,12.8,9.8c0-1.9,0-3.9,0-6C416.2,159.1,411.7,154.6,408.7,149.3z"/>
		<path fill="#000000" class="st0" d="M400.1,54.3c-0.2-4.2-1.8-10.5-8.1-15c-0.5-0.4-1.1-0.8-1.7-1.1c-1.8,1.3-3.5,2.2-4.9,2.9
			c1.5,1.9,2.6,4.6,2.6,8.5c0,0.6,0,1.2,0,1.9C391.8,53.8,395.9,54.7,400.1,54.3z"/>
		<path fill="#000000" class="st0" d="M391.5,204.1c1.2,1.5,2.5,2.1,3.4,0c0.9-2.1,1.2-4.6-2.8-11c-0.7-1.2-1.9-2.2-3.3-3c0,4,0,8,0.1,11.9
			C389.7,202.3,390.6,203,391.5,204.1z"/>
		<path fill="#000000" class="st0" d="M282,278.2c-2.3,0-4.1-4.3-4.1-4.3s-1.8,7.3-5.1,7.9c-0.1,0-0.3,0-0.4,0c-3.1,0-5-5.4-5-5.4
			c-1.6,8.5,0.2,11.4,2.5,11.4c1.8,0,3.8-1.8,4.8-4.1c0.7-1.5,1-2,1.3-2c0.6,0,0.9,2.8,3.7,2.8c0.3,0,0.6,0,0.9-0.1
			c5.2-1,6.1-13.7,6.1-13.7C285.2,276.4,283.5,278.2,282,278.2z"/>
		<path fill="#000000" class="st0" d="M400.4,144.4l-0.2-43.3c-2,8.4-3.2,16.7-3.1,24.1C397.1,131.9,398.2,138.4,400.4,144.4z"/>
		<path fill="#000000" class="st0" d="M288.7,366c-3.8-1.1-8.7-6.4-14.6-14.5c1.3,3.1,3.7,6.2,8.2,10.6c1.3,1.2,3.5,3.5,6.5,6.5
			c0.1,0,0.2,0,0.4,0.1C292.7,369.3,293.9,367.5,288.7,366z"/>
		<path fill="#000000" class="st0" d="M491.8,240.9c0,0,1.4-2.7,2.2-6.8c-0.7,0.5-1.4,1-2.1,1.6C492.1,237.3,492.1,239,491.8,240.9z"/>
		<path fill="#000000" class="st0" d="M498.9,255.9c2.4-2.3,3.9-4,3.9-4l-2-2.1l-7.8,6.7c0.5,0.4,1,0.7,1.6,1.1C496,257.1,497.5,256.5,498.9,255.9z
			"/>
		<path fill="#000000" class="st0" d="M501,261c0.2-0.2,0.3-0.3,0.5-0.5l0,0c-0.3,0.1-0.6,0.2-0.9,0.4C500.8,260.9,500.9,260.9,501,261z"/>
		<path fill="#000000" class="st0" d="M527.8,253.8c-0.3-0.5-0.7-1.2-1.3-2c-0.1-0.1-0.1-0.1-0.2-0.2c-0.6,0.2-1.3,0.4-1.9,0.6
			c-0.5,1.9-1.6,3.3-3.3,4.2l-0.9,0.4c0.3,2.1,0.6,3.7,0.9,4.8c-0.8,0.8-1.5,1.6-2.3,2.3c3-0.2,5.8-0.7,8.5-1.4
			c0.2-0.3,0.4-0.5,0.6-0.7C529.5,259.3,529.5,256.6,527.8,253.8z"/>
		<path fill="#000000" class="st0" d="M502.3,261.2c0,0-0.1,0.1-0.1,0.2c0,0,0.1,0,0.1,0C502.3,261.3,502.3,261.2,502.3,261.2z"/>
		<path fill="#000000" class="st0" d="M400.6,184.1l0-1.2c0,0.2,0,0.3,0,0.5C400.6,183.6,400.6,183.8,400.6,184.1z"/>
		<path fill="#000000" class="st0" d="M417.3,177.8c-1.2,2.2-5,4.1-8.5,3.6l0,1.5c0,0,0,5.4-1.2,11.8c0.2,0.1,0.3,0.2,0.5,0.3
			c4.2,2.5,5.6,6.4,5.3,9c3.9-5.8,8-14.7,8-26.7c0-0.1,0-0.3,0-0.4C420.1,175.3,418.5,175.5,417.3,177.8z"/>
		<path fill="#000000" class="st0" d="M436.7,200c1.4-1.2,2.7-2.4,3.9-3.5c-0.8-0.7-1.5-1.3-2.3-2c-1,0.9-2.3,2-3.8,3.3c0.2,0.2,0.4,0.4,0.6,0.5
			C435.6,198.9,436.1,199.4,436.7,200z"/>
		<path fill="#000000" class="st0" d="M457.3,211.6c0.1-1,0.1-1.9,0-2.6c-0.2-0.1-0.4-0.3-0.6-0.4c0,0.4,0.1,0.7,0.1,1.1c0,1.2-0.1,2.4-0.1,3.6
			c0,0.5,0.1,1,0.2,1.5c0.3,0.2,0.5,0.3,0.8,0.5C457.3,214.5,457.1,213.3,457.3,211.6z"/>
		<path fill="#000000" class="st0" d="M466.4,214.9c0,0.1-0.1,0.2-0.1,0.2c-0.5,1-1.2,1.7-2.1,2.3c-0.7,0.4-1.3,0.7-2,0.8c1.1,0.6,2.1,1.2,3.2,1.8
			c0.1-0.1,0.2-0.1,0.3-0.2c1.4-0.8,2.1-2.1,2.4-3.9C467.6,215.6,467,215.2,466.4,214.9z"/>
		<path fill="#000000" class="st0" d="M471.4,221.4c-0.1-0.2-0.5-0.3-1.1-0.4c-0.7,0-1.1-0.1-1.3-0.3c-0.2,0.1-0.4,0.4-0.5,0.9
			c0.8,0.4,1.6,0.9,2.4,1.3c0.1,0,0.1,0.1,0.2,0.1c0-0.1,0.1-0.2,0.1-0.3C471.4,221.9,471.5,221.5,471.4,221.4z"/>
		<path fill="#000000" class="st0" d="M494.1,233.7c0.3-1.6,0.5-3.5,0.4-5.4c-1.9-0.8-3.7-1.6-5.6-2.4c0.9,1.6,2,3.9,2.6,6.7
			C492.4,233,493.3,233.3,494.1,233.7z"/>
		<path fill="#000000" class="st0" d="M434.7,294.5c-4,4-5.9,5-7.4,5c-1.6,0-2.5-0.9-2.8-4.4c0-0.2,0-0.4-0.1-0.6c-4.1,0-8.4,0-12.6,0.1
			c-0.8,1-1.8,1.9-3.1,2.7c-1.7,1.1-3.2,2.5-4.4,4.1c12.1-0.1,23.3-0.1,30.5-0.2c2.3-2.2,4.9-4.5,7.6-6.8
			C440,294.5,437.4,294.5,434.7,294.5z"/>
		<path fill="#000000" class="st0" d="M416,284.2c-3-1.6-3.9,0.2-2.7,1.8c0.5,0.7,0.8,1.8,0.7,3.1l2.2,2.3l4.3-3.8
			C419.3,286.4,417.8,285.2,416,284.2z"/>
		<path fill="#000000" class="st0" d="M454.4,285.1c4-2.9,8.2-5.7,12.4-8.2c-2.1-0.6-4-1.4-5.8-2.3c-4.8,2.9-9.4,5.9-13.6,9
			C449.5,284.5,451.7,284.9,454.4,285.1z"/>
		<path fill="#000000" class="st0" d="M418,314.5c1.4,2.5,3.1,2.6,4.7,0.1c0.4-0.7,1-1.6,1.8-2.5c-2.7,0-5.7,0-8.9,0
			C416.6,312.8,417.5,313.6,418,314.5z"/>
		<path fill="#000000" class="st0" d="M525.2,250l-0.5,0.3c0,0.7-0.1,1.3-0.3,1.9c0.6-0.2,1.3-0.4,1.9-0.6C525.8,250.8,525.4,250.3,525.2,250z"/>
		<path fill="#000000" class="st0" d="M530.6,82.8c0.2,0,0.4,0,0.6-0.1c0.2-0.1,0.3-0.1,0.4-0.2c0.5-0.3,0.8-0.9,0.8-1.5c0-1-0.8-1.8-1.8-1.8
			c-1,0-1.8,0.8-1.8,1.8C528.7,82,529.6,82.8,530.6,82.8z"/>
		<path fill="#000000" class="st0" d="M530.5,69.4c0.2,0,0.4,0,0.6-0.1c0.2-0.1,0.3-0.1,0.4-0.2c0.5-0.3,0.8-0.9,0.8-1.5c0-1-0.8-1.8-1.8-1.8
			s-1.8,0.8-1.8,1.8C528.7,68.6,529.5,69.4,530.5,69.4z"/>
		<path fill="#000000" class="st0" d="M530.6,96.3c0.2,0,0.4,0,0.6-0.1c0.2-0.1,0.3-0.1,0.4-0.2c0.5-0.3,0.8-0.9,0.8-1.5c0-1-0.8-1.8-1.8-1.8
			c-1,0-1.8,0.8-1.8,1.8C528.8,95.5,529.6,96.3,530.6,96.3z"/>
		<path fill="#000000" class="st0" d="M534.4,451.4c-0.9,1.2-1.8,2.5-2.8,3.7C533.1,454.4,534.1,453.2,534.4,451.4z"/>
		<path fill="#000000" class="st0" d="M337.2,374.5c-0.9,0.4-1.5,0.5-1.9,0.5l-0.1,0c-1.2,0-2-0.7-2.2-1.7c0,0.2,0,0.4,0,0.7c0.1,1.6,0.7,2.4,2,2.4
			c0,0,0.1,0,0.1,0c2.3-0.1,3.6-1.2,3.9-3.3C338.6,373.9,337.7,374.3,337.2,374.5z"/>
		<path fill="#000000" class="st0" d="M380.1,143.4l-2.1-2.1l-18.9,16.9c1.1,0.5,2.2,0.9,3.2,1.2C371.8,150.8,380.1,143.4,380.1,143.4z"/>
		<path fill="#000000" class="st0" d="M368.6,33.2c-1.6,0-2.5,0.1-2.5,0.1l0,2.9l2.3,0.2c0.8-1.1,1.7-2.1,2.5-3.1C370,33.2,369.2,33.2,368.6,33.2z"
			/>
		<path fill="#000000" class="st0" d="M398,388.1l-8,8l4.4,4.3C396.7,396.9,397.9,392.5,398,388.1z"/>
		<path fill="#000000" class="st0" d="M366.8,101.8l0.2,6.1c0,0,6.6,6.9,5.1,18.1c0,0,6.7-12.7-0.9-24C369.9,102.1,368.4,102,366.8,101.8z"/>
		<path fill="#000000" class="st0" d="M363.1,333.5c-3.3,1.1-7.2,2.9-11.4,6.8c10.6-0.1,24.2-0.1,27.8-0.1c1.8,0,3.8,1,5.8,2.5
			c-0.5-2.6-1.5-6-1.7-9.3C377.3,333.5,369.4,333.5,363.1,333.5z"/>
		<path fill="#000000" class="st0" d="M531.3,17.1c0.2,0,0.4,0,0.6-0.1c0.2-0.1,0.3-0.1,0.4-0.2c0.5-0.3,0.8-0.9,0.8-1.5c0-1-0.8-1.8-1.8-1.8
			c-1,0-1.8,0.8-1.8,1.8C529.5,16.3,530.3,17.1,531.3,17.1z"/>
		<path fill="#000000" class="st0" d="M351.8,409.8l-30.5-31.4c-5,3.1-11.5,4.8-17.5,5.6c17,17.4,40.2,41.2,57.6,59c-1.9-3.4-3.6-6.9-5.2-10.5
			C353.5,426,351.2,417.4,351.8,409.8z"/>
		<path fill="#000000" class="st0" d="M321.4,157.1c0.1-0.2,0.8-1.7,2.3-4.6c1-1.9,1.1-3.5,0.5-5l-0.2,0.2c0.1,1.3-0.5,3.2-1.8,5.4
			c-1.3,2.4-2,4.3-2,5.6c0,0.1,0,0.3,0,0.4c0.5,0.2,0.9,0.4,1.4,0.5C321.2,158.9,321.1,158,321.4,157.1z"/>
		<path fill="#000000" class="st0" d="M364.8,391.5c0.3-0.1,0.6-0.2,0.9-0.2c0.3-1.1,0.5-2.3,0.6-3.7c0.1-3.4-0.7-6.4-2.4-9.2
			c-0.5-0.9-1.2-1.3-2-1.3c-0.2,0-0.4,0-0.6,0.1c-0.9,0.3-1.9,0.7-2.9,1c-0.2,0.1-0.4,0.1-0.6,0.1c-0.8,0-1.4-0.4-1.9-1.1
			c-0.5-0.8-0.2-2.2,0.9-4.2c1-1.8,2-3,2.9-3.6c0.1-0.1,0.3-0.1,0.4-0.1c0.4,0,0.9,0.3,1.5,0.9c0.6-1.8,0.3-3.7-0.8-5.5
			c-0.2-0.3-0.5-0.4-1.1-0.4c0,0,0,0-0.1,0c-0.5,0-0.9,0.2-1.2,0.4c-2.3,1.4-3.6,4.1-3.9,8.4c-0.3,3.9,0.3,7,1.7,9.4
			c0.4,0.7,1.1,1.1,2,1.1c0.5,0,1-0.1,1.6-0.3c1.1-0.3,2-0.5,2.7-0.5c0.6,0,1.1,0.1,1.4,0.4c0.2,1.7-0.2,3.4-1,5.1
			c-0.8,1.6-1.9,2.9-3.4,3.7c-1.5,0.9-3.1,1.4-4.5,1.4c-0.5,0-1,0-1.5-0.1c-1.9-0.4-3.5-1.6-4.7-3.7c-0.9-1.4-1.2-3.8-0.9-7
			c0.3-3.2,0-5.5-0.9-6.9c-0.4-0.6-0.8-1.2-1.4-1.7c0.9,1.5,1.4,3.3,1.4,5.5c-0.1,2-0.2,4-0.2,6c0.1,2.5,0.8,4.9,2.1,7.1
			c1.5,2.5,3.4,4.1,5.8,4.8c0.3,0.1,0.6,0.1,0.9,0.2C357.9,394.7,360.9,392.7,364.8,391.5z"/>
		<path fill="#000000" class="st0" d="M327.9,152.4c0.2,0,0.5-0.1,0.7-0.4c0.2-0.2,0.4-0.6,0.6-1c0.2-0.6,0.4-1,0.5-1.1c0,0,0,0,0.1,0
			c0.1,0,0.1,0,0.2,0.1l0.1,0.1c-0.2,1.5-0.7,2.9-1.6,4.2c-0.3,0.4-0.5,0.7-0.7,0.9c-0.1,0.3-0.2,0.6,0,0.7c0,0,0,0,0.1,0
			c0.1,0,0.4-0.2,0.9-0.5c0.5-0.3,0.8-0.6,0.9-0.7c0.4-0.4,0.8-1.1,1.1-1.8c0.3-0.8,0.4-1.4,0.3-2c-0.3-1.7-0.9-2.8-1.5-3.3
			l-0.3-0.3c-0.2,0.1-0.4,0.2-0.5,0.3c-0.2,0.2-0.3,0.5-0.5,0.9c-0.2,0.5-0.3,0.8-0.5,1c-0.2,0.2-0.4,0.4-0.6,0.4
			c-0.2,0-0.4-0.1-0.6-0.3c0-0.5,0.1-1,0.5-1.5c0.3-0.4,0.6-0.9,1-1.3c-0.2-1.1-0.5-1.9-0.6-2.4c-1.2,1.4-1.8,2.5-1.8,3.5
			c0.1,1.9,0.6,3.2,1.5,4.1C327.4,152.3,327.7,152.4,327.9,152.4z"/>
		<path fill="#000000" class="st0" d="M531.3,3.7c0.2,0,0.4,0,0.6-0.1c0.2-0.1,0.3-0.1,0.4-0.2c0.5-0.3,0.8-0.9,0.8-1.5c0-1-0.8-1.8-1.8-1.8
			c-1,0-1.8,0.8-1.8,1.8C529.5,2.8,530.3,3.7,531.3,3.7z"/>
		<path fill="#000000" class="st0" d="M389.5,88.5c-0.4-0.4-0.9-0.7-1.3-1c0,0.7,0,1.1,0,1.1h0c0,8.6,0.1,21.2,0.2,35.7
			C398.3,115.2,399.6,97,389.5,88.5z"/>
		<path fill="#000000" class="st0" d="M325.3,332.7c3.6,7,13,7.7,13,7.7s5.3,0,12.1-0.1C344.6,332.8,334.3,330.5,325.3,332.7z"/>
		<path fill="#000000" class="st0" d="M339,352.8c-11.6,0.1-21.7-13.6-21.7-13.6l-8,7.3c-1.5,4.1-0.9,5.6,2.9,3.7c3.6-1.8,13.7,0.3,16.6,9.7
			c14.7-0.1,40.9-0.2,47.3-0.2c3,0,5.6,0.4,7.7,0.9c1.1-3,1.6-5.6,1.8-7.9C372,352.6,347.2,352.7,339,352.8z"/>
		<path fill="#000000" class="st0" d="M376,375.8l2.7,2.1l10.9-9.8c-0.8-0.7-1.7-1.4-2.6-2L376,375.8z"/>
		<path fill="#000000" class="st0" d="M335.9,148.9l0.4-0.1c-0.6-1-1.6-2.8-3.1-5.3c-1.3-2.2-2.3-4-3-5.3c2.6,1.5,4.9,3.2,6.9,5.1
			c4.1,3.9,2.9,9.3-3.6,16.1c-0.7,0.7-1.4,1.3-2.1,1.9c2.4-0.1,4.8-0.4,7-1.1c2.3-3.2,3.4-6.2,3.5-9.2c0.1-4.2-2.1-8.4-6.4-12.6
			c-1.9-1.8-4.4-3.7-7.6-5.9c-0.2,0.6-0.3,1.2-0.5,1.8C329.5,140.4,332.4,145.3,335.9,148.9z"/>
		<path fill="#000000" class="st0" d="M531.3,30.6c0.2,0,0.4,0,0.6-0.1c0.2-0.1,0.3-0.1,0.4-0.2c0.5-0.3,0.8-0.9,0.8-1.5c0-1-0.8-1.8-1.8-1.8
			c-1,0-1.8,0.8-1.8,1.8C529.5,29.8,530.3,30.6,531.3,30.6z"/>
		<path fill="#000000" class="st0" d="M328.1,130.7c0.3-0.8,0.5-1.8,0.7-2.9c0.3-2.3,0.5-3.7,0.7-4.3c1,2.9,1.9,5.1,2.5,6.5l0.8,0.6l-4.7-13.6
			l-0.5,0.3c0,1.9-0.1,3.7-0.3,5.5c0.6,1.5,1,3.2,1,5.1C328.3,128.9,328.2,129.8,328.1,130.7z"/>
		<path fill="#000000" class="st0" d="M333.3,371.2c0.3-0.8,0.5-1.8,1.4-1.8l0,0h0c0.4,0,0.6,0.1,2.2,1.1c1.4,0.9,1.9,1.4,1.9,2.1
			c0,0.1,0,0.3,0,0.4c0.1-0.4,0.1-0.9,0.1-1.4c0-0.9-1.3-2-3.8-3.3c0-0.3,0.1-0.7,0.2-1.2c0.1-0.2,0.1-0.4-0.1-0.4c0,0,0,0,0,0
			c-0.2,0-0.4,0.5-0.7,1.6c-0.6,1-1,2-1.3,3C333.2,371.3,333.3,371.3,333.3,371.2z"/>
		<path fill="#000000" class="st0" d="M532.5,139.7c0.4,0.1,0.7,0.3,0.9,0.5c0.3-0.4,0.8-0.6,1.3-0.6l0.3,0c0.9,0,1.7,0.8,1.7,1.7l0,1.5
			c0,0.9-0.8,1.7-1.7,1.7l-0.2,0c-0.5,0-1-0.2-1.3-0.6c-0.3,0.4-0.8,0.6-1.3,0.6l-0.3,0c-0.5,0-0.9-0.2-1.2-0.5
			c-0.3,0.3-0.7,0.5-1.2,0.5l-0.2,0c-0.5,0-1-0.2-1.3-0.6c-0.3,0.4-0.8,0.6-1.3,0.6l-0.2,0c-0.2,0-0.3,0-0.4-0.1
			c-1.3,0.9-2.7,1.7-4.2,2.5l0,0.3l0,4.3c0.9,1,1.7,2,2.6,3l0-7.3l0-1.1l1.1,0l5.2,0l5.2,0l1.1,0l0,1.1l0.1,19.5
			c0.9,0.7,1.7,1.5,2.6,2.2l-0.1-21.7l0-1.1l1.1,0l6,0l1.1,0l0-1.6h-0.1c-0.5,0-1-0.2-1.3-0.6c-0.3,0.4-0.8,0.6-1.3,0.6l-0.2,0
			c-0.5,0-1-0.2-1.3-0.6c-0.3,0.4-0.8,0.6-1.3,0.6l-0.2,0c-0.9,0-1.7-0.8-1.7-1.7l0-1.5c0-0.9,0.8-1.7,1.7-1.7l0.2,0
			c0.5,0,1,0.2,1.3,0.6c0.3-0.4,0.8-0.6,1.3-0.6l0.2,0c0.5,0,1,0.2,1.3,0.6c0.3-0.3,0.7-0.5,1.1-0.6c-0.1-4.3-1.6-7.9-5.4-10.8
			C539.6,132.7,536.4,136.4,532.5,139.7z"/>
		<path fill="#000000" class="st0" d="M549.6,142.8C549.6,142.8,549.6,142.9,549.6,142.8c0.1-0.2,0.3-0.5,0.3-0.9c0-0.4-0.1-0.7-0.3-0.9
			c0,0.1,0,0.2,0,0.3L549.6,142.8z"/>
		<path fill="#000000" class="st0" d="M519.6,148.5l-0.4,0c0.1,0.2,0.3,0.3,0.4,0.5L519.6,148.5z"/>
		<path fill="#000000" class="st0" d="M497.5,445.3l-2.8,0.5l0,9.4c0,3.1-1.3,4.5-4.2,4.5c-0.3,0-1.6-0.1-2-0.1l1.3,2.8l0.8,0c0.8,0,1.4-0.1,2-0.2
			c1.5-2.3,3.2-4.5,4.9-6.7c0-0.1,0-0.1,0-0.2L497.5,445.3z"/>
		
			<rect x="513.8" y="421.1" transform="matrix(1 -5.100195e-03 5.100195e-03 1 -2.1494 2.6326)" class="st0" width="2.5" height="3.3"/>
		<path fill="#000000" class="st0" d="M476.1,446.2L476.1,446.2c3.6,0,8.4,1.3,8.5,4.8l0,2.6l-8.3,0l-0.3,0l-0.4,0c-1,0-2.1-0.1-3.1-0.7
			c0.3-0.8,0.4-1.7,0.4-2.8c0-3.6-1.9-6.1-5.9-6.1c-3.4,0-5.9,1.9-5.9,6.1c0,1.5,0.3,2.6,0.8,3.5l-2.3,0l0.6,8.8l2.2,0l0.4-3.4
			l-0.2-2.7l4.5,0c1.7,0,3-0.3,4-1.2c1.6,0.8,3.2,1.1,4.8,1.1l0.6,0l0.3,0l10.8-0.1l0-5.3c0-3.9-2.9-6.1-5.9-6.9l6.2-7.2l-3.1-0.9
			L476.1,446.2z M467,454.8l-0.2,0c-2.5,0-4-1.7-4-4.5c0-2.8,1.6-4.6,4.1-4.6c2.5,0,4.1,1.7,4.1,4.6
			C471.1,453.3,469.7,454.7,467,454.8z"/>
		<path fill="#000000" class="st0" d="M504.8,435.9l-2.9,0.4l0.1,14.2c0.9-1,1.9-2,2.8-3L504.8,435.9z"/>
		<path fill="#000000" class="st0" d="M505.4,410.9l0.9,4.6l-8.1,0l-1.4,2.8l16.7-0.1l0,0c1.6,0,2.9-0.4,3.9-1.2c1.6,0.9,3.3,1.2,4.8,1.1l0.6,0
			l0.3,0l13.5-0.1l-0.3-2.8l-5.2,0c-2.5,0-3.6-1.6-3.6-4.5c0-3.1,1.3-4.5,3.4-4.5c1.2,0,2.3,0.3,3.2,2.3l2-1.7
			c-1.4-2.8-3.2-3.4-5.3-3.4c-3.7,0-6.4,2.3-6.4,7.3c0,1.9,0.4,3.4,1.1,4.5l-2.8,0l-0.3,0l-0.4,0c-1,0-2.1-0.1-3.2-0.7
			c0.2-0.6,0.3-1.5,0.3-2.4l0-8.3l-2.9,0.5l0,7.4c0,2.4-0.8,3.7-3.3,3.7l-3.9,0l-1-5.4c-0.9-4.7-3.1-5.3-7.1-5.3l-0.1,2.7
			C503.8,407.6,504.8,407.7,505.4,410.9z"/>
		
			<rect x="517.8" y="421.1" transform="matrix(1 -5.100195e-03 5.100195e-03 1 -2.1492 2.6528)" class="st0" width="2.5" height="3.3"/>
		<path fill="#000000" class="st0" d="M482.4,418.2l0.2,0l10.9-0.1l0-5.3c0-1.3-0.3-2.4-0.9-3.4c-0.8,0.6-1.6,1.2-2.3,1.9c0.2,0.5,0.4,1,0.4,1.5
			l0,2.6l-5.2,0C484.4,416.4,483.4,417.3,482.4,418.2L482.4,418.2z"/>
	</g>
</g>
<path fill="#000000" d="M273.602,481.306c-0.578-0.576-1.301-1.03-2.174-1.362c-0.873-0.331-1.885-0.497-3.039-0.497
	c-0.663,0-1.463,0.079-2.4,0.238v-6.077h-1.535v17.711c0.706,0.202,1.402,0.354,2.087,0.454s1.301,0.151,1.849,0.151
	c1.153,0,2.166-0.162,3.039-0.486s1.596-0.764,2.174-1.319c0.576-0.555,1.006-1.211,1.287-1.968s0.42-1.561,0.42-2.411
	s-0.139-1.657-0.42-2.422C274.608,482.554,274.178,481.883,273.602,481.306z M272.391,489.167c-0.852,0.829-2.17,1.243-3.958,1.243
	c-0.39,0-0.805-0.032-1.244-0.097c-0.439-0.065-0.84-0.134-1.2-0.206v-8.845c0.447-0.115,0.887-0.194,1.319-0.237
	c0.433-0.044,0.808-0.065,1.125-0.065c0.894,0,1.668,0.112,2.325,0.335c0.656,0.224,1.199,0.545,1.633,0.963
	c0.432,0.418,0.752,0.919,0.961,1.503s0.314,1.243,0.314,1.979C273.667,487.195,273.241,488.338,272.391,489.167z M247.392,479.446
	c-0.62,0-1.297,0.079-2.033,0.238c-0.735,0.158-1.485,0.433-2.249,0.821l-0.065,1.73c0.548-0.303,0.973-0.52,1.276-0.649
	s0.624-0.237,0.962-0.324c0.338-0.086,0.677-0.158,1.016-0.216s0.667-0.087,0.984-0.087c1.139,0,1.982,0.249,2.53,0.746
	s0.822,1.33,0.822,2.498v0.13c-0.332-0.044-0.732-0.087-1.2-0.13c-0.469-0.043-0.876-0.065-1.222-0.065
	c-1.831,0-3.302,0.311-4.412,0.931c-1.11,0.619-1.665,1.644-1.665,3.07c0,0.707,0.155,1.305,0.465,1.795
	c0.31,0.49,0.713,0.88,1.211,1.168s1.067,0.497,1.708,0.627c0.641,0.13,1.308,0.194,2,0.194c0.807,0,1.6-0.072,2.378-0.216
	c0.779-0.145,1.536-0.368,2.271-0.671v-7.028c0-1.585-0.397-2.742-1.189-3.471C250.189,479.811,248.992,479.446,247.392,479.446z
	 M250.636,489.892c-0.375,0.144-0.858,0.267-1.449,0.367c-0.591,0.102-1.183,0.151-1.773,0.151c-0.505,0-0.984-0.035-1.438-0.108
	c-0.454-0.071-0.84-0.197-1.157-0.378c-0.317-0.18-0.57-0.414-0.757-0.703c-0.188-0.288-0.281-0.663-0.281-1.124
	c0-0.52,0.111-0.934,0.335-1.244c0.224-0.31,0.533-0.551,0.93-0.724c0.396-0.174,0.85-0.296,1.362-0.368
	c0.511-0.072,1.041-0.108,1.589-0.108c0.476,0,0.984,0.029,1.524,0.087c0.541,0.058,0.912,0.108,1.114,0.151V489.892z
	 M258.032,479.868c-0.649,0.122-1.276,0.263-1.881,0.422v11.418h1.535v-10.186c0.202-0.072,0.563-0.147,1.082-0.228
	c0.519-0.079,1.002-0.118,1.449-0.118h1.989v-1.492H260C259.336,479.685,258.681,479.746,258.032,479.868z M-77.92,487.667
	l241.145,0.656l0.663-0.433l-0.632-0.564L-77.92,487.667z M164.994,487.825l1.95,1.95l1.95-1.95l-1.95-1.95L164.994,487.825z
	 M169.559,487.825l3.057,3.057l3.057-3.057l-3.057-3.057L169.559,487.825z M212.359,489.286l-3.395-9.602h-1.514l-3.396,9.602
	l-2.984-9.602h-1.73l3.979,12.023h1.428l3.46-9.645l3.46,9.645h1.427l3.979-12.023h-1.73L212.359,489.286z M238.418,489.589
	c-0.317,0-0.591,0.115-0.822,0.346c-0.231,0.23-0.346,0.505-0.346,0.822c0,0.316,0.115,0.591,0.346,0.821
	c0.23,0.23,0.504,0.346,0.822,0.346c0.317,0,0.591-0.115,0.822-0.346c0.23-0.23,0.346-0.505,0.346-0.821
	c0-0.317-0.116-0.592-0.346-0.822C239.009,489.704,238.735,489.589,238.418,489.589z M193.243,489.286l-3.395-9.602h-1.514
	l-3.396,9.602l-2.984-9.602h-1.73l3.979,12.023h1.428l3.46-9.645l3.46,9.645h1.427l3.979-12.023h-1.73L193.243,489.286z
	 M231.476,489.286l-3.395-9.602h-1.514l-3.396,9.602l-2.984-9.602h-1.73l3.979,12.023h1.428l3.46-9.645l3.46,9.645h1.427
	l3.979-12.023h-1.73L231.476,489.286z M382.732,480.474c-0.426-0.396-0.938-0.667-1.535-0.812c-0.598-0.144-1.271-0.216-2.021-0.216
	c-0.664,0-1.393,0.09-2.184,0.271c-0.793,0.181-1.471,0.4-2.033,0.659c-0.346-0.331-0.818-0.569-1.416-0.714
	c-0.6-0.144-1.273-0.216-2.023-0.216c-0.635,0-1.268,0.058-1.902,0.173l-2.465,0.454v11.635h1.535v-10.38
	c0.447-0.102,0.883-0.188,1.309-0.26c0.424-0.072,0.896-0.108,1.416-0.108c0.605,0,1.125,0.058,1.557,0.173
	c0.434,0.116,0.789,0.321,1.07,0.616c0.281,0.296,0.494,0.711,0.639,1.244s0.217,1.24,0.217,2.119v6.596h1.535v-7.201
	c0-0.663-0.055-1.243-0.162-1.741c-0.109-0.497-0.213-0.861-0.314-1.092c0.086-0.043,0.281-0.119,0.584-0.228
	c0.303-0.107,0.602-0.197,0.898-0.27c0.295-0.072,0.586-0.126,0.875-0.162s0.547-0.055,0.779-0.055c0.59,0,1.102,0.058,1.535,0.173
	c0.432,0.116,0.781,0.317,1.049,0.605c0.266,0.289,0.471,0.703,0.615,1.244c0.145,0.54,0.217,1.251,0.217,2.13v6.596h1.535v-7.201
	c0-0.995-0.111-1.816-0.336-2.466C383.482,481.393,383.158,480.87,382.732,480.474z M280.1,474.581
	c-0.785,0.648-1.18,1.729-1.18,3.243v1.86h-2.551v1.492h2.551v10.531h1.537v-10.531h4.973v-1.492h-4.973v-1.471
	c0-0.635,0.045-1.149,0.141-1.546c0.094-0.396,0.24-0.707,0.443-0.931c0.201-0.223,0.475-0.385,0.82-0.486
	c0.346-0.101,0.779-0.151,1.299-0.151h2.422v-1.492h-2.271C281.956,473.607,280.885,473.932,280.1,474.581z M398.273,487.825
	l3.057,3.057l3.057-3.057l-3.057-3.057L398.273,487.825z M343.322,482.322c0.389-0.418,0.854-0.749,1.395-0.994
	s1.135-0.368,1.783-0.368c0.736,0,1.373,0.076,1.914,0.228s1.121,0.414,1.74,0.789l0.715-1.405c-0.707-0.39-1.393-0.674-2.055-0.854
	c-0.664-0.181-1.436-0.271-2.314-0.271c-0.85,0-1.639,0.155-2.367,0.465c-0.729,0.311-1.367,0.746-1.914,1.309
	c-0.549,0.563-0.98,1.222-1.297,1.979c-0.317,0.757-0.476,1.59-0.476,2.498s0.158,1.74,0.476,2.497
	c0.316,0.757,0.748,1.413,1.297,1.969c0.547,0.555,1.186,0.987,1.914,1.297c0.729,0.311,1.518,0.465,2.367,0.465
	c0.879,0,1.65-0.09,2.314-0.27c0.662-0.181,1.348-0.466,2.055-0.854l-0.715-1.406c-0.619,0.375-1.199,0.639-1.74,0.79
	s-1.178,0.227-1.914,0.227c-0.648,0-1.242-0.119-1.783-0.356c-0.541-0.238-1.006-0.565-1.395-0.984
	c-0.391-0.418-0.693-0.915-0.908-1.492c-0.217-0.576-0.324-1.203-0.324-1.881s0.107-1.305,0.324-1.882
	C342.628,483.238,342.931,482.741,343.322,482.322z M404.387,487.825l1.949,1.95l1.951-1.95l-1.951-1.95L404.387,487.825z
	 M410.701,487.326l-0.664,0.433l0.633,0.564l241.176-0.341L410.701,487.326z M362.611,481.295c-0.549-0.569-1.193-1.02-1.936-1.352
	c-0.742-0.331-1.547-0.497-2.412-0.497c-0.863,0-1.668,0.166-2.41,0.497c-0.742,0.332-1.389,0.782-1.936,1.352
	c-0.549,0.57-0.977,1.229-1.287,1.979c-0.311,0.749-0.465,1.557-0.465,2.422s0.154,1.672,0.465,2.422s0.738,1.409,1.287,1.979
	c0.547,0.569,1.193,1.017,1.936,1.341s1.547,0.486,2.41,0.486c0.865,0,1.67-0.162,2.412-0.486s1.387-0.771,1.936-1.341
	c0.547-0.569,0.977-1.229,1.287-1.979c0.309-0.75,0.465-1.557,0.465-2.422s-0.156-1.673-0.465-2.422
	C363.587,482.524,363.158,481.865,362.611,481.295z M362.394,487.523c-0.217,0.569-0.52,1.067-0.908,1.492
	c-0.389,0.426-0.857,0.765-1.406,1.017c-0.547,0.252-1.152,0.378-1.816,0.378c-0.662,0-1.268-0.126-1.816-0.378
	c-0.547-0.252-1.016-0.591-1.404-1.017c-0.391-0.425-0.693-0.923-0.908-1.492c-0.217-0.569-0.324-1.179-0.324-1.827
	c0-0.649,0.107-1.262,0.324-1.839c0.215-0.576,0.518-1.077,0.908-1.503c0.389-0.425,0.857-0.764,1.404-1.016
	c0.549-0.252,1.154-0.379,1.816-0.379c0.664,0,1.27,0.127,1.816,0.379c0.549,0.252,1.018,0.591,1.406,1.016
	c0.389,0.426,0.691,0.927,0.908,1.503c0.217,0.577,0.324,1.189,0.324,1.839C362.718,486.345,362.611,486.954,362.394,487.523z
	 M296.221,481.295c-0.547-0.569-1.191-1.02-1.936-1.352c-0.742-0.331-1.545-0.497-2.41-0.497s-1.67,0.166-2.412,0.497
	c-0.742,0.332-1.387,0.782-1.936,1.352c-0.547,0.57-0.977,1.229-1.285,1.979c-0.311,0.749-0.465,1.557-0.465,2.422
	s0.154,1.672,0.465,2.422c0.309,0.75,0.738,1.409,1.285,1.979c0.549,0.569,1.193,1.017,1.936,1.341s1.547,0.486,2.412,0.486
	s1.668-0.162,2.41-0.486c0.744-0.324,1.389-0.771,1.936-1.341c0.549-0.569,0.977-1.229,1.287-1.979s0.465-1.557,0.465-2.422
	s-0.154-1.673-0.465-2.422C297.198,482.524,296.77,481.865,296.221,481.295z M296.006,487.523c-0.217,0.569-0.52,1.067-0.908,1.492
	c-0.391,0.426-0.859,0.765-1.406,1.017c-0.549,0.252-1.154,0.378-1.816,0.378c-0.664,0-1.27-0.126-1.816-0.378
	c-0.549-0.252-1.018-0.591-1.406-1.017c-0.389-0.425-0.691-0.923-0.908-1.492s-0.324-1.179-0.324-1.827
	c0-0.649,0.107-1.262,0.324-1.839c0.217-0.576,0.52-1.077,0.908-1.503c0.389-0.425,0.857-0.764,1.406-1.016
	c0.547-0.252,1.152-0.379,1.816-0.379c0.662,0,1.268,0.127,1.816,0.379c0.547,0.252,1.016,0.591,1.406,1.016
	c0.389,0.426,0.691,0.927,0.908,1.503c0.215,0.577,0.324,1.189,0.324,1.839C296.331,486.345,296.221,486.954,296.006,487.523z
	 M309.381,480.463c-0.455-0.39-0.996-0.656-1.623-0.801c-0.627-0.144-1.309-0.216-2.043-0.216c-0.707,0-1.465,0.047-2.271,0.141
	s-1.701,0.234-2.682,0.422v11.699h1.535v-10.402c1.184-0.23,2.293-0.346,3.33-0.346c0.592,0,1.111,0.062,1.559,0.184
	c0.445,0.123,0.818,0.332,1.113,0.628c0.295,0.295,0.525,0.713,0.691,1.254s0.25,1.251,0.25,2.13v6.553h1.535v-7.201
	c0-0.995-0.119-1.82-0.357-2.477C310.18,481.375,309.834,480.852,309.381,480.463z M318.516,490.054
	c-0.346-0.108-0.619-0.277-0.82-0.509c-0.203-0.23-0.35-0.547-0.443-0.951c-0.096-0.403-0.141-0.922-0.141-1.557v-5.86h4.973v-1.492
	h-4.973v-4.347h-1.537v4.347h-2.551v1.492h2.551v6.466c0,0.764,0.109,1.405,0.326,1.925c0.215,0.519,0.525,0.937,0.93,1.254
	c0.402,0.317,0.867,0.544,1.395,0.682c0.525,0.137,1.105,0.205,1.74,0.205h2.271v-1.492h-2.422
	C319.295,490.216,318.862,490.162,318.516,490.054z M337.784,489.589c-0.316,0-0.59,0.115-0.82,0.346s-0.346,0.505-0.346,0.822
	c0,0.316,0.115,0.591,0.346,0.821s0.504,0.346,0.82,0.346c0.318,0,0.592-0.115,0.822-0.346s0.346-0.505,0.346-0.821
	c0-0.317-0.115-0.592-0.346-0.822S338.102,489.589,337.784,489.589z M333.178,486.106c-0.346-0.303-0.785-0.565-1.318-0.789
	c-0.533-0.223-1.182-0.422-1.947-0.595l-0.799-0.173c-1.053-0.216-1.781-0.461-2.184-0.735c-0.404-0.273-0.607-0.678-0.607-1.211
	c0-0.504,0.238-0.904,0.715-1.2c0.475-0.295,1.174-0.443,2.098-0.443c0.793,0,1.477,0.076,2.055,0.228
	c0.576,0.151,1.217,0.421,1.924,0.811l0.691-1.405c-1.412-0.765-2.969-1.146-4.67-1.146c-0.635,0-1.223,0.076-1.764,0.228
	c-0.539,0.151-1.008,0.364-1.404,0.638s-0.711,0.605-0.941,0.994c-0.23,0.39-0.346,0.815-0.346,1.276
	c0,0.462,0.072,0.88,0.217,1.254c0.143,0.375,0.381,0.707,0.713,0.995s0.758,0.537,1.275,0.746c0.52,0.209,1.146,0.4,1.883,0.573
	l0.908,0.194c1.008,0.217,1.729,0.49,2.162,0.822c0.432,0.331,0.648,0.771,0.648,1.318c0,0.39-0.086,0.707-0.26,0.952
	c-0.172,0.245-0.414,0.436-0.725,0.573c-0.311,0.137-0.678,0.237-1.102,0.303c-0.426,0.064-0.877,0.097-1.352,0.097
	c-0.592,0-1.223-0.09-1.893-0.271c-0.67-0.18-1.352-0.479-2.045-0.897l-0.734,1.471c0.779,0.433,1.539,0.742,2.281,0.93
	s1.539,0.281,2.391,0.281c0.748,0,1.434-0.072,2.053-0.216c0.621-0.145,1.158-0.36,1.611-0.648c0.455-0.289,0.805-0.649,1.049-1.082
	c0.246-0.433,0.369-0.93,0.369-1.492c0-0.476-0.072-0.915-0.217-1.318C333.77,486.763,333.526,486.41,333.178,486.106z"/>
</svg>

