<?xml version="1.0" encoding="utf-8"?>
<!-- Generator: Adobe Illustrator 21.0.0, SVG Export Plug-In . SVG Version: 6.00 Build 0)  -->
<svg version="1.1" id="Layer_1" xmlns="http://www.w3.org/2000/svg" xmlns:xlink="http://www.w3.org/1999/xlink" x="0px" y="0px"
	 viewBox="0 0 800 500" style="enable-background:new 0 0 800 500;" xml:space="preserve">
<style type="text/css">
	.st0{fill:#020202;}
</style>
<g id="XMLID_60_">
	<g id="XMLID_256_">
		<g>
			<g id="XMLID_612_">
				<path fill="#000000" class="st0" d="M675.5,200c-15.3-9.2-31.9-9.8-47.8-5.3c-15.9,4.5-30.9,14-43.2,25c-27.3,24.3-49.5,52-76.4,77.5
					c-35.9,33.7-82.2,55.3-133.2,45.2c-43.4-8.6-79-38.8-88.3-82.2c-8.6-39.1-3.9-76.5,0-114.5c-8.3,64.3-32.3,134.6,6.8,196
					c23,35.9,66.1,48.1,105.9,46.3c84-4.3,131.8-79.3,189.9-131.8c8.3-7.5,18.3-12.6,29.5-15c13.1-3.1,26.6-2.5,39.6,1
					c26,7.1,49.9,25.9,63.4,50.5c-2.9-17.6-6.1-35.2-13.1-51.6C701.8,224.3,691.6,209.2,675.5,200z"/>
			</g>
			<g id="XMLID_611_">
				
					<rect x="488.3" y="370" transform="matrix(0.8173 -0.5762 0.5762 0.8173 -131.7588 363.8442)" class="st0" width="39.4" height="39.4"/>
			</g>
			<g id="XMLID_610_">
				
					<rect x="446" y="393.4" transform="matrix(0.8173 -0.5762 0.5762 0.8173 -152.9262 343.7409)" class="st0" width="39.4" height="39.4"/>
			</g>
			<g id="XMLID_609_">
				
					<rect x="201" y="291.8" transform="matrix(0.8173 -0.5762 0.5762 0.8173 -139.1723 184.065)" class="st0" width="39.4" height="39.4"/>
			</g>
			<g id="XMLID_608_">
				
					<rect x="158.7" y="315.2" transform="matrix(0.8173 -0.5762 0.5762 0.8173 -160.3398 163.9617)" class="st0" width="39.4" height="39.4"/>
			</g>
			<g id="XMLID_607_">
				<path fill="#000000" class="st0" d="M229.3,377.4c-2.8,3-5.4,6.2-7.8,9.6c-0.2,0.3-0.3,1.4-0.4,1.6c-0.3,1.3-0.6,2.6-0.8,3.9
					c-0.3,1.3-0.5,2.6-0.8,3.9c-0.1,0.4-0.1,1.3-0.3,1.6c8.5-11.7,19.4-21.7,32-28.9c3.6-2.1,7.3-3.9,11.1-5.5
					c0.1,0,0.4-1.7,0.4-1.6c0.3-1.3,0.6-2.6,0.8-3.9s0.5-2.6,0.8-3.9c0-0.2,0.2-1.6,0.3-1.6C251.1,358.3,239.1,366.8,229.3,377.4z"
					/>
			</g>
			<g id="XMLID_606_">
				<path fill="#000000" class="st0" d="M575.4,286.7c-3.3,3.6-6.4,7.3-9.2,11.3c-0.2,0.3-0.4,1.6-0.4,1.9c-0.3,1.5-0.7,3-1,4.5
					c-0.3,1.5-0.6,3-0.9,4.5c-0.1,0.5-0.1,1.5-0.4,1.9c10-13.8,22.8-25.4,37.5-34c4.2-2.4,8.5-4.6,13-6.5c0.1-0.1,0.5-2,0.4-1.9
					c0.3-1.5,0.7-3,1-4.5c0.3-1.5,0.6-3,0.9-4.5c0-0.2,0.2-1.8,0.4-1.9C601.1,264.1,586.9,274.1,575.4,286.7z"/>
			</g>
			<g id="XMLID_605_">
				<path fill="#000000" class="st0" d="M482.3,88.7c-3.3,3.6-6.4,7.3-9.2,11.3c-0.2,0.3-0.4,1.6-0.4,1.9c-0.3,1.5-0.7,3-1,4.5
					c-0.3,1.5-0.6,3-0.9,4.5c-0.1,0.5-0.1,1.5-0.4,1.9c10-13.8,22.8-25.4,37.5-34c4.2-2.4,8.5-4.6,13-6.5c0.1-0.1,0.5-2,0.4-1.9
					c0.3-1.5,0.7-3,1-4.5c0.3-1.5,0.6-3,0.9-4.5c0-0.2,0.2-1.8,0.4-1.9C508.1,66.2,493.9,76.2,482.3,88.7z"/>
			</g>
			<g id="XMLID_604_">
				<path fill="#000000" class="st0" d="M388.3,107.9c-1.2,2.5-2.2,5-2.9,7.7c-0.4,1.4-0.7,2.9-1.1,4.3c-1.9-2.1-3.7-4.3-5.7-6.3
					c-1.7-1.7-3.7-3.2-6.2-2.8c-0.1,0-0.4,1.8-0.4,1.6c-0.3,1.3-0.6,2.6-0.8,3.9c-0.3,1.3-0.5,2.6-0.8,3.9c0,0.2-0.2,1.6-0.3,1.6
					c2.5-0.4,4.6,1.1,6.2,2.8c2.1,2.1,3.9,4.4,5.8,6.5c0,0,0.4-1.8,0.4-1.6c0.2-1,0.5-2.1,0.7-3.1c0.1-0.4,0.2-0.7,0.2-1.1
					c0,0,0-0.1,0-0.1c0.3-1,0.7-2.1,1.1-3.1c0.9-2.1,1.9-4.2,3.1-6.2c2.4-3.9,5.4-7.3,8.9-10.2c0.2-0.1,0.4-1.6,0.4-1.6
					c0.3-1.3,0.6-2.6,0.8-3.9c0.3-1.3,0.5-2.6,0.8-3.9c0.1-0.3,0.1-1.5,0.3-1.6C394.5,98.3,390.8,102.8,388.3,107.9z"/>
			</g>
			<g id="XMLID_603_">
				<path fill="#000000" class="st0" d="M96.5,107.9c-1.2,2.5-2.2,5-2.9,7.7c-0.4,1.4-0.7,2.9-1.1,4.3c-1.9-2.1-3.7-4.3-5.7-6.3
					c-1.7-1.7-3.7-3.2-6.2-2.8c-0.1,0-0.4,1.8-0.4,1.6c-0.3,1.3-0.6,2.6-0.8,3.9c-0.3,1.3-0.5,2.6-0.8,3.9c0,0.2-0.2,1.6-0.3,1.6
					c2.5-0.4,4.6,1.1,6.2,2.8c2.1,2.1,3.9,4.4,5.8,6.5c0,0,0.4-1.8,0.4-1.6c0.2-1,0.5-2.1,0.7-3.1c0.1-0.4,0.2-0.7,0.2-1.1
					c0,0,0-0.1,0-0.1c0.3-1,0.7-2.1,1.1-3.1c0.9-2.1,1.9-4.2,3.1-6.2c2.4-3.9,5.4-7.3,8.9-10.2c0.2-0.1,0.4-1.6,0.4-1.6
					c0.3-1.3,0.6-2.6,0.8-3.9c0.3-1.3,0.5-2.6,0.8-3.9c0.1-0.3,0.1-1.5,0.3-1.6C102.7,98.3,99.1,102.8,96.5,107.9z"/>
			</g>
			<g id="XMLID_600_">
				<g>
					<path fill="#000000" class="st0" d="M344.5,82.7c-3.6-3.6-8.5-5.6-13.5-5.7c0-0.1,0-0.2,0.1-0.3c0.1-0.5,0.1-1.1,0.3-1.6
						c-0.2,0.6-0.5,1.2-0.7,1.9c-1.8,0-3.7,0.2-5.5,0.8c-0.1,0-0.4,1.7-0.4,1.6c-0.3,1.3-0.6,2.5-0.8,3.8c-0.3,1.3-0.5,2.5-0.8,3.8
						c0,0.2-0.2,1.6-0.3,1.6c1.6-0.5,3.3-0.7,5-0.8c-0.3,1.5-0.5,2.8-0.5,3c0,0,0,0.1,0,0.1c-0.7,3.7-1.2,7.3-0.5,11
						c1,5.7,4.8,11.1,10.4,13c2.6,0.9,5.9,1.1,8.2-0.5c1.4-1,1.9-2.5,2.3-4.1c0-0.1,0-0.2,0.1-0.3c0.2,0.9,2.8-9.6,1.9-8.9
						c0.1-0.7,0.2-1.3,0.3-2C350.7,93.1,348.7,86.9,344.5,82.7z M342.9,104.8c-4.9-0.2-9.2-3.5-11.7-7.7c-1.6-2.6-2.3-5.7-2.5-8.7
						c0-0.2,0-0.5,0-0.7c3.3,0.1,6.7,1,9.6,2.7c4.6,2.7,7.8,7.3,9,12.4c0.1,0.3,0.1,0.5,0.2,0.8
						C346.2,104.5,344.6,104.9,342.9,104.8z"/>
				</g>
			</g>
			<g id="XMLID_597_">
				<g>
					<path fill="#000000" class="st0" d="M132.9,275.6c-3.6-3.6-8.5-5.6-13.5-5.7c0-0.1,0-0.2,0.1-0.3c0.1-0.5,0.1-1.1,0.3-1.6
						c-0.2,0.6-0.5,1.2-0.7,1.9c-1.8,0-3.7,0.2-5.5,0.8c-0.1,0-0.4,1.7-0.4,1.6c-0.3,1.3-0.6,2.5-0.8,3.8c-0.3,1.3-0.5,2.5-0.8,3.8
						c0,0.2-0.2,1.6-0.3,1.6c1.6-0.5,3.3-0.7,5-0.8c-0.3,1.5-0.5,2.8-0.5,3c0,0,0,0.1,0,0.1c-0.7,3.7-1.2,7.3-0.5,11
						c1,5.7,4.8,11.1,10.4,13c2.6,0.9,5.9,1.1,8.2-0.5c1.4-1,1.9-2.5,2.3-4.1c0-0.1,0-0.2,0.1-0.3c0.2,0.9,2.8-9.6,1.9-8.9
						c0.1-0.7,0.2-1.3,0.3-2C139.1,286.1,137.1,279.9,132.9,275.6z M131.3,297.7c-4.9-0.2-9.2-3.5-11.7-7.7
						c-1.6-2.6-2.3-5.7-2.5-8.7c0-0.2,0-0.5,0-0.7c3.3,0.1,6.7,1,9.6,2.7c4.6,2.7,7.8,7.3,9,12.4c0.1,0.3,0.1,0.5,0.2,0.8
						C134.6,297.5,133,297.8,131.3,297.7z"/>
				</g>
			</g>
			<g id="XMLID_596_">
				<path fill="#000000" class="st0" d="M330.7,225.1c-1.1-5.2-2.6-10.2-4.5-15.1c-2-5-4.5-9.8-5.2-15.2c-0.2,0.4-0.3,0.8-0.4,1.3
					c-0.3,1-0.6,2-0.9,3.1c-1,3.5-1.9,7-2.9,10.5c-0.9,3.5-1.9,7-2.8,10.5c-0.2,0.8-0.4,1.6-0.6,2.3c-0.2,0.7-0.3,1.4-0.5,2
					c0.7,5.3,3.1,10.1,5.1,15c2,5,3.5,10.1,4.6,15.3c2.1,10.4,2.4,21.1,0.9,31.6c0.2-1.3,0.9-3.1,1.3-4.3c1-3.5,1.9-7,2.9-10.5
					c0.9-3.5,1.9-7,2.8-10.5c0.4-1.4,0.8-2.9,1.1-4.4C333.1,246.3,332.8,235.5,330.7,225.1z"/>
			</g>
			<g id="XMLID_595_">
				<path fill="#000000" class="st0" d="M514,265.5c-1.1,2.3-2.1,4.7-2.7,7.2c-0.4,1.3-0.7,2.7-1,4c-1.7-2-3.4-4-5.3-5.9c-1.6-1.6-3.5-3-5.8-2.6
					c-0.1,0-0.4,1.7-0.4,1.5c-0.3,1.2-0.5,2.4-0.8,3.6c-0.3,1.2-0.5,2.4-0.7,3.6c0,0.2-0.2,1.5-0.3,1.5c2.3-0.4,4.2,1,5.8,2.6
					c1.9,1.9,3.6,4,5.4,6.1c0,0,0.4-1.7,0.4-1.5c0.2-1,0.4-1.9,0.6-2.9c0.1-0.3,0.2-0.7,0.2-1c0,0,0-0.1,0-0.1c0.3-1,0.6-1.9,1-2.9
					c0.8-2,1.8-3.9,2.9-5.7c2.2-3.6,5-6.8,8.3-9.5c0.2-0.1,0.4-1.5,0.4-1.5c0.3-1.2,0.5-2.4,0.8-3.6c0.3-1.2,0.5-2.4,0.7-3.6
					c0.1-0.3,0.1-1.4,0.3-1.5C519.8,256.5,516.4,260.7,514,265.5z"/>
			</g>
			
				<rect id="XMLID_594_" x="364.2" y="323.6" transform="matrix(0.7071 -0.7071 0.7071 0.7071 -124.5522 358.1518)" class="st0" width="11.7" height="11.7"/>
			
				<rect id="XMLID_593_" x="393.1" y="320.8" transform="matrix(0.7071 -0.7071 0.7071 0.7071 -114.1268 377.7194)" class="st0" width="11.7" height="11.7"/>
			
				<rect id="XMLID_592_" x="415.9" y="243" transform="matrix(0.7071 -0.7071 0.7071 0.7071 -52.4479 371.1027)" class="st0" width="11.7" height="11.7"/>
			
				<rect id="XMLID_591_" x="427.5" y="167.9" transform="matrix(0.7071 -0.7071 0.7071 0.7071 4.095 357.2458)" class="st0" width="11.7" height="11.7"/>
			
				<rect id="XMLID_590_" x="560.5" y="133.4" transform="matrix(0.7071 -0.7071 0.7071 0.7071 67.4013 441.216)" class="st0" width="11.7" height="11.7"/>
			
				<rect id="XMLID_589_" x="304.3" y="109.7" transform="matrix(0.7071 -0.7071 0.7071 0.7071 9.1249 253.1324)" class="st0" width="11.7" height="11.7"/>
			
				<rect id="XMLID_588_" x="332.3" y="305.8" transform="matrix(0.7071 -0.7071 0.7071 0.7071 -121.3085 330.3248)" class="st0" width="11.7" height="11.7"/>
			
				<rect id="XMLID_587_" x="370.4" y="276.8" transform="matrix(0.7071 -0.7071 0.7071 0.7071 -89.6472 348.8069)" class="st0" width="11.7" height="11.7"/>
			
				<rect id="XMLID_586_" x="487.3" y="286.5" transform="matrix(0.7071 -0.7071 0.7071 0.7071 -62.2597 434.2786)" class="st0" width="11.7" height="11.7"/>
			
				<rect id="XMLID_585_" x="415.9" y="323.6" transform="matrix(0.7071 -0.7071 0.7071 0.7071 -109.414 394.6989)" class="st0" width="11.7" height="11.7"/>
			
				<rect id="XMLID_584_" x="352.5" y="147.4" transform="matrix(0.7071 -0.7071 0.7071 0.7071 -3.3841 298.2411)" class="st0" width="11.7" height="11.7"/>
			
				<rect id="XMLID_583_" x="322.9" y="290.7" transform="matrix(0.7071 -0.7071 0.7071 0.7071 -113.3868 319.2764)" class="st0" width="11.7" height="11.7"/>
			
				<rect id="XMLID_582_" x="290.8" y="208.5" transform="matrix(0.7071 -0.7071 0.7071 0.7071 -64.7087 272.5163)" class="st0" width="11.7" height="11.7"/>
			
				<rect id="XMLID_581_" x="478.1" y="130.8" transform="matrix(0.7071 -0.7071 0.7071 0.7071 45.1003 382.183)" class="st0" width="11.7" height="11.7"/>
			
				<rect id="XMLID_580_" x="180.8" y="277.9" transform="matrix(0.7071 -0.7071 0.7071 0.7071 -145.969 215.098)" class="st0" width="11.7" height="11.7"/>
			
				<rect id="XMLID_579_" x="153.4" y="297.5" transform="matrix(0.7071 -0.7071 0.7071 0.7071 -167.8641 201.4412)" class="st0" width="11.7" height="11.7"/>
			
				<rect id="XMLID_578_" x="254.9" y="305.7" transform="matrix(0.7071 -0.7071 0.7071 0.7071 -143.9133 275.6108)" class="st0" width="11.7" height="11.7"/>
			
				<rect id="XMLID_577_" x="251.9" y="278.3" transform="matrix(0.7071 -0.7071 0.7071 0.7071 -125.4009 265.4382)" class="st0" width="11.7" height="11.7"/>
			
				<rect id="XMLID_576_" x="336" y="255.6" transform="matrix(0.7071 -0.7071 0.7071 0.7071 -84.7185 318.2714)" class="st0" width="11.7" height="11.7"/>
			
				<rect id="XMLID_575_" x="221.5" y="104.6" transform="matrix(0.7071 -0.7071 0.7071 0.7071 -11.4661 193.0984)" class="st0" width="11.7" height="11.7"/>
			
				<rect id="XMLID_574_" x="158.6" y="222.5" transform="matrix(0.7071 -0.7071 0.7071 0.7071 -113.297 183.1069)" class="st0" width="11.7" height="11.7"/>
			
				<rect id="XMLID_573_" x="254.9" y="222.5" transform="matrix(0.7071 -0.7071 0.7071 0.7071 -85.0756 251.2394)" class="st0" width="11.7" height="11.7"/>
			
				<rect id="XMLID_572_" x="251.9" y="247.3" transform="matrix(0.7071 -0.7071 0.7071 0.7071 -103.5262 256.3773)" class="st0" width="11.7" height="11.7"/>
			
				<rect id="XMLID_571_" x="260.1" y="327.2" transform="matrix(0.7071 -0.7071 0.7071 0.7071 -157.5772 285.5958)" class="st0" width="11.7" height="11.7"/>
			
				<rect id="XMLID_570_" x="637.5" y="243" transform="matrix(0.7071 -0.7071 0.7071 0.7071 12.4592 527.8021)" class="st0" width="11.7" height="11.7"/>
			
				<rect id="XMLID_569_" x="610.9" y="243" transform="matrix(0.7071 -0.7071 0.7071 0.7071 4.658 508.9684)" class="st0" width="11.7" height="11.7"/>
			
				<rect id="XMLID_568_" x="118.5" y="121" transform="matrix(0.7071 -0.7071 0.7071 0.7071 -53.2935 125.0951)" class="st0" width="11.7" height="11.7"/>
			
				<rect id="XMLID_567_" x="123.9" y="238.7" transform="matrix(0.7071 -0.7071 0.7071 0.7071 -134.8891 163.3544)" class="st0" width="11.7" height="11.7"/>
			
				<rect id="XMLID_566_" x="432.4" y="301.7" transform="matrix(0.7071 -0.7071 0.7071 0.7071 -89.1006 399.9443)" class="st0" width="11.7" height="11.7"/>
			
				<rect id="XMLID_565_" x="555.5" y="211.7" transform="matrix(0.7071 -0.7071 0.7071 0.7071 10.6205 460.6289)" class="st0" width="11.7" height="11.7"/>
			
				<rect id="XMLID_564_" x="296" y="234.8" transform="matrix(0.7071 -0.7071 0.7071 0.7071 -81.7247 283.9338)" class="st0" width="11.7" height="11.7"/>
			
				<rect id="XMLID_563_" x="307.3" y="179.2" transform="matrix(0.7071 -0.7071 0.7071 0.7071 -39.1142 275.5741)" class="st0" width="11.7" height="11.7"/>
			
				<rect id="XMLID_562_" x="370.4" y="303.9" transform="matrix(0.7071 -0.7071 0.7071 0.7071 -108.7997 356.7401)" class="st0" width="11.7" height="11.7"/>
			
				<rect id="XMLID_561_" x="600.8" y="176.1" transform="matrix(0.7071 -0.7071 0.7071 0.7071 49.0475 482.2594)" class="st0" width="11.7" height="11.7"/>
			
				<rect id="XMLID_560_" x="380.7" y="137.5" transform="matrix(0.7071 -0.7071 0.7071 0.7071 11.8391 315.3161)" class="st0" width="11.7" height="11.7"/>
			
				<rect id="XMLID_559_" x="175" y="145.8" transform="matrix(0.7071 -0.7071 0.7071 0.7071 -54.2299 172.2999)" class="st0" width="11.7" height="11.7"/>
			
				<rect id="XMLID_558_" x="89.4" y="203.9" transform="matrix(0.7071 -0.7071 0.7071 0.7071 -120.4095 128.7751)" class="st0" width="11.7" height="11.7"/>
			
				<rect id="XMLID_557_" x="232" y="268.5" transform="matrix(0.7071 -0.7071 0.7071 0.7071 -124.3568 248.522)" class="st0" width="11.7" height="11.7"/>
			
				<rect id="XMLID_556_" x="576" y="195.7" transform="matrix(0.7071 -0.7071 0.7071 0.7071 27.9385 470.4305)" class="st0" width="11.7" height="11.7"/>
			
				<rect id="XMLID_555_" x="469.8" y="301.6" transform="matrix(0.7071 -0.7071 0.7071 0.7071 -78.0689 426.3716)" class="st0" width="11.7" height="11.7"/>
			
				<rect id="XMLID_554_" x="529.6" y="234.8" transform="matrix(0.7071 -0.7071 0.7071 0.7071 -13.333 449.0459)" class="st0" width="11.7" height="11.7"/>
			
				<rect id="XMLID_553_" x="304.3" y="264.2" transform="matrix(0.7071 -0.7071 0.7071 0.7071 -100.126 298.3856)" class="st0" width="11.7" height="11.7"/>
			
				<rect id="XMLID_552_" x="344.2" y="226.5" transform="matrix(0.7071 -0.7071 0.7071 0.7071 -61.7787 315.5992)" class="st0" width="11.7" height="11.7"/>
		</g>
	</g>
	<g id="XMLID_199_">
		<path fill="#000000" id="XMLID_329_" class="st0" d="M480.6,190.9c0,0.1,0,0.2,0,0.3c0,0,0,0,0,0.1C480.5,191.1,480.5,191,480.6,190.9
			C480.6,190.8,480.6,190.9,480.6,190.9z"/>
		<path fill="#000000" id="XMLID_330_" class="st0" d="M475.7,218.4c0-0.1,0.1-0.3,0.1-0.5C475.7,218.4,475.6,219.1,475.7,218.4z"/>
		<path fill="#000000" id="XMLID_331_" class="st0" d="M475.8,217.9c0,0.1,0,0.2-0.1,0.3c0,0.1,0,0.1,0,0.2c0-0.2,0.1-0.4,0.1-0.7c0,0,0,0.1,0,0.1
			C475.8,217.8,475.8,217.9,475.8,217.9z"/>
		<path fill="#000000" id="XMLID_274_" class="st0" d="M576.1,152.9c-6.5,1.6-13,3.4-19.4,5.5c-10.2,3.5-20.1,7.9-29.3,13.5
			c-8.8,5.3-17,11.6-24.3,18.7c-2.4,2.3-4.4,4.9-6.5,7.4c-2.6,3.1-5.2,6.2-8,9.1c-2,2-4.1,4.1-6.7,5.5c-2.3-6.3,1-14.1,3.5-19.8
			c7.9-18.1,21.1-29.1,38.8-37c5.8-2.6,11.9-5.2,16.8-9.4c2.6-2.2,4.8-4.9,5.7-8.2c0.2-0.6,0.3-1.1,0.4-1.7
			c1.1-4.7,1.8-9.5,2.6-14.2c1.2-6.5,2.3-13.1,3.4-19.6c0.4-2.2,0.8-4.4,1-6.6c0.2-1.9,0-3.9-0.5-5.8c-0.2,0.6-0.3,1.1-0.4,1.7
			c-0.3,1.4-0.5,2.7-0.8,4.1c-0.5,2.5-0.9,5-1.4,7.5c-2.9,3.8-7.3,6.6-11.5,8.7c-3.1,1.6-6.4,3-9.6,4.5c-4.4,2-8.7,4.2-12.7,6.7
			c-8,5-14.9,11.4-20.4,19c-5.4,7.4-8.9,15.9-11.5,24.7c-1.6,5.3-2.8,10.7-3.8,16.2c-2.4,12.1-4.4,24.2-6.5,36.3
			c-0.6,3.8-1.3,7.7-1.8,11.5c-0.7,4.7-1.2,9.5-1.6,14.3c-0.2,2.2-0.4,4.4-0.5,6.7c0,0.2-0.2,1.4-0.1,1.5c0.1,0.1,0.7-0.1,0.8-0.2
			c0.8-0.2,1.5-0.5,2.2-0.9c3.3-1.7,6.1-4.5,8.6-7.2c2.9-3.1,5.5-6.3,8.2-9.5c2.1-2.5,4.2-4.9,6.6-7.1c-2.4,3.9-4.8,7.7-7.4,11.5
			c-3.3,4.8-6.8,9.6-10.9,13.8c-3.1,3.3-6.6,6.6-10.9,8.3c-3.4,1.3-7,1-9.8-1.4c-5.1-4.3-6.9-11.5-7.3-18c0.2-1.4,0.5-2.7,0.7-4.1
			c0.8-4.7,1.6-9.3,2.4-14c0.2-1,0.3-2.1,0.5-3.1c0.2-0.9,0.3-1.8,0.4-2.7c-0.3,0.7-0.6,1.5-0.9,2.2c-2.4,6.1-4.7,12.2-7.4,18.2
			c-3.7,8.4-8,16.9-13.7,24.2c-4.2,5.4-10.4,11.3-17.8,10.4c-3.5-0.4-6.7-2.2-9.1-4.7c-2.5-2.7-4-6.3-4.9-9.8
			c-1.8-7.1-1.8-14.6-1.3-21.9c4-2.6,8.1-4.9,12.5-6.7c3.6-1.5,7.3-2.5,11.1-3.1c3.6-0.6,7.3-0.9,10.9-1.4
			c6.2-0.9,12.6-2.7,16.7-7.7c3.1-3.7,5-8.4,6.3-13c0.4-1.5,0.8-3,1.1-4.5c1.9-9.2,3.4-18.5,5.2-27.8c1.9-10,3.5-20.1,2.4-30.3
			c-0.8-8-3.8-16.7-10.9-20.6c-4.4-2.5-9.7-2.7-14.6-1.5c-4.8,1.2-9.2,3.9-13.2,6.9c-14.4,11.2-23.7,28.2-39,37.9
			c-7.8,4.9-16.8,7.8-26,8.4c-5.1,0.3-10.4-0.1-14.9-2.5c-5.7-3-9.5-9.3-9.5-15.8c-1.7,9.3-3.5,18.7-5.2,28
			c-0.8,4.1-1.5,8.3-1.3,12.5s1.5,8.5,4.3,11.5c4,4.3,10.3,5.6,16.1,5.7c11.1,0.2,22.2-3.2,31.3-9.5c15.1-10.4,24.2-27.8,39.3-38.3
			c4.5-3.1,9.7-5.6,15.1-6.1c10.6-0.9,20.8,7.5,18.9,18.7c-1.6,9.2-16.2,8.4-23.4,9.3c-2.9,0.4-5.8,0.8-8.6,1.7
			c-3.2,1-6.4,2.2-9.4,3.7c-5.9,3-11.4,6.8-16.8,10.5c-2.8,1.9-5.5,3.8-8.1,5.9c-2.5,2-5,4.2-7.3,6.5c-4.6,4.5-8.7,9.5-12.6,14.6
			c-7.1,9.4-12.7,20.1-16.1,31.4c-4.7,15.2-6.7,31.5-0.3,46.6c1,2.2,1.9,4.5,3.3,6.5c-6.9-9.8-2.9-27.1,1.8-36.8
			c7-14.6,19.2-26,32.4-35.1c1.7-1.2,3.5-2.4,5.2-3.6c-0.1,0.3-0.1,0.7-0.2,1l-0.5,3.1c-0.2,0.9-0.3,1.8-0.4,2.7
			c0.1,2.5-0.1,4.9-0.4,7.4c-1,9.8-2.5,19.7-2.6,29.6c-0.1,4.9,0.2,9.8,1.3,14.5c0.9,4,2.5,8,5.3,11.1c2.6,2.8,6.4,4.6,10.3,4.6
			c3.8,0,7.3-1.8,10.2-4.1c3.6-2.9,6.5-6.6,9.1-10.4c2.9-4.3,5.4-8.9,7.7-13.6c3.2-6.6,6-13.3,8.6-20.1c-0.3,1.8-0.6,3.6-0.8,5.4
			c-0.2,1.3-0.3,2.6-0.4,3.9c-0.2,2.3-0.3,4.7-0.2,7c0.2,4.5,1.1,9.1,3.1,13.1c1.3,2.5,3,5.1,5.4,6.6c3.4,2.2,7.4,1.4,10.8-0.4
			c4.7-2.6,8.5-6.7,11.8-10.7c4.2-5,8-10.5,11.5-16c3.5-5.4,6.8-10.9,10.1-16.4c2.4-4,4.7-8,7.3-11.8c2.4-3.4,5.2-6.6,8.1-9.7
			c3.7-4.1,7.7-7.9,11.8-11.6c4.2-3.6,8.5-7.1,13-10.3c4-2.9,8-6,11.8-9.1c6.1-4.9,12.4-9.8,19.6-12.8c1.4-0.3,2.9-0.7,4.3-1
			c2.7-0.6,5.5-1.2,8.2-1.8c0.3-0.1,1.3-6.5,1.2-5.8c0.9-4.6,1.7-9.3,2.5-14c0.8-4.7,1.6-9.3,2.4-14c0.1-0.4,0.4-3.1,0.7-4.7
			l0.2-1.2C583.9,150.4,579.9,151.4,576.1,152.9z"/>
	</g>
	<g id="XMLID_198_">
		<path fill="#000000" id="XMLID_253_" class="st0" d="M227.4,167c0,0.1,0,0.2,0,0.3c0,0,0,0,0,0.1C227.3,167.2,227.3,167.1,227.4,167
			C227.4,167,227.4,167,227.4,167z"/>
		<path fill="#000000" id="XMLID_301_" class="st0" d="M222.5,194.6c0-0.1,0.1-0.3,0.1-0.5C222.5,194.5,222.4,195.2,222.5,194.6z"/>
		<path fill="#000000" id="XMLID_321_" class="st0" d="M222.6,194c0,0.1,0,0.2-0.1,0.3c0,0.1,0,0.1,0,0.2c0-0.2,0.1-0.4,0.1-0.7c0,0,0,0.1,0,0.1
			C222.6,193.9,222.6,194,222.6,194z"/>
		<g id="XMLID_263_">
			<path fill="#000000" id="XMLID_325_" class="st0" d="M222.5,194.6c0-0.1,0.1-0.3,0.1-0.5C222.5,194.5,222.4,195.2,222.5,194.6z"/>
			<path fill="#000000" id="XMLID_332_" class="st0" d="M227.4,167c0,0.1,0,0.2,0,0.3c0,0,0,0,0,0.1C227.3,167.2,227.3,167.1,227.4,167
				C227.4,167,227.4,167,227.4,167z"/>
			<path fill="#000000" id="XMLID_335_" class="st0" d="M222.6,194c0,0.1,0,0.2-0.1,0.3c0,0.1,0,0.1,0,0.2c0-0.2,0.1-0.4,0.1-0.7c0,0,0,0.1,0,0.1
				C222.6,193.9,222.6,194,222.6,194z"/>
			<g id="XMLID_298_">
				<path fill="#000000" id="XMLID_337_" class="st0" d="M227.4,167c0,0.1,0,0.2,0,0.3c0,0,0,0,0,0.1C227.3,167.2,227.3,167.1,227.4,167
					C227.4,167,227.4,167,227.4,167z"/>
				<path fill="#000000" id="XMLID_445_" class="st0" d="M222.5,194.6c0-0.1,0.1-0.3,0.1-0.5C222.5,194.5,222.4,195.2,222.5,194.6z"/>
				<path fill="#000000" id="XMLID_447_" class="st0" d="M222.6,194c0,0.1,0,0.2-0.1,0.3c0,0.1,0,0.1,0,0.2c0-0.2,0.1-0.4,0.1-0.7c0,0,0,0.1,0,0.1
					C222.6,193.9,222.6,194,222.6,194z"/>
				<g id="XMLID_221_">
					<path fill="#000000" id="XMLID_257_" class="st0" d="M222.5,194.6c0-0.1,0.1-0.3,0.1-0.5C222.5,194.5,222.4,195.2,222.5,194.6z"/>
					<path fill="#000000" id="XMLID_352_" class="st0" d="M227.4,167c0,0.1,0,0.2,0,0.3c0,0,0,0,0,0.1C227.3,167.2,227.3,167.1,227.4,167
						C227.4,167,227.4,167,227.4,167z"/>
					<path fill="#000000" id="XMLID_442_" class="st0" d="M222.6,194c0,0.1,0,0.2-0.1,0.3c0,0.1,0,0.1,0,0.2c0-0.2,0.1-0.4,0.1-0.7c0,0,0,0.1,0,0.1
						C222.6,193.9,222.6,194,222.6,194z"/>
					<g id="XMLID_299_">
						<path fill="#000000" id="XMLID_305_" class="st0" d="M222.5,194.6c0-0.1,0.1-0.3,0.1-0.5C222.5,194.5,222.4,195.2,222.5,194.6z"/>
						<path fill="#000000" id="XMLID_449_" class="st0" d="M227.4,167c0,0.1,0,0.2,0,0.3c0,0,0,0,0,0.1C227.3,167.2,227.3,167.1,227.4,167
							C227.4,167,227.4,167,227.4,167z"/>
						<path fill="#000000" id="XMLID_450_" class="st0" d="M222.6,194c0,0.1,0,0.2-0.1,0.3c0,0.1,0,0.1,0,0.2c0-0.2,0.1-0.4,0.1-0.7
							c0,0,0,0.1,0,0.1C222.6,193.9,222.6,194,222.6,194z"/>
						<g id="XMLID_344_">
							<path fill="#000000" id="XMLID_455_" class="st0" d="M227.4,167c0,0.1,0,0.2,0,0.3c0,0,0,0,0,0.1C227.3,167.2,227.3,167.1,227.4,167
								C227.4,167,227.4,167,227.4,167z"/>
							<path fill="#000000" id="XMLID_457_" class="st0" d="M222.5,194.6c0-0.1,0.1-0.3,0.1-0.5C222.5,194.5,222.4,195.2,222.5,194.6z"/>
							<path fill="#000000" id="XMLID_458_" class="st0" d="M222.6,194c0,0.1,0,0.2-0.1,0.3c0,0.1,0,0.1,0,0.2c0-0.2,0.1-0.4,0.1-0.7
								c0,0,0,0.1,0,0.1C222.6,193.9,222.6,194,222.6,194z"/>
							<g id="XMLID_323_">
								<path fill="#000000" id="XMLID_326_" class="st0" d="M222.5,194.6c0-0.1,0.1-0.3,0.1-0.5C222.5,194.5,222.4,195.2,222.5,194.6z"/>
								<path fill="#000000" id="XMLID_448_" class="st0" d="M227.4,167c0,0.1,0,0.2,0,0.3c0,0,0,0,0,0.1C227.3,167.2,227.3,167.1,227.4,167
									C227.4,167,227.4,167,227.4,167z"/>
								<path fill="#000000" id="XMLID_451_" class="st0" d="M222.6,194c0,0.1,0,0.2-0.1,0.3c0,0.1,0,0.1,0,0.2c0-0.2,0.1-0.4,0.1-0.7
									c0,0,0,0.1,0,0.1C222.6,193.9,222.6,194,222.6,194z"/>
								<g id="XMLID_444_">
									<path fill="#000000" id="XMLID_459_" class="st0" d="M222.5,194.6c0-0.1,0.1-0.3,0.1-0.5C222.5,194.5,222.4,195.2,222.5,194.6z"/>
									<path fill="#000000" id="XMLID_469_" class="st0" d="M227.4,167c0,0.1,0,0.2,0,0.3c0,0,0,0,0,0.1C227.3,167.2,227.3,167.1,227.4,167
										C227.4,167,227.4,167,227.4,167z"/>
									<path fill="#000000" id="XMLID_470_" class="st0" d="M222.6,194c0,0.1,0,0.2-0.1,0.3c0,0.1,0,0.1,0,0.2c0-0.2,0.1-0.4,0.1-0.7
										c0,0,0,0.1,0,0.1C222.6,193.9,222.6,194,222.6,194z"/>
									<path fill="#000000" id="XMLID_467_" class="st0" d="M322.9,129.1c-6.5,1.6-13,3.4-19.4,5.5c-10.2,3.5-20.1,7.9-29.3,13.5
										c-8.8,5.3-17,11.6-24.3,18.7c-3.9,3.8-7.4,8.2-11,12.4c-3.5,4-7.3,9-12.5,10.8c-0.3,0.1-0.9,0.4-1.1,0.3
										c1.9-12.2,6.9-23.9,14-33.9c7.6-10.7,17.6-17.6,29.3-23.2c0.8-0.4,1.7-0.8,2.5-1.2c5.8-2.6,11.9-5.2,16.8-9.4
										c2.6-2.2,4.8-4.9,5.7-8.2c0.2-0.6,0.3-1.1,0.4-1.7c1.1-4.7,1.8-9.5,2.6-14.2c1.2-6.5,2.3-13.1,3.4-19.6
										c0.4-2.2,0.8-4.4,1-6.6c0.2-1.9,0-3.9-0.5-5.8c-0.2,0.6-0.3,1.1-0.4,1.7c-0.3,1.4-0.5,2.7-0.8,4.1c-0.5,2.5-0.9,5-1.4,7.5
										c-2.9,3.8-7.3,6.6-11.5,8.7c-3.1,1.6-6.4,3-9.6,4.5c-4.4,2-8.7,4.2-12.7,6.7c-8,5-14.9,11.4-20.4,19
										c-5.4,7.4-8.9,15.9-11.5,24.7c-1.6,5.3-2.8,10.7-3.8,16.2c-2.4,12.1-4.4,24.2-6.5,36.3c-0.6,3.8-1.3,7.7-1.8,11.5
										c-0.7,4.7-1.2,9.5-1.6,14.3c-0.2,2.2-0.4,4.4-0.5,6.7c0,0.2-0.2,1.4-0.1,1.5c0.1,0.1,0.7-0.1,0.8-0.2
										c0.8-0.2,1.5-0.5,2.2-0.9c3.3-1.7,6.1-4.5,8.6-7.2c2.9-3.1,5.5-6.3,8.2-9.5c2.1-2.5,4.2-4.9,6.6-7.1
										c-2.4,3.9-4.8,7.7-7.4,11.5c-3.3,4.8-6.8,9.6-10.9,13.8c-3.1,3.3-6.6,6.6-10.9,8.3c-3.4,1.3-7,1-9.8-1.4
										c-5.1-4.3-6.9-11.5-7.3-18c0.2-1.4,0.5-2.7,0.7-4.1c0.8-4.7,1.6-9.3,2.4-14c0.2-1,0.3-2.1,0.5-3.1c0.2-0.9,0.3-1.8,0.4-2.7
										c-0.3,0.7-0.6,1.5-0.9,2.2c-2.4,6.1-4.7,12.2-7.4,18.2c-3.7,8.4-8,16.9-13.7,24.2c-4.2,5.4-10.4,11.3-17.8,10.4
										c-3.5-0.4-6.7-2.2-9.1-4.7c-2.5-2.7-4-6.3-4.9-9.8c-1.8-7.1-1.8-14.6-1.3-21.9c4-2.6,8.1-4.9,12.5-6.7
										c3.6-1.5,7.3-2.5,11.1-3.1c3.6-0.6,7.3-0.9,10.9-1.4c6.2-0.9,12.6-2.7,16.7-7.7c3.1-3.7,5-8.4,6.3-13
										c0.4-1.5,0.8-3,1.1-4.5c0.7-3.5,1.4-7,2-10.6c1.7-9.4,3.4-18.8,4.9-28.2c0.6-3.6,1-7.2,1.1-10.8c0.2-5.4-0.3-10.9-1.9-16.1
										c-1.3-4.4-3.6-8.7-7.2-11.6c-3.7-2.9-8.5-4.1-13.1-3.7c-4.9,0.5-9.4,2.8-13.5,5.5c-4.7,3.2-8.9,7-12.9,11.1
										c-4.1,4.2-8,8.6-11.9,13c-3.3,3.7-6.5,7.4-10.1,10.8c-2.9,2.7-6.1,4.8-9.5,6.6c-8.1,4.2-17.4,7.1-26.5,7.2
										c-4.2,0-8.4-0.6-12.2-2.5c-3.7-1.9-6.4-5-8-8.9c-0.9-2.3-1.4-4.7-1.6-7.2c-0.2,0.6-0.3,1.1-0.4,1.7
										c-0.3,1.4-0.5,2.7-0.8,4.1c-0.9,4.6-1.7,9.3-2.5,14c-0.8,4.7-1.6,9.3-2.4,14c-0.2,1-0.3,2.1-0.5,3.1
										c-0.2,0.9-0.3,1.8-0.4,2.7c0.4,5.6,2.5,11.1,7.1,14.5c4.2,3.1,9.5,4.1,14.6,4c5.8,0,11.6-1.3,17.1-3.2
										c5.1-1.7,10.1-4,14.5-7c4.5-3.1,8.1-7.2,11.7-11.2c4.8-5.3,9.4-10.7,14.4-15.8c4.9-5,10.1-9.8,16.1-13.2
										c5.1-2.9,11-4.7,16.8-3.3c8.6,2.1,14.7,9.3,13.1,18.4c-1.6,9.2-16.2,8.4-23.4,9.3c-2.9,0.4-5.8,0.8-8.6,1.7
										c-3.2,1-6.4,2.2-9.4,3.7c-5.9,3-11.4,6.8-16.8,10.5c-2.8,1.9-5.5,3.8-8.1,5.9c-2.5,2-5,4.2-7.3,6.5
										c-4.6,4.5-8.7,9.5-12.6,14.6c-7.1,9.4-12.7,20.1-16.1,31.4c-5.1,16.6-6.8,36.6,2.7,52.3c-3.8-11.8-4-25.4,1.8-36.7
										c3.7-7.2,8.9-13.4,14.4-19.2c2.7-2.8,5.5-5.5,8.5-8.1c3.1-2.6,6.5-5,9.8-7.3c1.7-1.2,3.5-2.4,5.2-3.6
										c-0.1,0.3-0.1,0.7-0.2,1l-0.5,3.1c-0.2,0.9-0.3,1.8-0.4,2.7c0.1,2.5-0.1,4.9-0.4,7.4c-1,9.8-2.5,19.7-2.6,29.6
										c-0.1,4.9,0.2,9.8,1.3,14.5c0.9,4,2.5,8,5.3,11.1c2.6,2.8,6.4,4.6,10.3,4.6c3.8,0,7.3-1.8,10.2-4.1
										c3.6-2.9,6.5-6.6,9.1-10.4c2.9-4.3,5.4-8.9,7.7-13.6c3.2-6.6,6-13.3,8.6-20.1c-0.3,1.8-0.6,3.6-0.8,5.4
										c-0.2,1.3-0.3,2.6-0.4,3.9c-0.2,2.3-0.3,4.7-0.2,7c0.2,4.5,1.1,9.1,3.1,13.1c1.3,2.5,3,5.1,5.4,6.6
										c3.4,2.2,7.4,1.4,10.8-0.4c4.7-2.6,8.5-6.7,11.8-10.7c4.2-5,8-10.5,11.5-16c3.5-5.4,6.8-10.9,10.1-16.4
										c2.4-4,4.7-8,7.3-11.8c2.4-3.4,5.2-6.6,8.1-9.7c3.7-4.1,7.7-7.9,11.8-11.6c4.2-3.6,8.5-7.1,13-10.3c4-2.9,8-6,11.8-9.1
										c6.1-4.9,12.4-9.8,19.6-12.8c1.4-0.3,2.9-0.7,4.3-1c2.7-0.6,5.5-1.2,8.2-1.8c0.3-0.1,1.3-6.5,1.2-5.8
										c0.9-4.6,1.7-9.3,2.5-14c0.8-4.7,1.6-9.3,2.4-14c0.1-0.4,0.4-3.1,0.7-4.7l0.2-1.2C330.7,126.6,326.7,127.5,322.9,129.1z
										 M227.3,167.3c0-0.1,0-0.2,0-0.3c0,0,0,0,0,0C227.3,167.1,227.3,167.2,227.3,167.3C227.3,167.3,227.3,167.3,227.3,167.3z
										 M222.6,194c0,0.2-0.1,0.4-0.1,0.5C222.4,195.2,222.5,194.5,222.6,194z M222.5,194.5c0,0,0-0.1,0-0.2c0-0.1,0-0.2,0.1-0.3
										c0-0.1,0-0.1,0-0.2c0,0,0-0.1,0-0.1C222.6,194.1,222.5,194.3,222.5,194.5z"/>
								</g>
							</g>
						</g>
					</g>
				</g>
			</g>
		</g>
	</g>
</g>
<path fill="#000000" d="M273.602,481.306c-0.578-0.576-1.301-1.03-2.174-1.362c-0.873-0.331-1.885-0.497-3.039-0.497
	c-0.663,0-1.463,0.079-2.4,0.238v-6.077h-1.535v17.711c0.706,0.202,1.402,0.354,2.087,0.454s1.301,0.151,1.849,0.151
	c1.153,0,2.166-0.162,3.039-0.486s1.596-0.764,2.174-1.319c0.576-0.555,1.006-1.211,1.287-1.968s0.42-1.561,0.42-2.411
	s-0.139-1.657-0.42-2.422C274.608,482.554,274.178,481.883,273.602,481.306z M272.391,489.167c-0.852,0.829-2.17,1.243-3.958,1.243
	c-0.39,0-0.805-0.032-1.244-0.097c-0.439-0.065-0.84-0.134-1.2-0.206v-8.845c0.447-0.115,0.887-0.194,1.319-0.237
	c0.433-0.044,0.808-0.065,1.125-0.065c0.894,0,1.668,0.112,2.325,0.335c0.656,0.224,1.199,0.545,1.633,0.963
	c0.432,0.418,0.752,0.919,0.961,1.503s0.314,1.243,0.314,1.979C273.667,487.195,273.241,488.338,272.391,489.167z M247.392,479.446
	c-0.62,0-1.297,0.079-2.033,0.238c-0.735,0.158-1.485,0.433-2.249,0.821l-0.065,1.73c0.548-0.303,0.973-0.52,1.276-0.649
	s0.624-0.237,0.962-0.324c0.338-0.086,0.677-0.158,1.016-0.216s0.667-0.087,0.984-0.087c1.139,0,1.982,0.249,2.53,0.746
	s0.822,1.33,0.822,2.498v0.13c-0.332-0.044-0.732-0.087-1.2-0.13c-0.469-0.043-0.876-0.065-1.222-0.065
	c-1.831,0-3.302,0.311-4.412,0.931c-1.11,0.619-1.665,1.644-1.665,3.07c0,0.707,0.155,1.305,0.465,1.795
	c0.31,0.49,0.713,0.88,1.211,1.168s1.067,0.497,1.708,0.627c0.641,0.13,1.308,0.194,2,0.194c0.807,0,1.6-0.072,2.378-0.216
	c0.779-0.145,1.536-0.368,2.271-0.671v-7.028c0-1.585-0.397-2.742-1.189-3.471C250.189,479.811,248.992,479.446,247.392,479.446z
	 M250.636,489.892c-0.375,0.144-0.858,0.267-1.449,0.367c-0.591,0.102-1.183,0.151-1.773,0.151c-0.505,0-0.984-0.035-1.438-0.108
	c-0.454-0.071-0.84-0.197-1.157-0.378c-0.317-0.18-0.57-0.414-0.757-0.703c-0.188-0.288-0.281-0.663-0.281-1.124
	c0-0.52,0.111-0.934,0.335-1.244c0.224-0.31,0.533-0.551,0.93-0.724c0.396-0.174,0.85-0.296,1.362-0.368
	c0.511-0.072,1.041-0.108,1.589-0.108c0.476,0,0.984,0.029,1.524,0.087c0.541,0.058,0.912,0.108,1.114,0.151V489.892z
	 M258.032,479.868c-0.649,0.122-1.276,0.263-1.881,0.422v11.418h1.535v-10.186c0.202-0.072,0.563-0.147,1.082-0.228
	c0.519-0.079,1.002-0.118,1.449-0.118h1.989v-1.492H260C259.336,479.685,258.681,479.746,258.032,479.868z M-77.92,487.667
	l241.145,0.656l0.663-0.433l-0.632-0.564L-77.92,487.667z M164.994,487.825l1.95,1.95l1.95-1.95l-1.95-1.95L164.994,487.825z
	 M169.559,487.825l3.057,3.057l3.057-3.057l-3.057-3.057L169.559,487.825z M212.359,489.286l-3.395-9.602h-1.514l-3.396,9.602
	l-2.984-9.602h-1.73l3.979,12.023h1.428l3.46-9.645l3.46,9.645h1.427l3.979-12.023h-1.73L212.359,489.286z M238.418,489.589
	c-0.317,0-0.591,0.115-0.822,0.346c-0.231,0.23-0.346,0.505-0.346,0.822c0,0.316,0.115,0.591,0.346,0.821
	c0.23,0.23,0.504,0.346,0.822,0.346c0.317,0,0.591-0.115,0.822-0.346c0.23-0.23,0.346-0.505,0.346-0.821
	c0-0.317-0.116-0.592-0.346-0.822C239.009,489.704,238.735,489.589,238.418,489.589z M193.243,489.286l-3.395-9.602h-1.514
	l-3.396,9.602l-2.984-9.602h-1.73l3.979,12.023h1.428l3.46-9.645l3.46,9.645h1.427l3.979-12.023h-1.73L193.243,489.286z
	 M231.476,489.286l-3.395-9.602h-1.514l-3.396,9.602l-2.984-9.602h-1.73l3.979,12.023h1.428l3.46-9.645l3.46,9.645h1.427
	l3.979-12.023h-1.73L231.476,489.286z M382.732,480.474c-0.426-0.396-0.938-0.667-1.535-0.812c-0.598-0.144-1.271-0.216-2.021-0.216
	c-0.664,0-1.393,0.09-2.184,0.271c-0.793,0.181-1.471,0.4-2.033,0.659c-0.346-0.331-0.818-0.569-1.416-0.714
	c-0.6-0.144-1.273-0.216-2.023-0.216c-0.635,0-1.268,0.058-1.902,0.173l-2.465,0.454v11.635h1.535v-10.38
	c0.447-0.102,0.883-0.188,1.309-0.26c0.424-0.072,0.896-0.108,1.416-0.108c0.605,0,1.125,0.058,1.557,0.173
	c0.434,0.116,0.789,0.321,1.07,0.616c0.281,0.296,0.494,0.711,0.639,1.244s0.217,1.24,0.217,2.119v6.596h1.535v-7.201
	c0-0.663-0.055-1.243-0.162-1.741c-0.109-0.497-0.213-0.861-0.314-1.092c0.086-0.043,0.281-0.119,0.584-0.228
	c0.303-0.107,0.602-0.197,0.898-0.27c0.295-0.072,0.586-0.126,0.875-0.162s0.547-0.055,0.779-0.055c0.59,0,1.102,0.058,1.535,0.173
	c0.432,0.116,0.781,0.317,1.049,0.605c0.266,0.289,0.471,0.703,0.615,1.244c0.145,0.54,0.217,1.251,0.217,2.13v6.596h1.535v-7.201
	c0-0.995-0.111-1.816-0.336-2.466C383.482,481.393,383.158,480.87,382.732,480.474z M280.1,474.581
	c-0.785,0.648-1.18,1.729-1.18,3.243v1.86h-2.551v1.492h2.551v10.531h1.537v-10.531h4.973v-1.492h-4.973v-1.471
	c0-0.635,0.045-1.149,0.141-1.546c0.094-0.396,0.24-0.707,0.443-0.931c0.201-0.223,0.475-0.385,0.82-0.486
	c0.346-0.101,0.779-0.151,1.299-0.151h2.422v-1.492h-2.271C281.956,473.607,280.885,473.932,280.1,474.581z M398.273,487.825
	l3.057,3.057l3.057-3.057l-3.057-3.057L398.273,487.825z M343.322,482.322c0.389-0.418,0.854-0.749,1.395-0.994
	s1.135-0.368,1.783-0.368c0.736,0,1.373,0.076,1.914,0.228s1.121,0.414,1.74,0.789l0.715-1.405c-0.707-0.39-1.393-0.674-2.055-0.854
	c-0.664-0.181-1.436-0.271-2.314-0.271c-0.85,0-1.639,0.155-2.367,0.465c-0.729,0.311-1.367,0.746-1.914,1.309
	c-0.549,0.563-0.98,1.222-1.297,1.979c-0.317,0.757-0.476,1.59-0.476,2.498s0.158,1.74,0.476,2.497
	c0.316,0.757,0.748,1.413,1.297,1.969c0.547,0.555,1.186,0.987,1.914,1.297c0.729,0.311,1.518,0.465,2.367,0.465
	c0.879,0,1.65-0.09,2.314-0.27c0.662-0.181,1.348-0.466,2.055-0.854l-0.715-1.406c-0.619,0.375-1.199,0.639-1.74,0.79
	s-1.178,0.227-1.914,0.227c-0.648,0-1.242-0.119-1.783-0.356c-0.541-0.238-1.006-0.565-1.395-0.984
	c-0.391-0.418-0.693-0.915-0.908-1.492c-0.217-0.576-0.324-1.203-0.324-1.881s0.107-1.305,0.324-1.882
	C342.628,483.238,342.931,482.741,343.322,482.322z M404.387,487.825l1.949,1.95l1.951-1.95l-1.951-1.95L404.387,487.825z
	 M410.701,487.326l-0.664,0.433l0.633,0.564l241.176-0.341L410.701,487.326z M362.611,481.295c-0.549-0.569-1.193-1.02-1.936-1.352
	c-0.742-0.331-1.547-0.497-2.412-0.497c-0.863,0-1.668,0.166-2.41,0.497c-0.742,0.332-1.389,0.782-1.936,1.352
	c-0.549,0.57-0.977,1.229-1.287,1.979c-0.311,0.749-0.465,1.557-0.465,2.422s0.154,1.672,0.465,2.422s0.738,1.409,1.287,1.979
	c0.547,0.569,1.193,1.017,1.936,1.341s1.547,0.486,2.41,0.486c0.865,0,1.67-0.162,2.412-0.486s1.387-0.771,1.936-1.341
	c0.547-0.569,0.977-1.229,1.287-1.979c0.309-0.75,0.465-1.557,0.465-2.422s-0.156-1.673-0.465-2.422
	C363.587,482.524,363.158,481.865,362.611,481.295z M362.394,487.523c-0.217,0.569-0.52,1.067-0.908,1.492
	c-0.389,0.426-0.857,0.765-1.406,1.017c-0.547,0.252-1.152,0.378-1.816,0.378c-0.662,0-1.268-0.126-1.816-0.378
	c-0.547-0.252-1.016-0.591-1.404-1.017c-0.391-0.425-0.693-0.923-0.908-1.492c-0.217-0.569-0.324-1.179-0.324-1.827
	c0-0.649,0.107-1.262,0.324-1.839c0.215-0.576,0.518-1.077,0.908-1.503c0.389-0.425,0.857-0.764,1.404-1.016
	c0.549-0.252,1.154-0.379,1.816-0.379c0.664,0,1.27,0.127,1.816,0.379c0.549,0.252,1.018,0.591,1.406,1.016
	c0.389,0.426,0.691,0.927,0.908,1.503c0.217,0.577,0.324,1.189,0.324,1.839C362.718,486.345,362.611,486.954,362.394,487.523z
	 M296.221,481.295c-0.547-0.569-1.191-1.02-1.936-1.352c-0.742-0.331-1.545-0.497-2.41-0.497s-1.67,0.166-2.412,0.497
	c-0.742,0.332-1.387,0.782-1.936,1.352c-0.547,0.57-0.977,1.229-1.285,1.979c-0.311,0.749-0.465,1.557-0.465,2.422
	s0.154,1.672,0.465,2.422c0.309,0.75,0.738,1.409,1.285,1.979c0.549,0.569,1.193,1.017,1.936,1.341s1.547,0.486,2.412,0.486
	s1.668-0.162,2.41-0.486c0.744-0.324,1.389-0.771,1.936-1.341c0.549-0.569,0.977-1.229,1.287-1.979s0.465-1.557,0.465-2.422
	s-0.154-1.673-0.465-2.422C297.198,482.524,296.77,481.865,296.221,481.295z M296.006,487.523c-0.217,0.569-0.52,1.067-0.908,1.492
	c-0.391,0.426-0.859,0.765-1.406,1.017c-0.549,0.252-1.154,0.378-1.816,0.378c-0.664,0-1.27-0.126-1.816-0.378
	c-0.549-0.252-1.018-0.591-1.406-1.017c-0.389-0.425-0.691-0.923-0.908-1.492s-0.324-1.179-0.324-1.827
	c0-0.649,0.107-1.262,0.324-1.839c0.217-0.576,0.52-1.077,0.908-1.503c0.389-0.425,0.857-0.764,1.406-1.016
	c0.547-0.252,1.152-0.379,1.816-0.379c0.662,0,1.268,0.127,1.816,0.379c0.547,0.252,1.016,0.591,1.406,1.016
	c0.389,0.426,0.691,0.927,0.908,1.503c0.215,0.577,0.324,1.189,0.324,1.839C296.331,486.345,296.221,486.954,296.006,487.523z
	 M309.381,480.463c-0.455-0.39-0.996-0.656-1.623-0.801c-0.627-0.144-1.309-0.216-2.043-0.216c-0.707,0-1.465,0.047-2.271,0.141
	s-1.701,0.234-2.682,0.422v11.699h1.535v-10.402c1.184-0.23,2.293-0.346,3.33-0.346c0.592,0,1.111,0.062,1.559,0.184
	c0.445,0.123,0.818,0.332,1.113,0.628c0.295,0.295,0.525,0.713,0.691,1.254s0.25,1.251,0.25,2.13v6.553h1.535v-7.201
	c0-0.995-0.119-1.82-0.357-2.477C310.18,481.375,309.834,480.852,309.381,480.463z M318.516,490.054
	c-0.346-0.108-0.619-0.277-0.82-0.509c-0.203-0.23-0.35-0.547-0.443-0.951c-0.096-0.403-0.141-0.922-0.141-1.557v-5.86h4.973v-1.492
	h-4.973v-4.347h-1.537v4.347h-2.551v1.492h2.551v6.466c0,0.764,0.109,1.405,0.326,1.925c0.215,0.519,0.525,0.937,0.93,1.254
	c0.402,0.317,0.867,0.544,1.395,0.682c0.525,0.137,1.105,0.205,1.74,0.205h2.271v-1.492h-2.422
	C319.295,490.216,318.862,490.162,318.516,490.054z M337.784,489.589c-0.316,0-0.59,0.115-0.82,0.346s-0.346,0.505-0.346,0.822
	c0,0.316,0.115,0.591,0.346,0.821s0.504,0.346,0.82,0.346c0.318,0,0.592-0.115,0.822-0.346s0.346-0.505,0.346-0.821
	c0-0.317-0.115-0.592-0.346-0.822S338.102,489.589,337.784,489.589z M333.178,486.106c-0.346-0.303-0.785-0.565-1.318-0.789
	c-0.533-0.223-1.182-0.422-1.947-0.595l-0.799-0.173c-1.053-0.216-1.781-0.461-2.184-0.735c-0.404-0.273-0.607-0.678-0.607-1.211
	c0-0.504,0.238-0.904,0.715-1.2c0.475-0.295,1.174-0.443,2.098-0.443c0.793,0,1.477,0.076,2.055,0.228
	c0.576,0.151,1.217,0.421,1.924,0.811l0.691-1.405c-1.412-0.765-2.969-1.146-4.67-1.146c-0.635,0-1.223,0.076-1.764,0.228
	c-0.539,0.151-1.008,0.364-1.404,0.638s-0.711,0.605-0.941,0.994c-0.23,0.39-0.346,0.815-0.346,1.276
	c0,0.462,0.072,0.88,0.217,1.254c0.143,0.375,0.381,0.707,0.713,0.995s0.758,0.537,1.275,0.746c0.52,0.209,1.146,0.4,1.883,0.573
	l0.908,0.194c1.008,0.217,1.729,0.49,2.162,0.822c0.432,0.331,0.648,0.771,0.648,1.318c0,0.39-0.086,0.707-0.26,0.952
	c-0.172,0.245-0.414,0.436-0.725,0.573c-0.311,0.137-0.678,0.237-1.102,0.303c-0.426,0.064-0.877,0.097-1.352,0.097
	c-0.592,0-1.223-0.09-1.893-0.271c-0.67-0.18-1.352-0.479-2.045-0.897l-0.734,1.471c0.779,0.433,1.539,0.742,2.281,0.93
	s1.539,0.281,2.391,0.281c0.748,0,1.434-0.072,2.053-0.216c0.621-0.145,1.158-0.36,1.611-0.648c0.455-0.289,0.805-0.649,1.049-1.082
	c0.246-0.433,0.369-0.93,0.369-1.492c0-0.476-0.072-0.915-0.217-1.318C333.77,486.763,333.526,486.41,333.178,486.106z"/>
</svg>

