<?xml version="1.0" encoding="utf-8"?>
<!-- Generator: Adobe Illustrator 21.0.0, SVG Export Plug-In . SVG Version: 6.00 Build 0)  -->
<svg version="1.1" id="Layer_1" xmlns="http://www.w3.org/2000/svg" xmlns:xlink="http://www.w3.org/1999/xlink" x="0px" y="0px"
	 viewBox="0 0 800 500" style="enable-background:new 0 0 800 500;" xml:space="preserve">
<g>
	<path fill="#000000" d="M318,160.6c-2.6,1.1-4.9,2.2-6.9,3.5c-1.9,1.2-3.6,2.6-5.1,4.2c-1.1,1.1-1.8,2-2.2,2.6c-0.4,0.6-0.5,1-0.3,1.2
		c0.2,0.2,1-0.2,2.2-1.3l0,0c1.5-1.4,2.9-2.5,4-3.2c1.2-0.7,2.6-1.3,4.2-1.8c0.8-0.2,2.3-0.5,4.5-0.8c2.2-0.3,4-0.7,5.5-1.2
		c1.8-0.7,3.6-1.6,5.3-2.8c1.7-1.2,3.4-2.6,5-4.3c1.8-1.9,2.9-3.6,3.5-5.2c0-0.1,0-0.1,0-0.2c0.1-0.2,0.2-0.5,0.3-0.8
		c0.4-1.7-0.4-3.5-2.4-5.2c-2-1.8-4.5-3-7.5-3.6c-1.6-0.3-3-0.1-4.2,0.7c-1.2,0.8-2,2.1-2.4,3.8c-0.1,0.4-0.1,1.4-0.1,3.1
		c0,1,0,2-0.1,2.9c0,0,0,0,0,0c0.8,2.9,3.7,3.5,6.3,3.5c-2.1,1.5-4.7,2.9-8.1,4.2C318.9,160.3,318.4,160.5,318,160.6z"/>
	<path fill="#000000" d="M359.9,67.3c1,0.3,2.5,0.5,4.6,0.6c2.9,0.2,5.9-0.2,9-1.1c3.1-0.9,6.5-2.5,10.1-4.6c0.5-0.3,1.2-0.7,2.1-1.3
		c6.7-4,12.2-5.9,16.5-5.6c1.6,0.1,3.4,0.4,5.3,1c2,0.6,3.1,0.9,3.5,0.9c1.2,0.1,2.1-0.2,2.6-0.8c0.6-0.6,0.9-1.6,1-3.1
		c0.1-2.4-0.8-4.4-2.7-5.9c-2-1.5-4.7-2.4-8.3-2.6c-3.2-0.2-6.2,0.1-9,0.8c-2.8,0.7-5.5,1.9-7.9,3.5c-2,1.3-4.2,3.3-6.7,6
		c-2.5,2.7-4.2,4.4-5.3,5.2c-2.1,1.6-4.1,2.8-5.9,3.4c-1.8,0.6-4.1,1-7,1.1l-0.1,0c-2.2,0.1-3.4,0.5-3.4,1.1
		C358.5,66.6,359,67,359.9,67.3z"/>
	<path fill="#000000" d="M328.5,48.6c1.4,0.4,2.4,0.8,3.1,1.2c1.6,0.9,2.7,2.2,3.4,3.9c0.7,1.7,1,4,0.9,6.9c-0.1,2.7-0.1,27.4-0.2,34.7h-0.1
		c-0.2,5-0.3,9.9-0.5,14.9c-0.1,1.7-0.1,2.7-0.2,3.1c-0.2,7.2,1.3,12.8,4.4,16.8c3.1,4,7.5,6.1,13.3,6.2c1.6,0,3.2-0.1,4.7-0.4h20.5
		h12.4l0.6-0.6c7.7,0,15-0.1,16.4-0.1c0.7,0,1.3,0,1.9,0c2.1,0.1,3.8,0.4,5.1,0.9c1.7,0.7,3,1.8,3.9,3.4c0.4,0.7,0.8,1.7,1.2,3.1
		c0.9,2.7,2.2,4,3.8,4c1.4,0,2.8-1.4,4.1-4c0.7-1.5,1.3-2.7,1.8-3.5c0.8-1.1,1.9-2.6,3.3-4.4c2.7-3.4,4-5.9,4-7.6
		c-0.1-2.6-1.1-4.4-3.2-5.4c-2.1-1.1-6.3-1.5-12.7-1.4c-3.8,0.1-8.5,0.3-14.1,0.6h-21.8c0,0-10.7-0.5-17.9-6.7
		c-1.7-1.8-2.9-3.9-3.4-6.3c-0.1-0.2-0.1-0.5-0.2-0.7c-0.8-4.3,0-7.8,2.5-10.7c2.7-3.1,7.2-5.4,13.6-6.9c6.5-1.5,12.2-1.2,17.1,0.9
		c4.9,2.1,7.9,5.5,9,10.1c0.1,0.4,0.2,0.9,0.3,1.6c0.1,0.7,0.2,1.3,0.3,1.7c0.3,1.2,0.7,2.1,1.2,2.5c0.5,0.4,1.3,0.6,2.3,0.3
		c0.9-0.2,2-1.3,3.3-3.1c1.3-1.9,2.5-3.3,3.7-4.3c0.3-0.2,0.7-0.6,1.2-1.1c2-1.7,2.9-3.3,2.6-4.6c-0.2-0.8-1-2.1-2.5-3.9
		c-1.5-1.8-3.1-3.5-5-4.9c-5-3.9-10.2-6.5-15.6-7.8c-5.3-1.2-11-1.2-16.9,0.3c-8.3,2-14.5,6.1-18.8,12.4c-3.2,4.8-4.7,10-4.4,15.5
		l0-0.1c0,0.3,0,0.6,0,0.9l0-0.1c-0.4,8.3,2.3,15,4.7,19.2c-3,0.2-5.6,0.3-6.7,0.4c-1.4-0.8-2.5-1.9-3.3-3.3
		c-0.8-1.4-1.5-3.2-1.9-5.4V97.1c0-0.8,0.1-29.1,0.1-29.9c0.5-8.2,0.8-14.8,0.9-19.8c0.1-6.4-0.3-10.6-1.4-12.7
		c-1.1-2.1-2.9-3.1-5.4-3.2c-1.7,0-4.2,1.3-7.6,4c-1.8,1.5-3.3,2.6-4.4,3.3c-0.8,0.5-1.9,1.2-3.5,1.8c-2.6,1.3-4,2.6-4,4.1
		C324.5,46.4,325.8,47.6,328.5,48.6z M407.8,121.4c-0.3,0-0.5,0-0.8,0l0,0C407.3,121.4,407.5,121.4,407.8,121.4z"/>
	<path fill="#000000" d="M275.1,119.8c5,6.9,11.6,11.4,19.9,13.3c7.6,1.8,14.5,0.6,20.8-3.7c6.3-4.2,10.4-10.5,12.4-18.8c1.4-5.9,1.5-11.6,0.3-16.9
		c-1.2-5.3-3.8-10.5-7.8-15.6c-1.4-1.8-3-3.5-4.9-5c-1.8-1.5-3.1-2.3-3.9-2.5c-1.3-0.3-2.8,0.6-4.6,2.6c-0.5,0.5-0.8,0.9-1.1,1.2
		c-0.6,0.7-1.4,1.5-2.4,2.2c0,0-0.1-0.1-0.1-0.1c-2.1-2.6-5.1-3.3-9-2.3c-3.9,1-8.8,3.9-14.5,8.5c-0.8,0.6-3.8,3.2-9,7.6
		c-1.2,1-2.4,2.1-3.6,3.1c-8.2,6.5-32.6,23.6-35.7,26c-1.1,0.8-1.7,1.3-1.9,1.5c-2,1.6-3,3.2-2.9,4.6c0.1,1.4,1.2,3.4,3.3,6
		c2.2,2.7,4,4.3,5.3,4.8c1.4,0.5,2.9,0.1,4.5-1.2c0.1-0.1,0.5-0.5,1.2-1.3c2.8-3.2,18.3-15.2,28.9-23.8
		C271.3,113.4,272.8,116.6,275.1,119.8z M297.1,97.9c3.5-2.9,6-6.6,7.3-11.2c0.1-0.4,0.2-0.8,0.3-1.2c0.1,0,0.2,0,0.3,0.1
		c4.6,1.1,8,4.1,10.1,9c2.1,4.9,2.4,10.6,0.9,17.1c-1.5,6.4-3.8,11-6.9,13.6c-3.1,2.7-6.9,3.5-11.5,2.4c-5.1-1.2-9-5.1-11.6-11.6
		c-2.3-5.7-3-11.4-2.1-17.3c1-0.7,1.9-1.3,2.7-1.6c1.6-0.8,3.1-1,4.3-0.8c0.7,0.2,1.5,0.6,2.4,1.4C294.6,98.9,295.9,98.9,297.1,97.9
		z"/>
	<path fill="#000000" d="M453.9,86.3l8.1-14.4c-2.6-0.7-5-1.7-7.1-3.1c-2.1-1.3-3.7-2.9-4.9-4.7c1.1-6.2,4.5-12.5,10.3-18.7l-3.2-3.1
		c-5.5,3.1-9.8,7-12.9,11.7c-3.1,4.7-4.6,9.3-4.6,13.8c0,4.4,1.3,8.2,3.8,11.2C445.8,82.3,449.4,84.6,453.9,86.3z"/>
	<path fill="#000000" d="M548.4,69.9c1.6-0.8,3.1-1,4.3-0.8c0.7,0.2,1.5,0.6,2.4,1.4c1.3,1.1,2.6,1.1,3.8,0.1c3.5-2.9,6-6.6,7.3-11.2
		c1.3-4.6,1.1-8-0.6-10.1c-2.1-2.6-5.1-3.3-9-2.3c-3.9,1-8.8,3.9-14.5,8.5c-0.8,0.6-3.8,3.2-9,7.6c-1.2,1-2.4,2.1-3.6,3.1
		c-8.2,6.5-18.1,14.3-21.2,16.7c-1.1,0.8-1.7,1.3-1.9,1.5c-2,1.6-3,3.2-2.9,4.6c0.1,0.6,0.3,1.4,0.7,2.2c-1,1.3-1.6,2.3-1.7,2.9
		c-0.3,1.3,0.6,2.8,2.6,4.6c0.5,0.5,0.9,0.8,1.2,1.1c1.2,1,2.4,2.5,3.7,4.3c1.3,1.9,2.4,2.9,3.3,3.1c1,0.2,1.7,0.1,2.3-0.3
		c0.5-0.4,0.9-1.3,1.2-2.5c0.1-0.4,0.2-1,0.3-1.7c0.1-0.7,0.2-1.3,0.3-1.6c1.1-4.6,4.1-8,9-10.1c4.9-2.1,10.6-2.4,17.1-0.9
		c6.4,1.5,11,3.8,13.6,6.9c2.5,2.9,3.4,6.5,2.5,10.7c0,0.2-0.1,0.5-0.2,0.7c-0.6,2.4-1.7,4.5-3.5,6.4c-7.1,6.2-17.8,6.6-17.8,6.6
		h-21.8c-5.6-0.3-10.3-0.5-14.1-0.6c-1.2,0-2.3,0-3.4,0c0,0,0,0-0.1,0c0-0.9,0-1.8,0-2.6c0,0,0.1,0,0.1,0c-0.1-2.1-0.2-4.1-0.2-6.2
		h-0.1c0-2.9-0.1-8.5-0.1-14.4h-0.1c0-18.6,0-40.7-0.1-41.4c-0.1-2.9,0.2-5.3,0.9-6.9c0.7-1.7,1.8-3,3.4-3.9
		c0.7-0.4,1.7-0.8,3.1-1.2c2.7-0.9,4-2.2,4-3.8c0-1.4-1.4-2.8-4-4.1c-1.5-0.7-2.7-1.3-3.5-1.8c-1.1-0.8-2.6-1.9-4.4-3.3
		c-3.4-2.7-5.9-4-7.6-4c-2.6,0.1-4.4,1.1-5.4,3.2c-1.1,2.1-1.5,6.3-1.4,12.7c0.1,5,0.4,11.6,0.9,19.8c0,0.3,0,55.2,0,59.7h0.1
		c-0.5,8.9-2,18.4-5.8,23.2c-0.3,0.3-0.6,0.7-0.9,1c-0.1,0.1-0.1,0.1-0.2,0.2c-1.9,1.9-4.1,3.1-6.6,3.7c-0.2,0.1-0.5,0.1-0.7,0.2
		c-4.3,0.8-7.8,0-10.7-2.5c-3.1-2.7-5.4-7.2-6.9-13.6c-1.5-6.5-1.2-12.2,0.9-17.1c2.1-4.9,5.5-7.9,10.1-9c0.4-0.1,0.9-0.2,1.6-0.3
		c0.7-0.1,1.3-0.2,1.7-0.3c1.2-0.3,2.1-0.7,2.5-1.2c0.4-0.5,0.6-1.3,0.3-2.3c-0.2-0.9-1.3-2-3.1-3.3c-1.9-1.3-3.3-2.5-4.3-3.7
		c-0.2-0.3-0.6-0.7-1.1-1.2c-1.7-2-3.3-2.9-4.6-2.6c-0.8,0.2-2.1,1-3.9,2.5c-1.8,1.5-3.5,3.1-4.9,5c-3.9,5-6.5,10.2-7.8,15.6
		c-1.2,5.3-1.2,11,0.3,16.9c2,8.3,6.1,14.5,12.4,18.8c3.3,2.2,6.8,3.6,10.5,4.2l-0.6,0.3c8.5,1.4,15.2,0,20.4-2.5
		c7.5-3.5,11.8-9.1,13.5-11.8c0.6-0.9,0.9-1.5,0.9-1.5c0.4-0.7,0.7-2.7,0.9-5.3h0.5h13.8l0,0c0.3,0,0.5,0,0.8-0.1v0.1
		c3.1,0,5.7,0,7.4,0.1v0.1c5,0.2,9.9,0.3,14.9,0.5c1.7,0.1,2.7,0.1,3.1,0.2c1.6,0,3.2,0,4.7-0.2c0.2,0,0.4-0.1,0.6-0.1
		c4.3-0.8,7.7-2.3,10.3-4.2c2-1.4,3.6-3,4.9-4.7c0.5-0.6,0.9-1.2,1.3-1.8c3.4-5.3,4-10.4,4-10.4l0.2,0.1c0.6-2.7,0.9-5.6,0.7-8.8
		l0,0.1c0-0.3,0-0.6,0-0.9l0,0.1c0.3-5.5-1.2-10.7-4.4-15.5c-4.2-6.3-10.5-10.4-18.8-12.4c-1.3-0.3-2.6-0.6-3.9-0.7
		c0.8-0.7,1.6-1.3,2.3-1.9C544.3,72.5,546.8,70.7,548.4,69.9z"/>
	<path fill="#000000" d="M304,233.5c0.9,3.3,2.4,6.5,4.7,9.7c5,6.9,11.6,11.4,19.9,13.3c7.6,1.8,14.5,0.6,20.8-3.7c5.6-3.8,9.5-9.2,11.6-16.1
		l11.4,16c0.2,0.3,0.5,0.7,0.8,1.2c1.8,2.6,3.5,3.9,5.2,3.9c0.7,0,1.4-0.3,2.2-0.8c0.7-0.6,1.5-1.5,2.2-2.7l13.5-20.7l6,7.7
		l9.7,13.6l4.8,6.6l0.7,1l0.5,0.6c2-2.8,3.9-5.6,5.5-8.4c4.8-8,8.2-16,10.2-24c1.6-6.4,2.2-12.3,1.8-17.8c-0.4-5.4-1.7-10.5-4-15.3
		c-1.7-3.4-3.8-6.5-6.3-9.2c-2.5-2.7-4.5-4.2-5.9-4.6c-1.3-0.3-3.2,0.5-5.8,2.5c-1.5,1.2-2.7,2.1-3.8,2.7c-0.9,0.5-2.2,1.2-3.9,2
		c-3.1,1.5-4.7,2.9-5,4c-0.2,0.9-0.1,1.7,0.2,2.3c0.4,0.6,1.1,1,2,1.3c0.3,0.1,0.7,0.2,1.4,0.3c0.7,0.1,1.2,0.2,1.6,0.3
		c7,1.7,12,6.4,15,13.9c3,7.5,3.3,16.2,0.9,25.9c-0.1,0.4-0.2,0.9-0.4,1.3l-28-38.4l0,0c-4.3-6.7-7.7-10.1-10-10.1
		c-0.9,0-2.1,0.4-3.3,1.2v0l-0.1,0c-0.6,0.3-1.2,0.8-1.8,1.2l-9.6,6.7v1.5l0,0l3.2,3.9h0l5.2,6.2l2.3-0.3l12.1,15.6l-9.3,13.7
		L358.5,208c-0.6-1.2-1.3-2.4-2.1-3.5c-0.7-1.2-1.6-2.4-2.5-3.5c-0.2-0.2-0.4-0.5-0.6-0.7c-0.5-0.5-0.9-0.9-1.3-1.3
		c-0.8-0.8-1.7-1.6-2.6-2.4c-1.8-1.5-3.1-2.3-3.9-2.5c-1.3-0.3-2.8,0.6-4.6,2.6c-0.5,0.5-0.8,0.9-1.1,1.2c-0.6,0.7-1.4,1.5-2.4,2.2
		c0,0-0.1-0.1-0.1-0.1c-2.1-2.6-5.1-3.3-9-2.3c-3.9,1-8.8,3.9-14.5,8.5c-0.8,0.6-3.8,3.2-9,7.6c-1.2,1-2.4,2.1-3.6,3.1
		c-8.2,6.5-32.6,23.6-35.7,26c-1.1,0.8-1.7,1.3-1.9,1.5c-2,1.6-3,3.2-2.9,4.6c0.1,1.4,1.2,3.4,3.3,6c2.2,2.7,4,4.3,5.3,4.8
		c1.4,0.5,2.9,0.1,4.5-1.2c0.1-0.1,0.5-0.5,1.2-1.3C277.9,254,293.5,242,304,233.5z M383.3,203.9C383.3,204,383.3,204,383.3,203.9
		C383.3,204,383.3,204,383.3,203.9z M384.3,205.2c0.1,0.1,0.1,0.1,0.2,0.2C384.4,205.3,384.3,205.3,384.3,205.2z M384.8,205.9
		c0.2,0.3,0.5,0.6,0.7,1C385.3,206.5,385.1,206.2,384.8,205.9z M385.6,206.9c0.4,0.5,0.8,1.1,1.2,1.5
		C386.5,208,386,207.5,385.6,206.9z M386.9,208.6c0.2,0.2,0.4,0.4,0.5,0.6C387.2,209,387.1,208.8,386.9,208.6z M330.8,221.3
		c3.5-2.9,6-6.6,7.3-11.2c0.1-0.4,0.2-0.8,0.3-1.2c0.1,0,0.2,0,0.3,0.1c4.6,1.1,8,4.1,10.1,9c0.3,0.7,0.6,1.5,0.8,2.2
		c0,0.1-0.1,0.2-0.1,0.4l0.3,0.5c1.1,4.2,1.1,8.8-0.2,14c-1.5,6.4-3.8,11-6.9,13.6c-3.1,2.7-6.9,3.5-11.5,2.4
		c-5.1-1.2-9-5.1-11.6-11.6c-2.3-5.7-3-11.4-2.1-17.3c1-0.7,1.9-1.3,2.7-1.6c1.6-0.8,3.1-1,4.3-0.8c0.7,0.2,1.5,0.6,2.4,1.4
		C328.2,222.3,329.5,222.3,330.8,221.3z"/>
	<path fill="#000000" d="M349.8,187.6c4.3-0.3,6.9-1.5,8-3.6c1-2,0.5-4.4-1.4-7.3c-1.9-2.8-4.6-5.1-8.2-6.9c-1.9-0.9-3.7-1.1-5.5-0.4
		c-1.8,0.6-3.2,2-4.2,4c-0.2,0.4-0.6,1.7-1.1,3.8c-0.3,1.3-0.7,2.5-1.1,3.6c0,0,0,0,0,0c0.1,7.2,12.1,6.9,12.1,6.9l0,0
		C348.9,187.7,349.3,187.7,349.8,187.6z"/>
	<path fill="#000000" d="M373.7,188.5c4.3-0.3,6.9-1.5,8-3.6c1-2,0.5-4.4-1.4-7.3c-1.9-2.8-4.6-5.1-8.2-6.9c-1.9-0.9-3.7-1.1-5.5-0.4
		c-1.8,0.6-3.2,2-4.2,4c-0.2,0.4-0.6,1.7-1.1,3.8c-0.3,1.3-0.7,2.5-1.1,3.6c0,0,0,0,0,0c0.1,7.2,12.1,6.9,12.1,6.9l0,0
		C372.8,188.6,373.3,188.5,373.7,188.5z"/>
	<path fill="#000000" d="M417.5,177.7c4.3-0.3,6.9-1.5,8-3.6c1-2,0.5-4.4-1.4-7.3c-1.9-2.8-4.6-5.1-8.2-6.9c-1.9-0.9-3.7-1.1-5.5-0.4
		c-1.8,0.6-3.2,2-4.2,4c-0.2,0.4-0.6,1.7-1.1,3.8c-0.3,1.3-0.7,2.5-1.1,3.6c0,0,0,0,0,0c0.1,7.2,12.1,6.9,12.1,6.9l0,0
		C416.6,177.8,417,177.8,417.5,177.7z"/>
	<path fill="#000000" d="M462.3,187.1c0.6-0.4,1.4-0.7,2.6-1c1.7-0.3,2.5-1.3,2.5-2.9c0-4.6-1.4-8.8-4.1-12.7c-2.7-3.9-5.5-5.9-8.3-5.9
		c-3.3,0-5.7,1.9-7.4,5.6c-1.7,3.7-2.5,9.2-2.5,16.6c0,1,0.1,4.9,0.2,11.8c0.2,6.9,0.2,13.2,0.2,19c0,6.7-0.1,36.5-0.2,43.1
		c-0.1,1.3-0.1,2.1-0.1,2.4c0,2.6,0.6,4.3,1.8,5.1c1.2,0.8,3.5,1.2,6.8,1.2c3.5,0,5.9-0.4,7.1-1.1c1.2-0.7,1.9-2.2,1.9-4.2
		c0-0.2-0.1-0.7-0.2-1.7c-2-10.9-3-47.1-3-62.3c0-4.3,0.2-7.4,0.6-9.2C460.6,189.2,461.3,187.9,462.3,187.1z"/>
	<path fill="#000000" d="M491.2,203.3c0,0.2,0.1,0.5,0.1,0.7c0-0.2,0-0.4-0.1-0.6c0-0.4-0.1-0.8-0.1-1.2c0,0,0,0,0-0.1c0,0,0,0,0,0.1
		C491.1,202.6,491.1,202.9,491.2,203.3z"/>
	<path fill="#000000" d="M532.9,213.6L532.9,213.6c0-0.4,0-0.9,0-1.3c0-0.9,0-1.7-0.1-2.6c0-0.2,0-0.5,0-0.7c0-0.3,0-0.6,0-0.8c0-0.3,0-0.5,0-0.5
		l0,0c-0.1-1.3-0.3-2.7-0.6-4c-0.7-3.2-1.9-6.3-3.6-9.3c-1.1-2-2.4-3.9-4-5.8c-5-6.2-11-9.9-17.9-11.3c-0.1,0-0.3,0-0.4,0.1
		c-1.9,0.3-3.6,0.8-5.3,1.5c1.6-0.7,3.4-1.2,5.3-1.5c0,0,0,0,0,0c-4.7-0.7-13.2-0.9-20.4,4.7c0,0,0,0,0,0c-0.3,0.2-0.6,0.5-0.9,0.7
		c-6.6,5.4-10.7,12.3-12.1,20.7c-1.4,8.4,0.2,15.5,5,21.4c2.1,2.5,4.5,4.5,7.4,5.9l7.4,0.2l15.2,0.5l0.2,0l0,0l6.6,0.2
		c-0.1,0.1-0.3,0.3-0.4,0.4c-6.9,6.9-14.8,10.7-23.7,11.5c-7,0.6-13-0.8-18.1-4.2V251c3.6-0.6,6.1-1.1,6.7-1.2
		c-2.1,0.5-4.4,1-6.7,1.4v6.1c5.3,2.3,11.1,3.3,17.7,3c11.5-0.5,21.3-4.9,29.5-13.1c4.4-4.4,7.7-9.1,9.8-14.1
		c0.1-0.3,0.2-0.5,0.3-0.8l0,0l0,0c0,0,0,0,0,0c0.1-0.3,0.2-0.5,0.3-0.8c0-0.1,0.1-0.3,0.1-0.4c0-0.1,0.1-0.2,0.1-0.3
		c0.1-0.2,0.1-0.4,0.2-0.6c0.1-0.4,0.2-0.8,0.4-1.1c0.2-0.6,0.3-1.2,0.5-1.8c0.4-1.4,0.7-2.9,0.9-4.3c0-0.3,0.1-0.5,0.1-0.8
		c0.3-2.3,0.5-4.5,0.6-6.5c0-0.5,0-1,0.1-1.5h0.7C533.1,213.9,532.9,213.6,532.9,213.6L532.9,213.6z M486.5,186.7
		c-0.2-0.4-0.3-0.9-0.4-1.5C486.2,185.7,486.3,186.3,486.5,186.7z M488,188.3c0.5,0.2,0.9,0.3,1.4,0.3c0.7-0.1,1.4-0.5,2-1.3
		c0.2-0.2,0.5-0.6,0.8-1.1c0.3-0.4,0.5-0.7,0.7-1c0.1,0.6,0.2,1.1,0.4,1.5c-0.2-0.4-0.3-0.9-0.4-1.5c0.1-0.1,0.2-0.3,0.3-0.4
		c0.2-0.2,0.3-0.4,0.5-0.6c2.4-0.9,4.8-1.1,7.2-0.4c3.7,1,7.5,3.8,11.4,8.4c0.2,0.3,0.5,0.6,0.7,0.8c4.2,5.2,6.4,10.4,6.7,15.7
		c0.1,2-0.1,3.8-0.6,5.4H509l0,0l0,0c-1.7-0.2-3.3-0.3-4.7-0.4c-6.8-0.9-18.6-3.4-19.9-10.5c0,0.2,0,0.4,0.1,0.6
		c0-0.2-0.1-0.5-0.1-0.7c-0.1-0.4-0.1-0.7-0.1-1.1c0,0,0,0,0-0.1c0-0.7-0.1-1.5-0.1-2.2C484.2,195.1,485.5,191.2,488,188.3z"/>
	<path fill="#000000" d="M403.8,278.7c4.3-0.3,6.9-1.5,8-3.6c1-2,0.5-4.4-1.4-7.3c-1.9-2.8-4.6-5.1-8.2-6.9c-1.9-0.9-3.7-1.1-5.5-0.4
		c-1.8,0.6-3.2,2-4.2,4c-0.2,0.4-0.6,1.7-1.1,3.8c-0.3,1.3-0.7,2.5-1.1,3.6c0,0,0,0,0,0c0.1,7.2,12.1,6.9,12.1,6.9v0
		C402.9,278.8,403.3,278.8,403.8,278.7z"/>
	<path fill="#000000" d="M505,366.6c-1.9-0.9-3.7-1.1-5.5-0.4c-1.8,0.6-3.2,2-4.2,4c-0.2,0.4-0.6,1.7-1.1,3.8c-0.3,1.3-0.7,2.5-1.1,3.6c0,0,0,0,0,0
		c0.1,7.2,12.1,6.9,12.1,6.9l0,0c0.4,0,0.9-0.1,1.4-0.1c4.3-0.3,6.9-1.5,8-3.6c1-2,0.5-4.4-1.4-7.3
		C511.3,370.7,508.6,368.4,505,366.6z"/>
	<path fill="#000000" d="M413.4,366.6c-1.9-0.9-3.7-1.1-5.5-0.4c-1.8,0.6-3.2,2-4.2,4c-0.2,0.4-0.6,1.7-1.1,3.8c-0.3,1.3-0.7,2.5-1.1,3.6
		c0,0,0,0,0,0c0.1,7.2,12.1,6.9,12.1,6.9l0,0c0.4,0,0.9-0.1,1.4-0.1c4.3-0.3,6.9-1.5,8-3.6c1-2,0.5-4.4-1.4-7.3
		C419.7,370.7,416.9,368.4,413.4,366.6z"/>
	<path fill="#000000" d="M383.6,366.6c-1.9-0.9-3.7-1.1-5.5-0.4c-1.8,0.6-3.2,2-4.2,4c-0.2,0.4-0.6,1.7-1.1,3.8c-0.3,1.3-0.7,2.5-1.1,3.6
		c0,0,0,0,0,0c0.1,7.2,12.1,6.9,12.1,6.9l0,0c0.4,0,0.9-0.1,1.4-0.1c4.3-0.3,6.9-1.5,8-3.6c1-2,0.5-4.4-1.4-7.3
		C389.9,370.7,387.2,368.4,383.6,366.6z"/>
	<path fill="#000000" d="M367.2,256.9c-5.5,3.1-9.8,7-12.9,11.7c-3.1,4.7-4.6,9.3-4.6,13.8c0,4.4,1.3,8.2,3.8,11.2c2.5,3.1,6.1,5.4,10.6,7.1
		l8.1-14.4c-2.6-0.7-5-1.7-7.1-3.1c-2.1-1.3-3.7-2.9-4.9-4.7c1.1-6.2,4.5-12.5,10.3-18.7L367.2,256.9z"/>
	<path fill="#000000" d="M497.3,352.7c7.1-4.8,11.7-11.3,13.9-19.5c2.2-8.2,1.1-15.5-3.1-21.8c-2.1-3.1-4.8-5.5-8.1-7.2l-1.1,0.9l0,0l0,0l-7.6,6.1
		c0,0,0.1,0.1,0.1,0.1l-2.8,2.3c0,0,18.8,17.1,4.2,35.1c-3.9,2.6-7.8,3.3-11.6,1.8c-3.1-1.1-6.1-3.6-9.1-7.4
		c-4.8-10.2-9.8-18.9-14.9-26c-4.5-6.2-9.4-11.5-14.6-16c0.4-0.9,0.9-1.7,1.4-2.6c3.3-5.9,7.6-10.9,12.9-15.1
		c4.1-3.3,8.5-6,13.6-7.3c3.8-1,7.5-1,11.2,0.4c4.2,1.6,7.3,4.4,8.6,8.8c1.3,4.1,0,8.6-3.2,11.1c-2.8,2.1-5.8,2.6-9,0.9
		c-2.8-1.5-4.1-4-4.1-7.1c0-2.3,0.9-4.3,2.7-5.8c0,0.1-0.1,0.2-0.1,0.2c-2.7,3.7-1.2,8.8,3,10.5c2.8,1.1,6,0.3,8-2.2
		c1.8-2.3,1.9-5.7,0.2-8.1c-1.8-2.6-5.5-3.8-8.9-2.8c-6.8,1.8-9.4,10.3-4.9,15.9c3.6,4.5,10,5.6,15.1,2.5c4.7-2.8,7-7.1,7.1-12.6
		c0.1-8.2-5.7-14.8-13.4-16.9c-5.4-1.5-10.6-0.9-15.7,1.2c-3.9,1.6-7.2,4-10.4,6.7c-5.1,4.4-9.1,9.7-12.2,15.6c-1,2-1.9,4-2.6,6
		c-0.9-0.7-1.8-1.5-2.7-2.2c-5.3-4-10.5-6.9-15.6-8.7c-5.1-1.8-10.4-2.6-15.6-2.3c-3.8,0.3-7.5,1-10.9,2.2c-3.5,1.2-5.7,2.5-6.6,3.7
		c-0.8,1.1-0.8,3.2,0,6.3c0.5,1.8,0.8,3.3,1,4.5c0.1,1,0.3,2.5,0.4,4.3c0.2,3.4,0.8,5.5,1.7,6.2c0.8,0.6,1.5,0.8,2.2,0.7
		c0.7-0.1,1.4-0.6,2-1.4c0.2-0.2,0.4-0.6,0.8-1.2c0.4-0.6,0.7-1,0.9-1.4c4.3-5.8,10.6-8.6,18.7-8.4c8.1,0.2,16.2,3.3,24.2,9.3
		c4.2,3.1,8,7.1,11.6,11.9c3,4.1,6.1,9.1,9.1,14.9h-76.4l-14.4-19.8l0,0c-4.3-6.7-7.7-10.1-10-10.1c-0.9,0-2.1,0.4-3.3,1.2l0,0
		l-0.1,0c-0.6,0.3-1.2,0.8-1.8,1.2l-9.5,6.7v1.5h0l3.2,3.9l0,0l5.2,6.2l2.3-0.3l0,0l12.1,15.6l-9.3,13.7l-20.3-28.2v-12.4
		c0-0.5,0.1-15.6,0.1-24.2c-0.1-0.2-0.1-0.4-0.2-0.6c-1.3-3.4-2.6-5.6-3.8-6.4c-1.1-0.8-3.3-0.7-6.4,0.2c-1.4,0.4-2.6,0.7-3.7,1
		c-0.3,0.1-0.6,0.1-0.8,0.2c-1,0.2-2.5,0.3-4.3,0.5c-3.4,0.3-5.5,0.9-6.1,1.9c-0.5,0.8-0.8,1.5-0.6,2.2c0.1,0.7,0.6,1.4,1.4,1.9
		c0.2,0.2,0.6,0.4,1.2,0.8c0.6,0.3,1,0.6,1.4,0.9c3.8,2.7,6.4,6.3,7.8,10.8c0.7,2.3,1.1,4.9,1.1,7.7c0,0.5,0,1-0.1,1.5
		c0,0.6,0,1.2-0.1,1.8c-0.2,2.4-0.7,4.8-1.5,7.2c-1.4,4.6-3.7,9.3-7.1,13.9c-1.5,2.1-3.2,4.1-5,6c-0.5,0.5-1,1-1.6,1.6
		c-1,0.9-2,1.8-3,2.7c-13.7,10.8-34.1,8.9-34.1,8.9l0,7.2c0,0.4,0,0.9,0,1.7c0,3,0.6,4.9,1.9,5.9c0.2,0.2,0.5,0.3,0.7,0.4l19,9.6
		l31.4-41.7c0.4-0.5,0.8-0.9,1.2-1.4l8,11.1c0,0,0,0,0,0l13.4,18.7c0.2,0.3,0.5,0.7,0.8,1.2c1.8,2.6,3.5,3.9,5.2,3.9
		c0.7,0,1.4-0.3,2.2-0.8c0.7-0.6,1.5-1.5,2.2-2.7l13.5-20.7l5,6.5h0.6h7.4h14h5.5h6.2h34.6h1.3h29.3l-0.2-0.3
		C485.3,358.1,491.5,356.7,497.3,352.7z M365.8,326.6c-0.2-0.2-0.3-0.4-0.5-0.7C365.5,326.2,365.7,326.4,365.8,326.6L365.8,326.6z
		 M365.3,325.9c-0.6-0.8-1.3-1.7-2-2.6C363.9,324.2,364.7,325.2,365.3,325.9z M362.9,322.8c-0.1-0.1-0.1-0.1-0.2-0.2
		C362.8,322.7,362.8,322.7,362.9,322.8z M361.4,321C361.4,321,361.4,321,361.4,321L361.4,321L361.4,321
		C361.4,321,361.4,321,361.4,321z M362.2,322C362.2,322,362.2,322,362.2,322C362.2,322,362.2,322,362.2,322z M361.8,321.5
		c0,0-0.1-0.1-0.1-0.1C361.7,321.4,361.8,321.4,361.8,321.5z M353.4,322.2c-0.1,0-0.3,0.1-0.3,0.1
		C353.1,322.3,353.2,322.2,353.4,322.2z M352.9,322.4c-0.2,0.1-0.8,0.5-1.6,1C352.1,322.9,352.7,322.5,352.9,322.4z M387.9,340.8
		l-1.1-1.5l4.1,0.7h-3V340.8z M449.1,357l0.3,0L449.1,357L449.1,357z"/>
	<path fill="#000000" d="M363.2,162.6c2.3,0.1,4.6-0.2,7-0.9c2.4-0.7,5-1.9,7.9-3.6c0.4-0.2,0.9-0.5,1.7-1c5.2-3.1,9.4-4.6,12.8-4.4
		c1.2,0.1,2.6,0.3,4.1,0.8c1.5,0.5,2.4,0.7,2.8,0.7c0.9,0.1,1.6-0.2,2.1-0.6c0.4-0.5,0.7-1.3,0.8-2.4c0.1-1.9-0.6-3.4-2.1-4.6
		c-1.5-1.2-3.7-1.9-6.4-2c-2.5-0.1-4.8,0.1-7,0.6c-2.2,0.6-4.2,1.5-6.1,2.7c-1.5,1-3.3,2.6-5.2,4.6c-1.9,2.1-3.3,3.4-4.1,4
		c-1.7,1.3-3.2,2.2-4.6,2.7c-1.4,0.5-3.2,0.8-5.4,0.8l-0.1,0c-1.7,0.1-2.6,0.4-2.6,0.9c0,0.4,0.3,0.8,1.1,1
		C360.4,162.4,361.6,162.5,363.2,162.6z"/>
	<path fill="#000000" d="M439.1,384.1c2.3,0.1,4.6-0.2,7-0.9c2.4-0.7,5-1.9,7.9-3.6c0.4-0.2,0.9-0.5,1.7-1c5.2-3.1,9.4-4.6,12.8-4.4
		c1.2,0.1,2.6,0.3,4.1,0.8c1.5,0.5,2.4,0.7,2.8,0.7c0.9,0.1,1.6-0.2,2.1-0.6c0.4-0.5,0.7-1.3,0.8-2.4c0.1-1.9-0.6-3.4-2.1-4.6
		c-1.5-1.2-3.7-1.9-6.4-2c-2.5-0.1-4.8,0.1-7,0.6c-2.2,0.6-4.2,1.5-6.1,2.7c-1.5,1-3.3,2.6-5.2,4.6c-1.9,2.1-3.3,3.4-4.1,4
		c-1.7,1.3-3.2,2.2-4.6,2.7c-1.4,0.5-3.2,0.8-5.4,0.8l-0.1,0c-1.7,0.1-2.6,0.4-2.6,0.9c0,0.4,0.3,0.8,1.1,1
		C436.3,383.8,437.5,384,439.1,384.1z"/>
	<g>
		<path fill="#000000" d="M516,400.6c-0.1,0-0.2,0.1-0.3,0.1c-7.5,2.7-15.1,2.4-22.8,0.9c-7.3-1.5-14.4-4.1-21.5-6.3c-7-2.2-14-4.2-21.4-4.5
			c-4.9-0.3-9.8,0.2-14.6,1.6c-12.8,4-22.3,15.8-22.8,30.3c-0.6,16.5,12.1,31.5,28.7,29.7c0.1,0,0.3,0,0.5,0.1
			c2.8-0.9,5.6-1.9,8.4-2.8c1.7-1.3,3.4-2.4,4.9-3.9c5.3-5.2,7.6-11.6,6.8-19.4c-0.8-7.3-6-13.5-12.3-14.5
			c-10.9-1.7-18.7,8.2-18,18.7c0.1,1.9,0.8,3.8,2.1,5.3c0.6,0.7,1.3,1.4,2.3,1c1-0.4,1.3-1.4,1.3-2.4c0-1.7-0.1-3.4-0.4-5.1
			c-0.8-5,1.4-10.5,5.4-13.3c4-2.8,9.3-2.8,13.2,0.3c1.9,1.5,3.1,3.8,3.8,6.3c2.5,8.3-0.3,17-7.2,22.2c-11,8.3-26.5,3.9-32.6-9.1
			c-4.9-10.5-2.3-23.3,5.6-31.2c5.3-5.3,11.6-7.9,18.6-8.7c7.9-0.8,15.6,0.7,23.2,2.8c6.8,1.9,13.6,4,20.5,5.7
			c6.5,1.7,13.1,2.4,19.8,1.6c3.1-0.4,6.1-1.1,8.9-2.1V400.6z"/>
		<path fill="#000000" d="M411.9,422.7c-0.5-14.6-10-26.3-22.8-30.3c-4.7-1.5-9.6-1.9-14.6-1.6c-7.3,0.4-14.4,2.3-21.4,4.5
			c-7.1,2.3-14.2,4.9-21.5,6.3c-7.7,1.5-15.3,1.8-22.8-0.9c-1.9-0.7-3.7-1.5-5.4-2.6v3.3c4.2,2.5,9,3.9,14,4.6
			c6.7,0.8,13.3,0.1,19.8-1.6c6.9-1.8,13.6-3.8,20.5-5.7c7.6-2.1,15.3-3.6,23.2-2.8c7,0.8,13.4,3.3,18.6,8.7
			c7.8,7.9,10.5,20.8,5.6,31.2c-6.1,13-21.6,17.4-32.6,9.1c-6.9-5.2-9.8-13.9-7.2-22.2c0.7-2.4,1.9-4.7,3.8-6.3
			c3.9-3.1,9.2-3.2,13.2-0.3c4,2.8,6.2,8.3,5.4,13.3c-0.3,1.7-0.3,3.4-0.4,5.1c0,1,0.3,2,1.3,2.4c1,0.4,1.7-0.3,2.3-1
			c1.3-1.5,1.9-3.3,2.1-5.3c0.7-10.5-7.2-20.4-18-18.7c-6.2,1-11.5,7.2-12.3,14.5c-0.8,7.8,1.5,14.2,6.8,19.4
			c1.5,1.5,3.3,2.6,4.9,3.9c2.8,0.9,5.6,1.9,8.4,2.8c0.2,0,0.3-0.1,0.5-0.1C399.8,454.3,412.5,439.3,411.9,422.7z"/>
		<path fill="#000000" d="M494.6,411.1c-3.5-2.9-8.3-2.6-11.3,0.7c-3.8,4.1-2.6,11.1,2.3,13.1c2.4,1,5.2,0.4,6.8-1.5c1.4-1.8,1.6-4.5,0.5-6.5
			c-1.2-2.1-3.5-3.1-5.7-2.4c-3.2,1-4.7,4.9-3.1,8.1c0,0.1,0.1,0.1,0.1,0.2c-1.2-1.4-1.7-3-1.5-4.9c0.3-2.5,1.4-4.4,3.6-5.3
			c2.4-1.1,4.6-0.5,6.5,1.5c2.1,2.2,2.7,6,1.4,9.1c-1.4,3.4-3.8,5.4-7,6.3c-2.8,0.8-5.6,0.4-8.2-0.7c-3.7-1.5-6.7-4.1-9.4-7.1
			c-3.5-3.8-6.3-8.2-8.2-13.2c-0.8-2.1-1.5-4.3-2.2-6.5c0,0.3,0,0.6,0.1,0.9c0,0.3,0.1,0.6,0.1,1c0.4,2.7,1.1,5.3,2,7.9
			c1.8,5,4.3,9.6,7.7,13.5c2.1,2.5,4.4,4.6,7.1,6.3c3.6,2.1,7.3,3.1,11.4,2.4c5.8-1.1,10.6-5.8,11.2-12.3
			C499.1,417.4,497.8,413.8,494.6,411.1z"/>
		<path fill="#000000" d="M368.6,404.1c0.1-0.3,0.1-0.6,0.1-1c0-0.3,0.1-0.6,0.1-0.9c-0.7,2.2-1.4,4.4-2.2,6.5c-1.9,5-4.7,9.4-8.2,13.2
			c-2.7,3-5.7,5.6-9.4,7.1c-2.7,1.1-5.4,1.5-8.2,0.7c-3.2-0.9-5.7-2.9-7-6.3c-1.3-3.2-0.7-6.9,1.4-9.1c1.9-1.9,4.1-2.6,6.5-1.5
			c2.2,0.9,3.3,2.8,3.6,5.3c0.2,1.9-0.3,3.5-1.5,4.9c0-0.1,0-0.1,0.1-0.2c1.7-3.2,0.2-7.1-3.1-8.1c-2.2-0.7-4.4,0.3-5.7,2.4
			c-1.2,2-1,4.7,0.5,6.5c1.6,1.9,4.3,2.5,6.8,1.5c4.9-2.1,6.1-9.1,2.3-13.1c-3-3.3-7.8-3.6-11.3-0.7c-3.2,2.7-4.6,6.3-4.2,10.7
			c0.6,6.6,5.4,11.3,11.2,12.3c4.1,0.7,7.8-0.2,11.4-2.4c2.7-1.6,5-3.8,7.1-6.3c3.4-4,5.9-8.5,7.7-13.5
			C367.5,409.4,368.2,406.8,368.6,404.1z"/>
		<polygon points="446.8,455.2 462.8,472.6 478.7,455.2 462.8,437.8 		"/>
	</g>
</g>
<path class="af" fill="#000000" d="M273.602,481.306c-0.578-0.576-1.301-1.03-2.174-1.362c-0.873-0.331-1.885-0.497-3.039-0.497
	c-0.663,0-1.463,0.079-2.4,0.238v-6.077h-1.535v17.711c0.706,0.202,1.402,0.354,2.087,0.454s1.301,0.151,1.849,0.151
	c1.153,0,2.166-0.162,3.039-0.486s1.596-0.764,2.174-1.319c0.576-0.555,1.006-1.211,1.287-1.968s0.42-1.561,0.42-2.411
	s-0.139-1.657-0.42-2.422C274.608,482.554,274.178,481.883,273.602,481.306z M272.391,489.167c-0.852,0.829-2.17,1.243-3.958,1.243
	c-0.39,0-0.805-0.032-1.244-0.097c-0.439-0.065-0.84-0.134-1.2-0.206v-8.845c0.447-0.115,0.887-0.194,1.319-0.237
	c0.433-0.044,0.808-0.065,1.125-0.065c0.894,0,1.668,0.112,2.325,0.335c0.656,0.224,1.199,0.545,1.633,0.963
	c0.432,0.418,0.752,0.919,0.961,1.503s0.314,1.243,0.314,1.979C273.667,487.195,273.241,488.338,272.391,489.167z M247.392,479.446
	c-0.62,0-1.297,0.079-2.033,0.238c-0.735,0.158-1.485,0.433-2.249,0.821l-0.065,1.73c0.548-0.303,0.973-0.52,1.276-0.649
	s0.624-0.237,0.962-0.324c0.338-0.086,0.677-0.158,1.016-0.216s0.667-0.087,0.984-0.087c1.139,0,1.982,0.249,2.53,0.746
	s0.822,1.33,0.822,2.498v0.13c-0.332-0.044-0.732-0.087-1.2-0.13c-0.469-0.043-0.876-0.065-1.222-0.065
	c-1.831,0-3.302,0.311-4.412,0.931c-1.11,0.619-1.665,1.644-1.665,3.07c0,0.707,0.155,1.305,0.465,1.795
	c0.31,0.49,0.713,0.88,1.211,1.168s1.067,0.497,1.708,0.627c0.641,0.13,1.308,0.194,2,0.194c0.807,0,1.6-0.072,2.378-0.216
	c0.779-0.145,1.536-0.368,2.271-0.671v-7.028c0-1.585-0.397-2.742-1.189-3.471C250.189,479.811,248.992,479.446,247.392,479.446z
	 M250.636,489.892c-0.375,0.144-0.858,0.267-1.449,0.367c-0.591,0.102-1.183,0.151-1.773,0.151c-0.505,0-0.984-0.035-1.438-0.108
	c-0.454-0.071-0.84-0.197-1.157-0.378c-0.317-0.18-0.57-0.414-0.757-0.703c-0.188-0.288-0.281-0.663-0.281-1.124
	c0-0.52,0.111-0.934,0.335-1.244c0.224-0.31,0.533-0.551,0.93-0.724c0.396-0.174,0.85-0.296,1.362-0.368
	c0.511-0.072,1.041-0.108,1.589-0.108c0.476,0,0.984,0.029,1.524,0.087c0.541,0.058,0.912,0.108,1.114,0.151V489.892z
	 M258.032,479.868c-0.649,0.122-1.276,0.263-1.881,0.422v11.418h1.535v-10.186c0.202-0.072,0.563-0.147,1.082-0.228
	c0.519-0.079,1.002-0.118,1.449-0.118h1.989v-1.492H260C259.336,479.685,258.681,479.746,258.032,479.868z M-77.92,487.667
	l241.145,0.656l0.663-0.433l-0.632-0.564L-77.92,487.667z M164.994,487.825l1.95,1.95l1.95-1.95l-1.95-1.95L164.994,487.825z
	 M169.559,487.825l3.057,3.057l3.057-3.057l-3.057-3.057L169.559,487.825z M212.359,489.286l-3.395-9.602h-1.514l-3.396,9.602
	l-2.984-9.602h-1.73l3.979,12.023h1.428l3.46-9.645l3.46,9.645h1.427l3.979-12.023h-1.73L212.359,489.286z M238.418,489.589
	c-0.317,0-0.591,0.115-0.822,0.346c-0.231,0.23-0.346,0.505-0.346,0.822c0,0.316,0.115,0.591,0.346,0.821
	c0.23,0.23,0.504,0.346,0.822,0.346c0.317,0,0.591-0.115,0.822-0.346c0.23-0.23,0.346-0.505,0.346-0.821
	c0-0.317-0.116-0.592-0.346-0.822C239.009,489.704,238.735,489.589,238.418,489.589z M193.243,489.286l-3.395-9.602h-1.514
	l-3.396,9.602l-2.984-9.602h-1.73l3.979,12.023h1.428l3.46-9.645l3.46,9.645h1.427l3.979-12.023h-1.73L193.243,489.286z
	 M231.476,489.286l-3.395-9.602h-1.514l-3.396,9.602l-2.984-9.602h-1.73l3.979,12.023h1.428l3.46-9.645l3.46,9.645h1.427
	l3.979-12.023h-1.73L231.476,489.286z M382.732,480.474c-0.426-0.396-0.938-0.667-1.535-0.812c-0.598-0.144-1.271-0.216-2.021-0.216
	c-0.664,0-1.393,0.09-2.184,0.271c-0.793,0.181-1.471,0.4-2.033,0.659c-0.346-0.331-0.818-0.569-1.416-0.714
	c-0.6-0.144-1.273-0.216-2.023-0.216c-0.635,0-1.268,0.058-1.902,0.173l-2.465,0.454v11.635h1.535v-10.38
	c0.447-0.102,0.883-0.188,1.309-0.26c0.424-0.072,0.896-0.108,1.416-0.108c0.605,0,1.125,0.058,1.557,0.173
	c0.434,0.116,0.789,0.321,1.07,0.616c0.281,0.296,0.494,0.711,0.639,1.244s0.217,1.24,0.217,2.119v6.596h1.535v-7.201
	c0-0.663-0.055-1.243-0.162-1.741c-0.109-0.497-0.213-0.861-0.314-1.092c0.086-0.043,0.281-0.119,0.584-0.228
	c0.303-0.107,0.602-0.197,0.898-0.27c0.295-0.072,0.586-0.126,0.875-0.162s0.547-0.055,0.779-0.055c0.59,0,1.102,0.058,1.535,0.173
	c0.432,0.116,0.781,0.317,1.049,0.605c0.266,0.289,0.471,0.703,0.615,1.244c0.145,0.54,0.217,1.251,0.217,2.13v6.596h1.535v-7.201
	c0-0.995-0.111-1.816-0.336-2.466C383.482,481.393,383.158,480.87,382.732,480.474z M280.1,474.581
	c-0.785,0.648-1.18,1.729-1.18,3.243v1.86h-2.551v1.492h2.551v10.531h1.537v-10.531h4.973v-1.492h-4.973v-1.471
	c0-0.635,0.045-1.149,0.141-1.546c0.094-0.396,0.24-0.707,0.443-0.931c0.201-0.223,0.475-0.385,0.82-0.486
	c0.346-0.101,0.779-0.151,1.299-0.151h2.422v-1.492h-2.271C281.956,473.607,280.885,473.932,280.1,474.581z M398.273,487.825
	l3.057,3.057l3.057-3.057l-3.057-3.057L398.273,487.825z M343.322,482.322c0.389-0.418,0.854-0.749,1.395-0.994
	s1.135-0.368,1.783-0.368c0.736,0,1.373,0.076,1.914,0.228s1.121,0.414,1.74,0.789l0.715-1.405c-0.707-0.39-1.393-0.674-2.055-0.854
	c-0.664-0.181-1.436-0.271-2.314-0.271c-0.85,0-1.639,0.155-2.367,0.465c-0.729,0.311-1.367,0.746-1.914,1.309
	c-0.549,0.563-0.98,1.222-1.297,1.979c-0.317,0.757-0.476,1.59-0.476,2.498s0.158,1.74,0.476,2.497
	c0.316,0.757,0.748,1.413,1.297,1.969c0.547,0.555,1.186,0.987,1.914,1.297c0.729,0.311,1.518,0.465,2.367,0.465
	c0.879,0,1.65-0.09,2.314-0.27c0.662-0.181,1.348-0.466,2.055-0.854l-0.715-1.406c-0.619,0.375-1.199,0.639-1.74,0.79
	s-1.178,0.227-1.914,0.227c-0.648,0-1.242-0.119-1.783-0.356c-0.541-0.238-1.006-0.565-1.395-0.984
	c-0.391-0.418-0.693-0.915-0.908-1.492c-0.217-0.576-0.324-1.203-0.324-1.881s0.107-1.305,0.324-1.882
	C342.628,483.238,342.931,482.741,343.322,482.322z M404.387,487.825l1.949,1.95l1.951-1.95l-1.951-1.95L404.387,487.825z
	 M410.701,487.326l-0.664,0.433l0.633,0.564l241.176-0.341L410.701,487.326z M362.611,481.295c-0.549-0.569-1.193-1.02-1.936-1.352
	c-0.742-0.331-1.547-0.497-2.412-0.497c-0.863,0-1.668,0.166-2.41,0.497c-0.742,0.332-1.389,0.782-1.936,1.352
	c-0.549,0.57-0.977,1.229-1.287,1.979c-0.311,0.749-0.465,1.557-0.465,2.422s0.154,1.672,0.465,2.422s0.738,1.409,1.287,1.979
	c0.547,0.569,1.193,1.017,1.936,1.341s1.547,0.486,2.41,0.486c0.865,0,1.67-0.162,2.412-0.486s1.387-0.771,1.936-1.341
	c0.547-0.569,0.977-1.229,1.287-1.979c0.309-0.75,0.465-1.557,0.465-2.422s-0.156-1.673-0.465-2.422
	C363.587,482.524,363.158,481.865,362.611,481.295z M362.394,487.523c-0.217,0.569-0.52,1.067-0.908,1.492
	c-0.389,0.426-0.857,0.765-1.406,1.017c-0.547,0.252-1.152,0.378-1.816,0.378c-0.662,0-1.268-0.126-1.816-0.378
	c-0.547-0.252-1.016-0.591-1.404-1.017c-0.391-0.425-0.693-0.923-0.908-1.492c-0.217-0.569-0.324-1.179-0.324-1.827
	c0-0.649,0.107-1.262,0.324-1.839c0.215-0.576,0.518-1.077,0.908-1.503c0.389-0.425,0.857-0.764,1.404-1.016
	c0.549-0.252,1.154-0.379,1.816-0.379c0.664,0,1.27,0.127,1.816,0.379c0.549,0.252,1.018,0.591,1.406,1.016
	c0.389,0.426,0.691,0.927,0.908,1.503c0.217,0.577,0.324,1.189,0.324,1.839C362.718,486.345,362.611,486.954,362.394,487.523z
	 M296.221,481.295c-0.547-0.569-1.191-1.02-1.936-1.352c-0.742-0.331-1.545-0.497-2.41-0.497s-1.67,0.166-2.412,0.497
	c-0.742,0.332-1.387,0.782-1.936,1.352c-0.547,0.57-0.977,1.229-1.285,1.979c-0.311,0.749-0.465,1.557-0.465,2.422
	s0.154,1.672,0.465,2.422c0.309,0.75,0.738,1.409,1.285,1.979c0.549,0.569,1.193,1.017,1.936,1.341s1.547,0.486,2.412,0.486
	s1.668-0.162,2.41-0.486c0.744-0.324,1.389-0.771,1.936-1.341c0.549-0.569,0.977-1.229,1.287-1.979s0.465-1.557,0.465-2.422
	s-0.154-1.673-0.465-2.422C297.198,482.524,296.77,481.865,296.221,481.295z M296.006,487.523c-0.217,0.569-0.52,1.067-0.908,1.492
	c-0.391,0.426-0.859,0.765-1.406,1.017c-0.549,0.252-1.154,0.378-1.816,0.378c-0.664,0-1.27-0.126-1.816-0.378
	c-0.549-0.252-1.018-0.591-1.406-1.017c-0.389-0.425-0.691-0.923-0.908-1.492s-0.324-1.179-0.324-1.827
	c0-0.649,0.107-1.262,0.324-1.839c0.217-0.576,0.52-1.077,0.908-1.503c0.389-0.425,0.857-0.764,1.406-1.016
	c0.547-0.252,1.152-0.379,1.816-0.379c0.662,0,1.268,0.127,1.816,0.379c0.547,0.252,1.016,0.591,1.406,1.016
	c0.389,0.426,0.691,0.927,0.908,1.503c0.215,0.577,0.324,1.189,0.324,1.839C296.331,486.345,296.221,486.954,296.006,487.523z
	 M309.381,480.463c-0.455-0.39-0.996-0.656-1.623-0.801c-0.627-0.144-1.309-0.216-2.043-0.216c-0.707,0-1.465,0.047-2.271,0.141
	s-1.701,0.234-2.682,0.422v11.699h1.535v-10.402c1.184-0.23,2.293-0.346,3.33-0.346c0.592,0,1.111,0.062,1.559,0.184
	c0.445,0.123,0.818,0.332,1.113,0.628c0.295,0.295,0.525,0.713,0.691,1.254s0.25,1.251,0.25,2.13v6.553h1.535v-7.201
	c0-0.995-0.119-1.82-0.357-2.477C310.18,481.375,309.834,480.852,309.381,480.463z M318.516,490.054
	c-0.346-0.108-0.619-0.277-0.82-0.509c-0.203-0.23-0.35-0.547-0.443-0.951c-0.096-0.403-0.141-0.922-0.141-1.557v-5.86h4.973v-1.492
	h-4.973v-4.347h-1.537v4.347h-2.551v1.492h2.551v6.466c0,0.764,0.109,1.405,0.326,1.925c0.215,0.519,0.525,0.937,0.93,1.254
	c0.402,0.317,0.867,0.544,1.395,0.682c0.525,0.137,1.105,0.205,1.74,0.205h2.271v-1.492h-2.422
	C319.295,490.216,318.862,490.162,318.516,490.054z M337.784,489.589c-0.316,0-0.59,0.115-0.82,0.346s-0.346,0.505-0.346,0.822
	c0,0.316,0.115,0.591,0.346,0.821s0.504,0.346,0.82,0.346c0.318,0,0.592-0.115,0.822-0.346s0.346-0.505,0.346-0.821
	c0-0.317-0.115-0.592-0.346-0.822S338.102,489.589,337.784,489.589z M333.178,486.106c-0.346-0.303-0.785-0.565-1.318-0.789
	c-0.533-0.223-1.182-0.422-1.947-0.595l-0.799-0.173c-1.053-0.216-1.781-0.461-2.184-0.735c-0.404-0.273-0.607-0.678-0.607-1.211
	c0-0.504,0.238-0.904,0.715-1.2c0.475-0.295,1.174-0.443,2.098-0.443c0.793,0,1.477,0.076,2.055,0.228
	c0.576,0.151,1.217,0.421,1.924,0.811l0.691-1.405c-1.412-0.765-2.969-1.146-4.67-1.146c-0.635,0-1.223,0.076-1.764,0.228
	c-0.539,0.151-1.008,0.364-1.404,0.638s-0.711,0.605-0.941,0.994c-0.23,0.39-0.346,0.815-0.346,1.276
	c0,0.462,0.072,0.88,0.217,1.254c0.143,0.375,0.381,0.707,0.713,0.995s0.758,0.537,1.275,0.746c0.52,0.209,1.146,0.4,1.883,0.573
	l0.908,0.194c1.008,0.217,1.729,0.49,2.162,0.822c0.432,0.331,0.648,0.771,0.648,1.318c0,0.39-0.086,0.707-0.26,0.952
	c-0.172,0.245-0.414,0.436-0.725,0.573c-0.311,0.137-0.678,0.237-1.102,0.303c-0.426,0.064-0.877,0.097-1.352,0.097
	c-0.592,0-1.223-0.09-1.893-0.271c-0.67-0.18-1.352-0.479-2.045-0.897l-0.734,1.471c0.779,0.433,1.539,0.742,2.281,0.93
	s1.539,0.281,2.391,0.281c0.748,0,1.434-0.072,2.053-0.216c0.621-0.145,1.158-0.36,1.611-0.648c0.455-0.289,0.805-0.649,1.049-1.082
	c0.246-0.433,0.369-0.93,0.369-1.492c0-0.476-0.072-0.915-0.217-1.318C333.77,486.763,333.526,486.41,333.178,486.106z"/>
</svg>

