<?xml version="1.0" encoding="utf-8"?>
<!-- Generator: Adobe Illustrator 21.0.0, SVG Export Plug-In . SVG Version: 6.00 Build 0)  -->
<svg version="1.1" id="Layer_1" xmlns="http://www.w3.org/2000/svg" xmlns:xlink="http://www.w3.org/1999/xlink" x="0px" y="0px"
	 viewBox="0 0 800 500" style="enable-background:new 0 0 800 500;" xml:space="preserve">
<g id="XMLID_1484_">
	<g id="XMLID_345_">
		<polygon id="XMLID_372_" points="697.8,79.5 715.1,96.9 733,79 715.1,61.1 697.8,78.4 680.5,61.1 662.6,79 680.5,96.9 		"/>
		<polygon id="XMLID_371_" points="612.5,96.9 629.9,114.2 647.7,96.3 629.9,78.4 612.5,95.8 595.2,78.4 577.3,96.3 595.2,114.2 		
			"/>
		
			<rect id="XMLID_356_" x="470.5" y="255.1" transform="matrix(0.7071 -0.7071 0.7071 0.7071 -50.0247 425.364)" width="36" height="36"/>
		<path fill="#000000" id="XMLID_353_" d="M176.4,193.4l-50.9-63.8H82.4c-8.5,0-15.4,6.9-15.4,15.4v78.6c0,8.5,6.9,15.4,15.4,15.4H277v-20.1H176.4
			V193.4z M156.3,218.9H87.1v-69.1h28.7l40.4,50.7V218.9z"/>
		<path fill="#000000" id="XMLID_352_" d="M259.8,186.7h-45.6V91.9h-20.1v100.4c0,7.9,6.5,14.4,14.4,14.4h57c8,0,14.4-6.5,14.4-14.4V47h-20.1V186.7
			z"/>
		<path fill="#000000" id="XMLID_349_" d="M704.7,218.9h-43.9v-73.3c0-8.9-7.2-16.1-16.1-16.1h-77.1c-8.9,0-16.1,7.2-16.1,16.1v73.3H529V99.2h-20.1
			v119.6h-38.1V33.9h-20.1v184.7h-21.4c-16.9,0-32.8-6.6-44.8-18.7c-12-12-18.7-28-18.7-44.8V130h-20.1v25.2
			c0,46.1,37.5,83.6,83.6,83.6h25.2c1,0,2-0.1,3-0.3v0.5h253.4v-1.7h14.1V100.1h-20.1V218.9z M640.7,218.6h-69.1v-69.1h69.1V218.6z"
			/>
		<rect id="XMLID_348_" x="300.9" y="99.5" width="20.1" height="167.6"/>
		<path fill="#000000" id="XMLID_347_" d="M505.6,83.5c0.8,0,1.5-0.2,2.1-0.5l17.9-0.2c0.6,0.3,1.3,0.4,2.1,0.4c0.8,0,1.5-0.2,2.1-0.5l17.9-0.2
			c0.6,0.3,1.3,0.4,2.1,0.4c2.3,0,4.2-1.5,4.2-3.3l-0.3-31.7h-8.5l0.3,28l-13.6,0.1l-0.3-28.2h-8.5l0.3,28.3l-13.6,0.1l-0.3-28.4
			H501l0.3,32.2C501.3,82.1,503.3,83.5,505.6,83.5z"/>
		<path fill="#000000" id="XMLID_346_" d="M169.5,83.5c0.8,0,1.5-0.2,2.1-0.5l17.9-0.2c0.6,0.3,1.3,0.4,2.1,0.4c0.8,0,1.5-0.2,2.1-0.5l17.9-0.2
			c0.6,0.3,1.3,0.4,2.1,0.4c2.3,0,4.2-1.5,4.2-3.3l-0.3-31.7H209l0.3,28l-13.6,0.1l-0.3-28.2H187l0.3,28.3l-13.6,0.1l-0.3-28.4h-8.5
			l0.3,32.2C165.2,82.1,167.1,83.5,169.5,83.5z"/>
	</g>
	<path fill="#000000" id="XMLID_344_" d="M487.5,328.4c0,0.1,0.1,0.1,0.2,0.1c4.5,0,9,0,13.5,0c0.3,0,0.6-0.2,0.9-0.5c0.3-0.2,0.6-0.4,0.6-0.5
		c0.4-0.3,1.1-1,1.1-1.6c0-3.9,0-7.8,0-11.6c0-0.5-1,0.4-1.1,0.4c-0.4,0.4-1.1,1-1.1,1.6c0,3.3,0,6.5,0,9.8c-2.1,0-4.2,0-6.3,0
		c0.4-0.4,1-1,1-1.5c0-2.8,0-5.5,0-8.3c0-0.5-1,0.4-1.1,0.4c-0.4,0.3-1.1,1-1.1,1.6c0,2.6,0,5.1,0,7.7c-1.5,0-3,0-4.4,0
		c0,0,0,0-0.1,0c0-3.1,0-6.3,0-9.4c0-0.5-1,0.4-1.1,0.4c-0.4,0.4-1.1,1-1.1,1.6c0,3.2,0,6.3,0,9.5
		C487.3,328.4,487.4,328.5,487.5,328.4z"/>
	
		<rect id="XMLID_343_" x="512.3" y="338.3" transform="matrix(0.7071 -0.7072 0.7072 0.7071 -92.1341 468.6432)" width="14.5" height="14.5"/>
	<path fill="#000000" id="XMLID_340_" d="M462.8,371.4h163.6v-0.1h13.7c3.1,0,5.6-2.5,5.6-5.6v-17.1l-18.7-19.7H609c-3.1,0-5.6,2.5-5.6,5.6v29.9
		H590v-33.7h-7v33.7H462.8v-46.9h-7.1v56.3h7.1V371.4z M610.4,336h13.7l14.6,15.5v12.9h-28.4V336z"/>
	<polygon id="XMLID_339_" points="334.7,319.1 327.6,312 320.6,319.1 327.6,326.2 	"/>
	<path fill="#000000" id="XMLID_336_" d="M406,371.6h21.8l-13.2,11.9l4.7,5.2l23.5-21.2v-13.4l-19.9-25H406c-3.1,0-5.6,2.5-5.6,5.6v31.2
		C400.3,369,402.8,371.6,406,371.6z M407.4,336.1h12.1l16.3,20.4v7.8l-0.9,0.8v-0.6h-27.5V336.1z"/>
	<path fill="#000000" id="XMLID_333_" d="M388.6,329h-31.2c-3.1,0-5.6,2.5-5.6,5.6v29.9h-9.9v-33.7h-7v33.7h-14.7v-29.9c0-3.1-2.5-5.6-5.6-5.6
		h-58.2l19-22.6l-5.4-4.5l-32.5,38.6l5.4,4.5l7.5-9h62.7v28.4h-85.2v-29.8c0-3.1-2.5-5.6-5.6-5.6h-31.2c-3.1,0-5.6,2.5-5.6,5.6V387
		h7.1v-50.9h28.4v28.4h-6.5v0.1H202v7.1h172.9v-0.1h13.7c3.1,0,5.6-2.5,5.6-5.6v-31.2C394.3,331.5,391.7,329,388.6,329z
		 M387.2,364.4h-28.4v-28.4h28.4V364.4z"/>
	<g id="XMLID_291_">
		<path fill="#000000" id="XMLID_332_" d="M217.6,439.5h-7c-5.7,0-11-2.2-15.1-6.3c-4-4-6.3-9.4-6.3-15.1v-8.5h-7.1v8.5c0,15.6,12.7,28.4,28.4,28.4
			h8.5c3.1,0,5.6-2.5,5.6-5.6v-52.3h-7V439.5z"/>
		<path fill="#000000" id="XMLID_331_" d="M342.3,412.6v-14.2c0-2.8-2.3-5-5-5h-7.9h0c-0.5,0-5.1,0.1-9.8,2.8c-4.5,2.6-9.8,7.9-9.8,18.9v23.8h7.1
			v-23.8c0-6,2-10.2,6.1-12.6c3.1-1.8,6.3-2,6.6-2h5.8v12.2H342.3z"/>
		<path fill="#000000" id="XMLID_328_" d="M288.5,423.4l-18.7-19.7h-18.2c-3.1,0-5.6,2.5-5.6,5.6v29.9h-7.6v-50.8h-7.1v50.8h-0.2v7h111.1v-7h-53.8
			V423.4z M253.1,410.7h13.7l14.6,15.5V439h-28.4V410.7z"/>
		<path fill="#000000" id="XMLID_327_" d="M508.3,439.6h-24.8v-26.8h12.8v-7h-59.9v7h40.1V441c0,3.1,2.5,5.6,5.6,5.6h27.7c3.1,0,5.6-2.5,5.6-5.6
			v-54.2h-7V439.6z"/>
		<path fill="#000000" id="XMLID_324_" d="M640.9,405.3h-73.3l-0.2,0c-0.4,0-6.3,0.6-11.8,4.7v-9.1h-7v17.6c0,0.1-0.1,0.2-0.1,0.2l0.1,0.1v20.9H536
			v-54.2h-7.1v61.1h3.5v0.2h107v-0.1h1.5c2.8,0,5-2.3,5-5v-31.3C645.9,407.6,643.7,405.3,640.9,405.3z M555.6,420.3
			c1.6-2.7,4-4.8,7.1-6.3c2.5-1.2,4.7-1.5,5.2-1.6h70.9v27.2h-49.8v0.1h-33.5V420.3z"/>
		<path fill="#000000" id="XMLID_323_" d="M451.3,441.7v-3.3c0-9.5,7.8-17.3,17.3-17.3V414c-13.4,0-24.3,10.9-24.3,24.3v3.3
			c0,13.4,10.9,24.3,24.3,24.3h23.6v-7h-23.6C459.1,459,451.3,451.3,451.3,441.7z"/>
		<path fill="#000000" id="XMLID_320_" d="M413.5,393.6l-4.8-5.1l-24.4,22.9l-33.7-30.4l-4.7,5.2l33.3,30L347,446.2h76l-33.5-30.2L413.5,393.6z
			 M404.7,439.2h-39.8l19.5-18.3L404.7,439.2z"/>
		<rect id="XMLID_319_" x="422.1" y="396.7" width="7.1" height="41"/>
		<path fill="#000000" id="XMLID_294_" d="M380.9,398.2c-3.4,0-6.2-2.8-6.2-6.2v-1.2c0-3.4,2.8-6.2,6.2-6.2v-2.5c-4.8,0-8.7,3.9-8.7,8.7v1.2
			c0,2.4,1,4.6,2.6,6.2H370v2.4h9.5c0.4,0.1,0.9,0.1,1.4,0.1h7v-0.1v-2.4H380.9z"/>
		<rect id="XMLID_293_" x="251.9" y="391" width="34.5" height="3.8"/>
		<rect id="XMLID_292_" x="568.6" y="391" width="54.1" height="3.8"/>
	</g>
</g>
<path fill="#000000" d="M273.602,481.306c-0.578-0.576-1.301-1.03-2.174-1.362c-0.873-0.331-1.885-0.497-3.039-0.497
	c-0.663,0-1.463,0.079-2.4,0.238v-6.077h-1.535v17.711c0.706,0.202,1.402,0.354,2.087,0.454s1.301,0.151,1.849,0.151
	c1.153,0,2.166-0.162,3.039-0.486s1.596-0.764,2.174-1.319c0.576-0.555,1.006-1.211,1.287-1.968s0.42-1.561,0.42-2.411
	s-0.139-1.657-0.42-2.422C274.608,482.554,274.178,481.883,273.602,481.306z M272.391,489.167c-0.852,0.829-2.17,1.243-3.958,1.243
	c-0.39,0-0.805-0.032-1.244-0.097c-0.439-0.065-0.84-0.134-1.2-0.206v-8.845c0.447-0.115,0.887-0.194,1.319-0.237
	c0.433-0.044,0.808-0.065,1.125-0.065c0.894,0,1.668,0.112,2.325,0.335c0.656,0.224,1.199,0.545,1.633,0.963
	c0.432,0.418,0.752,0.919,0.961,1.503s0.314,1.243,0.314,1.979C273.667,487.195,273.241,488.338,272.391,489.167z M247.392,479.446
	c-0.62,0-1.297,0.079-2.033,0.238c-0.735,0.158-1.485,0.433-2.249,0.821l-0.065,1.73c0.548-0.303,0.973-0.52,1.276-0.649
	s0.624-0.237,0.962-0.324c0.338-0.086,0.677-0.158,1.016-0.216s0.667-0.087,0.984-0.087c1.139,0,1.982,0.249,2.53,0.746
	s0.822,1.33,0.822,2.498v0.13c-0.332-0.044-0.732-0.087-1.2-0.13c-0.469-0.043-0.876-0.065-1.222-0.065
	c-1.831,0-3.302,0.311-4.412,0.931c-1.11,0.619-1.665,1.644-1.665,3.07c0,0.707,0.155,1.305,0.465,1.795
	c0.31,0.49,0.713,0.88,1.211,1.168s1.067,0.497,1.708,0.627c0.641,0.13,1.308,0.194,2,0.194c0.807,0,1.6-0.072,2.378-0.216
	c0.779-0.145,1.536-0.368,2.271-0.671v-7.028c0-1.585-0.397-2.742-1.189-3.471C250.189,479.811,248.992,479.446,247.392,479.446z
	 M250.636,489.892c-0.375,0.144-0.858,0.267-1.449,0.367c-0.591,0.102-1.183,0.151-1.773,0.151c-0.505,0-0.984-0.035-1.438-0.108
	c-0.454-0.071-0.84-0.197-1.157-0.378c-0.317-0.18-0.57-0.414-0.757-0.703c-0.188-0.288-0.281-0.663-0.281-1.124
	c0-0.52,0.111-0.934,0.335-1.244c0.224-0.31,0.533-0.551,0.93-0.724c0.396-0.174,0.85-0.296,1.362-0.368
	c0.511-0.072,1.041-0.108,1.589-0.108c0.476,0,0.984,0.029,1.524,0.087c0.541,0.058,0.912,0.108,1.114,0.151V489.892z
	 M258.032,479.868c-0.649,0.122-1.276,0.263-1.881,0.422v11.418h1.535v-10.186c0.202-0.072,0.563-0.147,1.082-0.228
	c0.519-0.079,1.002-0.118,1.449-0.118h1.989v-1.492H260C259.336,479.685,258.681,479.746,258.032,479.868z M-77.92,487.667
	l241.145,0.656l0.663-0.433l-0.632-0.564L-77.92,487.667z M164.994,487.825l1.95,1.95l1.95-1.95l-1.95-1.95L164.994,487.825z
	 M169.559,487.825l3.057,3.057l3.057-3.057l-3.057-3.057L169.559,487.825z M212.359,489.286l-3.395-9.602h-1.514l-3.396,9.602
	l-2.984-9.602h-1.73l3.979,12.023h1.428l3.46-9.645l3.46,9.645h1.427l3.979-12.023h-1.73L212.359,489.286z M238.418,489.589
	c-0.317,0-0.591,0.115-0.822,0.346c-0.231,0.23-0.346,0.505-0.346,0.822c0,0.316,0.115,0.591,0.346,0.821
	c0.23,0.23,0.504,0.346,0.822,0.346c0.317,0,0.591-0.115,0.822-0.346c0.23-0.23,0.346-0.505,0.346-0.821
	c0-0.317-0.116-0.592-0.346-0.822C239.009,489.704,238.735,489.589,238.418,489.589z M193.243,489.286l-3.395-9.602h-1.514
	l-3.396,9.602l-2.984-9.602h-1.73l3.979,12.023h1.428l3.46-9.645l3.46,9.645h1.427l3.979-12.023h-1.73L193.243,489.286z
	 M231.476,489.286l-3.395-9.602h-1.514l-3.396,9.602l-2.984-9.602h-1.73l3.979,12.023h1.428l3.46-9.645l3.46,9.645h1.427
	l3.979-12.023h-1.73L231.476,489.286z M382.732,480.474c-0.426-0.396-0.938-0.667-1.535-0.812c-0.598-0.144-1.271-0.216-2.021-0.216
	c-0.664,0-1.393,0.09-2.184,0.271c-0.793,0.181-1.471,0.4-2.033,0.659c-0.346-0.331-0.818-0.569-1.416-0.714
	c-0.6-0.144-1.273-0.216-2.023-0.216c-0.635,0-1.268,0.058-1.902,0.173l-2.465,0.454v11.635h1.535v-10.38
	c0.447-0.102,0.883-0.188,1.309-0.26c0.424-0.072,0.896-0.108,1.416-0.108c0.605,0,1.125,0.058,1.557,0.173
	c0.434,0.116,0.789,0.321,1.07,0.616c0.281,0.296,0.494,0.711,0.639,1.244s0.217,1.24,0.217,2.119v6.596h1.535v-7.201
	c0-0.663-0.055-1.243-0.162-1.741c-0.109-0.497-0.213-0.861-0.314-1.092c0.086-0.043,0.281-0.119,0.584-0.228
	c0.303-0.107,0.602-0.197,0.898-0.27c0.295-0.072,0.586-0.126,0.875-0.162s0.547-0.055,0.779-0.055c0.59,0,1.102,0.058,1.535,0.173
	c0.432,0.116,0.781,0.317,1.049,0.605c0.266,0.289,0.471,0.703,0.615,1.244c0.145,0.54,0.217,1.251,0.217,2.13v6.596h1.535v-7.201
	c0-0.995-0.111-1.816-0.336-2.466C383.482,481.393,383.158,480.87,382.732,480.474z M280.1,474.581
	c-0.785,0.648-1.18,1.729-1.18,3.243v1.86h-2.551v1.492h2.551v10.531h1.537v-10.531h4.973v-1.492h-4.973v-1.471
	c0-0.635,0.045-1.149,0.141-1.546c0.094-0.396,0.24-0.707,0.443-0.931c0.201-0.223,0.475-0.385,0.82-0.486
	c0.346-0.101,0.779-0.151,1.299-0.151h2.422v-1.492h-2.271C281.956,473.607,280.885,473.932,280.1,474.581z M398.273,487.825
	l3.057,3.057l3.057-3.057l-3.057-3.057L398.273,487.825z M343.322,482.322c0.389-0.418,0.854-0.749,1.395-0.994
	s1.135-0.368,1.783-0.368c0.736,0,1.373,0.076,1.914,0.228s1.121,0.414,1.74,0.789l0.715-1.405c-0.707-0.39-1.393-0.674-2.055-0.854
	c-0.664-0.181-1.436-0.271-2.314-0.271c-0.85,0-1.639,0.155-2.367,0.465c-0.729,0.311-1.367,0.746-1.914,1.309
	c-0.549,0.563-0.98,1.222-1.297,1.979c-0.317,0.757-0.476,1.59-0.476,2.498s0.158,1.74,0.476,2.497
	c0.316,0.757,0.748,1.413,1.297,1.969c0.547,0.555,1.186,0.987,1.914,1.297c0.729,0.311,1.518,0.465,2.367,0.465
	c0.879,0,1.65-0.09,2.314-0.27c0.662-0.181,1.348-0.466,2.055-0.854l-0.715-1.406c-0.619,0.375-1.199,0.639-1.74,0.79
	s-1.178,0.227-1.914,0.227c-0.648,0-1.242-0.119-1.783-0.356c-0.541-0.238-1.006-0.565-1.395-0.984
	c-0.391-0.418-0.693-0.915-0.908-1.492c-0.217-0.576-0.324-1.203-0.324-1.881s0.107-1.305,0.324-1.882
	C342.628,483.238,342.931,482.741,343.322,482.322z M404.387,487.825l1.949,1.95l1.951-1.95l-1.951-1.95L404.387,487.825z
	 M410.701,487.326l-0.664,0.433l0.633,0.564l241.176-0.341L410.701,487.326z M362.611,481.295c-0.549-0.569-1.193-1.02-1.936-1.352
	c-0.742-0.331-1.547-0.497-2.412-0.497c-0.863,0-1.668,0.166-2.41,0.497c-0.742,0.332-1.389,0.782-1.936,1.352
	c-0.549,0.57-0.977,1.229-1.287,1.979c-0.311,0.749-0.465,1.557-0.465,2.422s0.154,1.672,0.465,2.422s0.738,1.409,1.287,1.979
	c0.547,0.569,1.193,1.017,1.936,1.341s1.547,0.486,2.41,0.486c0.865,0,1.67-0.162,2.412-0.486s1.387-0.771,1.936-1.341
	c0.547-0.569,0.977-1.229,1.287-1.979c0.309-0.75,0.465-1.557,0.465-2.422s-0.156-1.673-0.465-2.422
	C363.587,482.524,363.158,481.865,362.611,481.295z M362.394,487.523c-0.217,0.569-0.52,1.067-0.908,1.492
	c-0.389,0.426-0.857,0.765-1.406,1.017c-0.547,0.252-1.152,0.378-1.816,0.378c-0.662,0-1.268-0.126-1.816-0.378
	c-0.547-0.252-1.016-0.591-1.404-1.017c-0.391-0.425-0.693-0.923-0.908-1.492c-0.217-0.569-0.324-1.179-0.324-1.827
	c0-0.649,0.107-1.262,0.324-1.839c0.215-0.576,0.518-1.077,0.908-1.503c0.389-0.425,0.857-0.764,1.404-1.016
	c0.549-0.252,1.154-0.379,1.816-0.379c0.664,0,1.27,0.127,1.816,0.379c0.549,0.252,1.018,0.591,1.406,1.016
	c0.389,0.426,0.691,0.927,0.908,1.503c0.217,0.577,0.324,1.189,0.324,1.839C362.718,486.345,362.611,486.954,362.394,487.523z
	 M296.221,481.295c-0.547-0.569-1.191-1.02-1.936-1.352c-0.742-0.331-1.545-0.497-2.41-0.497s-1.67,0.166-2.412,0.497
	c-0.742,0.332-1.387,0.782-1.936,1.352c-0.547,0.57-0.977,1.229-1.285,1.979c-0.311,0.749-0.465,1.557-0.465,2.422
	s0.154,1.672,0.465,2.422c0.309,0.75,0.738,1.409,1.285,1.979c0.549,0.569,1.193,1.017,1.936,1.341s1.547,0.486,2.412,0.486
	s1.668-0.162,2.41-0.486c0.744-0.324,1.389-0.771,1.936-1.341c0.549-0.569,0.977-1.229,1.287-1.979s0.465-1.557,0.465-2.422
	s-0.154-1.673-0.465-2.422C297.198,482.524,296.77,481.865,296.221,481.295z M296.006,487.523c-0.217,0.569-0.52,1.067-0.908,1.492
	c-0.391,0.426-0.859,0.765-1.406,1.017c-0.549,0.252-1.154,0.378-1.816,0.378c-0.664,0-1.27-0.126-1.816-0.378
	c-0.549-0.252-1.018-0.591-1.406-1.017c-0.389-0.425-0.691-0.923-0.908-1.492s-0.324-1.179-0.324-1.827
	c0-0.649,0.107-1.262,0.324-1.839c0.217-0.576,0.52-1.077,0.908-1.503c0.389-0.425,0.857-0.764,1.406-1.016
	c0.547-0.252,1.152-0.379,1.816-0.379c0.662,0,1.268,0.127,1.816,0.379c0.547,0.252,1.016,0.591,1.406,1.016
	c0.389,0.426,0.691,0.927,0.908,1.503c0.215,0.577,0.324,1.189,0.324,1.839C296.331,486.345,296.221,486.954,296.006,487.523z
	 M309.381,480.463c-0.455-0.39-0.996-0.656-1.623-0.801c-0.627-0.144-1.309-0.216-2.043-0.216c-0.707,0-1.465,0.047-2.271,0.141
	s-1.701,0.234-2.682,0.422v11.699h1.535v-10.402c1.184-0.23,2.293-0.346,3.33-0.346c0.592,0,1.111,0.062,1.559,0.184
	c0.445,0.123,0.818,0.332,1.113,0.628c0.295,0.295,0.525,0.713,0.691,1.254s0.25,1.251,0.25,2.13v6.553h1.535v-7.201
	c0-0.995-0.119-1.82-0.357-2.477C310.18,481.375,309.834,480.852,309.381,480.463z M318.516,490.054
	c-0.346-0.108-0.619-0.277-0.82-0.509c-0.203-0.23-0.35-0.547-0.443-0.951c-0.096-0.403-0.141-0.922-0.141-1.557v-5.86h4.973v-1.492
	h-4.973v-4.347h-1.537v4.347h-2.551v1.492h2.551v6.466c0,0.764,0.109,1.405,0.326,1.925c0.215,0.519,0.525,0.937,0.93,1.254
	c0.402,0.317,0.867,0.544,1.395,0.682c0.525,0.137,1.105,0.205,1.74,0.205h2.271v-1.492h-2.422
	C319.295,490.216,318.862,490.162,318.516,490.054z M337.784,489.589c-0.316,0-0.59,0.115-0.82,0.346s-0.346,0.505-0.346,0.822
	c0,0.316,0.115,0.591,0.346,0.821s0.504,0.346,0.82,0.346c0.318,0,0.592-0.115,0.822-0.346s0.346-0.505,0.346-0.821
	c0-0.317-0.115-0.592-0.346-0.822S338.102,489.589,337.784,489.589z M333.178,486.106c-0.346-0.303-0.785-0.565-1.318-0.789
	c-0.533-0.223-1.182-0.422-1.947-0.595l-0.799-0.173c-1.053-0.216-1.781-0.461-2.184-0.735c-0.404-0.273-0.607-0.678-0.607-1.211
	c0-0.504,0.238-0.904,0.715-1.2c0.475-0.295,1.174-0.443,2.098-0.443c0.793,0,1.477,0.076,2.055,0.228
	c0.576,0.151,1.217,0.421,1.924,0.811l0.691-1.405c-1.412-0.765-2.969-1.146-4.67-1.146c-0.635,0-1.223,0.076-1.764,0.228
	c-0.539,0.151-1.008,0.364-1.404,0.638s-0.711,0.605-0.941,0.994c-0.23,0.39-0.346,0.815-0.346,1.276
	c0,0.462,0.072,0.88,0.217,1.254c0.143,0.375,0.381,0.707,0.713,0.995s0.758,0.537,1.275,0.746c0.52,0.209,1.146,0.4,1.883,0.573
	l0.908,0.194c1.008,0.217,1.729,0.49,2.162,0.822c0.432,0.331,0.648,0.771,0.648,1.318c0,0.39-0.086,0.707-0.26,0.952
	c-0.172,0.245-0.414,0.436-0.725,0.573c-0.311,0.137-0.678,0.237-1.102,0.303c-0.426,0.064-0.877,0.097-1.352,0.097
	c-0.592,0-1.223-0.09-1.893-0.271c-0.67-0.18-1.352-0.479-2.045-0.897l-0.734,1.471c0.779,0.433,1.539,0.742,2.281,0.93
	s1.539,0.281,2.391,0.281c0.748,0,1.434-0.072,2.053-0.216c0.621-0.145,1.158-0.36,1.611-0.648c0.455-0.289,0.805-0.649,1.049-1.082
	c0.246-0.433,0.369-0.93,0.369-1.492c0-0.476-0.072-0.915-0.217-1.318C333.77,486.763,333.526,486.41,333.178,486.106z"/>
</svg>

