<?xml version="1.0" encoding="utf-8"?>
<!-- Generator: Adobe Illustrator 23.0.0, SVG Export Plug-In . SVG Version: 6.00 Build 0)  -->
<svg version="1.1" id="Layer_1" xmlns="http://www.w3.org/2000/svg" xmlns:xlink="http://www.w3.org/1999/xlink" x="0px" y="0px"
	 viewBox="0 0 800 500" style="enable-background:new 0 0 800 500;" xml:space="preserve">
<g>
	<path fill="#000000" d="M407.34,64.82c0.33,2.75,0.78,5.52,2.23,7.92c1.11,1.83,2.98,3.06,4.92,3.85c3.05,1.24,6.48,1.8,9.68,2.53
		c3.31,0.75,6.68,1.32,9.88,2.44c5.5,1.93,9.9,4.31,10.78,8.69c1.12,5.57-3.02,16.58-3.02,16.58c0.44,0.59,6.27-11.02,5.84-17.47
		c-0.43-6.34-2.94-11.78-8.34-15.13c-2.49-1.54-5.31-2.5-8.13-3.22c-3.73-0.96-7.53-1.66-11.28-2.58c-2.79-0.69-5.91-1.26-8.15-3.2
		c-0.81-0.7-1.42-1.6-1.91-2.54c-0.26-0.5-0.42-1.04-0.57-1.58c-0.28-0.96,0.06,0.42-0.14-0.6c0-0.02-0.18-1.2-0.1-0.51
		c-0.05-0.43-0.54-3.67-1.21-1.76C407.13,60.22,407.09,62.76,407.34,64.82L407.34,64.82z"/>
	<path fill="#000000" d="M449.25,110.04c-3.38,9.84-12.92,15.33-21.83,19.49c-9.16,4.28-15.52,12.38-18.04,22.13c-0.4,1.53-0.75,3.34-0.49,4.92
		c0.25,1.49,1.03-0.81,1.12-1.14c0.43-1.68,1.21-3.59,2.13-5.35c1.09-2.09,2.46-4.01,4.01-5.79c1.66-1.91,3.58-3.59,5.65-5.04
		c2.19-1.53,4.63-2.58,7.02-3.75c4.38-2.14,8.65-4.58,12.33-7.8c3.84-3.36,6.65-7.64,8.31-12.46c0.54-1.58,0.82-3.38,0.75-5.05
		c-0.01-0.15,0-1.07-0.32-1.12C449.56,109.01,449.3,109.9,449.25,110.04L449.25,110.04z"/>
	<path fill="#000000" d="M406.42,129.18c-0.01-0.14-0.05-0.84-0.24-1.22c-0.06,0.16-0.12,0.33-0.16,0.47c0.08-0.19,0.08-0.17,0,0.06
		c0,0.01-0.01,0.02-0.02,0.05c-0.02,0.05-0.04,0.11-0.06,0.17c0.01-0.03,0.02-0.07,0.03-0.11c-0.03,0.06-0.06,0.1,0-0.05
		c-0.02,0.03-0.04,0.06-0.08,0.11c-0.19,0.3-0.41,0.58-0.64,0.84c-0.11,0.13-0.23,0.26-0.35,0.38c0,0,0,0.01,0,0.01
		c-0.52,0.55-1.1,1.04-1.69,1.51c-1.66,1.32-3.53,2.36-5.46,3.23c-2.87,1.29-7.76,3.11-10.59,0.78c-0.47-0.39-1.31,4.51-1.33,4.72
		c-0.1,1.16-0.57,4,0.49,4.88c0.65,0.53,1.4,0.85,2.2,1.01c-1.68,1.04-3.39,2.02-5.1,2.98l-0.69,0.39
		c-0.88,0.49-1.77,0.97-2.65,1.45c-4.63,2.48-9.34,4.8-14.03,7.17c-5.44,2.74-11.12,5.41-15.9,9.23c-4.8,3.83-8.2,9.03-9.63,15.01
		c-1.68,7.05-1.78,14.59,0.05,21.63c1.01,3.87,3.44,7.25,5.99,10.26c3.37,3.99,7.27,7.54,11.24,10.91
		c6.6,5.6,13.56,10.77,20.7,15.68c0.23-3,0.98-6,2.18-8.8c-3.91-2.66-7.77-5.39-11.57-8.21c-8.47-6.29-17.33-13.09-23.56-21.72
		c-1.12-1.55-2.12-3.2-2.87-4.96c-0.71-1.66-1.15-4.2-1.36-6.22c-0.01-0.07-0.05-0.62-0.06-0.67c0,0,0,0,0,0
		c-0.01-0.22-0.02-0.45-0.02-0.67c0-0.03,0-0.05,0-0.07c-0.02,0.82-0.02-0.65-0.01-0.18c0.01-0.03,0.01-0.06,0.01-0.09v-0.01
		c0-0.01,0-0.01,0-0.02c0,0,0-0.01,0-0.01v0c0.01-0.1,0.01-0.18,0.02-0.25c0,0.06-0.01,0.11-0.01,0.18c0,0,0-0.01,0-0.01
		c0,0,0-0.01,0-0.01c0.02-0.13,0.04-0.22,0.05-0.28c0-0.01,0-0.02,0.01-0.03c0-0.01,0-0.01,0-0.02c0,0,0-0.01,0-0.01c0,0,0,0,0,0
		c0,0,0-0.01,0-0.01c0.02-0.07,0.03-0.12,0.04-0.14c0.08-0.31,0.17-0.62,0.26-0.93c0.09-0.31,0.29-0.82,0.53-1.41
		c0.25-0.61,0.55-1.21,0.85-1.79c0.66-1.27,1.53-2.45,2.44-3.56c4.04-4.99,9.74-8.05,15.34-10.97c5.45-2.84,10.99-5.51,16.44-8.36
		c1.68-0.88,3.35-1.77,5.02-2.69c1.24-0.68,2.46-1.38,3.68-2.1c3.36-1.99,6.63-4.14,9.68-6.57c3.88-3.08,7.41-6.8,9.3-11.39
		c0.37-0.89,0.68-1.82,0.91-2.78C406.36,133.78,406.65,131.44,406.42,129.18z M341.3,188.81c0.01-0.04,0.01-0.08,0.01-0.11
		C341.31,188.73,341.3,188.77,341.3,188.81z"/>
	<path fill="#000000" d="M405.93,128.74c0.01-0.03,0.02-0.08,0.04-0.14c-0.03,0.06-0.06,0.1,0-0.05c0.01-0.02,0.02-0.05,0.03-0.08
		c0-0.01,0.01-0.03,0.02-0.04l0,0c0.08-0.19,0.08-0.17,0,0.06c-0.01,0.02-0.01,0.03-0.02,0.05
		C405.98,128.6,405.96,128.67,405.93,128.74z"/>
	<path fill="#000000" d="M342.34,190.98c0,0.08,0.01,0.16,0.01,0.25C342.34,191.07,342.34,191,342.34,190.98z"/>
	<path fill="#000000" d="M342.41,189.49c0.02-0.07,0.03-0.12,0.04-0.14c0,0,0,0,0,0c0,0,0,0,0,0.01c-0.01,0.07-0.04,0.22-0.08,0.36
		c0,0.02-0.01,0.04-0.01,0.06v0.01c0,0,0,0.01,0,0.01c-0.01,0.05-0.02,0.1-0.02,0.15v0.01c0,0,0,0.01,0,0.01c0,0,0,0.01,0,0.01v0.01
		c0,0.01,0,0.01,0,0.02c0,0.06-0.01,0.12-0.01,0.16c0,0.03,0,0.05,0,0.07v0.02c-0.02,0.82-0.02-0.65-0.01-0.18
		c0.01-0.03,0.01-0.06,0.01-0.09v-0.01c0-0.01,0-0.01,0-0.02c0,0.01-0.01,0.02-0.01,0.02c0-0.01,0-0.02,0.01-0.03v0
		c0.01-0.1,0.01-0.18,0.02-0.25c0,0.06-0.01,0.13-0.01,0.2c0-0.01,0-0.01,0-0.02v-0.01c0,0,0-0.01,0-0.01c0,0,0,0,0,0
		c0.02-0.13,0.04-0.22,0.05-0.28c0-0.01,0-0.02,0.01-0.03c0-0.01,0-0.01,0-0.02c0,0,0-0.01,0-0.01c0,0,0,0,0,0
		C342.41,189.5,342.41,189.49,342.41,189.49z"/>
	<path fill="#000000" d="M405.88,131.02c-0.01,0.02-0.01,0.04-0.02,0.05c0-0.01,0.01-0.02,0.01-0.03C405.87,131.04,405.87,131.03,405.88,131.02z"/>
	<path fill="#000000" d="M405.92,130.92c-0.01,0.04-0.02,0.07-0.04,0.09c0,0,0.01-0.01,0-0.01C405.9,130.98,405.91,130.95,405.92,130.92z"/>
	<path fill="#000000" d="M383.43,149.01l-0.69,0.39c-0.88,0.49-1.77,0.97-2.65,1.45c-0.06-0.24-0.12-0.48-0.17-0.72
		c-1.24-5.16-2.1-10.41-3.44-15.55c-0.18-0.69-0.37-1.38-0.57-2.07c-0.65-2.23-1.45-4.82-2.68-7.09c-1.17-2.16-2.74-4.04-4.94-5.02
		c-1.09-0.49-0.57-4.05-0.49-4.88c0.02-0.28,0.59-5.05,1.33-4.72c4.21,1.88,6.18,6.7,7.57,10.79c0.36,1.07,0.69,2.14,1,3.23
		c0.83,2.94,1.48,5.93,2.1,8.92c0.3,1.44,0.59,2.87,0.9,4.3C381.47,141.72,382.38,145.39,383.43,149.01z"/>
	<path fill="#000000" d="M460.2,153.53c-2.77,0.36-5.21,1.98-7.37,3.66c-2.47,1.92-4.67,4.18-6.87,6.4c-0.03-0.27-0.06-0.54-0.08-0.8
		c-0.26-2.93-0.61-6.12-1.99-8.75c-1.29-2.47-4.03-3.24-6.62-2.97c-4.63,0.49-9.22,3.4-13,5.99c-3.74,2.55-7.86,5.79-9.06,10.37
		c-0.83,3.14-1.4,7.18-0.15,10.3c0.61,1.54,2.45,2.46,3.9,3.01c2.73,1.04,5.82,0.95,8.8,0.41c-1.34,0.99-2.76,1.86-4.3,2.58
		c-4.87,2.29-11.14,3.05-16.32,1.47c-4.32-1.31-7.75-4.51-10.52-7.95c-3.22-4.01-5.65-8.62-7.75-13.29
		c-1.06-2.37-2.03-4.79-2.92-7.24c-1.21,0.72-2.44,1.42-3.68,2.1c1.78,5.9,3.95,11.69,6.64,17.21c3.87,7.93,9.91,17.55,19.34,19.24
		c5.61,1.01,11.7-0.26,16.59-3.1c4.35-2.53,7.76-6.21,11.15-9.87c2.68-2.89,5.62-5.49,8.44-8.22c0.04,0.37,0.09,0.75,0.14,1.12
		c0.7,4.83,1.66,9.62,2.1,14.49c0.02,0.2,0.08,1.42,0.52,1.46c0.44,0.04,0.71-1.16,0.77-1.35c0.61-2.15,0.79-4.56,0.59-6.79
		c-0.33-3.63-0.89-7.23-1.44-10.83c4.26-2.93,8.51-5.91,12.51-9.19C460.71,162.07,461.21,153.39,460.2,153.53z M425.96,171.81
		c-2.54,0.2-5.1-0.09-7.39-1.22c2.33-2.4,5.31-4.34,8.06-5.98c4.45-2.66,14.24-7.58,16.56,0.09c0.09,0.3,0.17,0.61,0.25,0.91
		c-0.2,0.13-0.4,0.26-0.6,0.4C437.97,169.26,431.79,171.37,425.96,171.81z"/>
	<path fill="#000000" d="M379.87,169.68c-1.11,2.87-4.21,0.91-6.16,2.33c-1.37,1-1.62,3.64-1.84,5.13c-0.32,2.14-0.37,4.37-0.13,6.53
		c0.15,1.36,0.4,2.87,1.88,3.32c1.31,0.4,2.96-0.27,4.22-0.61c1.25-0.34,2.43-0.74,3.53-1.44c1.48-0.93,2.61-2.41,3.67-3.78
		c0.07-2.09,0.15-4.18,0.22-6.26c-1.49,2.2-3.28,4.18-4.75,6.4c-2.22,3.34-3.22,6.88-2.97,10.92c0.07,1.16,0.57,1.13,0.87,0.08
		c0.42-1.47,0.49-3.05,0.4-4.57c-0.03,0.79-0.06,1.59-0.09,2.38c-0.19,0.84-0.22,1.03-0.09,0.55c-0.07,0.24,0.21-0.52,0.17-0.43
		c0.2-0.48,0.45-0.95,0.71-1.4c0.6-1.05,1.3-2.04,2.01-3.01c1.14-1.57,2.44-3.04,3.53-4.65c0.71-1.04,0.73-2.73,0.78-3.94
		c0-0.11-0.1-2.92-0.56-2.32c-1.62,2.11-3.25,3.9-5.84,4.72c-1.59,0.5-5.16,2-6.28,0.08c-0.09-0.16-0.1-0.35-0.13-0.53
		c0-0.02-0.06-0.77-0.04-0.33c-0.05-1.02,0.01-0.11-0.11,0.38c0.24-0.93,1.04-1.21,1.89-1.27c1-0.07,1.98,0.06,2.97-0.21
		c1.19-0.32,1.87-1.34,2.29-2.42c0.53-1.36,0.64-2.96,0.61-4.41C380.6,170.64,380.36,168.4,379.87,169.68L379.87,169.68z"/>
	<path fill="#000000" d="M434.25,262.49c-0.27,2.1-0.67,4.5-1.77,6.36c-1.02,1.73-0.9-1.5-0.84-1.96c0.59-4.52,0.2-9.73-0.97-14.47
		c-1.84-7.46-5.12-14.55-9.53-20.85c-1.17-1.68-2.43-3.31-3.76-4.86c-2.32-2.73-4.87-5.27-7.61-7.56
		c-4.94-4.13-10.45-7.63-15.15-12.06c-1.86-1.76-3.7-3.71-4.88-6.01c-1.23-2.39-1.67-5.01-1.53-7.68c0.12-2.24,0.6-4.58,1.5-6.64
		c0.08-0.18,0.51-1.33,0.94-1.23c0.43,0.1,0.33,1.32,0.32,1.52c-0.03,0.59-0.07,1.21,0.17,2.17c0.21,0.83,0.48,1.63,0.86,2.4
		c0.85,1.73,1.99,3.3,3.33,4.68c4.36,4.52,9.74,7.95,14.62,11.87c4.69,3.77,8.95,7.96,12.52,12.8c0.26,0.35,0.52,0.71,0.77,1.07
		c0.82,1.17,1.6,2.35,2.34,3.57C432.36,236.63,435.94,249.48,434.25,262.49z"/>
	<path fill="#000000" d="M416.85,227.24c1.33,1.56,2.58,3.18,3.76,4.86c-2.16,2.77-4.6,5.74-8.03,6.66c-2.41,0.64-4.78-0.42-6.3-2.35
		c-1.4-1.79-1.97-4.07-3.35-5.87c-1.73-2.24-4.73-2.42-7.34-1.85c-3.36,0.73-6.29,2.62-8.67,5.06c-0.57,0.59-1.11,1.2-1.62,1.83
		c-1.3,1.6-2.42,3.36-3.3,5.23c0.09,0.09,0.18,0.17,0.27,0.24c-0.22,0.39-0.47,1.37-0.67,2.32c-0.24,1.09-0.41,2.15-0.42,2.24
		c-0.1,1.16-0.57,4,0.49,4.88c0.65,0.53,1.4,0.85,2.21,1.01c0,0,0.76,0,0.75,0c-3.55,0-5.16-3.18-5.34-6.3
		c-0.06-1.12-0.05-2.25,0.04-3.38c0.23-3,0.98-6,2.18-8.8c1.31-3.09,3.17-5.93,5.46-8.29c2.29-2.35,5.12-4.46,8.32-5.36
		c2.65-0.75,5.92-1,8.09,1.01c3.04,2.81,3.63,9.9,9.25,8.95C414.32,229.05,415.54,228.38,416.85,227.24z"/>
	<path fill="#000000" d="M443.96,207.45c-0.02,0.24-0.69,5.09-1.33,4.72c-2.76-1.59-5.64,0.38-7.65,2.27c-2.69,2.54-4.89,5.56-6.99,8.6
		c-0.53,0.77-1.06,1.53-1.6,2.29c-0.74-1.21-1.53-2.4-2.34-3.57c-0.25-0.36-0.51-0.72-0.77-1.07c0.67-0.87,1.32-1.76,1.98-2.63
		c2.63-3.48,4.89-7.23,7.77-10.53c2.31-2.64,6.55-7.19,10.45-4.95C444.56,203.2,444.05,206.5,443.96,207.45z"/>
	<path fill="#000000" d="M452.94,213.99c-0.96,1.96-3.06,2.98-5.18,2.49c-0.87-0.2-1.57-0.7-2.07-1.43c-0.13-0.19-0.22-0.4-0.31-0.61
		c0.5,1.16-1.79,10.89-0.36,5.18c-0.11,0.45,0.26-0.58,0.24-0.53c0.16-0.32,0.43-0.61,0.66-0.87c1.65-1.88,4.4-1.3,6.37-0.35
		c2.07,0.99,3.97,2.71,5.04,4.75c0.12,0.24,0.23,0.48,0.33,0.73c0.06,0.14,0.11,0.28,0.16,0.42c-0.19-0.5,0.01,0.03,0.03,0.11
		c0.25,0.79,0.43,1.59,0.57,2.4c0.13,0.73-0.09-0.66,0.01,0.1c0.03,0.23,0.06,0.46,0.08,0.68c0.02,0.24,0.04,0.48,0.06,0.71
		c0.07,0.87-0.04-0.88,0,0.02c0.01,0.26,0.01,0.52,0.02,0.78c0.01,0.97,0.02-1.06,0-0.06c-0.01,0.28-0.02,0.57-0.04,0.85
		c0.08-1.58,0-0.14-0.04,0.2c0.21-2.16-0.3,1.79-0.01,0.1c-0.06,0.33-0.12,0.66-0.19,0.99c-0.02,0.07-0.26,1.18-0.07,0.4
		c-0.35,1.47-0.8,2.91-1.33,4.32c-1.33,3.55-3.14,6.9-5.22,10.06c-5.77,8.8-14.01,15.71-23.62,19.98
		c-6.62,2.95-22.42,7.89-29.77,7.65l0.8,1.45c6.82,1.52,25.02,3.24,34.95-3.07c11.81-7.5,20.67-18.65,24.51-32.1
		c1.78-6.25,2.56-13.16,1.74-19.63c-0.24-1.87-0.63-3.67-1.31-5.43c-0.71-1.85-2.08-3.27-3.58-4.52c-1.8-1.48-4.22-2.69-6.6-2.29
		c-3.13,0.52-4.34,4.14-4.86,6.81c-0.51,2.6-0.82,5.57-0.25,8.19c0.25,1.13,0.72,2.1,1.63,2.82c1.68,1.33,3.76,1.07,5.49-0.01
		c1.08-0.67,1.75-1.81,2.29-2.92c0.91-1.86,0.95-4.51,0.9-6.54C454.02,215.29,453.81,212.21,452.94,213.99L452.94,213.99z"/>
	<path fill="#000000" d="M382.22,240.63c-0.07-0.06-0.15,0-0.24,0.16c0.43,0.34,0.94,0.58,1.45,0.7c0.39,0.09,0.78,0.15,1.17,0.18
		C383.73,241.52,382.91,241.2,382.22,240.63z"/>
	<path fill="#000000" d="M373.56,345.93c0-0.01,0-0.02,0-0.04c-0.45-0.3-0.89-0.59-1.34-0.89C372.67,345.32,373.12,345.63,373.56,345.93z"/>
	<path fill="#000000" d="M410.89,374.09c-7.64-15.8-21.12-27.43-35.43-37.05c-0.75-0.5-1.51-1-2.26-1.5c-0.92,2.76-1.91,5.5-3.07,8.16
		c0.86,0.61,1.73,1.22,2.61,1.83c0.01,0.01,0.02,0.01,0.03,0.02c0.45,0.3,0.89,0.59,1.34,0.89c13.39,8.92,26.05,18.87,34.23,33.01
		c2.47,4.27,4.41,8.82,5.84,13.54c0.65,2.15,1.16,4.37,1.6,6.87c0,0.01,0,0.01,0,0.02c0.02,0.13,0.09,0.58,0.1,0.65
		c0.05,0.34,0.1,0.68,0.14,1.02c0.07,0.51,0.13,1.03,0.18,1.54c0,0,0,0.01,0,0.02v0.01c0,0,0,0,0,0.01
		c0.01,0.13,0.05,0.58,0.06,0.69c0.03,0.35,0.05,0.7,0.08,1.06c0.01,0.16,0.02,0.32,0.03,0.48c-0.01,0,0.04,0.88,0.04,1.08v0.03
		c0.71,8.64-0.18,17.33-2.19,25.86c-1.72,7.29-3.71,14.91-7.04,21.54c0.07,0.4,0.1,1.61,0.38,0.98
		c6.36-14.05,10.56-29.05,10.74-44.56C418.47,397.75,416.36,385.41,410.89,374.09z M340.61,307.21c-1.12-1.55-2.12-3.2-2.87-4.96
		c-0.71-1.67-1.15-4.2-1.35-6.22c-0.01-0.07-0.05-0.62-0.06-0.67c-0.01-0.22-0.02-0.44-0.02-0.67c0-0.02,0-0.05,0-0.07
		c-0.02,0.82-0.03-0.65-0.01-0.18c0.01-0.03,0.01-0.06,0.01-0.09v-0.01c0-0.01,0-0.02,0-0.02c0,0,0-0.01,0-0.01v0
		c0-0.1,0.01-0.18,0.02-0.25c-0.01,0.06-0.01,0.12-0.01,0.17c0,0,0,0,0,0v-0.01c0.02-0.13,0.04-0.22,0.05-0.28
		c0-0.01,0-0.02,0.01-0.02v-0.02c0,0,0.01,0,0.01,0s0,0,0-0.01c0,0,0-0.01,0-0.01c0.02-0.07,0.03-0.11,0.04-0.14
		c0.08-0.31,0.17-0.62,0.27-0.93c0.09-0.31,0.29-0.82,0.53-1.41c0.25-0.61,0.55-1.21,0.85-1.79c0.66-1.28,1.53-2.45,2.44-3.57
		c3.28-4.05,7.66-6.83,12.19-9.3c1.05-0.57,2.1-1.12,3.15-1.67c3.66-1.9,7.36-3.73,11.04-5.59c1.81-0.91,3.61-1.83,5.4-2.76
		c6.37-3.33,12.73-6.88,18.38-11.37c0.63-0.5,1.24-1.01,1.85-1.54c1.61-1.42,3.12-2.97,4.42-4.67c0.16-0.21,0.32-0.43,0.48-0.65
		c0.85-1.17,1.59-2.41,2.2-3.72c0.13-0.26,0.24-0.53,0.36-0.81c0.29-0.71,0.55-1.44,0.76-2.19c0.06-0.2,0.11-0.39,0.16-0.59
		c0.53-2.19,0.82-4.53,0.59-6.78c-0.01-0.14-0.05-0.84-0.24-1.22c-0.06,0.15-0.11,0.31-0.15,0.45c0.01-0.03,0.02-0.05,0.03-0.07
		c0.01-0.01,0.01-0.01,0.01-0.01c0-0.01,0.01-0.02,0.01-0.02c0,0.01-0.02,0.07-0.06,0.18c0,0.01-0.01,0.03-0.01,0.05
		c-0.02,0.06-0.05,0.12-0.07,0.2c0.01-0.02,0.02-0.08,0.04-0.14c-0.04,0.06-0.07,0.1,0-0.05c-0.02,0.03-0.04,0.06-0.07,0.11
		c-0.19,0.3-0.41,0.58-0.65,0.84c-0.11,0.13-0.22,0.26-0.35,0.39v0c-0.52,0.55-1.1,1.04-1.69,1.5c-1.66,1.32-3.53,2.36-5.46,3.23
		c-0.43,0.2-0.92,0.41-1.43,0.61c-0.39,0.15-0.8,0.31-1.22,0.45c-1.78,0.61-3.79,1.04-5.54,0.76c-0.39-0.03-0.78-0.09-1.17-0.18
		c-0.51-0.12-1.02-0.36-1.45-0.7c-0.22,0.39-0.47,1.37-0.67,2.32c-0.02,0.08-0.03,0.15-0.05,0.22c-0.21,1.01-0.37,1.93-0.38,2.03
		c-0.1,1.16-0.57,4,0.5,4.88c0.65,0.53,1.39,0.85,2.2,1.01c0,0-0.01,0.01-0.01,0.01c-1.9,1.17-3.84,2.28-5.78,3.36
		c-5.47,3.04-11.1,5.8-16.69,8.61c-2.53,1.28-5.12,2.54-7.64,3.91c-2.89,1.57-5.7,3.28-8.26,5.32c-0.08,0.07-0.17,0.13-0.24,0.2
		c-4.67,3.81-7.98,8.94-9.38,14.82c-1.68,7.05-1.78,14.59,0.05,21.63c1.01,3.87,3.44,7.25,5.99,10.26
		c3.37,3.99,7.27,7.54,11.24,10.9c4.15,3.51,8.16,6.59,12.55,9.81c1.47-2.43,2.69-4.97,3.76-7.58c-1.77-1.25-3.25-2.26-5-3.55
		C355.7,322.64,346.84,315.83,340.61,307.21z M336.36,293.91c0,0.04-0.01,0.07-0.01,0.11C336.36,293.99,336.36,293.95,336.36,293.91
		z"/>
	<path fill="#000000" d="M401.14,233.52c0,0.01-0.02,0.07-0.06,0.18c0,0.02-0.01,0.03-0.01,0.05c-0.02,0.06-0.05,0.12-0.07,0.2
		c0.01-0.02,0.02-0.08,0.04-0.14c-0.04,0.06-0.07,0.1,0-0.05c0.01-0.02,0.02-0.05,0.03-0.08c0.01-0.01,0.01-0.02,0.02-0.04
		c0.01-0.01,0.01-0.02,0.01-0.03c0.01-0.03,0.02-0.05,0.03-0.07c0.01-0.01,0.01-0.01,0.01-0.01
		C401.13,233.53,401.13,233.53,401.14,233.52z"/>
	<g>
		<g>
			<path fill="#000000" d="M475.87,262.84c-5.38-5.17-13.71,1.28-18.03,4.81c-7.71,6.31-14.29,14.15-20.19,22.14c-2.23,3.03-4.41,6.14-6.25,9.42
				c-1.13,2.01-8.41,13.86-11.51,9.21c-0.62-0.93,0.11-1.33-0.29,1.24c0.04-0.24,0.18-0.49,0.28-0.7c0.27-0.55,0.67-1.03,1.07-1.48
				c1.02-1.14,2.35-1.98,3.7-2.67c2.15-1.09,4.57-1.45,6.91-1.88c5.21-0.97,10.45-1.78,15.62-2.93c4.85-1.09,9.77-2.44,14.16-4.83
				c3.45-1.88,6.53-4.65,7.46-8.61c0.25-1.07,0.26-2.21,0.12-3.3c-0.02-0.18-0.41-1.85-0.64-0.86c-1,4.26-4.8,6.93-8.52,8.73
				c-4.78,2.31-10.08,3.54-15.25,4.61c-5.03,1.03-10.12,1.77-15.16,2.79c-2.51,0.5-4.86,1.25-6.95,2.79
				c-2.53,1.85-3.65,4.07-3.67,7.21c-0.01,1.93,0.33,5.78,3.03,5.7c2.42-0.07,4.73-3,6.11-4.66c2.92-3.52,4.93-7.74,7.51-11.51
				c5.55-8.09,11.92-15.79,19.07-22.51c3.54-3.32,7.41-6.58,11.87-8.57c3.01-1.34,6.76-1.98,9.36,0.52
				c0.42,0.41,0.53-1.55,0.54-1.69C476.25,265.13,476.42,263.37,475.87,262.84L475.87,262.84z"/>
		</g>
		<g>
			<path fill="#000000" d="M472.65,286.76c-4.96,0.02-9.34,2.69-13.1,5.69c-4.59,3.67-8.46,8.22-12.13,12.78c-3.54,4.4-6.84,8.98-10.38,13.37
				c-3.59,4.45-7.9,8.8-13.68,10.08c-2.14,0.47-4.36,0.36-6.5-0.02c-1.8-0.31-3.86-0.73-5.34-1.88c-2.33-1.8-3.52-4.75-4.35-7.47
				c-0.27-0.87-0.26-0.88-0.48-1.89c-0.09-0.4-0.17-0.81-0.25-1.21c-0.04-0.2-0.08-0.41-0.11-0.61c-0.19-1.03,0.11,0.78-0.05-0.26
				c-0.14-0.93-0.25-1.87-0.35-2.8c0.13,1.28-0.01-0.15-0.02-0.4c-0.04-0.51-0.07-1.01-0.09-1.52c-0.04-0.89,0.03,1.18,0-0.21
				c-0.01-0.39-0.01-0.77-0.02-1.16c-0.01-1.37-0.02,0.74,0-0.11c0.01-0.44,0.02-0.88,0.05-1.33c0.06-1.23-0.06,0.67,0-0.09
				c0.03-0.38,0.07-0.77,0.11-1.15c0.11-1.05-0.09,0.56,0.01-0.07c0.04-0.31,0.1-0.62,0.16-0.93c0.42-2.17,0.35-4.65-0.1-6.81
				c-0.04-0.19-0.22-1.41-0.67-1.4c-0.45,0.01-0.59,1.23-0.63,1.42c-1.05,5.38-0.94,11.12-0.5,16.56
				c0.46,5.69,1.35,11.56,3.89,16.73c0.9,1.84,2.13,3.41,3.82,4.57c2.33,1.59,5.88,1.98,8.63,1.99c6.13,0.01,11.44-4.17,15.28-8.58
				c5.84-6.7,10.73-14.16,16.63-20.82c5.13-5.79,11.97-12.79,20.3-12.83C474.12,296.38,474.04,286.75,472.65,286.76L472.65,286.76z"
				/>
		</g>
	</g>
	<g>
		<path fill="#000000" d="M406.14,305.84c-0.68,3.42-2.19,6.21-5.19,8.1c-2.68,1.7-5.8,2.56-8.83,3.4c-4.34,1.21-9.15,2.33-12.75,5.2
			c-1.88,1.5-3.43,3.39-4.41,5.59c-0.54,1.22-0.9,2.55-1.31,3.82c-0.32,1.02-0.66,2.04-1,3.05c-0.92,2.76-1.91,5.5-3.07,8.16
			c-1,2.29-2.12,4.52-3.43,6.65c-4.02,6.53-9.85,11.93-17.21,14.4c-1.69,0.57-3.5,0.82-5.37,0.82c-10.26,0-22.46-7.62-28.36-13.06
			c7.8,3.95,16.71,5.23,25.29,4.53c8.34-0.67,15.91-4.47,21.36-10.88c1.45-1.7,2.7-3.47,3.81-5.3c1.47-2.43,2.69-4.97,3.76-7.58
			c0.64-1.58,1.23-3.19,1.79-4.82c0.87-2.55,1.55-5.2,2.55-7.7c1.87-4.71,5.35-7.91,9.99-9.86c4.24-1.78,8.79-2.56,13.09-4.15
			c1.84-0.68,3.74-1.5,5.21-2.84c0.73-0.67,1.4-1.42,1.89-2.28c0.21-0.37,0.4-0.73,0.51-1.04c0.09-0.24,0.17-0.48,0.24-0.73
			c0.02-0.06,0.03-0.11,0.05-0.15c-0.08,0.42,0.04-0.07,0.04-0.12c0,0-0.01,0.02-0.03,0.09c0-0.03,0.01-0.07,0.02-0.11
			c0.04-0.19,0.18-1.41,0.63-1.42c0.44-0.01,0.63,1.21,0.67,1.4C406.49,301.18,406.57,303.68,406.14,305.84z"/>
		<path fill="#000000" d="M404.77,299.06c0,0.05-0.12,0.53-0.04,0.12c0-0.01,0-0.02,0.01-0.02C404.75,299.08,404.77,299.05,404.77,299.06z"/>
	</g>
	<path fill="#000000" d="M415.97,202.96c-0.26,1.57-0.64,3.35,0.62,4.55c0.77,0.74,1.93,1.12,2.92,1.48c1.2,0.44,2.42,0.81,3.6,1.29
		c0.77,0.31,1.9,0.72,2.17,1.59c0.17,0.52,0.61-0.14,0.69-0.27c0.42-0.71,0.68-1.55,0.91-2.34c0.41-1.45,1.09-3.59,0.6-5.1
		c-0.55-1.72-3.35-2.31-4.82-2.81c-1.03-0.35-2.07-0.7-3.05-1.18c-0.42-0.2-0.81-0.45-1.16-0.75c-0.85-0.73,0.02-1.35-0.49,1.73
		c0.02-0.15,0.42-3.7-0.3-3.04c-0.45,0.41-0.69,1.21-0.88,1.75C416.41,200.86,416.14,201.91,415.97,202.96L415.97,202.96z"/>
	<path fill="#000000" d="M416.85,309.47c-1.77,14.95-7.37,29-14.95,41.92l0.46-2.35c11.65-23.15,14.49-39.57,12.27-56.68
		c-0.62-4.75-2.31-9.3-4.25-13.67c-4.06-9.13-9.96-17-16.79-24.08c1.61-1.42,3.12-2.97,4.42-4.67c0.16-0.21,0.32-0.43,0.48-0.65
		c6.33,7.24,11.62,15.3,14.91,24.49C417.52,285.26,418.28,297.4,416.85,309.47z"/>
	<path fill="#000000" d="M414.27,309.6c0-0.03,0.01-0.09,0.03-0.2c0-0.01,0.01-0.02,0.01-0.03c0-0.02,0.01-0.03,0.01-0.05
		c0.01-0.02,0.01-0.05,0.01-0.07C414.38,308.95,414.29,309.51,414.27,309.6z"/>
	<path fill="#000000" d="M414.72,306.43c0-0.01,0-0.03,0.01-0.04C414.73,306.4,414.72,306.41,414.72,306.43c0,0.01,0,0.01,0,0.02
		C414.72,306.44,414.72,306.43,414.72,306.43z"/>
	<path fill="#000000" d="M414.95,303.75c0,0.06-0.01,0.2-0.02,0.44c0-0.1,0.01-0.19,0.01-0.28c0-0.04,0.01-0.07,0.01-0.1c0-0.01,0-0.02,0-0.02
		v-0.02C414.94,303.76,414.95,303.76,414.95,303.75z"/>
	<path fill="#000000" d="M416.21,402.56c0,0.01,0,0.02,0,0.03c0,0,0-0.01,0-0.01C416.21,402.57,416.21,402.57,416.21,402.56z"/>
	<path fill="#000000" d="M416.23,402.73c0,0.05,0.01,0.12,0.02,0.2C416.24,402.86,416.24,402.8,416.23,402.73z"/>
	<path fill="#000000" d="M416.36,410.45c0,0.04-0.02,0.33-0.02,0.44c0-0.05,0.01-0.13,0.01-0.28c0-0.03,0-0.06,0.01-0.07v-0.02
		C416.35,410.48,416.35,410.46,416.36,410.45z"/>
	<path fill="#000000" d="M416.45,407.66c0-0.05,0-0.11,0-0.16C416.45,407.43,416.45,407.46,416.45,407.66z"/>
	<path fill="#000000" d="M416.36,410.45c0,0.04-0.02,0.33-0.02,0.44c0-0.05,0.01-0.13,0.01-0.28c0-0.03,0-0.06,0.01-0.07v-0.02
		C416.35,410.48,416.35,410.46,416.36,410.45z"/>
	<path fill="#000000" d="M416.45,407.66c0-0.05,0-0.11,0-0.16C416.45,407.43,416.45,407.46,416.45,407.66z"/>
	<path fill="#000000" d="M354.35,247.29c1.55,2.03,3.86,1.62,5.99,0.81c2.61-0.99,5-2.57,7.74-3.24c-0.08-0.14-0.16-0.28-0.24-0.41
		c0.07,0.24,0.14,0.49,0.17,0.74c-0.06-0.49,0.01-1.16,0.13-1.63c-0.14,0.57-0.42,1.12-0.7,1.62c-0.79,1.37-1.87,2.56-3.01,3.65
		c-2.22,2.11-6.53,6.69-9.38,7.79l-0.42,1.17c3.82-0.53,8.47-2.02,11.01-4.88c1.35-1.52,2.36-3.3,2.92-5.25
		c0.72-2.5,0.99-5.55,0.26-8.07c-0.01-0.19-0.09-0.32-0.24-0.41c-2.55,0.62-4.83,2.02-7.23,3.03c-2,0.85-4.67,1.66-6.23-0.38
		c-0.42-0.55-0.82,1.78-0.84,1.93C354.16,244.59,353.77,246.54,354.35,247.29L354.35,247.29z"/>
	<path fill="#000000" d="M471.89,275.89c-0.63,1.74-1.43,3.69-0.25,5.32c0.73,1.01,1.97,1.68,3.02,2.3c1.27,0.75,2.59,1.43,3.84,2.23
		c0.82,0.52,2.01,1.22,2.15,2.28c0.08,0.63,0.72-0.03,0.84-0.17c0.63-0.72,1.1-1.62,1.53-2.48c0.77-1.57,1.99-3.87,1.76-5.69
		c-0.27-2.08-3.34-3.34-4.91-4.22c-1.11-0.62-2.22-1.24-3.24-1.99c-0.43-0.32-0.83-0.68-1.17-1.1c-0.82-1.02,0.31-1.54-0.93,1.87
		c0.06-0.17,1.26-4.14,0.3-3.54c-0.6,0.38-1.04,1.23-1.38,1.82C472.83,273.59,472.31,274.73,471.89,275.89L471.89,275.89z"/>
	<path fill="#000000" d="M420.77,282.58c-0.63,1.74-1.43,3.69-0.25,5.32c0.73,1.01,1.97,1.68,3.02,2.3c1.27,0.75,2.59,1.43,3.84,2.23
		c0.82,0.52,2.01,1.22,2.15,2.28c0.08,0.63,0.72-0.03,0.84-0.17c0.63-0.72,1.1-1.62,1.52-2.48c0.77-1.57,1.99-3.87,1.76-5.69
		c-0.27-2.08-3.34-3.34-4.91-4.22c-1.1-0.62-2.21-1.24-3.24-1.99c-0.43-0.32-0.83-0.68-1.17-1.1c-0.82-1.02,0.31-1.53-0.93,1.87
		c0.06-0.17,1.26-4.14,0.3-3.54c-0.6,0.38-1.04,1.23-1.38,1.82C421.72,280.28,421.2,281.42,420.77,282.58L420.77,282.58z"/>
	<path fill="#000000" d="M356.29,296.24c1.96,2.56,4.88,2.04,7.57,1.02c3.31-1.25,6.32-3.25,9.78-4.09c-0.1-0.17-0.2-0.35-0.3-0.52
		c0.09,0.31,0.18,0.62,0.22,0.94c-0.07-0.62,0.01-1.46,0.17-2.07c-0.18,0.72-0.53,1.41-0.89,2.05c-0.99,1.73-2.36,3.24-3.8,4.61
		c-2.8,2.66-8.25,8.46-11.86,9.85l-0.53,1.47c4.83-0.67,10.71-2.56,13.91-6.17c1.71-1.92,2.98-4.17,3.7-6.64
		c0.91-3.16,1.25-7.01,0.33-10.2c-0.01-0.24-0.11-0.41-0.3-0.52c-3.22,0.78-6.11,2.55-9.14,3.83c-2.53,1.07-5.91,2.09-7.88-0.48
		c-0.53-0.7-1.03,2.25-1.06,2.44C356.05,292.82,355.56,295.28,356.29,296.24L356.29,296.24z"/>
	<g>
		<path fill="#000000" d="M396.68,342.9c-0.48,1.78-1.1,3.8,0.21,5.32c0.81,0.94,2.11,1.5,3.21,2.03c1.33,0.64,2.7,1.2,4.02,1.88
			c0.86,0.45,2.11,1.04,2.34,2.08c0.14,0.62,0.72-0.1,0.82-0.24c0.57-0.77,0.96-1.71,1.3-2.6c0.63-1.63,1.65-4.03,1.25-5.83
			c-0.45-2.05-3.62-3.04-5.26-3.78c-1.15-0.52-2.31-1.04-3.4-1.7c-0.46-0.28-0.89-0.61-1.26-0.99c-0.9-0.94,0.18-1.56-0.76,1.95
			c0.05-0.17,0.89-4.23-0.01-3.55c-0.57,0.43-0.93,1.32-1.21,1.93C397.42,340.52,397,341.71,396.68,342.9L396.68,342.9z"/>
	</g>
	<g>
		<path fill="#000000" d="M386.97,329.7c-0.31,1.82-0.74,3.89,0.72,5.28c0.9,0.86,2.25,1.3,3.39,1.72c1.39,0.51,2.8,0.94,4.18,1.49
			c0.9,0.36,2.2,0.84,2.52,1.85c0.19,0.6,0.7-0.16,0.8-0.32c0.49-0.82,0.79-1.8,1.05-2.71c0.48-1.68,1.26-4.16,0.7-5.92
			c-0.64-2-3.89-2.68-5.59-3.26c-1.2-0.41-2.4-0.81-3.54-1.37c-0.48-0.24-0.94-0.52-1.35-0.87c-0.99-0.85,0.03-1.57-0.57,2.01
			c0.03-0.18,0.49-4.3-0.35-3.53c-0.53,0.48-0.8,1.4-1.03,2.04C387.48,327.27,387.17,328.49,386.97,329.7L386.97,329.7z"/>
	</g>
	<g>
		<path fill="#000000" d="M367.79,209.25c-0.48,1.78-1.1,3.8,0.21,5.32c0.81,0.94,2.11,1.5,3.21,2.03c1.33,0.64,2.7,1.2,4.02,1.88
			c0.86,0.45,2.11,1.04,2.34,2.08c0.14,0.62,0.72-0.1,0.82-0.24c0.57-0.77,0.96-1.71,1.3-2.6c0.63-1.63,1.65-4.03,1.25-5.83
			c-0.45-2.05-3.62-3.04-5.26-3.77c-1.16-0.52-2.32-1.04-3.4-1.7c-0.46-0.28-0.89-0.6-1.26-0.99c-0.9-0.94,0.18-1.56-0.76,1.94
			c0.05-0.17,0.89-4.23-0.01-3.55c-0.57,0.43-0.93,1.32-1.21,1.93C368.53,206.88,368.11,208.06,367.79,209.25L367.79,209.25z"/>
	</g>
	<g>
		<path fill="#000000" d="M358.08,196.06c-0.31,1.82-0.74,3.89,0.72,5.28c0.9,0.86,2.25,1.3,3.39,1.71c1.39,0.51,2.8,0.94,4.18,1.49
			c0.9,0.36,2.2,0.84,2.52,1.85c0.19,0.6,0.7-0.16,0.8-0.32c0.49-0.83,0.79-1.8,1.05-2.71c0.48-1.68,1.26-4.16,0.7-5.92
			c-0.64-2-3.89-2.68-5.59-3.26c-1.2-0.41-2.4-0.82-3.54-1.37c-0.48-0.23-0.94-0.52-1.35-0.87c-0.99-0.85,0.03-1.57-0.57,2.01
			c0.03-0.17,0.49-4.3-0.35-3.53c-0.53,0.48-0.8,1.4-1.03,2.04C358.59,193.63,358.28,194.84,358.08,196.06L358.08,196.06z"/>
	</g>
	<path fill="#000000" d="M441.99,104.59c0.09-3.84-0.49-7.03-3.53-9.53c-2.58-2.12-5.96-3.25-9.11-4.22c-8.41-2.58-17.16-3.85-25.49-6.7
		c-6.19-2.12-13.06-5.36-15.46-11.93c-0.23-0.63-0.71,0.33-0.74,0.42c-0.38,0.88-0.54,1.89-0.67,2.83
		c-0.26,1.88-0.55,4.13,0.12,5.96c2.73,7.49,11.16,10.87,18.17,13.05c8.3,2.58,16.98,3.79,25.21,6.6c2.46,0.84,4.94,1.87,7,3.48
		c0.78,0.61,1.45,1.38,1.96,2.23c0.13,0.21,0.24,0.43,0.34,0.65c0.04,0.09,0.08,0.18,0.11,0.27c0.19,0.47-0.13-0.43,0.02,0.05
		c0.07,0.24,0.12,0.48,0.17,0.73c-0.17-0.93-0.06-0.38-0.05-0.16c-0.16-1.85-0.08,0.85-0.03-1.34c0,0.17,0.1,4.33,0.83,3.45
		c0.45-0.55,0.6-1.5,0.74-2.16C441.81,107.07,441.96,105.82,441.99,104.59L441.99,104.59z"/>
	<path fill="#000000" d="M372.69,103.45c-1.94,1.12-2.87-0.18-3.47-1.98c-0.25,1.16-0.73,2.29-1.73,2.87c-1.14,0.67-2.78,0.93-3.68-0.32
		c-0.85-1.18-0.84-2.87-0.79-4.26c0.03-0.76,0.09-1.52,0.15-2.27c-0.03-0.02-0.06-0.05-0.1-0.11c-0.48-0.66-0.16-2.26-0.06-2.98
		c0.02-0.11,0.36-2.1,0.71-1.63c1.06,1.47,0.26,4.05,0.3,5.5c0.03,0.99,0.92,1.81,1.9,1.84c0.59,0.02,1.25-0.06,1.75-0.43
		c0.26-0.2,0.54-0.4,0.74-0.67c0.06-0.1,0.11-0.17,0.15-0.22c-0.21-0.91-0.4-1.73-0.67-2.23c-0.42-0.8-0.18-2.14-0.06-2.98
		c0.01-0.09,0.44-2.12,0.71-1.63c0.62,1.17,0.8,2.56,1.11,3.83c0.23,0.93,0.52,2.8,1.55,3.24c0.55,0.24,1.09,0.09,1.6-0.21
		c0.22-0.13,0.45-0.28,0.67-0.45c-0.43-0.94-1.03-1.81-1.55-2.7c-0.44-0.75-0.17-2.18-0.06-2.98c0.01-0.09,0.41-2.12,0.71-1.63
		c0.97,1.65,2.09,3.25,2.29,5.21C375.07,98.61,374.99,102.12,372.69,103.45z"/>
	<g>
		<path fill="#000000" d="M425.39,112.5c-6.38-3.22-8.97,6.34-9.79,10.75c0.26,0.22,0.52,0.43,0.78,0.65c0.04-4.27-1.55-8.11-4.33-11.34
			c-1.61-1.87-5.05-4.99-7.5-2.68c-0.59,0.55-0.55,2.21-0.58,2.92c0,0.12-0.01,2.12,0.41,1.72c2.08-1.96,5.15,0.68,6.59,2.18
			c1.2,1.25,2.18,2.7,2.99,4.23c0.41,0.77,0.75,1.59,1.02,2.42c0.12,0.39,0.22,0.79,0.3,1.19c0.03,0.14,0.1,1.15,0.1,0.56
			c0,0.5-0.09,1.24,0.17,1.7c0.27,0.47,0.6-1,0.61-1.06c0.78-4.19,3.29-11.23,8.8-8.45C425.08,117.35,426.41,113.01,425.39,112.5
			L425.39,112.5z"/>
	</g>
	<g>
		<path fill="#000000" d="M398.71,277.24c-6.38-3.22-8.97,6.34-9.79,10.75c0.26,0.22,0.52,0.43,0.78,0.65c0.04-4.27-1.55-8.11-4.33-11.34
			c-1.61-1.87-5.05-4.99-7.5-2.68c-0.59,0.55-0.55,2.21-0.58,2.92c0,0.12-0.01,2.12,0.41,1.72c2.08-1.96,5.15,0.68,6.59,2.18
			c1.2,1.25,2.18,2.7,2.99,4.23c0.41,0.77,0.75,1.59,1.02,2.42c0.12,0.39,0.22,0.79,0.3,1.19c0.03,0.14,0.09,1.15,0.1,0.56
			c0,0.5-0.09,1.24,0.17,1.7c0.26,0.46,0.6-1.01,0.61-1.06c0.78-4.19,3.29-11.23,8.8-8.45C398.4,282.09,399.72,277.75,398.71,277.24
			L398.71,277.24z"/>
	</g>
	<g>
		<path fill="#000000" d="M457.04,140.16c-0.82,3.39-3.75,6.52-7.5,5.76c-3.64-0.74-5.45-5.43-4.75-8.62c0.91-4.17,3.9-7.66,6.13-11.18
			c2.97-4.69,4.71-9.73,5.29-15.26c0.09-0.81,0.27-2.23-0.2-2.97c-0.3-0.48-0.62,1.57-0.63,1.66c-0.6,5.62-3.42,10.33-6.5,14.93
			c-1.31,1.96-2.58,3.94-3.53,6.09c-1.1,2.5-1.55,5.23-1.66,7.94c-0.17,4.31,0.54,10.97,5.64,12.22c4.42,1.08,7.32-3.52,8.2-7.14
			c0.26-1.08,0.3-2.31,0.14-3.4C457.56,139.35,457.23,139.35,457.04,140.16L457.04,140.16z"/>
	</g>
	<g>
		<path fill="#000000" d="M348.58,253.57c-0.82,3.39-3.75,6.52-7.5,5.76c-3.64-0.74-5.45-5.43-4.75-8.62c0.91-4.17,3.9-7.66,6.13-11.18
			c2.97-4.69,4.71-9.73,5.29-15.26c0.09-0.81,0.27-2.24-0.2-2.97c-0.3-0.48-0.62,1.57-0.63,1.66c-0.59,5.62-3.42,10.33-6.49,14.93
			c-1.31,1.96-2.57,3.94-3.53,6.09c-1.1,2.5-1.55,5.23-1.66,7.94c-0.17,4.31,0.54,10.97,5.65,12.22c4.42,1.08,7.32-3.52,8.2-7.14
			c0.26-1.08,0.3-2.31,0.14-3.4C349.1,252.76,348.77,252.76,348.58,253.57L348.58,253.57z"/>
	</g>
	<g>
		<path fill="#000000" d="M348.58,155.89c-0.82,3.39-3.75,6.52-7.5,5.76c-3.64-0.74-5.45-5.43-4.75-8.62c0.91-4.17,3.9-7.66,6.13-11.18
			c2.97-4.69,4.71-9.73,5.29-15.26c0.09-0.81,0.27-2.24-0.2-2.97c-0.3-0.48-0.62,1.57-0.63,1.66c-0.59,5.62-3.42,10.33-6.49,14.93
			c-1.31,1.96-2.57,3.94-3.53,6.09c-1.1,2.5-1.55,5.23-1.66,7.94c-0.17,4.31,0.54,10.97,5.65,12.22c4.42,1.08,7.32-3.52,8.2-7.14
			c0.26-1.08,0.3-2.31,0.14-3.4C349.1,155.08,348.77,155.08,348.58,155.89L348.58,155.89z"/>
	</g>
	<path fill="#000000" d="M352.31,146.35c1.55,2.03,3.86,1.62,5.99,0.81c2.61-0.99,5-2.57,7.74-3.24c-0.08-0.14-0.16-0.28-0.24-0.41
		c0.07,0.24,0.14,0.49,0.17,0.74c-0.06-0.49,0.01-1.16,0.13-1.63c-0.14,0.57-0.42,1.12-0.7,1.62c-0.79,1.37-1.87,2.56-3.01,3.65
		c-2.22,2.11-6.53,6.69-9.38,7.79l-0.42,1.17c3.82-0.53,8.47-2.02,11.01-4.88c1.35-1.52,2.36-3.3,2.92-5.25
		c0.72-2.5,0.99-5.55,0.26-8.07c-0.01-0.19-0.09-0.32-0.24-0.41c-2.55,0.62-4.83,2.02-7.23,3.03c-2,0.85-4.67,1.66-6.23-0.38
		c-0.42-0.55-0.82,1.78-0.84,1.93C352.13,143.65,351.73,145.6,352.31,146.35L352.31,146.35z"/>
	<g>
		<path fill="#000000" d="M441.87,234.01c0.96-1.78,3.07-3.1,5.05-2.12c1.93,0.95,2.25,3.85,1.39,5.53c-1.13,2.2-3.32,3.72-5.09,5.36
			c-2.36,2.19-4.07,4.76-5.22,7.77c-0.17,0.44-0.48,1.21-0.33,1.7c0.1,0.31,0.58-0.79,0.6-0.84c1.16-3.07,3.44-5.29,5.84-7.41
			c1.02-0.9,2.02-1.83,2.88-2.9c0.99-1.24,1.64-2.7,2.1-4.21c0.73-2.39,1.32-6.23-1.36-7.68c-2.32-1.26-4.62,0.89-5.65,2.79
			c-0.31,0.56-0.51,1.25-0.58,1.89C441.46,234.39,441.64,234.44,441.87,234.01L441.87,234.01z"/>
	</g>
	<g>
		<path fill="#000000" d="M421.5,257.06c-0.48,1.96-2.17,3.78-4.34,3.33c-2.11-0.43-3.15-3.14-2.75-4.99c0.53-2.41,2.26-4.43,3.55-6.47
			c1.72-2.72,2.72-5.63,3.06-8.84c0.05-0.47,0.15-1.29-0.12-1.72c-0.18-0.28-0.36,0.91-0.36,0.96c-0.34,3.26-1.98,5.98-3.76,8.65
			c-0.76,1.13-1.49,2.28-2.04,3.53c-0.64,1.45-0.9,3.03-0.96,4.6c-0.1,2.5,0.31,6.35,3.27,7.07c2.56,0.63,4.24-2.04,4.75-4.14
			c0.15-0.62,0.17-1.34,0.08-1.97C421.8,256.58,421.62,256.59,421.5,257.06L421.5,257.06z"/>
	</g>
	<path fill="#000000" d="M375.9,132.5c0.2,0.69,0.39,1.38,0.57,2.07c-6.13,1.16-12.62,0.37-17.89-2.62c-5.15-2.92-9.76-7.51-12.07-13.03
		c-2.23-5.35-3.02-11.45-2.39-17.2c0.61-5.51,2.06-10.71,6.06-14.73c4.35-4.39,7.83-5.34,15.51-6.69l-0.05,0.67
		c-20.01,6.7-20.19,23.74-17.95,28.45c2.7,5.68,6.77,10.31,12.08,13.13c4.23,2.24,8.83,3.14,13.46,2.88
		C374.46,127.69,375.26,130.28,375.9,132.5z"/>
	<path fill="#000000" d="M398.39,102.15c-0.18,4.35-0.64,8.72-1.63,12.96c-0.79,3.35-1.85,6.61-3.85,9.45c-3.13,4.42-7.86,7.55-13.11,9.19
		c-0.62-2.99-1.27-5.98-2.1-8.92c0.5-0.1,1-0.22,1.49-0.35c5.83-1.54,11.42-4.79,14.61-10.07c0.72-1.19,1.29-2.5,1.62-3.65
		c0.4-1.38,0.64-2.63,0.78-3.64c0.02-0.14,0.04-0.29,0.06-0.44c0,0,0-0.02,0-0.04c0-0.01,0-0.02,0-0.03
		c0.01-0.07,0.02-0.19,0.04-0.36c0.02-0.28,0.05-0.56,0.07-0.84v-0.02c0-0.02,0-0.06,0.01-0.12c0.01-0.22,0.03-0.64,0.04-0.71
		c0.01-0.3,0.02-0.61,0.02-0.92c0,0,0-0.01,0-0.01c0-0.14,0-0.71,0-0.77c-0.01-0.39-0.02-0.78-0.04-1.16
		c-0.01-0.12-0.01-0.2-0.01-0.27c-0.01-0.06-0.01-0.13-0.02-0.23c-0.03-0.35-0.06-0.7-0.1-1.05c-0.32-2.69-1.69-6.02-3.26-8.77
		c-1.89-3.31-4.11-6.41-6.22-9.58c-2.35-3.54-4.85-6.97-7.21-10.49c-3.08-4.58-5.67-9.46-7.4-14.71
		c-2.39-7.25-2.88-14.95-2.13-22.52c0.05-0.5,0.33-4.81,1.33-4.72c0.99,0.09,0.54,4.38,0.49,4.88c-0.03,0.31-0.06,0.62-0.09,0.93
		c0,0,0,0,0,0v0.02c0,0.01,0,0.02,0,0.03c-0.01,0.17-0.04,0.75-0.04,0.83c0,0.04,0,1.13-0.01,0.8c0,0.2,0.01,0.41,0.01,0.61
		c0.03,0.85,0.01,0.67,0.08,1.5c0.06,0.67,0.13,1.34,0.22,2.01c0.33,2.39,0.92,4.77,1.67,7.07c1.41,4.28,3.49,8.33,5.9,12.12
		c4.57,7.19,9.94,13.85,14.24,21.22c1.75,3.01,3.38,6.27,3.96,9.74C398.41,94.74,398.54,98.46,398.39,102.15z"/>
	<path fill="#000000" d="M460.87,20.96c-9.32,5.55-18.64,11.09-28.14,16.33c-15.03,8.3-30.39,16.16-46.36,22.5c-7.2,2.86-14.56,5.42-22.14,7.08
		c-5.57,1.22-11.62,2.12-17.26,0.87c-2.81-0.62-5.47-1.93-7.26-4.23c-0.44-0.56-0.81-1.18-1.13-1.82c-0.42-0.85-0.51-1.12-0.73-1.9
		c-0.1-0.37-0.19-0.75-0.26-1.13c-0.03-0.13-0.14-0.82-0.04-0.17c-0.04-0.26-0.07-0.52-0.1-0.77c-0.02-0.21-0.04-0.43-0.06-0.64
		c-0.02-0.3-0.02-0.22,0.01,0.25c-0.01-0.17-0.01-0.34-0.02-0.5c-0.01-0.23-0.01-0.46-0.01-0.69c0,1.16,0.01,0.06,0.02-0.2
		c0-0.14-0.08-3.24-0.62-2.59c-0.85,1.02-0.82,3.16-0.87,4.38c-0.2,5.33,0.43,11.22,4.9,14.74c3.83,3.01,9.24,3.26,13.89,2.95
		c6.9-0.46,13.69-2.34,20.24-4.48c8-2.62,15.79-5.86,23.45-9.33c15.06-6.83,29.67-14.67,44.01-22.9
		c6.12-3.51,12.17-7.15,18.24-10.77c0.34-0.2,0.49-1.31,0.55-1.62c0.18-0.91,0.28-1.84,0.31-2.77
		C461.5,23.24,461.63,20.51,460.87,20.96L460.87,20.96z"/>
</g>
<path class="af" fill="#000000" d="M273.602,481.306c-0.578-0.576-1.301-1.03-2.174-1.362c-0.873-0.331-1.885-0.497-3.039-0.497
	c-0.663,0-1.463,0.079-2.4,0.238v-6.077h-1.535v17.711c0.706,0.202,1.402,0.354,2.087,0.454s1.301,0.151,1.849,0.151
	c1.153,0,2.166-0.162,3.039-0.486s1.596-0.764,2.174-1.319c0.576-0.555,1.006-1.211,1.287-1.968s0.42-1.561,0.42-2.411
	s-0.139-1.657-0.42-2.422C274.608,482.554,274.178,481.883,273.602,481.306z M272.391,489.167c-0.852,0.829-2.17,1.243-3.958,1.243
	c-0.39,0-0.805-0.032-1.244-0.097c-0.439-0.065-0.84-0.134-1.2-0.206v-8.845c0.447-0.115,0.887-0.194,1.319-0.237
	c0.433-0.044,0.808-0.065,1.125-0.065c0.894,0,1.668,0.112,2.325,0.335c0.656,0.224,1.199,0.545,1.633,0.963
	c0.432,0.418,0.752,0.919,0.961,1.503s0.314,1.243,0.314,1.979C273.667,487.195,273.241,488.338,272.391,489.167z M247.392,479.446
	c-0.62,0-1.297,0.079-2.033,0.238c-0.735,0.158-1.485,0.433-2.249,0.821l-0.065,1.73c0.548-0.303,0.973-0.52,1.276-0.649
	s0.624-0.237,0.962-0.324c0.338-0.086,0.677-0.158,1.016-0.216s0.667-0.087,0.984-0.087c1.139,0,1.982,0.249,2.53,0.746
	s0.822,1.33,0.822,2.498v0.13c-0.332-0.044-0.732-0.087-1.2-0.13c-0.469-0.043-0.876-0.065-1.222-0.065
	c-1.831,0-3.302,0.311-4.412,0.931c-1.11,0.619-1.665,1.644-1.665,3.07c0,0.707,0.155,1.305,0.465,1.795
	c0.31,0.49,0.713,0.88,1.211,1.168s1.067,0.497,1.708,0.627c0.641,0.13,1.308,0.194,2,0.194c0.807,0,1.6-0.072,2.378-0.216
	c0.779-0.145,1.536-0.368,2.271-0.671v-7.028c0-1.585-0.397-2.742-1.189-3.471C250.189,479.811,248.992,479.446,247.392,479.446z
	 M250.636,489.892c-0.375,0.144-0.858,0.267-1.449,0.367c-0.591,0.102-1.183,0.151-1.773,0.151c-0.505,0-0.984-0.035-1.438-0.108
	c-0.454-0.071-0.84-0.197-1.157-0.378c-0.317-0.18-0.57-0.414-0.757-0.703c-0.188-0.288-0.281-0.663-0.281-1.124
	c0-0.52,0.111-0.934,0.335-1.244c0.224-0.31,0.533-0.551,0.93-0.724c0.396-0.174,0.85-0.296,1.362-0.368
	c0.511-0.072,1.041-0.108,1.589-0.108c0.476,0,0.984,0.029,1.524,0.087c0.541,0.058,0.912,0.108,1.114,0.151V489.892z
	 M258.032,479.868c-0.649,0.122-1.276,0.263-1.881,0.422v11.418h1.535v-10.186c0.202-0.072,0.563-0.147,1.082-0.228
	c0.519-0.079,1.002-0.118,1.449-0.118h1.989v-1.492H260C259.336,479.685,258.681,479.746,258.032,479.868z M-77.92,487.667
	l241.145,0.656l0.663-0.433l-0.632-0.564L-77.92,487.667z M164.994,487.825l1.95,1.95l1.95-1.95l-1.95-1.95L164.994,487.825z
	 M169.559,487.825l3.057,3.057l3.057-3.057l-3.057-3.057L169.559,487.825z M212.359,489.286l-3.395-9.602h-1.514l-3.396,9.602
	l-2.984-9.602h-1.73l3.979,12.023h1.428l3.46-9.645l3.46,9.645h1.427l3.979-12.023h-1.73L212.359,489.286z M238.418,489.589
	c-0.317,0-0.591,0.115-0.822,0.346c-0.231,0.23-0.346,0.505-0.346,0.822c0,0.316,0.115,0.591,0.346,0.821
	c0.23,0.23,0.504,0.346,0.822,0.346c0.317,0,0.591-0.115,0.822-0.346c0.23-0.23,0.346-0.505,0.346-0.821
	c0-0.317-0.116-0.592-0.346-0.822C239.009,489.704,238.735,489.589,238.418,489.589z M193.243,489.286l-3.395-9.602h-1.514
	l-3.396,9.602l-2.984-9.602h-1.73l3.979,12.023h1.428l3.46-9.645l3.46,9.645h1.427l3.979-12.023h-1.73L193.243,489.286z
	 M231.476,489.286l-3.395-9.602h-1.514l-3.396,9.602l-2.984-9.602h-1.73l3.979,12.023h1.428l3.46-9.645l3.46,9.645h1.427
	l3.979-12.023h-1.73L231.476,489.286z M382.732,480.474c-0.426-0.396-0.938-0.667-1.535-0.812c-0.598-0.144-1.271-0.216-2.021-0.216
	c-0.664,0-1.393,0.09-2.184,0.271c-0.793,0.181-1.471,0.4-2.033,0.659c-0.346-0.331-0.818-0.569-1.416-0.714
	c-0.6-0.144-1.273-0.216-2.023-0.216c-0.635,0-1.268,0.058-1.902,0.173l-2.465,0.454v11.635h1.535v-10.38
	c0.447-0.102,0.883-0.188,1.309-0.26c0.424-0.072,0.896-0.108,1.416-0.108c0.605,0,1.125,0.058,1.557,0.173
	c0.434,0.116,0.789,0.321,1.07,0.616c0.281,0.296,0.494,0.711,0.639,1.244s0.217,1.24,0.217,2.119v6.596h1.535v-7.201
	c0-0.663-0.055-1.243-0.162-1.741c-0.109-0.497-0.213-0.861-0.314-1.092c0.086-0.043,0.281-0.119,0.584-0.228
	c0.303-0.107,0.602-0.197,0.898-0.27c0.295-0.072,0.586-0.126,0.875-0.162s0.547-0.055,0.779-0.055c0.59,0,1.102,0.058,1.535,0.173
	c0.432,0.116,0.781,0.317,1.049,0.605c0.266,0.289,0.471,0.703,0.615,1.244c0.145,0.54,0.217,1.251,0.217,2.13v6.596h1.535v-7.201
	c0-0.995-0.111-1.816-0.336-2.466C383.482,481.393,383.158,480.87,382.732,480.474z M280.1,474.581
	c-0.785,0.648-1.18,1.729-1.18,3.243v1.86h-2.551v1.492h2.551v10.531h1.537v-10.531h4.973v-1.492h-4.973v-1.471
	c0-0.635,0.045-1.149,0.141-1.546c0.094-0.396,0.24-0.707,0.443-0.931c0.201-0.223,0.475-0.385,0.82-0.486
	c0.346-0.101,0.779-0.151,1.299-0.151h2.422v-1.492h-2.271C281.956,473.607,280.885,473.932,280.1,474.581z M398.273,487.825
	l3.057,3.057l3.057-3.057l-3.057-3.057L398.273,487.825z M343.322,482.322c0.389-0.418,0.854-0.749,1.395-0.994
	s1.135-0.368,1.783-0.368c0.736,0,1.373,0.076,1.914,0.228s1.121,0.414,1.74,0.789l0.715-1.405c-0.707-0.39-1.393-0.674-2.055-0.854
	c-0.664-0.181-1.436-0.271-2.314-0.271c-0.85,0-1.639,0.155-2.367,0.465c-0.729,0.311-1.367,0.746-1.914,1.309
	c-0.549,0.563-0.98,1.222-1.297,1.979c-0.317,0.757-0.476,1.59-0.476,2.498s0.158,1.74,0.476,2.497
	c0.316,0.757,0.748,1.413,1.297,1.969c0.547,0.555,1.186,0.987,1.914,1.297c0.729,0.311,1.518,0.465,2.367,0.465
	c0.879,0,1.65-0.09,2.314-0.27c0.662-0.181,1.348-0.466,2.055-0.854l-0.715-1.406c-0.619,0.375-1.199,0.639-1.74,0.79
	s-1.178,0.227-1.914,0.227c-0.648,0-1.242-0.119-1.783-0.356c-0.541-0.238-1.006-0.565-1.395-0.984
	c-0.391-0.418-0.693-0.915-0.908-1.492c-0.217-0.576-0.324-1.203-0.324-1.881s0.107-1.305,0.324-1.882
	C342.628,483.238,342.931,482.741,343.322,482.322z M404.387,487.825l1.949,1.95l1.951-1.95l-1.951-1.95L404.387,487.825z
	 M410.701,487.326l-0.664,0.433l0.633,0.564l241.176-0.341L410.701,487.326z M362.611,481.295c-0.549-0.569-1.193-1.02-1.936-1.352
	c-0.742-0.331-1.547-0.497-2.412-0.497c-0.863,0-1.668,0.166-2.41,0.497c-0.742,0.332-1.389,0.782-1.936,1.352
	c-0.549,0.57-0.977,1.229-1.287,1.979c-0.311,0.749-0.465,1.557-0.465,2.422s0.154,1.672,0.465,2.422s0.738,1.409,1.287,1.979
	c0.547,0.569,1.193,1.017,1.936,1.341s1.547,0.486,2.41,0.486c0.865,0,1.67-0.162,2.412-0.486s1.387-0.771,1.936-1.341
	c0.547-0.569,0.977-1.229,1.287-1.979c0.309-0.75,0.465-1.557,0.465-2.422s-0.156-1.673-0.465-2.422
	C363.587,482.524,363.158,481.865,362.611,481.295z M362.394,487.523c-0.217,0.569-0.52,1.067-0.908,1.492
	c-0.389,0.426-0.857,0.765-1.406,1.017c-0.547,0.252-1.152,0.378-1.816,0.378c-0.662,0-1.268-0.126-1.816-0.378
	c-0.547-0.252-1.016-0.591-1.404-1.017c-0.391-0.425-0.693-0.923-0.908-1.492c-0.217-0.569-0.324-1.179-0.324-1.827
	c0-0.649,0.107-1.262,0.324-1.839c0.215-0.576,0.518-1.077,0.908-1.503c0.389-0.425,0.857-0.764,1.404-1.016
	c0.549-0.252,1.154-0.379,1.816-0.379c0.664,0,1.27,0.127,1.816,0.379c0.549,0.252,1.018,0.591,1.406,1.016
	c0.389,0.426,0.691,0.927,0.908,1.503c0.217,0.577,0.324,1.189,0.324,1.839C362.718,486.345,362.611,486.954,362.394,487.523z
	 M296.221,481.295c-0.547-0.569-1.191-1.02-1.936-1.352c-0.742-0.331-1.545-0.497-2.41-0.497s-1.67,0.166-2.412,0.497
	c-0.742,0.332-1.387,0.782-1.936,1.352c-0.547,0.57-0.977,1.229-1.285,1.979c-0.311,0.749-0.465,1.557-0.465,2.422
	s0.154,1.672,0.465,2.422c0.309,0.75,0.738,1.409,1.285,1.979c0.549,0.569,1.193,1.017,1.936,1.341s1.547,0.486,2.412,0.486
	s1.668-0.162,2.41-0.486c0.744-0.324,1.389-0.771,1.936-1.341c0.549-0.569,0.977-1.229,1.287-1.979s0.465-1.557,0.465-2.422
	s-0.154-1.673-0.465-2.422C297.198,482.524,296.77,481.865,296.221,481.295z M296.006,487.523c-0.217,0.569-0.52,1.067-0.908,1.492
	c-0.391,0.426-0.859,0.765-1.406,1.017c-0.549,0.252-1.154,0.378-1.816,0.378c-0.664,0-1.27-0.126-1.816-0.378
	c-0.549-0.252-1.018-0.591-1.406-1.017c-0.389-0.425-0.691-0.923-0.908-1.492s-0.324-1.179-0.324-1.827
	c0-0.649,0.107-1.262,0.324-1.839c0.217-0.576,0.52-1.077,0.908-1.503c0.389-0.425,0.857-0.764,1.406-1.016
	c0.547-0.252,1.152-0.379,1.816-0.379c0.662,0,1.268,0.127,1.816,0.379c0.547,0.252,1.016,0.591,1.406,1.016
	c0.389,0.426,0.691,0.927,0.908,1.503c0.215,0.577,0.324,1.189,0.324,1.839C296.331,486.345,296.221,486.954,296.006,487.523z
	 M309.381,480.463c-0.455-0.39-0.996-0.656-1.623-0.801c-0.627-0.144-1.309-0.216-2.043-0.216c-0.707,0-1.465,0.047-2.271,0.141
	s-1.701,0.234-2.682,0.422v11.699h1.535v-10.402c1.184-0.23,2.293-0.346,3.33-0.346c0.592,0,1.111,0.062,1.559,0.184
	c0.445,0.123,0.818,0.332,1.113,0.628c0.295,0.295,0.525,0.713,0.691,1.254s0.25,1.251,0.25,2.13v6.553h1.535v-7.201
	c0-0.995-0.119-1.82-0.357-2.477C310.18,481.375,309.834,480.852,309.381,480.463z M318.516,490.054
	c-0.346-0.108-0.619-0.277-0.82-0.509c-0.203-0.23-0.35-0.547-0.443-0.951c-0.096-0.403-0.141-0.922-0.141-1.557v-5.86h4.973v-1.492
	h-4.973v-4.347h-1.537v4.347h-2.551v1.492h2.551v6.466c0,0.764,0.109,1.405,0.326,1.925c0.215,0.519,0.525,0.937,0.93,1.254
	c0.402,0.317,0.867,0.544,1.395,0.682c0.525,0.137,1.105,0.205,1.74,0.205h2.271v-1.492h-2.422
	C319.295,490.216,318.862,490.162,318.516,490.054z M337.784,489.589c-0.316,0-0.59,0.115-0.82,0.346s-0.346,0.505-0.346,0.822
	c0,0.316,0.115,0.591,0.346,0.821s0.504,0.346,0.82,0.346c0.318,0,0.592-0.115,0.822-0.346s0.346-0.505,0.346-0.821
	c0-0.317-0.115-0.592-0.346-0.822S338.102,489.589,337.784,489.589z M333.178,486.106c-0.346-0.303-0.785-0.565-1.318-0.789
	c-0.533-0.223-1.182-0.422-1.947-0.595l-0.799-0.173c-1.053-0.216-1.781-0.461-2.184-0.735c-0.404-0.273-0.607-0.678-0.607-1.211
	c0-0.504,0.238-0.904,0.715-1.2c0.475-0.295,1.174-0.443,2.098-0.443c0.793,0,1.477,0.076,2.055,0.228
	c0.576,0.151,1.217,0.421,1.924,0.811l0.691-1.405c-1.412-0.765-2.969-1.146-4.67-1.146c-0.635,0-1.223,0.076-1.764,0.228
	c-0.539,0.151-1.008,0.364-1.404,0.638s-0.711,0.605-0.941,0.994c-0.23,0.39-0.346,0.815-0.346,1.276
	c0,0.462,0.072,0.88,0.217,1.254c0.143,0.375,0.381,0.707,0.713,0.995s0.758,0.537,1.275,0.746c0.52,0.209,1.146,0.4,1.883,0.573
	l0.908,0.194c1.008,0.217,1.729,0.49,2.162,0.822c0.432,0.331,0.648,0.771,0.648,1.318c0,0.39-0.086,0.707-0.26,0.952
	c-0.172,0.245-0.414,0.436-0.725,0.573c-0.311,0.137-0.678,0.237-1.102,0.303c-0.426,0.064-0.877,0.097-1.352,0.097
	c-0.592,0-1.223-0.09-1.893-0.271c-0.67-0.18-1.352-0.479-2.045-0.897l-0.734,1.471c0.779,0.433,1.539,0.742,2.281,0.93
	s1.539,0.281,2.391,0.281c0.748,0,1.434-0.072,2.053-0.216c0.621-0.145,1.158-0.36,1.611-0.648c0.455-0.289,0.805-0.649,1.049-1.082
	c0.246-0.433,0.369-0.93,0.369-1.492c0-0.476-0.072-0.915-0.217-1.318C333.77,486.763,333.526,486.41,333.178,486.106z"/>
</svg>

