<?xml version="1.0" encoding="utf-8"?>
<!-- Generator: Adobe Illustrator 23.0.0, SVG Export Plug-In . SVG Version: 6.00 Build 0)  -->
<svg version="1.1" id="Layer_1" xmlns="http://www.w3.org/2000/svg" xmlns:xlink="http://www.w3.org/1999/xlink" x="0px" y="0px"
	 viewBox="0 0 800 500" style="enable-background:new 0 0 800 500;" xml:space="preserve">
<path fill="#000000" id="XMLID_971_" d="M337.79,303.88h-16.27v-2.27c0.01-0.09,0.02-0.18,0.02-0.27c0-0.83,0-1.77,2.92-2.53
	c1.37-0.2,8.68-1.44,11.04-5.91c0.17-0.32,0.26-0.69,0.26-1.05v-4.77c0-1.15-0.86-2.12-2.01-2.24c-1.06-0.13-2.05,0.52-2.39,1.52
	c-0.15,0.24-1.48,2.08-7.68,3.26c-7.18,1.11-11.33,5.32-11.41,11.55c0,0.06-0.01,0.11-0.01,0.17v2.53h-4.6
	c-1.25,0-2.26,1.01-2.26,2.26v4.74c0,1.25,1.01,2.26,2.26,2.26h30.13c1.25,0,2.26-1.01,2.26-2.26v-4.74
	C340.04,304.89,339.03,303.88,337.79,303.88z"/>
<path fill="#000000" id="XMLID_970_" d="M368.23,222.87c3.84,0,6.96-3.12,6.96-6.96c0-3.84-3.12-6.96-6.96-6.96c-3.84,0-6.96,3.12-6.96,6.96
	C361.27,219.75,364.39,222.87,368.23,222.87z"/>
<path fill="#000000" id="XMLID_969_" d="M350.79,222.87c3.84,0,6.96-3.12,6.96-6.96c0-3.84-3.12-6.96-6.96-6.96c-3.84,0-6.96,3.12-6.96,6.96
	C343.83,219.75,346.95,222.87,350.79,222.87z"/>
<path fill="#000000" id="XMLID_966_" d="M536.04,217.67h-3.97c8.98-41.59,4.84-77.53-12.3-106.83C499.03,75.4,459,49.32,400.79,33.31l-1.18-0.33
	c-0.39-0.11-0.8-0.11-1.19,0l-1.19,0.32c-58.5,15.72-98.64,41.73-119.33,77.32c-17.02,29.29-21.02,65.29-11.9,107.05h-3.13
	c-1.25,0-2.26,1.01-2.26,2.26v188.82c0,1.25,1.01,2.26,2.26,2.26h273.16c1.25,0,2.26-1.01,2.26-2.26V219.93
	C538.3,218.68,537.29,217.67,536.04,217.67z M512.21,225.15c0,5.08,4.13,9.22,9.22,9.22c1.15,0,2.28-0.22,3.33-0.63v163.72H274.17
	V233.19c0.92,0.31,1.89,0.47,2.88,0.47c5.08,0,9.22-4.13,9.22-9.22c0-4.23-2.9-7.86-6.86-8.91c-8.59-38.67-5.15-71.67,10.21-98.11
	c18.62-32.03,55.4-55.77,109.35-70.56c53.71,15.06,90.42,38.89,109.11,70.82c15.6,26.65,19.1,59.87,10.4,98.74
	C514.82,217.67,512.21,221.18,512.21,225.15z"/>
<path fill="#000000" id="XMLID_965_" d="M461.09,361.89c-3.84,0-6.96,3.12-6.96,6.96s3.12,6.96,6.96,6.96c3.84,0,6.96-3.12,6.96-6.96
	S464.92,361.89,461.09,361.89z"/>
<path fill="#000000" id="XMLID_964_" d="M467.64,148.55c0-3.49,1.42-6.18,8.33-7.94c1.74-0.25,17.3-2.67,21.85-11.32c0.17-0.32,0.26-0.69,0.26-1.05
	v-10.21c0-1.19-0.9-2.35-2.09-2.42c-1.19-0.06-2.2,0.63-2.35,1.81c-0.02,0.05-2.03,5.46-18.47,8.59
	c-14.25,2.21-22.14,10.13-22.24,22.33c-0.01,0.08-0.01,0.15-0.01,0.23v38.41h-31.38v-59.05c0-0.27-0.05-0.54-0.14-0.78v-9.73
	c0-1.19-0.89-2.34-2.08-2.42c-1.18-0.08-2.2,0.63-2.35,1.81c-0.01,0.03-1.13,3.11-8.78,5.97c-0.88,0.33-1.46,1.17-1.46,2.11v10.26
	c0,0.27,0.05,0.53,0.14,0.78l0,62.85c0,0.02,0,0.04,0,0.06c-0.03,4.34-3.56,7.86-7.9,7.86c-3.95,0-7.25-2.92-7.81-6.77
	c0.04-0.17,0.07-0.35,0.07-0.54v-10.16c0-1.25-1.01-2.26-2.26-2.26h-37.6v-39.02c0-0.08,0-0.16-0.01-0.23
	c-0.1-12.2-7.99-20.12-22.16-22.32c-16.43-3.13-18.51-8.49-18.52-8.49v0c-0.15-1.18-1.16-1.94-2.36-1.87
	c-1.19,0.07-2.1,1.17-2.1,2.36v10.21c0,0.37,0.09,0.73,0.26,1.05c4.55,8.65,20.11,11.07,21.85,11.32c6.91,1.76,8.33,4.45,8.33,7.96
	c0,0.13,0.01,0.27,0.04,0.39v38.63l-17.86,0c-4.3-0.13-7.66-3.59-7.66-7.9c0-0.11-0.01-0.22-0.02-0.33v-17.41
	c0-1.19-0.89-2.34-2.08-2.42c-1.18-0.09-2.2,0.63-2.35,1.81c-0.01,0.03-1.13,3.11-8.78,5.97c-0.88,0.33-1.46,1.17-1.46,2.11v10.26
	c0,12.26,9.54,22.12,21.76,22.55c0.11,0.02,0.22,0.02,0.33,0.02l0.23,0c0.06,0,0.2,0.01,0.26,0.01l57.51-0.01
	c1.15,8.95,7.62,16.48,16.4,18.89c3.29,2.89,3.51,6.12,3.65,8.08c0.03,0.42,0.06,0.76,0.1,1.03c0.17,1.11,1.12,1.89,2.22,1.89
	c0.06,0,0.12,0,0.17-0.01c1.08-0.08,1.94-0.94,2.07-2c0.04-0.26,0.06-0.59,0.09-0.98c0.14-1.93,0.36-5.12,3.54-7.98
	c8.85-2.38,15.36-9.93,16.51-18.92h74.47c1.25,0,2.26-1.01,2.26-2.26v-10.16c0-1.25-1.01-2.26-2.26-2.26h-28.22v-38.03
	C467.63,148.82,467.64,148.69,467.64,148.55z"/>
<g id="XMLID_958_">
	<path fill="#000000" id="XMLID_961_" d="M510.86,267.85c-1.19-0.07-2.2,0.63-2.35,1.81c-0.02,0.05-2.03,5.46-18.47,8.59
		c-14.25,2.21-22.14,10.13-22.24,22.33c-0.01,0.08-0.01,0.15-0.01,0.23v38.41h-15.74v-68.95c0-1.19-0.89-2.34-2.08-2.42
		c-1.17-0.09-2.2,0.63-2.35,1.81c-0.01,0.03-1.13,3.11-8.78,5.97c-0.88,0.33-1.47,1.17-1.47,2.11l0,73.58c0,0.02,0,0.04,0,0.06
		c-0.03,4.34-3.56,7.86-7.9,7.86c-4.36,0-7.9-3.55-7.9-7.92c0-0.11-0.01-0.22-0.02-0.33v-97.44c0-7.17-5.94-11.72-9.13-14.16
		c-0.54-0.41-1.21-0.92-1.41-1.14c-0.54-0.8-1.54-1.18-2.48-0.91c-0.98,0.27-1.65,1.16-1.65,2.17v111.8
		c0,10.28,7.14,19.39,17.06,21.89c2.85,2.78,3.06,5.81,3.19,7.66c0.03,0.41,0.06,0.75,0.1,1.02c0.17,1.11,1.12,1.89,2.22,1.89
		c0.06,0,0.12,0,0.17-0.01c1.08-0.08,1.94-0.94,2.07-2c0.04-0.26,0.06-0.59,0.09-0.97c0.13-1.82,0.34-4.8,3.09-7.55
		c9.26-2.27,15.96-10,17.01-19.36h58.79c1.25,0,2.26-1.01,2.26-2.26v-81.36C512.95,269.08,512.05,267.93,510.86,267.85z
		 M498.27,291.16v48.06h-15.8V301.2c0.02-0.13,0.04-0.26,0.04-0.4c0-3.5,1.42-6.19,8.33-7.94
		C491.53,292.75,494.6,292.28,498.27,291.16z"/>
	<path fill="#000000" id="XMLID_960_" d="M358.83,237.58c-0.94-0.26-1.93,0.11-2.48,0.9c-0.21,0.22-0.87,0.73-1.41,1.14
		c-3.19,2.44-9.13,6.98-9.13,14.14v97.57c0,0.02,0,0.04,0,0.06c-0.02,4.34-3.56,7.86-7.9,7.86c-4.27,0-7.81-3.48-7.89-7.72v-10.06
		c0-1.25-1.01-2.26-2.26-2.26h-20.5c-0.02,0-0.04,0-0.06,0c-4.22-0.14-7.64-3.66-7.64-7.91c0-0.08,0-0.16-0.01-0.23v-50.21
		c0.02-0.13,0.04-0.26,0.04-0.4c0-3.49,1.42-6.18,8.33-7.94c1.75-0.25,17.3-2.67,21.85-11.32c0.17-0.32,0.26-0.69,0.26-1.05v-10.21
		c0-1.19-0.89-2.35-2.08-2.42c-1.19-0.06-2.2,0.63-2.35,1.81c-0.02,0.05-2.03,5.46-18.47,8.59c-14.25,2.21-22.14,10.13-22.24,22.33
		c-0.01,0.08-0.01,0.15-0.01,0.23v50.59c-0.01,0.08-0.01,0.16-0.01,0.24c0,12.34,10.04,22.47,22.35,22.58
		c0.06,0,0.18,0.01,0.24,0.01l8.02-0.01c1.05,9.31,7.71,17.02,16.91,19.33c2.85,2.78,3.06,5.81,3.19,7.65
		c0.03,0.41,0.06,0.75,0.1,1.02c0.16,1.11,1.12,1.89,2.22,1.89c0.06,0,0.12,0,0.17-0.01c1.08-0.08,1.94-0.95,2.07-2
		c0.04-0.26,0.06-0.59,0.09-0.97c0.13-1.82,0.34-4.8,3.09-7.55c9.98-2.47,17.17-11.58,17.17-21.92V239.75
		C360.48,238.74,359.81,237.85,358.83,237.58z"/>
	<path fill="#000000" id="XMLID_959_" d="M388.9,267.86c-1.18-0.09-2.2,0.63-2.35,1.81c-0.01,0.03-1.13,3.11-8.78,5.97
		c-0.88,0.33-1.47,1.17-1.47,2.11v73.98c-0.03,0.3-0.06,0.62-0.07,0.95c-0.86,16.25-5.57,19.56-6.09,19.88
		c-1.12,0.33-1.7,1.43-1.47,2.58c0.21,1.06,1.23,1.78,2.3,1.78c0.11,0,0.21-0.01,0.32-0.02l10.29-1.4c0.36-0.05,0.71-0.19,1.01-0.4
		c7.42-5.3,8.3-18.84,8.38-23.11c0-0.06,0.01-0.12,0.01-0.19v-71.16c0-0.02,0-0.05,0-0.07c0-0.03,0-0.05,0-0.08v-10.21
		C390.98,269.08,390.09,267.93,388.9,267.86z"/>
</g>
<path fill="#000000" id="XMLID_957_" d="M340.06,382.95c0,1.19-0.97,2.16-2.16,2.16s-2.16-0.97-2.16-2.16s0.97-2.16,2.16-2.16
	S340.06,381.76,340.06,382.95z"/>
<path fill="#000000" id="XMLID_956_" d="M431.63,382.95c0,1.19-0.97,2.16-2.16,2.16s-2.16-0.97-2.16-2.16s0.97-2.16,2.16-2.16
	S431.63,381.76,431.63,382.95z"/>
<path fill="#000000" id="XMLID_955_" d="M401.13,230.67c0,1.19-0.97,2.16-2.16,2.16c-1.19,0-2.16-0.97-2.16-2.16s0.97-2.16,2.16-2.16
	C400.16,228.5,401.13,229.47,401.13,230.67z"/>
<path fill="#000000" id="XMLID_954_" d="M511.91,225.27c0,8.41,6.81,15.22,15.22,15.22c8.4,0,15.22-6.81,15.22-15.22c0-8.4-6.81-15.22-15.22-15.22
	C518.72,210.05,511.91,216.87,511.91,225.27z"/>
<path fill="#000000" id="XMLID_953_" d="M257.66,225.27c0,8.41,6.81,15.22,15.22,15.22c8.4,0,15.22-6.81,15.22-15.22c0-8.4-6.81-15.22-15.22-15.22
	C264.47,210.05,257.66,216.87,257.66,225.27z"/>
<path class="af" fill="#000000" d="M273.602,481.306c-0.578-0.576-1.301-1.03-2.174-1.362c-0.873-0.331-1.885-0.497-3.039-0.497
	c-0.663,0-1.463,0.079-2.4,0.238v-6.077h-1.535v17.711c0.706,0.202,1.402,0.354,2.087,0.454s1.301,0.151,1.849,0.151
	c1.153,0,2.166-0.162,3.039-0.486s1.596-0.764,2.174-1.319c0.576-0.555,1.006-1.211,1.287-1.968s0.42-1.561,0.42-2.411
	s-0.139-1.657-0.42-2.422C274.608,482.554,274.178,481.883,273.602,481.306z M272.391,489.167c-0.852,0.829-2.17,1.243-3.958,1.243
	c-0.39,0-0.805-0.032-1.244-0.097c-0.439-0.065-0.84-0.134-1.2-0.206v-8.845c0.447-0.115,0.887-0.194,1.319-0.237
	c0.433-0.044,0.808-0.065,1.125-0.065c0.894,0,1.668,0.112,2.325,0.335c0.656,0.224,1.199,0.545,1.633,0.963
	c0.432,0.418,0.752,0.919,0.961,1.503s0.314,1.243,0.314,1.979C273.667,487.195,273.241,488.338,272.391,489.167z M247.392,479.446
	c-0.62,0-1.297,0.079-2.033,0.238c-0.735,0.158-1.485,0.433-2.249,0.821l-0.065,1.73c0.548-0.303,0.973-0.52,1.276-0.649
	s0.624-0.237,0.962-0.324c0.338-0.086,0.677-0.158,1.016-0.216s0.667-0.087,0.984-0.087c1.139,0,1.982,0.249,2.53,0.746
	s0.822,1.33,0.822,2.498v0.13c-0.332-0.044-0.732-0.087-1.2-0.13c-0.469-0.043-0.876-0.065-1.222-0.065
	c-1.831,0-3.302,0.311-4.412,0.931c-1.11,0.619-1.665,1.644-1.665,3.07c0,0.707,0.155,1.305,0.465,1.795
	c0.31,0.49,0.713,0.88,1.211,1.168s1.067,0.497,1.708,0.627c0.641,0.13,1.308,0.194,2,0.194c0.807,0,1.6-0.072,2.378-0.216
	c0.779-0.145,1.536-0.368,2.271-0.671v-7.028c0-1.585-0.397-2.742-1.189-3.471C250.189,479.811,248.992,479.446,247.392,479.446z
	 M250.636,489.892c-0.375,0.144-0.858,0.267-1.449,0.367c-0.591,0.102-1.183,0.151-1.773,0.151c-0.505,0-0.984-0.035-1.438-0.108
	c-0.454-0.071-0.84-0.197-1.157-0.378c-0.317-0.18-0.57-0.414-0.757-0.703c-0.188-0.288-0.281-0.663-0.281-1.124
	c0-0.52,0.111-0.934,0.335-1.244c0.224-0.31,0.533-0.551,0.93-0.724c0.396-0.174,0.85-0.296,1.362-0.368
	c0.511-0.072,1.041-0.108,1.589-0.108c0.476,0,0.984,0.029,1.524,0.087c0.541,0.058,0.912,0.108,1.114,0.151V489.892z
	 M258.032,479.868c-0.649,0.122-1.276,0.263-1.881,0.422v11.418h1.535v-10.186c0.202-0.072,0.563-0.147,1.082-0.228
	c0.519-0.079,1.002-0.118,1.449-0.118h1.989v-1.492H260C259.336,479.685,258.681,479.746,258.032,479.868z M-77.92,487.667
	l241.145,0.656l0.663-0.433l-0.632-0.564L-77.92,487.667z M164.994,487.825l1.95,1.95l1.95-1.95l-1.95-1.95L164.994,487.825z
	 M169.559,487.825l3.057,3.057l3.057-3.057l-3.057-3.057L169.559,487.825z M212.359,489.286l-3.395-9.602h-1.514l-3.396,9.602
	l-2.984-9.602h-1.73l3.979,12.023h1.428l3.46-9.645l3.46,9.645h1.427l3.979-12.023h-1.73L212.359,489.286z M238.418,489.589
	c-0.317,0-0.591,0.115-0.822,0.346c-0.231,0.23-0.346,0.505-0.346,0.822c0,0.316,0.115,0.591,0.346,0.821
	c0.23,0.23,0.504,0.346,0.822,0.346c0.317,0,0.591-0.115,0.822-0.346c0.23-0.23,0.346-0.505,0.346-0.821
	c0-0.317-0.116-0.592-0.346-0.822C239.009,489.704,238.735,489.589,238.418,489.589z M193.243,489.286l-3.395-9.602h-1.514
	l-3.396,9.602l-2.984-9.602h-1.73l3.979,12.023h1.428l3.46-9.645l3.46,9.645h1.427l3.979-12.023h-1.73L193.243,489.286z
	 M231.476,489.286l-3.395-9.602h-1.514l-3.396,9.602l-2.984-9.602h-1.73l3.979,12.023h1.428l3.46-9.645l3.46,9.645h1.427
	l3.979-12.023h-1.73L231.476,489.286z M382.732,480.474c-0.426-0.396-0.938-0.667-1.535-0.812c-0.598-0.144-1.271-0.216-2.021-0.216
	c-0.664,0-1.393,0.09-2.184,0.271c-0.793,0.181-1.471,0.4-2.033,0.659c-0.346-0.331-0.818-0.569-1.416-0.714
	c-0.6-0.144-1.273-0.216-2.023-0.216c-0.635,0-1.268,0.058-1.902,0.173l-2.465,0.454v11.635h1.535v-10.38
	c0.447-0.102,0.883-0.188,1.309-0.26c0.424-0.072,0.896-0.108,1.416-0.108c0.605,0,1.125,0.058,1.557,0.173
	c0.434,0.116,0.789,0.321,1.07,0.616c0.281,0.296,0.494,0.711,0.639,1.244s0.217,1.24,0.217,2.119v6.596h1.535v-7.201
	c0-0.663-0.055-1.243-0.162-1.741c-0.109-0.497-0.213-0.861-0.314-1.092c0.086-0.043,0.281-0.119,0.584-0.228
	c0.303-0.107,0.602-0.197,0.898-0.27c0.295-0.072,0.586-0.126,0.875-0.162s0.547-0.055,0.779-0.055c0.59,0,1.102,0.058,1.535,0.173
	c0.432,0.116,0.781,0.317,1.049,0.605c0.266,0.289,0.471,0.703,0.615,1.244c0.145,0.54,0.217,1.251,0.217,2.13v6.596h1.535v-7.201
	c0-0.995-0.111-1.816-0.336-2.466C383.482,481.393,383.158,480.87,382.732,480.474z M280.1,474.581
	c-0.785,0.648-1.18,1.729-1.18,3.243v1.86h-2.551v1.492h2.551v10.531h1.537v-10.531h4.973v-1.492h-4.973v-1.471
	c0-0.635,0.045-1.149,0.141-1.546c0.094-0.396,0.24-0.707,0.443-0.931c0.201-0.223,0.475-0.385,0.82-0.486
	c0.346-0.101,0.779-0.151,1.299-0.151h2.422v-1.492h-2.271C281.956,473.607,280.885,473.932,280.1,474.581z M398.273,487.825
	l3.057,3.057l3.057-3.057l-3.057-3.057L398.273,487.825z M343.322,482.322c0.389-0.418,0.854-0.749,1.395-0.994
	s1.135-0.368,1.783-0.368c0.736,0,1.373,0.076,1.914,0.228s1.121,0.414,1.74,0.789l0.715-1.405c-0.707-0.39-1.393-0.674-2.055-0.854
	c-0.664-0.181-1.436-0.271-2.314-0.271c-0.85,0-1.639,0.155-2.367,0.465c-0.729,0.311-1.367,0.746-1.914,1.309
	c-0.549,0.563-0.98,1.222-1.297,1.979c-0.317,0.757-0.476,1.59-0.476,2.498s0.158,1.74,0.476,2.497
	c0.316,0.757,0.748,1.413,1.297,1.969c0.547,0.555,1.186,0.987,1.914,1.297c0.729,0.311,1.518,0.465,2.367,0.465
	c0.879,0,1.65-0.09,2.314-0.27c0.662-0.181,1.348-0.466,2.055-0.854l-0.715-1.406c-0.619,0.375-1.199,0.639-1.74,0.79
	s-1.178,0.227-1.914,0.227c-0.648,0-1.242-0.119-1.783-0.356c-0.541-0.238-1.006-0.565-1.395-0.984
	c-0.391-0.418-0.693-0.915-0.908-1.492c-0.217-0.576-0.324-1.203-0.324-1.881s0.107-1.305,0.324-1.882
	C342.628,483.238,342.931,482.741,343.322,482.322z M404.387,487.825l1.949,1.95l1.951-1.95l-1.951-1.95L404.387,487.825z
	 M410.701,487.326l-0.664,0.433l0.633,0.564l241.176-0.341L410.701,487.326z M362.611,481.295c-0.549-0.569-1.193-1.02-1.936-1.352
	c-0.742-0.331-1.547-0.497-2.412-0.497c-0.863,0-1.668,0.166-2.41,0.497c-0.742,0.332-1.389,0.782-1.936,1.352
	c-0.549,0.57-0.977,1.229-1.287,1.979c-0.311,0.749-0.465,1.557-0.465,2.422s0.154,1.672,0.465,2.422s0.738,1.409,1.287,1.979
	c0.547,0.569,1.193,1.017,1.936,1.341s1.547,0.486,2.41,0.486c0.865,0,1.67-0.162,2.412-0.486s1.387-0.771,1.936-1.341
	c0.547-0.569,0.977-1.229,1.287-1.979c0.309-0.75,0.465-1.557,0.465-2.422s-0.156-1.673-0.465-2.422
	C363.587,482.524,363.158,481.865,362.611,481.295z M362.394,487.523c-0.217,0.569-0.52,1.067-0.908,1.492
	c-0.389,0.426-0.857,0.765-1.406,1.017c-0.547,0.252-1.152,0.378-1.816,0.378c-0.662,0-1.268-0.126-1.816-0.378
	c-0.547-0.252-1.016-0.591-1.404-1.017c-0.391-0.425-0.693-0.923-0.908-1.492c-0.217-0.569-0.324-1.179-0.324-1.827
	c0-0.649,0.107-1.262,0.324-1.839c0.215-0.576,0.518-1.077,0.908-1.503c0.389-0.425,0.857-0.764,1.404-1.016
	c0.549-0.252,1.154-0.379,1.816-0.379c0.664,0,1.27,0.127,1.816,0.379c0.549,0.252,1.018,0.591,1.406,1.016
	c0.389,0.426,0.691,0.927,0.908,1.503c0.217,0.577,0.324,1.189,0.324,1.839C362.718,486.345,362.611,486.954,362.394,487.523z
	 M296.221,481.295c-0.547-0.569-1.191-1.02-1.936-1.352c-0.742-0.331-1.545-0.497-2.41-0.497s-1.67,0.166-2.412,0.497
	c-0.742,0.332-1.387,0.782-1.936,1.352c-0.547,0.57-0.977,1.229-1.285,1.979c-0.311,0.749-0.465,1.557-0.465,2.422
	s0.154,1.672,0.465,2.422c0.309,0.75,0.738,1.409,1.285,1.979c0.549,0.569,1.193,1.017,1.936,1.341s1.547,0.486,2.412,0.486
	s1.668-0.162,2.41-0.486c0.744-0.324,1.389-0.771,1.936-1.341c0.549-0.569,0.977-1.229,1.287-1.979s0.465-1.557,0.465-2.422
	s-0.154-1.673-0.465-2.422C297.198,482.524,296.77,481.865,296.221,481.295z M296.006,487.523c-0.217,0.569-0.52,1.067-0.908,1.492
	c-0.391,0.426-0.859,0.765-1.406,1.017c-0.549,0.252-1.154,0.378-1.816,0.378c-0.664,0-1.27-0.126-1.816-0.378
	c-0.549-0.252-1.018-0.591-1.406-1.017c-0.389-0.425-0.691-0.923-0.908-1.492s-0.324-1.179-0.324-1.827
	c0-0.649,0.107-1.262,0.324-1.839c0.217-0.576,0.52-1.077,0.908-1.503c0.389-0.425,0.857-0.764,1.406-1.016
	c0.547-0.252,1.152-0.379,1.816-0.379c0.662,0,1.268,0.127,1.816,0.379c0.547,0.252,1.016,0.591,1.406,1.016
	c0.389,0.426,0.691,0.927,0.908,1.503c0.215,0.577,0.324,1.189,0.324,1.839C296.331,486.345,296.221,486.954,296.006,487.523z
	 M309.381,480.463c-0.455-0.39-0.996-0.656-1.623-0.801c-0.627-0.144-1.309-0.216-2.043-0.216c-0.707,0-1.465,0.047-2.271,0.141
	s-1.701,0.234-2.682,0.422v11.699h1.535v-10.402c1.184-0.23,2.293-0.346,3.33-0.346c0.592,0,1.111,0.062,1.559,0.184
	c0.445,0.123,0.818,0.332,1.113,0.628c0.295,0.295,0.525,0.713,0.691,1.254s0.25,1.251,0.25,2.13v6.553h1.535v-7.201
	c0-0.995-0.119-1.82-0.357-2.477C310.18,481.375,309.834,480.852,309.381,480.463z M318.516,490.054
	c-0.346-0.108-0.619-0.277-0.82-0.509c-0.203-0.23-0.35-0.547-0.443-0.951c-0.096-0.403-0.141-0.922-0.141-1.557v-5.86h4.973v-1.492
	h-4.973v-4.347h-1.537v4.347h-2.551v1.492h2.551v6.466c0,0.764,0.109,1.405,0.326,1.925c0.215,0.519,0.525,0.937,0.93,1.254
	c0.402,0.317,0.867,0.544,1.395,0.682c0.525,0.137,1.105,0.205,1.74,0.205h2.271v-1.492h-2.422
	C319.295,490.216,318.862,490.162,318.516,490.054z M337.784,489.589c-0.316,0-0.59,0.115-0.82,0.346s-0.346,0.505-0.346,0.822
	c0,0.316,0.115,0.591,0.346,0.821s0.504,0.346,0.82,0.346c0.318,0,0.592-0.115,0.822-0.346s0.346-0.505,0.346-0.821
	c0-0.317-0.115-0.592-0.346-0.822S338.102,489.589,337.784,489.589z M333.178,486.106c-0.346-0.303-0.785-0.565-1.318-0.789
	c-0.533-0.223-1.182-0.422-1.947-0.595l-0.799-0.173c-1.053-0.216-1.781-0.461-2.184-0.735c-0.404-0.273-0.607-0.678-0.607-1.211
	c0-0.504,0.238-0.904,0.715-1.2c0.475-0.295,1.174-0.443,2.098-0.443c0.793,0,1.477,0.076,2.055,0.228
	c0.576,0.151,1.217,0.421,1.924,0.811l0.691-1.405c-1.412-0.765-2.969-1.146-4.67-1.146c-0.635,0-1.223,0.076-1.764,0.228
	c-0.539,0.151-1.008,0.364-1.404,0.638s-0.711,0.605-0.941,0.994c-0.23,0.39-0.346,0.815-0.346,1.276
	c0,0.462,0.072,0.88,0.217,1.254c0.143,0.375,0.381,0.707,0.713,0.995s0.758,0.537,1.275,0.746c0.52,0.209,1.146,0.4,1.883,0.573
	l0.908,0.194c1.008,0.217,1.729,0.49,2.162,0.822c0.432,0.331,0.648,0.771,0.648,1.318c0,0.39-0.086,0.707-0.26,0.952
	c-0.172,0.245-0.414,0.436-0.725,0.573c-0.311,0.137-0.678,0.237-1.102,0.303c-0.426,0.064-0.877,0.097-1.352,0.097
	c-0.592,0-1.223-0.09-1.893-0.271c-0.67-0.18-1.352-0.479-2.045-0.897l-0.734,1.471c0.779,0.433,1.539,0.742,2.281,0.93
	s1.539,0.281,2.391,0.281c0.748,0,1.434-0.072,2.053-0.216c0.621-0.145,1.158-0.36,1.611-0.648c0.455-0.289,0.805-0.649,1.049-1.082
	c0.246-0.433,0.369-0.93,0.369-1.492c0-0.476-0.072-0.915-0.217-1.318C333.77,486.763,333.526,486.41,333.178,486.106z"/>
</svg>

