<?xml version="1.0" encoding="utf-8"?>
<!-- Generator: Adobe Illustrator 21.0.0, SVG Export Plug-In . SVG Version: 6.00 Build 0)  -->
<svg version="1.1" id="Layer_1" xmlns="http://www.w3.org/2000/svg" xmlns:xlink="http://www.w3.org/1999/xlink" x="0px" y="0px"
	 viewBox="0 0 800 500" style="enable-background:new 0 0 800 500;" xml:space="preserve">
<g id="XMLID_575_">
	<g id="XMLID_690_">
		<path fill="#000000" id="XMLID_869_" d="M637.7,326.3c-9.3,6.3-19.2,8.7-30.2,6.3c-9.6-2.1-18.3-7.2-27.1-11.1c-9.9-4.4-20.2-7.1-31.2-6.2
			c-1.7,0.2-7.2,2.5-7.7,0.5c-0.4-1.8-0.4-3.7-0.5-5.5c-0.2-6.3,0.2-12.7,1.4-18.9c0.2-1.1,0.8-3.3,0.9-3.7c0.2-0.7,0.5-1.4,0.8-2.1
			c-2.7,7.1-6.3,14.3-11.6,19.8c2-2,4.4-2.8,7.1-2.7c8,0.2,15.2,7.5,20.2,12.8c5.8,6.1,10.4,13.4,14.2,20.9
			c4.8,9.7,8.2,20.5,9.4,31.3c0.5,4.6,0.6,9.3,0.2,13.9c-0.2,2.1-0.5,4.2-1,6.2c-0.3,1.2-0.3,1.1-0.5,1.9c-0.2,0.4-0.3,0.9-0.5,1.3
			c2.5-6.5,6.8-13.4,11.1-19.1c-1,1.3-0.2,0.3-0.9,1c-0.6,0.6-1.3,1.1-1.9,1.5c-1.4,1-2.8,1.6-4.4,2.1c-4.1,1.3-8.6,0.9-12.7,0
			c-14.4-3.1-27-13.3-37.7-22.5c-1.1-0.9-9.5,13.1-10,13.9c-0.8,1.4-8.9,14-7,15.6c12.3,10.6,31.5,27,49.8,22.7
			c7.5-1.8,12-8.1,16.1-14.1c6.9-10.2,13.8-21.8,16.3-33.9c3.1-14.9-0.7-31.2-6.2-45c-6-15-16.7-32-32.1-38.9
			c-4.7-2.1-9.9-1.6-13.8,2c-4.9,4.6-8.3,11-11.7,16.7c-3.4,5.9-6.7,12-9,18.4c-3.7,10.2-4.6,22.2-3.1,32.8c0.3,1.7,0.2,1.8,2.1,1.4
			c5.5-1.3,11.1-1.4,16.6-0.8c9.6,1,18.5,5.1,27,9.1c8,3.7,16,7.7,24.9,8.9c9.8,1.3,19.1-2.3,27.2-7.7c1.9-1.3,3.6-4.5,4.8-6.3
			c2.4-3.7,4.6-7.4,6.7-11.3c1.6-3,3.2-6,4.4-9.2C638.1,328.2,639.4,325.2,637.7,326.3"/>
		<path fill="#000000" id="XMLID_867_" d="M277.4,336.8c-7.8,7.1-13.2,17.6-18,26.7c-4.7,8.9-8.6,18.1-11.7,27.7c-3.4,10.7-7.8,23.1-8.2,34.4
			c-0.1,1.9,1.8-0.6,2-0.9c2.2-2.6,4-5.6,5.8-8.4c2.3-3.7,4.4-7.5,6.4-11.4c1-1.9,2.9-5,3-7.3c0.4-7.1-3.9-12.8-8.7-17.6
			c-6.9-7-15.4-12.6-23.5-18.2c-8.5-5.9-17.1-11.6-24.7-18.5c-3.1-2.8-5.9-5.8-8.2-9.2c-1.3-1.9-4.4-6.5-3.7-9
			c-3.9,7.4-7.8,14.8-11.6,22.1c0,0,0-0.1,0.1-0.1c-1.6,2.1-3.2,4.2-4.8,6.3c-0.3,0.2,0.1-0.1,1-0.1c1,0,2,0.1,3,0.2
			c3.6,0.3,7.2,0.9,10.7,1.5c11.2,1.7,22.3,3.1,33.6,3.8c25.9,1.5,55.2-1.3,75.5-19.6c5-4.5,8.4-11.8,11.5-17.6c1.6-3,3.2-6,4.4-9.2
			c-0.1,0.3,1.4-3.6-0.3-2.1c-31.7,28.4-79.1,18.6-116.7,13.9c-1.8-0.2-3.6-0.5-5.4-0.3c-4.7,0.4-9.3,11.2-11.1,14.4
			c-3.4,5.9-8.4,12.2-6.4,19c1.1,3.8,3.6,7.2,6.1,10.2c13,15.3,32.4,24.4,47.8,37c6.2,5.1,14.6,12.4,14.2,21.2
			c5.7-9.3,11.5-18.7,17.2-28c0.2-7.1,2.7-14.7,4.5-21.6c1.4-5.3,3-10.5,4.8-15.7c0.9-2.7,1.7-4.5,2.7-6.8c-1.6,3.5-4.1,7.4-6,10.4
			c-3.1,4.8-2,2.7-0.9,1.7c5-4.5,8.4-11.8,11.5-17.6c1.6-3,3.2-6,4.4-9.2C277.5,339.2,279,335.3,277.4,336.8"/>
		<path fill="#000000" id="XMLID_858_" d="M309.7,355.3c13.6-9.6,30.9-9.6,46.5-7.4c19.4,2.7,38,9.1,56.3,15.4c17.4,6,34.7,12.7,52.7,17
			c11.3,2.7,26.3,5.5,36.3-2.6c5-4.1,8.5-12.1,11.5-17.6c1.6-3,3.2-6,4.4-9.2c0,0.1,1.4-3.5-0.3-2.1c-9.7,7.9-25.1,4.3-35.9,1.8
			c-18.1-4.3-35.5-11.1-52.9-17.2c-18.3-6.3-36.9-12.5-56.3-15.1c-15.9-2.2-33.1-1.4-46.8,8.2c-1.9,1.4-3.6,4.4-4.8,6.3
			c-2.4,3.7-4.6,7.4-6.7,11.3c-1.6,3-3.2,6-4.4,9.2C309.4,353.4,308.1,356.5,309.7,355.3"/>
		<path fill="#000000" id="XMLID_704_" d="M511.7,354.6c-10.6,7.7-26.7,7.2-39,7.3c-20,0.1-40-1.3-60-1.2c-21,0.1-42.4,1.5-62.6,7.7
			c-20.2,6.1-36.6,17.7-49,34.7c1.2-1.2,2.4-2.5,3.5-3.7c-9.2-14.4-17.4-29.5-24.9-44.9c-6-12.3-11.4-25-15.2-38.2
			c-2.7-9.2-5.5-21.8-2-30.5c2.5-6.1-4.5,3.4-5.1,4.2c-4.2,6.5-8.2,13.3-11.1,20.5c-4,10.1-2.4,20.9,0,31.1
			c3.3,13.6,8.8,26.6,14.8,39.2c7.8,16.6,16.6,32.8,26.5,48.2c0.4,0.6,3.8-4.1,3.5-3.8c23.4-32.2,72.1-35,108.5-34.9
			c19.4,0,38.8,1.4,58.2,1.2c12.4-0.1,27.7-0.2,38.3-7.9c1.9-1.4,3.5-4.4,4.8-6.3c2.4-3.7,4.6-7.4,6.7-11.3c1.6-3,3.2-6,4.4-9.2
			C512,356.6,513.3,353.4,511.7,354.6"/>
		<path fill="#000000" id="XMLID_703_" d="M476,284.2c-1,8.4,1.7,14.5,9.3,18.4c7.2,3.7,15.4,4.9,21.8,10c1.2,1,9.5-13.1,10-13.9
			c0.7-1.3,8.9-14.1,7-15.6c-11.3-8.9-33.2-7.7-30.9-26.9c0.2-2-2,0.8-2,0.9c-2.2,2.6-4,5.6-5.8,8.4
			C482.3,270.6,476.8,277.9,476,284.2"/>
		<path fill="#000000" id="XMLID_702_" d="M525.2,366.2c-4.7,8.3-9.5,16.8-10.4,26.4c-0.7,7,0.5,14.2,2.2,20.9c4.2,16.4,14.4,31.8,29.5,40.2
			c5-9.3,10.1-18.6,15.1-27.9c1.5-1.8,1.7-1.2-0.2-1.2c-1.5,0-3-0.2-4.4-0.3c-4.8-0.5-9.6-1.4-14.3-2.2c-15.5-2.6-31-5.3-46.6-7.6
			c-40.3-5.9-81.8-10.2-122.7-5.3c-26.3,3.1-53.8,11-72.1,31.4c-5.1,5.7-8.8,13.2-12.2,19.9c-0.5,1.1-5.4,11.3-1,6.4
			c11.1-12.5,27.6-19.3,43.4-23.5c19.3-5.2,39.5-6.5,59.3-6.6c39.3-0.2,78.3,5.4,116.8,11.9c9.3,1.6,18.7,3.3,28,4.7
			c4.1,0.6,9.6,2.4,12.8-1.2c2-2.3,17.8-26.4,15.1-27.9c-12.9-7.1-21.7-19.1-27-32.6c-2.4-6.1-4-12.6-4.5-19.2
			c-0.2-3-0.2-5.9,0.1-8.9c0.6-6.5,5.1-11.5-3.9,4.3c0.6-1,8.7-14.6,7-15.6C533.5,351.3,525.8,365.2,525.2,366.2"/>
		<path fill="#000000" id="XMLID_701_" d="M176,283.2c-0.3-1.3-0.1-5.7-1.1-3.6c-2.6,4.9-5.3,9.7-7.9,14.6c-7.4,11.9-4.7,5.8,1.7,3.6
			c3.2-1.1,6.7-1.5,10.1-1.8c8.1-0.7,16.3,0.2,24.4,0.5c16.1,0.6,31.1-1.4,42.1-14.5c4.9-5.9,8.8-13.1,12.2-19.9
			c0.5-1,5.3-11.5,1-6.4c-13.9,16.6-39.7,10.4-58.3,10.6c-7.7,0.1-17.5,1.1-23.2,7c-7,7.1-12,17.3-16.1,26.1
			c-2.2,4.7-3.2,8.5-1.8,13.4c0.2,0.6,3.9-4.2,3.5-3.8c2.3-3.3,4.4-6.7,6.5-10.2c2-3.5,3.9-7,5.6-10.7
			C175,286.9,176.3,284.6,176,283.2"/>
		<path fill="#000000" id="XMLID_699_" d="M300,270.6c-1.4-5.3,2-8.3-4.2,3.6c-2.9,4.7-5.8,9.4-8.7,14.1c-1.6,2.4,0.4,0.2,1.1-0.3
			c1.1-0.7,2.4-1.2,3.7-1.7c2.7-1,5.6-1.5,8.5-1.9c7.4-1,14.9,0.6,22,2.3c13,3,27.3,6.9,37.8-4.3c4.8-5.1,8.2-11.5,11.5-17.6
			c1.6-3,3.2-6,4.4-9.2c-0.2,0.6,1.4-3.9-0.3-2.1c-14.6,15.5-38.1,0.6-55.7,1.1c-7,0.2-15.3,2.3-20.1,7.7
			c-5.8,6.6-10.1,14.7-14,22.5c-2.6,5.1-4.5,9.5-3.1,15.1c0.2,0.6,3.9-4.2,3.5-3.8c2.3-3.3,4.4-6.7,6.5-10.2c2-3.5,3.9-7,5.6-10.7
			C299.1,274.3,300.4,272,300,270.6"/>
		<path fill="#000000" id="XMLID_698_" d="M529.1,60.8c-7.8,20.3-11.3,41.1-10.3,62.4c0.9,19.3,5.4,38.1,11.1,56.3c5.1,16.3,11.4,32.1,16.2,48.5
			c3.6,12.2,6.7,25.6,3,38.4c-0.6,2.2,2.3-1.1,2-0.8c2.3-2.5,4.2-5.4,6.1-8.2c3.7-5.5,8.3-11.8,10.1-18.2c3.6-12.1,1-24.9-2.1-36.5
			c-4.2-15.8-10.3-30.9-15.4-46.4c-12.6-38.4-19-79.4-3.6-119.3c2.3-6.1-4.5,3.1-5.2,4C536.6,47,531.8,53.8,529.1,60.8"/>
		<path fill="#000000" id="XMLID_697_" d="M488.2,57.8c-14.9,32.9-12.8,70.5-8.4,104.7c3.7,28.6,11,56.2,17,84.3c6-9.5,12.1-19.1,18.1-28.6
			c-25.3-18.4-54.1-32.3-80.8-48.6c-15.2-9.2-30.1-18.8-44-29.8c-9.6-7.6-20.3-16.4-25.3-27.8c-0.3-0.6-4,4-3.7,3.6
			c-2.5,3.2-4.7,6.5-6.8,9.9c-2.1,3.4-4.2,6.8-6,10.4c-0.4,0.8-2.2,3.6-1.6,4.8c4.8,11.1,15.1,19.6,24.4,27.1
			c13.7,11,28.7,20.5,43.8,29.8c27.1,16.6,56.4,30.7,82,49.3c1.3,0.9,19-24.5,18.1-28.6c-5.7-27.1-12.7-53.8-16.6-81.4
			c-4.6-32.9-7.5-71,7-102.9c2.7-6-4.6,3.2-5.2,4C495.6,44.2,491.3,50.8,488.2,57.8"/>
		<path fill="#000000" id="XMLID_696_" d="M346.5,140.6c6,4.2,13.6,6.5,20.6,8.8c10.9,3.6,22.1,6.3,33.4,8.3c10.4,1.9,21,3.2,31.7,2.9
			c7.6-0.3,15.6-1.6,20.9-7.6c4.2-4.8,7.6-10.4,10.9-15.8c1.7-2.9,3.5-5.8,4.8-8.9c0.1-0.3,1.5-3.1-0.2-2.1
			c-9.5,5.7-17.3,14-24.3,22.4c-10.9,13.1-20.3,27.3-29.1,41.8c-6.9,11.3-13.2,23.1-18.5,35.1c-2.6,6-6.4,13.6-5.6,20.1
			c0.8-0.2,1.5-0.8,2-1.5c2.3-2.5,4.2-5.4,6.1-8.2c2.4-3.6,4.7-7.3,6.8-11.1c1.1-1.9,3.1-4.8,3.3-7.1c0.9-8.7-7.9-14.8-14-19.2
			c-10.9-7.8-22.8-14.2-34.1-21.3c-21-13.4-48.7-33.4-40.9-62.3c0.6-2.2-2.2,1.1-2,0.8c-2.3,2.5-4.2,5.4-6.1,8.2
			c-3.6,5.4-8.5,11.8-10.1,18.2c-7.7,29,18.1,48.9,39.3,62.6c11.4,7.4,23.4,13.9,34.5,21.5c5.7,3.9,16.1,10.6,15.3,18.7
			c6.1-9.3,12.1-18.6,18.2-27.9c-0.5-4.2,2.1-9.5,3.7-13.4c1.5-3.7,2.5-5.7,4.2-9.2c0.4-0.8,0.8-1.5,1.2-2.3c2-3.8-1.2,2.2,0.9-1.6
			c0.7-1.2,1.3-2.4,2-3.6c-1.7,3,0.6-1,0.8-1.3c1-1.7,1-1.6-0.1,0.2c0.8-1.2,1.5-2.4,2.3-3.7c-1.1,1.7-1.2,1.8-0.1,0.1
			c2.7-4-1.8,2.5,1-1.5c2-2.8,4.6-6.2,7.7-9.8c5.5-6.4,11.8-12.4,19.1-16.7c5.2-8.9,10.3-17.9,15.5-26.8c-0.6,0.7-4.4,2.6-7,3.2
			c-3.9,1-8.1,1.2-12.1,1.3c-10.8,0.2-21.7-1.4-32.2-3.4c-10.5-2-20.8-4.6-30.9-7.9c-7-2.2-14.5-4.6-20.6-8.8
			C363.2,111,343.9,138.8,346.5,140.6"/>
		<path fill="#000000" id="XMLID_695_" d="M310.9,182.8c-6,10.9-9.7,21.8-11.3,33.9c-1.2,9.1-0.8,18.4-2.7,27.5c6.1-9.3,12.1-18.6,18.2-27.9
			c-17.4-16.6-31.6-35.8-42.3-57.3c-7-14-11.8-28.9-16.9-43.7c-0.2-0.6-4,4-3.7,3.6c-2.5,3.2-4.7,6.5-6.8,9.9
			c-2.1,3.4-4.2,6.8-6,10.4c-0.6,1.1-2,3.4-1.6,4.8c3.5,14.9,4,30.6,3.3,46c-0.4,9-1.5,17.9-3.4,26.8c-0.9,4.2-2.1,8.4-3.4,12.6
			c-3,8.9-4.6,7,4.2-4.4c-4.9,6.3-9.2,13.2-12.8,20.2c0,0-2.4,4.3-1.6,4.8c0.8,0.5,3.6-3.6,3.7-3.6c17.1-22.2,27.8-45.9,30.8-73
			c2.1-19.1,1.8-39.4-2.5-57.9c-6,9.5-12.1,19.1-18.1,28.6c4.9,14.4,9.7,28.7,16.3,42.4c10.6,22,25.3,41.8,43,58.6
			c1.2,1.1,17.4-24.4,18.2-27.9c1.5-7.4,1.6-15,2.2-22.5c0.4-4.5,1-9,1.9-13.5c0.5-2.3,1.1-4.6,1.7-6.8c0.3-1.2,0.7-2.3,1.2-3.4
			c0.8-1.8,0.9-2.2,0.4-1c0.5-0.9,5.7-11.2,1.3-6.3C318.7,169.2,314.6,176.1,310.9,182.8"/>
		<path fill="#000000" id="XMLID_694_" d="M333.9,74.5c9.4-8.6,23.3-6.9,34.1-3.2c7.8,2.7,21.4,9.5,21,19.4c0,0.9,3.7-4,4-4.5
			c1.7-2.6,4.5-6,5.1-9.1c0.2-1,0.4-1.9,0.6-2.9c1-4.4,3.2-3.6-1.8,1.3c2.1-2,4.8-3.2,7.6-4c5.4-1.5,10.6-0.2,15.6,1.4
			c10.2,3.1,20.5,7.4,29-2.3c2.5-2.9,4.6-6.3,6.4-9.6c0.2-0.4,2.8-5.6,0.7-3.1c-5.8,6.7-14.1,4.8-21.3,2.6
			c-7.1-2.2-13.6-4.8-21.3-3.2c-6.3,1.3-10.5,6.1-14,11.1c-4.8,6.9-8.9,14.2-10.5,22.4c3-4.5,6.1-9.1,9.1-13.6
			c0.4-10.5-12.7-17-21.1-20.1c-10.8-4.1-25.3-5.2-34.8,3.4c-2.5,2.3-4.4,5.6-6.1,8.5c-0.9,1.4-1.7,2.9-2.4,4.5
			C333.9,73.3,333,75.3,333.9,74.5"/>
		<path fill="#000000" id="XMLID_693_" d="M307.6,64.5c-4.3,9.4-8.7,18.7-12.4,28.3c2.9-4.4,5.9-8.8,8.8-13.1c-2.5-11-5.8-24.3-18-28.1
			c-10.5-3.2-18.5,7.4-23.6,14.8c-1.8,2.6-4.4,6-5.1,9.1c-0.2,0.7,3.6-3.9,4-4.5c4.7-6.9,14.7-6.5,20.7-2.8
			c8.5,5.3,10.9,16.6,13,25.7c0,0,3.8-4.5,4-4.9c1.7-2.6,3.7-5.4,4.8-8.3c3.7-9.6,8.1-18.9,12.4-28.3c1.4-3-2.3,1.6-2.6,2
			C311.3,57.7,309.3,61,307.6,64.5"/>
		<path fill="#000000" id="XMLID_692_" d="M433.1,247.1c1.2-1.8,3.5-4.7,3.6-7c0.1-1.4-3.5-1.8-4.4-1.9c-5.4-0.9-10.4,0.6-13.5,5.2
			c-2.8,4.2-7.6,12-1.8,16c2.9,2,7.7,0.9,10.9,0.5c4.2-0.6,8.4-1.6,12.7-1.7l5-8.7c-6.7,0.7-13.3,1.5-19.6,4.1
			c-6.7,2.8-10.5,9.1-13.1,15.5c-3.1,7.7,3.1,12.9,10,14.1c8.7,1.6,17.5-2.2,22.5-9.4c1.4-1.9,2.6-4,3.6-6.2
			c0.7-1.5,0.4-1.8-0.6-0.4c-6.1,8.7-29.6,12.1-31-2.2c-0.3-3.4,2.4-4.7-2.2,1.1c0.9-1.1,2.1-1.9,3.3-2.6c2.6-1.6,5.6-2.5,8.6-3.3
			c4.4-1.2,9-1.6,13.5-2.1c2.3-0.3,4-8.7,5-8.7c-6.5,0.2-22.2,6.5-25.9-1.5c-0.6-1.2-0.5-2.6-0.3-3.9c-0.5,5-4.8,5.9-1.4,3.9
			c1.7-1,3.9-1.2,5.8-1.3c1,0,7.8,0.1,7.7,1.9c1.1-2.2,2.3-4.4,3.4-6.6c0,0.1-0.1,0.1-0.1,0.2c-1.2,1.9-2.5,3.9-3.3,6.1
			C430.9,250.2,433,247.4,433.1,247.1"/>
		<path fill="#000000" id="XMLID_691_" d="M268.9,418.2c-5.1,5.7-11.1,10.6-15.8,16.7c-4.3,5.5-9.4,12.9-10.7,19.8c-1.1,5.6,0.2,11.9,6.6,13.2
			c5.1,1,11.2-2.4,14.7-5.9c2.4-2.4,4.1-5.8,5.8-8.8c0.8-1.5,1.6-3,2.2-4.6c-0.1,0.2,0.7-1.9-0.1-1.1c-4.8,4.8-14.5,8.8-19.4,2.3
			c-1.3-1.7-1.5-4.4-1.5-6.4c0-1.1,0.2-2.1,0.5-3.2c-2.5,8.1-5.3,8.1-1.1,3.7c4-4.3,8.4-8.2,12.3-12.6c2.5-2.8,4.4-6.6,6.1-9.9
			C268.7,420.9,271.1,415.8,268.9,418.2"/>
	</g>
	<g id="XMLID_651_">
		<path fill="#000000" id="XMLID_689_" d="M640.8,330.2c-9.3,6.3-19.2,8.7-30.1,6.3c-9.6-2.1-18.3-7.2-27.1-11.1c-9.9-4.4-20.2-7.1-31.2-6.2
			c-1.7,0.2-7.2,2.5-7.7,0.5c-0.4-1.8-0.4-3.7-0.5-5.5c-0.2-6.3,0.2-12.7,1.4-18.9c0.2-1.1,0.8-3.3,0.9-3.7c0.2-0.7,0.5-1.4,0.8-2.1
			c-2.7,7.1-6.3,14.3-11.6,19.8c2-2,4.4-2.8,7.1-2.7c8,0.2,15.2,7.5,20.2,12.8c5.8,6.1,10.4,13.4,14.2,20.9
			c4.8,9.7,8.2,20.5,9.4,31.3c0.5,4.6,0.6,9.3,0.2,13.9c-0.2,2.1-0.5,4.2-1,6.2c-0.3,1.2-0.3,1.1-0.5,1.9c-0.2,0.4-0.3,0.9-0.5,1.3
			c2.5-6.5,6.8-13.4,11.1-19.1c-1,1.3-0.2,0.3-0.9,1c-0.6,0.6-1.3,1.1-1.9,1.5c-1.4,1-2.8,1.6-4.4,2.1c-4.1,1.3-8.6,0.9-12.7,0
			c-14.4-3.1-27-13.3-37.7-22.5c-1.1-0.9-9.5,13.1-10,13.9c-0.8,1.4-8.9,14-7,15.6c12.3,10.6,31.5,27,49.8,22.7
			c7.5-1.8,12-8.1,16.1-14.1c6.9-10.2,13.8-21.8,16.3-33.9c3.1-14.9-0.7-31.2-6.2-45c-6-15-16.7-32-32.1-38.9
			c-4.7-2.1-9.9-1.6-13.8,2c-4.9,4.6-8.3,11-11.7,16.7c-3.4,5.9-6.7,12-9,18.4c-3.7,10.2-4.6,22.2-3.1,32.8c0.2,1.7,0.2,1.8,2.1,1.4
			c5.5-1.3,11.1-1.4,16.6-0.8c9.6,1,18.5,5.1,27,9.1c8,3.7,16,7.7,24.9,8.9c9.8,1.3,19.1-2.3,27.2-7.7c1.9-1.3,3.6-4.5,4.8-6.3
			c2.4-3.7,4.6-7.4,6.7-11.3c1.6-3,3.2-6,4.4-9.2C641.2,332.1,642.5,329.1,640.8,330.2"/>
		<path fill="#000000" id="XMLID_688_" d="M280.5,340.7c-7.8,7.1-13.2,17.6-18,26.7c-4.7,8.9-8.6,18.1-11.7,27.7c-3.4,10.7-7.8,23.1-8.2,34.4
			c-0.1,1.9,1.8-0.6,2-0.9c2.2-2.6,4-5.6,5.8-8.4c2.3-3.7,4.4-7.5,6.4-11.4c1-1.9,2.9-5,3-7.3c0.4-7.1-3.9-12.8-8.7-17.6
			c-6.9-7-15.4-12.6-23.5-18.2c-8.5-5.9-17.1-11.6-24.7-18.5c-3.1-2.8-5.9-5.8-8.2-9.2c-1.3-1.9-4.4-6.5-3.7-9
			c-3.9,7.4-7.7,14.8-11.6,22.1c0,0,0-0.1,0.1-0.1c-1.6,2.1-3.2,4.2-4.8,6.3c-0.3,0.2,0.1-0.1,1-0.1c1,0,2,0.1,3,0.2
			c3.6,0.3,7.2,0.9,10.7,1.5c11.2,1.7,22.3,3.1,33.6,3.8c25.9,1.5,55.2-1.3,75.5-19.6c5-4.5,8.4-11.8,11.5-17.6c1.6-3,3.2-6,4.4-9.2
			c-0.1,0.3,1.4-3.6-0.3-2.1c-31.7,28.4-79.1,18.6-116.7,13.9c-1.8-0.2-3.6-0.5-5.4-0.3c-4.7,0.4-9.3,11.2-11.1,14.4
			c-3.4,5.9-8.4,12.2-6.4,19c1.1,3.8,3.6,7.2,6.1,10.2c13,15.3,32.4,24.4,47.8,37c6.2,5.1,14.6,12.4,14.2,21.2
			c5.7-9.3,11.5-18.7,17.2-28c0.2-7.1,2.7-14.7,4.5-21.6c1.4-5.3,3-10.5,4.8-15.7c0.9-2.7,1.7-4.5,2.7-6.8c-1.6,3.5-4.1,7.4-6,10.4
			c-3.1,4.8-2,2.7-0.9,1.7c5-4.5,8.4-11.8,11.5-17.6c1.6-3,3.2-6,4.4-9.2C280.6,343.1,282.1,339.1,280.5,340.7"/>
		<path fill="#000000" id="XMLID_687_" d="M312.8,359.2c13.6-9.6,30.9-9.6,46.5-7.4c19.4,2.7,38,9.1,56.3,15.4c17.4,6,34.7,12.7,52.7,17
			c11.3,2.7,26.3,5.5,36.3-2.6c5-4.1,8.5-12.1,11.5-17.6c1.6-3,3.2-6,4.4-9.2c0,0.1,1.4-3.5-0.3-2.1c-9.7,7.9-25.1,4.3-35.9,1.8
			c-18.1-4.3-35.5-11.1-52.9-17.2c-18.3-6.3-36.9-12.5-56.3-15.1c-15.9-2.2-33.1-1.4-46.8,8.2c-1.9,1.4-3.6,4.4-4.8,6.3
			c-2.4,3.7-4.6,7.4-6.7,11.3c-1.6,3-3.2,6-4.4,9.2C312.5,357.2,311.2,360.3,312.8,359.2"/>
		<path fill="#000000" id="XMLID_686_" d="M514.8,358.5c-10.6,7.7-26.7,7.2-39,7.3c-20,0.1-40-1.3-60-1.2c-21,0.1-42.4,1.5-62.6,7.7
			c-20.2,6.1-36.6,17.7-49,34.7c1.2-1.2,2.4-2.5,3.5-3.7c-9.2-14.4-17.4-29.5-24.9-44.9c-6-12.3-11.4-25-15.2-38.2
			c-2.7-9.2-5.5-21.8-2-30.5c2.5-6.1-4.5,3.4-5.1,4.2c-4.2,6.5-8.2,13.3-11.1,20.5c-4,10.1-2.4,20.9,0,31.1
			c3.3,13.6,8.8,26.6,14.8,39.2c7.8,16.6,16.6,32.8,26.5,48.2c0.4,0.6,3.8-4.1,3.5-3.8c23.4-32.2,72.1-35,108.5-34.9
			c19.4,0,38.8,1.4,58.2,1.2c12.4-0.1,27.7-0.2,38.3-7.9c1.9-1.4,3.5-4.4,4.8-6.3c2.4-3.7,4.6-7.4,6.7-11.3c1.6-3,3.2-6,4.4-9.2
			C515.1,360.5,516.4,357.3,514.8,358.5"/>
		<path fill="#000000" id="XMLID_685_" d="M479.1,288c-1,8.4,1.7,14.5,9.3,18.4c7.2,3.7,15.4,4.9,21.8,10c1.2,1,9.5-13.1,10-13.9
			c0.7-1.3,8.9-14.1,7-15.6c-11.3-8.9-33.2-7.7-30.9-26.9c0.2-2-2,0.8-2,0.9c-2.2,2.6-4,5.6-5.8,8.4
			C485.4,274.5,479.9,281.8,479.1,288"/>
		<path fill="#000000" id="XMLID_684_" d="M528.3,370c-4.7,8.3-9.5,16.8-10.4,26.4c-0.7,7,0.5,14.2,2.2,20.9c4.2,16.4,14.4,31.8,29.5,40.2
			c5-9.3,10.1-18.6,15.1-27.9c1.5-1.8,1.7-1.2-0.2-1.2c-1.5,0-3-0.2-4.4-0.3c-4.8-0.5-9.6-1.4-14.3-2.2c-15.5-2.6-31-5.3-46.6-7.6
			c-40.3-5.9-81.8-10.2-122.7-5.3c-26.3,3.1-53.8,11-72.1,31.4c-5.1,5.7-8.8,13.2-12.2,19.9c-0.5,1.1-5.4,11.3-1,6.4
			c11.1-12.5,27.6-19.3,43.4-23.5c19.3-5.2,39.5-6.5,59.3-6.6c39.3-0.2,78.3,5.4,116.8,11.9c9.3,1.6,18.7,3.3,28,4.7
			c4.1,0.6,9.6,2.4,12.8-1.2c2-2.3,17.8-26.4,15.1-27.9c-12.9-7.1-21.7-19.1-27-32.6c-2.4-6.1-4-12.6-4.5-19.2
			c-0.2-3-0.2-5.9,0.1-8.9c0.6-6.5,5.1-11.5-3.9,4.3c0.6-1,8.7-14.6,7-15.6C536.6,355.2,528.9,369,528.3,370"/>
		<path fill="#000000" id="XMLID_683_" d="M179.1,287.1c-0.3-1.3-0.1-5.7-1.1-3.6c-2.6,4.9-5.3,9.7-7.9,14.6c-7.4,11.9-4.7,5.8,1.7,3.6
			c3.2-1.1,6.7-1.5,10.1-1.8c8.1-0.7,16.3,0.2,24.4,0.5c16.1,0.6,31.1-1.4,42.1-14.5c4.9-5.9,8.8-13.1,12.2-19.9
			c0.5-1,5.3-11.5,1-6.4c-13.9,16.6-39.7,10.4-58.3,10.6c-7.7,0.1-17.5,1.1-23.2,7c-7,7.1-12,17.3-16.1,26.1
			c-2.2,4.7-3.2,8.5-1.8,13.4c0.2,0.6,3.9-4.2,3.5-3.8c2.3-3.3,4.4-6.7,6.5-10.2c2-3.5,3.9-7,5.6-10.7
			C178.1,290.8,179.4,288.5,179.1,287.1"/>
		<path fill="#000000" id="XMLID_682_" d="M303.1,274.4c-1.4-5.3,2-8.3-4.2,3.6c-2.9,4.7-5.8,9.4-8.7,14.1c-1.6,2.4,0.4,0.2,1.1-0.3
			c1.1-0.7,2.4-1.2,3.7-1.7c2.7-1,5.6-1.5,8.5-1.9c7.4-1,14.9,0.6,22,2.3c13,3,27.3,6.9,37.8-4.3c4.8-5.1,8.2-11.5,11.5-17.6
			c1.6-3,3.2-6,4.4-9.2c-0.2,0.6,1.4-3.9-0.3-2.1c-14.6,15.5-38.1,0.6-55.7,1.1c-7,0.2-15.3,2.3-20.1,7.7
			c-5.8,6.6-10.1,14.7-14,22.5c-2.6,5.1-4.5,9.5-3.1,15.1c0.2,0.6,3.9-4.2,3.5-3.8c2.3-3.3,4.4-6.7,6.5-10.2c2-3.5,3.9-7,5.6-10.7
			C302.2,278.1,303.5,275.9,303.1,274.4"/>
		<path fill="#000000" id="XMLID_681_" d="M532.2,64.6c-7.8,20.3-11.3,41.1-10.3,62.4c0.9,19.3,5.4,38.1,11.1,56.3c5.1,16.3,11.4,32.1,16.2,48.5
			c3.6,12.2,6.7,25.6,3,38.4c-0.6,2.2,2.3-1.1,2-0.8c2.3-2.5,4.2-5.4,6.1-8.2c3.7-5.5,8.3-11.8,10.1-18.2c3.6-12.1,1-24.9-2.1-36.5
			c-4.2-15.8-10.3-30.9-15.4-46.4c-12.6-38.4-19-79.4-3.6-119.3c2.3-6.1-4.5,3.1-5.2,4C539.7,50.8,534.9,57.6,532.2,64.6"/>
		<path fill="#000000" id="XMLID_680_" d="M491.3,61.7c-14.9,32.9-12.8,70.5-8.4,104.7c3.7,28.6,11,56.2,17,84.3c6-9.5,12.1-19.1,18.1-28.6
			c-25.3-18.4-54.1-32.3-80.8-48.6c-15.2-9.2-30.1-18.8-44-29.8c-9.6-7.6-20.3-16.4-25.3-27.8c-0.3-0.6-4,4-3.7,3.6
			c-2.5,3.2-4.7,6.5-6.8,9.9c-2.1,3.4-4.2,6.8-6,10.4c-0.4,0.8-2.2,3.6-1.6,4.8c4.8,11.1,15.1,19.6,24.4,27.1
			c13.7,11,28.7,20.5,43.8,29.8c27.1,16.6,56.4,30.7,82,49.3c1.3,0.9,19-24.5,18.1-28.6c-5.7-27.1-12.7-53.8-16.6-81.4
			c-4.6-32.9-7.5-71,7-102.9c2.7-6-4.6,3.2-5.2,4C498.7,48.1,494.4,54.7,491.3,61.7"/>
		<path fill="#000000" id="XMLID_679_" d="M349.6,144.5c6,4.2,13.6,6.5,20.6,8.8c10.9,3.6,22.1,6.3,33.4,8.3c10.4,1.9,21,3.2,31.7,2.9
			c7.6-0.3,15.6-1.6,20.9-7.6c4.2-4.8,7.6-10.4,10.9-15.8c1.7-2.9,3.5-5.8,4.8-8.9c0.1-0.3,1.5-3.1-0.2-2.1
			c-9.5,5.7-17.3,14-24.3,22.4c-10.9,13.1-20.3,27.3-29.1,41.8c-6.9,11.3-13.2,23.1-18.5,35.1c-2.6,6-6.4,13.6-5.6,20.1
			c0.8-0.2,1.5-0.8,2-1.5c2.3-2.5,4.2-5.4,6.1-8.2c2.4-3.6,4.7-7.3,6.8-11.1c1.1-1.9,3.1-4.8,3.3-7.1c0.9-8.7-7.9-14.8-14-19.2
			c-10.9-7.8-22.8-14.2-34.1-21.3c-21-13.4-48.7-33.4-40.9-62.3c0.6-2.2-2.2,1.1-2,0.8c-2.3,2.5-4.2,5.4-6.1,8.2
			c-3.6,5.4-8.5,11.8-10.1,18.2c-7.7,29,18.1,48.9,39.3,62.6c11.4,7.4,23.4,13.9,34.5,21.5c5.7,3.9,16.1,10.6,15.3,18.7
			c6.1-9.3,12.1-18.6,18.2-27.9c-0.5-4.2,2.1-9.5,3.7-13.4c1.5-3.7,2.5-5.7,4.2-9.2c0.4-0.8,0.8-1.5,1.2-2.3c2-3.8-1.2,2.2,0.9-1.6
			c0.7-1.2,1.3-2.4,2-3.6c-1.7,3,0.6-1,0.8-1.3c1-1.7,1-1.6-0.1,0.2c0.8-1.2,1.5-2.4,2.3-3.7c-1.1,1.7-1.2,1.8-0.1,0.1
			c2.7-4-1.8,2.5,1-1.5c2-2.8,4.6-6.2,7.7-9.8c5.5-6.4,11.8-12.4,19.1-16.7c5.2-8.9,10.3-17.9,15.5-26.8c-0.6,0.7-4.4,2.6-7,3.2
			c-3.9,1-8.1,1.2-12.1,1.3c-10.8,0.2-21.7-1.4-32.2-3.4c-10.5-2-20.8-4.6-30.9-7.9c-7-2.2-14.5-4.6-20.6-8.8
			C366.3,114.9,347,142.7,349.6,144.5"/>
		<path fill="#000000" id="XMLID_656_" d="M314,186.7c-6,10.9-9.7,21.8-11.3,33.9c-1.2,9.1-0.8,18.4-2.7,27.5c6.1-9.3,12.1-18.6,18.2-27.9
			c-17.4-16.6-31.6-35.8-42.3-57.3c-7-14-11.8-28.9-16.9-43.7c-0.2-0.6-4,4-3.7,3.6c-2.5,3.2-4.7,6.5-6.8,9.9
			c-2.1,3.4-4.2,6.8-6,10.4c-0.6,1.1-2,3.4-1.6,4.8c3.5,14.9,4,30.6,3.3,46c-0.4,9-1.5,17.9-3.4,26.8c-0.9,4.2-2.1,8.4-3.4,12.6
			c-3,8.9-4.6,7,4.2-4.4c-4.9,6.3-9.2,13.2-12.8,20.2c0,0-2.4,4.3-1.6,4.8c0.8,0.5,3.6-3.6,3.7-3.6c17.1-22.2,27.8-45.9,30.8-73
			c2.1-19.1,1.8-39.4-2.5-57.9c-6,9.5-12.1,19.1-18.1,28.6c4.9,14.4,9.7,28.7,16.3,42.4c10.6,22,25.3,41.8,43,58.6
			c1.2,1.1,17.4-24.4,18.2-27.9c1.5-7.4,1.6-15,2.2-22.5c0.4-4.5,1-9,1.9-13.5c0.5-2.3,1.1-4.6,1.7-6.8c0.3-1.2,0.7-2.3,1.2-3.4
			c0.8-1.8,0.9-2.2,0.4-1c0.5-0.9,5.7-11.2,1.3-6.3C321.8,173.1,317.7,180,314,186.7"/>
		<path fill="#000000" id="XMLID_655_" d="M337,78.4c9.4-8.6,23.3-6.9,34.1-3.2c7.8,2.7,21.4,9.5,21,19.4c0,0.9,3.7-4,4-4.5c1.7-2.6,4.5-6,5.1-9.1
			c0.2-1,0.4-1.9,0.6-2.9c1-4.4,3.2-3.6-1.8,1.3c2.1-2,4.8-3.2,7.6-4c5.4-1.5,10.6-0.2,15.6,1.4c10.2,3.1,20.5,7.4,29-2.3
			c2.5-2.9,4.6-6.3,6.4-9.6c0.2-0.4,2.8-5.6,0.7-3.1c-5.8,6.7-14.1,4.8-21.3,2.6c-7.1-2.2-13.6-4.8-21.3-3.2
			c-6.3,1.3-10.5,6.1-14,11.1c-4.8,6.9-8.9,14.2-10.5,22.4c3-4.5,6.1-9.1,9.1-13.6c0.4-10.5-12.7-17-21.1-20.1
			c-10.8-4.1-25.3-5.2-34.8,3.4c-2.5,2.3-4.4,5.6-6.1,8.5c-0.9,1.4-1.7,2.9-2.4,4.5C337,77.1,336.1,79.2,337,78.4"/>
		<path fill="#000000" id="XMLID_654_" d="M310.7,68.4c-4.3,9.4-8.7,18.7-12.4,28.3c2.9-4.4,5.9-8.8,8.8-13.1c-2.5-11-5.8-24.3-18-28.1
			c-10.5-3.2-18.5,7.4-23.6,14.8c-1.8,2.6-4.4,6-5.1,9.1c-0.2,0.7,3.6-3.9,4-4.5c4.7-6.9,14.7-6.5,20.7-2.8
			c8.5,5.3,10.9,16.6,13,25.7c0,0,3.8-4.5,4-4.9c1.7-2.6,3.7-5.4,4.8-8.3c3.7-9.6,8.1-18.9,12.4-28.3c1.4-3-2.3,1.6-2.6,2
			C314.4,61.6,312.4,64.9,310.7,68.4"/>
		<path fill="#000000" id="XMLID_653_" d="M436.2,251c1.2-1.8,3.5-4.7,3.6-7c0.1-1.4-3.5-1.8-4.4-1.9c-5.4-0.9-10.4,0.6-13.5,5.2
			c-2.8,4.2-7.6,12-1.8,16c2.9,2,7.7,0.9,10.9,0.5c4.2-0.6,8.4-1.6,12.7-1.7l5-8.7c-6.7,0.7-13.3,1.5-19.6,4.1
			c-6.7,2.8-10.5,9.1-13.1,15.5c-3.1,7.7,3.1,12.9,10,14.1c8.7,1.6,17.5-2.2,22.5-9.4c1.4-1.9,2.6-4,3.6-6.2
			c0.7-1.5,0.4-1.8-0.6-0.4c-6.1,8.7-29.6,12.1-31-2.2c-0.3-3.4,2.3-4.7-2.2,1.1c0.9-1.1,2.1-1.9,3.3-2.6c2.6-1.6,5.6-2.5,8.6-3.3
			c4.4-1.2,9-1.6,13.5-2.1c2.3-0.3,4-8.7,5-8.7c-6.5,0.2-22.2,6.5-25.9-1.5c-0.6-1.2-0.5-2.6-0.3-3.9c-0.5,5-4.8,5.9-1.4,3.9
			c1.7-1,3.9-1.2,5.8-1.3c1,0,7.8,0.1,7.7,1.9c1.1-2.2,2.3-4.4,3.4-6.6c0,0.1-0.1,0.1-0.1,0.2c-1.2,1.9-2.5,3.9-3.3,6.1
			C434,254,436.1,251.2,436.2,251"/>
		<path fill="#000000" id="XMLID_652_" d="M272,422.1c-5.1,5.7-11.1,10.6-15.8,16.7c-4.3,5.5-9.4,12.9-10.7,19.8c-1.1,5.6,0.2,11.9,6.6,13.2
			c5.1,1,11.2-2.4,14.7-5.9c2.4-2.4,4.1-5.8,5.7-8.8c0.8-1.5,1.6-3,2.2-4.6c-0.1,0.2,0.7-1.9-0.1-1.1c-4.8,4.8-14.5,8.8-19.4,2.3
			c-1.3-1.7-1.5-4.4-1.5-6.4c0-1.1,0.2-2.1,0.5-3.2c-2.5,8.1-5.3,8.1-1.1,3.7c4-4.3,8.4-8.2,12.3-12.6c2.5-2.8,4.4-6.6,6.1-9.9
			C271.8,424.8,274.2,419.6,272,422.1"/>
	</g>
	<g id="XMLID_619_">
		<g id="XMLID_632_">
			<path fill="#000000" id="XMLID_649_" d="M379.2,247.6c-14.4,15.2-37.6-0.2-55-0.2c-6.9,0-15.1,2-19.8,7.3c-5.7,6.5-9.9,14.5-13.8,22.2
				c-2.5,5.1-4.5,9.4-3,15.1c0.2,0.6,3.8-4.1,3.5-3.7c2.3-3.2,4.4-6.6,6.4-10c0-0.1,0.1-0.1,0.1-0.2c2.3-0.7,4.8-1,7.2-1.3
				c7.3-0.9,14.7,1,21.7,2.8c12.8,3.3,27,7.5,37.3-3.4c4.7-5,8.1-11.3,11.4-17.3c1.6-2.9,3.2-5.9,4.3-9
				C379.5,249.7,380.7,246,379.2,247.6z"/>
			<path fill="#000000" id="XMLID_648_" d="M379.5,249.7C379.5,249.7,379.4,249.8,379.5,249.7C379.4,249.8,379.4,249.8,379.5,249.7z"/>
			<path fill="#000000" id="XMLID_647_" d="M562.3,201.5c-5-16-11.7-31.4-17.5-47.2c-14.4-39.1-22.6-80.7-9.1-121.3c2.1-6.2-4.4,3.1-5,4.1
				c-4.1,6.2-8.6,13.1-11,20.2c-6.9,20.6-9.4,41.8-7.4,63.4c1.8,19.6,7.2,38.7,13.7,57.3c5.8,16.5,12.8,32.6,18.4,49.3
				c4.1,12.4,7.9,26,4.7,39c-0.5,2.1,1.8-0.6,2-0.8c2.1-2.6,3.9-5.5,5.7-8.3c3.5-5.6,7.7-12,9.3-18.5
				C569.1,226.3,565.9,213.3,562.3,201.5z"/>
			<path fill="#000000" id="XMLID_646_" d="M551.1,265.4C551.1,265.4,551.1,265.4,551.1,265.4C551.1,265.4,551.1,265.4,551.1,265.4z"/>
			<path fill="#000000" id="XMLID_641_" d="M492.3,134.7c-6.1-33.4-10.7-72.2,2.3-104.6c2.4-6.1-4.5,3.2-5,4.1c-4.2,6.4-8.1,13.1-11,20.2
				c-13.4,33.5-9.6,71.7-3.7,106.4c2.2,12.8,5.1,25.3,8.2,37.8c-17.7-10.4-36.1-20-53.6-30.5c3.6-4.4,7.6-8.5,12.1-12
				c2.4-1.1,4.5-2.7,6.3-4.8c4-4.8,7.2-10.5,10.2-16.1c1.6-2.9,3.2-5.9,4.4-9.1c0.1-0.3,1.3-3.1-0.3-2.1c-1.6,1-3.2,2.2-4.8,3.3
				c-1.1,0.5-2.3,0.9-3.3,1.2c-3.9,1-8,1.3-12,1.4c-10.8,0.2-21.7-1.4-32.3-3.5c-10.6-2-21-4.7-31.3-8c-7.1-2.3-14.8-4.7-21-8.9
				c-0.1-0.2-0.4,0-0.8,0.4c-0.4,0.4-1,1.1-1.7,2c-0.6,0.8-1.1,1.4-1,1.3c-0.2,0.2-0.3,0.5-0.5,0.7c-5.6,7.8-14.8,23.3-12.8,24.7
				c5.3,11.3,16,20,25.6,27.5c13.4,10.5,27.8,19.7,42.4,28.6c-2.1,3.9-4,7.8-5.9,11.7c-3.1-3.6-7.3-6.5-10.7-8.9
				c-11.2-7.9-23.5-14.4-35.1-21.7c-21.6-13.6-50.2-33.9-43.8-63.3c0.5-2.2-2.2,1.1-2,0.8c-2.1,2.6-3.9,5.5-5.7,8.3
				c-3.4,5.5-7.9,12-9.3,18.5c-3.4,15.5,2.5,28.4,11.9,39.3c-0.4,0.7-0.7,1.4-1.1,2.1c-3.4,6.8-5.9,13.6-7.6,20.7
				c-12.4-13.6-23-28.6-31.7-44.9c-7.6-14.3-13.2-29.4-18.9-44.4c-0.2-0.6-3.8,4.1-3.5,3.7c-2.3,3.2-4.4,6.6-6.4,10
				c-2,3.4-3.9,6.9-5.5,10.5c-0.5,1.1-1.8,3.4-1.4,4.9c4.2,15.1,5.4,31.1,5.4,46.7c0,9.1-0.7,18.2-2.2,27.2
				c-0.7,4.3-1.7,8.6-2.9,12.8c-0.3,1.2-0.7,2.2-1,3c-2.6,4.2-4.9,8.6-6.9,13.1c0,0-2.2,4.4-1.4,4.9c0.8,0.5,3.5-3.6,3.5-3.7
				c12.8-17.9,21.5-36.9,25.4-57.8c11.4,21.1,26.4,40.1,44,56.5c1.2,1.2,16.3-24.8,16.9-28.4c1.2-7.5,0.9-15.3,1.2-22.9
				c0.1-2.5,0.3-5,0.5-7.5c7.4,6.8,15.9,12.7,23.8,17.8c11.7,7.5,24,14.1,35.5,21.9c5.4,3.6,14.9,9.7,16,17.1c0,0.9,0.1,1.8,0.2,2.7
				c0.8-0.2,1.4-0.8,1.9-1.6c2.1-2.6,3.9-5.5,5.7-8.3c2.3-3.7,4.4-7.4,6.3-11.3c1-1.9,2.8-4.9,3-7.2c0.1-1,0-2-0.2-2.9
				c0.2-3.8,2-8.1,3.2-11.4c0.9-2.4,1.5-4,2.3-5.8c27.6,16.7,57.2,30.9,83.5,49.7c1.3,1,17.9-24.9,16.8-29.1
				C505.6,189.8,497.4,162.7,492.3,134.7z M231.2,232.3C230.2,235,229.8,234.9,231.2,232.3L231.2,232.3z M234.9,226.3
				c0.5-0.7,0.9-1.4,1.5-2.1C235.9,224.9,235.4,225.6,234.9,226.3z M427.4,158.9c0.9,0,1.9-0.1,2.8-0.2c-1.6,2.3-3.1,4.6-4.6,6.9
				c-3.8-2.3-7.7-4.7-11.5-7.1C418.6,158.9,423,159,427.4,158.9z"/>
			<path fill="#000000" id="XMLID_638_" d="M325.1,71.3c9-8.8,23-7,33.9-3.2c7.9,2.8,21.8,9.7,21.9,19.7c0,0.9,3.5-4.1,3.8-4.6
				c1.6-2.6,4.2-6.1,4.7-9.2c0.1-1,0.3-2,0.5-2.9c0-0.1,0-0.2,0.1-0.2c1.7-1.2,3.6-1.9,5.6-2.5c5.3-1.5,10.5-0.2,15.6,1.4
				c10.3,3.2,20.9,7.5,28.9-2.3c2.4-2.9,4.3-6.4,6-9.8c0.2-0.5,2.6-5.7,0.5-3.2c-5.5,6.8-13.9,4.9-21.2,2.6
				c-7.2-2.2-13.8-4.9-21.4-3.3c-6.2,1.3-10.3,6.2-13.5,11.3c-0.8,1.2-1.5,2.4-2.2,3.6c-3.5-7.6-13.8-12.5-20.8-15.2
				c-11-4.1-25.5-5.3-34.6,3.5c-2.4,2.3-4.1,5.7-5.7,8.7c-0.8,1.5-1.6,3-2.2,4.5C325,70,324.3,72.1,325.1,71.3z M390.2,70
				C390.9,67.5,391.9,67.6,390.2,70L390.2,70z"/>
			<path fill="#000000" id="XMLID_637_" d="M252.4,67.8c4.4-7,14.4-6.6,20.5-2.8c8.8,5.4,11.7,16.9,14.2,26.2c0,0,3.6-4.6,3.8-4.9
				c1.6-2.6,3.4-5.5,4.4-8.4c3.3-9.7,7.2-19.2,11.1-28.8c1.2-3-2.2,1.6-2.5,2c-2.1,3.2-4,6.6-5.5,10.1c-1.4,3.5-2.9,7-4.3,10.5
				c-2.9-9.9-7.3-20.4-17.9-23.7c-10.6-3.3-18.2,7.5-23,15.1c-1.7,2.7-4.1,6.1-4.7,9.2C248.5,73,252.1,68.3,252.4,67.8z"/>
			<path fill="#000000" id="XMLID_633_" d="M448.5,267.3c-6.1,8.7-29.6,12.1-31-2.2c0-0.3,0-0.6,0-0.8c0.4-0.3,0.8-0.5,1.2-0.8
				c2.6-1.6,5.6-2.5,8.6-3.3c4.4-1.2,9-1.6,13.5-2.1c1.6-0.2,2.9-4.2,3.9-6.7l1.2-2c-0.8,0-1.8,0.1-2.8,0.3c-4,0.5-7.9,1-11.7,2.1
				c-5,0.5-9.5,0-11.3-3.8c-0.1-0.2-0.1-0.4-0.2-0.6c1.4-0.4,2.9-0.5,4.2-0.6c0.9,0,7.4,0.1,7.7,1.7c-0.5,1.6,1.4-1.1,1.5-1.3
				c1.2-1.8,3.5-4.7,3.6-7c0.1-1.4-3.5-1.8-4.4-1.9c-5.4-0.9-10.4,0.6-13.5,5.2c-2.8,4.2-7.6,12-1.8,16c0.3,0.2,0.7,0.4,1,0.5
				c-2.1,2.7-3.7,5.9-5,9.1c-3.1,7.7,3.1,12.9,10,14.1c8.7,1.6,17.5-2.2,22.5-9.4c1.4-1.9,2.6-4,3.6-6.2
				C449.8,266.1,449.5,265.9,448.5,267.3z M417.8,248.2C416.9,249.3,416.2,249.2,417.8,248.2L417.8,248.2z M417.7,262.7
				C417.9,262.1,418.1,262,417.7,262.7L417.7,262.7z"/>
		</g>
		<g id="XMLID_620_">
			<path fill="#000000" id="XMLID_629_" d="M637.7,326.3c-9.2,6.1-19,8.3-29.8,5.7c-2.8-0.7-5.6-1.7-8.2-2.8c-1.3-5.8-3.1-11.5-5.2-16.8
				c-5.9-15.1-16.5-32.4-31.7-39.7c-4.7-2.2-9.8-1.9-13.6,1.7c-4.8,4.5-8.2,10.8-11.5,16.5c-3.4,5.8-6.6,11.8-8.9,18.2
				c-3.6,10.1-4.6,22.1-3,32.7c0.2,1.7,0.2,1.8,2,1.4c5.4-1.2,11-1.2,16.4-0.5c9.5,1.2,18.2,5.5,26.7,9.7c3.9,2,7.8,3.9,11.9,5.6
				c0.6,2.8,1,5.6,1.4,8.3c0.4,3.1,0.5,6.2,0.4,9.4c-3.6,0.7-7.4,0.2-11-0.7c-14.1-3.4-26.6-13.9-37.2-23.3c0.4-1.1,0.4-1.8,0.1-2
				c-1.7-1-9.3,12.7-9.9,13.7c-4.7,8.2-9.4,16.6-10.3,26.1c-0.7,7,0.5,14.2,2.2,20.9c0.4,1.5,0.8,3.1,1.3,4.6
				c-7.3-1.4-14.6-2.8-22-4c-39.7-6.9-80.8-12-121.1-8.1c-26,2.5-53.1,9.7-71.2,29.8c-5,5.5-8.7,13-12,19.6c-0.5,1-5.4,11.2-1,6.4
				c11-12.2,27.2-18.7,42.8-22.6c19.1-4.7,39-5.6,58.6-5.3c38.8,0.7,77.3,7.1,115.3,14.5c9.2,1.8,18.4,3.7,27.7,5.3
				c3.3,0.6,7.4,1.9,10.6,0.6c0.1,0,0.1,0.1,0.2,0.1c0-0.1,0.1-0.2,0.1-0.2c0.6-0.3,1.2-0.7,1.8-1.3c2-2.2,17.5-26,14.9-27.5
				c-9.7-5.7-17.1-14.1-22.4-23.9c8.5,5,17.6,8.2,26.6,6.3c7.4-1.6,11.9-7.8,15.9-13.7c5.9-8.7,11.8-18.4,14.9-28.7
				c8.2,0.2,16-3,22.9-7.5c1.9-1.3,3.5-4.4,4.7-6.2c2.4-3.6,4.6-7.3,6.6-11.1c1.6-2.9,3.2-5.9,4.4-9.1
				C638.1,328.2,639.4,325.3,637.7,326.3z M550.4,313.4c-1.7,0.1-7.1,2.3-7.6,0.3c-0.4-1.8-0.4-3.7-0.5-5.5c-0.1-2.5,0-5,0.1-7.5
				c7.3,1.2,13.8,8,18.5,13.1c0,0,0.1,0.1,0.1,0.1C557.5,313.3,554,313.1,550.4,313.4z"/>
			<path fill="#000000" id="XMLID_626_" d="M258.6,396.1c1-1.9,2.9-4.9,3-7.2c0.2-6.1,2-12.4,3.6-18.4c0.2,0.5,0.5,1,0.7,1.5
				c7.7,16.7,16.4,33.1,26.1,48.8c0.4,0.6,3.7-4,3.5-3.7c23.1-31.7,71.2-33.3,107.1-32.4c19.2,0.5,38.3,2.3,57.5,2.5
				c12.2,0.2,27.4,0.5,37.8-7c1.4-1,2.5-2.7,3.5-4.3c0.7-0.4,1.3-0.9,2-1.4c5-4,8.4-11.9,11.4-17.3c1.6-2.9,3.2-5.9,4.4-9.1
				c0,0.1,1.4-3.4-0.3-2.1c-9.6,7.7-24.8,3.7-35.4,0.9c-17.8-4.7-35-12-52.3-18.4c-18.1-6.8-36.4-13.3-55.5-16.4
				c-15.6-2.5-32.7-2.2-46.2,7.1c-1.9,1.3-3.5,4.3-4.7,6.2c-2.4,3.6-4.6,7.3-6.6,11.1c-1.6,2.9-3.2,5.9-4.4,9.1
				c-0.1,0.2-1.4,3.2,0.3,2.1c13.4-9.3,30.5-8.9,45.9-6.4c16.6,2.7,32.6,8.2,48.4,14c-18.4-0.1-36.9,1.3-54.6,6.3
				c-18.2,5.2-33.3,15-45.1,29.5c-9-14.5-17-29.6-24.3-45c-0.6-1.3-1.2-2.7-1.9-4c6.3-2.7,12.1-6.3,17.4-11
				c4.9-4.4,8.3-11.7,11.4-17.3c1.6-2.9,3.2-5.9,4.4-9.1c-0.1,0.3,1.4-3.6-0.3-2.1c-12.1,10.8-26.6,15.7-42,17.4
				c-1.5-4.1-2.8-8.3-4-12.5c-2.6-9.3-5.4-21.9-2-30.6c2.4-6.1-4.5,3.2-5,4.1c-4.2,6.4-8.1,13.1-11,20.2c-2.5,6.2-2.8,12.7-2.1,19.1
				c-16.9-1-33.8-4.2-49.1-6.5c-1.7-0.3-3.5-0.5-5.3-0.4c-4.7,0.3-9.2,11-11,14.2c-3.4,5.8-8.3,12-6.3,18.9c1.1,3.8,3.5,7.2,6,10.3
				c12.8,15.6,32,25.1,47.2,38c6.1,5.2,14.4,12.8,14,21.6c-0.1,1.9,1.7-0.5,2-0.8c2.1-2.6,3.9-5.5,5.7-8.3
				C254.5,403.7,256.7,400,258.6,396.1z M229.9,352.4c-1.5-1.1-2.9-2.1-4.4-3.2c10,0.8,20.5,0.9,30.8-0.2c1.5,4.1,3.1,8.2,4.8,12.2
				c-2,4.2-3.8,8.5-5.5,12.8c-0.8-1-1.7-2-2.6-2.9C246.2,363.9,237.8,358.2,229.9,352.4z"/>
			<path fill="#000000" id="XMLID_625_" d="M487.3,299.1c7.1,3.9,15.2,5.2,21.6,10.5c1.2,1,9.4-12.9,9.9-13.7c0.7-1.3,8.7-13.9,6.9-15.4
				c-11.1-9.1-32.8-8.5-30.5-27.6c0.2-2-1.9,0.8-2,0.8c-2.1,2.6-3.9,5.5-5.7,8.3c-3.1,5.1-8.6,12.3-9.3,18.5
				C477.1,288.8,479.8,295,487.3,299.1z"/>
			<path fill="#000000" id="XMLID_624_" d="M184.7,285.5c8-0.5,16.1,0.5,24.1,1c15.9,1,30.7-0.7,41.6-13.5c4.9-5.8,8.6-12.9,12-19.6
				c0.5-1,5.2-11.4,1-6.4c-13.8,16.3-39.2,9.5-57.6,9.3c-7.6-0.1-17.2,0.7-22.9,6.4c-6.9,6.9-11.9,17-15.9,25.7
				c-2.2,4.6-3.1,8.4-1.8,13.4c0.2,0.6,3.8-4.1,3.5-3.7c2.3-3.2,4.4-6.6,6.4-10c0.2-0.4,0.5-0.8,0.7-1.2
				C178.6,286,181.7,285.7,184.7,285.5z"/>
			<path fill="#000000" id="XMLID_621_" d="M276.2,439.3c-4.8,4.7-14.3,8.4-19.1,1.8c-1.3-1.8-1.4-4.4-1.5-6.4c0,0,0-0.1,0-0.1
				c3.8-3.9,7.9-7.6,11.6-11.7c2.5-2.8,4.3-6.5,6-9.8c0.3-0.5,2.7-5.6,0.5-3.2c-5,5.6-11,10.4-15.6,16.4
				c-4.2,5.4-9.2,12.7-10.6,19.6c-1.1,5.6,0.2,11.9,6.5,13.3c5.1,1.1,11-2.1,14.5-5.5c2.4-2.4,4.1-5.7,5.7-8.7
				c0.8-1.5,1.6-3,2.2-4.5C276.2,440.6,277,438.5,276.2,439.3z M254.5,435.7C252.9,439.1,251.9,438.6,254.5,435.7L254.5,435.7z"/>
		</g>
	</g>
	<g id="XMLID_576_">
		<path fill="#000000" id="XMLID_618_" d="M542.4,300.6c-0.1,2.5-0.2,5-0.1,7.5c0.1,1.8,0.1,3.7,0.5,5.5c0.5,2,5.9-0.2,7.6-0.3
			c3.6-0.2,7.1-0.1,10.5,0.4c0,0-0.1-0.1-0.1-0.1C556.2,308.7,549.7,301.8,542.4,300.6z"/>
		<path fill="#000000" id="XMLID_616_" d="M528.9,309.1c-3.6,10.1-4.6,22.1-3,32.7c0.2,1.7,0.2,1.8,2,1.4c5.4-1.2,11-1.2,16.4-0.5
			c1.4,0.2,2.7,0.4,4,0.7c-0.1-9.8-0.3-19.7-1.1-29.5c-2,0.5-4.1,0.8-4.4-0.4c-0.4-1.8-0.4-3.7-0.5-5.5c-0.1-2.5,0-5,0.1-7.5
			c-0.5-0.1-1-0.1-1.5-0.2C538.2,300.3,530.8,303.8,528.9,309.1z"/>
		<path fill="#000000" id="XMLID_615_" d="M560.9,313.8c-3.4-0.5-7-0.7-10.5-0.4c-0.4,0-1.2,0.2-2,0.4c0.8,10,1,20,1.1,30
			c7.5,1.8,14.6,5.3,21.4,8.7c3.9,2,7.8,3.9,11.9,5.6c-1.7-8-4.4-15.9-8-23.2C571.2,327.4,566.6,320.1,560.9,313.8z"/>
		<path fill="#000000" id="XMLID_614_" d="M553.9,402.7c2-3.9,3.6-7.9,4.9-12.1c1.3-4.3,2.3-8.7,3.4-13.1c0.5-2,1-3.9,1.6-5.8
			c-10.2-4.8-19.3-12.6-27.4-19.8c-0.4,1.2-1.1,2.8-1.9,4.4c-0.4,1.2-0.9,2.9-1.1,4.7c-0.3,3-0.4,5.9-0.1,8.9
			c0.5,6.6,2.1,13.1,4.5,19.3c1.2,3.2,2.7,6.3,4.3,9.3c3.7,2.2,7.4,4,11.3,5.3C553.6,403.4,553.7,403.1,553.9,402.7z"/>
		<path fill="#000000" id="XMLID_613_" d="M573.6,375.2c-3-0.7-5.9-1.8-8.7-3c-0.9,2.5-1.5,5.2-2.1,7.8c-1,4-1.9,8-3.2,12
			c-1.1,3.6-2.5,7.1-4.2,10.5c-0.3,0.6-0.6,1.1-0.9,1.7c4.7,1.4,9.4,1.8,14.1,0.7c12.9-3.1,15.5-22.2,15.7-24.3
			c0.1-1.5,0.2-3,0.2-4.6C581,376.6,577.2,376.1,573.6,375.2z"/>
		<path fill="#000000" id="XMLID_612_" d="M534.8,355.6C535.3,354.5,535.1,354.7,534.8,355.6L534.8,355.6z"/>
		<path fill="#000000" id="XMLID_611_" d="M637.7,326.3c-9.2,6.1-19,8.3-29.8,5.7c-2.8-0.7-5.6-1.7-8.2-2.8c2.1,9.4,2.8,19.2,0.9,28.3
			c-0.3,1.6-0.7,3.2-1.2,4.8c8.2,0.2,16-3,22.9-7.5c1.9-1.3,3.5-4.4,4.7-6.2c2.4-3.6,4.6-7.3,6.6-11.1c1.6-2.9,3.2-5.9,4.4-9.1
			C638.1,328.2,639.4,325.3,637.7,326.3z"/>
		<path fill="#000000" id="XMLID_610_" d="M255.6,374c3.5,4.3,6.3,9.2,6,14.9c0.2-6.1,2-12.4,3.6-18.4c-1.4-3.1-2.8-6.2-4.1-9.3
			C259.1,365.4,257.3,369.7,255.6,374z"/>
		<path fill="#000000" id="XMLID_609_" d="M315.2,302.8c-12.1,10.8-26.6,15.7-42,17.4c1.5,4.2,3.1,8.3,4.8,12.4c0.5,1.3,1.1,2.5,1.6,3.8
			c0.9,2,1.8,3.9,2.7,5.9c6.3-2.7,12.1-6.3,17.4-11c4.9-4.4,8.3-11.7,11.4-17.3c1.6-2.9,3.2-5.9,4.4-9.1
			C315.4,305.2,316.9,301.3,315.2,302.8z"/>
		<path fill="#000000" id="XMLID_608_" d="M182.3,336.6C182.3,336.6,182.3,336.6,182.3,336.6c0,0.1-0.1,0.1-0.1,0.1
			C182.2,336.7,182.3,336.6,182.3,336.6z"/>
		<path fill="#000000" id="XMLID_607_" d="M256.3,349c-1.9-5.4-3.6-10.9-5-16.5c-0.9-3.9-1.7-7.9-2.1-11.9c-16.9-1-33.8-4.2-49.1-6.5
			c-1.7-0.3-3.5-0.5-5.3-0.4c-4.7,0.3-9.2,11-11,14.2c-0.1,0.1-0.1,0.2-0.2,0.3c0.8,0.5,1.6,1,2.4,1.5c2.6-4.9,5.2-9.9,7.8-14.8
			c-0.7,2.4,2.4,7.2,3.6,9.1c2.3,3.4,5.1,6.5,8.1,9.4c6.2,5.8,13.1,10.9,20,15.9C235.5,350,246,350.1,256.3,349z"/>
		<path fill="#000000" id="XMLID_606_" d="M253,371.1c-6.8-7.2-15.2-12.9-23.2-18.7c-1.5-1.1-2.9-2.1-4.4-3.2c-0.1,0-0.1,0-0.2,0
			c-11.1-0.9-22.2-2.6-33.2-4.5c-3.5-0.6-7-1.3-10.6-1.7c-1-0.1-2-0.3-3-0.2c-0.9,0-1.2,0.3-1,0.1c0.3-0.4,0.6-0.8,0.9-1.2
			c-0.4,0-0.9-0.1-1.3-0.1c-0.3,1.7-0.2,3.4,0.3,5.2c1.1,3.8,3.5,7.2,6,10.3c12.8,15.6,32,25.1,47.2,38c6.1,5.2,14.4,12.8,14,21.6
			c0.4-11.3,4.7-23.6,8.1-34.2c0.9-2.8,1.9-5.6,2.9-8.4C254.8,373,253.9,372,253,371.1z"/>
		<path fill="#000000" id="XMLID_605_" d="M270.5,352.7c-1.7,4.9-3.2,9.8-4.5,14.8c-0.3,1-0.5,2-0.8,3.1c0.2,0.5,0.5,1,0.7,1.5
			c7.7,16.7,16.4,33.1,26.1,48.8c0.4,0.6,3.7-4,3.5-3.7c23.1-31.7,71.2-33.3,107.1-32.4c19.2,0.5,38.3,2.3,57.5,2.5
			c12.2,0.2,27.4,0.5,37.8-7c1.4-1,2.5-2.7,3.5-4.3c-9.8,6.1-23.5,3.1-33.9,0.4c-17.8-4.7-34.9-11.8-52-18.2
			c-2.4-0.9-4.8-1.8-7.2-2.7c-18.4-0.1-36.9,1.3-54.6,6.3c-18.2,5.2-33.3,15-45.1,29.5c0.1,0.2,0.2,0.3,0.3,0.5
			c-1.2,1.2-2.3,2.4-3.5,3.7c1-1.4,2.1-2.8,3.2-4.1c-9-14.5-17-29.6-24.3-45c-0.6-1.3-1.2-2.7-1.9-4c-2.4,1-4.8,1.9-7.2,2.7
			C273.8,347.6,272.2,350.3,270.5,352.7z"/>
		<path fill="#000000" id="XMLID_604_" d="M493.1,253.6c-2.1,2.6-3.9,5.5-5.7,8.3c-3.1,5.1-8.6,12.3-9.3,18.5c-1,8.4,1.7,14.6,9.1,18.7
			c7.1,3.9,15.2,5.2,21.6,10.5c1.2,1,9.4-12.9,9.9-13.7c0.7-1.3,8.7-13.9,6.9-15.4c-11.1-9.1-32.8-8.5-30.5-27.6
			C495.3,250.8,493.2,253.6,493.1,253.6z"/>
		<path fill="#000000" id="XMLID_603_" d="M561,422.7c0.1,0,0.1,0,0.2,0h3.6c0-0.1-0.1-0.2-0.2-0.3c-9.7-5.7-17.1-14.1-22.4-23.9
			c-8.6-5.1-16.4-12.1-22.5-17.5c-0.2-0.2-0.3-0.5-0.2-1c-0.2,0-0.5,0-0.7,0c-1.1,3.1-1.9,6.4-2.2,9.7c-0.7,7,0.5,14.2,2.2,20.9
			c0.4,1.5,0.8,3.1,1.3,4.6c8,1.5,16,3.1,24,4.6c4.7,0.9,9.4,1.8,14.2,2.5C559,422.5,560,422.6,561,422.7z"/>
		<path fill="#000000" id="XMLID_602_" d="M547.7,451.5c0-0.1,0.1-0.2,0.1-0.2c-0.1,0-0.2,0.1-0.3,0.1C547.6,451.4,547.6,451.5,547.7,451.5z"/>
		<path fill="#000000" id="XMLID_601_" d="M519.9,415.2c-7.3-1.4-14.6-2.8-22-4c-39.7-6.9-80.8-12-121.1-8.1c-26,2.5-53.1,9.7-71.2,29.8
			c-5,5.5-8.7,13-12,19.6c-0.5,1-5.4,11.2-1,6.4c11-12.2,27.2-18.7,42.8-22.6c19.1-4.7,39-5.6,58.6-5.3
			c38.8,0.7,77.3,7.1,115.3,14.5c9.2,1.8,18.4,3.7,27.7,5.3c3.3,0.6,7.4,1.9,10.6,0.6C534.1,443.5,524.6,430,519.9,415.2z"/>
		<path fill="#000000" id="XMLID_600_" d="M174.7,287.1c-6.3,2-9,8-1.7-3.7c2.6-4.8,5.2-9.6,7.8-14.4c1-2.1,0.7,2.4,1,3.6c0.4,1.5-0.9,3.7-1.4,4.9
			c-1.4,3.2-3.1,6.3-4.8,9.3c2.9-0.8,6-1.2,9-1.4c8-0.5,16.1,0.5,24.1,1c15.9,1,30.7-0.7,41.6-13.5c4.9-5.8,8.6-12.9,12-19.6
			c0.5-1,5.2-11.4,1-6.4c-13.8,16.3-39.2,9.5-57.6,9.3c-7.6-0.1-17.2,0.7-22.9,6.4c-6.9,6.9-11.9,17-15.9,25.7
			c-2.2,4.6-3.1,8.4-1.8,13.4c0.2,0.6,3.8-4.1,3.5-3.7c2.3-3.2,4.4-6.6,6.4-10c0.2-0.4,0.5-0.8,0.7-1.2
			C175.4,286.9,175.1,287,174.7,287.1z"/>
		<path fill="#000000" id="XMLID_599_" d="M379.2,247.6c-14.4,15.2-37.6-0.2-55-0.2c-6.9,0-15.1,2-19.8,7.3c-5.7,6.5-9.9,14.5-13.8,22.2
			c-2.5,5.1-4.5,9.4-3,15.1c0.2,0.6,3.8-4.1,3.5-3.7c2.3-3.2,4.4-6.6,6.4-10c0-0.1,0.1-0.1,0.1-0.2c-0.4,0.1-0.8,0.2-1.1,0.3
			c-1.2,0.4-2.5,0.9-3.6,1.6c-0.7,0.4-2.7,2.6-1.1,0.3c2.8-4.7,5.7-9.3,8.6-13.9c6.2-11.7,2.8-8.8,4.2-3.5c0.4,1.5-0.9,3.7-1.4,4.9
			c-1.6,3.6-3.5,7-5.4,10.4c2.3-0.7,4.8-1,7.2-1.3c7.3-0.9,14.7,1,21.7,2.8c12.8,3.3,27,7.5,37.3-3.4c4.7-5,8.1-11.3,11.4-17.3
			c1.6-2.9,3.2-5.9,4.3-9C379.5,249.7,380.7,246,379.2,247.6z"/>
		<path fill="#000000" id="XMLID_598_" d="M379.5,249.7C379.5,249.8,379.5,249.8,379.5,249.7C379.4,249.8,379.4,249.8,379.5,249.7z"/>
		<path fill="#000000" id="XMLID_597_" d="M551.1,265.4C551.1,265.4,551.1,265.4,551.1,265.4C551.1,265.4,551.1,265.4,551.1,265.4z"/>
		<path fill="#000000" id="XMLID_596_" d="M512.6,217.4c-9.4-6.8-19.3-12.9-29.4-18.8c4,16,8.5,31.9,12.6,47.9C501.4,236.8,507,227.1,512.6,217.4z"
			/>
		<path fill="#000000" id="XMLID_595_" d="M357.6,109.4c-0.1-0.2-0.4,0-0.8,0.4C357.2,109.5,357.5,109.3,357.6,109.4z"/>
		<path fill="#000000" id="XMLID_594_" d="M425.7,165.6c-3.8-2.3-7.7-4.7-11.5-7.1c-6.3-0.5-12.5-1.4-18.7-2.6c-11.4-2.1-22.8-4.9-33.8-8.5
			c-7.1-2.3-14.7-4.7-21-8.9c5.3,11.3,16,20,25.6,27.5c13.4,10.5,27.8,19.7,42.4,28.6c1-1.8,2-3.7,3-5.5
			C416.1,181.2,420.7,173.3,425.7,165.6z"/>
		<path fill="#000000" id="XMLID_593_" d="M354.1,113.1c-0.2,0.2-0.3,0.5-0.5,0.7c0.5-0.7,1-1.4,1.5-2C354.5,112.6,354,113.2,354.1,113.1z"/>
		<path fill="#000000" id="XMLID_592_" d="M512.6,217.4c-5.6,9.7-11.2,19.4-16.8,29.1C497.1,247.4,513.6,221.6,512.6,217.4z"/>
		<path fill="#000000" id="XMLID_591_" d="M421.2,179.4c-0.2,0.3-0.3,0.5-0.5,0.7c-0.1,0.2-0.3,0.4-0.5,0.8c-0.2,0.3-0.3,0.5-0.4,0.7
			c-0.4,0.7-0.8,1.4-1.3,2.2c-0.1,0.1-0.2,0.3-0.3,0.5c-0.1,0.2-1.3,2.5-1.3,2.5c-0.4,0.8-0.9,1.7-1.3,2.5c-0.3,0.5-0.4,0.9-0.5,1.1
			c-0.1,0.2-0.2,0.3-0.3,0.6c-0.4,0.8-0.7,1.5-1.1,2.3c-0.6,1.3-1.1,2.5-1.6,3.5c27.6,16.7,57.2,30.9,83.5,49.7
			c-4-16-8.5-31.9-12.6-47.9c-17.7-10.4-36.1-20-53.6-30.5c-0.4,0.5-0.8,0.9-1.2,1.4C425.5,173.1,423.1,176.5,421.2,179.4z"/>
		<path fill="#000000" id="XMLID_590_" d="M492.3,134.7c-6.1-33.4-10.7-72.2,2.3-104.6c2.4-6.1-4.5,3.2-5,4.1c-4.2,6.4-8.1,13.1-11,20.2
			c-13.4,33.5-9.6,71.7-3.7,106.4c2.2,12.8,5.1,25.3,8.2,37.8c10.1,5.9,19.9,12.1,29.4,18.8C505.6,189.8,497.4,162.7,492.3,134.7z"
			/>
		<path fill="#000000" id="XMLID_589_" d="M410,202.6c0.9-2.4,1.5-4,2.3-5.8c-0.3-0.2-0.5-0.3-0.8-0.5c-0.9-0.6-1.8-1.1-2.8-1.7
			c-2.1,3.9-4,7.8-5.9,11.7c2,2.3,3.4,4.8,4,7.7C407,210.2,408.8,205.9,410,202.6z"/>
		<path fill="#000000" id="XMLID_588_" d="M425.7,165.6c1.3,0.8,2.6,1.6,3.9,2.3c0,0,0,0,0.1,0c3.6-4.4,7.6-8.5,12.1-12c-3.5,1.7-7.5,2.4-11.5,2.7
			C428.7,161,427.1,163.3,425.7,165.6z"/>
		<path fill="#000000" id="XMLID_587_" d="M356.8,109.8c-0.4,0.4-1,1.1-1.7,2C355.6,111.1,356.3,110.3,356.8,109.8z"/>
		<path fill="#000000" id="XMLID_586_" d="M342.2,133.7c1.6-3.6,3.5-7.1,5.5-10.5c1.8-3.2,3.7-6.3,5.9-9.3c-5.6,7.8-14.8,23.3-12.8,24.7
			C340.2,137.3,341.8,134.5,342.2,133.7z"/>
		<path fill="#000000" id="XMLID_585_" d="M252,188.1c6.1,11.2,13.2,21.9,21.1,31.8c0.5-0.6,1-1.2,1.5-1.7c6.6-7.4,13.3-14.8,19-22.9
			c-9.9-11.8-18.5-24.5-25.8-38.1c-7.6-14.3-13.2-29.4-18.9-44.4c5.2,18.8,6.4,39.5,5.2,58.9C253.7,177.3,253,182.8,252,188.1z"/>
		<path fill="#000000" id="XMLID_584_" d="M308.1,179.3c-0.4,0.7-0.7,1.4-1.1,2.1c-3.4,6.8-5.9,13.6-7.6,20.7c4.2,4.6,8.6,9.1,13.3,13.4
			c-5.6,9.5-11.3,18.9-16.9,28.4c1.5-9.2,0.7-18.7,1.5-28c0.4-4.8,1.1-9.3,2.2-13.8c-1.7-1.9-3.4-3.8-5.1-5.8
			c-5.3,7.5-11.5,14.3-17.6,21.2c-1,1.1-2,2.3-3,3.5c6.8,8.4,14.1,16.3,22.1,23.6c1.2,1.2,16.3-24.8,16.9-28.4
			c1.2-7.5,0.9-15.3,1.2-22.9c0.1-2.5,0.3-5,0.5-7.5C312.3,183.8,310.1,181.6,308.1,179.3z"/>
		<path fill="#000000" id="XMLID_583_" d="M318.1,168.1c0.1-0.1,0.2-0.3,0.3-0.7C318.4,167.5,318.3,167.7,318.1,168.1z"/>
		<path fill="#000000" id="XMLID_582_" d="M318.1,168.1c0.1-0.1,0.2-0.3,0.3-0.7C318.4,167.5,318.3,167.7,318.1,168.1z"/>
		<path fill="#000000" id="XMLID_581_" d="M325.1,71.3c9-8.8,23-7,33.9-3.2c7.9,2.8,21.8,9.7,21.9,19.7c1.1-6.9,3.8-13.2,7.3-19.1
			c-3.5-7.6-13.8-12.5-20.8-15.2c-11-4.1-25.5-5.3-34.6,3.5c-2.4,2.3-4.1,5.7-5.7,8.7c-0.8,1.5-1.6,3-2.2,4.5
			C325,70,324.3,72.1,325.1,71.3z"/>
		<path fill="#000000" id="XMLID_580_" d="M303.9,51c-2.1,3.2-4,6.6-5.5,10.1c-1.4,3.5-2.9,7-4.3,10.5c0.5,1.7,1,3.6,1.5,5.2
			c-0.2,0.4,6.9-18.3,10.8-27.9C307.7,45.9,304.2,50.6,303.9,51z"/>
		<path fill="#000000" id="XMLID_579_" d="M448.5,267.3c-6.1,8.7-29.6,12.1-31-2.2c0-0.3,0-0.6,0-0.8c-0.8,0.5-1.6,1.1-2.1,1.9
			c0.6-0.8-1.8,1.7-2.3,2.9c-3.1,7.7,3.1,12.9,10,14.1c8.7,1.6,17.5-2.2,22.5-9.4c1.4-1.9,2.6-4,3.6-6.2
			C449.8,266.1,449.5,265.9,448.5,267.3z"/>
		<path fill="#000000" id="XMLID_578_" d="M420.6,249.2c-1.1-0.1-2.2-0.3-3.3-0.5c-0.5,0.4-0.7,0.4-0.2,0c-0.4-0.1-0.8-0.1-1.2-0.2
			c-1.9,3.9-2.8,8.3,1.1,11c0.3,0.2,0.7,0.4,1,0.5c2.1-2.7,4.7-5,8.1-6.4c1.7-0.7,3.3-1.2,5-1.7
			C426.8,252.3,422.7,251.9,420.6,249.2z"/>
		<path fill="#000000" id="XMLID_577_" d="M256.1,431.5c-0.2,0.8-0.4,1.6-0.5,2.4c0.1,0.1,0.2,0.2,0.3,0.3c3.7-3.8,7.7-7.4,11.2-11.4
			c2.5-2.8,4.3-6.5,6-9.8c0.3-0.5,2.7-5.6,0.5-3.2c-5,5.6-11,10.4-15.6,16.4C256.4,428.3,255.8,432.4,256.1,431.5z"/>
	</g>
</g>
<path fill="#000000" d="M273.602,481.306c-0.578-0.576-1.301-1.03-2.174-1.362c-0.873-0.331-1.885-0.497-3.039-0.497
	c-0.663,0-1.463,0.079-2.4,0.238v-6.077h-1.535v17.711c0.706,0.202,1.402,0.354,2.087,0.454s1.301,0.151,1.849,0.151
	c1.153,0,2.166-0.162,3.039-0.486s1.596-0.764,2.174-1.319c0.576-0.555,1.006-1.211,1.287-1.968s0.42-1.561,0.42-2.411
	s-0.139-1.657-0.42-2.422C274.608,482.554,274.178,481.883,273.602,481.306z M272.391,489.167c-0.852,0.829-2.17,1.243-3.958,1.243
	c-0.39,0-0.805-0.032-1.244-0.097c-0.439-0.065-0.84-0.134-1.2-0.206v-8.845c0.447-0.115,0.887-0.194,1.319-0.237
	c0.433-0.044,0.808-0.065,1.125-0.065c0.894,0,1.668,0.112,2.325,0.335c0.656,0.224,1.199,0.545,1.633,0.963
	c0.432,0.418,0.752,0.919,0.961,1.503s0.314,1.243,0.314,1.979C273.667,487.195,273.241,488.338,272.391,489.167z M247.392,479.446
	c-0.62,0-1.297,0.079-2.033,0.238c-0.735,0.158-1.485,0.433-2.249,0.821l-0.065,1.73c0.548-0.303,0.973-0.52,1.276-0.649
	s0.624-0.237,0.962-0.324c0.338-0.086,0.677-0.158,1.016-0.216s0.667-0.087,0.984-0.087c1.139,0,1.982,0.249,2.53,0.746
	s0.822,1.33,0.822,2.498v0.13c-0.332-0.044-0.732-0.087-1.2-0.13c-0.469-0.043-0.876-0.065-1.222-0.065
	c-1.831,0-3.302,0.311-4.412,0.931c-1.11,0.619-1.665,1.644-1.665,3.07c0,0.707,0.155,1.305,0.465,1.795
	c0.31,0.49,0.713,0.88,1.211,1.168s1.067,0.497,1.708,0.627c0.641,0.13,1.308,0.194,2,0.194c0.807,0,1.6-0.072,2.378-0.216
	c0.779-0.145,1.536-0.368,2.271-0.671v-7.028c0-1.585-0.397-2.742-1.189-3.471C250.189,479.811,248.992,479.446,247.392,479.446z
	 M250.636,489.892c-0.375,0.144-0.858,0.267-1.449,0.367c-0.591,0.102-1.183,0.151-1.773,0.151c-0.505,0-0.984-0.035-1.438-0.108
	c-0.454-0.071-0.84-0.197-1.157-0.378c-0.317-0.18-0.57-0.414-0.757-0.703c-0.188-0.288-0.281-0.663-0.281-1.124
	c0-0.52,0.111-0.934,0.335-1.244c0.224-0.31,0.533-0.551,0.93-0.724c0.396-0.174,0.85-0.296,1.362-0.368
	c0.511-0.072,1.041-0.108,1.589-0.108c0.476,0,0.984,0.029,1.524,0.087c0.541,0.058,0.912,0.108,1.114,0.151V489.892z
	 M258.032,479.868c-0.649,0.122-1.276,0.263-1.881,0.422v11.418h1.535v-10.186c0.202-0.072,0.563-0.147,1.082-0.228
	c0.519-0.079,1.002-0.118,1.449-0.118h1.989v-1.492H260C259.336,479.685,258.681,479.746,258.032,479.868z M-77.92,487.667
	l241.145,0.656l0.663-0.433l-0.632-0.564L-77.92,487.667z M164.994,487.825l1.95,1.95l1.95-1.95l-1.95-1.95L164.994,487.825z
	 M169.559,487.825l3.057,3.057l3.057-3.057l-3.057-3.057L169.559,487.825z M212.359,489.286l-3.395-9.602h-1.514l-3.396,9.602
	l-2.984-9.602h-1.73l3.979,12.023h1.428l3.46-9.645l3.46,9.645h1.427l3.979-12.023h-1.73L212.359,489.286z M238.418,489.589
	c-0.317,0-0.591,0.115-0.822,0.346c-0.231,0.23-0.346,0.505-0.346,0.822c0,0.316,0.115,0.591,0.346,0.821
	c0.23,0.23,0.504,0.346,0.822,0.346c0.317,0,0.591-0.115,0.822-0.346c0.23-0.23,0.346-0.505,0.346-0.821
	c0-0.317-0.116-0.592-0.346-0.822C239.009,489.704,238.735,489.589,238.418,489.589z M193.243,489.286l-3.395-9.602h-1.514
	l-3.396,9.602l-2.984-9.602h-1.73l3.979,12.023h1.428l3.46-9.645l3.46,9.645h1.427l3.979-12.023h-1.73L193.243,489.286z
	 M231.476,489.286l-3.395-9.602h-1.514l-3.396,9.602l-2.984-9.602h-1.73l3.979,12.023h1.428l3.46-9.645l3.46,9.645h1.427
	l3.979-12.023h-1.73L231.476,489.286z M382.732,480.474c-0.426-0.396-0.938-0.667-1.535-0.812c-0.598-0.144-1.271-0.216-2.021-0.216
	c-0.664,0-1.393,0.09-2.184,0.271c-0.793,0.181-1.471,0.4-2.033,0.659c-0.346-0.331-0.818-0.569-1.416-0.714
	c-0.6-0.144-1.273-0.216-2.023-0.216c-0.635,0-1.268,0.058-1.902,0.173l-2.465,0.454v11.635h1.535v-10.38
	c0.447-0.102,0.883-0.188,1.309-0.26c0.424-0.072,0.896-0.108,1.416-0.108c0.605,0,1.125,0.058,1.557,0.173
	c0.434,0.116,0.789,0.321,1.07,0.616c0.281,0.296,0.494,0.711,0.639,1.244s0.217,1.24,0.217,2.119v6.596h1.535v-7.201
	c0-0.663-0.055-1.243-0.162-1.741c-0.109-0.497-0.213-0.861-0.314-1.092c0.086-0.043,0.281-0.119,0.584-0.228
	c0.303-0.107,0.602-0.197,0.898-0.27c0.295-0.072,0.586-0.126,0.875-0.162s0.547-0.055,0.779-0.055c0.59,0,1.102,0.058,1.535,0.173
	c0.432,0.116,0.781,0.317,1.049,0.605c0.266,0.289,0.471,0.703,0.615,1.244c0.145,0.54,0.217,1.251,0.217,2.13v6.596h1.535v-7.201
	c0-0.995-0.111-1.816-0.336-2.466C383.482,481.393,383.158,480.87,382.732,480.474z M280.1,474.581
	c-0.785,0.648-1.18,1.729-1.18,3.243v1.86h-2.551v1.492h2.551v10.531h1.537v-10.531h4.973v-1.492h-4.973v-1.471
	c0-0.635,0.045-1.149,0.141-1.546c0.094-0.396,0.24-0.707,0.443-0.931c0.201-0.223,0.475-0.385,0.82-0.486
	c0.346-0.101,0.779-0.151,1.299-0.151h2.422v-1.492h-2.271C281.956,473.607,280.885,473.932,280.1,474.581z M398.273,487.825
	l3.057,3.057l3.057-3.057l-3.057-3.057L398.273,487.825z M343.322,482.322c0.389-0.418,0.854-0.749,1.395-0.994
	s1.135-0.368,1.783-0.368c0.736,0,1.373,0.076,1.914,0.228s1.121,0.414,1.74,0.789l0.715-1.405c-0.707-0.39-1.393-0.674-2.055-0.854
	c-0.664-0.181-1.436-0.271-2.314-0.271c-0.85,0-1.639,0.155-2.367,0.465c-0.729,0.311-1.367,0.746-1.914,1.309
	c-0.549,0.563-0.98,1.222-1.297,1.979c-0.317,0.757-0.476,1.59-0.476,2.498s0.158,1.74,0.476,2.497
	c0.316,0.757,0.748,1.413,1.297,1.969c0.547,0.555,1.186,0.987,1.914,1.297c0.729,0.311,1.518,0.465,2.367,0.465
	c0.879,0,1.65-0.09,2.314-0.27c0.662-0.181,1.348-0.466,2.055-0.854l-0.715-1.406c-0.619,0.375-1.199,0.639-1.74,0.79
	s-1.178,0.227-1.914,0.227c-0.648,0-1.242-0.119-1.783-0.356c-0.541-0.238-1.006-0.565-1.395-0.984
	c-0.391-0.418-0.693-0.915-0.908-1.492c-0.217-0.576-0.324-1.203-0.324-1.881s0.107-1.305,0.324-1.882
	C342.628,483.238,342.931,482.741,343.322,482.322z M404.387,487.825l1.949,1.95l1.951-1.95l-1.951-1.95L404.387,487.825z
	 M410.701,487.326l-0.664,0.433l0.633,0.564l241.176-0.341L410.701,487.326z M362.611,481.295c-0.549-0.569-1.193-1.02-1.936-1.352
	c-0.742-0.331-1.547-0.497-2.412-0.497c-0.863,0-1.668,0.166-2.41,0.497c-0.742,0.332-1.389,0.782-1.936,1.352
	c-0.549,0.57-0.977,1.229-1.287,1.979c-0.311,0.749-0.465,1.557-0.465,2.422s0.154,1.672,0.465,2.422s0.738,1.409,1.287,1.979
	c0.547,0.569,1.193,1.017,1.936,1.341s1.547,0.486,2.41,0.486c0.865,0,1.67-0.162,2.412-0.486s1.387-0.771,1.936-1.341
	c0.547-0.569,0.977-1.229,1.287-1.979c0.309-0.75,0.465-1.557,0.465-2.422s-0.156-1.673-0.465-2.422
	C363.587,482.524,363.158,481.865,362.611,481.295z M362.394,487.523c-0.217,0.569-0.52,1.067-0.908,1.492
	c-0.389,0.426-0.857,0.765-1.406,1.017c-0.547,0.252-1.152,0.378-1.816,0.378c-0.662,0-1.268-0.126-1.816-0.378
	c-0.547-0.252-1.016-0.591-1.404-1.017c-0.391-0.425-0.693-0.923-0.908-1.492c-0.217-0.569-0.324-1.179-0.324-1.827
	c0-0.649,0.107-1.262,0.324-1.839c0.215-0.576,0.518-1.077,0.908-1.503c0.389-0.425,0.857-0.764,1.404-1.016
	c0.549-0.252,1.154-0.379,1.816-0.379c0.664,0,1.27,0.127,1.816,0.379c0.549,0.252,1.018,0.591,1.406,1.016
	c0.389,0.426,0.691,0.927,0.908,1.503c0.217,0.577,0.324,1.189,0.324,1.839C362.718,486.345,362.611,486.954,362.394,487.523z
	 M296.221,481.295c-0.547-0.569-1.191-1.02-1.936-1.352c-0.742-0.331-1.545-0.497-2.41-0.497s-1.67,0.166-2.412,0.497
	c-0.742,0.332-1.387,0.782-1.936,1.352c-0.547,0.57-0.977,1.229-1.285,1.979c-0.311,0.749-0.465,1.557-0.465,2.422
	s0.154,1.672,0.465,2.422c0.309,0.75,0.738,1.409,1.285,1.979c0.549,0.569,1.193,1.017,1.936,1.341s1.547,0.486,2.412,0.486
	s1.668-0.162,2.41-0.486c0.744-0.324,1.389-0.771,1.936-1.341c0.549-0.569,0.977-1.229,1.287-1.979s0.465-1.557,0.465-2.422
	s-0.154-1.673-0.465-2.422C297.198,482.524,296.77,481.865,296.221,481.295z M296.006,487.523c-0.217,0.569-0.52,1.067-0.908,1.492
	c-0.391,0.426-0.859,0.765-1.406,1.017c-0.549,0.252-1.154,0.378-1.816,0.378c-0.664,0-1.27-0.126-1.816-0.378
	c-0.549-0.252-1.018-0.591-1.406-1.017c-0.389-0.425-0.691-0.923-0.908-1.492s-0.324-1.179-0.324-1.827
	c0-0.649,0.107-1.262,0.324-1.839c0.217-0.576,0.52-1.077,0.908-1.503c0.389-0.425,0.857-0.764,1.406-1.016
	c0.547-0.252,1.152-0.379,1.816-0.379c0.662,0,1.268,0.127,1.816,0.379c0.547,0.252,1.016,0.591,1.406,1.016
	c0.389,0.426,0.691,0.927,0.908,1.503c0.215,0.577,0.324,1.189,0.324,1.839C296.331,486.345,296.221,486.954,296.006,487.523z
	 M309.381,480.463c-0.455-0.39-0.996-0.656-1.623-0.801c-0.627-0.144-1.309-0.216-2.043-0.216c-0.707,0-1.465,0.047-2.271,0.141
	s-1.701,0.234-2.682,0.422v11.699h1.535v-10.402c1.184-0.23,2.293-0.346,3.33-0.346c0.592,0,1.111,0.062,1.559,0.184
	c0.445,0.123,0.818,0.332,1.113,0.628c0.295,0.295,0.525,0.713,0.691,1.254s0.25,1.251,0.25,2.13v6.553h1.535v-7.201
	c0-0.995-0.119-1.82-0.357-2.477C310.18,481.375,309.834,480.852,309.381,480.463z M318.516,490.054
	c-0.346-0.108-0.619-0.277-0.82-0.509c-0.203-0.23-0.35-0.547-0.443-0.951c-0.096-0.403-0.141-0.922-0.141-1.557v-5.86h4.973v-1.492
	h-4.973v-4.347h-1.537v4.347h-2.551v1.492h2.551v6.466c0,0.764,0.109,1.405,0.326,1.925c0.215,0.519,0.525,0.937,0.93,1.254
	c0.402,0.317,0.867,0.544,1.395,0.682c0.525,0.137,1.105,0.205,1.74,0.205h2.271v-1.492h-2.422
	C319.295,490.216,318.862,490.162,318.516,490.054z M337.784,489.589c-0.316,0-0.59,0.115-0.82,0.346s-0.346,0.505-0.346,0.822
	c0,0.316,0.115,0.591,0.346,0.821s0.504,0.346,0.82,0.346c0.318,0,0.592-0.115,0.822-0.346s0.346-0.505,0.346-0.821
	c0-0.317-0.115-0.592-0.346-0.822S338.102,489.589,337.784,489.589z M333.178,486.106c-0.346-0.303-0.785-0.565-1.318-0.789
	c-0.533-0.223-1.182-0.422-1.947-0.595l-0.799-0.173c-1.053-0.216-1.781-0.461-2.184-0.735c-0.404-0.273-0.607-0.678-0.607-1.211
	c0-0.504,0.238-0.904,0.715-1.2c0.475-0.295,1.174-0.443,2.098-0.443c0.793,0,1.477,0.076,2.055,0.228
	c0.576,0.151,1.217,0.421,1.924,0.811l0.691-1.405c-1.412-0.765-2.969-1.146-4.67-1.146c-0.635,0-1.223,0.076-1.764,0.228
	c-0.539,0.151-1.008,0.364-1.404,0.638s-0.711,0.605-0.941,0.994c-0.23,0.39-0.346,0.815-0.346,1.276
	c0,0.462,0.072,0.88,0.217,1.254c0.143,0.375,0.381,0.707,0.713,0.995s0.758,0.537,1.275,0.746c0.52,0.209,1.146,0.4,1.883,0.573
	l0.908,0.194c1.008,0.217,1.729,0.49,2.162,0.822c0.432,0.331,0.648,0.771,0.648,1.318c0,0.39-0.086,0.707-0.26,0.952
	c-0.172,0.245-0.414,0.436-0.725,0.573c-0.311,0.137-0.678,0.237-1.102,0.303c-0.426,0.064-0.877,0.097-1.352,0.097
	c-0.592,0-1.223-0.09-1.893-0.271c-0.67-0.18-1.352-0.479-2.045-0.897l-0.734,1.471c0.779,0.433,1.539,0.742,2.281,0.93
	s1.539,0.281,2.391,0.281c0.748,0,1.434-0.072,2.053-0.216c0.621-0.145,1.158-0.36,1.611-0.648c0.455-0.289,0.805-0.649,1.049-1.082
	c0.246-0.433,0.369-0.93,0.369-1.492c0-0.476-0.072-0.915-0.217-1.318C333.77,486.763,333.526,486.41,333.178,486.106z"/>
</svg>

