<?xml version="1.0" encoding="utf-8"?>
<!-- Generator: Adobe Illustrator 21.0.0, SVG Export Plug-In . SVG Version: 6.00 Build 0)  -->
<svg version="1.1" id="Layer_1" xmlns="http://www.w3.org/2000/svg" xmlns:xlink="http://www.w3.org/1999/xlink" x="0px" y="0px"
	 viewBox="0 0 800 500" style="enable-background:new 0 0 800 500;" xml:space="preserve">
<style type="text/css">
	.st0{opacity:0.4;}
	.st1{fill:#020202;}
</style>
<g>
	<g class="st0">
		<polygon class="st1" points="628.6,215.7 638.8,209.4 643.5,223 631.1,230.4 		"/>
		<polygon class="st1" points="443.2,83.4 453.4,77 458.1,90.6 445.7,98.1 		"/>
		<polygon class="st1" points="462.4,201.8 460.2,188.3 472.3,186.7 474.9,203 		"/>
		<polygon class="st1" points="594.3,353.9 604.5,347.5 609.1,361.1 596.8,368.6 		"/>
		<polygon class="st1" points="390.7,427.7 400.9,421.4 405.6,435 393.2,442.4 		"/>
		<polygon class="st1" points="446.5,286.9 456.7,280.6 461.4,294.2 449,301.7 		"/>
		<polygon class="st1" points="231.4,209.4 241.6,203.1 246.3,216.6 233.9,224.1 		"/>
		<g>
			<polygon class="st1" points="197.3,286.4 197.4,271.6 213.1,276.3 213.2,299 			"/>
			<polygon class="st1" points="535.5,345.9 546.9,351.5 537.5,367.3 519.9,359 			"/>
			<polygon class="st1" points="33.2,231.3 45.5,233.1 39.8,251.4 21,249 			"/>
			<polygon class="st1" points="351.1,196.6 357.8,203 348.9,211.2 338.7,201.6 			"/>
			<polygon class="st1" points="517.9,126.6 527.4,135.8 514.8,147.5 500.1,133.7 			"/>
			<polygon class="st1" points="694.5,172.7 703.8,182.1 691,193.5 676.6,179.4 			"/>
			<polygon class="st1" points="612.8,54.8 612.8,66.4 600.6,62.9 600.4,45.2 			"/>
			<polygon class="st1" points="770.2,278.2 760.6,277.5 764.4,263.1 779,264 			"/>
			<polygon class="st1" points="256.9,411.7 250.6,420.4 243.3,408.1 252.8,394.6 			"/>
		</g>
		<g>
			<polygon class="st1" points="305.8,268.8 316.4,266.1 318.5,274.3 311.7,282 			"/>
			<polygon class="st1" points="536.8,253.6 547.5,250.9 549.6,259.1 542.7,266.8 			"/>
			<polygon class="st1" points="609.8,134.1 620.4,131.3 622.5,139.5 615.7,147.2 			"/>
			<polygon class="st1" points="390.2,261.3 400.7,258 403.1,266.1 396.6,274.1 			"/>
			<polygon class="st1" points="622.3,297.4 632.9,294.6 635,302.8 628.2,310.6 			"/>
			<polygon class="st1" points="184.9,193.1 195.5,190.4 197.6,198.6 190.8,206.3 			"/>
			<polygon class="st1" points="501.7,441.6 512.4,438.9 514.5,447.1 507.6,454.8 			"/>
			<polygon class="st1" points="123.7,272.3 134.3,269.6 136.4,277.8 129.6,285.5 			"/>
			<polygon class="st1" points="176.5,364.9 187.1,362.1 189.2,370.3 182.4,378 			"/>
			<polygon class="st1" points="141,89.9 151.7,87.1 153.8,95.3 146.9,103.1 			"/>
			<polygon class="st1" points="304.9,120.7 323.7,115.9 327.4,130.3 315.3,143.9 			"/>
		</g>
		<g>
			<polygon class="st1" points="403.2,159.7 401.7,151.1 410.3,154.6 412.2,166 			"/>
			<polygon class="st1" points="86.6,165.3 85.1,156.8 93.7,160.3 95.5,171.7 			"/>
			<polygon class="st1" points="564,187.6 569.7,182.3 570.8,193.1 563,200 			"/>
			<polygon class="st1" points="216,95.4 221.8,90.1 222.8,101 215,107.8 			"/>
			<polygon class="st1" points="412.1,336.8 417.9,331.5 418.9,342.3 411.1,349.2 			"/>
			<polygon class="st1" points="696.5,280 702.8,275.5 702.7,286.5 694.3,292.2 			"/>
			<polygon class="st1" points="369.8,104.4 362.6,105.7 366.1,95.6 375.7,94.1 			"/>
			<polygon class="st1" points="92.8,311.6 105.1,316.6 93.9,330.4 77.5,323.7 			"/>
			<polygon class="st1" points="319.4,373.9 306.6,370.9 316.2,355.5 333.1,359.5 			"/>
		</g>
		<polygon class="st1" points="752.7,183.8 770.6,172.7 778.9,196.6 757.1,209.8 		"/>
	</g>
	<path fill="#000000" class="st1" d="M402.9,191.7c0,0-36.9,8.7-22.8,45.8c0,0,11.7,22.1,40.5,23.4c0,0-22,1.5-36.2-6.4c0,0-30.4-16.3-42.6,27.6
		c0,0-6.3,44.1-138.2,50.5c0,0,19.4,0.7,53.6-2.4c0,0,31.2,4.3,10.1,43.4c0,0,71.5-12.9,96.5-78.3c0,0,13.6-34,31.9-21.4
		c0,0,42.4,18.5,42.9-17.9C438.6,256,445.6,185.5,402.9,191.7z"/>
	<path fill="#000000" class="st1" d="M163.1,253.3c0,0,46.7,88.4,165.3,6.2c0,0,15.6-12,23.7-9.6c0,0,4.9-13.5,7.9-24.3c0,0-66.3,22-100.3-11.7
		c0,0-41-44.1-72.3,22.5c0,0,44.6,9.8,43.7,15.1c0,0-1.8-32.6,43-10.9c0,0,26.7,13,56.7,2.8c0,0-77.3,50.4-139,11.3
		c0,0-22.7-25.1-15-69.5c0,0-20.6,10.7-24.8,9c0,0,0.1,18.2,0.6,21.2c0,0-14.1-14.6-48.3-14.4c0,0-40.3-0.8-54,34.2
		c0,0-17.3,52.8,62.3,47.8C112.4,283.1,151.7,276.9,163.1,253.3z"/>
	
		<ellipse transform="matrix(0.9554 -0.2953 0.2953 0.9554 -48.182 40.163)" class="st1" cx="108.9" cy="179.6" rx="15.4" ry="15.4"/>
	
		<ellipse transform="matrix(2.842170e-02 -0.9996 0.9996 2.842170e-02 212.3463 563.1636)" class="st1" cx="395.9" cy="172.3" rx="15.4" ry="15.4"/>
	
		<ellipse transform="matrix(2.842170e-02 -0.9996 0.9996 2.842170e-02 -106.9124 254.8539)" class="st1" cx="77.6" cy="182.4" rx="15.4" ry="15.4"/>
	
		<ellipse transform="matrix(0.4668 -0.8844 0.8844 0.4668 1.4961 657.8214)" class="st1" cx="546.2" cy="327.7" rx="14.6" ry="14.6"/>
	
		<ellipse transform="matrix(2.842170e-02 -0.9996 0.9996 2.842170e-02 171.7912 837.4321)" class="st1" cx="516.7" cy="330.3" rx="14.6" ry="14.6"/>
	<path fill="#000000" class="st1" d="M742.2,132.6c0,0-37.2,31.3-47.6,34.4c0,0,62.1,100.2-10.5,161c0,0-27.9,18.5-64.9,24.5
		c0,0,31.9-0.2,65.6-20.2c0,0,16.4-4.4,18.5,21.2c0,0,43-13,40.7-124.9c0,0,2.5-26.2-3.4-83.3c0,0,2.6,4.5,5.3,17.4
		C745.8,162.7,746.1,150.9,742.2,132.6z"/>
	<path fill="#000000" class="st1" d="M690.3,128c0,0-35.6,18.9-51.9,28.2c0,0,65.9,132-8.4,138.9c0,0-22.5,7.9-35-11.8c3.7,8.1,42.6-3.2,42.6-3.2
		l0-23.6c-49.2,9-77.8-12.3-77.8-12.3c30.2-20.4,54.7-3.3,54.7-3.3c-4.4-18.7-4.8-27.8-4.8-27.8s-74.6-27.5-69.1,55.7
		c0,0,12.9,10.5,36.3,7.9c0,0-66.4,24-48.4-47.7c0,0-25.4,11.1-28.1,7.2c0,0,10,35.5-4.7,37.9c0,0-12-43-22.3-57.3
		c0,0-25.5,28.8-29.1,32.5c0,0,38.5,30.6,33.2,46.7c0,0-25,8-56,5.8c0,0,1.4,26.5,0.7,41.7c-0.1,3-18.4,3-75.8,39.6
		c0,0,50-31.1,78-32.7c2.3-0.1,5.8-1.1,10.1-2.1c21.8-5.3,63.6-19.9,65.3-54.7c0,0,11.3,6.5,16.7-9.4c0,0,29.3,44.3,66.7,10.4
		c0,0,29.3,48.9,82.4,20.3c0,0,43.8-22.2,27.5-115.3c0,0-7.3-16.5-10.5-41.9c0,0,8.9,23.8,9.4,25.3C692.2,183,686.1,150,690.3,128z"
		/>
	<path fill="#000000" id="XMLID_87_" class="st1" d="M534.8,360.7c21.6-4.8,20.3-3.5,50.5-14.6c4.6-1.7,3.1-6.5-1.7-4.8c-29.1,10.4-25,8.6-49.7,14
		C527.4,355.8,527.2,362,534.8,360.7z"/>
	<path fill="#000000" id="XMLID_86_" class="st1" d="M350.5,351.9c22.8-5.1,21.5-3.7,53.4-15.4c4.9-1.8,3.3-6.8-1.8-5
		c-30.8,10.9-26.4,9.1-52.5,14.8C342.7,346.8,342.5,353.2,350.5,351.9z"/>
	<path fill="#000000" id="XMLID_82_" class="st1" d="M212,178.2c22.8-5.1,21.5-3.7,53.4-15.4c4.9-1.8,3.3-6.8-1.8-5c-30.8,10.9-26.4,9.1-52.5,14.8
		C204.2,173.1,204,179.6,212,178.2z"/>
	<path fill="#000000" id="XMLID_80_" class="st1" d="M294.6,199.7c5.4-0.5,7.5-4,7.8-6.3c0.2-2.1-2.8-2.4-2.9-0.1c0.1,1.5-3.1,3.5-4.5,3.8
		c-2.9,0.4-6.8-1.5-5.8-6.4c0.7-4.5,6.5-7.8,12.3-6.9c10.9,1.6,16.3,8.4,20.6,18.9c1.9,4.6,6.5,4.6,6.4,0.1
		c-0.3-21.8,17-35.4,27.3-28.1c2,1.4,3,3.4,2.7,5.1c-0.3,1.4-0.9,2.4-2,2.9c-1,0.5-2.3,0.4-3.3-0.1c-1.1-0.7-2.4-2.7-2.2-3.4
		c0.3-0.8,0.1-1.6-0.4-2.2c-0.5-0.5-1.2-0.8-2-0.6c-0.8,0.2-1.3,0.7-1.6,1.6c-0.5,2.6,0.5,6.1,4.8,8.2c1.9,0.9,4.3,0.9,6.3-0.1
		c2.1-1.1,3.5-3.1,3.9-5.6c0.9-4.9-0.6-9-4.1-11.6c-10.8-7.9-31.3,1.9-34.4,26.4c-3.6-9.5-11.5-15.7-20.3-16.8
		c-8.6-1.1-15.1,4.5-16.5,11.7C285.4,196.3,290.3,200.1,294.6,199.7z"/>
	<path fill="#000000" id="XMLID_79_" class="st1" d="M477.9,207.9c5.1-0.5,7.1-3.8,7.4-6c0.2-2-2.7-2.3-2.8-0.1c0.1,1.5-2.9,3.3-4.3,3.6
		c-2.7,0.4-6.4-1.4-5.5-6.1c0.7-4.3,6.2-7.4,11.7-6.6c10.3,1.5,15.4,8,19.5,17.9c1.8,4.4,6.1,4.3,6.1,0.1
		c-0.3-20.6,16.1-33.5,25.8-26.6c1.9,1.3,2.9,3.2,2.5,4.8c-0.2,1.3-0.9,2.3-1.9,2.8c-0.9,0.5-2.2,0.4-3.1-0.1
		c-1-0.7-2.3-2.6-2.1-3.2c0.3-0.8,0.1-1.6-0.4-2.1c-0.5-0.5-1.2-0.7-1.9-0.6c-0.7,0.2-1.2,0.7-1.5,1.5c-0.5,2.5,0.5,5.8,4.5,7.8
		c1.8,0.9,4.1,0.8,6-0.1c2-1,3.3-2.9,3.7-5.3c0.8-4.6-0.5-8.5-3.9-11c-10.2-7.5-29.7,1.8-32.6,25c-3.4-9-10.9-14.9-19.2-15.9
		c-8.2-1.1-14.3,4.3-15.6,11.1C469.2,204.7,473.9,208.3,477.9,207.9z"/>
	<path fill="#000000" id="XMLID_75_" class="st1" d="M204.6,314.3c-5-2.2-8.5-0.1-9.9,1.8c-1.2,1.7,1.3,3.5,2.5,1.5c0.7-1.4,4.4-1.6,5.8-1.1
		c2.7,1,5.2,4.6,2,8.4c-2.8,3.6-9.5,3.7-14.1,0.2c-8.7-6.6-10.2-15.2-9-26.5c0.6-4.9-3.5-7.1-5.6-3.2
		c-10.2,19.3-31.9,22.9-37.4,11.6c-1.1-2.2-1-4.4,0.1-5.8c0.9-1.1,2-1.7,3.1-1.6c1.1,0.1,2.2,0.7,2.8,1.6c0.6,1.1,0.8,3.5,0.3,4
		c-0.6,0.6-0.9,1.4-0.7,2.1c0.2,0.7,0.7,1.3,1.5,1.5c0.7,0.2,1.5,0,2.1-0.7c1.7-2.1,2.5-5.6-0.3-9.5c-1.2-1.7-3.4-2.8-5.6-2.9
		c-2.4-0.1-4.5,1-6.1,3c-3.1,3.9-3.8,8.2-2,12.1c5.7,12.1,28.4,13.4,42.9-6.6c-1.4,10,2.5,19.3,9.7,24.5c7,5.1,15.4,3.3,20.1-2.3
		C211.1,321.7,208.5,316,204.6,314.3z"/>
</g>
<path fill="#000000" d="M273.602,481.306c-0.578-0.576-1.301-1.03-2.174-1.362c-0.873-0.331-1.885-0.497-3.039-0.497
	c-0.663,0-1.463,0.079-2.4,0.238v-6.077h-1.535v17.711c0.706,0.202,1.402,0.354,2.087,0.454s1.301,0.151,1.849,0.151
	c1.153,0,2.166-0.162,3.039-0.486s1.596-0.764,2.174-1.319c0.576-0.555,1.006-1.211,1.287-1.968s0.42-1.561,0.42-2.411
	s-0.139-1.657-0.42-2.422C274.608,482.554,274.178,481.883,273.602,481.306z M272.391,489.167c-0.852,0.829-2.17,1.243-3.958,1.243
	c-0.39,0-0.805-0.032-1.244-0.097c-0.439-0.065-0.84-0.134-1.2-0.206v-8.845c0.447-0.115,0.887-0.194,1.319-0.237
	c0.433-0.044,0.808-0.065,1.125-0.065c0.894,0,1.668,0.112,2.325,0.335c0.656,0.224,1.199,0.545,1.633,0.963
	c0.432,0.418,0.752,0.919,0.961,1.503s0.314,1.243,0.314,1.979C273.667,487.195,273.241,488.338,272.391,489.167z M247.392,479.446
	c-0.62,0-1.297,0.079-2.033,0.238c-0.735,0.158-1.485,0.433-2.249,0.821l-0.065,1.73c0.548-0.303,0.973-0.52,1.276-0.649
	s0.624-0.237,0.962-0.324c0.338-0.086,0.677-0.158,1.016-0.216s0.667-0.087,0.984-0.087c1.139,0,1.982,0.249,2.53,0.746
	s0.822,1.33,0.822,2.498v0.13c-0.332-0.044-0.732-0.087-1.2-0.13c-0.469-0.043-0.876-0.065-1.222-0.065
	c-1.831,0-3.302,0.311-4.412,0.931c-1.11,0.619-1.665,1.644-1.665,3.07c0,0.707,0.155,1.305,0.465,1.795
	c0.31,0.49,0.713,0.88,1.211,1.168s1.067,0.497,1.708,0.627c0.641,0.13,1.308,0.194,2,0.194c0.807,0,1.6-0.072,2.378-0.216
	c0.779-0.145,1.536-0.368,2.271-0.671v-7.028c0-1.585-0.397-2.742-1.189-3.471C250.189,479.811,248.992,479.446,247.392,479.446z
	 M250.636,489.892c-0.375,0.144-0.858,0.267-1.449,0.367c-0.591,0.102-1.183,0.151-1.773,0.151c-0.505,0-0.984-0.035-1.438-0.108
	c-0.454-0.071-0.84-0.197-1.157-0.378c-0.317-0.18-0.57-0.414-0.757-0.703c-0.188-0.288-0.281-0.663-0.281-1.124
	c0-0.52,0.111-0.934,0.335-1.244c0.224-0.31,0.533-0.551,0.93-0.724c0.396-0.174,0.85-0.296,1.362-0.368
	c0.511-0.072,1.041-0.108,1.589-0.108c0.476,0,0.984,0.029,1.524,0.087c0.541,0.058,0.912,0.108,1.114,0.151V489.892z
	 M258.032,479.868c-0.649,0.122-1.276,0.263-1.881,0.422v11.418h1.535v-10.186c0.202-0.072,0.563-0.147,1.082-0.228
	c0.519-0.079,1.002-0.118,1.449-0.118h1.989v-1.492H260C259.336,479.685,258.681,479.746,258.032,479.868z M-77.92,487.667
	l241.145,0.656l0.663-0.433l-0.632-0.564L-77.92,487.667z M164.994,487.825l1.95,1.95l1.95-1.95l-1.95-1.95L164.994,487.825z
	 M169.559,487.825l3.057,3.057l3.057-3.057l-3.057-3.057L169.559,487.825z M212.359,489.286l-3.395-9.602h-1.514l-3.396,9.602
	l-2.984-9.602h-1.73l3.979,12.023h1.428l3.46-9.645l3.46,9.645h1.427l3.979-12.023h-1.73L212.359,489.286z M238.418,489.589
	c-0.317,0-0.591,0.115-0.822,0.346c-0.231,0.23-0.346,0.505-0.346,0.822c0,0.316,0.115,0.591,0.346,0.821
	c0.23,0.23,0.504,0.346,0.822,0.346c0.317,0,0.591-0.115,0.822-0.346c0.23-0.23,0.346-0.505,0.346-0.821
	c0-0.317-0.116-0.592-0.346-0.822C239.009,489.704,238.735,489.589,238.418,489.589z M193.243,489.286l-3.395-9.602h-1.514
	l-3.396,9.602l-2.984-9.602h-1.73l3.979,12.023h1.428l3.46-9.645l3.46,9.645h1.427l3.979-12.023h-1.73L193.243,489.286z
	 M231.476,489.286l-3.395-9.602h-1.514l-3.396,9.602l-2.984-9.602h-1.73l3.979,12.023h1.428l3.46-9.645l3.46,9.645h1.427
	l3.979-12.023h-1.73L231.476,489.286z M382.732,480.474c-0.426-0.396-0.938-0.667-1.535-0.812c-0.598-0.144-1.271-0.216-2.021-0.216
	c-0.664,0-1.393,0.09-2.184,0.271c-0.793,0.181-1.471,0.4-2.033,0.659c-0.346-0.331-0.818-0.569-1.416-0.714
	c-0.6-0.144-1.273-0.216-2.023-0.216c-0.635,0-1.268,0.058-1.902,0.173l-2.465,0.454v11.635h1.535v-10.38
	c0.447-0.102,0.883-0.188,1.309-0.26c0.424-0.072,0.896-0.108,1.416-0.108c0.605,0,1.125,0.058,1.557,0.173
	c0.434,0.116,0.789,0.321,1.07,0.616c0.281,0.296,0.494,0.711,0.639,1.244s0.217,1.24,0.217,2.119v6.596h1.535v-7.201
	c0-0.663-0.055-1.243-0.162-1.741c-0.109-0.497-0.213-0.861-0.314-1.092c0.086-0.043,0.281-0.119,0.584-0.228
	c0.303-0.107,0.602-0.197,0.898-0.27c0.295-0.072,0.586-0.126,0.875-0.162s0.547-0.055,0.779-0.055c0.59,0,1.102,0.058,1.535,0.173
	c0.432,0.116,0.781,0.317,1.049,0.605c0.266,0.289,0.471,0.703,0.615,1.244c0.145,0.54,0.217,1.251,0.217,2.13v6.596h1.535v-7.201
	c0-0.995-0.111-1.816-0.336-2.466C383.482,481.393,383.158,480.87,382.732,480.474z M280.1,474.581
	c-0.785,0.648-1.18,1.729-1.18,3.243v1.86h-2.551v1.492h2.551v10.531h1.537v-10.531h4.973v-1.492h-4.973v-1.471
	c0-0.635,0.045-1.149,0.141-1.546c0.094-0.396,0.24-0.707,0.443-0.931c0.201-0.223,0.475-0.385,0.82-0.486
	c0.346-0.101,0.779-0.151,1.299-0.151h2.422v-1.492h-2.271C281.956,473.607,280.885,473.932,280.1,474.581z M398.273,487.825
	l3.057,3.057l3.057-3.057l-3.057-3.057L398.273,487.825z M343.322,482.322c0.389-0.418,0.854-0.749,1.395-0.994
	s1.135-0.368,1.783-0.368c0.736,0,1.373,0.076,1.914,0.228s1.121,0.414,1.74,0.789l0.715-1.405c-0.707-0.39-1.393-0.674-2.055-0.854
	c-0.664-0.181-1.436-0.271-2.314-0.271c-0.85,0-1.639,0.155-2.367,0.465c-0.729,0.311-1.367,0.746-1.914,1.309
	c-0.549,0.563-0.98,1.222-1.297,1.979c-0.317,0.757-0.476,1.59-0.476,2.498s0.158,1.74,0.476,2.497
	c0.316,0.757,0.748,1.413,1.297,1.969c0.547,0.555,1.186,0.987,1.914,1.297c0.729,0.311,1.518,0.465,2.367,0.465
	c0.879,0,1.65-0.09,2.314-0.27c0.662-0.181,1.348-0.466,2.055-0.854l-0.715-1.406c-0.619,0.375-1.199,0.639-1.74,0.79
	s-1.178,0.227-1.914,0.227c-0.648,0-1.242-0.119-1.783-0.356c-0.541-0.238-1.006-0.565-1.395-0.984
	c-0.391-0.418-0.693-0.915-0.908-1.492c-0.217-0.576-0.324-1.203-0.324-1.881s0.107-1.305,0.324-1.882
	C342.628,483.238,342.931,482.741,343.322,482.322z M404.387,487.825l1.949,1.95l1.951-1.95l-1.951-1.95L404.387,487.825z
	 M410.701,487.326l-0.664,0.433l0.633,0.564l241.176-0.341L410.701,487.326z M362.611,481.295c-0.549-0.569-1.193-1.02-1.936-1.352
	c-0.742-0.331-1.547-0.497-2.412-0.497c-0.863,0-1.668,0.166-2.41,0.497c-0.742,0.332-1.389,0.782-1.936,1.352
	c-0.549,0.57-0.977,1.229-1.287,1.979c-0.311,0.749-0.465,1.557-0.465,2.422s0.154,1.672,0.465,2.422s0.738,1.409,1.287,1.979
	c0.547,0.569,1.193,1.017,1.936,1.341s1.547,0.486,2.41,0.486c0.865,0,1.67-0.162,2.412-0.486s1.387-0.771,1.936-1.341
	c0.547-0.569,0.977-1.229,1.287-1.979c0.309-0.75,0.465-1.557,0.465-2.422s-0.156-1.673-0.465-2.422
	C363.587,482.524,363.158,481.865,362.611,481.295z M362.394,487.523c-0.217,0.569-0.52,1.067-0.908,1.492
	c-0.389,0.426-0.857,0.765-1.406,1.017c-0.547,0.252-1.152,0.378-1.816,0.378c-0.662,0-1.268-0.126-1.816-0.378
	c-0.547-0.252-1.016-0.591-1.404-1.017c-0.391-0.425-0.693-0.923-0.908-1.492c-0.217-0.569-0.324-1.179-0.324-1.827
	c0-0.649,0.107-1.262,0.324-1.839c0.215-0.576,0.518-1.077,0.908-1.503c0.389-0.425,0.857-0.764,1.404-1.016
	c0.549-0.252,1.154-0.379,1.816-0.379c0.664,0,1.27,0.127,1.816,0.379c0.549,0.252,1.018,0.591,1.406,1.016
	c0.389,0.426,0.691,0.927,0.908,1.503c0.217,0.577,0.324,1.189,0.324,1.839C362.718,486.345,362.611,486.954,362.394,487.523z
	 M296.221,481.295c-0.547-0.569-1.191-1.02-1.936-1.352c-0.742-0.331-1.545-0.497-2.41-0.497s-1.67,0.166-2.412,0.497
	c-0.742,0.332-1.387,0.782-1.936,1.352c-0.547,0.57-0.977,1.229-1.285,1.979c-0.311,0.749-0.465,1.557-0.465,2.422
	s0.154,1.672,0.465,2.422c0.309,0.75,0.738,1.409,1.285,1.979c0.549,0.569,1.193,1.017,1.936,1.341s1.547,0.486,2.412,0.486
	s1.668-0.162,2.41-0.486c0.744-0.324,1.389-0.771,1.936-1.341c0.549-0.569,0.977-1.229,1.287-1.979s0.465-1.557,0.465-2.422
	s-0.154-1.673-0.465-2.422C297.198,482.524,296.77,481.865,296.221,481.295z M296.006,487.523c-0.217,0.569-0.52,1.067-0.908,1.492
	c-0.391,0.426-0.859,0.765-1.406,1.017c-0.549,0.252-1.154,0.378-1.816,0.378c-0.664,0-1.27-0.126-1.816-0.378
	c-0.549-0.252-1.018-0.591-1.406-1.017c-0.389-0.425-0.691-0.923-0.908-1.492s-0.324-1.179-0.324-1.827
	c0-0.649,0.107-1.262,0.324-1.839c0.217-0.576,0.52-1.077,0.908-1.503c0.389-0.425,0.857-0.764,1.406-1.016
	c0.547-0.252,1.152-0.379,1.816-0.379c0.662,0,1.268,0.127,1.816,0.379c0.547,0.252,1.016,0.591,1.406,1.016
	c0.389,0.426,0.691,0.927,0.908,1.503c0.215,0.577,0.324,1.189,0.324,1.839C296.331,486.345,296.221,486.954,296.006,487.523z
	 M309.381,480.463c-0.455-0.39-0.996-0.656-1.623-0.801c-0.627-0.144-1.309-0.216-2.043-0.216c-0.707,0-1.465,0.047-2.271,0.141
	s-1.701,0.234-2.682,0.422v11.699h1.535v-10.402c1.184-0.23,2.293-0.346,3.33-0.346c0.592,0,1.111,0.062,1.559,0.184
	c0.445,0.123,0.818,0.332,1.113,0.628c0.295,0.295,0.525,0.713,0.691,1.254s0.25,1.251,0.25,2.13v6.553h1.535v-7.201
	c0-0.995-0.119-1.82-0.357-2.477C310.18,481.375,309.834,480.852,309.381,480.463z M318.516,490.054
	c-0.346-0.108-0.619-0.277-0.82-0.509c-0.203-0.23-0.35-0.547-0.443-0.951c-0.096-0.403-0.141-0.922-0.141-1.557v-5.86h4.973v-1.492
	h-4.973v-4.347h-1.537v4.347h-2.551v1.492h2.551v6.466c0,0.764,0.109,1.405,0.326,1.925c0.215,0.519,0.525,0.937,0.93,1.254
	c0.402,0.317,0.867,0.544,1.395,0.682c0.525,0.137,1.105,0.205,1.74,0.205h2.271v-1.492h-2.422
	C319.295,490.216,318.862,490.162,318.516,490.054z M337.784,489.589c-0.316,0-0.59,0.115-0.82,0.346s-0.346,0.505-0.346,0.822
	c0,0.316,0.115,0.591,0.346,0.821s0.504,0.346,0.82,0.346c0.318,0,0.592-0.115,0.822-0.346s0.346-0.505,0.346-0.821
	c0-0.317-0.115-0.592-0.346-0.822S338.102,489.589,337.784,489.589z M333.178,486.106c-0.346-0.303-0.785-0.565-1.318-0.789
	c-0.533-0.223-1.182-0.422-1.947-0.595l-0.799-0.173c-1.053-0.216-1.781-0.461-2.184-0.735c-0.404-0.273-0.607-0.678-0.607-1.211
	c0-0.504,0.238-0.904,0.715-1.2c0.475-0.295,1.174-0.443,2.098-0.443c0.793,0,1.477,0.076,2.055,0.228
	c0.576,0.151,1.217,0.421,1.924,0.811l0.691-1.405c-1.412-0.765-2.969-1.146-4.67-1.146c-0.635,0-1.223,0.076-1.764,0.228
	c-0.539,0.151-1.008,0.364-1.404,0.638s-0.711,0.605-0.941,0.994c-0.23,0.39-0.346,0.815-0.346,1.276
	c0,0.462,0.072,0.88,0.217,1.254c0.143,0.375,0.381,0.707,0.713,0.995s0.758,0.537,1.275,0.746c0.52,0.209,1.146,0.4,1.883,0.573
	l0.908,0.194c1.008,0.217,1.729,0.49,2.162,0.822c0.432,0.331,0.648,0.771,0.648,1.318c0,0.39-0.086,0.707-0.26,0.952
	c-0.172,0.245-0.414,0.436-0.725,0.573c-0.311,0.137-0.678,0.237-1.102,0.303c-0.426,0.064-0.877,0.097-1.352,0.097
	c-0.592,0-1.223-0.09-1.893-0.271c-0.67-0.18-1.352-0.479-2.045-0.897l-0.734,1.471c0.779,0.433,1.539,0.742,2.281,0.93
	s1.539,0.281,2.391,0.281c0.748,0,1.434-0.072,2.053-0.216c0.621-0.145,1.158-0.36,1.611-0.648c0.455-0.289,0.805-0.649,1.049-1.082
	c0.246-0.433,0.369-0.93,0.369-1.492c0-0.476-0.072-0.915-0.217-1.318C333.77,486.763,333.526,486.41,333.178,486.106z"/>
</svg>

