<?xml version="1.0" encoding="utf-8"?>
<!-- Generator: Adobe Illustrator 21.0.0, SVG Export Plug-In . SVG Version: 6.00 Build 0)  -->
<svg version="1.1" id="Layer_1" xmlns="http://www.w3.org/2000/svg" xmlns:xlink="http://www.w3.org/1999/xlink" x="0px" y="0px"
	 viewBox="0 0 800 500" style="enable-background:new 0 0 800 500;" xml:space="preserve">
<g>
	<path fill="#000000" d="M776.4,209.9c-4.3-3.4-8.7-5.1-13.3-5.1c-2.4,0-4.8,1-7,2.9c-2.3,2-3.4,4.1-3.4,6.4c0,2.4,1,4.7,3.1,6.7
		c2.1,2,4.4,3.1,6.8,3.1c1.6,0,3-0.5,4.3-1.6c1.2-1.1,1.8-2.3,1.8-3.6c0-1-0.9-2.2-2.7-3.8c-0.6,3.2-1.8,4.8-3.6,4.8
		c-0.8,0-1.4-0.2-1.8-0.7c-0.4-0.5-0.6-1.7-0.6-3.6c0-1.6,0.7-3.1,1.9-4.5c1.3-1.4,2.8-2.1,4.5-2.1c2.5,0,4.6,1.4,6.3,4
		c1.7,2.7,2.5,5.5,2.5,8.5c0,6.8-3.9,10.2-11.8,10.2c-2.6,0-6.1-1.3-10.6-3.8c-4.5-2.6-8.5-5.6-12-9.1c-3.5-3.5-8.1-6.6-13.8-9.3
		c-5.7-2.7-10.9-4.1-15.5-4.1c-11.4,0-21,4.2-28.9,12.5c-7.9,8.3-11.9,17.5-11.9,27.4c0,13.1,6.8,24.2,20.3,33.5l-73.3,2.6
		c0.6,1.2,1.2,2.4,1.7,3.7H678v0.2c34.6-2.2,63.4-3.4,86.3-3.6c2.3,0,4.5,0,6.6,0l0,0h4.7c-2-8.4-3-17.3-3.2-26.6l-4.8-0.4l0.7,11.7
		c-23,5.1-46.1,9-69.6,11.6c-15.2-8.1-22.8-17.9-22.8-29.2c0-9.3,3.3-16.7,9.8-22.2c6.6-5.5,15.6-8.2,27-8.2
		c7.7,0,18.5,3.9,32.4,11.8c6.3,3.6,12.9,5.4,19.7,5.4c4.9,0,9.2-1.4,12.7-4.1c3.5-2.7,5.3-6.2,5.3-10.4
		C782.9,216.9,780.7,213.2,776.4,209.9"/>
	<path fill="#000000" d="M503.8,220.7c0,4.2,1.8,7.7,5.3,10.4c3.5,2.7,7.7,4.1,12.7,4.1c6.8,0,13.4-1.8,19.7-5.4c13.9-7.9,24.8-11.8,32.4-11.8
		c11.4,0,20.4,2.7,27,8.2c6.6,5.5,9.8,12.9,9.8,22.2c0,11.4-7.6,21.1-22.8,29.2c-23.5-2.6-46.7-6.5-69.6-11.6l0.7-11.7l-4.8,0.4
		c-0.2,9.3-1.2,18.2-3.2,26.6h4.7l0,0c2.1,0,4.4,0,6.6,0c22.9,0.2,51.7,1.4,86.3,3.6h10.1c0,0,2.4-2.7,3-3.9l-26.1-2.6
		c13.5-9.3,20.3-20.5,20.3-33.5c0-10-4-19.1-11.9-27.4c-7.9-8.3-17.6-12.5-28.9-12.5c-4.6,0-9.8,1.4-15.5,4.1
		c-5.7,2.7-10.3,5.8-13.8,9.3c-3.5,3.5-7.5,6.5-12,9.1c-4.5,2.5-8,3.8-10.6,3.8c-7.9,0-11.8-3.4-11.8-10.2c0-3,0.8-5.8,2.5-8.5
		c1.7-2.7,3.8-4,6.3-4c1.7,0,3.2,0.7,4.5,2.1c1.3,1.4,1.9,2.9,1.9,4.5c0,1.9-0.2,3.1-0.6,3.6c-0.4,0.5-1,0.7-1.8,0.7
		c-1.8,0-3.1-1.6-3.6-4.8c-1.8,1.5-2.7,2.8-2.7,3.8c0,1.3,0.6,2.5,1.8,3.6c1.2,1.1,2.6,1.6,4.3,1.6c2.4,0,4.7-1,6.8-3.1
		c2.1-2,3.1-4.3,3.1-6.7c0-2.3-1.1-4.4-3.4-6.4c-2.3-2-4.6-2.9-7-2.9c-4.6,0-9,1.7-13.3,5.1C505.9,213.2,503.8,216.9,503.8,220.7"/>
	<path fill="#000000" d="M614.2,281l-3,3.9c10.9-0.3,20.3-3.3,28.4-9.5c8.6-6.6,12.8-14.2,12.8-23.1c0-4.3-0.3-8.1-0.8-11.6
		c-0.5-3.5-1.5-8.8-3-16.1l-2.9-13.9h9.6v-2.3c-8.3-0.1-14.3-0.3-18-0.5c-3.6-0.2-8.7-1-15.1-2.4v2.9l9.6,1.6
		c1,2.1,2.7,6.4,4.9,12.9c2.3,6.5,3.7,12,4.5,16.4c0.8,4.4,1.2,9.6,1.2,15.6c0,7.5-3.2,14-9.5,19.5
		C626.9,279.6,622.8,280.7,614.2,281"/>
	<path fill="#000000" d="M636.7,302.3c2.5-1.9,5.4-2.8,8.5-2.8c4.1,0,7.2,1.7,9.2,5l1-0.1c-1.6-6.3-6-9.5-13.3-9.5c-2.9,0-5.6,1.4-8.1,4.1
		c-2.5,2.7-3.8,5.9-3.8,9.4c0,3.4,1.2,6.2,3.6,8.4c2.4,2.2,5.2,3.4,8.4,3.4c2.7,0,5.2-0.8,7.6-2.4c2.3-1.6,3.5-3.6,3.5-5.8
		c0-2.2-0.9-3.9-2.8-5.1c-1.9-1.2-3.9-1.8-6.1-1.8c-1.6,0-3,0.5-4.2,1.5c-1.1,1-1.7,2.2-1.7,3.6c0,0.7,0.3,1.6,1,2.6
		c0.7,1,1.5,1.5,2.3,1.5c2,0,3.2-1.4,3.9-4.2c-1,0.7-1.9,1-2.6,1c-1.5,0-2.3-0.7-2.3-1.9c0-0.6,0.4-1.2,1.1-1.6
		c0.7-0.5,1.3-0.7,1.9-0.7c3.2,0,4.8,2.1,4.8,6.2c0,3.6-2.1,5.5-6.2,5.5c-2.1,0-4.2-0.9-6.4-2.6c-2.2-1.7-3.3-4.1-3.3-7
		C632.8,306.3,634.1,304.2,636.7,302.3"/>
	<path fill="#000000" d="M607.3,302.3c2.5-1.9,5.4-2.8,8.5-2.8c4.1,0,7.2,1.7,9.2,5l1-0.1c-1.6-6.3-6-9.5-13.3-9.5c-2.9,0-5.6,1.4-8.1,4.1
		c-2.5,2.7-3.8,5.9-3.8,9.4c0,3.4,1.2,6.2,3.6,8.4c2.4,2.2,5.2,3.4,8.4,3.4c2.7,0,5.3-0.8,7.6-2.4c2.3-1.6,3.5-3.6,3.5-5.8
		c0-2.2-0.9-3.9-2.8-5.1c-1.9-1.2-3.9-1.8-6.1-1.8c-1.6,0-3,0.5-4.2,1.5c-1.1,1-1.7,2.2-1.7,3.6c0,0.7,0.3,1.6,1,2.6
		c0.7,1,1.5,1.5,2.3,1.5c2,0,3.2-1.4,3.9-4.2c-1,0.7-1.9,1-2.6,1c-1.5,0-2.3-0.7-2.3-1.9c0-0.6,0.4-1.2,1.1-1.6
		c0.7-0.5,1.3-0.7,1.9-0.7c3.2,0,4.8,2.1,4.8,6.2c0,3.6-2.1,5.5-6.2,5.5c-2.1,0-4.2-0.9-6.4-2.6c-2.2-1.7-3.3-4.1-3.3-7
		C603.4,306.3,604.7,304.2,607.3,302.3"/>
	<path fill="#000000" d="M290,209.9c-4.3-3.4-8.7-5.1-13.3-5.1c-2.4,0-4.8,1-7,2.9c-2.3,2-3.4,4.1-3.4,6.4c0,2.4,1,4.7,3.1,6.7
		c2.1,2,4.4,3.1,6.8,3.1c1.6,0,3-0.5,4.3-1.6c1.2-1.1,1.8-2.3,1.8-3.6c0-1-0.9-2.2-2.7-3.8c-0.6,3.2-1.8,4.8-3.6,4.8
		c-0.8,0-1.4-0.2-1.8-0.7c-0.4-0.5-0.6-1.7-0.6-3.6c0-1.6,0.7-3.1,1.9-4.5c1.3-1.4,2.8-2.1,4.5-2.1c2.5,0,4.6,1.4,6.3,4
		c1.7,2.7,2.5,5.5,2.5,8.5c0,6.8-3.9,10.2-11.8,10.2c-2.6,0-6.1-1.3-10.6-3.8c-4.5-2.6-8.5-5.6-12-9.1c-3.5-3.5-8.1-6.6-13.8-9.3
		c-5.7-2.7-10.9-4.1-15.5-4.1c-11.4,0-21,4.2-28.9,12.5c-7.9,8.3-11.9,17.5-11.9,27.4c0,13.1,6.8,24.2,20.3,33.5l-73.3,2.6
		c0.6,1.2,1.2,2.4,1.8,3.7h58.5v0.2c34.6-2.2,80.5,0.2,103.5,0c2.3,0,19.9,0,22,0h5.9H349l-5.8-2.6c0,0-105.9-5.2-130.9-4.7
		c-15.2-8.1-22.8-17.9-22.8-29.2c0-9.3,3.3-16.7,9.8-22.2c6.6-5.5,15.6-8.2,27-8.2c7.7,0,18.5,3.9,32.4,11.8
		c6.3,3.6,12.9,5.4,19.7,5.4c4.9,0,9.2-1.4,12.7-4.1c3.5-2.7,5.3-6.2,5.3-10.4C296.4,216.9,294.3,213.2,290,209.9"/>
	<path fill="#000000" d="M17.3,220.7c0,4.2,1.8,7.7,5.3,10.4c3.5,2.7,7.7,4.1,12.7,4.1c6.8,0,13.4-1.8,19.7-5.4c13.9-7.9,24.8-11.8,32.4-11.8
		c11.4,0,20.4,2.7,27,8.2c6.6,5.5,9.8,12.9,9.8,22.2c0,11.4-7.6,21.1-22.8,29.2c-23.5-2.6-46.7-6.5-69.6-11.6l0.7-11.7l-4.8,0.4
		c-0.2,9.3-1.2,18.2-3.2,26.6h4.7l0,0c2.1,0,4.4,0,6.6,0c22.9,0.2,51.7,1.4,86.3,3.6h10.1c0,0,2.4-2.7,3-3.9l-26.1-2.6
		c13.5-9.3,20.3-20.5,20.3-33.5c0-10-4-19.1-11.9-27.4c-7.9-8.3-17.6-12.5-28.9-12.5c-4.6,0-9.8,1.4-15.5,4.1
		c-5.7,2.7-10.3,5.8-13.8,9.3c-3.5,3.5-7.5,6.5-12,9.1c-4.5,2.5-8,3.8-10.6,3.8c-7.9,0-11.8-3.4-11.8-10.2c0-3,0.8-5.8,2.5-8.5
		c1.7-2.7,3.8-4,6.3-4c1.7,0,3.2,0.7,4.5,2.1c1.3,1.4,1.9,2.9,1.9,4.5c0,1.9-0.2,3.1-0.6,3.6c-0.4,0.5-0.9,0.7-1.8,0.7
		c-1.8,0-3.1-1.6-3.6-4.8c-1.8,1.5-2.7,2.8-2.7,3.8c0,1.3,0.6,2.5,1.8,3.6c1.2,1.1,2.6,1.6,4.3,1.6c2.4,0,4.7-1,6.8-3.1
		c2.1-2,3.1-4.3,3.1-6.7c0-2.3-1.1-4.4-3.4-6.4c-2.3-2-4.6-2.9-7-2.9c-4.6,0-9,1.7-13.3,5.1C19.5,213.2,17.3,216.9,17.3,220.7"/>
	<path fill="#000000" d="M127.8,281l-3,3.9c10.9-0.3,20.3-3.3,28.4-9.5c8.6-6.6,12.8-14.2,12.8-23.1c0-4.3-0.3-8.1-0.8-11.6
		c-0.5-3.5-1.5-8.8-3-16.1l-2.9-13.9h9.6v-2.3c-8.3-0.1-14.3-0.3-18-0.5c-3.6-0.2-8.7-1-15.1-2.4v2.9l9.6,1.6
		c1,2.1,2.7,6.4,4.9,12.9c2.3,6.5,3.7,12,4.5,16.4c0.8,4.4,1.2,9.6,1.2,15.6c0,7.5-3.2,14-9.5,19.5
		C140.5,279.6,136.4,280.7,127.8,281"/>
	<path fill="#000000" d="M150.2,302.3c2.6-1.9,5.4-2.8,8.5-2.8c4.1,0,7.2,1.7,9.2,5l1-0.1c-1.6-6.3-6-9.5-13.3-9.5c-2.9,0-5.6,1.4-8.1,4.1
		c-2.5,2.7-3.8,5.9-3.8,9.4c0,3.4,1.2,6.2,3.6,8.4c2.4,2.2,5.2,3.4,8.4,3.4c2.7,0,5.2-0.8,7.6-2.4c2.3-1.6,3.5-3.6,3.5-5.8
		c0-2.2-0.9-3.9-2.8-5.1c-1.9-1.2-3.9-1.8-6.1-1.8c-1.6,0-3,0.5-4.2,1.5c-1.1,1-1.7,2.2-1.7,3.6c0,0.7,0.3,1.6,1,2.6
		c0.7,1,1.5,1.5,2.3,1.5c2,0,3.2-1.4,3.9-4.2c-1,0.7-1.9,1-2.6,1c-1.5,0-2.3-0.7-2.3-1.9c0-0.6,0.4-1.2,1.1-1.6
		c0.7-0.5,1.3-0.7,1.9-0.7c3.2,0,4.8,2.1,4.8,6.2c0,3.6-2.1,5.5-6.2,5.5c-2.1,0-4.2-0.9-6.4-2.6c-2.2-1.7-3.3-4.1-3.3-7
		C146.4,306.3,147.7,304.2,150.2,302.3"/>
	<path fill="#000000" d="M120.8,302.3c2.6-1.9,5.4-2.8,8.5-2.8c4.1,0,7.2,1.7,9.2,5l1-0.1c-1.6-6.3-6-9.5-13.3-9.5c-2.9,0-5.6,1.4-8.1,4.1
		c-2.5,2.7-3.8,5.9-3.8,9.4c0,3.4,1.2,6.2,3.6,8.4c2.4,2.2,5.2,3.4,8.4,3.4c2.7,0,5.3-0.8,7.6-2.4c2.3-1.6,3.5-3.6,3.5-5.8
		c0-2.2-0.9-3.9-2.8-5.1c-1.9-1.2-3.9-1.8-6.1-1.8c-1.6,0-3,0.5-4.2,1.5c-1.1,1-1.7,2.2-1.7,3.6c0,0.7,0.3,1.6,1,2.6
		c0.7,1,1.5,1.5,2.3,1.5c2,0,3.2-1.4,3.9-4.2c-1,0.7-1.9,1-2.6,1c-1.5,0-2.3-0.7-2.3-1.9c0-0.6,0.4-1.2,1.1-1.6
		c0.7-0.5,1.3-0.7,1.9-0.7c3.2,0,4.8,2.1,4.8,6.2c0,3.6-2.1,5.5-6.2,5.5c-2.1,0-4.2-0.9-6.4-2.6c-2.2-1.7-3.3-4.1-3.3-7
		C117,306.3,118.3,304.2,120.8,302.3"/>
	<path fill="#000000" d="M447.8,220.7c0,0.5-0.4,0.9-1.2,1.3c-0.8,0.4-1.6,0.6-2.3,0.6c-1,0-2-0.3-2.8-0.9c-0.8-0.6-1.2-1.2-1.2-1.9
		c0-0.9,0.6-1.8,1.8-2.8c1.2-1,2.5-1.5,3.8-1.5c2.1,0,4.2,0.6,6.1,1.7c1.9,1.1,2.9,2.3,2.9,3.7c0,2.1-1.2,3.8-3.7,5.2
		c-2.5,1.4-5.2,2.1-8.3,2.1c-3.4,0-6.4-1.1-9.2-3.2c-2.7-2.1-4.1-4.4-4.1-6.7c0-3.6,1.8-6.6,5.3-9.1c3.5-2.5,7.5-3.7,11.8-3.7
		c6.7,0,12.3,3.3,16.9,10c4.6,6.7,6.9,15.5,6.9,26.5c0,12-3.8,22.3-11.4,30.7c-7.6,8.5-18.1,12.7-31.4,12.7
		c-11.6,0-21.6-3.3-30.2-9.8c-8.6-6.5-12.8-14.1-12.8-22.9c0-4.2,0.3-8.1,0.8-11.5c0.5-3.4,1.6-8.8,3-16l2.9-13.7h-9.6v-2.3
		c8.3-0.1,14.3-0.3,18-0.5c3.6-0.2,8.7-1,15.1-2.4v2.9l-9.6,1.6c-1,2.1-2.7,6.3-4.9,12.8c-2.2,6.5-3.7,11.9-4.5,16.3
		c-0.8,4.4-1.1,9.6-1.1,15.5c0,7.4,3.2,13.9,9.5,19.4c6.4,5.5,14.2,8.3,23.4,8.3c12.1,0,21.5-3.8,28.2-11.5
		c6.8-7.7,10.1-17.4,10.1-29.1c0-10.5-1.6-18.4-4.9-23.8c-3.3-5.4-8.1-8.1-14.3-8.1c-3.2,0-6,0.9-8.3,2.8c-2.3,1.8-3.5,4-3.5,6.5
		c0,2.1,0.9,3.8,2.8,5.1c1.9,1.3,3.9,2,6,2c1.5,0,3-0.5,4.3-1.4c1.4-0.9,2-1.9,2-2.9c0-1.2-0.5-2.5-1.5-3.7c-1-1.3-1.9-1.9-2.7-1.9
		c-1.6,0-2.4,0.5-2.4,1.5C443.6,219,445,219.8,447.8,220.7"/>
	<path fill="#000000" d="M394.7,251.6h-10.1c0,1.2,0.1,2.4,0.1,3.7c0,7.4-3.2,13.9-9.5,19.4c-6.3,5.5-14.2,8.3-23.4,8.3c-12.1,0-21.5-3.8-28.2-11.5
		c-6.8-7.7-10.1-17.4-10.1-29.1c0-10.5,1.6-18.4,5-23.8c3.3-5.4,8.1-8.1,14.3-8.1c3.2,0,6,0.9,8.3,2.8c2.3,1.9,3.5,4,3.5,6.5
		c0,2.1-0.9,3.8-2.8,5.1c-1.9,1.3-3.9,2-6,2c-1.5,0-3-0.5-4.3-1.4c-1.4-0.9-2-1.9-2-2.9c0-1.2,0.5-2.5,1.5-3.7
		c1-1.2,1.9-1.9,2.7-1.9c1.6,0,2.4,0.5,2.4,1.5c0,0.7-1.4,1.6-4.2,2.4c0,0.5,0.4,0.9,1.2,1.3c0.8,0.4,1.6,0.6,2.3,0.6
		c1,0,2-0.3,2.8-0.9c0.8-0.6,1.2-1.2,1.2-1.9c0-0.9-0.6-1.8-1.8-2.8c-1.2-1-2.4-1.5-3.8-1.5c-2.1,0-4.2,0.6-6.1,1.7
		c-1.9,1.1-2.9,2.3-2.9,3.7c0,2.1,1.2,3.8,3.7,5.2c2.5,1.4,5.2,2.1,8.3,2.1c3.4,0,6.4-1.1,9.2-3.2c2.7-2.1,4.1-4.4,4.1-6.7
		c0-3.6-1.8-6.6-5.3-9.1c-3.5-2.5-7.5-3.7-11.8-3.7c-6.6,0-12.3,3.3-16.9,10c-4.6,6.7-6.9,15.5-6.9,26.5c0,12,3.8,22.3,11.4,30.7
		c7.6,8.5,18.1,12.7,31.4,12.7c11.6,0,21.6-3.2,30.2-9.7c8.6-6.5,12.8-14.1,12.8-22.9C394.7,252.4,394.7,252,394.7,251.6"/>
	<g>
		<g>
			<path fill="#000000" d="M392.4,137.6c-4.6-8.9-15.9-13.6-25.3-9.8c-8.8,3.5-14.1,13.3-11.3,22.5c2.9,9.5,13.3,15.2,22.7,11.4
				c9.6-3.9,13.8-17.9,4.2-24.4c-8.9-6.1-21.2,1.9-17.7,12.6c0.7,2.1,3.2,1.2,2.5-0.9c-1.8-5.6,3.4-11.1,9.3-10.3
				c6.4,0.9,9.3,7.7,7.1,13.4c-4.7,11.9-21.4,8-24.7-2.7c-3-9.5,4.8-19.2,14.5-19.4c10.6-0.2,18.4,9.4,17.5,19.6
				c-1,10.6-10.7,18.1-21,18c-5.5-0.1-10.6-2-15.1-5c-13.7-12.2-10.6-33.4,5-42.9c6.1-3.8,13-6.7,17.3-12.8c3.5-5,4.1-11.4,1-16.7
				c-6.3-10.9-23.8-9.2-27.1,3.2c-1.5,5.7,1.4,12.2,7.4,13.6c4.7,1.1,10-2.2,10.3-7.3c0.4-5.7-5.4-9.9-10.6-7.7
				c-2.3,0.9-3.8,2.7-4.4,4.7c0.1-5.4,6.7-10.6,12.1-10.5c7.3,0.2,12.5,7.9,10.4,14.8c-2.1,6.8-9.2,10.4-14.9,13.7
				c-9.8,5.5-17.2,13.2-18.7,24.8c-0.6,4.8,0.1,9.4,1.7,13.7c0,0,0,0,0-0.1c-11.6-13.6-18.3-32.1-34.8-41.1
				c-16-8.6-35.4-1.5-41.3,15.3c-7.1-7.3-18.3-9.6-28.6-8c-3.4-3.7-8.9-5.3-13.6-2.3c-5.5,3.6-5.4,12.5,1,15
				c5.9,2.3,10.9-3.1,9.6-8.6c0.5-0.1,1.1-0.3,1.6-0.4c0,0.1,0.1,0.1,0.1,0.2c4.1,7.2-1.3,15.5-7.4,19.5c-1.9-1.5-4.3-2.4-7-2.4
				c-9.8,0-16.3,9.2-23.3,14.8c-4.7,3.8-12.1,7.5-17.9,3.7c-2.2-1.4-3.9-4.3-3.7-7c0.3-2.9,3.2-5,6.1-4.5c1.5,0.2,2.9,1.6,3,3.1
				c0.2,2.2-3.6,5-5.7,0.8c-0.6-1.2-1.4,0.5-1.2,1.7c0.7,4,5.1,4.9,7.9,3c3.5-2.4,3.3-7.8,0.1-10.4c-3.2-2.6-8.2-2-11.1,0.8
				c-3.5,3.4-3,8.9-0.4,12.6c0.9,1.3,1.9,2.3,3,3.1H45.8c-0.1-3.8-2.1-7.4-6.3-9.1c-7.7-3.1-15.6,4.9-11.4,11.9
				c0.5,0.9,0.4,0.7,2.1,0.7H42c-1.7,5.1-7.8,7.6-12.8,6.2c-5.2-1.4-8.6-6.6-8.6-12c0.1-5.8,2-11,8.3-14.5c2-1.1,1.1-2.2-0.9-1.3
				c-8.4,3.8-13.3,13.3-9.6,22.2c3.5,8.3,13.6,12,21.4,7.3c2.9-1.8,4.9-4.8,5.6-8h174.5c7.2,0,14.8-3.6,15.9-11.1
				c0.5-3.3-0.4-6.4-2.2-8.9c6.5-4.5,11.5-12.4,9.3-20.5c-0.2-0.8-0.5-1.6-0.9-2.4c7.3-0.9,14.7,0.3,20.9,4.8
				c9.7,7.1,12.9,22.8,2.2,30.6c-6.7,4.8-17.7,5.5-20.9-3.7c-1.7-5,1-10.8,6.5-11.5c1.8-0.2,3.7,0.3,5.2,1.4c1.9,1.5,3,4.3,2.7,6.7
				c-0.3,2.2-2.3,3.9-4.5,4c-3.2,0.1-4.7-3.5-3.3-6.1c0.4-0.8-0.9-2.5-2.1-1c-2.8,3.6-0.7,9.1,3.9,10.1c4.8,1,8.9-2.9,9.4-7.5
				c1.2-12.3-16.1-14.6-20.6-4.3c-5.3,12.1,8.4,21.5,19.3,18.4c5.6-1.6,9.7-5.3,12.2-9.9c12.6-0.5,25.3,0.6,37.6,3.6
				c1.6,0.4,3.2,0.8,4.8,1.2c0.5,2,1.2,4,1.9,5.9c1.9,4.8,4.4,12.1,9.8,14.1c4.8,1.8,9.5-2,10.1-6.8c0.7-6-4.4-10.4-9.4-12.7
				c-3.1-1.4-6.3-2.6-9.6-3.7c-1.3-5.6-2.1-11.5-3.3-17c-1.9-8.5-6.3-17.8-15.4-20.4c-7.6-2.1-16.1,1.1-19.6,8.3
				c-3.6,7.1-1.4,16,5.5,20.2c6.3,3.8,14.7,2.7,19.1-3.5c4.1-5.8,2.2-15-5-17.5c-7.1-2.5-15.6,4.5-12.3,12
				c3.5,7.9,15.8,3.2,11.5-4.8c-1.1-2-2.1-1.8-1.3,0.9c0.8,2.8-1.9,5.8-4.8,4.4c-2.7-1.3-3-5.5-1-7.5c2.3-2.4,6.5-2.5,9-0.3
				c4.6,4.1,2.3,11.7-2.9,14.1c-3.1,1.4-6.9,1-9.9-0.6c-2.7-1.4-4.9-3.9-5.7-6.9c-2.5-9,5.5-16.9,14.3-15.9
				c9.5,1.1,13.6,10.8,15.3,19.1c1,4.8,1.7,9.5,2.7,14.2c-12.9-3.5-26.8-4.6-39.8-4.2c1.7-5.2,1.4-11.2-1-16.4
				c-0.6-1.4-1.3-2.6-2.2-3.8c3.8-14.1,18.4-22.4,32.5-17.5c13,4.5,20.9,16.8,28.1,27.8c6,9.2,12.3,18.6,21.6,24.5
				c0.7,0.6,1.4,1.2,2.2,1.8c0.5,0.4,1,0.4,1.4,0.2c9.6,4.8,21.1,4.8,29.7-2.2C394.6,158.7,397.2,147,392.4,137.6 M365,97.3
				c0.8,1.7,0.8,3.5-0.6,4.8c-1.7,1.5-4.3,2.1-5.9,0.3c-1.2-1.3-1.7-3-1-4.7C358.9,94.6,363.4,94,365,97.3 M234.1,120.8
				c-2.4,0.9-2.3,0.2-0.9,3c2,4-3,7.2-6.2,4.2c-1.7-1.6-1.7-4.5-0.5-6.3c2.2-3.3,6-3.1,8.9-1.3C235,120.5,234.5,120.6,234.1,120.8
				 M30.8,162.1c-0.8-3.4,2-6.6,5.6-6.3c3.3,0.3,5.6,3.2,5.9,6.3H30.8z M230.3,156.7c-1.2,1.7-2.8,3.1-4.7,4.1
				c-1.5,0.8-4.3,1.3-6.4,1.3h-23.1c4.5-2.1,8.7-5.4,11.7-8.1c5.1-4.8,15.3-14.8,22.3-7.4C232.8,149.4,232.6,153.5,230.3,156.7
				 M326.1,163.1c3,1.4,6.2,3.4,7.1,6.9c0.7,2.6-0.5,6.3-3.8,6.4c-2,0.1-3.8-2-4.8-3.5c-2.7-3.9-4.4-8.1-5.7-12.5
				C321.4,161.2,323.8,162.1,326.1,163.1"/>
			<path fill="#000000" d="M408.4,165.4c8.6,7.1,20.1,7,29.7,2.2c0.4,0.2,0.9,0.1,1.4-0.2c0.8-0.6,1.5-1.2,2.2-1.8c9.3-6,15.7-15.4,21.6-24.5
				c7.1-11,15.1-23.3,28.1-27.8c14.1-4.9,28.7,3.4,32.5,17.5c-0.8,1.2-1.5,2.4-2.1,3.8c-2.4,5.3-2.7,11.2-1,16.4
				c-13-0.4-26.9,0.7-39.8,4.2c1-4.7,1.8-9.4,2.7-14.2c1.7-8.3,5.8-18,15.3-19.1c8.8-1,16.8,6.9,14.3,15.9c-0.8,3-3,5.5-5.7,6.9
				c-3,1.6-6.8,2-9.9,0.6c-5.2-2.4-7.5-9.9-2.9-14.1c2.4-2.2,6.7-2.1,9,0.3c2,2,1.7,6.2-1,7.5c-2.8,1.4-5.6-1.6-4.8-4.4
				c0.8-2.7-0.2-2.9-1.3-0.9c-4.3,8,8,12.7,11.5,4.8c3.3-7.5-5.2-14.5-12.3-12c-7.2,2.5-9.1,11.7-5,17.5c4.4,6.2,12.8,7.3,19.1,3.5
				c6.9-4.2,9-13,5.5-20.2c-3.6-7.2-12-10.4-19.6-8.3c-9.1,2.6-13.6,11.8-15.4,20.4c-1.2,5.6-2,11.4-3.3,17c-3.3,1-6.5,2.3-9.6,3.7
				c-5,2.2-10.1,6.7-9.4,12.7c0.5,4.8,5.3,8.6,10.1,6.8c5.4-2.1,7.9-9.3,9.8-14.1c0.8-2,1.4-3.9,1.9-5.9c1.6-0.4,3.2-0.8,4.8-1.2
				c12.3-3,24.9-4.1,37.6-3.6c2.4,4.6,6.6,8.3,12.2,9.9c10.9,3.1,24.6-6.3,19.3-18.4c-4.5-10.4-21.8-8-20.6,4.3
				c0.5,4.6,4.5,8.5,9.4,7.5c4.6-0.9,6.7-6.5,3.9-10.1c-1.2-1.5-2.5,0.2-2.1,1c1.4,2.6-0.1,6.2-3.3,6.1c-2.2-0.1-4.1-1.8-4.5-4
				c-0.4-2.4,0.7-5.2,2.7-6.7c1.5-1.1,3.3-1.6,5.2-1.4c5.5,0.7,8.2,6.5,6.5,11.5c-3.2,9.2-14.2,8.5-20.9,3.7
				c-10.7-7.7-7.4-23.5,2.2-30.6c6.2-4.5,13.6-5.7,20.9-4.8c-0.4,0.8-0.7,1.6-0.9,2.4c-2.1,8.1,2.9,16,9.3,20.5
				c-1.8,2.5-2.6,5.7-2.2,8.9c1.1,7.5,8.7,11.1,15.9,11.1h174.5c0.8,3.2,2.8,6.2,5.6,8c7.8,4.8,17.9,1,21.4-7.3
				c3.7-8.9-1.2-18.4-9.6-22.2c-2-0.9-2.9,0.2-0.9,1.3c6.3,3.4,8.2,8.6,8.3,14.5c0.1,5.3-3.3,10.5-8.6,12
				c-5.1,1.4-11.1-1.1-12.8-6.2h11.7c1.8,0,1.6,0.2,2.1-0.7c4.2-7.1-3.7-15-11.4-11.9c-4.2,1.7-6.1,5.3-6.3,9.1H613.9
				c1.1-0.8,2.1-1.8,3-3.1c2.6-3.7,3.1-9.3-0.4-12.6c-2.9-2.8-8-3.4-11.1-0.8c-3.2,2.6-3.4,7.9,0.1,10.4c2.8,1.9,7.2,1,7.9-3
				c0.2-1.2-0.6-2.9-1.2-1.7c-2,4.2-5.8,1.5-5.7-0.8c0.1-1.5,1.5-2.9,3-3.1c2.8-0.4,5.8,1.6,6.1,4.5c0.2,2.7-1.5,5.5-3.7,7
				c-5.8,3.8-13.2,0.1-17.9-3.7c-6.9-5.6-13.4-14.7-23.3-14.8c-2.7,0-5.1,0.9-7,2.4c-6.1-4-11.4-12.3-7.4-19.5
				c0-0.1,0.1-0.1,0.1-0.2c0.5,0.1,1.1,0.2,1.6,0.4c-1.4,5.5,3.7,10.9,9.6,8.6c6.5-2.5,6.5-11.4,1-15c-4.8-3.1-10.2-1.5-13.6,2.3
				c-10.3-1.6-21.4,0.6-28.6,8c-5.9-16.8-25.4-23.9-41.3-15.3c-16.6,8.9-23.2,27.4-34.8,41.1c0,0,0,0,0,0.1c1.6-4.3,2.3-9,1.7-13.7
				c-1.4-11.6-8.9-19.2-18.7-24.7c-5.7-3.2-12.8-6.9-14.9-13.7c-2.1-6.9,3-14.6,10.4-14.8c5.4-0.1,12,5.1,12.1,10.5
				c-0.6-2-2.1-3.7-4.4-4.7c-5.3-2.1-11,2.1-10.6,7.7c0.3,5,5.6,8.3,10.3,7.3c6-1.4,8.9-7.9,7.4-13.6c-3.3-12.5-20.8-14.1-27.1-3.2
				c-3.1,5.3-2.5,11.7,1,16.7c4.3,6.1,11.2,9,17.3,12.8c15.6,9.6,18.6,30.7,5,42.9c-4.6,2.9-9.7,4.9-15.1,5c-10.3,0.1-20-7.4-21-18
				c-1-10.2,6.9-19.9,17.5-19.6c9.7,0.2,17.5,9.9,14.5,19.4c-3.4,10.7-20,14.6-24.7,2.7c-2.3-5.7,0.7-12.5,7.1-13.4
				c5.9-0.8,11.1,4.7,9.3,10.3c-0.7,2.1,1.8,3.1,2.5,0.9c3.5-10.8-8.8-18.7-17.7-12.6c-9.6,6.5-5.4,20.6,4.2,24.4
				c9.4,3.8,19.8-2,22.7-11.4c2.9-9.2-2.5-18.9-11.3-22.5c-9.4-3.8-20.7,0.9-25.3,9.8C397.7,147,400.3,158.7,408.4,165.4 M435.6,103
				c-3,1.4-7.8-1.6-5.8-5.7c1.4-2.7,4.7-2.9,6.7-0.7c0.9,1,1.4,2.3,1.1,3.7C437.3,101.6,436.6,102.5,435.6,103 M559.4,120.4
				c2.9-1.8,6.8-2,8.9,1.3c1.2,1.9,1.3,4.7-0.5,6.3c-3.2,3-8.2-0.2-6.2-4.2c1.4-2.8,1.5-2.1-0.9-3
				C560.3,120.6,559.9,120.5,559.4,120.4 M752.5,162.1c0.4-3.1,2.6-6,5.9-6.3c3.6-0.3,6.4,2.9,5.6,6.3H752.5z M564.9,146.5
				c7-7.4,17.2,2.7,22.3,7.4c3,2.8,7.2,6,11.7,8.1h-23.1c-2.1,0-4.9-0.5-6.4-1.3c-1.9-0.9-3.5-2.4-4.7-4.1
				C562.3,153.5,562.1,149.4,564.9,146.5 M476,160.4c-1.3,4.4-3,8.6-5.7,12.5c-1,1.5-2.7,3.5-4.8,3.5c-3.3-0.1-4.5-3.8-3.8-6.4
				c0.9-3.4,4.1-5.5,7.1-6.9C471.1,162.1,473.5,161.2,476,160.4"/>
		</g>
	</g>
	<g>
		<g>
			<path fill="#000000" d="M386.5,334.6c-8.6-7.1-20.1-7-29.7-2.2c-0.4-0.2-0.9-0.1-1.4,0.2c-0.8,0.6-1.5,1.2-2.2,1.8c-9.3,6-15.7,15.4-21.6,24.5
				c-7.1,11-15.1,23.3-28.1,27.8c-14.1,4.9-28.7-3.4-32.5-17.5c0.8-1.2,1.5-2.4,2.1-3.8c2.4-5.3,2.6-11.2,1-16.4
				c13,0.4,26.9-0.7,39.8-4.2c-1,4.7-1.7,9.4-2.7,14.2c-1.7,8.3-5.8,18-15.3,19.1c-8.8,1-16.8-6.9-14.3-15.9c0.8-3,3-5.5,5.7-6.9
				c3-1.6,6.8-2,9.9-0.6c5.2,2.4,7.5,9.9,2.9,14.1c-2.4,2.2-6.7,2.1-9-0.3c-2-2-1.7-6.2,1-7.5c2.8-1.4,5.6,1.6,4.8,4.4
				c-0.8,2.7,0.2,2.9,1.3,0.9c4.3-8-8-12.7-11.5-4.8c-3.3,7.5,5.2,14.5,12.3,12c7.2-2.5,9.1-11.7,5-17.5c-4.4-6.2-12.8-7.3-19.1-3.5
				c-6.9,4.2-9,13-5.5,20.2c3.6,7.2,12,10.4,19.6,8.3c9.1-2.6,13.6-11.8,15.4-20.4c1.2-5.6,2-11.4,3.3-17c3.3-1,6.5-2.3,9.6-3.7
				c5-2.2,10.1-6.7,9.4-12.7c-0.5-4.8-5.3-8.6-10.1-6.8c-5.4,2.1-7.9,9.3-9.8,14.1c-0.8,2-1.4,3.9-1.9,5.9c-1.6,0.4-3.2,0.8-4.8,1.2
				c-12.3,3-24.9,4.1-37.6,3.6c-2.4-4.6-6.6-8.3-12.2-9.9c-10.9-3.1-24.6,6.3-19.3,18.4c4.5,10.4,21.8,8,20.6-4.3
				c-0.5-4.6-4.5-8.5-9.4-7.5c-4.6,1-6.7,6.5-3.9,10.1c1.2,1.5,2.5-0.2,2.1-1c-1.4-2.6,0.1-6.2,3.3-6.1c2.2,0.1,4.1,1.8,4.5,4
				c0.4,2.4-0.7,5.2-2.7,6.7c-1.5,1.1-3.4,1.6-5.2,1.4c-5.5-0.7-8.2-6.5-6.5-11.5c3.2-9.2,14.2-8.5,20.9-3.7
				c10.7,7.7,7.4,23.5-2.2,30.5c-6.2,4.5-13.6,5.7-20.9,4.8c0.4-0.8,0.7-1.6,0.9-2.4c2.1-8.1-2.9-16-9.3-20.5
				c1.8-2.5,2.6-5.7,2.2-8.9c-1.1-7.5-8.7-11.1-15.9-11.1H45.5c-0.8-3.2-2.8-6.2-5.6-8c-7.8-4.8-17.9-1-21.4,7.3
				c-3.7,8.9,1.2,18.4,9.6,22.2c2,0.9,2.9-0.2,0.9-1.3c-6.3-3.4-8.2-8.6-8.3-14.5c-0.1-5.3,3.3-10.5,8.6-12
				c5.1-1.4,11.1,1.1,12.8,6.2H30.3c-1.8,0-1.6-0.2-2.1,0.7c-4.2,7.1,3.7,15,11.4,11.9c4.2-1.7,6.1-5.3,6.3-9.1H181
				c-1.1,0.8-2.1,1.8-3,3.1c-2.6,3.7-3.1,9.3,0.4,12.6c2.9,2.8,8,3.4,11.1,0.8c3.2-2.6,3.4-7.9-0.1-10.4c-2.8-1.9-7.2-1-7.9,3
				c-0.2,1.2,0.6,2.9,1.2,1.7c2-4.2,5.8-1.5,5.7,0.8c-0.1,1.5-1.5,2.9-3,3.1c-2.8,0.4-5.8-1.6-6.1-4.5c-0.2-2.7,1.5-5.5,3.7-7
				c5.8-3.8,13.2-0.1,17.9,3.7c6.9,5.6,13.4,14.7,23.3,14.8c2.7,0,5.1-0.9,7-2.4c6.1,4,11.4,12.3,7.4,19.5c0,0.1-0.1,0.1-0.1,0.2
				c-0.5-0.1-1.1-0.2-1.6-0.4c1.4-5.5-3.7-10.9-9.6-8.6c-6.5,2.5-6.5,11.4-1,15c4.8,3.1,10.2,1.5,13.6-2.3c10.3,1.6,21.4-0.6,28.6-8
				c5.9,16.8,25.4,23.9,41.3,15.3c16.6-8.9,23.2-27.4,34.8-41.1c0,0,0,0,0-0.1c-1.6,4.3-2.3,9-1.7,13.7c1.4,11.6,8.9,19.2,18.7,24.7
				c5.7,3.2,12.8,6.9,14.9,13.7c2.1,6.9-3,14.6-10.4,14.8c-5.4,0.1-12-5.1-12.1-10.5c0.6,2,2.1,3.7,4.4,4.7c5.3,2.1,11-2.1,10.6-7.7
				c-0.3-5-5.6-8.3-10.3-7.3c-6,1.4-8.9,7.9-7.4,13.6c3.3,12.5,20.8,14.1,27.1,3.2c3.1-5.3,2.5-11.7-1-16.7
				c-4.3-6.1-11.2-9-17.3-12.8c-15.6-9.5-18.6-30.7-5-42.9c4.6-2.9,9.7-4.9,15.1-5c10.3-0.1,20,7.4,21,18c1,10.2-6.9,19.9-17.5,19.6
				c-9.7-0.2-17.5-9.9-14.5-19.4c3.4-10.7,20-14.6,24.7-2.7c2.3,5.7-0.7,12.5-7.1,13.4c-5.9,0.8-11.1-4.7-9.3-10.3
				c0.7-2.1-1.8-3.1-2.5-0.9c-3.5,10.8,8.8,18.7,17.7,12.6c9.6-6.5,5.4-20.6-4.2-24.4c-9.4-3.8-19.8,2-22.7,11.4
				c-2.9,9.2,2.5,18.9,11.3,22.5c9.4,3.8,20.7-0.9,25.3-9.8C397.2,353,394.6,341.3,386.5,334.6 M357.5,402.2c-0.8-1.7-0.2-3.4,1-4.7
				c1.6-1.8,4.2-1.2,5.9,0.3c1.4,1.3,1.5,3.2,0.6,4.8C363.4,406,358.9,405.4,357.5,402.2 M235.5,379.6c-2.9,1.8-6.8,2-8.9-1.3
				c-1.2-1.9-1.3-4.7,0.5-6.3c3.2-3,8.2,0.2,6.2,4.2c-1.4,2.8-1.5,2.1,0.9,3C234.5,379.4,235,379.5,235.5,379.6 M42.4,337.9
				c-0.4,3.1-2.6,6-5.9,6.3c-3.6,0.3-6.4-2.9-5.6-6.3H42.4z M230,353.5c-7,7.4-17.2-2.7-22.3-7.4c-3-2.8-7.2-6-11.7-8.1h23.1
				c2.1,0,4.9,0.5,6.4,1.3c1.9,0.9,3.5,2.4,4.7,4.1C232.6,346.5,232.8,350.6,230,353.5 M318.9,339.6c1.3-4.4,3-8.6,5.7-12.5
				c1-1.5,2.7-3.5,4.8-3.5c3.3,0.1,4.5,3.8,3.8,6.4c-0.9,3.4-4.1,5.5-7.1,6.9C323.8,337.9,321.4,338.8,318.9,339.6"/>
			<path fill="#000000" d="M402.5,362.4c4.6,8.9,15.9,13.6,25.3,9.8c8.8-3.5,14.1-13.3,11.3-22.5c-2.9-9.5-13.3-15.2-22.7-11.4
				c-9.6,3.9-13.8,17.9-4.2,24.4c8.9,6.1,21.2-1.9,17.7-12.6c-0.7-2.1-3.2-1.2-2.5,0.9c1.8,5.6-3.4,11.1-9.3,10.3
				c-6.4-0.9-9.3-7.7-7.1-13.4c4.7-11.9,21.4-8,24.7,2.7c3,9.5-4.8,19.2-14.5,19.4c-10.6,0.2-18.4-9.4-17.5-19.6
				c1-10.6,10.7-18.1,21-18c5.5,0.1,10.6,2,15.1,5c13.7,12.2,10.6,33.4-5,42.9c-6.1,3.8-13,6.7-17.3,12.8c-3.5,5-4.1,11.4-1,16.7
				c6.3,10.9,23.8,9.2,27.1-3.2c1.5-5.7-1.4-12.2-7.4-13.6c-4.7-1.1-10,2.3-10.3,7.3c-0.4,5.7,5.4,9.9,10.6,7.7
				c2.3-0.9,3.8-2.7,4.4-4.7c-0.1,5.4-6.7,10.6-12.1,10.5c-7.3-0.2-12.5-7.9-10.4-14.8c2.1-6.8,9.2-10.4,14.9-13.7
				c9.8-5.5,17.2-13.2,18.7-24.7c0.6-4.8-0.1-9.4-1.7-13.7c0,0,0,0,0,0.1c11.7,13.6,18.3,32.1,34.8,41.1c16,8.6,35.4,1.5,41.3-15.3
				c7.1,7.3,18.3,9.6,28.6,8c3.4,3.7,8.9,5.3,13.6,2.3c5.5-3.6,5.4-12.5-1-15c-5.9-2.3-10.9,3.1-9.6,8.6c-0.5,0.1-1.1,0.3-1.6,0.4
				c0-0.1-0.1-0.1-0.1-0.2c-4.1-7.2,1.3-15.5,7.4-19.5c1.9,1.5,4.3,2.4,7,2.4c9.8,0,16.3-9.2,23.3-14.8c4.7-3.8,12.1-7.5,17.9-3.7
				c2.2,1.4,3.9,4.3,3.7,7c-0.3,2.9-3.2,5-6.1,4.5c-1.5-0.2-2.9-1.6-3-3.1c-0.2-2.2,3.6-5,5.7-0.8c0.6,1.2,1.4-0.5,1.2-1.7
				c-0.7-4-5.1-4.9-7.9-3c-3.5,2.4-3.3,7.8-0.1,10.4c3.2,2.6,8.2,2,11.1-0.8c3.5-3.4,3-8.9,0.4-12.6c-0.9-1.3-1.9-2.3-3-3.1h135.1
				c0.1,3.8,2.1,7.4,6.3,9.1c7.7,3.1,15.6-4.9,11.4-11.9c-0.5-0.9-0.4-0.7-2.1-0.7h-11.7c1.7-5.1,7.8-7.6,12.8-6.2
				c5.2,1.4,8.6,6.6,8.6,12c-0.1,5.8-2,11-8.3,14.5c-2,1.1-1.1,2.2,0.9,1.3c8.4-3.8,13.3-13.3,9.6-22.2c-3.5-8.3-13.6-12-21.4-7.3
				c-2.9,1.8-4.9,4.8-5.6,8H575c-7.2,0-14.8,3.6-15.9,11.1c-0.5,3.3,0.4,6.4,2.2,8.9c-6.5,4.5-11.5,12.4-9.3,20.5
				c0.2,0.8,0.5,1.6,0.9,2.4c-7.3,0.9-14.7-0.3-20.9-4.8c-9.7-7.1-12.9-22.8-2.2-30.5c6.7-4.8,17.7-5.5,20.9,3.7
				c1.7,5-1,10.8-6.5,11.5c-1.8,0.2-3.7-0.3-5.2-1.4c-1.9-1.5-3-4.3-2.7-6.7c0.3-2.2,2.3-3.9,4.5-4c3.2-0.1,4.7,3.5,3.3,6.1
				c-0.4,0.8,0.9,2.5,2.1,1c2.8-3.6,0.7-9.1-3.9-10c-4.8-1-8.9,2.9-9.4,7.5c-1.2,12.3,16.1,14.6,20.6,4.3
				c5.3-12.1-8.4-21.5-19.3-18.4c-5.6,1.6-9.7,5.3-12.2,9.9c-12.6,0.5-25.3-0.6-37.6-3.6c-1.6-0.4-3.2-0.8-4.8-1.2
				c-0.5-2-1.2-4-1.9-5.9c-1.9-4.8-4.4-12.1-9.8-14.1c-4.8-1.8-9.5,2-10.1,6.8c-0.7,6,4.4,10.4,9.4,12.7c3.1,1.4,6.3,2.6,9.6,3.7
				c1.3,5.6,2.1,11.5,3.3,17c1.9,8.5,6.3,17.8,15.4,20.4c7.6,2.1,16.1-1.1,19.6-8.3c3.5-7.1,1.4-16-5.5-20.2
				c-6.3-3.8-14.7-2.7-19.1,3.5c-4.1,5.8-2.2,15,5,17.5c7.1,2.5,15.6-4.5,12.3-12c-3.5-7.9-15.8-3.2-11.5,4.8c1.1,2,2.1,1.8,1.3-0.9
				c-0.9-2.8,1.9-5.8,4.8-4.4c2.7,1.3,3,5.5,1,7.5c-2.3,2.4-6.5,2.5-9,0.3c-4.6-4.1-2.3-11.7,2.9-14.1c3.1-1.4,6.9-1,9.9,0.6
				c2.7,1.4,4.9,3.9,5.7,6.9c2.5,9-5.5,16.9-14.3,15.9c-9.5-1.1-13.6-10.8-15.3-19.1c-1-4.8-1.7-9.5-2.7-14.2
				c12.9,3.5,26.8,4.6,39.8,4.2c-1.7,5.2-1.4,11.2,1,16.4c0.6,1.4,1.3,2.6,2.2,3.8c-3.8,14.1-18.4,22.4-32.5,17.5
				c-13-4.5-20.9-16.8-28.1-27.8c-6-9.2-12.3-18.6-21.6-24.5c-0.7-0.6-1.4-1.2-2.2-1.8c-0.5-0.4-1-0.4-1.4-0.2
				c-9.6-4.8-21.1-4.8-29.7,2.2C400.3,341.3,397.7,353,402.5,362.4 M437.7,399.8c0.3,1.3-0.2,2.7-1.1,3.7c-2,2.1-5.3,2-6.7-0.7
				c-2.1-4.1,2.8-7.1,5.8-5.7C436.6,397.5,437.3,398.4,437.7,399.8 M560.8,379.2c2.4-0.9,2.3-0.2,0.9-3c-2-4,3-7.2,6.2-4.2
				c1.7,1.6,1.7,4.5,0.5,6.3c-2.2,3.3-6,3.1-8.9,1.3C559.9,379.5,560.3,379.4,560.8,379.2 M764.1,337.9c0.8,3.4-2,6.6-5.6,6.3
				c-3.3-0.3-5.6-3.2-5.9-6.3H764.1z M564.6,343.3c1.2-1.7,2.8-3.1,4.7-4.1c1.5-0.8,4.3-1.3,6.4-1.3h23.1c-4.5,2.1-8.7,5.4-11.7,8.1
				c-5.1,4.8-15.3,14.8-22.3,7.4C562.1,350.6,562.3,346.5,564.6,343.3 M468.8,336.9c-3-1.4-6.2-3.4-7.1-6.9
				c-0.7-2.6,0.5-6.3,3.8-6.4c2-0.1,3.8,2,4.8,3.5c2.7,3.9,4.4,8.1,5.7,12.5C473.5,338.8,471.1,337.9,468.8,336.9"/>
		</g>
	</g>
</g>
<path fill="#000000" d="M273.602,481.306c-0.578-0.576-1.301-1.03-2.174-1.362c-0.873-0.331-1.885-0.497-3.039-0.497
	c-0.663,0-1.463,0.079-2.4,0.238v-6.077h-1.535v17.711c0.706,0.202,1.402,0.354,2.087,0.454s1.301,0.151,1.849,0.151
	c1.153,0,2.166-0.162,3.039-0.486s1.596-0.764,2.174-1.319c0.576-0.555,1.006-1.211,1.287-1.968s0.42-1.561,0.42-2.411
	s-0.139-1.657-0.42-2.422C274.608,482.554,274.178,481.883,273.602,481.306z M272.391,489.167c-0.852,0.829-2.17,1.243-3.958,1.243
	c-0.39,0-0.805-0.032-1.244-0.097c-0.439-0.065-0.84-0.134-1.2-0.206v-8.845c0.447-0.115,0.887-0.194,1.319-0.237
	c0.433-0.044,0.808-0.065,1.125-0.065c0.894,0,1.668,0.112,2.325,0.335c0.656,0.224,1.199,0.545,1.633,0.963
	c0.432,0.418,0.752,0.919,0.961,1.503s0.314,1.243,0.314,1.979C273.667,487.195,273.241,488.338,272.391,489.167z M247.392,479.446
	c-0.62,0-1.297,0.079-2.033,0.238c-0.735,0.158-1.485,0.433-2.249,0.821l-0.065,1.73c0.548-0.303,0.973-0.52,1.276-0.649
	s0.624-0.237,0.962-0.324c0.338-0.086,0.677-0.158,1.016-0.216s0.667-0.087,0.984-0.087c1.139,0,1.982,0.249,2.53,0.746
	s0.822,1.33,0.822,2.498v0.13c-0.332-0.044-0.732-0.087-1.2-0.13c-0.469-0.043-0.876-0.065-1.222-0.065
	c-1.831,0-3.302,0.311-4.412,0.931c-1.11,0.619-1.665,1.644-1.665,3.07c0,0.707,0.155,1.305,0.465,1.795
	c0.31,0.49,0.713,0.88,1.211,1.168s1.067,0.497,1.708,0.627c0.641,0.13,1.308,0.194,2,0.194c0.807,0,1.6-0.072,2.378-0.216
	c0.779-0.145,1.536-0.368,2.271-0.671v-7.028c0-1.585-0.397-2.742-1.189-3.471C250.189,479.811,248.992,479.446,247.392,479.446z
	 M250.636,489.892c-0.375,0.144-0.858,0.267-1.449,0.367c-0.591,0.102-1.183,0.151-1.773,0.151c-0.505,0-0.984-0.035-1.438-0.108
	c-0.454-0.071-0.84-0.197-1.157-0.378c-0.317-0.18-0.57-0.414-0.757-0.703c-0.188-0.288-0.281-0.663-0.281-1.124
	c0-0.52,0.111-0.934,0.335-1.244c0.224-0.31,0.533-0.551,0.93-0.724c0.396-0.174,0.85-0.296,1.362-0.368
	c0.511-0.072,1.041-0.108,1.589-0.108c0.476,0,0.984,0.029,1.524,0.087c0.541,0.058,0.912,0.108,1.114,0.151V489.892z
	 M258.032,479.868c-0.649,0.122-1.276,0.263-1.881,0.422v11.418h1.535v-10.186c0.202-0.072,0.563-0.147,1.082-0.228
	c0.519-0.079,1.002-0.118,1.449-0.118h1.989v-1.492H260C259.336,479.685,258.681,479.746,258.032,479.868z M-77.92,487.667
	l241.145,0.656l0.663-0.433l-0.632-0.564L-77.92,487.667z M164.994,487.825l1.95,1.95l1.95-1.95l-1.95-1.95L164.994,487.825z
	 M169.559,487.825l3.057,3.057l3.057-3.057l-3.057-3.057L169.559,487.825z M212.359,489.286l-3.395-9.602h-1.514l-3.396,9.602
	l-2.984-9.602h-1.73l3.979,12.023h1.428l3.46-9.645l3.46,9.645h1.427l3.979-12.023h-1.73L212.359,489.286z M238.418,489.589
	c-0.317,0-0.591,0.115-0.822,0.346c-0.231,0.23-0.346,0.505-0.346,0.822c0,0.316,0.115,0.591,0.346,0.821
	c0.23,0.23,0.504,0.346,0.822,0.346c0.317,0,0.591-0.115,0.822-0.346c0.23-0.23,0.346-0.505,0.346-0.821
	c0-0.317-0.116-0.592-0.346-0.822C239.009,489.704,238.735,489.589,238.418,489.589z M193.243,489.286l-3.395-9.602h-1.514
	l-3.396,9.602l-2.984-9.602h-1.73l3.979,12.023h1.428l3.46-9.645l3.46,9.645h1.427l3.979-12.023h-1.73L193.243,489.286z
	 M231.476,489.286l-3.395-9.602h-1.514l-3.396,9.602l-2.984-9.602h-1.73l3.979,12.023h1.428l3.46-9.645l3.46,9.645h1.427
	l3.979-12.023h-1.73L231.476,489.286z M382.732,480.474c-0.426-0.396-0.938-0.667-1.535-0.812c-0.598-0.144-1.271-0.216-2.021-0.216
	c-0.664,0-1.393,0.09-2.184,0.271c-0.793,0.181-1.471,0.4-2.033,0.659c-0.346-0.331-0.818-0.569-1.416-0.714
	c-0.6-0.144-1.273-0.216-2.023-0.216c-0.635,0-1.268,0.058-1.902,0.173l-2.465,0.454v11.635h1.535v-10.38
	c0.447-0.102,0.883-0.188,1.309-0.26c0.424-0.072,0.896-0.108,1.416-0.108c0.605,0,1.125,0.058,1.557,0.173
	c0.434,0.116,0.789,0.321,1.07,0.616c0.281,0.296,0.494,0.711,0.639,1.244s0.217,1.24,0.217,2.119v6.596h1.535v-7.201
	c0-0.663-0.055-1.243-0.162-1.741c-0.109-0.497-0.213-0.861-0.314-1.092c0.086-0.043,0.281-0.119,0.584-0.228
	c0.303-0.107,0.602-0.197,0.898-0.27c0.295-0.072,0.586-0.126,0.875-0.162s0.547-0.055,0.779-0.055c0.59,0,1.102,0.058,1.535,0.173
	c0.432,0.116,0.781,0.317,1.049,0.605c0.266,0.289,0.471,0.703,0.615,1.244c0.145,0.54,0.217,1.251,0.217,2.13v6.596h1.535v-7.201
	c0-0.995-0.111-1.816-0.336-2.466C383.482,481.393,383.158,480.87,382.732,480.474z M280.1,474.581
	c-0.785,0.648-1.18,1.729-1.18,3.243v1.86h-2.551v1.492h2.551v10.531h1.537v-10.531h4.973v-1.492h-4.973v-1.471
	c0-0.635,0.045-1.149,0.141-1.546c0.094-0.396,0.24-0.707,0.443-0.931c0.201-0.223,0.475-0.385,0.82-0.486
	c0.346-0.101,0.779-0.151,1.299-0.151h2.422v-1.492h-2.271C281.956,473.607,280.885,473.932,280.1,474.581z M398.273,487.825
	l3.057,3.057l3.057-3.057l-3.057-3.057L398.273,487.825z M343.322,482.322c0.389-0.418,0.854-0.749,1.395-0.994
	s1.135-0.368,1.783-0.368c0.736,0,1.373,0.076,1.914,0.228s1.121,0.414,1.74,0.789l0.715-1.405c-0.707-0.39-1.393-0.674-2.055-0.854
	c-0.664-0.181-1.436-0.271-2.314-0.271c-0.85,0-1.639,0.155-2.367,0.465c-0.729,0.311-1.367,0.746-1.914,1.309
	c-0.549,0.563-0.98,1.222-1.297,1.979c-0.317,0.757-0.476,1.59-0.476,2.498s0.158,1.74,0.476,2.497
	c0.316,0.757,0.748,1.413,1.297,1.969c0.547,0.555,1.186,0.987,1.914,1.297c0.729,0.311,1.518,0.465,2.367,0.465
	c0.879,0,1.65-0.09,2.314-0.27c0.662-0.181,1.348-0.466,2.055-0.854l-0.715-1.406c-0.619,0.375-1.199,0.639-1.74,0.79
	s-1.178,0.227-1.914,0.227c-0.648,0-1.242-0.119-1.783-0.356c-0.541-0.238-1.006-0.565-1.395-0.984
	c-0.391-0.418-0.693-0.915-0.908-1.492c-0.217-0.576-0.324-1.203-0.324-1.881s0.107-1.305,0.324-1.882
	C342.628,483.238,342.931,482.741,343.322,482.322z M404.387,487.825l1.949,1.95l1.951-1.95l-1.951-1.95L404.387,487.825z
	 M410.701,487.326l-0.664,0.433l0.633,0.564l241.176-0.341L410.701,487.326z M362.611,481.295c-0.549-0.569-1.193-1.02-1.936-1.352
	c-0.742-0.331-1.547-0.497-2.412-0.497c-0.863,0-1.668,0.166-2.41,0.497c-0.742,0.332-1.389,0.782-1.936,1.352
	c-0.549,0.57-0.977,1.229-1.287,1.979c-0.311,0.749-0.465,1.557-0.465,2.422s0.154,1.672,0.465,2.422s0.738,1.409,1.287,1.979
	c0.547,0.569,1.193,1.017,1.936,1.341s1.547,0.486,2.41,0.486c0.865,0,1.67-0.162,2.412-0.486s1.387-0.771,1.936-1.341
	c0.547-0.569,0.977-1.229,1.287-1.979c0.309-0.75,0.465-1.557,0.465-2.422s-0.156-1.673-0.465-2.422
	C363.587,482.524,363.158,481.865,362.611,481.295z M362.394,487.523c-0.217,0.569-0.52,1.067-0.908,1.492
	c-0.389,0.426-0.857,0.765-1.406,1.017c-0.547,0.252-1.152,0.378-1.816,0.378c-0.662,0-1.268-0.126-1.816-0.378
	c-0.547-0.252-1.016-0.591-1.404-1.017c-0.391-0.425-0.693-0.923-0.908-1.492c-0.217-0.569-0.324-1.179-0.324-1.827
	c0-0.649,0.107-1.262,0.324-1.839c0.215-0.576,0.518-1.077,0.908-1.503c0.389-0.425,0.857-0.764,1.404-1.016
	c0.549-0.252,1.154-0.379,1.816-0.379c0.664,0,1.27,0.127,1.816,0.379c0.549,0.252,1.018,0.591,1.406,1.016
	c0.389,0.426,0.691,0.927,0.908,1.503c0.217,0.577,0.324,1.189,0.324,1.839C362.718,486.345,362.611,486.954,362.394,487.523z
	 M296.221,481.295c-0.547-0.569-1.191-1.02-1.936-1.352c-0.742-0.331-1.545-0.497-2.41-0.497s-1.67,0.166-2.412,0.497
	c-0.742,0.332-1.387,0.782-1.936,1.352c-0.547,0.57-0.977,1.229-1.285,1.979c-0.311,0.749-0.465,1.557-0.465,2.422
	s0.154,1.672,0.465,2.422c0.309,0.75,0.738,1.409,1.285,1.979c0.549,0.569,1.193,1.017,1.936,1.341s1.547,0.486,2.412,0.486
	s1.668-0.162,2.41-0.486c0.744-0.324,1.389-0.771,1.936-1.341c0.549-0.569,0.977-1.229,1.287-1.979s0.465-1.557,0.465-2.422
	s-0.154-1.673-0.465-2.422C297.198,482.524,296.77,481.865,296.221,481.295z M296.006,487.523c-0.217,0.569-0.52,1.067-0.908,1.492
	c-0.391,0.426-0.859,0.765-1.406,1.017c-0.549,0.252-1.154,0.378-1.816,0.378c-0.664,0-1.27-0.126-1.816-0.378
	c-0.549-0.252-1.018-0.591-1.406-1.017c-0.389-0.425-0.691-0.923-0.908-1.492s-0.324-1.179-0.324-1.827
	c0-0.649,0.107-1.262,0.324-1.839c0.217-0.576,0.52-1.077,0.908-1.503c0.389-0.425,0.857-0.764,1.406-1.016
	c0.547-0.252,1.152-0.379,1.816-0.379c0.662,0,1.268,0.127,1.816,0.379c0.547,0.252,1.016,0.591,1.406,1.016
	c0.389,0.426,0.691,0.927,0.908,1.503c0.215,0.577,0.324,1.189,0.324,1.839C296.331,486.345,296.221,486.954,296.006,487.523z
	 M309.381,480.463c-0.455-0.39-0.996-0.656-1.623-0.801c-0.627-0.144-1.309-0.216-2.043-0.216c-0.707,0-1.465,0.047-2.271,0.141
	s-1.701,0.234-2.682,0.422v11.699h1.535v-10.402c1.184-0.23,2.293-0.346,3.33-0.346c0.592,0,1.111,0.062,1.559,0.184
	c0.445,0.123,0.818,0.332,1.113,0.628c0.295,0.295,0.525,0.713,0.691,1.254s0.25,1.251,0.25,2.13v6.553h1.535v-7.201
	c0-0.995-0.119-1.82-0.357-2.477C310.18,481.375,309.834,480.852,309.381,480.463z M318.516,490.054
	c-0.346-0.108-0.619-0.277-0.82-0.509c-0.203-0.23-0.35-0.547-0.443-0.951c-0.096-0.403-0.141-0.922-0.141-1.557v-5.86h4.973v-1.492
	h-4.973v-4.347h-1.537v4.347h-2.551v1.492h2.551v6.466c0,0.764,0.109,1.405,0.326,1.925c0.215,0.519,0.525,0.937,0.93,1.254
	c0.402,0.317,0.867,0.544,1.395,0.682c0.525,0.137,1.105,0.205,1.74,0.205h2.271v-1.492h-2.422
	C319.295,490.216,318.862,490.162,318.516,490.054z M337.784,489.589c-0.316,0-0.59,0.115-0.82,0.346s-0.346,0.505-0.346,0.822
	c0,0.316,0.115,0.591,0.346,0.821s0.504,0.346,0.82,0.346c0.318,0,0.592-0.115,0.822-0.346s0.346-0.505,0.346-0.821
	c0-0.317-0.115-0.592-0.346-0.822S338.102,489.589,337.784,489.589z M333.178,486.106c-0.346-0.303-0.785-0.565-1.318-0.789
	c-0.533-0.223-1.182-0.422-1.947-0.595l-0.799-0.173c-1.053-0.216-1.781-0.461-2.184-0.735c-0.404-0.273-0.607-0.678-0.607-1.211
	c0-0.504,0.238-0.904,0.715-1.2c0.475-0.295,1.174-0.443,2.098-0.443c0.793,0,1.477,0.076,2.055,0.228
	c0.576,0.151,1.217,0.421,1.924,0.811l0.691-1.405c-1.412-0.765-2.969-1.146-4.67-1.146c-0.635,0-1.223,0.076-1.764,0.228
	c-0.539,0.151-1.008,0.364-1.404,0.638s-0.711,0.605-0.941,0.994c-0.23,0.39-0.346,0.815-0.346,1.276
	c0,0.462,0.072,0.88,0.217,1.254c0.143,0.375,0.381,0.707,0.713,0.995s0.758,0.537,1.275,0.746c0.52,0.209,1.146,0.4,1.883,0.573
	l0.908,0.194c1.008,0.217,1.729,0.49,2.162,0.822c0.432,0.331,0.648,0.771,0.648,1.318c0,0.39-0.086,0.707-0.26,0.952
	c-0.172,0.245-0.414,0.436-0.725,0.573c-0.311,0.137-0.678,0.237-1.102,0.303c-0.426,0.064-0.877,0.097-1.352,0.097
	c-0.592,0-1.223-0.09-1.893-0.271c-0.67-0.18-1.352-0.479-2.045-0.897l-0.734,1.471c0.779,0.433,1.539,0.742,2.281,0.93
	s1.539,0.281,2.391,0.281c0.748,0,1.434-0.072,2.053-0.216c0.621-0.145,1.158-0.36,1.611-0.648c0.455-0.289,0.805-0.649,1.049-1.082
	c0.246-0.433,0.369-0.93,0.369-1.492c0-0.476-0.072-0.915-0.217-1.318C333.77,486.763,333.526,486.41,333.178,486.106z"/>
</svg>

