<?xml version="1.0" encoding="utf-8"?>
<!-- Generator: Adobe Illustrator 21.0.0, SVG Export Plug-In . SVG Version: 6.00 Build 0)  -->
<svg version="1.1" id="Layer_1" xmlns="http://www.w3.org/2000/svg" xmlns:xlink="http://www.w3.org/1999/xlink" x="0px" y="0px"
	 viewBox="0 0 800 500" style="enable-background:new 0 0 800 500;" xml:space="preserve">
<g>
	<path fill="#000000" d="M714,413c-1.8,0-3,0.9-3,1.8c0,0.7,0.7,1.5,2.4,1.5c1.7,0,3.1-0.4,4.6-1.1C717.2,413.8,715.9,413,714,413z"/>
	<path fill="#000000" d="M478,153.6c0-20.5-13.1-30.1-28.5-30.1c-14.1,0-32.9,10.9-42.5,26.1c-0.1,0.1,0.9,0.6,1,0.6c10.1-14.2,25.8-23.2,37.2-23.2
		c15.2,0,27.9,11.1,27.9,29.8c0,16.4-9.9,29.1-20.9,33.8c-2.5-10.8-8.1-18.9-16.1-18.9c-6.7,0-10.1,5.3-10.1,10.8
		c0,6.4,4.8,13.6,15.9,13.6c2.3,0,4.8-0.5,7.4-1.4c0.9,3.9,1.4,8.3,1.4,12.4c0,15.4-5.5,30.6-18.2,30.6c-9,0-14.3-14.5-14.3-30.6
		c0-16.8,5.8-35.4,19.6-40.5c0-0.9-1.2-1.2-1.6-1.2c-16.4,2.3-27,21.8-28.7,40.6c0,0,0,0,0,0c0,0.9-0.1,1.8-0.2,2.7
		c-3,35.2-33.1,130.8-90.1,130.8c-26.7,0-39.4-21-39.4-42.2c0-15.7,7-31.6,20.4-39.5c-0.1-1-0.3-2-0.3-3.1
		c-16,6.7-29.1,21.6-29.1,44.9c0,22.1,15.1,43.4,46.8,43.4c55.2,0,85.6-77.5,92.4-123.5c2.2,12.8,9.6,22.7,23.7,22.7
		c15.2,0,22.3-18.9,22.3-37.1c0-4.1-0.5-8.3-1.2-12.2C467.4,185.2,478,171.5,478,153.6z M443.3,192.3c-9.2,0-13.8-6.2-13.8-11
		c0-3.2,2.1-5.7,5.8-5.7c6.2,0,11,6.9,13.3,16.1C446.7,192.1,444.9,192.3,443.3,192.3z"/>
	<g>
		<path fill="#000000" d="M610.4,206.8c-4.7,11.8-12.2,20.8-22.2,19.8c-14.4-1.4-18.7-16.6-17.1-32.7c2.6-26.1,20-48.1,32.9-32.9
			c4.5,5.3,1.7,10.1,1.7,10.1c0.7,0.9,1.7,0.9,2.5,0.2c1.8-1.5,2.7-6.4-1.9-11.7c-13.2-15.5-42.5-0.8-46,35.2
			c-1.7,17.2,4.8,33.8,24.9,35.7c3.2,0.3,6.1-0.1,8.8-1.1c-16.4,11-39,11.3-47.9-11.7c2-10.6,2-23.2,2-34.2
			c0-10.1-2.1-14.7-4.8-14.7c-7.5,0-9.1,22.6-9.1,30.4c0,11,2.5,19.7,6.5,26.2c-2.8,7.1-7,12-13.6,12c-6.9,0-9-11.7-9-25.5
			c0-18.4,3.7-40.7,4.6-44.2c-1.6-0.7-3.2-0.9-4.6-0.9c-4.1,0-7.6,2.3-8.3,6.2c-0.6,3.1-2,13.3-2.2,24.8c0,0,0,0-0.1,0
			c0,0.3,0,0.6,0,0.9c0,1.1,0,2.2,0,3.3c0,0.7,0,1.3,0,2c-0.8,17-7.4,33.9-16.2,33.9c-11.9,0-11.2-48.4-11-51.2
			c-1.7-0.4-3.3-0.4-4.7-0.2c-4.1,0.6-7.2,3.4-7.2,7.4c0,2.8,0.4,11.6,2,21.8c1.9,12.2,7.8,26.6,18.7,26.6
			c9.6,0,15.9-12.1,19.2-26.9c1.5,13.6,5.9,25.2,16.6,25.2c9.1,0,14.6-4.8,18-12.2c15.3,19.5,47.2,14.7,62.8-8.6
			c2.5-3.5,4.6-7.6,6.3-12C611.4,207.6,610.9,207.2,610.4,206.8z M544.2,211.8c-1.2-5.1-1.9-11-1.9-17.9c0-2.5,0.1-4.9,0.1-7.1
			c0.3-7.2,1.2-13.4,2-13.4c0.7,0,1.4,3.9,1.4,11.7C545.8,192.3,545.6,202.3,544.2,211.8z"/>
	</g>
	<path fill="#000000" d="M564.4,140.5c1.4,3.1,2.5,4.9,4.7,4.9c1.4,0,3.1-0.8,5.5-2.1c0.8-5.9,5.9-12.7,13.9-16.8c0,0,0-1.4-1.2-1.4
		c-4.7,2.1-13.5,6.8-17.4,11.7c-3.3-4.5-9-10.2-15.6-12.9c-0.6,0-0.6,1.4-0.6,1.4C558.5,129.1,562.4,135.6,564.4,140.5z"/>
	<path fill="#000000" d="M585.5,359.1c-0.6,0-0.6,1.4-0.6,1.4c4.9,3.9,8.8,10.4,10.7,15.2c1.4,3.1,2.5,4.9,4.7,4.9c1.4,0,3.1-0.8,5.5-2.1
		c0.8-5.9,5.9-12.7,13.9-16.8c0,0,0-1.4-1.2-1.4c-4.7,2.1-13.5,6.8-17.4,11.7C597.8,367.5,592.1,361.9,585.5,359.1z"/>
	<path fill="#000000" d="M147.7,364c-3.3-4.5-9-10.2-15.6-12.9c-0.6,0-0.6,1.4-0.6,1.4c4.9,3.9,8.8,10.4,10.7,15.2c1.4,3.1,2.5,4.9,4.7,4.9
		c1.4,0,3.1-0.8,5.5-2.1c0.8-5.9,5.9-12.7,13.9-16.8c0,0,0-1.4-1.2-1.4C160.4,354.4,151.6,359.1,147.7,364z"/>
	<path fill="#000000" d="M349.6,108.6c1.4,3.1,2.5,4.9,4.7,4.9c1.4,0,3.1-0.8,5.5-2.1c0.8-5.9,5.9-12.7,13.9-16.8c0,0,0-1.4-1.2-1.4
		c-4.7,2.1-13.5,6.8-17.4,11.7c-3.3-4.5-9-10.2-15.6-12.9c-0.6,0-0.6,1.4-0.6,1.4C343.8,97.3,347.7,103.7,349.6,108.6z"/>
	<path fill="#000000" d="M532.6,152.3c6.4,0,10.1-6.4,10.1-12.4c0-5.1-2.8-9.9-8.3-9.9c-6.2,0-9.9,6.7-9.9,12.7
		C524.6,147.7,527.1,152.3,532.6,152.3z M534.2,133.9c3.7,0,5.3,3.2,5.3,6.7c0,3.9-2.1,7.8-6.4,7.8c-3.7,0-5.5-3-5.5-6.4
		C527.5,138,529.9,133.9,534.2,133.9z"/>
	<path fill="#000000" d="M604,240.8c-1.6,6.9-10.4,17.9-25.1,17.9l-0.5,1.4c0.9,0.2,2.3,0.5,3.7,0.5c9.2,0,27.2-5.5,27.2-13.3
		C609.3,245.2,607.9,242.9,604,240.8z"/>
	<path fill="#000000" d="M144.7,458.8c-2.4,6.7-12.4,16.6-27,14.8l-0.6,1.3c0.9,0.3,2.2,0.7,3.6,0.9c9.1,1.1,27.6-2.3,28.6-10
		C149.5,463.7,148.4,461.3,144.7,458.8z"/>
	<path fill="#000000" d="M526.3,327.9c0.9,0.2,2.3,0.5,3.7,0.5c9.2,0,27.2-5.5,27.2-13.3c0-2.1-1.4-4.4-5.3-6.4c-1.6,6.9-10.4,17.9-25.1,17.9
		L526.3,327.9z"/>
	<path fill="#000000" d="M197.3,182.3c3.3,0.6,3.4-1.9-0.6-2.7c-9.6-1.9-26.9,23.6-4.2,28.1l2.7,0.5c-2.7,2.1-5.1,4.3-6.7,6.3
		c-4.1,5.1-1.4,3.5,3.7-0.6c3.8-3,7.4-3.5,8.2-7.3c0.1-0.6-0.1-1.1-0.8-1.6c-0.6-0.4-1.5-0.8-2.9-1
		C182.5,201.3,190,180.9,197.3,182.3z"/>
	<path fill="#000000" d="M311.7,154.8c0.9,0.2,2.3,0.5,3.7,0.5c9.2,0,27.2-5.5,27.2-13.3c0-2.1-1.4-4.4-5.3-6.4c-1.6,6.9-10.4,17.9-25.1,17.9
		L311.7,154.8z"/>
	<path fill="#000000" d="M365.4,129.3c0,3.5,1.8,6.7,5.3,6.7c0.7,0,1.2-0.2,1.8-0.2c-0.5,4.6-3,13.3-13.1,16.6l-0.7,1.4c7.8,0,20-11.5,20-27.2
		c0-3.7-1.6-7.1-5.3-7.1C368.2,119.5,365.4,124.7,365.4,129.3z"/>
	<path fill="#000000" d="M431.3,324.3l-0.7,1.4c7.8,0,20-11.5,20-27.2c0-3.7-1.6-7.1-5.3-7.1c-5.3,0-8.1,5.3-8.1,9.9c0,3.5,1.8,6.7,5.3,6.7
		c0.7,0,1.2-0.2,1.8-0.2C443.9,312.3,441.4,321.1,431.3,324.3z"/>
	<path fill="#000000" d="M494.3,145c0,3.5,1.8,6.7,5.3,6.7c0.7,0,1.2-0.2,1.8-0.2c-0.5,4.6-3,13.3-13.1,16.6l-0.7,1.4c7.8,0,20-11.5,20-27.2
		c0-3.7-1.6-7.1-5.3-7.1C497,135.1,494.3,140.4,494.3,145z"/>
	<path fill="#000000" d="M446.6,84.8l-0.7,1.4c7.8,0,20-11.5,20-27.2c0-3.7-1.6-7.1-5.3-7.1c-5.3,0-8.1,5.3-8.1,9.9c0,3.5,1.8,6.7,5.3,6.7
		c0.7,0,1.2-0.2,1.8-0.2C459.2,72.8,456.7,81.6,446.6,84.8z"/>
	<path fill="#000000" d="M316.4,251.6c0-3.5-1.6-6.7-5.3-6.7c-5.3,0-8.1,5.3-8.1,9.9c0,3.4,1.8,6.7,5.3,6.7C313.6,261.5,316.4,256.2,316.4,251.6z"
		/>
	<path fill="#000000" d="M553.1,245c-5.3,0-8.1,5.3-8.1,9.9c0,3.4,1.8,6.7,5.3,6.7c5.3,0,8.1-5.3,8.1-9.9C558.4,248.2,556.8,245,553.1,245z"/>
	<path fill="#000000" d="M541.7,251.6c0-3.5-1.6-6.7-5.3-6.7c-5.3,0-8.1,5.3-8.1,9.9c0,3.4,1.8,6.7,5.3,6.7C539,261.5,541.7,256.2,541.7,251.6z"/>
	<path fill="#000000" d="M188.3,280.9c37,3.3,71.7-27.8,76.3-73.3c1.3-13,1.3-26.2,3.4-37.4c-1.5-0.6-3-0.8-4.3-0.7c-3.8,0.2-6.9,2.7-7.3,6.6
		c-1.2,9.4-1,20.8-1.7,32.3c-2.5,41.5-30,71.9-65.6,69.8c-80.5-4.7-76.7-114.6-3.5-117.5c10.7-0.4,21.4,2.3,30.3,8
		c3.8,2.5,5.9,0.1,0.7-2.8c-9-5.2-19.9-7.6-30.9-7.2C110.1,161.8,104.6,273.5,188.3,280.9z"/>
	<path fill="#000000" d="M128.7,386.6c-17.8,0-37.5,11.5-41.8,34.2c0,1.5,1.5,1.7,2.4,1.7h0.7c3.9-21.5,21.1-33.3,36.2-33.3
		c12.9,0,24.4,8.7,24.4,27.9c0,18.3-16.8,40.3-43.8,40.3c-29.2,0-43.6-24-43.6-48.5c0-18.3,8.1-37,24.2-45.5
		c6.3,4.3,14.1,6.3,20.5,6.3c7.4,0,13.1-2.6,13.1-7.4c0-1.5-2.6-7.2-14.6-7.2c-5.4,0-10.2,0.7-14.8,1.8c-2.6-3.9-4.3-9.2-4.3-16.3
		c0-24.8,14.8-34.2,28.7-34.2c12.2,0,23.7,7.2,23.7,17.8c0,8-6.7,10-6.7,10c0,1.3,0.9,2,2.2,2c3,0,7.8-3.5,7.8-11.5
		c0-13.5-13.1-20.7-27.7-20.7c-18.7,0-39.9,11.6-39.9,35.9c0,8.5,3.1,15,7.6,19.8c-21.8,9.1-34,30.9-34,51.6
		c0,25,17.6,48.8,56.8,48.8c33.3,0,53.4-24.8,53.4-45.3C159.2,395.8,144.8,386.6,128.7,386.6z M105.2,358.5c2.6,0.2,12-0.2,12,4.6
		c0,1.8-3.1,3.3-7.4,3.3c-4.6,0-10.5-1.5-15.2-5.9C97.8,359.4,101.3,358.7,105.2,358.5z"/>
	<path fill="#000000" d="M173.1,427.7c0-10.4,1.5-20.7,3.3-31.8c0-0.8-0.9-1.1-2.2-1.1c-2.4,0-6.1,1.3-6.7,4.9c-1.1,6.2-1.8,12.3-1.8,19.3
		c0,19.4,4.6,35.1,15.3,35.4l0.6-0.8C175.3,451.1,173.1,441,173.1,427.7z"/>
	<path fill="#000000" d="M171.6,385.2c4.3,0,6.5-4.3,6.5-8c0-2.8-1.3-5.4-4.3-5.4c-4.3,0-6.5,4.3-6.5,8C167.4,382.6,168.9,385.2,171.6,385.2z"/>
	<path fill="#000000" d="M250,342.9c0-6.7-3.3-11.5-8-11.5c-2.4,0-5.4,1.3-8.1,4.6c-6.7,7.6-11.7,23.1-14.6,39.6c-2,0.4-4.3,0.4-6.3,0.4
		c-16.3,0-32.4-9.8-32.4-28.8c0-8.1,4.4-16.8,13.9-22.4l-1.1-1.1c-11.7,7-17.2,17.2-17.2,26.6c0,18.7,16.5,28.1,33.8,28.1
		c3,0,5.9-0.2,8.9-0.7c-1.1,7-2,14.2-2.4,20.9c-1.7-4.3-4.3-7-8-7c-13.1,0.2-22.7,21.1-22.7,37.9c0,11.3,4.3,20.7,14.8,20.7
		c8.1,0,14.1-11.1,16.5-23.7c1.8,14.1,6.1,23.7,13.1,23.7c13.3,0,17.2-23.5,18.1-33.7h-1.3c-0.4,6.5-4.6,30.1-15,30.1
		c-5.7,0-8-11.3-8-26.8c0-11.5,1.5-28.7,3.9-44.8C240.4,369.9,250,359.4,250,342.9z M236.7,340.4c1.8-4.1,4.1-5.9,6.1-5.9
		c2.6,0,4.6,3.1,4.6,9.2c0,15-8.3,24.8-19,29.4C230.4,359.8,233.4,347.4,236.7,340.4z M216.2,416.6c0,13.7-5.5,30.3-14.8,30.3
		c-4.4,0-6.5-7.8-6.5-17.4c0-15.5,5.2-35.9,14.1-35.9c4.1,0,6.5,6.3,7.2,14.2V416.6z"/>
	<path fill="#000000" d="M485.9,460c-13.1,0-17.9-16.8-17.9-39.8c0-43.1,16.8-107.6,25.3-122.2c0,0,0.2-0.6-1.5-0.6c-1.1,0-4.4,0.2-6.8,1.3
		c-19.4,9.1-46.2,64.4-62.7,106.9c-3-22.7-10.7-44.4-15.5-65.7c2.6-11.3,4.8-24.2,4.8-37c0-7-1.8-10.2-4.1-10.2
		c-4.1,0-10,10.5-10,26.8c0,9.8,1.1,20.9,2.8,32.4c-11.8,41.4-42.2,103.8-90.4,103.8c-29.4,0-43.5-23.1-43.5-46.6
		c0-24.4,15.2-49.2,44-49.2c21.8,0,38.1,13.9,38.1,34.6c0,0,0.6,0.4,1.3,0.4c0.6,0,1.3-0.4,1.3-1.3c0-23.9-19.2-35.9-40.3-35.9
		c-25.7,0-54.4,17.9-54.4,54c0,24.4,16.6,47.9,51.6,47.9c60.5,0,87.5-81,93.2-101.2c4.6,28.3,11.8,56.8,11.8,70.6v2.2
		c-3.7,11.1-5.7,19.4-5.7,22.9c0,5.7,1.8,7.2,4.6,7.2c8,0,11.5-29,11.5-39.2c0-3.9-0.2-7.8-0.6-11.5c14.4-38.5,38.1-89.7,57.7-105.4
		c-10.4,14.4-22.6,65.3-22.6,105.4c0,29,6.3,52.3,24.8,52.3c5.7,0,11.5-3.9,15.9-11c-0.5-0.3-1-0.7-1.5-1
		C493.8,456.7,489.7,460,485.9,460z M403.3,310c0-1.8,1.8-14.6,4.3-14.6c1.8,0,2,7.4,2,9.6c0,9.2-2.2,21.5-3.9,29
		C404.2,326.1,403.3,318.2,403.3,310z M410.7,456.5c-0.6,0-0.7-0.7-0.7-1.8c0-2.6,1.1-7.6,3-14.1
		C412.3,451.9,411.2,456.5,410.7,456.5z"/>
	<path fill="#000000" d="M401.8,144.2c0.4,0,0.7-0.3,1.2-0.6c22.7-15.8,17.2-41.5,16.2-66.2c-2.5-65.7,78.1-61.1,78.1-14.9c0,0,0.6,0.4,1.3,0.4
		c0.6,0,1.3-0.4,1.3-1.3c0-48.5-84.8-51.9-89,14.7c-1.5,21.3,4.3,42.8-1.7,57.3c-1.6,4-4.2,7.3-8.2,9.9
		C401.2,144,401.4,144.2,401.8,144.2z"/>
	<path fill="#000000" d="M578.3,404c-2.4,2.2-4.8,3.9-7,5c-0.6-11.1-5.4-15.5-10-15.5c-5,0-9.8,4.8-9.8,11.7c0,4.8,2.8,9.1,10,9.1
		c1.7,0,3.7-0.4,5.7-1.1c0.2,1.1,0.2,2.6,0.2,3.9c0,14.1-3.9,29.8-13.3,29.8c-5.7,0-8-11.3-8-26.8c0-11.8,1.3-26.1,3.3-39.6
		c15.3-8.7,22.6-25.7,22.6-37.4c0-6.8-2.6-11.8-7.6-11.8c-2.2,0-4.8,1.5-8,4.8c-7.8,8.3-13.5,26.1-16.1,45.3
		c-2.8,0.6-5.7,0.9-9.1,0.9c-18.7,0-28.7-11.5-28.7-23.9c0-8.1,4.4-16.8,13.9-22.4l-1.1-1.1c-11.7,7-17.2,17.2-17.2,26.6
		c0,12.8,10.2,24.2,29.6,24.2c4.4,0,8.3-0.6,12-1.5c-1.1,8.5-1.7,17.2-1.7,25.3c0,9.1,0.7,17.5,2.3,24.3
		c-2.4,6.8-6.1,12.9-11.3,12.9c-4.3,0-6.1-7.4-7-15.4c3.3-8.9,4.6-19.8,4.6-28.3c0-8.1-1.7-11.8-3.9-11.8c-3.5,0-8.1,10-8.1,27
		c0,7.6,0.6,15.2,2.4,21.1c-2.8,4.3-6.3,7-10.9,7c-5.5,0-7.2-9.4-7.2-20.5c0-14.8,3-32.7,3.7-35.5c-1.3-0.6-2.6-0.7-3.7-0.7
		c-3.3,0-6.1,1.8-6.7,5c-0.6,2.8-1.8,12.8-1.8,23.3c0,14.8,2.6,31.1,13.9,31.1c5.5,0,9.8-3.1,13.1-8.1c2,5.5,5.2,9.4,9.8,9.4
		c6.8,0,11.1-6.2,13.9-13.5c2.3,8.3,5.9,13.5,11.1,13.5c11.7,0,19.2-21.8,19.2-39.2c2.4-1.5,5-3.5,7.8-6.1L578.3,404z M562.6,411.2
		c-5.5,0-7.6-3.5-7.6-7.2c0-4.4,2-7,4.4-7c3,0,6.5,3.9,7.6,13.7C565.3,411,563.8,411.2,562.6,411.2z M560.1,338.1
		c1.5-2.8,3-4.1,4.1-4.1c3.3,0,5.2,4.1,5.2,9.6c0,10.4-6.1,26.1-19.6,33.8C552.4,360.7,556.3,345.4,560.1,338.1z M521.5,414.9
		c0-13.1,1.3-20.2,2.2-20.2c0.6,0,1.1,3.1,1.1,9.4c0,6.8-0.9,15.9-3,23.7C521.5,422.7,521.5,417.7,521.5,414.9z"/>
	<path fill="#000000" d="M671.2,370.2c0,2.8,1.5,5.4,4.3,5.4c4.3,0,6.5-4.3,6.5-8c0-2.8-1.3-5.4-4.3-5.4C673.4,362.3,671.2,366.5,671.2,370.2z"/>
	<path fill="#000000" d="M749.7,416.6c-0.6,8.9-2.2,16.8-6.3,23.1c-4.1,6.1-7.8,7-10.7,7c-4.3,0-5-4.3-5-9.8c0-10.5-0.9-18.5-4.8-22.6
		c7.2-4.4,12.2-12.9,12.2-18.7c0-4.8-2.6-7.4-6.3-7.4c-7,0-18.3,9.2-25,29.8c-0.2-2.2-0.2-5.7-0.2-10c0-8.9,0.1-16.5,1.2-28.7
		c11.3-5.4,20-15.7,20-31.3c0-6.7-3.3-11.6-8-11.6c-2.4,0-5.4,1.5-8.1,4.8c-5.9,6.8-8.9,20.2-10.5,38.7c-3.5,0.9-6.8,1.3-10.5,1.3
		c-33.8,0-69.4-27.6-69.4-74.3c0-25.2,14.1-47.3,45.3-47.3c14.2,0,30.5,7.4,44.8,24.2c0.2,0,1.5-0.4,1.3-0.6
		c-13.3-18.3-32.7-27.7-50.3-27.7c-34.2,0-50.1,23.7-50.1,50.5c0,47.9,37,77.7,75.6,77.7c4.4,0,8.9-0.6,13.1-1.7
		c-1.2,14.3-1.4,28.5-1.4,46.4c-2.2,8.7-6.3,18.4-13,18.4c-5.4,0-7.2-9.8-7.2-23.1c0-9.6,0.9-23.7,2.2-34.6c0-0.7-1.1-1.3-2.4-1.3
		c-2.6,0-5.7,1.7-6.3,5.9c-0.9,7.4-1.3,17.6-1.3,24.4c0,5,0.3,9.7,0.9,13.9c-0.9,2.8-2.1,5.4-3.6,7.8c-4.1,6.1-7.8,8.9-10.7,8.9
		c-3.7,0-5-3-5-7.6c0-10.9,7.6-30.5,7.6-37.4c0-5.2-1.5-9.2-7.8-9.2c-2.8,0-9.4,1.3-13.5,1.3h-1.3c-1.3-5.4-3.1-8.9-5.5-8.9
		c-2.2,0-3.9,2.2-3.9,4.8c0,5.2,3.7,6.7,8.5,6.8c0.6,3.3,1.1,7.4,1.1,12c0,3.5-0.2,7.1-0.7,10.7c-0.8,5-2.4,12-5.1,17.4
		c-0.1,0.1-0.1,0.3-0.2,0.4c-2.3,4.4-5.3,7.7-9.1,7.7c-3.7,0-5.7-4.3-5.7-10.5c0-10.4,2.8-26.4,2.8-32.4c0-3.1-2.4-4.8-5.5-4.8
		c-0.9,0-1.8,0.2-2.8,0.4c-1.5-4.6-4.3-7.8-8.1-7.8c-13.1,0-22.7,21.1-22.7,37.9c0,11.3,4.3,20.7,14.8,20.7
		c6.3,0,11.1-6.5,14.2-15.2c0,10,5.5,15.2,11.3,15.2c5.9,0,9.9-4.6,12.7-10.6c3.1-6.4,4.8-14.5,5.4-22.5c0-0.2,0-0.4,0.1-0.5h0
		c0.1-1.9,0.2-3.8,0.2-5.7c0-4.4-0.4-8.7-0.9-12.4c3.9,0,8.5-0.7,12.8-0.7c1.3,0,1.8,0.9,1.8,2.8c0,8.9-8.5,29.2-8.5,42
		c0,6.5,2.2,11.1,8.9,11.1c5.2,0,11.7-4.3,16.6-12.6c1.1-1.8,1.9-3.8,2.7-5.9c1.8,9.1,5.4,15.2,11.7,15.2c7.6,0,12.1-7.7,14.8-16.2
		c0,3.3,0,6.7,0,10.2c0,2.6,2,3.9,4.6,3.9c0.9,0,2-0.2,3.1-0.6v-20.3c3.9-23.1,13.9-32.5,19.4-32.5c2.4,0,4.1,1.7,4.1,4.8
		c0,4.1-2.8,9.8-6.7,13.5c-1.8-1.1-4.1-1.7-6.7-1.7c-3.9,0-5.9,1.8-5.9,3.5c0,1.3,1.3,2.6,4.3,2.6c2,0,4.1-0.4,5.9-1.1
		c0.9,2.4,1.3,5.5,1.3,8.9c0,5.4-0.7,11.3-0.7,15.3c0,6.5,2.2,11.1,8.9,11.1c5.2,0,11.7-2.4,16.6-10.7c3.9-6.7,5.5-15.7,6.1-24.4
		H749.7z M711.6,344.9c1.8-3.9,4.1-5.7,5.9-5.7c2.6,0,4.8,3.3,4.8,9.6c0,14.1-7.4,23.5-17.2,28.3
		C706.4,364.3,708.4,352.1,711.6,344.9z M607.3,426.5c-2,10.9-6.7,20.3-13.7,20.3c-4.4,0-6.5-7.8-6.5-17.4
		c0-15.5,5.2-35.9,14.1-35.9c4.4,0,7,7.8,7.4,17C608.4,415.6,607.7,421,607.3,426.5z M713.5,416.4c-1.7,0-2.4-0.7-2.4-1.5
		c0-0.9,1.1-1.8,3-1.8s3.1,0.7,4.1,2.2C716.6,416,715.1,416.4,713.5,416.4z"/>
	<path fill="#000000" d="M237.5,144.1c0.7,14.1,1.1,29.4-1.2,46.2c-7.3,53.9-47.8,69.4-71.7,45c-12.8-13-13.4-38.6,4.1-48.9l-1.1-1.1
		c-21,12.7-21.6,41.4-7.6,55c22.3,21.8,72.8,7.4,84.9-47.9c3.4-15.3,3.9-30,3.4-43.8c11.2,3.7,22.7,4.6,33.2,2.5
		c-4.8,30.1-4,52.7-1.6,65.9c2.2,12.5,6.9,23.4,16.6,23.4c6.9,0,12.2-3.9,16.3-10.1c2.5,6.9,6.4,11.7,12.2,11.7
		c10.6,0,16.4-12,19.5-24c1.3,13,8.1,23.4,22.2,24.4c15.2,1,23.5-17.4,24.7-35.5c0.3-4.1,0.1-8.3-0.4-12.2c3.6-1.6,7.4-4.1,11.8-7.8
		l-1.1-1.2c-3.9,3.2-7.7,5.3-11,6.4c-1.8-11-6.8-19.3-14.9-19.9c-6.7-0.4-10.4,4.6-10.8,10.1c-0.4,6.4,3.9,13.9,15,14.6
		c2.3,0.1,4.9-0.1,7.4-0.9c0.7,4,0.8,8.4,0.6,12.5c-1,15.4-7.5,30.2-20.1,29.4c-9-0.6-13.3-15.4-12.3-31.5c1.1-16.8,8-35,22.1-39.2
		c0.1-0.9-1.1-1.2-1.5-1.3c-18.1,1.4-30.6,23.6-31.9,43.8c0,0.4,0,0.7,0,1.1c-2.4,11.5-7.8,26.8-17,26.8c-5.3,0-7.6-9.2-8.7-19.1
		c4.1-11,5.8-24.6,5.8-35.2c0-10.1-2.1-14.7-4.8-14.7c-4.4,0-10.1,12.4-10.1,33.6c0,9.4,0.7,18.9,3,26.2c-3.5,5.3-7.8,8.7-13.6,8.7
		c-5.8,0-8.9-11.8-10.1-22.1c-2.2-17.8,1.5-49.4,4.4-67.2c15.6-6.2,27.8-19.6,27.8-40c0-8.3-3.9-14.3-9.7-14.3
		c-3,0-6.7,1.8-10.4,5.8c-8.7,9.4-15.2,28.3-18.9,49.2c-5.3,2.5-19.3,1.8-33.9-4.6c-1.1-24.8-4.7-46.6,1-63.2
		c2-5.7,5.3-10.4,10.3-14.1c-0.1-0.9-0.6-1.3-1-1.3c-0.5,0-0.9,0.5-1.5,1.1c-22.8,18.6-21.3,42.1-19.7,71.6
		c-17-11-32.1-30.6-32.1-62.7c0-25.2,14.1-47.3,45.3-47.3c14.2,0,30.5,7.4,44.8,24.2c0.2,0,1.5-0.4,1.3-0.6
		C283.1,33.4,263.7,24,246.1,24C211.9,24,196,47.7,196,74.5C196,108.6,214.7,132.5,237.5,144.1z M381.8,193.3
		c-9.2-0.6-13.4-7.1-13.1-11.9c0.2-3.2,2.4-5.6,6.1-5.4c6.2,0.4,10.6,7.6,12.3,16.9C385.2,193.3,383.4,193.4,381.8,193.3z
		 M320.7,173c0.7,0,1.4,3.9,1.4,11.7c0,8.5-1.2,19.8-3.7,29.5c-0.5-6.4-0.5-12.7-0.5-16.1C318,181.7,319.6,173,320.7,173z
		 M305.6,102.1c1.8-3.5,4.1-5.3,6.2-5.3c3.2,0,6,4.6,6,12c0,18.9-10.6,31.1-24.2,36.6C296.8,126.7,301.2,110.4,305.6,102.1z"/>
	<path fill="#000000" d="M352.2,284.1c0,0,0.5,0.3,1.2,0.3c0.5,0,1.2-0.3,1.2-1.2c0-20.2-15.2-31-32.8-32.3c0,0.7,0,1.4,0.1,2.1
		C339.4,254.6,352.2,266.7,352.2,284.1z"/>
</g>
<path fill="#000000" d="M273.602,481.306c-0.578-0.576-1.301-1.03-2.174-1.362c-0.873-0.331-1.885-0.497-3.039-0.497
	c-0.663,0-1.463,0.079-2.4,0.238v-6.077h-1.535v17.711c0.706,0.202,1.402,0.354,2.087,0.454s1.301,0.151,1.849,0.151
	c1.153,0,2.166-0.162,3.039-0.486s1.596-0.764,2.174-1.319c0.576-0.555,1.006-1.211,1.287-1.968s0.42-1.561,0.42-2.411
	s-0.139-1.657-0.42-2.422C274.608,482.554,274.178,481.883,273.602,481.306z M272.391,489.167c-0.852,0.829-2.17,1.243-3.958,1.243
	c-0.39,0-0.805-0.032-1.244-0.097c-0.439-0.065-0.84-0.134-1.2-0.206v-8.845c0.447-0.115,0.887-0.194,1.319-0.237
	c0.433-0.044,0.808-0.065,1.125-0.065c0.894,0,1.668,0.112,2.325,0.335c0.656,0.224,1.199,0.545,1.633,0.963
	c0.432,0.418,0.752,0.919,0.961,1.503s0.314,1.243,0.314,1.979C273.667,487.195,273.241,488.338,272.391,489.167z M247.392,479.446
	c-0.62,0-1.297,0.079-2.033,0.238c-0.735,0.158-1.485,0.433-2.249,0.821l-0.065,1.73c0.548-0.303,0.973-0.52,1.276-0.649
	s0.624-0.237,0.962-0.324c0.338-0.086,0.677-0.158,1.016-0.216s0.667-0.087,0.984-0.087c1.139,0,1.982,0.249,2.53,0.746
	s0.822,1.33,0.822,2.498v0.13c-0.332-0.044-0.732-0.087-1.2-0.13c-0.469-0.043-0.876-0.065-1.222-0.065
	c-1.831,0-3.302,0.311-4.412,0.931c-1.11,0.619-1.665,1.644-1.665,3.07c0,0.707,0.155,1.305,0.465,1.795
	c0.31,0.49,0.713,0.88,1.211,1.168s1.067,0.497,1.708,0.627c0.641,0.13,1.308,0.194,2,0.194c0.807,0,1.6-0.072,2.378-0.216
	c0.779-0.145,1.536-0.368,2.271-0.671v-7.028c0-1.585-0.397-2.742-1.189-3.471C250.189,479.811,248.992,479.446,247.392,479.446z
	 M250.636,489.892c-0.375,0.144-0.858,0.267-1.449,0.367c-0.591,0.102-1.183,0.151-1.773,0.151c-0.505,0-0.984-0.035-1.438-0.108
	c-0.454-0.071-0.84-0.197-1.157-0.378c-0.317-0.18-0.57-0.414-0.757-0.703c-0.188-0.288-0.281-0.663-0.281-1.124
	c0-0.52,0.111-0.934,0.335-1.244c0.224-0.31,0.533-0.551,0.93-0.724c0.396-0.174,0.85-0.296,1.362-0.368
	c0.511-0.072,1.041-0.108,1.589-0.108c0.476,0,0.984,0.029,1.524,0.087c0.541,0.058,0.912,0.108,1.114,0.151V489.892z
	 M258.032,479.868c-0.649,0.122-1.276,0.263-1.881,0.422v11.418h1.535v-10.186c0.202-0.072,0.563-0.147,1.082-0.228
	c0.519-0.079,1.002-0.118,1.449-0.118h1.989v-1.492H260C259.336,479.685,258.681,479.746,258.032,479.868z M-77.92,487.667
	l241.145,0.656l0.663-0.433l-0.632-0.564L-77.92,487.667z M164.994,487.825l1.95,1.95l1.95-1.95l-1.95-1.95L164.994,487.825z
	 M169.559,487.825l3.057,3.057l3.057-3.057l-3.057-3.057L169.559,487.825z M212.359,489.286l-3.395-9.602h-1.514l-3.396,9.602
	l-2.984-9.602h-1.73l3.979,12.023h1.428l3.46-9.645l3.46,9.645h1.427l3.979-12.023h-1.73L212.359,489.286z M238.418,489.589
	c-0.317,0-0.591,0.115-0.822,0.346c-0.231,0.23-0.346,0.505-0.346,0.822c0,0.316,0.115,0.591,0.346,0.821
	c0.23,0.23,0.504,0.346,0.822,0.346c0.317,0,0.591-0.115,0.822-0.346c0.23-0.23,0.346-0.505,0.346-0.821
	c0-0.317-0.116-0.592-0.346-0.822C239.009,489.704,238.735,489.589,238.418,489.589z M193.243,489.286l-3.395-9.602h-1.514
	l-3.396,9.602l-2.984-9.602h-1.73l3.979,12.023h1.428l3.46-9.645l3.46,9.645h1.427l3.979-12.023h-1.73L193.243,489.286z
	 M231.476,489.286l-3.395-9.602h-1.514l-3.396,9.602l-2.984-9.602h-1.73l3.979,12.023h1.428l3.46-9.645l3.46,9.645h1.427
	l3.979-12.023h-1.73L231.476,489.286z M382.732,480.474c-0.426-0.396-0.938-0.667-1.535-0.812c-0.598-0.144-1.271-0.216-2.021-0.216
	c-0.664,0-1.393,0.09-2.184,0.271c-0.793,0.181-1.471,0.4-2.033,0.659c-0.346-0.331-0.818-0.569-1.416-0.714
	c-0.6-0.144-1.273-0.216-2.023-0.216c-0.635,0-1.268,0.058-1.902,0.173l-2.465,0.454v11.635h1.535v-10.38
	c0.447-0.102,0.883-0.188,1.309-0.26c0.424-0.072,0.896-0.108,1.416-0.108c0.605,0,1.125,0.058,1.557,0.173
	c0.434,0.116,0.789,0.321,1.07,0.616c0.281,0.296,0.494,0.711,0.639,1.244s0.217,1.24,0.217,2.119v6.596h1.535v-7.201
	c0-0.663-0.055-1.243-0.162-1.741c-0.109-0.497-0.213-0.861-0.314-1.092c0.086-0.043,0.281-0.119,0.584-0.228
	c0.303-0.107,0.602-0.197,0.898-0.27c0.295-0.072,0.586-0.126,0.875-0.162s0.547-0.055,0.779-0.055c0.59,0,1.102,0.058,1.535,0.173
	c0.432,0.116,0.781,0.317,1.049,0.605c0.266,0.289,0.471,0.703,0.615,1.244c0.145,0.54,0.217,1.251,0.217,2.13v6.596h1.535v-7.201
	c0-0.995-0.111-1.816-0.336-2.466C383.482,481.393,383.158,480.87,382.732,480.474z M280.1,474.581
	c-0.785,0.648-1.18,1.729-1.18,3.243v1.86h-2.551v1.492h2.551v10.531h1.537v-10.531h4.973v-1.492h-4.973v-1.471
	c0-0.635,0.045-1.149,0.141-1.546c0.094-0.396,0.24-0.707,0.443-0.931c0.201-0.223,0.475-0.385,0.82-0.486
	c0.346-0.101,0.779-0.151,1.299-0.151h2.422v-1.492h-2.271C281.956,473.607,280.885,473.932,280.1,474.581z M398.273,487.825
	l3.057,3.057l3.057-3.057l-3.057-3.057L398.273,487.825z M343.322,482.322c0.389-0.418,0.854-0.749,1.395-0.994
	s1.135-0.368,1.783-0.368c0.736,0,1.373,0.076,1.914,0.228s1.121,0.414,1.74,0.789l0.715-1.405c-0.707-0.39-1.393-0.674-2.055-0.854
	c-0.664-0.181-1.436-0.271-2.314-0.271c-0.85,0-1.639,0.155-2.367,0.465c-0.729,0.311-1.367,0.746-1.914,1.309
	c-0.549,0.563-0.98,1.222-1.297,1.979c-0.317,0.757-0.476,1.59-0.476,2.498s0.158,1.74,0.476,2.497
	c0.316,0.757,0.748,1.413,1.297,1.969c0.547,0.555,1.186,0.987,1.914,1.297c0.729,0.311,1.518,0.465,2.367,0.465
	c0.879,0,1.65-0.09,2.314-0.27c0.662-0.181,1.348-0.466,2.055-0.854l-0.715-1.406c-0.619,0.375-1.199,0.639-1.74,0.79
	s-1.178,0.227-1.914,0.227c-0.648,0-1.242-0.119-1.783-0.356c-0.541-0.238-1.006-0.565-1.395-0.984
	c-0.391-0.418-0.693-0.915-0.908-1.492c-0.217-0.576-0.324-1.203-0.324-1.881s0.107-1.305,0.324-1.882
	C342.628,483.238,342.931,482.741,343.322,482.322z M404.387,487.825l1.949,1.95l1.951-1.95l-1.951-1.95L404.387,487.825z
	 M410.701,487.326l-0.664,0.433l0.633,0.564l241.176-0.341L410.701,487.326z M362.611,481.295c-0.549-0.569-1.193-1.02-1.936-1.352
	c-0.742-0.331-1.547-0.497-2.412-0.497c-0.863,0-1.668,0.166-2.41,0.497c-0.742,0.332-1.389,0.782-1.936,1.352
	c-0.549,0.57-0.977,1.229-1.287,1.979c-0.311,0.749-0.465,1.557-0.465,2.422s0.154,1.672,0.465,2.422s0.738,1.409,1.287,1.979
	c0.547,0.569,1.193,1.017,1.936,1.341s1.547,0.486,2.41,0.486c0.865,0,1.67-0.162,2.412-0.486s1.387-0.771,1.936-1.341
	c0.547-0.569,0.977-1.229,1.287-1.979c0.309-0.75,0.465-1.557,0.465-2.422s-0.156-1.673-0.465-2.422
	C363.587,482.524,363.158,481.865,362.611,481.295z M362.394,487.523c-0.217,0.569-0.52,1.067-0.908,1.492
	c-0.389,0.426-0.857,0.765-1.406,1.017c-0.547,0.252-1.152,0.378-1.816,0.378c-0.662,0-1.268-0.126-1.816-0.378
	c-0.547-0.252-1.016-0.591-1.404-1.017c-0.391-0.425-0.693-0.923-0.908-1.492c-0.217-0.569-0.324-1.179-0.324-1.827
	c0-0.649,0.107-1.262,0.324-1.839c0.215-0.576,0.518-1.077,0.908-1.503c0.389-0.425,0.857-0.764,1.404-1.016
	c0.549-0.252,1.154-0.379,1.816-0.379c0.664,0,1.27,0.127,1.816,0.379c0.549,0.252,1.018,0.591,1.406,1.016
	c0.389,0.426,0.691,0.927,0.908,1.503c0.217,0.577,0.324,1.189,0.324,1.839C362.718,486.345,362.611,486.954,362.394,487.523z
	 M296.221,481.295c-0.547-0.569-1.191-1.02-1.936-1.352c-0.742-0.331-1.545-0.497-2.41-0.497s-1.67,0.166-2.412,0.497
	c-0.742,0.332-1.387,0.782-1.936,1.352c-0.547,0.57-0.977,1.229-1.285,1.979c-0.311,0.749-0.465,1.557-0.465,2.422
	s0.154,1.672,0.465,2.422c0.309,0.75,0.738,1.409,1.285,1.979c0.549,0.569,1.193,1.017,1.936,1.341s1.547,0.486,2.412,0.486
	s1.668-0.162,2.41-0.486c0.744-0.324,1.389-0.771,1.936-1.341c0.549-0.569,0.977-1.229,1.287-1.979s0.465-1.557,0.465-2.422
	s-0.154-1.673-0.465-2.422C297.198,482.524,296.77,481.865,296.221,481.295z M296.006,487.523c-0.217,0.569-0.52,1.067-0.908,1.492
	c-0.391,0.426-0.859,0.765-1.406,1.017c-0.549,0.252-1.154,0.378-1.816,0.378c-0.664,0-1.27-0.126-1.816-0.378
	c-0.549-0.252-1.018-0.591-1.406-1.017c-0.389-0.425-0.691-0.923-0.908-1.492s-0.324-1.179-0.324-1.827
	c0-0.649,0.107-1.262,0.324-1.839c0.217-0.576,0.52-1.077,0.908-1.503c0.389-0.425,0.857-0.764,1.406-1.016
	c0.547-0.252,1.152-0.379,1.816-0.379c0.662,0,1.268,0.127,1.816,0.379c0.547,0.252,1.016,0.591,1.406,1.016
	c0.389,0.426,0.691,0.927,0.908,1.503c0.215,0.577,0.324,1.189,0.324,1.839C296.331,486.345,296.221,486.954,296.006,487.523z
	 M309.381,480.463c-0.455-0.39-0.996-0.656-1.623-0.801c-0.627-0.144-1.309-0.216-2.043-0.216c-0.707,0-1.465,0.047-2.271,0.141
	s-1.701,0.234-2.682,0.422v11.699h1.535v-10.402c1.184-0.23,2.293-0.346,3.33-0.346c0.592,0,1.111,0.062,1.559,0.184
	c0.445,0.123,0.818,0.332,1.113,0.628c0.295,0.295,0.525,0.713,0.691,1.254s0.25,1.251,0.25,2.13v6.553h1.535v-7.201
	c0-0.995-0.119-1.82-0.357-2.477C310.18,481.375,309.834,480.852,309.381,480.463z M318.516,490.054
	c-0.346-0.108-0.619-0.277-0.82-0.509c-0.203-0.23-0.35-0.547-0.443-0.951c-0.096-0.403-0.141-0.922-0.141-1.557v-5.86h4.973v-1.492
	h-4.973v-4.347h-1.537v4.347h-2.551v1.492h2.551v6.466c0,0.764,0.109,1.405,0.326,1.925c0.215,0.519,0.525,0.937,0.93,1.254
	c0.402,0.317,0.867,0.544,1.395,0.682c0.525,0.137,1.105,0.205,1.74,0.205h2.271v-1.492h-2.422
	C319.295,490.216,318.862,490.162,318.516,490.054z M337.784,489.589c-0.316,0-0.59,0.115-0.82,0.346s-0.346,0.505-0.346,0.822
	c0,0.316,0.115,0.591,0.346,0.821s0.504,0.346,0.82,0.346c0.318,0,0.592-0.115,0.822-0.346s0.346-0.505,0.346-0.821
	c0-0.317-0.115-0.592-0.346-0.822S338.102,489.589,337.784,489.589z M333.178,486.106c-0.346-0.303-0.785-0.565-1.318-0.789
	c-0.533-0.223-1.182-0.422-1.947-0.595l-0.799-0.173c-1.053-0.216-1.781-0.461-2.184-0.735c-0.404-0.273-0.607-0.678-0.607-1.211
	c0-0.504,0.238-0.904,0.715-1.2c0.475-0.295,1.174-0.443,2.098-0.443c0.793,0,1.477,0.076,2.055,0.228
	c0.576,0.151,1.217,0.421,1.924,0.811l0.691-1.405c-1.412-0.765-2.969-1.146-4.67-1.146c-0.635,0-1.223,0.076-1.764,0.228
	c-0.539,0.151-1.008,0.364-1.404,0.638s-0.711,0.605-0.941,0.994c-0.23,0.39-0.346,0.815-0.346,1.276
	c0,0.462,0.072,0.88,0.217,1.254c0.143,0.375,0.381,0.707,0.713,0.995s0.758,0.537,1.275,0.746c0.52,0.209,1.146,0.4,1.883,0.573
	l0.908,0.194c1.008,0.217,1.729,0.49,2.162,0.822c0.432,0.331,0.648,0.771,0.648,1.318c0,0.39-0.086,0.707-0.26,0.952
	c-0.172,0.245-0.414,0.436-0.725,0.573c-0.311,0.137-0.678,0.237-1.102,0.303c-0.426,0.064-0.877,0.097-1.352,0.097
	c-0.592,0-1.223-0.09-1.893-0.271c-0.67-0.18-1.352-0.479-2.045-0.897l-0.734,1.471c0.779,0.433,1.539,0.742,2.281,0.93
	s1.539,0.281,2.391,0.281c0.748,0,1.434-0.072,2.053-0.216c0.621-0.145,1.158-0.36,1.611-0.648c0.455-0.289,0.805-0.649,1.049-1.082
	c0.246-0.433,0.369-0.93,0.369-1.492c0-0.476-0.072-0.915-0.217-1.318C333.77,486.763,333.526,486.41,333.178,486.106z"/>
</svg>

