<?xml version="1.0" encoding="utf-8"?>
<!-- Generator: Adobe Illustrator 23.0.0, SVG Export Plug-In . SVG Version: 6.00 Build 0)  -->
<svg version="1.1" id="Layer_1" xmlns="http://www.w3.org/2000/svg" xmlns:xlink="http://www.w3.org/1999/xlink" x="0px" y="0px"
	 viewBox="0 0 800 500" style="enable-background:new 0 0 800 500;" xml:space="preserve">
<g id="XMLID_478_">
	<g id="XMLID_506_">
		<path fill="#000000" id="XMLID_533_" d="M486.77,318.27c1.57-1.53,3.12-3.08,4.67-4.63c1.55-1.55,3.1-3.1,4.63-4.67
			c0.38-0.39,1.62-1.37,1.88-1.97c4.15-9.47-13.67-11.58-13.76-19.72c0,0.17-2.01,1.92-1.97,1.88c-1.57,1.53-3.12,3.08-4.67,4.63
			c-1.55,1.55-3.1,3.1-4.63,4.67c-0.04,0.04-1.88,1.67-1.88,1.97c0.1,8.13,17.92,10.24,13.76,19.72
			C485,319.67,486.49,318.54,486.77,318.27z"/>
		<path fill="#000000" id="XMLID_513_" d="M582.08,199.19l16-16l-0.04-0.04c0.47-0.49,0.74-0.78,0.72-0.8c-1.17-1.17-2.03-2.88-3.74-2.88h-31.79
			c0.97-8.54,2.14-17.09,1.25-25.64c-1-9.59-5.54-19.25-13.98-24.37c-3.34-2.03-6.93-2.85-10.5-2.76c-0.34,0.01-0.77,0.02-1.29,0.07
			c-0.12,0.01-0.24,0.02-0.36,0.03c-0.04,0-0.09,0.01-0.13,0.01c-4.08,0.41-12.34,2.23-21.84,9.82
			c-13.94,11.14-15.81,24.29-14.52,31.16c0.56,3.56,2.15,6.9,4.41,9.97c0.44,0.6,0.9,1.16,1.38,1.71h-52.9V24.41
			c0-2.83-0.06-2.71-2.33-4.98c0,0-0.02,0.01-0.05,0.03l-0.42-0.42l-16,16l0.53,0.53l2.9-2.9c1.33,1.31,2.23,1.69,2.23,3.43v143.36
			h-40.98V22.12c0-2.8-0.06-2.65-2.33-4.91c0,0-0.02,0.01-0.05,0.03l-0.42-0.42l-16,16l0.53,0.53l2.9-2.9
			c1.2,1.16,2.23,1.64,2.23,3.25v145.78h-0.6c-4.54,0-9.07,0.01-13.61,0.06c-5.68,0.06-11.98,0.49-17.35-1.71
			c-4.85-1.99-6.46-7.02-7.1-11.81c-0.95-7.13-0.34-14.74-0.34-21.91V91.16c0-1.18-1.54-2.04-2.33-2.82
			c-0.1-0.1-13.25,13.05-13.15,13.15c0.01,0.01,0.01,0.01,0.01,0.01l-3.75,3.75l0.53,0.53l3.75-3.75c1.79,1.82,1.79,2.1,1.79,4.91
			v47.75c0,7-0.19,14.04,0.06,21.04c0.1,2.79,0.41,5.8,1.38,8.49l-8.32,8.32c0.24-10.04-7.62-19.08-13.21-26.89
			c-3.51-4.91-6.91-10.05-8.55-15.92c-0.88-3.16-0.61-6.38-0.61-9.61v-1.4c0.17-3.64,0.14-7.28,0-10.84v-26.9
			c0-3.14,0.02-3.24-2.33-5.58c-0.02-0.02-0.73,0.65-1.81,1.7l-0.02-0.02l-16,16l0.53,0.53l4.61-4.61c1.78,1.79,1.88,2.03,1.88,4.74
			v32.81l-0.12-0.33c0,0,0.24,4.1-0.64,9.73l0,0c0,0-0.17,1.64-0.86,4.32c-0.98,4.04-2.57,8.45-5.15,12.57
			c-1.19,2.09-2.61,4.25-4.3,6.42c-2.73,3.51-6.17,7.03-10.5,10.26c-1.49,1.11-3.09,2.19-4.81,3.23c-9.63,6.94-21.78,9.23-33.49,6.1
			c-10.28-2.74-18.88-9.33-24.22-18.54c-5.33-9.21-6.76-19.95-4.01-30.23c2.74-10.28,9.33-18.88,18.54-24.22
			c8.99-5.2,19.43-6.67,29.49-4.19c0.42,2.24,2.39,3.94,4.75,3.94c2.67,0,4.84-2.17,4.84-4.84c0-2.67-2.17-4.84-4.84-4.84
			c-2.19,0-4.04,1.47-4.64,3.47c-10.49-2.48-21.35-0.9-30.72,4.53c-9.73,5.63-16.68,14.71-19.58,25.57
			c-2.9,10.86-1.39,22.2,4.24,31.93c5.63,9.73,14.71,16.68,25.57,19.58c3.64,0.97,7.33,1.45,10.97,1.45c2.78,0,5.53-0.28,8.22-0.82
			c1.85-0.28,3.6-0.69,5.24-1.18l0,0c0.06-0.02,0.13-0.04,0.19-0.06c0.09-0.03,0.18-0.05,0.26-0.08
			c13.14-3.77,23.5-12.95,30.13-20.41c4.09-4.42,6.72-8.31,8.19-10.76c0.04-0.07,0.07-0.11,0.07-0.11l0,0
			c0.02-0.04,0.05-0.08,0.07-0.11c1.62,3.23,3.72,6.26,5.74,9.14c6.54,9.32,16.65,20.17,12.97,32.51c0.11-0.37,1.82-1.73,1.97-1.88
			c1.57-1.53,3.12-3.08,4.67-4.63c1.25-1.25,2.5-2.51,3.74-3.77l1.01-1.01c0.37-0.34,1.32-1.14,1.65-1.65l10.58-10.58
			c0.73,1.13,1.66,2.14,2.83,2.97c4.28,3.02,10.66,2.69,15.62,2.7c10.29,0.03,20.59,0.03,30.89,0.02v62.07
			c0,4.82,0.32,9.77-0.06,14.58c-1.51,18.78,23.32,30.82,22.52,48.99l-61.12,61.12l0,0c-10.15,9.73-24.31,13.38-37.88,9.76
			c-21.23-5.66-33.89-27.54-28.23-48.77c4.46-16.72,19.06-28.59,36.33-29.53l-0.12-2.23c-18.24,0.99-33.65,13.52-38.37,31.18
			c-5.98,22.42,7.39,45.53,29.81,51.51c3.64,0.97,7.33,1.45,10.97,1.45c2.78,0,5.53-0.28,8.22-0.83
			c12.98-1.97,21.09-10.15,21.09-10.15l0,0l60.14-60.14c0.13-0.11,0.24-0.2,0.27-0.23c1.57-1.53,3.12-3.08,4.67-4.63
			c1.55-1.55,3.1-3.1,4.63-4.67c0.26-0.26,1.73-1.47,1.88-1.97c4.26-14.28-9.61-26.77-16.45-37.75c-3.39-5.44-5.14-10.71-5.14-17.09
			v-62.69c13.66-0.03,27.32-0.05,40.98-0.07v12.58c0,10.8-0.58,21.79-0.05,32.58c0.94,18.97,27.64,31.5,21.64,51.61
			c0.11-0.37,1.82-1.73,1.97-1.88c1.57-1.53,3.12-3.08,4.67-4.63c1.25-1.25,2.49-2.51,3.74-3.77l1.02-1.02
			c0.37-0.34,1.32-1.14,1.65-1.65l12.68-12.68c0.23,5.58,1.14,11.13,4.8,15.61c6.48,7.93,17.98,4.48,25.95,0.53
			c-4.79,6.13-7.57,12.51-6.15,18.29l0.02,0c0.96,4.24,4.1,8.32,7.44,11.96c3.61,3.92,7.6,7.49,11.2,11.41
			c4.11,4.48,7.45,9.79,10.39,15.08c5.72,10.29,8.7,21.88,7.2,33.63c-1.08,8.45-4.58,16.26-9.23,23.35
			c-8.09,10.89-20.69,17.28-34.45,17.28c-23.69,0-42.97-19.27-42.97-42.97c0-22.82,17.88-41.53,40.36-42.88v-2.24
			c-23.71,1.35-42.59,21.07-42.59,45.12c0,24.92,20.28,45.2,45.2,45.2c3.54,0,7.02-0.41,10.36-1.18l-0.13,0.07
			c5.28-1.14,10.02-3.18,14.28-5.78c-0.12,0.13-0.24,0.27-0.36,0.4c0.13-0.14,0.26-0.28,0.4-0.42
			c12.73-7.82,21.04-20.79,25.79-30.39c2.68-4.88,4.77-10.07,5.97-15.63c2.58-11.9-0.24-23.95-5.59-34.66
			c-5.21-10.43-12.62-18.29-20.69-26.47c-2.07-2.1-4.33-4.52-6.17-7.14c-3.27-5.37-3.5-11.68,0.69-15.87
			c3.04-3.04,6.84-4.25,9.59-4.72c3.94-0.45,7.99,0.18,11.9,2.19c9.09,4.66,13.43,15.15,14.66,24.75
			c2.52,19.59-8.94,44.51,2.66,62.25l-11.99,18.96l19.4-19.4c3.89-3.77,8.92-8.66,8.76-8.84c-7.67-8.34-8.4-19.73-7.83-30.52
			c0.63-11.84,3.39-23.72,2.15-35.6c-1-9.59-5.54-19.25-13.98-24.37c-4.54-2.76-9.54-3.31-14.33-2.32l0.03-0.04
			c0,0-0.67,0.15-1.83,0.48c-0.12,0.03-0.24,0.07-0.37,0.11c-3.1,0.93-9.06,3.05-15.09,7.07c0.13-0.12,0.26-0.22,0.36-0.28
			c-8.13,4.4-19.82,8.62-27.41,0.97c-5.45-5.49-5.33-14.14-5.33-21.36v-35.08c0-2.58-0.34-2.66-2.33-4.64c0,0-0.05,0.03-0.11,0.08
			l-0.06-0.06l-16,16l0.53,0.53l2.95-2.95c1.43,1.4,1.87,1.72,1.87,3.85v34.98c0,0.52,0,1.04,0,1.56l-11.72,11.72
			c0.35-12.26-11.18-23.15-17.23-32.86c-3.39-5.44-5.14-10.71-5.14-17.1v-28.79h95.2c-1.62,12.99-2.87,26.07,4.03,36.61
			l-11.99,18.96l19.4-19.4c3.89-3.77,8.92-8.66,8.76-8.84c-6.92-7.52-8.19-17.53-7.95-27.33h19.43c1.68,0,2.44,1.2,3.53,2.42
			l-3.63,3.63L582.08,199.19z M257.61,118.14c1.44,0,2.6,1.17,2.6,2.6s-1.17,2.6-2.6,2.6c-1.44,0-2.6-1.17-2.6-2.6
			S256.18,118.14,257.61,118.14z M551.49,178.93c-10.6-0.76-21.3-3.77-29.2-11.14c-3.92-3.66-6.67-8.86-7.37-14.22
			c-0.14-2.42,0.15-6.65,3.34-9.75c2.83-2.76,6.07-3.67,9.27-3.92c3.06,0.06,6.14,0.78,9.15,2.32c9.09,4.66,13.43,15.15,14.66,24.75
			C551.83,170.79,551.79,174.81,551.49,178.93z"/>
		<path fill="#000000" id="XMLID_512_" d="M431.92,254.95c-3.72-7.65-2.45-17.28-2.45-25.6v-17.71c0-1-1.65-2.01-2.33-2.68c0,0-0.02,0.01-0.05,0.03
			l-0.42-0.42l-16,16l0.53,0.53l2.89-2.89c1.96,1.95,2.23,2.08,2.23,4.74v11.89c0,6.83-0.49,13.88-0.02,20.69
			c0.88,12.71,12.62,22.03,18.47,32.53c2.78,4.99,4.45,10.68,3.19,16.27l-71.36,71.36v4.21l65.49-65.49
			c0.35-0.28,1.61-1.54,3.77-3.75c1.59-1.57,3.16-3.14,4.72-4.74l1.56-1.56l-0.02-0.02c0.44-0.45,0.88-0.9,1.32-1.35
			c4.16-4.34,7.83-8.91,8.17-15.15C452.4,277.64,437.65,266.71,431.92,254.95z"/>
		<path fill="#000000" id="XMLID_511_" d="M389.31,314.56l-17.49,17.49c1.45-9.25-4.54-17.63-9.77-24.89c-3.23-4.49-6.97-9.24-9.5-14.4
			c-0.01-0.03-0.02-0.05-0.03-0.07c-2.59-6.27-2.33-10.36-1.58-12.78c1.11-2.15,2.78-3.92,4.98-5.02c3.08-1.55,6.7-1.57,10.19-0.08
			c3.56,1.52,6.57,4.43,8.46,8.19c1.89,3.76,2.43,7.91,1.53,11.67c-0.89,3.7-3.07,6.59-6.15,8.13l1,1.99
			c3.67-1.85,6.27-5.26,7.31-9.61c1.03-4.28,0.42-8.97-1.7-13.2c-1.88-3.74-4.75-6.73-8.18-8.57c-11.2-6.85-24.29,4.13-24.29,4.13
			l0,0.06c-4.11,3.12-7.72,8.1-7.93,16.06c-0.04,1.57,0.17,2.88,0.54,3.99c1.27,8.47,7.31,15.88,12.2,22.65
			c5.24,7.24,11.22,15.65,9.77,24.89l-18.1,18.1v4.09l0.06,0.06l50.79-50.79L389.31,314.56z"/>
		<path fill="#000000" id="XMLID_510_" d="M308.67,248.78c0.52-0.49,1.21-1.03,1.39-1.2c1.57-1.53,3.12-3.08,4.67-4.63c1.55-1.55,3.1-3.1,4.63-4.67
			c0.38-0.39,1.62-1.37,1.88-1.97c3.42-7.85-18.44-14.47-13.98-19.46c-2.92,3.26-8.99,8.47-12.72,12.65
			c-5.14,5.76,13.9,10.66,13.94,18.07c-4.26,4.28-8.8,8.1-12.67,12.62c-3.48,4.06,15.79,11.4,14.02,18.93l-13.6,13.6
			c0.03,0.32,0.06,0.65,0.08,0.97l20.1-20.1l6.31-6.84C327.99,261.47,310.23,253.17,308.67,248.78z"/>
		<path fill="#000000" id="XMLID_509_" d="M311.95,245.75c0,0-4.39,3.38,0.32,6.99c4.19,3.21-4.43,2.65-4.62,1.69c-0.18-0.96-0.32-1.42-0.41-2.47
			c-0.09-1.05-0.41-0.78-0.09-1.28c0.32-0.5,0.27-0.27,0.5-0.69c0.23-0.41,1.05-2.01,1.23-2.19c0.18-0.18,0.91-1.37,0.91-1.37"/>
		<path fill="#000000" id="XMLID_508_" d="M307.92,245.34c0,0,0.82,1.46-0.14,2.56c-0.96,1.1-5.3,5.49-5.3,5.49s2.38,1.1,2.97,0.59
			s3.29-4.71,3.75-5.49c0.46-0.78,0.46,0.27,0.59-1.51c0.14-1.78-0.09-3.34-0.23-3.52"/>
		<path fill="#000000" id="XMLID_507_" d="M308.38,274.12c0,0,1.45,1.94,1.16,3.63c-0.24,1.42-1.42,3.14-3.44,5.16l1.26-0.7l2.51-2.84
			c0,0,1.12,0.05,1.21-1.21c0.09-1.26-0.23-3.26-0.51-4.14"/>
	</g>
	<g id="XMLID_479_">
		<path fill="#000000" id="XMLID_504_" d="M246.7,385.27h-22.15v-11.49h1.91v9.48h8.05v-8.15h1.84v8.15h8.37v-9.48h1.97V385.27z"/>
		<path fill="#000000" id="XMLID_502_" d="M246.7,370.82h-22.15v-2.07h22.15V370.82z"/>
		<path fill="#000000" id="XMLID_499_" d="M224.55,358.27c0-3.03,1.17-5,3.5-5.94c0.72-0.25,1.62-0.41,2.7-0.46c1.08-0.05,2.32-0.08,3.72-0.08h3.66
			c1.02,0,1.94,0.03,2.75,0.08c0.82,0.05,1.52,0.2,2.12,0.43c0.72,0.28,1.32,0.63,1.78,1.06c0.47,0.43,0.84,0.93,1.13,1.49
			c0.29,0.56,0.49,1.17,0.61,1.84c0.12,0.67,0.17,1.36,0.17,2.08v5.68h-22.15V358.27z M232.08,353.8c-0.49,0-0.99,0.02-1.52,0.06
			c-0.52,0.04-0.99,0.14-1.42,0.29c-0.89,0.28-1.58,0.79-2.04,1.54c-0.47,0.75-0.7,1.71-0.7,2.88v3.82h18.46v-3.82
			c0-2.31-0.9-3.78-2.71-4.39c-0.34-0.13-0.73-0.22-1.18-0.29s-0.88-0.1-1.31-0.1H232.08z"/>
		<path fill="#000000" id="XMLID_497_" d="M246.7,327.77h-12.95v0.13l4.14,1.62l4.84,2.1v2.58l-5,2.16l-4.01,1.59l0.03,0.13h12.95v3.63h-22.15
			v-3.47l7.26-3.12l5.35-2.16v-0.13l-5.38-2.13l-7.22-3.05v-3.5h22.15V327.77z"/>
		<path fill="#000000" id="XMLID_495_" d="M224.55,307.02h15.43c1.06,0,2.02,0.17,2.88,0.49c0.86,0.33,1.59,0.8,2.18,1.4
			c0.59,0.6,1.05,1.32,1.37,2.15c0.32,0.83,0.48,1.74,0.48,2.74c0,1.15-0.19,2.15-0.56,3.01s-0.87,1.57-1.51,2.13
			c-0.64,0.56-1.38,0.99-2.24,1.27c-0.86,0.29-1.78,0.43-2.75,0.43h-15.27v-3.63h15.37c0.96,0,1.77-0.27,2.45-0.81
			c0.68-0.54,1.02-1.34,1.02-2.4c0-0.89-0.29-1.63-0.87-2.21c-0.58-0.58-1.37-0.87-2.37-0.87h-15.59V307.02z"/>
		<path fill="#000000" id="XMLID_491_" d="M240.14,289.94c2.12,0,3.74,0.57,4.87,1.7c1.13,1.14,1.69,2.66,1.69,4.57v7.13h-22.15v-6.78
			c0-2.1,0.54-3.68,1.62-4.73c1.08-1.05,2.56-1.58,4.42-1.58c0.93,0,1.79,0.2,2.58,0.59c0.79,0.39,1.41,1.1,1.88,2.12h0.16
			c0.17-0.53,0.42-0.99,0.75-1.37c0.33-0.38,0.72-0.69,1.16-0.94c0.45-0.24,0.93-0.42,1.45-0.54
			C239.09,290,239.61,289.94,240.14,289.94z M230.72,293.82c-0.89,0-1.59,0.24-2.1,0.72c-0.51,0.48-0.76,1.25-0.76,2.31v2.86h5.79
			v-2.9c0-1.04-0.27-1.8-0.81-2.28C232.3,294.06,231.59,293.82,230.72,293.82z M239.94,293.5c-0.94,0-1.69,0.23-2.27,0.7
			c-0.58,0.47-0.86,1.24-0.86,2.32v3.18h6.46v-3.21c0-0.57-0.08-1.05-0.26-1.43c-0.17-0.38-0.41-0.69-0.72-0.92
			c-0.31-0.23-0.67-0.4-1.07-0.49C240.81,293.55,240.38,293.5,239.94,293.5z"/>
		<path fill="#000000" id="XMLID_488_" d="M241.92,277.24v6.14c0.19,0.04,0.51,0.13,0.96,0.25c0.44,0.13,0.92,0.26,1.43,0.4s0.99,0.26,1.43,0.38
			c0.44,0.12,0.76,0.21,0.95,0.27v3.79l-22.15-6.4v-3.5l22.15-6.43V276L241.92,277.24z M234.22,281.44l4.46,1.15v-4.52l-4.42,1.11
			c-0.19,0.04-0.51,0.11-0.95,0.21c-0.45,0.1-0.91,0.2-1.4,0.32c-0.49,0.12-0.95,0.23-1.38,0.33c-0.43,0.11-0.75,0.17-0.94,0.19
			v0.16L234.22,281.44z"/>
		<path fill="#000000" id="XMLID_485_" d="M246.7,260.15l-9.23,3.31v2.83h9.23v3.63h-22.15v-7.13c0-0.91,0.13-1.76,0.4-2.55
			c0.26-0.78,0.66-1.46,1.19-2.02c0.53-0.56,1.19-1,1.99-1.32c0.8-0.32,1.72-0.48,2.78-0.48c1.4,0,2.61,0.3,3.63,0.89
			c1.02,0.59,1.79,1.47,2.32,2.64l9.83-3.79V260.15z M230.91,259.99c-1.04,0-1.81,0.26-2.31,0.79c-0.5,0.53-0.75,1.29-0.75,2.29
			v3.21h6.33v-3.18c0-0.96-0.28-1.71-0.83-2.28C232.81,260.28,232,259.99,230.91,259.99z"/>
		<path fill="#000000" id="XMLID_482_" d="M241.92,243.7v6.14c0.19,0.04,0.51,0.13,0.96,0.25c0.44,0.13,0.92,0.26,1.43,0.4s0.99,0.26,1.43,0.38
			c0.44,0.12,0.76,0.21,0.95,0.27v3.79l-22.15-6.4v-3.5l22.15-6.43v3.85L241.92,243.7z M234.22,247.9l4.46,1.15v-4.52l-4.42,1.11
			c-0.19,0.04-0.51,0.11-0.95,0.21c-0.45,0.1-0.91,0.2-1.4,0.32c-0.49,0.12-0.95,0.23-1.38,0.33c-0.43,0.11-0.75,0.17-0.94,0.19
			v0.16L234.22,247.9z"/>
		<path fill="#000000" id="XMLID_480_" d="M246.7,225.44c-1.65,0.81-3.3,1.61-4.95,2.4c-1.64,0.8-3.29,1.6-4.95,2.4c0.64,0.42,1.28,0.85,1.93,1.27
			c0.65,0.42,1.28,0.85,1.89,1.27h6.08v3.63h-22.15v-3.63h10.02v-0.1l-10.02-6.49v-4.17l8.85,5.92c2.25-1.08,4.47-2.17,6.67-3.28
			c2.19-1.1,4.41-2.21,6.63-3.31V225.44z"/>
	</g>
</g>
<path fill="#000000" d="M273.602,481.306c-0.578-0.576-1.301-1.03-2.174-1.362c-0.873-0.331-1.885-0.497-3.039-0.497
	c-0.663,0-1.463,0.079-2.4,0.238v-6.077h-1.535v17.711c0.706,0.202,1.402,0.354,2.087,0.454s1.301,0.151,1.849,0.151
	c1.153,0,2.166-0.162,3.039-0.486s1.596-0.764,2.174-1.319c0.576-0.555,1.006-1.211,1.287-1.968s0.42-1.561,0.42-2.411
	s-0.139-1.657-0.42-2.422C274.608,482.554,274.178,481.883,273.602,481.306z M272.391,489.167c-0.852,0.829-2.17,1.243-3.958,1.243
	c-0.39,0-0.805-0.032-1.244-0.097c-0.439-0.065-0.84-0.134-1.2-0.206v-8.845c0.447-0.115,0.887-0.194,1.319-0.237
	c0.433-0.044,0.808-0.065,1.125-0.065c0.894,0,1.668,0.112,2.325,0.335c0.656,0.224,1.199,0.545,1.633,0.963
	c0.432,0.418,0.752,0.919,0.961,1.503s0.314,1.243,0.314,1.979C273.667,487.195,273.241,488.338,272.391,489.167z M247.392,479.446
	c-0.62,0-1.297,0.079-2.033,0.238c-0.735,0.158-1.485,0.433-2.249,0.821l-0.065,1.73c0.548-0.303,0.973-0.52,1.276-0.649
	s0.624-0.237,0.962-0.324c0.338-0.086,0.677-0.158,1.016-0.216s0.667-0.087,0.984-0.087c1.139,0,1.982,0.249,2.53,0.746
	s0.822,1.33,0.822,2.498v0.13c-0.332-0.044-0.732-0.087-1.2-0.13c-0.469-0.043-0.876-0.065-1.222-0.065
	c-1.831,0-3.302,0.311-4.412,0.931c-1.11,0.619-1.665,1.644-1.665,3.07c0,0.707,0.155,1.305,0.465,1.795
	c0.31,0.49,0.713,0.88,1.211,1.168s1.067,0.497,1.708,0.627c0.641,0.13,1.308,0.194,2,0.194c0.807,0,1.6-0.072,2.378-0.216
	c0.779-0.145,1.536-0.368,2.271-0.671v-7.028c0-1.585-0.397-2.742-1.189-3.471C250.189,479.811,248.992,479.446,247.392,479.446z
	 M250.636,489.892c-0.375,0.144-0.858,0.267-1.449,0.367c-0.591,0.102-1.183,0.151-1.773,0.151c-0.505,0-0.984-0.035-1.438-0.108
	c-0.454-0.071-0.84-0.197-1.157-0.378c-0.317-0.18-0.57-0.414-0.757-0.703c-0.188-0.288-0.281-0.663-0.281-1.124
	c0-0.52,0.111-0.934,0.335-1.244c0.224-0.31,0.533-0.551,0.93-0.724c0.396-0.174,0.85-0.296,1.362-0.368
	c0.511-0.072,1.041-0.108,1.589-0.108c0.476,0,0.984,0.029,1.524,0.087c0.541,0.058,0.912,0.108,1.114,0.151V489.892z
	 M258.032,479.868c-0.649,0.122-1.276,0.263-1.881,0.422v11.418h1.535v-10.186c0.202-0.072,0.563-0.147,1.082-0.228
	c0.519-0.079,1.002-0.118,1.449-0.118h1.989v-1.492H260C259.336,479.685,258.681,479.746,258.032,479.868z M-77.92,487.667
	l241.145,0.656l0.663-0.433l-0.632-0.564L-77.92,487.667z M164.994,487.825l1.95,1.95l1.95-1.95l-1.95-1.95L164.994,487.825z
	 M169.559,487.825l3.057,3.057l3.057-3.057l-3.057-3.057L169.559,487.825z M212.359,489.286l-3.395-9.602h-1.514l-3.396,9.602
	l-2.984-9.602h-1.73l3.979,12.023h1.428l3.46-9.645l3.46,9.645h1.427l3.979-12.023h-1.73L212.359,489.286z M238.418,489.589
	c-0.317,0-0.591,0.115-0.822,0.346c-0.231,0.23-0.346,0.505-0.346,0.822c0,0.316,0.115,0.591,0.346,0.821
	c0.23,0.23,0.504,0.346,0.822,0.346c0.317,0,0.591-0.115,0.822-0.346c0.23-0.23,0.346-0.505,0.346-0.821
	c0-0.317-0.116-0.592-0.346-0.822C239.009,489.704,238.735,489.589,238.418,489.589z M193.243,489.286l-3.395-9.602h-1.514
	l-3.396,9.602l-2.984-9.602h-1.73l3.979,12.023h1.428l3.46-9.645l3.46,9.645h1.427l3.979-12.023h-1.73L193.243,489.286z
	 M231.476,489.286l-3.395-9.602h-1.514l-3.396,9.602l-2.984-9.602h-1.73l3.979,12.023h1.428l3.46-9.645l3.46,9.645h1.427
	l3.979-12.023h-1.73L231.476,489.286z M382.732,480.474c-0.426-0.396-0.938-0.667-1.535-0.812c-0.598-0.144-1.271-0.216-2.021-0.216
	c-0.664,0-1.393,0.09-2.184,0.271c-0.793,0.181-1.471,0.4-2.033,0.659c-0.346-0.331-0.818-0.569-1.416-0.714
	c-0.6-0.144-1.273-0.216-2.023-0.216c-0.635,0-1.268,0.058-1.902,0.173l-2.465,0.454v11.635h1.535v-10.38
	c0.447-0.102,0.883-0.188,1.309-0.26c0.424-0.072,0.896-0.108,1.416-0.108c0.605,0,1.125,0.058,1.557,0.173
	c0.434,0.116,0.789,0.321,1.07,0.616c0.281,0.296,0.494,0.711,0.639,1.244s0.217,1.24,0.217,2.119v6.596h1.535v-7.201
	c0-0.663-0.055-1.243-0.162-1.741c-0.109-0.497-0.213-0.861-0.314-1.092c0.086-0.043,0.281-0.119,0.584-0.228
	c0.303-0.107,0.602-0.197,0.898-0.27c0.295-0.072,0.586-0.126,0.875-0.162s0.547-0.055,0.779-0.055c0.59,0,1.102,0.058,1.535,0.173
	c0.432,0.116,0.781,0.317,1.049,0.605c0.266,0.289,0.471,0.703,0.615,1.244c0.145,0.54,0.217,1.251,0.217,2.13v6.596h1.535v-7.201
	c0-0.995-0.111-1.816-0.336-2.466C383.482,481.393,383.158,480.87,382.732,480.474z M280.1,474.581
	c-0.785,0.648-1.18,1.729-1.18,3.243v1.86h-2.551v1.492h2.551v10.531h1.537v-10.531h4.973v-1.492h-4.973v-1.471
	c0-0.635,0.045-1.149,0.141-1.546c0.094-0.396,0.24-0.707,0.443-0.931c0.201-0.223,0.475-0.385,0.82-0.486
	c0.346-0.101,0.779-0.151,1.299-0.151h2.422v-1.492h-2.271C281.956,473.607,280.885,473.932,280.1,474.581z M398.273,487.825
	l3.057,3.057l3.057-3.057l-3.057-3.057L398.273,487.825z M343.322,482.322c0.389-0.418,0.854-0.749,1.395-0.994
	s1.135-0.368,1.783-0.368c0.736,0,1.373,0.076,1.914,0.228s1.121,0.414,1.74,0.789l0.715-1.405c-0.707-0.39-1.393-0.674-2.055-0.854
	c-0.664-0.181-1.436-0.271-2.314-0.271c-0.85,0-1.639,0.155-2.367,0.465c-0.729,0.311-1.367,0.746-1.914,1.309
	c-0.549,0.563-0.98,1.222-1.297,1.979c-0.317,0.757-0.476,1.59-0.476,2.498s0.158,1.74,0.476,2.497
	c0.316,0.757,0.748,1.413,1.297,1.969c0.547,0.555,1.186,0.987,1.914,1.297c0.729,0.311,1.518,0.465,2.367,0.465
	c0.879,0,1.65-0.09,2.314-0.27c0.662-0.181,1.348-0.466,2.055-0.854l-0.715-1.406c-0.619,0.375-1.199,0.639-1.74,0.79
	s-1.178,0.227-1.914,0.227c-0.648,0-1.242-0.119-1.783-0.356c-0.541-0.238-1.006-0.565-1.395-0.984
	c-0.391-0.418-0.693-0.915-0.908-1.492c-0.217-0.576-0.324-1.203-0.324-1.881s0.107-1.305,0.324-1.882
	C342.628,483.238,342.931,482.741,343.322,482.322z M404.387,487.825l1.949,1.95l1.951-1.95l-1.951-1.95L404.387,487.825z
	 M410.701,487.326l-0.664,0.433l0.633,0.564l241.176-0.341L410.701,487.326z M362.611,481.295c-0.549-0.569-1.193-1.02-1.936-1.352
	c-0.742-0.331-1.547-0.497-2.412-0.497c-0.863,0-1.668,0.166-2.41,0.497c-0.742,0.332-1.389,0.782-1.936,1.352
	c-0.549,0.57-0.977,1.229-1.287,1.979c-0.311,0.749-0.465,1.557-0.465,2.422s0.154,1.672,0.465,2.422s0.738,1.409,1.287,1.979
	c0.547,0.569,1.193,1.017,1.936,1.341s1.547,0.486,2.41,0.486c0.865,0,1.67-0.162,2.412-0.486s1.387-0.771,1.936-1.341
	c0.547-0.569,0.977-1.229,1.287-1.979c0.309-0.75,0.465-1.557,0.465-2.422s-0.156-1.673-0.465-2.422
	C363.587,482.524,363.158,481.865,362.611,481.295z M362.394,487.523c-0.217,0.569-0.52,1.067-0.908,1.492
	c-0.389,0.426-0.857,0.765-1.406,1.017c-0.547,0.252-1.152,0.378-1.816,0.378c-0.662,0-1.268-0.126-1.816-0.378
	c-0.547-0.252-1.016-0.591-1.404-1.017c-0.391-0.425-0.693-0.923-0.908-1.492c-0.217-0.569-0.324-1.179-0.324-1.827
	c0-0.649,0.107-1.262,0.324-1.839c0.215-0.576,0.518-1.077,0.908-1.503c0.389-0.425,0.857-0.764,1.404-1.016
	c0.549-0.252,1.154-0.379,1.816-0.379c0.664,0,1.27,0.127,1.816,0.379c0.549,0.252,1.018,0.591,1.406,1.016
	c0.389,0.426,0.691,0.927,0.908,1.503c0.217,0.577,0.324,1.189,0.324,1.839C362.718,486.345,362.611,486.954,362.394,487.523z
	 M296.221,481.295c-0.547-0.569-1.191-1.02-1.936-1.352c-0.742-0.331-1.545-0.497-2.41-0.497s-1.67,0.166-2.412,0.497
	c-0.742,0.332-1.387,0.782-1.936,1.352c-0.547,0.57-0.977,1.229-1.285,1.979c-0.311,0.749-0.465,1.557-0.465,2.422
	s0.154,1.672,0.465,2.422c0.309,0.75,0.738,1.409,1.285,1.979c0.549,0.569,1.193,1.017,1.936,1.341s1.547,0.486,2.412,0.486
	s1.668-0.162,2.41-0.486c0.744-0.324,1.389-0.771,1.936-1.341c0.549-0.569,0.977-1.229,1.287-1.979s0.465-1.557,0.465-2.422
	s-0.154-1.673-0.465-2.422C297.198,482.524,296.77,481.865,296.221,481.295z M296.006,487.523c-0.217,0.569-0.52,1.067-0.908,1.492
	c-0.391,0.426-0.859,0.765-1.406,1.017c-0.549,0.252-1.154,0.378-1.816,0.378c-0.664,0-1.27-0.126-1.816-0.378
	c-0.549-0.252-1.018-0.591-1.406-1.017c-0.389-0.425-0.691-0.923-0.908-1.492s-0.324-1.179-0.324-1.827
	c0-0.649,0.107-1.262,0.324-1.839c0.217-0.576,0.52-1.077,0.908-1.503c0.389-0.425,0.857-0.764,1.406-1.016
	c0.547-0.252,1.152-0.379,1.816-0.379c0.662,0,1.268,0.127,1.816,0.379c0.547,0.252,1.016,0.591,1.406,1.016
	c0.389,0.426,0.691,0.927,0.908,1.503c0.215,0.577,0.324,1.189,0.324,1.839C296.331,486.345,296.221,486.954,296.006,487.523z
	 M309.381,480.463c-0.455-0.39-0.996-0.656-1.623-0.801c-0.627-0.144-1.309-0.216-2.043-0.216c-0.707,0-1.465,0.047-2.271,0.141
	s-1.701,0.234-2.682,0.422v11.699h1.535v-10.402c1.184-0.23,2.293-0.346,3.33-0.346c0.592,0,1.111,0.062,1.559,0.184
	c0.445,0.123,0.818,0.332,1.113,0.628c0.295,0.295,0.525,0.713,0.691,1.254s0.25,1.251,0.25,2.13v6.553h1.535v-7.201
	c0-0.995-0.119-1.82-0.357-2.477C310.18,481.375,309.834,480.852,309.381,480.463z M318.516,490.054
	c-0.346-0.108-0.619-0.277-0.82-0.509c-0.203-0.23-0.35-0.547-0.443-0.951c-0.096-0.403-0.141-0.922-0.141-1.557v-5.86h4.973v-1.492
	h-4.973v-4.347h-1.537v4.347h-2.551v1.492h2.551v6.466c0,0.764,0.109,1.405,0.326,1.925c0.215,0.519,0.525,0.937,0.93,1.254
	c0.402,0.317,0.867,0.544,1.395,0.682c0.525,0.137,1.105,0.205,1.74,0.205h2.271v-1.492h-2.422
	C319.295,490.216,318.862,490.162,318.516,490.054z M337.784,489.589c-0.316,0-0.59,0.115-0.82,0.346s-0.346,0.505-0.346,0.822
	c0,0.316,0.115,0.591,0.346,0.821s0.504,0.346,0.82,0.346c0.318,0,0.592-0.115,0.822-0.346s0.346-0.505,0.346-0.821
	c0-0.317-0.115-0.592-0.346-0.822S338.102,489.589,337.784,489.589z M333.178,486.106c-0.346-0.303-0.785-0.565-1.318-0.789
	c-0.533-0.223-1.182-0.422-1.947-0.595l-0.799-0.173c-1.053-0.216-1.781-0.461-2.184-0.735c-0.404-0.273-0.607-0.678-0.607-1.211
	c0-0.504,0.238-0.904,0.715-1.2c0.475-0.295,1.174-0.443,2.098-0.443c0.793,0,1.477,0.076,2.055,0.228
	c0.576,0.151,1.217,0.421,1.924,0.811l0.691-1.405c-1.412-0.765-2.969-1.146-4.67-1.146c-0.635,0-1.223,0.076-1.764,0.228
	c-0.539,0.151-1.008,0.364-1.404,0.638s-0.711,0.605-0.941,0.994c-0.23,0.39-0.346,0.815-0.346,1.276
	c0,0.462,0.072,0.88,0.217,1.254c0.143,0.375,0.381,0.707,0.713,0.995s0.758,0.537,1.275,0.746c0.52,0.209,1.146,0.4,1.883,0.573
	l0.908,0.194c1.008,0.217,1.729,0.49,2.162,0.822c0.432,0.331,0.648,0.771,0.648,1.318c0,0.39-0.086,0.707-0.26,0.952
	c-0.172,0.245-0.414,0.436-0.725,0.573c-0.311,0.137-0.678,0.237-1.102,0.303c-0.426,0.064-0.877,0.097-1.352,0.097
	c-0.592,0-1.223-0.09-1.893-0.271c-0.67-0.18-1.352-0.479-2.045-0.897l-0.734,1.471c0.779,0.433,1.539,0.742,2.281,0.93
	s1.539,0.281,2.391,0.281c0.748,0,1.434-0.072,2.053-0.216c0.621-0.145,1.158-0.36,1.611-0.648c0.455-0.289,0.805-0.649,1.049-1.082
	c0.246-0.433,0.369-0.93,0.369-1.492c0-0.476-0.072-0.915-0.217-1.318C333.77,486.763,333.526,486.41,333.178,486.106z"/>
</svg>

