<?xml version="1.0" encoding="utf-8"?>
<!-- Generator: Adobe Illustrator 21.0.0, SVG Export Plug-In . SVG Version: 6.00 Build 0)  -->
<svg version="1.1" id="Layer_1" xmlns="http://www.w3.org/2000/svg" xmlns:xlink="http://www.w3.org/1999/xlink" x="0px" y="0px"
	 viewBox="0 0 800 500" style="enable-background:new 0 0 800 500;" xml:space="preserve">
<style type="text/css">
	.st0{stroke:#000000;stroke-miterlimit:10;}
	.st1{stroke:#0FA983;stroke-miterlimit:10;}
</style>
<g>
	<g>
		<path fill="#000000" d="M158.4,145.3c-0.5,0-0.9,0-1.4-0.1c-4.2-0.4-8.1-2.4-10.8-5.6c-2.7-3.3-4-7.4-3.6-11.6c0.8-8.7,8.5-15.2,17.3-14.4
			c8.7,0.8,15.2,8.5,14.4,17.3C173.5,139,166.5,145.3,158.4,145.3z M158.4,115.5c-7.1,0-13.1,5.4-13.8,12.6
			c-0.3,3.7,0.8,7.3,3.2,10.1c2.4,2.8,5.7,4.6,9.4,4.9c7.6,0.7,14.3-4.9,15-12.5c0.7-7.6-4.9-14.3-12.5-15
			C159.2,115.6,158.8,115.5,158.4,115.5z"/>
		<path fill="#000000" d="M262.1,177.4c-0.5,0-0.9,0-1.4-0.1c-8.7-0.8-15.2-8.5-14.4-17.3c0.8-8.7,8.5-15.2,17.3-14.4c8.7,0.8,15.2,8.5,14.4,17.3
			C277.2,171.1,270.3,177.4,262.1,177.4z M262.1,147.6c-7.1,0-13.1,5.4-13.8,12.6c-0.7,7.6,4.9,14.3,12.5,15
			c7.6,0.7,14.3-4.9,15-12.5c0.7-7.6-4.9-14.3-12.5-15C262.9,147.7,262.5,147.6,262.1,147.6z"/>
		<path fill="#000000" d="M662.7,387.2c-0.2,0-0.4,0-0.6,0c-1.8-0.2-3.4-1-4.6-2.4c-1.2-1.4-1.7-3.1-1.5-4.9c0.2-1.8,1-3.4,2.4-4.6
			c1.4-1.2,3.1-1.7,4.9-1.5c3.7,0.3,6.5,3.6,6.1,7.3l0,0c-0.2,1.8-1,3.4-2.4,4.6C665.8,386.6,664.2,387.2,662.7,387.2z M662.6,375.8
			c-2.4,0-4.4,1.8-4.6,4.3c-0.1,1.2,0.3,2.5,1.1,3.4s1.9,1.5,3.2,1.7c2.6,0.2,4.8-1.7,5.1-4.2c0.2-2.6-1.7-4.8-4.2-5.1
			C662.9,375.8,662.8,375.8,662.6,375.8z"/>
		<path fill="#000000" d="M190,415.3c-2.8,0-5.6-0.8-8.1-2.2c-3.6-2.2-6.2-5.6-7.3-9.8c-2.1-8.5,3-17.2,11.5-19.3l0,0c4.1-1,8.4-0.4,12,1.8
			c3.6,2.2,6.2,5.6,7.3,9.8c1,4.1,0.4,8.4-1.8,12c-2.2,3.6-5.6,6.2-9.8,7.3C192.6,415.2,191.3,415.3,190,415.3z M190,385.6
			c-1.1,0-2.3,0.1-3.4,0.4l0,0c-7.4,1.9-11.9,9.4-10,16.8c0.9,3.6,3.1,6.6,6.3,8.5c3.2,1.9,6.9,2.4,10.5,1.5
			c3.6-0.9,6.6-3.1,8.5-6.3c1.9-3.2,2.4-6.9,1.5-10.5c-0.9-3.6-3.1-6.6-6.3-8.5C194.9,386.3,192.5,385.6,190,385.6z"/>
		<path fill="#000000" d="M506.9,150.1c-2.1,0-4.3-0.4-6.3-1.3c-3.9-1.7-6.9-4.8-8.5-8.7c-3.3-8.1,0.7-17.4,8.9-20.7c8.1-3.2,17.4,0.7,20.7,8.9
			c3.3,8.1-0.7,17.4-8.9,20.7C510.9,149.7,508.9,150.1,506.9,150.1z M507,120.4c-1.7,0-3.5,0.3-5.1,1c-7.1,2.8-10.5,10.9-7.7,18v0
			c1.4,3.4,4,6.1,7.4,7.6c3.4,1.5,7.1,1.5,10.6,0.1c7.1-2.8,10.5-10.9,7.7-18c-1.4-3.4-4-6.1-7.4-7.6
			C510.7,120.7,508.8,120.4,507,120.4z"/>
		<path fill="#000000" d="M668.3,360c-2.1,0-4.3-0.4-6.3-1.3c-3.9-1.7-6.9-4.8-8.5-8.7c-1.6-3.9-1.5-8.3,0.2-12.2c1.7-3.9,4.8-6.9,8.7-8.5
			c3.9-1.6,8.3-1.5,12.2,0.2c3.9,1.7,6.9,4.8,8.5,8.7c3.3,8.1-0.7,17.4-8.9,20.7C672.3,359.6,670.3,360,668.3,360z M668.3,330.3
			c-1.7,0-3.5,0.3-5.1,1c-3.4,1.4-6.1,4-7.6,7.4c-1.5,3.4-1.5,7.1-0.1,10.6l0,0c1.4,3.4,4,6.1,7.4,7.6c3.4,1.5,7.1,1.5,10.6,0.1
			c3.4-1.4,6.1-4,7.6-7.4c1.5-3.4,1.5-7.1,0.1-10.6c-1.4-3.4-4-6.1-7.4-7.6C672,330.7,670.1,330.3,668.3,330.3z"/>
	</g>
	<g>
		<path fill="#000000" d="M238.3,113.3c-0.5,0-1,0-1.4-0.1c-8.7-0.8-15.2-8.5-14.4-17.3c0.8-8.7,8.5-15.2,17.3-14.4c8.7,0.8,15.2,8.5,14.4,17.3
			c-0.4,4.2-2.4,8.1-5.6,10.8C245.6,112,242,113.3,238.3,113.3z M238.3,83.6c-7.1,0-13.1,5.4-13.8,12.6c-0.7,7.6,4.9,14.3,12.5,15
			c3.7,0.3,7.3-0.8,10.1-3.2c2.8-2.4,4.6-5.7,4.9-9.4l0,0c0.7-7.6-4.9-14.3-12.5-15C239.1,83.6,238.7,83.6,238.3,83.6z"/>
		<path fill="#000000" d="M694.1,203.5c-0.5,0-1,0-1.4-0.1c-8.7-0.8-15.2-8.5-14.4-17.3c0.4-4.2,2.4-8.1,5.6-10.8c3.3-2.7,7.4-4,11.6-3.6
			c8.7,0.8,15.2,8.5,14.4,17.3c-0.4,4.2-2.4,8.1-5.6,10.8C701.4,202.2,697.8,203.5,694.1,203.5z M694,173.8c-3.2,0-6.3,1.1-8.8,3.2
			c-2.8,2.4-4.6,5.7-4.9,9.4c-0.7,7.6,4.9,14.3,12.5,15c3.7,0.3,7.3-0.8,10.1-3.2c2.8-2.4,4.6-5.7,4.9-9.4l0,0
			c0.7-7.6-4.9-14.3-12.5-15C694.9,173.8,694.5,173.8,694,173.8z"/>
		<path fill="#000000" d="M366.1,402.3c-0.2,0-0.4,0-0.6,0c-1.8-0.2-3.4-1-4.6-2.4c-1.2-1.4-1.7-3.1-1.5-4.9c0.3-3.7,3.6-6.5,7.3-6.1
			c3.7,0.3,6.5,3.6,6.1,7.3c-0.2,1.8-1,3.4-2.4,4.6C369.2,401.7,367.7,402.3,366.1,402.3z M366.1,390.8c-2.4,0-4.4,1.8-4.7,4.3
			c-0.2,2.6,1.7,4.8,4.2,5.1c1.2,0.1,2.5-0.3,3.4-1.1c1-0.8,1.5-1.9,1.7-3.2c0.2-2.6-1.7-4.8-4.2-5.1
			C366.4,390.8,366.2,390.8,366.1,390.8z"/>
		<path fill="#000000" d="M394,429.3c-7.1,0-13.6-4.8-15.4-12c-1-4.1-0.4-8.4,1.8-12c2.2-3.6,5.6-6.2,9.8-7.3l0,0c4.1-1,8.4-0.4,12,1.8
			c3.6,2.2,6.2,5.6,7.3,9.8c2.1,8.5-3,17.2-11.5,19.3C396.6,429.1,395.3,429.3,394,429.3z M394,399.5c-1.1,0-2.3,0.1-3.4,0.4l0,0
			c-3.6,0.9-6.6,3.1-8.5,6.3c-1.9,3.2-2.4,6.9-1.5,10.5c1.9,7.4,9.4,11.9,16.8,10c7.4-1.9,11.9-9.4,10-16.8
			c-0.9-3.6-3.1-6.6-6.3-8.5C398.9,400.2,396.5,399.5,394,399.5z"/>
		<path fill="#000000" d="M647.8,143.7c-7.1,0-13.6-4.8-15.4-12c-2.1-8.5,3-17.2,11.5-19.3l0,0c8.5-2.1,17.2,3,19.3,11.5c1,4.1,0.4,8.4-1.8,12
			c-2.2,3.6-5.6,6.2-9.8,7.3C650.4,143.5,649.1,143.7,647.8,143.7z M644.4,114.4c-7.4,1.9-11.9,9.4-10,16.8
			c1.9,7.4,9.4,11.9,16.8,10c3.6-0.9,6.6-3.1,8.5-6.3c1.9-3.2,2.4-6.9,1.5-10.5C659.3,117,651.8,112.5,644.4,114.4L644.4,114.4z"/>
		<path fill="#000000" d="M629.2,209.7c-2.8,0-5.6-0.8-8.1-2.2c-3.6-2.2-6.2-5.6-7.3-9.8c-2.1-8.5,3-17.2,11.5-19.3l0,0c4.1-1,8.4-0.4,12,1.8
			c3.6,2.2,6.2,5.6,7.3,9.8c2.1,8.5-3,17.2-11.5,19.3C631.8,209.5,630.5,209.7,629.2,209.7z M629.2,179.9c-1.1,0-2.3,0.1-3.4,0.4
			l0,0c-7.4,1.9-11.9,9.4-10,16.8c0.9,3.6,3.1,6.6,6.3,8.5c3.2,1.9,6.9,2.4,10.5,1.5c7.4-1.9,11.9-9.4,10-16.8
			c-0.9-3.6-3.1-6.6-6.3-8.5C634.1,180.6,631.7,179.9,629.2,179.9z"/>
		<path fill="#000000" d="M384.3,374.9c-7.1,0-13.6-4.8-15.4-12c-2.1-8.5,3-17.2,11.5-19.3l0,0c8.5-2.1,17.2,3,19.3,11.5c2.2,8.5-3,17.2-11.5,19.3
			C386.9,374.7,385.6,374.9,384.3,374.9z M381,345.6c-7.4,1.9-11.9,9.4-10,16.8c1.9,7.4,9.4,11.9,16.8,10c7.4-1.9,11.9-9.4,10-16.8
			C395.9,348.2,388.3,343.7,381,345.6L381,345.6z"/>
		<path fill="#000000" d="M97.7,194.7c-2.1,0-4.3-0.4-6.3-1.3c-3.9-1.7-6.9-4.8-8.5-8.7l0,0c-3.3-8.1,0.7-17.4,8.9-20.7c3.9-1.6,8.3-1.5,12.2,0.2
			c3.9,1.7,6.9,4.8,8.5,8.7c1.6,3.9,1.5,8.3-0.2,12.2c-1.7,3.9-4.8,6.9-8.7,8.5C101.7,194.4,99.7,194.7,97.7,194.7z M84.9,184
			c1.4,3.4,4,6.1,7.4,7.6c3.4,1.5,7.1,1.5,10.6,0.1c3.4-1.4,6.1-4,7.6-7.4c1.5-3.4,1.5-7.1,0.1-10.6c-1.4-3.4-4-6.1-7.4-7.6
			c-3.4-1.5-7.1-1.5-10.6-0.1C85.6,168.8,82.1,176.9,84.9,184L84.9,184z"/>
	</g>
	<g>
		<path fill="#000000" d="M335.7,213.2c-0.5,0-0.9,0-1.4-0.1c-4.2-0.4-8.1-2.4-10.8-5.6c-2.7-3.3-4-7.4-3.6-11.6c0.8-8.7,8.5-15.2,17.3-14.4
			c8.7,0.8,15.2,8.5,14.4,17.3C350.8,207,343.8,213.2,335.7,213.2z M335.7,183.5c-7.1,0-13.1,5.4-13.8,12.6
			c-0.3,3.7,0.8,7.3,3.2,10.1c2.4,2.8,5.7,4.6,9.4,4.9c7.6,0.7,14.3-4.9,15-12.5c0.7-7.6-4.9-14.3-12.5-15
			C336.5,183.5,336.1,183.5,335.7,183.5z"/>
		<path fill="#000000" d="M662.7,217.5c-0.2,0-0.4,0-0.6,0c-1.8-0.2-3.4-1-4.6-2.4c-1.2-1.4-1.7-3.1-1.5-4.9c0.3-3.7,3.6-6.5,7.3-6.1
			c3.7,0.3,6.5,3.6,6.1,7.3l0,0C669.1,214.9,666.1,217.5,662.7,217.5z M662.7,206.1c-2.4,0-4.4,1.8-4.6,4.3
			c-0.1,1.2,0.3,2.5,1.1,3.4c0.8,1,1.9,1.5,3.2,1.7c2.6,0.2,4.8-1.7,5.1-4.2c0.2-2.6-1.7-4.8-4.2-5.1
			C662.9,206.1,662.8,206.1,662.7,206.1z"/>
		<path fill="#000000" d="M452.4,349.6c-0.2,0-0.4,0-0.6,0c-3.7-0.3-6.5-3.6-6.1-7.3c0.3-3.7,3.6-6.5,7.3-6.1c1.8,0.2,3.4,1,4.6,2.4
			c1.2,1.4,1.7,3.1,1.5,4.9s-1,3.4-2.4,4.6C455.4,349.1,453.9,349.6,452.4,349.6z M452.3,338.2c-2.4,0-4.4,1.8-4.6,4.3
			c-0.2,2.6,1.7,4.8,4.2,5.1c1.2,0.1,2.5-0.3,3.4-1.1c1-0.8,1.5-1.9,1.7-3.2l0,0c0.2-2.6-1.7-4.8-4.2-5.1
			C452.6,338.2,452.5,338.2,452.3,338.2z"/>
		<path fill="#000000" d="M385.9,169.5c-0.2,0-0.4,0-0.6,0c-1.8-0.2-3.4-1-4.6-2.4c-1.2-1.4-1.7-3.1-1.5-4.9c0.2-1.8,1-3.4,2.4-4.6
			c1.4-1.2,3.1-1.7,4.9-1.5c3.7,0.3,6.5,3.6,6.1,7.3C392.3,166.9,389.3,169.5,385.9,169.5z M385.8,158.1c-2.4,0-4.4,1.8-4.6,4.3
			c-0.1,1.2,0.3,2.5,1.1,3.4c0.8,1,1.9,1.5,3.2,1.7c2.6,0.2,4.8-1.7,5.1-4.2l0,0c0.2-2.6-1.7-4.8-4.2-5.1
			C386.1,158.1,386,158.1,385.8,158.1z"/>
		<path fill="#000000" d="M329.2,385.9c-7.1,0-13.6-4.8-15.4-12c-2.1-8.5,3-17.2,11.5-19.3c4.1-1,8.4-0.4,12,1.8c3.6,2.2,6.2,5.6,7.3,9.8
			c1,4.1,0.4,8.4-1.8,12c-2.2,3.6-5.6,6.2-9.8,7.3C331.8,385.7,330.5,385.9,329.2,385.9z M329.2,356.2c-1.1,0-2.3,0.1-3.4,0.4
			c-7.4,1.9-11.9,9.4-10,16.8c1.9,7.4,9.4,11.9,16.8,10c3.6-0.9,6.6-3.1,8.5-6.3c1.9-3.2,2.4-6.9,1.5-10.5c-0.9-3.6-3.1-6.6-6.3-8.5
			C334.1,356.8,331.7,356.2,329.2,356.2z"/>
		<path fill="#000000" d="M344.4,104.8c-6.3,0-12.3-3.8-14.8-10l0,0c-1.6-3.9-1.5-8.3,0.2-12.2c1.7-3.9,4.8-6.9,8.7-8.5c3.9-1.6,8.3-1.5,12.2,0.2
			c3.9,1.7,6.9,4.8,8.5,8.7c1.6,3.9,1.5,8.3-0.2,12.2c-1.7,3.9-4.8,6.9-8.7,8.5C348.3,104.5,346.3,104.8,344.4,104.8z M344.3,75.1
			c-1.7,0-3.5,0.3-5.1,1c-3.4,1.4-6.1,4-7.6,7.4c-1.5,3.4-1.5,7.1-0.1,10.6l0,0c1.4,3.4,4,6.1,7.4,7.6c3.4,1.5,7.1,1.5,10.6,0.1
			c3.4-1.4,6.1-4,7.6-7.4c1.5-3.4,1.5-7.1,0.1-10.6c-1.4-3.4-4-6.1-7.4-7.6C348,75.5,346.2,75.1,344.3,75.1z"/>
		<path fill="#000000" d="M349.2,163.8c-3,0-6.1-0.6-9-1.9c-5.6-2.4-9.9-6.8-12.2-12.5l0,0c-2.3-5.6-2.2-11.8,0.2-17.4c2.4-5.6,6.8-9.9,12.5-12.2
			c11.6-4.7,24.9,1,29.6,12.7c2.3,5.6,2.2,11.8-0.2,17.4c-2.4,5.6-6.8,9.9-12.5,12.2C354.9,163.3,352.1,163.8,349.2,163.8z
			 M349.2,120.4c-2.5,0-5.1,0.5-7.6,1.5c-5.1,2-9.1,6-11.3,11c-2.2,5.1-2.3,10.7-0.2,15.8l0,0c4.2,10.6,16.3,15.8,26.9,11.5
			c5.1-2,9.1-6,11.3-11c2.2-5.1,2.3-10.7,0.2-15.8C365.2,125.3,357.4,120.4,349.2,120.4z"/>
	</g>
	<g>
		<path fill="#000000" d="M213.6,200.8c-0.7,0-1.4,0-2.2-0.1c-6.4-0.6-12.2-3.6-16.3-8.5c-4.1-4.9-6.1-11.1-5.5-17.5c1.2-13.2,12.8-22.9,26-21.7
			c6.4,0.6,12.2,3.6,16.3,8.5c4.1,4.9,6.1,11.1,5.5,17.5c-0.6,6.4-3.6,12.2-8.5,16.3C224.6,198.9,219.2,200.8,213.6,200.8z
			 M213.5,155c-11.2,0-20.8,8.6-21.8,19.9c-0.5,5.8,1.3,11.5,5,16c3.7,4.5,9,7.2,14.8,7.8c5.8,0.5,11.5-1.3,16-5
			c4.5-3.7,7.2-9,7.8-14.8l0,0c0.5-5.8-1.3-11.5-5-16c-3.7-4.5-9-7.2-14.8-7.8C214.8,155,214.2,155,213.5,155z"/>
		<path fill="#000000" d="M271.9,382.1c-0.7,0-1.4,0-2.2-0.1c-13.2-1.2-22.9-12.8-21.7-26c1.2-13.2,12.8-22.9,26-21.7c13.2,1.2,22.9,12.8,21.7,26
			c-0.6,6.4-3.6,12.2-8.5,16.3C282.9,380.2,277.5,382.1,271.9,382.1z M271.8,336.3c-11.2,0-20.8,8.6-21.8,19.9
			c-1.1,12,7.8,22.7,19.9,23.7c5.8,0.5,11.5-1.3,16-5c4.5-3.7,7.2-9,7.8-14.8c1.1-12-7.8-22.7-19.9-23.7
			C273.1,336.3,272.5,336.3,271.8,336.3z"/>
		<path fill="#000000" d="M476.1,414.9c-0.7,0-1.4,0-2.2-0.1c-13.2-1.2-22.9-12.8-21.7-26c1.2-13.2,12.8-22.9,26-21.7c6.4,0.6,12.2,3.6,16.3,8.5
			c4.1,4.9,6.1,11.1,5.5,17.5l0,0c-0.6,6.4-3.6,12.2-8.5,16.3C487.1,412.9,481.7,414.9,476.1,414.9z M476.1,369
			c-11.2,0-20.8,8.6-21.8,19.9c-0.5,5.8,1.3,11.5,5,16c3.7,4.5,9,7.2,14.8,7.8c5.8,0.5,11.5-1.3,16-5c4.5-3.7,7.2-9,7.8-14.8l0,0
			c0.5-5.8-1.3-11.5-5-16c-3.7-4.5-9-7.2-14.8-7.8C477.4,369.1,476.7,369,476.1,369z"/>
		<path fill="#000000" d="M439.2,136.8c-1,0-2,0-3-0.1c-18.2-1.6-31.6-17.7-30-35.9c1.6-18.2,17.7-31.6,35.9-30c8.8,0.8,16.8,4.9,22.4,11.7
			c5.7,6.8,8.4,15.3,7.6,24.1c-0.8,8.8-4.9,16.8-11.7,22.4C454.4,134.2,447,136.8,439.2,136.8z M439.1,72.8
			c-15.8,0-29.4,12.1-30.8,28.2c-1.5,17,11.1,32.1,28.1,33.6c8.2,0.7,16.3-1.8,22.6-7.1c6.3-5.3,10.2-12.8,11-21l0,0
			c0.7-8.2-1.8-16.3-7.1-22.6c-5.3-6.3-12.8-10.2-21-11C441,72.9,440.1,72.8,439.1,72.8z"/>
		<path fill="#000000" d="M580.1,133.9c-3,0-6.1-0.6-9-1.9c-5.6-2.4-9.9-6.8-12.2-12.5l0,0c-2.3-5.6-2.2-11.8,0.2-17.4c2.4-5.6,6.8-9.9,12.5-12.2
			c5.6-2.3,11.8-2.2,17.4,0.2s9.9,6.8,12.2,12.5c2.3,5.6,2.2,11.8-0.2,17.4c-2.4,5.6-6.8,9.9-12.5,12.2
			C585.8,133.4,583,133.9,580.1,133.9z M580.1,90.5c-2.5,0-5.1,0.5-7.6,1.5c-5.1,2-9.1,6-11.3,11c-2.2,5.1-2.3,10.7-0.2,15.8l0,0
			c2,5.1,6,9.2,11,11.3c5.1,2.2,10.7,2.3,15.8,0.2c5.1-2,9.1-6,11.3-11c2.2-5.1,2.3-10.7,0.2-15.8C596.1,95.4,588.3,90.5,580.1,90.5
			z"/>
	</g>
	<path fill="#000000" d="M465.9,298.6l-1.6-1.9c1.9-4.9,2.9-10.2,2.8-16.1l-0.5-51.4c0-1.1-0.5-1.6-1.5-1.6l-30.9,0.3c-0.4,0-0.7,0.2-1,0.5
		c-0.3,0.3-0.5,0.7-0.5,1.2l0.5,51.4c0,2.4-0.8,4.5-2.5,6.2c-1.7,1.7-3.8,2.6-6.2,2.6c-1.9,0-3.6-0.5-5-1.6l4.8-1.4
		c0.9-0.1,1.3-0.6,1.3-1.4c0.2-0.6-0.1-1.2-0.7-1.7l-4.2-3.2l0.2-5.3c0.1-1.1-0.2-1.7-0.8-1.7c-0.5-0.5-1.1-0.5-1.9,0.2l-2.7,1.8
		l-0.4-45.7c0-1.1-0.5-1.6-1.5-1.6l-30.9,0.3c-0.4,0-0.7,0.2-1,0.5c-0.3,0.3-0.5,0.7-0.5,1.2l0.5,52.3c-0.2,2.2-1.2,4-2.8,5.6
		c-1.7,1.5-3.6,2.3-5.8,2.3c-2.4,0-4.5-0.8-6.2-2.6c-1.7-1.7-2.5-3.8-2.6-6.1l-0.5-51.4c0-1.1-0.6-1.6-1.6-1.6l-30.7,0.3
		c-0.5,0-0.8,0.2-1.1,0.5c-0.3,0.3-0.5,0.7-0.5,1.2l0.5,51.4c0,0.2,0,0.4,0.1,0.5c-0.1,0.3-0.1,0.5-0.1,0.5c0.3,8,2.5,15.3,6.8,21.8
		l-1.7,2c-0.6,0.7-0.7,1.4-0.3,1.9c0.1,0.6,0.6,1,1.6,1.1l1.1,0c-5,2.9-15.9,7-26.1-2.1l4.9,0c1.1,0,1.6-0.5,1.6-1.5l-0.2-30.9
		c0-0.4-0.2-0.7-0.5-1c-0.3-0.3-0.7-0.5-1.1-0.5l-51.5,0.4l-0.1,0c-2.2-0.1-4.2-0.9-5.8-2.5l-0.1,0c-1.7-1.7-2.6-3.8-2.6-6.2
		c0-2.4,0.8-4.5,2.5-6.2c1.7-1.7,3.8-2.6,6.2-2.6l22.8-0.2l-1,4.6c-0.2,1,0,1.7,0.5,2.1c0.5,0.4,1.2,0.4,2.1-0.1l4.7-2.2l4.6,2.7
		c0.4,0.2,0.7,0.3,1.1,0.3c0.4,0.1,0.7,0,1.1-0.3c0.4-0.3,0.6-0.9,0.5-1.8l0,0.1l-0.6-5.3l0-0.1l15.6-0.1c1.1,0,1.6-0.5,1.6-1.5
		l-0.2-30.9c0-0.4-0.2-0.7-0.5-1c-0.3-0.3-0.7-0.5-1.2-0.5l-40.1,0.3l-0.3-2.2c-0.2-1-0.6-1.5-1.2-1.6c-0.6-0.3-1.3,0-1.9,0.7
		l-3.1,3.1l-4,0l-1.8-0.3c-0.7-0.2-1.3-0.1-1.6,0.3c-4.9,0.3-10.1,1.7-15.3,4c-5.7,2.5-9.9,5.6-12.6,9.3L234,236l-1.8-5
		c-0.3-0.9-0.8-1.3-1.6-1.2c-0.5-0.2-1.1,0.1-1.6,1l-2.8,4.3l-5.3,0.2l-0.1,0c-1,0-1.5,0.3-1.6,1c-0.4,0.5-0.2,1.1,0.4,1.9l3.3,4.2
		l-1.4,5.1c-0.3,1-0.1,1.6,0.4,1.8c0.2,0.4,0.5,0.5,0.9,0.5c0.3,0,0.6-0.1,0.9-0.1l2-0.8c-2.2,5.2-3.3,10.9-3.2,17
		c0,2.8,0.3,5.5,0.8,8.1c-4.5,0.1-8.5-0.5-11.2-1c0,0,0-0.1,0-0.1c0.4-0.4,0.4-0.9,0.2-1.6l-0.3-1.8l-0.1-4l3.1-3.1
		c0.7-0.6,0.9-1.3,0.6-1.9c-0.1-0.6-0.6-1-1.6-1.2l-2.2-0.2l-0.5-40.1c0-0.4-0.2-0.8-0.5-1.1c-0.3-0.3-0.7-0.5-1-0.5l-30.9,0.4
		c-1,0-1.5,0.6-1.5,1.6l0.2,15.6l-0.1,0l-5.3-0.5l0.1,0c-0.9-0.1-1.5,0.1-1.8,0.5c-0.3,0.4-0.4,0.8-0.3,1.2c0,0.4,0.1,0.7,0.3,1.1
		l2.8,4.5l-2.1,4.7c-0.4,0.9-0.5,1.6,0,2.1c0.4,0.5,1.1,0.6,2.1,0.4l4.6-1.1l0.3,22.8c0,2.4-0.8,4.5-2.5,6.2
		c-1.6,1.6-12.9,3.3-16.1,3.5l0,0c-0.4,0-1,0.1-2.2-0.8c-0.1-0.2-0.3-0.3-0.5-0.5c0.5-2.9,0.8-5.8,0.8-8.9c0-6.1-1-11.8-3.2-17
		l2,0.8c0.3,0.1,0.7,0.1,0.9,0.1c0.4,0,0.7-0.2,0.9-0.5c0.5-0.2,0.7-0.8,0.4-1.7l-1.4-5.1l3.2-4.2c0.6-0.8,0.7-1.4,0.4-1.9
		c-0.1-0.6-0.6-0.9-1.6-1l-0.1,0l-5.1-0.2l-2.7-4.3c-0.5-0.8-1-1.1-1.6-1c-0.8-0.1-1.3,0.3-1.6,1.2l-1.7,5l-0.3,0.1
		c-2.6-3.7-6.7-6.8-12.2-9.2c-5.1-2.4-10.1-3.7-14.9-4c-0.3-0.4-0.9-0.5-1.6-0.3l-1.7,0.3l-3.9,0l-3-3.1c-0.6-0.7-1.2-0.9-1.8-0.7
		c-0.6,0.1-1,0.6-1.2,1.6l-0.3,2.2L67,227.1c-0.4,0-0.8,0.2-1.1,0.5c-0.3,0.3-0.5,0.6-0.5,1l-0.2,30.9c0,1,0.5,1.5,1.6,1.5L82,261
		l0,0.1l-0.5,5.3l0-0.1c-0.1,0.9,0.1,1.5,0.4,1.8c0.4,0.3,0.8,0.4,1.1,0.3c0.3,0,0.7-0.1,1-0.3l4.5-2.7l4.6,2.2
		c0.9,0.5,1.5,0.5,2,0.1c0.5-0.4,0.6-1.1,0.5-2.1l-1-4.6l22.1,0.1c2.4,0,4.3,0.9,6,2.6c1.6,1.7,2.5,3.8,2.4,6.2
		c0,2.4-0.9,4.5-2.5,6.2l-0.1,0c-1.6,1.6-3.5,2.5-5.6,2.5l-0.1,0l-49.9-0.3c-0.4,0-0.8,0.2-1.1,0.5c-0.3,0.3-0.5,0.6-0.5,1L65,310.8
		c0,1,0.5,1.5,1.6,1.5l22.5,0.1l-0.4,3c-0.1,0.8,0.1,1.4,0.7,1.9c0.6,0.5,1.2,0.5,2,0l6-3.6l6.1,3l0.1,0c0.9,0.5,1.5,0.5,2,0.1
		c0.5-0.4,0.6-1.1,0.5-2.2l-0.5-2l50.5,0.3c0.3,0,0.7-0.1,1-0.4c0.1-0.1,0.1-0.2,0.2-0.3c8.5,2,12.7,1.3,12.7,1.3
		c6.1-0.1,11.8-1.3,16.9-3.6l-0.8,2c-0.1,0.4-0.1,0.7-0.1,0.9c0,0.4,0.2,0.8,0.6,0.9c0.2,0.5,0.8,0.7,1.8,0.4l5.1-1.6l4.2,3.2
		c0.8,0.6,1.4,0.7,1.9,0.4c0.6-0.1,0.9-0.6,0.9-1.6l0-0.1l0.1-5.3l4.3-2.9c0.3-0.2,0.4-0.4,0.6-0.5c6.6,1.5,13.9,1.9,17.6,2.1
		c0.1,0.1,0.1,0.2,0.2,0.3c0.3,0.3,0.7,0.4,1,0.4l52.2-0.4l-0.5,2c-0.2,1.1,0,1.8,0.5,2.2c0.5,0.4,1.2,0.4,2.1-0.1l0.1,0l6.3-3
		l3.7,2.2c4,4.6,29,30.5,67.2,9.4c5.4,2.4,11.2,3.6,17.5,3.5c9.8-0.1,18.4-3,25.7-8.7c7.5,5.6,16.1,8.3,25.7,8.3
		c11.8-0.1,21.8-4.4,30.1-12.8c2.8-2.8,5.1-5.8,6.9-9.1l2.7-0.2c1,0,1.5-0.3,1.6-1c0.2-0.2,0.3-0.4,0.3-0.7c0-0.4-0.2-0.8-0.6-1.2
		L465.9,298.6z M147.8,243.4c0.3-0.2,0.6-0.3,0.8-0.4c0.4-0.4,0.7-0.8,0.8-1.3l0,0.1l0.9-2.8l1.7,2.4c0.4,0.8,1,1.2,1.8,1.2h0.1
		l2.7,0c-1.1,1.3-1.6,2.1-1.7,2.4c-0.5,0.6-0.7,1.3-0.5,2.2h0.1l0.8,2.8l-2.7-1.1l-0.1,0c-0.8-0.2-1.5-0.1-2.1,0.4L148,251l0.1-3
		c0-0.2,0-0.4,0-0.5c-0.1-0.5-0.4-0.9-0.9-1.5l-2.3-1.9L147.8,243.4z M106.8,233c0.9-0.9,1.4-1.5,1.4-1.9l0.4-3l1.9,2.2
		c0,0.1,0,0.1,0.1,0.1c0.6,0.5,1.3,0.7,2.1,0.5l2.7-0.5l-1.3,2.7c-0.2,0.4-0.3,0.9-0.3,1.2c0,0.4,0.1,0.7,0.3,1.1l1.3,2.7l-2.7-0.6
		l-0.1,0l-0.8,0c-0.4,0.1-0.9,0.3-1.3,0.7l-2,2.1l-0.4-3l0,0.1c-0.2-0.9-0.6-1.5-1.3-1.9l-0.1,0l-2.5-1.4L106.8,233z M68.4,230.2
		l36.7,0.2l-4.5,2.3c-0.9,0.4-1.2,1-1.1,1.6c-0.2,0.6,0.2,1.2,1,1.6l3.3,1.6l-35.5-0.2L68.4,230.2z M68.4,240.4l37.2,0.2l0.4,2.7
		c0.1,0.9,0.4,1.4,1,1.5c0.6,0.5,1.2,0.3,1.8-0.4l3.7-3.8l5.1,1c1,0.2,1.5-0.1,1.7-0.8l0.1,0c7.1,0.7,13.1,3.8,18,9.3
		c4.8,5.5,7.3,11.9,7.5,19.3l-3.1,2.5l-3.8-1.1l0-0.8c0-6.2-2-11.4-6.2-15.7c-4.2-4.3-9.2-6.4-15.1-6.5l-28.1-0.1
		c-0.3-0.2-0.6-0.2-0.9-0.1c-0.3-0.1-0.7,0-0.9,0.1l-18.4-0.1L68.4,240.4z M139.5,276.9l-1-2.7l2.7,0.8c0.9,0.3,1.6,0.1,2.2-0.5
		l2.2-1.9c0.1,1.7,0.1,2.7,0.1,3.1c0,0.8,0.3,1.4,1,1.9l2.5,1.6l-2.7,0.9l0,0.1c-0.8,0.3-1.3,0.8-1.4,1.6l-0.1,0l-0.7,3l-1.8-2.3
		c-0.5-0.7-1.2-1-2-1l-2.9,0.1l1.6-2.4v-0.1c0.1-0.1,0.2-0.2,0.3-0.4C139.7,278.3,139.7,277.7,139.5,276.9z M79,254.5
		c-1,0.2-1.4,0.6-1.4,1.2c-0.3,0.5,0,1.2,0.6,1.9l0.4,0.3l-10.3-0.1l0-7.1l16.8,0.1l-1.2,2.7L79,254.5z M92.1,258.6
		c-0.6,0.6-0.8,1.4-0.7,2.3l0.6,2.8l-2.6-1.2h-0.1c-0.8-0.4-1.5-0.3-2.1,0.1l-2.5,1.5l0.3-3l0-0.1c0.1-0.7-0.1-1.4-0.6-2l-0.1,0
		l-2.1-1.9l2.7-0.7l0.1,0c0.9-0.3,1.4-0.8,1.6-1.5l1.3-2.7l1.3,2.6c0.4,0.8,1.1,1.3,2,1.4l2.9,0.3L92.1,258.6z M124.3,278.5
		c0.1-0.1,0.2-0.1,0.3-0.1c2.2-2.3,3.3-5.1,3.3-8.3c0-3.2-1.1-6-3.3-8.4c-2.2-2.3-4.9-3.5-8-3.5l-20-0.1l1.3-1.3
		c0.6-0.7,0.7-1.3,0.4-1.9c-0.1-0.6-0.6-1-1.6-1.1l-5.1-0.6l-1.3-2.3l26.2,0.1c5.1,0,9.5,1.9,13,5.6c3.6,3.7,5.3,8.2,5.3,13.5
		c0,0.4-0.1,0.8-0.2,1.1c-0.1,0.3-0.2,0.5-0.2,0.8c0,0.3,0,0.6,0.1,0.9c-0.2,2-0.8,3.9-1.7,5.9l-8.9,0
		C124.2,278.6,124.2,278.6,124.3,278.5z M68.2,281.5l48.6,0.3l16.8,0.1l0.1,0l0.3,0l-0.3,0.3v0.1c-0.3,0.4-0.4,0.9-0.4,1.2
		c0,0.3,0.1,0.5,0.3,0.7c0.1,0.5,0.6,0.8,1.7,0.8l5.1-0.2l3.1,4.1l0.3,0.3l-75.6-0.4L68.2,281.5z M68.1,291.8l26.9,0.1
		c-0.2,0.2-0.3,0.4-0.3,0.5L92,299l-23.9-0.1L68.1,291.8z M89.3,309.3L68,309.2l0-7.1l15.5,0.1c-0.1,0.4,0,0.8,0.3,1.1
		c0.3,0.3,0.4,0.4,0.5,0.4l5.1,4.7L89.3,309.3z M102.4,305.6l-0.1,0c-0.6,0.7-0.8,1.6-0.7,2.6l1,4.6l-4.2-1.9v-0.1
		c-0.9-0.5-1.7-0.4-2.5,0.1l-4.1,2.5l0.5-4.8c0.1-0.9-0.2-1.7-0.8-2.3l-3.6-3.3l4.6-0.9c0.1,0,0.2,0,0.3-0.1
		c0.8-0.2,1.4-0.7,1.7-1.5l1.9-4.4l2.3,4.2c0.5,0.9,1.3,1.4,2.2,1.5l4.6,0.4L102.4,305.6z M154.6,309.6l-49.6-0.3l-0.4-1.8l4.7-5.2
		l0-0.1l45.3,0.2L154.6,309.6z M154.7,299.4l-47.4-0.3l-6-0.6l-3.2-6.1c-0.1-0.2-0.2-0.4-0.3-0.5l56.9,0.3L154.7,299.4z
		 M154.7,289.1l-8.5,0c0.2-0.2,0.3-0.5,0.4-0.9l1.2-5.1l3-1.1l3.5,0c0.1,0,0.2,0.1,0.4,0.1L154.7,289.1z M154,278.9l-0.1,0
		c-0.2-0.3-0.5-0.5-0.9-0.8l-4.3-2.9l-0.1-5.3c-0.1-0.8-0.3-1.3-0.8-1.6c-0.3-8.1-3.2-15.1-8.8-21.1c-5.6-6-12.3-9.1-20.3-9.5
		l-1.7-3.4l2-3.9c9.3,0.6,17.3,4.2,24.1,10.9l-1.4,0.4c-1,0.3-1.4,0.8-1.3,1.5c-0.3,0.5,0,1.1,0.8,1.8l4,3.3
		c-0.2,2.9-0.3,4.6-0.3,5.3c0,0.8,0.3,1.3,0.8,1.6c0.5,0.5,1.2,0.4,2-0.1l3.4-2.4c2.6,5.3,3.9,11.2,3.8,17.5
		C154.8,273.1,154.5,276,154,278.9z M222.7,294.9c-8-0.1-14.2-2-16.2-2.7c0.7-1.3,1.3-2.6,1.9-4.1c0.2-0.5,0.4-0.9,0.5-1.4
		c4.5,1.4,10.2,1.5,13.7,1.3L222.7,294.9z M211.8,276c3.6,0.8,7.7,1,10.8,0.9l0.1,8.1c-5.2,0.2-10-0.6-12.6-1.2
		C210.9,281.2,211.5,278.5,211.8,276z M208.3,220.3l0.5,37.9l-2.4-4.6c-0.5-0.9-1-1.2-1.6-1.1c-0.6-0.2-1.2,0.2-1.6,1.1l-1.6,3.4
		l-0.5-36.7L208.3,220.3z M201.8,261.5l-0.1,0c0.9-0.2,1.5-0.6,1.9-1.4l0-0.1l1.3-2.6l1.4,2.5c0.9,0.9,1.5,1.4,1.9,1.5l3,0.4
		l-2.1,2.1c-0.1,0-0.1,0-0.1,0.1c-0.5,0.6-0.7,1.4-0.5,2.2l0.6,2.8l-2.7-1.3c-0.5-0.2-0.9-0.3-1.2-0.3c-0.4,0-0.7,0.1-1.1,0.3
		l-2.7,1.4l0.5-2.8l0-0.1l0-0.8c-0.1-0.4-0.3-0.9-0.7-1.3l-2.2-2L201.8,261.5z M187.8,220.6L188,238l-2.7-1.2l-1.1-5.1
		c-0.2-1-0.6-1.5-1.2-1.5c-0.5-0.3-1.2,0-1.9,0.7l-0.3,0.4l-0.1-10.7L187.8,220.6z M178,244.6l-2.8,0.7l1.2-2.7l0-0.1
		c0.3-0.8,0.3-1.5-0.2-2.2l-1.5-2.5l3,0.2l0.1,0c0.7,0.1,1.4-0.2,2-0.7l0-0.1l1.9-2.2l0.7,2.8l0,0.1c0.3,0.9,0.8,1.4,1.5,1.6
		l2.7,1.3l-2.5,1.4c-0.8,0.5-1.2,1.1-1.3,2l-0.2,3l-2.2-2C179.7,244.6,178.9,244.4,178,244.6z M157.7,282.8c0.4,0.1,1.4,0.5,1.4,0.5
		l2.8,0.3l10.4-1.5c2.5-0.4,3.7-1.2,5.6-3.1c2.3-2.3,3.4-5.1,3.4-8.3l-0.3-20.6l1.4,1.3c0.7,0.6,1.4,0.7,1.9,0.4
		c0.6-0.1,1-0.6,1.1-1.6l0.5-5.3l2.3-1.4l0.4,27.1c0.1,5.3-1.2,10.4-5.3,13.6c-12.2,9.3-25.4,5.3-25.4,5.3L157.7,282.8z
		 M157.7,292.5c0,0,14.1,4.3,27.7-6.4c4.8-3.8,6.3-9.6,6.2-15.7l-0.4-29c0.2-0.3,0.2-0.6,0.1-0.9c0.1-0.4,0-0.7-0.1-0.9l-0.3-19
		l7.1-0.1l0.5,38.4l-2.7,0.4c-0.9,0.1-1.4,0.5-1.5,1.1c-0.4,0.6-0.3,1.3,0.4,1.9l3.8,3.7l-0.9,5.3c-0.2,1,0.1,1.6,0.8,1.7l0,0.1
		c-0.5,7.4-2.9,14.3-8.9,18.7c-17.5,12.9-32.1,7.6-32.1,7.6L157.7,292.5z M186.5,299.6c-0.8,0-1.3,0.3-1.6,0.8
		c-0.4,0.5-0.4,1.2,0.2,2l2.5,3.5c-5.3,2.8-11.1,4.2-17.5,4.3c-7.7,0-8.9,0-12.4-1.3l0-6.2c23.7,2.8,34.9-9.3,34.9-9.3
		c5.9-5.9,8.9-12.9,9.2-21.1l3.3-1.8l3.8,1.9l-0.9,2.3c0.3,0.1,0.6,0.2,0.9,0.4c-0.9,8.6-4.3,16.1-10.2,22.5l-0.4-1.5
		c-0.3-1-0.8-1.4-1.5-1.3c-0.5-0.3-1.1,0-1.7,0.8l-3.2,4.2C188.8,299.7,187.1,299.6,186.5,299.6z M198.7,306.7
		c-0.8,0.5-1.2,1.1-1.2,1.9l0,0.1l0,2.8c-1.4-1.1-2.2-1.6-2.5-1.7c-0.6-0.5-1.4-0.7-2.2-0.5l0,0.1l-2.8,0.8l1-2.8l0-0.1
		c0.2-0.8,0-1.5-0.4-2.2l-1.7-2.4l3,0.1c0.2,0,0.4,0,0.5,0c0.5-0.1,0.9-0.4,1.5-1l1.9-2.5l0.7,3c0.2,0.4,0.3,0.6,0.4,0.8
		c0.4,0.4,0.8,0.7,1.4,0.8l-0.1,0l2.8,0.9L198.7,306.7z M200.9,301l-0.3,0.5l-1-0.4l-0.1-0.3c2-1.5,3.9-3.6,5.5-6.1
		c5.6,2.7,13.8,3.3,17.8,3.4l0,6.1C210.2,304.1,200.9,301,200.9,301z M453.7,280.8c0,2.2-0.1,4.4-0.5,6.3l-1.1-0.7
		c-0.9-0.5-1.6-0.6-2-0.1c-0.6,0.2-0.9,0.8-0.8,1.8l0.5,5.3l-4.1,3.4c-0.8,0.5-1,1.2-0.7,1.9c0.1,0.6,0.6,1,1.5,1.2l0.4,0.1
		c-6.1,6.8-13.4,10.2-22.2,10.3c-6,0.1-11.5-1.5-16.4-4.7c1.4-2,2.7-4.1,3.7-6.4c3.6,2.7,7.8,4,12.6,3.9c6.2-0.1,11.4-2.2,15.7-6.6
		c4.2-4.3,6.3-9.6,6.3-15.8l-0.2-19.4l1.9,1.7c0.7,0.7,1.3,0.8,1.8,0.4c0.7,0,1.1-0.5,1.2-1.5l0-0.1l0.5-5.1l1.7-1.1L453.7,280.8z
		 M453.2,230.9l0.2,18.9l-2.2-0.9l-1.1-5.2c-0.2-0.9-0.6-1.3-1.4-1.3c-0.2-0.2-0.4-0.3-0.5-0.3c-0.4,0-0.8,0.3-1.2,0.8l-0.8,1
		l-0.1-12.8L453.2,230.9z M445.6,249.1l0.1,0l1.9-2.3l0.7,3c0.2,0.9,0.6,1.5,1.4,1.7l2.7,1.2l-2.6,1.4c-0.7,0.5-1.1,1.1-1.2,1.9
		l0,0.1l-0.2,3l-2.2-2c-0.6-0.6-1.4-0.8-2.3-0.5l-3,0.7l1.3-2.7l0-0.1c0.4-0.7,0.3-1.5-0.2-2.3l-1.5-2.5l2.8,0.4
		C444.3,250,445,249.8,445.6,249.1z M424.5,292.8c3.3,0,6.1-1.2,8.4-3.4c2.3-2.3,3.4-5.1,3.4-8.4l-0.5-49.9l7.1-0.1l0.1,15.8
		l-4.9-0.5c-1-0.1-1.6,0.2-1.7,1c-0.4,0.5-0.4,1.1,0,1.9l2.7,4.4l-2.1,4.9l-0.1,0c-0.4,0.9-0.3,1.5,0.3,1.9c0.3,0.5,0.9,0.7,1.9,0.5
		l4-1l0.2,21c0,5.3-1.8,9.8-5.4,13.5c-3.7,3.7-8.1,5.6-13.4,5.7c-4.2,0-8-1.2-11.4-3.7c0.2-0.6,0.5-1.6,0.9-3l0.1,0.1
		c0.5,0.9,1,1.2,1.6,0.9c0.6,0.1,1.1-0.3,1.5-1.2l0.8-2.2C420.1,292.2,422.2,292.8,424.5,292.8z M415.4,279.4l2.4-1.6l-0.1,3
		c0,0.9,0.3,1.6,1,2l2.3,1.9l-2.8,0.7c-0.7,0.1-1.3,0.6-1.7,1.5l0,0.1l-1.1,2.8l-1.5-2.5c-0.4-0.4-0.7-0.8-1.2-0.9
		c-0.4-0.2-0.7-0.3-0.9-0.3c-0.4,0-1.3,0-3,0l1.7-2.3c0.6-0.6,0.8-1.4,0.5-2.3l-0.8-3l2.8,1.1C413.8,279.9,414.6,279.8,415.4,279.4z
		 M412.2,231.2l0.4,44.8l-3.7-1.3c-1-0.3-1.7-0.3-2.1,0.2c-0.4,0.5-0.5,1.2-0.3,2.2l1.5,5l-2.9,3.4c0.2-1.4,0.2-2.7,0.2-3.9
		l-0.3-29.3l0.4,0.1c0.9,0.4,1.5,0.4,1.9-0.2c0.6-0.2,0.8-0.8,0.7-1.8l-1-5.3l3.7-3.7c0.7-0.6,0.9-1.3,0.5-2c-0.2-0.6-0.7-1-1.5-1.1
		l-4.9-0.6l-0.1-6.5L412.2,231.2z M401.8,231.3l0,1.2c-0.3-0.5-0.7-0.8-1.2-0.7c-0.6-0.2-1.2,0.2-1.6,1.1l-2.2,4.9l-2,0.2l-0.1-6.6
		L401.8,231.3z M397.5,240.8c0.3-0.1,0.6-0.3,0.9-0.8c0.4-0.4,0.7-0.6,0.9-0.6l1.3-2.7l1.2,2.7l0.1,0c0.5,0.8,1.1,1.2,1.9,1.3
		l2.8,0.4l-2,2c-0.6,0.6-0.9,1.4-0.8,2.2l0,0.1l0.6,2.8l-2.7-1.3c-0.4-0.2-0.7-0.3-1.1-0.3c-0.5,0-0.9,0.1-1.2,0.3l-2.5,1.5l0.4-3
		c0.2-0.9-0.1-1.7-0.7-2.3l-2.2-2L397.5,240.8z M395.2,281.6l-0.3-28.9c0.4,0,0.8-0.1,1.2-0.3l4.7-2.6l1.2,0.7l0.3,31
		c0,5.1-1.1,9.9-3.5,14.2l-2.3-0.8l-1.4-5.2c-0.2-0.7-0.5-1.1-1-1.2C394.8,286.2,395.2,283.9,395.2,281.6z M393.5,295.9
		c0.2,0.8,0.7,1.4,1.5,1.7l0.1,0l2.8,1.1l-2.5,1.5l0,0.1c-0.5,0.3-0.9,0.6-1,1c-0.1,0.4-0.2,0.7-0.2,0.9l0,0.1l-0.1,3l-2.2-1.9
		l-0.1,0c-0.6-0.6-1.4-0.8-2.3-0.5l-2.8,0.8l1.1-2.8c0.4-0.6,0.3-1.4-0.2-2.2l0-0.1l-1.8-2.4l3,0.1c0.2,0,0.4,0,0.7,0
		c0.6-0.1,1.1-0.4,1.5-0.8l1.9-2.4L393.5,295.9z M360.8,231.7l0.5,49.9c0,3.2,1.2,6,3.5,8.3c2.4,2.2,5.2,3.3,8.4,3.3
		c3.3,0,6.1-1.2,8.4-3.4c2.3-2.3,3.4-5.1,3.4-8.4l-0.5-49.9l7.1-0.1l0.1,7.1l-0.1,0c-1,0.1-1.5,0.6-1.5,1.4
		c-0.3,0.5-0.1,1.1,0.6,1.7l1.1,1.1l0.4,38.8c0,4.3-1.3,8.2-3.9,11.6l-4.7-0.2c-1-0.1-1.5,0.2-1.6,0.8c-0.5,0.5-0.5,1.1,0,1.9l0.1,0
		l1.2,2c-3,1.8-6.3,2.8-10,2.8c-5.2,0-9.7-1.8-13.5-5.5c-3.8-3.7-5.7-8.2-5.7-13.4l-0.2-24.3c0.9-0.3,1.3-0.8,1.1-1.6
		c0.1-0.6-0.3-1.1-1.1-1.5l-0.2-22.5L360.8,231.7z M350.9,281.7c0.1,6.1,2.3,11.3,6.6,15.6c4.4,4.3,9.6,6.4,15.7,6.3
		c4.3,0,8.2-1.2,11.6-3.3L383,305c-0.4,0.9-0.3,1.6,0.2,2.1c0.5,0.5,1.1,0.6,2,0.3l3.5-1c-4.6,2.8-9.7,4.3-15.3,4.3
		c-5.6,0.1-10.6-1.2-15-3.9c0.2-0.2,0.3-0.5,0.4-0.9c0.2-0.6-0.1-1.2-0.8-1.7l-4.8-3.6l0.3-6.1c0.1-1.1-0.2-1.7-0.8-1.7
		c-0.5-0.5-1.1-0.5-2,0.2l-3.5,2.5c-2.2-4.1-3.3-8.6-3.4-13.6l-0.2-17.4l1.6,1.6c0.6,0.7,1.2,0.9,1.8,0.5c0.6,0,1-0.5,1.2-1.5
		l0.9-5.3l1.6-0.8L350.9,281.7z M348.6,307.6l0,0.1l-1.2,3.4l-2.1-3.1l0-0.1c-0.5-0.7-1.1-1.1-2-1.1l-3.8-0.1l2.3-2.9
		c0.6-0.7,0.8-1.5,0.5-2.4l-1-3.6l3.4,1.3l0,0.1c0.4,0.1,0.9,0.1,1.3,0.1c0.4-0.1,0.7-0.2,1.1-0.4l0.1,0l2.9-2.1l-0.2,3.6
		c0,0.9,0.4,1.6,1.1,2.1l2.9,2.4l-3.5,0.8C349.8,306.2,349.1,306.7,348.6,307.6z M350.5,231.8l0.2,20.9l-1.5-0.9l-0.7-5.1
		c-0.1-1-0.5-1.5-1.2-1.6c-0.5-0.4-1.2-0.2-1.9,0.6l-1.9,1.9l-0.1-15.6L350.5,231.8z M341.5,252.4c0.7,0.3,1.4,0.1,2-0.6l0.1,0
		l2.1-2.2l0.3,3l0.1,0.1c0.1,0.8,0.5,1.4,1.2,1.7l2.7,1.3l-2.7,1.4c-0.8,0.4-1.3,1-1.3,1.8l-0.1,0l-0.4,3l-2-2.1
		c-0.6-0.6-1.4-0.9-2.3-0.8l-2.8,0.6l1.3-2.6c0.4-0.7,0.5-1.5,0.1-2.4l-0.1,0l-1.2-2.7l2.8,0.5L341.5,252.4z M333.5,282.4
		c0-0.2,0-0.4,0-0.5l-0.5-49.9l7.1-0.1l0.2,17.3l-3.9-0.8l0,0.1c-1-0.3-1.6,0-1.9,0.7c-0.4,0.5-0.4,1.1,0,1.9l2.3,4.6l-2.5,4.7
		c-0.4,0.9-0.4,1.5,0.2,1.9c0.2,0.6,0.8,0.8,1.8,0.7l4.2-0.7l0.2,19.6c0,4.9,1.1,9.5,3.1,13.7l-3.7-1.4c-1-0.3-1.7-0.3-2.2,0.2
		c-0.4,0.5-0.5,1.2-0.3,2.1l1.7,5.6l-0.1,0.1C335.5,296.1,333.6,289.5,333.5,282.4z M342.6,311.4c0.8,0.8,1.8,1.7,2.9,2.8
		c-5.3,2.8-27.3,12.5-44.4-6.4l6.3,0C309.7,310.3,323,324.2,342.6,311.4z M315.3,304.5l-22,0.2l-0.1-0.9l5.2-4.8
		c0.1,0,0.3-0.1,0.5-0.4c0.3-0.3,0.4-0.6,0.3-1.1l16-0.1L315.3,304.5z M315.3,294.3l-24.7,0.2l-2.9-6.6c0-0.2-0.1-0.4-0.3-0.5
		l27.8-0.2L315.3,294.3z M264.9,277.3l50.2-0.4l0.1,7.1l-78.1,0.6l0.3-0.3l3.2-4.1l5.3,0.2c1.1,0,1.7-0.3,1.7-0.8
		c0.2-0.2,0.3-0.4,0.3-0.7c0-0.4-0.1-0.8-0.4-1.2l0-0.1l-0.3-0.3l0.3,0l0.1,0L264.9,277.3z M241.5,274.4c0.1,0.2,0.2,0.3,0.3,0.4
		l0,0.1l1.6,2.4l-3-0.1c-0.8-0.1-1.5,0.2-2,1l-1.9,2.3l-0.7-3l-0.1,0c-0.2-0.8-0.7-1.3-1.5-1.6l0-0.1l-2.8-0.9l2.6-1.6
		c0.7-0.5,1.1-1.1,1.1-1.9c0-0.4,0-1.4,0.1-3.1l2.3,1.9c0.6,0.6,1.4,0.8,2.3,0.5l2.8-0.8l-1.1,2.7
		C241.2,273.2,241.2,273.8,241.5,274.4z M285.5,249.1c-1,0.1-1.5,0.5-1.6,1.1c-0.4,0.5-0.2,1.2,0.4,1.9l1.4,1.3l-20.6,0.2
		c-3.2,0-6,1.2-8.3,3.6c-2.3,2.4-3.4,5.2-3.4,8.4c0,3.2,1.2,6,3.4,8.3c0.1,0,0.2,0,0.3,0.1c0.1,0.1,0.2,0.2,0.3,0.3l-9.2,0.1
		c-1-2-1.6-3.9-1.8-5.9c0.1-0.4,0.1-0.7,0.1-0.9c0-0.3-0.1-0.5-0.2-0.8c-0.1-0.3-0.2-0.6-0.2-1.1c0-5.3,1.8-9.8,5.4-13.5
		c3.7-3.7,8.1-5.6,13.4-5.6l27.1-0.2l-1.3,2.3L285.5,249.1z M298.5,254.4l-0.1,0c-0.5,0.6-0.8,1.3-0.7,2l0,0.1l0.3,3l-2.6-1.5
		c-0.6-0.4-1.4-0.5-2.2-0.1l-0.1,0l-2.7,1.2l0.7-2.8c0.2-0.9-0.1-1.7-0.7-2.3l-2-2.1l3-0.3c0.9-0.1,1.6-0.6,2-1.4l1.3-2.6l1.4,2.7
		c0.2,0.7,0.7,1.2,1.6,1.5l0.1,0l2.8,0.7L298.5,254.4z M314.9,253.2l-10.7,0.1l0.4-0.3c0.7-0.7,0.9-1.4,0.7-1.9c0-0.6-0.5-1-1.5-1.2
		l-5.1-1l-1.2-2.7l17.4-0.1L314.9,253.2z M314.7,225.5l0.1,7.1l-36.7,0.3l3.4-1.6c0.9-0.5,1.2-1,1.1-1.6c0.2-0.6-0.2-1.2-1.1-1.6
		l-4.6-2.3L314.7,225.5z M268.9,226.4c0.8,0.2,1.5,0,2.2-0.6c0.1,0,0.1,0,0.1-0.1l2-2.2l0.4,3c0.1,0.4,0.6,1,1.5,1.9l2.6,1.3
		l-2.6,1.4l-0.1,0c-0.7,0.4-1.2,1-1.3,1.9l0-0.1l-0.4,3l-2-2.1c-0.5-0.4-0.9-0.6-1.4-0.7l-0.8,0l-0.1,0l-2.8,0.6l1.3-2.7
		c0.2-0.4,0.3-0.7,0.3-1.1c0-0.4-0.1-0.8-0.3-1.2l-1.4-2.7L268.9,226.4z M269.2,236.1l3.8,3.7c0.6,0.7,1.3,0.8,1.9,0.4
		c0.6-0.1,1-0.6,1.1-1.5l0.4-2.7l38.4-0.3l0.1,7.1l-19,0.1c-0.3-0.2-0.6-0.2-0.9-0.1c-0.4-0.1-0.7,0-0.9,0.1l-29,0.2
		c-6.1,0-11.3,2.2-15.6,6.5c-4.3,4.3-6.4,9.6-6.4,15.8l0,0.8l-3.9,1.1l-3.3-2.5c0.1-7.4,2.7-13.8,7.7-19.3c5-5.5,11.2-8.6,18.5-9.3
		l0.1,0c0.2,0.7,0.8,1,1.8,0.8L269.2,236.1z M225,245.6l0.8-2.8l0.1,0c0.2-0.8,0-1.5-0.6-2.2c-0.1-0.3-0.7-1.1-1.8-2.4l2.8,0l0.1,0
		c0.8,0,1.4-0.4,1.9-1.2l1.7-2.4l1,2.8l0-0.1c0.1,0.5,0.4,1,0.8,1.3c0.2,0.1,0.4,0.2,0.8,0.4l3,0.7l-2.4,1.9c-0.5,0.5-0.8,1-0.9,1.5
		c0,0.2,0,0.4,0,0.7l0-0.1l0.2,3l-2.4-1.6c-0.6-0.4-1.4-0.6-2.2-0.4l-0.1,0L225,245.6z M229.5,248.2l3.5,2.4c0.8,0.5,1.5,0.6,2,0.1
		c0.5-0.3,0.8-0.8,0.8-1.6c0-0.6-0.1-2.4-0.3-5.3l4.2-3.3c0.8-0.6,1.1-1.2,0.8-1.8c0.1-0.7-0.4-1.2-1.4-1.5l-1.5-0.4
		c7-6.7,15.2-10.4,24.9-11l2.1,3.9l-1.7,3.4c-8.2,0.4-15.1,3.6-20.9,9.6c-5.8,6-8.8,13-9.1,21.1c-0.4,0.3-0.7,0.8-0.8,1.6l-0.1,5.3
		l-4.4,2.9c-0.2,0.1-0.4,0.3-0.5,0.4l0-0.5c-0.2,0-0.4,0-0.7,0.1c-0.5-2.6-0.7-5.2-0.8-7.9C225.6,259.3,226.9,253.5,229.5,248.2z
		 M225.7,277.6l4,0l3.1,1.1l1.3,5.1c0.1,0.4,0.2,0.8,0.4,0.9l-8.8,0.1L225.7,277.6z M225.8,287.8l58.8-0.5c0,0,0,0,0,0L281,294
		l-6.2,0.6l-49,0.4L225.8,287.8z M277.2,304.8l-51.2,0.4l-0.1-7.1l46.8-0.4l0,0.1l4.9,5.2L277.2,304.8z M283.9,306.1l0,0.1l-4.3,1.9
		l1-4.6c0.2-1-0.1-1.8-0.7-2.6l-0.1,0l-3.3-3.5l4.7-0.4c1-0.1,1.7-0.6,2.3-1.5l2.4-4.2l1.9,4.4c0.4,0.8,1,1.3,1.8,1.5
		c0.1,0.1,0.2,0.1,0.3,0.1l4.7,0.9l-3.8,3.3c-0.6,0.6-0.9,1.4-0.8,2.4l0-0.1l0.6,4.9l-4.2-2.5C285.7,305.7,284.8,305.7,283.9,306.1z
		 M294.1,311.4c0-0.2,0-0.4,0-0.6l-0.4-3l2.3,0l-0.2,0c0,0,20.9,26.2,53,8.6c1.2,0.8,2.4,1.6,3.6,2.3
		C345.4,322.5,319,334.5,294.1,311.4z M398,312.3c-7,5.7-15.2,8.6-24.6,8.7c-8.9,0.1-16.8-2.4-23.7-7.5l1.7-4.6l3.1-0.8
		c5.5,3.9,11.8,5.8,18.8,5.8c7.2-0.1,13.5-2.1,18.8-6.2l2.2,1.6c0.8,0.7,1.4,0.8,1.9,0.4c0.6-0.1,0.9-0.6,0.9-1.6l0.2-5l0.5-0.7
		l3.9-2.5c0.8-0.5,1.1-1.1,0.9-1.8c0.1-0.5-0.2-1-1-1.3c1.3-2.3,2.3-5.1,3-8.1c0.3,0.2,0.7,0.3,1.2,0.4l5.4,0.1l0.4,0.8
		c-1.4,6.8-3.7,11.8-6.9,15l0,0.1C404.5,305.6,402.2,308,398,312.3z M424.8,320.5c-8.7,0.1-16.5-2.3-23.3-7.2
		c1.6-1.5,3.3-3.2,4.9-5.3c5.3,3.6,11.4,5.4,18.3,5.4c10.4-0.1,18.9-4.3,25.5-12.6l1.2,0.4l1.8,4.8c0.3,0.6,0.6,1,1,1.2
		C446.3,316,436.5,320.4,424.8,320.5z M458.8,298.8c-0.6,0-1.3,0.4-2,1.2l-1.6,2.4l-1-2.7c-0.4-0.9-1-1.4-1.8-1.6l-3-0.6l2.4-1.9
		c0.6-0.5,0.9-1.2,0.9-2l0-0.1l-0.3-3l2.6,1.6l0,0.1c0.8,0.4,1.6,0.5,2.3,0.1l2.7-1.1l-0.8,2.8c-0.2,0.8,0,1.6,0.4,2.3l0.1,0
		l1.9,2.3L458.8,298.8z M463.5,287.8c0-0.1-0.1-0.2-0.3-0.3c-0.5-0.4-1.1-0.5-1.9-0.1l0.1,0l-5,1.9l-0.5-0.4
		c0.6-2.5,0.9-5.3,0.9-8.2l-0.3-26.8c0.6-0.4,0.8-0.9,0.7-1.6c0-0.4-0.2-0.8-0.7-1.1l-0.2-20.4l7.3-0.1l0.5,49.9
		C464.1,283,463.9,285.4,463.5,287.8z"/>
	<polygon class="st0" points="586.6,314.2 586.6,314.2 586.6,314.4 	"/>
	<path fill="#000000" d="M483.1,316.4l22.5,0.1l-0.4,3c-0.1,0.8,0.1,1.4,0.7,1.9c0.6,0.5,1.2,0.5,2,0l6-3.6l6.1,3l0.1,0c0.9,0.5,1.5,0.5,2,0.1
		c0.5-0.4,0.6-1.1,0.5-2.2l-0.5-2l50.5,0.3c0.3,0,0.7-0.1,1-0.4c0.1-0.1,0.1-0.2,0.2-0.3c8.5,2,12.7,1.3,12.7,1.3
		c6.1-0.1,11.8-1.3,16.9-3.6l-0.8,2c-0.1,0.4-0.1,0.7-0.1,0.9c0,0.4,0.2,0.8,0.6,0.9c0.2,0.5,0.8,0.7,1.8,0.4l5.1-1.6l4.2,3.2
		c0.8,0.6,1.4,0.7,1.9,0.4c0.6-0.1,0.9-0.6,0.9-1.6l0-0.1l0.1-5.3l4.3-2.9c0.3-0.2,0.4-0.4,0.6-0.5c6.6,1.5,13.9,1.9,17.6,2.1
		c0.1,0.1,0.1,0.2,0.2,0.3c0.3,0.3,0.7,0.4,1,0.4l52.2-0.4l-0.5,2c-0.2,1.1,0,1.8,0.5,2.2c0.5,0.4,1.2,0.4,2.1-0.1l0.1,0l6.3-3
		l6.2,3.6c0.8,0.4,1.5,0.4,2.1,0c0.6-0.5,0.8-1.1,0.7-1.9l-0.4-3l23.2-0.2c1.1,0,1.6-0.5,1.6-1.5l-0.2-30.9c0-0.4-0.2-0.7-0.5-1
		c-0.3-0.3-0.7-0.5-1.1-0.5l-51.5,0.4l-0.1,0c-2.2-0.1-4.2-0.9-5.8-2.5l-0.1,0c-1.7-1.7-2.6-3.8-2.6-6.2c0-2.4,0.8-4.5,2.5-6.2
		c1.7-1.7,3.8-2.6,6.2-2.6l22.8-0.2l-1,4.6c-0.2,1,0,1.7,0.5,2.1c0.5,0.4,1.2,0.4,2.1-0.1l4.7-2.2l4.6,2.7c0.4,0.2,0.7,0.3,1.1,0.3
		c0.4,0.1,0.7,0,1.1-0.3c0.4-0.3,0.6-0.9,0.5-1.8l0,0.1l-0.6-5.3l0-0.1l15.6-0.1c1.1,0,1.6-0.5,1.6-1.5l-0.2-30.9
		c0-0.4-0.2-0.7-0.5-1c-0.3-0.3-0.7-0.5-1.2-0.5l-40.1,0.3l-0.3-2.2c-0.2-1-0.6-1.5-1.2-1.6c-0.6-0.3-1.3,0-1.9,0.7l-3.1,3.1l-4,0
		l-1.8-0.3c-0.7-0.2-1.3-0.1-1.6,0.3c-4.9,0.3-10.1,1.7-15.3,4c-5.7,2.5-9.9,5.6-12.6,9.3l-0.3-0.1l-1.8-5c-0.3-0.9-0.8-1.3-1.6-1.2
		c-0.5-0.2-1.1,0.1-1.6,1l-2.8,4.3l-5.3,0.2l-0.1,0c-1,0-1.5,0.3-1.6,1c-0.4,0.5-0.2,1.1,0.4,1.9l3.3,4.2l-1.4,5.1
		c-0.3,1-0.1,1.6,0.4,1.8c0.2,0.4,0.5,0.5,0.9,0.5c0.3,0,0.6-0.1,0.9-0.1l2-0.8c-2.2,5.2-3.3,10.9-3.2,17c0,2.8,0.3,5.5,0.8,8.1
		c-4.5,0.1-8.5-0.5-11.2-1c0,0,0-0.1,0-0.1c0.4-0.4,0.4-0.9,0.2-1.6l-0.3-1.8l-0.1-4l3.1-3.1c0.7-0.6,0.9-1.3,0.6-1.9
		c-0.1-0.6-0.6-1-1.6-1.2l-2.2-0.2l-0.5-40.1c0-0.4-0.2-0.8-0.5-1.1c-0.3-0.3-0.7-0.5-1-0.5l-30.9,0.4c-1,0-1.5,0.6-1.5,1.6
		l0.2,15.6l-0.1,0l-5.3-0.5l0.1,0c-0.9-0.1-1.5,0.1-1.8,0.5c-0.3,0.4-0.4,0.8-0.3,1.2c0,0.4,0.1,0.7,0.3,1.1l2.8,4.5l-2.1,4.7
		c-0.4,0.9-0.5,1.6,0,2.1c0.4,0.5,1.1,0.6,2.1,0.4l4.6-1.1l0.3,22.8c0,2.4-0.8,4.5-2.5,6.2c-1.6,1.6-12.9,3.3-16.1,3.5l0,0
		c-0.4,0-1,0.1-2.2-0.8c-0.1-0.2-0.3-0.3-0.5-0.5c0.5-2.9,0.8-5.8,0.8-8.9c0-6.1-1-11.8-3.2-17l2,0.8c0.3,0.1,0.7,0.1,0.9,0.1
		c0.4,0,0.7-0.2,0.9-0.5c0.5-0.2,0.7-0.8,0.4-1.7l-1.4-5.1l3.2-4.2c0.6-0.8,0.7-1.4,0.4-1.9c-0.1-0.6-0.6-0.9-1.6-1l-0.1,0l-5.1-0.2
		l-2.7-4.3c-0.5-0.8-1-1.1-1.6-1c-0.8-0.1-1.3,0.3-1.6,1.2l-1.7,5l-0.3,0.1c-2.6-3.7-6.7-6.8-12.2-9.2c-5.1-2.4-10.1-3.7-14.9-4
		c-0.3-0.4-0.9-0.5-1.6-0.3l-1.7,0.3l-3.9,0l-3-3.1c-0.6-0.7-1.2-0.9-1.8-0.7c-0.6,0.1-1,0.6-1.2,1.6l-0.3,2.2l-38.8-0.2
		c-0.4,0-0.8,0.2-1.1,0.5c-0.3,0.3-0.5,0.6-0.5,1l-0.2,30.9c0,1,0.5,1.5,1.6,1.5l15.1,0.1l0,0.1l-0.5,5.3l0-0.1
		c-0.1,0.9,0.1,1.5,0.4,1.8c0.4,0.3,0.8,0.4,1.1,0.3c0.3,0,0.7-0.1,1-0.3l4.5-2.7l4.6,2.2c0.9,0.5,1.5,0.5,2,0.1
		c0.5-0.4,0.6-1.1,0.5-2.1l-1-4.6l22.1,0.1c2.4,0,4.3,0.9,6,2.6c1.6,1.7,2.5,3.8,2.4,6.2c0,2.4-0.9,4.5-2.5,6.2l-0.1,0
		c-1.6,1.6-3.5,2.5-5.6,2.5l-0.1,0l-49.9-0.3c-0.4,0-0.8,0.2-1.1,0.5c-0.3,0.3-0.5,0.6-0.5,1l-0.2,30.9
		C481.5,315.9,482.1,316.4,483.1,316.4z M642.3,281.7l4,0l3.1,1.1l1.3,5.1c0.1,0.4,0.2,0.8,0.4,0.9l-8.8,0.1L642.3,281.7z
		 M658,278.5c0.1,0.2,0.2,0.3,0.3,0.4l0,0.1l1.6,2.4l-3-0.1c-0.8-0.1-1.5,0.2-2,1l-1.9,2.3l-0.7-3l-0.1,0c-0.2-0.8-0.7-1.3-1.5-1.6
		l0-0.1l-2.8-0.9l2.6-1.6c0.7-0.5,1.1-1.1,1.1-1.9c0-0.4,0-1.4,0.1-3.1l2.3,1.9c0.6,0.6,1.4,0.8,2.3,0.5l2.8-0.8l-1.1,2.7
		C657.7,277.4,657.7,278,658,278.5z M642.3,292l58.8-0.5c0,0,0,0,0,0l-3.6,6.6l-6.2,0.6l-49,0.4L642.3,292z M693.7,309l-51.2,0.4
		l-0.1-7.1l46.8-0.4l0,0.1l4.9,5.2L693.7,309z M707.5,305.8c-0.6,0.6-0.9,1.4-0.8,2.4l0-0.1l0.6,4.9l-4.2-2.5
		c-0.8-0.5-1.7-0.6-2.6-0.1l0,0.1l-4.3,1.9l1-4.6c0.2-1-0.1-1.8-0.7-2.6l-0.1,0l-3.3-3.5l4.7-0.4c1-0.1,1.7-0.6,2.3-1.5l2.4-4.2
		l1.9,4.4c0.4,0.8,1,1.3,1.8,1.5c0.1,0.1,0.2,0.1,0.3,0.1l4.7,0.9L707.5,305.8z M731.9,308.7l-22,0.2l-0.1-0.9l5.2-4.8
		c0.1,0,0.3-0.1,0.5-0.4c0.3-0.3,0.4-0.6,0.3-1.1l16-0.1L731.9,308.7z M731.8,298.4l-24.7,0.2l-2.9-6.6c0-0.2-0.1-0.4-0.3-0.5
		l27.8-0.2L731.8,298.4z M681.5,281.4l50.2-0.4l0.1,7.1l-78.1,0.6l0.3-0.3l3.2-4.1l5.3,0.2c1.1,0,1.7-0.3,1.7-0.8
		c0.2-0.2,0.3-0.4,0.3-0.7c0-0.4-0.1-0.8-0.4-1.2l0-0.1l-0.3-0.3l0.3,0l0.1,0L681.5,281.4z M702.1,253.2c-1,0.1-1.5,0.5-1.6,1.1
		c-0.4,0.5-0.2,1.2,0.4,1.9l1.4,1.3l-20.6,0.2c-3.2,0-6,1.2-8.3,3.6c-2.3,2.4-3.4,5.2-3.4,8.4c0,3.2,1.2,6,3.4,8.3
		c0.1,0,0.2,0,0.3,0.1c0.1,0.1,0.2,0.2,0.3,0.3l-9.2,0.1c-1-2-1.6-3.9-1.8-5.9c0.1-0.4,0.1-0.7,0.1-0.9c0-0.3-0.1-0.5-0.2-0.8
		c-0.1-0.3-0.2-0.6-0.2-1.1c0-5.3,1.8-9.8,5.4-13.5c3.7-3.7,8.1-5.6,13.4-5.6l27.1-0.2l-1.3,2.3L702.1,253.2z M715,258.5l-0.1,0
		c-0.5,0.6-0.8,1.3-0.7,2l0,0.1l0.3,3l-2.6-1.5c-0.6-0.4-1.4-0.5-2.2-0.1l-0.1,0l-2.7,1.2l0.7-2.8c0.2-0.9-0.1-1.7-0.7-2.3l-2-2.1
		l3-0.3c0.9-0.1,1.6-0.6,2-1.4l1.3-2.6l1.4,2.7c0.2,0.7,0.7,1.2,1.6,1.5l0.1,0l2.8,0.7L715,258.5z M731.5,257.3l-10.7,0.1l0.4-0.3
		c0.7-0.7,0.9-1.4,0.7-1.9c0-0.6-0.5-1-1.5-1.2l-5.1-1l-1.2-2.7l17.4-0.1L731.5,257.3z M731.3,229.7l0.1,7.1l-36.7,0.3l3.4-1.6
		c0.9-0.5,1.2-1,1.1-1.6c0.2-0.6-0.2-1.2-1.1-1.6l-4.6-2.3L731.3,229.7z M685.4,230.6c0.8,0.2,1.5,0,2.2-0.6c0.1,0,0.1,0,0.1-0.1
		l2-2.2l0.4,3c0.1,0.4,0.6,1,1.5,1.9l2.6,1.3l-2.6,1.4l-0.1,0c-0.7,0.4-1.2,1-1.3,1.9l0-0.1l-0.4,3l-2-2.1c-0.5-0.4-0.9-0.6-1.4-0.7
		l-0.8,0l-0.1,0l-2.8,0.6l1.3-2.7c0.2-0.4,0.3-0.7,0.3-1.1c0-0.4-0.1-0.8-0.3-1.2l-1.4-2.7L685.4,230.6z M685.8,240.3l3.8,3.7
		c0.6,0.7,1.3,0.8,1.9,0.4c0.6-0.1,1-0.6,1.1-1.5l0.4-2.7l38.4-0.3l0.1,7.1l-19,0.1c-0.3-0.2-0.6-0.2-0.9-0.1
		c-0.4-0.1-0.7,0-0.9,0.1l-29,0.2c-6.1,0-11.3,2.2-15.6,6.5c-4.3,4.3-6.4,9.6-6.4,15.8l0,0.8l-3.9,1.1l-3.3-2.5
		c0.1-7.4,2.7-13.8,7.7-19.3c5-5.5,11.2-8.6,18.5-9.3l0.1,0c0.2,0.7,0.8,1,1.8,0.8L685.8,240.3z M641.6,249.8l0.8-2.8l0.1,0
		c0.2-0.8,0-1.5-0.6-2.2c-0.1-0.3-0.7-1.1-1.8-2.4l2.8,0l0.1,0c0.8,0,1.4-0.4,1.9-1.2l1.7-2.4l1,2.8l0-0.1c0.1,0.5,0.4,1,0.8,1.3
		c0.2,0.1,0.4,0.2,0.8,0.4l3,0.7l-2.4,1.9c-0.5,0.5-0.8,1-0.9,1.5c0,0.2,0,0.4,0,0.7l0-0.1l0.2,3l-2.4-1.6c-0.6-0.4-1.4-0.6-2.2-0.4
		l-0.1,0L641.6,249.8z M646.1,252.3l3.5,2.4c0.8,0.5,1.5,0.6,2,0.1c0.5-0.3,0.8-0.8,0.8-1.6c0-0.6-0.1-2.4-0.3-5.3l4.2-3.3
		c0.8-0.6,1.1-1.2,0.8-1.8c0.1-0.7-0.4-1.2-1.4-1.5l-1.5-0.4c7-6.7,15.2-10.4,24.9-11l2.1,3.9l-1.7,3.4c-8.2,0.4-15.1,3.6-20.9,9.6
		c-5.8,6-8.8,13-9.1,21.1c-0.4,0.3-0.7,0.8-0.8,1.6l-0.1,5.3l-4.4,2.9c-0.2,0.1-0.4,0.3-0.5,0.4l0-0.5c-0.2,0-0.4,0-0.7,0.1
		c-0.5-2.6-0.7-5.2-0.8-7.9C642.1,263.5,643.4,257.6,646.1,252.3z M615.2,310.9c-0.8,0.5-1.2,1.1-1.2,1.9l0,0.1l0,2.8
		c-1.4-1.1-2.2-1.6-2.5-1.7c-0.6-0.5-1.4-0.7-2.2-0.5l0,0.1l-2.8,0.8l1-2.8l0-0.1c0.2-0.8,0-1.5-0.4-2.2l-1.7-2.4l3,0.1
		c0.2,0,0.4,0,0.5,0c0.5-0.1,0.9-0.4,1.5-1l1.9-2.5l0.7,3c0.2,0.4,0.3,0.6,0.4,0.8c0.4,0.4,0.8,0.7,1.4,0.8l-0.1,0l2.8,0.9
		L615.2,310.9z M639.4,308.5c-12.6-0.2-21.9-3.3-21.9-3.3l-0.3,0.5l-1-0.4l-0.1-0.3c2-1.5,3.9-3.6,5.5-6.1
		c5.6,2.7,13.8,3.3,17.8,3.4L639.4,308.5z M639.3,299.1c-8-0.1-14.2-2-16.2-2.7c0.7-1.3,1.3-2.6,1.9-4.1c0.2-0.5,0.4-0.9,0.5-1.4
		c4.5,1.4,10.2,1.5,13.7,1.3L639.3,299.1z M628.4,280.1c3.6,0.8,7.7,1,10.8,0.9l0.1,8.1c-5.2,0.2-10-0.6-12.6-1.2
		C627.4,285.3,628,282.7,628.4,280.1z M624.8,224.4l0.5,37.9l-2.4-4.6c-0.5-0.9-1-1.2-1.6-1.1c-0.6-0.2-1.2,0.2-1.6,1.1l-1.6,3.4
		l-0.5-36.7L624.8,224.4z M618.4,265.7l-0.1,0c0.9-0.2,1.5-0.6,1.9-1.4l0-0.1l1.3-2.6l1.4,2.5c0.9,0.9,1.5,1.4,1.9,1.5l3,0.4
		l-2.1,2.1c-0.1,0-0.1,0-0.1,0.1c-0.5,0.6-0.7,1.4-0.5,2.2l0.6,2.8l-2.7-1.3c-0.5-0.2-0.9-0.3-1.2-0.3c-0.4,0-0.7,0.1-1.1,0.3
		l-2.7,1.4l0.5-2.8l0-0.1l0-0.8c-0.1-0.4-0.3-0.9-0.7-1.3l-2.2-2L618.4,265.7z M604.3,224.7l0.2,17.4l-2.7-1.2l-1.1-5.1
		c-0.2-1-0.6-1.5-1.2-1.5c-0.5-0.3-1.2,0-1.9,0.7l-0.3,0.4l-0.1-10.7L604.3,224.7z M594.6,248.7l-2.8,0.7l1.2-2.7l0-0.1
		c0.3-0.8,0.3-1.5-0.2-2.2l-1.5-2.5l3,0.2l0.1,0c0.7,0.1,1.4-0.2,2-0.7l0-0.1l1.9-2.2l0.7,2.8l0,0.1c0.3,0.9,0.8,1.4,1.5,1.6
		l2.7,1.3l-2.5,1.4c-0.8,0.5-1.2,1.1-1.3,2l-0.2,3l-2.2-2C596.2,248.7,595.5,248.5,594.6,248.7z M574.3,286.9
		c0.4,0.1,1.4,0.5,1.4,0.5l2.8,0.3l10.4-1.5c2.5-0.4,3.7-1.2,5.6-3.1c2.3-2.3,3.4-5.1,3.4-8.3l-0.3-20.6l1.4,1.3
		c0.7,0.6,1.4,0.7,1.9,0.4c0.6-0.1,1-0.6,1.1-1.6l0.5-5.3l2.3-1.4l0.4,27.1c0.1,5.3-1.2,10.4-5.3,13.6c-12.2,9.3-25.4,5.3-25.4,5.3
		L574.3,286.9z M574.2,296.7c0,0,14.1,4.3,27.7-6.4c4.8-3.8,6.3-9.6,6.2-15.7l-0.4-29c0.2-0.3,0.2-0.6,0.1-0.9
		c0.1-0.4,0-0.7-0.1-0.9l-0.3-19l7.1-0.1l0.5,38.4l-2.7,0.4c-0.9,0.1-1.4,0.5-1.5,1.1c-0.4,0.6-0.3,1.3,0.4,1.9l3.8,3.7l-0.9,5.3
		c-0.2,1,0.1,1.6,0.8,1.7l0,0.1c-0.5,7.4-2.9,14.3-8.9,18.7c-17.5,12.9-32.1,7.6-32.1,7.6L574.2,296.7z M574.2,306.9
		c23.7,2.8,34.9-9.3,34.9-9.3c5.9-5.9,8.9-12.9,9.2-21.1l3.3-1.8l3.8,1.9l-0.9,2.3c0.3,0.1,0.6,0.2,0.9,0.4
		c-0.9,8.6-4.3,16.1-10.2,22.5l-0.4-1.5c-0.3-1-0.8-1.4-1.5-1.3c-0.5-0.3-1.1,0-1.7,0.8l-3.2,4.2c-2.9-0.1-4.6-0.2-5.3-0.2
		c-0.8,0-1.3,0.3-1.6,0.8c-0.4,0.5-0.4,1.2,0.2,2l2.5,3.5c-5.3,2.8-11.1,4.2-17.5,4.3c-7.7,0-8.9,0-12.4-1.3L574.2,306.9z
		 M518.9,309.7l-0.1,0c-0.6,0.7-0.8,1.6-0.7,2.6l1,4.6l-4.2-1.9v-0.1c-0.9-0.5-1.7-0.4-2.5,0.1l-4.1,2.5l0.5-4.8
		c0.1-0.9-0.2-1.7-0.8-2.3l-3.6-3.3l4.6-0.9c0.1,0,0.2,0,0.3-0.1c0.8-0.2,1.4-0.7,1.7-1.5l1.9-4.4l2.3,4.2c0.5,0.9,1.3,1.4,2.2,1.5
		l4.6,0.4L518.9,309.7z M571.2,313.8l-49.6-0.3l-0.4-1.8l4.7-5.2l0-0.1l45.3,0.2L571.2,313.8z M571.2,303.5l-47.4-0.3l-6-0.6
		l-3.2-6.1c-0.1-0.2-0.2-0.4-0.3-0.5l56.9,0.3L571.2,303.5z M556,281.1l-1-2.7l2.7,0.8c0.9,0.3,1.6,0.1,2.2-0.5l2.2-1.9
		c0.1,1.7,0.1,2.7,0.1,3.1c0,0.8,0.3,1.4,1,1.9l2.5,1.6l-2.7,0.9l0,0.1c-0.8,0.3-1.3,0.8-1.4,1.6l-0.1,0l-0.7,3l-1.8-2.3
		c-0.5-0.7-1.2-1-2-1l-2.9,0.1l1.6-2.4v-0.1c0.1-0.1,0.2-0.2,0.3-0.4C556.3,282.4,556.3,281.8,556,281.1z M571.3,293.3l-8.5,0
		c0.2-0.2,0.3-0.5,0.4-0.9l1.2-5.1l3-1.1l3.5,0c0.1,0,0.2,0.1,0.4,0.1L571.3,293.3z M564.3,247.6c0.3-0.2,0.6-0.3,0.8-0.4
		c0.4-0.4,0.7-0.8,0.8-1.3l0,0.1l0.9-2.8l1.7,2.4c0.4,0.8,1,1.2,1.8,1.2h0.1l2.7,0c-1.1,1.3-1.6,2.1-1.7,2.4
		c-0.5,0.6-0.7,1.3-0.5,2.2h0.1l0.8,2.8l-2.7-1.1l-0.1,0c-0.8-0.2-1.5-0.1-2.1,0.4l-2.4,1.6l0.1-3c0-0.2,0-0.4,0-0.5
		c-0.1-0.5-0.4-0.9-0.9-1.5l-2.3-1.9L564.3,247.6z M535.5,234.6c9.3,0.6,17.3,4.2,24.1,10.9l-1.4,0.4c-1,0.3-1.4,0.8-1.3,1.5
		c-0.3,0.5,0,1.1,0.8,1.8l4,3.3c-0.2,2.9-0.3,4.6-0.3,5.3c0,0.8,0.3,1.3,0.8,1.6c0.5,0.5,1.2,0.4,2-0.1l3.4-2.4
		c2.6,5.3,3.9,11.2,3.8,17.5c0,3-0.3,5.9-0.8,8.8l-0.1,0c-0.2-0.3-0.5-0.5-0.9-0.8l-4.3-2.9l-0.1-5.3c-0.1-0.8-0.3-1.3-0.8-1.6
		c-0.3-8.1-3.2-15.1-8.8-21.1c-5.6-6-12.3-9.1-20.3-9.5l-1.7-3.4L535.5,234.6z M523.4,237.1c0.9-0.9,1.4-1.5,1.4-1.9l0.4-3l1.9,2.2
		c0,0.1,0,0.1,0.1,0.1c0.6,0.5,1.3,0.7,2.1,0.5l2.7-0.5l-1.3,2.7c-0.2,0.4-0.3,0.9-0.3,1.2c0,0.4,0.1,0.7,0.3,1.1l1.3,2.7l-2.7-0.6
		l-0.1,0l-0.8,0c-0.4,0.1-0.9,0.3-1.3,0.7l-2,2.1l-0.4-3l0,0.1c-0.2-0.9-0.6-1.5-1.3-1.9l-0.1,0l-2.5-1.4L523.4,237.1z M485,234.4
		l36.7,0.2l-4.5,2.3c-0.9,0.4-1.2,1-1.1,1.6c-0.2,0.6,0.2,1.2,1,1.6l3.3,1.6l-35.5-0.2L485,234.4z M484.9,244.6l37.2,0.2l0.4,2.7
		c0.1,0.9,0.4,1.4,1,1.5c0.6,0.5,1.2,0.3,1.8-0.4l3.7-3.8l5.1,1c1,0.2,1.5-0.1,1.7-0.8l0.1,0c7.1,0.7,13.1,3.8,18,9.3
		c4.8,5.5,7.3,11.9,7.5,19.3l-3.1,2.5l-3.8-1.1l0-0.8c0-6.2-2-11.4-6.2-15.7c-4.2-4.3-9.2-6.4-15.1-6.5l-28.1-0.1
		c-0.3-0.2-0.6-0.2-0.9-0.1c-0.3-0.1-0.7,0-0.9,0.1l-18.4-0.1L484.9,244.6z M495.6,258.7c-1,0.2-1.4,0.6-1.4,1.2
		c-0.3,0.5,0,1.2,0.6,1.9l0.4,0.3l-10.3-0.1l0-7.1l16.8,0.1l-1.2,2.7L495.6,258.7z M508.6,262.8c-0.6,0.6-0.8,1.4-0.7,2.3l0.6,2.8
		l-2.6-1.2h-0.1c-0.8-0.4-1.5-0.3-2.1,0.1l-2.5,1.5l0.3-3l0-0.1c0.1-0.7-0.1-1.4-0.6-2l-0.1,0l-2.1-1.9l2.7-0.7l0.1,0
		c0.9-0.3,1.4-0.8,1.6-1.5l1.3-2.7l1.3,2.6c0.4,0.8,1.1,1.3,2,1.4l2.9,0.3L508.6,262.8z M540.9,282.6c0.1-0.1,0.2-0.1,0.3-0.1
		c2.2-2.3,3.3-5.1,3.3-8.3c0-3.2-1.1-6-3.3-8.4c-2.2-2.3-4.9-3.5-8-3.5l-20-0.1l1.3-1.3c0.6-0.7,0.7-1.3,0.4-1.9
		c-0.1-0.6-0.6-1-1.6-1.1l-5.1-0.6L507,255l26.2,0.1c5.1,0,9.5,1.9,13,5.6c3.6,3.7,5.3,8.2,5.3,13.5c0,0.4-0.1,0.8-0.2,1.1
		c-0.1,0.3-0.2,0.5-0.2,0.8c0,0.3,0,0.6,0.1,0.9c-0.2,2-0.8,3.9-1.7,5.9l-8.9,0C540.7,282.8,540.8,282.7,540.9,282.6z M484.7,285.7
		l48.6,0.3l16.8,0.1l0.1,0l0.3,0l-0.3,0.3v0.1c-0.3,0.4-0.4,0.9-0.4,1.2c0,0.3,0.1,0.5,0.3,0.7c0.1,0.5,0.6,0.8,1.7,0.8l5.1-0.2
		l3.1,4.1l0.3,0.3l-75.6-0.4L484.7,285.7z M484.7,295.9l26.9,0.1c-0.2,0.2-0.3,0.4-0.3,0.5l-2.8,6.6l-23.9-0.1L484.7,295.9z
		 M484.6,306.2l15.5,0.1c-0.1,0.4,0,0.8,0.3,1.1c0.3,0.3,0.4,0.4,0.5,0.4l5.1,4.7l-0.1,0.9l-21.3-0.1L484.6,306.2z"/>
	<polygon class="st0" points="170,310.2 170,310 170,310 	"/>
	<path fill="#000000" id="XMLID_102_" class="st1" d="M535.4,341.3c-0.8-3.9-1.6-7.8-2.4-12c-14,3.5-27.8,7-41.8,10.6c0.7,3.3,1.3,6.4,1.9,9.5
		C497.6,349.3,533.1,342.5,535.4,341.3z"/>
	<path fill="#000000" id="XMLID_101_" class="st1" d="M139.1,334.9c-0.8-3.9-1.6-7.8-2.4-12c-14,3.5-27.8,7-41.8,10.6c0.7,3.3,1.3,6.4,1.9,9.5
		C101.2,342.9,136.8,336.1,139.1,334.9z"/>
	<g>
		<path fill="#000000" d="M611.5,365.1c-11.6,0-20.9-9.2-20.9-20.6c0-11.4,9.4-20.6,20.9-20.6c11.6,0,20.9,9.2,20.9,20.6
			C632.4,355.9,623,365.1,611.5,365.1z M611.5,326c-10.4,0-18.9,8.3-18.9,18.5s8.5,18.5,18.9,18.5s18.9-8.3,18.9-18.5
			S621.9,326,611.5,326z"/>
		<path fill="#000000" d="M611.5,359c-8.1,0-14.8-6.5-14.8-14.5c0-8,6.6-14.5,14.8-14.5c8.2,0,14.8,6.5,14.8,14.5C626.3,352.5,619.6,359,611.5,359z
			 M611.5,332c-7,0-12.7,5.6-12.7,12.5s5.7,12.5,12.7,12.5c7,0,12.7-5.6,12.7-12.5S618.5,332,611.5,332z"/>
		<path fill="#000000" d="M611.5,352.3c-4.4,0-8-3.5-8-7.8s3.6-7.8,8-7.8c4.4,0,8,3.5,8,7.8S615.9,352.3,611.5,352.3z M611.5,337.7
			c-3.8,0-6.9,3-6.9,6.8s3.1,6.8,6.9,6.8s6.9-3,6.9-6.8S615.3,337.7,611.5,337.7z"/>
		<ellipse cx="612.7" cy="344.7" rx="5.5" ry="5.4"/>
		<path fill="#000000" d="M567.7,365.1c-11.5,0-20.9-9.2-20.9-20.6c0-11.4,9.4-20.6,20.9-20.6c11.6,0,20.9,9.2,20.9,20.6
			C588.6,355.9,579.2,365.1,567.7,365.1z M567.7,326c-10.4,0-18.9,8.3-18.9,18.5s8.5,18.5,18.9,18.5c10.4,0,18.9-8.3,18.9-18.5
			S578.1,326,567.7,326z"/>
		<path fill="#000000" d="M567.7,359c-8.1,0-14.8-6.5-14.8-14.5c0-8,6.6-14.5,14.8-14.5c8.2,0,14.8,6.5,14.8,14.5C582.5,352.5,575.8,359,567.7,359z
			 M567.7,332c-7,0-12.7,5.6-12.7,12.5s5.7,12.5,12.7,12.5c7,0,12.7-5.6,12.7-12.5S574.7,332,567.7,332z"/>
		<path fill="#000000" d="M567.7,352.3c-4.4,0-8-3.5-8-7.8s3.6-7.8,8-7.8c4.4,0,8,3.5,8,7.8S572.1,352.3,567.7,352.3z M567.7,337.7
			c-3.8,0-6.9,3-6.9,6.8s3.1,6.8,6.9,6.8c3.8,0,6.9-3,6.9-6.8S571.5,337.7,567.7,337.7z"/>
		<ellipse cx="568.9" cy="344.7" rx="5.5" ry="5.4"/>
	</g>
	<path fill="#000000" d="M211,357.8C210.9,357.8,210.9,357.8,211,357.8c-5.6,0-10.9-2.2-14.8-6.1c-4-3.9-6.1-9.1-6.1-14.6l0,0
		c0-11.3,9.4-20.6,20.9-20.6c0,0,0,0,0,0c11.6,0,20.9,9.3,20.9,20.7c0,5.5-2.2,10.7-6.2,14.6C221.8,355.7,216.5,357.8,211,357.8z
		 M192.1,337.2c0,4.9,1.9,9.6,5.5,13.1c3.6,3.5,8.3,5.5,13.3,5.5c0,0,0,0,0,0c5,0,9.8-1.9,13.3-5.4c3.6-3.5,5.5-8.1,5.5-13.1
		c0-10.2-8.4-18.5-18.8-18.6c0,0,0,0,0,0C200.6,318.7,192.1,327,192.1,337.2L192.1,337.2z"/>
	<path fill="#000000" d="M210.7,351.8C210.7,351.8,210.7,351.8,210.7,351.8c-3.9,0-7.5-1.5-10.3-4.2c-2.7-2.7-4.2-6.3-4.2-10.1
		c0-7.9,6.5-14.3,14.5-14.3c0,0,0,0,0,0c3.9,0,7.5,1.5,10.3,4.2c2.7,2.7,4.2,6.3,4.2,10.1C225.2,345.4,218.7,351.8,210.7,351.8z
		 M210.7,325.3c-6.8,0-12.4,5.5-12.4,12.2c0,3.3,1.3,6.3,3.6,8.6c2.3,2.3,5.5,3.6,8.8,3.6c0,0,0,0,0,0c6.8,0,12.4-5.5,12.4-12.2
		c0-3.3-1.3-6.3-3.6-8.6C217.2,326.6,214,325.3,210.7,325.3C210.7,325.3,210.7,325.3,210.7,325.3z"/>
	<path fill="#000000" d="M211,345.1C210.9,345.1,210.9,345.1,211,345.1c-4.4,0-8-3.5-8-7.9l0,0c0-4.3,3.6-7.8,8-7.8c0,0,0,0,0,0
		c2.1,0,4.1,0.8,5.6,2.3c1.5,1.5,2.3,3.5,2.3,5.5C218.9,341.6,215.3,345.1,211,345.1z M204,337.2c0,3.7,3.1,6.8,6.9,6.8c0,0,0,0,0,0
		c3.8,0,6.9-3,6.9-6.8c0-1.8-0.7-3.5-2-4.8c-1.3-1.3-3-2-4.9-2c0,0,0,0,0,0C207.1,330.4,204,333.5,204,337.2L204,337.2z"/>
	<ellipse transform="matrix(2.172383e-03 -1 1 2.172383e-03 -127.7906 546.038)" cx="209.7" cy="337.1" rx="5.4" ry="5.5"/>
	<path fill="#000000" d="M167.4,357.6C167.4,357.6,167.4,357.6,167.4,357.6c-5.6,0-10.9-2.2-14.8-6.1c-4-3.9-6.1-9.1-6.1-14.6
		c0-11.3,9.4-20.6,20.9-20.6c0,0,0,0,0,0c11.6,0,20.9,9.3,20.9,20.7c0,5.5-2.2,10.7-6.2,14.6C178.2,355.4,173,357.6,167.4,357.6z
		 M167.4,318.4c-10.4,0-18.8,8.3-18.9,18.5c0,4.9,1.9,9.6,5.5,13.1c3.6,3.5,8.3,5.5,13.3,5.5c0,0,0,0,0,0c5,0,9.8-1.9,13.3-5.4
		c3.6-3.5,5.5-8.1,5.5-13.1C186.3,326.8,177.8,318.5,167.4,318.4C167.4,318.4,167.4,318.4,167.4,318.4z"/>
	<path fill="#000000" d="M167.1,351.5C167.1,351.5,167.1,351.5,167.1,351.5c-3.9,0-7.5-1.5-10.3-4.2c-2.7-2.7-4.2-6.3-4.2-10.1
		c0-7.9,6.5-14.3,14.5-14.3c0,0,0,0,0,0c3.9,0,7.5,1.5,10.3,4.2c2.7,2.7,4.2,6.3,4.2,10.1C181.6,345.1,175.1,351.5,167.1,351.5z
		 M167.1,325c-6.8,0-12.4,5.5-12.4,12.2c0,3.3,1.3,6.3,3.6,8.6c2.3,2.3,5.5,3.6,8.8,3.6c0,0,0,0,0,0c6.8,0,12.4-5.5,12.4-12.2
		c0-3.3-1.3-6.3-3.6-8.6C173.6,326.3,170.5,325,167.1,325C167.1,325,167.1,325,167.1,325z"/>
	<path fill="#000000" d="M167.4,344.8C167.4,344.8,167.4,344.8,167.4,344.8c-2.1,0-4.1-0.8-5.6-2.3c-1.5-1.5-2.3-3.5-2.3-5.5l0.5,0l-0.5,0
		c0-2.1,0.8-4.1,2.3-5.5c1.5-1.5,3.5-2.3,5.6-2.3c2.1,0,4.1,0.8,5.6,2.3c1.5,1.5,2.3,3.5,2.3,5.5c0,2.1-0.8,4.1-2.3,5.5
		C171.5,344,169.5,344.8,167.4,344.8z M167.4,330.2c-1.8,0-3.6,0.7-4.9,2c-1.3,1.3-2,3-2,4.8c0,1.8,0.7,3.5,2,4.8c1.3,1.3,3,2,4.9,2
		c0,0,0,0,0,0c1.8,0,3.6-0.7,4.9-2c1.3-1.3,2-3,2-4.8c0-1.8-0.7-3.5-2-4.8C171,330.9,169.3,330.2,167.4,330.2
		C167.4,330.2,167.4,330.2,167.4,330.2z"/>
	<ellipse transform="matrix(2.172383e-03 -1 1 2.172383e-03 -170.9935 502.2095)" cx="166.2" cy="336.8" rx="5.4" ry="5.5"/>
	<g>
		<path fill="#000000" d="M295.8,145.3c-0.5,0-1,0-1.4-0.1c-8.7-0.8-15.2-8.5-14.4-17.3s8.5-15.2,17.3-14.4c4.2,0.4,8.1,2.4,10.8,5.6
			c2.7,3.3,4,7.4,3.6,11.6c-0.4,4.2-2.4,8.1-5.6,10.8C303.1,144,299.6,145.3,295.8,145.3z M295.8,115.5c-7.1,0-13.1,5.4-13.8,12.6
			c-0.7,7.6,4.9,14.3,12.5,15c3.7,0.3,7.3-0.8,10.1-3.2c2.8-2.4,4.6-5.7,4.9-9.4l0,0c0.7-7.6-4.9-14.3-12.5-15
			C296.6,115.6,296.2,115.5,295.8,115.5z"/>
		<path fill="#000000" d="M269,192.7c-0.2,0-0.4,0-0.6,0c-3.7-0.3-6.5-3.6-6.1-7.3c0.2-1.8,1-3.4,2.4-4.6c1.4-1.2,3.1-1.7,4.9-1.5
			c3.7,0.3,6.5,3.6,6.1,7.3l0,0C275.4,190.1,272.5,192.7,269,192.7z M269,181.3c-2.4,0-4.4,1.8-4.6,4.3c-0.2,2.6,1.7,4.8,4.2,5.1
			c2.6,0.2,4.8-1.7,5.1-4.2l0,0c0.2-2.6-1.7-4.8-4.2-5.1C269.3,181.3,269.2,181.3,269,181.3z"/>
		<path fill="#000000" d="M130.5,211.8c-0.2,0-0.4,0-0.6,0c-3.7-0.3-6.5-3.6-6.1-7.3c0.3-3.7,3.6-6.5,7.3-6.1c1.8,0.2,3.4,1,4.6,2.4
			c1.2,1.4,1.7,3.1,1.5,4.9C136.9,209.1,134,211.8,130.5,211.8z M130.5,200.4c-2.4,0-4.4,1.8-4.6,4.3c-0.2,2.6,1.7,4.8,4.2,5.1
			c2.6,0.2,4.8-1.7,5.1-4.2l0,0c0.1-1.2-0.3-2.5-1.1-3.4c-0.8-1-1.9-1.5-3.2-1.7C130.8,200.4,130.7,200.4,130.5,200.4z"/>
		<path fill="#000000" d="M532.1,110.5c-0.2,0-0.4,0-0.6,0c-1.8-0.2-3.4-1-4.6-2.4c-1.2-1.4-1.7-3.1-1.5-4.9c0.3-3.7,3.6-6.5,7.3-6.1
			c3.7,0.3,6.5,3.6,6.1,7.3c-0.2,1.8-1,3.4-2.4,4.6C535.2,110,533.7,110.5,532.1,110.5z M532.1,99.1c-2.4,0-4.4,1.8-4.7,4.3
			c-0.2,2.6,1.7,4.8,4.2,5.1c1.2,0.1,2.5-0.3,3.4-1.1c1-0.8,1.5-1.9,1.7-3.2c0.2-2.6-1.7-4.8-4.2-5.1
			C532.4,99.1,532.3,99.1,532.1,99.1z"/>
		<path fill="#000000" d="M162.1,388.3c-0.2,0-0.4,0-0.6,0c-3.7-0.3-6.5-3.6-6.1-7.3c0.2-1.8,1-3.4,2.4-4.6c1.4-1.2,3.1-1.7,4.9-1.5
			c3.7,0.3,6.5,3.6,6.1,7.3l0,0C168.6,385.7,165.6,388.3,162.1,388.3z M162.1,376.9c-1.1,0-2.1,0.4-3,1.1c-1,0.8-1.5,1.9-1.7,3.2
			c-0.2,2.6,1.7,4.8,4.2,5.1c2.5,0.2,4.8-1.7,5.1-4.2c0.2-2.6-1.7-4.8-4.2-5.1C162.4,376.9,162.3,376.9,162.1,376.9z"/>
		<path fill="#000000" d="M396.6,211.6c-7.1,0-13.6-4.8-15.4-12c-2.1-8.5,3-17.2,11.5-19.3c4.1-1,8.4-0.4,12,1.8c3.6,2.2,6.2,5.6,7.3,9.8
			c2.2,8.5-3,17.2-11.5,19.3C399.2,211.4,397.8,211.6,396.6,211.6z M396.6,181.9c-1.1,0-2.3,0.1-3.4,0.4c-7.4,1.9-11.9,9.4-10,16.8
			c1.9,7.4,9.4,11.9,16.8,10c7.4-1.9,11.9-9.4,10-16.8c-0.9-3.6-3.1-6.6-6.3-8.5C401.5,182.5,399,181.9,396.6,181.9z"/>
		<path fill="#000000" d="M461.2,196.9c-7.1,0-13.6-4.8-15.4-12c-2.1-8.5,3-17.2,11.5-19.3c4.1-1,8.4-0.4,12,1.8c3.6,2.2,6.2,5.6,7.3,9.8
			c2.1,8.5-3,17.2-11.5,19.3C463.8,196.8,462.5,196.9,461.2,196.9z M461.2,167.2c-1.1,0-2.3,0.1-3.4,0.4c-7.4,1.9-11.9,9.4-10,16.8
			c1.9,7.4,9.4,11.9,16.8,10c7.4-1.9,11.9-9.4,10-16.8C473,171.4,467.4,167.2,461.2,167.2z"/>
		<path fill="#000000" d="M598.8,172.9c-6.3,0-12.3-3.8-14.8-10c-3.3-8.1,0.7-17.4,8.9-20.7c8.1-3.2,17.4,0.7,20.7,8.9c1.6,3.9,1.5,8.3-0.2,12.2
			c-1.7,3.9-4.8,6.9-8.7,8.5C602.7,172.6,600.8,172.9,598.8,172.9z M598.8,143.2c-1.7,0-3.5,0.3-5.1,1c-3.4,1.4-6.1,4-7.6,7.4
			c-1.5,3.4-1.5,7.1-0.1,10.6c1.4,3.4,4,6.1,7.4,7.6c3.4,1.5,7.1,1.5,10.6,0.1c3.4-1.4,6.1-4,7.6-7.4c1.5-3.4,1.5-7.1,0.1-10.6
			c-1.4-3.4-4-6.1-7.4-7.6C602.5,143.6,600.6,143.2,598.8,143.2z"/>
		<path fill="#000000" d="M556.1,175.5c-6.3,0-12.3-3.8-14.8-10l0,0c-1.6-3.9-1.5-8.3,0.2-12.2c1.7-3.9,4.8-6.9,8.7-8.5c3.9-1.6,8.3-1.5,12.2,0.2
			c3.9,1.7,6.9,4.8,8.5,8.7c1.6,3.9,1.5,8.3-0.2,12.2c-1.7,3.9-4.8,6.9-8.7,8.5C560,175.2,558,175.5,556.1,175.5z M556,145.8
			c-1.7,0-3.4,0.3-5.1,1c-3.4,1.4-6.1,4-7.6,7.4c-1.5,3.4-1.5,7.1-0.1,10.6l0,0c2.8,7.1,10.9,10.5,18,7.7c3.4-1.4,6.1-4,7.6-7.4
			c1.5-3.4,1.5-7.1,0.1-10.6C566.7,149.1,561.5,145.8,556,145.8z"/>
		<path fill="#000000" d="M523.2,220.9c-6.3,0-12.3-3.8-14.8-10c-3.3-8.1,0.7-17.4,8.9-20.7c3.9-1.6,8.3-1.5,12.2,0.2c3.9,1.7,6.9,4.8,8.5,8.7
			c1.6,3.9,1.5,8.3-0.2,12.2c-1.7,3.9-4.8,6.9-8.7,8.5C527.1,220.6,525.1,220.9,523.2,220.9z M523.2,191.2c-1.7,0-3.5,0.3-5.1,1
			c-3.4,1.4-6.1,4-7.6,7.4c-1.5,3.4-1.5,7.1-0.1,10.6c1.4,3.4,4,6.1,7.4,7.6c3.4,1.5,7.1,1.5,10.6,0.1c3.4-1.4,6.1-4,7.6-7.4
			c1.5-3.4,1.5-7.1,0.1-10.6c-1.4-3.4-4-6.1-7.4-7.6C526.9,191.6,525,191.2,523.2,191.2z"/>
		<path fill="#000000" d="M575.4,217.4l-6.8-1.7l0-0.8c0-0.4,0-0.8,0-1.2c0-0.9,0-1.9,0-2.8c0.1-1.2,0.2-2,0.3-2.5c-0.1-0.4-0.1-1.1-0.2-1.9
			c-0.3-3.1-1.4-5.4-3.1-6.7c-1.6-1.2-3.8-1.6-6.5-1c-0.6,0.1-1.2,0.2-1.9,0.2c-0.3,0-0.6,0.1-0.9,0.1l-1.1,0.1l-0.2-2.7
			c-0.1-1.3-0.1-2.6-0.2-3.9c0-0.4,0-0.8,0-1.2l0-1.4l2.2-0.6c1-0.3,2-0.5,2.9-0.7c5.7-1.3,11.4,0.4,15.3,4.4
			c3.9-4,9.6-5.7,15.3-4.4c1,0.2,1.9,0.5,2.9,0.7l2.2,0.6l0,1.4c0,0.4,0,0.8,0,1.1c-0.1,1.3-0.1,2.5-0.2,3.8l-0.2,2.8l-1.1-0.1
			c-0.3,0-0.6-0.1-0.8-0.1c-0.6-0.1-1.2-0.1-1.9-0.2c-2.7-0.5-4.9-0.2-6.5,1c-1.7,1.3-2.8,3.6-3.1,6.7c-0.1,0.8-0.2,1.5-0.2,1.9
			c0.2,0.5,0.2,1.3,0.3,2.5c0.1,1,0.1,1.9,0,2.8c0,0.4,0,0.8,0,1.2l0,0.8L575.4,217.4z M570.8,214.1l4.7,1.2l4.7-1.2
			c0-0.1,0-0.3,0-0.4c0-0.9,0-1.8,0-2.6c-0.1-0.8-0.1-1.4-0.2-1.7l-0.3-0.1l0.2-1c0-0.2,0.1-0.8,0.3-2.1c0.4-3.7,1.7-6.5,3.9-8.1
			c2.1-1.6,4.8-2,8.2-1.4c0.5,0.1,1,0.1,1.5,0.2l0-0.6c0.1-1.3,0.1-2.6,0.2-3.8c0-0.3,0-0.5,0-0.8l-0.7-0.2c-1-0.3-1.9-0.5-2.9-0.7
			c-5.3-1.2-10.7,0.6-14,4.6l-0.8,1l-0.8-1c-3.4-4-8.8-5.8-14-4.6c-0.9,0.2-1.9,0.5-2.9,0.7l-0.7,0.2c0,0.3,0,0.5,0,0.8
			c0.1,1.3,0.1,2.5,0.2,3.9l0,0.6c0.5,0,1-0.1,1.5-0.2c3.3-0.6,6.1-0.1,8.2,1.4c2.2,1.6,3.6,4.5,3.9,8.1c0.1,1.3,0.2,1.8,0.3,2.1
			l0.2,1l-0.4,0.1c0,0.3-0.1,0.8-0.2,1.6c-0.1,0.9,0,1.8,0,2.6C570.8,213.8,570.8,214,570.8,214.1z"/>
		<path fill="#000000" d="M166.4,217.2l-6.8-1.4l0-0.8c0-0.4,0-0.8-0.1-1.2c-0.1-0.9-0.1-1.9-0.1-2.8c0-1.2,0.1-2,0.2-2.5c-0.1-0.4-0.2-1.1-0.3-1.9
			c-0.5-3.1-1.6-5.3-3.4-6.5c-1.7-1.1-3.9-1.4-6.6-0.7c-0.6,0.1-1.2,0.2-1.8,0.3c-0.3,0-0.6,0.1-0.8,0.1l-1.1,0.2l-0.3-2.7
			c-0.1-1.3-0.3-2.6-0.4-3.9c0-0.4,0-0.7-0.1-1.1l-0.1-1.4l2.2-0.7c1-0.3,2-0.6,2.9-0.9c5.6-1.5,11.4-0.1,15.5,3.7
			c3.7-4.2,9.4-6.1,15.1-5.1c1,0.2,2,0.4,3,0.6l2.2,0.5l0.1,1.4c0,0.4,0,0.8,0,1.2c0,1.3,0,2.6,0,4l0,2.7l-1.1-0.1
			c-0.3,0-0.6,0-0.9,0c-0.6,0-1.2-0.1-1.9-0.1c-2.8-0.4-4.9,0.1-6.5,1.3c-1.7,1.4-2.6,3.7-2.8,6.8c0,0.8-0.1,1.5-0.1,1.9
			c0.2,0.5,0.3,1.3,0.4,2.5c0.1,1,0.1,1.9,0.2,2.8c0,0.4,0,0.8,0,1.2l0,0.8L166.4,217.2z M161.5,214.2l4.7,1l4.6-1.4
			c0-0.1,0-0.3,0-0.4c0-0.9,0-1.8-0.2-2.6c-0.1-0.8-0.2-1.3-0.2-1.6l-0.4-0.1l0.1-1c0-0.2,0.1-0.8,0.2-2.1c0.2-3.7,1.4-6.6,3.6-8.3
			c2-1.7,4.7-2.3,8.1-1.8c0.5,0.1,1,0.1,1.5,0.1l0-0.5c0-1.4,0-2.7,0-4c0-0.3,0-0.5,0-0.8l-0.7-0.1c-1-0.2-2-0.4-2.9-0.6
			c-5.3-1-10.6,1-13.8,5.2l-0.8,1l-0.8-0.9c-3.6-3.9-9-5.4-14.2-3.9c-0.9,0.3-1.9,0.5-2.9,0.9l-0.6,0.2c0,0.3,0,0.5,0,0.8
			c0.1,1.3,0.2,2.5,0.4,3.8l0.1,0.6c0.5-0.1,1-0.1,1.5-0.3c3.3-0.8,6.1-0.4,8.2,1.1c2.3,1.5,3.8,4.3,4.3,8c0.2,1.2,0.3,1.8,0.3,2.1
			l0.2,1l-0.3,0.1c0,0.3-0.1,0.8-0.1,1.6c0,0.9,0,1.7,0.1,2.6C161.5,213.9,161.5,214,161.5,214.2z"/>
	</g>
</g>
<path fill="#000000" d="M273.602,481.306c-0.578-0.576-1.301-1.03-2.174-1.362c-0.873-0.331-1.885-0.497-3.039-0.497
	c-0.663,0-1.463,0.079-2.4,0.238v-6.077h-1.535v17.711c0.706,0.202,1.402,0.354,2.087,0.454s1.301,0.151,1.849,0.151
	c1.153,0,2.166-0.162,3.039-0.486s1.596-0.764,2.174-1.319c0.576-0.555,1.006-1.211,1.287-1.968s0.42-1.561,0.42-2.411
	s-0.139-1.657-0.42-2.422C274.608,482.554,274.178,481.883,273.602,481.306z M272.391,489.167c-0.852,0.829-2.17,1.243-3.958,1.243
	c-0.39,0-0.805-0.032-1.244-0.097c-0.439-0.065-0.84-0.134-1.2-0.206v-8.845c0.447-0.115,0.887-0.194,1.319-0.237
	c0.433-0.044,0.808-0.065,1.125-0.065c0.894,0,1.668,0.112,2.325,0.335c0.656,0.224,1.199,0.545,1.633,0.963
	c0.432,0.418,0.752,0.919,0.961,1.503s0.314,1.243,0.314,1.979C273.667,487.195,273.241,488.338,272.391,489.167z M247.392,479.446
	c-0.62,0-1.297,0.079-2.033,0.238c-0.735,0.158-1.485,0.433-2.249,0.821l-0.065,1.73c0.548-0.303,0.973-0.52,1.276-0.649
	s0.624-0.237,0.962-0.324c0.338-0.086,0.677-0.158,1.016-0.216s0.667-0.087,0.984-0.087c1.139,0,1.982,0.249,2.53,0.746
	s0.822,1.33,0.822,2.498v0.13c-0.332-0.044-0.732-0.087-1.2-0.13c-0.469-0.043-0.876-0.065-1.222-0.065
	c-1.831,0-3.302,0.311-4.412,0.931c-1.11,0.619-1.665,1.644-1.665,3.07c0,0.707,0.155,1.305,0.465,1.795
	c0.31,0.49,0.713,0.88,1.211,1.168s1.067,0.497,1.708,0.627c0.641,0.13,1.308,0.194,2,0.194c0.807,0,1.6-0.072,2.378-0.216
	c0.779-0.145,1.536-0.368,2.271-0.671v-7.028c0-1.585-0.397-2.742-1.189-3.471C250.189,479.811,248.992,479.446,247.392,479.446z
	 M250.636,489.892c-0.375,0.144-0.858,0.267-1.449,0.367c-0.591,0.102-1.183,0.151-1.773,0.151c-0.505,0-0.984-0.035-1.438-0.108
	c-0.454-0.071-0.84-0.197-1.157-0.378c-0.317-0.18-0.57-0.414-0.757-0.703c-0.188-0.288-0.281-0.663-0.281-1.124
	c0-0.52,0.111-0.934,0.335-1.244c0.224-0.31,0.533-0.551,0.93-0.724c0.396-0.174,0.85-0.296,1.362-0.368
	c0.511-0.072,1.041-0.108,1.589-0.108c0.476,0,0.984,0.029,1.524,0.087c0.541,0.058,0.912,0.108,1.114,0.151V489.892z
	 M258.032,479.868c-0.649,0.122-1.276,0.263-1.881,0.422v11.418h1.535v-10.186c0.202-0.072,0.563-0.147,1.082-0.228
	c0.519-0.079,1.002-0.118,1.449-0.118h1.989v-1.492H260C259.336,479.685,258.681,479.746,258.032,479.868z M-77.92,487.667
	l241.145,0.656l0.663-0.433l-0.632-0.564L-77.92,487.667z M164.994,487.825l1.95,1.95l1.95-1.95l-1.95-1.95L164.994,487.825z
	 M169.559,487.825l3.057,3.057l3.057-3.057l-3.057-3.057L169.559,487.825z M212.359,489.286l-3.395-9.602h-1.514l-3.396,9.602
	l-2.984-9.602h-1.73l3.979,12.023h1.428l3.46-9.645l3.46,9.645h1.427l3.979-12.023h-1.73L212.359,489.286z M238.418,489.589
	c-0.317,0-0.591,0.115-0.822,0.346c-0.231,0.23-0.346,0.505-0.346,0.822c0,0.316,0.115,0.591,0.346,0.821
	c0.23,0.23,0.504,0.346,0.822,0.346c0.317,0,0.591-0.115,0.822-0.346c0.23-0.23,0.346-0.505,0.346-0.821
	c0-0.317-0.116-0.592-0.346-0.822C239.009,489.704,238.735,489.589,238.418,489.589z M193.243,489.286l-3.395-9.602h-1.514
	l-3.396,9.602l-2.984-9.602h-1.73l3.979,12.023h1.428l3.46-9.645l3.46,9.645h1.427l3.979-12.023h-1.73L193.243,489.286z
	 M231.476,489.286l-3.395-9.602h-1.514l-3.396,9.602l-2.984-9.602h-1.73l3.979,12.023h1.428l3.46-9.645l3.46,9.645h1.427
	l3.979-12.023h-1.73L231.476,489.286z M382.732,480.474c-0.426-0.396-0.938-0.667-1.535-0.812c-0.598-0.144-1.271-0.216-2.021-0.216
	c-0.664,0-1.393,0.09-2.184,0.271c-0.793,0.181-1.471,0.4-2.033,0.659c-0.346-0.331-0.818-0.569-1.416-0.714
	c-0.6-0.144-1.273-0.216-2.023-0.216c-0.635,0-1.268,0.058-1.902,0.173l-2.465,0.454v11.635h1.535v-10.38
	c0.447-0.102,0.883-0.188,1.309-0.26c0.424-0.072,0.896-0.108,1.416-0.108c0.605,0,1.125,0.058,1.557,0.173
	c0.434,0.116,0.789,0.321,1.07,0.616c0.281,0.296,0.494,0.711,0.639,1.244s0.217,1.24,0.217,2.119v6.596h1.535v-7.201
	c0-0.663-0.055-1.243-0.162-1.741c-0.109-0.497-0.213-0.861-0.314-1.092c0.086-0.043,0.281-0.119,0.584-0.228
	c0.303-0.107,0.602-0.197,0.898-0.27c0.295-0.072,0.586-0.126,0.875-0.162s0.547-0.055,0.779-0.055c0.59,0,1.102,0.058,1.535,0.173
	c0.432,0.116,0.781,0.317,1.049,0.605c0.266,0.289,0.471,0.703,0.615,1.244c0.145,0.54,0.217,1.251,0.217,2.13v6.596h1.535v-7.201
	c0-0.995-0.111-1.816-0.336-2.466C383.482,481.393,383.158,480.87,382.732,480.474z M280.1,474.581
	c-0.785,0.648-1.18,1.729-1.18,3.243v1.86h-2.551v1.492h2.551v10.531h1.537v-10.531h4.973v-1.492h-4.973v-1.471
	c0-0.635,0.045-1.149,0.141-1.546c0.094-0.396,0.24-0.707,0.443-0.931c0.201-0.223,0.475-0.385,0.82-0.486
	c0.346-0.101,0.779-0.151,1.299-0.151h2.422v-1.492h-2.271C281.956,473.607,280.885,473.932,280.1,474.581z M398.273,487.825
	l3.057,3.057l3.057-3.057l-3.057-3.057L398.273,487.825z M343.322,482.322c0.389-0.418,0.854-0.749,1.395-0.994
	s1.135-0.368,1.783-0.368c0.736,0,1.373,0.076,1.914,0.228s1.121,0.414,1.74,0.789l0.715-1.405c-0.707-0.39-1.393-0.674-2.055-0.854
	c-0.664-0.181-1.436-0.271-2.314-0.271c-0.85,0-1.639,0.155-2.367,0.465c-0.729,0.311-1.367,0.746-1.914,1.309
	c-0.549,0.563-0.98,1.222-1.297,1.979c-0.317,0.757-0.476,1.59-0.476,2.498s0.158,1.74,0.476,2.497
	c0.316,0.757,0.748,1.413,1.297,1.969c0.547,0.555,1.186,0.987,1.914,1.297c0.729,0.311,1.518,0.465,2.367,0.465
	c0.879,0,1.65-0.09,2.314-0.27c0.662-0.181,1.348-0.466,2.055-0.854l-0.715-1.406c-0.619,0.375-1.199,0.639-1.74,0.79
	s-1.178,0.227-1.914,0.227c-0.648,0-1.242-0.119-1.783-0.356c-0.541-0.238-1.006-0.565-1.395-0.984
	c-0.391-0.418-0.693-0.915-0.908-1.492c-0.217-0.576-0.324-1.203-0.324-1.881s0.107-1.305,0.324-1.882
	C342.628,483.238,342.931,482.741,343.322,482.322z M404.387,487.825l1.949,1.95l1.951-1.95l-1.951-1.95L404.387,487.825z
	 M410.701,487.326l-0.664,0.433l0.633,0.564l241.176-0.341L410.701,487.326z M362.611,481.295c-0.549-0.569-1.193-1.02-1.936-1.352
	c-0.742-0.331-1.547-0.497-2.412-0.497c-0.863,0-1.668,0.166-2.41,0.497c-0.742,0.332-1.389,0.782-1.936,1.352
	c-0.549,0.57-0.977,1.229-1.287,1.979c-0.311,0.749-0.465,1.557-0.465,2.422s0.154,1.672,0.465,2.422s0.738,1.409,1.287,1.979
	c0.547,0.569,1.193,1.017,1.936,1.341s1.547,0.486,2.41,0.486c0.865,0,1.67-0.162,2.412-0.486s1.387-0.771,1.936-1.341
	c0.547-0.569,0.977-1.229,1.287-1.979c0.309-0.75,0.465-1.557,0.465-2.422s-0.156-1.673-0.465-2.422
	C363.587,482.524,363.158,481.865,362.611,481.295z M362.394,487.523c-0.217,0.569-0.52,1.067-0.908,1.492
	c-0.389,0.426-0.857,0.765-1.406,1.017c-0.547,0.252-1.152,0.378-1.816,0.378c-0.662,0-1.268-0.126-1.816-0.378
	c-0.547-0.252-1.016-0.591-1.404-1.017c-0.391-0.425-0.693-0.923-0.908-1.492c-0.217-0.569-0.324-1.179-0.324-1.827
	c0-0.649,0.107-1.262,0.324-1.839c0.215-0.576,0.518-1.077,0.908-1.503c0.389-0.425,0.857-0.764,1.404-1.016
	c0.549-0.252,1.154-0.379,1.816-0.379c0.664,0,1.27,0.127,1.816,0.379c0.549,0.252,1.018,0.591,1.406,1.016
	c0.389,0.426,0.691,0.927,0.908,1.503c0.217,0.577,0.324,1.189,0.324,1.839C362.718,486.345,362.611,486.954,362.394,487.523z
	 M296.221,481.295c-0.547-0.569-1.191-1.02-1.936-1.352c-0.742-0.331-1.545-0.497-2.41-0.497s-1.67,0.166-2.412,0.497
	c-0.742,0.332-1.387,0.782-1.936,1.352c-0.547,0.57-0.977,1.229-1.285,1.979c-0.311,0.749-0.465,1.557-0.465,2.422
	s0.154,1.672,0.465,2.422c0.309,0.75,0.738,1.409,1.285,1.979c0.549,0.569,1.193,1.017,1.936,1.341s1.547,0.486,2.412,0.486
	s1.668-0.162,2.41-0.486c0.744-0.324,1.389-0.771,1.936-1.341c0.549-0.569,0.977-1.229,1.287-1.979s0.465-1.557,0.465-2.422
	s-0.154-1.673-0.465-2.422C297.198,482.524,296.77,481.865,296.221,481.295z M296.006,487.523c-0.217,0.569-0.52,1.067-0.908,1.492
	c-0.391,0.426-0.859,0.765-1.406,1.017c-0.549,0.252-1.154,0.378-1.816,0.378c-0.664,0-1.27-0.126-1.816-0.378
	c-0.549-0.252-1.018-0.591-1.406-1.017c-0.389-0.425-0.691-0.923-0.908-1.492s-0.324-1.179-0.324-1.827
	c0-0.649,0.107-1.262,0.324-1.839c0.217-0.576,0.52-1.077,0.908-1.503c0.389-0.425,0.857-0.764,1.406-1.016
	c0.547-0.252,1.152-0.379,1.816-0.379c0.662,0,1.268,0.127,1.816,0.379c0.547,0.252,1.016,0.591,1.406,1.016
	c0.389,0.426,0.691,0.927,0.908,1.503c0.215,0.577,0.324,1.189,0.324,1.839C296.331,486.345,296.221,486.954,296.006,487.523z
	 M309.381,480.463c-0.455-0.39-0.996-0.656-1.623-0.801c-0.627-0.144-1.309-0.216-2.043-0.216c-0.707,0-1.465,0.047-2.271,0.141
	s-1.701,0.234-2.682,0.422v11.699h1.535v-10.402c1.184-0.23,2.293-0.346,3.33-0.346c0.592,0,1.111,0.062,1.559,0.184
	c0.445,0.123,0.818,0.332,1.113,0.628c0.295,0.295,0.525,0.713,0.691,1.254s0.25,1.251,0.25,2.13v6.553h1.535v-7.201
	c0-0.995-0.119-1.82-0.357-2.477C310.18,481.375,309.834,480.852,309.381,480.463z M318.516,490.054
	c-0.346-0.108-0.619-0.277-0.82-0.509c-0.203-0.23-0.35-0.547-0.443-0.951c-0.096-0.403-0.141-0.922-0.141-1.557v-5.86h4.973v-1.492
	h-4.973v-4.347h-1.537v4.347h-2.551v1.492h2.551v6.466c0,0.764,0.109,1.405,0.326,1.925c0.215,0.519,0.525,0.937,0.93,1.254
	c0.402,0.317,0.867,0.544,1.395,0.682c0.525,0.137,1.105,0.205,1.74,0.205h2.271v-1.492h-2.422
	C319.295,490.216,318.862,490.162,318.516,490.054z M337.784,489.589c-0.316,0-0.59,0.115-0.82,0.346s-0.346,0.505-0.346,0.822
	c0,0.316,0.115,0.591,0.346,0.821s0.504,0.346,0.82,0.346c0.318,0,0.592-0.115,0.822-0.346s0.346-0.505,0.346-0.821
	c0-0.317-0.115-0.592-0.346-0.822S338.102,489.589,337.784,489.589z M333.178,486.106c-0.346-0.303-0.785-0.565-1.318-0.789
	c-0.533-0.223-1.182-0.422-1.947-0.595l-0.799-0.173c-1.053-0.216-1.781-0.461-2.184-0.735c-0.404-0.273-0.607-0.678-0.607-1.211
	c0-0.504,0.238-0.904,0.715-1.2c0.475-0.295,1.174-0.443,2.098-0.443c0.793,0,1.477,0.076,2.055,0.228
	c0.576,0.151,1.217,0.421,1.924,0.811l0.691-1.405c-1.412-0.765-2.969-1.146-4.67-1.146c-0.635,0-1.223,0.076-1.764,0.228
	c-0.539,0.151-1.008,0.364-1.404,0.638s-0.711,0.605-0.941,0.994c-0.23,0.39-0.346,0.815-0.346,1.276
	c0,0.462,0.072,0.88,0.217,1.254c0.143,0.375,0.381,0.707,0.713,0.995s0.758,0.537,1.275,0.746c0.52,0.209,1.146,0.4,1.883,0.573
	l0.908,0.194c1.008,0.217,1.729,0.49,2.162,0.822c0.432,0.331,0.648,0.771,0.648,1.318c0,0.39-0.086,0.707-0.26,0.952
	c-0.172,0.245-0.414,0.436-0.725,0.573c-0.311,0.137-0.678,0.237-1.102,0.303c-0.426,0.064-0.877,0.097-1.352,0.097
	c-0.592,0-1.223-0.09-1.893-0.271c-0.67-0.18-1.352-0.479-2.045-0.897l-0.734,1.471c0.779,0.433,1.539,0.742,2.281,0.93
	s1.539,0.281,2.391,0.281c0.748,0,1.434-0.072,2.053-0.216c0.621-0.145,1.158-0.36,1.611-0.648c0.455-0.289,0.805-0.649,1.049-1.082
	c0.246-0.433,0.369-0.93,0.369-1.492c0-0.476-0.072-0.915-0.217-1.318C333.77,486.763,333.526,486.41,333.178,486.106z"/>
</svg>

