<?xml version="1.0" encoding="utf-8"?>
<!-- Generator: Adobe Illustrator 21.0.0, SVG Export Plug-In . SVG Version: 6.00 Build 0)  -->
<svg version="1.1" id="Layer_1" xmlns="http://www.w3.org/2000/svg" xmlns:xlink="http://www.w3.org/1999/xlink" x="0px" y="0px"
	 viewBox="0 0 800 500" style="enable-background:new 0 0 800 500;" xml:space="preserve">
<style type="text/css">
	.st0{fill-rule:evenodd;clip-rule:evenodd;}
</style>
<g>
	<g>
		<g>
			<path fill="#000000" d="M311.5,385h-2.3c-0.5,0-0.7,0.2-0.7,0.7v30.7c0,1.3-0.3,2.3-0.8,2.8c-0.5,0.5-1.4,0.8-2.5,0.8h-32.9
				c-1.1,0-1.9-0.3-2.5-0.8c-0.5-0.5-0.8-1.5-0.8-2.8v-14.8c0-0.5-0.2-0.7-0.7-0.7H266c-0.5,0-0.7,0.2-0.7,0.7v14.7
				c0,2.7,0.6,4.6,1.8,5.7c1.2,1.1,3.2,1.7,6,1.7h32c2.4,0,4.2-0.6,5.3-1.7s1.7-3,1.7-5.5v-30.7C312.2,385.2,311.9,385,311.5,385z
				 M293.6,401.1c-0.5-0.6-1.4-0.9-2.6-0.9h-1.5l3.7-4.3c0.4-0.4,0.4-0.7,0.1-1l-1-0.9c-0.3-0.4-0.7-0.3-1.1,0.1l-5.3,6.3
				c-0.2,0.2-0.3,0.5-0.3,0.8v0.9c0,0.5,0.2,0.7,0.7,0.7h3.8c0.6,0,1.1,0.1,1.4,0.3c0.3,0.2,0.4,0.7,0.4,1.5v1.7
				c0,0.5-0.1,0.9-0.2,1.1c-0.2,0.2-0.5,0.3-1,0.3h-7.2c-0.5,0-0.7,0.2-0.7,0.7v1.2c0,0.4,0.2,0.7,0.7,0.7h7.2c1.4,0,2.4-0.3,3-0.8
				c0.6-0.5,0.8-1.5,0.8-3v-3.1C294.4,402.5,294.1,401.7,293.6,401.1z"/>
			<path fill="#000000" d="M328,391.6h-2.3c-0.5,0-0.7,0.2-0.7,0.7v30.1c0,1.9-0.5,3.4-1.4,4.3c-1,0.9-2.4,1.4-4.2,1.4h-1.5c-0.5,0-0.7,0.2-0.7,0.7
				v2.4c0,0.5,0.2,0.7,0.7,0.7h1.1c3.3,0,5.8-0.8,7.4-2.5c1.6-1.7,2.3-4.1,2.3-7.3v-29.7C328.7,391.8,328.4,391.6,328,391.6z"/>
			<path fill="#000000" d="M362.2,419.9h-16.7c-1.1,0-2-0.3-2.5-0.8c-0.6-0.5-0.9-1.5-0.9-2.8v-30.7c0-0.5-0.2-0.7-0.7-0.7H339
				c-0.5,0-0.7,0.2-0.7,0.7v30.7c0,2.6,0.6,4.5,1.8,5.6c1.2,1.1,3.2,1.7,6,1.7h16c0.9,0,1.6-0.1,2-0.3c0.4-0.2,0.6-0.7,0.6-1.6
				C364.9,420.5,364,419.9,362.2,419.9z"/>
			<path fill="#000000" d="M385.4,420.2c-0.5-0.2-3.3-0.4-4.3-0.4h-0.4c-2,0-3.6-0.4-4.7-1.2c-1.2-0.8-1.8-2.1-1.8-3.8v-17.6c0-0.5-0.2-0.7-0.7-0.7
				h-2.4c-0.5,0-0.7,0.2-0.7,0.7v17c0,0.9,0,1.8-0.1,2.5c-0.1,0.7-0.2,1.3-0.4,1.8c-0.2,0.5-0.6,0.8-1.1,1c-0.5,0.2-1.2,0.3-2,0.3
				h-4.8c-0.9,0-1.6,0.1-2,0.4c-0.5,0.3-14.1,0.8-14.1,1.5c0,0.7,13.6,1.2,14.1,1.4c0.5,0.3,1.1,0.4,2,0.4h5.2c1.7,0,3-0.3,3.9-1
				c0.9-0.6,1.6-1.5,2.2-2.6c0.6,1.5,1.6,2.5,3,2.9c1.3,0.4,2.9,0.6,4.8,0.6c1,0,3.9-0.1,4.3-0.4c0.4-0.3,0.6-0.8,0.6-1.5
				C386.1,421,385.9,420.5,385.4,420.2z M374.3,429h-3.5c-0.5,0-0.7,0.2-0.7,0.7v4c0,0.4,0.2,0.7,0.7,0.7h3.5c0.5,0,0.7-0.2,0.7-0.7
				v-4C375,429.2,374.8,429,374.3,429z"/>
			<path fill="#000000" d="M411.8,398.9c-2-2.4-4.9-3.5-8.8-3.5c-7.9,0-11.8,5-11.8,15c0,0.6,0,1.2,0,1.8c0,0.6,0.1,1.2,0.1,1.7
				c0,1.2-0.1,2.1-0.4,2.9c-0.3,0.8-0.6,1.4-1,1.9c-0.4,0.5-0.8,0.8-1.3,1s-1,0.3-1.5,0.3h-5.9c-0.9,0-1.6,0.1-2,0.3
				c-0.4,0.2-0.6,0.8-0.6,1.6c0,0.8,0.2,1.3,0.7,1.5c0.5,0.2,1.1,0.3,2,0.3h6.2c1.3,0,2.4-0.2,3.5-0.5c1.1-0.4,2-1.3,2.9-2.8
				c1,1.3,2.3,2.3,3.9,2.9c1.6,0.6,3.4,0.9,5.4,0.9c3.9,0,6.8-1.2,8.8-3.5c2-2.3,3-6,3-10.9C414.7,404.9,413.7,401.3,411.8,398.9z
				 M409.1,417.8c-1.3,1.7-3.3,2.6-6.1,2.6c-2.8,0-4.8-0.9-6.1-2.6c-1.3-1.7-1.9-4.4-1.9-7.9c0-3.4,0.6-6,1.9-7.9s3.3-2.9,6.1-2.9
				c2.8,0,4.8,1,6.1,2.9c1.3,1.9,1.9,4.5,1.9,7.9C411,413.4,410.4,416,409.1,417.8z"/>
			<path fill="#000000" d="M481.7,420.3c-0.5-0.3-16.7-0.4-17.6-0.4h-0.4c-2,0-3.5-0.4-4.7-1.3c-1.2-0.8-1.8-2.1-1.8-3.8v-8c0-2-0.3-3.7-0.8-5.2
				c-0.5-1.4-1.3-2.6-2.3-3.5c-1-0.9-2.2-1.6-3.6-2c-1.4-0.5-3-0.7-4.7-0.7h-9c-0.5,0-0.7,0.2-0.7,0.7v2.4c0,0.5,0.2,0.7,0.7,0.7
				h7.8c3,0,5.1,0.6,6.4,1.8c1.3,1.2,2,3.1,2,5.6v6.5c0,1.3-0.1,2.4-0.2,3.3c-0.1,0.9-0.4,1.6-0.8,2.1c-0.4,0.5-1,0.9-1.9,1.1
				c-0.8,0.2-1.9,0.3-3.3,0.3h-13.4c-0.4,0-0.7,0.2-0.7,0.7v2.4c0,0.4,0.2,0.7,0.7,0.7h14.8c2,0,3.7-0.3,4.9-0.9
				c1.3-0.6,2.2-1.6,2.8-3c0.5,1.6,1.5,2.7,3,3.2c1.5,0.5,3.1,0.7,5,0.7c0.9,0,17.3-0.1,17.7-0.3c0.4-0.2,0.6-0.7,0.6-1.5
				S482.2,420.5,481.7,420.3z"/>
			<path fill="#000000" d="M505.4,420.2c-0.5-0.2-5.6-0.4-6.5-0.4h-0.4c-2,0-3.5-0.4-4.7-1.2c-1.2-0.8-1.8-2.1-1.8-3.8v-17.6c0-0.5-0.2-0.7-0.7-0.7
				H489c-0.5,0-0.7,0.2-0.7,0.7v17c0,0.9,0,1.8-0.1,2.5c-0.1,0.7-0.2,1.3-0.4,1.8c-0.2,0.5-0.6,0.8-1.1,1c-0.5,0.2-1.2,0.3-2,0.3
				h-20.7c-0.9,0-1.5,0.1-1.9,0.4c-0.4,0.3-0.5,0.8-0.5,1.5c0,0.7,0.2,1.2,0.6,1.4c0.4,0.3,1,0.4,1.8,0.4h21.1c1.7,0,3-0.3,3.9-1
				c0.9-0.6,1.6-1.5,2.1-2.6c0.6,1.5,1.6,2.5,3,2.9c1.3,0.4,3,0.6,4.8,0.6c1,0,6.1-0.1,6.5-0.4c0.4-0.3,0.6-0.8,0.6-1.5
				C506.1,421,505.9,420.5,505.4,420.2z M486.6,429.3h-3.5c-0.5,0-0.7,0.2-0.7,0.7v4c0,0.4,0.2,0.7,0.7,0.7h3.5
				c0.4,0,0.7-0.2,0.7-0.7v-4C487.3,429.5,487,429.3,486.6,429.3z M495.2,429.3h-3.5c-0.5,0-0.7,0.2-0.7,0.7v4
				c0,0.4,0.2,0.7,0.7,0.7h3.5c0.5,0,0.7-0.2,0.7-0.7v-4C495.8,429.5,495.6,429.3,495.2,429.3z"/>
			<path fill="#000000" d="M534,419.9h-14.5c-0.4-0.1-1-0.4-1.9-0.8c-0.8-0.4-1.7-1.1-2.5-2c-0.9-0.9-1.6-2-2.2-3.3c-0.6-1.3-0.9-3-0.9-5
				c0-1.3,0.2-2.6,0.5-3.8c0.4-1.2,0.9-2.2,1.7-3.1c0.8-0.9,1.8-1.6,3-2.1c1.2-0.5,2.7-0.8,4.4-0.8c3.2,0,5.8,1.3,7.8,3.8
				c0.3,0.3,0.6,0.3,0.9,0.1l2-1.5c0.4-0.2,0.4-0.5,0.2-0.9c-1.2-1.6-2.6-2.8-4.4-3.8c-1.8-0.9-3.9-1.4-6.5-1.4
				c-3,0-5.3,0.5-7.1,1.5c-1.8,1-3.2,2.2-4.1,3.6c-1,1.4-1.6,2.9-1.9,4.5c-0.3,1.6-0.5,3-0.5,4.1c0,2.4,0.4,4.6,1.2,6.4
				c0.8,1.8,1.8,3.3,3,4.4h-13.3c-0.9,0-1.6,0.1-2,0.3c-0.4,0.2-0.6,0.8-0.6,1.7c0,0.7,0.2,1.2,0.7,1.4c0.5,0.2,1.1,0.3,2,0.3H534
				c0.5,0,0.7-0.2,0.7-0.7v-2.4C534.7,420.1,534.5,419.9,534,419.9z"/>
		</g>
		<g>
			<path fill="#000000" d="M268.9,466.9v-9.6h13.8v-2.9h-13.8v-9.3h14.5v-2.9h-18.1v27.6h18.3v-2.9H268.9z"/>
			<path fill="#000000" d="M289.7,442.2v27.6h3.6v-27.6H289.7z"/>
			<path fill="#000000" d="M310.4,442.2h-10v27.6h10c9.1,0,13.7-4.9,13.7-14.6C324.1,446.5,319.6,442.2,310.4,442.2z M310.4,466.9H304v-21.8h6.5
				c6.8,0,10.1,3.4,10.1,10.2C320.6,463,317.2,466.9,310.4,466.9z"/>
			<path fill="#000000" d="M363.6,442.2l-9.9,23l-10.1-23H339v27.6h3.2v-22.7l10,22.7h2.8l9.8-22.7v22.7h3.2v-27.6H363.6z"/>
			<path fill="#000000" d="M393.7,442.2v16.9c0,5.3-2.6,8-7.9,8c-5.3,0-7.9-2.6-7.9-8v-16.9h-3.6v16.9c0,7.2,3.8,10.9,11.5,10.9
				c7.7,0,11.5-3.6,11.5-10.9v-16.9H393.7z"/>
			<path fill="#000000" d="M418.2,455.4c3.4-1.4,5.1-3.6,5.1-6.7c0-4.3-2.6-6.4-7.9-6.4h-11.8v27.6H415c5.8,0,8.6-2.7,8.6-8.2
				C423.7,458.1,421.9,456,418.2,455.4z M414.8,466.9h-7.6v-21.8h7.9c2.9,0,4.4,1.3,4.4,3.9c0,3.1-2.6,5-7.9,5.7v2.3h1.5
				c4.4,0,6.6,1.6,6.6,4.9C419.8,465.2,418.1,466.9,414.8,466.9z"/>
			<path fill="#000000" d="M442.2,442.2h-4l-11.7,27.6h3.7l9.9-24.1l5.2,12.5h-6.9l-1,2.9h9.1l3.6,8.7h4L442.2,442.2z"/>
			<path fill="#000000" d="M469.7,456.8c5.1-1.7,7.7-4.4,7.7-8c0-4.4-2.6-6.6-7.9-6.6h-11.8v27.6h3.6v-24.7h7.9c2.9,0,4.4,1.3,4.4,3.8
				c0,3.2-2.6,5.3-7.9,6.1v2.3l8.8,12.4h4.7L469.7,456.8z"/>
			<path fill="#000000" d="M495.9,442.2h-4l-11.7,27.6h3.7l9.9-24.1l5.2,12.5H492l-1,2.9h9.1l3.6,8.7h4L495.9,442.2z"/>
			<path fill="#000000" d="M511.4,442.2v27.6h3.6v-27.6H511.4z M522,455.2l12.4-13h-4.5l-11.4,12.2v2.2l11.3,13.3h5L522,455.2z"/>
		</g>
	</g>
	<path fill="#000000" d="M420,152.3c-0.4-0.3-0.9-0.5-1.3-0.7c-0.8-0.3-0.9-0.7-0.7-1.5c0.4-2,0.5-4.1-0.5-6c-0.9-1.8-2.4-2.2-4.2-1.2
		c-2.2,1.2-2.8,3.3-3.3,5.5c-0.3,1.4,0.2,2.4,1.4,3.1c1.3,0.7,2.7,1.5,4,2.2c0.8,0.4,0.8,0.8,0.4,1.4c-1.5,2-2.9,4.3-4.7,6.1
		c-2.9,3-6.1,5.8-9.2,8.5c-3.3,2.9-6.8,5.6-10.1,8.4c-1,0.9-2,1.7-3,2.6c0.1,0.1,0.2,0.3,0.4,0.4c0.3-0.2,0.5-0.3,0.8-0.5
		c3-2.1,6.1-4.1,8.9-6.4c3.5-2.8,7.1-5.6,10.3-8.7c2.3-2.3,4.2-5,6.1-7.6c0.8-1,1.2-2.3,1.8-3.6c1.3,0.7,2.4,1.4,3.5,2
		C421.6,155,421.4,153.2,420,152.3z M416.9,150.9c-1.8-1-3.5-2-5.3-3c-0.7-0.4-0.3-0.9,0.1-1.2c2-1.4,3.7-2.1,5,1.1
		c0.4,0.9,0.4,1.9,0.6,2.8C417.2,150.7,417,150.8,416.9,150.9z"/>
	<path fill="#000000" d="M261.4,345.1c0.4-0.4,0.8-0.7,1.2-1.1c-1-1.4-2.1-2.8-3.5-4.6c2.1-1.3,4.2-2.7,6.5-3.7c11.8-5.2,23.7-10.3,35.5-15.4
		c1.4-0.6,2.5-1.6,3.8-2.4c-0.3-0.4-0.5-0.7-0.8-1.1c-0.9,0.3-1.9,0.5-2.7,0.9c-11.4,4.9-22.8,9.8-34.1,14.9
		c-2.6,1.2-5.3,2.6-7.5,4.4c-1.2,1-1.9,3.3-1.7,4.8C258.3,342.9,260.2,343.9,261.4,345.1z"/>
	<path fill="#000000" id="XMLID_1299_" d="M451,285.5c0.2,0,0.4,0,0.5,0.1c0.1,0,0.3,0.1,0.5,0.1c1.3,0.1,2.3-0.2,3.2-0.8c0.9-0.6,1.6-1.2,2.3-2
		c0.7-0.8,1.3-1.7,1.8-2.5c0.6-0.9,1.2-1.7,1.8-2.3c-0.3,1.6-0.6,3.2-1,4.9c-0.4,1.7-1,3.3-1.7,4.9c-0.7,1.6-1.8,3-3,4.2
		c-1.3,1.2-2.9,2.2-4.8,2.8l-0.8,0c-1.8-0.1-3.2-0.5-4.2-1.4c-1-0.8-1.8-1.8-2.4-3c-0.6-1.2-0.9-2.5-1.1-3.9
		c-0.2-1.4-0.2-2.8-0.1-4.1c0.3-6.6,1.8-12.7,4.4-18.1c2.7-5.4,5.8-10.7,9.5-15.9c-0.6,2.2-1.4,4.3-2.4,6.5c-1,2.1-1.9,4.3-2.8,6.5
		c-0.9,2.2-1.7,4.5-2.3,6.8c-0.7,2.3-1.1,4.7-1.2,7.1c0,0.8-0.1,1.8,0,2.8c0,1,0.1,2,0.3,2.9c0.2,0.9,0.6,1.8,1.2,2.6
		C449.2,284.4,450,285,451,285.5z"/>
	<path fill="#000000" id="XMLID_1289_" d="M502.3,100.4c2,1.4,3.5,5.2,3.4,7.1c-0.1,1.3,0.5,0.9,0.7,0c0-0.1,0-0.1,0-0.2c0,0,0,0,0,0
		c0,0,0-0.1,0-0.1c0.1-0.3,0.1-0.6,0.1-0.9c1-6.8,9.2-11.4,13.6-9.6c2.8,1.3,1.6-0.4-0.2-1.3c-4.2-1.9-11.7,2.1-13.5,9
		c-0.7-3.7-3.7-8.1-6.4-9.5c-1.9-1-3.5-0.4-4.2,0.8C493.2,99.8,499.6,105.1,502.3,100.4z"/>
	<path fill="#000000" id="XMLID_1281_" class="st0" d="M167.5,279.8c2.1,0.2,4.4-0.8,9.4-0.5c3.4,0.2,6.8,0.5,10.1,0.7c0,0.1-0.4,0.2-0.3,0.2
		c-1.9,0.6-4,1.2-5.9,1.8c-1.2,0.2-1.6,0.6-3,0.9c-5.8,1.2-11.1,2.6-16.7,4.2c4.7,1,9.8,1.8,14.7,1.5c5.5-0.3,12-4.6,15.4-8.9
		c4.7-5.9,1.3-6.4-9.6-6.2c-3.1,0-5.6,0-8.3,0.3c-1.9,0.3-2.2,0.3-3.3,1.7C169,276.6,168.1,278,167.5,279.8L167.5,279.8z"/>
	<g id="XMLID_1278_">
		<path fill="#000000" id="XMLID_1279_" d="M683.1,216.5c14.4-8.8,28.2-20,44-26.4c1.5-0.6,1.1-5.2,2-5.6c-7.6,3.2-14.5,7.9-21.4,12.3
			c-7.5,4.7-15.2,9-22.8,13.6C683.3,211.3,684.1,215.9,683.1,216.5L683.1,216.5z"/>
	</g>
	<g id="XMLID_1238_">
		<path fill="#000000" id="XMLID_1239_" d="M508.5,346.9c14.4-8.8,28.2-20,44-26.4c1.5-0.6,1.1-5.2,2-5.6c-7.6,3.2-14.5,7.9-21.4,12.3
			c-7.5,4.7-15.2,9-22.8,13.6C508.7,341.7,509.6,346.2,508.5,346.9L508.5,346.9z"/>
	</g>
	<g id="XMLID_1263_">
		<path fill="#000000" id="XMLID_1266_" d="M288,46.2c-1.5-1.2-2.8,4.3-3.1,5.3c-1.1,4.5-1,7.6,2.7,11c2.1,1.9,3.8,3.5,5,6.1
			c0.2,0.8,0.3,1.6,0.5,2.4c1.5-3.3,1.2-3.7-0.9-1.4c-1.1,0.8-2.4,0.9-3.7,1.1c-2.6,0.3-4.8-0.9-6.1-3c-1.7-2.7,0.9-5.2,2.3-7.2
			c0.4-0.6,0.5-2.9,1-3.2c-6.8,4.5-10.4,23.8,3.1,20.1c4.5-1.3,6.1-8,6.7-12c0.5-3-0.6-5.5-2.5-7.7c-2-2.3-9.1-5.7-5.6-9.2
			C287.6,48.2,288.3,46.3,288,46.2L288,46.2z"/>
	</g>
	<path fill="#000000" d="M598.7,273.9c-0.1,0.7-2.6,3.3-3,3.8c-2.3,3.1-4.6,6.2-6.9,9.2c-2.3,3.1-4.6,6.2-6.8,9.3c-0.5,0.7-2.6,2.9-2.7,3.9
		c-1.4,11.6,17.6,15.3,17.6,26.3c0-0.6,2.7-3.5,3-3.8c2.3-3.1,4.6-6.2,6.9-9.2c2.3-3.1,4.6-6.2,6.8-9.3c0.4-0.5,2.7-3.1,2.7-3.9
		C616.4,289.2,597.4,285.5,598.7,273.9z"/>
	<path fill="#000000" d="M389.9,303.2c-0.1,0.7-2.6,3.3-3,3.8c-2.3,3.1-4.6,6.2-6.9,9.2c-2.3,3.1-4.6,6.2-6.8,9.3c-0.5,0.7-2.6,2.9-2.7,3.9
		c-1.4,11.6,17.6,15.3,17.6,26.3c0-0.6,2.7-3.5,3-3.8c2.3-3.1,4.6-6.2,6.9-9.2c2.3-3.1,4.6-6.2,6.8-9.3c0.4-0.5,2.7-3.1,2.7-3.9
		C407.6,318.5,388.6,314.8,389.9,303.2z"/>
	<path fill="#000000" d="M572.6,303.2c-0.1,0.7-2.6,3.3-3,3.8c-2.3,3.1-4.6,6.2-6.9,9.2c-2.3,3.1-4.6,6.2-6.8,9.3c-0.5,0.7-2.6,2.9-2.7,3.9
		c-1.4,11.6,17.6,15.3,17.6,26.3c0-0.6,2.7-3.5,3-3.8c2.3-3.1,4.6-6.2,6.9-9.2c2.3-3.1,4.6-6.2,6.8-9.3c0.4-0.5,2.7-3.1,2.7-3.9
		C590.2,318.5,571.2,314.8,572.6,303.2z"/>
	<path fill="#000000" d="M470.5,156.9c-30.7,39.2-54.5,12.7-54.5,12.7l-5.8,27.6c1.2,3.5,3.9,6.1,7.1,7.7c4.5,2.2,8.7,2,13.4,2.7
		c7.4,1.2,0.3,10.9-1.5,13.8c-2,3.3-4,6.7-6,10c-7.8,14.1-15.1,7.1-15.1,7.1c-3.7-3.6-2.2-11.4-2.7-16.1c-0.4-3.6-1.8-9.9-6.8-7.4
		c-6.3,3.2-7.8,11.5-10.4,17.4c-1.7,3.8-3.5,7.5-5.5,11.1c-5.3,9.7-12.2,18.3-21.2,24.8c-2.9,2.1-6.4,4.8-9.9,6.1
		c-53,19-59.4-56.3-59.4-56.3L272.6,94.6l-5.1-43.8c-3.6-10.8-10.5,0-10.5,0c-4.8,19.3,6.3,85.9,6.3,85.9
		c6.3,50.9,27.1,135.3,27.1,135.3c25.9,64.8,80.8,25.3,80.8,25.3c15.7-9.6,27.1-42.2,27.1-42.2c19,42.8,35-5.1,35-5.1
		c6.3-20.5,16-35.9,16-35.9c0.8-1,1.5-2,2.3-3c3.5-4.6,7.1-9.1,10.6-13.7c3.5-4.6,8.8-9.6,9.7-15.5c0.5-3,0.7-6,1-9
		c0.5-4.4,0.9-8.9,1.4-13.3L470.5,156.9z"/>
	<path fill="#000000" d="M373.4,203.6c-0.7-3.1-3.2-6-5.3-7.9c-5-4.3-11.6-4.5-17.7-2.5c-16.7,5.5-25.1,19.3-34.6,32.9
		c-11.8,16.8-23.4,33.8-34,51.4c-3.6,5.9-6.1,12.4-9.8,18.3c-3.7,6-7.9,11.7-12.9,16.7c-13.8,13.7-32.5,18.3-51.4,16.5
		c-7.2-0.7-14.3-2-21.2-4.2c-14.5-4.5-29-10-42.7-16.6c-19.6-9.5-37.5-22.2-55.1-34.9c-2.4-1.7-4.9-3.4-7.2-5.2
		c0,0,73.8,49.7,121.1,38.6c17.1-4,32.6-9.3,43.9-23.4c4.6-5.8,8.5-12,12.6-18.1c3.9-5.8,8-11.5,12.1-17.2
		c8.4-11.9,16.7-23.9,25-35.8c1.8-2.7,3.7-5.3,5.6-7.9c4.6-6.6,8.7-13.6,13.9-19.8c5.6-6.6,12.3-11.4,19.9-15.4
		c4.5-2.4,9.3-4.2,14.4-5.1c5.7-1.1,13.1-0.6,18.5,1.8c12.6,5.6,16.7,20,12.4,32.3c-1.2,3.3-4.1,8.1-7.6,9.4
		C373.7,206.1,373.7,204.9,373.4,203.6z"/>
	<path fill="#000000" d="M105,155.7c-7.3,16.9-34.4,52-14.4,68.6c3.1,2.6,7.5,4.2,11.4,5.2c5.5,1.4,11.6,1.4,17.2,1.5c16.3,0,32.3-3.3,47.4-9.2
		c12.6-5,25.4-11.1,36.8-18.5c7.9-5.1,15.8-10.1,23.9-15c9.3-5.7,18.5-11.6,27.8-17.3c7.8-4.8,15.7-9.6,23.5-14.5
		c3.5-2.2,7.1-4.4,10.7-6.6c0.1-0.1,0.3-0.2,0.4-0.2c0,0,42.5-28.6,68.4-37.4c0,0,83.6-30.5,114.5,9c0,0-4.5-58.8-64.2-53.9
		c0,0-55.7-0.3-157.6,73.8c-16.2,11.8-32.2,25.6-52.2,30.6c-13,3.3-29.4,2.7-38.1-9c-2.3-3.1-4.8-7.3-5.8-11.2
		c-5.9-22.2,2.9-46.4,15.5-64.6c5.3-7.7,11.3-15.1,17.8-21.9c9.1-9.6,19.8-17.2,26.8-28.6c1-1.6,2.9-4.4,2.3-6.5
		c2.1,7.1,4.1,15,2.7,22.4c-2.1,11.3-10.9,18.2-17.9,26.5c-6.1,7.2-11.8,14.6-17.2,22.3c-4.5,6.4-9.3,13-12.4,20.1
		c-2.6,5.9-4.7,16.8,3.7,18.8c18.1,4.4,34.1-4.7,49.1-13.7l82.9-49.7c2.9-1.7,5.6-3.7,8.5-5.4c7.5-4.6,15-9,22.9-12.9
		c10.3-5.1,21.1-9.1,32.1-12.4c18.1-5.5,37.5-8,56.2-4.1c16.4,3.4,33,9.3,44.7,21.8c5,5.4,9.5,11.7,12.2,18.6
		c3.4,8.6,3.9,18.1,3.5,27.3c-0.3,8.2-1.9,16.4-5.2,24c-3,6.9-9.1,22-19.1,13.6c-3.8-3.2-5.2-8.5-9.2-11.7
		c-8.6-6.9-19.7-8.5-30.4-8.6c-11.5-0.1-23,2-34.2,4.6c-3.2,0.7-6.3,1.4-9.5,2.3c-7.9,2.1-15.6,4.6-23.3,7.4
		c-12.6,4.7-24.8,10.3-36.6,16.8c-14.9,8.2-29.1,17.6-42.9,27.6c-17.1,12.4-33.1,26.2-50.1,38.7c-14.7,10.7-31,18.3-47.7,25.2
		c-5.4,2.2-10.8,4.2-16.3,6.1c-5.4,1.8-10.9,3.4-16.4,4.7c-15.8,3.7-33.1,5.4-48.4-1.3c-10-4.4-18.8-11.7-23-22
		c-11.1-26.7-3.2-60.8,21.1-77.4c1.3-0.9,2.7-1.8,4.2-2.5C101.7,156.8,104.9,156,105,155.7z"/>
	<g>
		<path fill="#000000" d="M721.2,128.3c-8.7,6-15.4,14.4-23.6,21c-6.5,5.3-13.1,10.4-20,15c0.2-1.2,0.5-2.5,0.7-3.7c0.4-1.9,0.8-4,1.1-5.9
			c0.1-0.7,0.3-1.4,0.4-2.1c1.2-6.4,2.5-12.8,3.2-19.3c0.4-4.1,0.4-8.2,0-12.3c-0.2-2.1-0.6-4.1-1.1-6.2c-0.3-1-0.6-2.1-0.9-3.1
			c0,0-1.2,0.3-1.3,0.3c-3.3,1-6.4,2.7-9.4,4.4c-8.1,4.8-15.5,11-22.3,17.6c-1.9,1.8-3.7,3.7-5.5,5.7c-0.8,0.9-1.6,1.7-2.4,2.7
			c-2.9,3.4-5.6,6.9-7.9,10.7c-0.7,1.2-1.4,2.3-2,3.5c-3.4,5.7-6.5,11.7-8.4,18.1c-1.9,6.1-3.4,13.1-2.3,19.5
			c1,5.8,3.7,11.3,9.8,13.1c3.3,1,7.1,1.1,10,1c5.7-0.2,11.3-2,16.7-4.6c-0.7,0.3-1.5,1.5-2,2c-0.7,0.7-1.4,1.4-2.1,2.1
			c-1.4,1.4-2.8,2.9-4.2,4.3c-2.5,2.7-5,5.4-7.6,8.1c-2.6,2.6-5.5,5-8.6,7.1c-2.5,1.7-5.1,3.4-7.8,4.9c-2.3,1.2-4.7,2.4-7.3,2.7
			c-2.9,0.3-5.8-0.6-8.4-1.6c-2.7-1-3.9-2.3-4.3-5.1c-0.2-1.1-0.3-2.3-0.5-3.4c-0.4-2.4-0.7-4.8-1.1-7.2c-0.6-3.7-0.9-10.5-4.2-13.1
			c-0.1-0.1-2.4-1.3-2.5-0.6c-10.5,54.6-48.2,59.5-48.2,59.5c1.2-35.4-2.4-64.7-2.4-64.7c-0.2-2.2-1.7-17.5,4.9-14.5
			c1,0.4,1.7,5.5,2,6.5c0.4,2.1,0.6,4.3,0.8,6.4c0.4,3.3,1.3,6.1,4.2,7.9c4.1,2.6,8.6,2.5,13.2,1.4c1-0.3,2.1-0.5,3.1-1
			c47.8-23.3,25.3-88.4,25.3-88.4c-6-13.6-17.5-22.4-32.5-22.5c-3.9,0-8,0.4-11.9,1.2c-4.2,0.9-8.4,2.2-12.4,3.8
			c-3.1,1.2-6,2.8-8.8,4.5c-9.5,5.9-17.3,14-24.5,22.5c-6.2,7.2-11.7,15-16.1,23.4c-7.5,14.2-11.8,29.9-12.4,45.9
			c-0.6,13.7,1.5,27.5,5.4,40.6c3.2,10.6,7.5,20.9,12.8,30.6c3,5.5,6.2,10.8,9.9,15.9c0.1,0.1,0.9,1.1,0.9,1.2
			C487.3,325.6,405,316.4,405,316.4c103.6,60.7,128.2-22.9,128.2-22.9c43.8,6.4,56.3-38.2,56.3-38.2c8.3,19.8,23.2,16.3,38.6,4.2
			c5-3.1,9.5-7,13.4-10.8c9.9-9.6,17.6-21.3,25.4-32.6c0.7-1,1.4-2,2-3c0-0.1,0.1-0.1,0.1-0.2c10.3-15.1,20.5-30.8,34.2-42.9
			c4.8-4.2,10.3-7.5,15.1-11.5c3.8-3.2,5.4-7,6.4-11.8c1.4-6.8,2.5-13.7,3.9-20.5c0.1-0.8,0.3-1.6,0.5-2.4
			C728.9,124.6,722.2,127.6,721.2,128.3z M534.2,175.3c-2.2,8.5-1.9,17.1-0.7,25.8c0.7,5.1,1.6,10.3,1.9,15.4
			c0.5,9.3,0.1,18.4-2.3,27.5c-1.4,5.4-3.9,10.8-7.2,15.3c0,0-49-27.1-27.4-86.2c0,0,14.2-50.3,60.3-48.2c0,0,28.9,0.6,28.6,30.7
			c0,0-3.3,30.4-24.4,19.9c-0.7-0.4,0.5-7.8,0.5-8.6c0.3-5.6-0.5-14.6-7.4-16.1c-5.4-1.1-10.5,4.4-13.5,8
			C538.7,163.6,535.8,169.3,534.2,175.3z M675.3,165.8c-0.9,0.6-1.8,1.2-2.8,1.8c-8.9,5.4-19.2,10.8-29.9,10.4
			c-3.5-0.1-7.5-0.7-10.6-2.5c5.9-7.4,12.8-14,20.1-19.9c6.2-5.1,13.1-10.2,20.8-12.9c0.6-0.2,1.3-0.4,2-0.6
			C674.8,142.1,678.9,152.1,675.3,165.8z"/>
	</g>
</g>
<path fill="#000000" d="M273.602,481.306c-0.578-0.576-1.301-1.03-2.174-1.362c-0.873-0.331-1.885-0.497-3.039-0.497
	c-0.663,0-1.463,0.079-2.4,0.238v-6.077h-1.535v17.711c0.706,0.202,1.402,0.354,2.087,0.454s1.301,0.151,1.849,0.151
	c1.153,0,2.166-0.162,3.039-0.486s1.596-0.764,2.174-1.319c0.576-0.555,1.006-1.211,1.287-1.968s0.42-1.561,0.42-2.411
	s-0.139-1.657-0.42-2.422C274.608,482.554,274.178,481.883,273.602,481.306z M272.391,489.167c-0.852,0.829-2.17,1.243-3.958,1.243
	c-0.39,0-0.805-0.032-1.244-0.097c-0.439-0.065-0.84-0.134-1.2-0.206v-8.845c0.447-0.115,0.887-0.194,1.319-0.237
	c0.433-0.044,0.808-0.065,1.125-0.065c0.894,0,1.668,0.112,2.325,0.335c0.656,0.224,1.199,0.545,1.633,0.963
	c0.432,0.418,0.752,0.919,0.961,1.503s0.314,1.243,0.314,1.979C273.667,487.195,273.241,488.338,272.391,489.167z M247.392,479.446
	c-0.62,0-1.297,0.079-2.033,0.238c-0.735,0.158-1.485,0.433-2.249,0.821l-0.065,1.73c0.548-0.303,0.973-0.52,1.276-0.649
	s0.624-0.237,0.962-0.324c0.338-0.086,0.677-0.158,1.016-0.216s0.667-0.087,0.984-0.087c1.139,0,1.982,0.249,2.53,0.746
	s0.822,1.33,0.822,2.498v0.13c-0.332-0.044-0.732-0.087-1.2-0.13c-0.469-0.043-0.876-0.065-1.222-0.065
	c-1.831,0-3.302,0.311-4.412,0.931c-1.11,0.619-1.665,1.644-1.665,3.07c0,0.707,0.155,1.305,0.465,1.795
	c0.31,0.49,0.713,0.88,1.211,1.168s1.067,0.497,1.708,0.627c0.641,0.13,1.308,0.194,2,0.194c0.807,0,1.6-0.072,2.378-0.216
	c0.779-0.145,1.536-0.368,2.271-0.671v-7.028c0-1.585-0.397-2.742-1.189-3.471C250.189,479.811,248.992,479.446,247.392,479.446z
	 M250.636,489.892c-0.375,0.144-0.858,0.267-1.449,0.367c-0.591,0.102-1.183,0.151-1.773,0.151c-0.505,0-0.984-0.035-1.438-0.108
	c-0.454-0.071-0.84-0.197-1.157-0.378c-0.317-0.18-0.57-0.414-0.757-0.703c-0.188-0.288-0.281-0.663-0.281-1.124
	c0-0.52,0.111-0.934,0.335-1.244c0.224-0.31,0.533-0.551,0.93-0.724c0.396-0.174,0.85-0.296,1.362-0.368
	c0.511-0.072,1.041-0.108,1.589-0.108c0.476,0,0.984,0.029,1.524,0.087c0.541,0.058,0.912,0.108,1.114,0.151V489.892z
	 M258.032,479.868c-0.649,0.122-1.276,0.263-1.881,0.422v11.418h1.535v-10.186c0.202-0.072,0.563-0.147,1.082-0.228
	c0.519-0.079,1.002-0.118,1.449-0.118h1.989v-1.492H260C259.336,479.685,258.681,479.746,258.032,479.868z M-77.92,487.667
	l241.145,0.656l0.663-0.433l-0.632-0.564L-77.92,487.667z M164.994,487.825l1.95,1.95l1.95-1.95l-1.95-1.95L164.994,487.825z
	 M169.559,487.825l3.057,3.057l3.057-3.057l-3.057-3.057L169.559,487.825z M212.359,489.286l-3.395-9.602h-1.514l-3.396,9.602
	l-2.984-9.602h-1.73l3.979,12.023h1.428l3.46-9.645l3.46,9.645h1.427l3.979-12.023h-1.73L212.359,489.286z M238.418,489.589
	c-0.317,0-0.591,0.115-0.822,0.346c-0.231,0.23-0.346,0.505-0.346,0.822c0,0.316,0.115,0.591,0.346,0.821
	c0.23,0.23,0.504,0.346,0.822,0.346c0.317,0,0.591-0.115,0.822-0.346c0.23-0.23,0.346-0.505,0.346-0.821
	c0-0.317-0.116-0.592-0.346-0.822C239.009,489.704,238.735,489.589,238.418,489.589z M193.243,489.286l-3.395-9.602h-1.514
	l-3.396,9.602l-2.984-9.602h-1.73l3.979,12.023h1.428l3.46-9.645l3.46,9.645h1.427l3.979-12.023h-1.73L193.243,489.286z
	 M231.476,489.286l-3.395-9.602h-1.514l-3.396,9.602l-2.984-9.602h-1.73l3.979,12.023h1.428l3.46-9.645l3.46,9.645h1.427
	l3.979-12.023h-1.73L231.476,489.286z M382.732,480.474c-0.426-0.396-0.938-0.667-1.535-0.812c-0.598-0.144-1.271-0.216-2.021-0.216
	c-0.664,0-1.393,0.09-2.184,0.271c-0.793,0.181-1.471,0.4-2.033,0.659c-0.346-0.331-0.818-0.569-1.416-0.714
	c-0.6-0.144-1.273-0.216-2.023-0.216c-0.635,0-1.268,0.058-1.902,0.173l-2.465,0.454v11.635h1.535v-10.38
	c0.447-0.102,0.883-0.188,1.309-0.26c0.424-0.072,0.896-0.108,1.416-0.108c0.605,0,1.125,0.058,1.557,0.173
	c0.434,0.116,0.789,0.321,1.07,0.616c0.281,0.296,0.494,0.711,0.639,1.244s0.217,1.24,0.217,2.119v6.596h1.535v-7.201
	c0-0.663-0.055-1.243-0.162-1.741c-0.109-0.497-0.213-0.861-0.314-1.092c0.086-0.043,0.281-0.119,0.584-0.228
	c0.303-0.107,0.602-0.197,0.898-0.27c0.295-0.072,0.586-0.126,0.875-0.162s0.547-0.055,0.779-0.055c0.59,0,1.102,0.058,1.535,0.173
	c0.432,0.116,0.781,0.317,1.049,0.605c0.266,0.289,0.471,0.703,0.615,1.244c0.145,0.54,0.217,1.251,0.217,2.13v6.596h1.535v-7.201
	c0-0.995-0.111-1.816-0.336-2.466C383.482,481.393,383.158,480.87,382.732,480.474z M280.1,474.581
	c-0.785,0.648-1.18,1.729-1.18,3.243v1.86h-2.551v1.492h2.551v10.531h1.537v-10.531h4.973v-1.492h-4.973v-1.471
	c0-0.635,0.045-1.149,0.141-1.546c0.094-0.396,0.24-0.707,0.443-0.931c0.201-0.223,0.475-0.385,0.82-0.486
	c0.346-0.101,0.779-0.151,1.299-0.151h2.422v-1.492h-2.271C281.956,473.607,280.885,473.932,280.1,474.581z M398.273,487.825
	l3.057,3.057l3.057-3.057l-3.057-3.057L398.273,487.825z M343.322,482.322c0.389-0.418,0.854-0.749,1.395-0.994
	s1.135-0.368,1.783-0.368c0.736,0,1.373,0.076,1.914,0.228s1.121,0.414,1.74,0.789l0.715-1.405c-0.707-0.39-1.393-0.674-2.055-0.854
	c-0.664-0.181-1.436-0.271-2.314-0.271c-0.85,0-1.639,0.155-2.367,0.465c-0.729,0.311-1.367,0.746-1.914,1.309
	c-0.549,0.563-0.98,1.222-1.297,1.979c-0.317,0.757-0.476,1.59-0.476,2.498s0.158,1.74,0.476,2.497
	c0.316,0.757,0.748,1.413,1.297,1.969c0.547,0.555,1.186,0.987,1.914,1.297c0.729,0.311,1.518,0.465,2.367,0.465
	c0.879,0,1.65-0.09,2.314-0.27c0.662-0.181,1.348-0.466,2.055-0.854l-0.715-1.406c-0.619,0.375-1.199,0.639-1.74,0.79
	s-1.178,0.227-1.914,0.227c-0.648,0-1.242-0.119-1.783-0.356c-0.541-0.238-1.006-0.565-1.395-0.984
	c-0.391-0.418-0.693-0.915-0.908-1.492c-0.217-0.576-0.324-1.203-0.324-1.881s0.107-1.305,0.324-1.882
	C342.628,483.238,342.931,482.741,343.322,482.322z M404.387,487.825l1.949,1.95l1.951-1.95l-1.951-1.95L404.387,487.825z
	 M410.701,487.326l-0.664,0.433l0.633,0.564l241.176-0.341L410.701,487.326z M362.611,481.295c-0.549-0.569-1.193-1.02-1.936-1.352
	c-0.742-0.331-1.547-0.497-2.412-0.497c-0.863,0-1.668,0.166-2.41,0.497c-0.742,0.332-1.389,0.782-1.936,1.352
	c-0.549,0.57-0.977,1.229-1.287,1.979c-0.311,0.749-0.465,1.557-0.465,2.422s0.154,1.672,0.465,2.422s0.738,1.409,1.287,1.979
	c0.547,0.569,1.193,1.017,1.936,1.341s1.547,0.486,2.41,0.486c0.865,0,1.67-0.162,2.412-0.486s1.387-0.771,1.936-1.341
	c0.547-0.569,0.977-1.229,1.287-1.979c0.309-0.75,0.465-1.557,0.465-2.422s-0.156-1.673-0.465-2.422
	C363.587,482.524,363.158,481.865,362.611,481.295z M362.394,487.523c-0.217,0.569-0.52,1.067-0.908,1.492
	c-0.389,0.426-0.857,0.765-1.406,1.017c-0.547,0.252-1.152,0.378-1.816,0.378c-0.662,0-1.268-0.126-1.816-0.378
	c-0.547-0.252-1.016-0.591-1.404-1.017c-0.391-0.425-0.693-0.923-0.908-1.492c-0.217-0.569-0.324-1.179-0.324-1.827
	c0-0.649,0.107-1.262,0.324-1.839c0.215-0.576,0.518-1.077,0.908-1.503c0.389-0.425,0.857-0.764,1.404-1.016
	c0.549-0.252,1.154-0.379,1.816-0.379c0.664,0,1.27,0.127,1.816,0.379c0.549,0.252,1.018,0.591,1.406,1.016
	c0.389,0.426,0.691,0.927,0.908,1.503c0.217,0.577,0.324,1.189,0.324,1.839C362.718,486.345,362.611,486.954,362.394,487.523z
	 M296.221,481.295c-0.547-0.569-1.191-1.02-1.936-1.352c-0.742-0.331-1.545-0.497-2.41-0.497s-1.67,0.166-2.412,0.497
	c-0.742,0.332-1.387,0.782-1.936,1.352c-0.547,0.57-0.977,1.229-1.285,1.979c-0.311,0.749-0.465,1.557-0.465,2.422
	s0.154,1.672,0.465,2.422c0.309,0.75,0.738,1.409,1.285,1.979c0.549,0.569,1.193,1.017,1.936,1.341s1.547,0.486,2.412,0.486
	s1.668-0.162,2.41-0.486c0.744-0.324,1.389-0.771,1.936-1.341c0.549-0.569,0.977-1.229,1.287-1.979s0.465-1.557,0.465-2.422
	s-0.154-1.673-0.465-2.422C297.198,482.524,296.77,481.865,296.221,481.295z M296.006,487.523c-0.217,0.569-0.52,1.067-0.908,1.492
	c-0.391,0.426-0.859,0.765-1.406,1.017c-0.549,0.252-1.154,0.378-1.816,0.378c-0.664,0-1.27-0.126-1.816-0.378
	c-0.549-0.252-1.018-0.591-1.406-1.017c-0.389-0.425-0.691-0.923-0.908-1.492s-0.324-1.179-0.324-1.827
	c0-0.649,0.107-1.262,0.324-1.839c0.217-0.576,0.52-1.077,0.908-1.503c0.389-0.425,0.857-0.764,1.406-1.016
	c0.547-0.252,1.152-0.379,1.816-0.379c0.662,0,1.268,0.127,1.816,0.379c0.547,0.252,1.016,0.591,1.406,1.016
	c0.389,0.426,0.691,0.927,0.908,1.503c0.215,0.577,0.324,1.189,0.324,1.839C296.331,486.345,296.221,486.954,296.006,487.523z
	 M309.381,480.463c-0.455-0.39-0.996-0.656-1.623-0.801c-0.627-0.144-1.309-0.216-2.043-0.216c-0.707,0-1.465,0.047-2.271,0.141
	s-1.701,0.234-2.682,0.422v11.699h1.535v-10.402c1.184-0.23,2.293-0.346,3.33-0.346c0.592,0,1.111,0.062,1.559,0.184
	c0.445,0.123,0.818,0.332,1.113,0.628c0.295,0.295,0.525,0.713,0.691,1.254s0.25,1.251,0.25,2.13v6.553h1.535v-7.201
	c0-0.995-0.119-1.82-0.357-2.477C310.18,481.375,309.834,480.852,309.381,480.463z M318.516,490.054
	c-0.346-0.108-0.619-0.277-0.82-0.509c-0.203-0.23-0.35-0.547-0.443-0.951c-0.096-0.403-0.141-0.922-0.141-1.557v-5.86h4.973v-1.492
	h-4.973v-4.347h-1.537v4.347h-2.551v1.492h2.551v6.466c0,0.764,0.109,1.405,0.326,1.925c0.215,0.519,0.525,0.937,0.93,1.254
	c0.402,0.317,0.867,0.544,1.395,0.682c0.525,0.137,1.105,0.205,1.74,0.205h2.271v-1.492h-2.422
	C319.295,490.216,318.862,490.162,318.516,490.054z M337.784,489.589c-0.316,0-0.59,0.115-0.82,0.346s-0.346,0.505-0.346,0.822
	c0,0.316,0.115,0.591,0.346,0.821s0.504,0.346,0.82,0.346c0.318,0,0.592-0.115,0.822-0.346s0.346-0.505,0.346-0.821
	c0-0.317-0.115-0.592-0.346-0.822S338.102,489.589,337.784,489.589z M333.178,486.106c-0.346-0.303-0.785-0.565-1.318-0.789
	c-0.533-0.223-1.182-0.422-1.947-0.595l-0.799-0.173c-1.053-0.216-1.781-0.461-2.184-0.735c-0.404-0.273-0.607-0.678-0.607-1.211
	c0-0.504,0.238-0.904,0.715-1.2c0.475-0.295,1.174-0.443,2.098-0.443c0.793,0,1.477,0.076,2.055,0.228
	c0.576,0.151,1.217,0.421,1.924,0.811l0.691-1.405c-1.412-0.765-2.969-1.146-4.67-1.146c-0.635,0-1.223,0.076-1.764,0.228
	c-0.539,0.151-1.008,0.364-1.404,0.638s-0.711,0.605-0.941,0.994c-0.23,0.39-0.346,0.815-0.346,1.276
	c0,0.462,0.072,0.88,0.217,1.254c0.143,0.375,0.381,0.707,0.713,0.995s0.758,0.537,1.275,0.746c0.52,0.209,1.146,0.4,1.883,0.573
	l0.908,0.194c1.008,0.217,1.729,0.49,2.162,0.822c0.432,0.331,0.648,0.771,0.648,1.318c0,0.39-0.086,0.707-0.26,0.952
	c-0.172,0.245-0.414,0.436-0.725,0.573c-0.311,0.137-0.678,0.237-1.102,0.303c-0.426,0.064-0.877,0.097-1.352,0.097
	c-0.592,0-1.223-0.09-1.893-0.271c-0.67-0.18-1.352-0.479-2.045-0.897l-0.734,1.471c0.779,0.433,1.539,0.742,2.281,0.93
	s1.539,0.281,2.391,0.281c0.748,0,1.434-0.072,2.053-0.216c0.621-0.145,1.158-0.36,1.611-0.648c0.455-0.289,0.805-0.649,1.049-1.082
	c0.246-0.433,0.369-0.93,0.369-1.492c0-0.476-0.072-0.915-0.217-1.318C333.77,486.763,333.526,486.41,333.178,486.106z"/>
</svg>

