<?xml version="1.0" encoding="utf-8"?>
<!-- Generator: Adobe Illustrator 21.0.0, SVG Export Plug-In . SVG Version: 6.00 Build 0)  -->
<svg version="1.1" id="Layer_1" xmlns="http://www.w3.org/2000/svg" xmlns:xlink="http://www.w3.org/1999/xlink" x="0px" y="0px"
	 viewBox="0 0 800 500" style="enable-background:new 0 0 800 500;" xml:space="preserve">
<style type="text/css">
	.st0{fill-rule:evenodd;clip-rule:evenodd;}
</style>
<g>
	<g>
		<g>
			<g>
				<path fill="#000000" d="M299.7,440.9c0.5,0,0.8,0,1.1,0c0.2,0,0.4,0.1,0.5,0.1c0.3,0,0.4,0,0.5-0.3c0-0.3,0.1-0.5,0.1-0.8
					c-0.2,0-0.5-0.1-0.9-0.2c-0.4-0.1-0.8-0.1-1.3-0.1c-0.4,0-0.8,0-1.2,0.1c-0.4,0.1-0.7,0.2-1,0.4c-0.3,0.2-0.5,0.5-0.7,0.8
					s-0.3,0.7-0.3,1.2c0,0.6,0.2,1.2,0.6,1.6h-0.5c-0.5,0-0.7,0.2-0.7,0.7v0.4h5.7v-0.4c0-0.5-0.2-0.7-0.7-0.7h-1.4
					c-0.2,0-0.5,0-0.7-0.1c-0.2-0.1-0.5-0.1-0.7-0.3c-0.2-0.1-0.4-0.3-0.5-0.5c-0.1-0.2-0.2-0.5-0.2-0.8c0-0.4,0.1-0.7,0.4-1
					C298.3,441,298.8,440.9,299.7,440.9z M307.8,433.5c-0.5,0-0.7,0.2-0.7,0.7v14.3c0,1.3-0.4,2.2-1,2.8c-0.7,0.7-1.8,1-3.3,1h-6.6
					c-0.7,0-1.4-0.1-2.1-0.2c-0.7-0.1-1.3-0.4-1.9-0.8c-0.5-0.4-1-0.9-1.3-1.5c-0.3-0.7-0.5-1.5-0.5-2.6c0-0.7,0-1.2,0.1-1.6
					c0.1-0.4,0.1-0.8,0.2-1.2c0.1-0.4,0-0.6-0.3-0.7c-0.5-0.2-0.9-0.3-1.4-0.5c-0.1,0.3-0.3,0.8-0.4,1.6c-0.2,0.7-0.2,1.6-0.2,2.6
					c0,0.9,0.2,1.8,0.5,2.6c0.3,0.8,0.8,1.5,1.4,2.1c0.6,0.6,1.4,1.1,2.4,1.4c1,0.4,2.1,0.5,3.5,0.5h6.6c1.3,0,2.3-0.2,3.1-0.5
					c0.8-0.3,1.5-0.8,1.9-1.3c0.5-0.6,0.8-1.3,1-2.1c0.2-0.8,0.3-1.8,0.3-2.9v-13.8H307.8z"/>
				<path fill="#000000" d="M317,441.7c-0.5,0-0.7,0.2-0.7,0.7v14.8c0,1.1-0.2,1.8-0.5,2.2c-0.3,0.4-1,0.5-2,0.5c-0.4,0-0.8-0.1-1.3-0.2
					c-0.5-0.2-0.9-0.3-1.2-0.4l-0.3,1c-0.1,0.6,0.1,0.9,0.6,1.1c1,0.3,1.9,0.5,2.6,0.5c1.2,0,2.2-0.4,2.9-1.1c0.7-0.7,1-1.9,1-3.4
					v-15.5H317z"/>
				<path fill="#000000" d="M328.9,452.3c-1.5,0-2.6-0.3-3.3-1c-0.7-0.6-1-1.6-1-2.8v-14.3c0-0.5-0.2-0.7-0.7-0.7h-1.3v13.9c0,1,0.1,2,0.3,2.8
					c0.2,0.8,0.5,1.5,1,2.1c0.5,0.6,1.1,1,1.9,1.3c0.7,0.3,1.5,0.4,2.5,0.5c0.2,0,0.4,0,0.6,0h0.4v-1.8H328.9z"/>
				<path fill="#000000" d="M334.4,457.1c-0.3-0.3-0.6-0.4-1-0.4c-0.4,0-0.7,0.1-1,0.4s-0.4,0.6-0.4,1c0,0.4,0.1,0.7,0.4,1s0.6,0.4,1,0.4
					c0.4,0,0.7-0.1,1-0.4s0.4-0.6,0.4-1C334.8,457.7,334.7,457.4,334.4,457.1z M339,452.3c-0.6,0-1.2-0.1-1.8-0.2
					c-0.6-0.1-1-0.3-1.4-0.5c-0.4-0.2-0.7-0.4-1-0.7v-9.2h-1.3c-0.5,0-0.7,0.2-0.7,0.7v7c0,1-0.2,1.7-0.7,2.2
					c-0.5,0.5-1.3,0.7-2.5,0.7h-1.5v1.8h2.4c1.9,0,3.2-0.6,3.9-1.7c0.3,0.4,0.7,0.7,1.1,0.9c0.4,0.2,0.8,0.4,1.2,0.5
					c0.4,0.1,0.8,0.2,1.2,0.2c0.1,0,0.2,0,0.3,0c0.3,0,0.5,0,0.7,0h0.4v-1.8H339z"/>
				<path fill="#000000" d="M352,441.3c-0.9-0.2-1.8-0.3-2.9-0.3c-1.2,0-2.2,0.2-3.2,0.5c-0.9,0.3-1.7,0.8-2.4,1.3c-0.7,0.6-1.2,1.3-1.5,2.1
					c-0.3,0.8-0.5,1.7-0.5,2.7c0,1,0.1,1.9,0.3,2.7c0.2,0.9,0.4,1.5,0.5,1.9h-3.9v1.8h6.1c0.7,0.2,1.3,0.4,1.9,0.5
					c0.5,0.1,1.1,0.3,1.6,0.4c0.6,0.1,1,0.2,1.3,0.2c0.9,0,1.7-0.1,2.3-0.4c0.6-0.3,1-0.6,1.4-1.1s0.5-0.9,0.7-1.5
					c0.1-0.6,0.2-1.1,0.2-1.7v-8.7C353.4,441.7,352.8,441.6,352,441.3z M351.8,450.7c0,1-0.3,1.6-0.8,2.1c-0.5,0.4-1.2,0.6-2,0.6
					c-0.8,0-1.6-0.1-2.4-0.4c-0.8-0.3-1.6-0.5-2.4-0.8c-0.2-0.3-0.4-0.9-0.6-1.8s-0.3-1.7-0.3-2.5c0-0.6,0.1-1.3,0.3-1.8
					c0.2-0.6,0.6-1.1,1-1.6c0.5-0.5,1-0.8,1.8-1.1c0.7-0.3,1.5-0.4,2.5-0.4c0.5,0,1,0,1.5,0.1c0.5,0.1,0.9,0.2,1.2,0.2V450.7z"/>
				<path fill="#000000" d="M386.5,452.3c-0.7,0-1.3-0.1-1.8-0.2c-0.5-0.1-0.9-0.3-1.3-0.4c-0.3-0.2-0.6-0.3-0.8-0.5c-0.2-0.1-0.3-0.3-0.3-0.3v-9.4
					c-0.2,0-0.5-0.1-0.8-0.2c-0.3-0.1-0.8-0.2-1.2-0.3c-0.5-0.1-1-0.2-1.5-0.2c-0.5-0.1-1-0.1-1.6-0.1c-1.2,0-2.2,0.2-3.1,0.5
					c-0.9,0.3-1.6,0.8-2.2,1.4c-0.6,0.6-1,1.3-1.3,2.1c-0.3,0.8-0.4,1.7-0.4,2.7c0,1.4,0.2,2.4,0.5,3.1c0.3,0.7,0.6,1.2,0.8,1.5
					c-0.8,0.1-1.4,0.3-2,0.5c-0.5,0.2-1,0.5-1.5,1c-0.5,0.4-0.9,1-1.3,1.7c-0.4,0.7-0.5,1.6-0.5,2.6c0,0.6,0,1.3,0.1,1.9
					c0.1,0.6,0.1,1.1,0.2,1.7c0.1,0.5,0.2,1,0.2,1.4c0.1,0.4,0.1,0.7,0.2,1c0.6-0.1,1.1-0.2,1.5-0.3c0.3-0.1,0.4-0.3,0.3-0.7
					c-0.1-0.5-0.2-1.1-0.4-2c-0.1-0.9-0.2-1.8-0.2-2.8c0-0.7,0.2-1.3,0.4-1.8c0.3-0.5,0.7-0.9,1.1-1.3c0.4-0.4,0.9-0.6,1.5-0.8
					c0.6-0.2,1.1-0.3,1.5-0.4c0.6,0.4,1.3,0.7,2.3,1c1,0.3,1.9,0.4,2.9,0.4c1.2,0,2.1-0.2,2.8-0.6c0.6-0.4,1.1-1,1.4-1.7
					c0.3,0.3,0.6,0.6,1.1,0.8c0.4,0.2,0.8,0.3,1.3,0.5c0.4,0.1,0.8,0.2,1.2,0.2c0.1,0,0.2,0,0.3,0c0.3,0,0.5,0,0.7,0h0.2v-1.8H386.5
					z M380.3,450.7c0,0.9-0.3,1.6-0.9,1.9c-0.6,0.3-1.2,0.5-2,0.5c-1.5,0-2.7-0.5-3.8-1.4c-1.1-1-1.6-2.3-1.6-4
					c0-0.9,0.1-1.6,0.3-2.3c0.2-0.6,0.5-1.2,0.9-1.6c0.4-0.4,0.9-0.8,1.5-1c0.6-0.3,1.4-0.4,2.3-0.3c0.7,0,1.2,0.1,1.7,0.2
					c0.5,0.1,1,0.2,1.4,0.4V450.7z"/>
				<path fill="#000000" d="M403,447.1c-0.3-1-0.7-1.9-1.3-2.6c-0.6-0.7-1.4-1.3-2.4-1.6c-1-0.4-2.2-0.6-3.5-0.6h-4.4l9.6-7.3
					c0.3-0.2,0.3-0.4,0.1-0.7c-0.3-0.4-0.6-0.7-1-1l-11.5,8.9c0.2,0.4,0.5,0.8,0.8,1.2c0.2,0.3,0.5,0.5,0.9,0.5h4.6
					c1.4,0,2.6,0.2,3.5,0.5c0.9,0.4,1.6,0.8,2.1,1.4c0.5,0.6,0.8,1.2,1,2c0.2,0.8,0.2,1.5,0.2,2.3v2h-15.8v1.8h17
					c0.4,0,0.6-0.2,0.6-0.7v-3C403.4,449.2,403.3,448.1,403,447.1z"/>
				<path fill="#000000" d="M424,452.3c-0.7,0-1.3-0.1-1.8-0.2c-0.5-0.2-0.9-0.3-1.2-0.5c-0.3-0.2-0.6-0.4-0.8-0.7v-2.3c0-0.8-0.1-1.5-0.3-2.2
					c-0.2-0.8-0.6-1.4-1.2-2.1c-0.6-0.6-1.3-1.2-2.3-1.7c-1-0.5-1.9-0.8-2.8-1c-0.9-0.2-1.6-0.4-2.2-0.5c-0.6-0.1-1.5-0.3-2.5-0.4
					c-0.1,0.4-0.2,0.7-0.2,1.1c-0.1,0.5,0.2,0.8,0.8,0.9c0.6,0.1,1.2,0.2,1.6,0.2s1.1,0.2,2,0.4s1.7,0.5,2.4,0.8
					c0.7,0.3,1.3,0.7,1.7,1.1s0.8,1,1,1.6c0.2,0.7,0.3,1.5,0.3,2.5v3.1h-11.1c-0.5,0-0.7,0.2-0.7,0.7v1.2h10.7
					c0.7,0,1.3-0.1,1.7-0.3c0.4-0.2,0.8-0.5,1-1c0.3,0.3,0.6,0.5,1,0.7c0.4,0.2,0.8,0.3,1.1,0.5c0.4,0.1,0.7,0.2,1,0.2
					c0.1,0,0.2,0,0.3,0c0.2,0,0.4,0,0.5,0h0.3v-1.8H424z"/>
				<path fill="#000000" d="M431.9,456.8c-0.3-0.3-0.6-0.4-1-0.4c-0.4,0-0.7,0.1-1,0.4c-0.3,0.3-0.4,0.6-0.4,1c0,0.4,0.1,0.7,0.4,1
					c0.3,0.3,0.6,0.4,1,0.4c0.4,0,0.7-0.1,1-0.4c0.3-0.3,0.4-0.6,0.4-1C432.3,457.4,432.2,457.1,431.9,456.8z M428.2,456.8
					c-0.3-0.3-0.6-0.4-1-0.4c-0.4,0-0.7,0.1-1,0.4s-0.4,0.6-0.4,1c0,0.4,0.1,0.7,0.4,1s0.6,0.4,1,0.4c0.4,0,0.7-0.1,1-0.4
					s0.4-0.6,0.4-1C428.6,457.4,428.5,457.1,428.2,456.8z M434.3,452.3c-0.6,0-1.2-0.1-1.8-0.2c-0.5-0.1-1-0.3-1.4-0.5
					s-0.7-0.4-1-0.7v-9.2h-1.3c-0.5,0-0.7,0.2-0.7,0.7v7c0,1-0.2,1.7-0.7,2.2c-0.5,0.5-1.3,0.7-2.4,0.7h-1.5v1.8h2.4
					c1.9,0,3.2-0.6,3.9-1.7c0.3,0.4,0.7,0.7,1.1,0.9c0.4,0.2,0.8,0.4,1.2,0.5c0.4,0.1,0.8,0.2,1.2,0.2c0.1,0,0.2,0,0.3,0
					c0.3,0,0.5,0,0.7,0h0.4v-1.8H434.3z"/>
				<path fill="#000000" d="M446.9,452.3h-5.7c-0.3,0-0.6-0.1-1-0.2c-0.4-0.1-0.8-0.4-1.1-0.7c-0.4-0.3-0.7-0.8-1-1.5c-0.3-0.6-0.4-1.5-0.4-2.5
					c0-0.6,0.1-1.2,0.2-1.8c0.1-0.6,0.4-1.1,0.7-1.5c0.3-0.4,0.8-0.7,1.4-1c0.6-0.2,1.3-0.4,2.3-0.4c0.8,0,1.5,0,2,0.1
					c0.5,0.1,1.2,0.1,2,0.3c0.6,0.1,1-0.1,1.1-0.5c0.1-0.4,0.2-0.7,0.3-1c-0.5-0.1-1.2-0.2-2.1-0.4c-0.9-0.2-1.9-0.2-2.9-0.2
					c-1.3,0-2.4,0.2-3.3,0.4c-0.9,0.3-1.5,0.7-2.1,1.3c-0.5,0.5-0.9,1.2-1.1,2c-0.2,0.8-0.3,1.7-0.3,2.7c0,0.8,0.1,1.4,0.2,2
					c0.1,0.6,0.3,1.1,0.5,1.4c0.2,0.4,0.4,0.7,0.5,1c0.2,0.2,0.3,0.4,0.5,0.5h-4v1.8h14V453C447.6,452.5,447.4,452.3,446.9,452.3z"
					/>
			</g>
		</g>
		<g>
			<path fill="#000000" d="M291.6,478.5v-4.9h5.3v-1.5h-5.3v-4.3h5.6v-1.5h-7.4V480h7.7v-1.5H291.6z"/>
			<path fill="#000000" d="M299.8,466.4V480h1.8v-13.6H299.8z"/>
			<path fill="#000000" d="M313.8,468c-1.2-1.1-3-1.7-5.5-1.7c-1.4,0-2.7,0.1-3.7,0.3V480c0.9,0.1,1.9,0.2,3.2,0.2c2.6,0,4.7-0.7,6-2
				c1.3-1.3,2-3.1,2-5.3C315.8,470.7,315.1,469.1,313.8,468z M308.1,478.7c-0.7,0-1.3,0-1.8-0.1v-10.7c0.5-0.1,1.2-0.2,2.1-0.2
				c3.7,0,5.5,2,5.5,5.2C313.9,476.6,311.9,478.7,308.1,478.7z"/>
			<path fill="#000000" d="M322.3,472.2l4.9-5.8H325l-4.1,5.1c-0.3,0.5-0.7,0.9-1.1,1.5h-0.1v-6.5H318V480h1.8v-5.2l1.3-1.5l4.5,6.7h2.1
				L322.3,472.2z"/>
			<path fill="#000000" d="M337.2,466.4v8.1c0,3-1.3,4.3-3.3,4.3c-1.8,0-3.2-1.3-3.2-4.3v-8.1h-1.8v8c0,4.2,2.1,5.8,4.9,5.8c3,0,5.1-1.7,5.1-5.9
				v-7.9H337.2z"/>
			<path fill="#000000" d="M354.6,466.4h-2.2L350,473c-0.6,1.7-1.1,3.2-1.4,4.6h0c-0.4-1.4-0.8-2.9-1.4-4.6l-2.3-6.6h-2.2l-1,13.6h1.7l0.4-5.8
				c0.1-2,0.2-4.3,0.3-6h0c0.4,1.6,0.9,3.3,1.5,5.3l2.2,6.5h1.3l2.4-6.6c0.7-1.9,1.2-3.6,1.7-5.2h0c0,1.7,0.1,4,0.2,5.9l0.3,6h1.7
				L354.6,466.4z"/>
			<path fill="#000000" d="M375.1,466.4h-2.2l-2.4,6.6c-0.6,1.7-1.1,3.2-1.5,4.6h0c-0.4-1.4-0.8-2.9-1.4-4.6l-2.3-6.6H363l-1,13.6h1.7l0.4-5.8
				c0.1-2,0.2-4.3,0.3-6h0c0.4,1.6,0.9,3.3,1.6,5.3l2.2,6.5h1.3l2.4-6.6c0.7-1.9,1.2-3.6,1.7-5.2h0c0,1.7,0.1,4,0.2,5.9l0.3,6h1.7
				L375.1,466.4z"/>
			<path fill="#000000" d="M386.8,466.4v8.1c0,3-1.3,4.3-3.3,4.3c-1.8,0-3.2-1.3-3.2-4.3v-8.1h-1.8v8c0,4.2,2.1,5.8,4.9,5.8c2.9,0,5.1-1.7,5.1-5.9
				v-7.9H386.8z"/>
			<path fill="#000000" d="M397.4,472.8L397.4,472.8c1.4-0.6,2.3-1.7,2.3-3c0-1.1-0.4-1.9-1.1-2.4c-0.8-0.7-2-1-3.7-1c-1.2,0-2.4,0.1-3.2,0.3V480
				c0.6,0.1,1.5,0.2,2.7,0.2c2.2,0,3.8-0.4,4.7-1.3c0.7-0.7,1.2-1.5,1.2-2.7C400.2,474.1,398.7,473.1,397.4,472.8z M393.4,467.8
				c0.3-0.1,0.7-0.1,1.5-0.1c1.8,0,3,0.6,3,2.2c0,1.3-1.1,2.3-2.9,2.3h-1.6V467.8z M394.9,478.8c-0.6,0-1.1,0-1.5-0.1v-5.2h1.5
				c1.9,0,3.5,0.8,3.5,2.6C398.4,478.1,396.7,478.8,394.9,478.8z"/>
			<path fill="#000000" d="M408.3,466.4h-2.1l-4.6,13.6h1.8l1.4-4.3h4.8l1.4,4.3h1.9L408.3,466.4z M405.1,474.4l1.3-3.9c0.3-0.8,0.5-1.7,0.7-2.5h0
				c0.2,0.8,0.4,1.6,0.7,2.5l1.3,3.9H405.1z"/>
			<path fill="#000000" d="M422.7,476.3c-0.3-1.4-0.9-2.4-2-2.7v-0.1c1.4-0.5,2.5-1.7,2.5-3.5c0-1.1-0.4-2-1.1-2.6c-0.8-0.8-2-1.1-3.9-1.1
				c-1.2,0-2.5,0.1-3.4,0.3V480h1.8v-5.9h1.7c1.6,0.1,2.3,0.8,2.7,2.6c0.4,1.7,0.7,2.8,0.9,3.3h1.8
				C423.5,479.5,423.2,478.2,422.7,476.3z M418.5,472.8h-1.8v-5c0.3-0.1,0.9-0.1,1.7-0.1c1.9,0,3.1,0.8,3.1,2.5
				C421.5,471.8,420.3,472.8,418.5,472.8z"/>
			<path fill="#000000" d="M431.5,466.4h-2.1l-4.6,13.6h1.8l1.4-4.3h4.8l1.5,4.3h1.9L431.5,466.4z M428.4,474.4l1.3-3.9c0.3-0.8,0.5-1.7,0.7-2.5h0
				c0.2,0.8,0.4,1.6,0.7,2.5l1.4,3.9H428.4z"/>
			<path fill="#000000" d="M442.5,472.2l4.9-5.8h-2.2l-4.2,5.1c-0.3,0.5-0.7,0.9-1.1,1.5h-0.1v-6.5h-1.8V480h1.8v-5.2l1.3-1.5l4.5,6.7h2.1
				L442.5,472.2z"/>
		</g>
	</g>
	<g>
		<g>
			<g>
				<path fill="#000000" d="M486.1,406c-0.1,1-3.6,4.5-4.1,5.2c-3.2,4.2-6.3,8.4-9.4,12.6c-3.1,4.2-6.2,8.4-9.3,12.6c-0.7,1-3.6,4-3.7,5.3
					c-1.8,15.8,24.1,20.8,24.1,35.8c0-0.8,3.7-4.7,4.1-5.2c3.2-4.2,6.3-8.4,9.4-12.6c3.1-4.2,6.2-8.4,9.3-12.6
					c0.5-0.7,3.7-4.2,3.7-5.3C510.2,426.8,484.3,421.8,486.1,406z"/>
				<path fill="#000000" d="M541.2,406c-0.1,1-3.6,4.5-4.1,5.2c-3.2,4.2-6.3,8.4-9.4,12.6c-3.1,4.2-6.2,8.4-9.3,12.6c-0.7,1-3.6,4-3.7,5.3
					c-1.8,15.8,24.1,20.8,24.1,35.8c0-0.8,3.7-4.7,4.1-5.2c3.2-4.2,6.3-8.4,9.4-12.6c3.1-4.2,6.2-8.4,9.3-12.6
					c0.5-0.7,3.7-4.2,3.7-5.3C565.2,426.8,539.3,421.8,541.2,406z"/>
				<path fill="#000000" d="M121.3,233.6c0,0,0-0.1,0-0.1C121.3,233.8,121.3,233.8,121.3,233.6z"/>
				<path fill="#000000" d="M428,291.1c17.1-40.7,14.9-69.3,12.3-82.2c-0.4-2.3-1-4.6-1.8-6.8c-0.2-0.6-0.3-0.9-0.3-0.9l0,0.1
					c-1.4-3.4-3.3-6.6-6.1-9.6c-14.8-16-40.3-15.7-59.6-10.9c-22.4,5.6-43.5,19.1-64,29.4c-21.2,10.7-42.6,20.9-64.8,29.3
					c-18.3,6.9-40,14.7-59.9,13.4c-12.6-0.9-20.4-9.8-23.3-21.4c-0.9-3.7-1.3-7.5-1.4-11.4c0.3-1.4,0.6-2.7,0.9-4.1
					c2.9-12.5,1.8-26,4.7-38.5c-3.8,16.2-5.9,32.6-7.8,49.1c-1.8,14.8-4.4,30.2-0.7,44.9c9.6,37.8,67.1,12.5,89.3,3.8
					c22.1-8.6,43.4-19.3,64.5-30c20.7-10.4,41.3-22.9,64.2-27.8c9.6-2,20.4-2.4,30,0.1c8.8,2.3,20,6.9,25.6,14.5
					c2.9,3.9,4.7,9.3,4,14.2c-0.4,2.6-1.2,5.7-2.2,8c-4.9-1.8-8.7-7.4-13.2-10.2c-5-3.1-10.4-5.3-16.3-6.1
					c-11.7-1.6-24,0.8-35.2,4.3c-6.4,2-12.7,4.3-18.8,7c-29.2,12.7-57.3,29.3-85.4,44.2c-30.4,16.1-67,36.4-102.4,26.7
					c-39.4-10.8-41.8-52.1-38.5-85.9c0.2-2.2-0.3,1.4-0.4,2c-0.5,3.8-1,7.6-1.5,11.4c-1,7.9-2,15.8-2.8,23.7
					c-3.3,33.7-2.1,70.1,33.4,85.6c34.2,14.8,75.3-8,104.9-23.6c28.3-14.9,56.4-31.1,85.4-44.4c27.8-12.8,63.6-22.5,86.1,4.6
					c0.3-0.6,0.5-1.2,0.7-1.8c-0.2,0.9-0.4,1.9-0.7,2.8C427.3,293.4,427.6,292.3,428,291.1z"/>
				<g>
					<path fill="#000000" d="M401.7,121.1l-0.1,1.2c-1.8,1.7-3.4-0.9-6.6-3c-2.9-2-6.1-3.6-9.3-5c-6.6-3-13.8-4.4-21-4.8c-6.5-0.4-13,0.1-19.4,1.3
						c0.4-1,0.9-2,1.4-3c5.9-1,11.9-1.4,17.9-1c7.2,0.5,14.4,1.8,21,4.8c3.2,1.4,6.4,3,9.3,5c3,2,4.6,4.4,6.2,3.4
						C401.4,120.3,401.5,120.7,401.7,121.1z"/>
					<path fill="#000000" d="M133.4,73.3l-0.4,2c-0.2,1.1-0.3,2.2-0.5,3.3l0.9-5.6C133.4,73.2,133.4,73.2,133.4,73.3z"/>
					<path fill="#000000" d="M407,86.1c-0.4-1.4-0.8-2.8-1.3-4.2c-0.1-0.2-0.1-0.4-0.2-0.6c-0.1-0.2-0.1-0.3-0.2-0.5c0,0,0-0.1,0-0.1
						c-0.6-1.6-1.3-3.2-2.1-4.8c0,0,0-0.1,0-0.1c-2.5-4.9-5.8-9.3-9.6-13.2c-7.9-7.9-19.7-12.9-30.7-8.9
						c-15.1,5.5-18,25.9-19.4,39.6c-0.5,5.1-1,10.3-1.4,15.4c-22.9,5.1-44.9,18.4-64.4,29.6c-26.9,15.5-54.9,34.5-86.2,39.3
						c-16.5,2.5-32.3-1.8-45.1-12.3c-15.2-12.5-14.8-30.1-14.9-48.2c0-5.9,0.2-11.8,0.4-17.7c0.1-1.7,0.2-3.3,0.2-5
						c0.3-5.7,0.6-10.9,0.8-15c0.1-1.5,0.2-2.9,0.3-4.1c0-0.3,0-0.5,0.1-0.7c0-0.1,0-0.2,0-0.3c0.2-2.3,0.3-3.7,0.3-3.9
						c0-0.1,0-0.2,0.1-0.3c0,0.1,0,0.2-0.1,0.2c0,0.1-0.4,1.6-1,4.2c-2.3,9.8-4.3,19.6-5.8,29.5c-0.6,3.8-1.1,7.6-1.6,11.3
						c-0.1-1.2-0.4,1-0.8,6.8c-0.1,1.3-0.2,2.6-0.4,3.9l-0.1,0.4l0,0.1c-0.8,7.9-1.4,15.9-1.7,24c-1,22.8,6.3,42.8,25.1,56.5
						c3.6,2.6,7.3,4.6,11.2,6.1c0.6,0.3,1.3,0.5,1.9,0.7c21.6,7.5,46.2-1,66.5-10.7c30.3-14.4,57.7-34.2,88.5-47.5
						c27.5-11.9,57.8-15.9,82.6,4c0.3,0.2,0.9-0.9,1.6-2.7C415.9,128.7,410.3,98.2,407,86.1z M133,72.5l0.4-2c0-0.1,0-0.1,0-0.2
						l-0.9,5.6C132.7,74.8,132.8,73.6,133,72.5z M401.6,119.6c-0.1,0.1-0.3,0.2-0.4,0.3c-1.7,1-3.3-1.4-6.2-3.4
						c-2.9-2-6.1-3.6-9.3-5c-6.6-3-13.8-4.4-21-4.8c-6-0.4-12,0-17.9,1c-0.5,0.1-1,0.2-1.4,0.2c3.6-8.4,9.6-15.4,19.3-17
						c12.3-2,24,7.2,30.9,16.3c2.6,3.4,4.6,7.1,6.1,11.1L401.6,119.6z"/>
				</g>
				<g>
					<path fill="#000000" d="M623.4,262.7C622.6,228.6,617,197,598,201c-13.3,2.8-22.8,19.3-29.7,29.5c-2.8,4.1-5.4,8.4-7.9,12.7
						c0,0-0.4,0.7-1.1,2.1c-4,7.3-7.4,14.9-9.6,22.9c-3.7,11.6-6.9,26.5-6.4,42.4c0,0.3,0,0.6,0,0.9c0,0.1,0,0.2,0,0.3
						c0.1,2.7,0.6,5.3,1.7,7.8c2.5,5.6,8.3,8.4,14.3,8.2c2.1-0.1,4.2-0.4,6.2-0.8c-4.9,4.5-10,8.9-15.3,13c-9.2,7.2-24,18.5-36.4,13
						c-6.6-2.9-8-11.7-8.6-18c-0.4-3.9-0.2-7.8,0-11.7c0.1-2.2,0.2-4.3,0.3-6.5c0-1.1,1.1-6-0.7-2.2c-7.3,15.5-14.8,31.1-25.8,44.3
						c-10.2,12.1-24.9,19.6-40,11.6c-4.2-2.2-7.1-6-9.1-10.3c-2.1-4.6-2.7-9.8-2.7-14.9c0-2.3,0.1-4.6,0.3-6.9
						c0.1-0.8,0-7.7,0.6-7.9c14.5-6,29.4-6.9,40.8,5.2c1.3,1.4,2.4,2.9,3.4,4.5c-1.6-2.4,2.2-16.4,2.6-19.2
						c0.4-3.1,4.1-16.5,2.2-19.3c-9.4-13.5-25.7-16.3-40.1-10.8c-27,10.2-47.8,31-68.7,50c-27.4,25.1-61.6,45.8-99.8,47.1
						c-10,0.3-21.3-0.3-31-2.9c-15.1-4-27.6-14.1-32.9-28.7c-0.5-1.2-0.8-2.4-1.2-3.7l-2.1-13.8c-0.3-6.3,0.2-12,0.8-16.5
						c0.1-0.9,0.3-1.9,0.4-2.8c1.1-6.9,2.3-13.8,3.7-20.6c0.7-3.6,1.4-7.3,2.4-10.9c0.8-3.2,2-6.3,3.6-9.2l-2-1.8
						c0.2-5.1,0.2-11.2,1.9-15.2c-3.8,9.2-6.9,18.3-9.3,27.5c-2.1,8-3.8,16-5.2,24.1c0,0,0,0,0,0.1c-0.4,2.4-0.8,4.8-1.2,7.2
						c-1.5,9.6-2.6,19.3-3.7,29.3c-0.3,3.1-0.5,6.3-0.6,9.5c-0.4,18.5,3.9,37.2,17.2,50.7c25.1,25.5,69.8,16.6,99.3,5.3
						c26.3-10,46.9-30.1,67.6-48.5c15.6-13.8,31.7-28.1,51.1-36.4c0,0-5.8,29.4-5.7,48.7c0,0.3,0,0.5,0,0.8c0,3,0.2,5.9,0.8,8.7
						c0.1,0.4,0.2,0.8,0.3,1.1c0.1,0.2,0.1,0.5,0.2,0.7c0,0.1,0,0.1,0,0.2c3.5,13.6,14.4,23.7,30.4,20.7
						c17.2-3.3,28.6-23.3,36.2-37.1c4.2-7.6,7.8-15.5,11.6-23.3c-1.4,2.9-0.4,9.2-0.5,12.5c-0.2,4.7,0,9.3,0.7,13.9
						c6,41.8,63.8-15.9,74.3-26.6c14.1-14.3,27.8-29.1,42.6-42.4c0,3.8,0,7.6-0.1,11.4c-0.2,18-1.3,36-2.8,53.9
						c-0.2,2.1,0.3-1.1,0.4-1.9c0,0,0,0,0,0v0c0,0,0,0,0,0c0,0,0,0,0,0s0,0,0,0c0,0,0,0,0,0c0.5-3.8,1-7.5,1.5-11.3
						c1-7.9,2.1-15.8,2.8-23.7c0.4-5.1,1.6-17.1,2.5-31.9c6.9-6,14.1-11.5,21.6-16.6c12-5.5,24-11,35.4-17.7
						c2.1-1.2,2.3-17,2.5-19.2c0-0.4,0.1-1.9,0.3-3.8c0.6-5.1,1.3-10.3,1.9-15.4C684.2,232.6,644.8,245.7,623.4,262.7z M604.1,272.3
						c-3.4,1.6-6.7,3.4-10,5.2c-8.7,4.7-17.6,9.6-27.4,11.1c-15.1,2.2-7.7-11.9-5.5-15.6c6.1-9.9,13-19.8,21.6-27.6
						c13.1-11.9,24.3-4.2,29.2,10.3c1.2,3.6,2.2,7.3,3,11.1C615.2,268.3,605.4,271.7,604.1,272.3z"/>
				</g>
			</g>
			<path fill="#000000" d="M389.4,384.8c0,0-2.6,0.2-3.8-1.6c-1.2-1.8-3-8.6,1.6-5.2c4.6,3.4,7.4,10.6,7.4,10.6s2-15.4,6.8-13.8
				c4.8,1.6,4.2,4.6,4.2,4.6l-1.8,2.2c0,0-1.8-4-3.6-2.8c-1.8,1.2-4.2,2.4-5.2,17.2l-1.4,0.8C393.6,396.7,394,389,389.4,384.8z"/>
			<path fill="#000000" d="M343.7,309.8c0,0-2.6,0.2-3.8-1.6c-1.2-1.8-3-8.6,1.6-5.2c4.6,3.4,7.4,10.6,7.4,10.6s2-15.4,6.8-13.8
				c4.8,1.6,4.2,4.6,4.2,4.6l-1.8,2.2c0,0-1.8-4-3.6-2.8c-1.8,1.2-4.2,2.4-5.2,17.2l-1.4,0.8C347.9,321.7,348.3,313.9,343.7,309.8z"
				/>
			<path fill="#000000" d="M179.7,143.9c0,0-3.2,0.3-4.7-2c-1.5-2.2-3.8-10.7,2-6.5c5.7,4.2,9.3,13.2,9.3,13.2s2.5-19.2,8.5-17.2
				c6,2,5.3,5.8,5.3,5.8l-2.3,2.8c0,0-2.2-5-4.5-3.5c-2.3,1.5-5.2,3-6.5,21.5l-1.7,1C184.9,158.9,185.4,149.1,179.7,143.9z"/>
			<polygon id="XMLID_19_" points="485.7,220.4 485.7,227.2 480.1,231.1 486.6,233.2 488.5,239.7 492.5,234.2 499.3,234.4 
				495.3,228.9 497.6,222.4 491.1,224.5 			"/>
			<path fill="#000000" id="XMLID_15_" d="M139.3,228.3l-4.7-0.5l-2.2-4.2l-2,4.3l-4.7,0.8l3.5,3.2l-0.7,4.7l4.1-2.3l4.3,2.1l-0.9-4.6L139.3,228.3z
				 M133,233.5l-0.4-0.2l-0.4,0.2l-2.7,1.5l0.4-3.1l0.1-0.4l-0.3-0.3l-2.3-2.1l3.1-0.5l0.4-0.1l0.2-0.4l1.3-2.8l1.5,2.7l0.2,0.4
				l0.4,0l3.1,0.4l-2.2,2.2l-0.3,0.3l0.1,0.4l0.6,3L133,233.5z"/>
			<path fill="#000000" id="XMLID_10_" d="M470.2,259.6l-4.7-0.5l-2.2-4.2l-2,4.3l-4.7,0.8l3.5,3.2l-0.7,4.7l4.1-2.3l4.3,2.1l-0.9-4.7L470.2,259.6z
				 M463.9,264.9l-0.4-0.2l-0.4,0.2l-2.7,1.5l0.4-3.1l0.1-0.4l-0.3-0.3l-2.3-2.1l3-0.5l0.4-0.1l0.2-0.4l1.3-2.8l1.4,2.8l0.2,0.4
				l0.4,0l3.1,0.4l-2.1,2.2l-0.3,0.3l0.1,0.4l0.6,3L463.9,264.9z"/>
			<path fill="#000000" id="XMLID_129_" d="M274.9,108.5l-4.7-0.5l-2.2-4.2l-2,4.3l-4.7,0.8l3.5,3.2l-0.7,4.7l4.1-2.3l4.3,2.1l-0.9-4.6L274.9,108.5
				z M268.7,113.7l-0.4-0.2l-0.4,0.2l-2.7,1.5l0.4-3.1l0.1-0.4l-0.3-0.3l-2.3-2.1l3.1-0.5l0.4-0.1l0.2-0.4l1.3-2.8l1.5,2.7l0.2,0.4
				l0.4,0l3.1,0.4l-2.2,2.2l-0.3,0.3l0.1,0.4l0.6,3L268.7,113.7z"/>
			<path fill="#000000" d="M429.1,155.6c3.9-1.5,13-4.4,17.7-10.8c4.8-6.4,5.3-4.7,5.3-4.7s2.6,1.4,1.5,2c-2.3,1.4-3.7-1.6-3.7-1.6l-3,2.9
				c0,0,2.4,0.5,4.3,1.7c1.8,1.2,4.1,0.7,5.1-1.7c1-2.3,0-5.9-1.4-6.7c-1.4-0.8-4.3,1-5.4,2.6c-1.1,1.7-3.8,5.8-6.4,7.2
				c-2.7,1.4-10.7,5.5-15.2,6.9c0,0-17.3,5.8-17.1,5.8C410.9,159.4,423.1,157.9,429.1,155.6z"/>
			<path fill="#000000" d="M551.9,214.5c0.7-0.7,1.5-1.3,2.2-2c-1.9-2.5-3.8-5.1-6.3-8.5c3.9-2.3,7.6-5,11.8-6.8c21.5-9.5,43.1-18.7,64.7-28.1
				c2.5-1.1,4.6-2.9,7-4.4c-0.5-0.7-1-1.3-1.5-2c-1.7,0.5-3.4,0.9-5,1.6c-20.7,9-41.5,17.9-62.1,27.1c-4.8,2.1-9.7,4.6-13.7,8
				c-2.1,1.8-3.5,6-3,8.7C546.3,210.5,549.8,212.4,551.9,214.5z"/>
			<path fill="#000000" id="XMLID_138_" d="M500,292.6c0.2,0,0.4,0,0.5,0.1c0.1,0.1,0.3,0.1,0.5,0.1c1.4,0.1,2.6-0.2,3.5-0.8c1-0.6,1.8-1.4,2.5-2.3
				c0.7-0.9,1.4-1.8,2-2.8c0.6-1,1.3-1.8,2-2.5c-0.3,1.7-0.7,3.5-1.1,5.4c-0.4,1.9-1.1,3.7-1.9,5.4c-0.8,1.7-1.9,3.3-3.3,4.7
				c-1.4,1.4-3.2,2.4-5.3,3.1l-0.9,0c-2-0.1-3.5-0.6-4.6-1.5c-1.1-0.9-2-2-2.6-3.3c-0.6-1.3-1-2.7-1.2-4.3c-0.2-1.6-0.2-3.1-0.2-4.5
				c0.3-7.3,1.9-14,4.9-20c2.9-6,6.4-11.9,10.5-17.6c-0.7,2.4-1.6,4.8-2.7,7.1c-1.1,2.3-2.1,4.7-3.1,7.2c-1,2.5-1.8,5-2.6,7.5
				c-0.8,2.6-1.2,5.2-1.3,7.8c0,0.9-0.1,1.9,0,3.1c0,1.1,0.1,2.2,0.4,3.2c0.2,1,0.7,2,1.3,2.9C498,291.5,498.8,292.1,500,292.6z"/>
			<path fill="#000000" id="XMLID_167_" d="M327.5,72.4c-0.1-0.1-0.2-0.2-0.2-0.3c0-0.1-0.1-0.2-0.2-0.3c-0.7-0.7-1.5-1.2-2.3-1.4
				c-0.8-0.2-1.7-0.2-2.5-0.1c-0.8,0.1-1.7,0.2-2.5,0.4c-0.8,0.2-1.6,0.3-2.4,0.3c1-0.7,2.2-1.5,3.3-2.3c1.2-0.8,2.4-1.4,3.8-1.9
				c1.3-0.5,2.7-0.7,4.2-0.8c1.4,0,2.9,0.3,4.4,1.1l0.4,0.5c1,1.1,1.6,2.1,1.7,3.2c0.1,1.1,0,2.1-0.3,3.1c-0.3,1-0.9,2-1.6,2.9
				c-0.7,0.9-1.5,1.7-2.2,2.5c-3.9,3.7-8.2,6.4-12.8,8c-4.6,1.6-9.5,2.9-14.6,3.9c1.6-0.9,3.3-1.7,5.1-2.4c1.8-0.7,3.6-1.4,5.3-2.2
				c1.8-0.8,3.5-1.7,5.2-2.6c1.7-1,3.3-2.1,4.7-3.5c0.5-0.5,1-1,1.6-1.6c0.6-0.6,1.1-1.2,1.5-1.9c0.4-0.7,0.7-1.4,0.8-2.2
				C327.9,74,327.8,73.2,327.5,72.4z"/>
			<path fill="#000000" id="XMLID_137_" d="M142.4,60.7c0.2,0,0.4,0,0.5,0.1c0.1,0.1,0.3,0.1,0.5,0.1c1.4,0.1,2.6-0.2,3.5-0.8
				c1-0.6,1.8-1.4,2.5-2.3c0.7-0.9,1.4-1.8,2-2.8c0.6-1,1.3-1.8,2-2.5c-0.3,1.7-0.7,3.5-1.1,5.4c-0.4,1.9-1.1,3.7-1.9,5.4
				c-0.8,1.7-1.9,3.3-3.3,4.7c-1.4,1.4-3.2,2.4-5.3,3.1l-0.9,0c-2-0.1-3.5-0.6-4.6-1.5c-1.1-0.9-2-2-2.6-3.3c-0.6-1.3-1-2.7-1.2-4.3
				c-0.2-1.6-0.2-3.1-0.2-4.5c0.3-7.3,1.9-14,4.9-20c2.9-6,6.4-11.9,10.5-17.6c-0.7,2.4-1.6,4.8-2.7,7.1c-1.1,2.3-2.1,4.7-3.1,7.2
				c-1,2.5-1.8,5-2.6,7.5c-0.8,2.6-1.2,5.2-1.3,7.8c0,0.9-0.1,1.9,0,3.1c0,1.1,0.1,2.2,0.4,3.2c0.2,1,0.7,2,1.3,2.9
				C140.4,59.5,141.3,60.2,142.4,60.7z"/>
			<path fill="#000000" id="XMLID_136_" d="M494.6,179.9c2.2,1.6,3.9,5.8,3.8,7.9c-0.1,1.4,0.5,1,0.7,0c0-0.1,0-0.1,0-0.2c0,0,0,0,0,0
				c0,0,0-0.1,0-0.1c0.1-0.3,0.1-0.7,0.1-1c1.1-7.5,10.2-12.6,15-10.6c3.1,1.4,1.8-0.5-0.2-1.4c-4.6-2.1-13,2.3-14.9,9.9
				c-0.8-4.1-4.1-8.9-7.1-10.5c-2.1-1.1-3.8-0.5-4.7,0.9C484.6,179.2,491.7,185.1,494.6,179.9z"/>
			<path fill="#000000" id="XMLID_135_" class="st0" d="M285.9,343.8c2.3,0.2,4.9-0.8,10.4-0.6c3.7,0.3,7.5,0.5,11.2,0.8c0,0.1-0.5,0.2-0.4,0.2
				c-2.1,0.7-4.4,1.3-6.5,2c-1.3,0.2-1.8,0.7-3.3,1c-6.4,1.4-12.2,2.9-18.4,4.6c5.2,1.2,10.8,2,16.3,1.6c6.1-0.3,13.3-5,17-9.8
				c5.2-6.5,1.4-7.1-10.6-6.9c-3.4,0-6.2,0-9.1,0.3c-2.1,0.3-2.4,0.3-3.7,1.9C287.5,340.3,286.6,341.8,285.9,343.8L285.9,343.8z"/>
			<g id="XMLID_133_">
				<path fill="#000000" id="XMLID_134_" d="M633.4,328.4c15.9-9.8,31.1-22.1,48.5-29.1c1.7-0.7,1.2-5.8,2.2-6.2c-8.3,3.6-16,8.7-23.6,13.6
					c-8.2,5.2-16.8,9.9-25.1,15C633.7,322.6,634.6,327.7,633.4,328.4L633.4,328.4z"/>
			</g>
			<g id="XMLID_8_">
				<path fill="#000000" id="XMLID_128_" d="M166.4,96c-1.4-1.1-2.6,3.9-2.8,4.8c-1,4-0.9,6.8,2.4,9.9c1.9,1.7,3.4,3.1,4.5,5.5
					c0.1,0.7,0.3,1.4,0.5,2.1c1.3-2.9,1-3.4-0.8-1.2c-0.9,0.7-2.2,0.8-3.3,1c-2.3,0.3-4.3-0.8-5.5-2.7c-1.5-2.4,0.8-4.7,2.1-6.5
					c0.4-0.6,0.5-2.6,0.9-2.9c-6.1,4.1-9.3,21.4,2.8,18.1c4-1.1,5.5-7.2,6-10.8c0.4-2.7-0.5-4.9-2.3-6.9c-1.8-2.1-8.2-5.1-5-8.2
					C166,97.7,166.6,96.1,166.4,96L166.4,96z"/>
			</g>
		</g>
		<polygon points="133.6,72.3 132,79.2 132.5,79.6 133,79.2 		"/>
	</g>
</g>
<path fill="#000000" d="M273.602,481.306c-0.578-0.576-1.301-1.03-2.174-1.362c-0.873-0.331-1.885-0.497-3.039-0.497
	c-0.663,0-1.463,0.079-2.4,0.238v-6.077h-1.535v17.711c0.706,0.202,1.402,0.354,2.087,0.454s1.301,0.151,1.849,0.151
	c1.153,0,2.166-0.162,3.039-0.486s1.596-0.764,2.174-1.319c0.576-0.555,1.006-1.211,1.287-1.968s0.42-1.561,0.42-2.411
	s-0.139-1.657-0.42-2.422C274.608,482.554,274.178,481.883,273.602,481.306z M272.391,489.167c-0.852,0.829-2.17,1.243-3.958,1.243
	c-0.39,0-0.805-0.032-1.244-0.097c-0.439-0.065-0.84-0.134-1.2-0.206v-8.845c0.447-0.115,0.887-0.194,1.319-0.237
	c0.433-0.044,0.808-0.065,1.125-0.065c0.894,0,1.668,0.112,2.325,0.335c0.656,0.224,1.199,0.545,1.633,0.963
	c0.432,0.418,0.752,0.919,0.961,1.503s0.314,1.243,0.314,1.979C273.667,487.195,273.241,488.338,272.391,489.167z M247.392,479.446
	c-0.62,0-1.297,0.079-2.033,0.238c-0.735,0.158-1.485,0.433-2.249,0.821l-0.065,1.73c0.548-0.303,0.973-0.52,1.276-0.649
	s0.624-0.237,0.962-0.324c0.338-0.086,0.677-0.158,1.016-0.216s0.667-0.087,0.984-0.087c1.139,0,1.982,0.249,2.53,0.746
	s0.822,1.33,0.822,2.498v0.13c-0.332-0.044-0.732-0.087-1.2-0.13c-0.469-0.043-0.876-0.065-1.222-0.065
	c-1.831,0-3.302,0.311-4.412,0.931c-1.11,0.619-1.665,1.644-1.665,3.07c0,0.707,0.155,1.305,0.465,1.795
	c0.31,0.49,0.713,0.88,1.211,1.168s1.067,0.497,1.708,0.627c0.641,0.13,1.308,0.194,2,0.194c0.807,0,1.6-0.072,2.378-0.216
	c0.779-0.145,1.536-0.368,2.271-0.671v-7.028c0-1.585-0.397-2.742-1.189-3.471C250.189,479.811,248.992,479.446,247.392,479.446z
	 M250.636,489.892c-0.375,0.144-0.858,0.267-1.449,0.367c-0.591,0.102-1.183,0.151-1.773,0.151c-0.505,0-0.984-0.035-1.438-0.108
	c-0.454-0.071-0.84-0.197-1.157-0.378c-0.317-0.18-0.57-0.414-0.757-0.703c-0.188-0.288-0.281-0.663-0.281-1.124
	c0-0.52,0.111-0.934,0.335-1.244c0.224-0.31,0.533-0.551,0.93-0.724c0.396-0.174,0.85-0.296,1.362-0.368
	c0.511-0.072,1.041-0.108,1.589-0.108c0.476,0,0.984,0.029,1.524,0.087c0.541,0.058,0.912,0.108,1.114,0.151V489.892z
	 M258.032,479.868c-0.649,0.122-1.276,0.263-1.881,0.422v11.418h1.535v-10.186c0.202-0.072,0.563-0.147,1.082-0.228
	c0.519-0.079,1.002-0.118,1.449-0.118h1.989v-1.492H260C259.336,479.685,258.681,479.746,258.032,479.868z M-77.92,487.667
	l241.145,0.656l0.663-0.433l-0.632-0.564L-77.92,487.667z M164.994,487.825l1.95,1.95l1.95-1.95l-1.95-1.95L164.994,487.825z
	 M169.559,487.825l3.057,3.057l3.057-3.057l-3.057-3.057L169.559,487.825z M212.359,489.286l-3.395-9.602h-1.514l-3.396,9.602
	l-2.984-9.602h-1.73l3.979,12.023h1.428l3.46-9.645l3.46,9.645h1.427l3.979-12.023h-1.73L212.359,489.286z M238.418,489.589
	c-0.317,0-0.591,0.115-0.822,0.346c-0.231,0.23-0.346,0.505-0.346,0.822c0,0.316,0.115,0.591,0.346,0.821
	c0.23,0.23,0.504,0.346,0.822,0.346c0.317,0,0.591-0.115,0.822-0.346c0.23-0.23,0.346-0.505,0.346-0.821
	c0-0.317-0.116-0.592-0.346-0.822C239.009,489.704,238.735,489.589,238.418,489.589z M193.243,489.286l-3.395-9.602h-1.514
	l-3.396,9.602l-2.984-9.602h-1.73l3.979,12.023h1.428l3.46-9.645l3.46,9.645h1.427l3.979-12.023h-1.73L193.243,489.286z
	 M231.476,489.286l-3.395-9.602h-1.514l-3.396,9.602l-2.984-9.602h-1.73l3.979,12.023h1.428l3.46-9.645l3.46,9.645h1.427
	l3.979-12.023h-1.73L231.476,489.286z M382.732,480.474c-0.426-0.396-0.938-0.667-1.535-0.812c-0.598-0.144-1.271-0.216-2.021-0.216
	c-0.664,0-1.393,0.09-2.184,0.271c-0.793,0.181-1.471,0.4-2.033,0.659c-0.346-0.331-0.818-0.569-1.416-0.714
	c-0.6-0.144-1.273-0.216-2.023-0.216c-0.635,0-1.268,0.058-1.902,0.173l-2.465,0.454v11.635h1.535v-10.38
	c0.447-0.102,0.883-0.188,1.309-0.26c0.424-0.072,0.896-0.108,1.416-0.108c0.605,0,1.125,0.058,1.557,0.173
	c0.434,0.116,0.789,0.321,1.07,0.616c0.281,0.296,0.494,0.711,0.639,1.244s0.217,1.24,0.217,2.119v6.596h1.535v-7.201
	c0-0.663-0.055-1.243-0.162-1.741c-0.109-0.497-0.213-0.861-0.314-1.092c0.086-0.043,0.281-0.119,0.584-0.228
	c0.303-0.107,0.602-0.197,0.898-0.27c0.295-0.072,0.586-0.126,0.875-0.162s0.547-0.055,0.779-0.055c0.59,0,1.102,0.058,1.535,0.173
	c0.432,0.116,0.781,0.317,1.049,0.605c0.266,0.289,0.471,0.703,0.615,1.244c0.145,0.54,0.217,1.251,0.217,2.13v6.596h1.535v-7.201
	c0-0.995-0.111-1.816-0.336-2.466C383.482,481.393,383.158,480.87,382.732,480.474z M280.1,474.581
	c-0.785,0.648-1.18,1.729-1.18,3.243v1.86h-2.551v1.492h2.551v10.531h1.537v-10.531h4.973v-1.492h-4.973v-1.471
	c0-0.635,0.045-1.149,0.141-1.546c0.094-0.396,0.24-0.707,0.443-0.931c0.201-0.223,0.475-0.385,0.82-0.486
	c0.346-0.101,0.779-0.151,1.299-0.151h2.422v-1.492h-2.271C281.956,473.607,280.885,473.932,280.1,474.581z M398.273,487.825
	l3.057,3.057l3.057-3.057l-3.057-3.057L398.273,487.825z M343.322,482.322c0.389-0.418,0.854-0.749,1.395-0.994
	s1.135-0.368,1.783-0.368c0.736,0,1.373,0.076,1.914,0.228s1.121,0.414,1.74,0.789l0.715-1.405c-0.707-0.39-1.393-0.674-2.055-0.854
	c-0.664-0.181-1.436-0.271-2.314-0.271c-0.85,0-1.639,0.155-2.367,0.465c-0.729,0.311-1.367,0.746-1.914,1.309
	c-0.549,0.563-0.98,1.222-1.297,1.979c-0.317,0.757-0.476,1.59-0.476,2.498s0.158,1.74,0.476,2.497
	c0.316,0.757,0.748,1.413,1.297,1.969c0.547,0.555,1.186,0.987,1.914,1.297c0.729,0.311,1.518,0.465,2.367,0.465
	c0.879,0,1.65-0.09,2.314-0.27c0.662-0.181,1.348-0.466,2.055-0.854l-0.715-1.406c-0.619,0.375-1.199,0.639-1.74,0.79
	s-1.178,0.227-1.914,0.227c-0.648,0-1.242-0.119-1.783-0.356c-0.541-0.238-1.006-0.565-1.395-0.984
	c-0.391-0.418-0.693-0.915-0.908-1.492c-0.217-0.576-0.324-1.203-0.324-1.881s0.107-1.305,0.324-1.882
	C342.628,483.238,342.931,482.741,343.322,482.322z M404.387,487.825l1.949,1.95l1.951-1.95l-1.951-1.95L404.387,487.825z
	 M410.701,487.326l-0.664,0.433l0.633,0.564l241.176-0.341L410.701,487.326z M362.611,481.295c-0.549-0.569-1.193-1.02-1.936-1.352
	c-0.742-0.331-1.547-0.497-2.412-0.497c-0.863,0-1.668,0.166-2.41,0.497c-0.742,0.332-1.389,0.782-1.936,1.352
	c-0.549,0.57-0.977,1.229-1.287,1.979c-0.311,0.749-0.465,1.557-0.465,2.422s0.154,1.672,0.465,2.422s0.738,1.409,1.287,1.979
	c0.547,0.569,1.193,1.017,1.936,1.341s1.547,0.486,2.41,0.486c0.865,0,1.67-0.162,2.412-0.486s1.387-0.771,1.936-1.341
	c0.547-0.569,0.977-1.229,1.287-1.979c0.309-0.75,0.465-1.557,0.465-2.422s-0.156-1.673-0.465-2.422
	C363.587,482.524,363.158,481.865,362.611,481.295z M362.394,487.523c-0.217,0.569-0.52,1.067-0.908,1.492
	c-0.389,0.426-0.857,0.765-1.406,1.017c-0.547,0.252-1.152,0.378-1.816,0.378c-0.662,0-1.268-0.126-1.816-0.378
	c-0.547-0.252-1.016-0.591-1.404-1.017c-0.391-0.425-0.693-0.923-0.908-1.492c-0.217-0.569-0.324-1.179-0.324-1.827
	c0-0.649,0.107-1.262,0.324-1.839c0.215-0.576,0.518-1.077,0.908-1.503c0.389-0.425,0.857-0.764,1.404-1.016
	c0.549-0.252,1.154-0.379,1.816-0.379c0.664,0,1.27,0.127,1.816,0.379c0.549,0.252,1.018,0.591,1.406,1.016
	c0.389,0.426,0.691,0.927,0.908,1.503c0.217,0.577,0.324,1.189,0.324,1.839C362.718,486.345,362.611,486.954,362.394,487.523z
	 M296.221,481.295c-0.547-0.569-1.191-1.02-1.936-1.352c-0.742-0.331-1.545-0.497-2.41-0.497s-1.67,0.166-2.412,0.497
	c-0.742,0.332-1.387,0.782-1.936,1.352c-0.547,0.57-0.977,1.229-1.285,1.979c-0.311,0.749-0.465,1.557-0.465,2.422
	s0.154,1.672,0.465,2.422c0.309,0.75,0.738,1.409,1.285,1.979c0.549,0.569,1.193,1.017,1.936,1.341s1.547,0.486,2.412,0.486
	s1.668-0.162,2.41-0.486c0.744-0.324,1.389-0.771,1.936-1.341c0.549-0.569,0.977-1.229,1.287-1.979s0.465-1.557,0.465-2.422
	s-0.154-1.673-0.465-2.422C297.198,482.524,296.77,481.865,296.221,481.295z M296.006,487.523c-0.217,0.569-0.52,1.067-0.908,1.492
	c-0.391,0.426-0.859,0.765-1.406,1.017c-0.549,0.252-1.154,0.378-1.816,0.378c-0.664,0-1.27-0.126-1.816-0.378
	c-0.549-0.252-1.018-0.591-1.406-1.017c-0.389-0.425-0.691-0.923-0.908-1.492s-0.324-1.179-0.324-1.827
	c0-0.649,0.107-1.262,0.324-1.839c0.217-0.576,0.52-1.077,0.908-1.503c0.389-0.425,0.857-0.764,1.406-1.016
	c0.547-0.252,1.152-0.379,1.816-0.379c0.662,0,1.268,0.127,1.816,0.379c0.547,0.252,1.016,0.591,1.406,1.016
	c0.389,0.426,0.691,0.927,0.908,1.503c0.215,0.577,0.324,1.189,0.324,1.839C296.331,486.345,296.221,486.954,296.006,487.523z
	 M309.381,480.463c-0.455-0.39-0.996-0.656-1.623-0.801c-0.627-0.144-1.309-0.216-2.043-0.216c-0.707,0-1.465,0.047-2.271,0.141
	s-1.701,0.234-2.682,0.422v11.699h1.535v-10.402c1.184-0.23,2.293-0.346,3.33-0.346c0.592,0,1.111,0.062,1.559,0.184
	c0.445,0.123,0.818,0.332,1.113,0.628c0.295,0.295,0.525,0.713,0.691,1.254s0.25,1.251,0.25,2.13v6.553h1.535v-7.201
	c0-0.995-0.119-1.82-0.357-2.477C310.18,481.375,309.834,480.852,309.381,480.463z M318.516,490.054
	c-0.346-0.108-0.619-0.277-0.82-0.509c-0.203-0.23-0.35-0.547-0.443-0.951c-0.096-0.403-0.141-0.922-0.141-1.557v-5.86h4.973v-1.492
	h-4.973v-4.347h-1.537v4.347h-2.551v1.492h2.551v6.466c0,0.764,0.109,1.405,0.326,1.925c0.215,0.519,0.525,0.937,0.93,1.254
	c0.402,0.317,0.867,0.544,1.395,0.682c0.525,0.137,1.105,0.205,1.74,0.205h2.271v-1.492h-2.422
	C319.295,490.216,318.862,490.162,318.516,490.054z M337.784,489.589c-0.316,0-0.59,0.115-0.82,0.346s-0.346,0.505-0.346,0.822
	c0,0.316,0.115,0.591,0.346,0.821s0.504,0.346,0.82,0.346c0.318,0,0.592-0.115,0.822-0.346s0.346-0.505,0.346-0.821
	c0-0.317-0.115-0.592-0.346-0.822S338.102,489.589,337.784,489.589z M333.178,486.106c-0.346-0.303-0.785-0.565-1.318-0.789
	c-0.533-0.223-1.182-0.422-1.947-0.595l-0.799-0.173c-1.053-0.216-1.781-0.461-2.184-0.735c-0.404-0.273-0.607-0.678-0.607-1.211
	c0-0.504,0.238-0.904,0.715-1.2c0.475-0.295,1.174-0.443,2.098-0.443c0.793,0,1.477,0.076,2.055,0.228
	c0.576,0.151,1.217,0.421,1.924,0.811l0.691-1.405c-1.412-0.765-2.969-1.146-4.67-1.146c-0.635,0-1.223,0.076-1.764,0.228
	c-0.539,0.151-1.008,0.364-1.404,0.638s-0.711,0.605-0.941,0.994c-0.23,0.39-0.346,0.815-0.346,1.276
	c0,0.462,0.072,0.88,0.217,1.254c0.143,0.375,0.381,0.707,0.713,0.995s0.758,0.537,1.275,0.746c0.52,0.209,1.146,0.4,1.883,0.573
	l0.908,0.194c1.008,0.217,1.729,0.49,2.162,0.822c0.432,0.331,0.648,0.771,0.648,1.318c0,0.39-0.086,0.707-0.26,0.952
	c-0.172,0.245-0.414,0.436-0.725,0.573c-0.311,0.137-0.678,0.237-1.102,0.303c-0.426,0.064-0.877,0.097-1.352,0.097
	c-0.592,0-1.223-0.09-1.893-0.271c-0.67-0.18-1.352-0.479-2.045-0.897l-0.734,1.471c0.779,0.433,1.539,0.742,2.281,0.93
	s1.539,0.281,2.391,0.281c0.748,0,1.434-0.072,2.053-0.216c0.621-0.145,1.158-0.36,1.611-0.648c0.455-0.289,0.805-0.649,1.049-1.082
	c0.246-0.433,0.369-0.93,0.369-1.492c0-0.476-0.072-0.915-0.217-1.318C333.77,486.763,333.526,486.41,333.178,486.106z"/>
</svg>

