<?xml version="1.0" encoding="utf-8"?>
<!-- Generator: Adobe Illustrator 21.0.0, SVG Export Plug-In . SVG Version: 6.00 Build 0)  -->
<svg version="1.1" id="Layer_1" xmlns="http://www.w3.org/2000/svg" xmlns:xlink="http://www.w3.org/1999/xlink" x="0px" y="0px"
	 viewBox="0 0 800 500" style="enable-background:new 0 0 800 500;" xml:space="preserve">
<g>
	<g>
		<path fill="#000000" d="M215.2,334.8v-4h-35v1.5h2.5v60h-2.5v1.5h35v-4h-1.4v2.5h-29.6v-29.3h18.6v-1.5h-18.6v-29.3h29.6v2.5H215.2z"/>
		<path fill="#000000" d="M226.3,332.3v-1.5h-6.9v1.5h2.7v60h-2.7v1.5h6.9v-1.5h-2.7v-60H226.3z"/>
		<path fill="#000000" d="M262.1,340.3c-4.4-6.3-9.6-9.4-15.7-9.4h-15.8v1.5h2.5v60h-2.5v1.5h4v-3.7c3.6,3.3,7.5,4.9,11.8,4.9
			c6.1,0,11.4-3.1,15.7-9.4c4.3-6.3,6.5-13.9,6.5-22.7C268.6,354.1,266.5,346.5,262.1,340.3z M261.1,384.6c-4,6-8.9,9-14.7,9
			c-4.3,0-8.3-1.8-11.8-5.5v-55.8h11.8c5.7,0,10.6,3,14.7,9c4.1,6,6.1,13.2,6.1,21.6C267.2,371.4,265.1,378.6,261.1,384.6z"/>
		<path fill="#000000" d="M344.5,332.3v-1.5h-4.2L317,389.6l-23.3-58.8h-4.2v1.5h2.7v60h-2.7v1.5h4.2v-59l23.3,58.8l23.3-58.8v59h4.2v-1.5h-2.8v-60
			H344.5z"/>
		<path fill="#000000" d="M385.8,330.9v46.8c0,4-1.4,7.5-4.3,10.4c-2.9,2.9-6.3,4.3-10.4,4.3h-3.3c-4,0-7.5-1.4-10.3-4.3c-2.9-2.9-4.3-6.3-4.3-10.4
			v-46.8H349v1.5h2.8v45.4c0,4.5,1.6,8.2,4.7,11.4c3.1,3.2,6.9,4.7,11.4,4.7h3.3c4.5,0,8.2-1.6,11.4-4.7c3.2-3.1,4.7-6.9,4.7-11.4
			v-45.4h2.8v-1.5H385.8z"/>
		<path fill="#000000" d="M421.1,362.3c3.3-1,6-2.9,8.1-5.8c2.1-2.8,3.2-6,3.2-9.6c0-4.5-1.6-8.2-4.7-11.4c-3.2-3.2-7-4.7-11.4-4.7h-21.9v1.5h2.5
			v60h-2.5v1.5h21.9c4.4,0,8.2-1.6,11.4-4.7c3.1-3.1,4.7-6.9,4.7-11.4c0-3.6-1.1-6.8-3.2-9.6C427.1,365.3,424.4,363.3,421.1,362.3z
			 M398.4,332.3h17.9c4,0,7.5,1.4,10.4,4.3c2.8,2.9,4.3,6.3,4.3,10.4c0,4-1.4,7.5-4.3,10.4c-2.9,2.8-6.3,4.3-10.4,4.3h-17.9V332.3z
			 M426.7,388c-2.9,2.9-6.3,4.3-10.4,4.3h-17.9v-29.3h17.9c4,0,7.5,1.4,10.4,4.3c2.8,2.9,4.3,6.3,4.3,10.4
			C430.9,381.7,429.5,385.2,426.7,388z"/>
		<path fill="#000000" d="M478.4,392.3l-22.1-61.5H452v1.5h2.8l-21.4,60h-2.7v1.5h3.7l5.3-14.8h32.4l5.3,14.8h3.7v-1.5H478.4z M440.2,377.6
			l15.6-43.8l15.8,43.8H440.2z"/>
		<path fill="#000000" d="M505.3,363h2c4.4,0,8.2-1.6,11.4-4.7c3.2-3.1,4.7-6.9,4.7-11.4c0-4.4-1.6-8.2-4.7-11.4c-3.1-3.2-6.9-4.7-11.4-4.7h-22.1
			v1.4h2.7v60.1h-2.7v1.5h4.2V363h14.3l16.1,30.8h3.6v-1.5h-2.8L505.3,363z M489.4,361.6v-29.3h17.9c4,0,7.5,1.4,10.3,4.3
			c2.9,2.9,4.3,6.3,4.3,10.3c0,4-1.4,7.5-4.3,10.4c-2.9,2.9-6.3,4.3-10.3,4.3H489.4z"/>
		<path fill="#000000" d="M575.3,392.3l-22.1-61.5h-4.3v1.5h2.8l-21.4,60h-2.7v1.5h3.7l5.3-14.8h32.4l5.3,14.8h3.7v-1.5H575.3z M537.1,377.6
			l15.6-43.8l15.8,43.8H537.1z"/>
		<path fill="#000000" d="M619.8,332.3v-1.5h-3.5l-20.5,30.7h-9.5v-30.7h-4.2v1.5h2.7v60h-2.7v1.5h4.2v-30.7h9.5l20.5,30.7h3.5v-1.5h-2.7l-20-30
			l20-30H619.8z"/>
	</g>
	<g>
		<path fill="#000000" d="M360.5,278.1c-11.1,0-20.3-3.5-27.3-10.4c-7-6.9-10.6-16.2-10.6-27.7v-58.4c0-3.7,1.4-7,4-9.6c2.7-2.7,5.9-4,9.6-4
			c3.7,0,7,1.4,9.6,4c2.7,2.7,4,5.9,4,9.6h0.7h0.7h0h0.7h0.7c0-4.5-1.7-8.5-4.9-11.7c-3.3-3.3-7.2-4.9-11.7-4.9
			c-4.5,0-8.5,1.7-11.7,4.9c-3.3,3.3-4.9,7.2-4.9,11.7V240c0,12.3,3.9,22.3,11.5,29.8c7.6,7.5,17.5,11.3,29.4,11.3
			c0.9,0,1.5-0.6,1.5-1.5C362,278.7,361.5,278.1,360.5,278.1z"/>
		<path fill="#000000" d="M741.4,247.8c-4.4,0-8.4,1.3-11.8,3.9l-19,14c-0.5,0.4-0.6,0.8-0.6,1.2c0,0.3,0.1,0.6,0.3,0.9c0.5,0.7,1.4,0.8,2.1,0.3
			l18.9-13.9c3.3-2.2,6.7-3.4,10.1-3.4c3.7,0,7,1.4,9.6,4c2.7,2.7,4,5.9,4,9.6c0,3.7-1.4,7-4,9.6c-2.7,2.7-5.9,4-9.6,4h-64.6
			c-11.5,0-21.3-3.8-29.3-11.3c-7.8-7.3-11.8-17.3-11.9-29.6c0-0.3,0-0.5,0-0.8c0-0.3,0-0.5,0-0.8c0.2-12.3,4.2-22.2,11.9-29.6
			c8-7.5,17.8-11.3,29.3-11.3h64.6c3.7,0,7,1.4,9.6,4c2.7,2.7,4,5.9,4,9.6c0,3.7-1.4,7-4,9.6c-2.7,2.7-5.9,4-9.6,4h-87
			c-0.9,0-1.5,0.6-1.5,1.5c0,0.9,0.6,1.5,1.5,1.5h87c4.5,0,8.5-1.7,11.7-4.9c3.3-3.3,4.9-7.2,4.9-11.7c0-4.5-1.7-8.5-4.9-11.7
			c-3.3-3.3-7.2-4.9-11.7-4.9h-64.6c-12.4,0-22.9,4.1-31.4,12.2c-5.6,5.3-9.4,12-11.3,19.7c-1.9-7.7-5.7-14.4-11.3-19.7
			c-8.5-8.1-19.1-12.2-31.4-12.2h-64.6c-4.5,0-8.5,1.7-11.7,4.9c-3.3,3.3-4.9,7.2-4.9,11.7c0,4.5,1.7,8.5,4.9,11.7
			c3.3,3.3,7.2,4.9,11.7,4.9c4.4,0,8.4-1.3,11.8-3.9l19-14c0.5-0.4,0.6-0.8,0.6-1.2c0-0.3-0.1-0.6-0.3-0.9c-0.5-0.7-1.4-0.8-2.1-0.3
			l-18.9,13.9c-3.3,2.2-6.7,3.4-10.1,3.4c-3.7,0-7-1.4-9.6-4c-2.7-2.7-4-5.9-4-9.6c0-3.7,1.4-7,4-9.6c2.7-2.7,5.9-4,9.6-4h64.6
			c11.5,0,21.3,3.8,29.3,11.3c7.8,7.3,11.8,17.3,11.9,29.6c0,0.3,0,0.5,0,0.8c0,0.3,0,0.5,0,0.8c-0.2,12.3-4.2,22.2-11.9,29.6
			c-8,7.5-17.8,11.3-29.3,11.3h-64.6c-3.7,0-7-1.4-9.6-4c-2.7-2.7-4-5.9-4-9.6c0-3.7,1.4-7,4-9.6c2.7-2.7,5.9-4,9.6-4h87
			c0.9,0,1.5-0.6,1.5-1.5c0-0.9-0.6-1.5-1.5-1.5h-87c-4.5,0-8.5,1.7-11.7,4.9c-3.3,3.3-4.9,7.2-4.9,11.7c0,4.5,1.7,8.5,4.9,11.7
			c3.3,3.3,7.2,4.9,11.7,4.9h64.6c12.4,0,22.9-4.1,31.4-12.2c5.6-5.3,9.4-12,11.3-19.7c1.9,7.7,5.7,14.4,11.3,19.7
			c8.5,8.1,19.1,12.2,31.4,12.2h64.6c4.5,0,8.5-1.7,11.7-4.9c3.3-3.3,4.9-7.2,4.9-11.7c0-4.5-1.7-8.5-4.9-11.7
			C749.9,249.4,746,247.8,741.4,247.8z"/>
		<path fill="#000000" d="M287.1,156.7c-4.5,0-8.5,1.7-11.7,4.9c-3.3,3.3-4.9,7.2-4.9,11.7h1.5c0,0,0,0,0,0h0c0,0,0,0,0,0h1.5c0-3.7,1.4-7,4-9.6
			c2.7-2.7,5.9-4,9.6-4c3.7,0,7,1.4,9.6,4c2.7,2.7,4,5.9,4,9.6V240c0,11.5-3.6,20.8-10.6,27.7c-7.1,6.9-16.2,10.4-27.3,10.4
			c-0.9,0-1.5,0.6-1.5,1.5c0,0.9,0.6,1.5,1.5,1.5c11.9,0,21.8-3.8,29.4-11.3c7.6-7.5,11.5-17.5,11.5-29.8v-66.7
			c0-4.5-1.7-8.5-4.9-11.7C295.6,158.3,291.7,156.7,287.1,156.7z"/>
		<path fill="#000000" d="M253.6,203.8c-8.5-8.1-19.1-12.2-31.4-12.2h-103c-1.9-6.5-2.9-13.7-2.9-21.7c0-17.1,5.8-31.9,17.2-43.9
			c11.4-12,26.9-18.1,46-18.1c10.2,0,18.2,1.9,23.8,5.6c0.5,0.3,0.9,0.4,1.1,0.3c0.3,0,0.6-0.2,1-0.6c0.3-0.5,0.4-0.9,0.3-1.1
			c0-0.3-0.2-0.6-0.7-1c-6.3-4.1-14.9-6.2-25.6-6.2c-13.4,0-25.4,3.1-35.6,9.1c-10.2,6-17.9,14.1-23,23.8
			c-5.1,9.7-7.7,20.5-7.7,32.1c0,7.9,0.9,15.1,2.8,21.7H93.4c-4.5,0-8.5,1.7-11.7,4.9c-3.3,3.3-4.9,7.2-4.9,11.7
			c0,4.5,1.6,8.5,4.9,11.8c3.3,3.3,7.2,4.9,11.7,4.9c4.4,0,8.4-1.3,11.8-3.9l19-14c0.6-0.4,0.8-1,0.5-1.6l0.5-0.3
			c-2.1-3.2-3.8-6.7-5.2-10.5h102c11.5,0,21.3,3.8,29.3,11.3c7.9,7.5,12,17.7,12,30.4c0,12.7-4,22.9-12,30.4
			c-8,7.5-17.8,11.3-29.3,11.3H58.6c-3.7,0-7-1.4-9.6-4c-2.7-2.7-4-5.9-4-9.6c0-3.7,1.4-7,4-9.6c2.7-2.7,5.9-4,9.6-4h186
			c0.9,0,1.5-0.6,1.5-1.5c0-0.9-0.6-1.5-1.5-1.5h-186c-4.5,0-8.5,1.7-11.7,4.9c-3.3,3.3-4.9,7.2-4.9,11.7c0,4.5,1.7,8.5,4.9,11.7
			c3.3,3.3,7.2,4.9,11.7,4.9h163.6c12.4,0,23-4.1,31.4-12.2c8.5-8.1,12.8-19,12.8-32.5S262.1,211.9,253.6,203.8z M121.7,205.2
			l-18.2,13.4c-3.3,2.2-6.7,3.4-10.1,3.4c-3.7,0-7-1.3-9.6-4c-2.7-2.7-4-5.9-4-9.6c0-3.7,1.4-7,4-9.6c2.7-2.7,5.9-4,9.6-4h23.5
			C118.2,198.5,119.8,202,121.7,205.2z"/>
		<path fill="#000000" d="M485.6,224.7c-0.3-1.9-0.7-3.9-1.3-5.9l-0.6-1.5c-3.4-10.1-9.8-18.4-19.1-24.6c-9.3-6.2-21.4-9.3-36-9.3
			c-11.6,0-22.5,2.6-32.5,7.7c-10,5.1-18.2,12.7-24.5,22.7s-9.5,21.5-9.5,34.4h3c0-12.2,3-23.3,9.1-32.8c6-9.5,13.9-16.8,23.4-21.7
			c9.6-4.8,20-7.3,31.1-7.3c13.8,0,25.3,2.9,34.1,8.7c8.5,5.5,14.4,12.8,17.8,21.7h-72.6c-4.8,0-8.2,1.3-10.2,3.9
			c-2,2.5-3,6.4-3,11.5c0,14.2,4.1,26,12.3,35.1c8.1,9.1,19.1,13.7,32.5,13.7c10.5,0,19.8-2.9,27.7-8.7c7.9-5.8,13.5-13.4,16.6-22.7
			l0.5-1.5c0.5-1.8,1-3.8,1.4-6c0.5-2.9,0.8-5.8,0.8-8.6C486.3,230.8,486.1,227.9,485.6,224.7z M483.2,237.5
			c-0.2,2.3-0.5,4.5-1.1,6.7c-0.3,1.2-0.6,2.3-1,3.4l-0.4,1.5c-3.1,8.6-8.3,15.7-15.7,21c-7.3,5.3-16,8-25.6,8
			c-12.6,0-22.8-4.3-30.3-12.8c-7.6-8.5-11.4-19.6-11.4-33c0-4.3,0.8-7.5,2.2-9.5c1.4-2,4.1-3,8-3h73.6c1.3,4.1,1.9,8.7,1.9,13.7
			C483.3,234.9,483.3,236.2,483.2,237.5z"/>
		<circle cx="645.9" cy="293.2" r="12.1"/>
		<circle cx="615.6" cy="293.2" r="12.1"/>
		<circle cx="381.1" cy="269" r="12.1"/>
	</g>
</g>
<path fill="#000000" d="M273.602,481.306c-0.578-0.576-1.301-1.03-2.174-1.362c-0.873-0.331-1.885-0.497-3.039-0.497
	c-0.663,0-1.463,0.079-2.4,0.238v-6.077h-1.535v17.711c0.706,0.202,1.402,0.354,2.087,0.454s1.301,0.151,1.849,0.151
	c1.153,0,2.166-0.162,3.039-0.486s1.596-0.764,2.174-1.319c0.576-0.555,1.006-1.211,1.287-1.968s0.42-1.561,0.42-2.411
	s-0.139-1.657-0.42-2.422C274.608,482.554,274.178,481.883,273.602,481.306z M272.391,489.167c-0.852,0.829-2.17,1.243-3.958,1.243
	c-0.39,0-0.805-0.032-1.244-0.097c-0.439-0.065-0.84-0.134-1.2-0.206v-8.845c0.447-0.115,0.887-0.194,1.319-0.237
	c0.433-0.044,0.808-0.065,1.125-0.065c0.894,0,1.668,0.112,2.325,0.335c0.656,0.224,1.199,0.545,1.633,0.963
	c0.432,0.418,0.752,0.919,0.961,1.503s0.314,1.243,0.314,1.979C273.667,487.195,273.241,488.338,272.391,489.167z M247.392,479.446
	c-0.62,0-1.297,0.079-2.033,0.238c-0.735,0.158-1.485,0.433-2.249,0.821l-0.065,1.73c0.548-0.303,0.973-0.52,1.276-0.649
	s0.624-0.237,0.962-0.324c0.338-0.086,0.677-0.158,1.016-0.216s0.667-0.087,0.984-0.087c1.139,0,1.982,0.249,2.53,0.746
	s0.822,1.33,0.822,2.498v0.13c-0.332-0.044-0.732-0.087-1.2-0.13c-0.469-0.043-0.876-0.065-1.222-0.065
	c-1.831,0-3.302,0.311-4.412,0.931c-1.11,0.619-1.665,1.644-1.665,3.07c0,0.707,0.155,1.305,0.465,1.795
	c0.31,0.49,0.713,0.88,1.211,1.168s1.067,0.497,1.708,0.627c0.641,0.13,1.308,0.194,2,0.194c0.807,0,1.6-0.072,2.378-0.216
	c0.779-0.145,1.536-0.368,2.271-0.671v-7.028c0-1.585-0.397-2.742-1.189-3.471C250.189,479.811,248.992,479.446,247.392,479.446z
	 M250.636,489.892c-0.375,0.144-0.858,0.267-1.449,0.367c-0.591,0.102-1.183,0.151-1.773,0.151c-0.505,0-0.984-0.035-1.438-0.108
	c-0.454-0.071-0.84-0.197-1.157-0.378c-0.317-0.18-0.57-0.414-0.757-0.703c-0.188-0.288-0.281-0.663-0.281-1.124
	c0-0.52,0.111-0.934,0.335-1.244c0.224-0.31,0.533-0.551,0.93-0.724c0.396-0.174,0.85-0.296,1.362-0.368
	c0.511-0.072,1.041-0.108,1.589-0.108c0.476,0,0.984,0.029,1.524,0.087c0.541,0.058,0.912,0.108,1.114,0.151V489.892z
	 M258.032,479.868c-0.649,0.122-1.276,0.263-1.881,0.422v11.418h1.535v-10.186c0.202-0.072,0.563-0.147,1.082-0.228
	c0.519-0.079,1.002-0.118,1.449-0.118h1.989v-1.492H260C259.336,479.685,258.681,479.746,258.032,479.868z M-77.92,487.667
	l241.145,0.656l0.663-0.433l-0.632-0.564L-77.92,487.667z M164.994,487.825l1.95,1.95l1.95-1.95l-1.95-1.95L164.994,487.825z
	 M169.559,487.825l3.057,3.057l3.057-3.057l-3.057-3.057L169.559,487.825z M212.359,489.286l-3.395-9.602h-1.514l-3.396,9.602
	l-2.984-9.602h-1.73l3.979,12.023h1.428l3.46-9.645l3.46,9.645h1.427l3.979-12.023h-1.73L212.359,489.286z M238.418,489.589
	c-0.317,0-0.591,0.115-0.822,0.346c-0.231,0.23-0.346,0.505-0.346,0.822c0,0.316,0.115,0.591,0.346,0.821
	c0.23,0.23,0.504,0.346,0.822,0.346c0.317,0,0.591-0.115,0.822-0.346c0.23-0.23,0.346-0.505,0.346-0.821
	c0-0.317-0.116-0.592-0.346-0.822C239.009,489.704,238.735,489.589,238.418,489.589z M193.243,489.286l-3.395-9.602h-1.514
	l-3.396,9.602l-2.984-9.602h-1.73l3.979,12.023h1.428l3.46-9.645l3.46,9.645h1.427l3.979-12.023h-1.73L193.243,489.286z
	 M231.476,489.286l-3.395-9.602h-1.514l-3.396,9.602l-2.984-9.602h-1.73l3.979,12.023h1.428l3.46-9.645l3.46,9.645h1.427
	l3.979-12.023h-1.73L231.476,489.286z M382.732,480.474c-0.426-0.396-0.938-0.667-1.535-0.812c-0.598-0.144-1.271-0.216-2.021-0.216
	c-0.664,0-1.393,0.09-2.184,0.271c-0.793,0.181-1.471,0.4-2.033,0.659c-0.346-0.331-0.818-0.569-1.416-0.714
	c-0.6-0.144-1.273-0.216-2.023-0.216c-0.635,0-1.268,0.058-1.902,0.173l-2.465,0.454v11.635h1.535v-10.38
	c0.447-0.102,0.883-0.188,1.309-0.26c0.424-0.072,0.896-0.108,1.416-0.108c0.605,0,1.125,0.058,1.557,0.173
	c0.434,0.116,0.789,0.321,1.07,0.616c0.281,0.296,0.494,0.711,0.639,1.244s0.217,1.24,0.217,2.119v6.596h1.535v-7.201
	c0-0.663-0.055-1.243-0.162-1.741c-0.109-0.497-0.213-0.861-0.314-1.092c0.086-0.043,0.281-0.119,0.584-0.228
	c0.303-0.107,0.602-0.197,0.898-0.27c0.295-0.072,0.586-0.126,0.875-0.162s0.547-0.055,0.779-0.055c0.59,0,1.102,0.058,1.535,0.173
	c0.432,0.116,0.781,0.317,1.049,0.605c0.266,0.289,0.471,0.703,0.615,1.244c0.145,0.54,0.217,1.251,0.217,2.13v6.596h1.535v-7.201
	c0-0.995-0.111-1.816-0.336-2.466C383.482,481.393,383.158,480.87,382.732,480.474z M280.1,474.581
	c-0.785,0.648-1.18,1.729-1.18,3.243v1.86h-2.551v1.492h2.551v10.531h1.537v-10.531h4.973v-1.492h-4.973v-1.471
	c0-0.635,0.045-1.149,0.141-1.546c0.094-0.396,0.24-0.707,0.443-0.931c0.201-0.223,0.475-0.385,0.82-0.486
	c0.346-0.101,0.779-0.151,1.299-0.151h2.422v-1.492h-2.271C281.956,473.607,280.885,473.932,280.1,474.581z M398.273,487.825
	l3.057,3.057l3.057-3.057l-3.057-3.057L398.273,487.825z M343.322,482.322c0.389-0.418,0.854-0.749,1.395-0.994
	s1.135-0.368,1.783-0.368c0.736,0,1.373,0.076,1.914,0.228s1.121,0.414,1.74,0.789l0.715-1.405c-0.707-0.39-1.393-0.674-2.055-0.854
	c-0.664-0.181-1.436-0.271-2.314-0.271c-0.85,0-1.639,0.155-2.367,0.465c-0.729,0.311-1.367,0.746-1.914,1.309
	c-0.549,0.563-0.98,1.222-1.297,1.979c-0.317,0.757-0.476,1.59-0.476,2.498s0.158,1.74,0.476,2.497
	c0.316,0.757,0.748,1.413,1.297,1.969c0.547,0.555,1.186,0.987,1.914,1.297c0.729,0.311,1.518,0.465,2.367,0.465
	c0.879,0,1.65-0.09,2.314-0.27c0.662-0.181,1.348-0.466,2.055-0.854l-0.715-1.406c-0.619,0.375-1.199,0.639-1.74,0.79
	s-1.178,0.227-1.914,0.227c-0.648,0-1.242-0.119-1.783-0.356c-0.541-0.238-1.006-0.565-1.395-0.984
	c-0.391-0.418-0.693-0.915-0.908-1.492c-0.217-0.576-0.324-1.203-0.324-1.881s0.107-1.305,0.324-1.882
	C342.628,483.238,342.931,482.741,343.322,482.322z M404.387,487.825l1.949,1.95l1.951-1.95l-1.951-1.95L404.387,487.825z
	 M410.701,487.326l-0.664,0.433l0.633,0.564l241.176-0.341L410.701,487.326z M362.611,481.295c-0.549-0.569-1.193-1.02-1.936-1.352
	c-0.742-0.331-1.547-0.497-2.412-0.497c-0.863,0-1.668,0.166-2.41,0.497c-0.742,0.332-1.389,0.782-1.936,1.352
	c-0.549,0.57-0.977,1.229-1.287,1.979c-0.311,0.749-0.465,1.557-0.465,2.422s0.154,1.672,0.465,2.422s0.738,1.409,1.287,1.979
	c0.547,0.569,1.193,1.017,1.936,1.341s1.547,0.486,2.41,0.486c0.865,0,1.67-0.162,2.412-0.486s1.387-0.771,1.936-1.341
	c0.547-0.569,0.977-1.229,1.287-1.979c0.309-0.75,0.465-1.557,0.465-2.422s-0.156-1.673-0.465-2.422
	C363.587,482.524,363.158,481.865,362.611,481.295z M362.394,487.523c-0.217,0.569-0.52,1.067-0.908,1.492
	c-0.389,0.426-0.857,0.765-1.406,1.017c-0.547,0.252-1.152,0.378-1.816,0.378c-0.662,0-1.268-0.126-1.816-0.378
	c-0.547-0.252-1.016-0.591-1.404-1.017c-0.391-0.425-0.693-0.923-0.908-1.492c-0.217-0.569-0.324-1.179-0.324-1.827
	c0-0.649,0.107-1.262,0.324-1.839c0.215-0.576,0.518-1.077,0.908-1.503c0.389-0.425,0.857-0.764,1.404-1.016
	c0.549-0.252,1.154-0.379,1.816-0.379c0.664,0,1.27,0.127,1.816,0.379c0.549,0.252,1.018,0.591,1.406,1.016
	c0.389,0.426,0.691,0.927,0.908,1.503c0.217,0.577,0.324,1.189,0.324,1.839C362.718,486.345,362.611,486.954,362.394,487.523z
	 M296.221,481.295c-0.547-0.569-1.191-1.02-1.936-1.352c-0.742-0.331-1.545-0.497-2.41-0.497s-1.67,0.166-2.412,0.497
	c-0.742,0.332-1.387,0.782-1.936,1.352c-0.547,0.57-0.977,1.229-1.285,1.979c-0.311,0.749-0.465,1.557-0.465,2.422
	s0.154,1.672,0.465,2.422c0.309,0.75,0.738,1.409,1.285,1.979c0.549,0.569,1.193,1.017,1.936,1.341s1.547,0.486,2.412,0.486
	s1.668-0.162,2.41-0.486c0.744-0.324,1.389-0.771,1.936-1.341c0.549-0.569,0.977-1.229,1.287-1.979s0.465-1.557,0.465-2.422
	s-0.154-1.673-0.465-2.422C297.198,482.524,296.77,481.865,296.221,481.295z M296.006,487.523c-0.217,0.569-0.52,1.067-0.908,1.492
	c-0.391,0.426-0.859,0.765-1.406,1.017c-0.549,0.252-1.154,0.378-1.816,0.378c-0.664,0-1.27-0.126-1.816-0.378
	c-0.549-0.252-1.018-0.591-1.406-1.017c-0.389-0.425-0.691-0.923-0.908-1.492s-0.324-1.179-0.324-1.827
	c0-0.649,0.107-1.262,0.324-1.839c0.217-0.576,0.52-1.077,0.908-1.503c0.389-0.425,0.857-0.764,1.406-1.016
	c0.547-0.252,1.152-0.379,1.816-0.379c0.662,0,1.268,0.127,1.816,0.379c0.547,0.252,1.016,0.591,1.406,1.016
	c0.389,0.426,0.691,0.927,0.908,1.503c0.215,0.577,0.324,1.189,0.324,1.839C296.331,486.345,296.221,486.954,296.006,487.523z
	 M309.381,480.463c-0.455-0.39-0.996-0.656-1.623-0.801c-0.627-0.144-1.309-0.216-2.043-0.216c-0.707,0-1.465,0.047-2.271,0.141
	s-1.701,0.234-2.682,0.422v11.699h1.535v-10.402c1.184-0.23,2.293-0.346,3.33-0.346c0.592,0,1.111,0.062,1.559,0.184
	c0.445,0.123,0.818,0.332,1.113,0.628c0.295,0.295,0.525,0.713,0.691,1.254s0.25,1.251,0.25,2.13v6.553h1.535v-7.201
	c0-0.995-0.119-1.82-0.357-2.477C310.18,481.375,309.834,480.852,309.381,480.463z M318.516,490.054
	c-0.346-0.108-0.619-0.277-0.82-0.509c-0.203-0.23-0.35-0.547-0.443-0.951c-0.096-0.403-0.141-0.922-0.141-1.557v-5.86h4.973v-1.492
	h-4.973v-4.347h-1.537v4.347h-2.551v1.492h2.551v6.466c0,0.764,0.109,1.405,0.326,1.925c0.215,0.519,0.525,0.937,0.93,1.254
	c0.402,0.317,0.867,0.544,1.395,0.682c0.525,0.137,1.105,0.205,1.74,0.205h2.271v-1.492h-2.422
	C319.295,490.216,318.862,490.162,318.516,490.054z M337.784,489.589c-0.316,0-0.59,0.115-0.82,0.346s-0.346,0.505-0.346,0.822
	c0,0.316,0.115,0.591,0.346,0.821s0.504,0.346,0.82,0.346c0.318,0,0.592-0.115,0.822-0.346s0.346-0.505,0.346-0.821
	c0-0.317-0.115-0.592-0.346-0.822S338.102,489.589,337.784,489.589z M333.178,486.106c-0.346-0.303-0.785-0.565-1.318-0.789
	c-0.533-0.223-1.182-0.422-1.947-0.595l-0.799-0.173c-1.053-0.216-1.781-0.461-2.184-0.735c-0.404-0.273-0.607-0.678-0.607-1.211
	c0-0.504,0.238-0.904,0.715-1.2c0.475-0.295,1.174-0.443,2.098-0.443c0.793,0,1.477,0.076,2.055,0.228
	c0.576,0.151,1.217,0.421,1.924,0.811l0.691-1.405c-1.412-0.765-2.969-1.146-4.67-1.146c-0.635,0-1.223,0.076-1.764,0.228
	c-0.539,0.151-1.008,0.364-1.404,0.638s-0.711,0.605-0.941,0.994c-0.23,0.39-0.346,0.815-0.346,1.276
	c0,0.462,0.072,0.88,0.217,1.254c0.143,0.375,0.381,0.707,0.713,0.995s0.758,0.537,1.275,0.746c0.52,0.209,1.146,0.4,1.883,0.573
	l0.908,0.194c1.008,0.217,1.729,0.49,2.162,0.822c0.432,0.331,0.648,0.771,0.648,1.318c0,0.39-0.086,0.707-0.26,0.952
	c-0.172,0.245-0.414,0.436-0.725,0.573c-0.311,0.137-0.678,0.237-1.102,0.303c-0.426,0.064-0.877,0.097-1.352,0.097
	c-0.592,0-1.223-0.09-1.893-0.271c-0.67-0.18-1.352-0.479-2.045-0.897l-0.734,1.471c0.779,0.433,1.539,0.742,2.281,0.93
	s1.539,0.281,2.391,0.281c0.748,0,1.434-0.072,2.053-0.216c0.621-0.145,1.158-0.36,1.611-0.648c0.455-0.289,0.805-0.649,1.049-1.082
	c0.246-0.433,0.369-0.93,0.369-1.492c0-0.476-0.072-0.915-0.217-1.318C333.77,486.763,333.526,486.41,333.178,486.106z"/>
</svg>

