<?xml version="1.0" encoding="utf-8"?>
<!-- Generator: Adobe Illustrator 21.0.0, SVG Export Plug-In . SVG Version: 6.00 Build 0)  -->
<svg version="1.1" id="Layer_1" xmlns="http://www.w3.org/2000/svg" xmlns:xlink="http://www.w3.org/1999/xlink" x="0px" y="0px"
	 viewBox="0 0 800 500" style="enable-background:new 0 0 800 500;" xml:space="preserve">
<g>
	<polygon points="242.2,322.2 265,322.2 265,317.4 242.2,317.4 242.2,302.1 266.1,302.1 266.1,297.3 236.3,297.3 236.3,342.9 
		266.6,342.9 266.6,338.1 242.2,338.1 	"/>
	<rect x="276.4" y="297.3" width="5.9" height="45.6"/>
	<path fill="#000000" d="M310.7,297.3h-16.6v45.6h16.6c15.1,0,22.7-8,22.7-24.1C333.4,304.5,325.8,297.3,310.7,297.3z M310.7,338.1H300v-36h10.7
		c11.2,0,16.8,5.6,16.8,16.8C327.5,331.7,321.9,338.1,310.7,338.1z"/>
	<path fill="#000000" d="M375.9,317.4H370c-5.6,0-8.4-2.4-8.4-7.3c0-5.5,4.1-8.3,12.4-8.3c5.3,0,10.3,0.9,14.8,2.6v-5.4c-4.6-1.3-9.5-1.9-14.8-1.9
		c-12.2,0-18.3,4.4-18.3,13.1c0,8.3,4.8,12.4,14.3,12.4h5.9c5.8,0,8.7,2.4,8.7,7.3c0,5.7-3.9,8.6-11.8,8.6c-5.6,0-10.7-0.9-15.5-2.6
		v5.4c4.8,1.3,10,1.9,15.5,1.9c11.8,0,17.7-4.5,17.7-13.4C390.5,321.5,385.6,317.4,375.9,317.4z"/>
	<polygon points="413.8,297.3 394.5,342.9 400.6,342.9 416.9,303.1 425.4,323.7 413.9,323.7 412.3,328.5 427.4,328.5 433.3,342.9 
		439.8,342.9 420.4,297.3 	"/>
	<polygon points="451.9,322.2 474.8,322.2 474.8,317.4 451.9,317.4 451.9,302.1 475.9,302.1 475.9,297.3 446,297.3 446,342.9 
		476.3,342.9 476.3,338.1 451.9,338.1 	"/>
	<polygon points="491.2,322.2 514,322.2 514,317.4 491.2,317.4 491.2,302.1 515.1,302.1 515.1,297.3 485.3,297.3 485.3,342.9 
		515.6,342.9 515.6,338.1 491.2,338.1 	"/>
	<path fill="#000000" d="M541.1,297.3h-16.6v45.6h16.6c15.1,0,22.7-8,22.7-24.1C563.8,304.5,556.2,297.3,541.1,297.3z M541.1,338.1h-10.7v-36h10.7
		c11.2,0,16.8,5.6,16.8,16.8C557.8,331.7,552.3,338.1,541.1,338.1z"/>
	<path fill="#000000" d="M649.5,265.1c-1.9,0-3.6,0.6-5,1.7h2.8v0c3.7,0,6.7,3,6.7,6.7c0,3.7-3,6.7-6.7,6.7h-2.8c1.4,1,3.1,1.7,5,1.7
		c4.6,0,8.4-3.7,8.4-8.4C657.9,268.9,654.2,265.1,649.5,265.1z"/>
	<path fill="#000000" d="M630.4,273.5c0,2.6,2.1,4.8,4.8,4.8h12.5c2.6,0,4.8-2.1,4.8-4.8c0-2.6-2.1-4.8-4.8-4.8h-12.5
		C632.5,268.7,630.4,270.9,630.4,273.5z"/>
	<path fill="#000000" d="M629.2,273.5c0-3.7,3-6.7,6.7-6.7h3.7c-1.4-1-3.1-1.7-5-1.7c-4.6,0-8.4,3.7-8.4,8.4c0,4.6,3.7,8.4,8.4,8.4
		c1.9,0,3.6-0.6,5-1.7h-3.7C632.2,280.2,629.2,277.2,629.2,273.5z"/>
	<path fill="#000000" d="M607.7,265.1c-1.9,0-3.6,0.6-5,1.7h2.8c3.7,0,6.7,3,6.7,6.7c0,3.7-3,6.7-6.7,6.7h-2.8c1.4,1,3.1,1.7,5,1.7
		c4.6,0,8.4-3.7,8.4-8.4C616.1,268.9,612.4,265.1,607.7,265.1z"/>
	<path fill="#000000" d="M588.6,273.5c0,2.6,2.1,4.8,4.8,4.8h12.5c2.6,0,4.8-2.1,4.8-4.8c0-2.6-2.1-4.8-4.8-4.8h-12.5
		C590.7,268.7,588.6,270.9,588.6,273.5z"/>
	<path fill="#000000" d="M587.4,273.5c0-3.7,3-6.7,6.7-6.7h3.7c-1.4-1-3.1-1.7-5-1.7c-4.6,0-8.4,3.7-8.4,8.4c0,4.6,3.7,8.4,8.4,8.4
		c1.9,0,3.6-0.6,5-1.7h-3.7C590.4,280.2,587.4,277.2,587.4,273.5z"/>
	<path fill="#000000" d="M318.4,156.8c-8.3,0-15.1,6.7-15.1,15.1c0,3.4,1.2,6.4,3,8.9v-5.1h0c0-6.6,5.4-12,12-12c6.7,0,12,5.4,12,12v5.1
		c1.9-2.5,3-5.6,3-8.9C333.5,163.5,326.7,156.8,318.4,156.8z"/>
	<path fill="#000000" d="M318.4,252.8c4.8,0,8.6-3.9,8.6-8.6v-69.1c0-4.7-3.9-8.6-8.6-8.6s-8.6,3.9-8.6,8.6v69.1C309.8,249,313.6,252.8,318.4,252.8
		z"/>
	<path fill="#000000" d="M330.4,242.9c0,6.7-5.4,12.1-12,12.1c-6.7,0-12-5.4-12-12.1v-6.7c-1.9,2.5-3,5.6-3,9c0,8.3,6.7,15.1,15.1,15.1
		s15.1-6.7,15.1-15.1c0-3.4-1.2-6.5-3-9V242.9z"/>
	<path fill="#000000" d="M356.2,175.7c0-6.6,5.4-12,12-12c6.7,0,12.1,5.4,12.1,12v5.1c1.9-2.5,3-5.6,3-8.9c0-8.3-6.7-15.1-15.1-15.1
		c-8.3,0-15.1,6.7-15.1,15.1c0,3.4,1.2,6.5,3,8.9V175.7z"/>
	<path fill="#000000" d="M368.2,166.6c-4.7,0-8.6,3.9-8.6,8.6v69.1c0,4.8,3.9,8.6,8.6,8.6c4.8,0,8.6-3.9,8.6-8.6v-69.1
		C376.8,170.4,373,166.6,368.2,166.6z"/>
	<path fill="#000000" d="M368.2,260.3c8.3,0,15.1-6.7,15.1-15.1c0-3.4-1.1-6.5-3-9v6.7c0,6.7-5.4,12.1-12.1,12.1c-6.6,0-12-5.4-12-12.1v-6.7
		c-1.9,2.5-3,5.6-3,9C353.1,253.5,359.9,260.3,368.2,260.3z"/>
	<path fill="#000000" d="M406,175.7c0-6.6,5.4-12,12-12c6.7,0,12,5.4,12,12v5.1c1.9-2.5,3-5.6,3-8.9c0-8.3-6.7-15.1-15.1-15.1
		c-8.3,0-15.1,6.7-15.1,15.1c0,3.4,1.2,6.5,3,8.9V175.7z"/>
	<path fill="#000000" d="M418,166.6c-4.8,0-8.6,3.9-8.6,8.6v69.1c0,4.8,3.9,8.6,8.6,8.6c4.8,0,8.6-3.9,8.6-8.6v-69.1
		C426.6,170.4,422.8,166.6,418,166.6z"/>
	<path fill="#000000" d="M418,260.3c8.3,0,15.1-6.7,15.1-15.1c0-3.4-1.2-6.5-3-9v6.7c0,6.7-5.4,12.1-12,12.1c-6.7,0-12-5.4-12-12.1v-6.7
		c-1.9,2.5-3,5.6-3,9C402.9,253.5,409.7,260.3,418,260.3z"/>
	<path fill="#000000" d="M467.8,156.8c-8.3,0-15.1,6.7-15.1,15.1c0,3.4,1.2,6.5,3,8.9v-5.1c0-6.6,5.4-12,12-12c6.7,0,12.1,5.4,12.1,12v5.1
		c1.9-2.5,3-5.6,3-8.9C482.9,163.5,476.2,156.8,467.8,156.8z"/>
	<path fill="#000000" d="M467.8,252.8c4.8,0,8.6-3.9,8.6-8.6v-69.1c0-4.7-3.9-8.6-8.6-8.6c-4.7,0-8.6,3.9-8.6,8.6v69.1
		C459.2,249,463.1,252.8,467.8,252.8z"/>
	<path fill="#000000" d="M479.9,242.9c0,6.7-5.4,12.1-12.1,12.1c-6.6,0-12-5.4-12-12.1v-6.7c-1.9,2.5-3,5.6-3,9c0,8.3,6.7,15.1,15.1,15.1
		c8.3,0,15.1-6.7,15.1-15.1c0-3.4-1.1-6.5-3-9V242.9z"/>
	<path fill="#000000" d="M611.8,175.7c0-6.6,5.4-12,12-12c6.7,0,12.1,5.4,12.1,12v5.1c1.9-2.5,3-5.6,3-8.9c0-8.3-6.8-15.1-15.1-15.1
		c-8.3,0-15.1,6.7-15.1,15.1c0,3.4,1.2,6.5,3,8.9V175.7z"/>
	<path fill="#000000" d="M623.9,166.6c-4.7,0-8.6,3.9-8.6,8.6v69.1c0,4.8,3.9,8.6,8.6,8.6c4.8,0,8.6-3.9,8.6-8.6v-69.1
		C632.5,170.4,628.6,166.6,623.9,166.6z"/>
	<path fill="#000000" d="M638.9,245.2c0-3.4-1.1-6.5-3-9v6.7c0,6.7-5.4,12.1-12.1,12.1c-6.6,0-12-5.4-12-12.1v-6.7c-1.9,2.5-3,5.6-3,9
		c0,8.3,6.7,15.1,15.1,15.1C632.2,260.3,638.9,253.5,638.9,245.2z"/>
	<path fill="#000000" d="M715.3,175.9c6.6,0,12,5.4,12,12s-5.4,12-12,12h-5.1c2.5,1.9,5.6,3,8.9,3c8.3,0,15.1-6.7,15.1-15.1s-6.7-15.1-15.1-15.1
		c-3.4,0-6.4,1.2-8.9,3L715.3,175.9L715.3,175.9z"/>
	<path fill="#000000" d="M724.5,188c0-4.8-3.9-8.6-8.6-8.6h-56.7c-4.8,0-8.6,3.9-8.6,8.6s3.9,8.6,8.6,8.6h56.7C720.6,196.6,724.5,192.7,724.5,188z"
		/>
	<path fill="#000000" d="M658.2,203c3.4,0,6.5-1.2,9-3h-6.7c-6.7,0-12.1-5.4-12.1-12s5.4-12,12.1-12h6.7c-2.5-1.9-5.6-3-9-3
		c-8.3,0-15.1,6.7-15.1,15.1S649.9,203,658.2,203z"/>
	<path fill="#000000" d="M719.2,222.7c-3.4,0-6.5,1.2-8.9,3h5.1c6.6,0,12,5.4,12,12c0,6.7-5.4,12.1-12,12.1h-5.1c2.5,1.9,5.6,3,8.9,3
		c8.3,0,15.1-6.7,15.1-15.1C734.2,229.5,727.5,222.7,719.2,222.7z"/>
	<path fill="#000000" d="M650.6,237.8c0,4.8,3.9,8.6,8.6,8.6h56.7c4.7,0,8.6-3.9,8.6-8.6c0-4.7-3.9-8.6-8.6-8.6h-56.7
		C654.4,229.2,650.6,233,650.6,237.8z"/>
	<path fill="#000000" d="M648.4,237.8c0-6.6,5.4-12,12.1-12h6.7c-2.5-1.9-5.6-3-9-3c-8.3,0-15.1,6.7-15.1,15.1c0,8.3,6.7,15.1,15.1,15.1
		c3.4,0,6.5-1.1,9-3h-6.7C653.8,249.8,648.4,244.4,648.4,237.8z"/>
	<path fill="#000000" d="M580.3,175.9c6.6,0,12,5.4,12,12s-5.4,12-12,12h-5.1c2.5,1.9,5.6,3,8.9,3c8.3,0,15.1-6.7,15.1-15.1s-6.7-15.1-15.1-15.1
		c-3.4,0-6.4,1.2-8.9,3L580.3,175.9L580.3,175.9z"/>
	<path fill="#000000" d="M589.5,188c0-4.8-3.9-8.6-8.6-8.6h-56.7c-4.8,0-8.6,3.9-8.6,8.6s3.9,8.6,8.6,8.6h56.7C585.6,196.6,589.5,192.7,589.5,188z"
		/>
	<path fill="#000000" d="M523.2,203c3.4,0,6.5-1.2,9-3h-6.7c-6.7,0-12.1-5.4-12.1-12s5.4-12,12.1-12h6.7c-2.5-1.9-5.6-3-9-3
		c-8.3,0-15.1,6.7-15.1,15.1S514.9,203,523.2,203z"/>
	<path fill="#000000" d="M599.3,237.8c0-8.3-6.7-15.1-15.1-15.1c-3.4,0-6.5,1.2-8.9,3h5.1c6.6,0,12,5.4,12,12c0,6.7-5.4,12.1-12,12.1h-5.1
		c2.5,1.9,5.6,3,8.9,3C592.5,252.8,599.3,246.1,599.3,237.8z"/>
	<path fill="#000000" d="M515.6,237.8c0,4.8,3.9,8.6,8.6,8.6h56.7c4.7,0,8.6-3.9,8.6-8.6c0-4.7-3.9-8.6-8.6-8.6h-56.7
		C519.4,229.2,515.6,233,515.6,237.8z"/>
	<path fill="#000000" d="M525.5,249.8c-6.7,0-12.1-5.4-12.1-12.1c0-6.6,5.4-12,12.1-12h6.7c-2.5-1.9-5.6-3-9-3c-8.3,0-15.1,6.7-15.1,15.1
		c0,8.3,6.7,15.1,15.1,15.1c3.4,0,6.5-1.1,9-3H525.5z"/>
	<path fill="#000000" d="M207.2,265.1c-1.9,0-3.6,0.6-5,1.7h2.8v0c3.7,0,6.7,3,6.7,6.7c0,3.7-3,6.7-6.7,6.7h-2.8c1.4,1,3.1,1.7,5,1.7
		c4.6,0,8.4-3.7,8.4-8.4C215.5,268.9,211.8,265.1,207.2,265.1z"/>
	<path fill="#000000" d="M188,273.5c0,2.6,2.1,4.8,4.8,4.8h12.5c2.6,0,4.8-2.1,4.8-4.8c0-2.6-2.1-4.8-4.8-4.8h-12.5
		C190.2,268.7,188,270.9,188,273.5z"/>
	<path fill="#000000" d="M186.8,273.5c0-3.7,3-6.7,6.7-6.7h3.7c-1.4-1-3.1-1.7-5-1.7c-4.6,0-8.4,3.7-8.4,8.4c0,4.6,3.7,8.4,8.4,8.4
		c1.9,0,3.6-0.6,5-1.7h-3.7C189.8,280.2,186.8,277.2,186.8,273.5z"/>
	<path fill="#000000" d="M165.4,265.1c-1.9,0-3.6,0.6-5,1.7h2.8c3.7,0,6.7,3,6.7,6.7c0,3.7-3,6.7-6.7,6.7h-2.8c1.4,1,3.1,1.7,5,1.7
		c4.6,0,8.4-3.7,8.4-8.4C173.8,268.9,170,265.1,165.4,265.1z"/>
	<path fill="#000000" d="M146.2,273.5c0,2.6,2.1,4.8,4.8,4.8h12.5c2.6,0,4.8-2.1,4.8-4.8c0-2.6-2.1-4.8-4.8-4.8H151
		C148.4,268.7,146.2,270.9,146.2,273.5z"/>
	<path fill="#000000" d="M145.1,273.5c0-3.7,3-6.7,6.7-6.7h3.7c-1.4-1-3.1-1.7-5-1.7c-4.6,0-8.4,3.7-8.4,8.4c0,4.6,3.7,8.4,8.4,8.4
		c1.9,0,3.6-0.6,5-1.7h-3.7C148.1,280.2,145.1,277.2,145.1,273.5z"/>
	<path fill="#000000" d="M169.5,175.7c0-6.6,5.4-12,12-12c6.7,0,12.1,5.4,12.1,12v5.1c1.9-2.5,3-5.6,3-8.9c0-8.3-6.8-15.1-15.1-15.1
		c-8.3,0-15.1,6.7-15.1,15.1c0,3.4,1.2,6.5,3,8.9V175.7z"/>
	<path fill="#000000" d="M181.5,166.6c-4.7,0-8.6,3.9-8.6,8.6v69.1c0,4.8,3.9,8.6,8.6,8.6c4.8,0,8.6-3.9,8.6-8.6v-69.1
		C190.1,170.4,186.3,166.6,181.5,166.6z"/>
	<path fill="#000000" d="M196.6,245.2c0-3.4-1.1-6.5-3-9v6.7c0,6.7-5.4,12.1-12.1,12.1c-6.6,0-12-5.4-12-12.1v-6.7c-1.9,2.5-3,5.6-3,9
		c0,8.3,6.7,15.1,15.1,15.1C189.8,260.3,196.6,253.5,196.6,245.2z"/>
	<path fill="#000000" d="M276.8,172.9c-3.4,0-6.4,1.2-8.9,3h5.1v0c6.6,0,12,5.4,12,12s-5.4,12-12,12h-5.1c2.5,1.9,5.6,3,8.9,3
		c8.3,0,15.1-6.7,15.1-15.1S285.1,172.9,276.8,172.9z"/>
	<path fill="#000000" d="M208.2,188c0,4.8,3.9,8.6,8.6,8.6h56.7c4.7,0,8.6-3.9,8.6-8.6s-3.9-8.6-8.6-8.6h-56.7C212.1,179.3,208.2,183.2,208.2,188z"
		/>
	<path fill="#000000" d="M215.8,203c3.4,0,6.5-1.2,9-3h-6.7c-6.7,0-12.1-5.4-12.1-12s5.4-12,12.1-12h6.7c-2.5-1.9-5.6-3-9-3
		c-8.3,0-15.1,6.7-15.1,15.1S207.5,203,215.8,203z"/>
	<path fill="#000000" d="M276.8,222.7c-3.4,0-6.5,1.2-8.9,3h5.1c6.6,0,12,5.4,12,12c0,6.7-5.4,12.1-12,12.1h-5.1c2.5,1.9,5.6,3,8.9,3
		c8.3,0,15.1-6.7,15.1-15.1C291.9,229.5,285.1,222.7,276.8,222.7z"/>
	<path fill="#000000" d="M208.2,237.8c0,4.8,3.9,8.6,8.6,8.6h56.7c4.7,0,8.6-3.9,8.6-8.6c0-4.7-3.9-8.6-8.6-8.6h-56.7
		C212.1,229.2,208.2,233,208.2,237.8z"/>
	<path fill="#000000" d="M206.1,237.8c0-6.6,5.4-12,12.1-12h6.7c-2.5-1.9-5.6-3-9-3c-8.3,0-15.1,6.7-15.1,15.1c0,8.3,6.7,15.1,15.1,15.1
		c3.4,0,6.5-1.1,9-3h-6.7C211.5,249.8,206.1,244.4,206.1,237.8z"/>
	<path fill="#000000" d="M138,175.9c6.6,0,12,5.4,12,12s-5.4,12-12,12h-5.1c2.5,1.9,5.6,3,8.9,3c8.3,0,15.1-6.7,15.1-15.1s-6.7-15.1-15.1-15.1
		c-3.4,0-6.4,1.2-8.9,3L138,175.9L138,175.9z"/>
	<path fill="#000000" d="M147.1,188c0-4.8-3.9-8.6-8.6-8.6H81.8c-4.8,0-8.6,3.9-8.6,8.6s3.9,8.6,8.6,8.6h56.7C143.3,196.6,147.1,192.7,147.1,188z"
		/>
	<path fill="#000000" d="M80.8,203c3.4,0,6.5-1.2,9-3h-6.7c-6.7,0-12.1-5.4-12.1-12s5.4-12,12.1-12h6.7c-2.5-1.9-5.6-3-9-3
		c-8.3,0-15.1,6.7-15.1,15.1S72.5,203,80.8,203z"/>
	<path fill="#000000" d="M156.9,237.8c0-8.3-6.7-15.1-15.1-15.1c-3.4,0-6.5,1.2-8.9,3h5.1c6.6,0,12,5.4,12,12c0,6.7-5.4,12.1-12,12.1h-5.1
		c2.5,1.9,5.6,3,8.9,3C150.1,252.8,156.9,246.1,156.9,237.8z"/>
	<path fill="#000000" d="M73.2,237.8c0,4.8,3.9,8.6,8.6,8.6h56.7c4.7,0,8.6-3.9,8.6-8.6c0-4.7-3.9-8.6-8.6-8.6H81.8C77.1,229.2,73.2,233,73.2,237.8
		z"/>
	<path fill="#000000" d="M71.1,237.8c0-6.6,5.4-12,12.1-12h6.7c-2.5-1.9-5.6-3-9-3c-8.3,0-15.1,6.7-15.1,15.1c0,8.3,6.7,15.1,15.1,15.1
		c3.4,0,6.5-1.1,9-3h-6.7C76.5,249.8,71.1,244.4,71.1,237.8z"/>
</g>
<path fill="#000000" d="M273.602,481.306c-0.578-0.576-1.301-1.03-2.174-1.362c-0.873-0.331-1.885-0.497-3.039-0.497
	c-0.663,0-1.463,0.079-2.4,0.238v-6.077h-1.535v17.711c0.706,0.202,1.402,0.354,2.087,0.454s1.301,0.151,1.849,0.151
	c1.153,0,2.166-0.162,3.039-0.486s1.596-0.764,2.174-1.319c0.576-0.555,1.006-1.211,1.287-1.968s0.42-1.561,0.42-2.411
	s-0.139-1.657-0.42-2.422C274.608,482.554,274.178,481.883,273.602,481.306z M272.391,489.167c-0.852,0.829-2.17,1.243-3.958,1.243
	c-0.39,0-0.805-0.032-1.244-0.097c-0.439-0.065-0.84-0.134-1.2-0.206v-8.845c0.447-0.115,0.887-0.194,1.319-0.237
	c0.433-0.044,0.808-0.065,1.125-0.065c0.894,0,1.668,0.112,2.325,0.335c0.656,0.224,1.199,0.545,1.633,0.963
	c0.432,0.418,0.752,0.919,0.961,1.503s0.314,1.243,0.314,1.979C273.667,487.195,273.241,488.338,272.391,489.167z M247.392,479.446
	c-0.62,0-1.297,0.079-2.033,0.238c-0.735,0.158-1.485,0.433-2.249,0.821l-0.065,1.73c0.548-0.303,0.973-0.52,1.276-0.649
	s0.624-0.237,0.962-0.324c0.338-0.086,0.677-0.158,1.016-0.216s0.667-0.087,0.984-0.087c1.139,0,1.982,0.249,2.53,0.746
	s0.822,1.33,0.822,2.498v0.13c-0.332-0.044-0.732-0.087-1.2-0.13c-0.469-0.043-0.876-0.065-1.222-0.065
	c-1.831,0-3.302,0.311-4.412,0.931c-1.11,0.619-1.665,1.644-1.665,3.07c0,0.707,0.155,1.305,0.465,1.795
	c0.31,0.49,0.713,0.88,1.211,1.168s1.067,0.497,1.708,0.627c0.641,0.13,1.308,0.194,2,0.194c0.807,0,1.6-0.072,2.378-0.216
	c0.779-0.145,1.536-0.368,2.271-0.671v-7.028c0-1.585-0.397-2.742-1.189-3.471C250.189,479.811,248.992,479.446,247.392,479.446z
	 M250.636,489.892c-0.375,0.144-0.858,0.267-1.449,0.367c-0.591,0.102-1.183,0.151-1.773,0.151c-0.505,0-0.984-0.035-1.438-0.108
	c-0.454-0.071-0.84-0.197-1.157-0.378c-0.317-0.18-0.57-0.414-0.757-0.703c-0.188-0.288-0.281-0.663-0.281-1.124
	c0-0.52,0.111-0.934,0.335-1.244c0.224-0.31,0.533-0.551,0.93-0.724c0.396-0.174,0.85-0.296,1.362-0.368
	c0.511-0.072,1.041-0.108,1.589-0.108c0.476,0,0.984,0.029,1.524,0.087c0.541,0.058,0.912,0.108,1.114,0.151V489.892z
	 M258.032,479.868c-0.649,0.122-1.276,0.263-1.881,0.422v11.418h1.535v-10.186c0.202-0.072,0.563-0.147,1.082-0.228
	c0.519-0.079,1.002-0.118,1.449-0.118h1.989v-1.492H260C259.336,479.685,258.681,479.746,258.032,479.868z M-77.92,487.667
	l241.145,0.656l0.663-0.433l-0.632-0.564L-77.92,487.667z M164.994,487.825l1.95,1.95l1.95-1.95l-1.95-1.95L164.994,487.825z
	 M169.559,487.825l3.057,3.057l3.057-3.057l-3.057-3.057L169.559,487.825z M212.359,489.286l-3.395-9.602h-1.514l-3.396,9.602
	l-2.984-9.602h-1.73l3.979,12.023h1.428l3.46-9.645l3.46,9.645h1.427l3.979-12.023h-1.73L212.359,489.286z M238.418,489.589
	c-0.317,0-0.591,0.115-0.822,0.346c-0.231,0.23-0.346,0.505-0.346,0.822c0,0.316,0.115,0.591,0.346,0.821
	c0.23,0.23,0.504,0.346,0.822,0.346c0.317,0,0.591-0.115,0.822-0.346c0.23-0.23,0.346-0.505,0.346-0.821
	c0-0.317-0.116-0.592-0.346-0.822C239.009,489.704,238.735,489.589,238.418,489.589z M193.243,489.286l-3.395-9.602h-1.514
	l-3.396,9.602l-2.984-9.602h-1.73l3.979,12.023h1.428l3.46-9.645l3.46,9.645h1.427l3.979-12.023h-1.73L193.243,489.286z
	 M231.476,489.286l-3.395-9.602h-1.514l-3.396,9.602l-2.984-9.602h-1.73l3.979,12.023h1.428l3.46-9.645l3.46,9.645h1.427
	l3.979-12.023h-1.73L231.476,489.286z M382.732,480.474c-0.426-0.396-0.938-0.667-1.535-0.812c-0.598-0.144-1.271-0.216-2.021-0.216
	c-0.664,0-1.393,0.09-2.184,0.271c-0.793,0.181-1.471,0.4-2.033,0.659c-0.346-0.331-0.818-0.569-1.416-0.714
	c-0.6-0.144-1.273-0.216-2.023-0.216c-0.635,0-1.268,0.058-1.902,0.173l-2.465,0.454v11.635h1.535v-10.38
	c0.447-0.102,0.883-0.188,1.309-0.26c0.424-0.072,0.896-0.108,1.416-0.108c0.605,0,1.125,0.058,1.557,0.173
	c0.434,0.116,0.789,0.321,1.07,0.616c0.281,0.296,0.494,0.711,0.639,1.244s0.217,1.24,0.217,2.119v6.596h1.535v-7.201
	c0-0.663-0.055-1.243-0.162-1.741c-0.109-0.497-0.213-0.861-0.314-1.092c0.086-0.043,0.281-0.119,0.584-0.228
	c0.303-0.107,0.602-0.197,0.898-0.27c0.295-0.072,0.586-0.126,0.875-0.162s0.547-0.055,0.779-0.055c0.59,0,1.102,0.058,1.535,0.173
	c0.432,0.116,0.781,0.317,1.049,0.605c0.266,0.289,0.471,0.703,0.615,1.244c0.145,0.54,0.217,1.251,0.217,2.13v6.596h1.535v-7.201
	c0-0.995-0.111-1.816-0.336-2.466C383.482,481.393,383.158,480.87,382.732,480.474z M280.1,474.581
	c-0.785,0.648-1.18,1.729-1.18,3.243v1.86h-2.551v1.492h2.551v10.531h1.537v-10.531h4.973v-1.492h-4.973v-1.471
	c0-0.635,0.045-1.149,0.141-1.546c0.094-0.396,0.24-0.707,0.443-0.931c0.201-0.223,0.475-0.385,0.82-0.486
	c0.346-0.101,0.779-0.151,1.299-0.151h2.422v-1.492h-2.271C281.956,473.607,280.885,473.932,280.1,474.581z M398.273,487.825
	l3.057,3.057l3.057-3.057l-3.057-3.057L398.273,487.825z M343.322,482.322c0.389-0.418,0.854-0.749,1.395-0.994
	s1.135-0.368,1.783-0.368c0.736,0,1.373,0.076,1.914,0.228s1.121,0.414,1.74,0.789l0.715-1.405c-0.707-0.39-1.393-0.674-2.055-0.854
	c-0.664-0.181-1.436-0.271-2.314-0.271c-0.85,0-1.639,0.155-2.367,0.465c-0.729,0.311-1.367,0.746-1.914,1.309
	c-0.549,0.563-0.98,1.222-1.297,1.979c-0.317,0.757-0.476,1.59-0.476,2.498s0.158,1.74,0.476,2.497
	c0.316,0.757,0.748,1.413,1.297,1.969c0.547,0.555,1.186,0.987,1.914,1.297c0.729,0.311,1.518,0.465,2.367,0.465
	c0.879,0,1.65-0.09,2.314-0.27c0.662-0.181,1.348-0.466,2.055-0.854l-0.715-1.406c-0.619,0.375-1.199,0.639-1.74,0.79
	s-1.178,0.227-1.914,0.227c-0.648,0-1.242-0.119-1.783-0.356c-0.541-0.238-1.006-0.565-1.395-0.984
	c-0.391-0.418-0.693-0.915-0.908-1.492c-0.217-0.576-0.324-1.203-0.324-1.881s0.107-1.305,0.324-1.882
	C342.628,483.238,342.931,482.741,343.322,482.322z M404.387,487.825l1.949,1.95l1.951-1.95l-1.951-1.95L404.387,487.825z
	 M410.701,487.326l-0.664,0.433l0.633,0.564l241.176-0.341L410.701,487.326z M362.611,481.295c-0.549-0.569-1.193-1.02-1.936-1.352
	c-0.742-0.331-1.547-0.497-2.412-0.497c-0.863,0-1.668,0.166-2.41,0.497c-0.742,0.332-1.389,0.782-1.936,1.352
	c-0.549,0.57-0.977,1.229-1.287,1.979c-0.311,0.749-0.465,1.557-0.465,2.422s0.154,1.672,0.465,2.422s0.738,1.409,1.287,1.979
	c0.547,0.569,1.193,1.017,1.936,1.341s1.547,0.486,2.41,0.486c0.865,0,1.67-0.162,2.412-0.486s1.387-0.771,1.936-1.341
	c0.547-0.569,0.977-1.229,1.287-1.979c0.309-0.75,0.465-1.557,0.465-2.422s-0.156-1.673-0.465-2.422
	C363.587,482.524,363.158,481.865,362.611,481.295z M362.394,487.523c-0.217,0.569-0.52,1.067-0.908,1.492
	c-0.389,0.426-0.857,0.765-1.406,1.017c-0.547,0.252-1.152,0.378-1.816,0.378c-0.662,0-1.268-0.126-1.816-0.378
	c-0.547-0.252-1.016-0.591-1.404-1.017c-0.391-0.425-0.693-0.923-0.908-1.492c-0.217-0.569-0.324-1.179-0.324-1.827
	c0-0.649,0.107-1.262,0.324-1.839c0.215-0.576,0.518-1.077,0.908-1.503c0.389-0.425,0.857-0.764,1.404-1.016
	c0.549-0.252,1.154-0.379,1.816-0.379c0.664,0,1.27,0.127,1.816,0.379c0.549,0.252,1.018,0.591,1.406,1.016
	c0.389,0.426,0.691,0.927,0.908,1.503c0.217,0.577,0.324,1.189,0.324,1.839C362.718,486.345,362.611,486.954,362.394,487.523z
	 M296.221,481.295c-0.547-0.569-1.191-1.02-1.936-1.352c-0.742-0.331-1.545-0.497-2.41-0.497s-1.67,0.166-2.412,0.497
	c-0.742,0.332-1.387,0.782-1.936,1.352c-0.547,0.57-0.977,1.229-1.285,1.979c-0.311,0.749-0.465,1.557-0.465,2.422
	s0.154,1.672,0.465,2.422c0.309,0.75,0.738,1.409,1.285,1.979c0.549,0.569,1.193,1.017,1.936,1.341s1.547,0.486,2.412,0.486
	s1.668-0.162,2.41-0.486c0.744-0.324,1.389-0.771,1.936-1.341c0.549-0.569,0.977-1.229,1.287-1.979s0.465-1.557,0.465-2.422
	s-0.154-1.673-0.465-2.422C297.198,482.524,296.77,481.865,296.221,481.295z M296.006,487.523c-0.217,0.569-0.52,1.067-0.908,1.492
	c-0.391,0.426-0.859,0.765-1.406,1.017c-0.549,0.252-1.154,0.378-1.816,0.378c-0.664,0-1.27-0.126-1.816-0.378
	c-0.549-0.252-1.018-0.591-1.406-1.017c-0.389-0.425-0.691-0.923-0.908-1.492s-0.324-1.179-0.324-1.827
	c0-0.649,0.107-1.262,0.324-1.839c0.217-0.576,0.52-1.077,0.908-1.503c0.389-0.425,0.857-0.764,1.406-1.016
	c0.547-0.252,1.152-0.379,1.816-0.379c0.662,0,1.268,0.127,1.816,0.379c0.547,0.252,1.016,0.591,1.406,1.016
	c0.389,0.426,0.691,0.927,0.908,1.503c0.215,0.577,0.324,1.189,0.324,1.839C296.331,486.345,296.221,486.954,296.006,487.523z
	 M309.381,480.463c-0.455-0.39-0.996-0.656-1.623-0.801c-0.627-0.144-1.309-0.216-2.043-0.216c-0.707,0-1.465,0.047-2.271,0.141
	s-1.701,0.234-2.682,0.422v11.699h1.535v-10.402c1.184-0.23,2.293-0.346,3.33-0.346c0.592,0,1.111,0.062,1.559,0.184
	c0.445,0.123,0.818,0.332,1.113,0.628c0.295,0.295,0.525,0.713,0.691,1.254s0.25,1.251,0.25,2.13v6.553h1.535v-7.201
	c0-0.995-0.119-1.82-0.357-2.477C310.18,481.375,309.834,480.852,309.381,480.463z M318.516,490.054
	c-0.346-0.108-0.619-0.277-0.82-0.509c-0.203-0.23-0.35-0.547-0.443-0.951c-0.096-0.403-0.141-0.922-0.141-1.557v-5.86h4.973v-1.492
	h-4.973v-4.347h-1.537v4.347h-2.551v1.492h2.551v6.466c0,0.764,0.109,1.405,0.326,1.925c0.215,0.519,0.525,0.937,0.93,1.254
	c0.402,0.317,0.867,0.544,1.395,0.682c0.525,0.137,1.105,0.205,1.74,0.205h2.271v-1.492h-2.422
	C319.295,490.216,318.862,490.162,318.516,490.054z M337.784,489.589c-0.316,0-0.59,0.115-0.82,0.346s-0.346,0.505-0.346,0.822
	c0,0.316,0.115,0.591,0.346,0.821s0.504,0.346,0.82,0.346c0.318,0,0.592-0.115,0.822-0.346s0.346-0.505,0.346-0.821
	c0-0.317-0.115-0.592-0.346-0.822S338.102,489.589,337.784,489.589z M333.178,486.106c-0.346-0.303-0.785-0.565-1.318-0.789
	c-0.533-0.223-1.182-0.422-1.947-0.595l-0.799-0.173c-1.053-0.216-1.781-0.461-2.184-0.735c-0.404-0.273-0.607-0.678-0.607-1.211
	c0-0.504,0.238-0.904,0.715-1.2c0.475-0.295,1.174-0.443,2.098-0.443c0.793,0,1.477,0.076,2.055,0.228
	c0.576,0.151,1.217,0.421,1.924,0.811l0.691-1.405c-1.412-0.765-2.969-1.146-4.67-1.146c-0.635,0-1.223,0.076-1.764,0.228
	c-0.539,0.151-1.008,0.364-1.404,0.638s-0.711,0.605-0.941,0.994c-0.23,0.39-0.346,0.815-0.346,1.276
	c0,0.462,0.072,0.88,0.217,1.254c0.143,0.375,0.381,0.707,0.713,0.995s0.758,0.537,1.275,0.746c0.52,0.209,1.146,0.4,1.883,0.573
	l0.908,0.194c1.008,0.217,1.729,0.49,2.162,0.822c0.432,0.331,0.648,0.771,0.648,1.318c0,0.39-0.086,0.707-0.26,0.952
	c-0.172,0.245-0.414,0.436-0.725,0.573c-0.311,0.137-0.678,0.237-1.102,0.303c-0.426,0.064-0.877,0.097-1.352,0.097
	c-0.592,0-1.223-0.09-1.893-0.271c-0.67-0.18-1.352-0.479-2.045-0.897l-0.734,1.471c0.779,0.433,1.539,0.742,2.281,0.93
	s1.539,0.281,2.391,0.281c0.748,0,1.434-0.072,2.053-0.216c0.621-0.145,1.158-0.36,1.611-0.648c0.455-0.289,0.805-0.649,1.049-1.082
	c0.246-0.433,0.369-0.93,0.369-1.492c0-0.476-0.072-0.915-0.217-1.318C333.77,486.763,333.526,486.41,333.178,486.106z"/>
</svg>

