<?xml version="1.0" encoding="utf-8"?>
<!-- Generator: Adobe Illustrator 21.0.0, SVG Export Plug-In . SVG Version: 6.00 Build 0)  -->
<svg version="1.1" id="Layer_1" xmlns="http://www.w3.org/2000/svg" xmlns:xlink="http://www.w3.org/1999/xlink" x="0px" y="0px"
	 viewBox="0 0 800 500" style="enable-background:new 0 0 800 500;" xml:space="preserve">
<style type="text/css">
	.st0{fill-rule:evenodd;clip-rule:evenodd;}
</style>
<g>
	<g>
		<g>
			<path fill="#000000" d="M341,451.4H310c-1.1,0-2.2-0.1-3.3-0.4c-1.1-0.3-2.3-0.7-3.6-1.4s-2.3-1.7-3.1-3.1c-0.8-1.4-1.2-3.2-1.2-5.2
				c0-2.6,0.9-4.8,2.8-6.5c1.8-1.8,4.1-2.6,6.7-2.6v3.5c-1.7,0-3.2,0.5-4.4,1.6c-1.2,1-1.8,2.4-1.8,4.1c0,0.4,0,0.9,0.1,1.4
				c0.1,0.5,0.3,1.1,0.6,1.8c0.3,0.7,0.8,1.3,1.3,1.9s1.3,1,2.4,1.4c1,0.4,2.2,0.6,3.5,0.6h27.6v-25h3.5V451.4z M326.6,440.6h-11.6
				v-2.5h4c-0.6-0.7-0.9-1.6-0.9-2.7c-0.1-1.2,0.4-2.3,1.5-3.2c1-0.9,2.4-1.4,4-1.4h3v2.5h-2.4c-0.9,0-1.6,0.2-2.2,0.6
				c-0.6,0.4-0.9,0.9-0.9,1.5c-0.1,1.8,0.9,2.7,3.2,2.7h2.4V440.6z"/>
			<path fill="#000000" d="M345.5,460.1h-3.7v-3.1h0.9c3.6,0,6.3-0.4,8.1-1.3c1.8-0.9,2.7-2.5,2.7-4.7v-18.9h3.5v19.2
				C356.6,457.2,352.9,460.1,345.5,460.1z"/>
			<path fill="#000000" d="M369.5,451.4h-9.1v-28.1h3.5v25h5.5V451.4z"/>
			<path fill="#000000" d="M389,451.4h-8.8V450c-0.2,0.3-0.3,0.6-0.5,0.8c-0.2,0.2-0.5,0.3-0.8,0.4c-0.3,0.1-0.6,0.1-0.9,0.1c-0.2,0-0.6,0-1.2,0
				c-0.6,0-1,0-1.3,0H369c-0.4,0-0.6-0.3-0.6-1v-1c0-0.7,0.2-1,0.6-1h6.4c0.9,0,1.4-0.2,1.7-0.7c0.3-0.5,0.4-1.2,0.4-2.1v-13.4h3.5
				v15.7c0,0.2,0,0.4,0,0.5h8V451.4z M380.8,459h-4v-4h4V459z"/>
			<path fill="#000000" d="M403.1,451.4h-14.5c-0.4,0-0.6-0.3-0.6-1v-1c0-0.7,0.2-1,0.6-1h8.8c-0.7-0.2-1.5-0.9-2.3-2.3s-1.3-3-1.3-4.7
				c0-1.6,0.4-3.1,1.1-4.5c1.5-3.2,4.4-4.9,8.8-5c3.5-0.1,6.2,0.9,7.9,2.8c1.8,2,2.6,4.3,2.6,6.9c0,2.6-1,4.9-2.9,6.9
				C409.4,450.4,406.7,451.4,403.1,451.4z M410.6,441.4c0-0.3,0-0.7-0.1-1.1c0-0.4-0.2-0.9-0.5-1.6c-0.3-0.7-0.6-1.3-1-1.8
				c-0.4-0.5-1.1-1-2-1.4c-0.9-0.4-1.9-0.6-3.1-0.6c-1.2,0-2.2,0.2-3.1,0.6c-0.9,0.4-1.6,0.8-2,1.4c-0.4,0.5-0.8,1.1-1,1.8
				c-0.3,0.7-0.4,1.2-0.5,1.6c0,0.4-0.1,0.7-0.1,1.1c0,0.4,0,0.7,0.1,1.2s0.2,1,0.5,1.7c0.3,0.7,0.6,1.3,1,1.8c0.4,0.5,1.1,1,2,1.4
				c0.9,0.4,1.9,0.6,3.1,0.6c1.2,0,2.2-0.2,3.1-0.6c0.9-0.4,1.5-0.8,2-1.4c0.4-0.5,0.8-1.1,1-1.8c0.3-0.7,0.4-1.2,0.5-1.7
				C410.6,442.2,410.6,441.8,410.6,441.4z"/>
			<path fill="#000000" d="M456.8,451.4H430v-3.1h18.3V445c0-1.3-0.2-2.5-0.5-3.6c-0.3-1.2-0.8-2.3-1.5-3.3c-0.7-1-1.6-1.9-2.9-2.5
				c-1.2-0.6-2.7-0.9-4.4-0.9c-1.4,0-2.5,0.2-3.3,0.5c-0.8,0.4-1.6,0.9-2.2,1.7v-4.6c1.7-0.5,3.5-0.8,5.5-0.8
				c8.5,0,12.7,4.5,12.7,13.5v3.4h5.1V451.4z"/>
			<path fill="#000000" d="M477.9,451.4h-9.3V450c-0.3,0.6-0.8,1-1.3,1.2c-0.5,0.2-1.3,0.2-2.4,0.2h-8.5c-0.4,0-0.6-0.3-0.6-1v-1c0-0.7,0.2-1,0.6-1
				h7.4c0.9,0,1.5-0.2,1.8-0.7c0.3-0.5,0.4-1.2,0.4-2.1v-13.4h3.5v15.7c0,0.2,0,0.4,0,0.5h8.5V451.4z M465.6,459h-4v-4.1h4V459z
				 M472.9,459h-4v-4.1h4V459z"/>
			<path fill="#000000" d="M501.3,451.4h-23.8c-0.4,0-0.6-0.3-0.6-1v-1c0-0.7,0.2-1,0.6-1h8.5c-1.1-0.6-2-1.6-2.7-3c-0.7-1.4-1-3.1-0.9-5.2
				c0.1-1.9,0.8-3.6,2.1-5c2-2,4.7-3.1,8-3.1h8.8v3.5h-7.6c-1.6,0-2.9,0.2-4,0.7c-1.1,0.4-1.9,1-2.3,1.7c-0.5,0.7-0.8,1.3-0.9,1.8
				c-0.1,0.5-0.2,1-0.2,1.4c0,1.4,0.2,2.6,0.7,3.6c0.5,1,1.1,1.7,1.9,2.2c0.8,0.5,1.6,0.8,2.4,1c0.8,0.2,1.6,0.3,2.5,0.3h7.6V451.4z
				"/>
		</g>
		<g>
			<path fill="#000000" d="M312.3,465v2.2h-10.9v7h10.4v2.2h-10.4v7.3h11.1v2.2h-13.8V465H312.3z"/>
			<path fill="#000000" d="M319.7,465v20.8H317V465H319.7z"/>
			<path fill="#000000" d="M325.1,485.8V465h7.6c6.9,0,10.3,3.3,10.3,9.8c0,7.3-3.4,10.9-10.3,10.9H325.1z M332.6,483.6c5.1,0,7.6-2.9,7.6-8.8
				c0-5.1-2.5-7.6-7.6-7.6h-4.9v16.4H332.6z"/>
			<path fill="#000000" d="M354.1,485.8V465h3.4l7.6,17.3l7.5-17.3h3.3v20.8h-2.4v-17l-7.4,17H364l-7.5-17v17H354.1z"/>
			<path fill="#000000" d="M380.7,477.8V465h2.7v12.7c0,4,2,6,6,6s6-2,6-6V465h2.7v12.7c0,5.4-2.9,8.2-8.6,8.2S380.7,483.2,380.7,477.8z"/>
			<path fill="#000000" d="M402.8,485.8V465h8.9c3.9,0,5.9,1.6,5.9,4.8c0,2.4-1.3,4.1-3.9,5.1c2.7,0.5,4.1,2.1,4.1,4.7c0,4.1-2.2,6.1-6.5,6.1H402.8
				z M411.2,483.6c2.5,0,3.7-1.3,3.7-3.8c0-2.4-1.7-3.7-5-3.7h-1.2v-1.8c4-0.5,6-2,6-4.3c0-1.9-1.1-2.9-3.3-2.9h-5.9v16.4H411.2z"/>
			<path fill="#000000" d="M422.8,485.8H420l8.8-20.8h3l8.9,20.8h-3l-2.7-6.5h-6.9l0.7-2.2h5.2l-3.9-9.4L422.8,485.8z"/>
			<path fill="#000000" d="M443.5,485.8V465h8.9c3.9,0,5.9,1.7,5.9,5c0,2.7-1.9,4.7-5.8,6l7.1,9.8H456l-6.6-9.3v-1.8c4-0.6,6-2.2,6-4.6
				c0-1.9-1.1-2.9-3.3-2.9h-5.9v18.5H443.5z"/>
			<path fill="#000000" d="M463.1,485.8h-2.8l8.8-20.8h3l8.9,20.8h-3l-2.7-6.5h-6.9l0.7-2.2h5.2l-3.9-9.4L463.1,485.8z"/>
			<path fill="#000000" d="M486.5,465v20.8h-2.7V465H486.5z M501.1,465l-9.4,9.8l9.6,11h-3.7l-8.5-10v-1.6l8.6-9.1H501.1z"/>
		</g>
	</g>
	<g>
		<path fill="#000000" d="M410.4,247.5c0,0-2.1,6.3-2.2,6.7c-0.1,0.4-2.2,6.6-1.9,6.7c5,2.2,9.9,4.9,15.2,6.4c0.4,0.1,4.2-13.4,4.1-13.4
			C420.3,252.4,415.4,249.7,410.4,247.5z"/>
		<path fill="#000000" d="M420.1,267.2c0,0-2.1,6.3-2.2,6.7c-0.1,0.4-2.2,6.6-1.9,6.7c5,2.2,9.9,4.9,15.2,6.4c0.4,0.1,4.2-13.4,4.1-13.4
			C430,272.2,425.1,269.5,420.1,267.2z"/>
		<g>
			<path fill="#000000" d="M507.9,161.8c-1.2,0-2.5,0.7-3.7,1.1c-0.2,0.1-0.5,0.2-0.7,0.2c-1.8,0.6-3.5,1.3-5.2,2c-1.8,0.7-3.6,1.5-5.4,2.3
				c-0.5,0.2-1,0.4-1.4,0.6c-3,1.4-5.9,2.9-8.8,4.5c-0.9,0.5-1.7,0.9-2.6,1.4c0.2-1.1,0.4-2.1,0.6-3.2c0.9-3.5,1.8-7.1,2.3-10.8
				c0.4-2.9,0.8-6.5-0.7-9.2c-1.4-2.4-4.3-2-6.6-1.3c-3.8,1.1-7.2,3.3-10.5,5.4c-6.1,3.9-11.7,8.4-17.7,12.3
				c-5.9,3.9-11.8,7.9-16.9,12.8c-0.3,0.3-0.7,0.7-1,1c-5.6,5.7-11.1,12-12.7,20c-1,5.1,0.5,11,4.5,14.5c4.6,3.9,11.5,1.1,16.2-1.3
				c2.8-1.5,5.5-3.1,8.2-4.9c-3.4,4.7-6.9,9.2-11.3,13c-3.1,2.7-6.8,4.8-10.9,5.3c-4.6,0.6-8.9-1.2-12.6-3.9
				c-4.7-3.4-8.2-7.8-9.7-13.4c-1.5-5.3-1.2-11-0.4-16.5c0.4-2.8,1-5.5,1.7-8.3c0-0.1,0.1-0.5,0.2-0.6c0-0.1,0.1-0.2,0.1-0.3
				c3.7-2.6,7.3-5.2,11.1-7.6c8.7-5.8,17.3-11.6,25.3-18.4c2.3-1.9,4.6-3.9,6.8-6c0.1-0.1,0.3-0.3,0.4-0.4
				c14-11.9,7.4-28.7,7.4-28.7c-0.1-0.2-0.1-0.4-0.2-0.5c-0.9-2.3-2.7-4.1-4.9-5.1c-2.9-1.4-6.2-1.1-9.1-0.1c-3,1.1-5.7,2.9-8.3,4.6
				c-3,2-6.1,4-9.1,6c-6.1,4-12.2,8-18.5,11.5c-5.2,2.9-10.6,5.7-16.7,5.7c-2.2,0-4.6-0.5-6.3-2c-2-1.7-2.4-4.4-2.2-6.8
				c-0.1,0.6-0.7,2-0.9,2.5c-0.7,2-1.3,4.1-1.9,6.1c-0.6,2-1.2,4.1-1.8,6.1c-0.2,0.8-0.6,1.7-0.7,2.6c-0.3,4,1.3,7.4,5.4,8.5
				c3.6,1,7.8,0.2,11.3-1.1c2.6-0.9,5-2.3,7.4-3.6c3.2-1.7,6.3-3.6,9.4-5.5c6.2-3.9,12.2-8,18.4-12c5.1-3.3,10.7-7.5,17.1-5.7
				c2.4,0.6,4.1,2.1,5.3,4.1c-8.3,7.5-17.6,13.9-26.9,20.1c-5,3.3-9.9,6.6-14.7,10.2c-4.9,3.6-17.7,10.7-23.3,13.3
				c-5.1,2.4-10.6,3.4-16.1,2c-5-1.3-10.2-4.7-11.4-10c0.1,0.3-0.9,2.4-0.9,2.5c-0.7,2-1.3,4.1-1.9,6.1c-0.6,2-1.2,4.1-1.8,6.1
				c-0.1,0.4-0.8,2-0.7,2.6c1.2,5.2,6,8.4,10.8,9.8c5.2,1.6,10.5,0.8,15.4-1.2c4.9-2,9.3-5.2,13.7-8.1c4-2.6,8.7-4.3,12.5-7
				c-0.2,0.5-0.3,1-0.5,1.6c-1.9,6.5-4,13.1-5.4,19.8c-1.1,5.3-1.8,10.8-1.3,16.2c0.5,5.2,2.3,10.3,5.9,14.2c3.4,3.7,8,7,13,7.9
				c8.9,1.6,16.2-5.4,21.5-11.6c6.5-7.7,11.5-16.6,18.2-24.1c6-6.7,12.9-12.4,20.5-17.1c-0.5,1.7-1.1,3.4-1.6,5.1
				c-1.6,5.3-3.5,10.6-4.6,16.1c-0.1,0.5,0,0.3,0.1,0c0.8-1.6,4.4-9.5,8.1-22.4c0.3-0.2,0.7-0.4,1-0.6c1.1-0.6,2.1-1.1,3.2-1.7
				c2.5-1.3,5.1-2.6,7.7-3.8c0.3-0.1,0.6-0.3,0.9-0.4c2.3-1,4.6-2,7-2.9c1.1-0.4,2.2-0.8,3.2-1.2c0.3-0.1,0.6-0.2,0.9-0.3
				c0.8-0.3,1.9-0.8,2.8-0.8c0.2,0,0.9-2.6,0.9-2.5c0.7-2,1.3-4.1,1.9-6.1c0.6-2,1.2-4.1,1.8-6.1C507.2,164.5,508,161.8,507.9,161.8
				z M477.9,175.1c-2.5,1.4-5.1,2.8-7.6,4.1c-3.8,2-7.3,4.3-10.9,6.8c-4,2.8-8,5.5-12,8.1c-3.5,2.2-7.3,5.2-11.3,6.2
				c-2.2,0.6-4.5-0.2-6.1-1.8c-3.5-3.5,2.8-7.8,5.1-9.4c8.3-6,16.7-12.1,25.4-17.5c3.2-2,6.7-4.1,10.4-5.1c2.4-0.6,5-0.6,6.2,1.9
				C478.1,170.4,478.2,172.8,477.9,175.1z"/>
		</g>
		<g>
			<path fill="#000000" d="M401.5,109.6c-11.6,4.5-23.5,8-35.7,10.5c-5.8,1.2-11.6,2.2-17.4,3c-5.5,0.7-11.1,1.1-16.6,1.8
				c-6.4,0.7-12.9,1.8-18.9,4.3c-6.3,2.6-11.6,6.8-15.5,12.4c-0.4,0.6-0.7,1.8-0.9,2.5c-0.7,2-1.3,4.1-1.9,6.1
				c-0.6,2-1.2,4.1-1.8,6.1c-0.1,0.4-0.4,2.2-0.7,2.6c3.2-4.6,7.4-8.3,12.3-10.9c4.7-2.5,10-3.8,15.2-4.8c1.1-0.2,2.2-0.4,3.2-0.5
				c-3,5.7-16.3,33.7-3.1,56.1v0c2.3,4.7,5.2,9,8.6,12.9c3.6,4.2,7.7,7.9,12.2,11c5.3,3.6,11,6.4,16.8,9.2
				c5.8,2.8,11.7,5.6,17.4,8.7c5.5,3,11.2,6.5,15.4,11.2c2.4,2.7,4.2,5.9,5.1,9.5c0.3,1.1,0.5,2.2,0.6,3.4c-5.7-4.6-14.8-6.7-21-8.8
				c-4.7-1.6-9.6-3.3-13.5-6.4c-3.6-2.8-5.2-6.9-4.6-11.4c0.1-0.3,0.1-0.6,0.2-1c0-0.1,0-0.2,0-0.2c0.1-0.5,0.2-1,0.4-1.1
				c-1.7,1.9-2.9,4.2-3.9,6.6c-0.9,2.2-1.6,4.5-2.4,6.8c-0.4,1.4-0.9,2.8-1.3,4.2c-1,3.3-2,6.7-2.9,10c-1.5,5.6-2.3,11.4-2,17.1
				c0.3,5.2,3.1,9.3,7.4,12.1c4.4,2.8,9.7,4.2,14.6,6.1c9.9,3.8,20,7.8,28.6,14.3c2.3,1.7,4.4,3.7,6.3,5.8c1.9,2.1,3.7,4.4,5.2,6.9
				c13.8,28,2.4,60.7-6.7,88.5c15-28.8,27.2-62.9,17.5-95.3c-1.8-5.2-4.5-10-7.9-14.3c-3.4-4.3-7.5-8-12.1-11.1
				c-0.5-0.3-1-0.7-1.5-1c0.1-0.3,0.2-0.6,0.3-0.8c0.7-2,1.3-4.1,1.9-6.1c0.6-2,1.2-4.1,1.8-6.1c0.2-0.8,0.5-1.7,0.7-2.6
				c0.5-3.8-0.5-6.9-2.4-9.4c3.6-8.4,2.7-17.4,2.7-17.4c-0.2-3.7-0.9-7.4-2.6-10.8c-2.8-5.5-8-9.3-13.1-12.6
				c-10.8-7-23.1-11.6-34.3-18c-9.8-5.6-17.9-13.2-23.8-22.8c-7.4-13.7-5.3-27.6-2.9-36.1c0.2-0.5,0.3-1.1,0.5-1.6
				c1.3-3.9,2.5-6.2,2.5-6.2c2.8-0.3,5.7-0.6,8.5-0.9c5.7-0.6,11.3-1.4,16.9-2.3c21.3-3.7,42.4-10.3,61.7-20.3
				c2.8-1.4,5.5-2.9,8.1-4.5c2.4-1.5,4.9-3.1,7.3-4.8c2.4-1.6,4.8-3.3,7.2-5.1c28.4-21.8,45.6-55.9,53.4-90.2
				c-14.5,28.1-29.5,57.9-55.2,77.4c-2.8,2.1-5.6,3.9-8.5,5.7c-2.9,1.8-5.8,3.4-8.8,5c-2.8,1.4-5.5,2.7-8.4,3.9
				C407.2,107.3,404.4,108.5,401.5,109.6z M368.4,280.1c-4.7-1.7-9.7-3.4-13.6-6.8c-1.8-1.6-3.2-3.7-3.9-6c-0.4-1.3-0.7-2.7-0.7-4.1
				c0,0-0.2-3.6,1.2-5.7l0,0c0,1.7,0.3,3.4,1,5c1.1,2.4,3.2,4.3,5.4,5.7c5.5,3.6,12.1,5.2,18.2,7.2c5,1.6,10.2,3.4,14.4,6.6
				c3.4,2.6,5.3,6.2,5.3,10.3C387.4,287,377.8,283.4,368.4,280.1z"/>
		</g>
		<path fill="#000000" d="M334.3,171.4c0,0-1.5,0.1-2.2-0.9c-0.7-1.1-1.8-5.1,0.9-3.1c2.7,2,4.4,6.3,4.4,6.3s1.2-9.1,4-8.1c2.8,0.9,2.5,2.7,2.5,2.7
			l-1.1,1.3c0,0-1.1-2.4-2.1-1.7c-1.1,0.7-2.5,1.4-3.1,10.2l-0.8,0.5C336.8,178.5,337,173.9,334.3,171.4z"/>
		<path fill="#000000" d="M391.8,89.7c0,0-1.4,0.1-2-0.8c-0.6-0.9-1.6-4.5,0.8-2.7c2.4,1.8,3.9,5.5,3.9,5.5s1-8,3.5-7.2c2.5,0.8,2.2,2.4,2.2,2.4
			l-0.9,1.1c0,0-0.9-2.1-1.9-1.5c-0.9,0.6-2.2,1.3-2.7,9l-0.7,0.4C394,95.9,394.2,91.8,391.8,89.7z"/>
		<path fill="#000000" id="XMLID_187_" d="M358.1,161.3l-2.1-1l-0.3-0.1l-0.3,0.2l-2,1.1l0.3-2.3l0-0.3l-0.2-0.2l-1.7-1.6l2.3-0.4l0.3-0.1l0.1-0.3
			l1-2.1l1.1,2l0.1,0.3l0.3,0l2.3,0.3l-1.6,1.7l-0.2,0.2l0.1,0.3L358.1,161.3L358.1,161.3z M354.1,156.1l-3.5,0.6l2.6,2.4l-0.5,3.5
			l3.1-1.7l3.2,1.6l-0.7-3.5l2.5-2.5l-3.5-0.4l-1.6-3.1L354.1,156.1z"/>
		<path fill="#000000" id="XMLID_184_" d="M459.2,109.7l-2-1l-0.3-0.1l-0.3,0.1l-1.9,1.1l0.3-2.2l0-0.3l-0.2-0.2l-1.6-1.5l2.2-0.4l0.3-0.1l0.1-0.3
			l0.9-2l1,2l0.1,0.3l0.3,0l2.2,0.3l-1.6,1.6l-0.2,0.2l0.1,0.3L459.2,109.7L459.2,109.7z M455.3,104.6l-3.4,0.6l2.5,2.3l-0.5,3.4
			l3-1.7l3.1,1.5l-0.7-3.3l2.4-2.5l-3.4-0.4l-1.6-3L455.3,104.6z"/>
		<path fill="#000000" d="M453.9,228.1c0.2-0.2,0.5-0.4,0.7-0.7c-0.6-0.8-1.2-1.7-2.1-2.8c1.3-0.7,2.5-1.6,3.9-2.2c7-3.1,14.1-6.1,21.2-9.2
			c0.8-0.4,1.5-1,2.3-1.4c-0.2-0.2-0.3-0.4-0.5-0.6c-0.5,0.2-1.1,0.3-1.6,0.5c-6.8,2.9-13.6,5.9-20.4,8.9c-1.6,0.7-3.2,1.5-4.5,2.6
			c-0.7,0.6-1.1,2-1,2.9C452.1,226.8,453.2,227.5,453.9,228.1z"/>
		<path fill="#000000" id="XMLID_145_" d="M468.8,133.8c-0.1-0.1-0.1-0.1-0.1-0.2c0,0-0.1-0.1-0.1-0.2c-0.4-0.4-0.8-0.7-1.3-0.8
			c-0.5-0.1-0.9-0.1-1.4-0.1c-0.5,0.1-0.9,0.1-1.4,0.2c-0.5,0.1-0.9,0.2-1.3,0.2c0.6-0.4,1.2-0.8,1.8-1.2c0.7-0.4,1.3-0.8,2.1-1
			c0.7-0.3,1.5-0.4,2.3-0.4c0.8,0,1.6,0.2,2.4,0.6l0.2,0.3c0.6,0.6,0.9,1.2,0.9,1.7c0.1,0.6,0,1.2-0.2,1.7c-0.2,0.6-0.5,1.1-0.9,1.6
			c-0.4,0.5-0.8,1-1.2,1.4c-2.2,2-4.5,3.5-7.1,4.4c-2.6,0.9-5.2,1.6-8,2.1c0.9-0.5,1.8-0.9,2.8-1.3c1-0.4,2-0.8,2.9-1.2
			c1-0.4,1.9-0.9,2.9-1.5c0.9-0.5,1.8-1.2,2.6-1.9c0.3-0.3,0.6-0.5,0.9-0.9c0.3-0.3,0.6-0.7,0.8-1c0.2-0.4,0.4-0.8,0.4-1.2
			C469.1,134.7,469,134.3,468.8,133.8z"/>
		<path fill="#000000" id="XMLID_102_" class="st0" d="M435.3,254c1,0.1,2.2-0.4,4.6-0.3c1.7,0.1,3.3,0.2,5,0.4c0,0-0.2,0.1-0.2,0.1
			c-1,0.3-2,0.6-2.9,0.9c-0.6,0.1-0.8,0.3-1.5,0.4c-2.8,0.6-5.4,1.3-8.2,2c2.3,0.5,4.8,0.9,7.2,0.7c2.7-0.1,5.9-2.2,7.6-4.4
			c2.3-2.9,0.6-3.1-4.7-3.1c-1.5,0-2.8,0-4.1,0.1c-0.9,0.1-1.1,0.1-1.6,0.8C436.1,252.5,435.6,253.2,435.3,254L435.3,254z"/>
		<path fill="#000000" id="XMLID_227_" class="st0" d="M363.8,168.9c1,0.1,2.2-0.4,4.6-0.3c1.7,0.1,3.3,0.2,5,0.4c0,0-0.2,0.1-0.2,0.1
			c-1,0.3-2,0.6-2.9,0.9c-0.6,0.1-0.8,0.3-1.5,0.4c-2.8,0.6-5.4,1.3-8.2,2c2.3,0.5,4.8,0.9,7.2,0.7c2.7-0.1,5.9-2.2,7.6-4.4
			c2.3-2.9,0.6-3.1-4.7-3.1c-1.5,0-2.8,0-4.1,0.1c-0.9,0.1-1.1,0.1-1.6,0.8C364.5,167.3,364.1,168,363.8,168.9L363.8,168.9z"/>
		<g id="XMLID_70_">
			<path fill="#000000" id="XMLID_71_" d="M424,300.2c5.9-3.6,11.6-8.2,18-10.8c0.6-0.2,0.4-2.1,0.8-2.3c-3.1,1.3-5.9,3.2-8.8,5
				c-3.1,1.9-6.2,3.7-9.3,5.6C424.1,298,424.4,299.9,424,300.2L424,300.2z"/>
		</g>
		<g id="XMLID_56_">
			<path fill="#000000" id="XMLID_69_" d="M385.4,203.5c-0.6-0.5-1.2,1.8-1.2,2.2c-0.4,1.8-0.4,3.1,1.1,4.4c0.8,0.8,1.5,1.4,2,2.5
				c0.1,0.3,0.1,0.6,0.2,1c0.6-1.3,0.5-1.5-0.4-0.6c-0.4,0.3-1,0.4-1.5,0.4c-1,0.1-1.9-0.4-2.5-1.2c-0.7-1.1,0.4-2.1,0.9-2.9
				c0.2-0.2,0.2-1.2,0.4-1.3c-2.8,1.8-4.2,9.7,1.3,8.1c1.8-0.5,2.5-3.2,2.7-4.9c0.2-1.2-0.2-2.2-1-3.1c-0.8-0.9-3.7-2.3-2.3-3.7
				C385.2,204.3,385.5,203.6,385.4,203.5L385.4,203.5z"/>
		</g>
		<path fill="#000000" d="M408.7,86c0.4,0.2,0.8,0.4,1.2,0.6c0.2,0.1,0.2,0.2,0.1,0.4c-0.5,0.6-0.9,1.2-1.4,1.8c-0.9,0.9-1.8,1.7-2.7,2.5
			c-1,0.8-2,1.6-3,2.5c-0.3,0.3-0.6,0.5-0.9,0.8c0,0,0.1,0.1,0.1,0.1c0.1,0,0.2-0.1,0.2-0.1c0.9-0.6,1.8-1.2,2.6-1.9
			c1-0.8,2.1-1.6,3-2.5c0.7-0.7,1.2-1.5,1.8-2.2c0.2-0.3,0.3-0.7,0.5-1.1c0.4,0.2,0.7,0.4,1,0.6c0.3-0.4,0.2-0.9-0.2-1.2
			c-0.1-0.1-0.3-0.1-0.4-0.2c-0.2-0.1-0.3-0.2-0.2-0.4c0.1-0.6,0.1-1.2-0.2-1.8c-0.3-0.5-0.7-0.6-1.2-0.4c-0.6,0.4-0.8,1-1,1.6
			C408.2,85.5,408.4,85.8,408.7,86z M408.9,84.6c0.6-0.4,1.1-0.6,1.5,0.3c0.1,0.3,0.1,0.6,0.2,0.8c0,0-0.1,0.1-0.1,0.1
			c-0.5-0.3-1-0.6-1.6-0.9C408.6,84.8,408.7,84.7,408.9,84.6z"/>
		<g id="XMLID_1270_">
			<path fill="#000000" id="XMLID_1273_" d="M342.5,231.5c-0.5-0.4-1,1.5-1.1,1.9c-0.4,1.6-0.3,2.6,0.9,3.8c0.7,0.7,1.3,1.2,1.7,2.1
				c0.1,0.3,0.1,0.6,0.2,0.8c0.5-1.1,0.4-1.3-0.3-0.5c-0.4,0.3-0.9,0.3-1.3,0.4c-0.9,0.1-1.7-0.3-2.1-1.1c-0.6-0.9,0.3-1.8,0.8-2.5
				c0.2-0.2,0.2-1,0.3-1.1c-2.4,1.6-3.6,8.4,1.1,7c1.6-0.4,2.1-2.8,2.4-4.2c0.2-1-0.2-1.9-0.9-2.7c-0.7-0.8-3.2-2-2-3.2
				C342.3,232.2,342.6,231.6,342.5,231.5L342.5,231.5z"/>
		</g>
	</g>
</g>
<path fill="#000000" d="M273.602,481.306c-0.578-0.576-1.301-1.03-2.174-1.362c-0.873-0.331-1.885-0.497-3.039-0.497
	c-0.663,0-1.463,0.079-2.4,0.238v-6.077h-1.535v17.711c0.706,0.202,1.402,0.354,2.087,0.454s1.301,0.151,1.849,0.151
	c1.153,0,2.166-0.162,3.039-0.486s1.596-0.764,2.174-1.319c0.576-0.555,1.006-1.211,1.287-1.968s0.42-1.561,0.42-2.411
	s-0.139-1.657-0.42-2.422C274.608,482.554,274.178,481.883,273.602,481.306z M272.391,489.167c-0.852,0.829-2.17,1.243-3.958,1.243
	c-0.39,0-0.805-0.032-1.244-0.097c-0.439-0.065-0.84-0.134-1.2-0.206v-8.845c0.447-0.115,0.887-0.194,1.319-0.237
	c0.433-0.044,0.808-0.065,1.125-0.065c0.894,0,1.668,0.112,2.325,0.335c0.656,0.224,1.199,0.545,1.633,0.963
	c0.432,0.418,0.752,0.919,0.961,1.503s0.314,1.243,0.314,1.979C273.667,487.195,273.241,488.338,272.391,489.167z M247.392,479.446
	c-0.62,0-1.297,0.079-2.033,0.238c-0.735,0.158-1.485,0.433-2.249,0.821l-0.065,1.73c0.548-0.303,0.973-0.52,1.276-0.649
	s0.624-0.237,0.962-0.324c0.338-0.086,0.677-0.158,1.016-0.216s0.667-0.087,0.984-0.087c1.139,0,1.982,0.249,2.53,0.746
	s0.822,1.33,0.822,2.498v0.13c-0.332-0.044-0.732-0.087-1.2-0.13c-0.469-0.043-0.876-0.065-1.222-0.065
	c-1.831,0-3.302,0.311-4.412,0.931c-1.11,0.619-1.665,1.644-1.665,3.07c0,0.707,0.155,1.305,0.465,1.795
	c0.31,0.49,0.713,0.88,1.211,1.168s1.067,0.497,1.708,0.627c0.641,0.13,1.308,0.194,2,0.194c0.807,0,1.6-0.072,2.378-0.216
	c0.779-0.145,1.536-0.368,2.271-0.671v-7.028c0-1.585-0.397-2.742-1.189-3.471C250.189,479.811,248.992,479.446,247.392,479.446z
	 M250.636,489.892c-0.375,0.144-0.858,0.267-1.449,0.367c-0.591,0.102-1.183,0.151-1.773,0.151c-0.505,0-0.984-0.035-1.438-0.108
	c-0.454-0.071-0.84-0.197-1.157-0.378c-0.317-0.18-0.57-0.414-0.757-0.703c-0.188-0.288-0.281-0.663-0.281-1.124
	c0-0.52,0.111-0.934,0.335-1.244c0.224-0.31,0.533-0.551,0.93-0.724c0.396-0.174,0.85-0.296,1.362-0.368
	c0.511-0.072,1.041-0.108,1.589-0.108c0.476,0,0.984,0.029,1.524,0.087c0.541,0.058,0.912,0.108,1.114,0.151V489.892z
	 M258.032,479.868c-0.649,0.122-1.276,0.263-1.881,0.422v11.418h1.535v-10.186c0.202-0.072,0.563-0.147,1.082-0.228
	c0.519-0.079,1.002-0.118,1.449-0.118h1.989v-1.492H260C259.336,479.685,258.681,479.746,258.032,479.868z M-77.92,487.667
	l241.145,0.656l0.663-0.433l-0.632-0.564L-77.92,487.667z M164.994,487.825l1.95,1.95l1.95-1.95l-1.95-1.95L164.994,487.825z
	 M169.559,487.825l3.057,3.057l3.057-3.057l-3.057-3.057L169.559,487.825z M212.359,489.286l-3.395-9.602h-1.514l-3.396,9.602
	l-2.984-9.602h-1.73l3.979,12.023h1.428l3.46-9.645l3.46,9.645h1.427l3.979-12.023h-1.73L212.359,489.286z M238.418,489.589
	c-0.317,0-0.591,0.115-0.822,0.346c-0.231,0.23-0.346,0.505-0.346,0.822c0,0.316,0.115,0.591,0.346,0.821
	c0.23,0.23,0.504,0.346,0.822,0.346c0.317,0,0.591-0.115,0.822-0.346c0.23-0.23,0.346-0.505,0.346-0.821
	c0-0.317-0.116-0.592-0.346-0.822C239.009,489.704,238.735,489.589,238.418,489.589z M193.243,489.286l-3.395-9.602h-1.514
	l-3.396,9.602l-2.984-9.602h-1.73l3.979,12.023h1.428l3.46-9.645l3.46,9.645h1.427l3.979-12.023h-1.73L193.243,489.286z
	 M231.476,489.286l-3.395-9.602h-1.514l-3.396,9.602l-2.984-9.602h-1.73l3.979,12.023h1.428l3.46-9.645l3.46,9.645h1.427
	l3.979-12.023h-1.73L231.476,489.286z M382.732,480.474c-0.426-0.396-0.938-0.667-1.535-0.812c-0.598-0.144-1.271-0.216-2.021-0.216
	c-0.664,0-1.393,0.09-2.184,0.271c-0.793,0.181-1.471,0.4-2.033,0.659c-0.346-0.331-0.818-0.569-1.416-0.714
	c-0.6-0.144-1.273-0.216-2.023-0.216c-0.635,0-1.268,0.058-1.902,0.173l-2.465,0.454v11.635h1.535v-10.38
	c0.447-0.102,0.883-0.188,1.309-0.26c0.424-0.072,0.896-0.108,1.416-0.108c0.605,0,1.125,0.058,1.557,0.173
	c0.434,0.116,0.789,0.321,1.07,0.616c0.281,0.296,0.494,0.711,0.639,1.244s0.217,1.24,0.217,2.119v6.596h1.535v-7.201
	c0-0.663-0.055-1.243-0.162-1.741c-0.109-0.497-0.213-0.861-0.314-1.092c0.086-0.043,0.281-0.119,0.584-0.228
	c0.303-0.107,0.602-0.197,0.898-0.27c0.295-0.072,0.586-0.126,0.875-0.162s0.547-0.055,0.779-0.055c0.59,0,1.102,0.058,1.535,0.173
	c0.432,0.116,0.781,0.317,1.049,0.605c0.266,0.289,0.471,0.703,0.615,1.244c0.145,0.54,0.217,1.251,0.217,2.13v6.596h1.535v-7.201
	c0-0.995-0.111-1.816-0.336-2.466C383.482,481.393,383.158,480.87,382.732,480.474z M280.1,474.581
	c-0.785,0.648-1.18,1.729-1.18,3.243v1.86h-2.551v1.492h2.551v10.531h1.537v-10.531h4.973v-1.492h-4.973v-1.471
	c0-0.635,0.045-1.149,0.141-1.546c0.094-0.396,0.24-0.707,0.443-0.931c0.201-0.223,0.475-0.385,0.82-0.486
	c0.346-0.101,0.779-0.151,1.299-0.151h2.422v-1.492h-2.271C281.956,473.607,280.885,473.932,280.1,474.581z M398.273,487.825
	l3.057,3.057l3.057-3.057l-3.057-3.057L398.273,487.825z M343.322,482.322c0.389-0.418,0.854-0.749,1.395-0.994
	s1.135-0.368,1.783-0.368c0.736,0,1.373,0.076,1.914,0.228s1.121,0.414,1.74,0.789l0.715-1.405c-0.707-0.39-1.393-0.674-2.055-0.854
	c-0.664-0.181-1.436-0.271-2.314-0.271c-0.85,0-1.639,0.155-2.367,0.465c-0.729,0.311-1.367,0.746-1.914,1.309
	c-0.549,0.563-0.98,1.222-1.297,1.979c-0.317,0.757-0.476,1.59-0.476,2.498s0.158,1.74,0.476,2.497
	c0.316,0.757,0.748,1.413,1.297,1.969c0.547,0.555,1.186,0.987,1.914,1.297c0.729,0.311,1.518,0.465,2.367,0.465
	c0.879,0,1.65-0.09,2.314-0.27c0.662-0.181,1.348-0.466,2.055-0.854l-0.715-1.406c-0.619,0.375-1.199,0.639-1.74,0.79
	s-1.178,0.227-1.914,0.227c-0.648,0-1.242-0.119-1.783-0.356c-0.541-0.238-1.006-0.565-1.395-0.984
	c-0.391-0.418-0.693-0.915-0.908-1.492c-0.217-0.576-0.324-1.203-0.324-1.881s0.107-1.305,0.324-1.882
	C342.628,483.238,342.931,482.741,343.322,482.322z M404.387,487.825l1.949,1.95l1.951-1.95l-1.951-1.95L404.387,487.825z
	 M410.701,487.326l-0.664,0.433l0.633,0.564l241.176-0.341L410.701,487.326z M362.611,481.295c-0.549-0.569-1.193-1.02-1.936-1.352
	c-0.742-0.331-1.547-0.497-2.412-0.497c-0.863,0-1.668,0.166-2.41,0.497c-0.742,0.332-1.389,0.782-1.936,1.352
	c-0.549,0.57-0.977,1.229-1.287,1.979c-0.311,0.749-0.465,1.557-0.465,2.422s0.154,1.672,0.465,2.422s0.738,1.409,1.287,1.979
	c0.547,0.569,1.193,1.017,1.936,1.341s1.547,0.486,2.41,0.486c0.865,0,1.67-0.162,2.412-0.486s1.387-0.771,1.936-1.341
	c0.547-0.569,0.977-1.229,1.287-1.979c0.309-0.75,0.465-1.557,0.465-2.422s-0.156-1.673-0.465-2.422
	C363.587,482.524,363.158,481.865,362.611,481.295z M362.394,487.523c-0.217,0.569-0.52,1.067-0.908,1.492
	c-0.389,0.426-0.857,0.765-1.406,1.017c-0.547,0.252-1.152,0.378-1.816,0.378c-0.662,0-1.268-0.126-1.816-0.378
	c-0.547-0.252-1.016-0.591-1.404-1.017c-0.391-0.425-0.693-0.923-0.908-1.492c-0.217-0.569-0.324-1.179-0.324-1.827
	c0-0.649,0.107-1.262,0.324-1.839c0.215-0.576,0.518-1.077,0.908-1.503c0.389-0.425,0.857-0.764,1.404-1.016
	c0.549-0.252,1.154-0.379,1.816-0.379c0.664,0,1.27,0.127,1.816,0.379c0.549,0.252,1.018,0.591,1.406,1.016
	c0.389,0.426,0.691,0.927,0.908,1.503c0.217,0.577,0.324,1.189,0.324,1.839C362.718,486.345,362.611,486.954,362.394,487.523z
	 M296.221,481.295c-0.547-0.569-1.191-1.02-1.936-1.352c-0.742-0.331-1.545-0.497-2.41-0.497s-1.67,0.166-2.412,0.497
	c-0.742,0.332-1.387,0.782-1.936,1.352c-0.547,0.57-0.977,1.229-1.285,1.979c-0.311,0.749-0.465,1.557-0.465,2.422
	s0.154,1.672,0.465,2.422c0.309,0.75,0.738,1.409,1.285,1.979c0.549,0.569,1.193,1.017,1.936,1.341s1.547,0.486,2.412,0.486
	s1.668-0.162,2.41-0.486c0.744-0.324,1.389-0.771,1.936-1.341c0.549-0.569,0.977-1.229,1.287-1.979s0.465-1.557,0.465-2.422
	s-0.154-1.673-0.465-2.422C297.198,482.524,296.77,481.865,296.221,481.295z M296.006,487.523c-0.217,0.569-0.52,1.067-0.908,1.492
	c-0.391,0.426-0.859,0.765-1.406,1.017c-0.549,0.252-1.154,0.378-1.816,0.378c-0.664,0-1.27-0.126-1.816-0.378
	c-0.549-0.252-1.018-0.591-1.406-1.017c-0.389-0.425-0.691-0.923-0.908-1.492s-0.324-1.179-0.324-1.827
	c0-0.649,0.107-1.262,0.324-1.839c0.217-0.576,0.52-1.077,0.908-1.503c0.389-0.425,0.857-0.764,1.406-1.016
	c0.547-0.252,1.152-0.379,1.816-0.379c0.662,0,1.268,0.127,1.816,0.379c0.547,0.252,1.016,0.591,1.406,1.016
	c0.389,0.426,0.691,0.927,0.908,1.503c0.215,0.577,0.324,1.189,0.324,1.839C296.331,486.345,296.221,486.954,296.006,487.523z
	 M309.381,480.463c-0.455-0.39-0.996-0.656-1.623-0.801c-0.627-0.144-1.309-0.216-2.043-0.216c-0.707,0-1.465,0.047-2.271,0.141
	s-1.701,0.234-2.682,0.422v11.699h1.535v-10.402c1.184-0.23,2.293-0.346,3.33-0.346c0.592,0,1.111,0.062,1.559,0.184
	c0.445,0.123,0.818,0.332,1.113,0.628c0.295,0.295,0.525,0.713,0.691,1.254s0.25,1.251,0.25,2.13v6.553h1.535v-7.201
	c0-0.995-0.119-1.82-0.357-2.477C310.18,481.375,309.834,480.852,309.381,480.463z M318.516,490.054
	c-0.346-0.108-0.619-0.277-0.82-0.509c-0.203-0.23-0.35-0.547-0.443-0.951c-0.096-0.403-0.141-0.922-0.141-1.557v-5.86h4.973v-1.492
	h-4.973v-4.347h-1.537v4.347h-2.551v1.492h2.551v6.466c0,0.764,0.109,1.405,0.326,1.925c0.215,0.519,0.525,0.937,0.93,1.254
	c0.402,0.317,0.867,0.544,1.395,0.682c0.525,0.137,1.105,0.205,1.74,0.205h2.271v-1.492h-2.422
	C319.295,490.216,318.862,490.162,318.516,490.054z M337.784,489.589c-0.316,0-0.59,0.115-0.82,0.346s-0.346,0.505-0.346,0.822
	c0,0.316,0.115,0.591,0.346,0.821s0.504,0.346,0.82,0.346c0.318,0,0.592-0.115,0.822-0.346s0.346-0.505,0.346-0.821
	c0-0.317-0.115-0.592-0.346-0.822S338.102,489.589,337.784,489.589z M333.178,486.106c-0.346-0.303-0.785-0.565-1.318-0.789
	c-0.533-0.223-1.182-0.422-1.947-0.595l-0.799-0.173c-1.053-0.216-1.781-0.461-2.184-0.735c-0.404-0.273-0.607-0.678-0.607-1.211
	c0-0.504,0.238-0.904,0.715-1.2c0.475-0.295,1.174-0.443,2.098-0.443c0.793,0,1.477,0.076,2.055,0.228
	c0.576,0.151,1.217,0.421,1.924,0.811l0.691-1.405c-1.412-0.765-2.969-1.146-4.67-1.146c-0.635,0-1.223,0.076-1.764,0.228
	c-0.539,0.151-1.008,0.364-1.404,0.638s-0.711,0.605-0.941,0.994c-0.23,0.39-0.346,0.815-0.346,1.276
	c0,0.462,0.072,0.88,0.217,1.254c0.143,0.375,0.381,0.707,0.713,0.995s0.758,0.537,1.275,0.746c0.52,0.209,1.146,0.4,1.883,0.573
	l0.908,0.194c1.008,0.217,1.729,0.49,2.162,0.822c0.432,0.331,0.648,0.771,0.648,1.318c0,0.39-0.086,0.707-0.26,0.952
	c-0.172,0.245-0.414,0.436-0.725,0.573c-0.311,0.137-0.678,0.237-1.102,0.303c-0.426,0.064-0.877,0.097-1.352,0.097
	c-0.592,0-1.223-0.09-1.893-0.271c-0.67-0.18-1.352-0.479-2.045-0.897l-0.734,1.471c0.779,0.433,1.539,0.742,2.281,0.93
	s1.539,0.281,2.391,0.281c0.748,0,1.434-0.072,2.053-0.216c0.621-0.145,1.158-0.36,1.611-0.648c0.455-0.289,0.805-0.649,1.049-1.082
	c0.246-0.433,0.369-0.93,0.369-1.492c0-0.476-0.072-0.915-0.217-1.318C333.77,486.763,333.526,486.41,333.178,486.106z"/>
</svg>

