<?xml version="1.0" encoding="utf-8"?>
<!-- Generator: Adobe Illustrator 21.0.0, SVG Export Plug-In . SVG Version: 6.00 Build 0)  -->
<svg version="1.1" id="Layer_1" xmlns="http://www.w3.org/2000/svg" xmlns:xlink="http://www.w3.org/1999/xlink" x="0px" y="0px"
	 viewBox="0 0 800 500" style="enable-background:new 0 0 800 500;" xml:space="preserve">
<style type="text/css">
	.st0{filter:url(#Adobe_OpacityMaskFilter);}
	.st1{clip-path:url(#SVGID_2_);fill:url(#SVGID_4_);}
	.st2{clip-path:url(#SVGID_2_);mask:url(#SVGID_3_);}
	.st3{filter:url(#Adobe_OpacityMaskFilter_1_);}
	.st4{clip-path:url(#SVGID_6_);fill:url(#SVGID_8_);}
	.st5{clip-path:url(#SVGID_6_);mask:url(#SVGID_7_);}
	.st6{filter:url(#Adobe_OpacityMaskFilter_2_);}
	.st7{clip-path:url(#SVGID_10_);fill:url(#SVGID_12_);}
	.st8{clip-path:url(#SVGID_10_);mask:url(#SVGID_11_);}
	.st9{filter:url(#Adobe_OpacityMaskFilter_3_);}
	.st10{clip-path:url(#SVGID_14_);fill:url(#SVGID_16_);}
	.st11{clip-path:url(#SVGID_14_);mask:url(#SVGID_15_);}
</style>
<g>
	<g>
		<g>
			<defs>
				<path fill="#000000" id="SVGID_1_" d="M158.6,190.7c48.9-9.7,115.4-9.2,127.2,18.6c-15.6,2.6-31.4,4.2-46.8,4.2
					C209.2,213.4,181,207.4,158.6,190.7 M135.2,167.3c-5,2.7-23.3,32.1-19.9,37.1c19.4,28.5,48.2,41.3,80.3,45.2
					c-37.3,6-68.2,0.9-85.4-25.4c0.1-0.2,0.1-0.4,0.2-0.5c-0.1,0.1-0.2,0.3-0.3,0.4c-0.7-1-1.4-2-2-3.1l-3.2,5.8
					c-4.4,7.1-8.8,14.3-13.2,21.4c0.9-12.1-10.6-15.8-21.2-30.4c-0.3,0.1-0.6,0.2-0.9,0.4c-11.9,9.7-23.8,18.7-34.8,29.4
					C26,256.4,21,279.5,16,284.4c22.3-21.9,36.8-27.6,55.3,3c1.1-0.3,1.9-0.9,2.5-2c6.5-6.9,11.9-13.7,16.7-20.7
					c31,40.9,100.9,24.4,173-1.3c-6.2,8.8-17.2,34.7-14.5,31.8c8-8.9,20-22.4,31.2-37.9c93.1-34.5,185.1-77.8,197.3-26.4
					c-1.8-7.3,24.9-32,22-44c-4.5-18.9-18.7-25.5-39.2-24.5c-1-0.1-2-0.2-3.3-0.2c-28.2,0.1-139.2,39-149.1,42.5
					c4.3-16.2,3.2-31.6-7.7-43.8c-13.4-14.9-35.3-20.4-59.4-20.4C202.4,140.6,158.5,154.7,135.2,167.3"/>
			</defs>
			<use xlink:href="#SVGID_1_"  style="overflow:visible;"/>
			<clipPath id="SVGID_2_">
				<use xlink:href="#SVGID_1_"  style="overflow:visible;"/>
			</clipPath>
			<defs>
				<filter id="Adobe_OpacityMaskFilter" filterUnits="userSpaceOnUse" x="16" y="140.6" width="486.4" height="165">
					<feColorMatrix  type="matrix" values="1 0 0 0 0  0 1 0 0 0  0 0 1 0 0  0 0 0 1 0"/>
				</filter>
			</defs>
			<mask maskUnits="userSpaceOnUse" x="16" y="140.6" width="486.4" height="165" id="SVGID_3_">
				<g class="st0">
					
						<linearGradient id="SVGID_4_" gradientUnits="userSpaceOnUse" x1="-79.2371" y1="529.8976" x2="-76.9984" y2="529.8976" gradientTransform="matrix(-283.0507 0 0 283.0507 -21928.1934 -149764.7656)">
						<stop  offset="0" style="stop-color:#FFFFFF"/>
						<stop  offset="0.2905" style="stop-color:#FDFDFD"/>
						<stop  offset="0.4281" style="stop-color:#F5F5F5"/>
						<stop  offset="0.5335" style="stop-color:#E8E8E8"/>
						<stop  offset="0.6227" style="stop-color:#D6D6D6"/>
						<stop  offset="0.7015" style="stop-color:#BEBEBE"/>
						<stop  offset="0.773" style="stop-color:#A1A1A1"/>
						<stop  offset="0.8389" style="stop-color:#7D7D7D"/>
						<stop  offset="0.9007" style="stop-color:#555555"/>
						<stop  offset="0.9567" style="stop-color:#282828"/>
						<stop  offset="1" style="stop-color:#000000"/>
					</linearGradient>
					<rect x="16" y="140.6" class="st1" width="486.4" height="165"/>
				</g>
			</mask>
			<rect x="16" y="140.6" class="st2" width="486.4" height="165"/>
		</g>
		<g>
			<defs>
				<path fill="#000000" id="SVGID_5_" d="M454.4,313.9c-0.4,0.7-6.8,14.3-6,14.3c11.3,0.2,20.6,4.3,27.9,13c0.7,0.8,7-9.5,8.6-12.1
					c9.1,0.2,17,3.3,23.7,9.5c-1,1.8-2.1,3.7-3.1,5.5c-1.5,2.6-2.5,5.3-3.6,7.4c-1.9,4.5-2.9,7.6-2.9,7.6l0.3,0.2
					c0,0,5.6-9.1,11.8-19c2.1-2.4,8.2-11.9,8.6-12.5c0.7-1.2,4.7-7.6,6-11.5c0.3-0.4,0.4-0.7,0.4-0.7l-0.3-0.2
					c0.2-0.9,0.2-1.6-0.1-1.9c-7.8-8.3-17.3-11.9-28.6-11.4c-2.5,0.1-5.8,6.5-7.8,10.3c-7-7.3-15.6-10.9-25.9-11.1c0,0,0,0,0,0
					C460.3,301.2,455.5,311.9,454.4,313.9"/>
			</defs>
			<use xlink:href="#SVGID_5_"  style="overflow:visible;"/>
			<clipPath id="SVGID_6_">
				<use xlink:href="#SVGID_5_"  style="overflow:visible;"/>
			</clipPath>
			<defs>
				<filter id="Adobe_OpacityMaskFilter_1_" filterUnits="userSpaceOnUse" x="447.6" y="301.2" width="78.4" height="58.1">
					<feColorMatrix  type="matrix" values="1 0 0 0 0  0 1 0 0 0  0 0 1 0 0  0 0 0 1 0"/>
				</filter>
			</defs>
			<mask maskUnits="userSpaceOnUse" x="447.6" y="301.2" width="78.4" height="58.1" id="SVGID_7_">
				<g class="st3">
					
						<linearGradient id="SVGID_8_" gradientUnits="userSpaceOnUse" x1="-81.0518" y1="530.7238" x2="-78.8128" y2="530.7238" gradientTransform="matrix(-39.4502 0 0 39.4502 -2671.5352 -20606.873)">
						<stop  offset="0" style="stop-color:#FFFFFF"/>
						<stop  offset="0.3726" style="stop-color:#FDFDFD"/>
						<stop  offset="0.5069" style="stop-color:#F6F6F6"/>
						<stop  offset="0.6026" style="stop-color:#EBEBEB"/>
						<stop  offset="0.68" style="stop-color:#DADADA"/>
						<stop  offset="0.7463" style="stop-color:#C4C4C4"/>
						<stop  offset="0.805" style="stop-color:#A8A8A8"/>
						<stop  offset="0.8581" style="stop-color:#888888"/>
						<stop  offset="0.9069" style="stop-color:#626262"/>
						<stop  offset="0.9523" style="stop-color:#373737"/>
						<stop  offset="0.9926" style="stop-color:#090909"/>
						<stop  offset="1" style="stop-color:#000000"/>
					</linearGradient>
					<rect x="447.6" y="301.2" class="st4" width="78.4" height="58.1"/>
				</g>
			</mask>
			<rect x="447.6" y="301.2" class="st5" width="78.4" height="58.1"/>
		</g>
		<g>
			<defs>
				<path fill="#000000" id="SVGID_9_" d="M65.4,313.9c-0.4,0.7-6.8,14.3-6,14.3c11.3,0.2,20.6,4.3,27.9,13c0.7,0.8,7-9.5,8.6-12.1
					c9.1,0.2,17,3.3,23.7,9.5c-1,1.8-2.1,3.7-3.1,5.5c-1.5,2.6-2.5,5.3-3.6,7.4c-1.9,4.5-2.9,7.6-2.9,7.6l0.3,0.2
					c0,0,5.6-9.1,11.8-19c2.1-2.4,8.2-11.9,8.6-12.5c0.7-1.2,4.7-7.6,6-11.5c0.3-0.4,0.4-0.7,0.4-0.7l-0.2-0.2
					c0.2-0.9,0.2-1.6-0.1-1.9c-7.8-8.3-17.3-11.9-28.6-11.4c-2.5,0.1-5.8,6.5-7.8,10.3c-7-7.3-15.6-10.9-25.9-11.1c0,0,0,0,0,0
					C71.3,301.2,66.5,311.9,65.4,313.9"/>
			</defs>
			<use xlink:href="#SVGID_9_"  style="overflow:visible;"/>
			<clipPath id="SVGID_10_">
				<use xlink:href="#SVGID_9_"  style="overflow:visible;"/>
			</clipPath>
			<defs>
				<filter id="Adobe_OpacityMaskFilter_2_" filterUnits="userSpaceOnUse" x="58.6" y="301.2" width="78.4" height="58.1">
					<feColorMatrix  type="matrix" values="1 0 0 0 0  0 1 0 0 0  0 0 1 0 0  0 0 0 1 0"/>
				</filter>
			</defs>
			<mask maskUnits="userSpaceOnUse" x="58.6" y="301.2" width="78.4" height="58.1" id="SVGID_11_">
				<g class="st6">
					
						<linearGradient id="SVGID_12_" gradientUnits="userSpaceOnUse" x1="-75.594" y1="530.7238" x2="-73.3553" y2="530.7238" gradientTransform="matrix(-39.4502 0 0 39.4502 -2845.2163 -20606.873)">
						<stop  offset="0" style="stop-color:#FFFFFF"/>
						<stop  offset="0.3726" style="stop-color:#FDFDFD"/>
						<stop  offset="0.5069" style="stop-color:#F6F6F6"/>
						<stop  offset="0.6026" style="stop-color:#EBEBEB"/>
						<stop  offset="0.68" style="stop-color:#DADADA"/>
						<stop  offset="0.7463" style="stop-color:#C4C4C4"/>
						<stop  offset="0.805" style="stop-color:#A8A8A8"/>
						<stop  offset="0.8581" style="stop-color:#888888"/>
						<stop  offset="0.9069" style="stop-color:#626262"/>
						<stop  offset="0.9523" style="stop-color:#373737"/>
						<stop  offset="0.9926" style="stop-color:#090909"/>
						<stop  offset="1" style="stop-color:#000000"/>
					</linearGradient>
					<rect x="58.6" y="301.2" class="st7" width="78.4" height="58.1"/>
				</g>
			</mask>
			<rect x="58.6" y="301.2" class="st8" width="78.4" height="58.1"/>
		</g>
		<g>
			<defs>
				<path fill="#000000" id="SVGID_13_" d="M544.5,198.7c52.9-10.4,126.5-9.3,128.8,25.8c-9.7,0.8-19.5,1.3-29.1,1.3
					C606.9,225.8,571.1,218.7,544.5,198.7 M520.7,175.3c-5,2.7-23.3,32.1-19.8,37.1c16,23.2,39.4,36.9,66.4,44.2
					c-34.8,1.6-63.1-5.1-75.1-28.1c0,0.1-18.9,30.1-20.4,34.3c6.1-17.8-7.4-20.1-19.8-37c-0.3,0.1-0.6,0.2-0.9,0.4
					c-11.9,9.7-23.8,18.7-34.8,29.4c-8.9,8.7-13.9,31.8-18.9,36.7c22.3-21.8,36.8-27.6,55.3,3c1.1-0.3,1.9-0.9,2.5-2
					c7.4-7.8,13.4-15.6,18.7-23.7C499,308.1,576,294.4,646.3,276c-6.1,10.9-13.9,29.9-11.8,27.3c6.9-8.3,16.2-19,25.5-30.9
					c41.7-11.3,79.5-23.2,100.6-25.1c5.7-0.5,9.9-11.4,13.4-21.2c2-7.5,3.9-13.1,4.8-15.9c0,0,0,0-0.1,0c0.2-0.4,0.3-0.8,0.5-1.3
					c0.2-0.4,0.3-0.7,0.3-0.7l0,0c1.4-3.4,2.8-5.9,4.5-6.4c-26,8-59.2,16.4-93.7,20.9c7.8-19.8,8.8-39.1-5-54
					c-13.4-14.6-35.1-20-58.9-20C588,148.6,544.2,162.6,520.7,175.3"/>
			</defs>
			<use xlink:href="#SVGID_13_"  style="overflow:visible;"/>
			<clipPath id="SVGID_14_">
				<use xlink:href="#SVGID_13_"  style="overflow:visible;"/>
			</clipPath>
			<defs>
				<filter id="Adobe_OpacityMaskFilter_3_" filterUnits="userSpaceOnUse" x="397.4" y="148.6" width="386.6" height="159.6">
					<feColorMatrix  type="matrix" values="1 0 0 0 0  0 1 0 0 0  0 0 1 0 0  0 0 0 1 0"/>
				</filter>
			</defs>
			<mask maskUnits="userSpaceOnUse" x="397.4" y="148.6" width="386.6" height="159.6" id="SVGID_15_">
				<g class="st9">
					
						<linearGradient id="SVGID_16_" gradientUnits="userSpaceOnUse" x1="-80.124" y1="529.8638" x2="-77.8858" y2="529.8638" gradientTransform="matrix(-199.3121 0 0 199.3121 -15185.6777 -105379.9219)">
						<stop  offset="0" style="stop-color:#FFFFFF"/>
						<stop  offset="0.3726" style="stop-color:#FDFDFD"/>
						<stop  offset="0.5069" style="stop-color:#F6F6F6"/>
						<stop  offset="0.6026" style="stop-color:#EBEBEB"/>
						<stop  offset="0.68" style="stop-color:#DADADA"/>
						<stop  offset="0.7463" style="stop-color:#C4C4C4"/>
						<stop  offset="0.805" style="stop-color:#A8A8A8"/>
						<stop  offset="0.8581" style="stop-color:#888888"/>
						<stop  offset="0.9069" style="stop-color:#626262"/>
						<stop  offset="0.9523" style="stop-color:#373737"/>
						<stop  offset="0.9926" style="stop-color:#090909"/>
						<stop  offset="1" style="stop-color:#000000"/>
					</linearGradient>
					<rect x="397.4" y="148.6" class="st10" width="386.6" height="159.6"/>
				</g>
			</mask>
			<rect x="397.4" y="148.6" class="st11" width="386.6" height="159.6"/>
		</g>
	</g>
</g>
<path fill="#000000" d="M273.602,481.306c-0.578-0.576-1.301-1.03-2.174-1.362c-0.873-0.331-1.885-0.497-3.039-0.497
	c-0.663,0-1.463,0.079-2.4,0.238v-6.077h-1.535v17.711c0.706,0.202,1.402,0.354,2.087,0.454s1.301,0.151,1.849,0.151
	c1.153,0,2.166-0.162,3.039-0.486s1.596-0.764,2.174-1.319c0.576-0.555,1.006-1.211,1.287-1.968s0.42-1.561,0.42-2.411
	s-0.139-1.657-0.42-2.422C274.608,482.554,274.178,481.883,273.602,481.306z M272.391,489.167c-0.852,0.829-2.17,1.243-3.958,1.243
	c-0.39,0-0.805-0.032-1.244-0.097c-0.439-0.065-0.84-0.134-1.2-0.206v-8.845c0.447-0.115,0.887-0.194,1.319-0.237
	c0.433-0.044,0.808-0.065,1.125-0.065c0.894,0,1.668,0.112,2.325,0.335c0.656,0.224,1.199,0.545,1.633,0.963
	c0.432,0.418,0.752,0.919,0.961,1.503s0.314,1.243,0.314,1.979C273.667,487.195,273.241,488.338,272.391,489.167z M247.392,479.446
	c-0.62,0-1.297,0.079-2.033,0.238c-0.735,0.158-1.485,0.433-2.249,0.821l-0.065,1.73c0.548-0.303,0.973-0.52,1.276-0.649
	s0.624-0.237,0.962-0.324c0.338-0.086,0.677-0.158,1.016-0.216s0.667-0.087,0.984-0.087c1.139,0,1.982,0.249,2.53,0.746
	s0.822,1.33,0.822,2.498v0.13c-0.332-0.044-0.732-0.087-1.2-0.13c-0.469-0.043-0.876-0.065-1.222-0.065
	c-1.831,0-3.302,0.311-4.412,0.931c-1.11,0.619-1.665,1.644-1.665,3.07c0,0.707,0.155,1.305,0.465,1.795
	c0.31,0.49,0.713,0.88,1.211,1.168s1.067,0.497,1.708,0.627c0.641,0.13,1.308,0.194,2,0.194c0.807,0,1.6-0.072,2.378-0.216
	c0.779-0.145,1.536-0.368,2.271-0.671v-7.028c0-1.585-0.397-2.742-1.189-3.471C250.189,479.811,248.992,479.446,247.392,479.446z
	 M250.636,489.892c-0.375,0.144-0.858,0.267-1.449,0.367c-0.591,0.102-1.183,0.151-1.773,0.151c-0.505,0-0.984-0.035-1.438-0.108
	c-0.454-0.071-0.84-0.197-1.157-0.378c-0.317-0.18-0.57-0.414-0.757-0.703c-0.188-0.288-0.281-0.663-0.281-1.124
	c0-0.52,0.111-0.934,0.335-1.244c0.224-0.31,0.533-0.551,0.93-0.724c0.396-0.174,0.85-0.296,1.362-0.368
	c0.511-0.072,1.041-0.108,1.589-0.108c0.476,0,0.984,0.029,1.524,0.087c0.541,0.058,0.912,0.108,1.114,0.151V489.892z
	 M258.032,479.868c-0.649,0.122-1.276,0.263-1.881,0.422v11.418h1.535v-10.186c0.202-0.072,0.563-0.147,1.082-0.228
	c0.519-0.079,1.002-0.118,1.449-0.118h1.989v-1.492H260C259.336,479.685,258.681,479.746,258.032,479.868z M-77.92,487.667
	l241.145,0.656l0.663-0.433l-0.632-0.564L-77.92,487.667z M164.994,487.825l1.95,1.95l1.95-1.95l-1.95-1.95L164.994,487.825z
	 M169.559,487.825l3.057,3.057l3.057-3.057l-3.057-3.057L169.559,487.825z M212.359,489.286l-3.395-9.602h-1.514l-3.396,9.602
	l-2.984-9.602h-1.73l3.979,12.023h1.428l3.46-9.645l3.46,9.645h1.427l3.979-12.023h-1.73L212.359,489.286z M238.418,489.589
	c-0.317,0-0.591,0.115-0.822,0.346c-0.231,0.23-0.346,0.505-0.346,0.822c0,0.316,0.115,0.591,0.346,0.821
	c0.23,0.23,0.504,0.346,0.822,0.346c0.317,0,0.591-0.115,0.822-0.346c0.23-0.23,0.346-0.505,0.346-0.821
	c0-0.317-0.116-0.592-0.346-0.822C239.009,489.704,238.735,489.589,238.418,489.589z M193.243,489.286l-3.395-9.602h-1.514
	l-3.396,9.602l-2.984-9.602h-1.73l3.979,12.023h1.428l3.46-9.645l3.46,9.645h1.427l3.979-12.023h-1.73L193.243,489.286z
	 M231.476,489.286l-3.395-9.602h-1.514l-3.396,9.602l-2.984-9.602h-1.73l3.979,12.023h1.428l3.46-9.645l3.46,9.645h1.427
	l3.979-12.023h-1.73L231.476,489.286z M382.732,480.474c-0.426-0.396-0.938-0.667-1.535-0.812c-0.598-0.144-1.271-0.216-2.021-0.216
	c-0.664,0-1.393,0.09-2.184,0.271c-0.793,0.181-1.471,0.4-2.033,0.659c-0.346-0.331-0.818-0.569-1.416-0.714
	c-0.6-0.144-1.273-0.216-2.023-0.216c-0.635,0-1.268,0.058-1.902,0.173l-2.465,0.454v11.635h1.535v-10.38
	c0.447-0.102,0.883-0.188,1.309-0.26c0.424-0.072,0.896-0.108,1.416-0.108c0.605,0,1.125,0.058,1.557,0.173
	c0.434,0.116,0.789,0.321,1.07,0.616c0.281,0.296,0.494,0.711,0.639,1.244s0.217,1.24,0.217,2.119v6.596h1.535v-7.201
	c0-0.663-0.055-1.243-0.162-1.741c-0.109-0.497-0.213-0.861-0.314-1.092c0.086-0.043,0.281-0.119,0.584-0.228
	c0.303-0.107,0.602-0.197,0.898-0.27c0.295-0.072,0.586-0.126,0.875-0.162s0.547-0.055,0.779-0.055c0.59,0,1.102,0.058,1.535,0.173
	c0.432,0.116,0.781,0.317,1.049,0.605c0.266,0.289,0.471,0.703,0.615,1.244c0.145,0.54,0.217,1.251,0.217,2.13v6.596h1.535v-7.201
	c0-0.995-0.111-1.816-0.336-2.466C383.482,481.393,383.158,480.87,382.732,480.474z M280.1,474.581
	c-0.785,0.648-1.18,1.729-1.18,3.243v1.86h-2.551v1.492h2.551v10.531h1.537v-10.531h4.973v-1.492h-4.973v-1.471
	c0-0.635,0.045-1.149,0.141-1.546c0.094-0.396,0.24-0.707,0.443-0.931c0.201-0.223,0.475-0.385,0.82-0.486
	c0.346-0.101,0.779-0.151,1.299-0.151h2.422v-1.492h-2.271C281.956,473.607,280.885,473.932,280.1,474.581z M398.273,487.825
	l3.057,3.057l3.057-3.057l-3.057-3.057L398.273,487.825z M343.322,482.322c0.389-0.418,0.854-0.749,1.395-0.994
	s1.135-0.368,1.783-0.368c0.736,0,1.373,0.076,1.914,0.228s1.121,0.414,1.74,0.789l0.715-1.405c-0.707-0.39-1.393-0.674-2.055-0.854
	c-0.664-0.181-1.436-0.271-2.314-0.271c-0.85,0-1.639,0.155-2.367,0.465c-0.729,0.311-1.367,0.746-1.914,1.309
	c-0.549,0.563-0.98,1.222-1.297,1.979c-0.317,0.757-0.476,1.59-0.476,2.498s0.158,1.74,0.476,2.497
	c0.316,0.757,0.748,1.413,1.297,1.969c0.547,0.555,1.186,0.987,1.914,1.297c0.729,0.311,1.518,0.465,2.367,0.465
	c0.879,0,1.65-0.09,2.314-0.27c0.662-0.181,1.348-0.466,2.055-0.854l-0.715-1.406c-0.619,0.375-1.199,0.639-1.74,0.79
	s-1.178,0.227-1.914,0.227c-0.648,0-1.242-0.119-1.783-0.356c-0.541-0.238-1.006-0.565-1.395-0.984
	c-0.391-0.418-0.693-0.915-0.908-1.492c-0.217-0.576-0.324-1.203-0.324-1.881s0.107-1.305,0.324-1.882
	C342.628,483.238,342.931,482.741,343.322,482.322z M404.387,487.825l1.949,1.95l1.951-1.95l-1.951-1.95L404.387,487.825z
	 M410.701,487.326l-0.664,0.433l0.633,0.564l241.176-0.341L410.701,487.326z M362.611,481.295c-0.549-0.569-1.193-1.02-1.936-1.352
	c-0.742-0.331-1.547-0.497-2.412-0.497c-0.863,0-1.668,0.166-2.41,0.497c-0.742,0.332-1.389,0.782-1.936,1.352
	c-0.549,0.57-0.977,1.229-1.287,1.979c-0.311,0.749-0.465,1.557-0.465,2.422s0.154,1.672,0.465,2.422s0.738,1.409,1.287,1.979
	c0.547,0.569,1.193,1.017,1.936,1.341s1.547,0.486,2.41,0.486c0.865,0,1.67-0.162,2.412-0.486s1.387-0.771,1.936-1.341
	c0.547-0.569,0.977-1.229,1.287-1.979c0.309-0.75,0.465-1.557,0.465-2.422s-0.156-1.673-0.465-2.422
	C363.587,482.524,363.158,481.865,362.611,481.295z M362.394,487.523c-0.217,0.569-0.52,1.067-0.908,1.492
	c-0.389,0.426-0.857,0.765-1.406,1.017c-0.547,0.252-1.152,0.378-1.816,0.378c-0.662,0-1.268-0.126-1.816-0.378
	c-0.547-0.252-1.016-0.591-1.404-1.017c-0.391-0.425-0.693-0.923-0.908-1.492c-0.217-0.569-0.324-1.179-0.324-1.827
	c0-0.649,0.107-1.262,0.324-1.839c0.215-0.576,0.518-1.077,0.908-1.503c0.389-0.425,0.857-0.764,1.404-1.016
	c0.549-0.252,1.154-0.379,1.816-0.379c0.664,0,1.27,0.127,1.816,0.379c0.549,0.252,1.018,0.591,1.406,1.016
	c0.389,0.426,0.691,0.927,0.908,1.503c0.217,0.577,0.324,1.189,0.324,1.839C362.718,486.345,362.611,486.954,362.394,487.523z
	 M296.221,481.295c-0.547-0.569-1.191-1.02-1.936-1.352c-0.742-0.331-1.545-0.497-2.41-0.497s-1.67,0.166-2.412,0.497
	c-0.742,0.332-1.387,0.782-1.936,1.352c-0.547,0.57-0.977,1.229-1.285,1.979c-0.311,0.749-0.465,1.557-0.465,2.422
	s0.154,1.672,0.465,2.422c0.309,0.75,0.738,1.409,1.285,1.979c0.549,0.569,1.193,1.017,1.936,1.341s1.547,0.486,2.412,0.486
	s1.668-0.162,2.41-0.486c0.744-0.324,1.389-0.771,1.936-1.341c0.549-0.569,0.977-1.229,1.287-1.979s0.465-1.557,0.465-2.422
	s-0.154-1.673-0.465-2.422C297.198,482.524,296.77,481.865,296.221,481.295z M296.006,487.523c-0.217,0.569-0.52,1.067-0.908,1.492
	c-0.391,0.426-0.859,0.765-1.406,1.017c-0.549,0.252-1.154,0.378-1.816,0.378c-0.664,0-1.27-0.126-1.816-0.378
	c-0.549-0.252-1.018-0.591-1.406-1.017c-0.389-0.425-0.691-0.923-0.908-1.492s-0.324-1.179-0.324-1.827
	c0-0.649,0.107-1.262,0.324-1.839c0.217-0.576,0.52-1.077,0.908-1.503c0.389-0.425,0.857-0.764,1.406-1.016
	c0.547-0.252,1.152-0.379,1.816-0.379c0.662,0,1.268,0.127,1.816,0.379c0.547,0.252,1.016,0.591,1.406,1.016
	c0.389,0.426,0.691,0.927,0.908,1.503c0.215,0.577,0.324,1.189,0.324,1.839C296.331,486.345,296.221,486.954,296.006,487.523z
	 M309.381,480.463c-0.455-0.39-0.996-0.656-1.623-0.801c-0.627-0.144-1.309-0.216-2.043-0.216c-0.707,0-1.465,0.047-2.271,0.141
	s-1.701,0.234-2.682,0.422v11.699h1.535v-10.402c1.184-0.23,2.293-0.346,3.33-0.346c0.592,0,1.111,0.062,1.559,0.184
	c0.445,0.123,0.818,0.332,1.113,0.628c0.295,0.295,0.525,0.713,0.691,1.254s0.25,1.251,0.25,2.13v6.553h1.535v-7.201
	c0-0.995-0.119-1.82-0.357-2.477C310.18,481.375,309.834,480.852,309.381,480.463z M318.516,490.054
	c-0.346-0.108-0.619-0.277-0.82-0.509c-0.203-0.23-0.35-0.547-0.443-0.951c-0.096-0.403-0.141-0.922-0.141-1.557v-5.86h4.973v-1.492
	h-4.973v-4.347h-1.537v4.347h-2.551v1.492h2.551v6.466c0,0.764,0.109,1.405,0.326,1.925c0.215,0.519,0.525,0.937,0.93,1.254
	c0.402,0.317,0.867,0.544,1.395,0.682c0.525,0.137,1.105,0.205,1.74,0.205h2.271v-1.492h-2.422
	C319.295,490.216,318.862,490.162,318.516,490.054z M337.784,489.589c-0.316,0-0.59,0.115-0.82,0.346s-0.346,0.505-0.346,0.822
	c0,0.316,0.115,0.591,0.346,0.821s0.504,0.346,0.82,0.346c0.318,0,0.592-0.115,0.822-0.346s0.346-0.505,0.346-0.821
	c0-0.317-0.115-0.592-0.346-0.822S338.102,489.589,337.784,489.589z M333.178,486.106c-0.346-0.303-0.785-0.565-1.318-0.789
	c-0.533-0.223-1.182-0.422-1.947-0.595l-0.799-0.173c-1.053-0.216-1.781-0.461-2.184-0.735c-0.404-0.273-0.607-0.678-0.607-1.211
	c0-0.504,0.238-0.904,0.715-1.2c0.475-0.295,1.174-0.443,2.098-0.443c0.793,0,1.477,0.076,2.055,0.228
	c0.576,0.151,1.217,0.421,1.924,0.811l0.691-1.405c-1.412-0.765-2.969-1.146-4.67-1.146c-0.635,0-1.223,0.076-1.764,0.228
	c-0.539,0.151-1.008,0.364-1.404,0.638s-0.711,0.605-0.941,0.994c-0.23,0.39-0.346,0.815-0.346,1.276
	c0,0.462,0.072,0.88,0.217,1.254c0.143,0.375,0.381,0.707,0.713,0.995s0.758,0.537,1.275,0.746c0.52,0.209,1.146,0.4,1.883,0.573
	l0.908,0.194c1.008,0.217,1.729,0.49,2.162,0.822c0.432,0.331,0.648,0.771,0.648,1.318c0,0.39-0.086,0.707-0.26,0.952
	c-0.172,0.245-0.414,0.436-0.725,0.573c-0.311,0.137-0.678,0.237-1.102,0.303c-0.426,0.064-0.877,0.097-1.352,0.097
	c-0.592,0-1.223-0.09-1.893-0.271c-0.67-0.18-1.352-0.479-2.045-0.897l-0.734,1.471c0.779,0.433,1.539,0.742,2.281,0.93
	s1.539,0.281,2.391,0.281c0.748,0,1.434-0.072,2.053-0.216c0.621-0.145,1.158-0.36,1.611-0.648c0.455-0.289,0.805-0.649,1.049-1.082
	c0.246-0.433,0.369-0.93,0.369-1.492c0-0.476-0.072-0.915-0.217-1.318C333.77,486.763,333.526,486.41,333.178,486.106z"/>
</svg>

