<?xml version="1.0" encoding="utf-8"?>
<!-- Generator: Adobe Illustrator 21.0.0, SVG Export Plug-In . SVG Version: 6.00 Build 0)  -->
<svg version="1.1" id="Layer_1" xmlns="http://www.w3.org/2000/svg" xmlns:xlink="http://www.w3.org/1999/xlink" x="0px" y="0px"
	 viewBox="0 0 800 500" style="enable-background:new 0 0 800 500;" xml:space="preserve">
<g>
	<path fill="#000000" d="M635,192.2c0.1,0,0.1,0,0.2-0.2C635,192,634.9,192.1,635,192.2z"/>
	<path fill="#000000" d="M635.7,192.5c19.8-1.3,43.8-12.7,64.5-11.8c-0.9-2.5,10.5-2.6,11.7-2.2c0.2-4.3-3.5-11.8-3.6-13.5c0.6,0.2,0.8,0,0.6-0.5
		c-10.4,0.2-24.2,1.5-34.6,4.6c1,1.1-7,0.9-8.5,2.3c1.5-0.2-2.6,1-1.2,0.7c-1.8,0.4-6.7,1-8.8,3.6c0.1-0.4,0.1-0.8,0.2-1.3
		c-2.4,0.5-11.8,1.3-11.8,1.3c-0.7,0.1-0.7,0.5,0,1.1c-1.5,0.3-5.7,1.2-6.1,1.1c-2.4,2.8-2.9-0.3-2.7,4.6c0,1,0.2,8.2-0.2,9.4
		C635.7,191.8,637.9,191.9,635.7,192.5z"/>
	<path fill="#000000" d="M675.5,159.1c0.2-0.3,0.1-0.4,0.1-0.6C675.4,158.8,675.4,159,675.5,159.1z"/>
	<path fill="#000000" d="M710,164.8c-0.3-0.3-0.7-0.3-1.1-0.3C709.2,164.8,709.6,164.9,710,164.8z"/>
	<path fill="#000000" d="M141.7,163.6c-0.1,0-0.1,0.1-0.1,0.1C141.6,163.7,141.6,163.7,141.7,163.6z"/>
	<path fill="#000000" d="M142.4,164.2c7.9,0.6,17.8,2.4,23,11c3.4,5.1,3.8,10.6,4.1,16.6c1.6,1.4,16.4,0.6,16.7-0.7c-0.1-0.3-0.4-4.9-0.6-5.3
		c-2.9-9.4,12-21.6,19.3-25.5c0,0-0.4,0.2,0,0c2.8-1.9,10.7-5.2,14.4-3.1c4.9-4.2-4-14.9-4-14.3c1.2-0.8,0.4,0,1.2-0.6
		c-16.4,0.7-31.9,10.2-40.3,22.6c-1.3-1.7-11.3-12.5-12.7-11.6c-0.1,0.1-2.2-2.2-1.7,0.1c-2.5-1.4-6.7-2.2-10.3-3
		c0.4-1.1-0.1,0.2-3.3-0.2c-4.3-0.6-5.8,12-6.5,13.3C142.4,163.4,145.7,164,142.4,164.2z"/>
	<path fill="#000000" d="M186.2,191.1C186.2,191.1,186.2,191.1,186.2,191.1C186.2,191.1,186.2,191.1,186.2,191.1z"/>
	<path fill="#000000" d="M656.7,147.5c-0.1,4.8,1.9,10.7,4,14.4c1.6,1.1,4.4,3.8,4.8,6.7c3.2-2.5,9.1-7.5,10.1-10.4c0.5-0.3-3.4-6.3-3.5-6.4
		c1.1-1.1,0.5-3.3-0.6-3.4c0.3-0.1,0.7-0.3,1-0.5c0,0-0.9-2.1-1.5-2c1.6-0.2,0-2.8-1.1-4.4c0.4,0.2,0.7,0.3,1.1,0.5
		c0.3-1.5,1.7-4.2,2.2-3.4c0,0.1-2-2.9,0.5-2.2c-1.5-0.6-6.4-10.9-8.5-11.3c-0.6,0.1-0.6,0.3-0.2,0.6c-0.6,0.4-0.7,0.2-0.4-0.6
		C658.8,129.6,657.5,139.6,656.7,147.5C656.7,148.2,656.7,147.7,656.7,147.5z"/>
	<path fill="#000000" d="M218.6,142.6c-0.5-0.3-1.3-0.3-2-0.2C217.1,142.6,217.7,142.7,218.6,142.6z"/>
	<path fill="#000000" d="M558.7,315.5l0.8,0C559.2,315.4,558.9,315.4,558.7,315.5z"/>
	<path fill="#000000" d="M664.8,328.2c-9.2,2.7-20.8,16.2-16.3,25.5c5.5,11.2,9.1,20.7,22.7,20.6c15.6,0.5,14.7-11.1,22.9-21.5
		c-0.8-2.3-19.9-1.1-22.7-0.9c0,0-0.2-0.2-0.2-0.1c0,0,0.1,0,0,0c3.5-0.7,25.3-0.9,24.6,0c0.2-0.1-0.2-2.7-0.3-3.2
		c0.8,0.3,1.2,1,1.1,1.9c0.1-2.6,0.2-2.9-0.3-5.6C697,332.9,675.4,324.7,664.8,328.2z M671.5,351.9
		C671.5,352.2,671.5,351.9,671.5,351.9L671.5,351.9z M671,352C671.1,351.9,671.3,352,671,352L671,352z M671.3,352
		C671.1,352,671.3,351.9,671.3,352L671.3,352z M671.4,351.5C671.2,352.1,671.4,351.1,671.4,351.5L671.4,351.5z"/>
	<path fill="#000000" d="M696.4,344.9c0,0,0-0.2,0-0.4C696.4,344.6,696.4,344.7,696.4,344.9z"/>
	<path fill="#000000" d="M696.5,344C696.5,343.9,696.5,343.9,696.5,344L696.5,344z"/>
	<path fill="#000000" d="M696.4,344.5c0-0.2,0-0.3,0-0.4C696.5,344.2,696.5,344.3,696.4,344.5z"/>
	<path fill="#000000" d="M696.5,344.1c0-0.1,0-0.1,0-0.1C696.5,344,696.5,344.1,696.5,344.1z"/>
	<path fill="#000000" d="M550,196.1c0-0.2,0-0.3,0-0.4C550,195.8,550,195.9,550,196.1z"/>
	<path fill="#000000" d="M550,196.5c0,0,0-0.2,0-0.4C550,196.2,550,196.3,550,196.5z"/>
	<path fill="#000000" d="M550,195.7c0-0.1,0-0.1,0-0.1C550,195.6,550,195.7,550,195.7z"/>
	<path fill="#000000" d="M524.9,225.9c15.6,0.5,14.7-11.1,22.9-21.6c-0.8-2.3-19.9-1.1-22.7-0.9c0,0-0.2-0.2-0.2-0.1c0,0,0.1,0,0,0
		c3.5-0.7,25.3-0.9,24.6,0c0.2-0.1-0.2-2.7-0.3-3.2c0.8,0.3,1.2,1,1.1,1.9c0.1-2.6,0.2-2.9-0.3-5.6c0.5-12-21.1-20.2-31.6-16.7
		c-9.2,2.7-20.8,16.2-16.3,25.5C507.6,216.5,511.2,226,524.9,225.9z M525,203.5C525,203.8,525,203.5,525,203.5L525,203.5z
		 M524.9,203.1C524.7,203.7,525,202.8,524.9,203.1L524.9,203.1z M524.8,203.6C524.6,203.6,524.8,203.6,524.8,203.6L524.8,203.6z
		 M524.6,203.6C524.6,203.6,524.8,203.6,524.6,203.6L524.6,203.6z"/>
	<path fill="#000000" d="M550,195.6C550,195.5,550,195.5,550,195.6L550,195.6z"/>
	<path fill="#000000" d="M549.6,285.2c-0.6,1.1-1.5,1.5-2.7,1.2c0.6-2.2,0.7-3.9,1-4.4c0.2-7.5-2-16-1.6-24.1c0.9,0.1,2.3,3.8,0.8-0.1
		c-0.4-1-1.5-5.2-1.5-5c-0.5-7.8-0.1-7.4-7.2-8.8c-3.7-0.7-29.9-4.9-28.1-7.7c-0.6,0.3,0.1,5.3,0.1,6.2c-0.8-0.7-1.3-1.5-1.4-2.5
		c-0.2,7.9,0.7,33.2-0.9,33.7c-1.3,1.1-10.6,0.8-11.9,0.4c-3.3-1.2-2.8,1.9-4.4-2.5c-1.4-2.4,0.3-6.9,0.6-9.3
		c0.6-2-2.5-20.9-2.4-26.5c0.2-13.2,0.6-28.1,0.2-39.9c-0.3-8.8-2.4-27.5,0.6-33.5c0.9-1.9-2.3-9.8-2.9-12.8
		c-1.3-6.7,0.5-16.2,0.8-24.4c-12.3,0-24.5,0-36.8,0c-2.2,0-2.3,51.9-2.3,60.3c0,6.7,0.6,15.9,1.6,21.1c1.8,9.8-3.2,30.2-2,43.5
		c0.3-1.3,0.9-2.5,1.7-3.7c1.4,3.1-1.4,8.2-1.6,9.9c0.9,5.5,2.3,12.3,1.6,17.9c0.2-0.1,0.7,7.5,0.8,8.9c0.2,3.5-1.3,7.6-0.3,11.3
		c0.1-0.8,0.3-1.7,0.4-2.5c0.1,3.9-1.3,9.3,0.4,13.1c0.2-0.9,0.4-1.8,0.6-2.7c0.4,3.1,0,6.2-1.2,9.1c-0.1-1.1-0.3-2.3-0.4-3.4
		c0,2.5,0.1,5.1,0.2,7.6c2.6-0.1,5.2-0.4,7.8-0.7c-0.6,0-1.2,0-1.8,0c12.6-2.3,31.2,1.9,42.6-4.4c-0.5-0.4-1-0.7-1.5-1.1
		c0.9-0.3,1.8-0.6,2.7-0.9c-0.5,1.1-1,2.2-1.6,3.2c7.3-0.2,14.7-0.3,22-0.3c8.6-0.1,17.3-0.2,26-0.2c0-0.9-0.3-19.2,1-19
		c0.6,0.5,1,1.1,1.2,1.9c-0.2-2.1-0.9-3.7-1-5.7C549.4,289,551.5,286.3,549.6,285.2z M548.8,288.3c0,0.1,0,0.1,0.1,0.1
		C548.9,289.1,548.8,289.6,548.8,288.3z M548.9,288.4c0-0.3-0.1-0.5-0.1-0.8C548.9,287.2,548.9,287.8,548.9,288.4z"/>
	<path fill="#000000" d="M450.9,274.3c0,0,0,0.2,0,0.5C450.9,274.7,450.9,274.5,450.9,274.3z"/>
	<path fill="#000000" d="M509,240.1c0-0.5,0-1,0.1-1.3C509,239.2,509,239.7,509,240.1z"/>
	<path fill="#000000" d="M625.1,246.5l0.6-0.1C625.5,246.4,625.3,246.4,625.1,246.5z"/>
	<path fill="#000000" d="M760,278.3c-0.6-1-1.7-1.1-2.7-1.2C758.1,278,758.9,278.4,760,278.3z"/>
	<path fill="#000000" d="M598.9,143.3c0.1,0,0.2-0.1,0.2-0.1C599,143.2,598.9,143.3,598.9,143.3z"/>
	<path fill="#000000" d="M758.3,278.3c-0.9,0.1-1.9,0.1-2.8,0.1c0.5-0.5,1.1-0.1,1.7-0.1c-0.8-0.4-0.8-0.8,0.1-1.2c-1,0.1-1.3-0.2-1-1
		c-0.6,0.5-1.7,3.1-3.1,1.6c0.5-0.6,1.2-0.8,1.9-0.6c0-0.4-0.7-2.7,0-2.7c0,0.5,0,1.1,0,1.7c0.3-0.8,0.7-0.8,1.2,0
		c0.5-3.6-5.1-48.8-15.9-44.8c-6.9-8.2-15.1-21-30.7-24.7c0.8,0.7,1.3,1.5,1.6,2.5c-1.9,0.4-4.5-2.3-4.6-4
		c-0.2,0.1-17.2-1.3-16.5,0.5c-0.3-0.9-3.2-3.3-1.9-1.4c-3.1,0-3.4,0.2-4,0.7c-1.3,0.3-2.2-0.1-2.8-1.3c0.4-0.1,0.9-0.3,1.3-0.4
		c-3.7,0.5-14.7,3-14.9,6.4c-0.4,0.3-0.9,0.6-1.3,0.9c0.2-1.1,0.5-2.2,0.8-3.2c-3.8,0.1-20.5,2.7-20.2-1.7c-0.5,0.5-1,0.9-1.6,1.1
		c0.6-1.1,0.3-1.3-0.7-0.8c0.4,0.8,0.6,1.7,0.6,2.7c0,0-2.7-0.8-1.3-1c-1.2-0.1-6.5,1.9-9.3,1.6c1.4-0.9,1.4-1.4-0.1-1.4
		c1,1.6-5.9,2.1-6,3.4c-0.3,3.9-0.7,7.8-1.1,11.8c-0.3,3.2-3.2,22.1-3.1,22.3c0,0.1,2.6-0.1,3-0.1c-0.2,0.9-0.8,1.4-1.8,1.3
		c10.9,1.6,25.9-0.6,40.6-1.3c8.6-0.6,20.7-1.7,27.1-0.8c8-0.1,20.9,14,20.7,20.6c3.8-2.1,5.4,4.2,6.1,6.2c0,5.7-10.5-0.2-12.3,3.8
		c-11.6-0.1-24.1-4.5-40-2.6c0.9,0.4,1.8,1,2.4,1.8c-1.7,1.1-5-0.5-5.7-2.2c-0.4,0.4-16.9,2.8-16.3,3.9c-0.4-0.8-3.6-3.1-2.1-1.2
		c-3,0.2-3.6,0.5-4.1,0.9c-1.3,0.4-2.3-0.1-2.9-1.3c0.5-0.1,0.9-0.3,1.4-0.4c-4.3,0-17.3,1.5-21.5,4.9c1,2.4,0.2,0-0.9,2
		c0.3-1.1,0.7-2.2,1.1-3.2c-3.9,0-15.4,2.2-15.6-2c-0.2-3.7,1.2-8.9-1.7-10.3c-0.1-11.8,4-24.5,1.9-40.5c-0.4,1-1,1.8-1.7,2.5
		c-1.1-1.7,0.4-5.1,2.1-5.8c-0.4-0.4-3.1-17.1-4.2-16.5c1-0.5,3.1-2.9,1.2-2.1c-0.3-3-0.6-3.7-1-4.1c-0.4-1.3,0-2.3,1.2-3
		c0.1,0.5,0.3,0.9,0.4,1.4c-0.1-4.4-1.8-17.4-5.3-21.7c-2.5,0.7,0.2,0.4-2-0.9c1.1,0.3,2.2,0.7,3.2,1.1c-0.1-4.6-2.7-29.3,1.7-28.9
		c-0.2-1-0.8-2.8-0.5-3.3c-0.7,0.5-1.5,0.7-2.4,0.7c0-0.6,1-2.7,1-1.9c0.2-2.8-1.9-9.2-1.6-13.3c1,2,1.4,2,1.4-0.1
		c3.7-3.3-14.6-3.6-14.6-3.6c-8.3,0-16.6,0-24.9,0c2.6,8.9,1.3,24.7,1.9,37c0.8,17,3,39.6,2.2,54.3c-0.4,15.5,1.5,33.5,1.1,48.2
		c-0.2,7.7,0,15.3-1.3,21.4c4-0.7-2.4,29.2-3.5,28c0.2,0.6,3.6,0,4.2,0c-0.5,1-1.4,1.5-2.6,1.3c3.9,0.5,7.8,2.8,15.1,3.3
		c6.5,0.5,13.5,0.9,20-0.6c5.6-1.4,4.5-4.3,4.9,0.1c11-7.4,36.3-2.6,50.9-3.6c10.8-0.8,23.2-1.7,36.4-0.6c11.5,1,25.9,1.5,36.3,0.6
		c4.1-1.2,2.3,1.5,5.6-0.6c1.7-1.1,6.2-1.9,8.5-2.1c4.2-0.3,16.9,0.2,20.9,3.8C761.8,304.9,762.1,289,758.3,278.3z"/>
	<path fill="#000000" d="M75.8,211c0.9-0.4,1.1-1,1.3-1.5C76.1,209.8,75.7,210.3,75.8,211z"/>
	<path fill="#000000" d="M41.6,325.1l1.2-0.1C42.4,325,42,325,41.6,325.1z"/>
	<path fill="#000000" d="M158,217.1l0.1,0.4C158.1,217.3,158.1,217.2,158,217.1z"/>
	<path fill="#000000" d="M258.2,322.1c-0.9,0.9-1.3,1.8-1.2,3C257.9,324.4,258,323.2,258.2,322.1z"/>
	<path fill="#000000" d="M432.1,131.6c0.1,0,0.1-0.1,0.2-0.1C432.2,131.5,432.2,131.5,432.1,131.6z"/>
	<path fill="#000000" d="M430.6,130.2c0,0.1,0,0.2,0,0.2C430.7,130.3,430.7,130.2,430.6,130.2z"/>
	<path fill="#000000" d="M436.3,214.5c-0.4,1-1,1.8-1.7,2.5c-1.1-1.7,0.5-5.2,2.1-5.9c0,0-0.3,0.1-0.6,0.2c0.1-0.1,0.3-0.1,0.6-0.2
		c-0.4-0.4-3-17.4-4.1-16.8c1-0.5,3.1-3,1.2-2.1c-0.3-3.1-0.6-3.8-0.9-4.2c-0.4-1.4,0-2.4,1.3-3c0.1,0.5,0.3,0.9,0.4,1.4
		c0-4.5-1.6-17.7-5.1-22.2c-2.5,0.7,0.2,0.4-2-0.9c1.1,0.3,2.2,0.7,3.2,1.1c-0.1-4.6-2.3-29.9,2-29.4c-0.2-1-0.8-2.9-0.5-3.3
		c-0.7,0.5-1.6,0.7-2.5,0.7c0-0.2,0.8-2.3,1-2.2c-0.2-1-1.8-3.4-1.7-5c-12.6,0-25.1,0-37.7,0c4.4,12.4,1.6,31.8,1.8,44.6
		c0.2,10.9,1.7,22.6,0.4,33.3c-0.4,3.4,2.1,10.5,2.1,16.2c-0.3,18.1-1.4,33.8-1.2,51.5c0.1,5.9,8.9,31.2-0.5,37.5
		c6.8,2.2,15.8,2.3,23.1,2.2c4,0,10.1,0.2,13.4-2.7c0.2-0.1,0.7-1.1,1-1.8c0,0.3,0,0.5-0.1,0.8c0.2-0.8,0.7,0.2,1.7-1.4
		c-2.9-2.3,2.4-26.3,2.2-32c-0.2-4.4,2.8-14.9-1-17.6C434,243.7,438.2,230.8,436.3,214.5z M435.8,211.5
		C435.7,211.5,435.7,211.5,435.8,211.5L435.8,211.5z"/>
	<path fill="#000000" d="M509,237.5l0.1,1.2C509.1,238.3,509.1,237.9,509,237.5z"/>
	<path fill="#000000" d="M432.4,306.9c-0.9,0.8-1.3,1.7-1.2,2.8C432.1,309.1,432.2,308,432.4,306.9z"/>
	<path fill="#000000" d="M381.3,309.5C381.4,309.5,381.4,309.5,381.3,309.5c-2.5-1-0.5-26.2-0.1-23c0.2-2.4,0.1-4.7-0.1-7.1
		c-0.1,1.1-0.3,2.1-0.4,3.2c-0.1-4.6,2.3-14.7-0.4-18.7c-0.2,0.8-0.3,1.8-0.6,2.6c-0.1-2-0.6-5.7,1.2-7.1c0.1,1,0.3,1.9,0.4,2.9
		c0-3.8-0.2-7.6-0.9-11.4c0,0.5,0,0.9,0,1.4c-3.2-11.3-0.1-24.6-4.4-35.6c-0.4,0.7-0.7,1.4-1.1,2.1c-0.3-1.3-0.6-2.6-0.9-4
		c1.1,0.7,2.2,1.5,3.2,2.3c-0.2-12-0.4-24-0.5-35.9c0-4.4-1.6-25.7,2.2-24.9c0,0-1.2-7.9-0.1-4.2c0.2-1,0.1-1.9-0.3-2.9
		c-0.6,1.1-1.5,1.7-2.7,1.8c0.5-1.5,0.8-3.6,1-4c0.2-6.3-1.7-14.8-1.7-21.8c-1.1-1-8.5,0-9.9,0c-5.1,0-27.4-2.7-28.4,2.2
		c-0.8,3.6,1.2,20.3,1.4,27.7c0.2,15.4,0.6,30.8,1,46.2c0.5,21.3-3.2,46,1.6,68.1c-0.9-0.1-2-0.4-3.1-0.8c1.8,1.6-22,2.5-23.9,2.4
		c-17.8-0.1-35.5-0.6-53.2-0.5c0-7.3,0,0-1.5-2.6c-0.1-12.9,4-26.6,1.9-43.7c-0.4,1-0.9,1.9-1.7,2.7c-1.1-1.8,0.4-5.5,2.1-6.3
		c-1.3-1.5-0.5-12.7-3.7-12.8c3.7,0,0.3-2.6,1.6-3.3c1-0.3,1.5,0,1.4,0.9c1.7-3.3,2.6-10,4.4-12.8c0.2,1.1,0.4,2.2,0.6,3.3
		c3.1-1.5,16.9-2.9,14.1,2.6c0.9,0.1,1.6,0.1,1.7,0.4c0.3-0.8,0.6-1.5,1.1-2.2c1,0.4,1.1,0.9,0.3,1.4c1,1.1,4.5,1,6,4.9
		c-1.3-0.6-1.7-0.4-1.2,0.7c-1.2,1.6,8.7,3.5,10.1,3.4c3.7-0.2,31.8-0.6,29.2,4.4c0.8-0.5-0.4-6.2-0.6-7.3c0.9,0.7,1.4,1.6,1.7,2.7
		c-0.4-10.3-4.7-17.8-8.5-27.4c-5.1-14.6-36.4-24.7-52.9-22.5c-21.9,2.8-42.4,19.3-46.6,42.7c-2.6,14.7,1.1,27.2,0.3,43.7
		c-0.4,7.7,0.2,15.7,0.2,22.4c0,7.7-6.3,4.1-12.4,4.5c-1.9-0.5-3.1,2.1-4.6-3.1c-0.5,0.5-1.1,0.9-1.7,1.1c-0.1-0.4-0.3-0.7-0.6-1
		c0.9-0.5,1.8-1,2.7-1.6c-0.4-0.1-0.8-0.1-1.2-0.2c0.3-1.2-0.8-7.9-3-7.4c3.7-0.9-0.4-2.6,0.2-3.7c0.8-0.8,1.3-0.8,1.6,0.1
		c-0.1-3.4-4.2-9.5-7.4-10.3c1.1,0.2,2.2,0.3,3.2,0.5c-0.2-3.2-2.6-13.4,1.7-13.2c-0.5-1-1-1.6-0.3-1.5c-0.9,0.3-1.8,0.4-2.7,0.4
		c-0.2-0.9,0.1-1.2,1-0.9c0,0.1-1.9-4.3-1.6-6.1c0.8,1,1.3,1,1.4,0c-1.9,0.8-1.8-3.8-3.4-3.9c-3.9-0.2-7.8-0.5-11.8-0.7
		c-4.3-0.3-20.2-3.1-22.3-2c-2.5,0.4,0.5,1.1,0.7,1.1c0,0.2-1.4,3.2-1.9-0.3c-0.7,3.2-0.2,7,0.1,10.3c-0.6,8.2,1.2,16.8,1.8,24.7
		c0.5,8.1,3.1,12.7,2.5,20.6c-3.8-0.4-7.6-0.6-11.4-0.9c-9.2-0.4-6.2-2.3-6.6-10.4c-0.2-3.2,0.1-14.7-0.3-14.9
		c-3.7-1.2-1.7-27.2-1.6-29.5c0.3-27.9-13.4-51.4-42-57.2c-18.3-3.8-33.7,4.5-46.5,18.7c-3.4,3.7-18.9,28.4-13.9,30
		c8.4,2.7,17.7,3.4,26.5,2.5c0.3,0,8.3-2,9.7-2.8c-0.3,1.2,0.8,0.7,1.5,0.2c-2.9-2,8.1-8,10.5-8.7c0.2,0.3,8.5,1.6,9.9,1
		c0.2,0.1,2.7,3.5,2,3.9c0.5-0.2,1.9,0.1,2.3,0.4c-2.7,6.8-1.4,21.7-0.7,29.4c0.3-1.3,0.9-2.4,1.7-3.4c1,2.1-2,8.1-1.5,8.2
		c0.5,0.2,0.7,4.5,0.4,6.2c-0.8,4.8,1.2,9.1,1.9,11.7c1,3.4-1.3,6.6-0.3,8.7c0.1-0.4,0.3-0.8,0.4-1.2c-0.5,2.3-0.3,4.6,0.4,6.8
		c0.2-0.4,0.4-0.8,0.6-1.1c0.4,1.7,0,3-1.2,4.1c-0.1-0.6-0.3-1.3-0.4-1.9c0.1,6.9,3.5,10.8,6.9,16.3c-0.6,0-2.3-2.7-2.8-3.3
		c-4.1,0.6-22.9,2.1-22.4-1.6c-1,0.5-2.1,0.9-3.2,1.1c-0.3-0.5-0.1-0.8,0.4-1c-0.7-0.2-1.3-0.1-1.9,0.3c0.8,0.7,1.1,1.6,1.2,2.7
		c-1.5-0.5-2.1-0.6-2.6-1c-4.9-0.2-12.5,1.9-18.3,1.6c0.5-3.2,0.5,0.3-4.8,0.7c-7.5,0.5-7,0.3-8.3,7.2c-0.7,3.6-4.8,29.8-7.2,28.2
		c0.3,0.7,5.1-0.1,5.8-0.1c-0.6,0.9-1.5,1.3-2.5,1.4c19.1,1.3,36.1-0.4,58.7-0.8c12.4-0.2,24.9-0.5,37.3-0.7
		c8.3-0.1,5.4-6.6,5.3-15.8c24,6,53.4,4.3,77,3.6c-0.7,4.4,1.3,9.4-2.7,12.4c6.7,2.3,15.8,2.3,23.1,2.1c4.1-0.1,10.1,0,13.4-3
		c0.2-0.1,0.7-1.1,1-1.9c0,0.3,0,0.5,0,0.8c0.2-1,0.6,0.3,1.7-1.5c-1.9-1.6,0.4-6.3,0.7-10c2.1,0.4,3.3,0.7,5.7,0.2
		c0-0.5-0.2-0.7-0.8-0.7c0.5,0,6.5,0.5,3.6,0.8c20,1,40.6,2.2,60.6,1c-1.8-0.3-3.6-0.9-5.3-1.7c2.5-0.8,12.2,2.1,12.6,1.5
		c0.7-1.1,9.5-0.3,11.4-0.4c11.3-0.7,23.3-1.5,34.5-1.1C381.9,308,381.8,307.8,381.3,309.5z"/>
	<path fill="#000000" d="M327.9,206.9c0,0.6,0.1,1.2,0.1,1.8C328,208,328,207.4,327.9,206.9z"/>
	<path fill="#000000" d="M381.3,309.5C381.3,309.5,381.3,309.5,381.3,309.5C381.2,309.5,381.2,309.5,381.3,309.5z"/>
	<path fill="#000000" d="M281.4,198.9c0,0.1-0.1,0.2-0.1,0.3C281.4,199,281.4,198.9,281.4,198.9z"/>
	<path fill="#000000" d="M43.9,325.1c-0.4,0-0.8-0.1-1.1-0.1C43.2,325.1,43.6,325.1,43.9,325.1z"/>
	<path fill="#000000" d="M327.9,208.6c0,0.5,0,1,0.1,1.5L327.9,208.6z"/>
	<path fill="#000000" d="M226.3,342.7c0.1,0.1,0.2,0.2,0.2,0.3C226.4,342.8,226.3,342.7,226.3,342.7z"/>
	<path fill="#000000" d="M226.5,342.9C226.6,343.1,226.6,343.1,226.5,342.9L226.5,342.9z"/>
	<path fill="#000000" d="M206.7,329.4c-2.3,0.8-1.1,19.9-0.9,22.7c0,0-0.1,0.2-0.1,0.2c0,0,0-0.1,0,0c-0.7-3.5-0.9-25.3,0-24.6
		c-0.1-0.2-2.7,0.2-3.2,0.3c0.2-0.6,0.7-1,1.3-1.1c-8.3-0.1-14.7,3.9-19.4,11.9c-10-20.8-56-6.8-45,15.6
		c5.3,10.9,8.9,20.7,22.3,20.6c11.7-0.1,15.6-5.9,20.5-15.5c12,35.3,59.8,5,44.1-16.7C224.4,336.9,212.7,334.1,206.7,329.4z
		 M162.3,352.2C162.2,352.2,162.1,352.2,162.3,352.2L162.3,352.2z M161.8,352.6C161.9,352.6,162,352.6,161.8,352.6L161.8,352.6z
		 M162,352.6C161.8,352.6,162,352.6,162,352.6L162,352.6z M162.3,352.6C162.2,352.5,162.2,352.4,162.3,352.6L162.3,352.6z
		 M173.8,352.4c-3.8-0.2-7.9-0.3-11.5,0.1c0,0-0.2-0.2-0.2-0.1c0,0,0.1,0,0,0c3.7-0.7,18.6-4,18.9,0.5
		C178.6,352.7,176.2,352.5,173.8,352.4z M205.5,352.1C205.5,352.2,205.4,352.3,205.5,352.1L205.5,352.1z M205.9,352.6
		C205.9,352.5,205.9,352.3,205.9,352.6L205.9,352.6z"/>
	<path fill="#000000" d="M173.8,352.4C176.5,352.5,170.9,352.3,173.8,352.4L173.8,352.4z"/>
	<path fill="#000000" d="M203.8,326.9c0.2,0,0.4,0,0.7,0C204.2,326.9,204,326.9,203.8,326.9z"/>
</g>
<path fill="#000000" d="M273.602,481.306c-0.578-0.576-1.301-1.03-2.174-1.362c-0.873-0.331-1.885-0.497-3.039-0.497
	c-0.663,0-1.463,0.079-2.4,0.238v-6.077h-1.535v17.711c0.706,0.202,1.402,0.354,2.087,0.454s1.301,0.151,1.849,0.151
	c1.153,0,2.166-0.162,3.039-0.486s1.596-0.764,2.174-1.319c0.576-0.555,1.006-1.211,1.287-1.968s0.42-1.561,0.42-2.411
	s-0.139-1.657-0.42-2.422C274.608,482.554,274.178,481.883,273.602,481.306z M272.391,489.167c-0.852,0.829-2.17,1.243-3.958,1.243
	c-0.39,0-0.805-0.032-1.244-0.097c-0.439-0.065-0.84-0.134-1.2-0.206v-8.845c0.447-0.115,0.887-0.194,1.319-0.237
	c0.433-0.044,0.808-0.065,1.125-0.065c0.894,0,1.668,0.112,2.325,0.335c0.656,0.224,1.199,0.545,1.633,0.963
	c0.432,0.418,0.752,0.919,0.961,1.503s0.314,1.243,0.314,1.979C273.667,487.195,273.241,488.338,272.391,489.167z M247.392,479.446
	c-0.62,0-1.297,0.079-2.033,0.238c-0.735,0.158-1.485,0.433-2.249,0.821l-0.065,1.73c0.548-0.303,0.973-0.52,1.276-0.649
	s0.624-0.237,0.962-0.324c0.338-0.086,0.677-0.158,1.016-0.216s0.667-0.087,0.984-0.087c1.139,0,1.982,0.249,2.53,0.746
	s0.822,1.33,0.822,2.498v0.13c-0.332-0.044-0.732-0.087-1.2-0.13c-0.469-0.043-0.876-0.065-1.222-0.065
	c-1.831,0-3.302,0.311-4.412,0.931c-1.11,0.619-1.665,1.644-1.665,3.07c0,0.707,0.155,1.305,0.465,1.795
	c0.31,0.49,0.713,0.88,1.211,1.168s1.067,0.497,1.708,0.627c0.641,0.13,1.308,0.194,2,0.194c0.807,0,1.6-0.072,2.378-0.216
	c0.779-0.145,1.536-0.368,2.271-0.671v-7.028c0-1.585-0.397-2.742-1.189-3.471C250.189,479.811,248.992,479.446,247.392,479.446z
	 M250.636,489.892c-0.375,0.144-0.858,0.267-1.449,0.367c-0.591,0.102-1.183,0.151-1.773,0.151c-0.505,0-0.984-0.035-1.438-0.108
	c-0.454-0.071-0.84-0.197-1.157-0.378c-0.317-0.18-0.57-0.414-0.757-0.703c-0.188-0.288-0.281-0.663-0.281-1.124
	c0-0.52,0.111-0.934,0.335-1.244c0.224-0.31,0.533-0.551,0.93-0.724c0.396-0.174,0.85-0.296,1.362-0.368
	c0.511-0.072,1.041-0.108,1.589-0.108c0.476,0,0.984,0.029,1.524,0.087c0.541,0.058,0.912,0.108,1.114,0.151V489.892z
	 M258.032,479.868c-0.649,0.122-1.276,0.263-1.881,0.422v11.418h1.535v-10.186c0.202-0.072,0.563-0.147,1.082-0.228
	c0.519-0.079,1.002-0.118,1.449-0.118h1.989v-1.492H260C259.336,479.685,258.681,479.746,258.032,479.868z M-77.92,487.667
	l241.145,0.656l0.663-0.433l-0.632-0.564L-77.92,487.667z M164.994,487.825l1.95,1.95l1.95-1.95l-1.95-1.95L164.994,487.825z
	 M169.559,487.825l3.057,3.057l3.057-3.057l-3.057-3.057L169.559,487.825z M212.359,489.286l-3.395-9.602h-1.514l-3.396,9.602
	l-2.984-9.602h-1.73l3.979,12.023h1.428l3.46-9.645l3.46,9.645h1.427l3.979-12.023h-1.73L212.359,489.286z M238.418,489.589
	c-0.317,0-0.591,0.115-0.822,0.346c-0.231,0.23-0.346,0.505-0.346,0.822c0,0.316,0.115,0.591,0.346,0.821
	c0.23,0.23,0.504,0.346,0.822,0.346c0.317,0,0.591-0.115,0.822-0.346c0.23-0.23,0.346-0.505,0.346-0.821
	c0-0.317-0.116-0.592-0.346-0.822C239.009,489.704,238.735,489.589,238.418,489.589z M193.243,489.286l-3.395-9.602h-1.514
	l-3.396,9.602l-2.984-9.602h-1.73l3.979,12.023h1.428l3.46-9.645l3.46,9.645h1.427l3.979-12.023h-1.73L193.243,489.286z
	 M231.476,489.286l-3.395-9.602h-1.514l-3.396,9.602l-2.984-9.602h-1.73l3.979,12.023h1.428l3.46-9.645l3.46,9.645h1.427
	l3.979-12.023h-1.73L231.476,489.286z M382.732,480.474c-0.426-0.396-0.938-0.667-1.535-0.812c-0.598-0.144-1.271-0.216-2.021-0.216
	c-0.664,0-1.393,0.09-2.184,0.271c-0.793,0.181-1.471,0.4-2.033,0.659c-0.346-0.331-0.818-0.569-1.416-0.714
	c-0.6-0.144-1.273-0.216-2.023-0.216c-0.635,0-1.268,0.058-1.902,0.173l-2.465,0.454v11.635h1.535v-10.38
	c0.447-0.102,0.883-0.188,1.309-0.26c0.424-0.072,0.896-0.108,1.416-0.108c0.605,0,1.125,0.058,1.557,0.173
	c0.434,0.116,0.789,0.321,1.07,0.616c0.281,0.296,0.494,0.711,0.639,1.244s0.217,1.24,0.217,2.119v6.596h1.535v-7.201
	c0-0.663-0.055-1.243-0.162-1.741c-0.109-0.497-0.213-0.861-0.314-1.092c0.086-0.043,0.281-0.119,0.584-0.228
	c0.303-0.107,0.602-0.197,0.898-0.27c0.295-0.072,0.586-0.126,0.875-0.162s0.547-0.055,0.779-0.055c0.59,0,1.102,0.058,1.535,0.173
	c0.432,0.116,0.781,0.317,1.049,0.605c0.266,0.289,0.471,0.703,0.615,1.244c0.145,0.54,0.217,1.251,0.217,2.13v6.596h1.535v-7.201
	c0-0.995-0.111-1.816-0.336-2.466C383.482,481.393,383.158,480.87,382.732,480.474z M280.1,474.581
	c-0.785,0.648-1.18,1.729-1.18,3.243v1.86h-2.551v1.492h2.551v10.531h1.537v-10.531h4.973v-1.492h-4.973v-1.471
	c0-0.635,0.045-1.149,0.141-1.546c0.094-0.396,0.24-0.707,0.443-0.931c0.201-0.223,0.475-0.385,0.82-0.486
	c0.346-0.101,0.779-0.151,1.299-0.151h2.422v-1.492h-2.271C281.956,473.607,280.885,473.932,280.1,474.581z M398.273,487.825
	l3.057,3.057l3.057-3.057l-3.057-3.057L398.273,487.825z M343.322,482.322c0.389-0.418,0.854-0.749,1.395-0.994
	s1.135-0.368,1.783-0.368c0.736,0,1.373,0.076,1.914,0.228s1.121,0.414,1.74,0.789l0.715-1.405c-0.707-0.39-1.393-0.674-2.055-0.854
	c-0.664-0.181-1.436-0.271-2.314-0.271c-0.85,0-1.639,0.155-2.367,0.465c-0.729,0.311-1.367,0.746-1.914,1.309
	c-0.549,0.563-0.98,1.222-1.297,1.979c-0.317,0.757-0.476,1.59-0.476,2.498s0.158,1.74,0.476,2.497
	c0.316,0.757,0.748,1.413,1.297,1.969c0.547,0.555,1.186,0.987,1.914,1.297c0.729,0.311,1.518,0.465,2.367,0.465
	c0.879,0,1.65-0.09,2.314-0.27c0.662-0.181,1.348-0.466,2.055-0.854l-0.715-1.406c-0.619,0.375-1.199,0.639-1.74,0.79
	s-1.178,0.227-1.914,0.227c-0.648,0-1.242-0.119-1.783-0.356c-0.541-0.238-1.006-0.565-1.395-0.984
	c-0.391-0.418-0.693-0.915-0.908-1.492c-0.217-0.576-0.324-1.203-0.324-1.881s0.107-1.305,0.324-1.882
	C342.628,483.238,342.931,482.741,343.322,482.322z M404.387,487.825l1.949,1.95l1.951-1.95l-1.951-1.95L404.387,487.825z
	 M410.701,487.326l-0.664,0.433l0.633,0.564l241.176-0.341L410.701,487.326z M362.611,481.295c-0.549-0.569-1.193-1.02-1.936-1.352
	c-0.742-0.331-1.547-0.497-2.412-0.497c-0.863,0-1.668,0.166-2.41,0.497c-0.742,0.332-1.389,0.782-1.936,1.352
	c-0.549,0.57-0.977,1.229-1.287,1.979c-0.311,0.749-0.465,1.557-0.465,2.422s0.154,1.672,0.465,2.422s0.738,1.409,1.287,1.979
	c0.547,0.569,1.193,1.017,1.936,1.341s1.547,0.486,2.41,0.486c0.865,0,1.67-0.162,2.412-0.486s1.387-0.771,1.936-1.341
	c0.547-0.569,0.977-1.229,1.287-1.979c0.309-0.75,0.465-1.557,0.465-2.422s-0.156-1.673-0.465-2.422
	C363.587,482.524,363.158,481.865,362.611,481.295z M362.394,487.523c-0.217,0.569-0.52,1.067-0.908,1.492
	c-0.389,0.426-0.857,0.765-1.406,1.017c-0.547,0.252-1.152,0.378-1.816,0.378c-0.662,0-1.268-0.126-1.816-0.378
	c-0.547-0.252-1.016-0.591-1.404-1.017c-0.391-0.425-0.693-0.923-0.908-1.492c-0.217-0.569-0.324-1.179-0.324-1.827
	c0-0.649,0.107-1.262,0.324-1.839c0.215-0.576,0.518-1.077,0.908-1.503c0.389-0.425,0.857-0.764,1.404-1.016
	c0.549-0.252,1.154-0.379,1.816-0.379c0.664,0,1.27,0.127,1.816,0.379c0.549,0.252,1.018,0.591,1.406,1.016
	c0.389,0.426,0.691,0.927,0.908,1.503c0.217,0.577,0.324,1.189,0.324,1.839C362.718,486.345,362.611,486.954,362.394,487.523z
	 M296.221,481.295c-0.547-0.569-1.191-1.02-1.936-1.352c-0.742-0.331-1.545-0.497-2.41-0.497s-1.67,0.166-2.412,0.497
	c-0.742,0.332-1.387,0.782-1.936,1.352c-0.547,0.57-0.977,1.229-1.285,1.979c-0.311,0.749-0.465,1.557-0.465,2.422
	s0.154,1.672,0.465,2.422c0.309,0.75,0.738,1.409,1.285,1.979c0.549,0.569,1.193,1.017,1.936,1.341s1.547,0.486,2.412,0.486
	s1.668-0.162,2.41-0.486c0.744-0.324,1.389-0.771,1.936-1.341c0.549-0.569,0.977-1.229,1.287-1.979s0.465-1.557,0.465-2.422
	s-0.154-1.673-0.465-2.422C297.198,482.524,296.77,481.865,296.221,481.295z M296.006,487.523c-0.217,0.569-0.52,1.067-0.908,1.492
	c-0.391,0.426-0.859,0.765-1.406,1.017c-0.549,0.252-1.154,0.378-1.816,0.378c-0.664,0-1.27-0.126-1.816-0.378
	c-0.549-0.252-1.018-0.591-1.406-1.017c-0.389-0.425-0.691-0.923-0.908-1.492s-0.324-1.179-0.324-1.827
	c0-0.649,0.107-1.262,0.324-1.839c0.217-0.576,0.52-1.077,0.908-1.503c0.389-0.425,0.857-0.764,1.406-1.016
	c0.547-0.252,1.152-0.379,1.816-0.379c0.662,0,1.268,0.127,1.816,0.379c0.547,0.252,1.016,0.591,1.406,1.016
	c0.389,0.426,0.691,0.927,0.908,1.503c0.215,0.577,0.324,1.189,0.324,1.839C296.331,486.345,296.221,486.954,296.006,487.523z
	 M309.381,480.463c-0.455-0.39-0.996-0.656-1.623-0.801c-0.627-0.144-1.309-0.216-2.043-0.216c-0.707,0-1.465,0.047-2.271,0.141
	s-1.701,0.234-2.682,0.422v11.699h1.535v-10.402c1.184-0.23,2.293-0.346,3.33-0.346c0.592,0,1.111,0.062,1.559,0.184
	c0.445,0.123,0.818,0.332,1.113,0.628c0.295,0.295,0.525,0.713,0.691,1.254s0.25,1.251,0.25,2.13v6.553h1.535v-7.201
	c0-0.995-0.119-1.82-0.357-2.477C310.18,481.375,309.834,480.852,309.381,480.463z M318.516,490.054
	c-0.346-0.108-0.619-0.277-0.82-0.509c-0.203-0.23-0.35-0.547-0.443-0.951c-0.096-0.403-0.141-0.922-0.141-1.557v-5.86h4.973v-1.492
	h-4.973v-4.347h-1.537v4.347h-2.551v1.492h2.551v6.466c0,0.764,0.109,1.405,0.326,1.925c0.215,0.519,0.525,0.937,0.93,1.254
	c0.402,0.317,0.867,0.544,1.395,0.682c0.525,0.137,1.105,0.205,1.74,0.205h2.271v-1.492h-2.422
	C319.295,490.216,318.862,490.162,318.516,490.054z M337.784,489.589c-0.316,0-0.59,0.115-0.82,0.346s-0.346,0.505-0.346,0.822
	c0,0.316,0.115,0.591,0.346,0.821s0.504,0.346,0.82,0.346c0.318,0,0.592-0.115,0.822-0.346s0.346-0.505,0.346-0.821
	c0-0.317-0.115-0.592-0.346-0.822S338.102,489.589,337.784,489.589z M333.178,486.106c-0.346-0.303-0.785-0.565-1.318-0.789
	c-0.533-0.223-1.182-0.422-1.947-0.595l-0.799-0.173c-1.053-0.216-1.781-0.461-2.184-0.735c-0.404-0.273-0.607-0.678-0.607-1.211
	c0-0.504,0.238-0.904,0.715-1.2c0.475-0.295,1.174-0.443,2.098-0.443c0.793,0,1.477,0.076,2.055,0.228
	c0.576,0.151,1.217,0.421,1.924,0.811l0.691-1.405c-1.412-0.765-2.969-1.146-4.67-1.146c-0.635,0-1.223,0.076-1.764,0.228
	c-0.539,0.151-1.008,0.364-1.404,0.638s-0.711,0.605-0.941,0.994c-0.23,0.39-0.346,0.815-0.346,1.276
	c0,0.462,0.072,0.88,0.217,1.254c0.143,0.375,0.381,0.707,0.713,0.995s0.758,0.537,1.275,0.746c0.52,0.209,1.146,0.4,1.883,0.573
	l0.908,0.194c1.008,0.217,1.729,0.49,2.162,0.822c0.432,0.331,0.648,0.771,0.648,1.318c0,0.39-0.086,0.707-0.26,0.952
	c-0.172,0.245-0.414,0.436-0.725,0.573c-0.311,0.137-0.678,0.237-1.102,0.303c-0.426,0.064-0.877,0.097-1.352,0.097
	c-0.592,0-1.223-0.09-1.893-0.271c-0.67-0.18-1.352-0.479-2.045-0.897l-0.734,1.471c0.779,0.433,1.539,0.742,2.281,0.93
	s1.539,0.281,2.391,0.281c0.748,0,1.434-0.072,2.053-0.216c0.621-0.145,1.158-0.36,1.611-0.648c0.455-0.289,0.805-0.649,1.049-1.082
	c0.246-0.433,0.369-0.93,0.369-1.492c0-0.476-0.072-0.915-0.217-1.318C333.77,486.763,333.526,486.41,333.178,486.106z"/>
</svg>

